{"asset":{"version":"2.0","generator":"SLOPMERICA Civic Foundry 1.0"},"scene":0,"scenes":[{"nodes":[0]}],"nodes":[{"name":"door-commercial-glass","mesh":0}],"meshes":[{"name":"door-commercial-glass","primitives":[{"attributes":{"POSITION":0,"NORMAL":1,"TEXCOORD_0":2},"material":0,"mode":4},{"attributes":{"POSITION":3,"NORMAL":4,"TEXCOORD_0":5},"material":1,"mode":4},{"attributes":{"POSITION":6,"NORMAL":7,"TEXCOORD_0":8},"material":2,"mode":4}]}],"materials":[{"name":"metal-dark","pbrMetallicRoughness":{"baseColorFactor":[1,1,1,1],"baseColorTexture":{"index":0},"metallicRoughnessTexture":{"index":2},"roughnessFactor":1,"metallicFactor":1},"normalTexture":{"index":1,"scale":0.35},"occlusionTexture":{"index":2,"texCoord":0,"strength":0.45},"doubleSided":false,"extras":{"surface":"Charcoal brushed architectural metal.","tileMeters":1.2}},{"name":"glass-blue","pbrMetallicRoughness":{"baseColorFactor":[1,1,1,1],"baseColorTexture":{"index":3},"metallicRoughnessTexture":{"index":5},"roughnessFactor":1,"metallicFactor":1},"normalTexture":{"index":4,"scale":0.12},"occlusionTexture":{"index":5,"texCoord":0,"strength":0.45},"doubleSided":false,"extras":{"surface":"Desaturated blue-gray architectural glass with faint waviness.","tileMeters":2.5}},{"name":"concrete","pbrMetallicRoughness":{"baseColorFactor":[1,1,1,1],"baseColorTexture":{"index":6},"metallicRoughnessTexture":{"index":8},"roughnessFactor":1,"metallicFactor":1},"normalTexture":{"index":7,"scale":0.82},"occlusionTexture":{"index":8,"texCoord":0,"strength":0.45},"doubleSided":false,"extras":{"surface":"Cool concrete with embedded mineral aggregate.","tileMeters":1.8}}],"textures":[{"sampler":0,"source":0},{"sampler":0,"source":1},{"sampler":0,"source":2},{"sampler":0,"source":3},{"sampler":0,"source":4},{"sampler":0,"source":5},{"sampler":0,"source":6},{"sampler":0,"source":7},{"sampler":0,"source":8}],"images":[{"uri":"../textures/metal-dark-albedo.png"},{"uri":"../textures/metal-dark-normal.png"},{"uri":"../textures/metal-dark-orm.png"},{"uri":"../textures/glass-blue-albedo.png"},{"uri":"../textures/glass-blue-normal.png"},{"uri":"../textures/glass-blue-orm.png"},{"uri":"../textures/concrete-albedo.png"},{"uri":"../textures/concrete-normal.png"},{"uri":"../textures/concrete-orm.png"}],"samplers":[{"magFilter":9729,"minFilter":9987,"wrapS":10497,"wrapT":10497}],"buffers":[{"uri":"door-commercial-glass.lod0.bin","byteLength":86784}],"bufferViews":[{"buffer":0,"byteOffset":0,"byteLength":24768,"target":34962},{"buffer":0,"byteOffset":24768,"byteLength":24768,"target":34962},{"buffer":0,"byteOffset":49536,"byteLength":16512,"target":34962},{"buffer":0,"byteOffset":66048,"byteLength":3888,"target":34962},{"buffer":0,"byteOffset":69936,"byteLength":3888,"target":34962},{"buffer":0,"byteOffset":73824,"byteLength":2592,"target":34962},{"buffer":0,"byteOffset":76416,"byteLength":3888,"target":34962},{"buffer":0,"byteOffset":80304,"byteLength":3888,"target":34962},{"buffer":0,"byteOffset":84192,"byteLength":2592,"target":34962}],"accessors":[{"bufferView":0,"componentType":5126,"count":2064,"type":"VEC3","min":[-0.6000000238418579,-0.06999995559453964,-0.08999999612569809],"max":[0.6000000238418579,2.2750000953674316,0.26500001549720764]},{"bufferView":1,"componentType":5126,"count":2064,"type":"VEC3"},{"bufferView":2,"componentType":5126,"count":2064,"type":"VEC2"},{"bufferView":3,"componentType":5126,"count":324,"type":"VEC3","min":[-0.3799999952316284,0.7699999809265137,0.14249999821186066],"max":[0.3799999952316284,2.0460000038146973,0.17749999463558197]},{"bufferView":4,"componentType":5126,"count":324,"type":"VEC3"},{"bufferView":5,"componentType":5126,"count":324,"type":"VEC2"},{"bufferView":6,"componentType":5126,"count":324,"type":"VEC3","min":[-0.6200000047683716,-1.490116086078075e-10,-0.029999995604157448],"max":[0.6200000047683716,0.07000000029802322,0.28999999165534973]},{"bufferView":7,"componentType":5126,"count":324,"type":"VEC3"},{"bufferView":8,"componentType":5126,"count":324,"type":"VEC2"}],"extras":{"library":"Civic Foundry","units":"metres","up":"+Y","front":"+Z","lod":0}}