{"asset":{"version":"2.0","generator":"SLOPMERICA Civic Foundry 1.0"},"scene":0,"scenes":[{"nodes":[0]}],"nodes":[{"name":"door-rowhouse-entry","mesh":0}],"meshes":[{"name":"door-rowhouse-entry","primitives":[{"attributes":{"POSITION":0,"NORMAL":1,"TEXCOORD_0":2},"material":0,"mode":4},{"attributes":{"POSITION":3,"NORMAL":4,"TEXCOORD_0":5},"material":1,"mode":4},{"attributes":{"POSITION":6,"NORMAL":7,"TEXCOORD_0":8},"material":2,"mode":4},{"attributes":{"POSITION":9,"NORMAL":10,"TEXCOORD_0":11},"material":3,"mode":4},{"attributes":{"POSITION":12,"NORMAL":13,"TEXCOORD_0":14},"material":4,"mode":4},{"attributes":{"POSITION":15,"NORMAL":16,"TEXCOORD_0":17},"material":5,"mode":4},{"attributes":{"POSITION":18,"NORMAL":19,"TEXCOORD_0":20},"material":6,"mode":4}]}],"materials":[{"name":"limestone","pbrMetallicRoughness":{"baseColorFactor":[1,1,1,1],"baseColorTexture":{"index":0},"metallicRoughnessTexture":{"index":2},"roughnessFactor":1,"metallicFactor":1},"normalTexture":{"index":1,"scale":0.9},"occlusionTexture":{"index":2,"texCoord":0,"strength":0.45},"doubleSided":false,"extras":{"surface":"Warm coursed limestone blocks with fine joints.","tileMeters":1.4}},{"name":"wood-painted","pbrMetallicRoughness":{"baseColorFactor":[1,1,1,1],"baseColorTexture":{"index":3},"metallicRoughnessTexture":{"index":5},"roughnessFactor":1,"metallicFactor":1},"normalTexture":{"index":4,"scale":0.55},"occlusionTexture":{"index":5,"texCoord":0,"strength":0.45},"doubleSided":false,"extras":{"surface":"Painted timber boards with restrained worn grain.","tileMeters":1.6}},{"name":"concrete","pbrMetallicRoughness":{"baseColorFactor":[1,1,1,1],"baseColorTexture":{"index":6},"metallicRoughnessTexture":{"index":8},"roughnessFactor":1,"metallicFactor":1},"normalTexture":{"index":7,"scale":0.82},"occlusionTexture":{"index":8,"texCoord":0,"strength":0.45},"doubleSided":false,"extras":{"surface":"Cool concrete with embedded mineral aggregate.","tileMeters":1.8}},{"name":"metal-dark","pbrMetallicRoughness":{"baseColorFactor":[1,1,1,1],"baseColorTexture":{"index":9},"metallicRoughnessTexture":{"index":11},"roughnessFactor":1,"metallicFactor":1},"normalTexture":{"index":10,"scale":0.35},"occlusionTexture":{"index":11,"texCoord":0,"strength":0.45},"doubleSided":false,"extras":{"surface":"Charcoal brushed architectural metal.","tileMeters":1.2}},{"name":"wood-oak","pbrMetallicRoughness":{"baseColorFactor":[1,1,1,1],"baseColorTexture":{"index":12},"metallicRoughnessTexture":{"index":14},"roughnessFactor":1,"metallicFactor":1},"normalTexture":{"index":13,"scale":1},"occlusionTexture":{"index":14,"texCoord":0,"strength":0.45},"doubleSided":false,"extras":{"surface":"Weathered oak boards with flowing grain and knots.","tileMeters":1.6}},{"name":"roof-metal","pbrMetallicRoughness":{"baseColorFactor":[1,1,1,1],"baseColorTexture":{"index":15},"metallicRoughnessTexture":{"index":17},"roughnessFactor":1,"metallicFactor":1},"normalTexture":{"index":16,"scale":0.68},"occlusionTexture":{"index":17,"texCoord":0,"strength":0.45},"doubleSided":false,"extras":{"surface":"Painted standing-seam metal roofing.","tileMeters":3}},{"name":"glass-blue","pbrMetallicRoughness":{"baseColorFactor":[1,1,1,1],"baseColorTexture":{"index":18},"metallicRoughnessTexture":{"index":20},"roughnessFactor":1,"metallicFactor":1},"normalTexture":{"index":19,"scale":0.12},"occlusionTexture":{"index":20,"texCoord":0,"strength":0.45},"doubleSided":false,"extras":{"surface":"Desaturated blue-gray architectural glass with faint waviness.","tileMeters":2.5}}],"textures":[{"sampler":0,"source":0},{"sampler":0,"source":1},{"sampler":0,"source":2},{"sampler":0,"source":3},{"sampler":0,"source":4},{"sampler":0,"source":5},{"sampler":0,"source":6},{"sampler":0,"source":7},{"sampler":0,"source":8},{"sampler":0,"source":9},{"sampler":0,"source":10},{"sampler":0,"source":11},{"sampler":0,"source":12},{"sampler":0,"source":13},{"sampler":0,"source":14},{"sampler":0,"source":15},{"sampler":0,"source":16},{"sampler":0,"source":17},{"sampler":0,"source":18},{"sampler":0,"source":19},{"sampler":0,"source":20}],"images":[{"uri":"../textures/limestone-albedo.png"},{"uri":"../textures/limestone-normal.png"},{"uri":"../textures/limestone-orm.png"},{"uri":"../textures/wood-painted-albedo.png"},{"uri":"../textures/wood-painted-normal.png"},{"uri":"../textures/wood-painted-orm.png"},{"uri":"../textures/concrete-albedo.png"},{"uri":"../textures/concrete-normal.png"},{"uri":"../textures/concrete-orm.png"},{"uri":"../textures/metal-dark-albedo.png"},{"uri":"../textures/metal-dark-normal.png"},{"uri":"../textures/metal-dark-orm.png"},{"uri":"../textures/wood-oak-albedo.png"},{"uri":"../textures/wood-oak-normal.png"},{"uri":"../textures/wood-oak-orm.png"},{"uri":"../textures/roof-metal-albedo.png"},{"uri":"../textures/roof-metal-normal.png"},{"uri":"../textures/roof-metal-orm.png"},{"uri":"../textures/glass-blue-albedo.png"},{"uri":"../textures/glass-blue-normal.png"},{"uri":"../textures/glass-blue-orm.png"}],"samplers":[{"magFilter":9729,"minFilter":9987,"wrapS":10497,"wrapT":10497}],"buffers":[{"uri":"door-rowhouse-entry.lod0.bin","byteLength":297600}],"bufferViews":[{"buffer":0,"byteOffset":0,"byteLength":3888,"target":34962},{"buffer":0,"byteOffset":3888,"byteLength":3888,"target":34962},{"buffer":0,"byteOffset":7776,"byteLength":2592,"target":34962},{"buffer":0,"byteOffset":10368,"byteLength":50544,"target":34962},{"buffer":0,"byteOffset":60912,"byteLength":50544,"target":34962},{"buffer":0,"byteOffset":111456,"byteLength":33696,"target":34962},{"buffer":0,"byteOffset":145152,"byteLength":3888,"target":34962},{"buffer":0,"byteOffset":149040,"byteLength":3888,"target":34962},{"buffer":0,"byteOffset":152928,"byteLength":2592,"target":34962},{"buffer":0,"byteOffset":155520,"byteLength":22176,"target":34962},{"buffer":0,"byteOffset":177696,"byteLength":22176,"target":34962},{"buffer":0,"byteOffset":199872,"byteLength":14784,"target":34962},{"buffer":0,"byteOffset":214656,"byteLength":19440,"target":34962},{"buffer":0,"byteOffset":234096,"byteLength":19440,"target":34962},{"buffer":0,"byteOffset":253536,"byteLength":12960,"target":34962},{"buffer":0,"byteOffset":266496,"byteLength":3888,"target":34962},{"buffer":0,"byteOffset":270384,"byteLength":3888,"target":34962},{"buffer":0,"byteOffset":274272,"byteLength":2592,"target":34962},{"buffer":0,"byteOffset":276864,"byteLength":7776,"target":34962},{"buffer":0,"byteOffset":284640,"byteLength":7776,"target":34962},{"buffer":0,"byteOffset":292416,"byteLength":5184,"target":34962}],"accessors":[{"bufferView":0,"componentType":5126,"count":324,"type":"VEC3","min":[-0.5799999833106995,-0.07000003755092621,-0.08999999612569809],"max":[0.5799999833106995,2.3500001430511475,0.029999999329447746]},{"bufferView":1,"componentType":5126,"count":324,"type":"VEC3"},{"bufferView":2,"componentType":5126,"count":324,"type":"VEC2"},{"bufferView":3,"componentType":5126,"count":4212,"type":"VEC3","min":[-0.5350000262260437,-0.054999999701976776,0.03999999910593033],"max":[0.5350000262260437,2.3550000190734863,0.23000000417232513]},{"bufferView":4,"componentType":5126,"count":4212,"type":"VEC3"},{"bufferView":5,"componentType":5126,"count":4212,"type":"VEC2"},{"bufferView":6,"componentType":5126,"count":324,"type":"VEC3","min":[-0.6000000238418579,-1.490116086078075e-10,-0.029999995604157448],"max":[0.6000000238418579,0.07000000029802322,0.28999999165534973]},{"bufferView":7,"componentType":5126,"count":324,"type":"VEC3"},{"bufferView":8,"componentType":5126,"count":324,"type":"VEC2"},{"bufferView":9,"componentType":5126,"count":1848,"type":"VEC3","min":[-0.48500001430511475,1.059399962425232,0.04117356985807419],"max":[0.48500001430511475,2.5533900260925293,0.5888264179229736]},{"bufferView":10,"componentType":5126,"count":1848,"type":"VEC3"},{"bufferView":11,"componentType":5126,"count":1848,"type":"VEC2"},{"bufferView":12,"componentType":5126,"count":1620,"type":"VEC3","min":[-0.31279999017715454,0.2621999979019165,0.14249999821186066],"max":[0.31279999017715454,2.200200080871582,0.16750000417232513]},{"bufferView":13,"componentType":5126,"count":1620,"type":"VEC3"},{"bufferView":14,"componentType":5126,"count":1620,"type":"VEC2"},{"bufferView":15,"componentType":5126,"count":324,"type":"VEC3","min":[-0.8100000023841858,2.5321619510650635,-0.04148244112730026],"max":[0.8100000023841858,2.7078380584716797,0.6814824342727661]},{"bufferView":16,"componentType":5126,"count":324,"type":"VEC3"},{"bufferView":17,"componentType":5126,"count":324,"type":"VEC2"},{"bufferView":18,"componentType":5126,"count":648,"type":"VEC3","min":[-0.8799999952316284,1.4305114426349519e-8,0.03500000014901161],"max":[0.8799999952316284,2.2799999713897705,0.08500000089406967]},{"bufferView":19,"componentType":5126,"count":648,"type":"VEC3"},{"bufferView":20,"componentType":5126,"count":648,"type":"VEC2"}],"extras":{"library":"Civic Foundry","units":"metres","up":"+Y","front":"+Z","lod":0}}