{"asset":{"version":"2.0","generator":"SLOPMERICA Civic Foundry 1.0"},"scene":0,"scenes":[{"nodes":[0]}],"nodes":[{"name":"door-theater-marquee","mesh":0}],"meshes":[{"name":"door-theater-marquee","primitives":[{"attributes":{"POSITION":0,"NORMAL":1,"TEXCOORD_0":2},"material":0,"mode":4},{"attributes":{"POSITION":3,"NORMAL":4,"TEXCOORD_0":5},"material":1,"mode":4},{"attributes":{"POSITION":6,"NORMAL":7,"TEXCOORD_0":8},"material":2,"mode":4},{"attributes":{"POSITION":9,"NORMAL":10,"TEXCOORD_0":11},"material":3,"mode":4}]}],"materials":[{"name":"limestone","pbrMetallicRoughness":{"baseColorFactor":[1,1,1,1],"baseColorTexture":{"index":0},"metallicRoughnessTexture":{"index":2},"roughnessFactor":1,"metallicFactor":1},"normalTexture":{"index":1,"scale":0.9},"occlusionTexture":{"index":2,"texCoord":0,"strength":0.45},"doubleSided":false,"extras":{"surface":"Warm coursed limestone blocks with fine joints.","tileMeters":1.4}},{"name":"metal-dark","pbrMetallicRoughness":{"baseColorFactor":[1,1,1,1],"baseColorTexture":{"index":3},"metallicRoughnessTexture":{"index":5},"roughnessFactor":1,"metallicFactor":1},"normalTexture":{"index":4,"scale":0.35},"occlusionTexture":{"index":5,"texCoord":0,"strength":0.45},"doubleSided":false,"extras":{"surface":"Charcoal brushed architectural metal.","tileMeters":1.2}},{"name":"glass-blue","pbrMetallicRoughness":{"baseColorFactor":[1,1,1,1],"baseColorTexture":{"index":6},"metallicRoughnessTexture":{"index":8},"roughnessFactor":1,"metallicFactor":1},"normalTexture":{"index":7,"scale":0.12},"occlusionTexture":{"index":8,"texCoord":0,"strength":0.45},"doubleSided":false,"extras":{"surface":"Desaturated blue-gray architectural glass with faint waviness.","tileMeters":2.5}},{"name":"metal-copper","pbrMetallicRoughness":{"baseColorFactor":[1,1,1,1],"baseColorTexture":{"index":9},"metallicRoughnessTexture":{"index":11},"roughnessFactor":1,"metallicFactor":1},"normalTexture":{"index":10,"scale":0.7},"occlusionTexture":{"index":11,"texCoord":0,"strength":0.45},"doubleSided":false,"extras":{"surface":"Copper sheet with controlled turquoise oxidation.","tileMeters":1.25}}],"textures":[{"sampler":0,"source":0},{"sampler":0,"source":1},{"sampler":0,"source":2},{"sampler":0,"source":3},{"sampler":0,"source":4},{"sampler":0,"source":5},{"sampler":0,"source":6},{"sampler":0,"source":7},{"sampler":0,"source":8},{"sampler":0,"source":9},{"sampler":0,"source":10},{"sampler":0,"source":11}],"images":[{"uri":"../textures/limestone-albedo.png"},{"uri":"../textures/limestone-normal.png"},{"uri":"../textures/limestone-orm.png"},{"uri":"../textures/metal-dark-albedo.png"},{"uri":"../textures/metal-dark-normal.png"},{"uri":"../textures/metal-dark-orm.png"},{"uri":"../textures/glass-blue-albedo.png"},{"uri":"../textures/glass-blue-normal.png"},{"uri":"../textures/glass-blue-orm.png"},{"uri":"../textures/metal-copper-albedo.png"},{"uri":"../textures/metal-copper-normal.png"},{"uri":"../textures/metal-copper-orm.png"}],"samplers":[{"magFilter":9729,"minFilter":9987,"wrapS":10497,"wrapT":10497}],"buffers":[{"uri":"door-theater-marquee.lod2.bin","byteLength":9216}],"bufferViews":[{"buffer":0,"byteOffset":0,"byteLength":864,"target":34962},{"buffer":0,"byteOffset":864,"byteLength":864,"target":34962},{"buffer":0,"byteOffset":1728,"byteLength":576,"target":34962},{"buffer":0,"byteOffset":2304,"byteLength":864,"target":34962},{"buffer":0,"byteOffset":3168,"byteLength":864,"target":34962},{"buffer":0,"byteOffset":4032,"byteLength":576,"target":34962},{"buffer":0,"byteOffset":4608,"byteLength":1296,"target":34962},{"buffer":0,"byteOffset":5904,"byteLength":1296,"target":34962},{"buffer":0,"byteOffset":7200,"byteLength":864,"target":34962},{"buffer":0,"byteOffset":8064,"byteLength":432,"target":34962},{"buffer":0,"byteOffset":8496,"byteLength":432,"target":34962},{"buffer":0,"byteOffset":8928,"byteLength":288,"target":34962}],"accessors":[{"bufferView":0,"componentType":5126,"count":72,"type":"VEC3","min":[-1.3725000619888306,-0.06999995559453964,-0.08999999612569809],"max":[1.3725000619888306,2.5199999809265137,0.029999999329447746]},{"bufferView":1,"componentType":5126,"count":72,"type":"VEC3"},{"bufferView":2,"componentType":5126,"count":72,"type":"VEC2"},{"bufferView":3,"componentType":5126,"count":72,"type":"VEC3","min":[-1.252500057220459,-2.3841858265427618e-8,0.03999999910593033],"max":[1.252500057220459,2.450000047683716,0.14000000059604645]},{"bufferView":4,"componentType":5126,"count":72,"type":"VEC3"},{"bufferView":5,"componentType":5126,"count":72,"type":"VEC2"},{"bufferView":6,"componentType":5126,"count":108,"type":"VEC3","min":[-1.25,0.8575000166893005,0.03500000014901161],"max":[1.25,3.1700000762939453,0.17749999463558197]},{"bufferView":7,"componentType":5126,"count":108,"type":"VEC3"},{"bufferView":8,"componentType":5126,"count":108,"type":"VEC2"},{"bufferView":9,"componentType":5126,"count":36,"type":"VEC3","min":[-1.600000023841858,3.319979667663574,-0.043664660304784775],"max":[1.600000023841858,3.5000202655792236,0.6836646795272827]},{"bufferView":10,"componentType":5126,"count":36,"type":"VEC3"},{"bufferView":11,"componentType":5126,"count":36,"type":"VEC2"}],"extras":{"library":"Civic Foundry","units":"metres","up":"+Y","front":"+Z","lod":2}}