{"asset":{"version":"2.0","generator":"SLOPMERICA Civic Foundry 1.0"},"scene":0,"scenes":[{"nodes":[0]}],"nodes":[{"name":"door-loading-rollup","mesh":0}],"meshes":[{"name":"door-loading-rollup","primitives":[{"attributes":{"POSITION":0,"NORMAL":1,"TEXCOORD_0":2},"material":0,"mode":4},{"attributes":{"POSITION":3,"NORMAL":4,"TEXCOORD_0":5},"material":1,"mode":4},{"attributes":{"POSITION":6,"NORMAL":7,"TEXCOORD_0":8},"material":2,"mode":4},{"attributes":{"POSITION":9,"NORMAL":10,"TEXCOORD_0":11},"material":3,"mode":4},{"attributes":{"POSITION":12,"NORMAL":13,"TEXCOORD_0":14},"material":4,"mode":4}]}],"materials":[{"name":"concrete","pbrMetallicRoughness":{"baseColorFactor":[1,1,1,1],"baseColorTexture":{"index":0},"metallicRoughnessTexture":{"index":2},"roughnessFactor":1,"metallicFactor":1},"normalTexture":{"index":1,"scale":0.82},"occlusionTexture":{"index":2,"texCoord":0,"strength":0.45},"doubleSided":false,"extras":{"surface":"Cool concrete with embedded mineral aggregate.","tileMeters":1.8}},{"name":"metal-galvanized","pbrMetallicRoughness":{"baseColorFactor":[1,1,1,1],"baseColorTexture":{"index":3},"metallicRoughnessTexture":{"index":5},"roughnessFactor":1,"metallicFactor":1},"normalTexture":{"index":4,"scale":0.15},"occlusionTexture":{"index":5,"texCoord":0,"strength":0.45},"doubleSided":false,"extras":{"surface":"Silvery galvanized steel with fine zinc spangle.","tileMeters":0.15}},{"name":"wood-painted","pbrMetallicRoughness":{"baseColorFactor":[1,1,1,1],"baseColorTexture":{"index":6},"metallicRoughnessTexture":{"index":8},"roughnessFactor":1,"metallicFactor":1},"normalTexture":{"index":7,"scale":0.55},"occlusionTexture":{"index":8,"texCoord":0,"strength":0.45},"doubleSided":false,"extras":{"surface":"Painted timber boards with restrained worn grain.","tileMeters":1.6}},{"name":"metal-dark","pbrMetallicRoughness":{"baseColorFactor":[1,1,1,1],"baseColorTexture":{"index":9},"metallicRoughnessTexture":{"index":11},"roughnessFactor":1,"metallicFactor":1},"normalTexture":{"index":10,"scale":0.35},"occlusionTexture":{"index":11,"texCoord":0,"strength":0.45},"doubleSided":false,"extras":{"surface":"Charcoal brushed architectural metal.","tileMeters":1.2}},{"name":"rubber","pbrMetallicRoughness":{"baseColorFactor":[1,1,1,1],"baseColorTexture":{"index":12},"metallicRoughnessTexture":{"index":14},"roughnessFactor":1,"metallicFactor":1},"normalTexture":{"index":13,"scale":0.65},"occlusionTexture":{"index":14,"texCoord":0,"strength":0.45},"doubleSided":false,"extras":{"surface":"Molded charcoal rubber with shallow diagonal tread.","tileMeters":0.75}}],"textures":[{"sampler":0,"source":0},{"sampler":0,"source":1},{"sampler":0,"source":2},{"sampler":0,"source":3},{"sampler":0,"source":4},{"sampler":0,"source":5},{"sampler":0,"source":6},{"sampler":0,"source":7},{"sampler":0,"source":8},{"sampler":0,"source":9},{"sampler":0,"source":10},{"sampler":0,"source":11},{"sampler":0,"source":12},{"sampler":0,"source":13},{"sampler":0,"source":14}],"images":[{"uri":"../textures/concrete-albedo.png"},{"uri":"../textures/concrete-normal.png"},{"uri":"../textures/concrete-orm.png"},{"uri":"../textures/metal-galvanized-albedo.png"},{"uri":"../textures/metal-galvanized-normal.png"},{"uri":"../textures/metal-galvanized-orm.png"},{"uri":"../textures/wood-painted-albedo.png"},{"uri":"../textures/wood-painted-normal.png"},{"uri":"../textures/wood-painted-orm.png"},{"uri":"../textures/metal-dark-albedo.png"},{"uri":"../textures/metal-dark-normal.png"},{"uri":"../textures/metal-dark-orm.png"},{"uri":"../textures/rubber-albedo.png"},{"uri":"../textures/rubber-normal.png"},{"uri":"../textures/rubber-orm.png"}],"samplers":[{"magFilter":9729,"minFilter":9987,"wrapS":10497,"wrapT":10497}],"buffers":[{"uri":"door-loading-rollup.lod1.bin","byteLength":20736}],"bufferViews":[{"buffer":0,"byteOffset":0,"byteLength":864,"target":34962},{"buffer":0,"byteOffset":864,"byteLength":864,"target":34962},{"buffer":0,"byteOffset":1728,"byteLength":576,"target":34962},{"buffer":0,"byteOffset":2304,"byteLength":432,"target":34962},{"buffer":0,"byteOffset":2736,"byteLength":432,"target":34962},{"buffer":0,"byteOffset":3168,"byteLength":288,"target":34962},{"buffer":0,"byteOffset":3456,"byteLength":1728,"target":34962},{"buffer":0,"byteOffset":5184,"byteLength":1728,"target":34962},{"buffer":0,"byteOffset":6912,"byteLength":1152,"target":34962},{"buffer":0,"byteOffset":8064,"byteLength":3888,"target":34962},{"buffer":0,"byteOffset":11952,"byteLength":3888,"target":34962},{"buffer":0,"byteOffset":15840,"byteLength":2592,"target":34962},{"buffer":0,"byteOffset":18432,"byteLength":864,"target":34962},{"buffer":0,"byteOffset":19296,"byteLength":864,"target":34962},{"buffer":0,"byteOffset":20160,"byteLength":576,"target":34962}],"accessors":[{"bufferView":0,"componentType":5126,"count":72,"type":"VEC3","min":[-1.7649999856948853,-0.0700000524520874,-0.08999999612569809],"max":[1.7649999856948853,3.320000171661377,0.28999999165534973]},{"bufferView":1,"componentType":5126,"count":72,"type":"VEC3"},{"bufferView":2,"componentType":5126,"count":72,"type":"VEC2"},{"bufferView":3,"componentType":5126,"count":36,"type":"VEC3","min":[-1.625,0,0.03999999910593033],"max":[1.625,3.25,0.14000000059604645]},{"bufferView":4,"componentType":5126,"count":36,"type":"VEC3"},{"bufferView":5,"componentType":5126,"count":36,"type":"VEC2"},{"bufferView":6,"componentType":5126,"count":144,"type":"VEC3","min":[-1.7000000476837158,-1.4901161415892261e-9,0.10999999940395355],"max":[1.7000000476837158,3.325000047683716,0.23000000417232513]},{"bufferView":7,"componentType":5126,"count":144,"type":"VEC3"},{"bufferView":8,"componentType":5126,"count":144,"type":"VEC2"},{"bufferView":9,"componentType":5126,"count":324,"type":"VEC3","min":[-1.565000057220459,0.26249998807907104,0.1525000035762787],"max":[1.565000057220459,3.0174999237060547,0.1875]},{"bufferView":10,"componentType":5126,"count":324,"type":"VEC3"},{"bufferView":11,"componentType":5126,"count":324,"type":"VEC2"},{"bufferView":12,"componentType":5126,"count":72,"type":"VEC3","min":[-1.534999966621399,5.364418242947977e-9,0.12999999523162842],"max":[1.534999966621399,0.47999998927116394,0.4300000071525574]},{"bufferView":13,"componentType":5126,"count":72,"type":"VEC3"},{"bufferView":14,"componentType":5126,"count":72,"type":"VEC2"}],"extras":{"library":"Civic Foundry","units":"metres","up":"+Y","front":"+Z","lod":1}}