{"asset":{"version":"2.0","generator":"SLOPMERICA Civic Foundry 1.0"},"scene":0,"scenes":[{"nodes":[0]}],"nodes":[{"name":"door-double-civic","mesh":0}],"meshes":[{"name":"door-double-civic","primitives":[{"attributes":{"POSITION":0,"NORMAL":1,"TEXCOORD_0":2},"material":0,"mode":4},{"attributes":{"POSITION":3,"NORMAL":4,"TEXCOORD_0":5},"material":1,"mode":4},{"attributes":{"POSITION":6,"NORMAL":7,"TEXCOORD_0":8},"material":2,"mode":4},{"attributes":{"POSITION":9,"NORMAL":10,"TEXCOORD_0":11},"material":3,"mode":4},{"attributes":{"POSITION":12,"NORMAL":13,"TEXCOORD_0":14},"material":4,"mode":4},{"attributes":{"POSITION":15,"NORMAL":16,"TEXCOORD_0":17},"material":5,"mode":4}]}],"materials":[{"name":"limestone","pbrMetallicRoughness":{"baseColorFactor":[1,1,1,1],"baseColorTexture":{"index":0},"metallicRoughnessTexture":{"index":2},"roughnessFactor":1,"metallicFactor":1},"normalTexture":{"index":1,"scale":0.9},"occlusionTexture":{"index":2,"texCoord":0,"strength":0.45},"doubleSided":false,"extras":{"surface":"Warm coursed limestone blocks with fine joints.","tileMeters":1.4}},{"name":"wood-oak","pbrMetallicRoughness":{"baseColorFactor":[1,1,1,1],"baseColorTexture":{"index":3},"metallicRoughnessTexture":{"index":5},"roughnessFactor":1,"metallicFactor":1},"normalTexture":{"index":4,"scale":1},"occlusionTexture":{"index":5,"texCoord":0,"strength":0.45},"doubleSided":false,"extras":{"surface":"Weathered oak boards with flowing grain and knots.","tileMeters":1.6}},{"name":"wood-painted","pbrMetallicRoughness":{"baseColorFactor":[1,1,1,1],"baseColorTexture":{"index":6},"metallicRoughnessTexture":{"index":8},"roughnessFactor":1,"metallicFactor":1},"normalTexture":{"index":7,"scale":0.55},"occlusionTexture":{"index":8,"texCoord":0,"strength":0.45},"doubleSided":false,"extras":{"surface":"Painted timber boards with restrained worn grain.","tileMeters":1.6}},{"name":"concrete","pbrMetallicRoughness":{"baseColorFactor":[1,1,1,1],"baseColorTexture":{"index":9},"metallicRoughnessTexture":{"index":11},"roughnessFactor":1,"metallicFactor":1},"normalTexture":{"index":10,"scale":0.82},"occlusionTexture":{"index":11,"texCoord":0,"strength":0.45},"doubleSided":false,"extras":{"surface":"Cool concrete with embedded mineral aggregate.","tileMeters":1.8}},{"name":"metal-copper","pbrMetallicRoughness":{"baseColorFactor":[1,1,1,1],"baseColorTexture":{"index":12},"metallicRoughnessTexture":{"index":14},"roughnessFactor":1,"metallicFactor":1},"normalTexture":{"index":13,"scale":0.7},"occlusionTexture":{"index":14,"texCoord":0,"strength":0.45},"doubleSided":false,"extras":{"surface":"Copper sheet with controlled turquoise oxidation.","tileMeters":1.25}},{"name":"glass-blue","pbrMetallicRoughness":{"baseColorFactor":[1,1,1,1],"baseColorTexture":{"index":15},"metallicRoughnessTexture":{"index":17},"roughnessFactor":1,"metallicFactor":1},"normalTexture":{"index":16,"scale":0.12},"occlusionTexture":{"index":17,"texCoord":0,"strength":0.45},"doubleSided":false,"extras":{"surface":"Desaturated blue-gray architectural glass with faint waviness.","tileMeters":2.5}}],"textures":[{"sampler":0,"source":0},{"sampler":0,"source":1},{"sampler":0,"source":2},{"sampler":0,"source":3},{"sampler":0,"source":4},{"sampler":0,"source":5},{"sampler":0,"source":6},{"sampler":0,"source":7},{"sampler":0,"source":8},{"sampler":0,"source":9},{"sampler":0,"source":10},{"sampler":0,"source":11},{"sampler":0,"source":12},{"sampler":0,"source":13},{"sampler":0,"source":14},{"sampler":0,"source":15},{"sampler":0,"source":16},{"sampler":0,"source":17}],"images":[{"uri":"../textures/limestone-albedo.png"},{"uri":"../textures/limestone-normal.png"},{"uri":"../textures/limestone-orm.png"},{"uri":"../textures/wood-oak-albedo.png"},{"uri":"../textures/wood-oak-normal.png"},{"uri":"../textures/wood-oak-orm.png"},{"uri":"../textures/wood-painted-albedo.png"},{"uri":"../textures/wood-painted-normal.png"},{"uri":"../textures/wood-painted-orm.png"},{"uri":"../textures/concrete-albedo.png"},{"uri":"../textures/concrete-normal.png"},{"uri":"../textures/concrete-orm.png"},{"uri":"../textures/metal-copper-albedo.png"},{"uri":"../textures/metal-copper-normal.png"},{"uri":"../textures/metal-copper-orm.png"},{"uri":"../textures/glass-blue-albedo.png"},{"uri":"../textures/glass-blue-normal.png"},{"uri":"../textures/glass-blue-orm.png"}],"samplers":[{"magFilter":9729,"minFilter":9987,"wrapS":10497,"wrapT":10497}],"buffers":[{"uri":"door-double-civic.lod0.bin","byteLength":266880}],"bufferViews":[{"buffer":0,"byteOffset":0,"byteLength":7776,"target":34962},{"buffer":0,"byteOffset":7776,"byteLength":7776,"target":34962},{"buffer":0,"byteOffset":15552,"byteLength":5184,"target":34962},{"buffer":0,"byteOffset":20736,"byteLength":31104,"target":34962},{"buffer":0,"byteOffset":51840,"byteLength":31104,"target":34962},{"buffer":0,"byteOffset":82944,"byteLength":20736,"target":34962},{"buffer":0,"byteOffset":103680,"byteLength":46656,"target":34962},{"buffer":0,"byteOffset":150336,"byteLength":46656,"target":34962},{"buffer":0,"byteOffset":196992,"byteLength":31104,"target":34962},{"buffer":0,"byteOffset":228096,"byteLength":7776,"target":34962},{"buffer":0,"byteOffset":235872,"byteLength":7776,"target":34962},{"buffer":0,"byteOffset":243648,"byteLength":5184,"target":34962},{"buffer":0,"byteOffset":248832,"byteLength":2880,"target":34962},{"buffer":0,"byteOffset":251712,"byteLength":2880,"target":34962},{"buffer":0,"byteOffset":254592,"byteLength":1920,"target":34962},{"buffer":0,"byteOffset":256512,"byteLength":3888,"target":34962},{"buffer":0,"byteOffset":260400,"byteLength":3888,"target":34962},{"buffer":0,"byteOffset":264288,"byteLength":2592,"target":34962}],"accessors":[{"bufferView":0,"componentType":5126,"count":648,"type":"VEC3","min":[-1.152500033378601,-0.07000000774860382,-0.08999999612569809],"max":[1.152500033378601,2.4200000762939453,0.029999999329447746]},{"bufferView":1,"componentType":5126,"count":648,"type":"VEC3"},{"bufferView":2,"componentType":5126,"count":648,"type":"VEC2"},{"bufferView":3,"componentType":5126,"count":2592,"type":"VEC3","min":[-1.0325000286102295,4.7683716530855236e-8,0.03999999910593033],"max":[1.0325000286102295,2.3499999046325684,0.16750000417232513]},{"bufferView":4,"componentType":5126,"count":2592,"type":"VEC3"},{"bufferView":5,"componentType":5126,"count":2592,"type":"VEC2"},{"bufferView":6,"componentType":5126,"count":3888,"type":"VEC3","min":[-1.1074999570846558,-1.4901161415892261e-9,0.07000000029802322],"max":[1.1074999570846558,3.065000057220459,0.23000000417232513]},{"bufferView":7,"componentType":5126,"count":3888,"type":"VEC3"},{"bufferView":8,"componentType":5126,"count":3888,"type":"VEC2"},{"bufferView":9,"componentType":5126,"count":648,"type":"VEC3","min":[-1.1725000143051147,-1.490116086078075e-10,-0.029999995604157448],"max":[1.1725000143051147,0.07000000029802322,0.28999999165534973]},{"bufferView":10,"componentType":5126,"count":648,"type":"VEC3"},{"bufferView":11,"componentType":5126,"count":648,"type":"VEC2"},{"bufferView":12,"componentType":5126,"count":240,"type":"VEC3","min":[-0.2299869805574417,1.093000054359436,0.17499999701976776],"max":[0.9065870046615601,1.1629999876022339,0.26500001549720764]},{"bufferView":13,"componentType":5126,"count":240,"type":"VEC3"},{"bufferView":14,"componentType":5126,"count":240,"type":"VEC2"},{"bufferView":15,"componentType":5126,"count":324,"type":"VEC3","min":[-1.0299999713897705,2.450000047683716,0.03500000014901161],"max":[1.0299999713897705,3,0.08500000089406967]},{"bufferView":16,"componentType":5126,"count":324,"type":"VEC3"},{"bufferView":17,"componentType":5126,"count":324,"type":"VEC2"}],"extras":{"library":"Civic Foundry","units":"metres","up":"+Y","front":"+Z","lod":0}}