{"asset":{"version":"2.0","generator":"SLOPMERICA Civic Foundry 1.0"},"scene":0,"scenes":[{"nodes":[0]}],"nodes":[{"name":"facade-bay-window","mesh":0}],"meshes":[{"name":"facade-bay-window","primitives":[{"attributes":{"POSITION":0,"NORMAL":1,"TEXCOORD_0":2},"material":0,"mode":4},{"attributes":{"POSITION":3,"NORMAL":4,"TEXCOORD_0":5},"material":1,"mode":4},{"attributes":{"POSITION":6,"NORMAL":7,"TEXCOORD_0":8},"material":2,"mode":4},{"attributes":{"POSITION":9,"NORMAL":10,"TEXCOORD_0":11},"material":3,"mode":4},{"attributes":{"POSITION":12,"NORMAL":13,"TEXCOORD_0":14},"material":4,"mode":4},{"attributes":{"POSITION":15,"NORMAL":16,"TEXCOORD_0":17},"material":5,"mode":4}]}],"materials":[{"name":"brick-red","pbrMetallicRoughness":{"baseColorFactor":[1,1,1,1],"baseColorTexture":{"index":0},"metallicRoughnessTexture":{"index":2},"roughnessFactor":1,"metallicFactor":1},"normalTexture":{"index":1,"scale":1.15},"occlusionTexture":{"index":2,"texCoord":0,"strength":0.45},"doubleSided":false,"extras":{"surface":"Warm staggered clay brick with recessed mortar.","tileMeters":[1.1,0.6]}},{"name":"brick-cream","pbrMetallicRoughness":{"baseColorFactor":[1,1,1,1],"baseColorTexture":{"index":3},"metallicRoughnessTexture":{"index":5},"roughnessFactor":1,"metallicFactor":1},"normalTexture":{"index":4,"scale":1.05},"occlusionTexture":{"index":5,"texCoord":0,"strength":0.45},"doubleSided":false,"extras":{"surface":"Pale fired brick with subtle face variation.","tileMeters":[1.1,0.6]}},{"name":"glass-blue","pbrMetallicRoughness":{"baseColorFactor":[1,1,1,1],"baseColorTexture":{"index":6},"metallicRoughnessTexture":{"index":8},"roughnessFactor":1,"metallicFactor":1},"normalTexture":{"index":7,"scale":0.12},"occlusionTexture":{"index":8,"texCoord":0,"strength":0.45},"doubleSided":false,"extras":{"surface":"Desaturated blue-gray architectural glass with faint waviness.","tileMeters":2.5}},{"name":"wood-painted","pbrMetallicRoughness":{"baseColorFactor":[1,1,1,1],"baseColorTexture":{"index":9},"metallicRoughnessTexture":{"index":11},"roughnessFactor":1,"metallicFactor":1},"normalTexture":{"index":10,"scale":0.55},"occlusionTexture":{"index":11,"texCoord":0,"strength":0.45},"doubleSided":false,"extras":{"surface":"Painted timber boards with restrained worn grain.","tileMeters":1.6}},{"name":"limestone","pbrMetallicRoughness":{"baseColorFactor":[1,1,1,1],"baseColorTexture":{"index":12},"metallicRoughnessTexture":{"index":14},"roughnessFactor":1,"metallicFactor":1},"normalTexture":{"index":13,"scale":0.9},"occlusionTexture":{"index":14,"texCoord":0,"strength":0.45},"doubleSided":false,"extras":{"surface":"Warm coursed limestone blocks with fine joints.","tileMeters":1.4}},{"name":"metal-copper","pbrMetallicRoughness":{"baseColorFactor":[1,1,1,1],"baseColorTexture":{"index":15},"metallicRoughnessTexture":{"index":17},"roughnessFactor":1,"metallicFactor":1},"normalTexture":{"index":16,"scale":0.7},"occlusionTexture":{"index":17,"texCoord":0,"strength":0.45},"doubleSided":false,"extras":{"surface":"Copper sheet with controlled turquoise oxidation.","tileMeters":1.25}}],"textures":[{"sampler":0,"source":0},{"sampler":0,"source":1},{"sampler":0,"source":2},{"sampler":0,"source":3},{"sampler":0,"source":4},{"sampler":0,"source":5},{"sampler":0,"source":6},{"sampler":0,"source":7},{"sampler":0,"source":8},{"sampler":0,"source":9},{"sampler":0,"source":10},{"sampler":0,"source":11},{"sampler":0,"source":12},{"sampler":0,"source":13},{"sampler":0,"source":14},{"sampler":0,"source":15},{"sampler":0,"source":16},{"sampler":0,"source":17}],"images":[{"uri":"../textures/brick-red-albedo.png"},{"uri":"../textures/brick-red-normal.png"},{"uri":"../textures/brick-red-orm.png"},{"uri":"../textures/brick-cream-albedo.png"},{"uri":"../textures/brick-cream-normal.png"},{"uri":"../textures/brick-cream-orm.png"},{"uri":"../textures/glass-blue-albedo.png"},{"uri":"../textures/glass-blue-normal.png"},{"uri":"../textures/glass-blue-orm.png"},{"uri":"../textures/wood-painted-albedo.png"},{"uri":"../textures/wood-painted-normal.png"},{"uri":"../textures/wood-painted-orm.png"},{"uri":"../textures/limestone-albedo.png"},{"uri":"../textures/limestone-normal.png"},{"uri":"../textures/limestone-orm.png"},{"uri":"../textures/metal-copper-albedo.png"},{"uri":"../textures/metal-copper-normal.png"},{"uri":"../textures/metal-copper-orm.png"}],"samplers":[{"magFilter":9729,"minFilter":9987,"wrapS":10497,"wrapT":10497}],"buffers":[{"uri":"facade-bay-window.lod0.bin","byteLength":279936}],"bufferViews":[{"buffer":0,"byteOffset":0,"byteLength":3888,"target":34962},{"buffer":0,"byteOffset":3888,"byteLength":3888,"target":34962},{"buffer":0,"byteOffset":7776,"byteLength":2592,"target":34962},{"buffer":0,"byteOffset":10368,"byteLength":15552,"target":34962},{"buffer":0,"byteOffset":25920,"byteLength":15552,"target":34962},{"buffer":0,"byteOffset":41472,"byteLength":10368,"target":34962},{"buffer":0,"byteOffset":51840,"byteLength":11664,"target":34962},{"buffer":0,"byteOffset":63504,"byteLength":11664,"target":34962},{"buffer":0,"byteOffset":75168,"byteLength":7776,"target":34962},{"buffer":0,"byteOffset":82944,"byteLength":58320,"target":34962},{"buffer":0,"byteOffset":141264,"byteLength":58320,"target":34962},{"buffer":0,"byteOffset":199584,"byteLength":38880,"target":34962},{"buffer":0,"byteOffset":238464,"byteLength":11664,"target":34962},{"buffer":0,"byteOffset":250128,"byteLength":11664,"target":34962},{"buffer":0,"byteOffset":261792,"byteLength":7776,"target":34962},{"buffer":0,"byteOffset":269568,"byteLength":3888,"target":34962},{"buffer":0,"byteOffset":273456,"byteLength":3888,"target":34962},{"buffer":0,"byteOffset":277344,"byteLength":2592,"target":34962}],"accessors":[{"bufferView":0,"componentType":5126,"count":324,"type":"VEC3","min":[-2.5999999046325684,-9.536743306171047e-8,-0.3199999928474426],"max":[2.5999999046325684,4.300000190734863,-3.5762786065873797e-9]},{"bufferView":1,"componentType":5126,"count":324,"type":"VEC3"},{"bufferView":2,"componentType":5126,"count":324,"type":"VEC2"},{"bufferView":3,"componentType":5126,"count":1296,"type":"VEC3","min":[-1.6749999523162842,4.7683716530855236e-8,1.4305114426349519e-8],"max":[1.6749999523162842,3.8499999046325684,0.7950000166893005]},{"bufferView":4,"componentType":5126,"count":1296,"type":"VEC3"},{"bufferView":5,"componentType":5126,"count":1296,"type":"VEC2"},{"bufferView":6,"componentType":5126,"count":972,"type":"VEC3","min":[-1.340000033378601,0.7199999690055847,0.7925000190734863],"max":[1.340000033378601,2.069999933242798,0.8374999761581421]},{"bufferView":7,"componentType":5126,"count":972,"type":"VEC3"},{"bufferView":8,"componentType":5126,"count":972,"type":"VEC2"},{"bufferView":9,"componentType":5126,"count":4860,"type":"VEC3","min":[-1.4149999618530273,0.6449999809265137,0.8199999928474426],"max":[1.4149999618530273,2.1449999809265137,0.9674999713897705]},{"bufferView":10,"componentType":5126,"count":4860,"type":"VEC3"},{"bufferView":11,"componentType":5126,"count":4860,"type":"VEC2"},{"bufferView":12,"componentType":5126,"count":972,"type":"VEC3","min":[-1.5,0.5550000071525574,0.7549999952316284],"max":[1.5,0.6449999809265137,1.0149999856948853]},{"bufferView":13,"componentType":5126,"count":972,"type":"VEC3"},{"bufferView":14,"componentType":5126,"count":972,"type":"VEC2"},{"bufferView":15,"componentType":5126,"count":324,"type":"VEC3","min":[-1.8250000476837158,3.9100000858306885,-0.11999998986721039],"max":[1.8250000476837158,4.130000114440918,0.8999999761581421]},{"bufferView":16,"componentType":5126,"count":324,"type":"VEC3"},{"bufferView":17,"componentType":5126,"count":324,"type":"VEC2"}],"extras":{"library":"Civic Foundry","units":"metres","up":"+Y","front":"+Z","lod":0}}