{"asset":{"version":"2.0","generator":"SLOPMERICA Civic Foundry 1.0"},"scene":0,"scenes":[{"nodes":[0]}],"nodes":[{"name":"facade-loading-bay","mesh":0}],"meshes":[{"name":"facade-loading-bay","primitives":[{"attributes":{"POSITION":0,"NORMAL":1,"TEXCOORD_0":2},"material":0,"mode":4},{"attributes":{"POSITION":3,"NORMAL":4,"TEXCOORD_0":5},"material":1,"mode":4},{"attributes":{"POSITION":6,"NORMAL":7,"TEXCOORD_0":8},"material":2,"mode":4},{"attributes":{"POSITION":9,"NORMAL":10,"TEXCOORD_0":11},"material":3,"mode":4}]}],"materials":[{"name":"brick-red","pbrMetallicRoughness":{"baseColorFactor":[1,1,1,1],"baseColorTexture":{"index":0},"metallicRoughnessTexture":{"index":2},"roughnessFactor":1,"metallicFactor":1},"normalTexture":{"index":1,"scale":1.15},"occlusionTexture":{"index":2,"texCoord":0,"strength":0.45},"doubleSided":false,"extras":{"surface":"Warm staggered clay brick with recessed mortar.","tileMeters":[1.1,0.6]}},{"name":"concrete","pbrMetallicRoughness":{"baseColorFactor":[1,1,1,1],"baseColorTexture":{"index":3},"metallicRoughnessTexture":{"index":5},"roughnessFactor":1,"metallicFactor":1},"normalTexture":{"index":4,"scale":0.82},"occlusionTexture":{"index":5,"texCoord":0,"strength":0.45},"doubleSided":false,"extras":{"surface":"Cool concrete with embedded mineral aggregate.","tileMeters":1.8}},{"name":"metal-galvanized","pbrMetallicRoughness":{"baseColorFactor":[1,1,1,1],"baseColorTexture":{"index":6},"metallicRoughnessTexture":{"index":8},"roughnessFactor":1,"metallicFactor":1},"normalTexture":{"index":7,"scale":0.15},"occlusionTexture":{"index":8,"texCoord":0,"strength":0.45},"doubleSided":false,"extras":{"surface":"Silvery galvanized steel with fine zinc spangle.","tileMeters":0.15}},{"name":"rubber","pbrMetallicRoughness":{"baseColorFactor":[1,1,1,1],"baseColorTexture":{"index":9},"metallicRoughnessTexture":{"index":11},"roughnessFactor":1,"metallicFactor":1},"normalTexture":{"index":10,"scale":0.65},"occlusionTexture":{"index":11,"texCoord":0,"strength":0.45},"doubleSided":false,"extras":{"surface":"Molded charcoal rubber with shallow diagonal tread.","tileMeters":0.75}}],"textures":[{"sampler":0,"source":0},{"sampler":0,"source":1},{"sampler":0,"source":2},{"sampler":0,"source":3},{"sampler":0,"source":4},{"sampler":0,"source":5},{"sampler":0,"source":6},{"sampler":0,"source":7},{"sampler":0,"source":8},{"sampler":0,"source":9},{"sampler":0,"source":10},{"sampler":0,"source":11}],"images":[{"uri":"../textures/brick-red-albedo.png"},{"uri":"../textures/brick-red-normal.png"},{"uri":"../textures/brick-red-orm.png"},{"uri":"../textures/concrete-albedo.png"},{"uri":"../textures/concrete-normal.png"},{"uri":"../textures/concrete-orm.png"},{"uri":"../textures/metal-galvanized-albedo.png"},{"uri":"../textures/metal-galvanized-normal.png"},{"uri":"../textures/metal-galvanized-orm.png"},{"uri":"../textures/rubber-albedo.png"},{"uri":"../textures/rubber-normal.png"},{"uri":"../textures/rubber-orm.png"}],"samplers":[{"magFilter":9729,"minFilter":9987,"wrapS":10497,"wrapT":10497}],"buffers":[{"uri":"facade-loading-bay.lod2.bin","byteLength":6912}],"bufferViews":[{"buffer":0,"byteOffset":0,"byteLength":432,"target":34962},{"buffer":0,"byteOffset":432,"byteLength":432,"target":34962},{"buffer":0,"byteOffset":864,"byteLength":288,"target":34962},{"buffer":0,"byteOffset":1152,"byteLength":864,"target":34962},{"buffer":0,"byteOffset":2016,"byteLength":864,"target":34962},{"buffer":0,"byteOffset":2880,"byteLength":576,"target":34962},{"buffer":0,"byteOffset":3456,"byteLength":432,"target":34962},{"buffer":0,"byteOffset":3888,"byteLength":432,"target":34962},{"buffer":0,"byteOffset":4320,"byteLength":288,"target":34962},{"buffer":0,"byteOffset":4608,"byteLength":864,"target":34962},{"buffer":0,"byteOffset":5472,"byteLength":864,"target":34962},{"buffer":0,"byteOffset":6336,"byteLength":576,"target":34962}],"accessors":[{"bufferView":0,"componentType":5126,"count":36,"type":"VEC3","min":[-3.200000047683716,4.7683716530855236e-8,-0.3199999928474426],"max":[3.200000047683716,4.599999904632568,-3.5762786065873797e-9]},{"bufferView":1,"componentType":5126,"count":36,"type":"VEC3"},{"bufferView":2,"componentType":5126,"count":36,"type":"VEC2"},{"bufferView":3,"componentType":5126,"count":72,"type":"VEC3","min":[-2.624000072479248,-0.06999994814395905,-0.08999999612569809],"max":[2.624000072479248,3.381999969482422,1.3199999332427979]},{"bufferView":4,"componentType":5126,"count":72,"type":"VEC3"},{"bufferView":5,"componentType":5126,"count":72,"type":"VEC2"},{"bufferView":6,"componentType":5126,"count":36,"type":"VEC3","min":[-1.9839999675750732,-1.8119811429073707e-8,0.03999999910593033],"max":[1.9839999675750732,3.312000036239624,0.14000000059604645]},{"bufferView":7,"componentType":5126,"count":36,"type":"VEC3"},{"bufferView":8,"componentType":5126,"count":36,"type":"VEC2"},{"bufferView":9,"componentType":5126,"count":72,"type":"VEC3","min":[-1.8940000534057617,5.364418242947977e-9,0.12999999523162842],"max":[1.8940000534057617,0.47999998927116394,0.4300000071525574]},{"bufferView":10,"componentType":5126,"count":72,"type":"VEC3"},{"bufferView":11,"componentType":5126,"count":72,"type":"VEC2"}],"extras":{"library":"Civic Foundry","units":"metres","up":"+Y","front":"+Z","lod":2}}