{"asset":{"version":"2.0","generator":"SLOPMERICA Civic Foundry 1.0"},"scene":0,"scenes":[{"nodes":[0]}],"nodes":[{"name":"facade-loading-bay","mesh":0}],"meshes":[{"name":"facade-loading-bay","primitives":[{"attributes":{"POSITION":0,"NORMAL":1,"TEXCOORD_0":2},"material":0,"mode":4},{"attributes":{"POSITION":3,"NORMAL":4,"TEXCOORD_0":5},"material":1,"mode":4},{"attributes":{"POSITION":6,"NORMAL":7,"TEXCOORD_0":8},"material":2,"mode":4},{"attributes":{"POSITION":9,"NORMAL":10,"TEXCOORD_0":11},"material":3,"mode":4},{"attributes":{"POSITION":12,"NORMAL":13,"TEXCOORD_0":14},"material":4,"mode":4},{"attributes":{"POSITION":15,"NORMAL":16,"TEXCOORD_0":17},"material":5,"mode":4},{"attributes":{"POSITION":18,"NORMAL":19,"TEXCOORD_0":20},"material":6,"mode":4},{"attributes":{"POSITION":21,"NORMAL":22,"TEXCOORD_0":23},"material":7,"mode":4}]}],"materials":[{"name":"brick-red","pbrMetallicRoughness":{"baseColorFactor":[1,1,1,1],"baseColorTexture":{"index":0},"metallicRoughnessTexture":{"index":2},"roughnessFactor":1,"metallicFactor":1},"normalTexture":{"index":1,"scale":1.15},"occlusionTexture":{"index":2,"texCoord":0,"strength":0.45},"doubleSided":false,"extras":{"surface":"Warm staggered clay brick with recessed mortar.","tileMeters":[1.1,0.6]}},{"name":"concrete","pbrMetallicRoughness":{"baseColorFactor":[1,1,1,1],"baseColorTexture":{"index":3},"metallicRoughnessTexture":{"index":5},"roughnessFactor":1,"metallicFactor":1},"normalTexture":{"index":4,"scale":0.82},"occlusionTexture":{"index":5,"texCoord":0,"strength":0.45},"doubleSided":false,"extras":{"surface":"Cool concrete with embedded mineral aggregate.","tileMeters":1.8}},{"name":"metal-galvanized","pbrMetallicRoughness":{"baseColorFactor":[1,1,1,1],"baseColorTexture":{"index":6},"metallicRoughnessTexture":{"index":8},"roughnessFactor":1,"metallicFactor":1},"normalTexture":{"index":7,"scale":0.15},"occlusionTexture":{"index":8,"texCoord":0,"strength":0.45},"doubleSided":false,"extras":{"surface":"Silvery galvanized steel with fine zinc spangle.","tileMeters":0.15}},{"name":"wood-painted","pbrMetallicRoughness":{"baseColorFactor":[1,1,1,1],"baseColorTexture":{"index":9},"metallicRoughnessTexture":{"index":11},"roughnessFactor":1,"metallicFactor":1},"normalTexture":{"index":10,"scale":0.55},"occlusionTexture":{"index":11,"texCoord":0,"strength":0.45},"doubleSided":false,"extras":{"surface":"Painted timber boards with restrained worn grain.","tileMeters":1.6}},{"name":"metal-dark","pbrMetallicRoughness":{"baseColorFactor":[1,1,1,1],"baseColorTexture":{"index":12},"metallicRoughnessTexture":{"index":14},"roughnessFactor":1,"metallicFactor":1},"normalTexture":{"index":13,"scale":0.35},"occlusionTexture":{"index":14,"texCoord":0,"strength":0.45},"doubleSided":false,"extras":{"surface":"Charcoal brushed architectural metal.","tileMeters":1.2}},{"name":"wood-oak","pbrMetallicRoughness":{"baseColorFactor":[1,1,1,1],"baseColorTexture":{"index":15},"metallicRoughnessTexture":{"index":17},"roughnessFactor":1,"metallicFactor":1},"normalTexture":{"index":16,"scale":1},"occlusionTexture":{"index":17,"texCoord":0,"strength":0.45},"doubleSided":false,"extras":{"surface":"Weathered oak boards with flowing grain and knots.","tileMeters":1.6}},{"name":"rubber","pbrMetallicRoughness":{"baseColorFactor":[1,1,1,1],"baseColorTexture":{"index":18},"metallicRoughnessTexture":{"index":20},"roughnessFactor":1,"metallicFactor":1},"normalTexture":{"index":19,"scale":0.65},"occlusionTexture":{"index":20,"texCoord":0,"strength":0.45},"doubleSided":false,"extras":{"surface":"Molded charcoal rubber with shallow diagonal tread.","tileMeters":0.75}},{"name":"roof-metal","pbrMetallicRoughness":{"baseColorFactor":[1,1,1,1],"baseColorTexture":{"index":21},"metallicRoughnessTexture":{"index":23},"roughnessFactor":1,"metallicFactor":1},"normalTexture":{"index":22,"scale":0.68},"occlusionTexture":{"index":23,"texCoord":0,"strength":0.45},"doubleSided":false,"extras":{"surface":"Painted standing-seam metal roofing.","tileMeters":3}}],"textures":[{"sampler":0,"source":0},{"sampler":0,"source":1},{"sampler":0,"source":2},{"sampler":0,"source":3},{"sampler":0,"source":4},{"sampler":0,"source":5},{"sampler":0,"source":6},{"sampler":0,"source":7},{"sampler":0,"source":8},{"sampler":0,"source":9},{"sampler":0,"source":10},{"sampler":0,"source":11},{"sampler":0,"source":12},{"sampler":0,"source":13},{"sampler":0,"source":14},{"sampler":0,"source":15},{"sampler":0,"source":16},{"sampler":0,"source":17},{"sampler":0,"source":18},{"sampler":0,"source":19},{"sampler":0,"source":20},{"sampler":0,"source":21},{"sampler":0,"source":22},{"sampler":0,"source":23}],"images":[{"uri":"../textures/brick-red-albedo.png"},{"uri":"../textures/brick-red-normal.png"},{"uri":"../textures/brick-red-orm.png"},{"uri":"../textures/concrete-albedo.png"},{"uri":"../textures/concrete-normal.png"},{"uri":"../textures/concrete-orm.png"},{"uri":"../textures/metal-galvanized-albedo.png"},{"uri":"../textures/metal-galvanized-normal.png"},{"uri":"../textures/metal-galvanized-orm.png"},{"uri":"../textures/wood-painted-albedo.png"},{"uri":"../textures/wood-painted-normal.png"},{"uri":"../textures/wood-painted-orm.png"},{"uri":"../textures/metal-dark-albedo.png"},{"uri":"../textures/metal-dark-normal.png"},{"uri":"../textures/metal-dark-orm.png"},{"uri":"../textures/wood-oak-albedo.png"},{"uri":"../textures/wood-oak-normal.png"},{"uri":"../textures/wood-oak-orm.png"},{"uri":"../textures/rubber-albedo.png"},{"uri":"../textures/rubber-normal.png"},{"uri":"../textures/rubber-orm.png"},{"uri":"../textures/roof-metal-albedo.png"},{"uri":"../textures/roof-metal-normal.png"},{"uri":"../textures/roof-metal-orm.png"}],"samplers":[{"magFilter":9729,"minFilter":9987,"wrapS":10497,"wrapT":10497}],"buffers":[{"uri":"facade-loading-bay.lod0.bin","byteLength":263040}],"bufferViews":[{"buffer":0,"byteOffset":0,"byteLength":3888,"target":34962},{"buffer":0,"byteOffset":3888,"byteLength":3888,"target":34962},{"buffer":0,"byteOffset":7776,"byteLength":2592,"target":34962},{"buffer":0,"byteOffset":10368,"byteLength":11664,"target":34962},{"buffer":0,"byteOffset":22032,"byteLength":11664,"target":34962},{"buffer":0,"byteOffset":33696,"byteLength":7776,"target":34962},{"buffer":0,"byteOffset":41472,"byteLength":3888,"target":34962},{"buffer":0,"byteOffset":45360,"byteLength":3888,"target":34962},{"buffer":0,"byteOffset":49248,"byteLength":2592,"target":34962},{"buffer":0,"byteOffset":51840,"byteLength":15552,"target":34962},{"buffer":0,"byteOffset":67392,"byteLength":15552,"target":34962},{"buffer":0,"byteOffset":82944,"byteLength":10368,"target":34962},{"buffer":0,"byteOffset":93312,"byteLength":36432,"target":34962},{"buffer":0,"byteOffset":129744,"byteLength":36432,"target":34962},{"buffer":0,"byteOffset":166176,"byteLength":24288,"target":34962},{"buffer":0,"byteOffset":190464,"byteLength":15552,"target":34962},{"buffer":0,"byteOffset":206016,"byteLength":15552,"target":34962},{"buffer":0,"byteOffset":221568,"byteLength":10368,"target":34962},{"buffer":0,"byteOffset":231936,"byteLength":7776,"target":34962},{"buffer":0,"byteOffset":239712,"byteLength":7776,"target":34962},{"buffer":0,"byteOffset":247488,"byteLength":5184,"target":34962},{"buffer":0,"byteOffset":252672,"byteLength":3888,"target":34962},{"buffer":0,"byteOffset":256560,"byteLength":3888,"target":34962},{"buffer":0,"byteOffset":260448,"byteLength":2592,"target":34962}],"accessors":[{"bufferView":0,"componentType":5126,"count":324,"type":"VEC3","min":[-3.200000047683716,4.7683716530855236e-8,-0.3199999928474426],"max":[3.200000047683716,4.599999904632568,-3.5762786065873797e-9]},{"bufferView":1,"componentType":5126,"count":324,"type":"VEC3"},{"bufferView":2,"componentType":5126,"count":324,"type":"VEC2"},{"bufferView":3,"componentType":5126,"count":972,"type":"VEC3","min":[-2.624000072479248,-0.06999994814395905,-0.08999999612569809],"max":[2.624000072479248,3.381999969482422,1.3199999332427979]},{"bufferView":4,"componentType":5126,"count":972,"type":"VEC3"},{"bufferView":5,"componentType":5126,"count":972,"type":"VEC2"},{"bufferView":6,"componentType":5126,"count":324,"type":"VEC3","min":[-1.9839999675750732,-1.8119811429073707e-8,0.03999999910593033],"max":[1.9839999675750732,3.312000036239624,0.14000000059604645]},{"bufferView":7,"componentType":5126,"count":324,"type":"VEC3"},{"bufferView":8,"componentType":5126,"count":324,"type":"VEC2"},{"bufferView":9,"componentType":5126,"count":1296,"type":"VEC3","min":[-2.059000015258789,-1.4901161415892261e-9,0.10999999940395355],"max":[2.059000015258789,3.38700008392334,0.23000000417232513]},{"bufferView":10,"componentType":5126,"count":1296,"type":"VEC3"},{"bufferView":11,"componentType":5126,"count":1296,"type":"VEC2"},{"bufferView":12,"componentType":5126,"count":3036,"type":"VEC3","min":[-1.9240000247955322,0.26249998807907104,0.1525000035762787],"max":[1.9240000247955322,3.0174999237060547,0.26500001549720764]},{"bufferView":13,"componentType":5126,"count":3036,"type":"VEC3"},{"bufferView":14,"componentType":5126,"count":3036,"type":"VEC2"},{"bufferView":15,"componentType":5126,"count":1296,"type":"VEC3","min":[-1.349120020866394,0.3808799982070923,0.14249999821186066],"max":[1.349120020866394,2.5999200344085693,0.16750000417232513]},{"bufferView":16,"componentType":5126,"count":1296,"type":"VEC3"},{"bufferView":17,"componentType":5126,"count":1296,"type":"VEC2"},{"bufferView":18,"componentType":5126,"count":648,"type":"VEC3","min":[-1.8940000534057617,5.364418242947977e-9,0.12999999523162842],"max":[1.8940000534057617,0.47999998927116394,0.4300000071525574]},{"bufferView":19,"componentType":5126,"count":648,"type":"VEC3"},{"bufferView":20,"componentType":5126,"count":648,"type":"VEC2"},{"bufferView":21,"componentType":5126,"count":324,"type":"VEC3","min":[-2.624000072479248,3.643108367919922,-0.07151724398136139],"max":[2.624000072479248,3.9008917808532715,1.2315171957015991]},{"bufferView":22,"componentType":5126,"count":324,"type":"VEC3"},{"bufferView":23,"componentType":5126,"count":324,"type":"VEC2"}],"extras":{"library":"Civic Foundry","units":"metres","up":"+Y","front":"+Z","lod":0}}