{"asset":{"version":"2.0","generator":"SLOPMERICA Civic Foundry 1.0"},"scene":0,"scenes":[{"nodes":[0]}],"nodes":[{"name":"planter-raised-urban","mesh":0}],"meshes":[{"name":"planter-raised-urban","primitives":[{"attributes":{"POSITION":0,"NORMAL":1,"TEXCOORD_0":2},"material":0,"mode":4},{"attributes":{"POSITION":3,"NORMAL":4,"TEXCOORD_0":5},"material":1,"mode":4},{"attributes":{"POSITION":6,"NORMAL":7,"TEXCOORD_0":8},"material":2,"mode":4}]}],"materials":[{"name":"brick-cream","pbrMetallicRoughness":{"baseColorFactor":[1,1,1,1],"baseColorTexture":{"index":0},"metallicRoughnessTexture":{"index":2},"roughnessFactor":1,"metallicFactor":1},"normalTexture":{"index":1,"scale":1.05},"occlusionTexture":{"index":2,"texCoord":0,"strength":0.45},"doubleSided":false,"extras":{"surface":"Pale fired brick with subtle face variation.","tileMeters":[1.1,0.6]}},{"name":"soil","pbrMetallicRoughness":{"baseColorFactor":[1,1,1,1],"baseColorTexture":{"index":3},"metallicRoughnessTexture":{"index":5},"roughnessFactor":1,"metallicFactor":1},"normalTexture":{"index":4,"scale":0.8},"occlusionTexture":{"index":5,"texCoord":0,"strength":0.45},"doubleSided":false,"extras":{"surface":"Moist dark soil with small mineral fragments.","tileMeters":1.5}},{"name":"foliage","pbrMetallicRoughness":{"baseColorFactor":[1,1,1,1],"baseColorTexture":{"index":6},"metallicRoughnessTexture":{"index":8},"roughnessFactor":1,"metallicFactor":1},"normalTexture":{"index":7,"scale":0.88},"occlusionTexture":{"index":8,"texCoord":0,"strength":0.45},"doubleSided":false,"extras":{"surface":"Layered repeating broadleaf canopy pattern.","tileMeters":1.3}}],"textures":[{"sampler":0,"source":0},{"sampler":0,"source":1},{"sampler":0,"source":2},{"sampler":0,"source":3},{"sampler":0,"source":4},{"sampler":0,"source":5},{"sampler":0,"source":6},{"sampler":0,"source":7},{"sampler":0,"source":8}],"images":[{"uri":"../textures/brick-cream-albedo.png"},{"uri":"../textures/brick-cream-normal.png"},{"uri":"../textures/brick-cream-orm.png"},{"uri":"../textures/soil-albedo.png"},{"uri":"../textures/soil-normal.png"},{"uri":"../textures/soil-orm.png"},{"uri":"../textures/foliage-albedo.png"},{"uri":"../textures/foliage-normal.png"},{"uri":"../textures/foliage-orm.png"}],"samplers":[{"magFilter":9729,"minFilter":9987,"wrapS":10497,"wrapT":10497}],"buffers":[{"uri":"planter-raised-urban.lod0.bin","byteLength":435456}],"bufferViews":[{"buffer":0,"byteOffset":0,"byteLength":3888,"target":34962},{"buffer":0,"byteOffset":3888,"byteLength":3888,"target":34962},{"buffer":0,"byteOffset":7776,"byteLength":2592,"target":34962},{"buffer":0,"byteOffset":10368,"byteLength":3888,"target":34962},{"buffer":0,"byteOffset":14256,"byteLength":3888,"target":34962},{"buffer":0,"byteOffset":18144,"byteLength":2592,"target":34962},{"buffer":0,"byteOffset":20736,"byteLength":155520,"target":34962},{"buffer":0,"byteOffset":176256,"byteLength":155520,"target":34962},{"buffer":0,"byteOffset":331776,"byteLength":103680,"target":34962}],"accessors":[{"bufferView":0,"componentType":5126,"count":324,"type":"VEC3","min":[-1.600000023841858,-2.38418573772492e-9,-0.574999988079071],"max":[1.600000023841858,0.6200000047683716,0.574999988079071]},{"bufferView":1,"componentType":5126,"count":324,"type":"VEC3"},{"bufferView":2,"componentType":5126,"count":324,"type":"VEC2"},{"bufferView":3,"componentType":5126,"count":324,"type":"VEC3","min":[-1.4600000381469727,0.625,-0.4399999976158142],"max":[1.4600000381469727,0.675000011920929,0.4399999976158142]},{"bufferView":4,"componentType":5126,"count":324,"type":"VEC3"},{"bufferView":5,"componentType":5126,"count":324,"type":"VEC2"},{"bufferView":6,"componentType":5126,"count":12960,"type":"VEC3","min":[-1.5299999713897705,0.3799999952316284,-0.5199999809265137],"max":[1.5,1.6200000047683716,0.5199999809265137]},{"bufferView":7,"componentType":5126,"count":12960,"type":"VEC3"},{"bufferView":8,"componentType":5126,"count":12960,"type":"VEC2"}],"extras":{"library":"Civic Foundry","units":"metres","up":"+Y","front":"+Z","lod":0}}