{"asset":{"version":"2.0","generator":"SLOPMERICA Civic Foundry 1.0"},"scene":0,"scenes":[{"nodes":[0]}],"nodes":[{"name":"planter-street-tree","mesh":0}],"meshes":[{"name":"planter-street-tree","primitives":[{"attributes":{"POSITION":0,"NORMAL":1,"TEXCOORD_0":2},"material":0,"mode":4},{"attributes":{"POSITION":3,"NORMAL":4,"TEXCOORD_0":5},"material":1,"mode":4},{"attributes":{"POSITION":6,"NORMAL":7,"TEXCOORD_0":8},"material":2,"mode":4},{"attributes":{"POSITION":9,"NORMAL":10,"TEXCOORD_0":11},"material":3,"mode":4},{"attributes":{"POSITION":12,"NORMAL":13,"TEXCOORD_0":14},"material":4,"mode":4}]}],"materials":[{"name":"concrete","pbrMetallicRoughness":{"baseColorFactor":[1,1,1,1],"baseColorTexture":{"index":0},"metallicRoughnessTexture":{"index":2},"roughnessFactor":1,"metallicFactor":1},"normalTexture":{"index":1,"scale":0.82},"occlusionTexture":{"index":2,"texCoord":0,"strength":0.45},"doubleSided":false,"extras":{"surface":"Cool concrete with embedded mineral aggregate.","tileMeters":1.8}},{"name":"soil","pbrMetallicRoughness":{"baseColorFactor":[1,1,1,1],"baseColorTexture":{"index":3},"metallicRoughnessTexture":{"index":5},"roughnessFactor":1,"metallicFactor":1},"normalTexture":{"index":4,"scale":0.8},"occlusionTexture":{"index":5,"texCoord":0,"strength":0.45},"doubleSided":false,"extras":{"surface":"Moist dark soil with small mineral fragments.","tileMeters":1.5}},{"name":"limestone","pbrMetallicRoughness":{"baseColorFactor":[1,1,1,1],"baseColorTexture":{"index":6},"metallicRoughnessTexture":{"index":8},"roughnessFactor":1,"metallicFactor":1},"normalTexture":{"index":7,"scale":0.9},"occlusionTexture":{"index":8,"texCoord":0,"strength":0.45},"doubleSided":false,"extras":{"surface":"Warm coursed limestone blocks with fine joints.","tileMeters":1.4}},{"name":"bark","pbrMetallicRoughness":{"baseColorFactor":[1,1,1,1],"baseColorTexture":{"index":9},"metallicRoughnessTexture":{"index":11},"roughnessFactor":1,"metallicFactor":1},"normalTexture":{"index":10,"scale":1.35},"occlusionTexture":{"index":11,"texCoord":0,"strength":0.45},"doubleSided":false,"extras":{"surface":"Deep vertically ridged brown bark.","tileMeters":1.1}},{"name":"foliage","pbrMetallicRoughness":{"baseColorFactor":[1,1,1,1],"baseColorTexture":{"index":12},"metallicRoughnessTexture":{"index":14},"roughnessFactor":1,"metallicFactor":1},"normalTexture":{"index":13,"scale":0.88},"occlusionTexture":{"index":14,"texCoord":0,"strength":0.45},"doubleSided":false,"extras":{"surface":"Layered repeating broadleaf canopy pattern.","tileMeters":1.3}}],"textures":[{"sampler":0,"source":0},{"sampler":0,"source":1},{"sampler":0,"source":2},{"sampler":0,"source":3},{"sampler":0,"source":4},{"sampler":0,"source":5},{"sampler":0,"source":6},{"sampler":0,"source":7},{"sampler":0,"source":8},{"sampler":0,"source":9},{"sampler":0,"source":10},{"sampler":0,"source":11},{"sampler":0,"source":12},{"sampler":0,"source":13},{"sampler":0,"source":14}],"images":[{"uri":"../textures/concrete-albedo.png"},{"uri":"../textures/concrete-normal.png"},{"uri":"../textures/concrete-orm.png"},{"uri":"../textures/soil-albedo.png"},{"uri":"../textures/soil-normal.png"},{"uri":"../textures/soil-orm.png"},{"uri":"../textures/limestone-albedo.png"},{"uri":"../textures/limestone-normal.png"},{"uri":"../textures/limestone-orm.png"},{"uri":"../textures/bark-albedo.png"},{"uri":"../textures/bark-normal.png"},{"uri":"../textures/bark-orm.png"},{"uri":"../textures/foliage-albedo.png"},{"uri":"../textures/foliage-normal.png"},{"uri":"../textures/foliage-orm.png"}],"samplers":[{"magFilter":9729,"minFilter":9987,"wrapS":10497,"wrapT":10497}],"buffers":[{"uri":"planter-street-tree.lod1.bin","byteLength":145152}],"bufferViews":[{"buffer":0,"byteOffset":0,"byteLength":864,"target":34962},{"buffer":0,"byteOffset":864,"byteLength":864,"target":34962},{"buffer":0,"byteOffset":1728,"byteLength":576,"target":34962},{"buffer":0,"byteOffset":2304,"byteLength":864,"target":34962},{"buffer":0,"byteOffset":3168,"byteLength":864,"target":34962},{"buffer":0,"byteOffset":4032,"byteLength":576,"target":34962},{"buffer":0,"byteOffset":4608,"byteLength":10368,"target":34962},{"buffer":0,"byteOffset":14976,"byteLength":10368,"target":34962},{"buffer":0,"byteOffset":25344,"byteLength":6912,"target":34962},{"buffer":0,"byteOffset":32256,"byteLength":864,"target":34962},{"buffer":0,"byteOffset":33120,"byteLength":864,"target":34962},{"buffer":0,"byteOffset":33984,"byteLength":576,"target":34962},{"buffer":0,"byteOffset":34560,"byteLength":41472,"target":34962},{"buffer":0,"byteOffset":76032,"byteLength":41472,"target":34962},{"buffer":0,"byteOffset":117504,"byteLength":27648,"target":34962}],"accessors":[{"bufferView":0,"componentType":5126,"count":72,"type":"VEC3","min":[-0.7794228792190552,-1.4305114426349519e-8,-0.8999999761581421],"max":[0.7794228792190552,0.7200000286102295,0.8999999761581421]},{"bufferView":1,"componentType":5126,"count":72,"type":"VEC3"},{"bufferView":2,"componentType":5126,"count":72,"type":"VEC2"},{"bufferView":3,"componentType":5126,"count":72,"type":"VEC3","min":[-0.6062178015708923,0.7099999785423279,-0.699999988079071],"max":[0.6062178015708923,0.75,0.699999988079071]},{"bufferView":4,"componentType":5126,"count":72,"type":"VEC3"},{"bufferView":5,"componentType":5126,"count":72,"type":"VEC2"},{"bufferView":6,"componentType":5126,"count":864,"type":"VEC3","min":[-0.8600000143051147,0.6593782305717468,-0.8600000143051147],"max":[0.8600000143051147,0.7806217670440674,0.8600000143051147]},{"bufferView":7,"componentType":5126,"count":864,"type":"VEC3"},{"bufferView":8,"componentType":5126,"count":864,"type":"VEC2"},{"bufferView":9,"componentType":5126,"count":72,"type":"VEC3","min":[-0.1472243219614029,0.7149999737739563,-0.17000000178813934],"max":[0.1472243219614029,3.1649999618530273,0.17000000178813934]},{"bufferView":10,"componentType":5126,"count":72,"type":"VEC3"},{"bufferView":11,"componentType":5126,"count":72,"type":"VEC2"},{"bufferView":12,"componentType":5126,"count":3456,"type":"VEC3","min":[-1.2184652090072632,2.6700000762939453,-0.8699803948402405],"max":[1.251044750213623,4.25,0.9195061922073364]},{"bufferView":13,"componentType":5126,"count":3456,"type":"VEC3"},{"bufferView":14,"componentType":5126,"count":3456,"type":"VEC2"}],"extras":{"library":"Civic Foundry","units":"metres","up":"+Y","front":"+Z","lod":1}}