{"asset":{"version":"2.0","generator":"SLOPMERICA Civic Foundry 1.0"},"scene":0,"scenes":[{"nodes":[0]}],"nodes":[{"name":"roof-hip-craftsman","mesh":0}],"meshes":[{"name":"roof-hip-craftsman","primitives":[{"attributes":{"POSITION":0,"NORMAL":1,"TEXCOORD_0":2},"material":0,"mode":4}]}],"materials":[{"name":"roof-shingle","pbrMetallicRoughness":{"baseColorFactor":[1,1,1,1],"baseColorTexture":{"index":0},"metallicRoughnessTexture":{"index":2},"roughnessFactor":1,"metallicFactor":1},"normalTexture":{"index":1,"scale":0.78},"occlusionTexture":{"index":2,"texCoord":0,"strength":0.45},"doubleSided":false,"extras":{"surface":"Staggered dark architectural roof shingles.","tileMeters":2.2}}],"textures":[{"sampler":0,"source":0},{"sampler":0,"source":1},{"sampler":0,"source":2}],"images":[{"uri":"../textures/roof-shingle-albedo.png"},{"uri":"../textures/roof-shingle-normal.png"},{"uri":"../textures/roof-shingle-orm.png"}],"samplers":[{"magFilter":9729,"minFilter":9987,"wrapS":10497,"wrapT":10497}],"buffers":[{"uri":"roof-hip-craftsman.lod2.bin","byteLength":576}],"bufferViews":[{"buffer":0,"byteOffset":0,"byteLength":216,"target":34962},{"buffer":0,"byteOffset":216,"byteLength":216,"target":34962},{"buffer":0,"byteOffset":432,"byteLength":144,"target":34962}],"accessors":[{"bufferView":0,"componentType":5126,"count":18,"type":"VEC3","min":[-4.5,0,-4],"max":[4.5,2.1500000953674316,4]},{"bufferView":1,"componentType":5126,"count":18,"type":"VEC3"},{"bufferView":2,"componentType":5126,"count":18,"type":"VEC2"}],"extras":{"library":"Civic Foundry","units":"metres","up":"+Y","front":"+Z","lod":2}}