{"asset":{"version":"2.0","generator":"SLOPMERICA Civic Foundry 1.0"},"scene":0,"scenes":[{"nodes":[0]}],"nodes":[{"name":"roof-gable-chimney","mesh":0}],"meshes":[{"name":"roof-gable-chimney","primitives":[{"attributes":{"POSITION":0,"NORMAL":1,"TEXCOORD_0":2},"material":0,"mode":4},{"attributes":{"POSITION":3,"NORMAL":4,"TEXCOORD_0":5},"material":1,"mode":4},{"attributes":{"POSITION":6,"NORMAL":7,"TEXCOORD_0":8},"material":2,"mode":4}]}],"materials":[{"name":"roof-shingle","pbrMetallicRoughness":{"baseColorFactor":[1,1,1,1],"baseColorTexture":{"index":0},"metallicRoughnessTexture":{"index":2},"roughnessFactor":1,"metallicFactor":1},"normalTexture":{"index":1,"scale":0.78},"occlusionTexture":{"index":2,"texCoord":0,"strength":0.45},"doubleSided":false,"extras":{"surface":"Staggered dark architectural roof shingles.","tileMeters":2.2}},{"name":"brick-red","pbrMetallicRoughness":{"baseColorFactor":[1,1,1,1],"baseColorTexture":{"index":3},"metallicRoughnessTexture":{"index":5},"roughnessFactor":1,"metallicFactor":1},"normalTexture":{"index":4,"scale":1.15},"occlusionTexture":{"index":5,"texCoord":0,"strength":0.45},"doubleSided":false,"extras":{"surface":"Warm staggered clay brick with recessed mortar.","tileMeters":[1.1,0.6]}},{"name":"limestone","pbrMetallicRoughness":{"baseColorFactor":[1,1,1,1],"baseColorTexture":{"index":6},"metallicRoughnessTexture":{"index":8},"roughnessFactor":1,"metallicFactor":1},"normalTexture":{"index":7,"scale":0.9},"occlusionTexture":{"index":8,"texCoord":0,"strength":0.45},"doubleSided":false,"extras":{"surface":"Warm coursed limestone blocks with fine joints.","tileMeters":1.4}}],"textures":[{"sampler":0,"source":0},{"sampler":0,"source":1},{"sampler":0,"source":2},{"sampler":0,"source":3},{"sampler":0,"source":4},{"sampler":0,"source":5},{"sampler":0,"source":6},{"sampler":0,"source":7},{"sampler":0,"source":8}],"images":[{"uri":"../textures/roof-shingle-albedo.png"},{"uri":"../textures/roof-shingle-normal.png"},{"uri":"../textures/roof-shingle-orm.png"},{"uri":"../textures/brick-red-albedo.png"},{"uri":"../textures/brick-red-normal.png"},{"uri":"../textures/brick-red-orm.png"},{"uri":"../textures/limestone-albedo.png"},{"uri":"../textures/limestone-normal.png"},{"uri":"../textures/limestone-orm.png"}],"samplers":[{"magFilter":9729,"minFilter":9987,"wrapS":10497,"wrapT":10497}],"buffers":[{"uri":"roof-gable-chimney.lod0.bin","byteLength":45504}],"bufferViews":[{"buffer":0,"byteOffset":0,"byteLength":9216,"target":34962},{"buffer":0,"byteOffset":9216,"byteLength":9216,"target":34962},{"buffer":0,"byteOffset":18432,"byteLength":6144,"target":34962},{"buffer":0,"byteOffset":24576,"byteLength":3960,"target":34962},{"buffer":0,"byteOffset":28536,"byteLength":3960,"target":34962},{"buffer":0,"byteOffset":32496,"byteLength":2640,"target":34962},{"buffer":0,"byteOffset":35136,"byteLength":3888,"target":34962},{"buffer":0,"byteOffset":39024,"byteLength":3888,"target":34962},{"buffer":0,"byteOffset":42912,"byteLength":2592,"target":34962}],"accessors":[{"bufferView":0,"componentType":5126,"count":768,"type":"VEC3","min":[-3.6023738384246826,-0.03281368315219879,-4.439499855041504],"max":[3.6023738384246826,2.75,4.439499855041504]},{"bufferView":1,"componentType":5126,"count":768,"type":"VEC3"},{"bufferView":2,"componentType":5126,"count":768,"type":"VEC2"},{"bufferView":3,"componentType":5126,"count":330,"type":"VEC3","min":[-3.200000047683716,-4.7683716530855236e-8,-4.050000190734863],"max":[3.200000047683716,3.4000000953674316,4.050000190734863]},{"bufferView":4,"componentType":5126,"count":330,"type":"VEC3"},{"bufferView":5,"componentType":5126,"count":330,"type":"VEC2"},{"bufferView":6,"componentType":5126,"count":324,"type":"VEC3","min":[1.1899999380111694,3.369999885559082,-1.5099999904632568],"max":[1.909999966621399,3.490000009536743,-0.8899999856948853]},{"bufferView":7,"componentType":5126,"count":324,"type":"VEC3"},{"bufferView":8,"componentType":5126,"count":324,"type":"VEC2"}],"extras":{"library":"Civic Foundry","units":"metres","up":"+Y","front":"+Z","lod":0}}