{"asset":{"version":"2.0","generator":"SLOPMERICA Civic Foundry 1.0"},"scene":0,"scenes":[{"nodes":[0]}],"nodes":[{"name":"roof-mansard-copper","mesh":0}],"meshes":[{"name":"roof-mansard-copper","primitives":[{"attributes":{"POSITION":0,"NORMAL":1,"TEXCOORD_0":2},"material":0,"mode":4}]}],"materials":[{"name":"metal-copper","pbrMetallicRoughness":{"baseColorFactor":[1,1,1,1],"baseColorTexture":{"index":0},"metallicRoughnessTexture":{"index":2},"roughnessFactor":1,"metallicFactor":1},"normalTexture":{"index":1,"scale":0.7},"occlusionTexture":{"index":2,"texCoord":0,"strength":0.45},"doubleSided":false,"extras":{"surface":"Copper sheet with controlled turquoise oxidation.","tileMeters":1.25}}],"textures":[{"sampler":0,"source":0},{"sampler":0,"source":1},{"sampler":0,"source":2}],"images":[{"uri":"../textures/metal-copper-albedo.png"},{"uri":"../textures/metal-copper-normal.png"},{"uri":"../textures/metal-copper-orm.png"}],"samplers":[{"magFilter":9729,"minFilter":9987,"wrapS":10497,"wrapT":10497}],"buffers":[{"uri":"roof-mansard-copper.lod0.bin","byteLength":51840}],"bufferViews":[{"buffer":0,"byteOffset":0,"byteLength":19440,"target":34962},{"buffer":0,"byteOffset":19440,"byteLength":19440,"target":34962},{"buffer":0,"byteOffset":38880,"byteLength":12960,"target":34962}],"accessors":[{"bufferView":0,"componentType":5126,"count":1620,"type":"VEC3","min":[-3.8334317207336426,-0.023447582498192787,-4.23194694519043],"max":[3.8334317207336426,2.299999952316284,4.23194694519043]},{"bufferView":1,"componentType":5126,"count":1620,"type":"VEC3"},{"bufferView":2,"componentType":5126,"count":1620,"type":"VEC2"}],"extras":{"library":"Civic Foundry","units":"metres","up":"+Y","front":"+Z","lod":0}}