{"asset":{"version":"2.0","generator":"SLOPMERICA Civic Foundry 1.0"},"scene":0,"scenes":[{"nodes":[0]}],"nodes":[{"name":"roof-dormer-gable","mesh":0}],"meshes":[{"name":"roof-dormer-gable","primitives":[{"attributes":{"POSITION":0,"NORMAL":1,"TEXCOORD_0":2},"material":0,"mode":4},{"attributes":{"POSITION":3,"NORMAL":4,"TEXCOORD_0":5},"material":1,"mode":4},{"attributes":{"POSITION":6,"NORMAL":7,"TEXCOORD_0":8},"material":2,"mode":4},{"attributes":{"POSITION":9,"NORMAL":10,"TEXCOORD_0":11},"material":3,"mode":4},{"attributes":{"POSITION":12,"NORMAL":13,"TEXCOORD_0":14},"material":4,"mode":4},{"attributes":{"POSITION":15,"NORMAL":16,"TEXCOORD_0":17},"material":5,"mode":4}]}],"materials":[{"name":"roof-shingle","pbrMetallicRoughness":{"baseColorFactor":[1,1,1,1],"baseColorTexture":{"index":0},"metallicRoughnessTexture":{"index":2},"roughnessFactor":1,"metallicFactor":1},"normalTexture":{"index":1,"scale":0.78},"occlusionTexture":{"index":2,"texCoord":0,"strength":0.45},"doubleSided":false,"extras":{"surface":"Staggered dark architectural roof shingles.","tileMeters":2.2}},{"name":"brick-cream","pbrMetallicRoughness":{"baseColorFactor":[1,1,1,1],"baseColorTexture":{"index":3},"metallicRoughnessTexture":{"index":5},"roughnessFactor":1,"metallicFactor":1},"normalTexture":{"index":4,"scale":1.05},"occlusionTexture":{"index":5,"texCoord":0,"strength":0.45},"doubleSided":false,"extras":{"surface":"Pale fired brick with subtle face variation.","tileMeters":[1.1,0.6]}},{"name":"glass-blue","pbrMetallicRoughness":{"baseColorFactor":[1,1,1,1],"baseColorTexture":{"index":6},"metallicRoughnessTexture":{"index":8},"roughnessFactor":1,"metallicFactor":1},"normalTexture":{"index":7,"scale":0.12},"occlusionTexture":{"index":8,"texCoord":0,"strength":0.45},"doubleSided":false,"extras":{"surface":"Desaturated blue-gray architectural glass with faint waviness.","tileMeters":2.5}},{"name":"wood-painted","pbrMetallicRoughness":{"baseColorFactor":[1,1,1,1],"baseColorTexture":{"index":9},"metallicRoughnessTexture":{"index":11},"roughnessFactor":1,"metallicFactor":1},"normalTexture":{"index":10,"scale":0.55},"occlusionTexture":{"index":11,"texCoord":0,"strength":0.45},"doubleSided":false,"extras":{"surface":"Painted timber boards with restrained worn grain.","tileMeters":1.6}},{"name":"limestone","pbrMetallicRoughness":{"baseColorFactor":[1,1,1,1],"baseColorTexture":{"index":12},"metallicRoughnessTexture":{"index":14},"roughnessFactor":1,"metallicFactor":1},"normalTexture":{"index":13,"scale":0.9},"occlusionTexture":{"index":14,"texCoord":0,"strength":0.45},"doubleSided":false,"extras":{"surface":"Warm coursed limestone blocks with fine joints.","tileMeters":1.4}},{"name":"metal-dark","pbrMetallicRoughness":{"baseColorFactor":[1,1,1,1],"baseColorTexture":{"index":15},"metallicRoughnessTexture":{"index":17},"roughnessFactor":1,"metallicFactor":1},"normalTexture":{"index":16,"scale":0.35},"occlusionTexture":{"index":17,"texCoord":0,"strength":0.45},"doubleSided":false,"extras":{"surface":"Charcoal brushed architectural metal.","tileMeters":1.2}}],"textures":[{"sampler":0,"source":0},{"sampler":0,"source":1},{"sampler":0,"source":2},{"sampler":0,"source":3},{"sampler":0,"source":4},{"sampler":0,"source":5},{"sampler":0,"source":6},{"sampler":0,"source":7},{"sampler":0,"source":8},{"sampler":0,"source":9},{"sampler":0,"source":10},{"sampler":0,"source":11},{"sampler":0,"source":12},{"sampler":0,"source":13},{"sampler":0,"source":14},{"sampler":0,"source":15},{"sampler":0,"source":16},{"sampler":0,"source":17}],"images":[{"uri":"../textures/roof-shingle-albedo.png"},{"uri":"../textures/roof-shingle-normal.png"},{"uri":"../textures/roof-shingle-orm.png"},{"uri":"../textures/brick-cream-albedo.png"},{"uri":"../textures/brick-cream-normal.png"},{"uri":"../textures/brick-cream-orm.png"},{"uri":"../textures/glass-blue-albedo.png"},{"uri":"../textures/glass-blue-normal.png"},{"uri":"../textures/glass-blue-orm.png"},{"uri":"../textures/wood-painted-albedo.png"},{"uri":"../textures/wood-painted-normal.png"},{"uri":"../textures/wood-painted-orm.png"},{"uri":"../textures/limestone-albedo.png"},{"uri":"../textures/limestone-normal.png"},{"uri":"../textures/limestone-orm.png"},{"uri":"../textures/metal-dark-albedo.png"},{"uri":"../textures/metal-dark-normal.png"},{"uri":"../textures/metal-dark-orm.png"}],"samplers":[{"magFilter":9729,"minFilter":9987,"wrapS":10497,"wrapT":10497}],"buffers":[{"uri":"roof-dormer-gable.lod0.bin","byteLength":169920}],"bufferViews":[{"buffer":0,"byteOffset":0,"byteLength":13104,"target":34962},{"buffer":0,"byteOffset":13104,"byteLength":13104,"target":34962},{"buffer":0,"byteOffset":26208,"byteLength":8736,"target":34962},{"buffer":0,"byteOffset":34944,"byteLength":11736,"target":34962},{"buffer":0,"byteOffset":46680,"byteLength":11736,"target":34962},{"buffer":0,"byteOffset":58416,"byteLength":7824,"target":34962},{"buffer":0,"byteOffset":66240,"byteLength":3888,"target":34962},{"buffer":0,"byteOffset":70128,"byteLength":3888,"target":34962},{"buffer":0,"byteOffset":74016,"byteLength":2592,"target":34962},{"buffer":0,"byteOffset":76608,"byteLength":19440,"target":34962},{"buffer":0,"byteOffset":96048,"byteLength":19440,"target":34962},{"buffer":0,"byteOffset":115488,"byteLength":12960,"target":34962},{"buffer":0,"byteOffset":128448,"byteLength":3888,"target":34962},{"buffer":0,"byteOffset":132336,"byteLength":3888,"target":34962},{"buffer":0,"byteOffset":136224,"byteLength":2592,"target":34962},{"buffer":0,"byteOffset":138816,"byteLength":11664,"target":34962},{"buffer":0,"byteOffset":150480,"byteLength":11664,"target":34962},{"buffer":0,"byteOffset":162144,"byteLength":7776,"target":34962}],"accessors":[{"bufferView":0,"componentType":5126,"count":1092,"type":"VEC3","min":[-4.367716312408447,-0.03615274280309677,-5.161250114440918],"max":[4.367716312408447,2.926909923553467,5.161250114440918]},{"bufferView":1,"componentType":5126,"count":1092,"type":"VEC3"},{"bufferView":2,"componentType":5126,"count":1092,"type":"VEC2"},{"bufferView":3,"componentType":5126,"count":978,"type":"VEC3","min":[-3.9000000953674316,0,-4.699999809265137],"max":[3.9000000953674316,2.619999885559082,4.699999809265137]},{"bufferView":4,"componentType":5126,"count":978,"type":"VEC3"},{"bufferView":5,"componentType":5126,"count":978,"type":"VEC2"},{"bufferView":6,"componentType":5126,"count":324,"type":"VEC3","min":[2.9024999141693115,1.4500000476837158,0.2900000214576721],"max":[2.947499990463257,2.370000123977661,1.309999942779541]},{"bufferView":7,"componentType":5126,"count":324,"type":"VEC3"},{"bufferView":8,"componentType":5126,"count":324,"type":"VEC2"},{"bufferView":9,"componentType":5126,"count":1620,"type":"VEC3","min":[2.9149999618530273,1.3700000047683716,0.19499999284744263],"max":[3.0250000953674316,2.494999885559082,1.4049999713897705]},{"bufferView":10,"componentType":5126,"count":1620,"type":"VEC3"},{"bufferView":11,"componentType":5126,"count":1620,"type":"VEC2"},{"bufferView":12,"componentType":5126,"count":324,"type":"VEC3","min":[2.9000000953674316,1.340000033378601,0.18999998271465302],"max":[3.119999885559082,1.440000057220459,1.409999966621399]},{"bufferView":13,"componentType":5126,"count":324,"type":"VEC3"},{"bufferView":14,"componentType":5126,"count":324,"type":"VEC2"},{"bufferView":15,"componentType":5126,"count":972,"type":"VEC3","min":[0.9390871524810791,2.631660223007202,0.3075000047683716],"max":[3.0209128856658936,2.9483397006988525,1.2925000190734863]},{"bufferView":16,"componentType":5126,"count":972,"type":"VEC3"},{"bufferView":17,"componentType":5126,"count":972,"type":"VEC2"}],"extras":{"library":"Civic Foundry","units":"metres","up":"+Y","front":"+Z","lod":0}}