{"asset":{"version":"2.0","generator":"SLOPMERICA Civic Foundry 1.0"},"scene":0,"scenes":[{"nodes":[0]}],"nodes":[{"name":"service-valve-manifold","mesh":0}],"meshes":[{"name":"service-valve-manifold","primitives":[{"attributes":{"POSITION":0,"NORMAL":1,"TEXCOORD_0":2},"material":0,"mode":4},{"attributes":{"POSITION":3,"NORMAL":4,"TEXCOORD_0":5},"material":1,"mode":4},{"attributes":{"POSITION":6,"NORMAL":7,"TEXCOORD_0":8},"material":2,"mode":4},{"attributes":{"POSITION":9,"NORMAL":10,"TEXCOORD_0":11},"material":3,"mode":4},{"attributes":{"POSITION":12,"NORMAL":13,"TEXCOORD_0":14},"material":4,"mode":4}]}],"materials":[{"name":"metal-galvanized","pbrMetallicRoughness":{"baseColorFactor":[1,1,1,1],"baseColorTexture":{"index":0},"metallicRoughnessTexture":{"index":2},"roughnessFactor":1,"metallicFactor":1},"normalTexture":{"index":1,"scale":0.15},"occlusionTexture":{"index":2,"texCoord":0,"strength":0.45},"doubleSided":false,"extras":{"surface":"Silvery galvanized steel with fine zinc spangle.","tileMeters":0.15}},{"name":"metal-copper","pbrMetallicRoughness":{"baseColorFactor":[1,1,1,1],"baseColorTexture":{"index":3},"metallicRoughnessTexture":{"index":5},"roughnessFactor":1,"metallicFactor":1},"normalTexture":{"index":4,"scale":0.7},"occlusionTexture":{"index":5,"texCoord":0,"strength":0.45},"doubleSided":false,"extras":{"surface":"Copper sheet with controlled turquoise oxidation.","tileMeters":1.25}},{"name":"metal-dark","pbrMetallicRoughness":{"baseColorFactor":[1,1,1,1],"baseColorTexture":{"index":6},"metallicRoughnessTexture":{"index":8},"roughnessFactor":1,"metallicFactor":1},"normalTexture":{"index":7,"scale":0.35},"occlusionTexture":{"index":8,"texCoord":0,"strength":0.45},"doubleSided":false,"extras":{"surface":"Charcoal brushed architectural metal.","tileMeters":1.2}},{"name":"brick-red","pbrMetallicRoughness":{"baseColorFactor":[1,1,1,1],"baseColorTexture":{"index":9},"metallicRoughnessTexture":{"index":11},"roughnessFactor":1,"metallicFactor":1},"normalTexture":{"index":10,"scale":1.15},"occlusionTexture":{"index":11,"texCoord":0,"strength":0.45},"doubleSided":false,"extras":{"surface":"Warm staggered clay brick with recessed mortar.","tileMeters":[1.1,0.6]}},{"name":"concrete","pbrMetallicRoughness":{"baseColorFactor":[1,1,1,1],"baseColorTexture":{"index":12},"metallicRoughnessTexture":{"index":14},"roughnessFactor":1,"metallicFactor":1},"normalTexture":{"index":13,"scale":0.82},"occlusionTexture":{"index":14,"texCoord":0,"strength":0.45},"doubleSided":false,"extras":{"surface":"Cool concrete with embedded mineral aggregate.","tileMeters":1.8}}],"textures":[{"sampler":0,"source":0},{"sampler":0,"source":1},{"sampler":0,"source":2},{"sampler":0,"source":3},{"sampler":0,"source":4},{"sampler":0,"source":5},{"sampler":0,"source":6},{"sampler":0,"source":7},{"sampler":0,"source":8},{"sampler":0,"source":9},{"sampler":0,"source":10},{"sampler":0,"source":11},{"sampler":0,"source":12},{"sampler":0,"source":13},{"sampler":0,"source":14}],"images":[{"uri":"../textures/metal-galvanized-albedo.png"},{"uri":"../textures/metal-galvanized-normal.png"},{"uri":"../textures/metal-galvanized-orm.png"},{"uri":"../textures/metal-copper-albedo.png"},{"uri":"../textures/metal-copper-normal.png"},{"uri":"../textures/metal-copper-orm.png"},{"uri":"../textures/metal-dark-albedo.png"},{"uri":"../textures/metal-dark-normal.png"},{"uri":"../textures/metal-dark-orm.png"},{"uri":"../textures/brick-red-albedo.png"},{"uri":"../textures/brick-red-normal.png"},{"uri":"../textures/brick-red-orm.png"},{"uri":"../textures/concrete-albedo.png"},{"uri":"../textures/concrete-normal.png"},{"uri":"../textures/concrete-orm.png"}],"samplers":[{"magFilter":9729,"minFilter":9987,"wrapS":10497,"wrapT":10497}],"buffers":[{"uri":"service-valve-manifold.lod0.bin","byteLength":562176}],"bufferViews":[{"buffer":0,"byteOffset":0,"byteLength":10368,"target":34962},{"buffer":0,"byteOffset":10368,"byteLength":10368,"target":34962},{"buffer":0,"byteOffset":20736,"byteLength":6912,"target":34962},{"buffer":0,"byteOffset":27648,"byteLength":46656,"target":34962},{"buffer":0,"byteOffset":74304,"byteLength":46656,"target":34962},{"buffer":0,"byteOffset":120960,"byteLength":31104,"target":34962},{"buffer":0,"byteOffset":152064,"byteLength":80784,"target":34962},{"buffer":0,"byteOffset":232848,"byteLength":80784,"target":34962},{"buffer":0,"byteOffset":313632,"byteLength":53856,"target":34962},{"buffer":0,"byteOffset":367488,"byteLength":69120,"target":34962},{"buffer":0,"byteOffset":436608,"byteLength":69120,"target":34962},{"buffer":0,"byteOffset":505728,"byteLength":46080,"target":34962},{"buffer":0,"byteOffset":551808,"byteLength":3888,"target":34962},{"buffer":0,"byteOffset":555696,"byteLength":3888,"target":34962},{"buffer":0,"byteOffset":559584,"byteLength":2592,"target":34962}],"accessors":[{"bufferView":0,"componentType":5126,"count":864,"type":"VEC3","min":[-2.5,0.5699999928474426,-0.18000000715255737],"max":[2.5,0.9300000071525574,0.18000000715255737]},{"bufferView":1,"componentType":5126,"count":864,"type":"VEC3"},{"bufferView":2,"componentType":5126,"count":864,"type":"VEC2"},{"bufferView":3,"componentType":5126,"count":3888,"type":"VEC3","min":[-1.2899999618530273,0.7499868869781494,-0.21518012881278992],"max":[1.2899999618530273,2.05606746673584,0.8500149250030518]},{"bufferView":4,"componentType":5126,"count":3888,"type":"VEC3"},{"bufferView":5,"componentType":5126,"count":3888,"type":"VEC2"},{"bufferView":6,"componentType":5126,"count":6732,"type":"VEC3","min":[-1.4399999380111694,1,-0.25],"max":[1.4399999380111694,1.899999976158142,0.25]},{"bufferView":7,"componentType":5126,"count":6732,"type":"VEC3"},{"bufferView":8,"componentType":5126,"count":6732,"type":"VEC2"},{"bufferView":9,"componentType":5126,"count":5760,"type":"VEC3","min":[-1.465000033378601,1.8650000095367432,-0.3149999976158142],"max":[1.465000033378601,1.934999942779541,0.3149999976158142]},{"bufferView":10,"componentType":5126,"count":5760,"type":"VEC3"},{"bufferView":11,"componentType":5126,"count":5760,"type":"VEC2"},{"bufferView":12,"componentType":5126,"count":324,"type":"VEC3","min":[-2.0999999046325684,-3.5762786065873797e-9,-0.4000000059604645],"max":[2.0999999046325684,0.18000000715255737,0.4000000059604645]},{"bufferView":13,"componentType":5126,"count":324,"type":"VEC3"},{"bufferView":14,"componentType":5126,"count":324,"type":"VEC2"}],"extras":{"library":"Civic Foundry","units":"metres","up":"+Y","front":"+Z","lod":0}}