{"asset":{"version":"2.0","generator":"SLOPMERICA Civic Foundry 1.0"},"scene":0,"scenes":[{"nodes":[0]}],"nodes":[{"name":"service-industrial-catwalk","mesh":0}],"meshes":[{"name":"service-industrial-catwalk","primitives":[{"attributes":{"POSITION":0,"NORMAL":1,"TEXCOORD_0":2},"material":0,"mode":4},{"attributes":{"POSITION":3,"NORMAL":4,"TEXCOORD_0":5},"material":1,"mode":4}]}],"materials":[{"name":"metal-galvanized","pbrMetallicRoughness":{"baseColorFactor":[1,1,1,1],"baseColorTexture":{"index":0},"metallicRoughnessTexture":{"index":2},"roughnessFactor":1,"metallicFactor":1},"normalTexture":{"index":1,"scale":0.15},"occlusionTexture":{"index":2,"texCoord":0,"strength":0.45},"doubleSided":false,"extras":{"surface":"Silvery galvanized steel with fine zinc spangle.","tileMeters":0.15}},{"name":"metal-dark","pbrMetallicRoughness":{"baseColorFactor":[1,1,1,1],"baseColorTexture":{"index":3},"metallicRoughnessTexture":{"index":5},"roughnessFactor":1,"metallicFactor":1},"normalTexture":{"index":4,"scale":0.35},"occlusionTexture":{"index":5,"texCoord":0,"strength":0.45},"doubleSided":false,"extras":{"surface":"Charcoal brushed architectural metal.","tileMeters":1.2}}],"textures":[{"sampler":0,"source":0},{"sampler":0,"source":1},{"sampler":0,"source":2},{"sampler":0,"source":3},{"sampler":0,"source":4},{"sampler":0,"source":5}],"images":[{"uri":"../textures/metal-galvanized-albedo.png"},{"uri":"../textures/metal-galvanized-normal.png"},{"uri":"../textures/metal-galvanized-orm.png"},{"uri":"../textures/metal-dark-albedo.png"},{"uri":"../textures/metal-dark-normal.png"},{"uri":"../textures/metal-dark-orm.png"}],"samplers":[{"magFilter":9729,"minFilter":9987,"wrapS":10497,"wrapT":10497}],"buffers":[{"uri":"service-industrial-catwalk.lod2.bin","byteLength":12672}],"bufferViews":[{"buffer":0,"byteOffset":0,"byteLength":2160,"target":34962},{"buffer":0,"byteOffset":2160,"byteLength":2160,"target":34962},{"buffer":0,"byteOffset":4320,"byteLength":1440,"target":34962},{"buffer":0,"byteOffset":5760,"byteLength":2592,"target":34962},{"buffer":0,"byteOffset":8352,"byteLength":2592,"target":34962},{"buffer":0,"byteOffset":10944,"byteLength":1728,"target":34962}],"accessors":[{"bufferView":0,"componentType":5126,"count":180,"type":"VEC3","min":[-2.5999999046325684,2.1600000858306885,-0.574999988079071],"max":[2.5999999046325684,3.280310869216919,0.574999988079071]},{"bufferView":1,"componentType":5126,"count":180,"type":"VEC3"},{"bufferView":2,"componentType":5126,"count":180,"type":"VEC2"},{"bufferView":3,"componentType":5126,"count":216,"type":"VEC3","min":[-4.967312812805176,0.004999999888241291,-0.49000000953674316],"max":[2.319999933242798,2.255000114440918,0.49000000953674316]},{"bufferView":4,"componentType":5126,"count":216,"type":"VEC3"},{"bufferView":5,"componentType":5126,"count":216,"type":"VEC2"}],"extras":{"library":"Civic Foundry","units":"metres","up":"+Y","front":"+Z","lod":2}}