{"asset":{"version":"2.0","generator":"SLOPMERICA Civic Foundry 1.0"},"scene":0,"scenes":[{"nodes":[0]}],"nodes":[{"name":"service-fire-hydrant","mesh":0}],"meshes":[{"name":"service-fire-hydrant","primitives":[{"attributes":{"POSITION":0,"NORMAL":1,"TEXCOORD_0":2},"material":0,"mode":4},{"attributes":{"POSITION":3,"NORMAL":4,"TEXCOORD_0":5},"material":1,"mode":4}]}],"materials":[{"name":"brick-red","pbrMetallicRoughness":{"baseColorFactor":[1,1,1,1],"baseColorTexture":{"index":0},"metallicRoughnessTexture":{"index":2},"roughnessFactor":1,"metallicFactor":1},"normalTexture":{"index":1,"scale":1.15},"occlusionTexture":{"index":2,"texCoord":0,"strength":0.45},"doubleSided":false,"extras":{"surface":"Warm staggered clay brick with recessed mortar.","tileMeters":[1.1,0.6]}},{"name":"metal-dark","pbrMetallicRoughness":{"baseColorFactor":[1,1,1,1],"baseColorTexture":{"index":3},"metallicRoughnessTexture":{"index":5},"roughnessFactor":1,"metallicFactor":1},"normalTexture":{"index":4,"scale":0.35},"occlusionTexture":{"index":5,"texCoord":0,"strength":0.45},"doubleSided":false,"extras":{"surface":"Charcoal brushed architectural metal.","tileMeters":1.2}}],"textures":[{"sampler":0,"source":0},{"sampler":0,"source":1},{"sampler":0,"source":2},{"sampler":0,"source":3},{"sampler":0,"source":4},{"sampler":0,"source":5}],"images":[{"uri":"../textures/brick-red-albedo.png"},{"uri":"../textures/brick-red-normal.png"},{"uri":"../textures/brick-red-orm.png"},{"uri":"../textures/metal-dark-albedo.png"},{"uri":"../textures/metal-dark-normal.png"},{"uri":"../textures/metal-dark-orm.png"}],"samplers":[{"magFilter":9729,"minFilter":9987,"wrapS":10497,"wrapT":10497}],"buffers":[{"uri":"service-fire-hydrant.lod1.bin","byteLength":69120}],"bufferViews":[{"buffer":0,"byteOffset":0,"byteLength":12960,"target":34962},{"buffer":0,"byteOffset":12960,"byteLength":12960,"target":34962},{"buffer":0,"byteOffset":25920,"byteLength":8640,"target":34962},{"buffer":0,"byteOffset":34560,"byteLength":12960,"target":34962},{"buffer":0,"byteOffset":47520,"byteLength":12960,"target":34962},{"buffer":0,"byteOffset":60480,"byteLength":8640,"target":34962}],"accessors":[{"bufferView":0,"componentType":5126,"count":1080,"type":"VEC3","min":[-0.4699999988079071,0.059999991208314896,-0.3400000035762787],"max":[0.4699999988079071,1.2899999618530273,0.3400000035762787]},{"bufferView":1,"componentType":5126,"count":1080,"type":"VEC3"},{"bufferView":2,"componentType":5126,"count":1080,"type":"VEC2"},{"bufferView":3,"componentType":5126,"count":1080,"type":"VEC3","min":[-0.5099999904632568,0.06504809856414795,-0.39500001072883606],"max":[0.5099999904632568,1.3250000476837158,0.39500001072883606]},{"bufferView":4,"componentType":5126,"count":1080,"type":"VEC3"},{"bufferView":5,"componentType":5126,"count":1080,"type":"VEC2"}],"extras":{"library":"Civic Foundry","units":"metres","up":"+Y","front":"+Z","lod":1}}