{"asset":{"version":"2.0","generator":"SLOPMERICA Civic Foundry 1.0"},"scene":0,"scenes":[{"nodes":[0]}],"nodes":[{"name":"service-gas-regulator","mesh":0}],"meshes":[{"name":"service-gas-regulator","primitives":[{"attributes":{"POSITION":0,"NORMAL":1,"TEXCOORD_0":2},"material":0,"mode":4},{"attributes":{"POSITION":3,"NORMAL":4,"TEXCOORD_0":5},"material":1,"mode":4},{"attributes":{"POSITION":6,"NORMAL":7,"TEXCOORD_0":8},"material":2,"mode":4},{"attributes":{"POSITION":9,"NORMAL":10,"TEXCOORD_0":11},"material":3,"mode":4}]}],"materials":[{"name":"concrete","pbrMetallicRoughness":{"baseColorFactor":[1,1,1,1],"baseColorTexture":{"index":0},"metallicRoughnessTexture":{"index":2},"roughnessFactor":1,"metallicFactor":1},"normalTexture":{"index":1,"scale":0.82},"occlusionTexture":{"index":2,"texCoord":0,"strength":0.45},"doubleSided":false,"extras":{"surface":"Cool concrete with embedded mineral aggregate.","tileMeters":1.8}},{"name":"metal-copper","pbrMetallicRoughness":{"baseColorFactor":[1,1,1,1],"baseColorTexture":{"index":3},"metallicRoughnessTexture":{"index":5},"roughnessFactor":1,"metallicFactor":1},"normalTexture":{"index":4,"scale":0.7},"occlusionTexture":{"index":5,"texCoord":0,"strength":0.45},"doubleSided":false,"extras":{"surface":"Copper sheet with controlled turquoise oxidation.","tileMeters":1.25}},{"name":"metal-dark","pbrMetallicRoughness":{"baseColorFactor":[1,1,1,1],"baseColorTexture":{"index":6},"metallicRoughnessTexture":{"index":8},"roughnessFactor":1,"metallicFactor":1},"normalTexture":{"index":7,"scale":0.35},"occlusionTexture":{"index":8,"texCoord":0,"strength":0.45},"doubleSided":false,"extras":{"surface":"Charcoal brushed architectural metal.","tileMeters":1.2}},{"name":"brick-cream","pbrMetallicRoughness":{"baseColorFactor":[1,1,1,1],"baseColorTexture":{"index":9},"metallicRoughnessTexture":{"index":11},"roughnessFactor":1,"metallicFactor":1},"normalTexture":{"index":10,"scale":1.05},"occlusionTexture":{"index":11,"texCoord":0,"strength":0.45},"doubleSided":false,"extras":{"surface":"Pale fired brick with subtle face variation.","tileMeters":[1.1,0.6]}}],"textures":[{"sampler":0,"source":0},{"sampler":0,"source":1},{"sampler":0,"source":2},{"sampler":0,"source":3},{"sampler":0,"source":4},{"sampler":0,"source":5},{"sampler":0,"source":6},{"sampler":0,"source":7},{"sampler":0,"source":8},{"sampler":0,"source":9},{"sampler":0,"source":10},{"sampler":0,"source":11}],"images":[{"uri":"../textures/concrete-albedo.png"},{"uri":"../textures/concrete-normal.png"},{"uri":"../textures/concrete-orm.png"},{"uri":"../textures/metal-copper-albedo.png"},{"uri":"../textures/metal-copper-normal.png"},{"uri":"../textures/metal-copper-orm.png"},{"uri":"../textures/metal-dark-albedo.png"},{"uri":"../textures/metal-dark-normal.png"},{"uri":"../textures/metal-dark-orm.png"},{"uri":"../textures/brick-cream-albedo.png"},{"uri":"../textures/brick-cream-normal.png"},{"uri":"../textures/brick-cream-orm.png"}],"samplers":[{"magFilter":9729,"minFilter":9987,"wrapS":10497,"wrapT":10497}],"buffers":[{"uri":"service-gas-regulator.lod0.bin","byteLength":300672}],"bufferViews":[{"buffer":0,"byteOffset":0,"byteLength":3888,"target":34962},{"buffer":0,"byteOffset":3888,"byteLength":3888,"target":34962},{"buffer":0,"byteOffset":7776,"byteLength":2592,"target":34962},{"buffer":0,"byteOffset":10368,"byteLength":51840,"target":34962},{"buffer":0,"byteOffset":62208,"byteLength":51840,"target":34962},{"buffer":0,"byteOffset":114048,"byteLength":34560,"target":34962},{"buffer":0,"byteOffset":148608,"byteLength":53568,"target":34962},{"buffer":0,"byteOffset":202176,"byteLength":53568,"target":34962},{"buffer":0,"byteOffset":255744,"byteLength":35712,"target":34962},{"buffer":0,"byteOffset":291456,"byteLength":3456,"target":34962},{"buffer":0,"byteOffset":294912,"byteLength":3456,"target":34962},{"buffer":0,"byteOffset":298368,"byteLength":2304,"target":34962}],"accessors":[{"bufferView":0,"componentType":5126,"count":324,"type":"VEC3","min":[-2.25,1.7881393032936899e-9,-1.100000023841858],"max":[2.25,0.1599999964237213,1.100000023841858]},{"bufferView":1,"componentType":5126,"count":324,"type":"VEC3"},{"bufferView":2,"componentType":5126,"count":324,"type":"VEC2"},{"bufferView":3,"componentType":5126,"count":4320,"type":"VEC3","min":[-2.2500078678131104,0.5648614764213562,-0.6000000238418579],"max":[2.2500078678131104,1.1699999570846558,0.6000000238418579]},{"bufferView":4,"componentType":5126,"count":4320,"type":"VEC3"},{"bufferView":5,"componentType":5126,"count":4320,"type":"VEC2"},{"bufferView":6,"componentType":5126,"count":4464,"type":"VEC3","min":[-0.41999998688697815,0.7199999690055847,-0.8199999928474426],"max":[0.41999998688697815,1.6100000143051147,0.8199999928474426]},{"bufferView":7,"componentType":5126,"count":4464,"type":"VEC3"},{"bufferView":8,"componentType":5126,"count":4464,"type":"VEC2"},{"bufferView":9,"componentType":5126,"count":288,"type":"VEC3","min":[0.2199999988079071,1.4900000095367432,-0.5099999904632568],"max":[0.47999998927116394,1.75,0.5099999904632568]},{"bufferView":10,"componentType":5126,"count":288,"type":"VEC3"},{"bufferView":11,"componentType":5126,"count":288,"type":"VEC2"}],"extras":{"library":"Civic Foundry","units":"metres","up":"+Y","front":"+Z","lod":0}}