{"asset":{"version":"2.0","generator":"SLOPMERICA Civic Foundry 1.0"},"scene":0,"scenes":[{"nodes":[0]}],"nodes":[{"name":"service-cooling-tower","mesh":0}],"meshes":[{"name":"service-cooling-tower","primitives":[{"attributes":{"POSITION":0,"NORMAL":1,"TEXCOORD_0":2},"material":0,"mode":4},{"attributes":{"POSITION":3,"NORMAL":4,"TEXCOORD_0":5},"material":1,"mode":4}]}],"materials":[{"name":"concrete","pbrMetallicRoughness":{"baseColorFactor":[1,1,1,1],"baseColorTexture":{"index":0},"metallicRoughnessTexture":{"index":2},"roughnessFactor":1,"metallicFactor":1},"normalTexture":{"index":1,"scale":0.82},"occlusionTexture":{"index":2,"texCoord":0,"strength":0.45},"doubleSided":false,"extras":{"surface":"Cool concrete with embedded mineral aggregate.","tileMeters":1.8}},{"name":"metal-dark","pbrMetallicRoughness":{"baseColorFactor":[1,1,1,1],"baseColorTexture":{"index":3},"metallicRoughnessTexture":{"index":5},"roughnessFactor":1,"metallicFactor":1},"normalTexture":{"index":4,"scale":0.35},"occlusionTexture":{"index":5,"texCoord":0,"strength":0.45},"doubleSided":false,"extras":{"surface":"Charcoal brushed architectural metal.","tileMeters":1.2}}],"textures":[{"sampler":0,"source":0},{"sampler":0,"source":1},{"sampler":0,"source":2},{"sampler":0,"source":3},{"sampler":0,"source":4},{"sampler":0,"source":5}],"images":[{"uri":"../textures/concrete-albedo.png"},{"uri":"../textures/concrete-normal.png"},{"uri":"../textures/concrete-orm.png"},{"uri":"../textures/metal-dark-albedo.png"},{"uri":"../textures/metal-dark-normal.png"},{"uri":"../textures/metal-dark-orm.png"}],"samplers":[{"magFilter":9729,"minFilter":9987,"wrapS":10497,"wrapT":10497}],"buffers":[{"uri":"service-cooling-tower.lod0.bin","byteLength":249600}],"bufferViews":[{"buffer":0,"byteOffset":0,"byteLength":31680,"target":34962},{"buffer":0,"byteOffset":31680,"byteLength":31680,"target":34962},{"buffer":0,"byteOffset":63360,"byteLength":21120,"target":34962},{"buffer":0,"byteOffset":84480,"byteLength":61920,"target":34962},{"buffer":0,"byteOffset":146400,"byteLength":61920,"target":34962},{"buffer":0,"byteOffset":208320,"byteLength":41280,"target":34962}],"accessors":[{"bufferView":0,"componentType":5126,"count":2640,"type":"VEC3","min":[-2.4000000953674316,0,-2.4000000953674316],"max":[2.4000000953674316,6.599999904632568,2.4000000953674316]},{"bufferView":1,"componentType":5126,"count":2640,"type":"VEC3"},{"bufferView":2,"componentType":5126,"count":2640,"type":"VEC2"},{"bufferView":3,"componentType":5126,"count":5160,"type":"VEC3","min":[-2.490000009536743,0.15999998152256012,-2.378946304321289],"max":[2.490000009536743,6.659999847412109,2.378946304321289]},{"bufferView":4,"componentType":5126,"count":5160,"type":"VEC3"},{"bufferView":5,"componentType":5126,"count":5160,"type":"VEC2"}],"extras":{"library":"Civic Foundry","units":"metres","up":"+Y","front":"+Z","lod":0}}