{"asset":{"version":"2.0","generator":"SLOPMERICA Civic Foundry 1.0"},"scene":0,"scenes":[{"nodes":[0]}],"nodes":[{"name":"service-solar-array","mesh":0}],"meshes":[{"name":"service-solar-array","primitives":[{"attributes":{"POSITION":0,"NORMAL":1,"TEXCOORD_0":2},"material":0,"mode":4},{"attributes":{"POSITION":3,"NORMAL":4,"TEXCOORD_0":5},"material":1,"mode":4},{"attributes":{"POSITION":6,"NORMAL":7,"TEXCOORD_0":8},"material":2,"mode":4},{"attributes":{"POSITION":9,"NORMAL":10,"TEXCOORD_0":11},"material":3,"mode":4}]}],"materials":[{"name":"glass-blue","pbrMetallicRoughness":{"baseColorFactor":[1,1,1,1],"baseColorTexture":{"index":0},"metallicRoughnessTexture":{"index":2},"roughnessFactor":1,"metallicFactor":1},"normalTexture":{"index":1,"scale":0.12},"occlusionTexture":{"index":2,"texCoord":0,"strength":0.45},"doubleSided":false,"extras":{"surface":"Desaturated blue-gray architectural glass with faint waviness.","tileMeters":2.5}},{"name":"metal-dark","pbrMetallicRoughness":{"baseColorFactor":[1,1,1,1],"baseColorTexture":{"index":3},"metallicRoughnessTexture":{"index":5},"roughnessFactor":1,"metallicFactor":1},"normalTexture":{"index":4,"scale":0.35},"occlusionTexture":{"index":5,"texCoord":0,"strength":0.45},"doubleSided":false,"extras":{"surface":"Charcoal brushed architectural metal.","tileMeters":1.2}},{"name":"metal-galvanized","pbrMetallicRoughness":{"baseColorFactor":[1,1,1,1],"baseColorTexture":{"index":6},"metallicRoughnessTexture":{"index":8},"roughnessFactor":1,"metallicFactor":1},"normalTexture":{"index":7,"scale":0.15},"occlusionTexture":{"index":8,"texCoord":0,"strength":0.45},"doubleSided":false,"extras":{"surface":"Silvery galvanized steel with fine zinc spangle.","tileMeters":0.15}},{"name":"concrete","pbrMetallicRoughness":{"baseColorFactor":[1,1,1,1],"baseColorTexture":{"index":9},"metallicRoughnessTexture":{"index":11},"roughnessFactor":1,"metallicFactor":1},"normalTexture":{"index":10,"scale":0.82},"occlusionTexture":{"index":11,"texCoord":0,"strength":0.45},"doubleSided":false,"extras":{"surface":"Cool concrete with embedded mineral aggregate.","tileMeters":1.8}}],"textures":[{"sampler":0,"source":0},{"sampler":0,"source":1},{"sampler":0,"source":2},{"sampler":0,"source":3},{"sampler":0,"source":4},{"sampler":0,"source":5},{"sampler":0,"source":6},{"sampler":0,"source":7},{"sampler":0,"source":8},{"sampler":0,"source":9},{"sampler":0,"source":10},{"sampler":0,"source":11}],"images":[{"uri":"../textures/glass-blue-albedo.png"},{"uri":"../textures/glass-blue-normal.png"},{"uri":"../textures/glass-blue-orm.png"},{"uri":"../textures/metal-dark-albedo.png"},{"uri":"../textures/metal-dark-normal.png"},{"uri":"../textures/metal-dark-orm.png"},{"uri":"../textures/metal-galvanized-albedo.png"},{"uri":"../textures/metal-galvanized-normal.png"},{"uri":"../textures/metal-galvanized-orm.png"},{"uri":"../textures/concrete-albedo.png"},{"uri":"../textures/concrete-normal.png"},{"uri":"../textures/concrete-orm.png"}],"samplers":[{"magFilter":9729,"minFilter":9987,"wrapS":10497,"wrapT":10497}],"buffers":[{"uri":"service-solar-array.lod0.bin","byteLength":219648}],"bufferViews":[{"buffer":0,"byteOffset":0,"byteLength":15552,"target":34962},{"buffer":0,"byteOffset":15552,"byteLength":15552,"target":34962},{"buffer":0,"byteOffset":31104,"byteLength":10368,"target":34962},{"buffer":0,"byteOffset":41472,"byteLength":46656,"target":34962},{"buffer":0,"byteOffset":88128,"byteLength":46656,"target":34962},{"buffer":0,"byteOffset":134784,"byteLength":31104,"target":34962},{"buffer":0,"byteOffset":165888,"byteLength":4608,"target":34962},{"buffer":0,"byteOffset":170496,"byteLength":4608,"target":34962},{"buffer":0,"byteOffset":175104,"byteLength":3072,"target":34962},{"buffer":0,"byteOffset":178176,"byteLength":15552,"target":34962},{"buffer":0,"byteOffset":193728,"byteLength":15552,"target":34962},{"buffer":0,"byteOffset":209280,"byteLength":10368,"target":34962}],"accessors":[{"bufferView":0,"componentType":5126,"count":1296,"type":"VEC3","min":[-2.3399999141693115,1.1024855375289917,-0.9452629685401917],"max":[2.3399999141693115,1.9975143671035767,0.9452629685401917]},{"bufferView":1,"componentType":5126,"count":1296,"type":"VEC3"},{"bufferView":2,"componentType":5126,"count":1296,"type":"VEC2"},{"bufferView":3,"componentType":5126,"count":3888,"type":"VEC3","min":[-2.0789999961853027,1.0861155986785889,-0.977980375289917],"max":[2.0789999961853027,2.0138845443725586,0.977980375289917]},{"bufferView":4,"componentType":5126,"count":3888,"type":"VEC3"},{"bufferView":5,"componentType":5126,"count":3888,"type":"VEC2"},{"bufferView":6,"componentType":5126,"count":384,"type":"VEC3","min":[-1.8650000095367432,0.004999976139515638,-0.06499999761581421],"max":[1.8650000095367432,1.4550000429153442,0.06499999761581421]},{"bufferView":7,"componentType":5126,"count":384,"type":"VEC3"},{"bufferView":8,"componentType":5126,"count":384,"type":"VEC2"},{"bufferView":9,"componentType":5126,"count":1296,"type":"VEC3","min":[-2.009999990463257,0.010000001639127731,-0.20999999344348907],"max":[2.009999990463257,0.12999999523162842,0.20999999344348907]},{"bufferView":10,"componentType":5126,"count":1296,"type":"VEC3"},{"bufferView":11,"componentType":5126,"count":1296,"type":"VEC2"}],"extras":{"library":"Civic Foundry","units":"metres","up":"+Y","front":"+Z","lod":0}}