{"asset":{"version":"2.0","generator":"SLOPMERICA Civic Foundry 1.0"},"scene":0,"scenes":[{"nodes":[0]}],"nodes":[{"name":"service-pump-skid","mesh":0}],"meshes":[{"name":"service-pump-skid","primitives":[{"attributes":{"POSITION":0,"NORMAL":1,"TEXCOORD_0":2},"material":0,"mode":4},{"attributes":{"POSITION":3,"NORMAL":4,"TEXCOORD_0":5},"material":1,"mode":4},{"attributes":{"POSITION":6,"NORMAL":7,"TEXCOORD_0":8},"material":2,"mode":4}]}],"materials":[{"name":"metal-dark","pbrMetallicRoughness":{"baseColorFactor":[1,1,1,1],"baseColorTexture":{"index":0},"metallicRoughnessTexture":{"index":2},"roughnessFactor":1,"metallicFactor":1},"normalTexture":{"index":1,"scale":0.35},"occlusionTexture":{"index":2,"texCoord":0,"strength":0.45},"doubleSided":false,"extras":{"surface":"Charcoal brushed architectural metal.","tileMeters":1.2}},{"name":"metal-galvanized","pbrMetallicRoughness":{"baseColorFactor":[1,1,1,1],"baseColorTexture":{"index":3},"metallicRoughnessTexture":{"index":5},"roughnessFactor":1,"metallicFactor":1},"normalTexture":{"index":4,"scale":0.15},"occlusionTexture":{"index":5,"texCoord":0,"strength":0.45},"doubleSided":false,"extras":{"surface":"Silvery galvanized steel with fine zinc spangle.","tileMeters":0.15}},{"name":"metal-copper","pbrMetallicRoughness":{"baseColorFactor":[1,1,1,1],"baseColorTexture":{"index":6},"metallicRoughnessTexture":{"index":8},"roughnessFactor":1,"metallicFactor":1},"normalTexture":{"index":7,"scale":0.7},"occlusionTexture":{"index":8,"texCoord":0,"strength":0.45},"doubleSided":false,"extras":{"surface":"Copper sheet with controlled turquoise oxidation.","tileMeters":1.25}}],"textures":[{"sampler":0,"source":0},{"sampler":0,"source":1},{"sampler":0,"source":2},{"sampler":0,"source":3},{"sampler":0,"source":4},{"sampler":0,"source":5},{"sampler":0,"source":6},{"sampler":0,"source":7},{"sampler":0,"source":8}],"images":[{"uri":"../textures/metal-dark-albedo.png"},{"uri":"../textures/metal-dark-normal.png"},{"uri":"../textures/metal-dark-orm.png"},{"uri":"../textures/metal-galvanized-albedo.png"},{"uri":"../textures/metal-galvanized-normal.png"},{"uri":"../textures/metal-galvanized-orm.png"},{"uri":"../textures/metal-copper-albedo.png"},{"uri":"../textures/metal-copper-normal.png"},{"uri":"../textures/metal-copper-orm.png"}],"samplers":[{"magFilter":9729,"minFilter":9987,"wrapS":10497,"wrapT":10497}],"buffers":[{"uri":"service-pump-skid.lod1.bin","byteLength":97920}],"bufferViews":[{"buffer":0,"byteOffset":0,"byteLength":21168,"target":34962},{"buffer":0,"byteOffset":21168,"byteLength":21168,"target":34962},{"buffer":0,"byteOffset":42336,"byteLength":14112,"target":34962},{"buffer":0,"byteOffset":56448,"byteLength":5184,"target":34962},{"buffer":0,"byteOffset":61632,"byteLength":5184,"target":34962},{"buffer":0,"byteOffset":66816,"byteLength":3456,"target":34962},{"buffer":0,"byteOffset":70272,"byteLength":10368,"target":34962},{"buffer":0,"byteOffset":80640,"byteLength":10368,"target":34962},{"buffer":0,"byteOffset":91008,"byteLength":6912,"target":34962}],"accessors":[{"bufferView":0,"componentType":5126,"count":1764,"type":"VEC3","min":[-2.0999999046325684,2.6822091214739885e-9,-1],"max":[2.0999999046325684,1.2000000476837158,1]},{"bufferView":1,"componentType":5126,"count":1764,"type":"VEC3"},{"bufferView":2,"componentType":5126,"count":1764,"type":"VEC2"},{"bufferView":3,"componentType":5126,"count":432,"type":"VEC3","min":[-2.3499999046325684,0.41626933217048645,-0.7699999809265137],"max":[2.3499999046325684,1.143730640411377,0.7400000095367432]},{"bufferView":4,"componentType":5126,"count":432,"type":"VEC3"},{"bufferView":5,"componentType":5126,"count":432,"type":"VEC2"},{"bufferView":6,"componentType":5126,"count":864,"type":"VEC3","min":[-1.1699999570846558,0.8499892354011536,0.49005210399627686],"max":[1.1699999570846558,1.5973176956176758,1.0500131845474243]},{"bufferView":7,"componentType":5126,"count":864,"type":"VEC3"},{"bufferView":8,"componentType":5126,"count":864,"type":"VEC2"}],"extras":{"library":"Civic Foundry","units":"metres","up":"+Y","front":"+Z","lod":1}}