{"asset":{"version":"2.0","generator":"SLOPMERICA Civic Foundry 1.0"},"scene":0,"scenes":[{"nodes":[0]}],"nodes":[{"name":"service-water-tank-ground","mesh":0}],"meshes":[{"name":"service-water-tank-ground","primitives":[{"attributes":{"POSITION":0,"NORMAL":1,"TEXCOORD_0":2},"material":0,"mode":4},{"attributes":{"POSITION":3,"NORMAL":4,"TEXCOORD_0":5},"material":1,"mode":4},{"attributes":{"POSITION":6,"NORMAL":7,"TEXCOORD_0":8},"material":2,"mode":4}]}],"materials":[{"name":"metal-galvanized","pbrMetallicRoughness":{"baseColorFactor":[1,1,1,1],"baseColorTexture":{"index":0},"metallicRoughnessTexture":{"index":2},"roughnessFactor":1,"metallicFactor":1},"normalTexture":{"index":1,"scale":0.15},"occlusionTexture":{"index":2,"texCoord":0,"strength":0.45},"doubleSided":false,"extras":{"surface":"Silvery galvanized steel with fine zinc spangle.","tileMeters":0.15}},{"name":"roof-metal","pbrMetallicRoughness":{"baseColorFactor":[1,1,1,1],"baseColorTexture":{"index":3},"metallicRoughnessTexture":{"index":5},"roughnessFactor":1,"metallicFactor":1},"normalTexture":{"index":4,"scale":0.68},"occlusionTexture":{"index":5,"texCoord":0,"strength":0.45},"doubleSided":false,"extras":{"surface":"Painted standing-seam metal roofing.","tileMeters":3}},{"name":"metal-dark","pbrMetallicRoughness":{"baseColorFactor":[1,1,1,1],"baseColorTexture":{"index":6},"metallicRoughnessTexture":{"index":8},"roughnessFactor":1,"metallicFactor":1},"normalTexture":{"index":7,"scale":0.35},"occlusionTexture":{"index":8,"texCoord":0,"strength":0.45},"doubleSided":false,"extras":{"surface":"Charcoal brushed architectural metal.","tileMeters":1.2}}],"textures":[{"sampler":0,"source":0},{"sampler":0,"source":1},{"sampler":0,"source":2},{"sampler":0,"source":3},{"sampler":0,"source":4},{"sampler":0,"source":5},{"sampler":0,"source":6},{"sampler":0,"source":7},{"sampler":0,"source":8}],"images":[{"uri":"../textures/metal-galvanized-albedo.png"},{"uri":"../textures/metal-galvanized-normal.png"},{"uri":"../textures/metal-galvanized-orm.png"},{"uri":"../textures/roof-metal-albedo.png"},{"uri":"../textures/roof-metal-normal.png"},{"uri":"../textures/roof-metal-orm.png"},{"uri":"../textures/metal-dark-albedo.png"},{"uri":"../textures/metal-dark-normal.png"},{"uri":"../textures/metal-dark-orm.png"}],"samplers":[{"magFilter":9729,"minFilter":9987,"wrapS":10497,"wrapT":10497}],"buffers":[{"uri":"service-water-tank-ground.lod0.bin","byteLength":218496}],"bufferViews":[{"buffer":0,"byteOffset":0,"byteLength":4032,"target":34962},{"buffer":0,"byteOffset":4032,"byteLength":4032,"target":34962},{"buffer":0,"byteOffset":8064,"byteLength":2688,"target":34962},{"buffer":0,"byteOffset":10752,"byteLength":25920,"target":34962},{"buffer":0,"byteOffset":36672,"byteLength":25920,"target":34962},{"buffer":0,"byteOffset":62592,"byteLength":17280,"target":34962},{"buffer":0,"byteOffset":79872,"byteLength":51984,"target":34962},{"buffer":0,"byteOffset":131856,"byteLength":51984,"target":34962},{"buffer":0,"byteOffset":183840,"byteLength":34656,"target":34962}],"accessors":[{"bufferView":0,"componentType":5126,"count":336,"type":"VEC3","min":[-2.450000047683716,4.7683716530855236e-8,-2.450000047683716],"max":[2.450000047683716,4.599999904632568,2.450000047683716]},{"bufferView":1,"componentType":5126,"count":336,"type":"VEC3"},{"bufferView":2,"componentType":5126,"count":336,"type":"VEC2"},{"bufferView":3,"componentType":5126,"count":2160,"type":"VEC3","min":[-2.4800000190734863,3.9000000953674316,-2.4800000190734863],"max":[2.4800000190734863,5.199999809265137,2.4800000190734863]},{"bufferView":4,"componentType":5126,"count":2160,"type":"VEC3"},{"bufferView":5,"componentType":5126,"count":2160,"type":"VEC2"},{"bufferView":6,"componentType":5126,"count":4332,"type":"VEC3","min":[-0.26629582047462463,0.15000005066394806,-0.2800000011920929],"max":[0.26629582047462463,5.425000190734863,2.549999952316284]},{"bufferView":7,"componentType":5126,"count":4332,"type":"VEC3"},{"bufferView":8,"componentType":5126,"count":4332,"type":"VEC2"}],"extras":{"library":"Civic Foundry","units":"metres","up":"+Y","front":"+Z","lod":0}}