{"asset":{"version":"2.0","generator":"SLOPMERICA Civic Foundry 1.0"},"scene":0,"scenes":[{"nodes":[0]}],"nodes":[{"name":"service-industrial-stack","mesh":0}],"meshes":[{"name":"service-industrial-stack","primitives":[{"attributes":{"POSITION":0,"NORMAL":1,"TEXCOORD_0":2},"material":0,"mode":4},{"attributes":{"POSITION":3,"NORMAL":4,"TEXCOORD_0":5},"material":1,"mode":4},{"attributes":{"POSITION":6,"NORMAL":7,"TEXCOORD_0":8},"material":2,"mode":4},{"attributes":{"POSITION":9,"NORMAL":10,"TEXCOORD_0":11},"material":3,"mode":4}]}],"materials":[{"name":"concrete","pbrMetallicRoughness":{"baseColorFactor":[1,1,1,1],"baseColorTexture":{"index":0},"metallicRoughnessTexture":{"index":2},"roughnessFactor":1,"metallicFactor":1},"normalTexture":{"index":1,"scale":0.82},"occlusionTexture":{"index":2,"texCoord":0,"strength":0.45},"doubleSided":false,"extras":{"surface":"Cool concrete with embedded mineral aggregate.","tileMeters":1.8}},{"name":"brick-red","pbrMetallicRoughness":{"baseColorFactor":[1,1,1,1],"baseColorTexture":{"index":3},"metallicRoughnessTexture":{"index":5},"roughnessFactor":1,"metallicFactor":1},"normalTexture":{"index":4,"scale":1.15},"occlusionTexture":{"index":5,"texCoord":0,"strength":0.45},"doubleSided":false,"extras":{"surface":"Warm staggered clay brick with recessed mortar.","tileMeters":[1.1,0.6]}},{"name":"metal-dark","pbrMetallicRoughness":{"baseColorFactor":[1,1,1,1],"baseColorTexture":{"index":6},"metallicRoughnessTexture":{"index":8},"roughnessFactor":1,"metallicFactor":1},"normalTexture":{"index":7,"scale":0.35},"occlusionTexture":{"index":8,"texCoord":0,"strength":0.45},"doubleSided":false,"extras":{"surface":"Charcoal brushed architectural metal.","tileMeters":1.2}},{"name":"metal-galvanized","pbrMetallicRoughness":{"baseColorFactor":[1,1,1,1],"baseColorTexture":{"index":9},"metallicRoughnessTexture":{"index":11},"roughnessFactor":1,"metallicFactor":1},"normalTexture":{"index":10,"scale":0.15},"occlusionTexture":{"index":11,"texCoord":0,"strength":0.45},"doubleSided":false,"extras":{"surface":"Silvery galvanized steel with fine zinc spangle.","tileMeters":0.15}}],"textures":[{"sampler":0,"source":0},{"sampler":0,"source":1},{"sampler":0,"source":2},{"sampler":0,"source":3},{"sampler":0,"source":4},{"sampler":0,"source":5},{"sampler":0,"source":6},{"sampler":0,"source":7},{"sampler":0,"source":8},{"sampler":0,"source":9},{"sampler":0,"source":10},{"sampler":0,"source":11}],"images":[{"uri":"../textures/concrete-albedo.png"},{"uri":"../textures/concrete-normal.png"},{"uri":"../textures/concrete-orm.png"},{"uri":"../textures/brick-red-albedo.png"},{"uri":"../textures/brick-red-normal.png"},{"uri":"../textures/brick-red-orm.png"},{"uri":"../textures/metal-dark-albedo.png"},{"uri":"../textures/metal-dark-normal.png"},{"uri":"../textures/metal-dark-orm.png"},{"uri":"../textures/metal-galvanized-albedo.png"},{"uri":"../textures/metal-galvanized-normal.png"},{"uri":"../textures/metal-galvanized-orm.png"}],"samplers":[{"magFilter":9729,"minFilter":9987,"wrapS":10497,"wrapT":10497}],"buffers":[{"uri":"service-industrial-stack.lod0.bin","byteLength":306816}],"bufferViews":[{"buffer":0,"byteOffset":0,"byteLength":3888,"target":34962},{"buffer":0,"byteOffset":3888,"byteLength":3888,"target":34962},{"buffer":0,"byteOffset":7776,"byteLength":2592,"target":34962},{"buffer":0,"byteOffset":10368,"byteLength":2880,"target":34962},{"buffer":0,"byteOffset":13248,"byteLength":2880,"target":34962},{"buffer":0,"byteOffset":16128,"byteLength":1920,"target":34962},{"buffer":0,"byteOffset":18048,"byteLength":49968,"target":34962},{"buffer":0,"byteOffset":68016,"byteLength":49968,"target":34962},{"buffer":0,"byteOffset":117984,"byteLength":33312,"target":34962},{"buffer":0,"byteOffset":151296,"byteLength":58320,"target":34962},{"buffer":0,"byteOffset":209616,"byteLength":58320,"target":34962},{"buffer":0,"byteOffset":267936,"byteLength":38880,"target":34962}],"accessors":[{"bufferView":0,"componentType":5126,"count":324,"type":"VEC3","min":[-1.0499999523162842,2.38418573772492e-9,-1.0499999523162842],"max":[1.0499999523162842,0.3799999952316284,1.0499999523162842]},{"bufferView":1,"componentType":5126,"count":324,"type":"VEC3"},{"bufferView":2,"componentType":5126,"count":324,"type":"VEC2"},{"bufferView":3,"componentType":5126,"count":240,"type":"VEC3","min":[-0.9200000166893005,0.3499999940395355,-0.9200000166893005],"max":[0.9200000166893005,9.850000381469727,0.9200000166893005]},{"bufferView":4,"componentType":5126,"count":240,"type":"VEC3"},{"bufferView":5,"componentType":5126,"count":240,"type":"VEC2"},{"bufferView":6,"componentType":5126,"count":4164,"type":"VEC3","min":[-1.0099999904632568,0.4699999988079071,-1.0099999904632568],"max":[1.0099999904632568,9.920000076293945,1.0099999904632568]},{"bufferView":7,"componentType":5126,"count":4164,"type":"VEC3"},{"bufferView":8,"componentType":5126,"count":4164,"type":"VEC2"},{"bufferView":9,"componentType":5126,"count":4860,"type":"VEC3","min":[-0.2750000059604645,1.1825000047683716,0.7699999809265137],"max":[0.2750000059604645,8.917499542236328,0.8299999833106995]},{"bufferView":10,"componentType":5126,"count":4860,"type":"VEC3"},{"bufferView":11,"componentType":5126,"count":4860,"type":"VEC2"}],"extras":{"library":"Civic Foundry","units":"metres","up":"+Y","front":"+Z","lod":0}}