{"asset":{"version":"2.0","generator":"SLOPMERICA Civic Foundry 1.0"},"scene":0,"scenes":[{"nodes":[0]}],"nodes":[{"name":"shrub-native-cluster","mesh":0}],"meshes":[{"name":"shrub-native-cluster","primitives":[{"attributes":{"POSITION":0,"NORMAL":1,"TEXCOORD_0":2},"material":0,"mode":4}]}],"materials":[{"name":"foliage","pbrMetallicRoughness":{"baseColorFactor":[1,1,1,1],"baseColorTexture":{"index":0},"metallicRoughnessTexture":{"index":2},"roughnessFactor":1,"metallicFactor":1},"normalTexture":{"index":1,"scale":0.88},"occlusionTexture":{"index":2,"texCoord":0,"strength":0.45},"doubleSided":false,"extras":{"surface":"Layered repeating broadleaf canopy pattern.","tileMeters":1.3}}],"textures":[{"sampler":0,"source":0},{"sampler":0,"source":1},{"sampler":0,"source":2}],"images":[{"uri":"../textures/foliage-albedo.png"},{"uri":"../textures/foliage-normal.png"},{"uri":"../textures/foliage-orm.png"}],"samplers":[{"magFilter":9729,"minFilter":9987,"wrapS":10497,"wrapT":10497}],"buffers":[{"uri":"shrub-native-cluster.lod2.bin","byteLength":38400}],"bufferViews":[{"buffer":0,"byteOffset":0,"byteLength":14400,"target":34962},{"buffer":0,"byteOffset":14400,"byteLength":14400,"target":34962},{"buffer":0,"byteOffset":28800,"byteLength":9600,"target":34962}],"accessors":[{"bufferView":0,"componentType":5126,"count":1200,"type":"VEC3","min":[-1.6824367046356201,-2.8610228852699038e-8,-1.3783464431762695],"max":[1.644507884979248,1.7000000476837158,1.3384069204330444]},{"bufferView":1,"componentType":5126,"count":1200,"type":"VEC3"},{"bufferView":2,"componentType":5126,"count":1200,"type":"VEC2"}],"extras":{"library":"Civic Foundry","units":"metres","up":"+Y","front":"+Z","lod":2}}