{"asset":{"version":"2.0","generator":"SLOPMERICA Civic Foundry 1.0"},"scene":0,"scenes":[{"nodes":[0]}],"nodes":[{"name":"shrub-boxwood-hedge","mesh":0}],"meshes":[{"name":"shrub-boxwood-hedge","primitives":[{"attributes":{"POSITION":0,"NORMAL":1,"TEXCOORD_0":2},"material":0,"mode":4}]}],"materials":[{"name":"foliage","pbrMetallicRoughness":{"baseColorFactor":[1,1,1,1],"baseColorTexture":{"index":0},"metallicRoughnessTexture":{"index":2},"roughnessFactor":1,"metallicFactor":1},"normalTexture":{"index":1,"scale":0.88},"occlusionTexture":{"index":2,"texCoord":0,"strength":0.45},"doubleSided":false,"extras":{"surface":"Layered repeating broadleaf canopy pattern.","tileMeters":1.3}}],"textures":[{"sampler":0,"source":0},{"sampler":0,"source":1},{"sampler":0,"source":2}],"images":[{"uri":"../textures/foliage-albedo.png"},{"uri":"../textures/foliage-normal.png"},{"uri":"../textures/foliage-orm.png"}],"samplers":[{"magFilter":9729,"minFilter":9987,"wrapS":10497,"wrapT":10497}],"buffers":[{"uri":"shrub-boxwood-hedge.lod0.bin","byteLength":483840}],"bufferViews":[{"buffer":0,"byteOffset":0,"byteLength":181440,"target":34962},{"buffer":0,"byteOffset":181440,"byteLength":181440,"target":34962},{"buffer":0,"byteOffset":362880,"byteLength":120960,"target":34962}],"accessors":[{"bufferView":0,"componentType":5126,"count":15120,"type":"VEC3","min":[-2.2699999809265137,2.3841858265427618e-8,-0.5799999833106995],"max":[2.2699999809265137,1.2999999523162842,0.5799999833106995]},{"bufferView":1,"componentType":5126,"count":15120,"type":"VEC3"},{"bufferView":2,"componentType":5126,"count":15120,"type":"VEC2"}],"extras":{"library":"Civic Foundry","units":"metres","up":"+Y","front":"+Z","lod":0}}