{"asset":{"version":"2.0","generator":"SLOPMERICA Civic Foundry 1.0"},"scene":0,"scenes":[{"nodes":[0]}],"nodes":[{"name":"shrub-native-cluster","mesh":0}],"meshes":[{"name":"shrub-native-cluster","primitives":[{"attributes":{"POSITION":0,"NORMAL":1,"TEXCOORD_0":2},"material":0,"mode":4},{"attributes":{"POSITION":3,"NORMAL":4,"TEXCOORD_0":5},"material":1,"mode":4}]}],"materials":[{"name":"foliage","pbrMetallicRoughness":{"baseColorFactor":[1,1,1,1],"baseColorTexture":{"index":0},"metallicRoughnessTexture":{"index":2},"roughnessFactor":1,"metallicFactor":1},"normalTexture":{"index":1,"scale":0.88},"occlusionTexture":{"index":2,"texCoord":0,"strength":0.45},"doubleSided":false,"extras":{"surface":"Layered repeating broadleaf canopy pattern.","tileMeters":1.3}},{"name":"bark","pbrMetallicRoughness":{"baseColorFactor":[1,1,1,1],"baseColorTexture":{"index":3},"metallicRoughnessTexture":{"index":5},"roughnessFactor":1,"metallicFactor":1},"normalTexture":{"index":4,"scale":1.35},"occlusionTexture":{"index":5,"texCoord":0,"strength":0.45},"doubleSided":false,"extras":{"surface":"Deep vertically ridged brown bark.","tileMeters":1.1}}],"textures":[{"sampler":0,"source":0},{"sampler":0,"source":1},{"sampler":0,"source":2},{"sampler":0,"source":3},{"sampler":0,"source":4},{"sampler":0,"source":5}],"images":[{"uri":"../textures/foliage-albedo.png"},{"uri":"../textures/foliage-normal.png"},{"uri":"../textures/foliage-orm.png"},{"uri":"../textures/bark-albedo.png"},{"uri":"../textures/bark-normal.png"},{"uri":"../textures/bark-orm.png"}],"samplers":[{"magFilter":9729,"minFilter":9987,"wrapS":10497,"wrapT":10497}],"buffers":[{"uri":"shrub-native-cluster.lod0.bin","byteLength":831744}],"bufferViews":[{"buffer":0,"byteOffset":0,"byteLength":308448,"target":34962},{"buffer":0,"byteOffset":308448,"byteLength":308448,"target":34962},{"buffer":0,"byteOffset":616896,"byteLength":205632,"target":34962},{"buffer":0,"byteOffset":822528,"byteLength":3456,"target":34962},{"buffer":0,"byteOffset":825984,"byteLength":3456,"target":34962},{"buffer":0,"byteOffset":829440,"byteLength":2304,"target":34962}],"accessors":[{"bufferView":0,"componentType":5126,"count":25704,"type":"VEC3","min":[-1.6839900016784668,-0.018991315737366676,-1.3971126079559326],"max":[1.644507884979248,1.7163292169570923,1.3709439039230347]},{"bufferView":1,"componentType":5126,"count":25704,"type":"VEC3"},{"bufferView":2,"componentType":5126,"count":25704,"type":"VEC2"},{"bufferView":3,"componentType":5126,"count":288,"type":"VEC3","min":[-0.9346410036087036,0.005000011995434761,-0.03999999910593033],"max":[0.8546410202980042,0.6549999713897705,0.03999999910593033]},{"bufferView":4,"componentType":5126,"count":288,"type":"VEC3"},{"bufferView":5,"componentType":5126,"count":288,"type":"VEC2"}],"extras":{"library":"Civic Foundry","units":"metres","up":"+Y","front":"+Z","lod":0}}