{"asset":{"version":"2.0","generator":"SLOPMERICA Civic Foundry 1.0"},"scene":0,"scenes":[{"nodes":[0]}],"nodes":[{"name":"storefront-hardware","mesh":0}],"meshes":[{"name":"storefront-hardware","primitives":[{"attributes":{"POSITION":0,"NORMAL":1,"TEXCOORD_0":2},"material":0,"mode":4},{"attributes":{"POSITION":3,"NORMAL":4,"TEXCOORD_0":5},"material":1,"mode":4},{"attributes":{"POSITION":6,"NORMAL":7,"TEXCOORD_0":8},"material":2,"mode":4},{"attributes":{"POSITION":9,"NORMAL":10,"TEXCOORD_0":11},"material":3,"mode":4},{"attributes":{"POSITION":12,"NORMAL":13,"TEXCOORD_0":14},"material":4,"mode":4},{"attributes":{"POSITION":15,"NORMAL":16,"TEXCOORD_0":17},"material":5,"mode":4},{"attributes":{"POSITION":18,"NORMAL":19,"TEXCOORD_0":20},"material":6,"mode":4}]}],"materials":[{"name":"brick-red","pbrMetallicRoughness":{"baseColorFactor":[1,1,1,1],"baseColorTexture":{"index":0},"metallicRoughnessTexture":{"index":2},"roughnessFactor":1,"metallicFactor":1},"normalTexture":{"index":1,"scale":1.15},"occlusionTexture":{"index":2,"texCoord":0,"strength":0.45},"doubleSided":false,"extras":{"surface":"Warm staggered clay brick with recessed mortar.","tileMeters":[1.1,0.6]}},{"name":"glass-blue","pbrMetallicRoughness":{"baseColorFactor":[1,1,1,1],"baseColorTexture":{"index":3},"metallicRoughnessTexture":{"index":5},"roughnessFactor":1,"metallicFactor":1},"normalTexture":{"index":4,"scale":0.12},"occlusionTexture":{"index":5,"texCoord":0,"strength":0.45},"doubleSided":false,"extras":{"surface":"Desaturated blue-gray architectural glass with faint waviness.","tileMeters":2.5}},{"name":"limestone","pbrMetallicRoughness":{"baseColorFactor":[1,1,1,1],"baseColorTexture":{"index":6},"metallicRoughnessTexture":{"index":8},"roughnessFactor":1,"metallicFactor":1},"normalTexture":{"index":7,"scale":0.9},"occlusionTexture":{"index":8,"texCoord":0,"strength":0.45},"doubleSided":false,"extras":{"surface":"Warm coursed limestone blocks with fine joints.","tileMeters":1.4}},{"name":"concrete","pbrMetallicRoughness":{"baseColorFactor":[1,1,1,1],"baseColorTexture":{"index":9},"metallicRoughnessTexture":{"index":11},"roughnessFactor":1,"metallicFactor":1},"normalTexture":{"index":10,"scale":0.82},"occlusionTexture":{"index":11,"texCoord":0,"strength":0.45},"doubleSided":false,"extras":{"surface":"Cool concrete with embedded mineral aggregate.","tileMeters":1.8}},{"name":"metal-dark","pbrMetallicRoughness":{"baseColorFactor":[1,1,1,1],"baseColorTexture":{"index":12},"metallicRoughnessTexture":{"index":14},"roughnessFactor":1,"metallicFactor":1},"normalTexture":{"index":13,"scale":0.35},"occlusionTexture":{"index":14,"texCoord":0,"strength":0.45},"doubleSided":false,"extras":{"surface":"Charcoal brushed architectural metal.","tileMeters":1.2}},{"name":"metal-galvanized","pbrMetallicRoughness":{"baseColorFactor":[1,1,1,1],"baseColorTexture":{"index":15},"metallicRoughnessTexture":{"index":17},"roughnessFactor":1,"metallicFactor":1},"normalTexture":{"index":16,"scale":0.15},"occlusionTexture":{"index":17,"texCoord":0,"strength":0.45},"doubleSided":false,"extras":{"surface":"Silvery galvanized steel with fine zinc spangle.","tileMeters":0.15}},{"name":"stucco-ivory","pbrMetallicRoughness":{"baseColorFactor":[1,1,1,1],"baseColorTexture":{"index":18},"metallicRoughnessTexture":{"index":20},"roughnessFactor":1,"metallicFactor":1},"normalTexture":{"index":19,"scale":0.5},"occlusionTexture":{"index":20,"texCoord":0,"strength":0.45},"doubleSided":false,"extras":{"surface":"Fine hand-troweled ivory stucco.","tileMeters":1.25}}],"textures":[{"sampler":0,"source":0},{"sampler":0,"source":1},{"sampler":0,"source":2},{"sampler":0,"source":3},{"sampler":0,"source":4},{"sampler":0,"source":5},{"sampler":0,"source":6},{"sampler":0,"source":7},{"sampler":0,"source":8},{"sampler":0,"source":9},{"sampler":0,"source":10},{"sampler":0,"source":11},{"sampler":0,"source":12},{"sampler":0,"source":13},{"sampler":0,"source":14},{"sampler":0,"source":15},{"sampler":0,"source":16},{"sampler":0,"source":17},{"sampler":0,"source":18},{"sampler":0,"source":19},{"sampler":0,"source":20}],"images":[{"uri":"../textures/brick-red-albedo.png"},{"uri":"../textures/brick-red-normal.png"},{"uri":"../textures/brick-red-orm.png"},{"uri":"../textures/glass-blue-albedo.png"},{"uri":"../textures/glass-blue-normal.png"},{"uri":"../textures/glass-blue-orm.png"},{"uri":"../textures/limestone-albedo.png"},{"uri":"../textures/limestone-normal.png"},{"uri":"../textures/limestone-orm.png"},{"uri":"../textures/concrete-albedo.png"},{"uri":"../textures/concrete-normal.png"},{"uri":"../textures/concrete-orm.png"},{"uri":"../textures/metal-dark-albedo.png"},{"uri":"../textures/metal-dark-normal.png"},{"uri":"../textures/metal-dark-orm.png"},{"uri":"../textures/metal-galvanized-albedo.png"},{"uri":"../textures/metal-galvanized-normal.png"},{"uri":"../textures/metal-galvanized-orm.png"},{"uri":"../textures/stucco-ivory-albedo.png"},{"uri":"../textures/stucco-ivory-normal.png"},{"uri":"../textures/stucco-ivory-orm.png"}],"samplers":[{"magFilter":9729,"minFilter":9987,"wrapS":10497,"wrapT":10497}],"buffers":[{"uri":"storefront-hardware.lod0.bin","byteLength":532608}],"bufferViews":[{"buffer":0,"byteOffset":0,"byteLength":19440,"target":34962},{"buffer":0,"byteOffset":19440,"byteLength":19440,"target":34962},{"buffer":0,"byteOffset":38880,"byteLength":12960,"target":34962},{"buffer":0,"byteOffset":51840,"byteLength":15552,"target":34962},{"buffer":0,"byteOffset":67392,"byteLength":15552,"target":34962},{"buffer":0,"byteOffset":82944,"byteLength":10368,"target":34962},{"buffer":0,"byteOffset":93312,"byteLength":3888,"target":34962},{"buffer":0,"byteOffset":97200,"byteLength":3888,"target":34962},{"buffer":0,"byteOffset":101088,"byteLength":2592,"target":34962},{"buffer":0,"byteOffset":103680,"byteLength":27216,"target":34962},{"buffer":0,"byteOffset":130896,"byteLength":27216,"target":34962},{"buffer":0,"byteOffset":158112,"byteLength":18144,"target":34962},{"buffer":0,"byteOffset":176256,"byteLength":51984,"target":34962},{"buffer":0,"byteOffset":228240,"byteLength":51984,"target":34962},{"buffer":0,"byteOffset":280224,"byteLength":34656,"target":34962},{"buffer":0,"byteOffset":314880,"byteLength":7776,"target":34962},{"buffer":0,"byteOffset":322656,"byteLength":7776,"target":34962},{"buffer":0,"byteOffset":330432,"byteLength":5184,"target":34962},{"buffer":0,"byteOffset":335616,"byteLength":73872,"target":34962},{"buffer":0,"byteOffset":409488,"byteLength":73872,"target":34962},{"buffer":0,"byteOffset":483360,"byteLength":49248,"target":34962}],"accessors":[{"bufferView":0,"componentType":5126,"count":1620,"type":"VEC3","min":[-3.3499999046325684,-2.3841858265427618e-8,-0.17000000178813934],"max":[3.3500001430511475,3.200000047683716,0.17000000178813934]},{"bufferView":1,"componentType":5126,"count":1620,"type":"VEC3"},{"bufferView":2,"componentType":5126,"count":1620,"type":"VEC2"},{"bufferView":3,"componentType":5126,"count":1296,"type":"VEC3","min":[-3.140000104904175,0.6200000047683716,-0.10000000149011612],"max":[3.140000104904175,2.740000009536743,0.10750000178813934]},{"bufferView":4,"componentType":5126,"count":1296,"type":"VEC3"},{"bufferView":5,"componentType":5126,"count":1296,"type":"VEC2"},{"bufferView":6,"componentType":5126,"count":324,"type":"VEC3","min":[-3.4100000858306885,2.9200000762939453,-0.04999999701976776],"max":[3.4100000858306885,3.200000047683716,0.20999999344348907]},{"bufferView":7,"componentType":5126,"count":324,"type":"VEC3"},{"bufferView":8,"componentType":5126,"count":324,"type":"VEC2"},{"bufferView":9,"componentType":5126,"count":2268,"type":"VEC3","min":[-3.3499999046325684,-2.3841858265427618e-8,-0.27000001072883606],"max":[3.3499999046325684,3.200000047683716,0.3100000023841858]},{"bufferView":10,"componentType":5126,"count":2268,"type":"VEC3"},{"bufferView":11,"componentType":5126,"count":2268,"type":"VEC2"},{"bufferView":12,"componentType":5126,"count":4332,"type":"VEC3","min":[-2.690000057220459,-0.06999996304512024,-0.33000001311302185],"max":[1.712499976158142,2.7950000762939453,0.1899999976158142]},{"bufferView":13,"componentType":5126,"count":4332,"type":"VEC3"},{"bufferView":14,"componentType":5126,"count":4332,"type":"VEC2"},{"bufferView":15,"componentType":5126,"count":648,"type":"VEC3","min":[-3.390000104904175,2.640000104904175,0.0038888612762093544],"max":[3.390000104904175,2.9799206256866455,1.0850000381469727]},{"bufferView":16,"componentType":5126,"count":648,"type":"VEC3"},{"bufferView":17,"componentType":5126,"count":648,"type":"VEC2"},{"bufferView":18,"componentType":5126,"count":6156,"type":"VEC3","min":[-3.2699999809265137,2.8136672973632812,0.04650093987584114],"max":[3.3299999237060547,2.9963326454162598,0.9534990787506104]},{"bufferView":19,"componentType":5126,"count":6156,"type":"VEC3"},{"bufferView":20,"componentType":5126,"count":6156,"type":"VEC2"}],"extras":{"library":"Civic Foundry","units":"metres","up":"+Y","front":"+Z","lod":0}}