{"asset":{"version":"2.0","generator":"SLOPMERICA Civic Foundry 1.0"},"scene":0,"scenes":[{"nodes":[0]}],"nodes":[{"name":"storefront-pharmacy","mesh":0}],"meshes":[{"name":"storefront-pharmacy","primitives":[{"attributes":{"POSITION":0,"NORMAL":1,"TEXCOORD_0":2},"material":0,"mode":4},{"attributes":{"POSITION":3,"NORMAL":4,"TEXCOORD_0":5},"material":1,"mode":4},{"attributes":{"POSITION":6,"NORMAL":7,"TEXCOORD_0":8},"material":2,"mode":4},{"attributes":{"POSITION":9,"NORMAL":10,"TEXCOORD_0":11},"material":3,"mode":4},{"attributes":{"POSITION":12,"NORMAL":13,"TEXCOORD_0":14},"material":4,"mode":4},{"attributes":{"POSITION":15,"NORMAL":16,"TEXCOORD_0":17},"material":5,"mode":4}]}],"materials":[{"name":"brick-cream","pbrMetallicRoughness":{"baseColorFactor":[1,1,1,1],"baseColorTexture":{"index":0},"metallicRoughnessTexture":{"index":2},"roughnessFactor":1,"metallicFactor":1},"normalTexture":{"index":1,"scale":1.05},"occlusionTexture":{"index":2,"texCoord":0,"strength":0.45},"doubleSided":false,"extras":{"surface":"Pale fired brick with subtle face variation.","tileMeters":[1.1,0.6]}},{"name":"limestone","pbrMetallicRoughness":{"baseColorFactor":[1,1,1,1],"baseColorTexture":{"index":3},"metallicRoughnessTexture":{"index":5},"roughnessFactor":1,"metallicFactor":1},"normalTexture":{"index":4,"scale":0.9},"occlusionTexture":{"index":5,"texCoord":0,"strength":0.45},"doubleSided":false,"extras":{"surface":"Warm coursed limestone blocks with fine joints.","tileMeters":1.4}},{"name":"glass-blue","pbrMetallicRoughness":{"baseColorFactor":[1,1,1,1],"baseColorTexture":{"index":6},"metallicRoughnessTexture":{"index":8},"roughnessFactor":1,"metallicFactor":1},"normalTexture":{"index":7,"scale":0.12},"occlusionTexture":{"index":8,"texCoord":0,"strength":0.45},"doubleSided":false,"extras":{"surface":"Desaturated blue-gray architectural glass with faint waviness.","tileMeters":2.5}},{"name":"metal-dark","pbrMetallicRoughness":{"baseColorFactor":[1,1,1,1],"baseColorTexture":{"index":9},"metallicRoughnessTexture":{"index":11},"roughnessFactor":1,"metallicFactor":1},"normalTexture":{"index":10,"scale":0.35},"occlusionTexture":{"index":11,"texCoord":0,"strength":0.45},"doubleSided":false,"extras":{"surface":"Charcoal brushed architectural metal.","tileMeters":1.2}},{"name":"concrete","pbrMetallicRoughness":{"baseColorFactor":[1,1,1,1],"baseColorTexture":{"index":12},"metallicRoughnessTexture":{"index":14},"roughnessFactor":1,"metallicFactor":1},"normalTexture":{"index":13,"scale":0.82},"occlusionTexture":{"index":14,"texCoord":0,"strength":0.45},"doubleSided":false,"extras":{"surface":"Cool concrete with embedded mineral aggregate.","tileMeters":1.8}},{"name":"wood-painted","pbrMetallicRoughness":{"baseColorFactor":[1,1,1,1],"baseColorTexture":{"index":15},"metallicRoughnessTexture":{"index":17},"roughnessFactor":1,"metallicFactor":1},"normalTexture":{"index":16,"scale":0.55},"occlusionTexture":{"index":17,"texCoord":0,"strength":0.45},"doubleSided":false,"extras":{"surface":"Painted timber boards with restrained worn grain.","tileMeters":1.6}}],"textures":[{"sampler":0,"source":0},{"sampler":0,"source":1},{"sampler":0,"source":2},{"sampler":0,"source":3},{"sampler":0,"source":4},{"sampler":0,"source":5},{"sampler":0,"source":6},{"sampler":0,"source":7},{"sampler":0,"source":8},{"sampler":0,"source":9},{"sampler":0,"source":10},{"sampler":0,"source":11},{"sampler":0,"source":12},{"sampler":0,"source":13},{"sampler":0,"source":14},{"sampler":0,"source":15},{"sampler":0,"source":16},{"sampler":0,"source":17}],"images":[{"uri":"../textures/brick-cream-albedo.png"},{"uri":"../textures/brick-cream-normal.png"},{"uri":"../textures/brick-cream-orm.png"},{"uri":"../textures/limestone-albedo.png"},{"uri":"../textures/limestone-normal.png"},{"uri":"../textures/limestone-orm.png"},{"uri":"../textures/glass-blue-albedo.png"},{"uri":"../textures/glass-blue-normal.png"},{"uri":"../textures/glass-blue-orm.png"},{"uri":"../textures/metal-dark-albedo.png"},{"uri":"../textures/metal-dark-normal.png"},{"uri":"../textures/metal-dark-orm.png"},{"uri":"../textures/concrete-albedo.png"},{"uri":"../textures/concrete-normal.png"},{"uri":"../textures/concrete-orm.png"},{"uri":"../textures/wood-painted-albedo.png"},{"uri":"../textures/wood-painted-normal.png"},{"uri":"../textures/wood-painted-orm.png"}],"samplers":[{"magFilter":9729,"minFilter":9987,"wrapS":10497,"wrapT":10497}],"buffers":[{"uri":"storefront-pharmacy.lod1.bin","byteLength":42624}],"bufferViews":[{"buffer":0,"byteOffset":0,"byteLength":1296,"target":34962},{"buffer":0,"byteOffset":1296,"byteLength":1296,"target":34962},{"buffer":0,"byteOffset":2592,"byteLength":864,"target":34962},{"buffer":0,"byteOffset":3456,"byteLength":4752,"target":34962},{"buffer":0,"byteOffset":8208,"byteLength":4752,"target":34962},{"buffer":0,"byteOffset":12960,"byteLength":3168,"target":34962},{"buffer":0,"byteOffset":16128,"byteLength":2160,"target":34962},{"buffer":0,"byteOffset":18288,"byteLength":2160,"target":34962},{"buffer":0,"byteOffset":20448,"byteLength":1440,"target":34962},{"buffer":0,"byteOffset":21888,"byteLength":6048,"target":34962},{"buffer":0,"byteOffset":27936,"byteLength":6048,"target":34962},{"buffer":0,"byteOffset":33984,"byteLength":4032,"target":34962},{"buffer":0,"byteOffset":38016,"byteLength":864,"target":34962},{"buffer":0,"byteOffset":38880,"byteLength":864,"target":34962},{"buffer":0,"byteOffset":39744,"byteLength":576,"target":34962},{"buffer":0,"byteOffset":40320,"byteLength":864,"target":34962},{"buffer":0,"byteOffset":41184,"byteLength":864,"target":34962},{"buffer":0,"byteOffset":42048,"byteLength":576,"target":34962}],"accessors":[{"bufferView":0,"componentType":5126,"count":108,"type":"VEC3","min":[-3.0500001907348633,4.7683716530855236e-8,-0.17000000178813934],"max":[3.049999952316284,3.3499999046325684,0.01000000350177288]},{"bufferView":1,"componentType":5126,"count":108,"type":"VEC3"},{"bufferView":2,"componentType":5126,"count":108,"type":"VEC2"},{"bufferView":3,"componentType":5126,"count":396,"type":"VEC3","min":[-3.109999895095825,-2.38418573772492e-9,-1.5800000429153442],"max":[3.190000057220459,3.3499999046325684,0.20999999344348907]},{"bufferView":4,"componentType":5126,"count":396,"type":"VEC3"},{"bufferView":5,"componentType":5126,"count":396,"type":"VEC2"},{"bufferView":6,"componentType":5126,"count":180,"type":"VEC3","min":[-2.8400001525878906,0.40000003576278687,-1.4700000286102295],"max":[3.117500066757202,2.950000047683716,0.10750000178813934]},{"bufferView":7,"componentType":5126,"count":180,"type":"VEC3"},{"bufferView":8,"componentType":5126,"count":180,"type":"VEC2"},{"bufferView":9,"componentType":5126,"count":504,"type":"VEC3","min":[-2.196000099182129,-0.06999996304512024,-0.33000001311302185],"max":[2.3899998664855957,3.859999895095825,0.1899999976158142]},{"bufferView":10,"componentType":5126,"count":504,"type":"VEC3"},{"bufferView":11,"componentType":5126,"count":504,"type":"VEC2"},{"bufferView":12,"componentType":5126,"count":72,"type":"VEC3","min":[1.1699999570846558,-1.490116086078075e-10,-0.27000001072883606],"max":[2.430000066757202,0.07999999821186066,0.3100000023841858]},{"bufferView":13,"componentType":5126,"count":72,"type":"VEC3"},{"bufferView":14,"componentType":5126,"count":72,"type":"VEC2"},{"bufferView":15,"componentType":5126,"count":72,"type":"VEC3","min":[-3.0899999141693115,2.7899999618530273,-0.0022400745656341314],"max":[3.0899999141693115,3.1087236404418945,0.8050000071525574]},{"bufferView":16,"componentType":5126,"count":72,"type":"VEC3"},{"bufferView":17,"componentType":5126,"count":72,"type":"VEC2"}],"extras":{"library":"Civic Foundry","units":"metres","up":"+Y","front":"+Z","lod":1}}