{"asset":{"version":"2.0","generator":"SLOPMERICA Civic Foundry 1.0"},"scene":0,"scenes":[{"nodes":[0]}],"nodes":[{"name":"storefront-department","mesh":0}],"meshes":[{"name":"storefront-department","primitives":[{"attributes":{"POSITION":0,"NORMAL":1,"TEXCOORD_0":2},"material":0,"mode":4},{"attributes":{"POSITION":3,"NORMAL":4,"TEXCOORD_0":5},"material":1,"mode":4},{"attributes":{"POSITION":6,"NORMAL":7,"TEXCOORD_0":8},"material":2,"mode":4},{"attributes":{"POSITION":9,"NORMAL":10,"TEXCOORD_0":11},"material":3,"mode":4},{"attributes":{"POSITION":12,"NORMAL":13,"TEXCOORD_0":14},"material":4,"mode":4}]}],"materials":[{"name":"brick-red","pbrMetallicRoughness":{"baseColorFactor":[1,1,1,1],"baseColorTexture":{"index":0},"metallicRoughnessTexture":{"index":2},"roughnessFactor":1,"metallicFactor":1},"normalTexture":{"index":1,"scale":1.15},"occlusionTexture":{"index":2,"texCoord":0,"strength":0.45},"doubleSided":false,"extras":{"surface":"Warm staggered clay brick with recessed mortar.","tileMeters":[1.1,0.6]}},{"name":"limestone","pbrMetallicRoughness":{"baseColorFactor":[1,1,1,1],"baseColorTexture":{"index":3},"metallicRoughnessTexture":{"index":5},"roughnessFactor":1,"metallicFactor":1},"normalTexture":{"index":4,"scale":0.9},"occlusionTexture":{"index":5,"texCoord":0,"strength":0.45},"doubleSided":false,"extras":{"surface":"Warm coursed limestone blocks with fine joints.","tileMeters":1.4}},{"name":"glass-blue","pbrMetallicRoughness":{"baseColorFactor":[1,1,1,1],"baseColorTexture":{"index":6},"metallicRoughnessTexture":{"index":8},"roughnessFactor":1,"metallicFactor":1},"normalTexture":{"index":7,"scale":0.12},"occlusionTexture":{"index":8,"texCoord":0,"strength":0.45},"doubleSided":false,"extras":{"surface":"Desaturated blue-gray architectural glass with faint waviness.","tileMeters":2.5}},{"name":"metal-dark","pbrMetallicRoughness":{"baseColorFactor":[1,1,1,1],"baseColorTexture":{"index":9},"metallicRoughnessTexture":{"index":11},"roughnessFactor":1,"metallicFactor":1},"normalTexture":{"index":10,"scale":0.35},"occlusionTexture":{"index":11,"texCoord":0,"strength":0.45},"doubleSided":false,"extras":{"surface":"Charcoal brushed architectural metal.","tileMeters":1.2}},{"name":"concrete","pbrMetallicRoughness":{"baseColorFactor":[1,1,1,1],"baseColorTexture":{"index":12},"metallicRoughnessTexture":{"index":14},"roughnessFactor":1,"metallicFactor":1},"normalTexture":{"index":13,"scale":0.82},"occlusionTexture":{"index":14,"texCoord":0,"strength":0.45},"doubleSided":false,"extras":{"surface":"Cool concrete with embedded mineral aggregate.","tileMeters":1.8}}],"textures":[{"sampler":0,"source":0},{"sampler":0,"source":1},{"sampler":0,"source":2},{"sampler":0,"source":3},{"sampler":0,"source":4},{"sampler":0,"source":5},{"sampler":0,"source":6},{"sampler":0,"source":7},{"sampler":0,"source":8},{"sampler":0,"source":9},{"sampler":0,"source":10},{"sampler":0,"source":11},{"sampler":0,"source":12},{"sampler":0,"source":13},{"sampler":0,"source":14}],"images":[{"uri":"../textures/brick-red-albedo.png"},{"uri":"../textures/brick-red-normal.png"},{"uri":"../textures/brick-red-orm.png"},{"uri":"../textures/limestone-albedo.png"},{"uri":"../textures/limestone-normal.png"},{"uri":"../textures/limestone-orm.png"},{"uri":"../textures/glass-blue-albedo.png"},{"uri":"../textures/glass-blue-normal.png"},{"uri":"../textures/glass-blue-orm.png"},{"uri":"../textures/metal-dark-albedo.png"},{"uri":"../textures/metal-dark-normal.png"},{"uri":"../textures/metal-dark-orm.png"},{"uri":"../textures/concrete-albedo.png"},{"uri":"../textures/concrete-normal.png"},{"uri":"../textures/concrete-orm.png"}],"samplers":[{"magFilter":9729,"minFilter":9987,"wrapS":10497,"wrapT":10497}],"buffers":[{"uri":"storefront-department.lod2.bin","byteLength":18432}],"bufferViews":[{"buffer":0,"byteOffset":0,"byteLength":1296,"target":34962},{"buffer":0,"byteOffset":1296,"byteLength":1296,"target":34962},{"buffer":0,"byteOffset":2592,"byteLength":864,"target":34962},{"buffer":0,"byteOffset":3456,"byteLength":2160,"target":34962},{"buffer":0,"byteOffset":5616,"byteLength":2160,"target":34962},{"buffer":0,"byteOffset":7776,"byteLength":1440,"target":34962},{"buffer":0,"byteOffset":9216,"byteLength":1728,"target":34962},{"buffer":0,"byteOffset":10944,"byteLength":1728,"target":34962},{"buffer":0,"byteOffset":12672,"byteLength":1152,"target":34962},{"buffer":0,"byteOffset":13824,"byteLength":1296,"target":34962},{"buffer":0,"byteOffset":15120,"byteLength":1296,"target":34962},{"buffer":0,"byteOffset":16416,"byteLength":864,"target":34962},{"buffer":0,"byteOffset":17280,"byteLength":432,"target":34962},{"buffer":0,"byteOffset":17712,"byteLength":432,"target":34962},{"buffer":0,"byteOffset":18144,"byteLength":288,"target":34962}],"accessors":[{"bufferView":0,"componentType":5126,"count":108,"type":"VEC3","min":[-4.099999904632568,-2.3841858265427618e-8,-0.17000000178813934],"max":[4.099999904632568,3.700000047683716,0.01000000350177288]},{"bufferView":1,"componentType":5126,"count":108,"type":"VEC3"},{"bufferView":2,"componentType":5126,"count":108,"type":"VEC2"},{"bufferView":3,"componentType":5126,"count":180,"type":"VEC3","min":[-3.8899998664855957,-2.38418573772492e-9,-0.22999998927116394],"max":[3.890000104904175,2.359999895095825,0.1899999976158142]},{"bufferView":4,"componentType":5126,"count":180,"type":"VEC3"},{"bufferView":5,"componentType":5126,"count":180,"type":"VEC2"},{"bufferView":6,"componentType":5126,"count":144,"type":"VEC3","min":[-3.8899998664855957,0.6200000047683716,-0.10000000149011612],"max":[3.890000104904175,3.240000009536743,0.10750000178813934]},{"bufferView":7,"componentType":5126,"count":144,"type":"VEC3"},{"bufferView":8,"componentType":5126,"count":144,"type":"VEC2"},{"bufferView":9,"componentType":5126,"count":108,"type":"VEC3","min":[2.059999942779541,-0.06999996304512024,-0.33000001311302185],"max":[3.240000009536743,2.359999895095825,-0.10000000149011612]},{"bufferView":10,"componentType":5126,"count":108,"type":"VEC3"},{"bufferView":11,"componentType":5126,"count":108,"type":"VEC2"},{"bufferView":12,"componentType":5126,"count":36,"type":"VEC3","min":[2.0199999809265137,8.940696516468449e-10,-0.26999998092651367],"max":[3.2799999713897705,0.07999999821186066,0.3100000023841858]},{"bufferView":13,"componentType":5126,"count":36,"type":"VEC3"},{"bufferView":14,"componentType":5126,"count":36,"type":"VEC2"}],"extras":{"library":"Civic Foundry","units":"metres","up":"+Y","front":"+Z","lod":2}}