{"asset":{"version":"2.0","generator":"SLOPMERICA Civic Foundry 1.0"},"scene":0,"scenes":[{"nodes":[0]}],"nodes":[{"name":"storefront-art-deco","mesh":0}],"meshes":[{"name":"storefront-art-deco","primitives":[{"attributes":{"POSITION":0,"NORMAL":1,"TEXCOORD_0":2},"material":0,"mode":4},{"attributes":{"POSITION":3,"NORMAL":4,"TEXCOORD_0":5},"material":1,"mode":4},{"attributes":{"POSITION":6,"NORMAL":7,"TEXCOORD_0":8},"material":2,"mode":4},{"attributes":{"POSITION":9,"NORMAL":10,"TEXCOORD_0":11},"material":3,"mode":4},{"attributes":{"POSITION":12,"NORMAL":13,"TEXCOORD_0":14},"material":4,"mode":4}]}],"materials":[{"name":"stucco-ivory","pbrMetallicRoughness":{"baseColorFactor":[1,1,1,1],"baseColorTexture":{"index":0},"metallicRoughnessTexture":{"index":2},"roughnessFactor":1,"metallicFactor":1},"normalTexture":{"index":1,"scale":0.5},"occlusionTexture":{"index":2,"texCoord":0,"strength":0.45},"doubleSided":false,"extras":{"surface":"Fine hand-troweled ivory stucco.","tileMeters":1.25}},{"name":"metal-dark","pbrMetallicRoughness":{"baseColorFactor":[1,1,1,1],"baseColorTexture":{"index":3},"metallicRoughnessTexture":{"index":5},"roughnessFactor":1,"metallicFactor":1},"normalTexture":{"index":4,"scale":0.35},"occlusionTexture":{"index":5,"texCoord":0,"strength":0.45},"doubleSided":false,"extras":{"surface":"Charcoal brushed architectural metal.","tileMeters":1.2}},{"name":"glass-blue","pbrMetallicRoughness":{"baseColorFactor":[1,1,1,1],"baseColorTexture":{"index":6},"metallicRoughnessTexture":{"index":8},"roughnessFactor":1,"metallicFactor":1},"normalTexture":{"index":7,"scale":0.12},"occlusionTexture":{"index":8,"texCoord":0,"strength":0.45},"doubleSided":false,"extras":{"surface":"Desaturated blue-gray architectural glass with faint waviness.","tileMeters":2.5}},{"name":"brick-cream","pbrMetallicRoughness":{"baseColorFactor":[1,1,1,1],"baseColorTexture":{"index":9},"metallicRoughnessTexture":{"index":11},"roughnessFactor":1,"metallicFactor":1},"normalTexture":{"index":10,"scale":1.05},"occlusionTexture":{"index":11,"texCoord":0,"strength":0.45},"doubleSided":false,"extras":{"surface":"Pale fired brick with subtle face variation.","tileMeters":[1.1,0.6]}},{"name":"concrete","pbrMetallicRoughness":{"baseColorFactor":[1,1,1,1],"baseColorTexture":{"index":12},"metallicRoughnessTexture":{"index":14},"roughnessFactor":1,"metallicFactor":1},"normalTexture":{"index":13,"scale":0.82},"occlusionTexture":{"index":14,"texCoord":0,"strength":0.45},"doubleSided":false,"extras":{"surface":"Cool concrete with embedded mineral aggregate.","tileMeters":1.8}}],"textures":[{"sampler":0,"source":0},{"sampler":0,"source":1},{"sampler":0,"source":2},{"sampler":0,"source":3},{"sampler":0,"source":4},{"sampler":0,"source":5},{"sampler":0,"source":6},{"sampler":0,"source":7},{"sampler":0,"source":8},{"sampler":0,"source":9},{"sampler":0,"source":10},{"sampler":0,"source":11},{"sampler":0,"source":12},{"sampler":0,"source":13},{"sampler":0,"source":14}],"images":[{"uri":"../textures/stucco-ivory-albedo.png"},{"uri":"../textures/stucco-ivory-normal.png"},{"uri":"../textures/stucco-ivory-orm.png"},{"uri":"../textures/metal-dark-albedo.png"},{"uri":"../textures/metal-dark-normal.png"},{"uri":"../textures/metal-dark-orm.png"},{"uri":"../textures/glass-blue-albedo.png"},{"uri":"../textures/glass-blue-normal.png"},{"uri":"../textures/glass-blue-orm.png"},{"uri":"../textures/brick-cream-albedo.png"},{"uri":"../textures/brick-cream-normal.png"},{"uri":"../textures/brick-cream-orm.png"},{"uri":"../textures/concrete-albedo.png"},{"uri":"../textures/concrete-normal.png"},{"uri":"../textures/concrete-orm.png"}],"samplers":[{"magFilter":9729,"minFilter":9987,"wrapS":10497,"wrapT":10497}],"buffers":[{"uri":"storefront-art-deco.lod0.bin","byteLength":380544}],"bufferViews":[{"buffer":0,"byteOffset":0,"byteLength":11664,"target":34962},{"buffer":0,"byteOffset":11664,"byteLength":11664,"target":34962},{"buffer":0,"byteOffset":23328,"byteLength":7776,"target":34962},{"buffer":0,"byteOffset":31104,"byteLength":99936,"target":34962},{"buffer":0,"byteOffset":131040,"byteLength":99936,"target":34962},{"buffer":0,"byteOffset":230976,"byteLength":66624,"target":34962},{"buffer":0,"byteOffset":297600,"byteLength":15552,"target":34962},{"buffer":0,"byteOffset":313152,"byteLength":15552,"target":34962},{"buffer":0,"byteOffset":328704,"byteLength":10368,"target":34962},{"buffer":0,"byteOffset":339072,"byteLength":7776,"target":34962},{"buffer":0,"byteOffset":346848,"byteLength":7776,"target":34962},{"buffer":0,"byteOffset":354624,"byteLength":5184,"target":34962},{"buffer":0,"byteOffset":359808,"byteLength":7776,"target":34962},{"buffer":0,"byteOffset":367584,"byteLength":7776,"target":34962},{"buffer":0,"byteOffset":375360,"byteLength":5184,"target":34962}],"accessors":[{"bufferView":0,"componentType":5126,"count":972,"type":"VEC3","min":[-2.8499999046325684,-2.3841858265427618e-8,-0.17000000178813934],"max":[2.8499999046325684,3.450000047683716,0.01000000350177288]},{"bufferView":1,"componentType":5126,"count":972,"type":"VEC3"},{"bufferView":2,"componentType":5126,"count":972,"type":"VEC2"},{"bufferView":3,"componentType":5126,"count":8328,"type":"VEC3","min":[-2.8499999046325684,-0.06999996304512024,-0.33000001311302185],"max":[2.8499999046325684,3.685197591781616,0.20999999344348907]},{"bufferView":4,"componentType":5126,"count":8328,"type":"VEC3"},{"bufferView":5,"componentType":5126,"count":8328,"type":"VEC2"},{"bufferView":6,"componentType":5126,"count":1296,"type":"VEC3","min":[-2.6399998664855957,0.6200000047683716,-0.10000000149011612],"max":[2.6399998664855957,2.990000009536743,0.10750000178813934]},{"bufferView":7,"componentType":5126,"count":1296,"type":"VEC3"},{"bufferView":8,"componentType":5126,"count":1296,"type":"VEC2"},{"bufferView":9,"componentType":5126,"count":648,"type":"VEC3","min":[-2.9100000858306885,3.1700000762939453,-0.04999999701976776],"max":[2.9100000858306885,3.9600000381469727,0.20999999344348907]},{"bufferView":10,"componentType":5126,"count":648,"type":"VEC3"},{"bufferView":11,"componentType":5126,"count":648,"type":"VEC2"},{"bufferView":12,"componentType":5126,"count":648,"type":"VEC3","min":[-0.6299999952316284,-1.490116086078075e-10,-0.27000001072883606],"max":[0.6299999952316284,0.07999999821186066,0.3100000023841858]},{"bufferView":13,"componentType":5126,"count":648,"type":"VEC3"},{"bufferView":14,"componentType":5126,"count":648,"type":"VEC2"}],"extras":{"library":"Civic Foundry","units":"metres","up":"+Y","front":"+Z","lod":0}}