{"asset":{"version":"2.0","generator":"SLOPMERICA Civic Foundry 1.0"},"scene":0,"scenes":[{"nodes":[0]}],"nodes":[{"name":"storefront-cafe","mesh":0}],"meshes":[{"name":"storefront-cafe","primitives":[{"attributes":{"POSITION":0,"NORMAL":1,"TEXCOORD_0":2},"material":0,"mode":4},{"attributes":{"POSITION":3,"NORMAL":4,"TEXCOORD_0":5},"material":1,"mode":4},{"attributes":{"POSITION":6,"NORMAL":7,"TEXCOORD_0":8},"material":2,"mode":4},{"attributes":{"POSITION":9,"NORMAL":10,"TEXCOORD_0":11},"material":3,"mode":4},{"attributes":{"POSITION":12,"NORMAL":13,"TEXCOORD_0":14},"material":4,"mode":4},{"attributes":{"POSITION":15,"NORMAL":16,"TEXCOORD_0":17},"material":5,"mode":4},{"attributes":{"POSITION":18,"NORMAL":19,"TEXCOORD_0":20},"material":6,"mode":4}]}],"materials":[{"name":"stucco-ivory","pbrMetallicRoughness":{"baseColorFactor":[1,1,1,1],"baseColorTexture":{"index":0},"metallicRoughnessTexture":{"index":2},"roughnessFactor":1,"metallicFactor":1},"normalTexture":{"index":1,"scale":0.5},"occlusionTexture":{"index":2,"texCoord":0,"strength":0.45},"doubleSided":false,"extras":{"surface":"Fine hand-troweled ivory stucco.","tileMeters":1.25}},{"name":"wood-oak","pbrMetallicRoughness":{"baseColorFactor":[1,1,1,1],"baseColorTexture":{"index":3},"metallicRoughnessTexture":{"index":5},"roughnessFactor":1,"metallicFactor":1},"normalTexture":{"index":4,"scale":1},"occlusionTexture":{"index":5,"texCoord":0,"strength":0.45},"doubleSided":false,"extras":{"surface":"Weathered oak boards with flowing grain and knots.","tileMeters":1.6}},{"name":"glass-blue","pbrMetallicRoughness":{"baseColorFactor":[1,1,1,1],"baseColorTexture":{"index":6},"metallicRoughnessTexture":{"index":8},"roughnessFactor":1,"metallicFactor":1},"normalTexture":{"index":7,"scale":0.12},"occlusionTexture":{"index":8,"texCoord":0,"strength":0.45},"doubleSided":false,"extras":{"surface":"Desaturated blue-gray architectural glass with faint waviness.","tileMeters":2.5}},{"name":"limestone","pbrMetallicRoughness":{"baseColorFactor":[1,1,1,1],"baseColorTexture":{"index":9},"metallicRoughnessTexture":{"index":11},"roughnessFactor":1,"metallicFactor":1},"normalTexture":{"index":10,"scale":0.9},"occlusionTexture":{"index":11,"texCoord":0,"strength":0.45},"doubleSided":false,"extras":{"surface":"Warm coursed limestone blocks with fine joints.","tileMeters":1.4}},{"name":"metal-dark","pbrMetallicRoughness":{"baseColorFactor":[1,1,1,1],"baseColorTexture":{"index":12},"metallicRoughnessTexture":{"index":14},"roughnessFactor":1,"metallicFactor":1},"normalTexture":{"index":13,"scale":0.35},"occlusionTexture":{"index":14,"texCoord":0,"strength":0.45},"doubleSided":false,"extras":{"surface":"Charcoal brushed architectural metal.","tileMeters":1.2}},{"name":"concrete","pbrMetallicRoughness":{"baseColorFactor":[1,1,1,1],"baseColorTexture":{"index":15},"metallicRoughnessTexture":{"index":17},"roughnessFactor":1,"metallicFactor":1},"normalTexture":{"index":16,"scale":0.82},"occlusionTexture":{"index":17,"texCoord":0,"strength":0.45},"doubleSided":false,"extras":{"surface":"Cool concrete with embedded mineral aggregate.","tileMeters":1.8}},{"name":"metal-copper","pbrMetallicRoughness":{"baseColorFactor":[1,1,1,1],"baseColorTexture":{"index":18},"metallicRoughnessTexture":{"index":20},"roughnessFactor":1,"metallicFactor":1},"normalTexture":{"index":19,"scale":0.7},"occlusionTexture":{"index":20,"texCoord":0,"strength":0.45},"doubleSided":false,"extras":{"surface":"Copper sheet with controlled turquoise oxidation.","tileMeters":1.25}}],"textures":[{"sampler":0,"source":0},{"sampler":0,"source":1},{"sampler":0,"source":2},{"sampler":0,"source":3},{"sampler":0,"source":4},{"sampler":0,"source":5},{"sampler":0,"source":6},{"sampler":0,"source":7},{"sampler":0,"source":8},{"sampler":0,"source":9},{"sampler":0,"source":10},{"sampler":0,"source":11},{"sampler":0,"source":12},{"sampler":0,"source":13},{"sampler":0,"source":14},{"sampler":0,"source":15},{"sampler":0,"source":16},{"sampler":0,"source":17},{"sampler":0,"source":18},{"sampler":0,"source":19},{"sampler":0,"source":20}],"images":[{"uri":"../textures/stucco-ivory-albedo.png"},{"uri":"../textures/stucco-ivory-normal.png"},{"uri":"../textures/stucco-ivory-orm.png"},{"uri":"../textures/wood-oak-albedo.png"},{"uri":"../textures/wood-oak-normal.png"},{"uri":"../textures/wood-oak-orm.png"},{"uri":"../textures/glass-blue-albedo.png"},{"uri":"../textures/glass-blue-normal.png"},{"uri":"../textures/glass-blue-orm.png"},{"uri":"../textures/limestone-albedo.png"},{"uri":"../textures/limestone-normal.png"},{"uri":"../textures/limestone-orm.png"},{"uri":"../textures/metal-dark-albedo.png"},{"uri":"../textures/metal-dark-normal.png"},{"uri":"../textures/metal-dark-orm.png"},{"uri":"../textures/concrete-albedo.png"},{"uri":"../textures/concrete-normal.png"},{"uri":"../textures/concrete-orm.png"},{"uri":"../textures/metal-copper-albedo.png"},{"uri":"../textures/metal-copper-normal.png"},{"uri":"../textures/metal-copper-orm.png"}],"samplers":[{"magFilter":9729,"minFilter":9987,"wrapS":10497,"wrapT":10497}],"buffers":[{"uri":"storefront-cafe.lod1.bin","byteLength":34560}],"bufferViews":[{"buffer":0,"byteOffset":0,"byteLength":1296,"target":34962},{"buffer":0,"byteOffset":1296,"byteLength":1296,"target":34962},{"buffer":0,"byteOffset":2592,"byteLength":864,"target":34962},{"buffer":0,"byteOffset":3456,"byteLength":864,"target":34962},{"buffer":0,"byteOffset":4320,"byteLength":864,"target":34962},{"buffer":0,"byteOffset":5184,"byteLength":576,"target":34962},{"buffer":0,"byteOffset":5760,"byteLength":1728,"target":34962},{"buffer":0,"byteOffset":7488,"byteLength":1728,"target":34962},{"buffer":0,"byteOffset":9216,"byteLength":1152,"target":34962},{"buffer":0,"byteOffset":10368,"byteLength":2592,"target":34962},{"buffer":0,"byteOffset":12960,"byteLength":2592,"target":34962},{"buffer":0,"byteOffset":15552,"byteLength":1728,"target":34962},{"buffer":0,"byteOffset":17280,"byteLength":4752,"target":34962},{"buffer":0,"byteOffset":22032,"byteLength":4752,"target":34962},{"buffer":0,"byteOffset":26784,"byteLength":3168,"target":34962},{"buffer":0,"byteOffset":29952,"byteLength":864,"target":34962},{"buffer":0,"byteOffset":30816,"byteLength":864,"target":34962},{"buffer":0,"byteOffset":31680,"byteLength":576,"target":34962},{"buffer":0,"byteOffset":32256,"byteLength":864,"target":34962},{"buffer":0,"byteOffset":33120,"byteLength":864,"target":34962},{"buffer":0,"byteOffset":33984,"byteLength":576,"target":34962}],"accessors":[{"bufferView":0,"componentType":5126,"count":108,"type":"VEC3","min":[-2.125,4.7683716530855236e-8,-0.17000000178813934],"max":[2.125,2.8499999046325684,0.01000000350177288]},{"bufferView":1,"componentType":5126,"count":108,"type":"VEC3"},{"bufferView":2,"componentType":5126,"count":108,"type":"VEC2"},{"bufferView":3,"componentType":5126,"count":72,"type":"VEC3","min":[-1.915000081062317,-4.76837147544984e-9,-0.01000000350177288],"max":[1.915000081062317,0.7400000095367432,0.17000000178813934]},{"bufferView":4,"componentType":5126,"count":72,"type":"VEC3"},{"bufferView":5,"componentType":5126,"count":72,"type":"VEC2"},{"bufferView":6,"componentType":5126,"count":144,"type":"VEC3","min":[-1.915000081062317,0.7400000095367432,-0.10000000149011612],"max":[1.915000081062317,2.5999999046325684,0.10750000178813934]},{"bufferView":7,"componentType":5126,"count":144,"type":"VEC3"},{"bufferView":8,"componentType":5126,"count":144,"type":"VEC2"},{"bufferView":9,"componentType":5126,"count":216,"type":"VEC3","min":[-2.184999942779541,4.7683716530855236e-8,-0.22999998927116394],"max":[2.184999942779541,2.8499999046325684,0.20999999344348907]},{"bufferView":10,"componentType":5126,"count":216,"type":"VEC3"},{"bufferView":11,"componentType":5126,"count":216,"type":"VEC2"},{"bufferView":12,"componentType":5126,"count":396,"type":"VEC3","min":[-0.5899999737739563,-0.06999996304512024,-0.33000001311302185],"max":[0.5899999737739563,2.6549999713897705,0.03500000014901161]},{"bufferView":13,"componentType":5126,"count":396,"type":"VEC3"},{"bufferView":14,"componentType":5126,"count":396,"type":"VEC2"},{"bufferView":15,"componentType":5126,"count":72,"type":"VEC3","min":[-0.6299999952316284,-1.490116086078075e-10,-0.27000001072883606],"max":[0.6299999952316284,0.07999999821186066,0.3100000023841858]},{"bufferView":16,"componentType":5126,"count":72,"type":"VEC3"},{"bufferView":17,"componentType":5126,"count":72,"type":"VEC2"},{"bufferView":18,"componentType":5126,"count":72,"type":"VEC3","min":[-2.1649999618530273,2.2899999618530273,-0.0024016178213059902],"max":[2.1649999618530273,2.606933355331421,0.7850000262260437]},{"bufferView":19,"componentType":5126,"count":72,"type":"VEC3"},{"bufferView":20,"componentType":5126,"count":72,"type":"VEC2"}],"extras":{"library":"Civic Foundry","units":"metres","up":"+Y","front":"+Z","lod":1}}