{"asset":{"version":"2.0","generator":"SLOPMERICA Civic Foundry 1.0"},"scene":0,"scenes":[{"nodes":[0]}],"nodes":[{"name":"street-curb-ramp","mesh":0}],"meshes":[{"name":"street-curb-ramp","primitives":[{"attributes":{"POSITION":0,"NORMAL":1,"TEXCOORD_0":2},"material":0,"mode":4},{"attributes":{"POSITION":3,"NORMAL":4,"TEXCOORD_0":5},"material":1,"mode":4}]}],"materials":[{"name":"concrete","pbrMetallicRoughness":{"baseColorFactor":[1,1,1,1],"baseColorTexture":{"index":0},"metallicRoughnessTexture":{"index":2},"roughnessFactor":1,"metallicFactor":1},"normalTexture":{"index":1,"scale":0.82},"occlusionTexture":{"index":2,"texCoord":0,"strength":0.45},"doubleSided":false,"extras":{"surface":"Cool concrete with embedded mineral aggregate.","tileMeters":1.8}},{"name":"brick-red","pbrMetallicRoughness":{"baseColorFactor":[1,1,1,1],"baseColorTexture":{"index":3},"metallicRoughnessTexture":{"index":5},"roughnessFactor":1,"metallicFactor":1},"normalTexture":{"index":4,"scale":1.15},"occlusionTexture":{"index":5,"texCoord":0,"strength":0.45},"doubleSided":false,"extras":{"surface":"Warm staggered clay brick with recessed mortar.","tileMeters":[1.1,0.6]}}],"textures":[{"sampler":0,"source":0},{"sampler":0,"source":1},{"sampler":0,"source":2},{"sampler":0,"source":3},{"sampler":0,"source":4},{"sampler":0,"source":5}],"images":[{"uri":"../textures/concrete-albedo.png"},{"uri":"../textures/concrete-normal.png"},{"uri":"../textures/concrete-orm.png"},{"uri":"../textures/brick-red-albedo.png"},{"uri":"../textures/brick-red-normal.png"},{"uri":"../textures/brick-red-orm.png"}],"samplers":[{"magFilter":9729,"minFilter":9987,"wrapS":10497,"wrapT":10497}],"buffers":[{"uri":"street-curb-ramp.lod2.bin","byteLength":3456}],"bufferViews":[{"buffer":0,"byteOffset":0,"byteLength":864,"target":34962},{"buffer":0,"byteOffset":864,"byteLength":864,"target":34962},{"buffer":0,"byteOffset":1728,"byteLength":576,"target":34962},{"buffer":0,"byteOffset":2304,"byteLength":432,"target":34962},{"buffer":0,"byteOffset":2736,"byteLength":432,"target":34962},{"buffer":0,"byteOffset":3168,"byteLength":288,"target":34962}],"accessors":[{"bufferView":0,"componentType":5126,"count":72,"type":"VEC3","min":[-2.0999999046325684,3.5762786065873797e-9,-1.600000023841858],"max":[2.0999999046325684,0.3465820848941803,1.5313118696212769]},{"bufferView":1,"componentType":5126,"count":72,"type":"VEC3"},{"bufferView":2,"componentType":5126,"count":72,"type":"VEC2"},{"bufferView":3,"componentType":5126,"count":36,"type":"VEC3","min":[-0.675000011920929,0.1944126933813095,0.9287298321723938],"max":[0.675000011920929,0.29558730125427246,1.5112701654434204]},{"bufferView":4,"componentType":5126,"count":36,"type":"VEC3"},{"bufferView":5,"componentType":5126,"count":36,"type":"VEC2"}],"extras":{"library":"Civic Foundry","units":"metres","up":"+Y","front":"+Z","lod":2}}