{"asset":{"version":"2.0","generator":"SLOPMERICA Civic Foundry 1.0"},"scene":0,"scenes":[{"nodes":[0]}],"nodes":[{"name":"street-bike-rack","mesh":0}],"meshes":[{"name":"street-bike-rack","primitives":[{"attributes":{"POSITION":0,"NORMAL":1,"TEXCOORD_0":2},"material":0,"mode":4},{"attributes":{"POSITION":3,"NORMAL":4,"TEXCOORD_0":5},"material":1,"mode":4}]}],"materials":[{"name":"metal-galvanized","pbrMetallicRoughness":{"baseColorFactor":[1,1,1,1],"baseColorTexture":{"index":0},"metallicRoughnessTexture":{"index":2},"roughnessFactor":1,"metallicFactor":1},"normalTexture":{"index":1,"scale":0.15},"occlusionTexture":{"index":2,"texCoord":0,"strength":0.45},"doubleSided":false,"extras":{"surface":"Silvery galvanized steel with fine zinc spangle.","tileMeters":0.15}},{"name":"metal-dark","pbrMetallicRoughness":{"baseColorFactor":[1,1,1,1],"baseColorTexture":{"index":3},"metallicRoughnessTexture":{"index":5},"roughnessFactor":1,"metallicFactor":1},"normalTexture":{"index":4,"scale":0.35},"occlusionTexture":{"index":5,"texCoord":0,"strength":0.45},"doubleSided":false,"extras":{"surface":"Charcoal brushed architectural metal.","tileMeters":1.2}}],"textures":[{"sampler":0,"source":0},{"sampler":0,"source":1},{"sampler":0,"source":2},{"sampler":0,"source":3},{"sampler":0,"source":4},{"sampler":0,"source":5}],"images":[{"uri":"../textures/metal-galvanized-albedo.png"},{"uri":"../textures/metal-galvanized-normal.png"},{"uri":"../textures/metal-galvanized-orm.png"},{"uri":"../textures/metal-dark-albedo.png"},{"uri":"../textures/metal-dark-normal.png"},{"uri":"../textures/metal-dark-orm.png"}],"samplers":[{"magFilter":9729,"minFilter":9987,"wrapS":10497,"wrapT":10497}],"buffers":[{"uri":"street-bike-rack.lod0.bin","byteLength":353280}],"bufferViews":[{"buffer":0,"byteOffset":0,"byteLength":101376,"target":34962},{"buffer":0,"byteOffset":101376,"byteLength":101376,"target":34962},{"buffer":0,"byteOffset":202752,"byteLength":67584,"target":34962},{"buffer":0,"byteOffset":270336,"byteLength":31104,"target":34962},{"buffer":0,"byteOffset":301440,"byteLength":31104,"target":34962},{"buffer":0,"byteOffset":332544,"byteLength":20736,"target":34962}],"accessors":[{"bufferView":0,"componentType":5126,"count":8448,"type":"VEC3","min":[-1.5549999475479126,5.364418242947977e-9,-0.5350000262260437],"max":[1.5549999475479126,1.0149999856948853,0.5350000262260437]},{"bufferView":1,"componentType":5126,"count":8448,"type":"VEC3"},{"bufferView":2,"componentType":5126,"count":8448,"type":"VEC2"},{"bufferView":3,"componentType":5126,"count":2592,"type":"VEC3","min":[-1.6200000047683716,0.0004999999073334038,-0.5799999833106995],"max":[1.6200000047683716,0.03550000116229057,0.5799999833106995]},{"bufferView":4,"componentType":5126,"count":2592,"type":"VEC3"},{"bufferView":5,"componentType":5126,"count":2592,"type":"VEC2"}],"extras":{"library":"Civic Foundry","units":"metres","up":"+Y","front":"+Z","lod":0}}