{"asset":{"version":"2.0","generator":"SLOPMERICA Civic Foundry 1.0"},"scene":0,"scenes":[{"nodes":[0]}],"nodes":[{"name":"street-bench-slat","mesh":0}],"meshes":[{"name":"street-bench-slat","primitives":[{"attributes":{"POSITION":0,"NORMAL":1,"TEXCOORD_0":2},"material":0,"mode":4},{"attributes":{"POSITION":3,"NORMAL":4,"TEXCOORD_0":5},"material":1,"mode":4}]}],"materials":[{"name":"wood-oak","pbrMetallicRoughness":{"baseColorFactor":[1,1,1,1],"baseColorTexture":{"index":0},"metallicRoughnessTexture":{"index":2},"roughnessFactor":1,"metallicFactor":1},"normalTexture":{"index":1,"scale":1},"occlusionTexture":{"index":2,"texCoord":0,"strength":0.45},"doubleSided":false,"extras":{"surface":"Weathered oak boards with flowing grain and knots.","tileMeters":1.6}},{"name":"metal-dark","pbrMetallicRoughness":{"baseColorFactor":[1,1,1,1],"baseColorTexture":{"index":3},"metallicRoughnessTexture":{"index":5},"roughnessFactor":1,"metallicFactor":1},"normalTexture":{"index":4,"scale":0.35},"occlusionTexture":{"index":5,"texCoord":0,"strength":0.45},"doubleSided":false,"extras":{"surface":"Charcoal brushed architectural metal.","tileMeters":1.2}}],"textures":[{"sampler":0,"source":0},{"sampler":0,"source":1},{"sampler":0,"source":2},{"sampler":0,"source":3},{"sampler":0,"source":4},{"sampler":0,"source":5}],"images":[{"uri":"../textures/wood-oak-albedo.png"},{"uri":"../textures/wood-oak-normal.png"},{"uri":"../textures/wood-oak-orm.png"},{"uri":"../textures/metal-dark-albedo.png"},{"uri":"../textures/metal-dark-normal.png"},{"uri":"../textures/metal-dark-orm.png"}],"samplers":[{"magFilter":9729,"minFilter":9987,"wrapS":10497,"wrapT":10497}],"buffers":[{"uri":"street-bench-slat.lod2.bin","byteLength":12672}],"bufferViews":[{"buffer":0,"byteOffset":0,"byteLength":1296,"target":34962},{"buffer":0,"byteOffset":1296,"byteLength":1296,"target":34962},{"buffer":0,"byteOffset":2592,"byteLength":864,"target":34962},{"buffer":0,"byteOffset":3456,"byteLength":3456,"target":34962},{"buffer":0,"byteOffset":6912,"byteLength":3456,"target":34962},{"buffer":0,"byteOffset":10368,"byteLength":2304,"target":34962}],"accessors":[{"bufferView":0,"componentType":5126,"count":108,"type":"VEC3","min":[-1.1749999523162842,0.5699999928474426,-0.5554504990577698],"max":[1.1749999523162842,1.4347398281097412,0.10999999940395355]},{"bufferView":1,"componentType":5126,"count":108,"type":"VEC3"},{"bufferView":2,"componentType":5126,"count":108,"type":"VEC2"},{"bufferView":3,"componentType":5126,"count":288,"type":"VEC3","min":[-1.034999966621399,0.07999223470687866,-0.54734867811203],"max":[1.034999966621399,1.4551818370819092,0.3976314067840576]},{"bufferView":4,"componentType":5126,"count":288,"type":"VEC3"},{"bufferView":5,"componentType":5126,"count":288,"type":"VEC2"}],"extras":{"library":"Civic Foundry","units":"metres","up":"+Y","front":"+Z","lod":2}}