{"asset":{"version":"2.0","generator":"SLOPMERICA Civic Foundry 1.0"},"scene":0,"scenes":[{"nodes":[0]}],"nodes":[{"name":"street-bus-shelter","mesh":0}],"meshes":[{"name":"street-bus-shelter","primitives":[{"attributes":{"POSITION":0,"NORMAL":1,"TEXCOORD_0":2},"material":0,"mode":4},{"attributes":{"POSITION":3,"NORMAL":4,"TEXCOORD_0":5},"material":1,"mode":4},{"attributes":{"POSITION":6,"NORMAL":7,"TEXCOORD_0":8},"material":2,"mode":4},{"attributes":{"POSITION":9,"NORMAL":10,"TEXCOORD_0":11},"material":3,"mode":4},{"attributes":{"POSITION":12,"NORMAL":13,"TEXCOORD_0":14},"material":4,"mode":4},{"attributes":{"POSITION":15,"NORMAL":16,"TEXCOORD_0":17},"material":5,"mode":4}]}],"materials":[{"name":"concrete","pbrMetallicRoughness":{"baseColorFactor":[1,1,1,1],"baseColorTexture":{"index":0},"metallicRoughnessTexture":{"index":2},"roughnessFactor":1,"metallicFactor":1},"normalTexture":{"index":1,"scale":0.82},"occlusionTexture":{"index":2,"texCoord":0,"strength":0.45},"doubleSided":false,"extras":{"surface":"Cool concrete with embedded mineral aggregate.","tileMeters":1.8}},{"name":"metal-dark","pbrMetallicRoughness":{"baseColorFactor":[1,1,1,1],"baseColorTexture":{"index":3},"metallicRoughnessTexture":{"index":5},"roughnessFactor":1,"metallicFactor":1},"normalTexture":{"index":4,"scale":0.35},"occlusionTexture":{"index":5,"texCoord":0,"strength":0.45},"doubleSided":false,"extras":{"surface":"Charcoal brushed architectural metal.","tileMeters":1.2}},{"name":"roof-metal","pbrMetallicRoughness":{"baseColorFactor":[1,1,1,1],"baseColorTexture":{"index":6},"metallicRoughnessTexture":{"index":8},"roughnessFactor":1,"metallicFactor":1},"normalTexture":{"index":7,"scale":0.68},"occlusionTexture":{"index":8,"texCoord":0,"strength":0.45},"doubleSided":false,"extras":{"surface":"Painted standing-seam metal roofing.","tileMeters":3}},{"name":"glass-blue","pbrMetallicRoughness":{"baseColorFactor":[1,1,1,1],"baseColorTexture":{"index":9},"metallicRoughnessTexture":{"index":11},"roughnessFactor":1,"metallicFactor":1},"normalTexture":{"index":10,"scale":0.12},"occlusionTexture":{"index":11,"texCoord":0,"strength":0.45},"doubleSided":false,"extras":{"surface":"Desaturated blue-gray architectural glass with faint waviness.","tileMeters":2.5}},{"name":"wood-painted","pbrMetallicRoughness":{"baseColorFactor":[1,1,1,1],"baseColorTexture":{"index":12},"metallicRoughnessTexture":{"index":14},"roughnessFactor":1,"metallicFactor":1},"normalTexture":{"index":13,"scale":0.55},"occlusionTexture":{"index":14,"texCoord":0,"strength":0.45},"doubleSided":false,"extras":{"surface":"Painted timber boards with restrained worn grain.","tileMeters":1.6}},{"name":"brick-cream","pbrMetallicRoughness":{"baseColorFactor":[1,1,1,1],"baseColorTexture":{"index":15},"metallicRoughnessTexture":{"index":17},"roughnessFactor":1,"metallicFactor":1},"normalTexture":{"index":16,"scale":1.05},"occlusionTexture":{"index":17,"texCoord":0,"strength":0.45},"doubleSided":false,"extras":{"surface":"Pale fired brick with subtle face variation.","tileMeters":[1.1,0.6]}}],"textures":[{"sampler":0,"source":0},{"sampler":0,"source":1},{"sampler":0,"source":2},{"sampler":0,"source":3},{"sampler":0,"source":4},{"sampler":0,"source":5},{"sampler":0,"source":6},{"sampler":0,"source":7},{"sampler":0,"source":8},{"sampler":0,"source":9},{"sampler":0,"source":10},{"sampler":0,"source":11},{"sampler":0,"source":12},{"sampler":0,"source":13},{"sampler":0,"source":14},{"sampler":0,"source":15},{"sampler":0,"source":16},{"sampler":0,"source":17}],"images":[{"uri":"../textures/concrete-albedo.png"},{"uri":"../textures/concrete-normal.png"},{"uri":"../textures/concrete-orm.png"},{"uri":"../textures/metal-dark-albedo.png"},{"uri":"../textures/metal-dark-normal.png"},{"uri":"../textures/metal-dark-orm.png"},{"uri":"../textures/roof-metal-albedo.png"},{"uri":"../textures/roof-metal-normal.png"},{"uri":"../textures/roof-metal-orm.png"},{"uri":"../textures/glass-blue-albedo.png"},{"uri":"../textures/glass-blue-normal.png"},{"uri":"../textures/glass-blue-orm.png"},{"uri":"../textures/wood-painted-albedo.png"},{"uri":"../textures/wood-painted-normal.png"},{"uri":"../textures/wood-painted-orm.png"},{"uri":"../textures/brick-cream-albedo.png"},{"uri":"../textures/brick-cream-normal.png"},{"uri":"../textures/brick-cream-orm.png"}],"samplers":[{"magFilter":9729,"minFilter":9987,"wrapS":10497,"wrapT":10497}],"buffers":[{"uri":"street-bus-shelter.lod0.bin","byteLength":103680}],"bufferViews":[{"buffer":0,"byteOffset":0,"byteLength":3888,"target":34962},{"buffer":0,"byteOffset":3888,"byteLength":3888,"target":34962},{"buffer":0,"byteOffset":7776,"byteLength":2592,"target":34962},{"buffer":0,"byteOffset":10368,"byteLength":15552,"target":34962},{"buffer":0,"byteOffset":25920,"byteLength":15552,"target":34962},{"buffer":0,"byteOffset":41472,"byteLength":10368,"target":34962},{"buffer":0,"byteOffset":51840,"byteLength":3888,"target":34962},{"buffer":0,"byteOffset":55728,"byteLength":3888,"target":34962},{"buffer":0,"byteOffset":59616,"byteLength":2592,"target":34962},{"buffer":0,"byteOffset":62208,"byteLength":7776,"target":34962},{"buffer":0,"byteOffset":69984,"byteLength":7776,"target":34962},{"buffer":0,"byteOffset":77760,"byteLength":5184,"target":34962},{"buffer":0,"byteOffset":82944,"byteLength":3888,"target":34962},{"buffer":0,"byteOffset":86832,"byteLength":3888,"target":34962},{"buffer":0,"byteOffset":90720,"byteLength":2592,"target":34962},{"buffer":0,"byteOffset":93312,"byteLength":3888,"target":34962},{"buffer":0,"byteOffset":97200,"byteLength":3888,"target":34962},{"buffer":0,"byteOffset":101088,"byteLength":2592,"target":34962}],"accessors":[{"bufferView":0,"componentType":5126,"count":324,"type":"VEC3","min":[-2.4000000953674316,1.7881393032936899e-9,-0.875],"max":[2.4000000953674316,0.1599999964237213,0.875]},{"bufferView":1,"componentType":5126,"count":324,"type":"VEC3"},{"bufferView":2,"componentType":5126,"count":324,"type":"VEC2"},{"bufferView":3,"componentType":5126,"count":1296,"type":"VEC3","min":[-2.0999999046325684,0.024999994784593582,-0.6000000238418579],"max":[2.0999999046325684,2.805000066757202,-0.17000000178813934]},{"bufferView":4,"componentType":5126,"count":1296,"type":"VEC3"},{"bufferView":5,"componentType":5126,"count":1296,"type":"VEC2"},{"bufferView":6,"componentType":5126,"count":324,"type":"VEC3","min":[-2.2752444744110107,2.6519579887390137,-0.7749999761581421],"max":[2.2752444744110107,2.988041877746582,0.7749999761581421]},{"bufferView":7,"componentType":5126,"count":324,"type":"VEC3"},{"bufferView":8,"componentType":5126,"count":324,"type":"VEC2"},{"bufferView":9,"componentType":5126,"count":648,"type":"VEC3","min":[-2.0875000953674316,0.3749999403953552,-0.6474999785423279],"max":[1.975000023841858,2.5250000953674316,0.625]},{"bufferView":10,"componentType":5126,"count":648,"type":"VEC3"},{"bufferView":11,"componentType":5126,"count":648,"type":"VEC2"},{"bufferView":12,"componentType":5126,"count":324,"type":"VEC3","min":[-0.800000011920929,0.5600000023841858,-0.4699999988079071],"max":[1.7000000476837158,0.6800000071525574,0.029999999329447746]},{"bufferView":13,"componentType":5126,"count":324,"type":"VEC3"},{"bufferView":14,"componentType":5126,"count":324,"type":"VEC2"},{"bufferView":15,"componentType":5126,"count":324,"type":"VEC3","min":[1.1749999523162842,0.6449999809265137,-0.6000000238418579],"max":[1.9249999523162842,2.3949999809265137,-0.5199999809265137]},{"bufferView":16,"componentType":5126,"count":324,"type":"VEC3"},{"bufferView":17,"componentType":5126,"count":324,"type":"VEC2"}],"extras":{"library":"Civic Foundry","units":"metres","up":"+Y","front":"+Z","lod":0}}