{"asset":{"version":"2.0","generator":"SLOPMERICA Civic Foundry 1.0"},"scene":0,"scenes":[{"nodes":[0]}],"nodes":[{"name":"street-lamp-cobra","mesh":0}],"meshes":[{"name":"street-lamp-cobra","primitives":[{"attributes":{"POSITION":0,"NORMAL":1,"TEXCOORD_0":2},"material":0,"mode":4},{"attributes":{"POSITION":3,"NORMAL":4,"TEXCOORD_0":5},"material":1,"mode":4},{"attributes":{"POSITION":6,"NORMAL":7,"TEXCOORD_0":8},"material":2,"mode":4},{"attributes":{"POSITION":9,"NORMAL":10,"TEXCOORD_0":11},"material":3,"mode":4}]}],"materials":[{"name":"metal-galvanized","pbrMetallicRoughness":{"baseColorFactor":[1,1,1,1],"baseColorTexture":{"index":0},"metallicRoughnessTexture":{"index":2},"roughnessFactor":1,"metallicFactor":1},"normalTexture":{"index":1,"scale":0.15},"occlusionTexture":{"index":2,"texCoord":0,"strength":0.45},"doubleSided":false,"extras":{"surface":"Silvery galvanized steel with fine zinc spangle.","tileMeters":0.15}},{"name":"concrete","pbrMetallicRoughness":{"baseColorFactor":[1,1,1,1],"baseColorTexture":{"index":3},"metallicRoughnessTexture":{"index":5},"roughnessFactor":1,"metallicFactor":1},"normalTexture":{"index":4,"scale":0.82},"occlusionTexture":{"index":5,"texCoord":0,"strength":0.45},"doubleSided":false,"extras":{"surface":"Cool concrete with embedded mineral aggregate.","tileMeters":1.8}},{"name":"metal-dark","pbrMetallicRoughness":{"baseColorFactor":[1,1,1,1],"baseColorTexture":{"index":6},"metallicRoughnessTexture":{"index":8},"roughnessFactor":1,"metallicFactor":1},"normalTexture":{"index":7,"scale":0.35},"occlusionTexture":{"index":8,"texCoord":0,"strength":0.45},"doubleSided":false,"extras":{"surface":"Charcoal brushed architectural metal.","tileMeters":1.2}},{"name":"glass-blue","pbrMetallicRoughness":{"baseColorFactor":[1,1,1,1],"baseColorTexture":{"index":9},"metallicRoughnessTexture":{"index":11},"roughnessFactor":1,"metallicFactor":1},"normalTexture":{"index":10,"scale":0.12},"occlusionTexture":{"index":11,"texCoord":0,"strength":0.45},"doubleSided":false,"extras":{"surface":"Desaturated blue-gray architectural glass with faint waviness.","tileMeters":2.5}}],"textures":[{"sampler":0,"source":0},{"sampler":0,"source":1},{"sampler":0,"source":2},{"sampler":0,"source":3},{"sampler":0,"source":4},{"sampler":0,"source":5},{"sampler":0,"source":6},{"sampler":0,"source":7},{"sampler":0,"source":8},{"sampler":0,"source":9},{"sampler":0,"source":10},{"sampler":0,"source":11}],"images":[{"uri":"../textures/metal-galvanized-albedo.png"},{"uri":"../textures/metal-galvanized-normal.png"},{"uri":"../textures/metal-galvanized-orm.png"},{"uri":"../textures/concrete-albedo.png"},{"uri":"../textures/concrete-normal.png"},{"uri":"../textures/concrete-orm.png"},{"uri":"../textures/metal-dark-albedo.png"},{"uri":"../textures/metal-dark-normal.png"},{"uri":"../textures/metal-dark-orm.png"},{"uri":"../textures/glass-blue-albedo.png"},{"uri":"../textures/glass-blue-normal.png"},{"uri":"../textures/glass-blue-orm.png"}],"samplers":[{"magFilter":9729,"minFilter":9987,"wrapS":10497,"wrapT":10497}],"buffers":[{"uri":"street-lamp-cobra.lod1.bin","byteLength":24192}],"bufferViews":[{"buffer":0,"byteOffset":0,"byteLength":7776,"target":34962},{"buffer":0,"byteOffset":7776,"byteLength":7776,"target":34962},{"buffer":0,"byteOffset":15552,"byteLength":5184,"target":34962},{"buffer":0,"byteOffset":20736,"byteLength":432,"target":34962},{"buffer":0,"byteOffset":21168,"byteLength":432,"target":34962},{"buffer":0,"byteOffset":21600,"byteLength":288,"target":34962},{"buffer":0,"byteOffset":21888,"byteLength":432,"target":34962},{"buffer":0,"byteOffset":22320,"byteLength":432,"target":34962},{"buffer":0,"byteOffset":22752,"byteLength":288,"target":34962},{"buffer":0,"byteOffset":23040,"byteLength":432,"target":34962},{"buffer":0,"byteOffset":23472,"byteLength":432,"target":34962},{"buffer":0,"byteOffset":23904,"byteLength":288,"target":34962}],"accessors":[{"bufferView":0,"componentType":5126,"count":648,"type":"VEC3","min":[-0.17320507764816284,4.7683716530855236e-8,-0.20000000298023224],"max":[0.17320507764816284,7.622940540313721,2.009916067123413]},{"bufferView":1,"componentType":5126,"count":648,"type":"VEC3"},{"bufferView":2,"componentType":5126,"count":648,"type":"VEC2"},{"bufferView":3,"componentType":5126,"count":36,"type":"VEC3","min":[-0.23999999463558197,5.9604643443123e-10,-0.23999999463558197],"max":[0.23999999463558197,0.2199999988079071,0.23999999463558197]},{"bufferView":4,"componentType":5126,"count":36,"type":"VEC3"},{"bufferView":5,"componentType":5126,"count":36,"type":"VEC2"},{"bufferView":6,"componentType":5126,"count":36,"type":"VEC3","min":[-0.1899999976158142,7.245157241821289,1.7734158039093018],"max":[0.1899999976158142,7.514842510223389,2.6665842533111572]},{"bufferView":7,"componentType":5126,"count":36,"type":"VEC3"},{"bufferView":8,"componentType":5126,"count":36,"type":"VEC2"},{"bufferView":9,"componentType":5126,"count":36,"type":"VEC3","min":[-0.15000000596046448,7.224586009979248,1.8897209167480469],"max":[0.15000000596046448,7.315413951873779,2.5902791023254395]},{"bufferView":10,"componentType":5126,"count":36,"type":"VEC3"},{"bufferView":11,"componentType":5126,"count":36,"type":"VEC2"}],"extras":{"library":"Civic Foundry","units":"metres","up":"+Y","front":"+Z","lod":1}}