{"asset":{"version":"2.0","generator":"SLOPMERICA Civic Foundry 1.0"},"scene":0,"scenes":[{"nodes":[0]}],"nodes":[{"name":"street-bench-slat","mesh":0}],"meshes":[{"name":"street-bench-slat","primitives":[{"attributes":{"POSITION":0,"NORMAL":1,"TEXCOORD_0":2},"material":0,"mode":4},{"attributes":{"POSITION":3,"NORMAL":4,"TEXCOORD_0":5},"material":1,"mode":4}]}],"materials":[{"name":"wood-oak","pbrMetallicRoughness":{"baseColorFactor":[1,1,1,1],"baseColorTexture":{"index":0},"metallicRoughnessTexture":{"index":2},"roughnessFactor":1,"metallicFactor":1},"normalTexture":{"index":1,"scale":1},"occlusionTexture":{"index":2,"texCoord":0,"strength":0.45},"doubleSided":false,"extras":{"surface":"Weathered oak boards with flowing grain and knots.","tileMeters":1.6}},{"name":"metal-dark","pbrMetallicRoughness":{"baseColorFactor":[1,1,1,1],"baseColorTexture":{"index":3},"metallicRoughnessTexture":{"index":5},"roughnessFactor":1,"metallicFactor":1},"normalTexture":{"index":4,"scale":0.35},"occlusionTexture":{"index":5,"texCoord":0,"strength":0.45},"doubleSided":false,"extras":{"surface":"Charcoal brushed architectural metal.","tileMeters":1.2}}],"textures":[{"sampler":0,"source":0},{"sampler":0,"source":1},{"sampler":0,"source":2},{"sampler":0,"source":3},{"sampler":0,"source":4},{"sampler":0,"source":5}],"images":[{"uri":"../textures/wood-oak-albedo.png"},{"uri":"../textures/wood-oak-normal.png"},{"uri":"../textures/wood-oak-orm.png"},{"uri":"../textures/metal-dark-albedo.png"},{"uri":"../textures/metal-dark-normal.png"},{"uri":"../textures/metal-dark-orm.png"}],"samplers":[{"magFilter":9729,"minFilter":9987,"wrapS":10497,"wrapT":10497}],"buffers":[{"uri":"street-bench-slat.lod0.bin","byteLength":266112}],"bufferViews":[{"buffer":0,"byteOffset":0,"byteLength":27216,"target":34962},{"buffer":0,"byteOffset":27216,"byteLength":27216,"target":34962},{"buffer":0,"byteOffset":54432,"byteLength":18144,"target":34962},{"buffer":0,"byteOffset":72576,"byteLength":72576,"target":34962},{"buffer":0,"byteOffset":145152,"byteLength":72576,"target":34962},{"buffer":0,"byteOffset":217728,"byteLength":48384,"target":34962}],"accessors":[{"bufferView":0,"componentType":5126,"count":2268,"type":"VEC3","min":[-1.1749999523162842,0.5699999928474426,-0.5528647303581238],"max":[1.1749999523162842,1.4921540021896362,0.5299999713897705]},{"bufferView":1,"componentType":5126,"count":2268,"type":"VEC3"},{"bufferView":2,"componentType":5126,"count":2268,"type":"VEC2"},{"bufferView":3,"componentType":5126,"count":6048,"type":"VEC3","min":[-1.034999966621399,0.07999102771282196,-0.5559259653091431],"max":[1.034999966621399,1.4559835195541382,0.44589778780937195]},{"bufferView":4,"componentType":5126,"count":6048,"type":"VEC3"},{"bufferView":5,"componentType":5126,"count":6048,"type":"VEC2"}],"extras":{"library":"Civic Foundry","units":"metres","up":"+Y","front":"+Z","lod":0}}