{"asset":{"version":"2.0","generator":"SLOPMERICA Civic Foundry 1.0"},"scene":0,"scenes":[{"nodes":[0]}],"nodes":[{"name":"street-lamp-cobra","mesh":0}],"meshes":[{"name":"street-lamp-cobra","primitives":[{"attributes":{"POSITION":0,"NORMAL":1,"TEXCOORD_0":2},"material":0,"mode":4},{"attributes":{"POSITION":3,"NORMAL":4,"TEXCOORD_0":5},"material":1,"mode":4},{"attributes":{"POSITION":6,"NORMAL":7,"TEXCOORD_0":8},"material":2,"mode":4},{"attributes":{"POSITION":9,"NORMAL":10,"TEXCOORD_0":11},"material":3,"mode":4}]}],"materials":[{"name":"metal-galvanized","pbrMetallicRoughness":{"baseColorFactor":[1,1,1,1],"baseColorTexture":{"index":0},"metallicRoughnessTexture":{"index":2},"roughnessFactor":1,"metallicFactor":1},"normalTexture":{"index":1,"scale":0.15},"occlusionTexture":{"index":2,"texCoord":0,"strength":0.45},"doubleSided":false,"extras":{"surface":"Silvery galvanized steel with fine zinc spangle.","tileMeters":0.15}},{"name":"concrete","pbrMetallicRoughness":{"baseColorFactor":[1,1,1,1],"baseColorTexture":{"index":3},"metallicRoughnessTexture":{"index":5},"roughnessFactor":1,"metallicFactor":1},"normalTexture":{"index":4,"scale":0.82},"occlusionTexture":{"index":5,"texCoord":0,"strength":0.45},"doubleSided":false,"extras":{"surface":"Cool concrete with embedded mineral aggregate.","tileMeters":1.8}},{"name":"metal-dark","pbrMetallicRoughness":{"baseColorFactor":[1,1,1,1],"baseColorTexture":{"index":6},"metallicRoughnessTexture":{"index":8},"roughnessFactor":1,"metallicFactor":1},"normalTexture":{"index":7,"scale":0.35},"occlusionTexture":{"index":8,"texCoord":0,"strength":0.45},"doubleSided":false,"extras":{"surface":"Charcoal brushed architectural metal.","tileMeters":1.2}},{"name":"glass-blue","pbrMetallicRoughness":{"baseColorFactor":[1,1,1,1],"baseColorTexture":{"index":9},"metallicRoughnessTexture":{"index":11},"roughnessFactor":1,"metallicFactor":1},"normalTexture":{"index":10,"scale":0.12},"occlusionTexture":{"index":11,"texCoord":0,"strength":0.45},"doubleSided":false,"extras":{"surface":"Desaturated blue-gray architectural glass with faint waviness.","tileMeters":2.5}}],"textures":[{"sampler":0,"source":0},{"sampler":0,"source":1},{"sampler":0,"source":2},{"sampler":0,"source":3},{"sampler":0,"source":4},{"sampler":0,"source":5},{"sampler":0,"source":6},{"sampler":0,"source":7},{"sampler":0,"source":8},{"sampler":0,"source":9},{"sampler":0,"source":10},{"sampler":0,"source":11}],"images":[{"uri":"../textures/metal-galvanized-albedo.png"},{"uri":"../textures/metal-galvanized-normal.png"},{"uri":"../textures/metal-galvanized-orm.png"},{"uri":"../textures/concrete-albedo.png"},{"uri":"../textures/concrete-normal.png"},{"uri":"../textures/concrete-orm.png"},{"uri":"../textures/metal-dark-albedo.png"},{"uri":"../textures/metal-dark-normal.png"},{"uri":"../textures/metal-dark-orm.png"},{"uri":"../textures/glass-blue-albedo.png"},{"uri":"../textures/glass-blue-normal.png"},{"uri":"../textures/glass-blue-orm.png"}],"samplers":[{"magFilter":9729,"minFilter":9987,"wrapS":10497,"wrapT":10497}],"buffers":[{"uri":"street-lamp-cobra.lod0.bin","byteLength":91776}],"bufferViews":[{"buffer":0,"byteOffset":0,"byteLength":22752,"target":34962},{"buffer":0,"byteOffset":22752,"byteLength":22752,"target":34962},{"buffer":0,"byteOffset":45504,"byteLength":15168,"target":34962},{"buffer":0,"byteOffset":60672,"byteLength":3888,"target":34962},{"buffer":0,"byteOffset":64560,"byteLength":3888,"target":34962},{"buffer":0,"byteOffset":68448,"byteLength":2592,"target":34962},{"buffer":0,"byteOffset":71040,"byteLength":3888,"target":34962},{"buffer":0,"byteOffset":74928,"byteLength":3888,"target":34962},{"buffer":0,"byteOffset":78816,"byteLength":2592,"target":34962},{"buffer":0,"byteOffset":81408,"byteLength":3888,"target":34962},{"buffer":0,"byteOffset":85296,"byteLength":3888,"target":34962},{"buffer":0,"byteOffset":89184,"byteLength":2592,"target":34962}],"accessors":[{"bufferView":0,"componentType":5126,"count":1896,"type":"VEC3","min":[-0.19498558342456818,4.7683716530855236e-8,-0.20000000298023224],"max":[0.19498558342456818,7.6256890296936035,2.009916067123413]},{"bufferView":1,"componentType":5126,"count":1896,"type":"VEC3"},{"bufferView":2,"componentType":5126,"count":1896,"type":"VEC2"},{"bufferView":3,"componentType":5126,"count":324,"type":"VEC3","min":[-0.23999999463558197,5.9604643443123e-10,-0.23999999463558197],"max":[0.23999999463558197,0.2199999988079071,0.23999999463558197]},{"bufferView":4,"componentType":5126,"count":324,"type":"VEC3"},{"bufferView":5,"componentType":5126,"count":324,"type":"VEC2"},{"bufferView":6,"componentType":5126,"count":324,"type":"VEC3","min":[-0.1899999976158142,7.248993396759033,1.7772517204284668],"max":[0.1899999976158142,7.511006832122803,2.662748336791992]},{"bufferView":7,"componentType":5126,"count":324,"type":"VEC3"},{"bufferView":8,"componentType":5126,"count":324,"type":"VEC2"},{"bufferView":9,"componentType":5126,"count":324,"type":"VEC3","min":[-0.15000000596046448,7.22525691986084,1.8903921842575073],"max":[0.15000000596046448,7.3147430419921875,2.5896077156066895]},{"bufferView":10,"componentType":5126,"count":324,"type":"VEC3"},{"bufferView":11,"componentType":5126,"count":324,"type":"VEC2"}],"extras":{"library":"Civic Foundry","units":"metres","up":"+Y","front":"+Z","lod":0}}