{"asset":{"version":"2.0","generator":"SLOPMERICA Civic Foundry 1.0"},"scene":0,"scenes":[{"nodes":[0]}],"nodes":[{"name":"street-lamp-heritage","mesh":0}],"meshes":[{"name":"street-lamp-heritage","primitives":[{"attributes":{"POSITION":0,"NORMAL":1,"TEXCOORD_0":2},"material":0,"mode":4},{"attributes":{"POSITION":3,"NORMAL":4,"TEXCOORD_0":5},"material":1,"mode":4}]}],"materials":[{"name":"metal-dark","pbrMetallicRoughness":{"baseColorFactor":[1,1,1,1],"baseColorTexture":{"index":0},"metallicRoughnessTexture":{"index":2},"roughnessFactor":1,"metallicFactor":1},"normalTexture":{"index":1,"scale":0.35},"occlusionTexture":{"index":2,"texCoord":0,"strength":0.45},"doubleSided":false,"extras":{"surface":"Charcoal brushed architectural metal.","tileMeters":1.2}},{"name":"glass-blue","pbrMetallicRoughness":{"baseColorFactor":[1,1,1,1],"baseColorTexture":{"index":3},"metallicRoughnessTexture":{"index":5},"roughnessFactor":1,"metallicFactor":1},"normalTexture":{"index":4,"scale":0.12},"occlusionTexture":{"index":5,"texCoord":0,"strength":0.45},"doubleSided":false,"extras":{"surface":"Desaturated blue-gray architectural glass with faint waviness.","tileMeters":2.5}}],"textures":[{"sampler":0,"source":0},{"sampler":0,"source":1},{"sampler":0,"source":2},{"sampler":0,"source":3},{"sampler":0,"source":4},{"sampler":0,"source":5}],"images":[{"uri":"../textures/metal-dark-albedo.png"},{"uri":"../textures/metal-dark-normal.png"},{"uri":"../textures/metal-dark-orm.png"},{"uri":"../textures/glass-blue-albedo.png"},{"uri":"../textures/glass-blue-normal.png"},{"uri":"../textures/glass-blue-orm.png"}],"samplers":[{"magFilter":9729,"minFilter":9987,"wrapS":10497,"wrapT":10497}],"buffers":[{"uri":"street-lamp-heritage.lod0.bin","byteLength":54144}],"bufferViews":[{"buffer":0,"byteOffset":0,"byteLength":12528,"target":34962},{"buffer":0,"byteOffset":12528,"byteLength":12528,"target":34962},{"buffer":0,"byteOffset":25056,"byteLength":8352,"target":34962},{"buffer":0,"byteOffset":33408,"byteLength":7776,"target":34962},{"buffer":0,"byteOffset":41184,"byteLength":7776,"target":34962},{"buffer":0,"byteOffset":48960,"byteLength":5184,"target":34962}],"accessors":[{"bufferView":0,"componentType":5126,"count":1044,"type":"VEC3","min":[-0.9767853021621704,0.004999999888241291,-0.3400000035762787],"max":[0.9767853021621704,4.614999771118164,0.3400000035762787]},{"bufferView":1,"componentType":5126,"count":1044,"type":"VEC3"},{"bufferView":2,"componentType":5126,"count":1044,"type":"VEC2"},{"bufferView":3,"componentType":5126,"count":648,"type":"VEC3","min":[-0.9100000262260437,3.609999895095825,-0.1899999976158142],"max":[0.9100000262260437,4.230000019073486,0.1899999976158142]},{"bufferView":4,"componentType":5126,"count":648,"type":"VEC3"},{"bufferView":5,"componentType":5126,"count":648,"type":"VEC2"}],"extras":{"library":"Civic Foundry","units":"metres","up":"+Y","front":"+Z","lod":0}}