{"asset":{"version":"2.0","generator":"SLOPMERICA Civic Foundry 1.0"},"scene":0,"scenes":[{"nodes":[0]}],"nodes":[{"name":"street-bollard-row","mesh":0}],"meshes":[{"name":"street-bollard-row","primitives":[{"attributes":{"POSITION":0,"NORMAL":1,"TEXCOORD_0":2},"material":0,"mode":4},{"attributes":{"POSITION":3,"NORMAL":4,"TEXCOORD_0":5},"material":1,"mode":4},{"attributes":{"POSITION":6,"NORMAL":7,"TEXCOORD_0":8},"material":2,"mode":4}]}],"materials":[{"name":"metal-dark","pbrMetallicRoughness":{"baseColorFactor":[1,1,1,1],"baseColorTexture":{"index":0},"metallicRoughnessTexture":{"index":2},"roughnessFactor":1,"metallicFactor":1},"normalTexture":{"index":1,"scale":0.35},"occlusionTexture":{"index":2,"texCoord":0,"strength":0.45},"doubleSided":false,"extras":{"surface":"Charcoal brushed architectural metal.","tileMeters":1.2}},{"name":"metal-galvanized","pbrMetallicRoughness":{"baseColorFactor":[1,1,1,1],"baseColorTexture":{"index":3},"metallicRoughnessTexture":{"index":5},"roughnessFactor":1,"metallicFactor":1},"normalTexture":{"index":4,"scale":0.15},"occlusionTexture":{"index":5,"texCoord":0,"strength":0.45},"doubleSided":false,"extras":{"surface":"Silvery galvanized steel with fine zinc spangle.","tileMeters":0.15}},{"name":"brick-cream","pbrMetallicRoughness":{"baseColorFactor":[1,1,1,1],"baseColorTexture":{"index":6},"metallicRoughnessTexture":{"index":8},"roughnessFactor":1,"metallicFactor":1},"normalTexture":{"index":7,"scale":1.05},"occlusionTexture":{"index":8,"texCoord":0,"strength":0.45},"doubleSided":false,"extras":{"surface":"Pale fired brick with subtle face variation.","tileMeters":[1.1,0.6]}}],"textures":[{"sampler":0,"source":0},{"sampler":0,"source":1},{"sampler":0,"source":2},{"sampler":0,"source":3},{"sampler":0,"source":4},{"sampler":0,"source":5},{"sampler":0,"source":6},{"sampler":0,"source":7},{"sampler":0,"source":8}],"images":[{"uri":"../textures/metal-dark-albedo.png"},{"uri":"../textures/metal-dark-normal.png"},{"uri":"../textures/metal-dark-orm.png"},{"uri":"../textures/metal-galvanized-albedo.png"},{"uri":"../textures/metal-galvanized-normal.png"},{"uri":"../textures/metal-galvanized-orm.png"},{"uri":"../textures/brick-cream-albedo.png"},{"uri":"../textures/brick-cream-normal.png"},{"uri":"../textures/brick-cream-orm.png"}],"samplers":[{"magFilter":9729,"minFilter":9987,"wrapS":10497,"wrapT":10497}],"buffers":[{"uri":"street-bollard-row.lod0.bin","byteLength":543744}],"bufferViews":[{"buffer":0,"byteOffset":0,"byteLength":8064,"target":34962},{"buffer":0,"byteOffset":8064,"byteLength":8064,"target":34962},{"buffer":0,"byteOffset":16128,"byteLength":5376,"target":34962},{"buffer":0,"byteOffset":21504,"byteLength":103680,"target":34962},{"buffer":0,"byteOffset":125184,"byteLength":103680,"target":34962},{"buffer":0,"byteOffset":228864,"byteLength":69120,"target":34962},{"buffer":0,"byteOffset":297984,"byteLength":92160,"target":34962},{"buffer":0,"byteOffset":390144,"byteLength":92160,"target":34962},{"buffer":0,"byteOffset":482304,"byteLength":61440,"target":34962}],"accessors":[{"bufferView":0,"componentType":5126,"count":672,"type":"VEC3","min":[-1.9462392330169678,-8.344650304081824e-9,-0.15000000596046448],"max":[1.9462392330169678,0.9200000166893005,0.15000000596046448]},{"bufferView":1,"componentType":5126,"count":672,"type":"VEC3"},{"bufferView":2,"componentType":5126,"count":672,"type":"VEC2"},{"bufferView":3,"componentType":5126,"count":8640,"type":"VEC3","min":[-1.9299999475479126,0.8500000238418579,-0.12999999523162842],"max":[1.9299999475479126,1.0299999713897705,0.12999999523162842]},{"bufferView":4,"componentType":5126,"count":8640,"type":"VEC3"},{"bufferView":5,"componentType":5126,"count":8640,"type":"VEC2"},{"bufferView":6,"componentType":5126,"count":7680,"type":"VEC3","min":[-1.9550000429153442,0.7049999833106995,-0.1550000011920929],"max":[1.9550000429153442,0.7549999952316284,0.1550000011920929]},{"bufferView":7,"componentType":5126,"count":7680,"type":"VEC3"},{"bufferView":8,"componentType":5126,"count":7680,"type":"VEC2"}],"extras":{"library":"Civic Foundry","units":"metres","up":"+Y","front":"+Z","lod":0}}