{"asset":{"version":"2.0","generator":"SLOPMERICA Civic Foundry 1.0"},"scene":0,"scenes":[{"nodes":[0]}],"nodes":[{"name":"street-newspaper-boxes","mesh":0}],"meshes":[{"name":"street-newspaper-boxes","primitives":[{"attributes":{"POSITION":0,"NORMAL":1,"TEXCOORD_0":2},"material":0,"mode":4},{"attributes":{"POSITION":3,"NORMAL":4,"TEXCOORD_0":5},"material":1,"mode":4},{"attributes":{"POSITION":6,"NORMAL":7,"TEXCOORD_0":8},"material":2,"mode":4},{"attributes":{"POSITION":9,"NORMAL":10,"TEXCOORD_0":11},"material":3,"mode":4}]}],"materials":[{"name":"metal-dark","pbrMetallicRoughness":{"baseColorFactor":[1,1,1,1],"baseColorTexture":{"index":0},"metallicRoughnessTexture":{"index":2},"roughnessFactor":1,"metallicFactor":1},"normalTexture":{"index":1,"scale":0.35},"occlusionTexture":{"index":2,"texCoord":0,"strength":0.45},"doubleSided":false,"extras":{"surface":"Charcoal brushed architectural metal.","tileMeters":1.2}},{"name":"brick-red","pbrMetallicRoughness":{"baseColorFactor":[1,1,1,1],"baseColorTexture":{"index":3},"metallicRoughnessTexture":{"index":5},"roughnessFactor":1,"metallicFactor":1},"normalTexture":{"index":4,"scale":1.15},"occlusionTexture":{"index":5,"texCoord":0,"strength":0.45},"doubleSided":false,"extras":{"surface":"Warm staggered clay brick with recessed mortar.","tileMeters":[1.1,0.6]}},{"name":"glass-blue","pbrMetallicRoughness":{"baseColorFactor":[1,1,1,1],"baseColorTexture":{"index":6},"metallicRoughnessTexture":{"index":8},"roughnessFactor":1,"metallicFactor":1},"normalTexture":{"index":7,"scale":0.12},"occlusionTexture":{"index":8,"texCoord":0,"strength":0.45},"doubleSided":false,"extras":{"surface":"Desaturated blue-gray architectural glass with faint waviness.","tileMeters":2.5}},{"name":"brick-cream","pbrMetallicRoughness":{"baseColorFactor":[1,1,1,1],"baseColorTexture":{"index":9},"metallicRoughnessTexture":{"index":11},"roughnessFactor":1,"metallicFactor":1},"normalTexture":{"index":10,"scale":1.05},"occlusionTexture":{"index":11,"texCoord":0,"strength":0.45},"doubleSided":false,"extras":{"surface":"Pale fired brick with subtle face variation.","tileMeters":[1.1,0.6]}}],"textures":[{"sampler":0,"source":0},{"sampler":0,"source":1},{"sampler":0,"source":2},{"sampler":0,"source":3},{"sampler":0,"source":4},{"sampler":0,"source":5},{"sampler":0,"source":6},{"sampler":0,"source":7},{"sampler":0,"source":8},{"sampler":0,"source":9},{"sampler":0,"source":10},{"sampler":0,"source":11}],"images":[{"uri":"../textures/metal-dark-albedo.png"},{"uri":"../textures/metal-dark-normal.png"},{"uri":"../textures/metal-dark-orm.png"},{"uri":"../textures/brick-red-albedo.png"},{"uri":"../textures/brick-red-normal.png"},{"uri":"../textures/brick-red-orm.png"},{"uri":"../textures/glass-blue-albedo.png"},{"uri":"../textures/glass-blue-normal.png"},{"uri":"../textures/glass-blue-orm.png"},{"uri":"../textures/brick-cream-albedo.png"},{"uri":"../textures/brick-cream-normal.png"},{"uri":"../textures/brick-cream-orm.png"}],"samplers":[{"magFilter":9729,"minFilter":9987,"wrapS":10497,"wrapT":10497}],"buffers":[{"uri":"street-newspaper-boxes.lod0.bin","byteLength":82944}],"bufferViews":[{"buffer":0,"byteOffset":0,"byteLength":15552,"target":34962},{"buffer":0,"byteOffset":15552,"byteLength":15552,"target":34962},{"buffer":0,"byteOffset":31104,"byteLength":10368,"target":34962},{"buffer":0,"byteOffset":41472,"byteLength":3888,"target":34962},{"buffer":0,"byteOffset":45360,"byteLength":3888,"target":34962},{"buffer":0,"byteOffset":49248,"byteLength":2592,"target":34962},{"buffer":0,"byteOffset":51840,"byteLength":7776,"target":34962},{"buffer":0,"byteOffset":59616,"byteLength":7776,"target":34962},{"buffer":0,"byteOffset":67392,"byteLength":5184,"target":34962},{"buffer":0,"byteOffset":72576,"byteLength":3888,"target":34962},{"buffer":0,"byteOffset":76464,"byteLength":3888,"target":34962},{"buffer":0,"byteOffset":80352,"byteLength":2592,"target":34962}],"accessors":[{"bufferView":0,"componentType":5126,"count":1296,"type":"VEC3","min":[-0.6200000047683716,-3.5762786065873797e-9,-0.20999999344348907],"max":[0.6200000047683716,0.7774999737739563,0.36250001192092896]},{"bufferView":1,"componentType":5126,"count":1296,"type":"VEC3"},{"bufferView":2,"componentType":5126,"count":1296,"type":"VEC2"},{"bufferView":3,"componentType":5126,"count":324,"type":"VEC3","min":[-0.7599999904632568,0.5399999618530273,-0.3100000023841858],"max":[-0.07999999821186066,1.4600000381469727,0.3100000023841858]},{"bufferView":4,"componentType":5126,"count":324,"type":"VEC3"},{"bufferView":5,"componentType":5126,"count":324,"type":"VEC2"},{"bufferView":6,"componentType":5126,"count":648,"type":"VEC3","min":[-0.6499999761581421,0.8799999952316284,0.3075000047683716],"max":[0.6499999761581421,1.3600000143051147,0.3425000011920929]},{"bufferView":7,"componentType":5126,"count":648,"type":"VEC3"},{"bufferView":8,"componentType":5126,"count":648,"type":"VEC2"},{"bufferView":9,"componentType":5126,"count":324,"type":"VEC3","min":[0.07999999821186066,0.5399999618530273,-0.3100000023841858],"max":[0.7599999904632568,1.4600000381469727,0.3100000023841858]},{"bufferView":10,"componentType":5126,"count":324,"type":"VEC3"},{"bufferView":11,"componentType":5126,"count":324,"type":"VEC2"}],"extras":{"library":"Civic Foundry","units":"metres","up":"+Y","front":"+Z","lod":0}}