{"asset":{"version":"2.0","generator":"SLOPMERICA Civic Foundry 1.0"},"scene":0,"scenes":[{"nodes":[0]}],"nodes":[{"name":"street-fence-picket","mesh":0}],"meshes":[{"name":"street-fence-picket","primitives":[{"attributes":{"POSITION":0,"NORMAL":1,"TEXCOORD_0":2},"material":0,"mode":4}]}],"materials":[{"name":"metal-dark","pbrMetallicRoughness":{"baseColorFactor":[1,1,1,1],"baseColorTexture":{"index":0},"metallicRoughnessTexture":{"index":2},"roughnessFactor":1,"metallicFactor":1},"normalTexture":{"index":1,"scale":0.35},"occlusionTexture":{"index":2,"texCoord":0,"strength":0.45},"doubleSided":false,"extras":{"surface":"Charcoal brushed architectural metal.","tileMeters":1.2}}],"textures":[{"sampler":0,"source":0},{"sampler":0,"source":1},{"sampler":0,"source":2}],"images":[{"uri":"../textures/metal-dark-albedo.png"},{"uri":"../textures/metal-dark-normal.png"},{"uri":"../textures/metal-dark-orm.png"}],"samplers":[{"magFilter":9729,"minFilter":9987,"wrapS":10497,"wrapT":10497}],"buffers":[{"uri":"street-fence-picket.lod1.bin","byteLength":12672}],"bufferViews":[{"buffer":0,"byteOffset":0,"byteLength":4752,"target":34962},{"buffer":0,"byteOffset":4752,"byteLength":4752,"target":34962},{"buffer":0,"byteOffset":9504,"byteLength":3168,"target":34962}],"accessors":[{"bufferView":0,"componentType":5126,"count":396,"type":"VEC3","min":[-3,2.3841858265427618e-8,-0.07999999821186066],"max":[3,1.7999999523162842,0.07999999821186066]},{"bufferView":1,"componentType":5126,"count":396,"type":"VEC3"},{"bufferView":2,"componentType":5126,"count":396,"type":"VEC2"}],"extras":{"library":"Civic Foundry","units":"metres","up":"+Y","front":"+Z","lod":1}}