{"asset":{"version":"2.0","generator":"SLOPMERICA Civic Foundry 1.0"},"scene":0,"scenes":[{"nodes":[0]}],"nodes":[{"name":"street-tree-grate","mesh":0}],"meshes":[{"name":"street-tree-grate","primitives":[{"attributes":{"POSITION":0,"NORMAL":1,"TEXCOORD_0":2},"material":0,"mode":4},{"attributes":{"POSITION":3,"NORMAL":4,"TEXCOORD_0":5},"material":1,"mode":4},{"attributes":{"POSITION":6,"NORMAL":7,"TEXCOORD_0":8},"material":2,"mode":4}]}],"materials":[{"name":"metal-dark","pbrMetallicRoughness":{"baseColorFactor":[1,1,1,1],"baseColorTexture":{"index":0},"metallicRoughnessTexture":{"index":2},"roughnessFactor":1,"metallicFactor":1},"normalTexture":{"index":1,"scale":0.35},"occlusionTexture":{"index":2,"texCoord":0,"strength":0.45},"doubleSided":false,"extras":{"surface":"Charcoal brushed architectural metal.","tileMeters":1.2}},{"name":"bark","pbrMetallicRoughness":{"baseColorFactor":[1,1,1,1],"baseColorTexture":{"index":3},"metallicRoughnessTexture":{"index":5},"roughnessFactor":1,"metallicFactor":1},"normalTexture":{"index":4,"scale":1.35},"occlusionTexture":{"index":5,"texCoord":0,"strength":0.45},"doubleSided":false,"extras":{"surface":"Deep vertically ridged brown bark.","tileMeters":1.1}},{"name":"foliage","pbrMetallicRoughness":{"baseColorFactor":[1,1,1,1],"baseColorTexture":{"index":6},"metallicRoughnessTexture":{"index":8},"roughnessFactor":1,"metallicFactor":1},"normalTexture":{"index":7,"scale":0.88},"occlusionTexture":{"index":8,"texCoord":0,"strength":0.45},"doubleSided":false,"extras":{"surface":"Layered repeating broadleaf canopy pattern.","tileMeters":1.3}}],"textures":[{"sampler":0,"source":0},{"sampler":0,"source":1},{"sampler":0,"source":2},{"sampler":0,"source":3},{"sampler":0,"source":4},{"sampler":0,"source":5},{"sampler":0,"source":6},{"sampler":0,"source":7},{"sampler":0,"source":8}],"images":[{"uri":"../textures/metal-dark-albedo.png"},{"uri":"../textures/metal-dark-normal.png"},{"uri":"../textures/metal-dark-orm.png"},{"uri":"../textures/bark-albedo.png"},{"uri":"../textures/bark-normal.png"},{"uri":"../textures/bark-orm.png"},{"uri":"../textures/foliage-albedo.png"},{"uri":"../textures/foliage-normal.png"},{"uri":"../textures/foliage-orm.png"}],"samplers":[{"magFilter":9729,"minFilter":9987,"wrapS":10497,"wrapT":10497}],"buffers":[{"uri":"street-tree-grate.lod0.bin","byteLength":665856}],"bufferViews":[{"buffer":0,"byteOffset":0,"byteLength":77040,"target":34962},{"buffer":0,"byteOffset":77040,"byteLength":77040,"target":34962},{"buffer":0,"byteOffset":154080,"byteLength":51360,"target":34962},{"buffer":0,"byteOffset":205440,"byteLength":1296,"target":34962},{"buffer":0,"byteOffset":206736,"byteLength":1296,"target":34962},{"buffer":0,"byteOffset":208032,"byteLength":864,"target":34962},{"buffer":0,"byteOffset":208896,"byteLength":171360,"target":34962},{"buffer":0,"byteOffset":380256,"byteLength":171360,"target":34962},{"buffer":0,"byteOffset":551616,"byteLength":114240,"target":34962}],"accessors":[{"bufferView":0,"componentType":5126,"count":6420,"type":"VEC3","min":[-1.024999976158142,0.004999976139515638,-1.024999976158142],"max":[1.024999976158142,1.4550000429153442,1.024999976158142]},{"bufferView":1,"componentType":5126,"count":6420,"type":"VEC3"},{"bufferView":2,"componentType":5126,"count":6420,"type":"VEC2"},{"bufferView":3,"componentType":5126,"count":108,"type":"VEC3","min":[-0.16741731762886047,0.03999997675418854,-0.15974774956703186],"max":[0.16741731762886047,2.240000009536743,0.17000000178813934]},{"bufferView":4,"componentType":5126,"count":108,"type":"VEC3"},{"bufferView":5,"componentType":5126,"count":108,"type":"VEC2"},{"bufferView":6,"componentType":5126,"count":14280,"type":"VEC3","min":[-1.1450154781341553,2.1594619750976562,-0.8562823534011841],"max":[1.1643691062927246,3.5350775718688965,0.8808549642562866]},{"bufferView":7,"componentType":5126,"count":14280,"type":"VEC3"},{"bufferView":8,"componentType":5126,"count":14280,"type":"VEC2"}],"extras":{"library":"Civic Foundry","units":"metres","up":"+Y","front":"+Z","lod":0}}