{"asset":{"version":"2.0","generator":"SLOPMERICA Civic Foundry 1.0"},"scene":0,"scenes":[{"nodes":[0]}],"nodes":[{"name":"street-signal-mast","mesh":0}],"meshes":[{"name":"street-signal-mast","primitives":[{"attributes":{"POSITION":0,"NORMAL":1,"TEXCOORD_0":2},"material":0,"mode":4},{"attributes":{"POSITION":3,"NORMAL":4,"TEXCOORD_0":5},"material":1,"mode":4},{"attributes":{"POSITION":6,"NORMAL":7,"TEXCOORD_0":8},"material":2,"mode":4},{"attributes":{"POSITION":9,"NORMAL":10,"TEXCOORD_0":11},"material":3,"mode":4},{"attributes":{"POSITION":12,"NORMAL":13,"TEXCOORD_0":14},"material":4,"mode":4},{"attributes":{"POSITION":15,"NORMAL":16,"TEXCOORD_0":17},"material":5,"mode":4}]}],"materials":[{"name":"metal-galvanized","pbrMetallicRoughness":{"baseColorFactor":[1,1,1,1],"baseColorTexture":{"index":0},"metallicRoughnessTexture":{"index":2},"roughnessFactor":1,"metallicFactor":1},"normalTexture":{"index":1,"scale":0.15},"occlusionTexture":{"index":2,"texCoord":0,"strength":0.45},"doubleSided":false,"extras":{"surface":"Silvery galvanized steel with fine zinc spangle.","tileMeters":0.15}},{"name":"concrete","pbrMetallicRoughness":{"baseColorFactor":[1,1,1,1],"baseColorTexture":{"index":3},"metallicRoughnessTexture":{"index":5},"roughnessFactor":1,"metallicFactor":1},"normalTexture":{"index":4,"scale":0.82},"occlusionTexture":{"index":5,"texCoord":0,"strength":0.45},"doubleSided":false,"extras":{"surface":"Cool concrete with embedded mineral aggregate.","tileMeters":1.8}},{"name":"metal-dark","pbrMetallicRoughness":{"baseColorFactor":[1,1,1,1],"baseColorTexture":{"index":6},"metallicRoughnessTexture":{"index":8},"roughnessFactor":1,"metallicFactor":1},"normalTexture":{"index":7,"scale":0.35},"occlusionTexture":{"index":8,"texCoord":0,"strength":0.45},"doubleSided":false,"extras":{"surface":"Charcoal brushed architectural metal.","tileMeters":1.2}},{"name":"brick-red","pbrMetallicRoughness":{"baseColorFactor":[1,1,1,1],"baseColorTexture":{"index":9},"metallicRoughnessTexture":{"index":11},"roughnessFactor":1,"metallicFactor":1},"normalTexture":{"index":10,"scale":1.15},"occlusionTexture":{"index":11,"texCoord":0,"strength":0.45},"doubleSided":false,"extras":{"surface":"Warm staggered clay brick with recessed mortar.","tileMeters":[1.1,0.6]}},{"name":"brick-cream","pbrMetallicRoughness":{"baseColorFactor":[1,1,1,1],"baseColorTexture":{"index":12},"metallicRoughnessTexture":{"index":14},"roughnessFactor":1,"metallicFactor":1},"normalTexture":{"index":13,"scale":1.05},"occlusionTexture":{"index":14,"texCoord":0,"strength":0.45},"doubleSided":false,"extras":{"surface":"Pale fired brick with subtle face variation.","tileMeters":[1.1,0.6]}},{"name":"foliage","pbrMetallicRoughness":{"baseColorFactor":[1,1,1,1],"baseColorTexture":{"index":15},"metallicRoughnessTexture":{"index":17},"roughnessFactor":1,"metallicFactor":1},"normalTexture":{"index":16,"scale":0.88},"occlusionTexture":{"index":17,"texCoord":0,"strength":0.45},"doubleSided":false,"extras":{"surface":"Layered repeating broadleaf canopy pattern.","tileMeters":1.3}}],"textures":[{"sampler":0,"source":0},{"sampler":0,"source":1},{"sampler":0,"source":2},{"sampler":0,"source":3},{"sampler":0,"source":4},{"sampler":0,"source":5},{"sampler":0,"source":6},{"sampler":0,"source":7},{"sampler":0,"source":8},{"sampler":0,"source":9},{"sampler":0,"source":10},{"sampler":0,"source":11},{"sampler":0,"source":12},{"sampler":0,"source":13},{"sampler":0,"source":14},{"sampler":0,"source":15},{"sampler":0,"source":16},{"sampler":0,"source":17}],"images":[{"uri":"../textures/metal-galvanized-albedo.png"},{"uri":"../textures/metal-galvanized-normal.png"},{"uri":"../textures/metal-galvanized-orm.png"},{"uri":"../textures/concrete-albedo.png"},{"uri":"../textures/concrete-normal.png"},{"uri":"../textures/concrete-orm.png"},{"uri":"../textures/metal-dark-albedo.png"},{"uri":"../textures/metal-dark-normal.png"},{"uri":"../textures/metal-dark-orm.png"},{"uri":"../textures/brick-red-albedo.png"},{"uri":"../textures/brick-red-normal.png"},{"uri":"../textures/brick-red-orm.png"},{"uri":"../textures/brick-cream-albedo.png"},{"uri":"../textures/brick-cream-normal.png"},{"uri":"../textures/brick-cream-orm.png"},{"uri":"../textures/foliage-albedo.png"},{"uri":"../textures/foliage-normal.png"},{"uri":"../textures/foliage-orm.png"}],"samplers":[{"magFilter":9729,"minFilter":9987,"wrapS":10497,"wrapT":10497}],"buffers":[{"uri":"street-signal-mast.lod0.bin","byteLength":82560}],"bufferViews":[{"buffer":0,"byteOffset":0,"byteLength":3312,"target":34962},{"buffer":0,"byteOffset":3312,"byteLength":3312,"target":34962},{"buffer":0,"byteOffset":6624,"byteLength":2208,"target":34962},{"buffer":0,"byteOffset":8832,"byteLength":3888,"target":34962},{"buffer":0,"byteOffset":12720,"byteLength":3888,"target":34962},{"buffer":0,"byteOffset":16608,"byteLength":2592,"target":34962},{"buffer":0,"byteOffset":19200,"byteLength":11664,"target":34962},{"buffer":0,"byteOffset":30864,"byteLength":11664,"target":34962},{"buffer":0,"byteOffset":42528,"byteLength":7776,"target":34962},{"buffer":0,"byteOffset":50304,"byteLength":4032,"target":34962},{"buffer":0,"byteOffset":54336,"byteLength":4032,"target":34962},{"buffer":0,"byteOffset":58368,"byteLength":2688,"target":34962},{"buffer":0,"byteOffset":61056,"byteLength":4032,"target":34962},{"buffer":0,"byteOffset":65088,"byteLength":4032,"target":34962},{"buffer":0,"byteOffset":69120,"byteLength":2688,"target":34962},{"buffer":0,"byteOffset":71808,"byteLength":4032,"target":34962},{"buffer":0,"byteOffset":75840,"byteLength":4032,"target":34962},{"buffer":0,"byteOffset":79872,"byteLength":2688,"target":34962}],"accessors":[{"bufferView":0,"componentType":5126,"count":276,"type":"VEC3","min":[-0.23398269712924957,9.536743306171047e-8,-0.23999999463558197],"max":[0.23398269712924957,6.199999809265137,5.800000190734863]},{"bufferView":1,"componentType":5126,"count":276,"type":"VEC3"},{"bufferView":2,"componentType":5126,"count":276,"type":"VEC2"},{"bufferView":3,"componentType":5126,"count":324,"type":"VEC3","min":[-0.3100000023841858,-5.9604643443123e-10,-0.3100000023841858],"max":[0.3100000023841858,0.2800000011920929,0.3100000023841858]},{"bufferView":4,"componentType":5126,"count":324,"type":"VEC3"},{"bufferView":5,"componentType":5126,"count":324,"type":"VEC2"},{"bufferView":6,"componentType":5126,"count":972,"type":"VEC3","min":[-0.2199999988079071,2.940000057220459,0.1899999976158142],"max":[0.2199999988079071,5.639999866485596,5.159999847412109]},{"bufferView":7,"componentType":5126,"count":972,"type":"VEC3"},{"bufferView":8,"componentType":5126,"count":972,"type":"VEC2"},{"bufferView":9,"componentType":5126,"count":336,"type":"VEC3","min":[-0.11699134856462479,5.300000190734863,2.6624999046325684],"max":[0.11699134856462479,5.539999961853027,5.197500228881836]},{"bufferView":10,"componentType":5126,"count":336,"type":"VEC3"},{"bufferView":11,"componentType":5126,"count":336,"type":"VEC2"},{"bufferView":12,"componentType":5126,"count":336,"type":"VEC3","min":[-0.11699134856462479,4.940000057220459,2.6624999046325684],"max":[0.11699134856462479,5.179999828338623,5.197500228881836]},{"bufferView":13,"componentType":5126,"count":336,"type":"VEC3"},{"bufferView":14,"componentType":5126,"count":336,"type":"VEC2"},{"bufferView":15,"componentType":5126,"count":336,"type":"VEC3","min":[-0.11699134856462479,4.579999923706055,2.6624999046325684],"max":[0.11699134856462479,4.820000171661377,5.197500228881836]},{"bufferView":16,"componentType":5126,"count":336,"type":"VEC3"},{"bufferView":17,"componentType":5126,"count":336,"type":"VEC2"}],"extras":{"library":"Civic Foundry","units":"metres","up":"+Y","front":"+Z","lod":0}}