{"asset":{"version":"2.0","generator":"SLOPMERICA Civic Foundry 1.0"},"scene":0,"scenes":[{"nodes":[0]}],"nodes":[{"name":"tree-live-oak","mesh":0}],"meshes":[{"name":"tree-live-oak","primitives":[{"attributes":{"POSITION":0,"NORMAL":1,"TEXCOORD_0":2},"material":0,"mode":4},{"attributes":{"POSITION":3,"NORMAL":4,"TEXCOORD_0":5},"material":1,"mode":4}]}],"materials":[{"name":"bark","pbrMetallicRoughness":{"baseColorFactor":[1,1,1,1],"baseColorTexture":{"index":0},"metallicRoughnessTexture":{"index":2},"roughnessFactor":1,"metallicFactor":1},"normalTexture":{"index":1,"scale":1.35},"occlusionTexture":{"index":2,"texCoord":0,"strength":0.45},"doubleSided":false,"extras":{"surface":"Deep vertically ridged brown bark.","tileMeters":1.1}},{"name":"foliage","pbrMetallicRoughness":{"baseColorFactor":[1,1,1,1],"baseColorTexture":{"index":3},"metallicRoughnessTexture":{"index":5},"roughnessFactor":1,"metallicFactor":1},"normalTexture":{"index":4,"scale":0.88},"occlusionTexture":{"index":5,"texCoord":0,"strength":0.45},"doubleSided":false,"extras":{"surface":"Layered repeating broadleaf canopy pattern.","tileMeters":1.3}}],"textures":[{"sampler":0,"source":0},{"sampler":0,"source":1},{"sampler":0,"source":2},{"sampler":0,"source":3},{"sampler":0,"source":4},{"sampler":0,"source":5}],"images":[{"uri":"../textures/bark-albedo.png"},{"uri":"../textures/bark-normal.png"},{"uri":"../textures/bark-orm.png"},{"uri":"../textures/foliage-albedo.png"},{"uri":"../textures/foliage-normal.png"},{"uri":"../textures/foliage-orm.png"}],"samplers":[{"magFilter":9729,"minFilter":9987,"wrapS":10497,"wrapT":10497}],"buffers":[{"uri":"tree-live-oak.lod0.bin","byteLength":1761792}],"bufferViews":[{"buffer":0,"byteOffset":0,"byteLength":43776,"target":34962},{"buffer":0,"byteOffset":43776,"byteLength":43776,"target":34962},{"buffer":0,"byteOffset":87552,"byteLength":29184,"target":34962},{"buffer":0,"byteOffset":116736,"byteLength":616896,"target":34962},{"buffer":0,"byteOffset":733632,"byteLength":616896,"target":34962},{"buffer":0,"byteOffset":1350528,"byteLength":411264,"target":34962}],"accessors":[{"bufferView":0,"componentType":5126,"count":3648,"type":"VEC3","min":[-2.4844985008239746,0,-1.6636650562286377],"max":[2.5694878101348877,3.47987961769104,0.5]},{"bufferView":1,"componentType":5126,"count":3648,"type":"VEC3"},{"bufferView":2,"componentType":5126,"count":3648,"type":"VEC2"},{"bufferView":3,"componentType":5126,"count":51408,"type":"VEC3","min":[-3.622185468673706,2.7313549518585205,-2.728382110595703],"max":[3.778549909591675,5.712714672088623,1.8167634010314941]},{"bufferView":4,"componentType":5126,"count":51408,"type":"VEC3"},{"bufferView":5,"componentType":5126,"count":51408,"type":"VEC2"}],"extras":{"library":"Civic Foundry","units":"metres","up":"+Y","front":"+Z","lod":0}}