{"asset":{"version":"2.0","generator":"SLOPMERICA Civic Foundry 1.0"},"scene":0,"scenes":[{"nodes":[0]}],"nodes":[{"name":"tree-live-oak","mesh":0}],"meshes":[{"name":"tree-live-oak","primitives":[{"attributes":{"POSITION":0,"NORMAL":1,"TEXCOORD_0":2},"material":0,"mode":4},{"attributes":{"POSITION":3,"NORMAL":4,"TEXCOORD_0":5},"material":1,"mode":4}]}],"materials":[{"name":"bark","pbrMetallicRoughness":{"baseColorFactor":[1,1,1,1],"baseColorTexture":{"index":0},"metallicRoughnessTexture":{"index":2},"roughnessFactor":1,"metallicFactor":1},"normalTexture":{"index":1,"scale":1.35},"occlusionTexture":{"index":2,"texCoord":0,"strength":0.45},"doubleSided":false,"extras":{"surface":"Deep vertically ridged brown bark.","tileMeters":1.1}},{"name":"foliage","pbrMetallicRoughness":{"baseColorFactor":[1,1,1,1],"baseColorTexture":{"index":3},"metallicRoughnessTexture":{"index":5},"roughnessFactor":1,"metallicFactor":1},"normalTexture":{"index":4,"scale":0.88},"occlusionTexture":{"index":5,"texCoord":0,"strength":0.45},"doubleSided":false,"extras":{"surface":"Layered repeating broadleaf canopy pattern.","tileMeters":1.3}}],"textures":[{"sampler":0,"source":0},{"sampler":0,"source":1},{"sampler":0,"source":2},{"sampler":0,"source":3},{"sampler":0,"source":4},{"sampler":0,"source":5}],"images":[{"uri":"../textures/bark-albedo.png"},{"uri":"../textures/bark-normal.png"},{"uri":"../textures/bark-orm.png"},{"uri":"../textures/foliage-albedo.png"},{"uri":"../textures/foliage-normal.png"},{"uri":"../textures/foliage-orm.png"}],"samplers":[{"magFilter":9729,"minFilter":9987,"wrapS":10497,"wrapT":10497}],"buffers":[{"uri":"tree-live-oak.lod1.bin","byteLength":205056}],"bufferViews":[{"buffer":0,"byteOffset":0,"byteLength":14688,"target":34962},{"buffer":0,"byteOffset":14688,"byteLength":14688,"target":34962},{"buffer":0,"byteOffset":29376,"byteLength":9792,"target":34962},{"buffer":0,"byteOffset":39168,"byteLength":62208,"target":34962},{"buffer":0,"byteOffset":101376,"byteLength":62208,"target":34962},{"buffer":0,"byteOffset":163584,"byteLength":41472,"target":34962}],"accessors":[{"bufferView":0,"componentType":5126,"count":1224,"type":"VEC3","min":[-2.4844985008239746,0,-1.6636650562286377],"max":[2.5667030811309814,3.47987961769104,0.5]},{"bufferView":1,"componentType":5126,"count":1224,"type":"VEC3"},{"bufferView":2,"componentType":5126,"count":1224,"type":"VEC2"},{"bufferView":3,"componentType":5126,"count":5184,"type":"VEC3","min":[-3.5587382316589355,2.743255376815796,-2.7197678089141846],"max":[3.7620880603790283,5.699999809265137,1.7849236726760864]},{"bufferView":4,"componentType":5126,"count":5184,"type":"VEC3"},{"bufferView":5,"componentType":5126,"count":5184,"type":"VEC2"}],"extras":{"library":"Civic Foundry","units":"metres","up":"+Y","front":"+Z","lod":1}}