{"asset":{"version":"2.0","generator":"SLOPMERICA Civic Foundry 1.0"},"scene":0,"scenes":[{"nodes":[0]}],"nodes":[{"name":"tree-river-birch-clump","mesh":0}],"meshes":[{"name":"tree-river-birch-clump","primitives":[{"attributes":{"POSITION":0,"NORMAL":1,"TEXCOORD_0":2},"material":0,"mode":4},{"attributes":{"POSITION":3,"NORMAL":4,"TEXCOORD_0":5},"material":1,"mode":4}]}],"materials":[{"name":"bark","pbrMetallicRoughness":{"baseColorFactor":[1,1,1,1],"baseColorTexture":{"index":0},"metallicRoughnessTexture":{"index":2},"roughnessFactor":1,"metallicFactor":1},"normalTexture":{"index":1,"scale":1.35},"occlusionTexture":{"index":2,"texCoord":0,"strength":0.45},"doubleSided":false,"extras":{"surface":"Deep vertically ridged brown bark.","tileMeters":1.1}},{"name":"foliage","pbrMetallicRoughness":{"baseColorFactor":[1,1,1,1],"baseColorTexture":{"index":3},"metallicRoughnessTexture":{"index":5},"roughnessFactor":1,"metallicFactor":1},"normalTexture":{"index":4,"scale":0.88},"occlusionTexture":{"index":5,"texCoord":0,"strength":0.45},"doubleSided":false,"extras":{"surface":"Layered repeating broadleaf canopy pattern.","tileMeters":1.3}}],"textures":[{"sampler":0,"source":0},{"sampler":0,"source":1},{"sampler":0,"source":2},{"sampler":0,"source":3},{"sampler":0,"source":4},{"sampler":0,"source":5}],"images":[{"uri":"../textures/bark-albedo.png"},{"uri":"../textures/bark-normal.png"},{"uri":"../textures/bark-orm.png"},{"uri":"../textures/foliage-albedo.png"},{"uri":"../textures/foliage-normal.png"},{"uri":"../textures/foliage-orm.png"}],"samplers":[{"magFilter":9729,"minFilter":9987,"wrapS":10497,"wrapT":10497}],"buffers":[{"uri":"tree-river-birch-clump.lod0.bin","byteLength":1109376}],"bufferViews":[{"buffer":0,"byteOffset":0,"byteLength":4752,"target":34962},{"buffer":0,"byteOffset":4752,"byteLength":4752,"target":34962},{"buffer":0,"byteOffset":9504,"byteLength":3168,"target":34962},{"buffer":0,"byteOffset":12672,"byteLength":411264,"target":34962},{"buffer":0,"byteOffset":423936,"byteLength":411264,"target":34962},{"buffer":0,"byteOffset":835200,"byteLength":274176,"target":34962}],"accessors":[{"bufferView":0,"componentType":5126,"count":396,"type":"VEC3","min":[-0.558058500289917,0.01439665537327528,-0.43230366706848145],"max":[0.536191999912262,5.12029504776001,0.3100000023841858]},{"bufferView":1,"componentType":5126,"count":396,"type":"VEC3"},{"bufferView":2,"componentType":5126,"count":396,"type":"VEC2"},{"bufferView":3,"componentType":5126,"count":34272,"type":"VEC3","min":[-1.612850308418274,3.6301708221435547,-1.5493230819702148],"max":[1.6893378496170044,6.776422023773193,1.032175064086914]},{"bufferView":4,"componentType":5126,"count":34272,"type":"VEC3"},{"bufferView":5,"componentType":5126,"count":34272,"type":"VEC2"}],"extras":{"library":"Civic Foundry","units":"metres","up":"+Y","front":"+Z","lod":0}}