{"asset":{"version":"2.0","generator":"SLOPMERICA Civic Foundry 1.0"},"scene":0,"scenes":[{"nodes":[0]}],"nodes":[{"name":"tree-river-birch-clump","mesh":0}],"meshes":[{"name":"tree-river-birch-clump","primitives":[{"attributes":{"POSITION":0,"NORMAL":1,"TEXCOORD_0":2},"material":0,"mode":4},{"attributes":{"POSITION":3,"NORMAL":4,"TEXCOORD_0":5},"material":1,"mode":4}]}],"materials":[{"name":"bark","pbrMetallicRoughness":{"baseColorFactor":[1,1,1,1],"baseColorTexture":{"index":0},"metallicRoughnessTexture":{"index":2},"roughnessFactor":1,"metallicFactor":1},"normalTexture":{"index":1,"scale":1.35},"occlusionTexture":{"index":2,"texCoord":0,"strength":0.45},"doubleSided":false,"extras":{"surface":"Deep vertically ridged brown bark.","tileMeters":1.1}},{"name":"foliage","pbrMetallicRoughness":{"baseColorFactor":[1,1,1,1],"baseColorTexture":{"index":3},"metallicRoughnessTexture":{"index":5},"roughnessFactor":1,"metallicFactor":1},"normalTexture":{"index":4,"scale":0.88},"occlusionTexture":{"index":5,"texCoord":0,"strength":0.45},"doubleSided":false,"extras":{"surface":"Layered repeating broadleaf canopy pattern.","tileMeters":1.3}}],"textures":[{"sampler":0,"source":0},{"sampler":0,"source":1},{"sampler":0,"source":2},{"sampler":0,"source":3},{"sampler":0,"source":4},{"sampler":0,"source":5}],"images":[{"uri":"../textures/bark-albedo.png"},{"uri":"../textures/bark-normal.png"},{"uri":"../textures/bark-orm.png"},{"uri":"../textures/foliage-albedo.png"},{"uri":"../textures/foliage-normal.png"},{"uri":"../textures/foliage-orm.png"}],"samplers":[{"magFilter":9729,"minFilter":9987,"wrapS":10497,"wrapT":10497}],"buffers":[{"uri":"tree-river-birch-clump.lod1.bin","byteLength":117504}],"bufferViews":[{"buffer":0,"byteOffset":0,"byteLength":2592,"target":34962},{"buffer":0,"byteOffset":2592,"byteLength":2592,"target":34962},{"buffer":0,"byteOffset":5184,"byteLength":1728,"target":34962},{"buffer":0,"byteOffset":6912,"byteLength":41472,"target":34962},{"buffer":0,"byteOffset":48384,"byteLength":41472,"target":34962},{"buffer":0,"byteOffset":89856,"byteLength":27648,"target":34962}],"accessors":[{"bufferView":0,"componentType":5126,"count":216,"type":"VEC3","min":[-0.5345553159713745,0.015318452380597591,-0.4399999976158142],"max":[0.5126863121986389,5.1202569007873535,0.3100000023841858]},{"bufferView":1,"componentType":5126,"count":216,"type":"VEC3"},{"bufferView":2,"componentType":5126,"count":216,"type":"VEC2"},{"bufferView":3,"componentType":5126,"count":3456,"type":"VEC3","min":[-1.612850308418274,3.642749786376953,-1.5434247255325317],"max":[1.6623287200927734,6.753321647644043,1.0264942646026611]},{"bufferView":4,"componentType":5126,"count":3456,"type":"VEC3"},{"bufferView":5,"componentType":5126,"count":3456,"type":"VEC2"}],"extras":{"library":"Civic Foundry","units":"metres","up":"+Y","front":"+Z","lod":1}}