{"asset":{"version":"2.0","generator":"SLOPMERICA Civic Foundry 1.0"},"scene":0,"scenes":[{"nodes":[0]}],"nodes":[{"name":"tree-maple-street","mesh":0}],"meshes":[{"name":"tree-maple-street","primitives":[{"attributes":{"POSITION":0,"NORMAL":1,"TEXCOORD_0":2},"material":0,"mode":4},{"attributes":{"POSITION":3,"NORMAL":4,"TEXCOORD_0":5},"material":1,"mode":4}]}],"materials":[{"name":"bark","pbrMetallicRoughness":{"baseColorFactor":[1,1,1,1],"baseColorTexture":{"index":0},"metallicRoughnessTexture":{"index":2},"roughnessFactor":1,"metallicFactor":1},"normalTexture":{"index":1,"scale":1.35},"occlusionTexture":{"index":2,"texCoord":0,"strength":0.45},"doubleSided":false,"extras":{"surface":"Deep vertically ridged brown bark.","tileMeters":1.1}},{"name":"foliage","pbrMetallicRoughness":{"baseColorFactor":[1,1,1,1],"baseColorTexture":{"index":3},"metallicRoughnessTexture":{"index":5},"roughnessFactor":1,"metallicFactor":1},"normalTexture":{"index":4,"scale":0.88},"occlusionTexture":{"index":5,"texCoord":0,"strength":0.45},"doubleSided":false,"extras":{"surface":"Layered repeating broadleaf canopy pattern.","tileMeters":1.3}}],"textures":[{"sampler":0,"source":0},{"sampler":0,"source":1},{"sampler":0,"source":2},{"sampler":0,"source":3},{"sampler":0,"source":4},{"sampler":0,"source":5}],"images":[{"uri":"../textures/bark-albedo.png"},{"uri":"../textures/bark-normal.png"},{"uri":"../textures/bark-orm.png"},{"uri":"../textures/foliage-albedo.png"},{"uri":"../textures/foliage-normal.png"},{"uri":"../textures/foliage-orm.png"}],"samplers":[{"magFilter":9729,"minFilter":9987,"wrapS":10497,"wrapT":10497}],"buffers":[{"uri":"tree-maple-street.lod0.bin","byteLength":1486848}],"bufferViews":[{"buffer":0,"byteOffset":0,"byteLength":43488,"target":34962},{"buffer":0,"byteOffset":43488,"byteLength":43488,"target":34962},{"buffer":0,"byteOffset":86976,"byteLength":28992,"target":34962},{"buffer":0,"byteOffset":115968,"byteLength":514080,"target":34962},{"buffer":0,"byteOffset":630048,"byteLength":514080,"target":34962},{"buffer":0,"byteOffset":1144128,"byteLength":342720,"target":34962}],"accessors":[{"bufferView":0,"componentType":5126,"count":3624,"type":"VEC3","min":[-1.3419357538223267,9.536743306171047e-8,-1.0207107067108154],"max":[1.3305169343948364,4.741911888122559,0.6163498759269714]},{"bufferView":1,"componentType":5126,"count":3624,"type":"VEC3"},{"bufferView":2,"componentType":5126,"count":3624,"type":"VEC2"},{"bufferView":3,"componentType":5126,"count":42840,"type":"VEC3","min":[-2.423957347869873,3.978621482849121,-2.0660324096679688],"max":[2.4291512966156006,7.061944961547852,1.651603102684021]},{"bufferView":4,"componentType":5126,"count":42840,"type":"VEC3"},{"bufferView":5,"componentType":5126,"count":42840,"type":"VEC2"}],"extras":{"library":"Civic Foundry","units":"metres","up":"+Y","front":"+Z","lod":0}}