{"asset":{"version":"2.0","generator":"SLOPMERICA Civic Foundry 1.0"},"scene":0,"scenes":[{"nodes":[0]}],"nodes":[{"name":"wetland-reed-bed","mesh":0}],"meshes":[{"name":"wetland-reed-bed","primitives":[{"attributes":{"POSITION":0,"NORMAL":1,"TEXCOORD_0":2},"material":0,"mode":4},{"attributes":{"POSITION":3,"NORMAL":4,"TEXCOORD_0":5},"material":1,"mode":4}]}],"materials":[{"name":"foliage","pbrMetallicRoughness":{"baseColorFactor":[1,1,1,1],"baseColorTexture":{"index":0},"metallicRoughnessTexture":{"index":2},"roughnessFactor":1,"metallicFactor":1},"normalTexture":{"index":1,"scale":0.88},"occlusionTexture":{"index":2,"texCoord":0,"strength":0.45},"doubleSided":false,"extras":{"surface":"Layered repeating broadleaf canopy pattern.","tileMeters":1.3}},{"name":"bark","pbrMetallicRoughness":{"baseColorFactor":[1,1,1,1],"baseColorTexture":{"index":3},"metallicRoughnessTexture":{"index":5},"roughnessFactor":1,"metallicFactor":1},"normalTexture":{"index":4,"scale":1.35},"occlusionTexture":{"index":5,"texCoord":0,"strength":0.45},"doubleSided":false,"extras":{"surface":"Deep vertically ridged brown bark.","tileMeters":1.1}}],"textures":[{"sampler":0,"source":0},{"sampler":0,"source":1},{"sampler":0,"source":2},{"sampler":0,"source":3},{"sampler":0,"source":4},{"sampler":0,"source":5}],"images":[{"uri":"../textures/foliage-albedo.png"},{"uri":"../textures/foliage-normal.png"},{"uri":"../textures/foliage-orm.png"},{"uri":"../textures/bark-albedo.png"},{"uri":"../textures/bark-normal.png"},{"uri":"../textures/bark-orm.png"}],"samplers":[{"magFilter":9729,"minFilter":9987,"wrapS":10497,"wrapT":10497}],"buffers":[{"uri":"wetland-reed-bed.lod0.bin","byteLength":65664}],"bufferViews":[{"buffer":0,"byteOffset":0,"byteLength":15552,"target":34962},{"buffer":0,"byteOffset":15552,"byteLength":15552,"target":34962},{"buffer":0,"byteOffset":31104,"byteLength":10368,"target":34962},{"buffer":0,"byteOffset":41472,"byteLength":9072,"target":34962},{"buffer":0,"byteOffset":50544,"byteLength":9072,"target":34962},{"buffer":0,"byteOffset":59616,"byteLength":6048,"target":34962}],"accessors":[{"bufferView":0,"componentType":5126,"count":1296,"type":"VEC3","min":[-1.6216505765914917,-2.3841858265427618e-8,-1.225000023841858],"max":[1.6216505765914917,1.75,1.225000023841858]},{"bufferView":1,"componentType":5126,"count":1296,"type":"VEC3"},{"bufferView":2,"componentType":5126,"count":1296,"type":"VEC2"},{"bufferView":3,"componentType":5126,"count":756,"type":"VEC3","min":[-1.643871784210205,0.9599999785423279,-1.2405436038970947],"max":[1.243871808052063,1.6399999856948853,1.2450000047683716]},{"bufferView":4,"componentType":5126,"count":756,"type":"VEC3"},{"bufferView":5,"componentType":5126,"count":756,"type":"VEC2"}],"extras":{"library":"Civic Foundry","units":"metres","up":"+Y","front":"+Z","lod":0}}