{"asset":{"version":"2.0","generator":"SLOPMERICA Civic Foundry 1.0"},"scene":0,"scenes":[{"nodes":[0]}],"nodes":[{"name":"window-triple-ribbon","mesh":0}],"meshes":[{"name":"window-triple-ribbon","primitives":[{"attributes":{"POSITION":0,"NORMAL":1,"TEXCOORD_0":2},"material":0,"mode":4},{"attributes":{"POSITION":3,"NORMAL":4,"TEXCOORD_0":5},"material":1,"mode":4},{"attributes":{"POSITION":6,"NORMAL":7,"TEXCOORD_0":8},"material":2,"mode":4},{"attributes":{"POSITION":9,"NORMAL":10,"TEXCOORD_0":11},"material":3,"mode":4}]}],"materials":[{"name":"concrete","pbrMetallicRoughness":{"baseColorFactor":[1,1,1,1],"baseColorTexture":{"index":0},"metallicRoughnessTexture":{"index":2},"roughnessFactor":1,"metallicFactor":1},"normalTexture":{"index":1,"scale":0.82},"occlusionTexture":{"index":2,"texCoord":0,"strength":0.45},"doubleSided":false,"extras":{"surface":"Cool concrete with embedded mineral aggregate.","tileMeters":1.8}},{"name":"glass-blue","pbrMetallicRoughness":{"baseColorFactor":[1,1,1,1],"baseColorTexture":{"index":3},"metallicRoughnessTexture":{"index":5},"roughnessFactor":1,"metallicFactor":1},"normalTexture":{"index":4,"scale":0.12},"occlusionTexture":{"index":5,"texCoord":0,"strength":0.45},"doubleSided":false,"extras":{"surface":"Desaturated blue-gray architectural glass with faint waviness.","tileMeters":2.5}},{"name":"metal-dark","pbrMetallicRoughness":{"baseColorFactor":[1,1,1,1],"baseColorTexture":{"index":6},"metallicRoughnessTexture":{"index":8},"roughnessFactor":1,"metallicFactor":1},"normalTexture":{"index":7,"scale":0.35},"occlusionTexture":{"index":8,"texCoord":0,"strength":0.45},"doubleSided":false,"extras":{"surface":"Charcoal brushed architectural metal.","tileMeters":1.2}},{"name":"limestone","pbrMetallicRoughness":{"baseColorFactor":[1,1,1,1],"baseColorTexture":{"index":9},"metallicRoughnessTexture":{"index":11},"roughnessFactor":1,"metallicFactor":1},"normalTexture":{"index":10,"scale":0.9},"occlusionTexture":{"index":11,"texCoord":0,"strength":0.45},"doubleSided":false,"extras":{"surface":"Warm coursed limestone blocks with fine joints.","tileMeters":1.4}}],"textures":[{"sampler":0,"source":0},{"sampler":0,"source":1},{"sampler":0,"source":2},{"sampler":0,"source":3},{"sampler":0,"source":4},{"sampler":0,"source":5},{"sampler":0,"source":6},{"sampler":0,"source":7},{"sampler":0,"source":8},{"sampler":0,"source":9},{"sampler":0,"source":10},{"sampler":0,"source":11}],"images":[{"uri":"../textures/concrete-albedo.png"},{"uri":"../textures/concrete-normal.png"},{"uri":"../textures/concrete-orm.png"},{"uri":"../textures/glass-blue-albedo.png"},{"uri":"../textures/glass-blue-normal.png"},{"uri":"../textures/glass-blue-orm.png"},{"uri":"../textures/metal-dark-albedo.png"},{"uri":"../textures/metal-dark-normal.png"},{"uri":"../textures/metal-dark-orm.png"},{"uri":"../textures/limestone-albedo.png"},{"uri":"../textures/limestone-normal.png"},{"uri":"../textures/limestone-orm.png"}],"samplers":[{"magFilter":9729,"minFilter":9987,"wrapS":10497,"wrapT":10497}],"buffers":[{"uri":"window-triple-ribbon.lod0.bin","byteLength":217728}],"bufferViews":[{"buffer":0,"byteOffset":0,"byteLength":11664,"target":34962},{"buffer":0,"byteOffset":11664,"byteLength":11664,"target":34962},{"buffer":0,"byteOffset":23328,"byteLength":7776,"target":34962},{"buffer":0,"byteOffset":31104,"byteLength":11664,"target":34962},{"buffer":0,"byteOffset":42768,"byteLength":11664,"target":34962},{"buffer":0,"byteOffset":54432,"byteLength":7776,"target":34962},{"buffer":0,"byteOffset":62208,"byteLength":46656,"target":34962},{"buffer":0,"byteOffset":108864,"byteLength":46656,"target":34962},{"buffer":0,"byteOffset":155520,"byteLength":31104,"target":34962},{"buffer":0,"byteOffset":186624,"byteLength":11664,"target":34962},{"buffer":0,"byteOffset":198288,"byteLength":11664,"target":34962},{"buffer":0,"byteOffset":209952,"byteLength":7776,"target":34962}],"accessors":[{"bufferView":0,"componentType":5126,"count":972,"type":"VEC3","min":[-1.8650000095367432,0.045000020414590836,-0.08500000089406967],"max":[1.8650000095367432,1.5850000381469727,0.015000000596046448]},{"bufferView":1,"componentType":5126,"count":972,"type":"VEC3"},{"bufferView":2,"componentType":5126,"count":972,"type":"VEC2"},{"bufferView":3,"componentType":5126,"count":972,"type":"VEC3","min":[-1.7450000047683716,0.16500002145767212,0.01249999925494194],"max":[1.7450000047683716,1.465000033378601,0.057500001043081284]},{"bufferView":4,"componentType":5126,"count":972,"type":"VEC3"},{"bufferView":5,"componentType":5126,"count":972,"type":"VEC2"},{"bufferView":6,"componentType":5126,"count":3888,"type":"VEC3","min":[-1.8200000524520874,0.08999999612569809,0.04000000283122063],"max":[1.8200000524520874,1.5399999618530273,0.1599999964237213]},{"bufferView":7,"componentType":5126,"count":3888,"type":"VEC3"},{"bufferView":8,"componentType":5126,"count":3888,"type":"VEC2"},{"bufferView":9,"componentType":5126,"count":972,"type":"VEC3","min":[-1.9049999713897705,-1.7881393032936899e-9,-0.024999994784593582],"max":[1.9049999713897705,0.09000000357627869,0.23499999940395355]},{"bufferView":10,"componentType":5126,"count":972,"type":"VEC3"},{"bufferView":11,"componentType":5126,"count":972,"type":"VEC2"}],"extras":{"library":"Civic Foundry","units":"metres","up":"+Y","front":"+Z","lod":0}}