{"asset":{"version":"2.0","generator":"SLOPMERICA Civic Foundry 1.0"},"scene":0,"scenes":[{"nodes":[0]}],"nodes":[{"name":"window-civic-pediment","mesh":0}],"meshes":[{"name":"window-civic-pediment","primitives":[{"attributes":{"POSITION":0,"NORMAL":1,"TEXCOORD_0":2},"material":0,"mode":4},{"attributes":{"POSITION":3,"NORMAL":4,"TEXCOORD_0":5},"material":1,"mode":4},{"attributes":{"POSITION":6,"NORMAL":7,"TEXCOORD_0":8},"material":2,"mode":4}]}],"materials":[{"name":"limestone","pbrMetallicRoughness":{"baseColorFactor":[1,1,1,1],"baseColorTexture":{"index":0},"metallicRoughnessTexture":{"index":2},"roughnessFactor":1,"metallicFactor":1},"normalTexture":{"index":1,"scale":0.9},"occlusionTexture":{"index":2,"texCoord":0,"strength":0.45},"doubleSided":false,"extras":{"surface":"Warm coursed limestone blocks with fine joints.","tileMeters":1.4}},{"name":"glass-blue","pbrMetallicRoughness":{"baseColorFactor":[1,1,1,1],"baseColorTexture":{"index":3},"metallicRoughnessTexture":{"index":5},"roughnessFactor":1,"metallicFactor":1},"normalTexture":{"index":4,"scale":0.12},"occlusionTexture":{"index":5,"texCoord":0,"strength":0.45},"doubleSided":false,"extras":{"surface":"Desaturated blue-gray architectural glass with faint waviness.","tileMeters":2.5}},{"name":"wood-painted","pbrMetallicRoughness":{"baseColorFactor":[1,1,1,1],"baseColorTexture":{"index":6},"metallicRoughnessTexture":{"index":8},"roughnessFactor":1,"metallicFactor":1},"normalTexture":{"index":7,"scale":0.55},"occlusionTexture":{"index":8,"texCoord":0,"strength":0.45},"doubleSided":false,"extras":{"surface":"Painted timber boards with restrained worn grain.","tileMeters":1.6}}],"textures":[{"sampler":0,"source":0},{"sampler":0,"source":1},{"sampler":0,"source":2},{"sampler":0,"source":3},{"sampler":0,"source":4},{"sampler":0,"source":5},{"sampler":0,"source":6},{"sampler":0,"source":7},{"sampler":0,"source":8}],"images":[{"uri":"../textures/limestone-albedo.png"},{"uri":"../textures/limestone-normal.png"},{"uri":"../textures/limestone-orm.png"},{"uri":"../textures/glass-blue-albedo.png"},{"uri":"../textures/glass-blue-normal.png"},{"uri":"../textures/glass-blue-orm.png"},{"uri":"../textures/wood-painted-albedo.png"},{"uri":"../textures/wood-painted-normal.png"},{"uri":"../textures/wood-painted-orm.png"}],"samplers":[{"magFilter":9729,"minFilter":9987,"wrapS":10497,"wrapT":10497}],"buffers":[{"uri":"window-civic-pediment.lod1.bin","byteLength":11520}],"bufferViews":[{"buffer":0,"byteOffset":0,"byteLength":2160,"target":34962},{"buffer":0,"byteOffset":2160,"byteLength":2160,"target":34962},{"buffer":0,"byteOffset":4320,"byteLength":1440,"target":34962},{"buffer":0,"byteOffset":5760,"byteLength":432,"target":34962},{"buffer":0,"byteOffset":6192,"byteLength":432,"target":34962},{"buffer":0,"byteOffset":6624,"byteLength":288,"target":34962},{"buffer":0,"byteOffset":6912,"byteLength":1728,"target":34962},{"buffer":0,"byteOffset":8640,"byteLength":1728,"target":34962},{"buffer":0,"byteOffset":10368,"byteLength":1152,"target":34962}],"accessors":[{"bufferView":0,"componentType":5126,"count":180,"type":"VEC3","min":[-0.9599999785423279,-1.7881393032936899e-9,-0.08500000089406967],"max":[0.9599999785423279,2.744999885559082,0.23499999940395355]},{"bufferView":1,"componentType":5126,"count":180,"type":"VEC3"},{"bufferView":2,"componentType":5126,"count":180,"type":"VEC2"},{"bufferView":3,"componentType":5126,"count":36,"type":"VEC3","min":[-0.7099999785423279,0.1650000512599945,0.01249999925494194],"max":[0.7099999785423279,2.2849998474121094,0.057500001043081284]},{"bufferView":4,"componentType":5126,"count":36,"type":"VEC3"},{"bufferView":5,"componentType":5126,"count":36,"type":"VEC2"},{"bufferView":6,"componentType":5126,"count":144,"type":"VEC3","min":[-0.7850000262260437,0.08999999612569809,0.04000000283122063],"max":[0.7850000262260437,2.359999895095825,0.1599999964237213]},{"bufferView":7,"componentType":5126,"count":144,"type":"VEC3"},{"bufferView":8,"componentType":5126,"count":144,"type":"VEC2"}],"extras":{"library":"Civic Foundry","units":"metres","up":"+Y","front":"+Z","lod":1}}