{"asset":{"version":"2.0","generator":"SLOPMERICA Civic Foundry 1.0"},"scene":0,"scenes":[{"nodes":[0]}],"nodes":[{"name":"window-industrial-steel","mesh":0}],"meshes":[{"name":"window-industrial-steel","primitives":[{"attributes":{"POSITION":0,"NORMAL":1,"TEXCOORD_0":2},"material":0,"mode":4},{"attributes":{"POSITION":3,"NORMAL":4,"TEXCOORD_0":5},"material":1,"mode":4}]}],"materials":[{"name":"concrete","pbrMetallicRoughness":{"baseColorFactor":[1,1,1,1],"baseColorTexture":{"index":0},"metallicRoughnessTexture":{"index":2},"roughnessFactor":1,"metallicFactor":1},"normalTexture":{"index":1,"scale":0.82},"occlusionTexture":{"index":2,"texCoord":0,"strength":0.45},"doubleSided":false,"extras":{"surface":"Cool concrete with embedded mineral aggregate.","tileMeters":1.8}},{"name":"glass-blue","pbrMetallicRoughness":{"baseColorFactor":[1,1,1,1],"baseColorTexture":{"index":3},"metallicRoughnessTexture":{"index":5},"roughnessFactor":1,"metallicFactor":1},"normalTexture":{"index":4,"scale":0.12},"occlusionTexture":{"index":5,"texCoord":0,"strength":0.45},"doubleSided":false,"extras":{"surface":"Desaturated blue-gray architectural glass with faint waviness.","tileMeters":2.5}}],"textures":[{"sampler":0,"source":0},{"sampler":0,"source":1},{"sampler":0,"source":2},{"sampler":0,"source":3},{"sampler":0,"source":4},{"sampler":0,"source":5}],"images":[{"uri":"../textures/concrete-albedo.png"},{"uri":"../textures/concrete-normal.png"},{"uri":"../textures/concrete-orm.png"},{"uri":"../textures/glass-blue-albedo.png"},{"uri":"../textures/glass-blue-normal.png"},{"uri":"../textures/glass-blue-orm.png"}],"samplers":[{"magFilter":9729,"minFilter":9987,"wrapS":10497,"wrapT":10497}],"buffers":[{"uri":"window-industrial-steel.lod2.bin","byteLength":2304}],"bufferViews":[{"buffer":0,"byteOffset":0,"byteLength":432,"target":34962},{"buffer":0,"byteOffset":432,"byteLength":432,"target":34962},{"buffer":0,"byteOffset":864,"byteLength":288,"target":34962},{"buffer":0,"byteOffset":1152,"byteLength":432,"target":34962},{"buffer":0,"byteOffset":1584,"byteLength":432,"target":34962},{"buffer":0,"byteOffset":2016,"byteLength":288,"target":34962}],"accessors":[{"bufferView":0,"componentType":5126,"count":36,"type":"VEC3","min":[-1.5199999809265137,0.044999994337558746,-0.08500000089406967],"max":[1.5199999809265137,2.5350000858306885,0.015000000596046448]},{"bufferView":1,"componentType":5126,"count":36,"type":"VEC3"},{"bufferView":2,"componentType":5126,"count":36,"type":"VEC2"},{"bufferView":3,"componentType":5126,"count":36,"type":"VEC3","min":[-1.399999976158142,0.16500000655651093,0.01249999925494194],"max":[1.399999976158142,2.4149999618530273,0.057500001043081284]},{"bufferView":4,"componentType":5126,"count":36,"type":"VEC3"},{"bufferView":5,"componentType":5126,"count":36,"type":"VEC2"}],"extras":{"library":"Civic Foundry","units":"metres","up":"+Y","front":"+Z","lod":2}}