{"asset":{"version":"2.0","generator":"SLOPMERICA Civic Foundry 1.0"},"scene":0,"scenes":[{"nodes":[0]}],"nodes":[{"name":"window-bay-copper","mesh":0}],"meshes":[{"name":"window-bay-copper","primitives":[{"attributes":{"POSITION":0,"NORMAL":1,"TEXCOORD_0":2},"material":0,"mode":4},{"attributes":{"POSITION":3,"NORMAL":4,"TEXCOORD_0":5},"material":1,"mode":4},{"attributes":{"POSITION":6,"NORMAL":7,"TEXCOORD_0":8},"material":2,"mode":4},{"attributes":{"POSITION":9,"NORMAL":10,"TEXCOORD_0":11},"material":3,"mode":4},{"attributes":{"POSITION":12,"NORMAL":13,"TEXCOORD_0":14},"material":4,"mode":4}]}],"materials":[{"name":"brick-cream","pbrMetallicRoughness":{"baseColorFactor":[1,1,1,1],"baseColorTexture":{"index":0},"metallicRoughnessTexture":{"index":2},"roughnessFactor":1,"metallicFactor":1},"normalTexture":{"index":1,"scale":1.05},"occlusionTexture":{"index":2,"texCoord":0,"strength":0.45},"doubleSided":false,"extras":{"surface":"Pale fired brick with subtle face variation.","tileMeters":[1.1,0.6]}},{"name":"limestone","pbrMetallicRoughness":{"baseColorFactor":[1,1,1,1],"baseColorTexture":{"index":3},"metallicRoughnessTexture":{"index":5},"roughnessFactor":1,"metallicFactor":1},"normalTexture":{"index":4,"scale":0.9},"occlusionTexture":{"index":5,"texCoord":0,"strength":0.45},"doubleSided":false,"extras":{"surface":"Warm coursed limestone blocks with fine joints.","tileMeters":1.4}},{"name":"glass-blue","pbrMetallicRoughness":{"baseColorFactor":[1,1,1,1],"baseColorTexture":{"index":6},"metallicRoughnessTexture":{"index":8},"roughnessFactor":1,"metallicFactor":1},"normalTexture":{"index":7,"scale":0.12},"occlusionTexture":{"index":8,"texCoord":0,"strength":0.45},"doubleSided":false,"extras":{"surface":"Desaturated blue-gray architectural glass with faint waviness.","tileMeters":2.5}},{"name":"wood-painted","pbrMetallicRoughness":{"baseColorFactor":[1,1,1,1],"baseColorTexture":{"index":9},"metallicRoughnessTexture":{"index":11},"roughnessFactor":1,"metallicFactor":1},"normalTexture":{"index":10,"scale":0.55},"occlusionTexture":{"index":11,"texCoord":0,"strength":0.45},"doubleSided":false,"extras":{"surface":"Painted timber boards with restrained worn grain.","tileMeters":1.6}},{"name":"metal-copper","pbrMetallicRoughness":{"baseColorFactor":[1,1,1,1],"baseColorTexture":{"index":12},"metallicRoughnessTexture":{"index":14},"roughnessFactor":1,"metallicFactor":1},"normalTexture":{"index":13,"scale":0.7},"occlusionTexture":{"index":14,"texCoord":0,"strength":0.45},"doubleSided":false,"extras":{"surface":"Copper sheet with controlled turquoise oxidation.","tileMeters":1.25}}],"textures":[{"sampler":0,"source":0},{"sampler":0,"source":1},{"sampler":0,"source":2},{"sampler":0,"source":3},{"sampler":0,"source":4},{"sampler":0,"source":5},{"sampler":0,"source":6},{"sampler":0,"source":7},{"sampler":0,"source":8},{"sampler":0,"source":9},{"sampler":0,"source":10},{"sampler":0,"source":11},{"sampler":0,"source":12},{"sampler":0,"source":13},{"sampler":0,"source":14}],"images":[{"uri":"../textures/brick-cream-albedo.png"},{"uri":"../textures/brick-cream-normal.png"},{"uri":"../textures/brick-cream-orm.png"},{"uri":"../textures/limestone-albedo.png"},{"uri":"../textures/limestone-normal.png"},{"uri":"../textures/limestone-orm.png"},{"uri":"../textures/glass-blue-albedo.png"},{"uri":"../textures/glass-blue-normal.png"},{"uri":"../textures/glass-blue-orm.png"},{"uri":"../textures/wood-painted-albedo.png"},{"uri":"../textures/wood-painted-normal.png"},{"uri":"../textures/wood-painted-orm.png"},{"uri":"../textures/metal-copper-albedo.png"},{"uri":"../textures/metal-copper-normal.png"},{"uri":"../textures/metal-copper-orm.png"}],"samplers":[{"magFilter":9729,"minFilter":9987,"wrapS":10497,"wrapT":10497}],"buffers":[{"uri":"window-bay-copper.lod0.bin","byteLength":134784}],"bufferViews":[{"buffer":0,"byteOffset":0,"byteLength":3888,"target":34962},{"buffer":0,"byteOffset":3888,"byteLength":3888,"target":34962},{"buffer":0,"byteOffset":7776,"byteLength":2592,"target":34962},{"buffer":0,"byteOffset":10368,"byteLength":7776,"target":34962},{"buffer":0,"byteOffset":18144,"byteLength":7776,"target":34962},{"buffer":0,"byteOffset":25920,"byteLength":5184,"target":34962},{"buffer":0,"byteOffset":31104,"byteLength":11664,"target":34962},{"buffer":0,"byteOffset":42768,"byteLength":11664,"target":34962},{"buffer":0,"byteOffset":54432,"byteLength":7776,"target":34962},{"buffer":0,"byteOffset":62208,"byteLength":23328,"target":34962},{"buffer":0,"byteOffset":85536,"byteLength":23328,"target":34962},{"buffer":0,"byteOffset":108864,"byteLength":15552,"target":34962},{"buffer":0,"byteOffset":124416,"byteLength":3888,"target":34962},{"buffer":0,"byteOffset":128304,"byteLength":3888,"target":34962},{"buffer":0,"byteOffset":132192,"byteLength":2592,"target":34962}],"accessors":[{"bufferView":0,"componentType":5126,"count":324,"type":"VEC3","min":[-1.5199999809265137,-3.5762786065873797e-9,-1.4305114426349519e-8],"max":[1.5199999809265137,0.6800000071525574,0.7200000286102295]},{"bufferView":1,"componentType":5126,"count":324,"type":"VEC3"},{"bufferView":2,"componentType":5126,"count":324,"type":"VEC2"},{"bufferView":3,"componentType":5126,"count":648,"type":"VEC3","min":[-0.996999979019165,0.5149999856948853,0.6349999904632568],"max":[0.996999979019165,2.450000047683716,0.9549999833106995]},{"bufferView":4,"componentType":5126,"count":648,"type":"VEC3"},{"bufferView":5,"componentType":5126,"count":648,"type":"VEC2"},{"bufferView":6,"componentType":5126,"count":972,"type":"VEC3","min":[-1.4000904560089111,0.6800000071525574,0.27375251054763794],"max":[1.4000904560089111,2.3299999237060547,0.7774999737739563]},{"bufferView":7,"componentType":5126,"count":972,"type":"VEC3"},{"bufferView":8,"componentType":5126,"count":972,"type":"VEC2"},{"bufferView":9,"componentType":5126,"count":1944,"type":"VEC3","min":[-0.9120000004768372,0.6050000190734863,0.7599999904632568],"max":[0.9120000004768372,2.4049999713897705,0.9075000286102295]},{"bufferView":10,"componentType":5126,"count":1944,"type":"VEC3"},{"bufferView":11,"componentType":5126,"count":1944,"type":"VEC2"},{"bufferView":12,"componentType":5126,"count":324,"type":"VEC3","min":[-1.5700000524520874,2.440000057220459,-0.10999999940395355],"max":[1.5700000524520874,2.5799999237060547,0.8299999833106995]},{"bufferView":13,"componentType":5126,"count":324,"type":"VEC3"},{"bufferView":14,"componentType":5126,"count":324,"type":"VEC2"}],"extras":{"library":"Civic Foundry","units":"metres","up":"+Y","front":"+Z","lod":0}}