{"asset":{"version":"2.0","generator":"SLOPMERICA Civic Foundry 1.0"},"scene":0,"scenes":[{"nodes":[0]}],"nodes":[{"name":"window-bay-copper","mesh":0}],"meshes":[{"name":"window-bay-copper","primitives":[{"attributes":{"POSITION":0,"NORMAL":1,"TEXCOORD_0":2},"material":0,"mode":4},{"attributes":{"POSITION":3,"NORMAL":4,"TEXCOORD_0":5},"material":1,"mode":4},{"attributes":{"POSITION":6,"NORMAL":7,"TEXCOORD_0":8},"material":2,"mode":4},{"attributes":{"POSITION":9,"NORMAL":10,"TEXCOORD_0":11},"material":3,"mode":4}]}],"materials":[{"name":"brick-cream","pbrMetallicRoughness":{"baseColorFactor":[1,1,1,1],"baseColorTexture":{"index":0},"metallicRoughnessTexture":{"index":2},"roughnessFactor":1,"metallicFactor":1},"normalTexture":{"index":1,"scale":1.05},"occlusionTexture":{"index":2,"texCoord":0,"strength":0.45},"doubleSided":false,"extras":{"surface":"Pale fired brick with subtle face variation.","tileMeters":[1.1,0.6]}},{"name":"limestone","pbrMetallicRoughness":{"baseColorFactor":[1,1,1,1],"baseColorTexture":{"index":3},"metallicRoughnessTexture":{"index":5},"roughnessFactor":1,"metallicFactor":1},"normalTexture":{"index":4,"scale":0.9},"occlusionTexture":{"index":5,"texCoord":0,"strength":0.45},"doubleSided":false,"extras":{"surface":"Warm coursed limestone blocks with fine joints.","tileMeters":1.4}},{"name":"glass-blue","pbrMetallicRoughness":{"baseColorFactor":[1,1,1,1],"baseColorTexture":{"index":6},"metallicRoughnessTexture":{"index":8},"roughnessFactor":1,"metallicFactor":1},"normalTexture":{"index":7,"scale":0.12},"occlusionTexture":{"index":8,"texCoord":0,"strength":0.45},"doubleSided":false,"extras":{"surface":"Desaturated blue-gray architectural glass with faint waviness.","tileMeters":2.5}},{"name":"metal-copper","pbrMetallicRoughness":{"baseColorFactor":[1,1,1,1],"baseColorTexture":{"index":9},"metallicRoughnessTexture":{"index":11},"roughnessFactor":1,"metallicFactor":1},"normalTexture":{"index":10,"scale":0.7},"occlusionTexture":{"index":11,"texCoord":0,"strength":0.45},"doubleSided":false,"extras":{"surface":"Copper sheet with controlled turquoise oxidation.","tileMeters":1.25}}],"textures":[{"sampler":0,"source":0},{"sampler":0,"source":1},{"sampler":0,"source":2},{"sampler":0,"source":3},{"sampler":0,"source":4},{"sampler":0,"source":5},{"sampler":0,"source":6},{"sampler":0,"source":7},{"sampler":0,"source":8},{"sampler":0,"source":9},{"sampler":0,"source":10},{"sampler":0,"source":11}],"images":[{"uri":"../textures/brick-cream-albedo.png"},{"uri":"../textures/brick-cream-normal.png"},{"uri":"../textures/brick-cream-orm.png"},{"uri":"../textures/limestone-albedo.png"},{"uri":"../textures/limestone-normal.png"},{"uri":"../textures/limestone-orm.png"},{"uri":"../textures/glass-blue-albedo.png"},{"uri":"../textures/glass-blue-normal.png"},{"uri":"../textures/glass-blue-orm.png"},{"uri":"../textures/metal-copper-albedo.png"},{"uri":"../textures/metal-copper-normal.png"},{"uri":"../textures/metal-copper-orm.png"}],"samplers":[{"magFilter":9729,"minFilter":9987,"wrapS":10497,"wrapT":10497}],"buffers":[{"uri":"window-bay-copper.lod2.bin","byteLength":6912}],"bufferViews":[{"buffer":0,"byteOffset":0,"byteLength":432,"target":34962},{"buffer":0,"byteOffset":432,"byteLength":432,"target":34962},{"buffer":0,"byteOffset":864,"byteLength":288,"target":34962},{"buffer":0,"byteOffset":1152,"byteLength":432,"target":34962},{"buffer":0,"byteOffset":1584,"byteLength":432,"target":34962},{"buffer":0,"byteOffset":2016,"byteLength":288,"target":34962},{"buffer":0,"byteOffset":2304,"byteLength":1296,"target":34962},{"buffer":0,"byteOffset":3600,"byteLength":1296,"target":34962},{"buffer":0,"byteOffset":4896,"byteLength":864,"target":34962},{"buffer":0,"byteOffset":5760,"byteLength":432,"target":34962},{"buffer":0,"byteOffset":6192,"byteLength":432,"target":34962},{"buffer":0,"byteOffset":6624,"byteLength":288,"target":34962}],"accessors":[{"bufferView":0,"componentType":5126,"count":36,"type":"VEC3","min":[-1.5199999809265137,-3.5762786065873797e-9,-1.4305114426349519e-8],"max":[1.5199999809265137,0.6800000071525574,0.7200000286102295]},{"bufferView":1,"componentType":5126,"count":36,"type":"VEC3"},{"bufferView":2,"componentType":5126,"count":36,"type":"VEC2"},{"bufferView":3,"componentType":5126,"count":36,"type":"VEC3","min":[-0.9570000171661377,0.5600000023841858,0.6349999904632568],"max":[0.9570000171661377,2.450000047683716,0.7350000143051147]},{"bufferView":4,"componentType":5126,"count":36,"type":"VEC3"},{"bufferView":5,"componentType":5126,"count":36,"type":"VEC2"},{"bufferView":6,"componentType":5126,"count":108,"type":"VEC3","min":[-1.403250813484192,0.6800000071525574,0.2705921530723572],"max":[1.403250813484192,2.3299999237060547,0.7774999737739563]},{"bufferView":7,"componentType":5126,"count":108,"type":"VEC3"},{"bufferView":8,"componentType":5126,"count":108,"type":"VEC2"},{"bufferView":9,"componentType":5126,"count":36,"type":"VEC3","min":[-1.5700000524520874,2.440000057220459,-0.10999999940395355],"max":[1.5700000524520874,2.5799999237060547,0.8299999833106995]},{"bufferView":10,"componentType":5126,"count":36,"type":"VEC3"},{"bufferView":11,"componentType":5126,"count":36,"type":"VEC2"}],"extras":{"library":"Civic Foundry","units":"metres","up":"+Y","front":"+Z","lod":2}}