{"asset":{"version":"2.0","generator":"SLOPMERICA Civic Foundry 1.0"},"scene":0,"scenes":[{"nodes":[0]}],"nodes":[{"name":"window-paired-sash","mesh":0}],"meshes":[{"name":"window-paired-sash","primitives":[{"attributes":{"POSITION":0,"NORMAL":1,"TEXCOORD_0":2},"material":0,"mode":4},{"attributes":{"POSITION":3,"NORMAL":4,"TEXCOORD_0":5},"material":1,"mode":4},{"attributes":{"POSITION":6,"NORMAL":7,"TEXCOORD_0":8},"material":2,"mode":4},{"attributes":{"POSITION":9,"NORMAL":10,"TEXCOORD_0":11},"material":3,"mode":4},{"attributes":{"POSITION":12,"NORMAL":13,"TEXCOORD_0":14},"material":4,"mode":4}]}],"materials":[{"name":"brick-cream","pbrMetallicRoughness":{"baseColorFactor":[1,1,1,1],"baseColorTexture":{"index":0},"metallicRoughnessTexture":{"index":2},"roughnessFactor":1,"metallicFactor":1},"normalTexture":{"index":1,"scale":1.05},"occlusionTexture":{"index":2,"texCoord":0,"strength":0.45},"doubleSided":false,"extras":{"surface":"Pale fired brick with subtle face variation.","tileMeters":[1.1,0.6]}},{"name":"glass-blue","pbrMetallicRoughness":{"baseColorFactor":[1,1,1,1],"baseColorTexture":{"index":3},"metallicRoughnessTexture":{"index":5},"roughnessFactor":1,"metallicFactor":1},"normalTexture":{"index":4,"scale":0.12},"occlusionTexture":{"index":5,"texCoord":0,"strength":0.45},"doubleSided":false,"extras":{"surface":"Desaturated blue-gray architectural glass with faint waviness.","tileMeters":2.5}},{"name":"wood-painted","pbrMetallicRoughness":{"baseColorFactor":[1,1,1,1],"baseColorTexture":{"index":6},"metallicRoughnessTexture":{"index":8},"roughnessFactor":1,"metallicFactor":1},"normalTexture":{"index":7,"scale":0.55},"occlusionTexture":{"index":8,"texCoord":0,"strength":0.45},"doubleSided":false,"extras":{"surface":"Painted timber boards with restrained worn grain.","tileMeters":1.6}},{"name":"limestone","pbrMetallicRoughness":{"baseColorFactor":[1,1,1,1],"baseColorTexture":{"index":9},"metallicRoughnessTexture":{"index":11},"roughnessFactor":1,"metallicFactor":1},"normalTexture":{"index":10,"scale":0.9},"occlusionTexture":{"index":11,"texCoord":0,"strength":0.45},"doubleSided":false,"extras":{"surface":"Warm coursed limestone blocks with fine joints.","tileMeters":1.4}},{"name":"brick-red","pbrMetallicRoughness":{"baseColorFactor":[1,1,1,1],"baseColorTexture":{"index":12},"metallicRoughnessTexture":{"index":14},"roughnessFactor":1,"metallicFactor":1},"normalTexture":{"index":13,"scale":1.15},"occlusionTexture":{"index":14,"texCoord":0,"strength":0.45},"doubleSided":false,"extras":{"surface":"Warm staggered clay brick with recessed mortar.","tileMeters":[1.1,0.6]}}],"textures":[{"sampler":0,"source":0},{"sampler":0,"source":1},{"sampler":0,"source":2},{"sampler":0,"source":3},{"sampler":0,"source":4},{"sampler":0,"source":5},{"sampler":0,"source":6},{"sampler":0,"source":7},{"sampler":0,"source":8},{"sampler":0,"source":9},{"sampler":0,"source":10},{"sampler":0,"source":11},{"sampler":0,"source":12},{"sampler":0,"source":13},{"sampler":0,"source":14}],"images":[{"uri":"../textures/brick-cream-albedo.png"},{"uri":"../textures/brick-cream-normal.png"},{"uri":"../textures/brick-cream-orm.png"},{"uri":"../textures/glass-blue-albedo.png"},{"uri":"../textures/glass-blue-normal.png"},{"uri":"../textures/glass-blue-orm.png"},{"uri":"../textures/wood-painted-albedo.png"},{"uri":"../textures/wood-painted-normal.png"},{"uri":"../textures/wood-painted-orm.png"},{"uri":"../textures/limestone-albedo.png"},{"uri":"../textures/limestone-normal.png"},{"uri":"../textures/limestone-orm.png"},{"uri":"../textures/brick-red-albedo.png"},{"uri":"../textures/brick-red-normal.png"},{"uri":"../textures/brick-red-orm.png"}],"samplers":[{"magFilter":9729,"minFilter":9987,"wrapS":10497,"wrapT":10497}],"buffers":[{"uri":"window-paired-sash.lod1.bin","byteLength":9216}],"bufferViews":[{"buffer":0,"byteOffset":0,"byteLength":432,"target":34962},{"buffer":0,"byteOffset":432,"byteLength":432,"target":34962},{"buffer":0,"byteOffset":864,"byteLength":288,"target":34962},{"buffer":0,"byteOffset":1152,"byteLength":432,"target":34962},{"buffer":0,"byteOffset":1584,"byteLength":432,"target":34962},{"buffer":0,"byteOffset":2016,"byteLength":288,"target":34962},{"buffer":0,"byteOffset":2304,"byteLength":1728,"target":34962},{"buffer":0,"byteOffset":4032,"byteLength":1728,"target":34962},{"buffer":0,"byteOffset":5760,"byteLength":1152,"target":34962},{"buffer":0,"byteOffset":6912,"byteLength":432,"target":34962},{"buffer":0,"byteOffset":7344,"byteLength":432,"target":34962},{"buffer":0,"byteOffset":7776,"byteLength":288,"target":34962},{"buffer":0,"byteOffset":8064,"byteLength":432,"target":34962},{"buffer":0,"byteOffset":8496,"byteLength":432,"target":34962},{"buffer":0,"byteOffset":8928,"byteLength":288,"target":34962}],"accessors":[{"bufferView":0,"componentType":5126,"count":36,"type":"VEC3","min":[-1.2899999618530273,0.044999994337558746,-0.08500000089406967],"max":[1.2899999618530273,1.9049999713897705,0.015000000596046448]},{"bufferView":1,"componentType":5126,"count":36,"type":"VEC3"},{"bufferView":2,"componentType":5126,"count":36,"type":"VEC2"},{"bufferView":3,"componentType":5126,"count":36,"type":"VEC3","min":[-1.1699999570846558,0.16499999165534973,0.01249999925494194],"max":[1.1699999570846558,1.784999966621399,0.057500001043081284]},{"bufferView":4,"componentType":5126,"count":36,"type":"VEC3"},{"bufferView":5,"componentType":5126,"count":36,"type":"VEC2"},{"bufferView":6,"componentType":5126,"count":144,"type":"VEC3","min":[-1.2450000047683716,0.08999999612569809,0.04000000283122063],"max":[1.2450000047683716,1.8600000143051147,0.1599999964237213]},{"bufferView":7,"componentType":5126,"count":144,"type":"VEC3"},{"bufferView":8,"componentType":5126,"count":144,"type":"VEC2"},{"bufferView":9,"componentType":5126,"count":36,"type":"VEC3","min":[-1.3300000429153442,-1.7881393032936899e-9,-0.024999994784593582],"max":[1.3300000429153442,0.09000000357627869,0.23499999940395355]},{"bufferView":10,"componentType":5126,"count":36,"type":"VEC3"},{"bufferView":11,"componentType":5126,"count":36,"type":"VEC2"},{"bufferView":12,"componentType":5126,"count":36,"type":"VEC3","min":[-1.3600000143051147,1.8799999952316284,-0.030000001192092896],"max":[1.3600000143051147,2.009999990463257,0.17000000178813934]},{"bufferView":13,"componentType":5126,"count":36,"type":"VEC3"},{"bufferView":14,"componentType":5126,"count":36,"type":"VEC2"}],"extras":{"library":"Civic Foundry","units":"metres","up":"+Y","front":"+Z","lod":1}}