{"asset":{"version":"2.0","generator":"SLOPMERICA Department of Unnecessary Development 1.0"},"scene":0,"scenes":[{"name":"LOD 0","nodes":[0,1,2,3,4,5,6,7,8,9,10,11,12,13,14],"extras":{"level":0}},{"name":"LOD 1","nodes":[15,16,17,18,19,20,21,22,23,24,25,26,27,28,29],"extras":{"level":1}},{"name":"LOD 2","nodes":[30,31,32,33,34,35,36,37,38,39,40,41],"extras":{"level":2}}],"nodes":[{"name":"site-pad","mesh":0,"translation":[0,0.06,0],"scale":[12.8128,0.12,3.328]},{"name":"variant-apron","mesh":1,"translation":[-2.4024,0.13,1.82],"scale":[2.7104,0.08,0.8]},{"name":"bollard-0","mesh":2,"translation":[-4.6816,0.43,1.94],"scale":[0.08,0.62,0.08]},{"name":"layout-cabinet","mesh":3,"translation":[-6.36,0.495,-0.72],"scale":[0.45,0.75,0.32]},{"name":"deferred-maintenance-skip","mesh":4,"translation":[4.1888,0.5,-1.408],"scale":[1.15,0.75,0.65]},{"name":"skip-rubble","mesh":5,"translation":[4.1888,0.98,-1.408],"scale":[0.72,0.2,0.5]},{"name":"left-pier","mesh":6,"translation":[-6.16,3.1,0],"scale":[0.55,6,0.55]},{"name":"right-pier","mesh":6,"translation":[6.16,3.1,0],"scale":[0.55,6,0.55]},{"name":"gantry-truss","mesh":7,"translation":[0,5.8,0],"scale":[12.87,0.48,0.55]},{"name":"lane-rate-0-back","mesh":8,"translation":[-2.2176,5.05,0.36],"scale":[1.8,1.3,1]},{"name":"lane-rate-0","mesh":9,"translation":[-2.2176,5.05,0.389],"scale":[1.7,1.2,1]},{"name":"lane-rate-1-back","mesh":8,"translation":[2.2176,5.05,0.36],"scale":[1.8,1.3,1]},{"name":"lane-rate-1","mesh":9,"translation":[2.2176,5.05,0.389],"scale":[1.7,1.2,1]},{"name":"camera-0","mesh":10,"translation":[-2.1,6.18,0],"rotation":[0.707107,0,0,0.707107],"scale":[0.16,0.35,0.16]},{"name":"camera-1","mesh":10,"translation":[-0.7,6.18,0],"rotation":[0.707107,0,0,0.707107],"scale":[0.16,0.35,0.16]},{"name":"site-pad","mesh":11,"translation":[0,0.06,0],"scale":[12.8128,0.12,3.328]},{"name":"variant-apron","mesh":12,"translation":[-2.4024,0.13,1.82],"scale":[2.7104,0.08,0.8]},{"name":"bollard-0","mesh":13,"translation":[-4.6816,0.43,1.94],"scale":[0.08,0.62,0.08]},{"name":"layout-cabinet","mesh":14,"translation":[-6.36,0.495,-0.72],"scale":[0.45,0.75,0.32]},{"name":"deferred-maintenance-skip","mesh":15,"translation":[4.1888,0.5,-1.408],"scale":[1.15,0.75,0.65]},{"name":"skip-rubble","mesh":16,"translation":[4.1888,0.98,-1.408],"scale":[0.72,0.2,0.5]},{"name":"left-pier","mesh":17,"translation":[-6.16,3.1,0],"scale":[0.55,6,0.55]},{"name":"right-pier","mesh":17,"translation":[6.16,3.1,0],"scale":[0.55,6,0.55]},{"name":"gantry-truss","mesh":18,"translation":[0,5.8,0],"scale":[12.87,0.48,0.55]},{"name":"lane-rate-0-back","mesh":8,"translation":[-2.2176,5.05,0.36],"scale":[1.8,1.3,1]},{"name":"lane-rate-0","mesh":9,"translation":[-2.2176,5.05,0.389],"scale":[1.7,1.2,1]},{"name":"lane-rate-1-back","mesh":8,"translation":[2.2176,5.05,0.36],"scale":[1.8,1.3,1]},{"name":"lane-rate-1","mesh":9,"translation":[2.2176,5.05,0.389],"scale":[1.7,1.2,1]},{"name":"camera-0","mesh":19,"translation":[-2.1,6.18,0],"rotation":[0.707107,0,0,0.707107],"scale":[0.16,0.35,0.16]},{"name":"camera-1","mesh":19,"translation":[-0.7,6.18,0],"rotation":[0.707107,0,0,0.707107],"scale":[0.16,0.35,0.16]},{"name":"site-pad","mesh":11,"translation":[0,0.06,0],"scale":[12.8128,0.12,3.328]},{"name":"variant-apron","mesh":12,"translation":[-2.4024,0.13,1.82],"scale":[2.7104,0.08,0.8]},{"name":"bollard-0","mesh":13,"translation":[-4.6816,0.43,1.94],"scale":[0.08,0.62,0.08]},{"name":"layout-cabinet","mesh":14,"translation":[-6.36,0.495,-0.72],"scale":[0.45,0.75,0.32]},{"name":"deferred-maintenance-skip","mesh":15,"translation":[4.1888,0.5,-1.408],"scale":[1.15,0.75,0.65]},{"name":"left-pier","mesh":17,"translation":[-6.16,3.1,0],"scale":[0.55,6,0.55]},{"name":"right-pier","mesh":17,"translation":[6.16,3.1,0],"scale":[0.55,6,0.55]},{"name":"gantry-truss","mesh":18,"translation":[0,5.8,0],"scale":[12.87,0.48,0.55]},{"name":"lane-rate-0-back","mesh":8,"translation":[-2.2176,5.05,0.36],"scale":[1.8,1.3,1]},{"name":"lane-rate-0","mesh":9,"translation":[-2.2176,5.05,0.389],"scale":[1.7,1.2,1]},{"name":"lane-rate-1-back","mesh":8,"translation":[2.2176,5.05,0.36],"scale":[1.8,1.3,1]},{"name":"lane-rate-1","mesh":9,"translation":[2.2176,5.05,0.389],"scale":[1.7,1.2,1]}],"meshes":[{"primitives":[{"attributes":{"POSITION":0,"NORMAL":1,"TEXCOORD_0":2},"material":0,"mode":4}]},{"primitives":[{"attributes":{"POSITION":0,"NORMAL":1,"TEXCOORD_0":3},"material":0,"mode":4}]},{"primitives":[{"attributes":{"POSITION":4,"NORMAL":5,"TEXCOORD_0":6},"material":1,"mode":4,"indices":7}]},{"primitives":[{"attributes":{"POSITION":0,"NORMAL":1,"TEXCOORD_0":8},"material":2,"mode":4}]},{"primitives":[{"attributes":{"POSITION":0,"NORMAL":1,"TEXCOORD_0":9},"material":1,"mode":4}]},{"primitives":[{"attributes":{"POSITION":0,"NORMAL":1,"TEXCOORD_0":10},"material":3,"mode":4}]},{"primitives":[{"attributes":{"POSITION":0,"NORMAL":1,"TEXCOORD_0":11},"material":2,"mode":4}]},{"primitives":[{"attributes":{"POSITION":0,"NORMAL":1,"TEXCOORD_0":12},"material":2,"mode":4}]},{"primitives":[{"attributes":{"POSITION":13,"NORMAL":14,"TEXCOORD_0":15},"material":4,"mode":4,"indices":16}]},{"primitives":[{"attributes":{"POSITION":17,"NORMAL":18,"TEXCOORD_0":19},"material":5,"mode":4,"indices":20}]},{"primitives":[{"attributes":{"POSITION":21,"NORMAL":22,"TEXCOORD_0":23},"material":4,"mode":4,"indices":7}]},{"primitives":[{"attributes":{"POSITION":24,"NORMAL":14,"TEXCOORD_0":25},"material":0,"mode":4,"indices":16}]},{"primitives":[{"attributes":{"POSITION":24,"NORMAL":14,"TEXCOORD_0":26},"material":0,"mode":4,"indices":16}]},{"primitives":[{"attributes":{"POSITION":27,"NORMAL":28,"TEXCOORD_0":29},"material":1,"mode":4,"indices":30}]},{"primitives":[{"attributes":{"POSITION":24,"NORMAL":14,"TEXCOORD_0":31},"material":2,"mode":4,"indices":16}]},{"primitives":[{"attributes":{"POSITION":24,"NORMAL":14,"TEXCOORD_0":32},"material":1,"mode":4,"indices":16}]},{"primitives":[{"attributes":{"POSITION":24,"NORMAL":14,"TEXCOORD_0":33},"material":3,"mode":4,"indices":16}]},{"primitives":[{"attributes":{"POSITION":24,"NORMAL":14,"TEXCOORD_0":34},"material":2,"mode":4,"indices":16}]},{"primitives":[{"attributes":{"POSITION":24,"NORMAL":14,"TEXCOORD_0":35},"material":2,"mode":4,"indices":16}]},{"primitives":[{"attributes":{"POSITION":36,"NORMAL":37,"TEXCOORD_0":38},"material":4,"mode":4,"indices":30}]}],"materials":[{"name":"asphalt","pbrMetallicRoughness":{"baseColorTexture":{"index":0},"metallicRoughnessTexture":{"index":2},"roughnessFactor":1,"metallicFactor":1},"normalTexture":{"index":1,"scale":0.62},"occlusionTexture":{"index":2,"strength":0.35}},{"name":"paint-orange","pbrMetallicRoughness":{"baseColorFactor":[0.6444796819634361,0.1878207722902346,0.040915196900556984,1],"roughnessFactor":0.68,"metallicFactor":0.03}},{"name":"metal-galvanized","pbrMetallicRoughness":{"baseColorTexture":{"index":3},"metallicRoughnessTexture":{"index":5},"roughnessFactor":1,"metallicFactor":1},"normalTexture":{"index":4,"scale":0.15},"occlusionTexture":{"index":5,"strength":0.35}},{"name":"concrete","pbrMetallicRoughness":{"baseColorTexture":{"index":6},"metallicRoughnessTexture":{"index":8},"roughnessFactor":1,"metallicFactor":1},"normalTexture":{"index":7,"scale":0.82},"occlusionTexture":{"index":8,"strength":0.35}},{"name":"metal-dark","pbrMetallicRoughness":{"baseColorTexture":{"index":9},"metallicRoughnessTexture":{"index":11},"roughnessFactor":1,"metallicFactor":1},"normalTexture":{"index":10,"scale":0.35},"occlusionTexture":{"index":11,"strength":0.35}},{"name":"express-lane-gantry signage","pbrMetallicRoughness":{"baseColorTexture":{"index":12},"roughnessFactor":1,"metallicFactor":0},"extensions":{"KHR_materials_unlit":{}}}],"textures":[{"source":0,"sampler":0},{"source":1,"sampler":0},{"source":2,"sampler":0},{"source":3,"sampler":0},{"source":4,"sampler":0},{"source":5,"sampler":0},{"source":6,"sampler":0},{"source":7,"sampler":0},{"source":8,"sampler":0},{"source":9,"sampler":0},{"source":10,"sampler":0},{"source":11,"sampler":0},{"source":12,"sampler":0}],"images":[{"uri":"../textures/asphalt-albedo.png"},{"uri":"../textures/asphalt-normal.png"},{"uri":"../textures/asphalt-orm.png"},{"uri":"../textures/metal-galvanized-albedo.png"},{"uri":"../textures/metal-galvanized-normal.png"},{"uri":"../textures/metal-galvanized-orm.png"},{"uri":"../textures/concrete-albedo.png"},{"uri":"../textures/concrete-normal.png"},{"uri":"../textures/concrete-orm.png"},{"uri":"../textures/metal-dark-albedo.png"},{"uri":"../textures/metal-dark-normal.png"},{"uri":"../textures/metal-dark-orm.png"},{"uri":"../signs/express-lane-gantry.png"}],"samplers":[{"magFilter":9729,"minFilter":9987,"wrapS":10497,"wrapT":10497}],"buffers":[{"uri":"../shared/geometry.bin","byteLength":16435520}],"bufferViews":[{"buffer":0,"byteOffset":0,"byteLength":3888,"target":34962},{"buffer":0,"byteOffset":3888,"byteLength":3888,"target":34962},{"buffer":0,"byteOffset":4336848,"byteLength":2592,"target":34962},{"buffer":0,"byteOffset":4339440,"byteLength":2592,"target":34962},{"buffer":0,"byteOffset":12960,"byteLength":1200,"target":34962},{"buffer":0,"byteOffset":14160,"byteLength":1200,"target":34962},{"buffer":0,"byteOffset":15360,"byteLength":800,"target":34962},{"buffer":0,"byteOffset":16160,"byteLength":384,"target":34963},{"buffer":0,"byteOffset":16544,"byteLength":2592,"target":34962},{"buffer":0,"byteOffset":205668,"byteLength":2592,"target":34962},{"buffer":0,"byteOffset":208260,"byteLength":2592,"target":34962},{"buffer":0,"byteOffset":4342032,"byteLength":2592,"target":34962},{"buffer":0,"byteOffset":4344624,"byteLength":2592,"target":34962},{"buffer":0,"byteOffset":45664,"byteLength":288,"target":34962},{"buffer":0,"byteOffset":45952,"byteLength":288,"target":34962},{"buffer":0,"byteOffset":46240,"byteLength":192,"target":34962},{"buffer":0,"byteOffset":46432,"byteLength":72,"target":34963},{"buffer":0,"byteOffset":46504,"byteLength":48,"target":34962},{"buffer":0,"byteOffset":46552,"byteLength":48,"target":34962},{"buffer":0,"byteOffset":210852,"byteLength":32,"target":34962},{"buffer":0,"byteOffset":46632,"byteLength":12,"target":34963},{"buffer":0,"byteOffset":4347216,"byteLength":1200,"target":34962},{"buffer":0,"byteOffset":4348416,"byteLength":1200,"target":34962},{"buffer":0,"byteOffset":4349616,"byteLength":800,"target":34962},{"buffer":0,"byteOffset":46644,"byteLength":288,"target":34962},{"buffer":0,"byteOffset":4350416,"byteLength":192,"target":34962},{"buffer":0,"byteOffset":4350608,"byteLength":192,"target":34962},{"buffer":0,"byteOffset":47316,"byteLength":480,"target":34962},{"buffer":0,"byteOffset":47796,"byteLength":480,"target":34962},{"buffer":0,"byteOffset":48276,"byteLength":320,"target":34962},{"buffer":0,"byteOffset":48596,"byteLength":144,"target":34963},{"buffer":0,"byteOffset":48740,"byteLength":192,"target":34962},{"buffer":0,"byteOffset":210884,"byteLength":192,"target":34962},{"buffer":0,"byteOffset":211076,"byteLength":192,"target":34962},{"buffer":0,"byteOffset":4350800,"byteLength":192,"target":34962},{"buffer":0,"byteOffset":4350992,"byteLength":192,"target":34962},{"buffer":0,"byteOffset":4351184,"byteLength":480,"target":34962},{"buffer":0,"byteOffset":4351664,"byteLength":480,"target":34962},{"buffer":0,"byteOffset":4352144,"byteLength":320,"target":34962}],"accessors":[{"bufferView":0,"componentType":5126,"count":324,"type":"VEC3","min":[-0.5,-0.5,-0.5],"max":[0.5,0.5,0.5]},{"bufferView":1,"componentType":5126,"count":324,"type":"VEC3"},{"bufferView":2,"componentType":5126,"count":324,"type":"VEC2"},{"bufferView":3,"componentType":5126,"count":324,"type":"VEC2"},{"bufferView":4,"componentType":5126,"count":100,"type":"VEC3","min":[-1,-0.5,-1],"max":[1,0.5,1]},{"bufferView":5,"componentType":5126,"count":100,"type":"VEC3"},{"bufferView":6,"componentType":5126,"count":100,"type":"VEC2"},{"bufferView":7,"componentType":5123,"count":192,"type":"SCALAR"},{"bufferView":8,"componentType":5126,"count":324,"type":"VEC2"},{"bufferView":9,"componentType":5126,"count":324,"type":"VEC2"},{"bufferView":10,"componentType":5126,"count":324,"type":"VEC2"},{"bufferView":11,"componentType":5126,"count":324,"type":"VEC2"},{"bufferView":12,"componentType":5126,"count":324,"type":"VEC2"},{"bufferView":13,"componentType":5126,"count":24,"type":"VEC3","min":[-0.5,-0.5,-0.02500000037252903],"max":[0.5,0.5,0.02500000037252903]},{"bufferView":14,"componentType":5126,"count":24,"type":"VEC3"},{"bufferView":15,"componentType":5126,"count":24,"type":"VEC2"},{"bufferView":16,"componentType":5123,"count":36,"type":"SCALAR"},{"bufferView":17,"componentType":5126,"count":4,"type":"VEC3","min":[-0.5,-0.5,0],"max":[0.5,0.5,0]},{"bufferView":18,"componentType":5126,"count":4,"type":"VEC3"},{"bufferView":19,"componentType":5126,"count":4,"type":"VEC2"},{"bufferView":20,"componentType":5123,"count":6,"type":"SCALAR"},{"bufferView":21,"componentType":5126,"count":100,"type":"VEC3","min":[-1,-0.5,-1],"max":[1,0.5,1]},{"bufferView":22,"componentType":5126,"count":100,"type":"VEC3"},{"bufferView":23,"componentType":5126,"count":100,"type":"VEC2"},{"bufferView":24,"componentType":5126,"count":24,"type":"VEC3","min":[-0.5,-0.5,-0.5],"max":[0.5,0.5,0.5]},{"bufferView":25,"componentType":5126,"count":24,"type":"VEC2"},{"bufferView":26,"componentType":5126,"count":24,"type":"VEC2"},{"bufferView":27,"componentType":5126,"count":40,"type":"VEC3","min":[-0.8660253882408142,-0.5,-1],"max":[0.8660253882408142,0.5,1]},{"bufferView":28,"componentType":5126,"count":40,"type":"VEC3"},{"bufferView":29,"componentType":5126,"count":40,"type":"VEC2"},{"bufferView":30,"componentType":5123,"count":72,"type":"SCALAR"},{"bufferView":31,"componentType":5126,"count":24,"type":"VEC2"},{"bufferView":32,"componentType":5126,"count":24,"type":"VEC2"},{"bufferView":33,"componentType":5126,"count":24,"type":"VEC2"},{"bufferView":34,"componentType":5126,"count":24,"type":"VEC2"},{"bufferView":35,"componentType":5126,"count":24,"type":"VEC2"},{"bufferView":36,"componentType":5126,"count":40,"type":"VEC3","min":[-0.8660253882408142,-0.5,-1],"max":[0.8660253882408142,0.5,1]},{"bufferView":37,"componentType":5126,"count":40,"type":"VEC3"},{"bufferView":38,"componentType":5126,"count":40,"type":"VEC2"}],"extensionsUsed":["KHR_materials_unlit"],"extras":{"id":"vlt-express-lane-gantry-21","family":"express-lane-gantry","variant":20,"plan":"A1-2","units":"metres","up":"+Y","front":"+Z","lodScenes":[0,1,2]}}