{"asset":{"version":"2.0","generator":"SLOPMERICA Department of Unnecessary Development 1.0"},"scene":0,"scenes":[{"name":"LOD 0","nodes":[0,1,2,3,4,5,6,7,8,9,10,11,12,13,14,15],"extras":{"level":0}},{"name":"LOD 1","nodes":[16,17,18,19,20,21,22,23,24,25,26,27,28,29,30],"extras":{"level":1}},{"name":"LOD 2","nodes":[31,32,33,34,35,36,37,38,39,40,41,42,43,44],"extras":{"level":2}}],"nodes":[{"name":"foundation","mesh":0,"translation":[0,0.08,0],"scale":[19.88,0.16,15.71]},{"name":"congress-store","mesh":1,"translation":[0,2.4948,0],"scale":[6.3648,4.9896,6.3648]},{"name":"rotunda-dome","mesh":2,"translation":[0,6.3756,0],"scale":[6.7184,2.9106,6.7184]},{"name":"snack-wing-0","mesh":3,"translation":[5.244442,1.4553,0.605673],"rotation":[0,-0.07493,0,0.997189],"scale":[6.3648,2.9106,3.7828]},{"name":"snack-wing-1","mesh":4,"translation":[-0.79262,1.4553,4.007489],"rotation":[0,-0.758102,0,0.652136],"scale":[6.3648,2.9106,3.7828]},{"name":"snack-wing-2","mesh":3,"translation":[-5.244442,1.4553,-0.605673],"rotation":[0,0.997189,0,0.07493],"scale":[6.3648,2.9106,3.7828]},{"name":"snack-wing-3","mesh":4,"translation":[0.79262,1.4553,-4.007489],"rotation":[0,0.652136,0,0.758102],"scale":[6.3648,2.9106,3.7828]},{"name":"canopy","mesh":5,"translation":[0,4.4352,7.4305],"scale":[10.2544,0.35,3.7828]},{"name":"canopy-post-0","mesh":6,"translation":[-4.306848,2.1276,7.4305],"scale":[0.1,4.2552,0.1]},{"name":"canopy-post-1","mesh":6,"translation":[-1.435616,2.1276,7.4305],"scale":[0.1,4.2552,0.1]},{"name":"canopy-post-2","mesh":6,"translation":[1.435616,2.1276,7.4305],"scale":[0.1,4.2552,0.1]},{"name":"canopy-post-3","mesh":6,"translation":[4.306848,2.1276,7.4305],"scale":[0.1,4.2552,0.1]},{"name":"pole-sign-post","mesh":7,"translation":[8.1328,3.3,-5.404],"scale":[0.2,6.6,0.2]},{"name":"pole-sign-back","mesh":8,"translation":[8.1328,6.6,-5.404],"scale":[3.74,1.75,1]},{"name":"pole-sign","mesh":9,"translation":[8.1328,6.6,-5.375],"scale":[3.64,1.65,1]},{"name":"open-state-bollard","mesh":10,"translation":[7.6024,0.425,7.5656],"scale":[0.22,0.85,0.22]},{"name":"foundation","mesh":11,"translation":[0,0.08,0],"scale":[19.88,0.16,15.71]},{"name":"congress-store","mesh":12,"translation":[0,2.4948,0],"scale":[6.3648,4.9896,6.3648]},{"name":"rotunda-dome","mesh":13,"translation":[0,6.3756,0],"scale":[6.7184,2.9106,6.7184]},{"name":"snack-wing-0","mesh":14,"translation":[5.244442,1.4553,0.605673],"rotation":[0,-0.07493,0,0.997189],"scale":[6.3648,2.9106,3.7828]},{"name":"snack-wing-1","mesh":15,"translation":[-3.30865,1.4553,3.167751],"rotation":[0,0.901056,0,-0.433703],"scale":[6.3648,2.9106,3.7828]},{"name":"snack-wing-2","mesh":14,"translation":[-1.935792,1.4553,-3.773424],"rotation":[0,0.826126,0,0.563485],"scale":[6.3648,2.9106,3.7828]},{"name":"canopy","mesh":16,"translation":[0,4.4352,7.4305],"scale":[10.2544,0.35,3.7828]},{"name":"canopy-post-0","mesh":17,"translation":[-4.306848,2.1276,7.4305],"scale":[0.1,4.2552,0.1]},{"name":"canopy-post-1","mesh":17,"translation":[-1.435616,2.1276,7.4305],"scale":[0.1,4.2552,0.1]},{"name":"canopy-post-2","mesh":17,"translation":[1.435616,2.1276,7.4305],"scale":[0.1,4.2552,0.1]},{"name":"canopy-post-3","mesh":17,"translation":[4.306848,2.1276,7.4305],"scale":[0.1,4.2552,0.1]},{"name":"pole-sign-post","mesh":18,"translation":[8.1328,3.3,-5.404],"scale":[0.2,6.6,0.2]},{"name":"pole-sign-back","mesh":8,"translation":[8.1328,6.6,-5.404],"scale":[3.74,1.75,1]},{"name":"pole-sign","mesh":9,"translation":[8.1328,6.6,-5.375],"scale":[3.64,1.65,1]},{"name":"open-state-bollard","mesh":19,"translation":[7.6024,0.425,7.5656],"scale":[0.22,0.85,0.22]},{"name":"foundation","mesh":11,"translation":[0,0.08,0],"scale":[19.88,0.16,15.71]},{"name":"congress-store","mesh":20,"translation":[0,2.4948,0],"scale":[6.3648,4.9896,6.3648]},{"name":"rotunda-dome","mesh":21,"translation":[0,6.3756,0],"scale":[6.7184,2.9106,6.7184]},{"name":"snack-wing-0","mesh":14,"translation":[5.244442,1.4553,0.605673],"rotation":[0,-0.07493,0,0.997189],"scale":[6.3648,2.9106,3.7828]},{"name":"snack-wing-1","mesh":15,"translation":[-5.244442,1.4553,-0.605673],"rotation":[0,0.997189,0,0.07493],"scale":[6.3648,2.9106,3.7828]},{"name":"canopy","mesh":16,"translation":[0,4.4352,7.4305],"scale":[10.2544,0.35,3.7828]},{"name":"canopy-post-0","mesh":17,"translation":[-4.306848,2.1276,7.4305],"scale":[0.1,4.2552,0.1]},{"name":"canopy-post-1","mesh":17,"translation":[-1.435616,2.1276,7.4305],"scale":[0.1,4.2552,0.1]},{"name":"canopy-post-2","mesh":17,"translation":[1.435616,2.1276,7.4305],"scale":[0.1,4.2552,0.1]},{"name":"canopy-post-3","mesh":17,"translation":[4.306848,2.1276,7.4305],"scale":[0.1,4.2552,0.1]},{"name":"pole-sign-post","mesh":18,"translation":[8.1328,3.3,-5.404],"scale":[0.2,6.6,0.2]},{"name":"pole-sign-back","mesh":8,"translation":[8.1328,6.6,-5.404],"scale":[3.74,1.75,1]},{"name":"pole-sign","mesh":9,"translation":[8.1328,6.6,-5.375],"scale":[3.64,1.65,1]},{"name":"open-state-bollard","mesh":19,"translation":[7.6024,0.425,7.5656],"scale":[0.22,0.85,0.22]}],"meshes":[{"primitives":[{"attributes":{"POSITION":0,"NORMAL":1,"TEXCOORD_0":2},"material":0,"mode":4}]},{"primitives":[{"attributes":{"POSITION":3,"NORMAL":4,"TEXCOORD_0":5},"material":1,"mode":4,"indices":6}]},{"primitives":[{"attributes":{"POSITION":7,"NORMAL":8,"TEXCOORD_0":9},"material":2,"mode":4,"indices":10}]},{"primitives":[{"attributes":{"POSITION":11,"NORMAL":1,"TEXCOORD_0":12},"material":3,"mode":4}]},{"primitives":[{"attributes":{"POSITION":11,"NORMAL":1,"TEXCOORD_0":13},"material":4,"mode":4}]},{"primitives":[{"attributes":{"POSITION":0,"NORMAL":1,"TEXCOORD_0":14},"material":2,"mode":4}]},{"primitives":[{"attributes":{"POSITION":15,"NORMAL":16,"TEXCOORD_0":17},"material":5,"mode":4,"indices":18}]},{"primitives":[{"attributes":{"POSITION":19,"NORMAL":20,"TEXCOORD_0":21},"material":6,"mode":4,"indices":22}]},{"primitives":[{"attributes":{"POSITION":23,"NORMAL":24,"TEXCOORD_0":25},"material":6,"mode":4,"indices":26}]},{"primitives":[{"attributes":{"POSITION":27,"NORMAL":28,"TEXCOORD_0":29},"material":7,"mode":4,"indices":30}]},{"primitives":[{"attributes":{"POSITION":0,"NORMAL":1,"TEXCOORD_0":31},"material":2,"mode":4}]},{"primitives":[{"attributes":{"POSITION":32,"NORMAL":24,"TEXCOORD_0":33},"material":0,"mode":4,"indices":26}]},{"primitives":[{"attributes":{"POSITION":34,"NORMAL":35,"TEXCOORD_0":36},"material":1,"mode":4,"indices":37}]},{"primitives":[{"attributes":{"POSITION":38,"NORMAL":39,"TEXCOORD_0":40},"material":2,"mode":4,"indices":41}]},{"primitives":[{"attributes":{"POSITION":32,"NORMAL":24,"TEXCOORD_0":42},"material":3,"mode":4,"indices":26}]},{"primitives":[{"attributes":{"POSITION":32,"NORMAL":24,"TEXCOORD_0":43},"material":4,"mode":4,"indices":26}]},{"primitives":[{"attributes":{"POSITION":32,"NORMAL":24,"TEXCOORD_0":44},"material":2,"mode":4,"indices":26}]},{"primitives":[{"attributes":{"POSITION":45,"NORMAL":46,"TEXCOORD_0":47},"material":5,"mode":4,"indices":48}]},{"primitives":[{"attributes":{"POSITION":49,"NORMAL":50,"TEXCOORD_0":51},"material":6,"mode":4,"indices":48}]},{"primitives":[{"attributes":{"POSITION":32,"NORMAL":24,"TEXCOORD_0":52},"material":2,"mode":4,"indices":26}]},{"primitives":[{"attributes":{"POSITION":53,"NORMAL":54,"TEXCOORD_0":55},"material":1,"mode":4,"indices":48}]},{"primitives":[{"attributes":{"POSITION":56,"NORMAL":57,"TEXCOORD_0":58},"material":2,"mode":4,"indices":59}]}],"materials":[{"name":"concrete","pbrMetallicRoughness":{"baseColorTexture":{"index":0},"metallicRoughnessTexture":{"index":2},"roughnessFactor":1,"metallicFactor":1},"normalTexture":{"index":1,"scale":0.82},"occlusionTexture":{"index":2,"strength":0.35}},{"name":"brick-cream","pbrMetallicRoughness":{"baseColorTexture":{"index":3},"metallicRoughnessTexture":{"index":5},"roughnessFactor":1,"metallicFactor":1},"normalTexture":{"index":4,"scale":1.05},"occlusionTexture":{"index":5,"strength":0.35}},{"name":"paint-yellow","pbrMetallicRoughness":{"baseColorFactor":[0.76052450467022,0.4793201830913402,0.07818742179702069,1],"roughnessFactor":0.66,"metallicFactor":0.03}},{"name":"paint-blue","pbrMetallicRoughness":{"baseColorFactor":[0.05126945836711539,0.10946171076915331,0.22696587349938613,1],"roughnessFactor":0.58,"metallicFactor":0.05}},{"name":"brick-red","pbrMetallicRoughness":{"baseColorTexture":{"index":6},"metallicRoughnessTexture":{"index":8},"roughnessFactor":1,"metallicFactor":1},"normalTexture":{"index":7,"scale":1.15},"occlusionTexture":{"index":8,"strength":0.35}},{"name":"metal-galvanized","pbrMetallicRoughness":{"baseColorTexture":{"index":9},"metallicRoughnessTexture":{"index":11},"roughnessFactor":1,"metallicFactor":1},"normalTexture":{"index":10,"scale":0.15},"occlusionTexture":{"index":11,"strength":0.35}},{"name":"metal-dark","pbrMetallicRoughness":{"baseColorTexture":{"index":12},"metallicRoughnessTexture":{"index":14},"roughnessFactor":1,"metallicFactor":1},"normalTexture":{"index":13,"scale":0.35},"occlusionTexture":{"index":14,"strength":0.35}},{"name":"convenience-congress signage","pbrMetallicRoughness":{"baseColorTexture":{"index":15},"roughnessFactor":1,"metallicFactor":0},"extensions":{"KHR_materials_unlit":{}}}],"textures":[{"source":0,"sampler":0},{"source":1,"sampler":0},{"source":2,"sampler":0},{"source":3,"sampler":0},{"source":4,"sampler":0},{"source":5,"sampler":0},{"source":6,"sampler":0},{"source":7,"sampler":0},{"source":8,"sampler":0},{"source":9,"sampler":0},{"source":10,"sampler":0},{"source":11,"sampler":0},{"source":12,"sampler":0},{"source":13,"sampler":0},{"source":14,"sampler":0},{"source":15,"sampler":0}],"images":[{"uri":"../textures/concrete-albedo.png"},{"uri":"../textures/concrete-normal.png"},{"uri":"../textures/concrete-orm.png"},{"uri":"../textures/brick-cream-albedo.png"},{"uri":"../textures/brick-cream-normal.png"},{"uri":"../textures/brick-cream-orm.png"},{"uri":"../textures/brick-red-albedo.png"},{"uri":"../textures/brick-red-normal.png"},{"uri":"../textures/brick-red-orm.png"},{"uri":"../textures/metal-galvanized-albedo.png"},{"uri":"../textures/metal-galvanized-normal.png"},{"uri":"../textures/metal-galvanized-orm.png"},{"uri":"../textures/metal-dark-albedo.png"},{"uri":"../textures/metal-dark-normal.png"},{"uri":"../textures/metal-dark-orm.png"},{"uri":"../signs/convenience-congress.png"}],"samplers":[{"magFilter":9729,"minFilter":9987,"wrapS":10497,"wrapT":10497}],"buffers":[{"uri":"../shared/geometry.bin","byteLength":16435520}],"bufferViews":[{"buffer":0,"byteOffset":0,"byteLength":3888,"target":34962},{"buffer":0,"byteOffset":3888,"byteLength":3888,"target":34962},{"buffer":0,"byteOffset":2453032,"byteLength":2592,"target":34962},{"buffer":0,"byteOffset":2347692,"byteLength":1344,"target":34962},{"buffer":0,"byteOffset":2349036,"byteLength":1344,"target":34962},{"buffer":0,"byteOffset":2388480,"byteLength":896,"target":34962},{"buffer":0,"byteOffset":2072684,"byteLength":432,"target":34963},{"buffer":0,"byteOffset":2351276,"byteLength":900,"target":34962},{"buffer":0,"byteOffset":2352176,"byteLength":900,"target":34962},{"buffer":0,"byteOffset":2389376,"byteLength":600,"target":34962},{"buffer":0,"byteOffset":2353676,"byteLength":216,"target":34963},{"buffer":0,"byteOffset":378372,"byteLength":3888,"target":34962},{"buffer":0,"byteOffset":2455624,"byteLength":2592,"target":34962},{"buffer":0,"byteOffset":2458216,"byteLength":2592,"target":34962},{"buffer":0,"byteOffset":2460808,"byteLength":2592,"target":34962},{"buffer":0,"byteOffset":1110072,"byteLength":624,"target":34962},{"buffer":0,"byteOffset":1110696,"byteLength":624,"target":34962},{"buffer":0,"byteOffset":2397752,"byteLength":416,"target":34962},{"buffer":0,"byteOffset":1111736,"byteLength":192,"target":34963},{"buffer":0,"byteOffset":2362084,"byteLength":768,"target":34962},{"buffer":0,"byteOffset":2362852,"byteLength":768,"target":34962},{"buffer":0,"byteOffset":2440296,"byteLength":512,"target":34962},{"buffer":0,"byteOffset":882248,"byteLength":240,"target":34963},{"buffer":0,"byteOffset":45664,"byteLength":288,"target":34962},{"buffer":0,"byteOffset":45952,"byteLength":288,"target":34962},{"buffer":0,"byteOffset":46240,"byteLength":192,"target":34962},{"buffer":0,"byteOffset":46432,"byteLength":72,"target":34963},{"buffer":0,"byteOffset":46504,"byteLength":48,"target":34962},{"buffer":0,"byteOffset":46552,"byteLength":48,"target":34962},{"buffer":0,"byteOffset":135812,"byteLength":32,"target":34962},{"buffer":0,"byteOffset":46632,"byteLength":12,"target":34963},{"buffer":0,"byteOffset":422312,"byteLength":2592,"target":34962},{"buffer":0,"byteOffset":46644,"byteLength":288,"target":34962},{"buffer":0,"byteOffset":2463400,"byteLength":192,"target":34962},{"buffer":0,"byteOffset":2364324,"byteLength":696,"target":34962},{"buffer":0,"byteOffset":2365020,"byteLength":696,"target":34962},{"buffer":0,"byteOffset":2398360,"byteLength":464,"target":34962},{"buffer":0,"byteOffset":2089908,"byteLength":216,"target":34963},{"buffer":0,"byteOffset":2366180,"byteLength":468,"target":34962},{"buffer":0,"byteOffset":2366648,"byteLength":468,"target":34962},{"buffer":0,"byteOffset":2398824,"byteLength":312,"target":34962},{"buffer":0,"byteOffset":2367428,"byteLength":108,"target":34963},{"buffer":0,"byteOffset":2463592,"byteLength":192,"target":34962},{"buffer":0,"byteOffset":2463784,"byteLength":192,"target":34962},{"buffer":0,"byteOffset":2463976,"byteLength":192,"target":34962},{"buffer":0,"byteOffset":1112312,"byteLength":480,"target":34962},{"buffer":0,"byteOffset":1112792,"byteLength":480,"target":34962},{"buffer":0,"byteOffset":2399712,"byteLength":320,"target":34962},{"buffer":0,"byteOffset":48596,"byteLength":144,"target":34963},{"buffer":0,"byteOffset":2368432,"byteLength":480,"target":34962},{"buffer":0,"byteOffset":2368912,"byteLength":480,"target":34962},{"buffer":0,"byteOffset":2441576,"byteLength":320,"target":34962},{"buffer":0,"byteOffset":436936,"byteLength":192,"target":34962},{"buffer":0,"byteOffset":2369712,"byteLength":480,"target":34962},{"buffer":0,"byteOffset":2370192,"byteLength":480,"target":34962},{"buffer":0,"byteOffset":2400032,"byteLength":320,"target":34962},{"buffer":0,"byteOffset":692208,"byteLength":324,"target":34962},{"buffer":0,"byteOffset":692532,"byteLength":324,"target":34962},{"buffer":0,"byteOffset":2400352,"byteLength":216,"target":34962},{"buffer":0,"byteOffset":693072,"byteLength":72,"target":34963}],"accessors":[{"bufferView":0,"componentType":5126,"count":324,"type":"VEC3","min":[-0.5,-0.5,-0.5],"max":[0.5,0.5,0.5]},{"bufferView":1,"componentType":5126,"count":324,"type":"VEC3"},{"bufferView":2,"componentType":5126,"count":324,"type":"VEC2"},{"bufferView":3,"componentType":5126,"count":112,"type":"VEC3","min":[-0.9848077297210693,-0.5,-1],"max":[0.9848077297210693,0.5,1]},{"bufferView":4,"componentType":5126,"count":112,"type":"VEC3"},{"bufferView":5,"componentType":5126,"count":112,"type":"VEC2"},{"bufferView":6,"componentType":5123,"count":216,"type":"SCALAR"},{"bufferView":7,"componentType":5126,"count":75,"type":"VEC3","min":[-0.9848077297210693,-0.5,-1],"max":[0.9848077297210693,0.5,1]},{"bufferView":8,"componentType":5126,"count":75,"type":"VEC3"},{"bufferView":9,"componentType":5126,"count":75,"type":"VEC2"},{"bufferView":10,"componentType":5123,"count":108,"type":"SCALAR"},{"bufferView":11,"componentType":5126,"count":324,"type":"VEC3","min":[-0.5,-0.5,-0.5],"max":[0.5,0.5,0.5]},{"bufferView":12,"componentType":5126,"count":324,"type":"VEC2"},{"bufferView":13,"componentType":5126,"count":324,"type":"VEC2"},{"bufferView":14,"componentType":5126,"count":324,"type":"VEC2"},{"bufferView":15,"componentType":5126,"count":52,"type":"VEC3","min":[-1,-0.5,-1],"max":[1,0.5,1]},{"bufferView":16,"componentType":5126,"count":52,"type":"VEC3"},{"bufferView":17,"componentType":5126,"count":52,"type":"VEC2"},{"bufferView":18,"componentType":5123,"count":96,"type":"SCALAR"},{"bufferView":19,"componentType":5126,"count":64,"type":"VEC3","min":[-0.9510565400123596,-0.5,-1],"max":[0.9510565400123596,0.5,1]},{"bufferView":20,"componentType":5126,"count":64,"type":"VEC3"},{"bufferView":21,"componentType":5126,"count":64,"type":"VEC2"},{"bufferView":22,"componentType":5123,"count":120,"type":"SCALAR"},{"bufferView":23,"componentType":5126,"count":24,"type":"VEC3","min":[-0.5,-0.5,-0.02500000037252903],"max":[0.5,0.5,0.02500000037252903]},{"bufferView":24,"componentType":5126,"count":24,"type":"VEC3"},{"bufferView":25,"componentType":5126,"count":24,"type":"VEC2"},{"bufferView":26,"componentType":5123,"count":36,"type":"SCALAR"},{"bufferView":27,"componentType":5126,"count":4,"type":"VEC3","min":[-0.5,-0.5,0],"max":[0.5,0.5,0]},{"bufferView":28,"componentType":5126,"count":4,"type":"VEC3"},{"bufferView":29,"componentType":5126,"count":4,"type":"VEC2"},{"bufferView":30,"componentType":5123,"count":6,"type":"SCALAR"},{"bufferView":31,"componentType":5126,"count":324,"type":"VEC2"},{"bufferView":32,"componentType":5126,"count":24,"type":"VEC3","min":[-0.5,-0.5,-0.5],"max":[0.5,0.5,0.5]},{"bufferView":33,"componentType":5126,"count":24,"type":"VEC2"},{"bufferView":34,"componentType":5126,"count":58,"type":"VEC3","min":[-0.9848077297210693,-0.5,-0.9396926164627075],"max":[0.9848077297210693,0.5,1]},{"bufferView":35,"componentType":5126,"count":58,"type":"VEC3"},{"bufferView":36,"componentType":5126,"count":58,"type":"VEC2"},{"bufferView":37,"componentType":5123,"count":108,"type":"SCALAR"},{"bufferView":38,"componentType":5126,"count":39,"type":"VEC3","min":[-0.9848077297210693,-0.5,-0.9396926164627075],"max":[0.9848077297210693,0.5,1]},{"bufferView":39,"componentType":5126,"count":39,"type":"VEC3"},{"bufferView":40,"componentType":5126,"count":39,"type":"VEC2"},{"bufferView":41,"componentType":5123,"count":54,"type":"SCALAR"},{"bufferView":42,"componentType":5126,"count":24,"type":"VEC2"},{"bufferView":43,"componentType":5126,"count":24,"type":"VEC2"},{"bufferView":44,"componentType":5126,"count":24,"type":"VEC2"},{"bufferView":45,"componentType":5126,"count":40,"type":"VEC3","min":[-0.8660253882408142,-0.5,-1],"max":[0.8660253882408142,0.5,1]},{"bufferView":46,"componentType":5126,"count":40,"type":"VEC3"},{"bufferView":47,"componentType":5126,"count":40,"type":"VEC2"},{"bufferView":48,"componentType":5123,"count":72,"type":"SCALAR"},{"bufferView":49,"componentType":5126,"count":40,"type":"VEC3","min":[-0.8660253882408142,-0.5,-1],"max":[0.8660253882408142,0.5,1]},{"bufferView":50,"componentType":5126,"count":40,"type":"VEC3"},{"bufferView":51,"componentType":5126,"count":40,"type":"VEC2"},{"bufferView":52,"componentType":5126,"count":24,"type":"VEC2"},{"bufferView":53,"componentType":5126,"count":40,"type":"VEC3","min":[-0.8660253882408142,-0.5,-1],"max":[0.8660253882408142,0.5,1]},{"bufferView":54,"componentType":5126,"count":40,"type":"VEC3"},{"bufferView":55,"componentType":5126,"count":40,"type":"VEC2"},{"bufferView":56,"componentType":5126,"count":27,"type":"VEC3","min":[-0.8660253882408142,-0.5,-1],"max":[0.8660253882408142,0.5,1]},{"bufferView":57,"componentType":5126,"count":27,"type":"VEC3"},{"bufferView":58,"componentType":5126,"count":27,"type":"VEC2"},{"bufferView":59,"componentType":5123,"count":36,"type":"SCALAR"}],"extensionsUsed":["KHR_materials_unlit"],"extras":{"id":"vlt-convenience-congress-08","family":"convenience-congress","variant":7,"plan":"B3-1","units":"metres","up":"+Y","front":"+Z","lodScenes":[0,1,2]}}