{"asset":{"version":"2.0","generator":"SLOPMERICA Department of Unnecessary Development 1.0"},"scene":0,"scenes":[{"name":"LOD 0","nodes":[0,1,2,3,4,5,6,7,8,9,10,11,12,13,14,15,16,17,18,19,20,21,22,23],"extras":{"level":0}},{"name":"LOD 1","nodes":[24,25,26,27,28,29,30,31,32,33,34,35,36,37,38,39,40,41,42,43,44,45,46,47],"extras":{"level":1}},{"name":"LOD 2","nodes":[48,49,50,51,52,53,54,55,56,57,58,59],"extras":{"level":2}}],"nodes":[{"name":"site-pad","mesh":0,"translation":[0,0.06,0],"scale":[11.232,0.12,9.984]},{"name":"variant-apron","mesh":1,"translation":[0.702,0.13,5.02],"scale":[3.456,0.08,1.16]},{"name":"bollard-0","mesh":2,"translation":[-4.104,0.43,5.14],"scale":[0.08,0.7,0.08]},{"name":"bollard-1","mesh":2,"translation":[-2.052,0.43,5.14],"scale":[0.08,0.7,0.08]},{"name":"bollard-2","mesh":2,"translation":[0,0.43,5.14],"scale":[0.08,0.7,0.08]},{"name":"bollard-3","mesh":2,"translation":[2.052,0.43,5.14],"scale":[0.08,0.7,0.08]},{"name":"bollard-4","mesh":2,"translation":[4.104,0.43,5.14],"scale":[0.08,0.7,0.08]},{"name":"layout-cabinet","mesh":3,"translation":[-5.6,0.615,0.72],"scale":[0.69,0.99,0.32]},{"name":"civic-shell","mesh":4,"translation":[0,2.064,0],"scale":[10.8,3.888,9.6]},{"name":"flat-budget-roof","mesh":5,"translation":[0,4.138,0],"scale":[11.1,0.25,9.9]},{"name":"entrance-recess","mesh":6,"translation":[0.864,1.42,4.93],"scale":[2.48,2.6,0.24]},{"name":"glass-doors","mesh":7,"translation":[0.864,1.3,5.08],"scale":[1.5,2.15,0.12]},{"name":"window-0","mesh":8,"translation":[-4.104,2.25504,4.95],"scale":[0.85,1.15,0.1]},{"name":"window-1","mesh":8,"translation":[-2.4624,2.25504,4.95],"scale":[0.85,1.15,0.1]},{"name":"window-2","mesh":8,"translation":[-0.8208,2.25504,4.95],"scale":[0.85,1.15,0.1]},{"name":"window-4","mesh":8,"translation":[2.4624,2.25504,4.95],"scale":[0.85,1.15,0.1]},{"name":"window-5","mesh":8,"translation":[4.104,2.25504,4.95],"scale":[0.85,1.15,0.1]},{"name":"civic-sign-back","mesh":9,"translation":[0,3.168,4.98],"scale":[6.3,1,1]},{"name":"civic-sign","mesh":10,"translation":[0,3.168,5.009],"scale":[6.2,0.9,1]},{"name":"records-vault","mesh":11,"translation":[-2.7,1.67,-1.92],"scale":[4.104,3.1,3.648]},{"name":"window-slit-0","mesh":12,"translation":[-1.2,2.7,4.99],"scale":[0.65,0.25,0.12]},{"name":"window-slit-1","mesh":12,"translation":[-0.4,2.7,4.99],"scale":[0.65,0.25,0.12]},{"name":"window-slit-2","mesh":12,"translation":[0.4,2.7,4.99],"scale":[0.65,0.25,0.12]},{"name":"window-slit-3","mesh":12,"translation":[1.2,2.7,4.99],"scale":[0.65,0.25,0.12]},{"name":"site-pad","mesh":13,"translation":[0,0.06,0],"scale":[11.232,0.12,9.984]},{"name":"variant-apron","mesh":14,"translation":[0.702,0.13,5.02],"scale":[3.456,0.08,1.16]},{"name":"bollard-0","mesh":15,"translation":[-4.104,0.43,5.14],"scale":[0.08,0.7,0.08]},{"name":"bollard-1","mesh":15,"translation":[-2.052,0.43,5.14],"scale":[0.08,0.7,0.08]},{"name":"bollard-2","mesh":15,"translation":[0,0.43,5.14],"scale":[0.08,0.7,0.08]},{"name":"bollard-3","mesh":15,"translation":[2.052,0.43,5.14],"scale":[0.08,0.7,0.08]},{"name":"bollard-4","mesh":15,"translation":[4.104,0.43,5.14],"scale":[0.08,0.7,0.08]},{"name":"layout-cabinet","mesh":16,"translation":[-5.6,0.615,0.72],"scale":[0.69,0.99,0.32]},{"name":"civic-shell","mesh":17,"translation":[0,2.064,0],"scale":[10.8,3.888,9.6]},{"name":"flat-budget-roof","mesh":18,"translation":[0,4.138,0],"scale":[11.1,0.25,9.9]},{"name":"entrance-recess","mesh":19,"translation":[0.864,1.42,4.93],"scale":[2.48,2.6,0.24]},{"name":"glass-doors","mesh":20,"translation":[0.864,1.3,5.08],"scale":[1.5,2.15,0.12]},{"name":"window-0","mesh":21,"translation":[-4.104,2.25504,4.95],"scale":[0.85,1.15,0.1]},{"name":"window-1","mesh":21,"translation":[-2.4624,2.25504,4.95],"scale":[0.85,1.15,0.1]},{"name":"window-2","mesh":21,"translation":[-0.8208,2.25504,4.95],"scale":[0.85,1.15,0.1]},{"name":"window-4","mesh":21,"translation":[2.4624,2.25504,4.95],"scale":[0.85,1.15,0.1]},{"name":"window-5","mesh":21,"translation":[4.104,2.25504,4.95],"scale":[0.85,1.15,0.1]},{"name":"civic-sign-back","mesh":9,"translation":[0,3.168,4.98],"scale":[6.3,1,1]},{"name":"civic-sign","mesh":10,"translation":[0,3.168,5.009],"scale":[6.2,0.9,1]},{"name":"records-vault","mesh":22,"translation":[-2.7,1.67,-1.92],"scale":[4.104,3.1,3.648]},{"name":"window-slit-0","mesh":23,"translation":[-1.2,2.7,4.99],"scale":[0.65,0.25,0.12]},{"name":"window-slit-1","mesh":23,"translation":[-0.4,2.7,4.99],"scale":[0.65,0.25,0.12]},{"name":"window-slit-2","mesh":23,"translation":[0.4,2.7,4.99],"scale":[0.65,0.25,0.12]},{"name":"window-slit-3","mesh":23,"translation":[1.2,2.7,4.99],"scale":[0.65,0.25,0.12]},{"name":"site-pad","mesh":13,"translation":[0,0.06,0],"scale":[11.232,0.12,9.984]},{"name":"variant-apron","mesh":14,"translation":[0.702,0.13,5.02],"scale":[3.456,0.08,1.16]},{"name":"bollard-0","mesh":15,"translation":[-4.104,0.43,5.14],"scale":[0.08,0.7,0.08]},{"name":"layout-cabinet","mesh":16,"translation":[-5.6,0.615,0.72],"scale":[0.69,0.99,0.32]},{"name":"civic-shell","mesh":17,"translation":[0,2.064,0],"scale":[10.8,3.888,9.6]},{"name":"flat-budget-roof","mesh":18,"translation":[0,4.138,0],"scale":[11.1,0.25,9.9]},{"name":"entrance-recess","mesh":19,"translation":[0.864,1.42,4.93],"scale":[2.48,2.6,0.24]},{"name":"glass-doors","mesh":20,"translation":[0.864,1.3,5.08],"scale":[1.5,2.15,0.12]},{"name":"civic-sign-back","mesh":9,"translation":[0,3.168,4.98],"scale":[6.3,1,1]},{"name":"civic-sign","mesh":10,"translation":[0,3.168,5.009],"scale":[6.2,0.9,1]},{"name":"records-vault","mesh":22,"translation":[-2.7,1.67,-1.92],"scale":[4.104,3.1,3.648]},{"name":"window-slit-0","mesh":23,"translation":[-1.2,2.7,4.99],"scale":[0.65,0.25,0.12]}],"meshes":[{"primitives":[{"attributes":{"POSITION":0,"NORMAL":1,"TEXCOORD_0":2},"material":0,"mode":4}]},{"primitives":[{"attributes":{"POSITION":0,"NORMAL":1,"TEXCOORD_0":3},"material":1,"mode":4}]},{"primitives":[{"attributes":{"POSITION":4,"NORMAL":5,"TEXCOORD_0":6},"material":2,"mode":4,"indices":7}]},{"primitives":[{"attributes":{"POSITION":0,"NORMAL":1,"TEXCOORD_0":8},"material":3,"mode":4}]},{"primitives":[{"attributes":{"POSITION":9,"NORMAL":1,"TEXCOORD_0":10},"material":0,"mode":4}]},{"primitives":[{"attributes":{"POSITION":0,"NORMAL":1,"TEXCOORD_0":11},"material":0,"mode":4}]},{"primitives":[{"attributes":{"POSITION":0,"NORMAL":1,"TEXCOORD_0":12},"material":4,"mode":4}]},{"primitives":[{"attributes":{"POSITION":0,"NORMAL":1,"TEXCOORD_0":13},"material":5,"mode":4}]},{"primitives":[{"attributes":{"POSITION":0,"NORMAL":1,"TEXCOORD_0":14},"material":5,"mode":4}]},{"primitives":[{"attributes":{"POSITION":15,"NORMAL":16,"TEXCOORD_0":17},"material":4,"mode":4,"indices":18}]},{"primitives":[{"attributes":{"POSITION":19,"NORMAL":20,"TEXCOORD_0":21},"material":6,"mode":4,"indices":22}]},{"primitives":[{"attributes":{"POSITION":23,"NORMAL":1,"TEXCOORD_0":24},"material":4,"mode":4}]},{"primitives":[{"attributes":{"POSITION":0,"NORMAL":1,"TEXCOORD_0":25},"material":5,"mode":4}]},{"primitives":[{"attributes":{"POSITION":26,"NORMAL":16,"TEXCOORD_0":27},"material":0,"mode":4,"indices":18}]},{"primitives":[{"attributes":{"POSITION":26,"NORMAL":16,"TEXCOORD_0":28},"material":1,"mode":4,"indices":18}]},{"primitives":[{"attributes":{"POSITION":29,"NORMAL":30,"TEXCOORD_0":31},"material":2,"mode":4,"indices":32}]},{"primitives":[{"attributes":{"POSITION":26,"NORMAL":16,"TEXCOORD_0":33},"material":3,"mode":4,"indices":18}]},{"primitives":[{"attributes":{"POSITION":26,"NORMAL":16,"TEXCOORD_0":34},"material":0,"mode":4,"indices":18}]},{"primitives":[{"attributes":{"POSITION":26,"NORMAL":16,"TEXCOORD_0":35},"material":0,"mode":4,"indices":18}]},{"primitives":[{"attributes":{"POSITION":26,"NORMAL":16,"TEXCOORD_0":36},"material":4,"mode":4,"indices":18}]},{"primitives":[{"attributes":{"POSITION":26,"NORMAL":16,"TEXCOORD_0":37},"material":5,"mode":4,"indices":18}]},{"primitives":[{"attributes":{"POSITION":26,"NORMAL":16,"TEXCOORD_0":38},"material":5,"mode":4,"indices":18}]},{"primitives":[{"attributes":{"POSITION":26,"NORMAL":16,"TEXCOORD_0":39},"material":4,"mode":4,"indices":18}]},{"primitives":[{"attributes":{"POSITION":26,"NORMAL":16,"TEXCOORD_0":40},"material":5,"mode":4,"indices":18}]}],"materials":[{"name":"concrete","pbrMetallicRoughness":{"baseColorTexture":{"index":0},"metallicRoughnessTexture":{"index":2},"roughnessFactor":1,"metallicFactor":1},"normalTexture":{"index":1,"scale":0.82},"occlusionTexture":{"index":2,"strength":0.35}},{"name":"asphalt","pbrMetallicRoughness":{"baseColorTexture":{"index":3},"metallicRoughnessTexture":{"index":5},"roughnessFactor":1,"metallicFactor":1},"normalTexture":{"index":4,"scale":0.62},"occlusionTexture":{"index":5,"strength":0.35}},{"name":"paint-yellow","pbrMetallicRoughness":{"baseColorFactor":[0.76052450467022,0.4793201830913402,0.07818742179702069,1],"roughnessFactor":0.66,"metallicFactor":0.03}},{"name":"metal-galvanized","pbrMetallicRoughness":{"baseColorTexture":{"index":6},"metallicRoughnessTexture":{"index":8},"roughnessFactor":1,"metallicFactor":1},"normalTexture":{"index":7,"scale":0.15},"occlusionTexture":{"index":8,"strength":0.35}},{"name":"metal-dark","pbrMetallicRoughness":{"baseColorTexture":{"index":9},"metallicRoughnessTexture":{"index":11},"roughnessFactor":1,"metallicFactor":1},"normalTexture":{"index":10,"scale":0.35},"occlusionTexture":{"index":11,"strength":0.35}},{"name":"glass-blue","pbrMetallicRoughness":{"baseColorTexture":{"index":12},"metallicRoughnessTexture":{"index":14},"roughnessFactor":1,"metallicFactor":1},"normalTexture":{"index":13,"scale":0.12},"occlusionTexture":{"index":14,"strength":0.35}},{"name":"tax-assessor-bunker signage","pbrMetallicRoughness":{"baseColorTexture":{"index":15},"roughnessFactor":1,"metallicFactor":0},"extensions":{"KHR_materials_unlit":{}}}],"textures":[{"source":0,"sampler":0},{"source":1,"sampler":0},{"source":2,"sampler":0},{"source":3,"sampler":0},{"source":4,"sampler":0},{"source":5,"sampler":0},{"source":6,"sampler":0},{"source":7,"sampler":0},{"source":8,"sampler":0},{"source":9,"sampler":0},{"source":10,"sampler":0},{"source":11,"sampler":0},{"source":12,"sampler":0},{"source":13,"sampler":0},{"source":14,"sampler":0},{"source":15,"sampler":0}],"images":[{"uri":"../textures/concrete-albedo.png"},{"uri":"../textures/concrete-normal.png"},{"uri":"../textures/concrete-orm.png"},{"uri":"../textures/asphalt-albedo.png"},{"uri":"../textures/asphalt-normal.png"},{"uri":"../textures/asphalt-orm.png"},{"uri":"../textures/metal-galvanized-albedo.png"},{"uri":"../textures/metal-galvanized-normal.png"},{"uri":"../textures/metal-galvanized-orm.png"},{"uri":"../textures/metal-dark-albedo.png"},{"uri":"../textures/metal-dark-normal.png"},{"uri":"../textures/metal-dark-orm.png"},{"uri":"../textures/glass-blue-albedo.png"},{"uri":"../textures/glass-blue-normal.png"},{"uri":"../textures/glass-blue-orm.png"},{"uri":"../signs/tax-assessor-bunker.png"}],"samplers":[{"magFilter":9729,"minFilter":9987,"wrapS":10497,"wrapT":10497}],"buffers":[{"uri":"../shared/geometry.bin","byteLength":16435520}],"bufferViews":[{"buffer":0,"byteOffset":0,"byteLength":3888,"target":34962},{"buffer":0,"byteOffset":3888,"byteLength":3888,"target":34962},{"buffer":0,"byteOffset":14339332,"byteLength":2592,"target":34962},{"buffer":0,"byteOffset":14367172,"byteLength":2592,"target":34962},{"buffer":0,"byteOffset":12960,"byteLength":1200,"target":34962},{"buffer":0,"byteOffset":14160,"byteLength":1200,"target":34962},{"buffer":0,"byteOffset":150020,"byteLength":800,"target":34962},{"buffer":0,"byteOffset":16160,"byteLength":384,"target":34963},{"buffer":0,"byteOffset":173540,"byteLength":2592,"target":34962},{"buffer":0,"byteOffset":33392,"byteLength":3888,"target":34962},{"buffer":0,"byteOffset":14344516,"byteLength":2592,"target":34962},{"buffer":0,"byteOffset":14347108,"byteLength":2592,"target":34962},{"buffer":0,"byteOffset":3961404,"byteLength":2592,"target":34962},{"buffer":0,"byteOffset":3899772,"byteLength":2592,"target":34962},{"buffer":0,"byteOffset":3902364,"byteLength":2592,"target":34962},{"buffer":0,"byteOffset":45664,"byteLength":288,"target":34962},{"buffer":0,"byteOffset":45952,"byteLength":288,"target":34962},{"buffer":0,"byteOffset":46240,"byteLength":192,"target":34962},{"buffer":0,"byteOffset":46432,"byteLength":72,"target":34963},{"buffer":0,"byteOffset":46504,"byteLength":48,"target":34962},{"buffer":0,"byteOffset":46552,"byteLength":48,"target":34962},{"buffer":0,"byteOffset":176132,"byteLength":32,"target":34962},{"buffer":0,"byteOffset":46632,"byteLength":12,"target":34963},{"buffer":0,"byteOffset":868536,"byteLength":3888,"target":34962},{"buffer":0,"byteOffset":14349700,"byteLength":2592,"target":34962},{"buffer":0,"byteOffset":14299396,"byteLength":2592,"target":34962},{"buffer":0,"byteOffset":46644,"byteLength":288,"target":34962},{"buffer":0,"byteOffset":14352292,"byteLength":192,"target":34962},{"buffer":0,"byteOffset":14369764,"byteLength":192,"target":34962},{"buffer":0,"byteOffset":47316,"byteLength":480,"target":34962},{"buffer":0,"byteOffset":47796,"byteLength":480,"target":34962},{"buffer":0,"byteOffset":153636,"byteLength":320,"target":34962},{"buffer":0,"byteOffset":48596,"byteLength":144,"target":34963},{"buffer":0,"byteOffset":176356,"byteLength":192,"target":34962},{"buffer":0,"byteOffset":14352676,"byteLength":192,"target":34962},{"buffer":0,"byteOffset":14352868,"byteLength":192,"target":34962},{"buffer":0,"byteOffset":3964572,"byteLength":192,"target":34962},{"buffer":0,"byteOffset":3911100,"byteLength":192,"target":34962},{"buffer":0,"byteOffset":3911292,"byteLength":192,"target":34962},{"buffer":0,"byteOffset":14353060,"byteLength":192,"target":34962},{"buffer":0,"byteOffset":14302948,"byteLength":192,"target":34962}],"accessors":[{"bufferView":0,"componentType":5126,"count":324,"type":"VEC3","min":[-0.5,-0.5,-0.5],"max":[0.5,0.5,0.5]},{"bufferView":1,"componentType":5126,"count":324,"type":"VEC3"},{"bufferView":2,"componentType":5126,"count":324,"type":"VEC2"},{"bufferView":3,"componentType":5126,"count":324,"type":"VEC2"},{"bufferView":4,"componentType":5126,"count":100,"type":"VEC3","min":[-1,-0.5,-1],"max":[1,0.5,1]},{"bufferView":5,"componentType":5126,"count":100,"type":"VEC3"},{"bufferView":6,"componentType":5126,"count":100,"type":"VEC2"},{"bufferView":7,"componentType":5123,"count":192,"type":"SCALAR"},{"bufferView":8,"componentType":5126,"count":324,"type":"VEC2"},{"bufferView":9,"componentType":5126,"count":324,"type":"VEC3","min":[-0.5,-0.5,-0.5],"max":[0.5,0.5,0.5]},{"bufferView":10,"componentType":5126,"count":324,"type":"VEC2"},{"bufferView":11,"componentType":5126,"count":324,"type":"VEC2"},{"bufferView":12,"componentType":5126,"count":324,"type":"VEC2"},{"bufferView":13,"componentType":5126,"count":324,"type":"VEC2"},{"bufferView":14,"componentType":5126,"count":324,"type":"VEC2"},{"bufferView":15,"componentType":5126,"count":24,"type":"VEC3","min":[-0.5,-0.5,-0.02500000037252903],"max":[0.5,0.5,0.02500000037252903]},{"bufferView":16,"componentType":5126,"count":24,"type":"VEC3"},{"bufferView":17,"componentType":5126,"count":24,"type":"VEC2"},{"bufferView":18,"componentType":5123,"count":36,"type":"SCALAR"},{"bufferView":19,"componentType":5126,"count":4,"type":"VEC3","min":[-0.5,-0.5,0],"max":[0.5,0.5,0]},{"bufferView":20,"componentType":5126,"count":4,"type":"VEC3"},{"bufferView":21,"componentType":5126,"count":4,"type":"VEC2"},{"bufferView":22,"componentType":5123,"count":6,"type":"SCALAR"},{"bufferView":23,"componentType":5126,"count":324,"type":"VEC3","min":[-0.5,-0.5,-0.5],"max":[0.5,0.5,0.5]},{"bufferView":24,"componentType":5126,"count":324,"type":"VEC2"},{"bufferView":25,"componentType":5126,"count":324,"type":"VEC2"},{"bufferView":26,"componentType":5126,"count":24,"type":"VEC3","min":[-0.5,-0.5,-0.5],"max":[0.5,0.5,0.5]},{"bufferView":27,"componentType":5126,"count":24,"type":"VEC2"},{"bufferView":28,"componentType":5126,"count":24,"type":"VEC2"},{"bufferView":29,"componentType":5126,"count":40,"type":"VEC3","min":[-0.8660253882408142,-0.5,-1],"max":[0.8660253882408142,0.5,1]},{"bufferView":30,"componentType":5126,"count":40,"type":"VEC3"},{"bufferView":31,"componentType":5126,"count":40,"type":"VEC2"},{"bufferView":32,"componentType":5123,"count":72,"type":"SCALAR"},{"bufferView":33,"componentType":5126,"count":24,"type":"VEC2"},{"bufferView":34,"componentType":5126,"count":24,"type":"VEC2"},{"bufferView":35,"componentType":5126,"count":24,"type":"VEC2"},{"bufferView":36,"componentType":5126,"count":24,"type":"VEC2"},{"bufferView":37,"componentType":5126,"count":24,"type":"VEC2"},{"bufferView":38,"componentType":5126,"count":24,"type":"VEC2"},{"bufferView":39,"componentType":5126,"count":24,"type":"VEC2"},{"bufferView":40,"componentType":5126,"count":24,"type":"VEC2"}],"extensionsUsed":["KHR_materials_unlit"],"extras":{"id":"vlt-tax-assessor-bunker-15","family":"tax-assessor-bunker","variant":14,"plan":"C5-1","units":"metres","up":"+Y","front":"+Z","lodScenes":[0,1,2]}}