{"asset":{"version":"2.0","generator":"SLOPMERICA Department of Unnecessary Development 1.0"},"scene":0,"scenes":[{"name":"LOD 0","nodes":[0,1,2,3,4,5,6,7,8,9,10,11,12,13,14,15,16,17,18,19,20,21,22,23,24,25,26,27,28,29,30,31,32,33,34,35,36],"extras":{"level":0}},{"name":"LOD 1","nodes":[37,38,39,40,41,42,43,44,45,46,47,48,49,50,51,52,53,54,55,56,57,58,59,60,61,62,63,64,65,66,67,68,69],"extras":{"level":1}},{"name":"LOD 2","nodes":[70,71,72,73,74,75,76],"extras":{"level":2}}],"nodes":[{"name":"foundation","mesh":0,"translation":[0,0.08,0],"scale":[18.04,0.16,16.97]},{"name":"repo-office","mesh":1,"translation":[-3.96,1.9176,-2.954],"scale":[6.9696,3.8352,6.6465]},{"name":"fence-0","mesh":2,"translation":[-6.93,0.9,7.385],"scale":[1.9,1.8,0.08]},{"name":"fence-1","mesh":2,"translation":[-4.95,0.9,7.385],"scale":[1.9,1.8,0.08]},{"name":"fence-2","mesh":2,"translation":[-2.97,0.9,7.385],"scale":[1.9,1.8,0.08]},{"name":"fence-3","mesh":2,"translation":[-0.99,0.9,7.385],"scale":[1.9,1.8,0.08]},{"name":"fence-4","mesh":2,"translation":[0.99,0.9,7.385],"scale":[1.9,1.8,0.08]},{"name":"fence-5","mesh":2,"translation":[2.97,0.9,7.385],"scale":[1.9,1.8,0.08]},{"name":"fence-6","mesh":2,"translation":[4.95,0.9,7.385],"scale":[1.9,1.8,0.08]},{"name":"fence-7","mesh":2,"translation":[6.93,0.9,7.385],"scale":[1.9,1.8,0.08]},{"name":"watch-pole","mesh":3,"translation":[5.7024,4.794,-5.0218],"scale":[0.3,9.588,0.3]},{"name":"watch-box","mesh":4,"translation":[5.7024,8.742,-5.0218],"scale":[1.8,1.3,1.5]},{"name":"repo-car-0-body","mesh":5,"translation":[-3.6432,0.53,-0.7385],"scale":[1.65,0.45,0.85]},{"name":"repo-car-0-cab","mesh":6,"translation":[-3.6432,0.93,-0.7885],"scale":[0.82,0.4,0.72]},{"name":"repo-car-0-wheel-a","mesh":7,"translation":[-4.1632,0.56,-0.3185],"rotation":[0,0.707107,0,0.707107]},{"name":"repo-car-0-wheel-b","mesh":7,"translation":[-3.1232,0.56,-0.3185],"rotation":[0,0.707107,0,0.707107]},{"name":"repo-car-1-body","mesh":8,"translation":[-1.7432,0.53,0.6615],"scale":[1.65,0.45,0.85]},{"name":"repo-car-1-cab","mesh":6,"translation":[-1.7432,0.93,0.6115],"scale":[0.82,0.4,0.72]},{"name":"repo-car-1-wheel-a","mesh":7,"translation":[-2.2632,0.56,1.0815],"rotation":[0,0.707107,0,0.707107]},{"name":"repo-car-1-wheel-b","mesh":7,"translation":[-1.2232,0.56,1.0815],"rotation":[0,0.707107,0,0.707107]},{"name":"repo-car-2-body","mesh":5,"translation":[0.1568,0.53,-0.7385],"scale":[1.65,0.45,0.85]},{"name":"repo-car-2-cab","mesh":6,"translation":[0.1568,0.93,-0.7885],"scale":[0.82,0.4,0.72]},{"name":"repo-car-2-wheel-a","mesh":7,"translation":[-0.3632,0.56,-0.3185],"rotation":[0,0.707107,0,0.707107]},{"name":"repo-car-2-wheel-b","mesh":7,"translation":[0.6768,0.56,-0.3185],"rotation":[0,0.707107,0,0.707107]},{"name":"repo-car-3-body","mesh":8,"translation":[2.0568,0.53,0.6615],"scale":[1.65,0.45,0.85]},{"name":"repo-car-3-cab","mesh":6,"translation":[2.0568,0.93,0.6115],"scale":[0.82,0.4,0.72]},{"name":"repo-car-3-wheel-a","mesh":7,"translation":[1.5368,0.56,1.0815],"rotation":[0,0.707107,0,0.707107]},{"name":"repo-car-3-wheel-b","mesh":7,"translation":[2.5768,0.56,1.0815],"rotation":[0,0.707107,0,0.707107]},{"name":"repo-car-4-body","mesh":5,"translation":[3.9568,0.53,-0.7385],"scale":[1.65,0.45,0.85]},{"name":"repo-car-4-cab","mesh":6,"translation":[3.9568,0.93,-0.7885],"scale":[0.82,0.4,0.72]},{"name":"repo-car-4-wheel-a","mesh":7,"translation":[3.4368,0.56,-0.3185],"rotation":[0,0.707107,0,0.707107]},{"name":"repo-car-4-wheel-b","mesh":7,"translation":[4.4768,0.56,-0.3185],"rotation":[0,0.707107,0,0.707107]},{"name":"repo-car-5-body","mesh":8,"translation":[5.8568,0.53,0.6615],"scale":[1.65,0.45,0.85]},{"name":"repo-car-5-cab","mesh":6,"translation":[5.8568,0.93,0.6115],"scale":[0.82,0.4,0.72]},{"name":"repo-car-5-wheel-a","mesh":7,"translation":[5.3368,0.56,1.0815],"rotation":[0,0.707107,0,0.707107]},{"name":"repo-car-5-wheel-b","mesh":7,"translation":[6.3768,0.56,1.0815],"rotation":[0,0.707107,0,0.707107]},{"name":"open-state-bollard","mesh":9,"translation":[6.8112,0.425,8.2712],"scale":[0.22,0.85,0.22]},{"name":"foundation","mesh":10,"translation":[0,0.08,0],"scale":[18.04,0.16,16.97]},{"name":"repo-office","mesh":11,"translation":[-3.96,1.9176,-2.954],"scale":[6.9696,3.8352,6.6465]},{"name":"fence-0","mesh":12,"translation":[-5.94,0.9,7.385],"scale":[3.88,1.8,0.08]},{"name":"fence-1","mesh":12,"translation":[-1.98,0.9,7.385],"scale":[3.88,1.8,0.08]},{"name":"fence-2","mesh":12,"translation":[1.98,0.9,7.385],"scale":[3.88,1.8,0.08]},{"name":"fence-3","mesh":12,"translation":[5.94,0.9,7.385],"scale":[3.88,1.8,0.08]},{"name":"watch-pole","mesh":13,"translation":[5.7024,4.794,-5.0218],"scale":[0.3,9.588,0.3]},{"name":"watch-box","mesh":14,"translation":[5.7024,8.742,-5.0218],"scale":[1.8,1.3,1.5]},{"name":"repo-car-0-body","mesh":15,"translation":[-3.6432,0.53,-0.7385],"scale":[1.65,0.45,0.85]},{"name":"repo-car-0-cab","mesh":16,"translation":[-3.6432,0.93,-0.7885],"scale":[0.82,0.4,0.72]},{"name":"repo-car-0-wheel-a","mesh":17,"translation":[-4.1632,0.56,-0.3185],"rotation":[0,0.707107,0,0.707107]},{"name":"repo-car-0-wheel-b","mesh":17,"translation":[-3.1232,0.56,-0.3185],"rotation":[0,0.707107,0,0.707107]},{"name":"repo-car-1-body","mesh":18,"translation":[-1.7432,0.53,0.6615],"scale":[1.65,0.45,0.85]},{"name":"repo-car-1-cab","mesh":16,"translation":[-1.7432,0.93,0.6115],"scale":[0.82,0.4,0.72]},{"name":"repo-car-1-wheel-a","mesh":17,"translation":[-2.2632,0.56,1.0815],"rotation":[0,0.707107,0,0.707107]},{"name":"repo-car-1-wheel-b","mesh":17,"translation":[-1.2232,0.56,1.0815],"rotation":[0,0.707107,0,0.707107]},{"name":"repo-car-2-body","mesh":15,"translation":[0.1568,0.53,-0.7385],"scale":[1.65,0.45,0.85]},{"name":"repo-car-2-cab","mesh":16,"translation":[0.1568,0.93,-0.7885],"scale":[0.82,0.4,0.72]},{"name":"repo-car-2-wheel-a","mesh":17,"translation":[-0.3632,0.56,-0.3185],"rotation":[0,0.707107,0,0.707107]},{"name":"repo-car-2-wheel-b","mesh":17,"translation":[0.6768,0.56,-0.3185],"rotation":[0,0.707107,0,0.707107]},{"name":"repo-car-3-body","mesh":18,"translation":[2.0568,0.53,0.6615],"scale":[1.65,0.45,0.85]},{"name":"repo-car-3-cab","mesh":16,"translation":[2.0568,0.93,0.6115],"scale":[0.82,0.4,0.72]},{"name":"repo-car-3-wheel-a","mesh":17,"translation":[1.5368,0.56,1.0815],"rotation":[0,0.707107,0,0.707107]},{"name":"repo-car-3-wheel-b","mesh":17,"translation":[2.5768,0.56,1.0815],"rotation":[0,0.707107,0,0.707107]},{"name":"repo-car-4-body","mesh":15,"translation":[3.9568,0.53,-0.7385],"scale":[1.65,0.45,0.85]},{"name":"repo-car-4-cab","mesh":16,"translation":[3.9568,0.93,-0.7885],"scale":[0.82,0.4,0.72]},{"name":"repo-car-4-wheel-a","mesh":17,"translation":[3.4368,0.56,-0.3185],"rotation":[0,0.707107,0,0.707107]},{"name":"repo-car-4-wheel-b","mesh":17,"translation":[4.4768,0.56,-0.3185],"rotation":[0,0.707107,0,0.707107]},{"name":"repo-car-5-body","mesh":18,"translation":[5.8568,0.53,0.6615],"scale":[1.65,0.45,0.85]},{"name":"repo-car-5-cab","mesh":16,"translation":[5.8568,0.93,0.6115],"scale":[0.82,0.4,0.72]},{"name":"repo-car-5-wheel-a","mesh":17,"translation":[5.3368,0.56,1.0815],"rotation":[0,0.707107,0,0.707107]},{"name":"repo-car-5-wheel-b","mesh":17,"translation":[6.3768,0.56,1.0815],"rotation":[0,0.707107,0,0.707107]},{"name":"open-state-bollard","mesh":19,"translation":[6.8112,0.425,8.2712],"scale":[0.22,0.85,0.22]},{"name":"foundation","mesh":10,"translation":[0,0.08,0],"scale":[18.04,0.16,16.97]},{"name":"repo-office","mesh":11,"translation":[-3.96,1.9176,-2.954],"scale":[6.9696,3.8352,6.6465]},{"name":"fence-0","mesh":20,"translation":[-3.96,0.9,7.385],"scale":[7.84,1.8,0.08]},{"name":"fence-1","mesh":20,"translation":[3.96,0.9,7.385],"scale":[7.84,1.8,0.08]},{"name":"watch-pole","mesh":13,"translation":[5.7024,4.794,-5.0218],"scale":[0.3,9.588,0.3]},{"name":"watch-box","mesh":14,"translation":[5.7024,8.742,-5.0218],"scale":[1.8,1.3,1.5]},{"name":"open-state-bollard","mesh":19,"translation":[6.8112,0.425,8.2712],"scale":[0.22,0.85,0.22]}],"meshes":[{"primitives":[{"attributes":{"POSITION":0,"NORMAL":1,"TEXCOORD_0":2},"material":0,"mode":4}]},{"primitives":[{"attributes":{"POSITION":3,"NORMAL":1,"TEXCOORD_0":4},"material":1,"mode":4}]},{"primitives":[{"attributes":{"POSITION":0,"NORMAL":1,"TEXCOORD_0":5},"material":2,"mode":4}]},{"primitives":[{"attributes":{"POSITION":6,"NORMAL":7,"TEXCOORD_0":8},"material":2,"mode":4,"indices":9}]},{"primitives":[{"attributes":{"POSITION":10,"NORMAL":1,"TEXCOORD_0":11},"material":3,"mode":4}]},{"primitives":[{"attributes":{"POSITION":0,"NORMAL":1,"TEXCOORD_0":12},"material":4,"mode":4}]},{"primitives":[{"attributes":{"POSITION":0,"NORMAL":1,"TEXCOORD_0":13},"material":3,"mode":4}]},{"primitives":[{"attributes":{"POSITION":14,"NORMAL":15,"TEXCOORD_0":16},"material":5,"mode":4,"indices":17}]},{"primitives":[{"attributes":{"POSITION":0,"NORMAL":1,"TEXCOORD_0":18},"material":6,"mode":4}]},{"primitives":[{"attributes":{"POSITION":0,"NORMAL":1,"TEXCOORD_0":19},"material":7,"mode":4}]},{"primitives":[{"attributes":{"POSITION":20,"NORMAL":21,"TEXCOORD_0":22},"material":0,"mode":4,"indices":23}]},{"primitives":[{"attributes":{"POSITION":20,"NORMAL":21,"TEXCOORD_0":24},"material":1,"mode":4,"indices":23}]},{"primitives":[{"attributes":{"POSITION":20,"NORMAL":21,"TEXCOORD_0":25},"material":2,"mode":4,"indices":23}]},{"primitives":[{"attributes":{"POSITION":26,"NORMAL":27,"TEXCOORD_0":28},"material":2,"mode":4,"indices":29}]},{"primitives":[{"attributes":{"POSITION":20,"NORMAL":21,"TEXCOORD_0":30},"material":3,"mode":4,"indices":23}]},{"primitives":[{"attributes":{"POSITION":20,"NORMAL":21,"TEXCOORD_0":31},"material":4,"mode":4,"indices":23}]},{"primitives":[{"attributes":{"POSITION":20,"NORMAL":21,"TEXCOORD_0":32},"material":3,"mode":4,"indices":23}]},{"primitives":[{"attributes":{"POSITION":33,"NORMAL":34,"TEXCOORD_0":35},"material":5,"mode":4,"indices":36}]},{"primitives":[{"attributes":{"POSITION":20,"NORMAL":21,"TEXCOORD_0":37},"material":6,"mode":4,"indices":23}]},{"primitives":[{"attributes":{"POSITION":20,"NORMAL":21,"TEXCOORD_0":38},"material":7,"mode":4,"indices":23}]},{"primitives":[{"attributes":{"POSITION":20,"NORMAL":21,"TEXCOORD_0":39},"material":2,"mode":4,"indices":23}]}],"materials":[{"name":"concrete","pbrMetallicRoughness":{"baseColorTexture":{"index":0},"metallicRoughnessTexture":{"index":2},"roughnessFactor":1,"metallicFactor":1},"normalTexture":{"index":1,"scale":0.82},"occlusionTexture":{"index":2,"strength":0.35}},{"name":"metal-galvanized","pbrMetallicRoughness":{"baseColorTexture":{"index":3},"metallicRoughnessTexture":{"index":5},"roughnessFactor":1,"metallicFactor":1},"normalTexture":{"index":4,"scale":0.15},"occlusionTexture":{"index":5,"strength":0.35}},{"name":"metal-dark","pbrMetallicRoughness":{"baseColorTexture":{"index":6},"metallicRoughnessTexture":{"index":8},"roughnessFactor":1,"metallicFactor":1},"normalTexture":{"index":7,"scale":0.35},"occlusionTexture":{"index":8,"strength":0.35}},{"name":"glass-blue","pbrMetallicRoughness":{"baseColorTexture":{"index":9},"metallicRoughnessTexture":{"index":11},"roughnessFactor":1,"metallicFactor":1},"normalTexture":{"index":10,"scale":0.12},"occlusionTexture":{"index":11,"strength":0.35}},{"name":"brick-red","pbrMetallicRoughness":{"baseColorTexture":{"index":12},"metallicRoughnessTexture":{"index":14},"roughnessFactor":1,"metallicFactor":1},"normalTexture":{"index":13,"scale":1.15},"occlusionTexture":{"index":14,"strength":0.35}},{"name":"rubber","pbrMetallicRoughness":{"baseColorTexture":{"index":15},"metallicRoughnessTexture":{"index":17},"roughnessFactor":1,"metallicFactor":1},"normalTexture":{"index":16,"scale":0.65},"occlusionTexture":{"index":17,"strength":0.35}},{"name":"paint-yellow","pbrMetallicRoughness":{"baseColorFactor":[0.76052450467022,0.4793201830913402,0.07818742179702069,1],"roughnessFactor":0.66,"metallicFactor":0.03}},{"name":"paint-orange","pbrMetallicRoughness":{"baseColorFactor":[0.6444796819634361,0.1878207722902346,0.040915196900556984,1],"roughnessFactor":0.68,"metallicFactor":0.03}}],"textures":[{"source":0,"sampler":0},{"source":1,"sampler":0},{"source":2,"sampler":0},{"source":3,"sampler":0},{"source":4,"sampler":0},{"source":5,"sampler":0},{"source":6,"sampler":0},{"source":7,"sampler":0},{"source":8,"sampler":0},{"source":9,"sampler":0},{"source":10,"sampler":0},{"source":11,"sampler":0},{"source":12,"sampler":0},{"source":13,"sampler":0},{"source":14,"sampler":0},{"source":15,"sampler":0},{"source":16,"sampler":0},{"source":17,"sampler":0}],"images":[{"uri":"../textures/concrete-albedo.png"},{"uri":"../textures/concrete-normal.png"},{"uri":"../textures/concrete-orm.png"},{"uri":"../textures/metal-galvanized-albedo.png"},{"uri":"../textures/metal-galvanized-normal.png"},{"uri":"../textures/metal-galvanized-orm.png"},{"uri":"../textures/metal-dark-albedo.png"},{"uri":"../textures/metal-dark-normal.png"},{"uri":"../textures/metal-dark-orm.png"},{"uri":"../textures/glass-blue-albedo.png"},{"uri":"../textures/glass-blue-normal.png"},{"uri":"../textures/glass-blue-orm.png"},{"uri":"../textures/brick-red-albedo.png"},{"uri":"../textures/brick-red-normal.png"},{"uri":"../textures/brick-red-orm.png"},{"uri":"../textures/rubber-albedo.png"},{"uri":"../textures/rubber-normal.png"},{"uri":"../textures/rubber-orm.png"}],"samplers":[{"magFilter":9729,"minFilter":9987,"wrapS":10497,"wrapT":10497}],"buffers":[{"uri":"../shared/geometry.bin","byteLength":16435520}],"bufferViews":[{"buffer":0,"byteOffset":0,"byteLength":3888,"target":34962},{"buffer":0,"byteOffset":3888,"byteLength":3888,"target":34962},{"buffer":0,"byteOffset":11906236,"byteLength":2592,"target":34962},{"buffer":0,"byteOffset":822696,"byteLength":3888,"target":34962},{"buffer":0,"byteOffset":11908828,"byteLength":2592,"target":34962},{"buffer":0,"byteOffset":11801564,"byteLength":2592,"target":34962},{"buffer":0,"byteOffset":11804156,"byteLength":624,"target":34962},{"buffer":0,"byteOffset":11804780,"byteLength":624,"target":34962},{"buffer":0,"byteOffset":11805404,"byteLength":416,"target":34962},{"buffer":0,"byteOffset":1111736,"byteLength":192,"target":34963},{"buffer":0,"byteOffset":4742904,"byteLength":3888,"target":34962},{"buffer":0,"byteOffset":11805820,"byteLength":2592,"target":34962},{"buffer":0,"byteOffset":11808412,"byteLength":2592,"target":34962},{"buffer":0,"byteOffset":7532464,"byteLength":2592,"target":34962},{"buffer":0,"byteOffset":7535056,"byteLength":3132,"target":34962},{"buffer":0,"byteOffset":390704,"byteLength":3132,"target":34962},{"buffer":0,"byteOffset":420224,"byteLength":2088,"target":34962},{"buffer":0,"byteOffset":395924,"byteLength":2688,"target":34963},{"buffer":0,"byteOffset":7529872,"byteLength":2592,"target":34962},{"buffer":0,"byteOffset":422312,"byteLength":2592,"target":34962},{"buffer":0,"byteOffset":46644,"byteLength":288,"target":34962},{"buffer":0,"byteOffset":45952,"byteLength":288,"target":34962},{"buffer":0,"byteOffset":11911420,"byteLength":192,"target":34962},{"buffer":0,"byteOffset":46432,"byteLength":72,"target":34963},{"buffer":0,"byteOffset":11911612,"byteLength":192,"target":34962},{"buffer":0,"byteOffset":11811388,"byteLength":192,"target":34962},{"buffer":0,"byteOffset":11811580,"byteLength":480,"target":34962},{"buffer":0,"byteOffset":11812060,"byteLength":480,"target":34962},{"buffer":0,"byteOffset":11812540,"byteLength":320,"target":34962},{"buffer":0,"byteOffset":48596,"byteLength":144,"target":34963},{"buffer":0,"byteOffset":11812860,"byteLength":192,"target":34962},{"buffer":0,"byteOffset":11813052,"byteLength":192,"target":34962},{"buffer":0,"byteOffset":7543404,"byteLength":192,"target":34962},{"buffer":0,"byteOffset":7543596,"byteLength":1428,"target":34962},{"buffer":0,"byteOffset":427996,"byteLength":1428,"target":34962},{"buffer":0,"byteOffset":435984,"byteLength":952,"target":34962},{"buffer":0,"byteOffset":430376,"byteLength":1152,"target":34963},{"buffer":0,"byteOffset":7543212,"byteLength":192,"target":34962},{"buffer":0,"byteOffset":436936,"byteLength":192,"target":34962},{"buffer":0,"byteOffset":11813244,"byteLength":192,"target":34962}],"accessors":[{"bufferView":0,"componentType":5126,"count":324,"type":"VEC3","min":[-0.5,-0.5,-0.5],"max":[0.5,0.5,0.5]},{"bufferView":1,"componentType":5126,"count":324,"type":"VEC3"},{"bufferView":2,"componentType":5126,"count":324,"type":"VEC2"},{"bufferView":3,"componentType":5126,"count":324,"type":"VEC3","min":[-0.5,-0.5,-0.5],"max":[0.5,0.5,0.5]},{"bufferView":4,"componentType":5126,"count":324,"type":"VEC2"},{"bufferView":5,"componentType":5126,"count":324,"type":"VEC2"},{"bufferView":6,"componentType":5126,"count":52,"type":"VEC3","min":[-1,-0.5,-1],"max":[1,0.5,1]},{"bufferView":7,"componentType":5126,"count":52,"type":"VEC3"},{"bufferView":8,"componentType":5126,"count":52,"type":"VEC2"},{"bufferView":9,"componentType":5123,"count":96,"type":"SCALAR"},{"bufferView":10,"componentType":5126,"count":324,"type":"VEC3","min":[-0.5,-0.5,-0.5],"max":[0.5,0.5,0.5]},{"bufferView":11,"componentType":5126,"count":324,"type":"VEC2"},{"bufferView":12,"componentType":5126,"count":324,"type":"VEC2"},{"bufferView":13,"componentType":5126,"count":324,"type":"VEC2"},{"bufferView":14,"componentType":5126,"count":261,"type":"VEC3","min":[-0.550000011920929,-0.550000011920929,-0.12999999523162842],"max":[0.550000011920929,0.550000011920929,0.12999999523162842]},{"bufferView":15,"componentType":5126,"count":261,"type":"VEC3"},{"bufferView":16,"componentType":5126,"count":261,"type":"VEC2"},{"bufferView":17,"componentType":5123,"count":1344,"type":"SCALAR"},{"bufferView":18,"componentType":5126,"count":324,"type":"VEC2"},{"bufferView":19,"componentType":5126,"count":324,"type":"VEC2"},{"bufferView":20,"componentType":5126,"count":24,"type":"VEC3","min":[-0.5,-0.5,-0.5],"max":[0.5,0.5,0.5]},{"bufferView":21,"componentType":5126,"count":24,"type":"VEC3"},{"bufferView":22,"componentType":5126,"count":24,"type":"VEC2"},{"bufferView":23,"componentType":5123,"count":36,"type":"SCALAR"},{"bufferView":24,"componentType":5126,"count":24,"type":"VEC2"},{"bufferView":25,"componentType":5126,"count":24,"type":"VEC2"},{"bufferView":26,"componentType":5126,"count":40,"type":"VEC3","min":[-0.8660253882408142,-0.5,-1],"max":[0.8660253882408142,0.5,1]},{"bufferView":27,"componentType":5126,"count":40,"type":"VEC3"},{"bufferView":28,"componentType":5126,"count":40,"type":"VEC2"},{"bufferView":29,"componentType":5123,"count":72,"type":"SCALAR"},{"bufferView":30,"componentType":5126,"count":24,"type":"VEC2"},{"bufferView":31,"componentType":5126,"count":24,"type":"VEC2"},{"bufferView":32,"componentType":5126,"count":24,"type":"VEC2"},{"bufferView":33,"componentType":5126,"count":119,"type":"VEC3","min":[-0.550000011920929,-0.550000011920929,-0.11258330196142197],"max":[0.550000011920929,0.550000011920929,0.11258330196142197]},{"bufferView":34,"componentType":5126,"count":119,"type":"VEC3"},{"bufferView":35,"componentType":5126,"count":119,"type":"VEC2"},{"bufferView":36,"componentType":5123,"count":576,"type":"SCALAR"},{"bufferView":37,"componentType":5126,"count":24,"type":"VEC2"},{"bufferView":38,"componentType":5126,"count":24,"type":"VEC2"},{"bufferView":39,"componentType":5126,"count":24,"type":"VEC2"}],"extensionsUsed":["KHR_materials_unlit"],"extras":{"id":"vlt-repo-ranch-16","family":"repo-ranch","variant":15,"plan":"D1-1","units":"metres","up":"+Y","front":"+Z","lodScenes":[0,1,2]}}