{"asset":{"version":"2.0","generator":"SLOPMERICA Department of Unnecessary Development 1.0"},"scene":0,"scenes":[{"name":"LOD 0","nodes":[0,1,2,3,4,5,6,7,8,9,10,11,12],"extras":{"level":0}},{"name":"LOD 1","nodes":[13,14,15,16,17,18,19,20,21,22,23,24,25],"extras":{"level":1}},{"name":"LOD 2","nodes":[26,27,28,29,30,31,32],"extras":{"level":2}}],"nodes":[{"name":"surveyed lot","mesh":0,"translation":[0,0.06,0],"scale":[20.16,0.12,21.28]},{"name":"metal barn home","mesh":1,"translation":[0,2.5,0],"scale":[13,4.8,15]},{"name":"barn roof left","mesh":2,"translation":[-3.45,6.629298,0],"rotation":[0,0,0.227978,0.973666],"scale":[7.700442,0.16,15.5]},{"name":"barn roof right","mesh":2,"translation":[3.45,6.629298,0],"rotation":[0,0,-0.227978,0.973666],"scale":[7.700442,0.16,15.5]},{"name":"barn roof end infill","mesh":3,"translation":[0,4.92,0]},{"name":"airplane hangar door","mesh":4,"translation":[0,2,7.58],"scale":[7.15,3.55,0.15]},{"name":"tiny human door","mesh":5,"translation":[5.2,1.3,7.6],"scale":[0.9,2.15,0.18]},{"name":"domestic window 0","mesh":6,"translation":[-5.5,3.6,7.61],"scale":[0.65,0.75,0.1]},{"name":"domestic window 1","mesh":6,"translation":[-4.3,3.6,7.61],"scale":[0.65,0.75,0.1]},{"name":"domestic window 2","mesh":6,"translation":[-3.1,3.6,7.61],"scale":[0.65,0.75,0.1]},{"name":"domestic window 3","mesh":6,"translation":[-1.9,3.6,7.61],"scale":[0.65,0.75,0.1]},{"name":"domestic window 4","mesh":6,"translation":[-0.7,3.6,7.61],"scale":[0.65,0.75,0.1]},{"name":"decorative grain bin","mesh":7,"translation":[-9.3,2.1,-2],"scale":[2.36,4.1,2.36]},{"name":"surveyed lot","mesh":8,"translation":[0,0.06,0],"scale":[20.16,0.12,21.28]},{"name":"metal barn home","mesh":9,"translation":[0,2.5,0],"scale":[13,4.8,15]},{"name":"barn roof left","mesh":10,"translation":[-3.45,6.629298,0],"rotation":[0,0,0.227978,0.973666],"scale":[7.700442,0.16,15.5]},{"name":"barn roof right","mesh":10,"translation":[3.45,6.629298,0],"rotation":[0,0,-0.227978,0.973666],"scale":[7.700442,0.16,15.5]},{"name":"barn roof end infill","mesh":3,"translation":[0,4.92,0]},{"name":"airplane hangar door","mesh":11,"translation":[0,2,7.58],"scale":[7.15,3.55,0.15]},{"name":"tiny human door","mesh":12,"translation":[5.2,1.3,7.6],"scale":[0.9,2.15,0.18]},{"name":"domestic window 0","mesh":13,"translation":[-5.5,3.6,7.61],"scale":[0.65,0.75,0.1]},{"name":"domestic window 1","mesh":13,"translation":[-4.3,3.6,7.61],"scale":[0.65,0.75,0.1]},{"name":"domestic window 2","mesh":13,"translation":[-3.1,3.6,7.61],"scale":[0.65,0.75,0.1]},{"name":"domestic window 3","mesh":13,"translation":[-1.9,3.6,7.61],"scale":[0.65,0.75,0.1]},{"name":"domestic window 4","mesh":13,"translation":[-0.7,3.6,7.61],"scale":[0.65,0.75,0.1]},{"name":"decorative grain bin","mesh":14,"translation":[-9.3,2.1,-2],"scale":[2.36,4.1,2.36]},{"name":"surveyed lot","mesh":8,"translation":[0,0.06,0],"scale":[20.16,0.12,21.28]},{"name":"metal barn home","mesh":9,"translation":[0,2.5,0],"scale":[13,4.8,15]},{"name":"barn roof left","mesh":10,"translation":[-3.45,6.629298,0],"rotation":[0,0,0.227978,0.973666],"scale":[7.700442,0.16,15.5]},{"name":"barn roof right","mesh":10,"translation":[3.45,6.629298,0],"rotation":[0,0,-0.227978,0.973666],"scale":[7.700442,0.16,15.5]},{"name":"barn roof end infill","mesh":3,"translation":[0,4.92,0]},{"name":"airplane hangar door","mesh":11,"translation":[0,2,7.58],"scale":[7.15,3.55,0.15]},{"name":"tiny human door","mesh":12,"translation":[5.2,1.3,7.6],"scale":[0.9,2.15,0.18]}],"meshes":[{"primitives":[{"attributes":{"POSITION":0,"NORMAL":1,"TEXCOORD_0":2},"material":0,"mode":4}]},{"primitives":[{"attributes":{"POSITION":3,"NORMAL":1,"TEXCOORD_0":4},"material":1,"mode":4}]},{"primitives":[{"attributes":{"POSITION":0,"NORMAL":1,"TEXCOORD_0":5},"material":2,"mode":4}]},{"primitives":[{"attributes":{"POSITION":6,"NORMAL":7,"TEXCOORD_0":8},"material":1,"mode":4}]},{"primitives":[{"attributes":{"POSITION":0,"NORMAL":1,"TEXCOORD_0":9},"material":3,"mode":4}]},{"primitives":[{"attributes":{"POSITION":0,"NORMAL":1,"TEXCOORD_0":10},"material":4,"mode":4}]},{"primitives":[{"attributes":{"POSITION":0,"NORMAL":1,"TEXCOORD_0":11},"material":5,"mode":4}]},{"primitives":[{"attributes":{"POSITION":12,"NORMAL":13,"TEXCOORD_0":14},"material":1,"mode":4,"indices":15}]},{"primitives":[{"attributes":{"POSITION":16,"NORMAL":17,"TEXCOORD_0":18},"material":0,"mode":4,"indices":19}]},{"primitives":[{"attributes":{"POSITION":16,"NORMAL":17,"TEXCOORD_0":20},"material":1,"mode":4,"indices":19}]},{"primitives":[{"attributes":{"POSITION":16,"NORMAL":17,"TEXCOORD_0":21},"material":2,"mode":4,"indices":19}]},{"primitives":[{"attributes":{"POSITION":16,"NORMAL":17,"TEXCOORD_0":22},"material":3,"mode":4,"indices":19}]},{"primitives":[{"attributes":{"POSITION":16,"NORMAL":17,"TEXCOORD_0":23},"material":4,"mode":4,"indices":19}]},{"primitives":[{"attributes":{"POSITION":16,"NORMAL":17,"TEXCOORD_0":24},"material":5,"mode":4,"indices":19}]},{"primitives":[{"attributes":{"POSITION":25,"NORMAL":26,"TEXCOORD_0":27},"material":1,"mode":4,"indices":28}]}],"materials":[{"name":"concrete","pbrMetallicRoughness":{"baseColorTexture":{"index":0},"metallicRoughnessTexture":{"index":2},"roughnessFactor":1,"metallicFactor":1},"normalTexture":{"index":1,"scale":0.82},"occlusionTexture":{"index":2,"strength":0.35}},{"name":"metal-galvanized","pbrMetallicRoughness":{"baseColorTexture":{"index":3},"metallicRoughnessTexture":{"index":5},"roughnessFactor":1,"metallicFactor":1},"normalTexture":{"index":4,"scale":0.15},"occlusionTexture":{"index":5,"strength":0.35}},{"name":"roof-metal","pbrMetallicRoughness":{"baseColorTexture":{"index":6},"metallicRoughnessTexture":{"index":8},"roughnessFactor":1,"metallicFactor":1},"normalTexture":{"index":7,"scale":0.68},"occlusionTexture":{"index":8,"strength":0.35}},{"name":"metal-dark","pbrMetallicRoughness":{"baseColorTexture":{"index":9},"metallicRoughnessTexture":{"index":11},"roughnessFactor":1,"metallicFactor":1},"normalTexture":{"index":10,"scale":0.35},"occlusionTexture":{"index":11,"strength":0.35}},{"name":"paint-red","pbrMetallicRoughness":{"baseColorFactor":[0.46778379610254284,0.08021982030622662,0.05126945836711539,1],"roughnessFactor":0.62,"metallicFactor":0.05}},{"name":"glass-blue","pbrMetallicRoughness":{"baseColorTexture":{"index":12},"metallicRoughnessTexture":{"index":14},"roughnessFactor":1,"metallicFactor":1},"normalTexture":{"index":13,"scale":0.12},"occlusionTexture":{"index":14,"strength":0.35}}],"textures":[{"source":0,"sampler":0},{"source":1,"sampler":0},{"source":2,"sampler":0},{"source":3,"sampler":0},{"source":4,"sampler":0},{"source":5,"sampler":0},{"source":6,"sampler":0},{"source":7,"sampler":0},{"source":8,"sampler":0},{"source":9,"sampler":0},{"source":10,"sampler":0},{"source":11,"sampler":0},{"source":12,"sampler":0},{"source":13,"sampler":0},{"source":14,"sampler":0}],"images":[{"uri":"../textures/concrete-albedo.png"},{"uri":"../textures/concrete-normal.png"},{"uri":"../textures/concrete-orm.png"},{"uri":"../textures/metal-galvanized-albedo.png"},{"uri":"../textures/metal-galvanized-normal.png"},{"uri":"../textures/metal-galvanized-orm.png"},{"uri":"../textures/roof-metal-albedo.png"},{"uri":"../textures/roof-metal-normal.png"},{"uri":"../textures/roof-metal-orm.png"},{"uri":"../textures/metal-dark-albedo.png"},{"uri":"../textures/metal-dark-normal.png"},{"uri":"../textures/metal-dark-orm.png"},{"uri":"../textures/glass-blue-albedo.png"},{"uri":"../textures/glass-blue-normal.png"},{"uri":"../textures/glass-blue-orm.png"}],"samplers":[{"magFilter":9729,"minFilter":9987,"wrapS":10497,"wrapT":10497}],"buffers":[{"uri":"../shared/geometry.bin","byteLength":16435520}],"bufferViews":[{"buffer":0,"byteOffset":0,"byteLength":3888,"target":34962},{"buffer":0,"byteOffset":3888,"byteLength":3888,"target":34962},{"buffer":0,"byteOffset":7979584,"byteLength":2592,"target":34962},{"buffer":0,"byteOffset":5079544,"byteLength":3888,"target":34962},{"buffer":0,"byteOffset":7982176,"byteLength":2592,"target":34962},{"buffer":0,"byteOffset":7984768,"byteLength":2592,"target":34962},{"buffer":0,"byteOffset":7987360,"byteLength":72,"target":34962},{"buffer":0,"byteOffset":608760,"byteLength":72,"target":34962},{"buffer":0,"byteOffset":7847984,"byteLength":48,"target":34962},{"buffer":0,"byteOffset":7848032,"byteLength":2592,"target":34962},{"buffer":0,"byteOffset":7802936,"byteLength":2592,"target":34962},{"buffer":0,"byteOffset":7805528,"byteLength":2592,"target":34962},{"buffer":0,"byteOffset":7850624,"byteLength":912,"target":34962},{"buffer":0,"byteOffset":7851536,"byteLength":912,"target":34962},{"buffer":0,"byteOffset":7852448,"byteLength":608,"target":34962},{"buffer":0,"byteOffset":387284,"byteLength":288,"target":34963},{"buffer":0,"byteOffset":46644,"byteLength":288,"target":34962},{"buffer":0,"byteOffset":45952,"byteLength":288,"target":34962},{"buffer":0,"byteOffset":7987432,"byteLength":192,"target":34962},{"buffer":0,"byteOffset":46432,"byteLength":72,"target":34963},{"buffer":0,"byteOffset":7987624,"byteLength":192,"target":34962},{"buffer":0,"byteOffset":7987816,"byteLength":192,"target":34962},{"buffer":0,"byteOffset":7853632,"byteLength":192,"target":34962},{"buffer":0,"byteOffset":7809496,"byteLength":192,"target":34962},{"buffer":0,"byteOffset":7809688,"byteLength":192,"target":34962},{"buffer":0,"byteOffset":7853824,"byteLength":480,"target":34962},{"buffer":0,"byteOffset":7854304,"byteLength":480,"target":34962},{"buffer":0,"byteOffset":7854784,"byteLength":320,"target":34962},{"buffer":0,"byteOffset":48596,"byteLength":144,"target":34963}],"accessors":[{"bufferView":0,"componentType":5126,"count":324,"type":"VEC3","min":[-0.5,-0.5,-0.5],"max":[0.5,0.5,0.5]},{"bufferView":1,"componentType":5126,"count":324,"type":"VEC3"},{"bufferView":2,"componentType":5126,"count":324,"type":"VEC2"},{"bufferView":3,"componentType":5126,"count":324,"type":"VEC3","min":[-0.5,-0.5,-0.5],"max":[0.5,0.5,0.5]},{"bufferView":4,"componentType":5126,"count":324,"type":"VEC2"},{"bufferView":5,"componentType":5126,"count":324,"type":"VEC2"},{"bufferView":6,"componentType":5126,"count":6,"type":"VEC3","min":[-6.900000095367432,0,-7.735000133514404],"max":[6.900000095367432,3.4185965061187744,7.735000133514404]},{"bufferView":7,"componentType":5126,"count":6,"type":"VEC3"},{"bufferView":8,"componentType":5126,"count":6,"type":"VEC2"},{"bufferView":9,"componentType":5126,"count":324,"type":"VEC2"},{"bufferView":10,"componentType":5126,"count":324,"type":"VEC2"},{"bufferView":11,"componentType":5126,"count":324,"type":"VEC2"},{"bufferView":12,"componentType":5126,"count":76,"type":"VEC3","min":[-1,-0.5,-1],"max":[1,0.5,1]},{"bufferView":13,"componentType":5126,"count":76,"type":"VEC3"},{"bufferView":14,"componentType":5126,"count":76,"type":"VEC2"},{"bufferView":15,"componentType":5123,"count":144,"type":"SCALAR"},{"bufferView":16,"componentType":5126,"count":24,"type":"VEC3","min":[-0.5,-0.5,-0.5],"max":[0.5,0.5,0.5]},{"bufferView":17,"componentType":5126,"count":24,"type":"VEC3"},{"bufferView":18,"componentType":5126,"count":24,"type":"VEC2"},{"bufferView":19,"componentType":5123,"count":36,"type":"SCALAR"},{"bufferView":20,"componentType":5126,"count":24,"type":"VEC2"},{"bufferView":21,"componentType":5126,"count":24,"type":"VEC2"},{"bufferView":22,"componentType":5126,"count":24,"type":"VEC2"},{"bufferView":23,"componentType":5126,"count":24,"type":"VEC2"},{"bufferView":24,"componentType":5126,"count":24,"type":"VEC2"},{"bufferView":25,"componentType":5126,"count":40,"type":"VEC3","min":[-0.8660253882408142,-0.5,-1],"max":[0.8660253882408142,0.5,1]},{"bufferView":26,"componentType":5126,"count":40,"type":"VEC3"},{"bufferView":27,"componentType":5126,"count":40,"type":"VEC2"},{"bufferView":28,"componentType":5123,"count":72,"type":"SCALAR"}],"extensionsUsed":["KHR_materials_unlit"],"extras":{"id":"vlt-liberty-barndominium-19","family":"liberty-barndominium","variant":18,"plan":"D4-1","units":"metres","up":"+Y","front":"+Z","lodScenes":[0,1,2]}}