{"asset":{"version":"2.0","generator":"SLOPMERICA Department of Unnecessary Development 1.0"},"scene":0,"scenes":[{"name":"LOD 0","nodes":[0,1,2,3,4,5,6,7,8,9,10,11,12,13,14,15,16,17,18,19,20,21,22,23,24,25,26],"extras":{"level":0}},{"name":"LOD 1","nodes":[27,28,29,30,31,32,33,34,35,36,37,38,39,40,41,42,43,44,45,46,47,48,49,50,51,52,53],"extras":{"level":1}},{"name":"LOD 2","nodes":[54,55,56,57,58,59,60,61,62,63,64],"extras":{"level":2}}],"nodes":[{"name":"surveyed lot","mesh":0,"translation":[0,0.06,0],"scale":[22.4,0.12,24.64]},{"name":"reinforced cabin","mesh":1,"translation":[0,1.85,0],"scale":[7.2,3.4,6.8]},{"name":"blast roof","mesh":2,"translation":[0,3.75,0],"scale":[8,0.55,7.6]},{"name":"palisade 0","mesh":3,"translation":[8.65,1.55,0],"scale":[0.22,3.1,0.22]},{"name":"palisade 1","mesh":4,"translation":[8.128341,1.625,2.958474],"rotation":[0,-0.173648,0,0.984808],"scale":[0.22,3.25,0.22]},{"name":"palisade 2","mesh":5,"translation":[6.626284,1.7,5.560113],"rotation":[0,-0.34202,0,0.939693],"scale":[0.22,3.4,0.22]},{"name":"palisade 3","mesh":3,"translation":[4.325,1.55,7.49112],"rotation":[0,-0.5,0,0.866025],"scale":[0.22,3.1,0.22]},{"name":"palisade 4","mesh":4,"translation":[1.502057,1.625,8.518587],"rotation":[0,-0.642788,0,0.766044],"scale":[0.22,3.25,0.22]},{"name":"palisade 5","mesh":5,"translation":[-1.502057,1.7,8.518587],"rotation":[0,-0.766044,0,0.642788],"scale":[0.22,3.4,0.22]},{"name":"palisade 6","mesh":3,"translation":[-4.325,1.55,7.49112],"rotation":[0,-0.866025,0,0.5],"scale":[0.22,3.1,0.22]},{"name":"palisade 7","mesh":4,"translation":[-6.626284,1.625,5.560113],"rotation":[0,0.939693,0,-0.34202],"scale":[0.22,3.25,0.22]},{"name":"palisade 8","mesh":5,"translation":[-8.128341,1.7,2.958474],"rotation":[0,0.984808,0,-0.173648],"scale":[0.22,3.4,0.22]},{"name":"palisade 9","mesh":3,"translation":[-8.65,1.55,0],"rotation":[0,1,0,0],"scale":[0.22,3.1,0.22]},{"name":"palisade 10","mesh":4,"translation":[-8.128341,1.625,-2.958474],"rotation":[0,0.984808,0,0.173648],"scale":[0.22,3.25,0.22]},{"name":"palisade 11","mesh":5,"translation":[-6.626284,1.7,-5.560113],"rotation":[0,0.939693,0,0.34202],"scale":[0.22,3.4,0.22]},{"name":"palisade 12","mesh":3,"translation":[-4.325,1.55,-7.49112],"rotation":[0,0.866025,0,0.5],"scale":[0.22,3.1,0.22]},{"name":"palisade 13","mesh":4,"translation":[-1.502057,1.625,-8.518587],"rotation":[0,0.766044,0,0.642788],"scale":[0.22,3.25,0.22]},{"name":"palisade 14","mesh":5,"translation":[1.502057,1.7,-8.518587],"rotation":[0,0.642788,0,0.766044],"scale":[0.22,3.4,0.22]},{"name":"palisade 15","mesh":3,"translation":[4.325,1.55,-7.49112],"rotation":[0,0.5,0,0.866025],"scale":[0.22,3.1,0.22]},{"name":"palisade 16","mesh":4,"translation":[6.626284,1.625,-5.560113],"rotation":[0,0.34202,0,0.939693],"scale":[0.22,3.25,0.22]},{"name":"palisade 17","mesh":5,"translation":[8.128341,1.7,-2.958474],"rotation":[0,0.173648,0,0.984808],"scale":[0.22,3.4,0.22]},{"name":"buried bunker hatch","mesh":6,"translation":[4.3,0.25,-3.5],"scale":[1.05,0.35,1.05]},{"name":"water tote 0","mesh":7,"translation":[-3,0.7,3.9],"scale":[1.2,1.2,1.2]},{"name":"water tote 1","mesh":7,"translation":[-1.6,0.7,3.9],"scale":[1.2,1.2,1.2]},{"name":"water tote 2","mesh":7,"translation":[-0.2,0.7,3.9],"scale":[1.2,1.2,1.2]},{"name":"water tote 3","mesh":7,"translation":[1.2,0.7,3.9],"scale":[1.2,1.2,1.2]},{"name":"water tote 4","mesh":7,"translation":[2.6,0.7,3.9],"scale":[1.2,1.2,1.2]},{"name":"surveyed lot","mesh":8,"translation":[0,0.06,0],"scale":[22.4,0.12,24.64]},{"name":"reinforced cabin","mesh":9,"translation":[0,1.85,0],"scale":[7.2,3.4,6.8]},{"name":"blast roof","mesh":10,"translation":[0,3.75,0],"scale":[8,0.55,7.6]},{"name":"palisade 0","mesh":11,"translation":[8.65,1.55,0],"scale":[0.22,3.1,0.22]},{"name":"palisade 1","mesh":12,"translation":[8.128341,1.625,2.958474],"rotation":[0,-0.173648,0,0.984808],"scale":[0.22,3.25,0.22]},{"name":"palisade 2","mesh":13,"translation":[6.626284,1.7,5.560113],"rotation":[0,-0.34202,0,0.939693],"scale":[0.22,3.4,0.22]},{"name":"palisade 3","mesh":11,"translation":[4.325,1.55,7.49112],"rotation":[0,-0.5,0,0.866025],"scale":[0.22,3.1,0.22]},{"name":"palisade 4","mesh":12,"translation":[1.502057,1.625,8.518587],"rotation":[0,-0.642788,0,0.766044],"scale":[0.22,3.25,0.22]},{"name":"palisade 5","mesh":13,"translation":[-1.502057,1.7,8.518587],"rotation":[0,-0.766044,0,0.642788],"scale":[0.22,3.4,0.22]},{"name":"palisade 6","mesh":11,"translation":[-4.325,1.55,7.49112],"rotation":[0,-0.866025,0,0.5],"scale":[0.22,3.1,0.22]},{"name":"palisade 7","mesh":12,"translation":[-6.626284,1.625,5.560113],"rotation":[0,0.939693,0,-0.34202],"scale":[0.22,3.25,0.22]},{"name":"palisade 8","mesh":13,"translation":[-8.128341,1.7,2.958474],"rotation":[0,0.984808,0,-0.173648],"scale":[0.22,3.4,0.22]},{"name":"palisade 9","mesh":11,"translation":[-8.65,1.55,0],"rotation":[0,1,0,0],"scale":[0.22,3.1,0.22]},{"name":"palisade 10","mesh":12,"translation":[-8.128341,1.625,-2.958474],"rotation":[0,0.984808,0,0.173648],"scale":[0.22,3.25,0.22]},{"name":"palisade 11","mesh":13,"translation":[-6.626284,1.7,-5.560113],"rotation":[0,0.939693,0,0.34202],"scale":[0.22,3.4,0.22]},{"name":"palisade 12","mesh":11,"translation":[-4.325,1.55,-7.49112],"rotation":[0,0.866025,0,0.5],"scale":[0.22,3.1,0.22]},{"name":"palisade 13","mesh":12,"translation":[-1.502057,1.625,-8.518587],"rotation":[0,0.766044,0,0.642788],"scale":[0.22,3.25,0.22]},{"name":"palisade 14","mesh":13,"translation":[1.502057,1.7,-8.518587],"rotation":[0,0.642788,0,0.766044],"scale":[0.22,3.4,0.22]},{"name":"palisade 15","mesh":11,"translation":[4.325,1.55,-7.49112],"rotation":[0,0.5,0,0.866025],"scale":[0.22,3.1,0.22]},{"name":"palisade 16","mesh":12,"translation":[6.626284,1.625,-5.560113],"rotation":[0,0.34202,0,0.939693],"scale":[0.22,3.25,0.22]},{"name":"palisade 17","mesh":13,"translation":[8.128341,1.7,-2.958474],"rotation":[0,0.173648,0,0.984808],"scale":[0.22,3.4,0.22]},{"name":"buried bunker hatch","mesh":14,"translation":[4.3,0.25,-3.5],"scale":[1.05,0.35,1.05]},{"name":"water tote 0","mesh":15,"translation":[-3,0.7,3.9],"scale":[1.2,1.2,1.2]},{"name":"water tote 1","mesh":15,"translation":[-1.6,0.7,3.9],"scale":[1.2,1.2,1.2]},{"name":"water tote 2","mesh":15,"translation":[-0.2,0.7,3.9],"scale":[1.2,1.2,1.2]},{"name":"water tote 3","mesh":15,"translation":[1.2,0.7,3.9],"scale":[1.2,1.2,1.2]},{"name":"water tote 4","mesh":15,"translation":[2.6,0.7,3.9],"scale":[1.2,1.2,1.2]},{"name":"surveyed lot","mesh":8,"translation":[0,0.06,0],"scale":[22.4,0.12,24.64]},{"name":"reinforced cabin","mesh":9,"translation":[0,1.85,0],"scale":[7.2,3.4,6.8]},{"name":"blast roof","mesh":10,"translation":[0,3.75,0],"scale":[8,0.55,7.6]},{"name":"palisade 0","mesh":11,"translation":[8.65,1.55,0],"scale":[0.22,3.1,0.22]},{"name":"palisade 1","mesh":12,"translation":[6.116474,1.625,6.116474],"rotation":[0,-0.382683,0,0.92388],"scale":[0.22,3.25,0.22]},{"name":"palisade 2","mesh":13,"translation":[0,1.7,8.65],"rotation":[0,-0.707107,0,0.707107],"scale":[0.22,3.4,0.22]},{"name":"palisade 3","mesh":11,"translation":[-6.116474,1.55,6.116474],"rotation":[0,0.92388,0,-0.382683],"scale":[0.22,3.1,0.22]},{"name":"palisade 4","mesh":12,"translation":[-8.65,1.625,0],"rotation":[0,1,0,0],"scale":[0.22,3.25,0.22]},{"name":"palisade 5","mesh":13,"translation":[-6.116474,1.7,-6.116474],"rotation":[0,0.92388,0,0.382683],"scale":[0.22,3.4,0.22]},{"name":"palisade 6","mesh":11,"translation":[0,1.55,-8.65],"rotation":[0,0.707107,0,0.707107],"scale":[0.22,3.1,0.22]},{"name":"palisade 7","mesh":12,"translation":[6.116474,1.625,-6.116474],"rotation":[0,0.382683,0,0.92388],"scale":[0.22,3.25,0.22]}],"meshes":[{"primitives":[{"attributes":{"POSITION":0,"NORMAL":1,"TEXCOORD_0":2},"material":0,"mode":4}]},{"primitives":[{"attributes":{"POSITION":3,"NORMAL":1,"TEXCOORD_0":4},"material":0,"mode":4}]},{"primitives":[{"attributes":{"POSITION":0,"NORMAL":1,"TEXCOORD_0":5},"material":1,"mode":4}]},{"primitives":[{"attributes":{"POSITION":0,"NORMAL":1,"TEXCOORD_0":6},"material":2,"mode":4}]},{"primitives":[{"attributes":{"POSITION":0,"NORMAL":1,"TEXCOORD_0":7},"material":2,"mode":4}]},{"primitives":[{"attributes":{"POSITION":0,"NORMAL":1,"TEXCOORD_0":8},"material":2,"mode":4}]},{"primitives":[{"attributes":{"POSITION":9,"NORMAL":10,"TEXCOORD_0":11},"material":1,"mode":4,"indices":12}]},{"primitives":[{"attributes":{"POSITION":0,"NORMAL":1,"TEXCOORD_0":13},"material":3,"mode":4}]},{"primitives":[{"attributes":{"POSITION":14,"NORMAL":15,"TEXCOORD_0":16},"material":0,"mode":4,"indices":17}]},{"primitives":[{"attributes":{"POSITION":14,"NORMAL":15,"TEXCOORD_0":18},"material":0,"mode":4,"indices":17}]},{"primitives":[{"attributes":{"POSITION":14,"NORMAL":15,"TEXCOORD_0":19},"material":1,"mode":4,"indices":17}]},{"primitives":[{"attributes":{"POSITION":14,"NORMAL":15,"TEXCOORD_0":20},"material":2,"mode":4,"indices":17}]},{"primitives":[{"attributes":{"POSITION":14,"NORMAL":15,"TEXCOORD_0":21},"material":2,"mode":4,"indices":17}]},{"primitives":[{"attributes":{"POSITION":14,"NORMAL":15,"TEXCOORD_0":22},"material":2,"mode":4,"indices":17}]},{"primitives":[{"attributes":{"POSITION":23,"NORMAL":24,"TEXCOORD_0":25},"material":1,"mode":4,"indices":26}]},{"primitives":[{"attributes":{"POSITION":14,"NORMAL":15,"TEXCOORD_0":27},"material":3,"mode":4,"indices":17}]}],"materials":[{"name":"concrete","pbrMetallicRoughness":{"baseColorTexture":{"index":0},"metallicRoughnessTexture":{"index":2},"roughnessFactor":1,"metallicFactor":1},"normalTexture":{"index":1,"scale":0.82},"occlusionTexture":{"index":2,"strength":0.35}},{"name":"metal-dark","pbrMetallicRoughness":{"baseColorTexture":{"index":3},"metallicRoughnessTexture":{"index":5},"roughnessFactor":1,"metallicFactor":1},"normalTexture":{"index":4,"scale":0.35},"occlusionTexture":{"index":5,"strength":0.35}},{"name":"metal-galvanized","pbrMetallicRoughness":{"baseColorTexture":{"index":6},"metallicRoughnessTexture":{"index":8},"roughnessFactor":1,"metallicFactor":1},"normalTexture":{"index":7,"scale":0.15},"occlusionTexture":{"index":8,"strength":0.35}},{"name":"glass-blue","pbrMetallicRoughness":{"baseColorTexture":{"index":9},"metallicRoughnessTexture":{"index":11},"roughnessFactor":1,"metallicFactor":1},"normalTexture":{"index":10,"scale":0.12},"occlusionTexture":{"index":11,"strength":0.35}}],"textures":[{"source":0,"sampler":0},{"source":1,"sampler":0},{"source":2,"sampler":0},{"source":3,"sampler":0},{"source":4,"sampler":0},{"source":5,"sampler":0},{"source":6,"sampler":0},{"source":7,"sampler":0},{"source":8,"sampler":0},{"source":9,"sampler":0},{"source":10,"sampler":0},{"source":11,"sampler":0}],"images":[{"uri":"../textures/concrete-albedo.png"},{"uri":"../textures/concrete-normal.png"},{"uri":"../textures/concrete-orm.png"},{"uri":"../textures/metal-dark-albedo.png"},{"uri":"../textures/metal-dark-normal.png"},{"uri":"../textures/metal-dark-orm.png"},{"uri":"../textures/metal-galvanized-albedo.png"},{"uri":"../textures/metal-galvanized-normal.png"},{"uri":"../textures/metal-galvanized-orm.png"},{"uri":"../textures/glass-blue-albedo.png"},{"uri":"../textures/glass-blue-normal.png"},{"uri":"../textures/glass-blue-orm.png"}],"samplers":[{"magFilter":9729,"minFilter":9987,"wrapS":10497,"wrapT":10497}],"buffers":[{"uri":"../shared/geometry.bin","byteLength":16435520}],"bufferViews":[{"buffer":0,"byteOffset":0,"byteLength":3888,"target":34962},{"buffer":0,"byteOffset":3888,"byteLength":3888,"target":34962},{"buffer":0,"byteOffset":11133120,"byteLength":2592,"target":34962},{"buffer":0,"byteOffset":599616,"byteLength":3888,"target":34962},{"buffer":0,"byteOffset":11084864,"byteLength":2592,"target":34962},{"buffer":0,"byteOffset":11087456,"byteLength":2592,"target":34962},{"buffer":0,"byteOffset":11090048,"byteLength":2592,"target":34962},{"buffer":0,"byteOffset":11092640,"byteLength":2592,"target":34962},{"buffer":0,"byteOffset":11095232,"byteLength":2592,"target":34962},{"buffer":0,"byteOffset":5526272,"byteLength":912,"target":34962},{"buffer":0,"byteOffset":5527184,"byteLength":912,"target":34962},{"buffer":0,"byteOffset":11097824,"byteLength":608,"target":34962},{"buffer":0,"byteOffset":387284,"byteLength":288,"target":34963},{"buffer":0,"byteOffset":11098432,"byteLength":2592,"target":34962},{"buffer":0,"byteOffset":46644,"byteLength":288,"target":34962},{"buffer":0,"byteOffset":45952,"byteLength":288,"target":34962},{"buffer":0,"byteOffset":11135712,"byteLength":192,"target":34962},{"buffer":0,"byteOffset":46432,"byteLength":72,"target":34963},{"buffer":0,"byteOffset":11101024,"byteLength":192,"target":34962},{"buffer":0,"byteOffset":11101216,"byteLength":192,"target":34962},{"buffer":0,"byteOffset":11101408,"byteLength":192,"target":34962},{"buffer":0,"byteOffset":11101600,"byteLength":192,"target":34962},{"buffer":0,"byteOffset":11101792,"byteLength":192,"target":34962},{"buffer":0,"byteOffset":1112312,"byteLength":480,"target":34962},{"buffer":0,"byteOffset":1112792,"byteLength":480,"target":34962},{"buffer":0,"byteOffset":11101984,"byteLength":320,"target":34962},{"buffer":0,"byteOffset":48596,"byteLength":144,"target":34963},{"buffer":0,"byteOffset":11102304,"byteLength":192,"target":34962}],"accessors":[{"bufferView":0,"componentType":5126,"count":324,"type":"VEC3","min":[-0.5,-0.5,-0.5],"max":[0.5,0.5,0.5]},{"bufferView":1,"componentType":5126,"count":324,"type":"VEC3"},{"bufferView":2,"componentType":5126,"count":324,"type":"VEC2"},{"bufferView":3,"componentType":5126,"count":324,"type":"VEC3","min":[-0.5,-0.5,-0.5],"max":[0.5,0.5,0.5]},{"bufferView":4,"componentType":5126,"count":324,"type":"VEC2"},{"bufferView":5,"componentType":5126,"count":324,"type":"VEC2"},{"bufferView":6,"componentType":5126,"count":324,"type":"VEC2"},{"bufferView":7,"componentType":5126,"count":324,"type":"VEC2"},{"bufferView":8,"componentType":5126,"count":324,"type":"VEC2"},{"bufferView":9,"componentType":5126,"count":76,"type":"VEC3","min":[-1,-0.5,-1],"max":[1,0.5,1]},{"bufferView":10,"componentType":5126,"count":76,"type":"VEC3"},{"bufferView":11,"componentType":5126,"count":76,"type":"VEC2"},{"bufferView":12,"componentType":5123,"count":144,"type":"SCALAR"},{"bufferView":13,"componentType":5126,"count":324,"type":"VEC2"},{"bufferView":14,"componentType":5126,"count":24,"type":"VEC3","min":[-0.5,-0.5,-0.5],"max":[0.5,0.5,0.5]},{"bufferView":15,"componentType":5126,"count":24,"type":"VEC3"},{"bufferView":16,"componentType":5126,"count":24,"type":"VEC2"},{"bufferView":17,"componentType":5123,"count":36,"type":"SCALAR"},{"bufferView":18,"componentType":5126,"count":24,"type":"VEC2"},{"bufferView":19,"componentType":5126,"count":24,"type":"VEC2"},{"bufferView":20,"componentType":5126,"count":24,"type":"VEC2"},{"bufferView":21,"componentType":5126,"count":24,"type":"VEC2"},{"bufferView":22,"componentType":5126,"count":24,"type":"VEC2"},{"bufferView":23,"componentType":5126,"count":40,"type":"VEC3","min":[-0.8660253882408142,-0.5,-1],"max":[0.8660253882408142,0.5,1]},{"bufferView":24,"componentType":5126,"count":40,"type":"VEC3"},{"bufferView":25,"componentType":5126,"count":40,"type":"VEC2"},{"bufferView":26,"componentType":5123,"count":72,"type":"SCALAR"},{"bufferView":27,"componentType":5126,"count":24,"type":"VEC2"}],"extensionsUsed":["KHR_materials_unlit"],"extras":{"id":"vlt-prepper-compound-19","family":"prepper-compound","variant":18,"plan":"D4-1","units":"metres","up":"+Y","front":"+Z","lodScenes":[0,1,2]}}