{"asset":{"version":"2.0","generator":"SLOPMERICA Department of Unnecessary Development 1.0"},"scene":0,"scenes":[{"name":"LOD 0","nodes":[0,1,2,3,4,5,6,7,8,9,10,11,12,13,14,15,16,17],"extras":{"level":0}},{"name":"LOD 1","nodes":[18,19,20,21,22,23,24,25,26,27,28,29,30],"extras":{"level":1}},{"name":"LOD 2","nodes":[31,32,33,34,35,36,37,38],"extras":{"level":2}}],"nodes":[{"name":"foundation","mesh":0,"translation":[0,0.08,0],"scale":[15.4,0.16,9.27]},{"name":"diner-car","mesh":1,"translation":[0,1.316,0],"scale":[13.2,2.632,7.07]},{"name":"glass-band","mesh":2,"translation":[0,1.7296,0],"scale":[11.616,1.0528,7.17]},{"name":"diner-roof","mesh":3,"translation":[0,2.7824,0],"scale":[13.9,0.28,7.77]},{"name":"waffle-tile-0","mesh":4,"translation":[-3.01,3.572,3.735],"scale":[0.82,0.82,0.13]},{"name":"waffle-tile-1","mesh":5,"translation":[-2.15,3.652,3.735],"scale":[0.82,0.82,0.13]},{"name":"waffle-tile-2","mesh":4,"translation":[-1.29,3.572,3.735],"scale":[0.82,0.82,0.13]},{"name":"waffle-tile-3","mesh":5,"translation":[-0.43,3.652,3.735],"scale":[0.82,0.82,0.13]},{"name":"waffle-tile-4","mesh":4,"translation":[0.43,3.572,3.735],"scale":[0.82,0.82,0.13]},{"name":"waffle-tile-5","mesh":5,"translation":[1.29,3.652,3.735],"scale":[0.82,0.82,0.13]},{"name":"waffle-tile-6","mesh":4,"translation":[2.15,3.572,3.735],"scale":[0.82,0.82,0.13]},{"name":"waffle-tile-7","mesh":5,"translation":[3.01,3.652,3.735],"scale":[0.82,0.82,0.13]},{"name":"busy-state-queue-bar","mesh":6,"translation":[0,0.65,4.4541],"scale":[9.504,0.12,0.12]},{"name":"queue-car-0","mesh":7,"translation":[-3.96,0.34,4.949],"scale":[1.35,0.65,0.7]},{"name":"queue-car-1","mesh":8,"translation":[-1.98,0.34,5.5146],"scale":[1.35,0.65,0.7]},{"name":"queue-car-2","mesh":7,"translation":[0,0.34,4.949],"scale":[1.35,0.65,0.7]},{"name":"queue-car-3","mesh":8,"translation":[1.98,0.34,5.5146],"scale":[1.35,0.65,0.7]},{"name":"queue-car-4","mesh":7,"translation":[3.96,0.34,4.949],"scale":[1.35,0.65,0.7]},{"name":"foundation","mesh":9,"translation":[0,0.08,0],"scale":[15.4,0.16,9.27]},{"name":"diner-car","mesh":10,"translation":[0,1.316,0],"scale":[13.2,2.632,7.07]},{"name":"glass-band","mesh":11,"translation":[0,1.7296,0],"scale":[11.616,1.0528,7.17]},{"name":"diner-roof","mesh":12,"translation":[0,2.7824,0],"scale":[13.9,0.28,7.77]},{"name":"waffle-tile-0","mesh":13,"translation":[-1.72,3.572,3.735],"scale":[0.82,0.82,0.13]},{"name":"waffle-tile-1","mesh":14,"translation":[-0.86,3.652,3.735],"scale":[0.82,0.82,0.13]},{"name":"waffle-tile-2","mesh":13,"translation":[0,3.572,3.735],"scale":[0.82,0.82,0.13]},{"name":"waffle-tile-3","mesh":14,"translation":[0.86,3.652,3.735],"scale":[0.82,0.82,0.13]},{"name":"waffle-tile-4","mesh":13,"translation":[1.72,3.572,3.735],"scale":[0.82,0.82,0.13]},{"name":"busy-state-queue-bar","mesh":15,"translation":[0,0.65,4.4541],"scale":[9.504,0.12,0.12]},{"name":"queue-car-0","mesh":16,"translation":[-3.96,0.34,4.949],"scale":[1.35,0.65,0.7]},{"name":"queue-car-1","mesh":17,"translation":[-1.98,0.34,5.5146],"scale":[1.35,0.65,0.7]},{"name":"queue-car-2","mesh":16,"translation":[0,0.34,4.949],"scale":[1.35,0.65,0.7]},{"name":"foundation","mesh":9,"translation":[0,0.08,0],"scale":[15.4,0.16,9.27]},{"name":"diner-car","mesh":10,"translation":[0,1.316,0],"scale":[13.2,2.632,7.07]},{"name":"glass-band","mesh":11,"translation":[0,1.7296,0],"scale":[11.616,1.0528,7.17]},{"name":"diner-roof","mesh":12,"translation":[0,2.7824,0],"scale":[13.9,0.28,7.77]},{"name":"waffle-tile-0","mesh":13,"translation":[-0.43,3.572,3.735],"scale":[0.82,0.82,0.13]},{"name":"waffle-tile-1","mesh":14,"translation":[0.43,3.652,3.735],"scale":[0.82,0.82,0.13]},{"name":"busy-state-queue-bar","mesh":15,"translation":[0,0.65,4.4541],"scale":[9.504,0.12,0.12]},{"name":"queue-car-0","mesh":16,"translation":[-3.96,0.34,4.949],"scale":[1.35,0.65,0.7]}],"meshes":[{"primitives":[{"attributes":{"POSITION":0,"NORMAL":1,"TEXCOORD_0":2},"material":0,"mode":4}]},{"primitives":[{"attributes":{"POSITION":3,"NORMAL":1,"TEXCOORD_0":4},"material":1,"mode":4}]},{"primitives":[{"attributes":{"POSITION":0,"NORMAL":1,"TEXCOORD_0":5},"material":2,"mode":4}]},{"primitives":[{"attributes":{"POSITION":0,"NORMAL":1,"TEXCOORD_0":6},"material":3,"mode":4}]},{"primitives":[{"attributes":{"POSITION":0,"NORMAL":1,"TEXCOORD_0":7},"material":4,"mode":4}]},{"primitives":[{"attributes":{"POSITION":0,"NORMAL":1,"TEXCOORD_0":8},"material":3,"mode":4}]},{"primitives":[{"attributes":{"POSITION":0,"NORMAL":1,"TEXCOORD_0":9},"material":3,"mode":4}]},{"primitives":[{"attributes":{"POSITION":0,"NORMAL":1,"TEXCOORD_0":10},"material":5,"mode":4}]},{"primitives":[{"attributes":{"POSITION":0,"NORMAL":1,"TEXCOORD_0":10},"material":6,"mode":4}]},{"primitives":[{"attributes":{"POSITION":11,"NORMAL":12,"TEXCOORD_0":13},"material":0,"mode":4,"indices":14}]},{"primitives":[{"attributes":{"POSITION":11,"NORMAL":12,"TEXCOORD_0":15},"material":1,"mode":4,"indices":14}]},{"primitives":[{"attributes":{"POSITION":11,"NORMAL":12,"TEXCOORD_0":16},"material":2,"mode":4,"indices":14}]},{"primitives":[{"attributes":{"POSITION":11,"NORMAL":12,"TEXCOORD_0":17},"material":3,"mode":4,"indices":14}]},{"primitives":[{"attributes":{"POSITION":11,"NORMAL":12,"TEXCOORD_0":18},"material":4,"mode":4,"indices":14}]},{"primitives":[{"attributes":{"POSITION":11,"NORMAL":12,"TEXCOORD_0":19},"material":3,"mode":4,"indices":14}]},{"primitives":[{"attributes":{"POSITION":11,"NORMAL":12,"TEXCOORD_0":20},"material":3,"mode":4,"indices":14}]},{"primitives":[{"attributes":{"POSITION":11,"NORMAL":12,"TEXCOORD_0":21},"material":5,"mode":4,"indices":14}]},{"primitives":[{"attributes":{"POSITION":11,"NORMAL":12,"TEXCOORD_0":21},"material":6,"mode":4,"indices":14}]}],"materials":[{"name":"concrete","pbrMetallicRoughness":{"baseColorTexture":{"index":0},"metallicRoughnessTexture":{"index":2},"roughnessFactor":1,"metallicFactor":1},"normalTexture":{"index":1,"scale":0.82},"occlusionTexture":{"index":2,"strength":0.35}},{"name":"metal-galvanized","pbrMetallicRoughness":{"baseColorTexture":{"index":3},"metallicRoughnessTexture":{"index":5},"roughnessFactor":1,"metallicFactor":1},"normalTexture":{"index":4,"scale":0.15},"occlusionTexture":{"index":5,"strength":0.35}},{"name":"glass-blue","pbrMetallicRoughness":{"baseColorTexture":{"index":6},"metallicRoughnessTexture":{"index":8},"roughnessFactor":1,"metallicFactor":1},"normalTexture":{"index":7,"scale":0.12},"occlusionTexture":{"index":8,"strength":0.35}},{"name":"paint-yellow","pbrMetallicRoughness":{"baseColorFactor":[0.76052450467022,0.4793201830913402,0.07818742179702069,1],"roughnessFactor":0.66,"metallicFactor":0.03}},{"name":"metal-dark","pbrMetallicRoughness":{"baseColorTexture":{"index":9},"metallicRoughnessTexture":{"index":11},"roughnessFactor":1,"metallicFactor":1},"normalTexture":{"index":10,"scale":0.35},"occlusionTexture":{"index":11,"strength":0.35}},{"name":"paint-red","pbrMetallicRoughness":{"baseColorFactor":[0.46778379610254284,0.08021982030622662,0.05126945836711539,1],"roughnessFactor":0.62,"metallicFactor":0.05}},{"name":"paint-blue","pbrMetallicRoughness":{"baseColorFactor":[0.05126945836711539,0.10946171076915331,0.22696587349938613,1],"roughnessFactor":0.58,"metallicFactor":0.05}}],"textures":[{"source":0,"sampler":0},{"source":1,"sampler":0},{"source":2,"sampler":0},{"source":3,"sampler":0},{"source":4,"sampler":0},{"source":5,"sampler":0},{"source":6,"sampler":0},{"source":7,"sampler":0},{"source":8,"sampler":0},{"source":9,"sampler":0},{"source":10,"sampler":0},{"source":11,"sampler":0}],"images":[{"uri":"../textures/concrete-albedo.png"},{"uri":"../textures/concrete-normal.png"},{"uri":"../textures/concrete-orm.png"},{"uri":"../textures/metal-galvanized-albedo.png"},{"uri":"../textures/metal-galvanized-normal.png"},{"uri":"../textures/metal-galvanized-orm.png"},{"uri":"../textures/glass-blue-albedo.png"},{"uri":"../textures/glass-blue-normal.png"},{"uri":"../textures/glass-blue-orm.png"},{"uri":"../textures/metal-dark-albedo.png"},{"uri":"../textures/metal-dark-normal.png"},{"uri":"../textures/metal-dark-orm.png"}],"samplers":[{"magFilter":9729,"minFilter":9987,"wrapS":10497,"wrapT":10497}],"buffers":[{"uri":"../shared/geometry.bin","byteLength":16435520}],"bufferViews":[{"buffer":0,"byteOffset":0,"byteLength":3888,"target":34962},{"buffer":0,"byteOffset":3888,"byteLength":3888,"target":34962},{"buffer":0,"byteOffset":15496716,"byteLength":2592,"target":34962},{"buffer":0,"byteOffset":693144,"byteLength":3888,"target":34962},{"buffer":0,"byteOffset":15499308,"byteLength":2592,"target":34962},{"buffer":0,"byteOffset":15501900,"byteLength":2592,"target":34962},{"buffer":0,"byteOffset":15504492,"byteLength":2592,"target":34962},{"buffer":0,"byteOffset":15395724,"byteLength":2592,"target":34962},{"buffer":0,"byteOffset":15398316,"byteLength":2592,"target":34962},{"buffer":0,"byteOffset":2821256,"byteLength":2592,"target":34962},{"buffer":0,"byteOffset":582912,"byteLength":2592,"target":34962},{"buffer":0,"byteOffset":46644,"byteLength":288,"target":34962},{"buffer":0,"byteOffset":45952,"byteLength":288,"target":34962},{"buffer":0,"byteOffset":15507084,"byteLength":192,"target":34962},{"buffer":0,"byteOffset":46432,"byteLength":72,"target":34963},{"buffer":0,"byteOffset":15507276,"byteLength":192,"target":34962},{"buffer":0,"byteOffset":15507468,"byteLength":192,"target":34962},{"buffer":0,"byteOffset":15507660,"byteLength":192,"target":34962},{"buffer":0,"byteOffset":15401676,"byteLength":192,"target":34962},{"buffer":0,"byteOffset":15401868,"byteLength":192,"target":34962},{"buffer":0,"byteOffset":2823848,"byteLength":192,"target":34962},{"buffer":0,"byteOffset":585696,"byteLength":192,"target":34962}],"accessors":[{"bufferView":0,"componentType":5126,"count":324,"type":"VEC3","min":[-0.5,-0.5,-0.5],"max":[0.5,0.5,0.5]},{"bufferView":1,"componentType":5126,"count":324,"type":"VEC3"},{"bufferView":2,"componentType":5126,"count":324,"type":"VEC2"},{"bufferView":3,"componentType":5126,"count":324,"type":"VEC3","min":[-0.5,-0.5,-0.5],"max":[0.5,0.5,0.5]},{"bufferView":4,"componentType":5126,"count":324,"type":"VEC2"},{"bufferView":5,"componentType":5126,"count":324,"type":"VEC2"},{"bufferView":6,"componentType":5126,"count":324,"type":"VEC2"},{"bufferView":7,"componentType":5126,"count":324,"type":"VEC2"},{"bufferView":8,"componentType":5126,"count":324,"type":"VEC2"},{"bufferView":9,"componentType":5126,"count":324,"type":"VEC2"},{"bufferView":10,"componentType":5126,"count":324,"type":"VEC2"},{"bufferView":11,"componentType":5126,"count":24,"type":"VEC3","min":[-0.5,-0.5,-0.5],"max":[0.5,0.5,0.5]},{"bufferView":12,"componentType":5126,"count":24,"type":"VEC3"},{"bufferView":13,"componentType":5126,"count":24,"type":"VEC2"},{"bufferView":14,"componentType":5123,"count":36,"type":"SCALAR"},{"bufferView":15,"componentType":5126,"count":24,"type":"VEC2"},{"bufferView":16,"componentType":5126,"count":24,"type":"VEC2"},{"bufferView":17,"componentType":5126,"count":24,"type":"VEC2"},{"bufferView":18,"componentType":5126,"count":24,"type":"VEC2"},{"bufferView":19,"componentType":5126,"count":24,"type":"VEC2"},{"bufferView":20,"componentType":5126,"count":24,"type":"VEC2"},{"bufferView":21,"componentType":5126,"count":24,"type":"VEC2"}],"extensionsUsed":["KHR_materials_unlit"],"extras":{"id":"vlt-waffle-index-31","family":"waffle-index","variant":30,"plan":"C1-2","units":"metres","up":"+Y","front":"+Z","lodScenes":[0,1,2]}}