{"asset":{"version":"2.0","generator":"SLOPMERICA Department of Unnecessary Development 1.0"},"scene":0,"scenes":[{"name":"LOD 0","nodes":[0,1,2,3,4,5,6,7,8,9,10,11,12,13,14,15,16,17,18,19,20,21,22],"extras":{"level":0}},{"name":"LOD 1","nodes":[23,24,25,26,27,28,29,30,31,32,33,34,35,36,37,38,39,40,41,42,43,44,45],"extras":{"level":1}},{"name":"LOD 2","nodes":[46,47,48,49,50,51,52,53,54,55,56,57],"extras":{"level":2}}],"nodes":[{"name":"surveyed lot","mesh":0,"translation":[0,0.06,0],"scale":[15.6,0.12,10.8]},{"name":"steel tree trunk","mesh":1,"translation":[0,8,0],"scale":[0.58,16,0.58]},{"name":"fake branch left 0","mesh":2,"translation":[0,0,0]},{"name":"fake branch right 0","mesh":3,"translation":[0,0,0]},{"name":"fake branch left 1","mesh":4,"translation":[0,0,0]},{"name":"fake branch right 1","mesh":5,"translation":[0,0,0]},{"name":"fake branch left 2","mesh":6,"translation":[0,0,0]},{"name":"fake branch right 2","mesh":7,"translation":[0,0,0]},{"name":"fake branch left 3","mesh":8,"translation":[0,0,0]},{"name":"fake branch right 3","mesh":9,"translation":[0,0,0]},{"name":"fake branch left 4","mesh":10,"translation":[0,0,0]},{"name":"fake branch right 4","mesh":11,"translation":[0,0,0]},{"name":"fake branch left 5","mesh":12,"translation":[0,0,0]},{"name":"fake branch right 5","mesh":13,"translation":[0,0,0]},{"name":"fake branch left 6","mesh":14,"translation":[0,0,0]},{"name":"fake branch right 6","mesh":15,"translation":[0,0,0]},{"name":"fake branch left 7","mesh":16,"translation":[0,0,0]},{"name":"fake branch right 7","mesh":17,"translation":[0,0,0]},{"name":"cell panels","mesh":18,"translation":[0,12.48,0.65],"rotation":[0,0.099833,0,0.995004],"scale":[2.96,1.7,0.28]},{"name":"last tree plaque plinth","mesh":19,"translation":[0,0.6,3.2],"scale":[3.5,1,1.8]},{"name":"last tree plaque-back","mesh":20,"translation":[0,0.75,4.12],"scale":[3,0.8,1]},{"name":"last tree plaque","mesh":21,"translation":[0,0.75,4.149],"scale":[2.9,0.7,1]},{"name":"maintenance cabinet","mesh":22,"translation":[2.8,1.25,-1],"scale":[1.5,2.5,1.2]},{"name":"surveyed lot","mesh":23,"translation":[0,0.06,0],"scale":[15.6,0.12,10.8]},{"name":"steel tree trunk","mesh":24,"translation":[0,8,0],"scale":[0.58,16,0.58]},{"name":"fake branch left 0","mesh":25,"translation":[0,0,0]},{"name":"fake branch right 0","mesh":26,"translation":[0,0,0]},{"name":"fake branch left 1","mesh":27,"translation":[0,0,0]},{"name":"fake branch right 1","mesh":28,"translation":[0,0,0]},{"name":"fake branch left 2","mesh":29,"translation":[0,0,0]},{"name":"fake branch right 2","mesh":30,"translation":[0,0,0]},{"name":"fake branch left 3","mesh":31,"translation":[0,0,0]},{"name":"fake branch right 3","mesh":32,"translation":[0,0,0]},{"name":"fake branch left 4","mesh":33,"translation":[0,0,0]},{"name":"fake branch right 4","mesh":34,"translation":[0,0,0]},{"name":"fake branch left 5","mesh":35,"translation":[0,0,0]},{"name":"fake branch right 5","mesh":36,"translation":[0,0,0]},{"name":"fake branch left 6","mesh":37,"translation":[0,0,0]},{"name":"fake branch right 6","mesh":38,"translation":[0,0,0]},{"name":"fake branch left 7","mesh":39,"translation":[0,0,0]},{"name":"fake branch right 7","mesh":40,"translation":[0,0,0]},{"name":"cell panels","mesh":41,"translation":[0,12.48,0.65],"rotation":[0,0.099833,0,0.995004],"scale":[2.96,1.7,0.28]},{"name":"last tree plaque plinth","mesh":42,"translation":[0,0.6,3.2],"scale":[3.5,1,1.8]},{"name":"last tree plaque-back","mesh":20,"translation":[0,0.75,4.12],"scale":[3,0.8,1]},{"name":"last tree plaque","mesh":21,"translation":[0,0.75,4.149],"scale":[2.9,0.7,1]},{"name":"maintenance cabinet","mesh":43,"translation":[2.8,1.25,-1],"scale":[1.5,2.5,1.2]},{"name":"surveyed lot","mesh":23,"translation":[0,0.06,0],"scale":[15.6,0.12,10.8]},{"name":"steel tree trunk","mesh":24,"translation":[0,8,0],"scale":[0.58,16,0.58]},{"name":"fake branch left 0","mesh":44,"translation":[0,0,0]},{"name":"fake branch right 0","mesh":45,"translation":[0,0,0]},{"name":"fake branch left 1","mesh":46,"translation":[0,0,0]},{"name":"fake branch right 1","mesh":47,"translation":[0,0,0]},{"name":"fake branch left 2","mesh":48,"translation":[0,0,0]},{"name":"fake branch right 2","mesh":49,"translation":[0,0,0]},{"name":"cell panels","mesh":41,"translation":[0,12.48,0.65],"rotation":[0,0.099833,0,0.995004],"scale":[2.96,1.7,0.28]},{"name":"last tree plaque plinth","mesh":42,"translation":[0,0.6,3.2],"scale":[3.5,1,1.8]},{"name":"last tree plaque-back","mesh":20,"translation":[0,0.75,4.12],"scale":[3,0.8,1]},{"name":"last tree plaque","mesh":21,"translation":[0,0.75,4.149],"scale":[2.9,0.7,1]}],"meshes":[{"primitives":[{"attributes":{"POSITION":0,"NORMAL":1,"TEXCOORD_0":2},"material":0,"mode":4}]},{"primitives":[{"attributes":{"POSITION":3,"NORMAL":4,"TEXCOORD_0":5},"material":1,"mode":4,"indices":6}]},{"primitives":[{"attributes":{"POSITION":7,"NORMAL":8,"TEXCOORD_0":9},"material":2,"mode":4,"indices":10}]},{"primitives":[{"attributes":{"POSITION":11,"NORMAL":12,"TEXCOORD_0":9},"material":2,"mode":4,"indices":10}]},{"primitives":[{"attributes":{"POSITION":13,"NORMAL":14,"TEXCOORD_0":9},"material":2,"mode":4,"indices":10}]},{"primitives":[{"attributes":{"POSITION":15,"NORMAL":16,"TEXCOORD_0":9},"material":2,"mode":4,"indices":10}]},{"primitives":[{"attributes":{"POSITION":17,"NORMAL":18,"TEXCOORD_0":9},"material":2,"mode":4,"indices":10}]},{"primitives":[{"attributes":{"POSITION":19,"NORMAL":20,"TEXCOORD_0":9},"material":2,"mode":4,"indices":10}]},{"primitives":[{"attributes":{"POSITION":21,"NORMAL":22,"TEXCOORD_0":9},"material":2,"mode":4,"indices":10}]},{"primitives":[{"attributes":{"POSITION":23,"NORMAL":24,"TEXCOORD_0":9},"material":2,"mode":4,"indices":10}]},{"primitives":[{"attributes":{"POSITION":25,"NORMAL":26,"TEXCOORD_0":9},"material":2,"mode":4,"indices":10}]},{"primitives":[{"attributes":{"POSITION":27,"NORMAL":28,"TEXCOORD_0":9},"material":2,"mode":4,"indices":10}]},{"primitives":[{"attributes":{"POSITION":29,"NORMAL":30,"TEXCOORD_0":9},"material":2,"mode":4,"indices":10}]},{"primitives":[{"attributes":{"POSITION":31,"NORMAL":32,"TEXCOORD_0":9},"material":2,"mode":4,"indices":10}]},{"primitives":[{"attributes":{"POSITION":33,"NORMAL":34,"TEXCOORD_0":9},"material":2,"mode":4,"indices":10}]},{"primitives":[{"attributes":{"POSITION":35,"NORMAL":36,"TEXCOORD_0":9},"material":2,"mode":4,"indices":10}]},{"primitives":[{"attributes":{"POSITION":37,"NORMAL":38,"TEXCOORD_0":9},"material":2,"mode":4,"indices":10}]},{"primitives":[{"attributes":{"POSITION":39,"NORMAL":40,"TEXCOORD_0":9},"material":2,"mode":4,"indices":10}]},{"primitives":[{"attributes":{"POSITION":0,"NORMAL":1,"TEXCOORD_0":41},"material":3,"mode":4}]},{"primitives":[{"attributes":{"POSITION":0,"NORMAL":1,"TEXCOORD_0":42},"material":4,"mode":4}]},{"primitives":[{"attributes":{"POSITION":43,"NORMAL":44,"TEXCOORD_0":45},"material":5,"mode":4,"indices":46}]},{"primitives":[{"attributes":{"POSITION":47,"NORMAL":48,"TEXCOORD_0":49},"material":6,"mode":4,"indices":50}]},{"primitives":[{"attributes":{"POSITION":0,"NORMAL":1,"TEXCOORD_0":51},"material":3,"mode":4}]},{"primitives":[{"attributes":{"POSITION":52,"NORMAL":44,"TEXCOORD_0":53},"material":0,"mode":4,"indices":46}]},{"primitives":[{"attributes":{"POSITION":54,"NORMAL":55,"TEXCOORD_0":56},"material":1,"mode":4,"indices":57}]},{"primitives":[{"attributes":{"POSITION":58,"NORMAL":59,"TEXCOORD_0":60},"material":2,"mode":4,"indices":61}]},{"primitives":[{"attributes":{"POSITION":62,"NORMAL":63,"TEXCOORD_0":60},"material":2,"mode":4,"indices":61}]},{"primitives":[{"attributes":{"POSITION":64,"NORMAL":65,"TEXCOORD_0":60},"material":2,"mode":4,"indices":61}]},{"primitives":[{"attributes":{"POSITION":66,"NORMAL":67,"TEXCOORD_0":60},"material":2,"mode":4,"indices":61}]},{"primitives":[{"attributes":{"POSITION":68,"NORMAL":69,"TEXCOORD_0":60},"material":2,"mode":4,"indices":61}]},{"primitives":[{"attributes":{"POSITION":70,"NORMAL":71,"TEXCOORD_0":60},"material":2,"mode":4,"indices":61}]},{"primitives":[{"attributes":{"POSITION":72,"NORMAL":73,"TEXCOORD_0":60},"material":2,"mode":4,"indices":61}]},{"primitives":[{"attributes":{"POSITION":74,"NORMAL":75,"TEXCOORD_0":60},"material":2,"mode":4,"indices":61}]},{"primitives":[{"attributes":{"POSITION":76,"NORMAL":77,"TEXCOORD_0":60},"material":2,"mode":4,"indices":61}]},{"primitives":[{"attributes":{"POSITION":78,"NORMAL":79,"TEXCOORD_0":60},"material":2,"mode":4,"indices":61}]},{"primitives":[{"attributes":{"POSITION":80,"NORMAL":81,"TEXCOORD_0":60},"material":2,"mode":4,"indices":61}]},{"primitives":[{"attributes":{"POSITION":82,"NORMAL":83,"TEXCOORD_0":60},"material":2,"mode":4,"indices":61}]},{"primitives":[{"attributes":{"POSITION":84,"NORMAL":85,"TEXCOORD_0":60},"material":2,"mode":4,"indices":61}]},{"primitives":[{"attributes":{"POSITION":86,"NORMAL":87,"TEXCOORD_0":60},"material":2,"mode":4,"indices":61}]},{"primitives":[{"attributes":{"POSITION":88,"NORMAL":89,"TEXCOORD_0":60},"material":2,"mode":4,"indices":61}]},{"primitives":[{"attributes":{"POSITION":90,"NORMAL":91,"TEXCOORD_0":60},"material":2,"mode":4,"indices":61}]},{"primitives":[{"attributes":{"POSITION":52,"NORMAL":44,"TEXCOORD_0":92},"material":3,"mode":4,"indices":46}]},{"primitives":[{"attributes":{"POSITION":52,"NORMAL":44,"TEXCOORD_0":93},"material":4,"mode":4,"indices":46}]},{"primitives":[{"attributes":{"POSITION":52,"NORMAL":44,"TEXCOORD_0":94},"material":3,"mode":4,"indices":46}]},{"primitives":[{"attributes":{"POSITION":95,"NORMAL":96,"TEXCOORD_0":97},"material":2,"mode":4,"indices":98}]},{"primitives":[{"attributes":{"POSITION":99,"NORMAL":100,"TEXCOORD_0":97},"material":2,"mode":4,"indices":98}]},{"primitives":[{"attributes":{"POSITION":101,"NORMAL":102,"TEXCOORD_0":97},"material":2,"mode":4,"indices":98}]},{"primitives":[{"attributes":{"POSITION":103,"NORMAL":104,"TEXCOORD_0":97},"material":2,"mode":4,"indices":98}]},{"primitives":[{"attributes":{"POSITION":105,"NORMAL":106,"TEXCOORD_0":97},"material":2,"mode":4,"indices":98}]},{"primitives":[{"attributes":{"POSITION":107,"NORMAL":108,"TEXCOORD_0":97},"material":2,"mode":4,"indices":98}]}],"materials":[{"name":"concrete","pbrMetallicRoughness":{"baseColorTexture":{"index":0},"metallicRoughnessTexture":{"index":2},"roughnessFactor":1,"metallicFactor":1},"normalTexture":{"index":1,"scale":0.82},"occlusionTexture":{"index":2,"strength":0.35}},{"name":"bark","pbrMetallicRoughness":{"baseColorTexture":{"index":3},"metallicRoughnessTexture":{"index":5},"roughnessFactor":1,"metallicFactor":1},"normalTexture":{"index":4,"scale":1.35},"occlusionTexture":{"index":5,"strength":0.35}},{"name":"foliage","pbrMetallicRoughness":{"baseColorTexture":{"index":6},"metallicRoughnessTexture":{"index":8},"roughnessFactor":1,"metallicFactor":1},"normalTexture":{"index":7,"scale":0.88},"occlusionTexture":{"index":8,"strength":0.35}},{"name":"metal-galvanized","pbrMetallicRoughness":{"baseColorTexture":{"index":9},"metallicRoughnessTexture":{"index":11},"roughnessFactor":1,"metallicFactor":1},"normalTexture":{"index":10,"scale":0.15},"occlusionTexture":{"index":11,"strength":0.35}},{"name":"limestone","pbrMetallicRoughness":{"baseColorTexture":{"index":12},"metallicRoughnessTexture":{"index":14},"roughnessFactor":1,"metallicFactor":1},"normalTexture":{"index":13,"scale":0.9},"occlusionTexture":{"index":14,"strength":0.35}},{"name":"metal-dark","pbrMetallicRoughness":{"baseColorTexture":{"index":15},"metallicRoughnessTexture":{"index":17},"roughnessFactor":1,"metallicFactor":1},"normalTexture":{"index":16,"scale":0.35},"occlusionTexture":{"index":17,"strength":0.35}},{"name":"frankenpine-memorial signage","pbrMetallicRoughness":{"baseColorTexture":{"index":18},"roughnessFactor":1,"metallicFactor":0},"extensions":{"KHR_materials_unlit":{}}}],"textures":[{"source":0,"sampler":0},{"source":1,"sampler":0},{"source":2,"sampler":0},{"source":3,"sampler":0},{"source":4,"sampler":0},{"source":5,"sampler":0},{"source":6,"sampler":0},{"source":7,"sampler":0},{"source":8,"sampler":0},{"source":9,"sampler":0},{"source":10,"sampler":0},{"source":11,"sampler":0},{"source":12,"sampler":0},{"source":13,"sampler":0},{"source":14,"sampler":0},{"source":15,"sampler":0},{"source":16,"sampler":0},{"source":17,"sampler":0},{"source":18,"sampler":0}],"images":[{"uri":"../textures/concrete-albedo.png"},{"uri":"../textures/concrete-normal.png"},{"uri":"../textures/concrete-orm.png"},{"uri":"../textures/bark-albedo.png"},{"uri":"../textures/bark-normal.png"},{"uri":"../textures/bark-orm.png"},{"uri":"../textures/foliage-albedo.png"},{"uri":"../textures/foliage-normal.png"},{"uri":"../textures/foliage-orm.png"},{"uri":"../textures/metal-galvanized-albedo.png"},{"uri":"../textures/metal-galvanized-normal.png"},{"uri":"../textures/metal-galvanized-orm.png"},{"uri":"../textures/limestone-albedo.png"},{"uri":"../textures/limestone-normal.png"},{"uri":"../textures/limestone-orm.png"},{"uri":"../textures/metal-dark-albedo.png"},{"uri":"../textures/metal-dark-normal.png"},{"uri":"../textures/metal-dark-orm.png"},{"uri":"../signs/frankenpine-memorial.png"}],"samplers":[{"magFilter":9729,"minFilter":9987,"wrapS":10497,"wrapT":10497}],"buffers":[{"uri":"../shared/geometry.bin","byteLength":16435520}],"bufferViews":[{"buffer":0,"byteOffset":0,"byteLength":3888,"target":34962},{"buffer":0,"byteOffset":3888,"byteLength":3888,"target":34962},{"buffer":0,"byteOffset":5494080,"byteLength":2592,"target":34962},{"buffer":0,"byteOffset":5184520,"byteLength":696,"target":34962},{"buffer":0,"byteOffset":5185216,"byteLength":696,"target":34962},{"buffer":0,"byteOffset":5341952,"byteLength":464,"target":34962},{"buffer":0,"byteOffset":2089908,"byteLength":216,"target":34963},{"buffer":0,"byteOffset":5342416,"byteLength":972,"target":34962},{"buffer":0,"byteOffset":5343388,"byteLength":972,"target":34962},{"buffer":0,"byteOffset":5188320,"byteLength":648,"target":34962},{"buffer":0,"byteOffset":410600,"byteLength":768,"target":34963},{"buffer":0,"byteOffset":5344360,"byteLength":972,"target":34962},{"buffer":0,"byteOffset":5345332,"byteLength":972,"target":34962},{"buffer":0,"byteOffset":5346304,"byteLength":972,"target":34962},{"buffer":0,"byteOffset":5347276,"byteLength":972,"target":34962},{"buffer":0,"byteOffset":5348248,"byteLength":972,"target":34962},{"buffer":0,"byteOffset":5349220,"byteLength":972,"target":34962},{"buffer":0,"byteOffset":5350192,"byteLength":972,"target":34962},{"buffer":0,"byteOffset":5351164,"byteLength":972,"target":34962},{"buffer":0,"byteOffset":5352136,"byteLength":972,"target":34962},{"buffer":0,"byteOffset":5353108,"byteLength":972,"target":34962},{"buffer":0,"byteOffset":5354080,"byteLength":972,"target":34962},{"buffer":0,"byteOffset":5355052,"byteLength":972,"target":34962},{"buffer":0,"byteOffset":5356024,"byteLength":972,"target":34962},{"buffer":0,"byteOffset":5356996,"byteLength":972,"target":34962},{"buffer":0,"byteOffset":5357968,"byteLength":972,"target":34962},{"buffer":0,"byteOffset":5358940,"byteLength":972,"target":34962},{"buffer":0,"byteOffset":5359912,"byteLength":972,"target":34962},{"buffer":0,"byteOffset":5360884,"byteLength":972,"target":34962},{"buffer":0,"byteOffset":5413152,"byteLength":972,"target":34962},{"buffer":0,"byteOffset":5414124,"byteLength":972,"target":34962},{"buffer":0,"byteOffset":5415096,"byteLength":972,"target":34962},{"buffer":0,"byteOffset":5416068,"byteLength":972,"target":34962},{"buffer":0,"byteOffset":5454912,"byteLength":972,"target":34962},{"buffer":0,"byteOffset":5455884,"byteLength":972,"target":34962},{"buffer":0,"byteOffset":5456856,"byteLength":972,"target":34962},{"buffer":0,"byteOffset":5457828,"byteLength":972,"target":34962},{"buffer":0,"byteOffset":5496672,"byteLength":972,"target":34962},{"buffer":0,"byteOffset":5497644,"byteLength":972,"target":34962},{"buffer":0,"byteOffset":5498616,"byteLength":972,"target":34962},{"buffer":0,"byteOffset":5499588,"byteLength":972,"target":34962},{"buffer":0,"byteOffset":5361856,"byteLength":2592,"target":34962},{"buffer":0,"byteOffset":5209056,"byteLength":2592,"target":34962},{"buffer":0,"byteOffset":45664,"byteLength":288,"target":34962},{"buffer":0,"byteOffset":45952,"byteLength":288,"target":34962},{"buffer":0,"byteOffset":46240,"byteLength":192,"target":34962},{"buffer":0,"byteOffset":46432,"byteLength":72,"target":34963},{"buffer":0,"byteOffset":46504,"byteLength":48,"target":34962},{"buffer":0,"byteOffset":46552,"byteLength":48,"target":34962},{"buffer":0,"byteOffset":222980,"byteLength":32,"target":34962},{"buffer":0,"byteOffset":46632,"byteLength":12,"target":34963},{"buffer":0,"byteOffset":5510784,"byteLength":2592,"target":34962},{"buffer":0,"byteOffset":46644,"byteLength":288,"target":34962},{"buffer":0,"byteOffset":5500560,"byteLength":192,"target":34962},{"buffer":0,"byteOffset":5211840,"byteLength":480,"target":34962},{"buffer":0,"byteOffset":5212320,"byteLength":480,"target":34962},{"buffer":0,"byteOffset":5364640,"byteLength":320,"target":34962},{"buffer":0,"byteOffset":48596,"byteLength":144,"target":34963},{"buffer":0,"byteOffset":5364960,"byteLength":420,"target":34962},{"buffer":0,"byteOffset":5365380,"byteLength":420,"target":34962},{"buffer":0,"byteOffset":5213960,"byteLength":280,"target":34962},{"buffer":0,"byteOffset":434076,"byteLength":288,"target":34963},{"buffer":0,"byteOffset":5365800,"byteLength":420,"target":34962},{"buffer":0,"byteOffset":5366220,"byteLength":420,"target":34962},{"buffer":0,"byteOffset":5366640,"byteLength":420,"target":34962},{"buffer":0,"byteOffset":5367060,"byteLength":420,"target":34962},{"buffer":0,"byteOffset":5367480,"byteLength":420,"target":34962},{"buffer":0,"byteOffset":5367900,"byteLength":420,"target":34962},{"buffer":0,"byteOffset":5368320,"byteLength":420,"target":34962},{"buffer":0,"byteOffset":5368740,"byteLength":420,"target":34962},{"buffer":0,"byteOffset":5369160,"byteLength":420,"target":34962},{"buffer":0,"byteOffset":5369580,"byteLength":420,"target":34962},{"buffer":0,"byteOffset":5370000,"byteLength":420,"target":34962},{"buffer":0,"byteOffset":5370420,"byteLength":420,"target":34962},{"buffer":0,"byteOffset":5370840,"byteLength":420,"target":34962},{"buffer":0,"byteOffset":5371260,"byteLength":420,"target":34962},{"buffer":0,"byteOffset":5371680,"byteLength":420,"target":34962},{"buffer":0,"byteOffset":5372100,"byteLength":420,"target":34962},{"buffer":0,"byteOffset":5372520,"byteLength":420,"target":34962},{"buffer":0,"byteOffset":5372940,"byteLength":420,"target":34962},{"buffer":0,"byteOffset":5417232,"byteLength":420,"target":34962},{"buffer":0,"byteOffset":5417652,"byteLength":420,"target":34962},{"buffer":0,"byteOffset":5418072,"byteLength":420,"target":34962},{"buffer":0,"byteOffset":5418492,"byteLength":420,"target":34962},{"buffer":0,"byteOffset":5458992,"byteLength":420,"target":34962},{"buffer":0,"byteOffset":5459412,"byteLength":420,"target":34962},{"buffer":0,"byteOffset":5459832,"byteLength":420,"target":34962},{"buffer":0,"byteOffset":5460252,"byteLength":420,"target":34962},{"buffer":0,"byteOffset":5500752,"byteLength":420,"target":34962},{"buffer":0,"byteOffset":5501172,"byteLength":420,"target":34962},{"buffer":0,"byteOffset":5501592,"byteLength":420,"target":34962},{"buffer":0,"byteOffset":5502012,"byteLength":420,"target":34962},{"buffer":0,"byteOffset":5373360,"byteLength":192,"target":34962},{"buffer":0,"byteOffset":5221992,"byteLength":192,"target":34962},{"buffer":0,"byteOffset":5513376,"byteLength":192,"target":34962},{"buffer":0,"byteOffset":5373552,"byteLength":300,"target":34962},{"buffer":0,"byteOffset":5373852,"byteLength":300,"target":34962},{"buffer":0,"byteOffset":5222784,"byteLength":200,"target":34962},{"buffer":0,"byteOffset":440168,"byteLength":192,"target":34963},{"buffer":0,"byteOffset":5374152,"byteLength":300,"target":34962},{"buffer":0,"byteOffset":5374452,"byteLength":300,"target":34962},{"buffer":0,"byteOffset":5374752,"byteLength":300,"target":34962},{"buffer":0,"byteOffset":5375052,"byteLength":300,"target":34962},{"buffer":0,"byteOffset":5375352,"byteLength":300,"target":34962},{"buffer":0,"byteOffset":5375652,"byteLength":300,"target":34962},{"buffer":0,"byteOffset":5375952,"byteLength":300,"target":34962},{"buffer":0,"byteOffset":5376252,"byteLength":300,"target":34962},{"buffer":0,"byteOffset":5376552,"byteLength":300,"target":34962},{"buffer":0,"byteOffset":5376852,"byteLength":300,"target":34962}],"accessors":[{"bufferView":0,"componentType":5126,"count":324,"type":"VEC3","min":[-0.5,-0.5,-0.5],"max":[0.5,0.5,0.5]},{"bufferView":1,"componentType":5126,"count":324,"type":"VEC3"},{"bufferView":2,"componentType":5126,"count":324,"type":"VEC2"},{"bufferView":3,"componentType":5126,"count":58,"type":"VEC3","min":[-0.9848077297210693,-0.5,-0.9396926164627075],"max":[0.9848077297210693,0.5,1]},{"bufferView":4,"componentType":5126,"count":58,"type":"VEC3"},{"bufferView":5,"componentType":5126,"count":58,"type":"VEC2"},{"bufferView":6,"componentType":5123,"count":108,"type":"SCALAR"},{"bufferView":7,"componentType":5126,"count":81,"type":"VEC3","min":[-3.737551212310791,7.561290264129639,-0.11999999731779099],"max":[0.01755114272236824,8.348709106445312,0.11999999731779099]},{"bufferView":8,"componentType":5126,"count":81,"type":"VEC3"},{"bufferView":9,"componentType":5126,"count":81,"type":"VEC2"},{"bufferView":10,"componentType":5123,"count":384,"type":"SCALAR"},{"bufferView":11,"componentType":5126,"count":81,"type":"VEC3","min":[-0.016612675040960312,7.741155624389648,-0.11999999731779099],"max":[3.736612558364868,8.498844146728516,0.11999999731779099]},{"bufferView":12,"componentType":5126,"count":81,"type":"VEC3"},{"bufferView":13,"componentType":5126,"count":81,"type":"VEC3","min":[-3.425584077835083,8.921540260314941,-0.11875515431165695],"max":[0.02558405138552189,9.708459854125977,0.6187551617622375]},{"bufferView":14,"componentType":5126,"count":81,"type":"VEC3"},{"bufferView":15,"componentType":5126,"count":81,"type":"VEC3","min":[-0.02489464171230793,9.10137939453125,-0.6187518239021301],"max":[3.4248945713043213,9.858620643615723,0.11875183135271072]},{"bufferView":16,"componentType":5126,"count":81,"type":"VEC3"},{"bufferView":17,"componentType":5126,"count":81,"type":"VEC3","min":[-3.101094961166382,10.281868934631348,-0.11999999731779099],"max":[0.021094877272844315,11.068131446838379,0.11999999731779099]},{"bufferView":18,"componentType":5126,"count":81,"type":"VEC3"},{"bufferView":19,"componentType":5126,"count":81,"type":"VEC3","min":[-0.0199770275503397,10.461674690246582,-0.11999999731779099],"max":[3.0999770164489746,11.2183256149292,0.11999999731779099]},{"bufferView":20,"componentType":5126,"count":81,"type":"VEC3"},{"bufferView":21,"componentType":5126,"count":81,"type":"VEC3","min":[-2.791139841079712,11.642313957214355,-0.1181497722864151],"max":[0.031139831990003586,12.427685737609863,0.6181497573852539]},{"bufferView":22,"componentType":5126,"count":81,"type":"VEC3"},{"bufferView":23,"componentType":5126,"count":81,"type":"VEC3","min":[-0.030325502157211304,11.822074890136719,-0.6181424260139465],"max":[2.790325403213501,12.577925682067871,0.11814241856336594]},{"bufferView":24,"componentType":5126,"count":81,"type":"VEC3"},{"bufferView":25,"componentType":5126,"count":81,"type":"VEC3","min":[-2.4663870334625244,13.002937316894531,-0.11999999731779099],"max":[0.026387127116322517,13.787062644958496,0.11999999731779099]},{"bufferView":26,"componentType":5126,"count":81,"type":"VEC3"},{"bufferView":27,"componentType":5126,"count":81,"type":"VEC3","min":[-0.025012079626321793,13.182635307312012,-0.11999999731779099],"max":[2.4650120735168457,13.93736457824707,0.11999999731779099]},{"bufferView":28,"componentType":5126,"count":81,"type":"VEC3"},{"bufferView":29,"componentType":5126,"count":81,"type":"VEC3","min":[-2.15958833694458,14.363844871520996,-0.11699013411998749],"max":[0.03958842530846596,15.146154403686523,0.6169901490211487]},{"bufferView":30,"componentType":5126,"count":81,"type":"VEC3"},{"bufferView":31,"componentType":5126,"count":81,"type":"VEC3","min":[-0.03861398622393608,14.543455123901367,-0.6169705986976624],"max":[2.158613920211792,15.296545028686523,0.11697061359882355]},{"bufferView":32,"componentType":5126,"count":81,"type":"VEC3"},{"bufferView":33,"componentType":5126,"count":81,"type":"VEC3","min":[-1.8350661993026733,15.725237846374512,-0.11999999731779099],"max":[0.03506622463464737,16.504762649536133,0.11999999731779099]},{"bufferView":34,"componentType":5126,"count":81,"type":"VEC3"},{"bufferView":35,"componentType":5126,"count":81,"type":"VEC3","min":[-0.03330475836992264,15.904714584350586,-0.11999999731779099],"max":[1.833304762840271,16.655284881591797,0.11999999731779099]},{"bufferView":36,"componentType":5126,"count":81,"type":"VEC3"},{"bufferView":37,"componentType":5126,"count":81,"type":"VEC3","min":[-1.5335707664489746,17.08751678466797,-0.1144006997346878],"max":[0.05357077345252037,17.862483978271484,0.6144006848335266]},{"bufferView":38,"componentType":5126,"count":81,"type":"VEC3"},{"bufferView":39,"componentType":5126,"count":81,"type":"VEC3","min":[-0.05243898183107376,17.26678466796875,-0.6143327355384827],"max":[1.5324389934539795,18.013216018676758,0.11433275789022446]},{"bufferView":40,"componentType":5126,"count":81,"type":"VEC3"},{"bufferView":41,"componentType":5126,"count":324,"type":"VEC2"},{"bufferView":42,"componentType":5126,"count":324,"type":"VEC2"},{"bufferView":43,"componentType":5126,"count":24,"type":"VEC3","min":[-0.5,-0.5,-0.02500000037252903],"max":[0.5,0.5,0.02500000037252903]},{"bufferView":44,"componentType":5126,"count":24,"type":"VEC3"},{"bufferView":45,"componentType":5126,"count":24,"type":"VEC2"},{"bufferView":46,"componentType":5123,"count":36,"type":"SCALAR"},{"bufferView":47,"componentType":5126,"count":4,"type":"VEC3","min":[-0.5,-0.5,0],"max":[0.5,0.5,0]},{"bufferView":48,"componentType":5126,"count":4,"type":"VEC3"},{"bufferView":49,"componentType":5126,"count":4,"type":"VEC2"},{"bufferView":50,"componentType":5123,"count":6,"type":"SCALAR"},{"bufferView":51,"componentType":5126,"count":324,"type":"VEC2"},{"bufferView":52,"componentType":5126,"count":24,"type":"VEC3","min":[-0.5,-0.5,-0.5],"max":[0.5,0.5,0.5]},{"bufferView":53,"componentType":5126,"count":24,"type":"VEC2"},{"bufferView":54,"componentType":5126,"count":40,"type":"VEC3","min":[-0.8660253882408142,-0.5,-1],"max":[0.8660253882408142,0.5,1]},{"bufferView":55,"componentType":5126,"count":40,"type":"VEC3"},{"bufferView":56,"componentType":5126,"count":40,"type":"VEC2"},{"bufferView":57,"componentType":5123,"count":72,"type":"SCALAR"},{"bufferView":58,"componentType":5126,"count":35,"type":"VEC3","min":[-3.7351996898651123,7.577194690704346,-0.11999999731779099],"max":[0.015199735760688782,8.332805633544922,0.11999999731779099]},{"bufferView":59,"componentType":5126,"count":35,"type":"VEC3"},{"bufferView":60,"componentType":5126,"count":35,"type":"VEC2"},{"bufferView":61,"componentType":5123,"count":144,"type":"SCALAR"},{"bufferView":62,"componentType":5126,"count":35,"type":"VEC3","min":[-0.014386997558176517,7.757077693939209,-0.11999999731779099],"max":[3.734386920928955,8.482922554016113,0.11999999731779099]},{"bufferView":63,"componentType":5126,"count":35,"type":"VEC3"},{"bufferView":64,"componentType":5126,"count":35,"type":"VEC3","min":[-3.4251046180725098,8.936034202575684,-0.11875515431165695],"max":[0.02510467730462551,9.693965911865234,0.6187551617622375]},{"bufferView":65,"componentType":5126,"count":35,"type":"VEC3"},{"bufferView":66,"componentType":5126,"count":35,"type":"VEC3","min":[-0.02424359880387783,9.115966796875,-0.6187518239021301],"max":[3.424243688583374,9.844033241271973,0.11875183135271072]},{"bufferView":67,"componentType":5126,"count":35,"type":"VEC3"},{"bufferView":68,"componentType":5126,"count":35,"type":"VEC3","min":[-3.098268747329712,10.29769515991211,-0.11999999731779099],"max":[0.018268698826432228,11.0523042678833,0.11999999731779099]},{"bufferView":69,"componentType":5126,"count":35,"type":"VEC3"},{"bufferView":70,"componentType":5126,"count":35,"type":"VEC3","min":[-0.017300613224506378,10.477526664733887,-0.11999999731779099],"max":[3.0973005294799805,11.202472686767578,0.11999999731779099]},{"bufferView":71,"componentType":5126,"count":35,"type":"VEC3"},{"bufferView":72,"componentType":5126,"count":35,"type":"VEC3","min":[-2.7906031608581543,11.65602970123291,-0.1181497722864151],"max":[0.030603189021348953,12.413969993591309,0.6181497573852539]},{"bufferView":73,"componentType":5126,"count":35,"type":"VEC3"},{"bufferView":74,"componentType":5126,"count":35,"type":"VEC3","min":[-0.0295756496489048,11.83592700958252,-0.6181424260139465],"max":[2.7895755767822266,12.56407356262207,0.11814241856336594]},{"bufferView":75,"componentType":5126,"count":35,"type":"VEC3"},{"bufferView":76,"componentType":5126,"count":35,"type":"VEC3","min":[-2.4628520011901855,13.018620491027832,-0.11999999731779099],"max":[0.02285192161798477,13.771379470825195,0.11999999731779099]},{"bufferView":77,"componentType":5126,"count":35,"type":"VEC3"},{"bufferView":78,"componentType":5126,"count":35,"type":"VEC3","min":[-0.021661095321178436,13.198359489440918,-0.11999999731779099],"max":[2.4616611003875732,13.921640396118164,0.11999999731779099]},{"bufferView":79,"componentType":5126,"count":35,"type":"VEC3"},{"bufferView":80,"componentType":5126,"count":35,"type":"VEC3","min":[-2.1590232849121094,14.376053810119629,-0.11699013411998749],"max":[0.039023227989673615,15.133946418762207,0.6169901490211487]},{"bufferView":81,"componentType":5126,"count":35,"type":"VEC3"},{"bufferView":82,"componentType":5126,"count":35,"type":"VEC3","min":[-0.03776762634515762,14.555877685546875,-0.6169705986976624],"max":[2.1577675342559814,15.284122467041016,0.11697061359882355]},{"bufferView":83,"componentType":5126,"count":35,"type":"VEC3"},{"bufferView":84,"componentType":5126,"count":35,"type":"VEC3","min":[-1.8303682804107666,15.740612983703613,-0.11999999731779099],"max":[0.030368240550160408,16.48938751220703,0.11999999731779099]},{"bufferView":85,"componentType":5126,"count":35,"type":"VEC3"},{"bufferView":86,"componentType":5126,"count":35,"type":"VEC3","min":[-0.02884276770055294,15.920159339904785,-0.11999999731779099],"max":[1.8288427591323853,16.639841079711914,0.11999999731779099]},{"bufferView":87,"componentType":5126,"count":35,"type":"VEC3"},{"bufferView":88,"componentType":5126,"count":35,"type":"VEC3","min":[-1.5331807136535645,17.096275329589844,-0.1144006997346878],"max":[0.05318065732717514,17.853723526000977,0.6144006848335266]},{"bufferView":89,"componentType":5126,"count":35,"type":"VEC3"},{"bufferView":90,"componentType":5126,"count":35,"type":"VEC3","min":[-0.05163983628153801,17.27591323852539,-0.6143327355384827],"max":[1.531639814376831,18.004087448120117,0.11433275789022446]},{"bufferView":91,"componentType":5126,"count":35,"type":"VEC3"},{"bufferView":92,"componentType":5126,"count":24,"type":"VEC2"},{"bufferView":93,"componentType":5126,"count":24,"type":"VEC2"},{"bufferView":94,"componentType":5126,"count":24,"type":"VEC2"},{"bufferView":95,"componentType":5126,"count":25,"type":"VEC3","min":[-3.737551212310791,7.561290264129639,-0.11999999731779099],"max":[0.01755114272236824,8.348709106445312,0.11999999731779099]},{"bufferView":96,"componentType":5126,"count":25,"type":"VEC3"},{"bufferView":97,"componentType":5126,"count":25,"type":"VEC2"},{"bufferView":98,"componentType":5123,"count":96,"type":"SCALAR"},{"bufferView":99,"componentType":5126,"count":25,"type":"VEC3","min":[-0.016612675040960312,7.741155624389648,-0.11999999731779099],"max":[3.736612558364868,8.498844146728516,0.11999999731779099]},{"bufferView":100,"componentType":5126,"count":25,"type":"VEC3"},{"bufferView":101,"componentType":5126,"count":25,"type":"VEC3","min":[-3.4191627502441406,8.921540260314941,-0.11875515431165695],"max":[0.019162660464644432,9.708459854125977,0.6187551617622375]},{"bufferView":102,"componentType":5126,"count":25,"type":"VEC3"},{"bufferView":103,"componentType":5126,"count":25,"type":"VEC3","min":[-0.018141988664865494,9.10137939453125,-0.6187518239021301],"max":[3.418142080307007,9.858620643615723,0.11875183135271072]},{"bufferView":104,"componentType":5126,"count":25,"type":"VEC3"},{"bufferView":105,"componentType":5126,"count":25,"type":"VEC3","min":[-3.101094961166382,10.281868934631348,-0.11999999731779099],"max":[0.021094877272844315,11.068131446838379,0.11999999731779099]},{"bufferView":106,"componentType":5126,"count":25,"type":"VEC3"},{"bufferView":107,"componentType":5126,"count":25,"type":"VEC3","min":[-0.0199770275503397,10.461674690246582,-0.11999999731779099],"max":[3.0999770164489746,11.2183256149292,0.11999999731779099]},{"bufferView":108,"componentType":5126,"count":25,"type":"VEC3"}],"extensionsUsed":["KHR_materials_unlit"],"extras":{"id":"vlt-frankenpine-memorial-40","family":"frankenpine-memorial","variant":39,"plan":"D5-2","units":"metres","up":"+Y","front":"+Z","lodScenes":[0,1,2]}}