{"asset":{"version":"2.0","generator":"SLOPMERICA Department of Unnecessary Development 1.0"},"scene":0,"scenes":[{"name":"LOD 0","nodes":[0,1,2,3,4,5,6,7,8,9,10,11,12,13,14,15,16,17,18,19,20,21,22,23,24,25,26,27],"extras":{"level":0}},{"name":"LOD 1","nodes":[28,29,30,31,32,33,34,35,36,37,38,39,40,41,42,43,44,45,46,47,48,49,50,51,52,53,54,55],"extras":{"level":1}},{"name":"LOD 2","nodes":[56,57,58,59,60,61,62,63,64],"extras":{"level":2}}],"nodes":[{"name":"surveyed lot","mesh":0,"translation":[0,0.06,0],"scale":[15.84,0.12,16.72]},{"name":"ferris wheel rim","mesh":1,"translation":[0,5.2,-1],"rotation":[0,0.707107,0,0.707107]},{"name":"wheel spoke 0","mesh":2,"translation":[0,0,0]},{"name":"gondola 0","mesh":3,"translation":[0,5.2,3.4],"scale":[0.75,0.65,0.55]},{"name":"wheel spoke 1","mesh":4,"translation":[0,0,0]},{"name":"wheel spoke 2","mesh":5,"translation":[0,0,0]},{"name":"gondola 2","mesh":6,"translation":[0,8.640059,1.743355],"scale":[0.75,0.65,0.55]},{"name":"wheel spoke 3","mesh":7,"translation":[0,0,0]},{"name":"wheel spoke 4","mesh":8,"translation":[0,0,0]},{"name":"gondola 4","mesh":3,"translation":[0,9.489683,-1.979092],"scale":[0.75,0.65,0.55]},{"name":"wheel spoke 5","mesh":9,"translation":[0,0,0]},{"name":"wheel spoke 6","mesh":10,"translation":[0,0,0]},{"name":"gondola 6","mesh":6,"translation":[0,7.109088,-4.964263],"scale":[0.75,0.65,0.55]},{"name":"wheel spoke 7","mesh":11,"translation":[0,0,0]},{"name":"wheel spoke 8","mesh":12,"translation":[0,0,0]},{"name":"gondola 8","mesh":3,"translation":[0,3.290912,-4.964263],"scale":[0.75,0.65,0.55]},{"name":"wheel spoke 9","mesh":13,"translation":[0,0,0]},{"name":"wheel spoke 10","mesh":14,"translation":[0,0,0]},{"name":"gondola 10","mesh":6,"translation":[0,0.910317,-1.979092],"scale":[0.75,0.65,0.55]},{"name":"wheel spoke 11","mesh":15,"translation":[0,0,0]},{"name":"wheel spoke 12","mesh":16,"translation":[0,0,0]},{"name":"gondola 12","mesh":3,"translation":[0,1.759941,1.743355],"scale":[0.75,0.65,0.55]},{"name":"wheel spoke 13","mesh":17,"translation":[0,0,0]},{"name":"left wheel leg","mesh":18,"translation":[0,0,0]},{"name":"right wheel leg","mesh":19,"translation":[0,0,0]},{"name":"midway booth 0","mesh":20,"translation":[-6,1,6],"scale":[2.1,1.8,2]},{"name":"midway booth 1","mesh":21,"translation":[-3.3,1,6],"scale":[2.1,1.8,2]},{"name":"closed tarp","mesh":22,"translation":[5.2,0.25,2.8],"scale":[4.2,0.12,3.2]},{"name":"surveyed lot","mesh":23,"translation":[0,0.06,0],"scale":[15.84,0.12,16.72]},{"name":"ferris wheel rim","mesh":24,"translation":[0,5.2,-1],"rotation":[0,0.707107,0,0.707107]},{"name":"wheel spoke 0","mesh":25,"translation":[0,0,0]},{"name":"gondola 0","mesh":26,"translation":[0,5.2,3.4],"scale":[0.75,0.65,0.55]},{"name":"wheel spoke 1","mesh":27,"translation":[0,0,0]},{"name":"wheel spoke 2","mesh":28,"translation":[0,0,0]},{"name":"gondola 2","mesh":29,"translation":[0,8.640059,1.743355],"scale":[0.75,0.65,0.55]},{"name":"wheel spoke 3","mesh":30,"translation":[0,0,0]},{"name":"wheel spoke 4","mesh":31,"translation":[0,0,0]},{"name":"gondola 4","mesh":26,"translation":[0,9.489683,-1.979092],"scale":[0.75,0.65,0.55]},{"name":"wheel spoke 5","mesh":32,"translation":[0,0,0]},{"name":"wheel spoke 6","mesh":33,"translation":[0,0,0]},{"name":"gondola 6","mesh":29,"translation":[0,7.109088,-4.964263],"scale":[0.75,0.65,0.55]},{"name":"wheel spoke 7","mesh":34,"translation":[0,0,0]},{"name":"wheel spoke 8","mesh":35,"translation":[0,0,0]},{"name":"gondola 8","mesh":26,"translation":[0,3.290912,-4.964263],"scale":[0.75,0.65,0.55]},{"name":"wheel spoke 9","mesh":36,"translation":[0,0,0]},{"name":"wheel spoke 10","mesh":37,"translation":[0,0,0]},{"name":"gondola 10","mesh":29,"translation":[0,0.910317,-1.979092],"scale":[0.75,0.65,0.55]},{"name":"wheel spoke 11","mesh":38,"translation":[0,0,0]},{"name":"wheel spoke 12","mesh":39,"translation":[0,0,0]},{"name":"gondola 12","mesh":26,"translation":[0,1.759941,1.743355],"scale":[0.75,0.65,0.55]},{"name":"wheel spoke 13","mesh":40,"translation":[0,0,0]},{"name":"left wheel leg","mesh":41,"translation":[0,0,0]},{"name":"right wheel leg","mesh":42,"translation":[0,0,0]},{"name":"midway booth 0","mesh":43,"translation":[-6,1,6],"scale":[2.1,1.8,2]},{"name":"midway booth 1","mesh":44,"translation":[-3.3,1,6],"scale":[2.1,1.8,2]},{"name":"closed tarp","mesh":45,"translation":[5.2,0.25,2.8],"scale":[4.2,0.12,3.2]},{"name":"surveyed lot","mesh":23,"translation":[0,0.06,0],"scale":[15.84,0.12,16.72]},{"name":"ferris wheel rim","mesh":46,"translation":[0,5.2,-1],"rotation":[0,0.707107,0,0.707107]},{"name":"wheel spoke 0","mesh":47,"translation":[0,0,0]},{"name":"wheel spoke 1","mesh":48,"translation":[0,0,0]},{"name":"wheel spoke 2","mesh":49,"translation":[0,0,0]},{"name":"wheel spoke 3","mesh":50,"translation":[0,0,0]},{"name":"left wheel leg","mesh":51,"translation":[0,0,0]},{"name":"right wheel leg","mesh":52,"translation":[0,0,0]},{"name":"closed tarp","mesh":45,"translation":[5.2,0.25,2.8],"scale":[4.2,0.12,3.2]}],"meshes":[{"primitives":[{"attributes":{"POSITION":0,"NORMAL":1,"TEXCOORD_0":2},"material":0,"mode":4}]},{"primitives":[{"attributes":{"POSITION":3,"NORMAL":4,"TEXCOORD_0":5},"material":1,"mode":4,"indices":6}]},{"primitives":[{"attributes":{"POSITION":7,"NORMAL":8,"TEXCOORD_0":9},"material":2,"mode":4,"indices":10}]},{"primitives":[{"attributes":{"POSITION":0,"NORMAL":1,"TEXCOORD_0":11},"material":3,"mode":4}]},{"primitives":[{"attributes":{"POSITION":12,"NORMAL":13,"TEXCOORD_0":9},"material":2,"mode":4,"indices":10}]},{"primitives":[{"attributes":{"POSITION":14,"NORMAL":15,"TEXCOORD_0":9},"material":2,"mode":4,"indices":10}]},{"primitives":[{"attributes":{"POSITION":0,"NORMAL":1,"TEXCOORD_0":11},"material":4,"mode":4}]},{"primitives":[{"attributes":{"POSITION":16,"NORMAL":17,"TEXCOORD_0":9},"material":2,"mode":4,"indices":10}]},{"primitives":[{"attributes":{"POSITION":18,"NORMAL":19,"TEXCOORD_0":9},"material":2,"mode":4,"indices":10}]},{"primitives":[{"attributes":{"POSITION":20,"NORMAL":21,"TEXCOORD_0":9},"material":2,"mode":4,"indices":10}]},{"primitives":[{"attributes":{"POSITION":22,"NORMAL":23,"TEXCOORD_0":9},"material":2,"mode":4,"indices":10}]},{"primitives":[{"attributes":{"POSITION":24,"NORMAL":25,"TEXCOORD_0":9},"material":2,"mode":4,"indices":10}]},{"primitives":[{"attributes":{"POSITION":26,"NORMAL":27,"TEXCOORD_0":9},"material":2,"mode":4,"indices":10}]},{"primitives":[{"attributes":{"POSITION":28,"NORMAL":29,"TEXCOORD_0":9},"material":2,"mode":4,"indices":10}]},{"primitives":[{"attributes":{"POSITION":30,"NORMAL":31,"TEXCOORD_0":9},"material":2,"mode":4,"indices":10}]},{"primitives":[{"attributes":{"POSITION":32,"NORMAL":33,"TEXCOORD_0":9},"material":2,"mode":4,"indices":10}]},{"primitives":[{"attributes":{"POSITION":34,"NORMAL":35,"TEXCOORD_0":9},"material":2,"mode":4,"indices":10}]},{"primitives":[{"attributes":{"POSITION":36,"NORMAL":37,"TEXCOORD_0":9},"material":2,"mode":4,"indices":10}]},{"primitives":[{"attributes":{"POSITION":38,"NORMAL":39,"TEXCOORD_0":40},"material":1,"mode":4,"indices":10}]},{"primitives":[{"attributes":{"POSITION":41,"NORMAL":42,"TEXCOORD_0":40},"material":1,"mode":4,"indices":10}]},{"primitives":[{"attributes":{"POSITION":0,"NORMAL":1,"TEXCOORD_0":43},"material":4,"mode":4}]},{"primitives":[{"attributes":{"POSITION":0,"NORMAL":1,"TEXCOORD_0":43},"material":3,"mode":4}]},{"primitives":[{"attributes":{"POSITION":0,"NORMAL":1,"TEXCOORD_0":44},"material":5,"mode":4}]},{"primitives":[{"attributes":{"POSITION":45,"NORMAL":46,"TEXCOORD_0":47},"material":0,"mode":4,"indices":48}]},{"primitives":[{"attributes":{"POSITION":49,"NORMAL":50,"TEXCOORD_0":51},"material":1,"mode":4,"indices":52}]},{"primitives":[{"attributes":{"POSITION":53,"NORMAL":54,"TEXCOORD_0":55},"material":2,"mode":4,"indices":56}]},{"primitives":[{"attributes":{"POSITION":45,"NORMAL":46,"TEXCOORD_0":57},"material":3,"mode":4,"indices":48}]},{"primitives":[{"attributes":{"POSITION":58,"NORMAL":59,"TEXCOORD_0":55},"material":2,"mode":4,"indices":56}]},{"primitives":[{"attributes":{"POSITION":60,"NORMAL":61,"TEXCOORD_0":55},"material":2,"mode":4,"indices":56}]},{"primitives":[{"attributes":{"POSITION":45,"NORMAL":46,"TEXCOORD_0":57},"material":4,"mode":4,"indices":48}]},{"primitives":[{"attributes":{"POSITION":62,"NORMAL":63,"TEXCOORD_0":55},"material":2,"mode":4,"indices":56}]},{"primitives":[{"attributes":{"POSITION":64,"NORMAL":65,"TEXCOORD_0":55},"material":2,"mode":4,"indices":56}]},{"primitives":[{"attributes":{"POSITION":66,"NORMAL":67,"TEXCOORD_0":55},"material":2,"mode":4,"indices":56}]},{"primitives":[{"attributes":{"POSITION":68,"NORMAL":69,"TEXCOORD_0":55},"material":2,"mode":4,"indices":56}]},{"primitives":[{"attributes":{"POSITION":70,"NORMAL":71,"TEXCOORD_0":55},"material":2,"mode":4,"indices":56}]},{"primitives":[{"attributes":{"POSITION":72,"NORMAL":73,"TEXCOORD_0":55},"material":2,"mode":4,"indices":56}]},{"primitives":[{"attributes":{"POSITION":74,"NORMAL":75,"TEXCOORD_0":55},"material":2,"mode":4,"indices":56}]},{"primitives":[{"attributes":{"POSITION":76,"NORMAL":77,"TEXCOORD_0":55},"material":2,"mode":4,"indices":56}]},{"primitives":[{"attributes":{"POSITION":78,"NORMAL":79,"TEXCOORD_0":55},"material":2,"mode":4,"indices":56}]},{"primitives":[{"attributes":{"POSITION":80,"NORMAL":81,"TEXCOORD_0":55},"material":2,"mode":4,"indices":56}]},{"primitives":[{"attributes":{"POSITION":82,"NORMAL":83,"TEXCOORD_0":55},"material":2,"mode":4,"indices":56}]},{"primitives":[{"attributes":{"POSITION":84,"NORMAL":85,"TEXCOORD_0":86},"material":1,"mode":4,"indices":56}]},{"primitives":[{"attributes":{"POSITION":87,"NORMAL":88,"TEXCOORD_0":86},"material":1,"mode":4,"indices":56}]},{"primitives":[{"attributes":{"POSITION":45,"NORMAL":46,"TEXCOORD_0":89},"material":4,"mode":4,"indices":48}]},{"primitives":[{"attributes":{"POSITION":45,"NORMAL":46,"TEXCOORD_0":89},"material":3,"mode":4,"indices":48}]},{"primitives":[{"attributes":{"POSITION":45,"NORMAL":46,"TEXCOORD_0":90},"material":5,"mode":4,"indices":48}]},{"primitives":[{"attributes":{"POSITION":91,"NORMAL":92,"TEXCOORD_0":93},"material":1,"mode":4,"indices":94}]},{"primitives":[{"attributes":{"POSITION":95,"NORMAL":96,"TEXCOORD_0":97},"material":2,"mode":4,"indices":98}]},{"primitives":[{"attributes":{"POSITION":99,"NORMAL":100,"TEXCOORD_0":97},"material":2,"mode":4,"indices":98}]},{"primitives":[{"attributes":{"POSITION":101,"NORMAL":102,"TEXCOORD_0":97},"material":2,"mode":4,"indices":98}]},{"primitives":[{"attributes":{"POSITION":103,"NORMAL":104,"TEXCOORD_0":97},"material":2,"mode":4,"indices":98}]},{"primitives":[{"attributes":{"POSITION":105,"NORMAL":106,"TEXCOORD_0":107},"material":1,"mode":4,"indices":98}]},{"primitives":[{"attributes":{"POSITION":108,"NORMAL":109,"TEXCOORD_0":107},"material":1,"mode":4,"indices":98}]}],"materials":[{"name":"concrete","pbrMetallicRoughness":{"baseColorTexture":{"index":0},"metallicRoughnessTexture":{"index":2},"roughnessFactor":1,"metallicFactor":1},"normalTexture":{"index":1,"scale":0.82},"occlusionTexture":{"index":2,"strength":0.35}},{"name":"metal-dark","pbrMetallicRoughness":{"baseColorTexture":{"index":3},"metallicRoughnessTexture":{"index":5},"roughnessFactor":1,"metallicFactor":1},"normalTexture":{"index":4,"scale":0.35},"occlusionTexture":{"index":5,"strength":0.35}},{"name":"metal-galvanized","pbrMetallicRoughness":{"baseColorTexture":{"index":6},"metallicRoughnessTexture":{"index":8},"roughnessFactor":1,"metallicFactor":1},"normalTexture":{"index":7,"scale":0.15},"occlusionTexture":{"index":8,"strength":0.35}},{"name":"paint-red","pbrMetallicRoughness":{"baseColorFactor":[0.46778379610254284,0.08021982030622662,0.05126945836711539,1],"roughnessFactor":0.62,"metallicFactor":0.05}},{"name":"paint-yellow","pbrMetallicRoughness":{"baseColorFactor":[0.76052450467022,0.4793201830913402,0.07818742179702069,1],"roughnessFactor":0.66,"metallicFactor":0.03}},{"name":"paint-blue","pbrMetallicRoughness":{"baseColorFactor":[0.05126945836711539,0.10946171076915331,0.22696587349938613,1],"roughnessFactor":0.58,"metallicFactor":0.05}}],"textures":[{"source":0,"sampler":0},{"source":1,"sampler":0},{"source":2,"sampler":0},{"source":3,"sampler":0},{"source":4,"sampler":0},{"source":5,"sampler":0},{"source":6,"sampler":0},{"source":7,"sampler":0},{"source":8,"sampler":0}],"images":[{"uri":"../textures/concrete-albedo.png"},{"uri":"../textures/concrete-normal.png"},{"uri":"../textures/concrete-orm.png"},{"uri":"../textures/metal-dark-albedo.png"},{"uri":"../textures/metal-dark-normal.png"},{"uri":"../textures/metal-dark-orm.png"},{"uri":"../textures/metal-galvanized-albedo.png"},{"uri":"../textures/metal-galvanized-normal.png"},{"uri":"../textures/metal-galvanized-orm.png"}],"samplers":[{"magFilter":9729,"minFilter":9987,"wrapS":10497,"wrapT":10497}],"buffers":[{"uri":"../shared/geometry.bin","byteLength":16435520}],"bufferViews":[{"buffer":0,"byteOffset":0,"byteLength":3888,"target":34962},{"buffer":0,"byteOffset":3888,"byteLength":3888,"target":34962},{"buffer":0,"byteOffset":3164984,"byteLength":2592,"target":34962},{"buffer":0,"byteOffset":2832200,"byteLength":3132,"target":34962},{"buffer":0,"byteOffset":390704,"byteLength":3132,"target":34962},{"buffer":0,"byteOffset":2835332,"byteLength":2088,"target":34962},{"buffer":0,"byteOffset":395924,"byteLength":2688,"target":34963},{"buffer":0,"byteOffset":2837420,"byteLength":972,"target":34962},{"buffer":0,"byteOffset":2838392,"byteLength":972,"target":34962},{"buffer":0,"byteOffset":409952,"byteLength":648,"target":34962},{"buffer":0,"byteOffset":410600,"byteLength":768,"target":34963},{"buffer":0,"byteOffset":2839364,"byteLength":2592,"target":34962},{"buffer":0,"byteOffset":3167576,"byteLength":972,"target":34962},{"buffer":0,"byteOffset":3168548,"byteLength":972,"target":34962},{"buffer":0,"byteOffset":3169520,"byteLength":972,"target":34962},{"buffer":0,"byteOffset":3170492,"byteLength":972,"target":34962},{"buffer":0,"byteOffset":3171464,"byteLength":972,"target":34962},{"buffer":0,"byteOffset":3172436,"byteLength":972,"target":34962},{"buffer":0,"byteOffset":3173408,"byteLength":972,"target":34962},{"buffer":0,"byteOffset":3174380,"byteLength":972,"target":34962},{"buffer":0,"byteOffset":3175352,"byteLength":972,"target":34962},{"buffer":0,"byteOffset":3176324,"byteLength":972,"target":34962},{"buffer":0,"byteOffset":3177296,"byteLength":972,"target":34962},{"buffer":0,"byteOffset":3178268,"byteLength":972,"target":34962},{"buffer":0,"byteOffset":2847788,"byteLength":972,"target":34962},{"buffer":0,"byteOffset":2848760,"byteLength":972,"target":34962},{"buffer":0,"byteOffset":3179240,"byteLength":972,"target":34962},{"buffer":0,"byteOffset":3180212,"byteLength":972,"target":34962},{"buffer":0,"byteOffset":3181184,"byteLength":972,"target":34962},{"buffer":0,"byteOffset":3182156,"byteLength":972,"target":34962},{"buffer":0,"byteOffset":3183128,"byteLength":972,"target":34962},{"buffer":0,"byteOffset":3184100,"byteLength":972,"target":34962},{"buffer":0,"byteOffset":3185072,"byteLength":972,"target":34962},{"buffer":0,"byteOffset":3186044,"byteLength":972,"target":34962},{"buffer":0,"byteOffset":3187016,"byteLength":972,"target":34962},{"buffer":0,"byteOffset":3187988,"byteLength":972,"target":34962},{"buffer":0,"byteOffset":3188960,"byteLength":972,"target":34962},{"buffer":0,"byteOffset":3189932,"byteLength":972,"target":34962},{"buffer":0,"byteOffset":2855564,"byteLength":972,"target":34962},{"buffer":0,"byteOffset":2856536,"byteLength":972,"target":34962},{"buffer":0,"byteOffset":2857508,"byteLength":648,"target":34962},{"buffer":0,"byteOffset":2858156,"byteLength":972,"target":34962},{"buffer":0,"byteOffset":2859128,"byteLength":972,"target":34962},{"buffer":0,"byteOffset":2860100,"byteLength":2592,"target":34962},{"buffer":0,"byteOffset":3283856,"byteLength":2592,"target":34962},{"buffer":0,"byteOffset":46644,"byteLength":288,"target":34962},{"buffer":0,"byteOffset":45952,"byteLength":288,"target":34962},{"buffer":0,"byteOffset":3190904,"byteLength":192,"target":34962},{"buffer":0,"byteOffset":46432,"byteLength":72,"target":34963},{"buffer":0,"byteOffset":2862884,"byteLength":1428,"target":34962},{"buffer":0,"byteOffset":427996,"byteLength":1428,"target":34962},{"buffer":0,"byteOffset":2864312,"byteLength":952,"target":34962},{"buffer":0,"byteOffset":430376,"byteLength":1152,"target":34963},{"buffer":0,"byteOffset":2865264,"byteLength":420,"target":34962},{"buffer":0,"byteOffset":2865684,"byteLength":420,"target":34962},{"buffer":0,"byteOffset":433796,"byteLength":280,"target":34962},{"buffer":0,"byteOffset":434076,"byteLength":288,"target":34963},{"buffer":0,"byteOffset":2866104,"byteLength":192,"target":34962},{"buffer":0,"byteOffset":3191096,"byteLength":420,"target":34962},{"buffer":0,"byteOffset":3191516,"byteLength":420,"target":34962},{"buffer":0,"byteOffset":3191936,"byteLength":420,"target":34962},{"buffer":0,"byteOffset":3192356,"byteLength":420,"target":34962},{"buffer":0,"byteOffset":3192776,"byteLength":420,"target":34962},{"buffer":0,"byteOffset":3193196,"byteLength":420,"target":34962},{"buffer":0,"byteOffset":3193616,"byteLength":420,"target":34962},{"buffer":0,"byteOffset":3194036,"byteLength":420,"target":34962},{"buffer":0,"byteOffset":3194456,"byteLength":420,"target":34962},{"buffer":0,"byteOffset":3194876,"byteLength":420,"target":34962},{"buffer":0,"byteOffset":3195296,"byteLength":420,"target":34962},{"buffer":0,"byteOffset":3195716,"byteLength":420,"target":34962},{"buffer":0,"byteOffset":2868816,"byteLength":420,"target":34962},{"buffer":0,"byteOffset":2869236,"byteLength":420,"target":34962},{"buffer":0,"byteOffset":3196136,"byteLength":420,"target":34962},{"buffer":0,"byteOffset":3196556,"byteLength":420,"target":34962},{"buffer":0,"byteOffset":3196976,"byteLength":420,"target":34962},{"buffer":0,"byteOffset":3197396,"byteLength":420,"target":34962},{"buffer":0,"byteOffset":3197816,"byteLength":420,"target":34962},{"buffer":0,"byteOffset":3198236,"byteLength":420,"target":34962},{"buffer":0,"byteOffset":3198656,"byteLength":420,"target":34962},{"buffer":0,"byteOffset":3199076,"byteLength":420,"target":34962},{"buffer":0,"byteOffset":3199496,"byteLength":420,"target":34962},{"buffer":0,"byteOffset":3199916,"byteLength":420,"target":34962},{"buffer":0,"byteOffset":3200336,"byteLength":420,"target":34962},{"buffer":0,"byteOffset":3200756,"byteLength":420,"target":34962},{"buffer":0,"byteOffset":2872176,"byteLength":420,"target":34962},{"buffer":0,"byteOffset":2872596,"byteLength":420,"target":34962},{"buffer":0,"byteOffset":2873016,"byteLength":280,"target":34962},{"buffer":0,"byteOffset":2873296,"byteLength":420,"target":34962},{"buffer":0,"byteOffset":2873716,"byteLength":420,"target":34962},{"buffer":0,"byteOffset":2874136,"byteLength":192,"target":34962},{"buffer":0,"byteOffset":3286448,"byteLength":192,"target":34962},{"buffer":0,"byteOffset":2874328,"byteLength":660,"target":34962},{"buffer":0,"byteOffset":437788,"byteLength":660,"target":34962},{"buffer":0,"byteOffset":2874988,"byteLength":440,"target":34962},{"buffer":0,"byteOffset":438888,"byteLength":480,"target":34963},{"buffer":0,"byteOffset":2875428,"byteLength":300,"target":34962},{"buffer":0,"byteOffset":2875728,"byteLength":300,"target":34962},{"buffer":0,"byteOffset":439968,"byteLength":200,"target":34962},{"buffer":0,"byteOffset":440168,"byteLength":192,"target":34963},{"buffer":0,"byteOffset":2876028,"byteLength":300,"target":34962},{"buffer":0,"byteOffset":2876328,"byteLength":300,"target":34962},{"buffer":0,"byteOffset":2876628,"byteLength":300,"target":34962},{"buffer":0,"byteOffset":2876928,"byteLength":300,"target":34962},{"buffer":0,"byteOffset":2877228,"byteLength":300,"target":34962},{"buffer":0,"byteOffset":2877528,"byteLength":300,"target":34962},{"buffer":0,"byteOffset":2877828,"byteLength":300,"target":34962},{"buffer":0,"byteOffset":2878128,"byteLength":300,"target":34962},{"buffer":0,"byteOffset":2878428,"byteLength":200,"target":34962},{"buffer":0,"byteOffset":2878628,"byteLength":300,"target":34962},{"buffer":0,"byteOffset":2878928,"byteLength":300,"target":34962}],"accessors":[{"bufferView":0,"componentType":5126,"count":324,"type":"VEC3","min":[-0.5,-0.5,-0.5],"max":[0.5,0.5,0.5]},{"bufferView":1,"componentType":5126,"count":324,"type":"VEC3"},{"bufferView":2,"componentType":5126,"count":324,"type":"VEC2"},{"bufferView":3,"componentType":5126,"count":261,"type":"VEC3","min":[-4.579999923706055,-4.579999923706055,-0.18000000715255737],"max":[4.579999923706055,4.579999923706055,0.18000000715255737]},{"bufferView":4,"componentType":5126,"count":261,"type":"VEC3"},{"bufferView":5,"componentType":5126,"count":261,"type":"VEC2"},{"bufferView":6,"componentType":5123,"count":1344,"type":"SCALAR"},{"bufferView":7,"componentType":5126,"count":81,"type":"VEC3","min":[-0.054999999701976776,5.144999980926514,-1],"max":[0.054999999701976776,5.255000114440918,3.4000000953674316]},{"bufferView":8,"componentType":5126,"count":81,"type":"VEC3"},{"bufferView":9,"componentType":5126,"count":81,"type":"VEC2"},{"bufferView":10,"componentType":5123,"count":384,"type":"SCALAR"},{"bufferView":11,"componentType":5126,"count":324,"type":"VEC2"},{"bufferView":12,"componentType":5126,"count":81,"type":"VEC3","min":[-0.054999999701976776,5.150446891784668,-1.0238635540008545],"max":[0.054999999701976776,7.158641815185547,2.988126516342163]},{"bufferView":13,"componentType":5126,"count":81,"type":"VEC3"},{"bufferView":14,"componentType":5126,"count":81,"type":"VEC3","min":[-0.054999999701976776,5.165708065032959,-1.0430006980895996],"max":[0.054999999701976776,8.67435073852539,1.7863558530807495]},{"bufferView":15,"componentType":5126,"count":81,"type":"VEC3"},{"bufferView":16,"componentType":5126,"count":81,"type":"VEC3","min":[-0.054999999701976776,5.187761306762695,-1.0536210536956787],"max":[0.054999999701976776,9.501921653747559,0.0327131450176239]},{"bufferView":17,"componentType":5126,"count":81,"type":"VEC3"},{"bufferView":18,"componentType":5126,"count":81,"type":"VEC3","min":[-0.054999999701976776,5.187761306762695,-2.0327131748199463],"max":[0.054999999701976776,9.501921653747559,-0.9463789463043213]},{"bufferView":19,"componentType":5126,"count":81,"type":"VEC3"},{"bufferView":20,"componentType":5126,"count":81,"type":"VEC3","min":[-0.054999999701976776,5.165708065032959,-3.786355972290039],"max":[0.054999999701976776,8.67435073852539,-0.9569992423057556]},{"bufferView":21,"componentType":5126,"count":81,"type":"VEC3"},{"bufferView":22,"componentType":5126,"count":81,"type":"VEC3","min":[-0.054999999701976776,5.150446891784668,-4.988126754760742],"max":[0.054999999701976776,7.158641815185547,-0.9761363863945007]},{"bufferView":23,"componentType":5126,"count":81,"type":"VEC3"},{"bufferView":24,"componentType":5126,"count":81,"type":"VEC3","min":[-0.054999999701976776,5.144999980926514,-5.400000095367432],"max":[0.054999999701976776,5.255000114440918,-1]},{"bufferView":25,"componentType":5126,"count":81,"type":"VEC3"},{"bufferView":26,"componentType":5126,"count":81,"type":"VEC3","min":[-0.054999999701976776,3.2413582801818848,-4.988126754760742],"max":[0.054999999701976776,5.249553203582764,-0.9761363863945007]},{"bufferView":27,"componentType":5126,"count":81,"type":"VEC3"},{"bufferView":28,"componentType":5126,"count":81,"type":"VEC3","min":[-0.054999999701976776,1.7256495952606201,-3.786355972290039],"max":[0.054999999701976776,5.234292030334473,-0.9569992423057556]},{"bufferView":29,"componentType":5126,"count":81,"type":"VEC3"},{"bufferView":30,"componentType":5126,"count":81,"type":"VEC3","min":[-0.054999999701976776,0.8980785608291626,-2.0327131748199463],"max":[0.054999999701976776,5.212238788604736,-0.9463789463043213]},{"bufferView":31,"componentType":5126,"count":81,"type":"VEC3"},{"bufferView":32,"componentType":5126,"count":81,"type":"VEC3","min":[-0.054999999701976776,0.8980785608291626,-1.0536210536956787],"max":[0.054999999701976776,5.212238788604736,0.0327131450176239]},{"bufferView":33,"componentType":5126,"count":81,"type":"VEC3"},{"bufferView":34,"componentType":5126,"count":81,"type":"VEC3","min":[-0.054999999701976776,1.7256495952606201,-1.0430006980895996],"max":[0.054999999701976776,5.234292030334473,1.7863558530807495]},{"bufferView":35,"componentType":5126,"count":81,"type":"VEC3"},{"bufferView":36,"componentType":5126,"count":81,"type":"VEC3","min":[-0.054999999701976776,3.2413582801818848,-1.0238635540008545],"max":[0.054999999701976776,5.249553203582764,2.988126516342163]},{"bufferView":37,"componentType":5126,"count":81,"type":"VEC3"},{"bufferView":38,"componentType":5126,"count":81,"type":"VEC3","min":[-3.565385341644287,0.08753799647092819,-1.2000000476837158],"max":[0.16538530588150024,5.312461853027344,-0.800000011920929]},{"bufferView":39,"componentType":5126,"count":81,"type":"VEC3"},{"bufferView":40,"componentType":5126,"count":81,"type":"VEC2"},{"bufferView":41,"componentType":5126,"count":81,"type":"VEC3","min":[-0.16538530588150024,0.08753799647092819,-1.2000000476837158],"max":[3.565385341644287,5.312461853027344,-0.800000011920929]},{"bufferView":42,"componentType":5126,"count":81,"type":"VEC3"},{"bufferView":43,"componentType":5126,"count":324,"type":"VEC2"},{"bufferView":44,"componentType":5126,"count":324,"type":"VEC2"},{"bufferView":45,"componentType":5126,"count":24,"type":"VEC3","min":[-0.5,-0.5,-0.5],"max":[0.5,0.5,0.5]},{"bufferView":46,"componentType":5126,"count":24,"type":"VEC3"},{"bufferView":47,"componentType":5126,"count":24,"type":"VEC2"},{"bufferView":48,"componentType":5123,"count":36,"type":"SCALAR"},{"bufferView":49,"componentType":5126,"count":119,"type":"VEC3","min":[-4.579999923706055,-4.579999923706055,-0.15588457882404327],"max":[4.579999923706055,4.579999923706055,0.15588457882404327]},{"bufferView":50,"componentType":5126,"count":119,"type":"VEC3"},{"bufferView":51,"componentType":5126,"count":119,"type":"VEC2"},{"bufferView":52,"componentType":5123,"count":576,"type":"SCALAR"},{"bufferView":53,"componentType":5126,"count":35,"type":"VEC3","min":[-0.0476313978433609,5.144999980926514,-1],"max":[0.0476313978433609,5.255000114440918,3.4000000953674316]},{"bufferView":54,"componentType":5126,"count":35,"type":"VEC3"},{"bufferView":55,"componentType":5126,"count":35,"type":"VEC2"},{"bufferView":56,"componentType":5123,"count":144,"type":"SCALAR"},{"bufferView":57,"componentType":5126,"count":24,"type":"VEC2"},{"bufferView":58,"componentType":5126,"count":35,"type":"VEC3","min":[-0.054999999701976776,5.157085418701172,-1.020666480064392],"max":[0.054999999701976776,7.152002811431885,2.9849295616149902]},{"bufferView":59,"componentType":5126,"count":35,"type":"VEC3"},{"bufferView":60,"componentType":5126,"count":35,"type":"VEC3","min":[-0.054999999701976776,5.170302391052246,-1.037239670753479],"max":[0.054999999701976776,8.669755935668945,1.780594825744629]},{"bufferView":61,"componentType":5126,"count":35,"type":"VEC3"},{"bufferView":62,"componentType":5126,"count":35,"type":"VEC3","min":[-0.054999999701976776,5.189401149749756,-1.04643714427948],"max":[0.054999999701976776,9.50028133392334,0.02552928775548935]},{"bufferView":63,"componentType":5126,"count":35,"type":"VEC3"},{"bufferView":64,"componentType":5126,"count":35,"type":"VEC3","min":[-0.054999999701976776,5.189401149749756,-2.025529384613037],"max":[0.054999999701976776,9.50028133392334,-0.9535627961158752]},{"bufferView":65,"componentType":5126,"count":35,"type":"VEC3"},{"bufferView":66,"componentType":5126,"count":35,"type":"VEC3","min":[-0.054999999701976776,5.170302391052246,-3.780594825744629],"max":[0.054999999701976776,8.669755935668945,-0.9627602696418762]},{"bufferView":67,"componentType":5126,"count":35,"type":"VEC3"},{"bufferView":68,"componentType":5126,"count":35,"type":"VEC3","min":[-0.054999999701976776,5.157085418701172,-4.98492956161499],"max":[0.054999999701976776,7.152002811431885,-0.9793335199356079]},{"bufferView":69,"componentType":5126,"count":35,"type":"VEC3"},{"bufferView":70,"componentType":5126,"count":35,"type":"VEC3","min":[-0.0476313978433609,5.144999980926514,-5.400000095367432],"max":[0.0476313978433609,5.255000114440918,-1]},{"bufferView":71,"componentType":5126,"count":35,"type":"VEC3"},{"bufferView":72,"componentType":5126,"count":35,"type":"VEC3","min":[-0.054999999701976776,3.2479970455169678,-4.98492956161499],"max":[0.054999999701976776,5.242914199829102,-0.9793335199356079]},{"bufferView":73,"componentType":5126,"count":35,"type":"VEC3"},{"bufferView":74,"componentType":5126,"count":35,"type":"VEC3","min":[-0.054999999701976776,1.7302438020706177,-3.780594825744629],"max":[0.054999999701976776,5.2296977043151855,-0.9627602696418762]},{"bufferView":75,"componentType":5126,"count":35,"type":"VEC3"},{"bufferView":76,"componentType":5126,"count":35,"type":"VEC3","min":[-0.054999999701976776,0.8997182250022888,-2.025529384613037],"max":[0.054999999701976776,5.210598945617676,-0.9535627961158752]},{"bufferView":77,"componentType":5126,"count":35,"type":"VEC3"},{"bufferView":78,"componentType":5126,"count":35,"type":"VEC3","min":[-0.054999999701976776,0.8997182250022888,-1.04643714427948],"max":[0.054999999701976776,5.210598945617676,0.02552928775548935]},{"bufferView":79,"componentType":5126,"count":35,"type":"VEC3"},{"bufferView":80,"componentType":5126,"count":35,"type":"VEC3","min":[-0.054999999701976776,1.7302438020706177,-1.037239670753479],"max":[0.054999999701976776,5.2296977043151855,1.780594825744629]},{"bufferView":81,"componentType":5126,"count":35,"type":"VEC3"},{"bufferView":82,"componentType":5126,"count":35,"type":"VEC3","min":[-0.054999999701976776,3.2479970455169678,-1.020666480064392],"max":[0.054999999701976776,5.242914199829102,2.9849295616149902]},{"bufferView":83,"componentType":5126,"count":35,"type":"VEC3"},{"bufferView":84,"componentType":5126,"count":35,"type":"VEC3","min":[-3.5432279109954834,0.10260504484176636,-1.2000000476837158],"max":[0.14322787523269653,5.297394752502441,-0.800000011920929]},{"bufferView":85,"componentType":5126,"count":35,"type":"VEC3"},{"bufferView":86,"componentType":5126,"count":35,"type":"VEC2"},{"bufferView":87,"componentType":5126,"count":35,"type":"VEC3","min":[-0.14322787523269653,0.10260504484176636,-1.2000000476837158],"max":[3.5432279109954834,5.297394752502441,-0.800000011920929]},{"bufferView":88,"componentType":5126,"count":35,"type":"VEC3"},{"bufferView":89,"componentType":5126,"count":24,"type":"VEC2"},{"bufferView":90,"componentType":5126,"count":24,"type":"VEC2"},{"bufferView":91,"componentType":5126,"count":55,"type":"VEC3","min":[-4.579999923706055,-4.355838775634766,-0.18000000715255737],"max":[4.579999923706055,4.355838775634766,0.18000000715255737]},{"bufferView":92,"componentType":5126,"count":55,"type":"VEC3"},{"bufferView":93,"componentType":5126,"count":55,"type":"VEC2"},{"bufferView":94,"componentType":5123,"count":240,"type":"SCALAR"},{"bufferView":95,"componentType":5126,"count":25,"type":"VEC3","min":[-0.054999999701976776,5.144999980926514,-1],"max":[0.054999999701976776,5.255000114440918,3.4000000953674316]},{"bufferView":96,"componentType":5126,"count":25,"type":"VEC3"},{"bufferView":97,"componentType":5126,"count":25,"type":"VEC2"},{"bufferView":98,"componentType":5123,"count":96,"type":"SCALAR"},{"bufferView":99,"componentType":5126,"count":25,"type":"VEC3","min":[-0.054999999701976776,5.199999809265137,-1.0549999475479126],"max":[0.054999999701976776,9.600000381469727,-0.9449999928474426]},{"bufferView":100,"componentType":5126,"count":25,"type":"VEC3"},{"bufferView":101,"componentType":5126,"count":25,"type":"VEC3","min":[-0.054999999701976776,5.144999980926514,-5.400000095367432],"max":[0.054999999701976776,5.255000114440918,-1]},{"bufferView":102,"componentType":5126,"count":25,"type":"VEC3"},{"bufferView":103,"componentType":5126,"count":25,"type":"VEC3","min":[-0.054999999701976776,0.800000011920929,-1.0549999475479126],"max":[0.054999999701976776,5.199999809265137,-0.9449999928474426]},{"bufferView":104,"componentType":5126,"count":25,"type":"VEC3"},{"bufferView":105,"componentType":5126,"count":25,"type":"VEC3","min":[-3.565385341644287,0.08753799647092819,-1.2000000476837158],"max":[0.16538530588150024,5.312461853027344,-0.800000011920929]},{"bufferView":106,"componentType":5126,"count":25,"type":"VEC3"},{"bufferView":107,"componentType":5126,"count":25,"type":"VEC2"},{"bufferView":108,"componentType":5126,"count":25,"type":"VEC3","min":[-0.16538530588150024,0.08753799647092819,-1.2000000476837158],"max":[3.565385341644287,5.312461853027344,-0.800000011920929]},{"bufferView":109,"componentType":5126,"count":25,"type":"VEC3"}],"extensionsUsed":["KHR_materials_unlit"],"extras":{"id":"vlt-county-fair-midway-36","family":"county-fair-midway","variant":35,"plan":"D1-2","units":"metres","up":"+Y","front":"+Z","lodScenes":[0,1,2]}}