{"asset":{"version":"2.0","generator":"SLOPMERICA Department of Unnecessary Development 1.0"},"scene":0,"scenes":[{"name":"LOD 0","nodes":[0,1,2,3,4,5,6,7,8,9,10,11,12,13,14,15,16,17,18],"extras":{"level":0}},{"name":"LOD 1","nodes":[19,20,21,22,23,24,25,26,27,28,29,30,31,32,33,34,35,36,37],"extras":{"level":1}},{"name":"LOD 2","nodes":[38,39,40,41,42,43,44,45,46],"extras":{"level":2}}],"nodes":[{"name":"surveyed lot","mesh":0,"translation":[0,0.06,0],"scale":[15.84,0.12,14.08]},{"name":"ferris wheel rim","mesh":1,"translation":[0,5.2,-1],"rotation":[0,0.707107,0,0.707107]},{"name":"wheel spoke 0","mesh":2,"translation":[0,0,0]},{"name":"gondola 0","mesh":3,"translation":[0,5.2,3.4],"scale":[0.75,0.65,0.55]},{"name":"wheel spoke 1","mesh":4,"translation":[0,0,0]},{"name":"wheel spoke 2","mesh":5,"translation":[0,0,0]},{"name":"gondola 2","mesh":6,"translation":[0,9.6,-1],"scale":[0.75,0.65,0.55]},{"name":"wheel spoke 3","mesh":7,"translation":[0,0,0]},{"name":"wheel spoke 4","mesh":8,"translation":[0,0,0]},{"name":"gondola 4","mesh":3,"translation":[0,5.2,-5.4],"scale":[0.75,0.65,0.55]},{"name":"wheel spoke 5","mesh":9,"translation":[0,0,0]},{"name":"wheel spoke 6","mesh":10,"translation":[0,0,0]},{"name":"gondola 6","mesh":6,"translation":[0,0.8,-1],"scale":[0.75,0.65,0.55]},{"name":"wheel spoke 7","mesh":11,"translation":[0,0,0]},{"name":"left wheel leg","mesh":12,"translation":[0,0,0]},{"name":"right wheel leg","mesh":13,"translation":[0,0,0]},{"name":"midway booth 0","mesh":14,"translation":[-6,1,6],"scale":[2.1,1.8,2]},{"name":"midway booth 1","mesh":15,"translation":[-3.3,1,6],"scale":[2.1,1.8,2]},{"name":"closed tarp","mesh":16,"translation":[-5.2,0.25,2.8],"scale":[4.2,0.12,3.2]},{"name":"surveyed lot","mesh":17,"translation":[0,0.06,0],"scale":[15.84,0.12,14.08]},{"name":"ferris wheel rim","mesh":18,"translation":[0,5.2,-1],"rotation":[0,0.707107,0,0.707107]},{"name":"wheel spoke 0","mesh":19,"translation":[0,0,0]},{"name":"gondola 0","mesh":20,"translation":[0,5.2,3.4],"scale":[0.75,0.65,0.55]},{"name":"wheel spoke 1","mesh":21,"translation":[0,0,0]},{"name":"wheel spoke 2","mesh":22,"translation":[0,0,0]},{"name":"gondola 2","mesh":23,"translation":[0,9.6,-1],"scale":[0.75,0.65,0.55]},{"name":"wheel spoke 3","mesh":24,"translation":[0,0,0]},{"name":"wheel spoke 4","mesh":25,"translation":[0,0,0]},{"name":"gondola 4","mesh":20,"translation":[0,5.2,-5.4],"scale":[0.75,0.65,0.55]},{"name":"wheel spoke 5","mesh":26,"translation":[0,0,0]},{"name":"wheel spoke 6","mesh":27,"translation":[0,0,0]},{"name":"gondola 6","mesh":23,"translation":[0,0.8,-1],"scale":[0.75,0.65,0.55]},{"name":"wheel spoke 7","mesh":28,"translation":[0,0,0]},{"name":"left wheel leg","mesh":29,"translation":[0,0,0]},{"name":"right wheel leg","mesh":30,"translation":[0,0,0]},{"name":"midway booth 0","mesh":31,"translation":[-6,1,6],"scale":[2.1,1.8,2]},{"name":"midway booth 1","mesh":32,"translation":[-3.3,1,6],"scale":[2.1,1.8,2]},{"name":"closed tarp","mesh":33,"translation":[-5.2,0.25,2.8],"scale":[4.2,0.12,3.2]},{"name":"surveyed lot","mesh":17,"translation":[0,0.06,0],"scale":[15.84,0.12,14.08]},{"name":"ferris wheel rim","mesh":34,"translation":[0,5.2,-1],"rotation":[0,0.707107,0,0.707107]},{"name":"wheel spoke 0","mesh":35,"translation":[0,0,0]},{"name":"wheel spoke 1","mesh":36,"translation":[0,0,0]},{"name":"wheel spoke 2","mesh":37,"translation":[0,0,0]},{"name":"wheel spoke 3","mesh":38,"translation":[0,0,0]},{"name":"left wheel leg","mesh":39,"translation":[0,0,0]},{"name":"right wheel leg","mesh":40,"translation":[0,0,0]},{"name":"closed tarp","mesh":33,"translation":[-5.2,0.25,2.8],"scale":[4.2,0.12,3.2]}],"meshes":[{"primitives":[{"attributes":{"POSITION":0,"NORMAL":1,"TEXCOORD_0":2},"material":0,"mode":4}]},{"primitives":[{"attributes":{"POSITION":3,"NORMAL":4,"TEXCOORD_0":5},"material":1,"mode":4,"indices":6}]},{"primitives":[{"attributes":{"POSITION":7,"NORMAL":8,"TEXCOORD_0":9},"material":2,"mode":4,"indices":10}]},{"primitives":[{"attributes":{"POSITION":0,"NORMAL":1,"TEXCOORD_0":11},"material":3,"mode":4}]},{"primitives":[{"attributes":{"POSITION":12,"NORMAL":13,"TEXCOORD_0":9},"material":2,"mode":4,"indices":10}]},{"primitives":[{"attributes":{"POSITION":14,"NORMAL":15,"TEXCOORD_0":9},"material":2,"mode":4,"indices":10}]},{"primitives":[{"attributes":{"POSITION":0,"NORMAL":1,"TEXCOORD_0":11},"material":4,"mode":4}]},{"primitives":[{"attributes":{"POSITION":16,"NORMAL":17,"TEXCOORD_0":9},"material":2,"mode":4,"indices":10}]},{"primitives":[{"attributes":{"POSITION":18,"NORMAL":19,"TEXCOORD_0":9},"material":2,"mode":4,"indices":10}]},{"primitives":[{"attributes":{"POSITION":20,"NORMAL":21,"TEXCOORD_0":9},"material":2,"mode":4,"indices":10}]},{"primitives":[{"attributes":{"POSITION":22,"NORMAL":23,"TEXCOORD_0":9},"material":2,"mode":4,"indices":10}]},{"primitives":[{"attributes":{"POSITION":24,"NORMAL":25,"TEXCOORD_0":9},"material":2,"mode":4,"indices":10}]},{"primitives":[{"attributes":{"POSITION":26,"NORMAL":27,"TEXCOORD_0":28},"material":1,"mode":4,"indices":10}]},{"primitives":[{"attributes":{"POSITION":29,"NORMAL":30,"TEXCOORD_0":28},"material":1,"mode":4,"indices":10}]},{"primitives":[{"attributes":{"POSITION":0,"NORMAL":1,"TEXCOORD_0":31},"material":4,"mode":4}]},{"primitives":[{"attributes":{"POSITION":0,"NORMAL":1,"TEXCOORD_0":31},"material":3,"mode":4}]},{"primitives":[{"attributes":{"POSITION":0,"NORMAL":1,"TEXCOORD_0":32},"material":5,"mode":4}]},{"primitives":[{"attributes":{"POSITION":33,"NORMAL":34,"TEXCOORD_0":35},"material":0,"mode":4,"indices":36}]},{"primitives":[{"attributes":{"POSITION":37,"NORMAL":38,"TEXCOORD_0":39},"material":1,"mode":4,"indices":40}]},{"primitives":[{"attributes":{"POSITION":41,"NORMAL":42,"TEXCOORD_0":43},"material":2,"mode":4,"indices":44}]},{"primitives":[{"attributes":{"POSITION":33,"NORMAL":34,"TEXCOORD_0":45},"material":3,"mode":4,"indices":36}]},{"primitives":[{"attributes":{"POSITION":46,"NORMAL":47,"TEXCOORD_0":43},"material":2,"mode":4,"indices":44}]},{"primitives":[{"attributes":{"POSITION":48,"NORMAL":49,"TEXCOORD_0":43},"material":2,"mode":4,"indices":44}]},{"primitives":[{"attributes":{"POSITION":33,"NORMAL":34,"TEXCOORD_0":45},"material":4,"mode":4,"indices":36}]},{"primitives":[{"attributes":{"POSITION":50,"NORMAL":51,"TEXCOORD_0":43},"material":2,"mode":4,"indices":44}]},{"primitives":[{"attributes":{"POSITION":52,"NORMAL":53,"TEXCOORD_0":43},"material":2,"mode":4,"indices":44}]},{"primitives":[{"attributes":{"POSITION":54,"NORMAL":55,"TEXCOORD_0":43},"material":2,"mode":4,"indices":44}]},{"primitives":[{"attributes":{"POSITION":56,"NORMAL":57,"TEXCOORD_0":43},"material":2,"mode":4,"indices":44}]},{"primitives":[{"attributes":{"POSITION":58,"NORMAL":59,"TEXCOORD_0":43},"material":2,"mode":4,"indices":44}]},{"primitives":[{"attributes":{"POSITION":60,"NORMAL":61,"TEXCOORD_0":62},"material":1,"mode":4,"indices":44}]},{"primitives":[{"attributes":{"POSITION":63,"NORMAL":64,"TEXCOORD_0":62},"material":1,"mode":4,"indices":44}]},{"primitives":[{"attributes":{"POSITION":33,"NORMAL":34,"TEXCOORD_0":65},"material":4,"mode":4,"indices":36}]},{"primitives":[{"attributes":{"POSITION":33,"NORMAL":34,"TEXCOORD_0":65},"material":3,"mode":4,"indices":36}]},{"primitives":[{"attributes":{"POSITION":33,"NORMAL":34,"TEXCOORD_0":66},"material":5,"mode":4,"indices":36}]},{"primitives":[{"attributes":{"POSITION":67,"NORMAL":68,"TEXCOORD_0":69},"material":1,"mode":4,"indices":70}]},{"primitives":[{"attributes":{"POSITION":71,"NORMAL":72,"TEXCOORD_0":73},"material":2,"mode":4,"indices":74}]},{"primitives":[{"attributes":{"POSITION":75,"NORMAL":76,"TEXCOORD_0":73},"material":2,"mode":4,"indices":74}]},{"primitives":[{"attributes":{"POSITION":77,"NORMAL":78,"TEXCOORD_0":73},"material":2,"mode":4,"indices":74}]},{"primitives":[{"attributes":{"POSITION":79,"NORMAL":80,"TEXCOORD_0":73},"material":2,"mode":4,"indices":74}]},{"primitives":[{"attributes":{"POSITION":81,"NORMAL":82,"TEXCOORD_0":83},"material":1,"mode":4,"indices":74}]},{"primitives":[{"attributes":{"POSITION":84,"NORMAL":85,"TEXCOORD_0":83},"material":1,"mode":4,"indices":74}]}],"materials":[{"name":"concrete","pbrMetallicRoughness":{"baseColorTexture":{"index":0},"metallicRoughnessTexture":{"index":2},"roughnessFactor":1,"metallicFactor":1},"normalTexture":{"index":1,"scale":0.82},"occlusionTexture":{"index":2,"strength":0.35}},{"name":"metal-dark","pbrMetallicRoughness":{"baseColorTexture":{"index":3},"metallicRoughnessTexture":{"index":5},"roughnessFactor":1,"metallicFactor":1},"normalTexture":{"index":4,"scale":0.35},"occlusionTexture":{"index":5,"strength":0.35}},{"name":"metal-galvanized","pbrMetallicRoughness":{"baseColorTexture":{"index":6},"metallicRoughnessTexture":{"index":8},"roughnessFactor":1,"metallicFactor":1},"normalTexture":{"index":7,"scale":0.15},"occlusionTexture":{"index":8,"strength":0.35}},{"name":"paint-red","pbrMetallicRoughness":{"baseColorFactor":[0.46778379610254284,0.08021982030622662,0.05126945836711539,1],"roughnessFactor":0.62,"metallicFactor":0.05}},{"name":"paint-yellow","pbrMetallicRoughness":{"baseColorFactor":[0.76052450467022,0.4793201830913402,0.07818742179702069,1],"roughnessFactor":0.66,"metallicFactor":0.03}},{"name":"paint-blue","pbrMetallicRoughness":{"baseColorFactor":[0.05126945836711539,0.10946171076915331,0.22696587349938613,1],"roughnessFactor":0.58,"metallicFactor":0.05}}],"textures":[{"source":0,"sampler":0},{"source":1,"sampler":0},{"source":2,"sampler":0},{"source":3,"sampler":0},{"source":4,"sampler":0},{"source":5,"sampler":0},{"source":6,"sampler":0},{"source":7,"sampler":0},{"source":8,"sampler":0}],"images":[{"uri":"../textures/concrete-albedo.png"},{"uri":"../textures/concrete-normal.png"},{"uri":"../textures/concrete-orm.png"},{"uri":"../textures/metal-dark-albedo.png"},{"uri":"../textures/metal-dark-normal.png"},{"uri":"../textures/metal-dark-orm.png"},{"uri":"../textures/metal-galvanized-albedo.png"},{"uri":"../textures/metal-galvanized-normal.png"},{"uri":"../textures/metal-galvanized-orm.png"}],"samplers":[{"magFilter":9729,"minFilter":9987,"wrapS":10497,"wrapT":10497}],"buffers":[{"uri":"../shared/geometry.bin","byteLength":16435520}],"bufferViews":[{"buffer":0,"byteOffset":0,"byteLength":3888,"target":34962},{"buffer":0,"byteOffset":3888,"byteLength":3888,"target":34962},{"buffer":0,"byteOffset":2829608,"byteLength":2592,"target":34962},{"buffer":0,"byteOffset":2832200,"byteLength":3132,"target":34962},{"buffer":0,"byteOffset":390704,"byteLength":3132,"target":34962},{"buffer":0,"byteOffset":2835332,"byteLength":2088,"target":34962},{"buffer":0,"byteOffset":395924,"byteLength":2688,"target":34963},{"buffer":0,"byteOffset":2837420,"byteLength":972,"target":34962},{"buffer":0,"byteOffset":2838392,"byteLength":972,"target":34962},{"buffer":0,"byteOffset":409952,"byteLength":648,"target":34962},{"buffer":0,"byteOffset":410600,"byteLength":768,"target":34963},{"buffer":0,"byteOffset":2839364,"byteLength":2592,"target":34962},{"buffer":0,"byteOffset":2841956,"byteLength":972,"target":34962},{"buffer":0,"byteOffset":2842928,"byteLength":972,"target":34962},{"buffer":0,"byteOffset":2843900,"byteLength":972,"target":34962},{"buffer":0,"byteOffset":2844872,"byteLength":972,"target":34962},{"buffer":0,"byteOffset":2845844,"byteLength":972,"target":34962},{"buffer":0,"byteOffset":2846816,"byteLength":972,"target":34962},{"buffer":0,"byteOffset":2847788,"byteLength":972,"target":34962},{"buffer":0,"byteOffset":2848760,"byteLength":972,"target":34962},{"buffer":0,"byteOffset":2849732,"byteLength":972,"target":34962},{"buffer":0,"byteOffset":2850704,"byteLength":972,"target":34962},{"buffer":0,"byteOffset":2851676,"byteLength":972,"target":34962},{"buffer":0,"byteOffset":2852648,"byteLength":972,"target":34962},{"buffer":0,"byteOffset":2853620,"byteLength":972,"target":34962},{"buffer":0,"byteOffset":2854592,"byteLength":972,"target":34962},{"buffer":0,"byteOffset":2855564,"byteLength":972,"target":34962},{"buffer":0,"byteOffset":2856536,"byteLength":972,"target":34962},{"buffer":0,"byteOffset":2857508,"byteLength":648,"target":34962},{"buffer":0,"byteOffset":2858156,"byteLength":972,"target":34962},{"buffer":0,"byteOffset":2859128,"byteLength":972,"target":34962},{"buffer":0,"byteOffset":2860100,"byteLength":2592,"target":34962},{"buffer":0,"byteOffset":3283856,"byteLength":2592,"target":34962},{"buffer":0,"byteOffset":46644,"byteLength":288,"target":34962},{"buffer":0,"byteOffset":45952,"byteLength":288,"target":34962},{"buffer":0,"byteOffset":2862692,"byteLength":192,"target":34962},{"buffer":0,"byteOffset":46432,"byteLength":72,"target":34963},{"buffer":0,"byteOffset":2862884,"byteLength":1428,"target":34962},{"buffer":0,"byteOffset":427996,"byteLength":1428,"target":34962},{"buffer":0,"byteOffset":2864312,"byteLength":952,"target":34962},{"buffer":0,"byteOffset":430376,"byteLength":1152,"target":34963},{"buffer":0,"byteOffset":2865264,"byteLength":420,"target":34962},{"buffer":0,"byteOffset":2865684,"byteLength":420,"target":34962},{"buffer":0,"byteOffset":433796,"byteLength":280,"target":34962},{"buffer":0,"byteOffset":434076,"byteLength":288,"target":34963},{"buffer":0,"byteOffset":2866104,"byteLength":192,"target":34962},{"buffer":0,"byteOffset":2866296,"byteLength":420,"target":34962},{"buffer":0,"byteOffset":2866716,"byteLength":420,"target":34962},{"buffer":0,"byteOffset":2867136,"byteLength":420,"target":34962},{"buffer":0,"byteOffset":2867556,"byteLength":420,"target":34962},{"buffer":0,"byteOffset":2867976,"byteLength":420,"target":34962},{"buffer":0,"byteOffset":2868396,"byteLength":420,"target":34962},{"buffer":0,"byteOffset":2868816,"byteLength":420,"target":34962},{"buffer":0,"byteOffset":2869236,"byteLength":420,"target":34962},{"buffer":0,"byteOffset":2869656,"byteLength":420,"target":34962},{"buffer":0,"byteOffset":2870076,"byteLength":420,"target":34962},{"buffer":0,"byteOffset":2870496,"byteLength":420,"target":34962},{"buffer":0,"byteOffset":2870916,"byteLength":420,"target":34962},{"buffer":0,"byteOffset":2871336,"byteLength":420,"target":34962},{"buffer":0,"byteOffset":2871756,"byteLength":420,"target":34962},{"buffer":0,"byteOffset":2872176,"byteLength":420,"target":34962},{"buffer":0,"byteOffset":2872596,"byteLength":420,"target":34962},{"buffer":0,"byteOffset":2873016,"byteLength":280,"target":34962},{"buffer":0,"byteOffset":2873296,"byteLength":420,"target":34962},{"buffer":0,"byteOffset":2873716,"byteLength":420,"target":34962},{"buffer":0,"byteOffset":2874136,"byteLength":192,"target":34962},{"buffer":0,"byteOffset":3286448,"byteLength":192,"target":34962},{"buffer":0,"byteOffset":2874328,"byteLength":660,"target":34962},{"buffer":0,"byteOffset":437788,"byteLength":660,"target":34962},{"buffer":0,"byteOffset":2874988,"byteLength":440,"target":34962},{"buffer":0,"byteOffset":438888,"byteLength":480,"target":34963},{"buffer":0,"byteOffset":2875428,"byteLength":300,"target":34962},{"buffer":0,"byteOffset":2875728,"byteLength":300,"target":34962},{"buffer":0,"byteOffset":439968,"byteLength":200,"target":34962},{"buffer":0,"byteOffset":440168,"byteLength":192,"target":34963},{"buffer":0,"byteOffset":2876028,"byteLength":300,"target":34962},{"buffer":0,"byteOffset":2876328,"byteLength":300,"target":34962},{"buffer":0,"byteOffset":2876628,"byteLength":300,"target":34962},{"buffer":0,"byteOffset":2876928,"byteLength":300,"target":34962},{"buffer":0,"byteOffset":2877228,"byteLength":300,"target":34962},{"buffer":0,"byteOffset":2877528,"byteLength":300,"target":34962},{"buffer":0,"byteOffset":2877828,"byteLength":300,"target":34962},{"buffer":0,"byteOffset":2878128,"byteLength":300,"target":34962},{"buffer":0,"byteOffset":2878428,"byteLength":200,"target":34962},{"buffer":0,"byteOffset":2878628,"byteLength":300,"target":34962},{"buffer":0,"byteOffset":2878928,"byteLength":300,"target":34962}],"accessors":[{"bufferView":0,"componentType":5126,"count":324,"type":"VEC3","min":[-0.5,-0.5,-0.5],"max":[0.5,0.5,0.5]},{"bufferView":1,"componentType":5126,"count":324,"type":"VEC3"},{"bufferView":2,"componentType":5126,"count":324,"type":"VEC2"},{"bufferView":3,"componentType":5126,"count":261,"type":"VEC3","min":[-4.579999923706055,-4.579999923706055,-0.18000000715255737],"max":[4.579999923706055,4.579999923706055,0.18000000715255737]},{"bufferView":4,"componentType":5126,"count":261,"type":"VEC3"},{"bufferView":5,"componentType":5126,"count":261,"type":"VEC2"},{"bufferView":6,"componentType":5123,"count":1344,"type":"SCALAR"},{"bufferView":7,"componentType":5126,"count":81,"type":"VEC3","min":[-0.054999999701976776,5.144999980926514,-1],"max":[0.054999999701976776,5.255000114440918,3.4000000953674316]},{"bufferView":8,"componentType":5126,"count":81,"type":"VEC3"},{"bufferView":9,"componentType":5126,"count":81,"type":"VEC2"},{"bufferView":10,"componentType":5123,"count":384,"type":"SCALAR"},{"bufferView":11,"componentType":5126,"count":324,"type":"VEC2"},{"bufferView":12,"componentType":5126,"count":81,"type":"VEC3","min":[-0.054999999701976776,5.16110897064209,-1.0388908386230469],"max":[0.054999999701976776,8.350160598754883,2.150160789489746]},{"bufferView":13,"componentType":5126,"count":81,"type":"VEC3"},{"bufferView":14,"componentType":5126,"count":81,"type":"VEC3","min":[-0.054999999701976776,5.199999809265137,-1.0549999475479126],"max":[0.054999999701976776,9.600000381469727,-0.9449999928474426]},{"bufferView":15,"componentType":5126,"count":81,"type":"VEC3"},{"bufferView":16,"componentType":5126,"count":81,"type":"VEC3","min":[-0.054999999701976776,5.16110897064209,-4.150160789489746],"max":[0.054999999701976776,8.350160598754883,-0.9611091017723083]},{"bufferView":17,"componentType":5126,"count":81,"type":"VEC3"},{"bufferView":18,"componentType":5126,"count":81,"type":"VEC3","min":[-0.054999999701976776,5.144999980926514,-5.400000095367432],"max":[0.054999999701976776,5.255000114440918,-1]},{"bufferView":19,"componentType":5126,"count":81,"type":"VEC3"},{"bufferView":20,"componentType":5126,"count":81,"type":"VEC3","min":[-0.054999999701976776,2.0498392581939697,-4.150160789489746],"max":[0.054999999701976776,5.238890647888184,-0.9611091017723083]},{"bufferView":21,"componentType":5126,"count":81,"type":"VEC3"},{"bufferView":22,"componentType":5126,"count":81,"type":"VEC3","min":[-0.054999999701976776,0.800000011920929,-1.0549999475479126],"max":[0.054999999701976776,5.199999809265137,-0.9449999928474426]},{"bufferView":23,"componentType":5126,"count":81,"type":"VEC3"},{"bufferView":24,"componentType":5126,"count":81,"type":"VEC3","min":[-0.054999999701976776,2.0498392581939697,-1.0388908386230469],"max":[0.054999999701976776,5.238890647888184,2.150160789489746]},{"bufferView":25,"componentType":5126,"count":81,"type":"VEC3"},{"bufferView":26,"componentType":5126,"count":81,"type":"VEC3","min":[-3.565385341644287,0.08753799647092819,-1.2000000476837158],"max":[0.16538530588150024,5.312461853027344,-0.800000011920929]},{"bufferView":27,"componentType":5126,"count":81,"type":"VEC3"},{"bufferView":28,"componentType":5126,"count":81,"type":"VEC2"},{"bufferView":29,"componentType":5126,"count":81,"type":"VEC3","min":[-0.16538530588150024,0.08753799647092819,-1.2000000476837158],"max":[3.565385341644287,5.312461853027344,-0.800000011920929]},{"bufferView":30,"componentType":5126,"count":81,"type":"VEC3"},{"bufferView":31,"componentType":5126,"count":324,"type":"VEC2"},{"bufferView":32,"componentType":5126,"count":324,"type":"VEC2"},{"bufferView":33,"componentType":5126,"count":24,"type":"VEC3","min":[-0.5,-0.5,-0.5],"max":[0.5,0.5,0.5]},{"bufferView":34,"componentType":5126,"count":24,"type":"VEC3"},{"bufferView":35,"componentType":5126,"count":24,"type":"VEC2"},{"bufferView":36,"componentType":5123,"count":36,"type":"SCALAR"},{"bufferView":37,"componentType":5126,"count":119,"type":"VEC3","min":[-4.579999923706055,-4.579999923706055,-0.15588457882404327],"max":[4.579999923706055,4.579999923706055,0.15588457882404327]},{"bufferView":38,"componentType":5126,"count":119,"type":"VEC3"},{"bufferView":39,"componentType":5126,"count":119,"type":"VEC2"},{"bufferView":40,"componentType":5123,"count":576,"type":"SCALAR"},{"bufferView":41,"componentType":5126,"count":35,"type":"VEC3","min":[-0.0476313978433609,5.144999980926514,-1],"max":[0.0476313978433609,5.255000114440918,3.4000000953674316]},{"bufferView":42,"componentType":5126,"count":35,"type":"VEC3"},{"bufferView":43,"componentType":5126,"count":35,"type":"VEC2"},{"bufferView":44,"componentType":5123,"count":144,"type":"SCALAR"},{"bufferView":45,"componentType":5126,"count":24,"type":"VEC2"},{"bufferView":46,"componentType":5126,"count":35,"type":"VEC3","min":[-0.054999999701976776,5.166319370269775,-1.0336804389953613],"max":[0.054999999701976776,8.344950675964355,2.1449503898620605]},{"bufferView":47,"componentType":5126,"count":35,"type":"VEC3"},{"bufferView":48,"componentType":5126,"count":35,"type":"VEC3","min":[-0.0476313978433609,5.199999809265137,-1.0549999475479126],"max":[0.0476313978433609,9.600000381469727,-0.9449999928474426]},{"bufferView":49,"componentType":5126,"count":35,"type":"VEC3"},{"bufferView":50,"componentType":5126,"count":35,"type":"VEC3","min":[-0.054999999701976776,5.166319370269775,-4.1449503898620605],"max":[0.054999999701976776,8.344950675964355,-0.9663195013999939]},{"bufferView":51,"componentType":5126,"count":35,"type":"VEC3"},{"bufferView":52,"componentType":5126,"count":35,"type":"VEC3","min":[-0.0476313978433609,5.144999980926514,-5.400000095367432],"max":[0.0476313978433609,5.255000114440918,-1]},{"bufferView":53,"componentType":5126,"count":35,"type":"VEC3"},{"bufferView":54,"componentType":5126,"count":35,"type":"VEC3","min":[-0.054999999701976776,2.0550496578216553,-4.1449503898620605],"max":[0.054999999701976776,5.233680248260498,-0.9663195013999939]},{"bufferView":55,"componentType":5126,"count":35,"type":"VEC3"},{"bufferView":56,"componentType":5126,"count":35,"type":"VEC3","min":[-0.0476313978433609,0.800000011920929,-1.0549999475479126],"max":[0.0476313978433609,5.199999809265137,-0.9449999928474426]},{"bufferView":57,"componentType":5126,"count":35,"type":"VEC3"},{"bufferView":58,"componentType":5126,"count":35,"type":"VEC3","min":[-0.054999999701976776,2.0550496578216553,-1.0336804389953613],"max":[0.054999999701976776,5.233680248260498,2.1449503898620605]},{"bufferView":59,"componentType":5126,"count":35,"type":"VEC3"},{"bufferView":60,"componentType":5126,"count":35,"type":"VEC3","min":[-3.5432279109954834,0.10260504484176636,-1.2000000476837158],"max":[0.14322787523269653,5.297394752502441,-0.800000011920929]},{"bufferView":61,"componentType":5126,"count":35,"type":"VEC3"},{"bufferView":62,"componentType":5126,"count":35,"type":"VEC2"},{"bufferView":63,"componentType":5126,"count":35,"type":"VEC3","min":[-0.14322787523269653,0.10260504484176636,-1.2000000476837158],"max":[3.5432279109954834,5.297394752502441,-0.800000011920929]},{"bufferView":64,"componentType":5126,"count":35,"type":"VEC3"},{"bufferView":65,"componentType":5126,"count":24,"type":"VEC2"},{"bufferView":66,"componentType":5126,"count":24,"type":"VEC2"},{"bufferView":67,"componentType":5126,"count":55,"type":"VEC3","min":[-4.579999923706055,-4.355838775634766,-0.18000000715255737],"max":[4.579999923706055,4.355838775634766,0.18000000715255737]},{"bufferView":68,"componentType":5126,"count":55,"type":"VEC3"},{"bufferView":69,"componentType":5126,"count":55,"type":"VEC2"},{"bufferView":70,"componentType":5123,"count":240,"type":"SCALAR"},{"bufferView":71,"componentType":5126,"count":25,"type":"VEC3","min":[-0.054999999701976776,5.144999980926514,-1],"max":[0.054999999701976776,5.255000114440918,3.4000000953674316]},{"bufferView":72,"componentType":5126,"count":25,"type":"VEC3"},{"bufferView":73,"componentType":5126,"count":25,"type":"VEC2"},{"bufferView":74,"componentType":5123,"count":96,"type":"SCALAR"},{"bufferView":75,"componentType":5126,"count":25,"type":"VEC3","min":[-0.054999999701976776,5.199999809265137,-1.0549999475479126],"max":[0.054999999701976776,9.600000381469727,-0.9449999928474426]},{"bufferView":76,"componentType":5126,"count":25,"type":"VEC3"},{"bufferView":77,"componentType":5126,"count":25,"type":"VEC3","min":[-0.054999999701976776,5.144999980926514,-5.400000095367432],"max":[0.054999999701976776,5.255000114440918,-1]},{"bufferView":78,"componentType":5126,"count":25,"type":"VEC3"},{"bufferView":79,"componentType":5126,"count":25,"type":"VEC3","min":[-0.054999999701976776,0.800000011920929,-1.0549999475479126],"max":[0.054999999701976776,5.199999809265137,-0.9449999928474426]},{"bufferView":80,"componentType":5126,"count":25,"type":"VEC3"},{"bufferView":81,"componentType":5126,"count":25,"type":"VEC3","min":[-3.565385341644287,0.08753799647092819,-1.2000000476837158],"max":[0.16538530588150024,5.312461853027344,-0.800000011920929]},{"bufferView":82,"componentType":5126,"count":25,"type":"VEC3"},{"bufferView":83,"componentType":5126,"count":25,"type":"VEC2"},{"bufferView":84,"componentType":5126,"count":25,"type":"VEC3","min":[-0.16538530588150024,0.08753799647092819,-1.2000000476837158],"max":[3.565385341644287,5.312461853027344,-0.800000011920929]},{"bufferView":85,"componentType":5126,"count":25,"type":"VEC3"}],"extensionsUsed":["KHR_materials_unlit"],"extras":{"id":"vlt-county-fair-midway-21","family":"county-fair-midway","variant":20,"plan":"A1-2","units":"metres","up":"+Y","front":"+Z","lodScenes":[0,1,2]}}