{"asset":{"version":"2.0","generator":"SLOPMERICA Department of Unnecessary Development 1.0"},"scene":0,"scenes":[{"name":"LOD 0","nodes":[0,1,2,3,4,5,6,7,8,9,10,11,12,13,14,15,16,17,18,19,20,21,22,23,24,25,26],"extras":{"level":0}},{"name":"LOD 1","nodes":[27,28,29,30,31,32,33,34,35,36,37,38,39,40,41,42,43,44,45,46,47,48,49,50,51,52,53],"extras":{"level":1}},{"name":"LOD 2","nodes":[54,55,56,57,58,59,60,61,62,63,64,65,66,67,68,69,70],"extras":{"level":2}}],"nodes":[{"name":"surveyed lot","mesh":0,"translation":[0,0.06,0],"scale":[18.48,0.12,17.6]},{"name":"rental shell 0","mesh":1,"translation":[-6.3,1.7,1],"scale":[3.6,3.2,5.4]},{"name":"rental roof 0 right","mesh":2,"translation":[-0.975,3.803063,1],"rotation":[0,0,0.227978,0.973666],"scale":[2.176212,0.16,5.7]},{"name":"rental roof 0 left","mesh":2,"translation":[0.975,3.803063,1],"rotation":[0,0,-0.227978,0.973666],"scale":[2.176212,0.16,5.7]},{"name":"rental roof 0 end infill","mesh":3,"translation":[0,3.32,1]},{"name":"rental shell 1","mesh":1,"translation":[-2.1,1.7,1],"scale":[3.6,3.2,5.4]},{"name":"rental roof 1 left","mesh":2,"translation":[-0.975,3.803063,1],"rotation":[0,0,0.227978,0.973666],"scale":[2.176212,0.16,5.7]},{"name":"rental roof 1 right","mesh":2,"translation":[0.975,3.803063,1],"rotation":[0,0,-0.227978,0.973666],"scale":[2.176212,0.16,5.7]},{"name":"rental roof 1 end infill","mesh":3,"translation":[0,3.32,1]},{"name":"rental shell 2","mesh":1,"translation":[2.1,1.7,1],"scale":[3.6,3.2,5.4]},{"name":"rental roof 2 right","mesh":2,"translation":[-0.975,3.803063,1],"rotation":[0,0,0.227978,0.973666],"scale":[2.176212,0.16,5.7]},{"name":"rental roof 2 left","mesh":2,"translation":[0.975,3.803063,1],"rotation":[0,0,-0.227978,0.973666],"scale":[2.176212,0.16,5.7]},{"name":"rental roof 2 end infill","mesh":3,"translation":[0,3.32,1]},{"name":"rental shell 3","mesh":1,"translation":[6.3,1.7,1],"scale":[3.6,3.2,5.4]},{"name":"rental roof 3 left","mesh":2,"translation":[-0.975,3.803063,1],"rotation":[0,0,0.227978,0.973666],"scale":[2.176212,0.16,5.7]},{"name":"rental roof 3 right","mesh":2,"translation":[0.975,3.803063,1],"rotation":[0,0,-0.227978,0.973666],"scale":[2.176212,0.16,5.7]},{"name":"rental roof 3 end infill","mesh":3,"translation":[0,3.32,1]},{"name":"leasing wall","mesh":4,"translation":[0,1.8,7.2],"scale":[7.6,3.4,2]},{"name":"blackrack sign-back","mesh":5,"translation":[0,2.2,8.23],"scale":[5.9,1.6,1]},{"name":"blackrack sign","mesh":6,"translation":[0,2.2,8.259],"scale":[5.8,1.5,1]},{"name":"identical bin 0","mesh":7,"translation":[-7,0.5,4.5],"scale":[0.65,0.85,0.65]},{"name":"identical bin 1","mesh":7,"translation":[-4.8,0.5,4.5],"scale":[0.65,0.85,0.65]},{"name":"identical bin 2","mesh":7,"translation":[-2.6,0.5,4.5],"scale":[0.65,0.85,0.65]},{"name":"identical bin 3","mesh":7,"translation":[-0.4,0.5,4.5],"scale":[0.65,0.85,0.65]},{"name":"identical bin 4","mesh":7,"translation":[1.8,0.5,4.5],"scale":[0.65,0.85,0.65]},{"name":"identical bin 5","mesh":7,"translation":[4,0.5,4.5],"scale":[0.65,0.85,0.65]},{"name":"rent increase banner","mesh":8,"translation":[0,3.05,8.25],"scale":[6.6,0.9,0.08]},{"name":"surveyed lot","mesh":9,"translation":[0,0.06,0],"scale":[18.48,0.12,17.6]},{"name":"rental shell 0","mesh":10,"translation":[-6.3,1.7,1],"scale":[3.6,3.2,5.4]},{"name":"rental roof 0 right","mesh":11,"translation":[-0.975,3.803063,1],"rotation":[0,0,0.227978,0.973666],"scale":[2.176212,0.16,5.7]},{"name":"rental roof 0 left","mesh":11,"translation":[0.975,3.803063,1],"rotation":[0,0,-0.227978,0.973666],"scale":[2.176212,0.16,5.7]},{"name":"rental roof 0 end infill","mesh":3,"translation":[0,3.32,1]},{"name":"rental shell 1","mesh":10,"translation":[-2.1,1.7,1],"scale":[3.6,3.2,5.4]},{"name":"rental roof 1 left","mesh":11,"translation":[-0.975,3.803063,1],"rotation":[0,0,0.227978,0.973666],"scale":[2.176212,0.16,5.7]},{"name":"rental roof 1 right","mesh":11,"translation":[0.975,3.803063,1],"rotation":[0,0,-0.227978,0.973666],"scale":[2.176212,0.16,5.7]},{"name":"rental roof 1 end infill","mesh":3,"translation":[0,3.32,1]},{"name":"rental shell 2","mesh":10,"translation":[2.1,1.7,1],"scale":[3.6,3.2,5.4]},{"name":"rental roof 2 right","mesh":11,"translation":[-0.975,3.803063,1],"rotation":[0,0,0.227978,0.973666],"scale":[2.176212,0.16,5.7]},{"name":"rental roof 2 left","mesh":11,"translation":[0.975,3.803063,1],"rotation":[0,0,-0.227978,0.973666],"scale":[2.176212,0.16,5.7]},{"name":"rental roof 2 end infill","mesh":3,"translation":[0,3.32,1]},{"name":"rental shell 3","mesh":10,"translation":[6.3,1.7,1],"scale":[3.6,3.2,5.4]},{"name":"rental roof 3 left","mesh":11,"translation":[-0.975,3.803063,1],"rotation":[0,0,0.227978,0.973666],"scale":[2.176212,0.16,5.7]},{"name":"rental roof 3 right","mesh":11,"translation":[0.975,3.803063,1],"rotation":[0,0,-0.227978,0.973666],"scale":[2.176212,0.16,5.7]},{"name":"rental roof 3 end infill","mesh":3,"translation":[0,3.32,1]},{"name":"leasing wall","mesh":12,"translation":[0,1.8,7.2],"scale":[7.6,3.4,2]},{"name":"blackrack sign-back","mesh":5,"translation":[0,2.2,8.23],"scale":[5.9,1.6,1]},{"name":"blackrack sign","mesh":6,"translation":[0,2.2,8.259],"scale":[5.8,1.5,1]},{"name":"identical bin 0","mesh":13,"translation":[-7,0.5,4.5],"scale":[0.65,0.85,0.65]},{"name":"identical bin 1","mesh":13,"translation":[-4.8,0.5,4.5],"scale":[0.65,0.85,0.65]},{"name":"identical bin 2","mesh":13,"translation":[-2.6,0.5,4.5],"scale":[0.65,0.85,0.65]},{"name":"identical bin 3","mesh":13,"translation":[-0.4,0.5,4.5],"scale":[0.65,0.85,0.65]},{"name":"identical bin 4","mesh":13,"translation":[1.8,0.5,4.5],"scale":[0.65,0.85,0.65]},{"name":"identical bin 5","mesh":13,"translation":[4,0.5,4.5],"scale":[0.65,0.85,0.65]},{"name":"rent increase banner","mesh":14,"translation":[0,3.05,8.25],"scale":[6.6,0.9,0.08]},{"name":"surveyed lot","mesh":9,"translation":[0,0.06,0],"scale":[18.48,0.12,17.6]},{"name":"rental shell 0","mesh":10,"translation":[-4.2,1.7,1],"scale":[3.6,3.2,5.4]},{"name":"rental roof 0 right","mesh":11,"translation":[-0.975,3.803063,1],"rotation":[0,0,0.227978,0.973666],"scale":[2.176212,0.16,5.7]},{"name":"rental roof 0 left","mesh":11,"translation":[0.975,3.803063,1],"rotation":[0,0,-0.227978,0.973666],"scale":[2.176212,0.16,5.7]},{"name":"rental roof 0 end infill","mesh":3,"translation":[0,3.32,1]},{"name":"rental shell 1","mesh":10,"translation":[0,1.7,1],"scale":[3.6,3.2,5.4]},{"name":"rental roof 1 left","mesh":11,"translation":[-0.975,3.803063,1],"rotation":[0,0,0.227978,0.973666],"scale":[2.176212,0.16,5.7]},{"name":"rental roof 1 right","mesh":11,"translation":[0.975,3.803063,1],"rotation":[0,0,-0.227978,0.973666],"scale":[2.176212,0.16,5.7]},{"name":"rental roof 1 end infill","mesh":3,"translation":[0,3.32,1]},{"name":"rental shell 2","mesh":10,"translation":[4.2,1.7,1],"scale":[3.6,3.2,5.4]},{"name":"rental roof 2 right","mesh":11,"translation":[-0.975,3.803063,1],"rotation":[0,0,0.227978,0.973666],"scale":[2.176212,0.16,5.7]},{"name":"rental roof 2 left","mesh":11,"translation":[0.975,3.803063,1],"rotation":[0,0,-0.227978,0.973666],"scale":[2.176212,0.16,5.7]},{"name":"rental roof 2 end infill","mesh":3,"translation":[0,3.32,1]},{"name":"leasing wall","mesh":12,"translation":[0,1.8,7.2],"scale":[7.6,3.4,2]},{"name":"blackrack sign-back","mesh":5,"translation":[0,2.2,8.23],"scale":[5.9,1.6,1]},{"name":"blackrack sign","mesh":6,"translation":[0,2.2,8.259],"scale":[5.8,1.5,1]},{"name":"rent increase banner","mesh":14,"translation":[0,3.05,8.25],"scale":[6.6,0.9,0.08]}],"meshes":[{"primitives":[{"attributes":{"POSITION":0,"NORMAL":1,"TEXCOORD_0":2},"material":0,"mode":4}]},{"primitives":[{"attributes":{"POSITION":3,"NORMAL":1,"TEXCOORD_0":4},"material":1,"mode":4}]},{"primitives":[{"attributes":{"POSITION":0,"NORMAL":1,"TEXCOORD_0":5},"material":2,"mode":4}]},{"primitives":[{"attributes":{"POSITION":6,"NORMAL":7,"TEXCOORD_0":8},"material":1,"mode":4}]},{"primitives":[{"attributes":{"POSITION":0,"NORMAL":1,"TEXCOORD_0":9},"material":3,"mode":4}]},{"primitives":[{"attributes":{"POSITION":10,"NORMAL":11,"TEXCOORD_0":12},"material":4,"mode":4,"indices":13}]},{"primitives":[{"attributes":{"POSITION":14,"NORMAL":15,"TEXCOORD_0":16},"material":5,"mode":4,"indices":17}]},{"primitives":[{"attributes":{"POSITION":0,"NORMAL":1,"TEXCOORD_0":18},"material":4,"mode":4}]},{"primitives":[{"attributes":{"POSITION":0,"NORMAL":1,"TEXCOORD_0":19},"material":6,"mode":4}]},{"primitives":[{"attributes":{"POSITION":20,"NORMAL":11,"TEXCOORD_0":21},"material":0,"mode":4,"indices":13}]},{"primitives":[{"attributes":{"POSITION":20,"NORMAL":11,"TEXCOORD_0":22},"material":1,"mode":4,"indices":13}]},{"primitives":[{"attributes":{"POSITION":20,"NORMAL":11,"TEXCOORD_0":23},"material":2,"mode":4,"indices":13}]},{"primitives":[{"attributes":{"POSITION":20,"NORMAL":11,"TEXCOORD_0":24},"material":3,"mode":4,"indices":13}]},{"primitives":[{"attributes":{"POSITION":20,"NORMAL":11,"TEXCOORD_0":25},"material":4,"mode":4,"indices":13}]},{"primitives":[{"attributes":{"POSITION":20,"NORMAL":11,"TEXCOORD_0":26},"material":6,"mode":4,"indices":13}]}],"materials":[{"name":"concrete","pbrMetallicRoughness":{"baseColorTexture":{"index":0},"metallicRoughnessTexture":{"index":2},"roughnessFactor":1,"metallicFactor":1},"normalTexture":{"index":1,"scale":0.82},"occlusionTexture":{"index":2,"strength":0.35}},{"name":"stucco-ivory","pbrMetallicRoughness":{"baseColorTexture":{"index":3},"metallicRoughnessTexture":{"index":5},"roughnessFactor":1,"metallicFactor":1},"normalTexture":{"index":4,"scale":0.5},"occlusionTexture":{"index":5,"strength":0.35}},{"name":"roof-shingle","pbrMetallicRoughness":{"baseColorTexture":{"index":6},"metallicRoughnessTexture":{"index":8},"roughnessFactor":1,"metallicFactor":1},"normalTexture":{"index":7,"scale":0.78},"occlusionTexture":{"index":8,"strength":0.35}},{"name":"paint-teal","pbrMetallicRoughness":{"baseColorFactor":[0.040915196900556984,0.20507873637973145,0.1878207722902346,1],"roughnessFactor":0.59,"metallicFactor":0.05}},{"name":"metal-dark","pbrMetallicRoughness":{"baseColorTexture":{"index":9},"metallicRoughnessTexture":{"index":11},"roughnessFactor":1,"metallicFactor":1},"normalTexture":{"index":10,"scale":0.35},"occlusionTexture":{"index":11,"strength":0.35}},{"name":"blackrack-rentals signage","pbrMetallicRoughness":{"baseColorTexture":{"index":12},"roughnessFactor":1,"metallicFactor":0},"extensions":{"KHR_materials_unlit":{}}},{"name":"paint-red","pbrMetallicRoughness":{"baseColorFactor":[0.46778379610254284,0.08021982030622662,0.05126945836711539,1],"roughnessFactor":0.62,"metallicFactor":0.05}}],"textures":[{"source":0,"sampler":0},{"source":1,"sampler":0},{"source":2,"sampler":0},{"source":3,"sampler":0},{"source":4,"sampler":0},{"source":5,"sampler":0},{"source":6,"sampler":0},{"source":7,"sampler":0},{"source":8,"sampler":0},{"source":9,"sampler":0},{"source":10,"sampler":0},{"source":11,"sampler":0},{"source":12,"sampler":0}],"images":[{"uri":"../textures/concrete-albedo.png"},{"uri":"../textures/concrete-normal.png"},{"uri":"../textures/concrete-orm.png"},{"uri":"../textures/stucco-ivory-albedo.png"},{"uri":"../textures/stucco-ivory-normal.png"},{"uri":"../textures/stucco-ivory-orm.png"},{"uri":"../textures/roof-shingle-albedo.png"},{"uri":"../textures/roof-shingle-normal.png"},{"uri":"../textures/roof-shingle-orm.png"},{"uri":"../textures/metal-dark-albedo.png"},{"uri":"../textures/metal-dark-normal.png"},{"uri":"../textures/metal-dark-orm.png"},{"uri":"../signs/blackrack-rentals.png"}],"samplers":[{"magFilter":9729,"minFilter":9987,"wrapS":10497,"wrapT":10497}],"buffers":[{"uri":"../shared/geometry.bin","byteLength":16435520}],"bufferViews":[{"buffer":0,"byteOffset":0,"byteLength":3888,"target":34962},{"buffer":0,"byteOffset":3888,"byteLength":3888,"target":34962},{"buffer":0,"byteOffset":640080,"byteLength":2592,"target":34962},{"buffer":0,"byteOffset":599616,"byteLength":3888,"target":34962},{"buffer":0,"byteOffset":603504,"byteLength":2592,"target":34962},{"buffer":0,"byteOffset":606096,"byteLength":2592,"target":34962},{"buffer":0,"byteOffset":608688,"byteLength":72,"target":34962},{"buffer":0,"byteOffset":608760,"byteLength":72,"target":34962},{"buffer":0,"byteOffset":608832,"byteLength":48,"target":34962},{"buffer":0,"byteOffset":608880,"byteLength":2592,"target":34962},{"buffer":0,"byteOffset":45664,"byteLength":288,"target":34962},{"buffer":0,"byteOffset":45952,"byteLength":288,"target":34962},{"buffer":0,"byteOffset":46240,"byteLength":192,"target":34962},{"buffer":0,"byteOffset":46432,"byteLength":72,"target":34963},{"buffer":0,"byteOffset":46504,"byteLength":48,"target":34962},{"buffer":0,"byteOffset":46552,"byteLength":48,"target":34962},{"buffer":0,"byteOffset":222692,"byteLength":32,"target":34962},{"buffer":0,"byteOffset":46632,"byteLength":12,"target":34963},{"buffer":0,"byteOffset":611472,"byteLength":2592,"target":34962},{"buffer":0,"byteOffset":667920,"byteLength":2592,"target":34962},{"buffer":0,"byteOffset":46644,"byteLength":288,"target":34962},{"buffer":0,"byteOffset":642672,"byteLength":192,"target":34962},{"buffer":0,"byteOffset":614256,"byteLength":192,"target":34962},{"buffer":0,"byteOffset":614448,"byteLength":192,"target":34962},{"buffer":0,"byteOffset":614640,"byteLength":192,"target":34962},{"buffer":0,"byteOffset":614832,"byteLength":192,"target":34962},{"buffer":0,"byteOffset":670512,"byteLength":192,"target":34962}],"accessors":[{"bufferView":0,"componentType":5126,"count":324,"type":"VEC3","min":[-0.5,-0.5,-0.5],"max":[0.5,0.5,0.5]},{"bufferView":1,"componentType":5126,"count":324,"type":"VEC3"},{"bufferView":2,"componentType":5126,"count":324,"type":"VEC2"},{"bufferView":3,"componentType":5126,"count":324,"type":"VEC3","min":[-0.5,-0.5,-0.5],"max":[0.5,0.5,0.5]},{"bufferView":4,"componentType":5126,"count":324,"type":"VEC2"},{"bufferView":5,"componentType":5126,"count":324,"type":"VEC2"},{"bufferView":6,"componentType":5126,"count":6,"type":"VEC3","min":[-1.9500000476837158,0,-2.8350000381469727],"max":[1.9500000476837158,0.9661250710487366,2.8350000381469727]},{"bufferView":7,"componentType":5126,"count":6,"type":"VEC3"},{"bufferView":8,"componentType":5126,"count":6,"type":"VEC2"},{"bufferView":9,"componentType":5126,"count":324,"type":"VEC2"},{"bufferView":10,"componentType":5126,"count":24,"type":"VEC3","min":[-0.5,-0.5,-0.02500000037252903],"max":[0.5,0.5,0.02500000037252903]},{"bufferView":11,"componentType":5126,"count":24,"type":"VEC3"},{"bufferView":12,"componentType":5126,"count":24,"type":"VEC2"},{"bufferView":13,"componentType":5123,"count":36,"type":"SCALAR"},{"bufferView":14,"componentType":5126,"count":4,"type":"VEC3","min":[-0.5,-0.5,0],"max":[0.5,0.5,0]},{"bufferView":15,"componentType":5126,"count":4,"type":"VEC3"},{"bufferView":16,"componentType":5126,"count":4,"type":"VEC2"},{"bufferView":17,"componentType":5123,"count":6,"type":"SCALAR"},{"bufferView":18,"componentType":5126,"count":324,"type":"VEC2"},{"bufferView":19,"componentType":5126,"count":324,"type":"VEC2"},{"bufferView":20,"componentType":5126,"count":24,"type":"VEC3","min":[-0.5,-0.5,-0.5],"max":[0.5,0.5,0.5]},{"bufferView":21,"componentType":5126,"count":24,"type":"VEC2"},{"bufferView":22,"componentType":5126,"count":24,"type":"VEC2"},{"bufferView":23,"componentType":5126,"count":24,"type":"VEC2"},{"bufferView":24,"componentType":5126,"count":24,"type":"VEC2"},{"bufferView":25,"componentType":5126,"count":24,"type":"VEC2"},{"bufferView":26,"componentType":5126,"count":24,"type":"VEC2"}],"extensionsUsed":["KHR_materials_unlit"],"extras":{"id":"vlt-blackrack-rentals-31","family":"blackrack-rentals","variant":30,"plan":"C1-2","units":"metres","up":"+Y","front":"+Z","lodScenes":[0,1,2]}}