{"asset":{"version":"2.0","generator":"SLOPMERICA Department of Unnecessary Development 1.0"},"scene":0,"scenes":[{"name":"LOD 0","nodes":[0,1,2,3,4,5,6,7,8,9,10,11,12,13,14],"extras":{"level":0}},{"name":"LOD 1","nodes":[15,16,17,18,19,20,21,22,23,24,25,26,27,28,29],"extras":{"level":1}},{"name":"LOD 2","nodes":[30,31,32,33,34,35,36],"extras":{"level":2}}],"nodes":[{"name":"surveyed lot","mesh":0,"translation":[0,0.06,0],"scale":[19.776,0.12,17.472]},{"name":"detention basin","mesh":1,"translation":[0,0.345,0],"scale":[7.8,0.345,6.6]},{"name":"concrete lip","mesh":2,"translation":[0,0.3,0],"rotation":[0.707107,0,0,0.707107]},{"name":"lakefront billboard posts","mesh":3,"translation":[-2.2,1.45,8.4],"scale":[0.2,2.8,0.2]},{"name":"lakefront billboard posts 2","mesh":3,"translation":[2.2,1.45,8.4],"scale":[0.2,2.8,0.2]},{"name":"lake serenity advertisement-back","mesh":4,"translation":[0,2.85,8.4],"scale":[6.4,2.3,1]},{"name":"lake serenity advertisement","mesh":5,"translation":[0,2.85,8.429],"scale":[6.3,2.2,1]},{"name":"storm drain 0","mesh":6,"translation":[-6.8,0.45,0],"rotation":[0.707107,0,0,0.707107],"scale":[0.42,1.2,0.42]},{"name":"storm drain 1","mesh":6,"translation":[-5.7,0.45,0],"rotation":[0.707107,0,0,0.707107],"scale":[0.42,1.2,0.42]},{"name":"storm drain 2","mesh":6,"translation":[-4.6,0.45,0],"rotation":[0.707107,0,0,0.707107],"scale":[0.42,1.2,0.42]},{"name":"storm drain 3","mesh":6,"translation":[-3.5,0.45,0],"rotation":[0.707107,0,0,0.707107],"scale":[0.42,1.2,0.42]},{"name":"algae 0","mesh":7,"translation":[-2.5,0.43,-0.8],"scale":[0.7,0.08,0.45]},{"name":"algae 1","mesh":8,"translation":[-1.4,0.43,0.2],"scale":[0.78,0.08,0.45]},{"name":"algae 2","mesh":9,"translation":[-0.3,0.43,-0.8],"scale":[0.86,0.08,0.45]},{"name":"algae 3","mesh":10,"translation":[0.8,0.43,0.2],"scale":[0.94,0.08,0.45]},{"name":"surveyed lot","mesh":11,"translation":[0,0.06,0],"scale":[19.776,0.12,17.472]},{"name":"detention basin","mesh":12,"translation":[0,0.345,0],"scale":[7.8,0.345,6.6]},{"name":"concrete lip","mesh":13,"translation":[0,0.3,0],"rotation":[0.707107,0,0,0.707107]},{"name":"lakefront billboard posts","mesh":14,"translation":[-2.2,1.45,8.4],"scale":[0.2,2.8,0.2]},{"name":"lakefront billboard posts 2","mesh":14,"translation":[2.2,1.45,8.4],"scale":[0.2,2.8,0.2]},{"name":"lake serenity advertisement-back","mesh":4,"translation":[0,2.85,8.4],"scale":[6.4,2.3,1]},{"name":"lake serenity advertisement","mesh":5,"translation":[0,2.85,8.429],"scale":[6.3,2.2,1]},{"name":"storm drain 0","mesh":15,"translation":[-6.8,0.45,0],"rotation":[0.707107,0,0,0.707107],"scale":[0.42,1.2,0.42]},{"name":"storm drain 1","mesh":15,"translation":[-5.7,0.45,0],"rotation":[0.707107,0,0,0.707107],"scale":[0.42,1.2,0.42]},{"name":"storm drain 2","mesh":15,"translation":[-4.6,0.45,0],"rotation":[0.707107,0,0,0.707107],"scale":[0.42,1.2,0.42]},{"name":"storm drain 3","mesh":15,"translation":[-3.5,0.45,0],"rotation":[0.707107,0,0,0.707107],"scale":[0.42,1.2,0.42]},{"name":"algae 0","mesh":16,"translation":[-2.5,0.43,-0.8],"scale":[0.7,0.08,0.45]},{"name":"algae 1","mesh":17,"translation":[-1.4,0.43,0.2],"scale":[0.78,0.08,0.45]},{"name":"algae 2","mesh":18,"translation":[-0.3,0.43,-0.8],"scale":[0.86,0.08,0.45]},{"name":"algae 3","mesh":19,"translation":[0.8,0.43,0.2],"scale":[0.94,0.08,0.45]},{"name":"surveyed lot","mesh":11,"translation":[0,0.06,0],"scale":[19.776,0.12,17.472]},{"name":"detention basin","mesh":20,"translation":[0,0.345,0],"scale":[7.8,0.345,6.6]},{"name":"concrete lip","mesh":21,"translation":[0,0.3,0],"rotation":[0.707107,0,0,0.707107]},{"name":"lakefront billboard posts","mesh":14,"translation":[-2.2,1.45,8.4],"scale":[0.2,2.8,0.2]},{"name":"lakefront billboard posts 2","mesh":14,"translation":[2.2,1.45,8.4],"scale":[0.2,2.8,0.2]},{"name":"lake serenity advertisement-back","mesh":4,"translation":[0,2.85,8.4],"scale":[6.4,2.3,1]},{"name":"lake serenity advertisement","mesh":5,"translation":[0,2.85,8.429],"scale":[6.3,2.2,1]}],"meshes":[{"primitives":[{"attributes":{"POSITION":0,"NORMAL":1,"TEXCOORD_0":2},"material":0,"mode":4}]},{"primitives":[{"attributes":{"POSITION":3,"NORMAL":3,"TEXCOORD_0":4},"material":1,"mode":4,"indices":5}]},{"primitives":[{"attributes":{"POSITION":6,"NORMAL":7,"TEXCOORD_0":8},"material":0,"mode":4,"indices":9}]},{"primitives":[{"attributes":{"POSITION":0,"NORMAL":1,"TEXCOORD_0":10},"material":2,"mode":4}]},{"primitives":[{"attributes":{"POSITION":11,"NORMAL":12,"TEXCOORD_0":13},"material":3,"mode":4,"indices":14}]},{"primitives":[{"attributes":{"POSITION":15,"NORMAL":16,"TEXCOORD_0":17},"material":4,"mode":4,"indices":18}]},{"primitives":[{"attributes":{"POSITION":19,"NORMAL":20,"TEXCOORD_0":21},"material":0,"mode":4,"indices":22}]},{"primitives":[{"attributes":{"POSITION":3,"NORMAL":3,"TEXCOORD_0":23},"material":5,"mode":4,"indices":5}]},{"primitives":[{"attributes":{"POSITION":3,"NORMAL":3,"TEXCOORD_0":24},"material":5,"mode":4,"indices":5}]},{"primitives":[{"attributes":{"POSITION":3,"NORMAL":3,"TEXCOORD_0":25},"material":5,"mode":4,"indices":5}]},{"primitives":[{"attributes":{"POSITION":3,"NORMAL":3,"TEXCOORD_0":26},"material":5,"mode":4,"indices":5}]},{"primitives":[{"attributes":{"POSITION":27,"NORMAL":12,"TEXCOORD_0":28},"material":0,"mode":4,"indices":14}]},{"primitives":[{"attributes":{"POSITION":29,"NORMAL":29,"TEXCOORD_0":30},"material":1,"mode":4,"indices":31}]},{"primitives":[{"attributes":{"POSITION":32,"NORMAL":33,"TEXCOORD_0":34},"material":0,"mode":4,"indices":35}]},{"primitives":[{"attributes":{"POSITION":27,"NORMAL":12,"TEXCOORD_0":36},"material":2,"mode":4,"indices":14}]},{"primitives":[{"attributes":{"POSITION":37,"NORMAL":38,"TEXCOORD_0":39},"material":0,"mode":4,"indices":40}]},{"primitives":[{"attributes":{"POSITION":29,"NORMAL":29,"TEXCOORD_0":41},"material":5,"mode":4,"indices":31}]},{"primitives":[{"attributes":{"POSITION":29,"NORMAL":29,"TEXCOORD_0":42},"material":5,"mode":4,"indices":31}]},{"primitives":[{"attributes":{"POSITION":29,"NORMAL":29,"TEXCOORD_0":43},"material":5,"mode":4,"indices":31}]},{"primitives":[{"attributes":{"POSITION":29,"NORMAL":29,"TEXCOORD_0":44},"material":5,"mode":4,"indices":31}]},{"primitives":[{"attributes":{"POSITION":45,"NORMAL":45,"TEXCOORD_0":46},"material":1,"mode":4,"indices":47}]},{"primitives":[{"attributes":{"POSITION":48,"NORMAL":49,"TEXCOORD_0":50},"material":0,"mode":4,"indices":51}]}],"materials":[{"name":"concrete","pbrMetallicRoughness":{"baseColorTexture":{"index":0},"metallicRoughnessTexture":{"index":2},"roughnessFactor":1,"metallicFactor":1},"normalTexture":{"index":1,"scale":0.82},"occlusionTexture":{"index":2,"strength":0.35}},{"name":"soil","pbrMetallicRoughness":{"baseColorTexture":{"index":3},"metallicRoughnessTexture":{"index":5},"roughnessFactor":1,"metallicFactor":1},"normalTexture":{"index":4,"scale":0.8},"occlusionTexture":{"index":5,"strength":0.35}},{"name":"wood-oak","pbrMetallicRoughness":{"baseColorTexture":{"index":6},"metallicRoughnessTexture":{"index":8},"roughnessFactor":1,"metallicFactor":1},"normalTexture":{"index":7,"scale":1},"occlusionTexture":{"index":8,"strength":0.35}},{"name":"metal-dark","pbrMetallicRoughness":{"baseColorTexture":{"index":9},"metallicRoughnessTexture":{"index":11},"roughnessFactor":1,"metallicFactor":1},"normalTexture":{"index":10,"scale":0.35},"occlusionTexture":{"index":11,"strength":0.35}},{"name":"lake-serenity-pond signage","pbrMetallicRoughness":{"baseColorTexture":{"index":12},"roughnessFactor":1,"metallicFactor":0},"extensions":{"KHR_materials_unlit":{}}},{"name":"foliage","pbrMetallicRoughness":{"baseColorTexture":{"index":13},"metallicRoughnessTexture":{"index":15},"roughnessFactor":1,"metallicFactor":1},"normalTexture":{"index":14,"scale":0.88},"occlusionTexture":{"index":15,"strength":0.35}}],"textures":[{"source":0,"sampler":0},{"source":1,"sampler":0},{"source":2,"sampler":0},{"source":3,"sampler":0},{"source":4,"sampler":0},{"source":5,"sampler":0},{"source":6,"sampler":0},{"source":7,"sampler":0},{"source":8,"sampler":0},{"source":9,"sampler":0},{"source":10,"sampler":0},{"source":11,"sampler":0},{"source":12,"sampler":0},{"source":13,"sampler":0},{"source":14,"sampler":0},{"source":15,"sampler":0}],"images":[{"uri":"../textures/concrete-albedo.png"},{"uri":"../textures/concrete-normal.png"},{"uri":"../textures/concrete-orm.png"},{"uri":"../textures/soil-albedo.png"},{"uri":"../textures/soil-normal.png"},{"uri":"../textures/soil-orm.png"},{"uri":"../textures/wood-oak-albedo.png"},{"uri":"../textures/wood-oak-normal.png"},{"uri":"../textures/wood-oak-orm.png"},{"uri":"../textures/metal-dark-albedo.png"},{"uri":"../textures/metal-dark-normal.png"},{"uri":"../textures/metal-dark-orm.png"},{"uri":"../signs/lake-serenity-pond.png"},{"uri":"../textures/foliage-albedo.png"},{"uri":"../textures/foliage-normal.png"},{"uri":"../textures/foliage-orm.png"}],"samplers":[{"magFilter":9729,"minFilter":9987,"wrapS":10497,"wrapT":10497}],"buffers":[{"uri":"../shared/geometry.bin","byteLength":16435520}],"bufferViews":[{"buffer":0,"byteOffset":0,"byteLength":3888,"target":34962},{"buffer":0,"byteOffset":3888,"byteLength":3888,"target":34962},{"buffer":0,"byteOffset":7050672,"byteLength":2592,"target":34962},{"buffer":0,"byteOffset":6080864,"byteLength":3276,"target":34962},{"buffer":0,"byteOffset":7175568,"byteLength":2184,"target":34962},{"buffer":0,"byteOffset":6086324,"byteLength":2640,"target":34963},{"buffer":0,"byteOffset":7055448,"byteLength":3132,"target":34962},{"buffer":0,"byteOffset":390704,"byteLength":3132,"target":34962},{"buffer":0,"byteOffset":6862228,"byteLength":2088,"target":34962},{"buffer":0,"byteOffset":395924,"byteLength":2688,"target":34963},{"buffer":0,"byteOffset":6864316,"byteLength":2592,"target":34962},{"buffer":0,"byteOffset":45664,"byteLength":288,"target":34962},{"buffer":0,"byteOffset":45952,"byteLength":288,"target":34962},{"buffer":0,"byteOffset":46240,"byteLength":192,"target":34962},{"buffer":0,"byteOffset":46432,"byteLength":72,"target":34963},{"buffer":0,"byteOffset":46504,"byteLength":48,"target":34962},{"buffer":0,"byteOffset":46552,"byteLength":48,"target":34962},{"buffer":0,"byteOffset":222884,"byteLength":32,"target":34962},{"buffer":0,"byteOffset":46632,"byteLength":12,"target":34963},{"buffer":0,"byteOffset":6678356,"byteLength":768,"target":34962},{"buffer":0,"byteOffset":6679124,"byteLength":768,"target":34962},{"buffer":0,"byteOffset":6881912,"byteLength":512,"target":34962},{"buffer":0,"byteOffset":882248,"byteLength":240,"target":34963},{"buffer":0,"byteOffset":7099080,"byteLength":2184,"target":34962},{"buffer":0,"byteOffset":7101264,"byteLength":2184,"target":34962},{"buffer":0,"byteOffset":7103448,"byteLength":2184,"target":34962},{"buffer":0,"byteOffset":7111992,"byteLength":2184,"target":34962},{"buffer":0,"byteOffset":46644,"byteLength":288,"target":34962},{"buffer":0,"byteOffset":7058580,"byteLength":192,"target":34962},{"buffer":0,"byteOffset":6096692,"byteLength":1404,"target":34962},{"buffer":0,"byteOffset":7177752,"byteLength":936,"target":34962},{"buffer":0,"byteOffset":6099032,"byteLength":1008,"target":34963},{"buffer":0,"byteOffset":7059708,"byteLength":1428,"target":34962},{"buffer":0,"byteOffset":427996,"byteLength":1428,"target":34962},{"buffer":0,"byteOffset":6869976,"byteLength":952,"target":34962},{"buffer":0,"byteOffset":430376,"byteLength":1152,"target":34963},{"buffer":0,"byteOffset":6870928,"byteLength":192,"target":34962},{"buffer":0,"byteOffset":1112312,"byteLength":480,"target":34962},{"buffer":0,"byteOffset":1112792,"byteLength":480,"target":34962},{"buffer":0,"byteOffset":6884980,"byteLength":320,"target":34962},{"buffer":0,"byteOffset":48596,"byteLength":144,"target":34963},{"buffer":0,"byteOffset":7106568,"byteLength":936,"target":34962},{"buffer":0,"byteOffset":7107504,"byteLength":936,"target":34962},{"buffer":0,"byteOffset":7108440,"byteLength":936,"target":34962},{"buffer":0,"byteOffset":7115112,"byteLength":936,"target":34962},{"buffer":0,"byteOffset":6871440,"byteLength":648,"target":34962},{"buffer":0,"byteOffset":7178688,"byteLength":432,"target":34962},{"buffer":0,"byteOffset":6872520,"byteLength":384,"target":34963},{"buffer":0,"byteOffset":7061568,"byteLength":660,"target":34962},{"buffer":0,"byteOffset":437788,"byteLength":660,"target":34962},{"buffer":0,"byteOffset":6873564,"byteLength":440,"target":34962},{"buffer":0,"byteOffset":438888,"byteLength":480,"target":34963}],"accessors":[{"bufferView":0,"componentType":5126,"count":324,"type":"VEC3","min":[-0.5,-0.5,-0.5],"max":[0.5,0.5,0.5]},{"bufferView":1,"componentType":5126,"count":324,"type":"VEC3"},{"bufferView":2,"componentType":5126,"count":324,"type":"VEC2"},{"bufferView":3,"componentType":5126,"count":273,"type":"VEC3","min":[-1,-1,-1],"max":[1,1,1]},{"bufferView":4,"componentType":5126,"count":273,"type":"VEC2"},{"bufferView":5,"componentType":5123,"count":1320,"type":"SCALAR"},{"bufferView":6,"componentType":5126,"count":261,"type":"VEC3","min":[-7.449999809265137,-7.449999809265137,-0.25],"max":[7.449999809265137,7.449999809265137,0.25]},{"bufferView":7,"componentType":5126,"count":261,"type":"VEC3"},{"bufferView":8,"componentType":5126,"count":261,"type":"VEC2"},{"bufferView":9,"componentType":5123,"count":1344,"type":"SCALAR"},{"bufferView":10,"componentType":5126,"count":324,"type":"VEC2"},{"bufferView":11,"componentType":5126,"count":24,"type":"VEC3","min":[-0.5,-0.5,-0.02500000037252903],"max":[0.5,0.5,0.02500000037252903]},{"bufferView":12,"componentType":5126,"count":24,"type":"VEC3"},{"bufferView":13,"componentType":5126,"count":24,"type":"VEC2"},{"bufferView":14,"componentType":5123,"count":36,"type":"SCALAR"},{"bufferView":15,"componentType":5126,"count":4,"type":"VEC3","min":[-0.5,-0.5,0],"max":[0.5,0.5,0]},{"bufferView":16,"componentType":5126,"count":4,"type":"VEC3"},{"bufferView":17,"componentType":5126,"count":4,"type":"VEC2"},{"bufferView":18,"componentType":5123,"count":6,"type":"SCALAR"},{"bufferView":19,"componentType":5126,"count":64,"type":"VEC3","min":[-0.9510565400123596,-0.5,-1],"max":[0.9510565400123596,0.5,1]},{"bufferView":20,"componentType":5126,"count":64,"type":"VEC3"},{"bufferView":21,"componentType":5126,"count":64,"type":"VEC2"},{"bufferView":22,"componentType":5123,"count":120,"type":"SCALAR"},{"bufferView":23,"componentType":5126,"count":273,"type":"VEC2"},{"bufferView":24,"componentType":5126,"count":273,"type":"VEC2"},{"bufferView":25,"componentType":5126,"count":273,"type":"VEC2"},{"bufferView":26,"componentType":5126,"count":273,"type":"VEC2"},{"bufferView":27,"componentType":5126,"count":24,"type":"VEC3","min":[-0.5,-0.5,-0.5],"max":[0.5,0.5,0.5]},{"bufferView":28,"componentType":5126,"count":24,"type":"VEC2"},{"bufferView":29,"componentType":5126,"count":117,"type":"VEC3","min":[-1,-1,-1],"max":[1,1,1]},{"bufferView":30,"componentType":5126,"count":117,"type":"VEC2"},{"bufferView":31,"componentType":5123,"count":504,"type":"SCALAR"},{"bufferView":32,"componentType":5126,"count":119,"type":"VEC3","min":[-7.449999809265137,-7.449999809265137,-0.21650634706020355],"max":[7.449999809265137,7.449999809265137,0.21650634706020355]},{"bufferView":33,"componentType":5126,"count":119,"type":"VEC3"},{"bufferView":34,"componentType":5126,"count":119,"type":"VEC2"},{"bufferView":35,"componentType":5123,"count":576,"type":"SCALAR"},{"bufferView":36,"componentType":5126,"count":24,"type":"VEC2"},{"bufferView":37,"componentType":5126,"count":40,"type":"VEC3","min":[-0.8660253882408142,-0.5,-1],"max":[0.8660253882408142,0.5,1]},{"bufferView":38,"componentType":5126,"count":40,"type":"VEC3"},{"bufferView":39,"componentType":5126,"count":40,"type":"VEC2"},{"bufferView":40,"componentType":5123,"count":72,"type":"SCALAR"},{"bufferView":41,"componentType":5126,"count":117,"type":"VEC2"},{"bufferView":42,"componentType":5126,"count":117,"type":"VEC2"},{"bufferView":43,"componentType":5126,"count":117,"type":"VEC2"},{"bufferView":44,"componentType":5126,"count":117,"type":"VEC2"},{"bufferView":45,"componentType":5126,"count":54,"type":"VEC3","min":[-0.9510565400123596,-1,-0.9510565400123596],"max":[0.9510565400123596,1,0.9510565400123596]},{"bufferView":46,"componentType":5126,"count":54,"type":"VEC2"},{"bufferView":47,"componentType":5123,"count":192,"type":"SCALAR"},{"bufferView":48,"componentType":5126,"count":55,"type":"VEC3","min":[-7.449999809265137,-7.085371017456055,-0.25],"max":[7.449999809265137,7.085371017456055,0.25]},{"bufferView":49,"componentType":5126,"count":55,"type":"VEC3"},{"bufferView":50,"componentType":5126,"count":55,"type":"VEC2"},{"bufferView":51,"componentType":5123,"count":240,"type":"SCALAR"}],"extensionsUsed":["KHR_materials_unlit"],"extras":{"id":"vlt-lake-serenity-pond-37","family":"lake-serenity-pond","variant":36,"plan":"D2-2","units":"metres","up":"+Y","front":"+Z","lodScenes":[0,1,2]}}