{"asset":{"version":"2.0","generator":"SLOPMERICA Department of Unnecessary Development 1.0"},"scene":0,"scenes":[{"name":"LOD 0","nodes":[0,1,2,3,4,5,6,7,8,9],"extras":{"level":0}},{"name":"LOD 1","nodes":[10,11,12,13,14,15,16,17,18,19],"extras":{"level":1}},{"name":"LOD 2","nodes":[20,21,22,23,24,25,26,27],"extras":{"level":2}}],"nodes":[{"name":"surveyed lot","mesh":0,"translation":[0,0.06,0],"scale":[9.6,0.12,9.6]},{"name":"fiberglass boots","mesh":1,"translation":[0,1.6405,0],"scale":[2.8,3.281,1.7]},{"name":"fiberglass torso","mesh":2,"translation":[0,5.1145,0],"scale":[3.5,3.667,2]},{"name":"giant head","mesh":3,"translation":[0,7.913,0],"scale":[1.175,1.3,1.08]},{"name":"hard hat","mesh":4,"translation":[0,9.264,0],"scale":[1.22,0.65,1.22]},{"name":"left giant arm","mesh":5,"translation":[0,0,0]},{"name":"right giant arm","mesh":6,"translation":[0,0,0]},{"name":"held muffler","mesh":7,"translation":[3.8,7.334,1],"rotation":[-0.060961,-0.066044,0.675519,0.731844],"scale":[0.42,4.8,0.42]},{"name":"muffler man plaque-back","mesh":8,"translation":[0,1.3,3.2],"scale":[4.1,1.3,1]},{"name":"muffler man plaque","mesh":9,"translation":[0,1.3,3.229],"scale":[4,1.2,1]},{"name":"surveyed lot","mesh":10,"translation":[0,0.06,0],"scale":[9.6,0.12,9.6]},{"name":"fiberglass boots","mesh":11,"translation":[0,1.6405,0],"scale":[2.8,3.281,1.7]},{"name":"fiberglass torso","mesh":12,"translation":[0,5.1145,0],"scale":[3.5,3.667,2]},{"name":"giant head","mesh":13,"translation":[0,7.913,0],"scale":[1.175,1.3,1.08]},{"name":"hard hat","mesh":14,"translation":[0,9.264,0],"scale":[1.22,0.65,1.22]},{"name":"left giant arm","mesh":15,"translation":[0,0,0]},{"name":"right giant arm","mesh":16,"translation":[0,0,0]},{"name":"held muffler","mesh":17,"translation":[3.8,7.334,1],"rotation":[-0.060961,-0.066044,0.675519,0.731844],"scale":[0.42,4.8,0.42]},{"name":"muffler man plaque-back","mesh":8,"translation":[0,1.3,3.2],"scale":[4.1,1.3,1]},{"name":"muffler man plaque","mesh":9,"translation":[0,1.3,3.229],"scale":[4,1.2,1]},{"name":"surveyed lot","mesh":10,"translation":[0,0.06,0],"scale":[9.6,0.12,9.6]},{"name":"fiberglass boots","mesh":11,"translation":[0,1.6405,0],"scale":[2.8,3.281,1.7]},{"name":"fiberglass torso","mesh":12,"translation":[0,5.1145,0],"scale":[3.5,3.667,2]},{"name":"giant head","mesh":18,"translation":[0,7.913,0],"scale":[1.175,1.3,1.08]},{"name":"hard hat","mesh":14,"translation":[0,9.264,0],"scale":[1.22,0.65,1.22]},{"name":"left giant arm","mesh":19,"translation":[0,0,0]},{"name":"right giant arm","mesh":20,"translation":[0,0,0]},{"name":"held muffler","mesh":17,"translation":[3.8,7.334,1],"rotation":[-0.060961,-0.066044,0.675519,0.731844],"scale":[0.42,4.8,0.42]}],"meshes":[{"primitives":[{"attributes":{"POSITION":0,"NORMAL":1,"TEXCOORD_0":2},"material":0,"mode":4}]},{"primitives":[{"attributes":{"POSITION":0,"NORMAL":1,"TEXCOORD_0":3},"material":1,"mode":4}]},{"primitives":[{"attributes":{"POSITION":0,"NORMAL":1,"TEXCOORD_0":4},"material":2,"mode":4}]},{"primitives":[{"attributes":{"POSITION":5,"NORMAL":5,"TEXCOORD_0":6},"material":3,"mode":4,"indices":7}]},{"primitives":[{"attributes":{"POSITION":8,"NORMAL":9,"TEXCOORD_0":10},"material":4,"mode":4,"indices":11}]},{"primitives":[{"attributes":{"POSITION":12,"NORMAL":13,"TEXCOORD_0":14},"material":3,"mode":4,"indices":15}]},{"primitives":[{"attributes":{"POSITION":16,"NORMAL":17,"TEXCOORD_0":14},"material":3,"mode":4,"indices":15}]},{"primitives":[{"attributes":{"POSITION":18,"NORMAL":19,"TEXCOORD_0":20},"material":5,"mode":4,"indices":21}]},{"primitives":[{"attributes":{"POSITION":22,"NORMAL":23,"TEXCOORD_0":24},"material":6,"mode":4,"indices":25}]},{"primitives":[{"attributes":{"POSITION":26,"NORMAL":27,"TEXCOORD_0":28},"material":7,"mode":4,"indices":29}]},{"primitives":[{"attributes":{"POSITION":30,"NORMAL":23,"TEXCOORD_0":31},"material":0,"mode":4,"indices":25}]},{"primitives":[{"attributes":{"POSITION":30,"NORMAL":23,"TEXCOORD_0":32},"material":1,"mode":4,"indices":25}]},{"primitives":[{"attributes":{"POSITION":30,"NORMAL":23,"TEXCOORD_0":33},"material":2,"mode":4,"indices":25}]},{"primitives":[{"attributes":{"POSITION":34,"NORMAL":34,"TEXCOORD_0":35},"material":3,"mode":4,"indices":36}]},{"primitives":[{"attributes":{"POSITION":37,"NORMAL":38,"TEXCOORD_0":39},"material":4,"mode":4,"indices":40}]},{"primitives":[{"attributes":{"POSITION":41,"NORMAL":42,"TEXCOORD_0":43},"material":3,"mode":4,"indices":44}]},{"primitives":[{"attributes":{"POSITION":45,"NORMAL":46,"TEXCOORD_0":43},"material":3,"mode":4,"indices":44}]},{"primitives":[{"attributes":{"POSITION":47,"NORMAL":48,"TEXCOORD_0":49},"material":5,"mode":4,"indices":40}]},{"primitives":[{"attributes":{"POSITION":50,"NORMAL":50,"TEXCOORD_0":51},"material":3,"mode":4,"indices":52}]},{"primitives":[{"attributes":{"POSITION":53,"NORMAL":54,"TEXCOORD_0":55},"material":3,"mode":4,"indices":56}]},{"primitives":[{"attributes":{"POSITION":57,"NORMAL":58,"TEXCOORD_0":55},"material":3,"mode":4,"indices":56}]}],"materials":[{"name":"concrete","pbrMetallicRoughness":{"baseColorTexture":{"index":0},"metallicRoughnessTexture":{"index":2},"roughnessFactor":1,"metallicFactor":1},"normalTexture":{"index":1,"scale":0.82},"occlusionTexture":{"index":2,"strength":0.35}},{"name":"paint-blue","pbrMetallicRoughness":{"baseColorFactor":[0.05126945836711539,0.10946171076915331,0.22696587349938613,1],"roughnessFactor":0.58,"metallicFactor":0.05}},{"name":"paint-red","pbrMetallicRoughness":{"baseColorFactor":[0.46778379610254284,0.08021982030622662,0.05126945836711539,1],"roughnessFactor":0.62,"metallicFactor":0.05}},{"name":"brick-cream","pbrMetallicRoughness":{"baseColorTexture":{"index":3},"metallicRoughnessTexture":{"index":5},"roughnessFactor":1,"metallicFactor":1},"normalTexture":{"index":4,"scale":1.05},"occlusionTexture":{"index":5,"strength":0.35}},{"name":"paint-yellow","pbrMetallicRoughness":{"baseColorFactor":[0.76052450467022,0.4793201830913402,0.07818742179702069,1],"roughnessFactor":0.66,"metallicFactor":0.03}},{"name":"metal-copper","pbrMetallicRoughness":{"baseColorTexture":{"index":6},"metallicRoughnessTexture":{"index":8},"roughnessFactor":1,"metallicFactor":1},"normalTexture":{"index":7,"scale":0.7},"occlusionTexture":{"index":8,"strength":0.35}},{"name":"metal-dark","pbrMetallicRoughness":{"baseColorTexture":{"index":9},"metallicRoughnessTexture":{"index":11},"roughnessFactor":1,"metallicFactor":1},"normalTexture":{"index":10,"scale":0.35},"occlusionTexture":{"index":11,"strength":0.35}},{"name":"liberty-muffler-man signage","pbrMetallicRoughness":{"baseColorTexture":{"index":12},"roughnessFactor":1,"metallicFactor":0},"extensions":{"KHR_materials_unlit":{}}}],"textures":[{"source":0,"sampler":0},{"source":1,"sampler":0},{"source":2,"sampler":0},{"source":3,"sampler":0},{"source":4,"sampler":0},{"source":5,"sampler":0},{"source":6,"sampler":0},{"source":7,"sampler":0},{"source":8,"sampler":0},{"source":9,"sampler":0},{"source":10,"sampler":0},{"source":11,"sampler":0},{"source":12,"sampler":0}],"images":[{"uri":"../textures/concrete-albedo.png"},{"uri":"../textures/concrete-normal.png"},{"uri":"../textures/concrete-orm.png"},{"uri":"../textures/brick-cream-albedo.png"},{"uri":"../textures/brick-cream-normal.png"},{"uri":"../textures/brick-cream-orm.png"},{"uri":"../textures/metal-copper-albedo.png"},{"uri":"../textures/metal-copper-normal.png"},{"uri":"../textures/metal-copper-orm.png"},{"uri":"../textures/metal-dark-albedo.png"},{"uri":"../textures/metal-dark-normal.png"},{"uri":"../textures/metal-dark-orm.png"},{"uri":"../signs/liberty-muffler-man.png"}],"samplers":[{"magFilter":9729,"minFilter":9987,"wrapS":10497,"wrapT":10497}],"buffers":[{"uri":"../shared/geometry.bin","byteLength":16435520}],"bufferViews":[{"buffer":0,"byteOffset":0,"byteLength":3888,"target":34962},{"buffer":0,"byteOffset":3888,"byteLength":3888,"target":34962},{"buffer":0,"byteOffset":8160936,"byteLength":2592,"target":34962},{"buffer":0,"byteOffset":8028952,"byteLength":2592,"target":34962},{"buffer":0,"byteOffset":8031544,"byteLength":2592,"target":34962},{"buffer":0,"byteOffset":6080864,"byteLength":3276,"target":34962},{"buffer":0,"byteOffset":8034136,"byteLength":2184,"target":34962},{"buffer":0,"byteOffset":6086324,"byteLength":2640,"target":34963},{"buffer":0,"byteOffset":8009176,"byteLength":912,"target":34962},{"buffer":0,"byteOffset":8010088,"byteLength":912,"target":34962},{"buffer":0,"byteOffset":8011000,"byteLength":608,"target":34962},{"buffer":0,"byteOffset":387284,"byteLength":288,"target":34963},{"buffer":0,"byteOffset":8036320,"byteLength":1404,"target":34962},{"buffer":0,"byteOffset":8037724,"byteLength":1404,"target":34962},{"buffer":0,"byteOffset":8014416,"byteLength":936,"target":34962},{"buffer":0,"byteOffset":2086708,"byteLength":1152,"target":34963},{"buffer":0,"byteOffset":8039128,"byteLength":1404,"target":34962},{"buffer":0,"byteOffset":8040532,"byteLength":1404,"target":34962},{"buffer":0,"byteOffset":6678356,"byteLength":768,"target":34962},{"buffer":0,"byteOffset":6679124,"byteLength":768,"target":34962},{"buffer":0,"byteOffset":8188488,"byteLength":512,"target":34962},{"buffer":0,"byteOffset":882248,"byteLength":240,"target":34963},{"buffer":0,"byteOffset":45664,"byteLength":288,"target":34962},{"buffer":0,"byteOffset":45952,"byteLength":288,"target":34962},{"buffer":0,"byteOffset":46240,"byteLength":192,"target":34962},{"buffer":0,"byteOffset":46432,"byteLength":72,"target":34963},{"buffer":0,"byteOffset":46504,"byteLength":48,"target":34962},{"buffer":0,"byteOffset":46552,"byteLength":48,"target":34962},{"buffer":0,"byteOffset":222724,"byteLength":32,"target":34962},{"buffer":0,"byteOffset":46632,"byteLength":12,"target":34963},{"buffer":0,"byteOffset":46644,"byteLength":288,"target":34962},{"buffer":0,"byteOffset":8163528,"byteLength":192,"target":34962},{"buffer":0,"byteOffset":8042128,"byteLength":192,"target":34962},{"buffer":0,"byteOffset":8042320,"byteLength":192,"target":34962},{"buffer":0,"byteOffset":6096692,"byteLength":1404,"target":34962},{"buffer":0,"byteOffset":8042512,"byteLength":936,"target":34962},{"buffer":0,"byteOffset":6099032,"byteLength":1008,"target":34963},{"buffer":0,"byteOffset":8020184,"byteLength":480,"target":34962},{"buffer":0,"byteOffset":8020664,"byteLength":480,"target":34962},{"buffer":0,"byteOffset":8021144,"byteLength":320,"target":34962},{"buffer":0,"byteOffset":48596,"byteLength":144,"target":34963},{"buffer":0,"byteOffset":8043448,"byteLength":588,"target":34962},{"buffer":0,"byteOffset":8044036,"byteLength":588,"target":34962},{"buffer":0,"byteOffset":8022640,"byteLength":392,"target":34962},{"buffer":0,"byteOffset":2096404,"byteLength":432,"target":34963},{"buffer":0,"byteOffset":8044624,"byteLength":588,"target":34962},{"buffer":0,"byteOffset":8045212,"byteLength":588,"target":34962},{"buffer":0,"byteOffset":1112312,"byteLength":480,"target":34962},{"buffer":0,"byteOffset":1112792,"byteLength":480,"target":34962},{"buffer":0,"byteOffset":8189000,"byteLength":320,"target":34962},{"buffer":0,"byteOffset":6871440,"byteLength":648,"target":34962},{"buffer":0,"byteOffset":8045800,"byteLength":432,"target":34962},{"buffer":0,"byteOffset":6872520,"byteLength":384,"target":34963},{"buffer":0,"byteOffset":8046232,"byteLength":300,"target":34962},{"buffer":0,"byteOffset":8046532,"byteLength":300,"target":34962},{"buffer":0,"byteOffset":8025560,"byteLength":200,"target":34962},{"buffer":0,"byteOffset":440168,"byteLength":192,"target":34963},{"buffer":0,"byteOffset":8046832,"byteLength":300,"target":34962},{"buffer":0,"byteOffset":8047132,"byteLength":300,"target":34962}],"accessors":[{"bufferView":0,"componentType":5126,"count":324,"type":"VEC3","min":[-0.5,-0.5,-0.5],"max":[0.5,0.5,0.5]},{"bufferView":1,"componentType":5126,"count":324,"type":"VEC3"},{"bufferView":2,"componentType":5126,"count":324,"type":"VEC2"},{"bufferView":3,"componentType":5126,"count":324,"type":"VEC2"},{"bufferView":4,"componentType":5126,"count":324,"type":"VEC2"},{"bufferView":5,"componentType":5126,"count":273,"type":"VEC3","min":[-1,-1,-1],"max":[1,1,1]},{"bufferView":6,"componentType":5126,"count":273,"type":"VEC2"},{"bufferView":7,"componentType":5123,"count":1320,"type":"SCALAR"},{"bufferView":8,"componentType":5126,"count":76,"type":"VEC3","min":[-1,-0.5,-1],"max":[1,0.5,1]},{"bufferView":9,"componentType":5126,"count":76,"type":"VEC3"},{"bufferView":10,"componentType":5126,"count":76,"type":"VEC2"},{"bufferView":11,"componentType":5123,"count":144,"type":"SCALAR"},{"bufferView":12,"componentType":5126,"count":117,"type":"VEC3","min":[-4.164735317230225,4.543085098266602,-1.4620342254638672],"max":[-1.1118292808532715,7.112384796142578,0.46857887506484985]},{"bufferView":13,"componentType":5126,"count":117,"type":"VEC3"},{"bufferView":14,"componentType":5126,"count":117,"type":"VEC2"},{"bufferView":15,"componentType":5123,"count":576,"type":"SCALAR"},{"bufferView":16,"componentType":5126,"count":117,"type":"VEC3","min":[1.1457351446151733,4.838444232940674,-0.4707198143005371],"max":[4.063905239105225,7.325747966766357,1.4533294439315796]},{"bufferView":17,"componentType":5126,"count":117,"type":"VEC3"},{"bufferView":18,"componentType":5126,"count":64,"type":"VEC3","min":[-0.9510565400123596,-0.5,-1],"max":[0.9510565400123596,0.5,1]},{"bufferView":19,"componentType":5126,"count":64,"type":"VEC3"},{"bufferView":20,"componentType":5126,"count":64,"type":"VEC2"},{"bufferView":21,"componentType":5123,"count":120,"type":"SCALAR"},{"bufferView":22,"componentType":5126,"count":24,"type":"VEC3","min":[-0.5,-0.5,-0.02500000037252903],"max":[0.5,0.5,0.02500000037252903]},{"bufferView":23,"componentType":5126,"count":24,"type":"VEC3"},{"bufferView":24,"componentType":5126,"count":24,"type":"VEC2"},{"bufferView":25,"componentType":5123,"count":36,"type":"SCALAR"},{"bufferView":26,"componentType":5126,"count":4,"type":"VEC3","min":[-0.5,-0.5,0],"max":[0.5,0.5,0]},{"bufferView":27,"componentType":5126,"count":4,"type":"VEC3"},{"bufferView":28,"componentType":5126,"count":4,"type":"VEC2"},{"bufferView":29,"componentType":5123,"count":6,"type":"SCALAR"},{"bufferView":30,"componentType":5126,"count":24,"type":"VEC3","min":[-0.5,-0.5,-0.5],"max":[0.5,0.5,0.5]},{"bufferView":31,"componentType":5126,"count":24,"type":"VEC2"},{"bufferView":32,"componentType":5126,"count":24,"type":"VEC2"},{"bufferView":33,"componentType":5126,"count":24,"type":"VEC2"},{"bufferView":34,"componentType":5126,"count":117,"type":"VEC3","min":[-1,-1,-1],"max":[1,1,1]},{"bufferView":35,"componentType":5126,"count":117,"type":"VEC2"},{"bufferView":36,"componentType":5123,"count":504,"type":"SCALAR"},{"bufferView":37,"componentType":5126,"count":40,"type":"VEC3","min":[-0.8660253882408142,-0.5,-1],"max":[0.8660253882408142,0.5,1]},{"bufferView":38,"componentType":5126,"count":40,"type":"VEC3"},{"bufferView":39,"componentType":5126,"count":40,"type":"VEC2"},{"bufferView":40,"componentType":5123,"count":72,"type":"SCALAR"},{"bufferView":41,"componentType":5126,"count":49,"type":"VEC3","min":[-4.156208515167236,4.559709072113037,-1.4314355850219727],"max":[-1.108816385269165,7.097966194152832,0.46857887506484985]},{"bufferView":42,"componentType":5126,"count":49,"type":"VEC3"},{"bufferView":43,"componentType":5126,"count":49,"type":"VEC2"},{"bufferView":44,"componentType":5123,"count":216,"type":"SCALAR"},{"bufferView":45,"componentType":5126,"count":49,"type":"VEC3","min":[1.1399656534194946,4.864972114562988,-0.4707198143005371],"max":[4.054943561553955,7.318606376647949,1.4214880466461182]},{"bufferView":46,"componentType":5126,"count":49,"type":"VEC3"},{"bufferView":47,"componentType":5126,"count":40,"type":"VEC3","min":[-0.8660253882408142,-0.5,-1],"max":[0.8660253882408142,0.5,1]},{"bufferView":48,"componentType":5126,"count":40,"type":"VEC3"},{"bufferView":49,"componentType":5126,"count":40,"type":"VEC2"},{"bufferView":50,"componentType":5126,"count":54,"type":"VEC3","min":[-0.9510565400123596,-1,-0.9510565400123596],"max":[0.9510565400123596,1,0.9510565400123596]},{"bufferView":51,"componentType":5126,"count":54,"type":"VEC2"},{"bufferView":52,"componentType":5123,"count":192,"type":"SCALAR"},{"bufferView":53,"componentType":5126,"count":25,"type":"VEC3","min":[-4.048585414886475,4.543085098266602,-1.3672926425933838],"max":[-1.1118292808532715,7.112384796142578,0.46857887506484985]},{"bufferView":54,"componentType":5126,"count":25,"type":"VEC3"},{"bufferView":55,"componentType":5126,"count":25,"type":"VEC2"},{"bufferView":56,"componentType":5123,"count":96,"type":"SCALAR"},{"bufferView":57,"componentType":5126,"count":25,"type":"VEC3","min":[1.1457351446151733,4.838444232940674,-0.4707198143005371],"max":[3.946732997894287,7.325747966766357,1.3653430938720703]},{"bufferView":58,"componentType":5126,"count":25,"type":"VEC3"}],"extensionsUsed":["KHR_materials_unlit"],"extras":{"id":"vlt-liberty-muffler-man-32","family":"liberty-muffler-man","variant":31,"plan":"C2-2","units":"metres","up":"+Y","front":"+Z","lodScenes":[0,1,2]}}