{"asset":{"version":"2.0","generator":"SLOPMERICA Department of Unnecessary Development 1.0"},"scene":0,"scenes":[{"name":"LOD 0","nodes":[0,1,2,3,4,5,6,7,8,9,10,11,12,13,14,15,16,17,18,19,20,21,22,23,24,25],"extras":{"level":0}},{"name":"LOD 1","nodes":[26,27,28,29,30,31,32,33,34,35,36,37,38,39,40,41,42,43,44,45,46,47],"extras":{"level":1}},{"name":"LOD 2","nodes":[48,49,50,51,52,53,54,55,56,57,58,59,60],"extras":{"level":2}}],"nodes":[{"name":"foundation","mesh":0,"translation":[0,0.08,0],"scale":[14.68,0.16,12.3]},{"name":"store-shell","mesh":1,"translation":[0,2.0265,0],"scale":[8.9856,4.053,7.272]},{"name":"roof-cap","mesh":2,"translation":[0,4.163,0],"scale":[9.2356,0.22,7.522]},{"name":"window-0","mesh":3,"translation":[-3.324672,1.65,3.691],"scale":[1.44929,1.45,0.09]},{"name":"window-1","mesh":3,"translation":[-1.108224,1.65,3.691],"scale":[1.44929,1.45,0.09]},{"name":"window-2","mesh":3,"translation":[1.108224,1.65,3.691],"scale":[1.44929,1.45,0.09]},{"name":"window-3","mesh":3,"translation":[3.324672,1.65,3.691],"scale":[1.44929,1.45,0.09]},{"name":"door","mesh":4,"translation":[-3.14496,1.025,3.706],"scale":[0.92,2.05,0.12]},{"name":"awning","mesh":5,"translation":[0,2.67498,4.116],"rotation":[-0.039989,0,0,0.9992],"scale":[7.368192,0.18,1.05]},{"name":"mullion-0","mesh":6,"translation":[-2.875392,1.65,3.756],"scale":[0.08,1.55,0.12]},{"name":"mullion-1","mesh":6,"translation":[0,1.65,3.756],"scale":[0.08,1.55,0.12]},{"name":"mullion-2","mesh":6,"translation":[2.875392,1.65,3.756],"scale":[0.08,1.55,0.12]},{"name":"primary-sign-back","mesh":7,"translation":[0,3.20187,3.796],"scale":[5.671072,1.25,1]},{"name":"primary-sign","mesh":8,"translation":[0,3.20187,3.825],"scale":[5.571072,1.15,1]},{"name":"tooth-crown","mesh":9,"translation":[-3.744,6.369,0],"scale":[2,1.55,0.65]},{"name":"tooth-root-0","mesh":10,"translation":[-4.569,1.4475,0],"rotation":[0,0,-0.097346,0.995251],"scale":[0.38,1.5,0.38]},{"name":"tooth-root-1","mesh":10,"translation":[-4.019,1.4475,0],"rotation":[0,0,-0.032494,0.999472],"scale":[0.38,1.5,0.38]},{"name":"tooth-root-2","mesh":10,"translation":[-3.469,1.4475,0],"rotation":[0,0,0.032494,0.999472],"scale":[0.38,1.5,0.38]},{"name":"tooth-root-3","mesh":10,"translation":[-2.919,1.4475,0],"rotation":[0,0,0.097346,0.995251],"scale":[0.38,1.5,0.38]},{"name":"finance-brace","mesh":11,"translation":[-3.744,6.4848,0.68]},{"name":"busy-state-queue-bar","mesh":12,"translation":[0,0.65,6.363],"scale":[8.9856,0.12,0.12]},{"name":"queue-car-0","mesh":13,"translation":[-3.744,0.34,7.07],"scale":[1.35,0.65,0.7]},{"name":"queue-car-1","mesh":14,"translation":[-1.872,0.34,7.878],"scale":[1.35,0.65,0.7]},{"name":"queue-car-2","mesh":13,"translation":[0,0.34,7.07],"scale":[1.35,0.65,0.7]},{"name":"queue-car-3","mesh":14,"translation":[1.872,0.34,7.878],"scale":[1.35,0.65,0.7]},{"name":"queue-car-4","mesh":13,"translation":[3.744,0.34,7.07],"scale":[1.35,0.65,0.7]},{"name":"foundation","mesh":15,"translation":[0,0.08,0],"scale":[14.68,0.16,12.3]},{"name":"store-shell","mesh":16,"translation":[0,2.0265,0],"scale":[8.9856,4.053,7.272]},{"name":"roof-cap","mesh":17,"translation":[0,4.163,0],"scale":[9.2356,0.22,7.522]},{"name":"window-0","mesh":18,"translation":[-3.324672,1.65,3.691],"scale":[1.932387,1.45,0.09]},{"name":"window-1","mesh":18,"translation":[0,1.65,3.691],"scale":[1.932387,1.45,0.09]},{"name":"window-2","mesh":18,"translation":[3.324672,1.65,3.691],"scale":[1.932387,1.45,0.09]},{"name":"door","mesh":19,"translation":[-3.14496,1.025,3.706],"scale":[0.92,2.05,0.12]},{"name":"awning","mesh":20,"translation":[0,2.67498,4.116],"rotation":[-0.039989,0,0,0.9992],"scale":[7.368192,0.18,1.05]},{"name":"mullion-0","mesh":21,"translation":[-2.875392,1.65,3.756],"scale":[0.08,1.55,0.12]},{"name":"mullion-1","mesh":21,"translation":[0,1.65,3.756],"scale":[0.08,1.55,0.12]},{"name":"mullion-2","mesh":21,"translation":[2.875392,1.65,3.756],"scale":[0.08,1.55,0.12]},{"name":"primary-sign-back","mesh":7,"translation":[0,3.20187,3.796],"scale":[5.671072,1.25,1]},{"name":"primary-sign","mesh":8,"translation":[0,3.20187,3.825],"scale":[5.571072,1.15,1]},{"name":"tooth-crown","mesh":22,"translation":[-3.744,6.369,0],"scale":[2,1.55,0.65]},{"name":"tooth-root-0","mesh":23,"translation":[-4.294,1.4475,0],"rotation":[0,0,-0.064954,0.997888],"scale":[0.38,1.5,0.38]},{"name":"tooth-root-1","mesh":23,"translation":[-3.744,1.4475,0],"scale":[0.38,1.5,0.38]},{"name":"tooth-root-2","mesh":23,"translation":[-3.194,1.4475,0],"rotation":[0,0,0.064954,0.997888],"scale":[0.38,1.5,0.38]},{"name":"finance-brace","mesh":24,"translation":[-3.744,6.4848,0.68]},{"name":"busy-state-queue-bar","mesh":25,"translation":[0,0.65,6.363],"scale":[8.9856,0.12,0.12]},{"name":"queue-car-0","mesh":26,"translation":[-3.744,0.34,7.07],"scale":[1.35,0.65,0.7]},{"name":"queue-car-1","mesh":27,"translation":[-1.872,0.34,7.878],"scale":[1.35,0.65,0.7]},{"name":"queue-car-2","mesh":26,"translation":[0,0.34,7.07],"scale":[1.35,0.65,0.7]},{"name":"foundation","mesh":15,"translation":[0,0.08,0],"scale":[14.68,0.16,12.3]},{"name":"store-shell","mesh":16,"translation":[0,2.0265,0],"scale":[8.9856,4.053,7.272]},{"name":"roof-cap","mesh":17,"translation":[0,4.163,0],"scale":[9.2356,0.22,7.522]},{"name":"window-0","mesh":28,"translation":[0,1.65,3.691],"scale":[5.797161,1.45,0.09]},{"name":"door","mesh":19,"translation":[-3.14496,1.025,3.706],"scale":[0.92,2.05,0.12]},{"name":"primary-sign-back","mesh":7,"translation":[0,3.20187,3.796],"scale":[5.671072,1.25,1]},{"name":"primary-sign","mesh":8,"translation":[0,3.20187,3.825],"scale":[5.571072,1.15,1]},{"name":"tooth-crown","mesh":29,"translation":[-3.744,6.369,0],"scale":[2,1.55,0.65]},{"name":"tooth-root-0","mesh":23,"translation":[-4.019,1.4475,0],"rotation":[0,0,-0.032494,0.999472],"scale":[0.38,1.5,0.38]},{"name":"tooth-root-1","mesh":23,"translation":[-3.469,1.4475,0],"rotation":[0,0,0.032494,0.999472],"scale":[0.38,1.5,0.38]},{"name":"finance-brace","mesh":30,"translation":[-3.744,6.4848,0.68]},{"name":"busy-state-queue-bar","mesh":25,"translation":[0,0.65,6.363],"scale":[8.9856,0.12,0.12]},{"name":"queue-car-0","mesh":26,"translation":[-3.744,0.34,7.07],"scale":[1.35,0.65,0.7]}],"meshes":[{"primitives":[{"attributes":{"POSITION":0,"NORMAL":1,"TEXCOORD_0":2},"material":0,"mode":4}]},{"primitives":[{"attributes":{"POSITION":3,"NORMAL":1,"TEXCOORD_0":4},"material":1,"mode":4}]},{"primitives":[{"attributes":{"POSITION":0,"NORMAL":1,"TEXCOORD_0":5},"material":2,"mode":4}]},{"primitives":[{"attributes":{"POSITION":0,"NORMAL":1,"TEXCOORD_0":6},"material":3,"mode":4}]},{"primitives":[{"attributes":{"POSITION":0,"NORMAL":1,"TEXCOORD_0":7},"material":2,"mode":4}]},{"primitives":[{"attributes":{"POSITION":0,"NORMAL":1,"TEXCOORD_0":8},"material":1,"mode":4}]},{"primitives":[{"attributes":{"POSITION":0,"NORMAL":1,"TEXCOORD_0":9},"material":1,"mode":4}]},{"primitives":[{"attributes":{"POSITION":10,"NORMAL":11,"TEXCOORD_0":12},"material":2,"mode":4,"indices":13}]},{"primitives":[{"attributes":{"POSITION":14,"NORMAL":15,"TEXCOORD_0":16},"material":4,"mode":4,"indices":17}]},{"primitives":[{"attributes":{"POSITION":18,"NORMAL":18,"TEXCOORD_0":19},"material":5,"mode":4,"indices":20}]},{"primitives":[{"attributes":{"POSITION":21,"NORMAL":22,"TEXCOORD_0":23},"material":5,"mode":4,"indices":24}]},{"primitives":[{"attributes":{"POSITION":25,"NORMAL":26,"TEXCOORD_0":27},"material":6,"mode":4,"indices":28}]},{"primitives":[{"attributes":{"POSITION":0,"NORMAL":1,"TEXCOORD_0":29},"material":1,"mode":4}]},{"primitives":[{"attributes":{"POSITION":0,"NORMAL":1,"TEXCOORD_0":30},"material":7,"mode":4}]},{"primitives":[{"attributes":{"POSITION":0,"NORMAL":1,"TEXCOORD_0":30},"material":8,"mode":4}]},{"primitives":[{"attributes":{"POSITION":31,"NORMAL":11,"TEXCOORD_0":32},"material":0,"mode":4,"indices":13}]},{"primitives":[{"attributes":{"POSITION":31,"NORMAL":11,"TEXCOORD_0":33},"material":1,"mode":4,"indices":13}]},{"primitives":[{"attributes":{"POSITION":31,"NORMAL":11,"TEXCOORD_0":34},"material":2,"mode":4,"indices":13}]},{"primitives":[{"attributes":{"POSITION":31,"NORMAL":11,"TEXCOORD_0":35},"material":3,"mode":4,"indices":13}]},{"primitives":[{"attributes":{"POSITION":31,"NORMAL":11,"TEXCOORD_0":36},"material":2,"mode":4,"indices":13}]},{"primitives":[{"attributes":{"POSITION":31,"NORMAL":11,"TEXCOORD_0":37},"material":1,"mode":4,"indices":13}]},{"primitives":[{"attributes":{"POSITION":31,"NORMAL":11,"TEXCOORD_0":38},"material":1,"mode":4,"indices":13}]},{"primitives":[{"attributes":{"POSITION":39,"NORMAL":39,"TEXCOORD_0":40},"material":5,"mode":4,"indices":41}]},{"primitives":[{"attributes":{"POSITION":42,"NORMAL":43,"TEXCOORD_0":44},"material":5,"mode":4,"indices":45}]},{"primitives":[{"attributes":{"POSITION":46,"NORMAL":47,"TEXCOORD_0":48},"material":6,"mode":4,"indices":49}]},{"primitives":[{"attributes":{"POSITION":31,"NORMAL":11,"TEXCOORD_0":50},"material":1,"mode":4,"indices":13}]},{"primitives":[{"attributes":{"POSITION":31,"NORMAL":11,"TEXCOORD_0":51},"material":7,"mode":4,"indices":13}]},{"primitives":[{"attributes":{"POSITION":31,"NORMAL":11,"TEXCOORD_0":51},"material":8,"mode":4,"indices":13}]},{"primitives":[{"attributes":{"POSITION":31,"NORMAL":11,"TEXCOORD_0":52},"material":3,"mode":4,"indices":13}]},{"primitives":[{"attributes":{"POSITION":53,"NORMAL":53,"TEXCOORD_0":54},"material":5,"mode":4,"indices":55}]},{"primitives":[{"attributes":{"POSITION":56,"NORMAL":57,"TEXCOORD_0":58},"material":6,"mode":4,"indices":59}]}],"materials":[{"name":"concrete","pbrMetallicRoughness":{"baseColorTexture":{"index":0},"metallicRoughnessTexture":{"index":2},"roughnessFactor":1,"metallicFactor":1},"normalTexture":{"index":1,"scale":0.82},"occlusionTexture":{"index":2,"strength":0.35}},{"name":"paint-teal","pbrMetallicRoughness":{"baseColorFactor":[0.040915196900556984,0.20507873637973145,0.1878207722902346,1],"roughnessFactor":0.59,"metallicFactor":0.05}},{"name":"metal-dark","pbrMetallicRoughness":{"baseColorTexture":{"index":3},"metallicRoughnessTexture":{"index":5},"roughnessFactor":1,"metallicFactor":1},"normalTexture":{"index":4,"scale":0.35},"occlusionTexture":{"index":5,"strength":0.35}},{"name":"glass-blue","pbrMetallicRoughness":{"baseColorTexture":{"index":6},"metallicRoughnessTexture":{"index":8},"roughnessFactor":1,"metallicFactor":1},"normalTexture":{"index":7,"scale":0.12},"occlusionTexture":{"index":8,"strength":0.35}},{"name":"smile-finance signage","pbrMetallicRoughness":{"baseColorTexture":{"index":9},"roughnessFactor":1,"metallicFactor":0},"extensions":{"KHR_materials_unlit":{}}},{"name":"paint-white","pbrMetallicRoughness":{"baseColorFactor":[0.7912979403281551,0.7681511472425809,0.6795424696265424,1],"roughnessFactor":0.68,"metallicFactor":0}},{"name":"metal-galvanized","pbrMetallicRoughness":{"baseColorTexture":{"index":10},"metallicRoughnessTexture":{"index":12},"roughnessFactor":1,"metallicFactor":1},"normalTexture":{"index":11,"scale":0.15},"occlusionTexture":{"index":12,"strength":0.35}},{"name":"paint-red","pbrMetallicRoughness":{"baseColorFactor":[0.46778379610254284,0.08021982030622662,0.05126945836711539,1],"roughnessFactor":0.62,"metallicFactor":0.05}},{"name":"paint-blue","pbrMetallicRoughness":{"baseColorFactor":[0.05126945836711539,0.10946171076915331,0.22696587349938613,1],"roughnessFactor":0.58,"metallicFactor":0.05}}],"textures":[{"source":0,"sampler":0},{"source":1,"sampler":0},{"source":2,"sampler":0},{"source":3,"sampler":0},{"source":4,"sampler":0},{"source":5,"sampler":0},{"source":6,"sampler":0},{"source":7,"sampler":0},{"source":8,"sampler":0},{"source":9,"sampler":0},{"source":10,"sampler":0},{"source":11,"sampler":0},{"source":12,"sampler":0}],"images":[{"uri":"../textures/concrete-albedo.png"},{"uri":"../textures/concrete-normal.png"},{"uri":"../textures/concrete-orm.png"},{"uri":"../textures/metal-dark-albedo.png"},{"uri":"../textures/metal-dark-normal.png"},{"uri":"../textures/metal-dark-orm.png"},{"uri":"../textures/glass-blue-albedo.png"},{"uri":"../textures/glass-blue-normal.png"},{"uri":"../textures/glass-blue-orm.png"},{"uri":"../signs/smile-finance.png"},{"uri":"../textures/metal-galvanized-albedo.png"},{"uri":"../textures/metal-galvanized-normal.png"},{"uri":"../textures/metal-galvanized-orm.png"}],"samplers":[{"magFilter":9729,"minFilter":9987,"wrapS":10497,"wrapT":10497}],"buffers":[{"uri":"../shared/geometry.bin","byteLength":16435520}],"bufferViews":[{"buffer":0,"byteOffset":0,"byteLength":3888,"target":34962},{"buffer":0,"byteOffset":3888,"byteLength":3888,"target":34962},{"buffer":0,"byteOffset":13411276,"byteLength":2592,"target":34962},{"buffer":0,"byteOffset":868536,"byteLength":3888,"target":34962},{"buffer":0,"byteOffset":13413868,"byteLength":2592,"target":34962},{"buffer":0,"byteOffset":13416460,"byteLength":2592,"target":34962},{"buffer":0,"byteOffset":13329388,"byteLength":2592,"target":34962},{"buffer":0,"byteOffset":1428216,"byteLength":2592,"target":34962},{"buffer":0,"byteOffset":3540944,"byteLength":2592,"target":34962},{"buffer":0,"byteOffset":1433400,"byteLength":2592,"target":34962},{"buffer":0,"byteOffset":45664,"byteLength":288,"target":34962},{"buffer":0,"byteOffset":45952,"byteLength":288,"target":34962},{"buffer":0,"byteOffset":46240,"byteLength":192,"target":34962},{"buffer":0,"byteOffset":46432,"byteLength":72,"target":34963},{"buffer":0,"byteOffset":46504,"byteLength":48,"target":34962},{"buffer":0,"byteOffset":46552,"byteLength":48,"target":34962},{"buffer":0,"byteOffset":222724,"byteLength":32,"target":34962},{"buffer":0,"byteOffset":46632,"byteLength":12,"target":34963},{"buffer":0,"byteOffset":6080864,"byteLength":3276,"target":34962},{"buffer":0,"byteOffset":13308744,"byteLength":2184,"target":34962},{"buffer":0,"byteOffset":6086324,"byteLength":2640,"target":34963},{"buffer":0,"byteOffset":13310928,"byteLength":624,"target":34962},{"buffer":0,"byteOffset":13311552,"byteLength":624,"target":34962},{"buffer":0,"byteOffset":13312176,"byteLength":416,"target":34962},{"buffer":0,"byteOffset":1111736,"byteLength":192,"target":34963},{"buffer":0,"byteOffset":13312592,"byteLength":3132,"target":34962},{"buffer":0,"byteOffset":390704,"byteLength":3132,"target":34962},{"buffer":0,"byteOffset":12917576,"byteLength":2088,"target":34962},{"buffer":0,"byteOffset":395924,"byteLength":2688,"target":34963},{"buffer":0,"byteOffset":1914332,"byteLength":2592,"target":34962},{"buffer":0,"byteOffset":582912,"byteLength":2592,"target":34962},{"buffer":0,"byteOffset":46644,"byteLength":288,"target":34962},{"buffer":0,"byteOffset":13419052,"byteLength":192,"target":34962},{"buffer":0,"byteOffset":13419244,"byteLength":192,"target":34962},{"buffer":0,"byteOffset":13419436,"byteLength":192,"target":34962},{"buffer":0,"byteOffset":3548524,"byteLength":192,"target":34962},{"buffer":0,"byteOffset":1447128,"byteLength":192,"target":34962},{"buffer":0,"byteOffset":3548716,"byteLength":192,"target":34962},{"buffer":0,"byteOffset":1447512,"byteLength":192,"target":34962},{"buffer":0,"byteOffset":6096692,"byteLength":1404,"target":34962},{"buffer":0,"byteOffset":13316684,"byteLength":936,"target":34962},{"buffer":0,"byteOffset":6099032,"byteLength":1008,"target":34963},{"buffer":0,"byteOffset":13317620,"byteLength":480,"target":34962},{"buffer":0,"byteOffset":13318100,"byteLength":480,"target":34962},{"buffer":0,"byteOffset":13318580,"byteLength":320,"target":34962},{"buffer":0,"byteOffset":48596,"byteLength":144,"target":34963},{"buffer":0,"byteOffset":13318900,"byteLength":1428,"target":34962},{"buffer":0,"byteOffset":427996,"byteLength":1428,"target":34962},{"buffer":0,"byteOffset":12924388,"byteLength":952,"target":34962},{"buffer":0,"byteOffset":430376,"byteLength":1152,"target":34963},{"buffer":0,"byteOffset":1916924,"byteLength":192,"target":34962},{"buffer":0,"byteOffset":585696,"byteLength":192,"target":34962},{"buffer":0,"byteOffset":3550008,"byteLength":192,"target":34962},{"buffer":0,"byteOffset":6871440,"byteLength":648,"target":34962},{"buffer":0,"byteOffset":13320520,"byteLength":432,"target":34962},{"buffer":0,"byteOffset":6872520,"byteLength":384,"target":34963},{"buffer":0,"byteOffset":13320952,"byteLength":660,"target":34962},{"buffer":0,"byteOffset":437788,"byteLength":660,"target":34962},{"buffer":0,"byteOffset":12926192,"byteLength":440,"target":34962},{"buffer":0,"byteOffset":438888,"byteLength":480,"target":34963}],"accessors":[{"bufferView":0,"componentType":5126,"count":324,"type":"VEC3","min":[-0.5,-0.5,-0.5],"max":[0.5,0.5,0.5]},{"bufferView":1,"componentType":5126,"count":324,"type":"VEC3"},{"bufferView":2,"componentType":5126,"count":324,"type":"VEC2"},{"bufferView":3,"componentType":5126,"count":324,"type":"VEC3","min":[-0.5,-0.5,-0.5],"max":[0.5,0.5,0.5]},{"bufferView":4,"componentType":5126,"count":324,"type":"VEC2"},{"bufferView":5,"componentType":5126,"count":324,"type":"VEC2"},{"bufferView":6,"componentType":5126,"count":324,"type":"VEC2"},{"bufferView":7,"componentType":5126,"count":324,"type":"VEC2"},{"bufferView":8,"componentType":5126,"count":324,"type":"VEC2"},{"bufferView":9,"componentType":5126,"count":324,"type":"VEC2"},{"bufferView":10,"componentType":5126,"count":24,"type":"VEC3","min":[-0.5,-0.5,-0.02500000037252903],"max":[0.5,0.5,0.02500000037252903]},{"bufferView":11,"componentType":5126,"count":24,"type":"VEC3"},{"bufferView":12,"componentType":5126,"count":24,"type":"VEC2"},{"bufferView":13,"componentType":5123,"count":36,"type":"SCALAR"},{"bufferView":14,"componentType":5126,"count":4,"type":"VEC3","min":[-0.5,-0.5,0],"max":[0.5,0.5,0]},{"bufferView":15,"componentType":5126,"count":4,"type":"VEC3"},{"bufferView":16,"componentType":5126,"count":4,"type":"VEC2"},{"bufferView":17,"componentType":5123,"count":6,"type":"SCALAR"},{"bufferView":18,"componentType":5126,"count":273,"type":"VEC3","min":[-1,-1,-1],"max":[1,1,1]},{"bufferView":19,"componentType":5126,"count":273,"type":"VEC2"},{"bufferView":20,"componentType":5123,"count":1320,"type":"SCALAR"},{"bufferView":21,"componentType":5126,"count":52,"type":"VEC3","min":[-1,-0.5,-1],"max":[1,0.5,1]},{"bufferView":22,"componentType":5126,"count":52,"type":"VEC3"},{"bufferView":23,"componentType":5126,"count":52,"type":"VEC2"},{"bufferView":24,"componentType":5123,"count":96,"type":"SCALAR"},{"bufferView":25,"componentType":5126,"count":261,"type":"VEC3","min":[-1.4500000476837158,-1.4500000476837158,-0.10000000149011612],"max":[1.4500000476837158,1.4500000476837158,0.10000000149011612]},{"bufferView":26,"componentType":5126,"count":261,"type":"VEC3"},{"bufferView":27,"componentType":5126,"count":261,"type":"VEC2"},{"bufferView":28,"componentType":5123,"count":1344,"type":"SCALAR"},{"bufferView":29,"componentType":5126,"count":324,"type":"VEC2"},{"bufferView":30,"componentType":5126,"count":324,"type":"VEC2"},{"bufferView":31,"componentType":5126,"count":24,"type":"VEC3","min":[-0.5,-0.5,-0.5],"max":[0.5,0.5,0.5]},{"bufferView":32,"componentType":5126,"count":24,"type":"VEC2"},{"bufferView":33,"componentType":5126,"count":24,"type":"VEC2"},{"bufferView":34,"componentType":5126,"count":24,"type":"VEC2"},{"bufferView":35,"componentType":5126,"count":24,"type":"VEC2"},{"bufferView":36,"componentType":5126,"count":24,"type":"VEC2"},{"bufferView":37,"componentType":5126,"count":24,"type":"VEC2"},{"bufferView":38,"componentType":5126,"count":24,"type":"VEC2"},{"bufferView":39,"componentType":5126,"count":117,"type":"VEC3","min":[-1,-1,-1],"max":[1,1,1]},{"bufferView":40,"componentType":5126,"count":117,"type":"VEC2"},{"bufferView":41,"componentType":5123,"count":504,"type":"SCALAR"},{"bufferView":42,"componentType":5126,"count":40,"type":"VEC3","min":[-0.8660253882408142,-0.5,-1],"max":[0.8660253882408142,0.5,1]},{"bufferView":43,"componentType":5126,"count":40,"type":"VEC3"},{"bufferView":44,"componentType":5126,"count":40,"type":"VEC2"},{"bufferView":45,"componentType":5123,"count":72,"type":"SCALAR"},{"bufferView":46,"componentType":5126,"count":119,"type":"VEC3","min":[-1.4500000476837158,-1.4500000476837158,-0.08660253882408142],"max":[1.4500000476837158,1.4500000476837158,0.08660253882408142]},{"bufferView":47,"componentType":5126,"count":119,"type":"VEC3"},{"bufferView":48,"componentType":5126,"count":119,"type":"VEC2"},{"bufferView":49,"componentType":5123,"count":576,"type":"SCALAR"},{"bufferView":50,"componentType":5126,"count":24,"type":"VEC2"},{"bufferView":51,"componentType":5126,"count":24,"type":"VEC2"},{"bufferView":52,"componentType":5126,"count":24,"type":"VEC2"},{"bufferView":53,"componentType":5126,"count":54,"type":"VEC3","min":[-0.9510565400123596,-1,-0.9510565400123596],"max":[0.9510565400123596,1,0.9510565400123596]},{"bufferView":54,"componentType":5126,"count":54,"type":"VEC2"},{"bufferView":55,"componentType":5123,"count":192,"type":"SCALAR"},{"bufferView":56,"componentType":5126,"count":55,"type":"VEC3","min":[-1.4500000476837158,-1.3790318965911865,-0.10000000149011612],"max":[1.4500000476837158,1.3790318965911865,0.10000000149011612]},{"bufferView":57,"componentType":5126,"count":55,"type":"VEC3"},{"bufferView":58,"componentType":5126,"count":55,"type":"VEC2"},{"bufferView":59,"componentType":5123,"count":240,"type":"SCALAR"}],"extensionsUsed":["KHR_materials_unlit"],"extras":{"id":"vlt-smile-finance-32","family":"smile-finance","variant":31,"plan":"C2-2","units":"metres","up":"+Y","front":"+Z","lodScenes":[0,1,2]}}