{"asset":{"version":"2.0","generator":"SLOPMERICA Department of Unnecessary Development 1.0"},"scene":0,"scenes":[{"name":"LOD 0","nodes":[0,1,2,3,4,5,6,7,8,9,10,11,12,13,14,15,16,17,18,19,20,21,22,23,24,25,26,27,28,29,30],"extras":{"level":0}},{"name":"LOD 1","nodes":[31,32,33,34,35,36,37,38,39,40,41,42,43,44,45,46,47,48,49,50,51,52,53,54,55,56,57,58,59,60,61],"extras":{"level":1}},{"name":"LOD 2","nodes":[62,63,64,65,66,67,68,69,70],"extras":{"level":2}}],"nodes":[{"name":"surveyed lot","mesh":0,"translation":[0,0.06,0],"scale":[23.52,0.12,21.28]},{"name":"ferris wheel rim","mesh":1,"translation":[0,6.25,-1],"rotation":[0,0.707107,0,0.707107]},{"name":"wheel spoke 0","mesh":2,"translation":[0,0,0]},{"name":"gondola 0","mesh":3,"translation":[0,6.25,4.45],"scale":[0.75,0.65,0.55]},{"name":"wheel spoke 1","mesh":4,"translation":[0,0,0]},{"name":"wheel spoke 2","mesh":5,"translation":[0,0,0]},{"name":"gondola 2","mesh":6,"translation":[0,10.510982,2.398019],"scale":[0.75,0.65,0.55]},{"name":"wheel spoke 3","mesh":7,"translation":[0,0,0]},{"name":"wheel spoke 4","mesh":8,"translation":[0,0,0]},{"name":"gondola 4","mesh":3,"translation":[0,11.563357,-2.212739],"scale":[0.75,0.65,0.55]},{"name":"wheel spoke 5","mesh":9,"translation":[0,0,0]},{"name":"wheel spoke 6","mesh":10,"translation":[0,0,0]},{"name":"gondola 6","mesh":6,"translation":[0,8.614666,-5.91028],"scale":[0.75,0.65,0.55]},{"name":"wheel spoke 7","mesh":11,"translation":[0,0,0]},{"name":"wheel spoke 8","mesh":12,"translation":[0,0,0]},{"name":"gondola 8","mesh":3,"translation":[0,3.885334,-5.91028],"scale":[0.75,0.65,0.55]},{"name":"wheel spoke 9","mesh":13,"translation":[0,0,0]},{"name":"wheel spoke 10","mesh":14,"translation":[0,0,0]},{"name":"gondola 10","mesh":6,"translation":[0,0.936643,-2.212739],"scale":[0.75,0.65,0.55]},{"name":"wheel spoke 11","mesh":15,"translation":[0,0,0]},{"name":"wheel spoke 12","mesh":16,"translation":[0,0,0]},{"name":"gondola 12","mesh":3,"translation":[0,1.989018,2.398019],"scale":[0.75,0.65,0.55]},{"name":"wheel spoke 13","mesh":17,"translation":[0,0,0]},{"name":"left wheel leg","mesh":18,"translation":[0,0,0]},{"name":"right wheel leg","mesh":19,"translation":[0,0,0]},{"name":"midway booth 0","mesh":20,"translation":[-6,1,6],"scale":[2.1,1.8,2]},{"name":"midway booth 1","mesh":21,"translation":[-3.3,1,6],"scale":[2.1,1.8,2]},{"name":"midway booth 2","mesh":20,"translation":[-0.6,1,6],"scale":[2.1,1.8,2]},{"name":"midway booth 3","mesh":21,"translation":[2.1,1,6],"scale":[2.1,1.8,2]},{"name":"midway booth 4","mesh":20,"translation":[4.8,1,6],"scale":[2.1,1.8,2]},{"name":"closed tarp","mesh":22,"translation":[5.2,0.25,2.8],"scale":[4.95,0.12,3.2]},{"name":"surveyed lot","mesh":23,"translation":[0,0.06,0],"scale":[23.52,0.12,21.28]},{"name":"ferris wheel rim","mesh":24,"translation":[0,6.25,-1],"rotation":[0,0.707107,0,0.707107]},{"name":"wheel spoke 0","mesh":25,"translation":[0,0,0]},{"name":"gondola 0","mesh":26,"translation":[0,6.25,4.45],"scale":[0.75,0.65,0.55]},{"name":"wheel spoke 1","mesh":27,"translation":[0,0,0]},{"name":"wheel spoke 2","mesh":28,"translation":[0,0,0]},{"name":"gondola 2","mesh":29,"translation":[0,10.510982,2.398019],"scale":[0.75,0.65,0.55]},{"name":"wheel spoke 3","mesh":30,"translation":[0,0,0]},{"name":"wheel spoke 4","mesh":31,"translation":[0,0,0]},{"name":"gondola 4","mesh":26,"translation":[0,11.563357,-2.212739],"scale":[0.75,0.65,0.55]},{"name":"wheel spoke 5","mesh":32,"translation":[0,0,0]},{"name":"wheel spoke 6","mesh":33,"translation":[0,0,0]},{"name":"gondola 6","mesh":29,"translation":[0,8.614666,-5.91028],"scale":[0.75,0.65,0.55]},{"name":"wheel spoke 7","mesh":34,"translation":[0,0,0]},{"name":"wheel spoke 8","mesh":35,"translation":[0,0,0]},{"name":"gondola 8","mesh":26,"translation":[0,3.885334,-5.91028],"scale":[0.75,0.65,0.55]},{"name":"wheel spoke 9","mesh":36,"translation":[0,0,0]},{"name":"wheel spoke 10","mesh":37,"translation":[0,0,0]},{"name":"gondola 10","mesh":29,"translation":[0,0.936643,-2.212739],"scale":[0.75,0.65,0.55]},{"name":"wheel spoke 11","mesh":38,"translation":[0,0,0]},{"name":"wheel spoke 12","mesh":39,"translation":[0,0,0]},{"name":"gondola 12","mesh":26,"translation":[0,1.989018,2.398019],"scale":[0.75,0.65,0.55]},{"name":"wheel spoke 13","mesh":40,"translation":[0,0,0]},{"name":"left wheel leg","mesh":41,"translation":[0,0,0]},{"name":"right wheel leg","mesh":42,"translation":[0,0,0]},{"name":"midway booth 0","mesh":43,"translation":[-6,1,6],"scale":[2.1,1.8,2]},{"name":"midway booth 1","mesh":44,"translation":[-3.3,1,6],"scale":[2.1,1.8,2]},{"name":"midway booth 2","mesh":43,"translation":[-0.6,1,6],"scale":[2.1,1.8,2]},{"name":"midway booth 3","mesh":44,"translation":[2.1,1,6],"scale":[2.1,1.8,2]},{"name":"midway booth 4","mesh":43,"translation":[4.8,1,6],"scale":[2.1,1.8,2]},{"name":"closed tarp","mesh":45,"translation":[5.2,0.25,2.8],"scale":[4.95,0.12,3.2]},{"name":"surveyed lot","mesh":23,"translation":[0,0.06,0],"scale":[23.52,0.12,21.28]},{"name":"ferris wheel rim","mesh":46,"translation":[0,6.25,-1],"rotation":[0,0.707107,0,0.707107]},{"name":"wheel spoke 0","mesh":47,"translation":[0,0,0]},{"name":"wheel spoke 1","mesh":48,"translation":[0,0,0]},{"name":"wheel spoke 2","mesh":49,"translation":[0,0,0]},{"name":"wheel spoke 3","mesh":50,"translation":[0,0,0]},{"name":"left wheel leg","mesh":51,"translation":[0,0,0]},{"name":"right wheel leg","mesh":52,"translation":[0,0,0]},{"name":"closed tarp","mesh":45,"translation":[5.2,0.25,2.8],"scale":[4.95,0.12,3.2]}],"meshes":[{"primitives":[{"attributes":{"POSITION":0,"NORMAL":1,"TEXCOORD_0":2},"material":0,"mode":4}]},{"primitives":[{"attributes":{"POSITION":3,"NORMAL":4,"TEXCOORD_0":5},"material":1,"mode":4,"indices":6}]},{"primitives":[{"attributes":{"POSITION":7,"NORMAL":8,"TEXCOORD_0":9},"material":2,"mode":4,"indices":10}]},{"primitives":[{"attributes":{"POSITION":0,"NORMAL":1,"TEXCOORD_0":11},"material":3,"mode":4}]},{"primitives":[{"attributes":{"POSITION":12,"NORMAL":13,"TEXCOORD_0":9},"material":2,"mode":4,"indices":10}]},{"primitives":[{"attributes":{"POSITION":14,"NORMAL":15,"TEXCOORD_0":9},"material":2,"mode":4,"indices":10}]},{"primitives":[{"attributes":{"POSITION":0,"NORMAL":1,"TEXCOORD_0":11},"material":4,"mode":4}]},{"primitives":[{"attributes":{"POSITION":16,"NORMAL":17,"TEXCOORD_0":9},"material":2,"mode":4,"indices":10}]},{"primitives":[{"attributes":{"POSITION":18,"NORMAL":19,"TEXCOORD_0":9},"material":2,"mode":4,"indices":10}]},{"primitives":[{"attributes":{"POSITION":20,"NORMAL":21,"TEXCOORD_0":9},"material":2,"mode":4,"indices":10}]},{"primitives":[{"attributes":{"POSITION":22,"NORMAL":23,"TEXCOORD_0":9},"material":2,"mode":4,"indices":10}]},{"primitives":[{"attributes":{"POSITION":24,"NORMAL":25,"TEXCOORD_0":9},"material":2,"mode":4,"indices":10}]},{"primitives":[{"attributes":{"POSITION":26,"NORMAL":27,"TEXCOORD_0":9},"material":2,"mode":4,"indices":10}]},{"primitives":[{"attributes":{"POSITION":28,"NORMAL":29,"TEXCOORD_0":9},"material":2,"mode":4,"indices":10}]},{"primitives":[{"attributes":{"POSITION":30,"NORMAL":31,"TEXCOORD_0":9},"material":2,"mode":4,"indices":10}]},{"primitives":[{"attributes":{"POSITION":32,"NORMAL":33,"TEXCOORD_0":9},"material":2,"mode":4,"indices":10}]},{"primitives":[{"attributes":{"POSITION":34,"NORMAL":35,"TEXCOORD_0":9},"material":2,"mode":4,"indices":10}]},{"primitives":[{"attributes":{"POSITION":36,"NORMAL":37,"TEXCOORD_0":9},"material":2,"mode":4,"indices":10}]},{"primitives":[{"attributes":{"POSITION":38,"NORMAL":39,"TEXCOORD_0":40},"material":1,"mode":4,"indices":10}]},{"primitives":[{"attributes":{"POSITION":41,"NORMAL":42,"TEXCOORD_0":40},"material":1,"mode":4,"indices":10}]},{"primitives":[{"attributes":{"POSITION":0,"NORMAL":1,"TEXCOORD_0":43},"material":4,"mode":4}]},{"primitives":[{"attributes":{"POSITION":0,"NORMAL":1,"TEXCOORD_0":43},"material":3,"mode":4}]},{"primitives":[{"attributes":{"POSITION":0,"NORMAL":1,"TEXCOORD_0":44},"material":5,"mode":4}]},{"primitives":[{"attributes":{"POSITION":45,"NORMAL":46,"TEXCOORD_0":47},"material":0,"mode":4,"indices":48}]},{"primitives":[{"attributes":{"POSITION":49,"NORMAL":50,"TEXCOORD_0":51},"material":1,"mode":4,"indices":52}]},{"primitives":[{"attributes":{"POSITION":53,"NORMAL":54,"TEXCOORD_0":55},"material":2,"mode":4,"indices":56}]},{"primitives":[{"attributes":{"POSITION":45,"NORMAL":46,"TEXCOORD_0":57},"material":3,"mode":4,"indices":48}]},{"primitives":[{"attributes":{"POSITION":58,"NORMAL":59,"TEXCOORD_0":55},"material":2,"mode":4,"indices":56}]},{"primitives":[{"attributes":{"POSITION":60,"NORMAL":61,"TEXCOORD_0":55},"material":2,"mode":4,"indices":56}]},{"primitives":[{"attributes":{"POSITION":45,"NORMAL":46,"TEXCOORD_0":57},"material":4,"mode":4,"indices":48}]},{"primitives":[{"attributes":{"POSITION":62,"NORMAL":63,"TEXCOORD_0":55},"material":2,"mode":4,"indices":56}]},{"primitives":[{"attributes":{"POSITION":64,"NORMAL":65,"TEXCOORD_0":55},"material":2,"mode":4,"indices":56}]},{"primitives":[{"attributes":{"POSITION":66,"NORMAL":67,"TEXCOORD_0":55},"material":2,"mode":4,"indices":56}]},{"primitives":[{"attributes":{"POSITION":68,"NORMAL":69,"TEXCOORD_0":55},"material":2,"mode":4,"indices":56}]},{"primitives":[{"attributes":{"POSITION":70,"NORMAL":71,"TEXCOORD_0":55},"material":2,"mode":4,"indices":56}]},{"primitives":[{"attributes":{"POSITION":72,"NORMAL":73,"TEXCOORD_0":55},"material":2,"mode":4,"indices":56}]},{"primitives":[{"attributes":{"POSITION":74,"NORMAL":75,"TEXCOORD_0":55},"material":2,"mode":4,"indices":56}]},{"primitives":[{"attributes":{"POSITION":76,"NORMAL":77,"TEXCOORD_0":55},"material":2,"mode":4,"indices":56}]},{"primitives":[{"attributes":{"POSITION":78,"NORMAL":79,"TEXCOORD_0":55},"material":2,"mode":4,"indices":56}]},{"primitives":[{"attributes":{"POSITION":80,"NORMAL":81,"TEXCOORD_0":55},"material":2,"mode":4,"indices":56}]},{"primitives":[{"attributes":{"POSITION":82,"NORMAL":83,"TEXCOORD_0":55},"material":2,"mode":4,"indices":56}]},{"primitives":[{"attributes":{"POSITION":84,"NORMAL":85,"TEXCOORD_0":86},"material":1,"mode":4,"indices":56}]},{"primitives":[{"attributes":{"POSITION":87,"NORMAL":88,"TEXCOORD_0":86},"material":1,"mode":4,"indices":56}]},{"primitives":[{"attributes":{"POSITION":45,"NORMAL":46,"TEXCOORD_0":89},"material":4,"mode":4,"indices":48}]},{"primitives":[{"attributes":{"POSITION":45,"NORMAL":46,"TEXCOORD_0":89},"material":3,"mode":4,"indices":48}]},{"primitives":[{"attributes":{"POSITION":45,"NORMAL":46,"TEXCOORD_0":90},"material":5,"mode":4,"indices":48}]},{"primitives":[{"attributes":{"POSITION":91,"NORMAL":92,"TEXCOORD_0":93},"material":1,"mode":4,"indices":94}]},{"primitives":[{"attributes":{"POSITION":95,"NORMAL":96,"TEXCOORD_0":97},"material":2,"mode":4,"indices":98}]},{"primitives":[{"attributes":{"POSITION":99,"NORMAL":100,"TEXCOORD_0":97},"material":2,"mode":4,"indices":98}]},{"primitives":[{"attributes":{"POSITION":101,"NORMAL":102,"TEXCOORD_0":97},"material":2,"mode":4,"indices":98}]},{"primitives":[{"attributes":{"POSITION":103,"NORMAL":104,"TEXCOORD_0":97},"material":2,"mode":4,"indices":98}]},{"primitives":[{"attributes":{"POSITION":105,"NORMAL":106,"TEXCOORD_0":107},"material":1,"mode":4,"indices":98}]},{"primitives":[{"attributes":{"POSITION":108,"NORMAL":109,"TEXCOORD_0":107},"material":1,"mode":4,"indices":98}]}],"materials":[{"name":"concrete","pbrMetallicRoughness":{"baseColorTexture":{"index":0},"metallicRoughnessTexture":{"index":2},"roughnessFactor":1,"metallicFactor":1},"normalTexture":{"index":1,"scale":0.82},"occlusionTexture":{"index":2,"strength":0.35}},{"name":"metal-dark","pbrMetallicRoughness":{"baseColorTexture":{"index":3},"metallicRoughnessTexture":{"index":5},"roughnessFactor":1,"metallicFactor":1},"normalTexture":{"index":4,"scale":0.35},"occlusionTexture":{"index":5,"strength":0.35}},{"name":"metal-galvanized","pbrMetallicRoughness":{"baseColorTexture":{"index":6},"metallicRoughnessTexture":{"index":8},"roughnessFactor":1,"metallicFactor":1},"normalTexture":{"index":7,"scale":0.15},"occlusionTexture":{"index":8,"strength":0.35}},{"name":"paint-red","pbrMetallicRoughness":{"baseColorFactor":[0.46778379610254284,0.08021982030622662,0.05126945836711539,1],"roughnessFactor":0.62,"metallicFactor":0.05}},{"name":"paint-yellow","pbrMetallicRoughness":{"baseColorFactor":[0.76052450467022,0.4793201830913402,0.07818742179702069,1],"roughnessFactor":0.66,"metallicFactor":0.03}},{"name":"paint-blue","pbrMetallicRoughness":{"baseColorFactor":[0.05126945836711539,0.10946171076915331,0.22696587349938613,1],"roughnessFactor":0.58,"metallicFactor":0.05}}],"textures":[{"source":0,"sampler":0},{"source":1,"sampler":0},{"source":2,"sampler":0},{"source":3,"sampler":0},{"source":4,"sampler":0},{"source":5,"sampler":0},{"source":6,"sampler":0},{"source":7,"sampler":0},{"source":8,"sampler":0}],"images":[{"uri":"../textures/concrete-albedo.png"},{"uri":"../textures/concrete-normal.png"},{"uri":"../textures/concrete-orm.png"},{"uri":"../textures/metal-dark-albedo.png"},{"uri":"../textures/metal-dark-normal.png"},{"uri":"../textures/metal-dark-orm.png"},{"uri":"../textures/metal-galvanized-albedo.png"},{"uri":"../textures/metal-galvanized-normal.png"},{"uri":"../textures/metal-galvanized-orm.png"}],"samplers":[{"magFilter":9729,"minFilter":9987,"wrapS":10497,"wrapT":10497}],"buffers":[{"uri":"../shared/geometry.bin","byteLength":16435520}],"bufferViews":[{"buffer":0,"byteOffset":0,"byteLength":3888,"target":34962},{"buffer":0,"byteOffset":3888,"byteLength":3888,"target":34962},{"buffer":0,"byteOffset":3244880,"byteLength":2592,"target":34962},{"buffer":0,"byteOffset":2944196,"byteLength":3132,"target":34962},{"buffer":0,"byteOffset":390704,"byteLength":3132,"target":34962},{"buffer":0,"byteOffset":2835332,"byteLength":2088,"target":34962},{"buffer":0,"byteOffset":395924,"byteLength":2688,"target":34963},{"buffer":0,"byteOffset":2947328,"byteLength":972,"target":34962},{"buffer":0,"byteOffset":2838392,"byteLength":972,"target":34962},{"buffer":0,"byteOffset":409952,"byteLength":648,"target":34962},{"buffer":0,"byteOffset":410600,"byteLength":768,"target":34963},{"buffer":0,"byteOffset":2839364,"byteLength":2592,"target":34962},{"buffer":0,"byteOffset":3247472,"byteLength":972,"target":34962},{"buffer":0,"byteOffset":3168548,"byteLength":972,"target":34962},{"buffer":0,"byteOffset":3248444,"byteLength":972,"target":34962},{"buffer":0,"byteOffset":3170492,"byteLength":972,"target":34962},{"buffer":0,"byteOffset":3249416,"byteLength":972,"target":34962},{"buffer":0,"byteOffset":3172436,"byteLength":972,"target":34962},{"buffer":0,"byteOffset":3250388,"byteLength":972,"target":34962},{"buffer":0,"byteOffset":3174380,"byteLength":972,"target":34962},{"buffer":0,"byteOffset":3251360,"byteLength":972,"target":34962},{"buffer":0,"byteOffset":3176324,"byteLength":972,"target":34962},{"buffer":0,"byteOffset":3252332,"byteLength":972,"target":34962},{"buffer":0,"byteOffset":3178268,"byteLength":972,"target":34962},{"buffer":0,"byteOffset":2952188,"byteLength":972,"target":34962},{"buffer":0,"byteOffset":2921696,"byteLength":972,"target":34962},{"buffer":0,"byteOffset":3253304,"byteLength":972,"target":34962},{"buffer":0,"byteOffset":3180212,"byteLength":972,"target":34962},{"buffer":0,"byteOffset":3254276,"byteLength":972,"target":34962},{"buffer":0,"byteOffset":3182156,"byteLength":972,"target":34962},{"buffer":0,"byteOffset":3255248,"byteLength":972,"target":34962},{"buffer":0,"byteOffset":3184100,"byteLength":972,"target":34962},{"buffer":0,"byteOffset":3256220,"byteLength":972,"target":34962},{"buffer":0,"byteOffset":3186044,"byteLength":972,"target":34962},{"buffer":0,"byteOffset":3257192,"byteLength":972,"target":34962},{"buffer":0,"byteOffset":3214460,"byteLength":972,"target":34962},{"buffer":0,"byteOffset":3258164,"byteLength":972,"target":34962},{"buffer":0,"byteOffset":3216404,"byteLength":972,"target":34962},{"buffer":0,"byteOffset":2957048,"byteLength":972,"target":34962},{"buffer":0,"byteOffset":2958020,"byteLength":972,"target":34962},{"buffer":0,"byteOffset":2857508,"byteLength":648,"target":34962},{"buffer":0,"byteOffset":2958992,"byteLength":972,"target":34962},{"buffer":0,"byteOffset":2959964,"byteLength":972,"target":34962},{"buffer":0,"byteOffset":2860100,"byteLength":2592,"target":34962},{"buffer":0,"byteOffset":3292208,"byteLength":2592,"target":34962},{"buffer":0,"byteOffset":46644,"byteLength":288,"target":34962},{"buffer":0,"byteOffset":45952,"byteLength":288,"target":34962},{"buffer":0,"byteOffset":3259136,"byteLength":192,"target":34962},{"buffer":0,"byteOffset":46432,"byteLength":72,"target":34963},{"buffer":0,"byteOffset":2961128,"byteLength":1428,"target":34962},{"buffer":0,"byteOffset":427996,"byteLength":1428,"target":34962},{"buffer":0,"byteOffset":2864312,"byteLength":952,"target":34962},{"buffer":0,"byteOffset":430376,"byteLength":1152,"target":34963},{"buffer":0,"byteOffset":2962556,"byteLength":420,"target":34962},{"buffer":0,"byteOffset":2865684,"byteLength":420,"target":34962},{"buffer":0,"byteOffset":433796,"byteLength":280,"target":34962},{"buffer":0,"byteOffset":434076,"byteLength":288,"target":34963},{"buffer":0,"byteOffset":2866104,"byteLength":192,"target":34962},{"buffer":0,"byteOffset":3259328,"byteLength":420,"target":34962},{"buffer":0,"byteOffset":3191516,"byteLength":420,"target":34962},{"buffer":0,"byteOffset":3259748,"byteLength":420,"target":34962},{"buffer":0,"byteOffset":3192356,"byteLength":420,"target":34962},{"buffer":0,"byteOffset":3260168,"byteLength":420,"target":34962},{"buffer":0,"byteOffset":3193196,"byteLength":420,"target":34962},{"buffer":0,"byteOffset":3260588,"byteLength":420,"target":34962},{"buffer":0,"byteOffset":3194036,"byteLength":420,"target":34962},{"buffer":0,"byteOffset":3261008,"byteLength":420,"target":34962},{"buffer":0,"byteOffset":3194876,"byteLength":420,"target":34962},{"buffer":0,"byteOffset":3261428,"byteLength":420,"target":34962},{"buffer":0,"byteOffset":3195716,"byteLength":420,"target":34962},{"buffer":0,"byteOffset":2964656,"byteLength":420,"target":34962},{"buffer":0,"byteOffset":2934584,"byteLength":420,"target":34962},{"buffer":0,"byteOffset":3261848,"byteLength":420,"target":34962},{"buffer":0,"byteOffset":3196556,"byteLength":420,"target":34962},{"buffer":0,"byteOffset":3262268,"byteLength":420,"target":34962},{"buffer":0,"byteOffset":3197396,"byteLength":420,"target":34962},{"buffer":0,"byteOffset":3262688,"byteLength":420,"target":34962},{"buffer":0,"byteOffset":3198236,"byteLength":420,"target":34962},{"buffer":0,"byteOffset":3263108,"byteLength":420,"target":34962},{"buffer":0,"byteOffset":3199076,"byteLength":420,"target":34962},{"buffer":0,"byteOffset":3263528,"byteLength":420,"target":34962},{"buffer":0,"byteOffset":3199916,"byteLength":420,"target":34962},{"buffer":0,"byteOffset":3263948,"byteLength":420,"target":34962},{"buffer":0,"byteOffset":3223028,"byteLength":420,"target":34962},{"buffer":0,"byteOffset":2966756,"byteLength":420,"target":34962},{"buffer":0,"byteOffset":2967176,"byteLength":420,"target":34962},{"buffer":0,"byteOffset":2873016,"byteLength":280,"target":34962},{"buffer":0,"byteOffset":2967596,"byteLength":420,"target":34962},{"buffer":0,"byteOffset":2968016,"byteLength":420,"target":34962},{"buffer":0,"byteOffset":2874136,"byteLength":192,"target":34962},{"buffer":0,"byteOffset":3294800,"byteLength":192,"target":34962},{"buffer":0,"byteOffset":2968436,"byteLength":660,"target":34962},{"buffer":0,"byteOffset":437788,"byteLength":660,"target":34962},{"buffer":0,"byteOffset":2874988,"byteLength":440,"target":34962},{"buffer":0,"byteOffset":438888,"byteLength":480,"target":34963},{"buffer":0,"byteOffset":2969096,"byteLength":300,"target":34962},{"buffer":0,"byteOffset":2875728,"byteLength":300,"target":34962},{"buffer":0,"byteOffset":439968,"byteLength":200,"target":34962},{"buffer":0,"byteOffset":440168,"byteLength":192,"target":34963},{"buffer":0,"byteOffset":2969396,"byteLength":300,"target":34962},{"buffer":0,"byteOffset":2969696,"byteLength":300,"target":34962},{"buffer":0,"byteOffset":2969996,"byteLength":300,"target":34962},{"buffer":0,"byteOffset":2939804,"byteLength":300,"target":34962},{"buffer":0,"byteOffset":2970296,"byteLength":300,"target":34962},{"buffer":0,"byteOffset":2970596,"byteLength":300,"target":34962},{"buffer":0,"byteOffset":2970896,"byteLength":300,"target":34962},{"buffer":0,"byteOffset":2971196,"byteLength":300,"target":34962},{"buffer":0,"byteOffset":2878428,"byteLength":200,"target":34962},{"buffer":0,"byteOffset":2971496,"byteLength":300,"target":34962},{"buffer":0,"byteOffset":2971796,"byteLength":300,"target":34962}],"accessors":[{"bufferView":0,"componentType":5126,"count":324,"type":"VEC3","min":[-0.5,-0.5,-0.5],"max":[0.5,0.5,0.5]},{"bufferView":1,"componentType":5126,"count":324,"type":"VEC3"},{"bufferView":2,"componentType":5126,"count":324,"type":"VEC2"},{"bufferView":3,"componentType":5126,"count":261,"type":"VEC3","min":[-5.630000114440918,-5.630000114440918,-0.18000000715255737],"max":[5.630000114440918,5.630000114440918,0.18000000715255737]},{"bufferView":4,"componentType":5126,"count":261,"type":"VEC3"},{"bufferView":5,"componentType":5126,"count":261,"type":"VEC2"},{"bufferView":6,"componentType":5123,"count":1344,"type":"SCALAR"},{"bufferView":7,"componentType":5126,"count":81,"type":"VEC3","min":[-0.054999999701976776,6.195000171661377,-1],"max":[0.054999999701976776,6.304999828338623,4.449999809265137]},{"bufferView":8,"componentType":5126,"count":81,"type":"VEC3"},{"bufferView":9,"componentType":5126,"count":81,"type":"VEC2"},{"bufferView":10,"componentType":5123,"count":384,"type":"SCALAR"},{"bufferView":11,"componentType":5126,"count":324,"type":"VEC2"},{"bufferView":12,"componentType":5126,"count":81,"type":"VEC3","min":[-0.054999999701976776,6.200446605682373,-1.0238635540008545],"max":[0.054999999701976776,8.664219856262207,3.9341440200805664]},{"bufferView":13,"componentType":5126,"count":81,"type":"VEC3"},{"bufferView":14,"componentType":5126,"count":81,"type":"VEC3","min":[-0.054999999701976776,6.215708255767822,-1.0430006980895996],"max":[0.054999999701976776,10.545273780822754,2.4410202503204346]},{"bufferView":15,"componentType":5126,"count":81,"type":"VEC3"},{"bufferView":16,"componentType":5126,"count":81,"type":"VEC3","min":[-0.054999999701976776,6.237761497497559,-1.0536210536956787],"max":[0.054999999701976776,11.57559585571289,0.2663601338863373]},{"bufferView":17,"componentType":5126,"count":81,"type":"VEC3"},{"bufferView":18,"componentType":5126,"count":81,"type":"VEC3","min":[-0.054999999701976776,6.237761497497559,-2.26636004447937],"max":[0.054999999701976776,11.57559585571289,-0.9463789463043213]},{"bufferView":19,"componentType":5126,"count":81,"type":"VEC3"},{"bufferView":20,"componentType":5126,"count":81,"type":"VEC3","min":[-0.054999999701976776,6.215708255767822,-4.4410200119018555],"max":[0.054999999701976776,10.545273780822754,-0.9569992423057556]},{"bufferView":21,"componentType":5126,"count":81,"type":"VEC3"},{"bufferView":22,"componentType":5126,"count":81,"type":"VEC3","min":[-0.054999999701976776,6.200446605682373,-5.934144020080566],"max":[0.054999999701976776,8.664219856262207,-0.9761363863945007]},{"bufferView":23,"componentType":5126,"count":81,"type":"VEC3"},{"bufferView":24,"componentType":5126,"count":81,"type":"VEC3","min":[-0.054999999701976776,6.195000171661377,-6.449999809265137],"max":[0.054999999701976776,6.304999828338623,-1]},{"bufferView":25,"componentType":5126,"count":81,"type":"VEC3"},{"bufferView":26,"componentType":5126,"count":81,"type":"VEC3","min":[-0.054999999701976776,3.835780382156372,-5.934144020080566],"max":[0.054999999701976776,6.299553394317627,-0.9761363863945007]},{"bufferView":27,"componentType":5126,"count":81,"type":"VEC3"},{"bufferView":28,"componentType":5126,"count":81,"type":"VEC3","min":[-0.054999999701976776,1.9547264575958252,-4.4410200119018555],"max":[0.054999999701976776,6.284291744232178,-0.9569992423057556]},{"bufferView":29,"componentType":5126,"count":81,"type":"VEC3"},{"bufferView":30,"componentType":5126,"count":81,"type":"VEC3","min":[-0.054999999701976776,0.9244042038917542,-2.26636004447937],"max":[0.054999999701976776,6.262238502502441,-0.9463789463043213]},{"bufferView":31,"componentType":5126,"count":81,"type":"VEC3"},{"bufferView":32,"componentType":5126,"count":81,"type":"VEC3","min":[-0.054999999701976776,0.9244042038917542,-1.0536210536956787],"max":[0.054999999701976776,6.262238502502441,0.2663601338863373]},{"bufferView":33,"componentType":5126,"count":81,"type":"VEC3"},{"bufferView":34,"componentType":5126,"count":81,"type":"VEC3","min":[-0.054999999701976776,1.9547264575958252,-1.0430006980895996],"max":[0.054999999701976776,6.284291744232178,2.4410202503204346]},{"bufferView":35,"componentType":5126,"count":81,"type":"VEC3"},{"bufferView":36,"componentType":5126,"count":81,"type":"VEC3","min":[-0.054999999701976776,3.835780382156372,-1.0238635540008545],"max":[0.054999999701976776,6.299553394317627,3.9341440200805664]},{"bufferView":37,"componentType":5126,"count":81,"type":"VEC3"},{"bufferView":38,"componentType":5126,"count":81,"type":"VEC3","min":[-3.5743536949157715,0.10201617330312729,-1.2000000476837158],"max":[0.17435356974601746,6.3479838371276855,-0.800000011920929]},{"bufferView":39,"componentType":5126,"count":81,"type":"VEC3"},{"bufferView":40,"componentType":5126,"count":81,"type":"VEC2"},{"bufferView":41,"componentType":5126,"count":81,"type":"VEC3","min":[-0.17435356974601746,0.10201617330312729,-1.2000000476837158],"max":[3.5743536949157715,6.3479838371276855,-0.800000011920929]},{"bufferView":42,"componentType":5126,"count":81,"type":"VEC3"},{"bufferView":43,"componentType":5126,"count":324,"type":"VEC2"},{"bufferView":44,"componentType":5126,"count":324,"type":"VEC2"},{"bufferView":45,"componentType":5126,"count":24,"type":"VEC3","min":[-0.5,-0.5,-0.5],"max":[0.5,0.5,0.5]},{"bufferView":46,"componentType":5126,"count":24,"type":"VEC3"},{"bufferView":47,"componentType":5126,"count":24,"type":"VEC2"},{"bufferView":48,"componentType":5123,"count":36,"type":"SCALAR"},{"bufferView":49,"componentType":5126,"count":119,"type":"VEC3","min":[-5.630000114440918,-5.630000114440918,-0.15588457882404327],"max":[5.630000114440918,5.630000114440918,0.15588457882404327]},{"bufferView":50,"componentType":5126,"count":119,"type":"VEC3"},{"bufferView":51,"componentType":5126,"count":119,"type":"VEC2"},{"bufferView":52,"componentType":5123,"count":576,"type":"SCALAR"},{"bufferView":53,"componentType":5126,"count":35,"type":"VEC3","min":[-0.0476313978433609,6.195000171661377,-1],"max":[0.0476313978433609,6.304999828338623,4.449999809265137]},{"bufferView":54,"componentType":5126,"count":35,"type":"VEC3"},{"bufferView":55,"componentType":5126,"count":35,"type":"VEC2"},{"bufferView":56,"componentType":5123,"count":144,"type":"SCALAR"},{"bufferView":57,"componentType":5126,"count":24,"type":"VEC2"},{"bufferView":58,"componentType":5126,"count":35,"type":"VEC3","min":[-0.054999999701976776,6.207085609436035,-1.020666480064392],"max":[0.054999999701976776,8.657580375671387,3.9309468269348145]},{"bufferView":59,"componentType":5126,"count":35,"type":"VEC3"},{"bufferView":60,"componentType":5126,"count":35,"type":"VEC3","min":[-0.054999999701976776,6.220302104949951,-1.037239670753479],"max":[0.054999999701976776,10.540678977966309,2.4352591037750244]},{"bufferView":61,"componentType":5126,"count":35,"type":"VEC3"},{"bufferView":62,"componentType":5126,"count":35,"type":"VEC3","min":[-0.054999999701976776,6.239400863647461,-1.04643714427948],"max":[0.054999999701976776,11.573956489562988,0.25917625427246094]},{"bufferView":63,"componentType":5126,"count":35,"type":"VEC3"},{"bufferView":64,"componentType":5126,"count":35,"type":"VEC3","min":[-0.054999999701976776,6.239400863647461,-2.259176254272461],"max":[0.054999999701976776,11.573956489562988,-0.9535627961158752]},{"bufferView":65,"componentType":5126,"count":35,"type":"VEC3"},{"bufferView":66,"componentType":5126,"count":35,"type":"VEC3","min":[-0.054999999701976776,6.220302104949951,-4.4352593421936035],"max":[0.054999999701976776,10.540678977966309,-0.9627602696418762]},{"bufferView":67,"componentType":5126,"count":35,"type":"VEC3"},{"bufferView":68,"componentType":5126,"count":35,"type":"VEC3","min":[-0.054999999701976776,6.207085609436035,-5.9309468269348145],"max":[0.054999999701976776,8.657580375671387,-0.9793335199356079]},{"bufferView":69,"componentType":5126,"count":35,"type":"VEC3"},{"bufferView":70,"componentType":5126,"count":35,"type":"VEC3","min":[-0.0476313978433609,6.195000171661377,-6.449999809265137],"max":[0.0476313978433609,6.304999828338623,-1]},{"bufferView":71,"componentType":5126,"count":35,"type":"VEC3"},{"bufferView":72,"componentType":5126,"count":35,"type":"VEC3","min":[-0.054999999701976776,3.842419147491455,-5.9309468269348145],"max":[0.054999999701976776,6.292914390563965,-0.9793335199356079]},{"bufferView":73,"componentType":5126,"count":35,"type":"VEC3"},{"bufferView":74,"componentType":5126,"count":35,"type":"VEC3","min":[-0.054999999701976776,1.9593207836151123,-4.4352593421936035],"max":[0.054999999701976776,6.279697895050049,-0.9627602696418762]},{"bufferView":75,"componentType":5126,"count":35,"type":"VEC3"},{"bufferView":76,"componentType":5126,"count":35,"type":"VEC3","min":[-0.054999999701976776,0.9260438680648804,-2.259176254272461],"max":[0.054999999701976776,6.260599136352539,-0.9535627961158752]},{"bufferView":77,"componentType":5126,"count":35,"type":"VEC3"},{"bufferView":78,"componentType":5126,"count":35,"type":"VEC3","min":[-0.054999999701976776,0.9260438680648804,-1.04643714427948],"max":[0.054999999701976776,6.260599136352539,0.25917625427246094]},{"bufferView":79,"componentType":5126,"count":35,"type":"VEC3"},{"bufferView":80,"componentType":5126,"count":35,"type":"VEC3","min":[-0.054999999701976776,1.9593207836151123,-1.037239670753479],"max":[0.054999999701976776,6.279697895050049,2.4352591037750244]},{"bufferView":81,"componentType":5126,"count":35,"type":"VEC3"},{"bufferView":82,"componentType":5126,"count":35,"type":"VEC3","min":[-0.054999999701976776,3.842419147491455,-1.020666480064392],"max":[0.054999999701976776,6.292914390563965,3.9309468269348145]},{"bufferView":83,"componentType":5126,"count":35,"type":"VEC3"},{"bufferView":84,"componentType":5126,"count":35,"type":"VEC3","min":[-3.550994634628296,0.11514351516962051,-1.2000000476837158],"max":[0.15099462866783142,6.3348565101623535,-0.800000011920929]},{"bufferView":85,"componentType":5126,"count":35,"type":"VEC3"},{"bufferView":86,"componentType":5126,"count":35,"type":"VEC2"},{"bufferView":87,"componentType":5126,"count":35,"type":"VEC3","min":[-0.15099462866783142,0.11514351516962051,-1.2000000476837158],"max":[3.550994634628296,6.3348565101623535,-0.800000011920929]},{"bufferView":88,"componentType":5126,"count":35,"type":"VEC3"},{"bufferView":89,"componentType":5126,"count":24,"type":"VEC2"},{"bufferView":90,"componentType":5126,"count":24,"type":"VEC2"},{"bufferView":91,"componentType":5126,"count":55,"type":"VEC3","min":[-5.630000114440918,-5.354448318481445,-0.18000000715255737],"max":[5.630000114440918,5.354448318481445,0.18000000715255737]},{"bufferView":92,"componentType":5126,"count":55,"type":"VEC3"},{"bufferView":93,"componentType":5126,"count":55,"type":"VEC2"},{"bufferView":94,"componentType":5123,"count":240,"type":"SCALAR"},{"bufferView":95,"componentType":5126,"count":25,"type":"VEC3","min":[-0.054999999701976776,6.195000171661377,-1],"max":[0.054999999701976776,6.304999828338623,4.449999809265137]},{"bufferView":96,"componentType":5126,"count":25,"type":"VEC3"},{"bufferView":97,"componentType":5126,"count":25,"type":"VEC2"},{"bufferView":98,"componentType":5123,"count":96,"type":"SCALAR"},{"bufferView":99,"componentType":5126,"count":25,"type":"VEC3","min":[-0.054999999701976776,6.25,-1.0549999475479126],"max":[0.054999999701976776,11.699999809265137,-0.9449999928474426]},{"bufferView":100,"componentType":5126,"count":25,"type":"VEC3"},{"bufferView":101,"componentType":5126,"count":25,"type":"VEC3","min":[-0.054999999701976776,6.195000171661377,-6.449999809265137],"max":[0.054999999701976776,6.304999828338623,-1]},{"bufferView":102,"componentType":5126,"count":25,"type":"VEC3"},{"bufferView":103,"componentType":5126,"count":25,"type":"VEC3","min":[-0.054999999701976776,0.800000011920929,-1.0549999475479126],"max":[0.054999999701976776,6.25,-0.9449999928474426]},{"bufferView":104,"componentType":5126,"count":25,"type":"VEC3"},{"bufferView":105,"componentType":5126,"count":25,"type":"VEC3","min":[-3.5743536949157715,0.10201617330312729,-1.2000000476837158],"max":[0.17435356974601746,6.3479838371276855,-0.800000011920929]},{"bufferView":106,"componentType":5126,"count":25,"type":"VEC3"},{"bufferView":107,"componentType":5126,"count":25,"type":"VEC2"},{"bufferView":108,"componentType":5126,"count":25,"type":"VEC3","min":[-0.17435356974601746,0.10201617330312729,-1.2000000476837158],"max":[3.5743536949157715,6.3479838371276855,-0.800000011920929]},{"bufferView":109,"componentType":5126,"count":25,"type":"VEC3"}],"extensionsUsed":["KHR_materials_unlit"],"extras":{"id":"vlt-county-fair-midway-39","family":"county-fair-midway","variant":38,"plan":"D4-2","units":"metres","up":"+Y","front":"+Z","lodScenes":[0,1,2]}}