{"asset":{"version":"2.0","generator":"SLOPMERICA Department of Unnecessary Development 1.0"},"scene":0,"scenes":[{"name":"LOD 0","nodes":[0,1,2,3,4,5,6,7,8,9,10,11],"extras":{"level":0}},{"name":"LOD 1","nodes":[12,13,14,15,16,17,18,19,20,21,22,23],"extras":{"level":1}},{"name":"LOD 2","nodes":[24,25,26,27,28,29,30,31,32,33],"extras":{"level":2}}],"nodes":[{"name":"site-pad","mesh":0,"translation":[0,0.06,0],"scale":[3.39456,0.12,2.59584]},{"name":"variant-apron","mesh":1,"translation":[0.63648,0.13,1.468],"scale":[1.2,0.08,1.34]},{"name":"bollard-0","mesh":2,"translation":[-1.24032,0.43,1.588],"scale":[0.08,0.74,0.08]},{"name":"bollard-1","mesh":2,"translation":[1.24032,0.43,1.588],"scale":[0.08,0.74,0.08]},{"name":"layout-cabinet","mesh":3,"translation":[1.832,0.525,0.5616],"scale":[0.81,0.81,0.32]},{"name":"kiosk","mesh":4,"translation":[0,1.56,0],"scale":[3.264,2.88,2.496]},{"name":"awning","mesh":5,"translation":[0.15,2.55,1.698],"scale":[4.164,0.18,1.15]},{"name":"ticket-window","mesh":6,"translation":[0,1.45,1.368],"scale":[1.25,1.1,0.1]},{"name":"fare-machine-0","mesh":7,"translation":[-0.25,0.72,1.668],"scale":[0.38,1.15,0.32]},{"name":"fare-machine-1","mesh":7,"translation":[0.25,0.72,1.668],"scale":[0.38,1.15,0.32]},{"name":"token-sign-back","mesh":8,"translation":[0,2.35,1.428],"scale":[2.5,0.82,1]},{"name":"token-sign","mesh":9,"translation":[0,2.35,1.457],"scale":[2.4,0.72,1]},{"name":"site-pad","mesh":10,"translation":[0,0.06,0],"scale":[3.39456,0.12,2.59584]},{"name":"variant-apron","mesh":11,"translation":[0.63648,0.13,1.468],"scale":[1.2,0.08,1.34]},{"name":"bollard-0","mesh":12,"translation":[-1.24032,0.43,1.588],"scale":[0.08,0.74,0.08]},{"name":"bollard-1","mesh":12,"translation":[1.24032,0.43,1.588],"scale":[0.08,0.74,0.08]},{"name":"layout-cabinet","mesh":13,"translation":[1.832,0.525,0.5616],"scale":[0.81,0.81,0.32]},{"name":"kiosk","mesh":14,"translation":[0,1.56,0],"scale":[3.264,2.88,2.496]},{"name":"awning","mesh":15,"translation":[0.15,2.55,1.698],"scale":[4.164,0.18,1.15]},{"name":"ticket-window","mesh":16,"translation":[0,1.45,1.368],"scale":[1.25,1.1,0.1]},{"name":"fare-machine-0","mesh":17,"translation":[-0.25,0.72,1.668],"scale":[0.38,1.15,0.32]},{"name":"fare-machine-1","mesh":17,"translation":[0.25,0.72,1.668],"scale":[0.38,1.15,0.32]},{"name":"token-sign-back","mesh":8,"translation":[0,2.35,1.428],"scale":[2.5,0.82,1]},{"name":"token-sign","mesh":9,"translation":[0,2.35,1.457],"scale":[2.4,0.72,1]},{"name":"site-pad","mesh":10,"translation":[0,0.06,0],"scale":[3.39456,0.12,2.59584]},{"name":"variant-apron","mesh":11,"translation":[0.63648,0.13,1.468],"scale":[1.2,0.08,1.34]},{"name":"bollard-0","mesh":12,"translation":[-1.24032,0.43,1.588],"scale":[0.08,0.74,0.08]},{"name":"layout-cabinet","mesh":13,"translation":[1.832,0.525,0.5616],"scale":[0.81,0.81,0.32]},{"name":"kiosk","mesh":14,"translation":[0,1.56,0],"scale":[3.264,2.88,2.496]},{"name":"awning","mesh":15,"translation":[0.15,2.55,1.698],"scale":[4.164,0.18,1.15]},{"name":"ticket-window","mesh":16,"translation":[0,1.45,1.368],"scale":[1.25,1.1,0.1]},{"name":"fare-machine-0","mesh":17,"translation":[0,0.72,1.668],"scale":[0.38,1.15,0.32]},{"name":"token-sign-back","mesh":8,"translation":[0,2.35,1.428],"scale":[2.5,0.82,1]},{"name":"token-sign","mesh":9,"translation":[0,2.35,1.457],"scale":[2.4,0.72,1]}],"meshes":[{"primitives":[{"attributes":{"POSITION":0,"NORMAL":1,"TEXCOORD_0":2},"material":0,"mode":4}]},{"primitives":[{"attributes":{"POSITION":0,"NORMAL":1,"TEXCOORD_0":3},"material":1,"mode":4}]},{"primitives":[{"attributes":{"POSITION":4,"NORMAL":5,"TEXCOORD_0":6},"material":2,"mode":4,"indices":7}]},{"primitives":[{"attributes":{"POSITION":0,"NORMAL":1,"TEXCOORD_0":8},"material":3,"mode":4}]},{"primitives":[{"attributes":{"POSITION":9,"NORMAL":1,"TEXCOORD_0":10},"material":4,"mode":4}]},{"primitives":[{"attributes":{"POSITION":0,"NORMAL":1,"TEXCOORD_0":11},"material":5,"mode":4}]},{"primitives":[{"attributes":{"POSITION":0,"NORMAL":1,"TEXCOORD_0":12},"material":6,"mode":4}]},{"primitives":[{"attributes":{"POSITION":0,"NORMAL":1,"TEXCOORD_0":13},"material":7,"mode":4}]},{"primitives":[{"attributes":{"POSITION":14,"NORMAL":15,"TEXCOORD_0":16},"material":7,"mode":4,"indices":17}]},{"primitives":[{"attributes":{"POSITION":18,"NORMAL":19,"TEXCOORD_0":20},"material":8,"mode":4,"indices":21}]},{"primitives":[{"attributes":{"POSITION":22,"NORMAL":15,"TEXCOORD_0":23},"material":0,"mode":4,"indices":17}]},{"primitives":[{"attributes":{"POSITION":22,"NORMAL":15,"TEXCOORD_0":24},"material":1,"mode":4,"indices":17}]},{"primitives":[{"attributes":{"POSITION":25,"NORMAL":26,"TEXCOORD_0":27},"material":2,"mode":4,"indices":28}]},{"primitives":[{"attributes":{"POSITION":22,"NORMAL":15,"TEXCOORD_0":29},"material":3,"mode":4,"indices":17}]},{"primitives":[{"attributes":{"POSITION":22,"NORMAL":15,"TEXCOORD_0":30},"material":4,"mode":4,"indices":17}]},{"primitives":[{"attributes":{"POSITION":22,"NORMAL":15,"TEXCOORD_0":31},"material":5,"mode":4,"indices":17}]},{"primitives":[{"attributes":{"POSITION":22,"NORMAL":15,"TEXCOORD_0":32},"material":6,"mode":4,"indices":17}]},{"primitives":[{"attributes":{"POSITION":22,"NORMAL":15,"TEXCOORD_0":33},"material":7,"mode":4,"indices":17}]}],"materials":[{"name":"concrete","pbrMetallicRoughness":{"baseColorTexture":{"index":0},"metallicRoughnessTexture":{"index":2},"roughnessFactor":1,"metallicFactor":1},"normalTexture":{"index":1,"scale":0.82},"occlusionTexture":{"index":2,"strength":0.35}},{"name":"asphalt","pbrMetallicRoughness":{"baseColorTexture":{"index":3},"metallicRoughnessTexture":{"index":5},"roughnessFactor":1,"metallicFactor":1},"normalTexture":{"index":4,"scale":0.62},"occlusionTexture":{"index":5,"strength":0.35}},{"name":"paint-yellow","pbrMetallicRoughness":{"baseColorFactor":[0.76052450467022,0.4793201830913402,0.07818742179702069,1],"roughnessFactor":0.66,"metallicFactor":0.03}},{"name":"metal-galvanized","pbrMetallicRoughness":{"baseColorTexture":{"index":6},"metallicRoughnessTexture":{"index":8},"roughnessFactor":1,"metallicFactor":1},"normalTexture":{"index":7,"scale":0.15},"occlusionTexture":{"index":8,"strength":0.35}},{"name":"paint-teal","pbrMetallicRoughness":{"baseColorFactor":[0.040915196900556984,0.20507873637973145,0.1878207722902346,1],"roughnessFactor":0.59,"metallicFactor":0.05}},{"name":"roof-metal","pbrMetallicRoughness":{"baseColorTexture":{"index":9},"metallicRoughnessTexture":{"index":11},"roughnessFactor":1,"metallicFactor":1},"normalTexture":{"index":10,"scale":0.68},"occlusionTexture":{"index":11,"strength":0.35}},{"name":"glass-blue","pbrMetallicRoughness":{"baseColorTexture":{"index":12},"metallicRoughnessTexture":{"index":14},"roughnessFactor":1,"metallicFactor":1},"normalTexture":{"index":13,"scale":0.12},"occlusionTexture":{"index":14,"strength":0.35}},{"name":"metal-dark","pbrMetallicRoughness":{"baseColorTexture":{"index":15},"metallicRoughnessTexture":{"index":17},"roughnessFactor":1,"metallicFactor":1},"normalTexture":{"index":16,"scale":0.35},"occlusionTexture":{"index":17,"strength":0.35}},{"name":"transit-token-kiosk signage","pbrMetallicRoughness":{"baseColorTexture":{"index":18},"roughnessFactor":1,"metallicFactor":0},"extensions":{"KHR_materials_unlit":{}}}],"textures":[{"source":0,"sampler":0},{"source":1,"sampler":0},{"source":2,"sampler":0},{"source":3,"sampler":0},{"source":4,"sampler":0},{"source":5,"sampler":0},{"source":6,"sampler":0},{"source":7,"sampler":0},{"source":8,"sampler":0},{"source":9,"sampler":0},{"source":10,"sampler":0},{"source":11,"sampler":0},{"source":12,"sampler":0},{"source":13,"sampler":0},{"source":14,"sampler":0},{"source":15,"sampler":0},{"source":16,"sampler":0},{"source":17,"sampler":0},{"source":18,"sampler":0}],"images":[{"uri":"../textures/concrete-albedo.png"},{"uri":"../textures/concrete-normal.png"},{"uri":"../textures/concrete-orm.png"},{"uri":"../textures/asphalt-albedo.png"},{"uri":"../textures/asphalt-normal.png"},{"uri":"../textures/asphalt-orm.png"},{"uri":"../textures/metal-galvanized-albedo.png"},{"uri":"../textures/metal-galvanized-normal.png"},{"uri":"../textures/metal-galvanized-orm.png"},{"uri":"../textures/roof-metal-albedo.png"},{"uri":"../textures/roof-metal-normal.png"},{"uri":"../textures/roof-metal-orm.png"},{"uri":"../textures/glass-blue-albedo.png"},{"uri":"../textures/glass-blue-normal.png"},{"uri":"../textures/glass-blue-orm.png"},{"uri":"../textures/metal-dark-albedo.png"},{"uri":"../textures/metal-dark-normal.png"},{"uri":"../textures/metal-dark-orm.png"},{"uri":"../signs/transit-token-kiosk.png"}],"samplers":[{"magFilter":9729,"minFilter":9987,"wrapS":10497,"wrapT":10497}],"buffers":[{"uri":"../shared/geometry.bin","byteLength":16435520}],"bufferViews":[{"buffer":0,"byteOffset":0,"byteLength":3888,"target":34962},{"buffer":0,"byteOffset":3888,"byteLength":3888,"target":34962},{"buffer":0,"byteOffset":15224396,"byteLength":2592,"target":34962},{"buffer":0,"byteOffset":1381464,"byteLength":2592,"target":34962},{"buffer":0,"byteOffset":12960,"byteLength":1200,"target":34962},{"buffer":0,"byteOffset":14160,"byteLength":1200,"target":34962},{"buffer":0,"byteOffset":179140,"byteLength":800,"target":34962},{"buffer":0,"byteOffset":16160,"byteLength":384,"target":34963},{"buffer":0,"byteOffset":185860,"byteLength":2592,"target":34962},{"buffer":0,"byteOffset":822696,"byteLength":3888,"target":34962},{"buffer":0,"byteOffset":15226988,"byteLength":2592,"target":34962},{"buffer":0,"byteOffset":15296780,"byteLength":2592,"target":34962},{"buffer":0,"byteOffset":15218252,"byteLength":2592,"target":34962},{"buffer":0,"byteOffset":15220844,"byteLength":2592,"target":34962},{"buffer":0,"byteOffset":45664,"byteLength":288,"target":34962},{"buffer":0,"byteOffset":45952,"byteLength":288,"target":34962},{"buffer":0,"byteOffset":46240,"byteLength":192,"target":34962},{"buffer":0,"byteOffset":46432,"byteLength":72,"target":34963},{"buffer":0,"byteOffset":46504,"byteLength":48,"target":34962},{"buffer":0,"byteOffset":46552,"byteLength":48,"target":34962},{"buffer":0,"byteOffset":188452,"byteLength":32,"target":34962},{"buffer":0,"byteOffset":46632,"byteLength":12,"target":34963},{"buffer":0,"byteOffset":46644,"byteLength":288,"target":34962},{"buffer":0,"byteOffset":15232172,"byteLength":192,"target":34962},{"buffer":0,"byteOffset":1386840,"byteLength":192,"target":34962},{"buffer":0,"byteOffset":47316,"byteLength":480,"target":34962},{"buffer":0,"byteOffset":47796,"byteLength":480,"target":34962},{"buffer":0,"byteOffset":182756,"byteLength":320,"target":34962},{"buffer":0,"byteOffset":48596,"byteLength":144,"target":34963},{"buffer":0,"byteOffset":188676,"byteLength":192,"target":34962},{"buffer":0,"byteOffset":15232364,"byteLength":192,"target":34962},{"buffer":0,"byteOffset":15299372,"byteLength":192,"target":34962},{"buffer":0,"byteOffset":15224012,"byteLength":192,"target":34962},{"buffer":0,"byteOffset":15224204,"byteLength":192,"target":34962}],"accessors":[{"bufferView":0,"componentType":5126,"count":324,"type":"VEC3","min":[-0.5,-0.5,-0.5],"max":[0.5,0.5,0.5]},{"bufferView":1,"componentType":5126,"count":324,"type":"VEC3"},{"bufferView":2,"componentType":5126,"count":324,"type":"VEC2"},{"bufferView":3,"componentType":5126,"count":324,"type":"VEC2"},{"bufferView":4,"componentType":5126,"count":100,"type":"VEC3","min":[-1,-0.5,-1],"max":[1,0.5,1]},{"bufferView":5,"componentType":5126,"count":100,"type":"VEC3"},{"bufferView":6,"componentType":5126,"count":100,"type":"VEC2"},{"bufferView":7,"componentType":5123,"count":192,"type":"SCALAR"},{"bufferView":8,"componentType":5126,"count":324,"type":"VEC2"},{"bufferView":9,"componentType":5126,"count":324,"type":"VEC3","min":[-0.5,-0.5,-0.5],"max":[0.5,0.5,0.5]},{"bufferView":10,"componentType":5126,"count":324,"type":"VEC2"},{"bufferView":11,"componentType":5126,"count":324,"type":"VEC2"},{"bufferView":12,"componentType":5126,"count":324,"type":"VEC2"},{"bufferView":13,"componentType":5126,"count":324,"type":"VEC2"},{"bufferView":14,"componentType":5126,"count":24,"type":"VEC3","min":[-0.5,-0.5,-0.02500000037252903],"max":[0.5,0.5,0.02500000037252903]},{"bufferView":15,"componentType":5126,"count":24,"type":"VEC3"},{"bufferView":16,"componentType":5126,"count":24,"type":"VEC2"},{"bufferView":17,"componentType":5123,"count":36,"type":"SCALAR"},{"bufferView":18,"componentType":5126,"count":4,"type":"VEC3","min":[-0.5,-0.5,0],"max":[0.5,0.5,0]},{"bufferView":19,"componentType":5126,"count":4,"type":"VEC3"},{"bufferView":20,"componentType":5126,"count":4,"type":"VEC2"},{"bufferView":21,"componentType":5123,"count":6,"type":"SCALAR"},{"bufferView":22,"componentType":5126,"count":24,"type":"VEC3","min":[-0.5,-0.5,-0.5],"max":[0.5,0.5,0.5]},{"bufferView":23,"componentType":5126,"count":24,"type":"VEC2"},{"bufferView":24,"componentType":5126,"count":24,"type":"VEC2"},{"bufferView":25,"componentType":5126,"count":40,"type":"VEC3","min":[-0.8660253882408142,-0.5,-1],"max":[0.8660253882408142,0.5,1]},{"bufferView":26,"componentType":5126,"count":40,"type":"VEC3"},{"bufferView":27,"componentType":5126,"count":40,"type":"VEC2"},{"bufferView":28,"componentType":5123,"count":72,"type":"SCALAR"},{"bufferView":29,"componentType":5126,"count":24,"type":"VEC2"},{"bufferView":30,"componentType":5126,"count":24,"type":"VEC2"},{"bufferView":31,"componentType":5126,"count":24,"type":"VEC2"},{"bufferView":32,"componentType":5126,"count":24,"type":"VEC2"},{"bufferView":33,"componentType":5126,"count":24,"type":"VEC2"}],"extensionsUsed":["KHR_materials_unlit"],"extras":{"id":"vlt-transit-token-kiosk-17","family":"transit-token-kiosk","variant":16,"plan":"D2-1","units":"metres","up":"+Y","front":"+Z","lodScenes":[0,1,2]}}