{"asset":{"version":"2.0","generator":"SLOPMERICA Department of Unnecessary Development 1.0"},"scene":0,"scenes":[{"name":"LOD 0","nodes":[0,1,2,3,4,5,6,7,8,9,10,11,12,13,14,15,16,17,18,19,20,21,22,23],"extras":{"level":0}},{"name":"LOD 1","nodes":[24,25,26,27,28,29,30,31,32,33,34,35,36,37,38,39,40,41,42,43,44],"extras":{"level":1}},{"name":"LOD 2","nodes":[45,46,47,48,49,50,51,52,53,54,55,56,57,58],"extras":{"level":2}}],"nodes":[{"name":"foundation","mesh":0,"translation":[0,0.08,0],"scale":[19,0.16,11.85]},{"name":"store-shell","mesh":1,"translation":[0,3.045,0],"scale":[16.8,6.09,9.65]},{"name":"roof-cap","mesh":2,"translation":[0,6.2,0],"scale":[17.05,0.22,9.9]},{"name":"window-0","mesh":3,"translation":[-6.216,1.65,4.88],"scale":[1.806452,1.45,0.09]},{"name":"window-1","mesh":3,"translation":[-3.7296,1.65,4.88],"scale":[1.806452,1.45,0.09]},{"name":"window-2","mesh":3,"translation":[-1.2432,1.65,4.88],"scale":[1.806452,1.45,0.09]},{"name":"window-3","mesh":3,"translation":[1.2432,1.65,4.88],"scale":[1.806452,1.45,0.09]},{"name":"window-4","mesh":3,"translation":[3.7296,1.65,4.88],"scale":[1.806452,1.45,0.09]},{"name":"window-5","mesh":3,"translation":[6.216,1.65,4.88],"scale":[1.806452,1.45,0.09]},{"name":"door","mesh":4,"translation":[5.88,1.025,4.895],"scale":[0.92,2.05,0.12]},{"name":"awning","mesh":5,"translation":[0,4.0194,5.305],"rotation":[-0.039989,0,0,0.9992],"scale":[13.776,0.18,1.05]},{"name":"mullion-0","mesh":6,"translation":[-5.376,1.65,4.945],"scale":[0.08,1.55,0.12]},{"name":"mullion-1","mesh":6,"translation":[-1.792,1.65,4.945],"scale":[0.08,1.55,0.12]},{"name":"mullion-2","mesh":6,"translation":[1.792,1.65,4.945],"scale":[0.08,1.55,0.12]},{"name":"mullion-3","mesh":6,"translation":[5.376,1.65,4.945],"scale":[0.08,1.55,0.12]},{"name":"primary-sign-back","mesh":7,"translation":[0,4.8111,4.985],"scale":[7.6,1.25,1]},{"name":"primary-sign","mesh":8,"translation":[0,4.8111,5.014],"scale":[7.5,1.15,1]},{"name":"medical-cross-v","mesh":9,"translation":[4.704,4.0803,4.955],"scale":[1.1,3.2,0.18]},{"name":"medical-cross-h","mesh":10,"translation":[4.704,4.0803,4.965],"scale":[3.2,1.1,0.2]},{"name":"canopy","mesh":11,"translation":[0,4.7502,3.667],"scale":[6.048,0.35,2.2]},{"name":"canopy-post-0","mesh":12,"translation":[-2.4192,2.2851,3.667],"scale":[0.1,4.5702,0.1]},{"name":"canopy-post-1","mesh":12,"translation":[2.4192,2.2851,3.667],"scale":[0.1,4.5702,0.1]},{"name":"open-state-bollard","mesh":13,"translation":[7.224,0.425,5.404],"scale":[0.22,0.85,0.22]},{"name":"open-state-bollard","mesh":13,"translation":[7.224,0.425,5.404],"scale":[0.22,0.85,0.22]},{"name":"foundation","mesh":14,"translation":[0,0.08,0],"scale":[19,0.16,11.85]},{"name":"store-shell","mesh":15,"translation":[0,3.045,0],"scale":[16.8,6.09,9.65]},{"name":"roof-cap","mesh":16,"translation":[0,6.2,0],"scale":[17.05,0.22,9.9]},{"name":"window-0","mesh":17,"translation":[-6.216,1.65,4.88],"scale":[3.612903,1.45,0.09]},{"name":"window-1","mesh":17,"translation":[0,1.65,4.88],"scale":[3.612903,1.45,0.09]},{"name":"window-2","mesh":17,"translation":[6.216,1.65,4.88],"scale":[3.612903,1.45,0.09]},{"name":"door","mesh":18,"translation":[5.88,1.025,4.895],"scale":[0.92,2.05,0.12]},{"name":"awning","mesh":19,"translation":[0,4.0194,5.305],"rotation":[-0.039989,0,0,0.9992],"scale":[13.776,0.18,1.05]},{"name":"mullion-0","mesh":20,"translation":[-5.376,1.65,4.945],"scale":[0.08,1.55,0.12]},{"name":"mullion-1","mesh":20,"translation":[-1.792,1.65,4.945],"scale":[0.08,1.55,0.12]},{"name":"mullion-2","mesh":20,"translation":[1.792,1.65,4.945],"scale":[0.08,1.55,0.12]},{"name":"mullion-3","mesh":20,"translation":[5.376,1.65,4.945],"scale":[0.08,1.55,0.12]},{"name":"primary-sign-back","mesh":7,"translation":[0,4.8111,4.985],"scale":[7.6,1.25,1]},{"name":"primary-sign","mesh":8,"translation":[0,4.8111,5.014],"scale":[7.5,1.15,1]},{"name":"medical-cross-v","mesh":21,"translation":[4.704,4.0803,4.955],"scale":[1.1,3.2,0.18]},{"name":"medical-cross-h","mesh":22,"translation":[4.704,4.0803,4.965],"scale":[3.2,1.1,0.2]},{"name":"canopy","mesh":23,"translation":[0,4.7502,3.667],"scale":[6.048,0.35,2.2]},{"name":"canopy-post-0","mesh":24,"translation":[-2.4192,2.2851,3.667],"scale":[0.1,4.5702,0.1]},{"name":"canopy-post-1","mesh":24,"translation":[2.4192,2.2851,3.667],"scale":[0.1,4.5702,0.1]},{"name":"open-state-bollard","mesh":25,"translation":[7.224,0.425,5.404],"scale":[0.22,0.85,0.22]},{"name":"open-state-bollard","mesh":25,"translation":[7.224,0.425,5.404],"scale":[0.22,0.85,0.22]},{"name":"foundation","mesh":14,"translation":[0,0.08,0],"scale":[19,0.16,11.85]},{"name":"store-shell","mesh":15,"translation":[0,3.045,0],"scale":[16.8,6.09,9.65]},{"name":"roof-cap","mesh":16,"translation":[0,6.2,0],"scale":[17.05,0.22,9.9]},{"name":"window-0","mesh":26,"translation":[0,1.65,4.88],"scale":[10.83871,1.45,0.09]},{"name":"door","mesh":18,"translation":[5.88,1.025,4.895],"scale":[0.92,2.05,0.12]},{"name":"primary-sign-back","mesh":7,"translation":[0,4.8111,4.985],"scale":[7.6,1.25,1]},{"name":"primary-sign","mesh":8,"translation":[0,4.8111,5.014],"scale":[7.5,1.15,1]},{"name":"medical-cross-v","mesh":21,"translation":[4.704,4.0803,4.955],"scale":[1.1,3.2,0.18]},{"name":"medical-cross-h","mesh":22,"translation":[4.704,4.0803,4.965],"scale":[3.2,1.1,0.2]},{"name":"canopy","mesh":23,"translation":[0,4.7502,3.667],"scale":[6.048,0.35,2.2]},{"name":"canopy-post-0","mesh":24,"translation":[-2.4192,2.2851,3.667],"scale":[0.1,4.5702,0.1]},{"name":"canopy-post-1","mesh":24,"translation":[2.4192,2.2851,3.667],"scale":[0.1,4.5702,0.1]},{"name":"open-state-bollard","mesh":25,"translation":[7.224,0.425,5.404],"scale":[0.22,0.85,0.22]},{"name":"open-state-bollard","mesh":25,"translation":[7.224,0.425,5.404],"scale":[0.22,0.85,0.22]}],"meshes":[{"primitives":[{"attributes":{"POSITION":0,"NORMAL":1,"TEXCOORD_0":2},"material":0,"mode":4}]},{"primitives":[{"attributes":{"POSITION":3,"NORMAL":1,"TEXCOORD_0":4},"material":1,"mode":4}]},{"primitives":[{"attributes":{"POSITION":0,"NORMAL":1,"TEXCOORD_0":5},"material":2,"mode":4}]},{"primitives":[{"attributes":{"POSITION":0,"NORMAL":1,"TEXCOORD_0":6},"material":3,"mode":4}]},{"primitives":[{"attributes":{"POSITION":0,"NORMAL":1,"TEXCOORD_0":7},"material":2,"mode":4}]},{"primitives":[{"attributes":{"POSITION":0,"NORMAL":1,"TEXCOORD_0":8},"material":4,"mode":4}]},{"primitives":[{"attributes":{"POSITION":0,"NORMAL":1,"TEXCOORD_0":9},"material":4,"mode":4}]},{"primitives":[{"attributes":{"POSITION":10,"NORMAL":11,"TEXCOORD_0":12},"material":2,"mode":4,"indices":13}]},{"primitives":[{"attributes":{"POSITION":14,"NORMAL":15,"TEXCOORD_0":16},"material":5,"mode":4,"indices":17}]},{"primitives":[{"attributes":{"POSITION":0,"NORMAL":1,"TEXCOORD_0":18},"material":4,"mode":4}]},{"primitives":[{"attributes":{"POSITION":0,"NORMAL":1,"TEXCOORD_0":19},"material":4,"mode":4}]},{"primitives":[{"attributes":{"POSITION":0,"NORMAL":1,"TEXCOORD_0":20},"material":1,"mode":4}]},{"primitives":[{"attributes":{"POSITION":21,"NORMAL":22,"TEXCOORD_0":23},"material":6,"mode":4,"indices":24}]},{"primitives":[{"attributes":{"POSITION":0,"NORMAL":1,"TEXCOORD_0":25},"material":4,"mode":4}]},{"primitives":[{"attributes":{"POSITION":26,"NORMAL":11,"TEXCOORD_0":27},"material":0,"mode":4,"indices":13}]},{"primitives":[{"attributes":{"POSITION":26,"NORMAL":11,"TEXCOORD_0":28},"material":1,"mode":4,"indices":13}]},{"primitives":[{"attributes":{"POSITION":26,"NORMAL":11,"TEXCOORD_0":29},"material":2,"mode":4,"indices":13}]},{"primitives":[{"attributes":{"POSITION":26,"NORMAL":11,"TEXCOORD_0":30},"material":3,"mode":4,"indices":13}]},{"primitives":[{"attributes":{"POSITION":26,"NORMAL":11,"TEXCOORD_0":31},"material":2,"mode":4,"indices":13}]},{"primitives":[{"attributes":{"POSITION":26,"NORMAL":11,"TEXCOORD_0":32},"material":4,"mode":4,"indices":13}]},{"primitives":[{"attributes":{"POSITION":26,"NORMAL":11,"TEXCOORD_0":33},"material":4,"mode":4,"indices":13}]},{"primitives":[{"attributes":{"POSITION":26,"NORMAL":11,"TEXCOORD_0":34},"material":4,"mode":4,"indices":13}]},{"primitives":[{"attributes":{"POSITION":26,"NORMAL":11,"TEXCOORD_0":35},"material":4,"mode":4,"indices":13}]},{"primitives":[{"attributes":{"POSITION":26,"NORMAL":11,"TEXCOORD_0":36},"material":1,"mode":4,"indices":13}]},{"primitives":[{"attributes":{"POSITION":37,"NORMAL":38,"TEXCOORD_0":39},"material":6,"mode":4,"indices":40}]},{"primitives":[{"attributes":{"POSITION":26,"NORMAL":11,"TEXCOORD_0":41},"material":4,"mode":4,"indices":13}]},{"primitives":[{"attributes":{"POSITION":26,"NORMAL":11,"TEXCOORD_0":42},"material":3,"mode":4,"indices":13}]}],"materials":[{"name":"concrete","pbrMetallicRoughness":{"baseColorTexture":{"index":0},"metallicRoughnessTexture":{"index":2},"roughnessFactor":1,"metallicFactor":1},"normalTexture":{"index":1,"scale":0.82},"occlusionTexture":{"index":2,"strength":0.35}},{"name":"paint-white","pbrMetallicRoughness":{"baseColorFactor":[0.7912979403281551,0.7681511472425809,0.6795424696265424,1],"roughnessFactor":0.68,"metallicFactor":0}},{"name":"metal-dark","pbrMetallicRoughness":{"baseColorTexture":{"index":3},"metallicRoughnessTexture":{"index":5},"roughnessFactor":1,"metallicFactor":1},"normalTexture":{"index":4,"scale":0.35},"occlusionTexture":{"index":5,"strength":0.35}},{"name":"glass-blue","pbrMetallicRoughness":{"baseColorTexture":{"index":6},"metallicRoughnessTexture":{"index":8},"roughnessFactor":1,"metallicFactor":1},"normalTexture":{"index":7,"scale":0.12},"occlusionTexture":{"index":8,"strength":0.35}},{"name":"paint-red","pbrMetallicRoughness":{"baseColorFactor":[0.46778379610254284,0.08021982030622662,0.05126945836711539,1],"roughnessFactor":0.62,"metallicFactor":0.05}},{"name":"copay-castle signage","pbrMetallicRoughness":{"baseColorTexture":{"index":9},"roughnessFactor":1,"metallicFactor":0},"extensions":{"KHR_materials_unlit":{}}},{"name":"metal-galvanized","pbrMetallicRoughness":{"baseColorTexture":{"index":10},"metallicRoughnessTexture":{"index":12},"roughnessFactor":1,"metallicFactor":1},"normalTexture":{"index":11,"scale":0.15},"occlusionTexture":{"index":12,"strength":0.35}}],"textures":[{"source":0,"sampler":0},{"source":1,"sampler":0},{"source":2,"sampler":0},{"source":3,"sampler":0},{"source":4,"sampler":0},{"source":5,"sampler":0},{"source":6,"sampler":0},{"source":7,"sampler":0},{"source":8,"sampler":0},{"source":9,"sampler":0},{"source":10,"sampler":0},{"source":11,"sampler":0},{"source":12,"sampler":0}],"images":[{"uri":"../textures/concrete-albedo.png"},{"uri":"../textures/concrete-normal.png"},{"uri":"../textures/concrete-orm.png"},{"uri":"../textures/metal-dark-albedo.png"},{"uri":"../textures/metal-dark-normal.png"},{"uri":"../textures/metal-dark-orm.png"},{"uri":"../textures/glass-blue-albedo.png"},{"uri":"../textures/glass-blue-normal.png"},{"uri":"../textures/glass-blue-orm.png"},{"uri":"../signs/copay-castle.png"},{"uri":"../textures/metal-galvanized-albedo.png"},{"uri":"../textures/metal-galvanized-normal.png"},{"uri":"../textures/metal-galvanized-orm.png"}],"samplers":[{"magFilter":9729,"minFilter":9987,"wrapS":10497,"wrapT":10497}],"buffers":[{"uri":"../shared/geometry.bin","byteLength":16435520}],"bufferViews":[{"buffer":0,"byteOffset":0,"byteLength":3888,"target":34962},{"buffer":0,"byteOffset":3888,"byteLength":3888,"target":34962},{"buffer":0,"byteOffset":973624,"byteLength":2592,"target":34962},{"buffer":0,"byteOffset":33392,"byteLength":3888,"target":34962},{"buffer":0,"byteOffset":2729384,"byteLength":2592,"target":34962},{"buffer":0,"byteOffset":2731976,"byteLength":2592,"target":34962},{"buffer":0,"byteOffset":2677032,"byteLength":2592,"target":34962},{"buffer":0,"byteOffset":1428216,"byteLength":2592,"target":34962},{"buffer":0,"byteOffset":2679624,"byteLength":2592,"target":34962},{"buffer":0,"byteOffset":1433400,"byteLength":2592,"target":34962},{"buffer":0,"byteOffset":45664,"byteLength":288,"target":34962},{"buffer":0,"byteOffset":45952,"byteLength":288,"target":34962},{"buffer":0,"byteOffset":46240,"byteLength":192,"target":34962},{"buffer":0,"byteOffset":46432,"byteLength":72,"target":34963},{"buffer":0,"byteOffset":46504,"byteLength":48,"target":34962},{"buffer":0,"byteOffset":46552,"byteLength":48,"target":34962},{"buffer":0,"byteOffset":141412,"byteLength":32,"target":34962},{"buffer":0,"byteOffset":46632,"byteLength":12,"target":34963},{"buffer":0,"byteOffset":2626344,"byteLength":2592,"target":34962},{"buffer":0,"byteOffset":2628936,"byteLength":2592,"target":34962},{"buffer":0,"byteOffset":2682216,"byteLength":2592,"target":34962},{"buffer":0,"byteOffset":1110072,"byteLength":624,"target":34962},{"buffer":0,"byteOffset":1110696,"byteLength":624,"target":34962},{"buffer":0,"byteOffset":2684808,"byteLength":416,"target":34962},{"buffer":0,"byteOffset":1111736,"byteLength":192,"target":34963},{"buffer":0,"byteOffset":422312,"byteLength":2592,"target":34962},{"buffer":0,"byteOffset":46644,"byteLength":288,"target":34962},{"buffer":0,"byteOffset":983992,"byteLength":192,"target":34962},{"buffer":0,"byteOffset":2734568,"byteLength":192,"target":34962},{"buffer":0,"byteOffset":2734760,"byteLength":192,"target":34962},{"buffer":0,"byteOffset":2685608,"byteLength":192,"target":34962},{"buffer":0,"byteOffset":1447128,"byteLength":192,"target":34962},{"buffer":0,"byteOffset":2685800,"byteLength":192,"target":34962},{"buffer":0,"byteOffset":1447512,"byteLength":192,"target":34962},{"buffer":0,"byteOffset":2635496,"byteLength":192,"target":34962},{"buffer":0,"byteOffset":2635688,"byteLength":192,"target":34962},{"buffer":0,"byteOffset":2685992,"byteLength":192,"target":34962},{"buffer":0,"byteOffset":1112312,"byteLength":480,"target":34962},{"buffer":0,"byteOffset":1112792,"byteLength":480,"target":34962},{"buffer":0,"byteOffset":2686184,"byteLength":320,"target":34962},{"buffer":0,"byteOffset":48596,"byteLength":144,"target":34963},{"buffer":0,"byteOffset":436936,"byteLength":192,"target":34962},{"buffer":0,"byteOffset":2686504,"byteLength":192,"target":34962}],"accessors":[{"bufferView":0,"componentType":5126,"count":324,"type":"VEC3","min":[-0.5,-0.5,-0.5],"max":[0.5,0.5,0.5]},{"bufferView":1,"componentType":5126,"count":324,"type":"VEC3"},{"bufferView":2,"componentType":5126,"count":324,"type":"VEC2"},{"bufferView":3,"componentType":5126,"count":324,"type":"VEC3","min":[-0.5,-0.5,-0.5],"max":[0.5,0.5,0.5]},{"bufferView":4,"componentType":5126,"count":324,"type":"VEC2"},{"bufferView":5,"componentType":5126,"count":324,"type":"VEC2"},{"bufferView":6,"componentType":5126,"count":324,"type":"VEC2"},{"bufferView":7,"componentType":5126,"count":324,"type":"VEC2"},{"bufferView":8,"componentType":5126,"count":324,"type":"VEC2"},{"bufferView":9,"componentType":5126,"count":324,"type":"VEC2"},{"bufferView":10,"componentType":5126,"count":24,"type":"VEC3","min":[-0.5,-0.5,-0.02500000037252903],"max":[0.5,0.5,0.02500000037252903]},{"bufferView":11,"componentType":5126,"count":24,"type":"VEC3"},{"bufferView":12,"componentType":5126,"count":24,"type":"VEC2"},{"bufferView":13,"componentType":5123,"count":36,"type":"SCALAR"},{"bufferView":14,"componentType":5126,"count":4,"type":"VEC3","min":[-0.5,-0.5,0],"max":[0.5,0.5,0]},{"bufferView":15,"componentType":5126,"count":4,"type":"VEC3"},{"bufferView":16,"componentType":5126,"count":4,"type":"VEC2"},{"bufferView":17,"componentType":5123,"count":6,"type":"SCALAR"},{"bufferView":18,"componentType":5126,"count":324,"type":"VEC2"},{"bufferView":19,"componentType":5126,"count":324,"type":"VEC2"},{"bufferView":20,"componentType":5126,"count":324,"type":"VEC2"},{"bufferView":21,"componentType":5126,"count":52,"type":"VEC3","min":[-1,-0.5,-1],"max":[1,0.5,1]},{"bufferView":22,"componentType":5126,"count":52,"type":"VEC3"},{"bufferView":23,"componentType":5126,"count":52,"type":"VEC2"},{"bufferView":24,"componentType":5123,"count":96,"type":"SCALAR"},{"bufferView":25,"componentType":5126,"count":324,"type":"VEC2"},{"bufferView":26,"componentType":5126,"count":24,"type":"VEC3","min":[-0.5,-0.5,-0.5],"max":[0.5,0.5,0.5]},{"bufferView":27,"componentType":5126,"count":24,"type":"VEC2"},{"bufferView":28,"componentType":5126,"count":24,"type":"VEC2"},{"bufferView":29,"componentType":5126,"count":24,"type":"VEC2"},{"bufferView":30,"componentType":5126,"count":24,"type":"VEC2"},{"bufferView":31,"componentType":5126,"count":24,"type":"VEC2"},{"bufferView":32,"componentType":5126,"count":24,"type":"VEC2"},{"bufferView":33,"componentType":5126,"count":24,"type":"VEC2"},{"bufferView":34,"componentType":5126,"count":24,"type":"VEC2"},{"bufferView":35,"componentType":5126,"count":24,"type":"VEC2"},{"bufferView":36,"componentType":5126,"count":24,"type":"VEC2"},{"bufferView":37,"componentType":5126,"count":40,"type":"VEC3","min":[-0.8660253882408142,-0.5,-1],"max":[0.8660253882408142,0.5,1]},{"bufferView":38,"componentType":5126,"count":40,"type":"VEC3"},{"bufferView":39,"componentType":5126,"count":40,"type":"VEC2"},{"bufferView":40,"componentType":5123,"count":72,"type":"SCALAR"},{"bufferView":41,"componentType":5126,"count":24,"type":"VEC2"},{"bufferView":42,"componentType":5126,"count":24,"type":"VEC2"}],"extensionsUsed":["KHR_materials_unlit"],"extras":{"id":"vlt-copay-castle-09","family":"copay-castle","variant":8,"plan":"B4-1","units":"metres","up":"+Y","front":"+Z","lodScenes":[0,1,2]}}