{"asset":{"version":"2.0","generator":"SLOPMERICA Department of Unnecessary Development 1.0"},"scene":0,"scenes":[{"name":"LOD 0","nodes":[0,1,2,3,4,5,6,7,8,9,10,11,12,13,14,15,16,17,18,19],"extras":{"level":0}},{"name":"LOD 1","nodes":[20,21,22,23,24,25,26,27,28,29,30,31,32,33,34,35],"extras":{"level":1}},{"name":"LOD 2","nodes":[36,37,38,39,40,41,42,43,44,45,46,47],"extras":{"level":2}}],"nodes":[{"name":"foundation","mesh":0,"translation":[0,0.08,0],"scale":[23,0.16,12.815]},{"name":"store-a","mesh":1,"translation":[-5.66,2.475,0],"scale":[9.568,4.95,10.615]},{"name":"store-b","mesh":2,"translation":[5.66,2.2275,0],"scale":[9.568,4.455,10.615]},{"name":"sign-a-back","mesh":3,"translation":[-5.66,3.564,5.4275],"scale":[7.172,1.15,1]},{"name":"sign-a","mesh":4,"translation":[-5.66,3.564,5.4565],"scale":[7.072,1.05,1]},{"name":"sign-b-back","mesh":3,"translation":[5.66,3.3165,5.4275],"scale":[7.172,1.15,1]},{"name":"sign-b","mesh":4,"translation":[5.66,3.3165,5.4565],"scale":[7.072,1.05,1]},{"name":"giant-mattress","mesh":5,"translation":[0,5.4,-1.2738],"rotation":[0.046254,0.10711,0.063936,0.991111],"scale":[8.736,0.7,2.9722]},{"name":"busy-state-queue-bar","mesh":6,"translation":[0,0.65,6.68745],"scale":[14.976,0.12,0.12]},{"name":"queue-car-0","mesh":7,"translation":[-6.24,0.34,7.4305],"scale":[1.35,0.65,0.7]},{"name":"queue-car-1","mesh":8,"translation":[-3.12,0.34,8.2797],"scale":[1.35,0.65,0.7]},{"name":"queue-car-2","mesh":7,"translation":[0,0.34,7.4305],"scale":[1.35,0.65,0.7]},{"name":"queue-car-3","mesh":8,"translation":[3.12,0.34,8.2797],"scale":[1.35,0.65,0.7]},{"name":"queue-car-4","mesh":7,"translation":[6.24,0.34,7.4305],"scale":[1.35,0.65,0.7]},{"name":"busy-state-queue-bar","mesh":6,"translation":[0,0.65,6.68745],"scale":[14.976,0.12,0.12]},{"name":"queue-car-0","mesh":7,"translation":[-6.24,0.34,7.4305],"scale":[1.35,0.65,0.7]},{"name":"queue-car-1","mesh":8,"translation":[-3.12,0.34,8.2797],"scale":[1.35,0.65,0.7]},{"name":"queue-car-2","mesh":7,"translation":[0,0.34,7.4305],"scale":[1.35,0.65,0.7]},{"name":"queue-car-3","mesh":8,"translation":[3.12,0.34,8.2797],"scale":[1.35,0.65,0.7]},{"name":"queue-car-4","mesh":7,"translation":[6.24,0.34,7.4305],"scale":[1.35,0.65,0.7]},{"name":"foundation","mesh":9,"translation":[0,0.08,0],"scale":[23,0.16,12.815]},{"name":"store-a","mesh":10,"translation":[-5.66,2.475,0],"scale":[9.568,4.95,10.615]},{"name":"store-b","mesh":11,"translation":[5.66,2.2275,0],"scale":[9.568,4.455,10.615]},{"name":"sign-a-back","mesh":3,"translation":[-5.66,3.564,5.4275],"scale":[7.172,1.15,1]},{"name":"sign-a","mesh":4,"translation":[-5.66,3.564,5.4565],"scale":[7.072,1.05,1]},{"name":"sign-b-back","mesh":3,"translation":[5.66,3.3165,5.4275],"scale":[7.172,1.15,1]},{"name":"sign-b","mesh":4,"translation":[5.66,3.3165,5.4565],"scale":[7.072,1.05,1]},{"name":"giant-mattress","mesh":12,"translation":[0,5.4,-1.2738],"rotation":[0.046254,0.10711,0.063936,0.991111],"scale":[8.736,0.7,2.9722]},{"name":"busy-state-queue-bar","mesh":13,"translation":[0,0.65,6.68745],"scale":[14.976,0.12,0.12]},{"name":"queue-car-0","mesh":14,"translation":[-6.24,0.34,7.4305],"scale":[1.35,0.65,0.7]},{"name":"queue-car-1","mesh":15,"translation":[-3.12,0.34,8.2797],"scale":[1.35,0.65,0.7]},{"name":"queue-car-2","mesh":14,"translation":[0,0.34,7.4305],"scale":[1.35,0.65,0.7]},{"name":"busy-state-queue-bar","mesh":13,"translation":[0,0.65,6.68745],"scale":[14.976,0.12,0.12]},{"name":"queue-car-0","mesh":14,"translation":[-6.24,0.34,7.4305],"scale":[1.35,0.65,0.7]},{"name":"queue-car-1","mesh":15,"translation":[-3.12,0.34,8.2797],"scale":[1.35,0.65,0.7]},{"name":"queue-car-2","mesh":14,"translation":[0,0.34,7.4305],"scale":[1.35,0.65,0.7]},{"name":"foundation","mesh":9,"translation":[0,0.08,0],"scale":[23,0.16,12.815]},{"name":"store-a","mesh":10,"translation":[-5.66,2.475,0],"scale":[9.568,4.95,10.615]},{"name":"store-b","mesh":11,"translation":[5.66,2.2275,0],"scale":[9.568,4.455,10.615]},{"name":"sign-a-back","mesh":3,"translation":[-5.66,3.564,5.4275],"scale":[7.172,1.15,1]},{"name":"sign-a","mesh":4,"translation":[-5.66,3.564,5.4565],"scale":[7.072,1.05,1]},{"name":"sign-b-back","mesh":3,"translation":[5.66,3.3165,5.4275],"scale":[7.172,1.15,1]},{"name":"sign-b","mesh":4,"translation":[5.66,3.3165,5.4565],"scale":[7.072,1.05,1]},{"name":"giant-mattress","mesh":12,"translation":[0,5.4,-1.2738],"rotation":[0.046254,0.10711,0.063936,0.991111],"scale":[8.736,0.7,2.9722]},{"name":"busy-state-queue-bar","mesh":13,"translation":[0,0.65,6.68745],"scale":[14.976,0.12,0.12]},{"name":"queue-car-0","mesh":14,"translation":[-6.24,0.34,7.4305],"scale":[1.35,0.65,0.7]},{"name":"busy-state-queue-bar","mesh":13,"translation":[0,0.65,6.68745],"scale":[14.976,0.12,0.12]},{"name":"queue-car-0","mesh":14,"translation":[-6.24,0.34,7.4305],"scale":[1.35,0.65,0.7]}],"meshes":[{"primitives":[{"attributes":{"POSITION":0,"NORMAL":1,"TEXCOORD_0":2},"material":0,"mode":4}]},{"primitives":[{"attributes":{"POSITION":3,"NORMAL":1,"TEXCOORD_0":4},"material":1,"mode":4}]},{"primitives":[{"attributes":{"POSITION":3,"NORMAL":1,"TEXCOORD_0":5},"material":2,"mode":4}]},{"primitives":[{"attributes":{"POSITION":6,"NORMAL":7,"TEXCOORD_0":8},"material":3,"mode":4,"indices":9}]},{"primitives":[{"attributes":{"POSITION":10,"NORMAL":11,"TEXCOORD_0":12},"material":4,"mode":4,"indices":13}]},{"primitives":[{"attributes":{"POSITION":0,"NORMAL":1,"TEXCOORD_0":14},"material":1,"mode":4}]},{"primitives":[{"attributes":{"POSITION":0,"NORMAL":1,"TEXCOORD_0":15},"material":2,"mode":4}]},{"primitives":[{"attributes":{"POSITION":0,"NORMAL":1,"TEXCOORD_0":16},"material":5,"mode":4}]},{"primitives":[{"attributes":{"POSITION":0,"NORMAL":1,"TEXCOORD_0":16},"material":2,"mode":4}]},{"primitives":[{"attributes":{"POSITION":17,"NORMAL":7,"TEXCOORD_0":18},"material":0,"mode":4,"indices":9}]},{"primitives":[{"attributes":{"POSITION":17,"NORMAL":7,"TEXCOORD_0":19},"material":1,"mode":4,"indices":9}]},{"primitives":[{"attributes":{"POSITION":17,"NORMAL":7,"TEXCOORD_0":20},"material":2,"mode":4,"indices":9}]},{"primitives":[{"attributes":{"POSITION":17,"NORMAL":7,"TEXCOORD_0":21},"material":1,"mode":4,"indices":9}]},{"primitives":[{"attributes":{"POSITION":17,"NORMAL":7,"TEXCOORD_0":22},"material":2,"mode":4,"indices":9}]},{"primitives":[{"attributes":{"POSITION":17,"NORMAL":7,"TEXCOORD_0":23},"material":5,"mode":4,"indices":9}]},{"primitives":[{"attributes":{"POSITION":17,"NORMAL":7,"TEXCOORD_0":23},"material":2,"mode":4,"indices":9}]}],"materials":[{"name":"concrete","pbrMetallicRoughness":{"baseColorTexture":{"index":0},"metallicRoughnessTexture":{"index":2},"roughnessFactor":1,"metallicFactor":1},"normalTexture":{"index":1,"scale":0.82},"occlusionTexture":{"index":2,"strength":0.35}},{"name":"paint-white","pbrMetallicRoughness":{"baseColorFactor":[0.7912979403281551,0.7681511472425809,0.6795424696265424,1],"roughnessFactor":0.68,"metallicFactor":0}},{"name":"paint-blue","pbrMetallicRoughness":{"baseColorFactor":[0.05126945836711539,0.10946171076915331,0.22696587349938613,1],"roughnessFactor":0.58,"metallicFactor":0.05}},{"name":"metal-dark","pbrMetallicRoughness":{"baseColorTexture":{"index":3},"metallicRoughnessTexture":{"index":5},"roughnessFactor":1,"metallicFactor":1},"normalTexture":{"index":4,"scale":0.35},"occlusionTexture":{"index":5,"strength":0.35}},{"name":"mattress-mitosis signage","pbrMetallicRoughness":{"baseColorTexture":{"index":6},"roughnessFactor":1,"metallicFactor":0},"extensions":{"KHR_materials_unlit":{}}},{"name":"paint-red","pbrMetallicRoughness":{"baseColorFactor":[0.46778379610254284,0.08021982030622662,0.05126945836711539,1],"roughnessFactor":0.62,"metallicFactor":0.05}}],"textures":[{"source":0,"sampler":0},{"source":1,"sampler":0},{"source":2,"sampler":0},{"source":3,"sampler":0},{"source":4,"sampler":0},{"source":5,"sampler":0},{"source":6,"sampler":0}],"images":[{"uri":"../textures/concrete-albedo.png"},{"uri":"../textures/concrete-normal.png"},{"uri":"../textures/concrete-orm.png"},{"uri":"../textures/metal-dark-albedo.png"},{"uri":"../textures/metal-dark-normal.png"},{"uri":"../textures/metal-dark-orm.png"},{"uri":"../signs/mattress-mitosis.png"}],"samplers":[{"magFilter":9729,"minFilter":9987,"wrapS":10497,"wrapT":10497}],"buffers":[{"uri":"../shared/geometry.bin","byteLength":16435520}],"bufferViews":[{"buffer":0,"byteOffset":0,"byteLength":3888,"target":34962},{"buffer":0,"byteOffset":3888,"byteLength":3888,"target":34962},{"buffer":0,"byteOffset":8469772,"byteLength":2592,"target":34962},{"buffer":0,"byteOffset":868536,"byteLength":3888,"target":34962},{"buffer":0,"byteOffset":8472364,"byteLength":2592,"target":34962},{"buffer":0,"byteOffset":8474956,"byteLength":2592,"target":34962},{"buffer":0,"byteOffset":45664,"byteLength":288,"target":34962},{"buffer":0,"byteOffset":45952,"byteLength":288,"target":34962},{"buffer":0,"byteOffset":46240,"byteLength":192,"target":34962},{"buffer":0,"byteOffset":46432,"byteLength":72,"target":34963},{"buffer":0,"byteOffset":46504,"byteLength":48,"target":34962},{"buffer":0,"byteOffset":46552,"byteLength":48,"target":34962},{"buffer":0,"byteOffset":222596,"byteLength":32,"target":34962},{"buffer":0,"byteOffset":46632,"byteLength":12,"target":34963},{"buffer":0,"byteOffset":8477548,"byteLength":2592,"target":34962},{"buffer":0,"byteOffset":7786880,"byteLength":2592,"target":34962},{"buffer":0,"byteOffset":582912,"byteLength":2592,"target":34962},{"buffer":0,"byteOffset":46644,"byteLength":288,"target":34962},{"buffer":0,"byteOffset":8480140,"byteLength":192,"target":34962},{"buffer":0,"byteOffset":8480332,"byteLength":192,"target":34962},{"buffer":0,"byteOffset":8480524,"byteLength":192,"target":34962},{"buffer":0,"byteOffset":8480716,"byteLength":192,"target":34962},{"buffer":0,"byteOffset":7789472,"byteLength":192,"target":34962},{"buffer":0,"byteOffset":585696,"byteLength":192,"target":34962}],"accessors":[{"bufferView":0,"componentType":5126,"count":324,"type":"VEC3","min":[-0.5,-0.5,-0.5],"max":[0.5,0.5,0.5]},{"bufferView":1,"componentType":5126,"count":324,"type":"VEC3"},{"bufferView":2,"componentType":5126,"count":324,"type":"VEC2"},{"bufferView":3,"componentType":5126,"count":324,"type":"VEC3","min":[-0.5,-0.5,-0.5],"max":[0.5,0.5,0.5]},{"bufferView":4,"componentType":5126,"count":324,"type":"VEC2"},{"bufferView":5,"componentType":5126,"count":324,"type":"VEC2"},{"bufferView":6,"componentType":5126,"count":24,"type":"VEC3","min":[-0.5,-0.5,-0.02500000037252903],"max":[0.5,0.5,0.02500000037252903]},{"bufferView":7,"componentType":5126,"count":24,"type":"VEC3"},{"bufferView":8,"componentType":5126,"count":24,"type":"VEC2"},{"bufferView":9,"componentType":5123,"count":36,"type":"SCALAR"},{"bufferView":10,"componentType":5126,"count":4,"type":"VEC3","min":[-0.5,-0.5,0],"max":[0.5,0.5,0]},{"bufferView":11,"componentType":5126,"count":4,"type":"VEC3"},{"bufferView":12,"componentType":5126,"count":4,"type":"VEC2"},{"bufferView":13,"componentType":5123,"count":6,"type":"SCALAR"},{"bufferView":14,"componentType":5126,"count":324,"type":"VEC2"},{"bufferView":15,"componentType":5126,"count":324,"type":"VEC2"},{"bufferView":16,"componentType":5126,"count":324,"type":"VEC2"},{"bufferView":17,"componentType":5126,"count":24,"type":"VEC3","min":[-0.5,-0.5,-0.5],"max":[0.5,0.5,0.5]},{"bufferView":18,"componentType":5126,"count":24,"type":"VEC2"},{"bufferView":19,"componentType":5126,"count":24,"type":"VEC2"},{"bufferView":20,"componentType":5126,"count":24,"type":"VEC2"},{"bufferView":21,"componentType":5126,"count":24,"type":"VEC2"},{"bufferView":22,"componentType":5126,"count":24,"type":"VEC2"},{"bufferView":23,"componentType":5126,"count":24,"type":"VEC2"}],"extensionsUsed":["KHR_materials_unlit"],"extras":{"id":"vlt-mattress-mitosis-28","family":"mattress-mitosis","variant":27,"plan":"B3-2","units":"metres","up":"+Y","front":"+Z","lodScenes":[0,1,2]}}