{"asset":{"version":"2.0","generator":"SLOPMERICA Department of Unnecessary Development 1.0"},"scene":0,"scenes":[{"name":"LOD 0","nodes":[0,1,2,3,4,5,6,7,8,9,10,11,12,13,14,15,16,17,18,19,20,21],"extras":{"level":0}},{"name":"LOD 1","nodes":[22,23,24,25,26,27,28,29,30,31,32,33,34,35,36,37],"extras":{"level":1}},{"name":"LOD 2","nodes":[38,39,40,41,42,43,44],"extras":{"level":2}}],"nodes":[{"name":"foundation","mesh":0,"translation":[0,0.08,0],"scale":[28.2,0.16,16.92]},{"name":"parcel-shed","mesh":1,"translation":[0,3.64,0],"scale":[26,7.28,14.72]},{"name":"dock-0","mesh":2,"translation":[-11.142857,1.7472,7.47],"scale":[3.464286,3.0576,0.18]},{"name":"dock-1","mesh":2,"translation":[-7.428571,1.7472,7.47],"scale":[3.464286,3.0576,0.18]},{"name":"dock-2","mesh":2,"translation":[-3.714286,1.7472,7.47],"scale":[3.464286,3.0576,0.18]},{"name":"dock-3","mesh":2,"translation":[0,1.7472,7.47],"scale":[3.464286,3.0576,0.18]},{"name":"dock-4","mesh":2,"translation":[3.714286,1.7472,7.47],"scale":[3.464286,3.0576,0.18]},{"name":"dock-5","mesh":2,"translation":[7.428571,1.7472,7.47],"scale":[3.464286,3.0576,0.18]},{"name":"dock-6","mesh":2,"translation":[11.142857,1.7472,7.47],"scale":[3.464286,3.0576,0.18]},{"name":"conveyor","mesh":3,"translation":[0,1,10.0096],"rotation":[0,-0.059964,0,0.998201],"scale":[19.5,0.45,1]},{"name":"parcel-0","mesh":4,"translation":[-7.28,1.43,10.0096],"scale":[0.55,0.4,0.45]},{"name":"parcel-1","mesh":5,"translation":[-3.64,1.43,10.0096],"rotation":[0,0.099833,0,0.995004],"scale":[0.6,0.4,0.45]},{"name":"parcel-2","mesh":6,"translation":[0,1.43,10.0096],"rotation":[0,0.198669,0,0.980067],"scale":[0.65,0.4,0.45]},{"name":"parcel-3","mesh":7,"translation":[3.64,1.43,10.0096],"rotation":[0,0.29552,0,0.955336],"scale":[0.7,0.4,0.45]},{"name":"parcel-4","mesh":8,"translation":[7.28,1.43,10.0096],"rotation":[0,0.389418,0,0.921061],"scale":[0.75,0.4,0.45]},{"name":"panic-chute","mesh":9,"translation":[0,0,0]},{"name":"busy-state-queue-bar","mesh":10,"translation":[0,0.65,9.2736],"scale":[18.72,0.12,0.12]},{"name":"queue-car-0","mesh":11,"translation":[-7.8,0.34,10.304],"scale":[1.35,0.65,0.7]},{"name":"queue-car-1","mesh":12,"translation":[-3.9,0.34,11.4816],"scale":[1.35,0.65,0.7]},{"name":"queue-car-2","mesh":11,"translation":[0,0.34,10.304],"scale":[1.35,0.65,0.7]},{"name":"queue-car-3","mesh":12,"translation":[3.9,0.34,11.4816],"scale":[1.35,0.65,0.7]},{"name":"queue-car-4","mesh":11,"translation":[7.8,0.34,10.304],"scale":[1.35,0.65,0.7]},{"name":"foundation","mesh":13,"translation":[0,0.08,0],"scale":[28.2,0.16,16.92]},{"name":"parcel-shed","mesh":14,"translation":[0,3.64,0],"scale":[26,7.28,14.72]},{"name":"dock-0","mesh":15,"translation":[-8.666667,1.7472,7.47],"scale":[8.416667,3.0576,0.18]},{"name":"dock-1","mesh":15,"translation":[0,1.7472,7.47],"scale":[8.416667,3.0576,0.18]},{"name":"dock-2","mesh":15,"translation":[8.666667,1.7472,7.47],"scale":[8.416667,3.0576,0.18]},{"name":"conveyor","mesh":16,"translation":[0,1,10.0096],"rotation":[0,-0.059964,0,0.998201],"scale":[19.5,0.45,1]},{"name":"parcel-0","mesh":17,"translation":[-7.28,1.43,10.0096],"scale":[0.55,0.4,0.45]},{"name":"parcel-1","mesh":18,"translation":[-3.64,1.43,10.0096],"rotation":[0,0.099833,0,0.995004],"scale":[0.6,0.4,0.45]},{"name":"parcel-2","mesh":19,"translation":[0,1.43,10.0096],"rotation":[0,0.198669,0,0.980067],"scale":[0.65,0.4,0.45]},{"name":"parcel-3","mesh":20,"translation":[3.64,1.43,10.0096],"rotation":[0,0.29552,0,0.955336],"scale":[0.7,0.4,0.45]},{"name":"parcel-4","mesh":21,"translation":[7.28,1.43,10.0096],"rotation":[0,0.389418,0,0.921061],"scale":[0.75,0.4,0.45]},{"name":"panic-chute","mesh":22,"translation":[0,0,0]},{"name":"busy-state-queue-bar","mesh":23,"translation":[0,0.65,9.2736],"scale":[18.72,0.12,0.12]},{"name":"queue-car-0","mesh":24,"translation":[-7.8,0.34,10.304],"scale":[1.35,0.65,0.7]},{"name":"queue-car-1","mesh":25,"translation":[-3.9,0.34,11.4816],"scale":[1.35,0.65,0.7]},{"name":"queue-car-2","mesh":24,"translation":[0,0.34,10.304],"scale":[1.35,0.65,0.7]},{"name":"foundation","mesh":13,"translation":[0,0.08,0],"scale":[28.2,0.16,16.92]},{"name":"parcel-shed","mesh":14,"translation":[0,3.64,0],"scale":[26,7.28,14.72]},{"name":"dock-0","mesh":26,"translation":[0,1.7472,7.47],"scale":[25.75,3.0576,0.18]},{"name":"conveyor","mesh":16,"translation":[0,1,10.0096],"rotation":[0,-0.059964,0,0.998201],"scale":[19.5,0.45,1]},{"name":"panic-chute","mesh":27,"translation":[0,0,0]},{"name":"busy-state-queue-bar","mesh":23,"translation":[0,0.65,9.2736],"scale":[18.72,0.12,0.12]},{"name":"queue-car-0","mesh":24,"translation":[-7.8,0.34,10.304],"scale":[1.35,0.65,0.7]}],"meshes":[{"primitives":[{"attributes":{"POSITION":0,"NORMAL":1,"TEXCOORD_0":2},"material":0,"mode":4}]},{"primitives":[{"attributes":{"POSITION":3,"NORMAL":1,"TEXCOORD_0":4},"material":1,"mode":4}]},{"primitives":[{"attributes":{"POSITION":0,"NORMAL":1,"TEXCOORD_0":5},"material":2,"mode":4}]},{"primitives":[{"attributes":{"POSITION":0,"NORMAL":1,"TEXCOORD_0":6},"material":3,"mode":4}]},{"primitives":[{"attributes":{"POSITION":0,"NORMAL":1,"TEXCOORD_0":7},"material":4,"mode":4}]},{"primitives":[{"attributes":{"POSITION":0,"NORMAL":1,"TEXCOORD_0":8},"material":5,"mode":4}]},{"primitives":[{"attributes":{"POSITION":0,"NORMAL":1,"TEXCOORD_0":9},"material":4,"mode":4}]},{"primitives":[{"attributes":{"POSITION":0,"NORMAL":1,"TEXCOORD_0":10},"material":5,"mode":4}]},{"primitives":[{"attributes":{"POSITION":0,"NORMAL":1,"TEXCOORD_0":11},"material":4,"mode":4}]},{"primitives":[{"attributes":{"POSITION":12,"NORMAL":13,"TEXCOORD_0":14},"material":3,"mode":4,"indices":15}]},{"primitives":[{"attributes":{"POSITION":0,"NORMAL":1,"TEXCOORD_0":16},"material":3,"mode":4}]},{"primitives":[{"attributes":{"POSITION":0,"NORMAL":1,"TEXCOORD_0":17},"material":6,"mode":4}]},{"primitives":[{"attributes":{"POSITION":0,"NORMAL":1,"TEXCOORD_0":17},"material":7,"mode":4}]},{"primitives":[{"attributes":{"POSITION":18,"NORMAL":19,"TEXCOORD_0":20},"material":0,"mode":4,"indices":21}]},{"primitives":[{"attributes":{"POSITION":18,"NORMAL":19,"TEXCOORD_0":22},"material":1,"mode":4,"indices":21}]},{"primitives":[{"attributes":{"POSITION":18,"NORMAL":19,"TEXCOORD_0":23},"material":2,"mode":4,"indices":21}]},{"primitives":[{"attributes":{"POSITION":18,"NORMAL":19,"TEXCOORD_0":24},"material":3,"mode":4,"indices":21}]},{"primitives":[{"attributes":{"POSITION":18,"NORMAL":19,"TEXCOORD_0":25},"material":4,"mode":4,"indices":21}]},{"primitives":[{"attributes":{"POSITION":18,"NORMAL":19,"TEXCOORD_0":26},"material":5,"mode":4,"indices":21}]},{"primitives":[{"attributes":{"POSITION":18,"NORMAL":19,"TEXCOORD_0":27},"material":4,"mode":4,"indices":21}]},{"primitives":[{"attributes":{"POSITION":18,"NORMAL":19,"TEXCOORD_0":28},"material":5,"mode":4,"indices":21}]},{"primitives":[{"attributes":{"POSITION":18,"NORMAL":19,"TEXCOORD_0":29},"material":4,"mode":4,"indices":21}]},{"primitives":[{"attributes":{"POSITION":30,"NORMAL":31,"TEXCOORD_0":32},"material":3,"mode":4,"indices":33}]},{"primitives":[{"attributes":{"POSITION":18,"NORMAL":19,"TEXCOORD_0":34},"material":3,"mode":4,"indices":21}]},{"primitives":[{"attributes":{"POSITION":18,"NORMAL":19,"TEXCOORD_0":35},"material":6,"mode":4,"indices":21}]},{"primitives":[{"attributes":{"POSITION":18,"NORMAL":19,"TEXCOORD_0":35},"material":7,"mode":4,"indices":21}]},{"primitives":[{"attributes":{"POSITION":18,"NORMAL":19,"TEXCOORD_0":36},"material":2,"mode":4,"indices":21}]},{"primitives":[{"attributes":{"POSITION":37,"NORMAL":38,"TEXCOORD_0":39},"material":3,"mode":4,"indices":40}]}],"materials":[{"name":"concrete","pbrMetallicRoughness":{"baseColorTexture":{"index":0},"metallicRoughnessTexture":{"index":2},"roughnessFactor":1,"metallicFactor":1},"normalTexture":{"index":1,"scale":0.82},"occlusionTexture":{"index":2,"strength":0.35}},{"name":"metal-galvanized","pbrMetallicRoughness":{"baseColorTexture":{"index":3},"metallicRoughnessTexture":{"index":5},"roughnessFactor":1,"metallicFactor":1},"normalTexture":{"index":4,"scale":0.15},"occlusionTexture":{"index":5,"strength":0.35}},{"name":"metal-dark","pbrMetallicRoughness":{"baseColorTexture":{"index":6},"metallicRoughnessTexture":{"index":8},"roughnessFactor":1,"metallicFactor":1},"normalTexture":{"index":7,"scale":0.35},"occlusionTexture":{"index":8,"strength":0.35}},{"name":"paint-orange","pbrMetallicRoughness":{"baseColorFactor":[0.6444796819634361,0.1878207722902346,0.040915196900556984,1],"roughnessFactor":0.68,"metallicFactor":0.03}},{"name":"paint-yellow","pbrMetallicRoughness":{"baseColorFactor":[0.76052450467022,0.4793201830913402,0.07818742179702069,1],"roughnessFactor":0.66,"metallicFactor":0.03}},{"name":"brick-cream","pbrMetallicRoughness":{"baseColorTexture":{"index":9},"metallicRoughnessTexture":{"index":11},"roughnessFactor":1,"metallicFactor":1},"normalTexture":{"index":10,"scale":1.05},"occlusionTexture":{"index":11,"strength":0.35}},{"name":"paint-red","pbrMetallicRoughness":{"baseColorFactor":[0.46778379610254284,0.08021982030622662,0.05126945836711539,1],"roughnessFactor":0.62,"metallicFactor":0.05}},{"name":"paint-blue","pbrMetallicRoughness":{"baseColorFactor":[0.05126945836711539,0.10946171076915331,0.22696587349938613,1],"roughnessFactor":0.58,"metallicFactor":0.05}}],"textures":[{"source":0,"sampler":0},{"source":1,"sampler":0},{"source":2,"sampler":0},{"source":3,"sampler":0},{"source":4,"sampler":0},{"source":5,"sampler":0},{"source":6,"sampler":0},{"source":7,"sampler":0},{"source":8,"sampler":0},{"source":9,"sampler":0},{"source":10,"sampler":0},{"source":11,"sampler":0}],"images":[{"uri":"../textures/concrete-albedo.png"},{"uri":"../textures/concrete-normal.png"},{"uri":"../textures/concrete-orm.png"},{"uri":"../textures/metal-galvanized-albedo.png"},{"uri":"../textures/metal-galvanized-normal.png"},{"uri":"../textures/metal-galvanized-orm.png"},{"uri":"../textures/metal-dark-albedo.png"},{"uri":"../textures/metal-dark-normal.png"},{"uri":"../textures/metal-dark-orm.png"},{"uri":"../textures/brick-cream-albedo.png"},{"uri":"../textures/brick-cream-normal.png"},{"uri":"../textures/brick-cream-orm.png"}],"samplers":[{"magFilter":9729,"minFilter":9987,"wrapS":10497,"wrapT":10497}],"buffers":[{"uri":"../shared/geometry.bin","byteLength":16435520}],"bufferViews":[{"buffer":0,"byteOffset":0,"byteLength":3888,"target":34962},{"buffer":0,"byteOffset":3888,"byteLength":3888,"target":34962},{"buffer":0,"byteOffset":9648656,"byteLength":2592,"target":34962},{"buffer":0,"byteOffset":19136,"byteLength":3888,"target":34962},{"buffer":0,"byteOffset":9664568,"byteLength":2592,"target":34962},{"buffer":0,"byteOffset":9667160,"byteLength":2592,"target":34962},{"buffer":0,"byteOffset":9656432,"byteLength":2592,"target":34962},{"buffer":0,"byteOffset":9597368,"byteLength":2592,"target":34962},{"buffer":0,"byteOffset":9599960,"byteLength":2592,"target":34962},{"buffer":0,"byteOffset":9602552,"byteLength":2592,"target":34962},{"buffer":0,"byteOffset":9605144,"byteLength":2592,"target":34962},{"buffer":0,"byteOffset":9607736,"byteLength":2592,"target":34962},{"buffer":0,"byteOffset":9669752,"byteLength":1404,"target":34962},{"buffer":0,"byteOffset":9671156,"byteLength":1404,"target":34962},{"buffer":0,"byteOffset":2085772,"byteLength":936,"target":34962},{"buffer":0,"byteOffset":2086708,"byteLength":1152,"target":34963},{"buffer":0,"byteOffset":863160,"byteLength":2592,"target":34962},{"buffer":0,"byteOffset":582912,"byteLength":2592,"target":34962},{"buffer":0,"byteOffset":46644,"byteLength":288,"target":34962},{"buffer":0,"byteOffset":45952,"byteLength":288,"target":34962},{"buffer":0,"byteOffset":9661832,"byteLength":192,"target":34962},{"buffer":0,"byteOffset":46432,"byteLength":72,"target":34963},{"buffer":0,"byteOffset":9672560,"byteLength":192,"target":34962},{"buffer":0,"byteOffset":9672752,"byteLength":192,"target":34962},{"buffer":0,"byteOffset":9662408,"byteLength":192,"target":34962},{"buffer":0,"byteOffset":9613904,"byteLength":192,"target":34962},{"buffer":0,"byteOffset":9614096,"byteLength":192,"target":34962},{"buffer":0,"byteOffset":9614288,"byteLength":192,"target":34962},{"buffer":0,"byteOffset":9614480,"byteLength":192,"target":34962},{"buffer":0,"byteOffset":9614672,"byteLength":192,"target":34962},{"buffer":0,"byteOffset":9672944,"byteLength":588,"target":34962},{"buffer":0,"byteOffset":9673532,"byteLength":588,"target":34962},{"buffer":0,"byteOffset":2096012,"byteLength":392,"target":34962},{"buffer":0,"byteOffset":2096404,"byteLength":432,"target":34963},{"buffer":0,"byteOffset":865752,"byteLength":192,"target":34962},{"buffer":0,"byteOffset":585696,"byteLength":192,"target":34962},{"buffer":0,"byteOffset":9674120,"byteLength":192,"target":34962},{"buffer":0,"byteOffset":9674312,"byteLength":300,"target":34962},{"buffer":0,"byteOffset":9674612,"byteLength":300,"target":34962},{"buffer":0,"byteOffset":2100356,"byteLength":200,"target":34962},{"buffer":0,"byteOffset":440168,"byteLength":192,"target":34963}],"accessors":[{"bufferView":0,"componentType":5126,"count":324,"type":"VEC3","min":[-0.5,-0.5,-0.5],"max":[0.5,0.5,0.5]},{"bufferView":1,"componentType":5126,"count":324,"type":"VEC3"},{"bufferView":2,"componentType":5126,"count":324,"type":"VEC2"},{"bufferView":3,"componentType":5126,"count":324,"type":"VEC3","min":[-0.5,-0.5,-0.5],"max":[0.5,0.5,0.5]},{"bufferView":4,"componentType":5126,"count":324,"type":"VEC2"},{"bufferView":5,"componentType":5126,"count":324,"type":"VEC2"},{"bufferView":6,"componentType":5126,"count":324,"type":"VEC2"},{"bufferView":7,"componentType":5126,"count":324,"type":"VEC2"},{"bufferView":8,"componentType":5126,"count":324,"type":"VEC2"},{"bufferView":9,"componentType":5126,"count":324,"type":"VEC2"},{"bufferView":10,"componentType":5126,"count":324,"type":"VEC2"},{"bufferView":11,"componentType":5126,"count":324,"type":"VEC2"},{"bufferView":12,"componentType":5126,"count":117,"type":"VEC3","min":[-13.338455200195312,0.3743259012699127,-3.1491832733154297],"max":[-9.571481704711914,6.121105194091797,9.295598983764648]},{"bufferView":13,"componentType":5126,"count":117,"type":"VEC3"},{"bufferView":14,"componentType":5126,"count":117,"type":"VEC2"},{"bufferView":15,"componentType":5123,"count":576,"type":"SCALAR"},{"bufferView":16,"componentType":5126,"count":324,"type":"VEC2"},{"bufferView":17,"componentType":5126,"count":324,"type":"VEC2"},{"bufferView":18,"componentType":5126,"count":24,"type":"VEC3","min":[-0.5,-0.5,-0.5],"max":[0.5,0.5,0.5]},{"bufferView":19,"componentType":5126,"count":24,"type":"VEC3"},{"bufferView":20,"componentType":5126,"count":24,"type":"VEC2"},{"bufferView":21,"componentType":5123,"count":36,"type":"SCALAR"},{"bufferView":22,"componentType":5126,"count":24,"type":"VEC2"},{"bufferView":23,"componentType":5126,"count":24,"type":"VEC2"},{"bufferView":24,"componentType":5126,"count":24,"type":"VEC2"},{"bufferView":25,"componentType":5126,"count":24,"type":"VEC2"},{"bufferView":26,"componentType":5126,"count":24,"type":"VEC2"},{"bufferView":27,"componentType":5126,"count":24,"type":"VEC2"},{"bufferView":28,"componentType":5126,"count":24,"type":"VEC2"},{"bufferView":29,"componentType":5126,"count":24,"type":"VEC2"},{"bufferView":30,"componentType":5126,"count":49,"type":"VEC3","min":[-13.338455200195312,0.3964337706565857,-3.149595260620117],"max":[-9.571481704711914,6.116037368774414,9.281785011291504]},{"bufferView":31,"componentType":5126,"count":49,"type":"VEC3"},{"bufferView":32,"componentType":5126,"count":49,"type":"VEC2"},{"bufferView":33,"componentType":5123,"count":216,"type":"SCALAR"},{"bufferView":34,"componentType":5126,"count":24,"type":"VEC2"},{"bufferView":35,"componentType":5126,"count":24,"type":"VEC2"},{"bufferView":36,"componentType":5126,"count":24,"type":"VEC2"},{"bufferView":37,"componentType":5126,"count":25,"type":"VEC3","min":[-13.338455200195312,0.3743259012699127,-3.109313488006592],"max":[-9.571481704711914,6.121105194091797,9.268031120300293]},{"bufferView":38,"componentType":5126,"count":25,"type":"VEC3"},{"bufferView":39,"componentType":5126,"count":25,"type":"VEC2"},{"bufferView":40,"componentType":5123,"count":96,"type":"SCALAR"}],"extensionsUsed":["KHR_materials_unlit"],"extras":{"id":"vlt-parcel-panic-25","family":"parcel-panic","variant":24,"plan":"A5-2","units":"metres","up":"+Y","front":"+Z","lodScenes":[0,1,2]}}