{"asset":{"version":"2.0","generator":"SLOPMERICA Department of Unnecessary Development 1.0"},"scene":0,"scenes":[{"name":"LOD 0","nodes":[0,1,2,3,4,5,6,7,8,9,10,11,12,13,14,15,16,17,18,19,20,21,22],"extras":{"level":0}},{"name":"LOD 1","nodes":[23,24,25,26,27,28,29,30,31,32,33,34,35,36,37,38,39,40,41,42,43,44,45],"extras":{"level":1}},{"name":"LOD 2","nodes":[46,47,48,49,50,51,52,53,54,55,56,57],"extras":{"level":2}}],"nodes":[{"name":"surveyed lot","mesh":0,"translation":[0,0.06,0],"scale":[12.48,0.12,8.64]},{"name":"steel tree trunk","mesh":1,"translation":[0,6.5,0],"scale":[0.58,13,0.58]},{"name":"fake branch left 0","mesh":2,"translation":[0,0,0]},{"name":"fake branch right 0","mesh":3,"translation":[0,0,0]},{"name":"fake branch left 1","mesh":4,"translation":[0,0,0]},{"name":"fake branch right 1","mesh":5,"translation":[0,0,0]},{"name":"fake branch left 2","mesh":6,"translation":[0,0,0]},{"name":"fake branch right 2","mesh":7,"translation":[0,0,0]},{"name":"fake branch left 3","mesh":8,"translation":[0,0,0]},{"name":"fake branch right 3","mesh":9,"translation":[0,0,0]},{"name":"fake branch left 4","mesh":10,"translation":[0,0,0]},{"name":"fake branch right 4","mesh":11,"translation":[0,0,0]},{"name":"fake branch left 5","mesh":12,"translation":[0,0,0]},{"name":"fake branch right 5","mesh":13,"translation":[0,0,0]},{"name":"fake branch left 6","mesh":14,"translation":[0,0,0]},{"name":"fake branch right 6","mesh":15,"translation":[0,0,0]},{"name":"fake branch left 7","mesh":16,"translation":[0,0,0]},{"name":"fake branch right 7","mesh":17,"translation":[0,0,0]},{"name":"cell panels","mesh":18,"translation":[0,10.14,0.65],"rotation":[0,0.099833,0,0.995004],"scale":[2.84,1.7,0.28]},{"name":"last tree plaque plinth","mesh":19,"translation":[0,0.6,3.2],"scale":[3.5,1,1.8]},{"name":"last tree plaque-back","mesh":20,"translation":[0,0.75,4.12],"scale":[3,0.8,1]},{"name":"last tree plaque","mesh":21,"translation":[0,0.75,4.149],"scale":[2.9,0.7,1]},{"name":"maintenance cabinet","mesh":22,"translation":[2.8,1.25,-1],"scale":[1.5,2.5,1.2]},{"name":"surveyed lot","mesh":23,"translation":[0,0.06,0],"scale":[12.48,0.12,8.64]},{"name":"steel tree trunk","mesh":24,"translation":[0,6.5,0],"scale":[0.58,13,0.58]},{"name":"fake branch left 0","mesh":25,"translation":[0,0,0]},{"name":"fake branch right 0","mesh":26,"translation":[0,0,0]},{"name":"fake branch left 1","mesh":27,"translation":[0,0,0]},{"name":"fake branch right 1","mesh":28,"translation":[0,0,0]},{"name":"fake branch left 2","mesh":29,"translation":[0,0,0]},{"name":"fake branch right 2","mesh":30,"translation":[0,0,0]},{"name":"fake branch left 3","mesh":31,"translation":[0,0,0]},{"name":"fake branch right 3","mesh":32,"translation":[0,0,0]},{"name":"fake branch left 4","mesh":33,"translation":[0,0,0]},{"name":"fake branch right 4","mesh":34,"translation":[0,0,0]},{"name":"fake branch left 5","mesh":35,"translation":[0,0,0]},{"name":"fake branch right 5","mesh":36,"translation":[0,0,0]},{"name":"fake branch left 6","mesh":37,"translation":[0,0,0]},{"name":"fake branch right 6","mesh":38,"translation":[0,0,0]},{"name":"fake branch left 7","mesh":39,"translation":[0,0,0]},{"name":"fake branch right 7","mesh":40,"translation":[0,0,0]},{"name":"cell panels","mesh":41,"translation":[0,10.14,0.65],"rotation":[0,0.099833,0,0.995004],"scale":[2.84,1.7,0.28]},{"name":"last tree plaque plinth","mesh":42,"translation":[0,0.6,3.2],"scale":[3.5,1,1.8]},{"name":"last tree plaque-back","mesh":20,"translation":[0,0.75,4.12],"scale":[3,0.8,1]},{"name":"last tree plaque","mesh":21,"translation":[0,0.75,4.149],"scale":[2.9,0.7,1]},{"name":"maintenance cabinet","mesh":43,"translation":[2.8,1.25,-1],"scale":[1.5,2.5,1.2]},{"name":"surveyed lot","mesh":23,"translation":[0,0.06,0],"scale":[12.48,0.12,8.64]},{"name":"steel tree trunk","mesh":24,"translation":[0,6.5,0],"scale":[0.58,13,0.58]},{"name":"fake branch left 0","mesh":44,"translation":[0,0,0]},{"name":"fake branch right 0","mesh":45,"translation":[0,0,0]},{"name":"fake branch left 1","mesh":46,"translation":[0,0,0]},{"name":"fake branch right 1","mesh":47,"translation":[0,0,0]},{"name":"fake branch left 2","mesh":48,"translation":[0,0,0]},{"name":"fake branch right 2","mesh":49,"translation":[0,0,0]},{"name":"cell panels","mesh":41,"translation":[0,10.14,0.65],"rotation":[0,0.099833,0,0.995004],"scale":[2.84,1.7,0.28]},{"name":"last tree plaque plinth","mesh":42,"translation":[0,0.6,3.2],"scale":[3.5,1,1.8]},{"name":"last tree plaque-back","mesh":20,"translation":[0,0.75,4.12],"scale":[3,0.8,1]},{"name":"last tree plaque","mesh":21,"translation":[0,0.75,4.149],"scale":[2.9,0.7,1]}],"meshes":[{"primitives":[{"attributes":{"POSITION":0,"NORMAL":1,"TEXCOORD_0":2},"material":0,"mode":4}]},{"primitives":[{"attributes":{"POSITION":3,"NORMAL":4,"TEXCOORD_0":5},"material":1,"mode":4,"indices":6}]},{"primitives":[{"attributes":{"POSITION":7,"NORMAL":8,"TEXCOORD_0":9},"material":2,"mode":4,"indices":10}]},{"primitives":[{"attributes":{"POSITION":11,"NORMAL":12,"TEXCOORD_0":9},"material":2,"mode":4,"indices":10}]},{"primitives":[{"attributes":{"POSITION":13,"NORMAL":14,"TEXCOORD_0":9},"material":2,"mode":4,"indices":10}]},{"primitives":[{"attributes":{"POSITION":15,"NORMAL":16,"TEXCOORD_0":9},"material":2,"mode":4,"indices":10}]},{"primitives":[{"attributes":{"POSITION":17,"NORMAL":18,"TEXCOORD_0":9},"material":2,"mode":4,"indices":10}]},{"primitives":[{"attributes":{"POSITION":19,"NORMAL":20,"TEXCOORD_0":9},"material":2,"mode":4,"indices":10}]},{"primitives":[{"attributes":{"POSITION":21,"NORMAL":22,"TEXCOORD_0":9},"material":2,"mode":4,"indices":10}]},{"primitives":[{"attributes":{"POSITION":23,"NORMAL":24,"TEXCOORD_0":9},"material":2,"mode":4,"indices":10}]},{"primitives":[{"attributes":{"POSITION":25,"NORMAL":26,"TEXCOORD_0":9},"material":2,"mode":4,"indices":10}]},{"primitives":[{"attributes":{"POSITION":27,"NORMAL":28,"TEXCOORD_0":9},"material":2,"mode":4,"indices":10}]},{"primitives":[{"attributes":{"POSITION":29,"NORMAL":30,"TEXCOORD_0":9},"material":2,"mode":4,"indices":10}]},{"primitives":[{"attributes":{"POSITION":31,"NORMAL":32,"TEXCOORD_0":9},"material":2,"mode":4,"indices":10}]},{"primitives":[{"attributes":{"POSITION":33,"NORMAL":34,"TEXCOORD_0":9},"material":2,"mode":4,"indices":10}]},{"primitives":[{"attributes":{"POSITION":35,"NORMAL":36,"TEXCOORD_0":9},"material":2,"mode":4,"indices":10}]},{"primitives":[{"attributes":{"POSITION":37,"NORMAL":38,"TEXCOORD_0":9},"material":2,"mode":4,"indices":10}]},{"primitives":[{"attributes":{"POSITION":39,"NORMAL":40,"TEXCOORD_0":9},"material":2,"mode":4,"indices":10}]},{"primitives":[{"attributes":{"POSITION":0,"NORMAL":1,"TEXCOORD_0":41},"material":3,"mode":4}]},{"primitives":[{"attributes":{"POSITION":0,"NORMAL":1,"TEXCOORD_0":42},"material":4,"mode":4}]},{"primitives":[{"attributes":{"POSITION":43,"NORMAL":44,"TEXCOORD_0":45},"material":5,"mode":4,"indices":46}]},{"primitives":[{"attributes":{"POSITION":47,"NORMAL":48,"TEXCOORD_0":49},"material":6,"mode":4,"indices":50}]},{"primitives":[{"attributes":{"POSITION":0,"NORMAL":1,"TEXCOORD_0":51},"material":3,"mode":4}]},{"primitives":[{"attributes":{"POSITION":52,"NORMAL":44,"TEXCOORD_0":53},"material":0,"mode":4,"indices":46}]},{"primitives":[{"attributes":{"POSITION":54,"NORMAL":55,"TEXCOORD_0":56},"material":1,"mode":4,"indices":57}]},{"primitives":[{"attributes":{"POSITION":58,"NORMAL":59,"TEXCOORD_0":60},"material":2,"mode":4,"indices":61}]},{"primitives":[{"attributes":{"POSITION":62,"NORMAL":63,"TEXCOORD_0":60},"material":2,"mode":4,"indices":61}]},{"primitives":[{"attributes":{"POSITION":64,"NORMAL":65,"TEXCOORD_0":60},"material":2,"mode":4,"indices":61}]},{"primitives":[{"attributes":{"POSITION":66,"NORMAL":67,"TEXCOORD_0":60},"material":2,"mode":4,"indices":61}]},{"primitives":[{"attributes":{"POSITION":68,"NORMAL":69,"TEXCOORD_0":60},"material":2,"mode":4,"indices":61}]},{"primitives":[{"attributes":{"POSITION":70,"NORMAL":71,"TEXCOORD_0":60},"material":2,"mode":4,"indices":61}]},{"primitives":[{"attributes":{"POSITION":72,"NORMAL":73,"TEXCOORD_0":60},"material":2,"mode":4,"indices":61}]},{"primitives":[{"attributes":{"POSITION":74,"NORMAL":75,"TEXCOORD_0":60},"material":2,"mode":4,"indices":61}]},{"primitives":[{"attributes":{"POSITION":76,"NORMAL":77,"TEXCOORD_0":60},"material":2,"mode":4,"indices":61}]},{"primitives":[{"attributes":{"POSITION":78,"NORMAL":79,"TEXCOORD_0":60},"material":2,"mode":4,"indices":61}]},{"primitives":[{"attributes":{"POSITION":80,"NORMAL":81,"TEXCOORD_0":60},"material":2,"mode":4,"indices":61}]},{"primitives":[{"attributes":{"POSITION":82,"NORMAL":83,"TEXCOORD_0":60},"material":2,"mode":4,"indices":61}]},{"primitives":[{"attributes":{"POSITION":84,"NORMAL":85,"TEXCOORD_0":60},"material":2,"mode":4,"indices":61}]},{"primitives":[{"attributes":{"POSITION":86,"NORMAL":87,"TEXCOORD_0":60},"material":2,"mode":4,"indices":61}]},{"primitives":[{"attributes":{"POSITION":88,"NORMAL":89,"TEXCOORD_0":60},"material":2,"mode":4,"indices":61}]},{"primitives":[{"attributes":{"POSITION":90,"NORMAL":91,"TEXCOORD_0":60},"material":2,"mode":4,"indices":61}]},{"primitives":[{"attributes":{"POSITION":52,"NORMAL":44,"TEXCOORD_0":92},"material":3,"mode":4,"indices":46}]},{"primitives":[{"attributes":{"POSITION":52,"NORMAL":44,"TEXCOORD_0":93},"material":4,"mode":4,"indices":46}]},{"primitives":[{"attributes":{"POSITION":52,"NORMAL":44,"TEXCOORD_0":94},"material":3,"mode":4,"indices":46}]},{"primitives":[{"attributes":{"POSITION":95,"NORMAL":96,"TEXCOORD_0":97},"material":2,"mode":4,"indices":98}]},{"primitives":[{"attributes":{"POSITION":99,"NORMAL":100,"TEXCOORD_0":97},"material":2,"mode":4,"indices":98}]},{"primitives":[{"attributes":{"POSITION":101,"NORMAL":102,"TEXCOORD_0":97},"material":2,"mode":4,"indices":98}]},{"primitives":[{"attributes":{"POSITION":103,"NORMAL":104,"TEXCOORD_0":97},"material":2,"mode":4,"indices":98}]},{"primitives":[{"attributes":{"POSITION":105,"NORMAL":106,"TEXCOORD_0":97},"material":2,"mode":4,"indices":98}]},{"primitives":[{"attributes":{"POSITION":107,"NORMAL":108,"TEXCOORD_0":97},"material":2,"mode":4,"indices":98}]}],"materials":[{"name":"concrete","pbrMetallicRoughness":{"baseColorTexture":{"index":0},"metallicRoughnessTexture":{"index":2},"roughnessFactor":1,"metallicFactor":1},"normalTexture":{"index":1,"scale":0.82},"occlusionTexture":{"index":2,"strength":0.35}},{"name":"bark","pbrMetallicRoughness":{"baseColorTexture":{"index":3},"metallicRoughnessTexture":{"index":5},"roughnessFactor":1,"metallicFactor":1},"normalTexture":{"index":4,"scale":1.35},"occlusionTexture":{"index":5,"strength":0.35}},{"name":"foliage","pbrMetallicRoughness":{"baseColorTexture":{"index":6},"metallicRoughnessTexture":{"index":8},"roughnessFactor":1,"metallicFactor":1},"normalTexture":{"index":7,"scale":0.88},"occlusionTexture":{"index":8,"strength":0.35}},{"name":"metal-galvanized","pbrMetallicRoughness":{"baseColorTexture":{"index":9},"metallicRoughnessTexture":{"index":11},"roughnessFactor":1,"metallicFactor":1},"normalTexture":{"index":10,"scale":0.15},"occlusionTexture":{"index":11,"strength":0.35}},{"name":"limestone","pbrMetallicRoughness":{"baseColorTexture":{"index":12},"metallicRoughnessTexture":{"index":14},"roughnessFactor":1,"metallicFactor":1},"normalTexture":{"index":13,"scale":0.9},"occlusionTexture":{"index":14,"strength":0.35}},{"name":"metal-dark","pbrMetallicRoughness":{"baseColorTexture":{"index":15},"metallicRoughnessTexture":{"index":17},"roughnessFactor":1,"metallicFactor":1},"normalTexture":{"index":16,"scale":0.35},"occlusionTexture":{"index":17,"strength":0.35}},{"name":"frankenpine-memorial signage","pbrMetallicRoughness":{"baseColorTexture":{"index":18},"roughnessFactor":1,"metallicFactor":0},"extensions":{"KHR_materials_unlit":{}}}],"textures":[{"source":0,"sampler":0},{"source":1,"sampler":0},{"source":2,"sampler":0},{"source":3,"sampler":0},{"source":4,"sampler":0},{"source":5,"sampler":0},{"source":6,"sampler":0},{"source":7,"sampler":0},{"source":8,"sampler":0},{"source":9,"sampler":0},{"source":10,"sampler":0},{"source":11,"sampler":0},{"source":12,"sampler":0},{"source":13,"sampler":0},{"source":14,"sampler":0},{"source":15,"sampler":0},{"source":16,"sampler":0},{"source":17,"sampler":0},{"source":18,"sampler":0}],"images":[{"uri":"../textures/concrete-albedo.png"},{"uri":"../textures/concrete-normal.png"},{"uri":"../textures/concrete-orm.png"},{"uri":"../textures/bark-albedo.png"},{"uri":"../textures/bark-normal.png"},{"uri":"../textures/bark-orm.png"},{"uri":"../textures/foliage-albedo.png"},{"uri":"../textures/foliage-normal.png"},{"uri":"../textures/foliage-orm.png"},{"uri":"../textures/metal-galvanized-albedo.png"},{"uri":"../textures/metal-galvanized-normal.png"},{"uri":"../textures/metal-galvanized-orm.png"},{"uri":"../textures/limestone-albedo.png"},{"uri":"../textures/limestone-normal.png"},{"uri":"../textures/limestone-orm.png"},{"uri":"../textures/metal-dark-albedo.png"},{"uri":"../textures/metal-dark-normal.png"},{"uri":"../textures/metal-dark-orm.png"},{"uri":"../signs/frankenpine-memorial.png"}],"samplers":[{"magFilter":9729,"minFilter":9987,"wrapS":10497,"wrapT":10497}],"buffers":[{"uri":"../shared/geometry.bin","byteLength":16435520}],"bufferViews":[{"buffer":0,"byteOffset":0,"byteLength":3888,"target":34962},{"buffer":0,"byteOffset":3888,"byteLength":3888,"target":34962},{"buffer":0,"byteOffset":5469024,"byteLength":2592,"target":34962},{"buffer":0,"byteOffset":5184520,"byteLength":696,"target":34962},{"buffer":0,"byteOffset":5185216,"byteLength":696,"target":34962},{"buffer":0,"byteOffset":5228576,"byteLength":464,"target":34962},{"buffer":0,"byteOffset":2089908,"byteLength":216,"target":34963},{"buffer":0,"byteOffset":5229040,"byteLength":972,"target":34962},{"buffer":0,"byteOffset":5230012,"byteLength":972,"target":34962},{"buffer":0,"byteOffset":5188320,"byteLength":648,"target":34962},{"buffer":0,"byteOffset":410600,"byteLength":768,"target":34963},{"buffer":0,"byteOffset":5230984,"byteLength":972,"target":34962},{"buffer":0,"byteOffset":5231956,"byteLength":972,"target":34962},{"buffer":0,"byteOffset":5232928,"byteLength":972,"target":34962},{"buffer":0,"byteOffset":5233900,"byteLength":972,"target":34962},{"buffer":0,"byteOffset":5234872,"byteLength":972,"target":34962},{"buffer":0,"byteOffset":5235844,"byteLength":972,"target":34962},{"buffer":0,"byteOffset":5236816,"byteLength":972,"target":34962},{"buffer":0,"byteOffset":5237788,"byteLength":972,"target":34962},{"buffer":0,"byteOffset":5238760,"byteLength":972,"target":34962},{"buffer":0,"byteOffset":5239732,"byteLength":972,"target":34962},{"buffer":0,"byteOffset":5240704,"byteLength":972,"target":34962},{"buffer":0,"byteOffset":5241676,"byteLength":972,"target":34962},{"buffer":0,"byteOffset":5242648,"byteLength":972,"target":34962},{"buffer":0,"byteOffset":5243620,"byteLength":972,"target":34962},{"buffer":0,"byteOffset":5244592,"byteLength":972,"target":34962},{"buffer":0,"byteOffset":5245564,"byteLength":972,"target":34962},{"buffer":0,"byteOffset":5246536,"byteLength":972,"target":34962},{"buffer":0,"byteOffset":5247508,"byteLength":972,"target":34962},{"buffer":0,"byteOffset":5388096,"byteLength":972,"target":34962},{"buffer":0,"byteOffset":5389068,"byteLength":972,"target":34962},{"buffer":0,"byteOffset":5390040,"byteLength":972,"target":34962},{"buffer":0,"byteOffset":5391012,"byteLength":972,"target":34962},{"buffer":0,"byteOffset":5429856,"byteLength":972,"target":34962},{"buffer":0,"byteOffset":5430828,"byteLength":972,"target":34962},{"buffer":0,"byteOffset":5431800,"byteLength":972,"target":34962},{"buffer":0,"byteOffset":5432772,"byteLength":972,"target":34962},{"buffer":0,"byteOffset":5471616,"byteLength":972,"target":34962},{"buffer":0,"byteOffset":5472588,"byteLength":972,"target":34962},{"buffer":0,"byteOffset":5473560,"byteLength":972,"target":34962},{"buffer":0,"byteOffset":5474532,"byteLength":972,"target":34962},{"buffer":0,"byteOffset":5248480,"byteLength":2592,"target":34962},{"buffer":0,"byteOffset":5209056,"byteLength":2592,"target":34962},{"buffer":0,"byteOffset":45664,"byteLength":288,"target":34962},{"buffer":0,"byteOffset":45952,"byteLength":288,"target":34962},{"buffer":0,"byteOffset":46240,"byteLength":192,"target":34962},{"buffer":0,"byteOffset":46432,"byteLength":72,"target":34963},{"buffer":0,"byteOffset":46504,"byteLength":48,"target":34962},{"buffer":0,"byteOffset":46552,"byteLength":48,"target":34962},{"buffer":0,"byteOffset":222884,"byteLength":32,"target":34962},{"buffer":0,"byteOffset":46632,"byteLength":12,"target":34963},{"buffer":0,"byteOffset":5510784,"byteLength":2592,"target":34962},{"buffer":0,"byteOffset":46644,"byteLength":288,"target":34962},{"buffer":0,"byteOffset":5475504,"byteLength":192,"target":34962},{"buffer":0,"byteOffset":5211840,"byteLength":480,"target":34962},{"buffer":0,"byteOffset":5212320,"byteLength":480,"target":34962},{"buffer":0,"byteOffset":5251264,"byteLength":320,"target":34962},{"buffer":0,"byteOffset":48596,"byteLength":144,"target":34963},{"buffer":0,"byteOffset":5251584,"byteLength":420,"target":34962},{"buffer":0,"byteOffset":5252004,"byteLength":420,"target":34962},{"buffer":0,"byteOffset":5213960,"byteLength":280,"target":34962},{"buffer":0,"byteOffset":434076,"byteLength":288,"target":34963},{"buffer":0,"byteOffset":5252424,"byteLength":420,"target":34962},{"buffer":0,"byteOffset":5252844,"byteLength":420,"target":34962},{"buffer":0,"byteOffset":5253264,"byteLength":420,"target":34962},{"buffer":0,"byteOffset":5253684,"byteLength":420,"target":34962},{"buffer":0,"byteOffset":5254104,"byteLength":420,"target":34962},{"buffer":0,"byteOffset":5254524,"byteLength":420,"target":34962},{"buffer":0,"byteOffset":5254944,"byteLength":420,"target":34962},{"buffer":0,"byteOffset":5255364,"byteLength":420,"target":34962},{"buffer":0,"byteOffset":5255784,"byteLength":420,"target":34962},{"buffer":0,"byteOffset":5256204,"byteLength":420,"target":34962},{"buffer":0,"byteOffset":5256624,"byteLength":420,"target":34962},{"buffer":0,"byteOffset":5257044,"byteLength":420,"target":34962},{"buffer":0,"byteOffset":5257464,"byteLength":420,"target":34962},{"buffer":0,"byteOffset":5257884,"byteLength":420,"target":34962},{"buffer":0,"byteOffset":5258304,"byteLength":420,"target":34962},{"buffer":0,"byteOffset":5258724,"byteLength":420,"target":34962},{"buffer":0,"byteOffset":5259144,"byteLength":420,"target":34962},{"buffer":0,"byteOffset":5259564,"byteLength":420,"target":34962},{"buffer":0,"byteOffset":5392176,"byteLength":420,"target":34962},{"buffer":0,"byteOffset":5392596,"byteLength":420,"target":34962},{"buffer":0,"byteOffset":5393016,"byteLength":420,"target":34962},{"buffer":0,"byteOffset":5393436,"byteLength":420,"target":34962},{"buffer":0,"byteOffset":5433936,"byteLength":420,"target":34962},{"buffer":0,"byteOffset":5434356,"byteLength":420,"target":34962},{"buffer":0,"byteOffset":5434776,"byteLength":420,"target":34962},{"buffer":0,"byteOffset":5435196,"byteLength":420,"target":34962},{"buffer":0,"byteOffset":5475696,"byteLength":420,"target":34962},{"buffer":0,"byteOffset":5476116,"byteLength":420,"target":34962},{"buffer":0,"byteOffset":5476536,"byteLength":420,"target":34962},{"buffer":0,"byteOffset":5476956,"byteLength":420,"target":34962},{"buffer":0,"byteOffset":5259984,"byteLength":192,"target":34962},{"buffer":0,"byteOffset":5221992,"byteLength":192,"target":34962},{"buffer":0,"byteOffset":5513376,"byteLength":192,"target":34962},{"buffer":0,"byteOffset":5260176,"byteLength":300,"target":34962},{"buffer":0,"byteOffset":5260476,"byteLength":300,"target":34962},{"buffer":0,"byteOffset":5222784,"byteLength":200,"target":34962},{"buffer":0,"byteOffset":440168,"byteLength":192,"target":34963},{"buffer":0,"byteOffset":5260776,"byteLength":300,"target":34962},{"buffer":0,"byteOffset":5261076,"byteLength":300,"target":34962},{"buffer":0,"byteOffset":5261376,"byteLength":300,"target":34962},{"buffer":0,"byteOffset":5261676,"byteLength":300,"target":34962},{"buffer":0,"byteOffset":5261976,"byteLength":300,"target":34962},{"buffer":0,"byteOffset":5262276,"byteLength":300,"target":34962},{"buffer":0,"byteOffset":5262576,"byteLength":300,"target":34962},{"buffer":0,"byteOffset":5262876,"byteLength":300,"target":34962},{"buffer":0,"byteOffset":5263176,"byteLength":300,"target":34962},{"buffer":0,"byteOffset":5263476,"byteLength":300,"target":34962}],"accessors":[{"bufferView":0,"componentType":5126,"count":324,"type":"VEC3","min":[-0.5,-0.5,-0.5],"max":[0.5,0.5,0.5]},{"bufferView":1,"componentType":5126,"count":324,"type":"VEC3"},{"bufferView":2,"componentType":5126,"count":324,"type":"VEC2"},{"bufferView":3,"componentType":5126,"count":58,"type":"VEC3","min":[-0.9848077297210693,-0.5,-0.9396926164627075],"max":[0.9848077297210693,0.5,1]},{"bufferView":4,"componentType":5126,"count":58,"type":"VEC3"},{"bufferView":5,"componentType":5126,"count":58,"type":"VEC2"},{"bufferView":6,"componentType":5123,"count":108,"type":"SCALAR"},{"bufferView":7,"componentType":5126,"count":81,"type":"VEC3","min":[-3.4987330436706543,6.121471405029297,-0.11999999731779099],"max":[0.01873299852013588,6.908528804779053,0.11999999731779099]},{"bufferView":8,"componentType":5126,"count":81,"type":"VEC3"},{"bufferView":9,"componentType":5126,"count":81,"type":"VEC2"},{"bufferView":10,"componentType":5123,"count":384,"type":"SCALAR"},{"bufferView":11,"componentType":5126,"count":81,"type":"VEC3","min":[-0.017734143882989883,6.3013176918029785,-0.11999999731779099],"max":[3.4977340698242188,7.058682441711426,0.11999999731779099]},{"bufferView":12,"componentType":5126,"count":81,"type":"VEC3"},{"bufferView":13,"componentType":5126,"count":81,"type":"VEC3","min":[-3.1874258518218994,7.22677755355835,-0.1185680478811264],"max":[0.02742575667798519,8.013222694396973,0.6185680627822876]},{"bufferView":14,"componentType":5126,"count":81,"type":"VEC3"},{"bufferView":15,"componentType":5126,"count":81,"type":"VEC3","min":[-0.026693454012274742,7.40659236907959,-0.6185636520385742],"max":[3.1866934299468994,8.163407325744629,0.11856364458799362]},{"bufferView":16,"componentType":5126,"count":81,"type":"VEC3"},{"bufferView":17,"componentType":5126,"count":81,"type":"VEC3","min":[-2.8628156185150146,8.332188606262207,-0.11999999731779099],"max":[0.022815527394413948,9.11781120300293,0.11999999731779099]},{"bufferView":18,"componentType":5126,"count":81,"type":"VEC3"},{"bufferView":19,"componentType":5126,"count":81,"type":"VEC3","min":[-0.021612536162137985,8.511961936950684,-0.11999999731779099],"max":[2.861612558364868,9.268037796020508,0.11999999731779099]},{"bufferView":20,"componentType":5126,"count":81,"type":"VEC3"},{"bufferView":21,"componentType":5126,"count":81,"type":"VEC3","min":[-2.55387020111084,9.437759399414062,-0.11780696362257004],"max":[0.033870212733745575,10.222240447998047,0.6178069710731506]},{"bufferView":22,"componentType":5126,"count":81,"type":"VEC3"},{"bufferView":23,"componentType":5126,"count":81,"type":"VEC3","min":[-0.032999809831380844,9.617476463317871,-0.6177965998649597],"max":[2.55299973487854,10.37252426147461,0.11779662221670151]},{"bufferView":24,"componentType":5126,"count":81,"type":"VEC3"},{"bufferView":25,"componentType":5126,"count":81,"type":"VEC3","min":[-2.2291042804718018,10.543582916259766,-0.11999999731779099],"max":[0.02910427562892437,11.326416969299316,0.11999999731779099]},{"bufferView":26,"componentType":5126,"count":81,"type":"VEC3"},{"bufferView":27,"componentType":5126,"count":81,"type":"VEC3","min":[-0.02760305441915989,10.723217964172363,-0.11999999731779099],"max":[2.227602958679199,11.476781845092773,0.11999999731779099]},{"bufferView":28,"componentType":5126,"count":81,"type":"VEC3"},{"bufferView":29,"componentType":5126,"count":81,"type":"VEC3","min":[-1.9239674806594849,11.64982795715332,-0.11627182364463806],"max":[0.04396751523017883,12.43017292022705,0.6162717938423157]},{"bufferView":30,"componentType":5126,"count":81,"type":"VEC3"},{"bufferView":31,"componentType":5126,"count":81,"type":"VEC3","min":[-0.042927470058202744,11.82934284210205,-0.6162418127059937],"max":[1.9229274988174438,12.580657005310059,0.11624183505773544]},{"bufferView":32,"componentType":5126,"count":81,"type":"VEC3"},{"bufferView":33,"componentType":5126,"count":81,"type":"VEC3","min":[-1.599900484085083,12.756827354431152,-0.11999999731779099],"max":[0.039900463074445724,13.533172607421875,0.11999999731779099]},{"bufferView":34,"componentType":5126,"count":81,"type":"VEC3"},{"bufferView":35,"componentType":5126,"count":81,"type":"VEC3","min":[-0.03794733062386513,12.936158180236816,-0.11999999731779099],"max":[1.597947359085083,13.683841705322266,0.11999999731779099]},{"bufferView":36,"componentType":5126,"count":81,"type":"VEC3"},{"bufferView":37,"componentType":5126,"count":81,"type":"VEC3","min":[-1.3012298345565796,13.86530590057373,-0.11259482055902481],"max":[0.061229806393384933,14.63469409942627,0.6125948429107666]},{"bufferView":38,"componentType":5126,"count":81,"type":"VEC3"},{"bufferView":39,"componentType":5126,"count":81,"type":"VEC3","min":[-0.06008804216980934,14.044336318969727,-0.6124754548072815],"max":[1.3000880479812622,14.785663604736328,0.11247546225786209]},{"bufferView":40,"componentType":5126,"count":81,"type":"VEC3"},{"bufferView":41,"componentType":5126,"count":324,"type":"VEC2"},{"bufferView":42,"componentType":5126,"count":324,"type":"VEC2"},{"bufferView":43,"componentType":5126,"count":24,"type":"VEC3","min":[-0.5,-0.5,-0.02500000037252903],"max":[0.5,0.5,0.02500000037252903]},{"bufferView":44,"componentType":5126,"count":24,"type":"VEC3"},{"bufferView":45,"componentType":5126,"count":24,"type":"VEC2"},{"bufferView":46,"componentType":5123,"count":36,"type":"SCALAR"},{"bufferView":47,"componentType":5126,"count":4,"type":"VEC3","min":[-0.5,-0.5,0],"max":[0.5,0.5,0]},{"bufferView":48,"componentType":5126,"count":4,"type":"VEC3"},{"bufferView":49,"componentType":5126,"count":4,"type":"VEC2"},{"bufferView":50,"componentType":5123,"count":6,"type":"SCALAR"},{"bufferView":51,"componentType":5126,"count":324,"type":"VEC2"},{"bufferView":52,"componentType":5126,"count":24,"type":"VEC3","min":[-0.5,-0.5,-0.5],"max":[0.5,0.5,0.5]},{"bufferView":53,"componentType":5126,"count":24,"type":"VEC2"},{"bufferView":54,"componentType":5126,"count":40,"type":"VEC3","min":[-0.8660253882408142,-0.5,-1],"max":[0.8660253882408142,0.5,1]},{"bufferView":55,"componentType":5126,"count":40,"type":"VEC3"},{"bufferView":56,"componentType":5126,"count":40,"type":"VEC2"},{"bufferView":57,"componentType":5123,"count":72,"type":"SCALAR"},{"bufferView":58,"componentType":5126,"count":35,"type":"VEC3","min":[-3.496223211288452,6.137351036071777,-0.11999999731779099],"max":[0.016223253682255745,6.892649173736572,0.11999999731779099]},{"bufferView":59,"componentType":5126,"count":35,"type":"VEC3"},{"bufferView":60,"componentType":5126,"count":35,"type":"VEC2"},{"bufferView":61,"componentType":5123,"count":144,"type":"SCALAR"},{"bufferView":62,"componentType":5126,"count":35,"type":"VEC3","min":[-0.015358219854533672,6.31721830368042,-0.11999999731779099],"max":[3.4953582286834717,7.042781829833984,0.11999999731779099]},{"bufferView":63,"componentType":5126,"count":35,"type":"VEC3"},{"bufferView":64,"componentType":5126,"count":35,"type":"VEC3","min":[-3.186924457550049,7.241031646728516,-0.1185680478811264],"max":[0.02692454308271408,7.998968601226807,0.6185680627822876]},{"bufferView":65,"componentType":5126,"count":35,"type":"VEC3"},{"bufferView":66,"componentType":5126,"count":35,"type":"VEC3","min":[-0.026007046923041344,7.420953273773193,-0.6185636520385742],"max":[3.186007022857666,8.149046897888184,0.11856364458799362]},{"bufferView":67,"componentType":5126,"count":35,"type":"VEC3"},{"bufferView":68,"componentType":5126,"count":35,"type":"VEC3","min":[-2.8597588539123535,8.347972869873047,-0.11999999731779099],"max":[0.01975882612168789,9.10202693939209,0.11999999731779099]},{"bufferView":69,"componentType":5126,"count":35,"type":"VEC3"},{"bufferView":70,"componentType":5126,"count":35,"type":"VEC3","min":[-0.018717005848884583,8.527776718139648,-0.11999999731779099],"max":[2.8587169647216797,9.25222396850586,0.11999999731779099]},{"bufferView":71,"componentType":5126,"count":35,"type":"VEC3"},{"bufferView":72,"componentType":5126,"count":35,"type":"VEC3","min":[-2.5533156394958496,9.451032638549805,-0.11780696362257004],"max":[0.033315759152173996,10.208968162536621,0.6178069710731506]},{"bufferView":73,"componentType":5126,"count":35,"type":"VEC3"},{"bufferView":74,"componentType":5126,"count":35,"type":"VEC3","min":[-0.03221086412668228,9.630908012390137,-0.6177965998649597],"max":[2.552210807800293,10.359091758728027,0.11779662221670151]},{"bufferView":75,"componentType":5126,"count":35,"type":"VEC3"},{"bufferView":76,"componentType":5126,"count":35,"type":"VEC3","min":[-2.2252049446105957,10.55918025970459,-0.11999999731779099],"max":[0.025205042213201523,11.310820579528809,0.11999999731779099]},{"bufferView":77,"componentType":5126,"count":35,"type":"VEC3"},{"bufferView":78,"componentType":5126,"count":35,"type":"VEC3","min":[-0.023904945701360703,10.738863945007324,-0.11999999731779099],"max":[2.223904848098755,11.461135864257812,0.11999999731779099]},{"bufferView":79,"componentType":5126,"count":35,"type":"VEC3"},{"bufferView":80,"componentType":5126,"count":35,"type":"VEC3","min":[-1.9234225749969482,11.661090850830078,-0.11627182364463806],"max":[0.04342262074351311,12.418909072875977,0.6162717938423157]},{"bufferView":81,"componentType":5126,"count":35,"type":"VEC3"},{"bufferView":82,"componentType":5126,"count":35,"type":"VEC3","min":[-0.042063575237989426,11.840866088867188,-0.6162418127059937],"max":[1.9220635890960693,12.569133758544922,0.11624183505773544]},{"bufferView":83,"componentType":5126,"count":35,"type":"VEC3"},{"bufferView":84,"componentType":5126,"count":35,"type":"VEC3","min":[-1.5945547819137573,12.771989822387695,-0.11999999731779099],"max":[0.03455481678247452,13.518010139465332,0.11999999731779099]},{"bufferView":85,"componentType":5126,"count":35,"type":"VEC3"},{"bufferView":86,"componentType":5126,"count":35,"type":"VEC3","min":[-0.032863352447748184,12.951410293579102,-0.11999999731779099],"max":[1.5928633213043213,13.66858959197998,0.11999999731779099]},{"bufferView":87,"componentType":5126,"count":35,"type":"VEC3"},{"bufferView":88,"componentType":5126,"count":35,"type":"VEC3","min":[-1.3011047840118408,13.871588706970215,-0.11259482055902481],"max":[0.061104804277420044,14.628411293029785,0.6125948429107666]},{"bufferView":89,"componentType":5126,"count":35,"type":"VEC3"},{"bufferView":90,"componentType":5126,"count":35,"type":"VEC3","min":[-0.059474878013134,14.05107593536377,-0.6124754548072815],"max":[1.299474835395813,14.778924942016602,0.11247546225786209]},{"bufferView":91,"componentType":5126,"count":35,"type":"VEC3"},{"bufferView":92,"componentType":5126,"count":24,"type":"VEC2"},{"bufferView":93,"componentType":5126,"count":24,"type":"VEC2"},{"bufferView":94,"componentType":5126,"count":24,"type":"VEC2"},{"bufferView":95,"componentType":5126,"count":25,"type":"VEC3","min":[-3.4987330436706543,6.121471405029297,-0.11999999731779099],"max":[0.01873299852013588,6.908528804779053,0.11999999731779099]},{"bufferView":96,"componentType":5126,"count":25,"type":"VEC3"},{"bufferView":97,"componentType":5126,"count":25,"type":"VEC2"},{"bufferView":98,"componentType":5123,"count":96,"type":"SCALAR"},{"bufferView":99,"componentType":5126,"count":25,"type":"VEC3","min":[-0.017734143882989883,6.3013176918029785,-0.11999999731779099],"max":[3.4977340698242188,7.058682441711426,0.11999999731779099]},{"bufferView":100,"componentType":5126,"count":25,"type":"VEC3"},{"bufferView":101,"componentType":5126,"count":25,"type":"VEC3","min":[-3.180576801300049,7.22677755355835,-0.1185680478811264],"max":[0.020576728507876396,8.013222694396973,0.6185680627822876]},{"bufferView":102,"componentType":5126,"count":25,"type":"VEC3"},{"bufferView":103,"componentType":5126,"count":25,"type":"VEC3","min":[-0.019484782591462135,7.40659236907959,-0.6185636520385742],"max":[3.1794848442077637,8.163407325744629,0.11856364458799362]},{"bufferView":104,"componentType":5126,"count":25,"type":"VEC3"},{"bufferView":105,"componentType":5126,"count":25,"type":"VEC3","min":[-2.8628156185150146,8.332188606262207,-0.11999999731779099],"max":[0.022815527394413948,9.11781120300293,0.11999999731779099]},{"bufferView":106,"componentType":5126,"count":25,"type":"VEC3"},{"bufferView":107,"componentType":5126,"count":25,"type":"VEC3","min":[-0.021612536162137985,8.511961936950684,-0.11999999731779099],"max":[2.861612558364868,9.268037796020508,0.11999999731779099]},{"bufferView":108,"componentType":5126,"count":25,"type":"VEC3"}],"extensionsUsed":["KHR_materials_unlit"],"extras":{"id":"vlt-frankenpine-memorial-37","family":"frankenpine-memorial","variant":36,"plan":"D2-2","units":"metres","up":"+Y","front":"+Z","lodScenes":[0,1,2]}}