{"asset":{"version":"2.0","generator":"SLOPMERICA Department of Unnecessary Development 1.0"},"scene":0,"scenes":[{"name":"LOD 0","nodes":[0,1,2,3,4,5,6,7,8,9,10,11,12,13],"extras":{"level":0}},{"name":"LOD 1","nodes":[14,15,16,17,18,19,20,21,22,23,24,25,26,27],"extras":{"level":1}},{"name":"LOD 2","nodes":[28,29,30,31,32,33,34,35],"extras":{"level":2}}],"nodes":[{"name":"surveyed lot","mesh":0,"translation":[0,0.06,0],"scale":[26.4,0.12,21.72]},{"name":"museum block","mesh":1,"translation":[0,2.5,0],"scale":[15,4.8,10.1]},{"name":"fake historic facade","mesh":2,"translation":[0,2.95,5.33],"scale":[15.6,5.7,0.65]},{"name":"cupola drum","mesh":3,"translation":[0,6.15,5.05],"scale":[1.45,1.5,1.45]},{"name":"cupola roof","mesh":4,"translation":[0,7.55,5.05],"scale":[1.7,1.35,1.7]},{"name":"glass entry","mesh":5,"translation":[0,1.8,5.71],"scale":[3.2,3.1,0.22]},{"name":"suburban history museum sign-back","mesh":6,"translation":[0,4.25,5.72],"scale":[6.6,1.3,1]},{"name":"suburban history museum sign","mesh":7,"translation":[0,4.25,5.749],"scale":[6.5,1.2,1]},{"name":"historic parking meter 0","mesh":8,"translation":[-3,0.78,7.25],"scale":[0.18,1.45,0.18]},{"name":"historic parking meter 1","mesh":8,"translation":[-1.2,0.78,7.25],"scale":[0.18,1.45,0.18]},{"name":"historic parking meter 2","mesh":8,"translation":[0.6,0.78,7.25],"scale":[0.18,1.45,0.18]},{"name":"historic parking meter 3","mesh":8,"translation":[2.4,0.78,7.25],"scale":[0.18,1.45,0.18]},{"name":"historic parking meter 4","mesh":8,"translation":[4.2,0.78,7.25],"scale":[0.18,1.45,0.18]},{"name":"museum parking field","mesh":9,"translation":[0,0.14,10.05],"scale":[20,0.12,5.7]},{"name":"surveyed lot","mesh":10,"translation":[0,0.06,0],"scale":[26.4,0.12,21.72]},{"name":"museum block","mesh":11,"translation":[0,2.5,0],"scale":[15,4.8,10.1]},{"name":"fake historic facade","mesh":12,"translation":[0,2.95,5.33],"scale":[15.6,5.7,0.65]},{"name":"cupola drum","mesh":13,"translation":[0,6.15,5.05],"scale":[1.45,1.5,1.45]},{"name":"cupola roof","mesh":14,"translation":[0,7.55,5.05],"scale":[1.7,1.35,1.7]},{"name":"glass entry","mesh":15,"translation":[0,1.8,5.71],"scale":[3.2,3.1,0.22]},{"name":"suburban history museum sign-back","mesh":6,"translation":[0,4.25,5.72],"scale":[6.6,1.3,1]},{"name":"suburban history museum sign","mesh":7,"translation":[0,4.25,5.749],"scale":[6.5,1.2,1]},{"name":"historic parking meter 0","mesh":16,"translation":[-3,0.78,7.25],"scale":[0.18,1.45,0.18]},{"name":"historic parking meter 1","mesh":16,"translation":[-1.2,0.78,7.25],"scale":[0.18,1.45,0.18]},{"name":"historic parking meter 2","mesh":16,"translation":[0.6,0.78,7.25],"scale":[0.18,1.45,0.18]},{"name":"historic parking meter 3","mesh":16,"translation":[2.4,0.78,7.25],"scale":[0.18,1.45,0.18]},{"name":"historic parking meter 4","mesh":16,"translation":[4.2,0.78,7.25],"scale":[0.18,1.45,0.18]},{"name":"museum parking field","mesh":17,"translation":[0,0.14,10.05],"scale":[20,0.12,5.7]},{"name":"surveyed lot","mesh":10,"translation":[0,0.06,0],"scale":[26.4,0.12,21.72]},{"name":"museum block","mesh":11,"translation":[0,2.5,0],"scale":[15,4.8,10.1]},{"name":"fake historic facade","mesh":12,"translation":[0,2.95,5.33],"scale":[15.6,5.7,0.65]},{"name":"cupola drum","mesh":13,"translation":[0,6.15,5.05],"scale":[1.45,1.5,1.45]},{"name":"cupola roof","mesh":14,"translation":[0,7.55,5.05],"scale":[1.7,1.35,1.7]},{"name":"glass entry","mesh":15,"translation":[0,1.8,5.71],"scale":[3.2,3.1,0.22]},{"name":"suburban history museum sign-back","mesh":6,"translation":[0,4.25,5.72],"scale":[6.6,1.3,1]},{"name":"suburban history museum sign","mesh":7,"translation":[0,4.25,5.749],"scale":[6.5,1.2,1]}],"meshes":[{"primitives":[{"attributes":{"POSITION":0,"NORMAL":1,"TEXCOORD_0":2},"material":0,"mode":4}]},{"primitives":[{"attributes":{"POSITION":3,"NORMAL":1,"TEXCOORD_0":4},"material":1,"mode":4}]},{"primitives":[{"attributes":{"POSITION":0,"NORMAL":1,"TEXCOORD_0":5},"material":2,"mode":4}]},{"primitives":[{"attributes":{"POSITION":6,"NORMAL":7,"TEXCOORD_0":8},"material":3,"mode":4,"indices":9}]},{"primitives":[{"attributes":{"POSITION":10,"NORMAL":11,"TEXCOORD_0":12},"material":4,"mode":4,"indices":9}]},{"primitives":[{"attributes":{"POSITION":0,"NORMAL":1,"TEXCOORD_0":13},"material":5,"mode":4}]},{"primitives":[{"attributes":{"POSITION":14,"NORMAL":15,"TEXCOORD_0":16},"material":6,"mode":4,"indices":17}]},{"primitives":[{"attributes":{"POSITION":18,"NORMAL":19,"TEXCOORD_0":20},"material":7,"mode":4,"indices":21}]},{"primitives":[{"attributes":{"POSITION":0,"NORMAL":1,"TEXCOORD_0":22},"material":6,"mode":4}]},{"primitives":[{"attributes":{"POSITION":0,"NORMAL":1,"TEXCOORD_0":23},"material":8,"mode":4}]},{"primitives":[{"attributes":{"POSITION":24,"NORMAL":15,"TEXCOORD_0":25},"material":0,"mode":4,"indices":17}]},{"primitives":[{"attributes":{"POSITION":24,"NORMAL":15,"TEXCOORD_0":26},"material":1,"mode":4,"indices":17}]},{"primitives":[{"attributes":{"POSITION":24,"NORMAL":15,"TEXCOORD_0":27},"material":2,"mode":4,"indices":17}]},{"primitives":[{"attributes":{"POSITION":28,"NORMAL":29,"TEXCOORD_0":30},"material":3,"mode":4,"indices":31}]},{"primitives":[{"attributes":{"POSITION":32,"NORMAL":33,"TEXCOORD_0":34},"material":4,"mode":4,"indices":31}]},{"primitives":[{"attributes":{"POSITION":24,"NORMAL":15,"TEXCOORD_0":35},"material":5,"mode":4,"indices":17}]},{"primitives":[{"attributes":{"POSITION":24,"NORMAL":15,"TEXCOORD_0":36},"material":6,"mode":4,"indices":17}]},{"primitives":[{"attributes":{"POSITION":24,"NORMAL":15,"TEXCOORD_0":37},"material":8,"mode":4,"indices":17}]}],"materials":[{"name":"concrete","pbrMetallicRoughness":{"baseColorTexture":{"index":0},"metallicRoughnessTexture":{"index":2},"roughnessFactor":1,"metallicFactor":1},"normalTexture":{"index":1,"scale":0.82},"occlusionTexture":{"index":2,"strength":0.35}},{"name":"brick-cream","pbrMetallicRoughness":{"baseColorTexture":{"index":3},"metallicRoughnessTexture":{"index":5},"roughnessFactor":1,"metallicFactor":1},"normalTexture":{"index":4,"scale":1.05},"occlusionTexture":{"index":5,"strength":0.35}},{"name":"brick-red","pbrMetallicRoughness":{"baseColorTexture":{"index":6},"metallicRoughnessTexture":{"index":8},"roughnessFactor":1,"metallicFactor":1},"normalTexture":{"index":7,"scale":1.15},"occlusionTexture":{"index":8,"strength":0.35}},{"name":"paint-white","pbrMetallicRoughness":{"baseColorFactor":[0.7912979403281551,0.7681511472425809,0.6795424696265424,1],"roughnessFactor":0.68,"metallicFactor":0}},{"name":"metal-copper","pbrMetallicRoughness":{"baseColorTexture":{"index":9},"metallicRoughnessTexture":{"index":11},"roughnessFactor":1,"metallicFactor":1},"normalTexture":{"index":10,"scale":0.7},"occlusionTexture":{"index":11,"strength":0.35}},{"name":"glass-blue","pbrMetallicRoughness":{"baseColorTexture":{"index":12},"metallicRoughnessTexture":{"index":14},"roughnessFactor":1,"metallicFactor":1},"normalTexture":{"index":13,"scale":0.12},"occlusionTexture":{"index":14,"strength":0.35}},{"name":"metal-dark","pbrMetallicRoughness":{"baseColorTexture":{"index":15},"metallicRoughnessTexture":{"index":17},"roughnessFactor":1,"metallicFactor":1},"normalTexture":{"index":16,"scale":0.35},"occlusionTexture":{"index":17,"strength":0.35}},{"name":"suburban-history-museum signage","pbrMetallicRoughness":{"baseColorTexture":{"index":18},"roughnessFactor":1,"metallicFactor":0},"extensions":{"KHR_materials_unlit":{}}},{"name":"asphalt","pbrMetallicRoughness":{"baseColorTexture":{"index":19},"metallicRoughnessTexture":{"index":21},"roughnessFactor":1,"metallicFactor":1},"normalTexture":{"index":20,"scale":0.62},"occlusionTexture":{"index":21,"strength":0.35}}],"textures":[{"source":0,"sampler":0},{"source":1,"sampler":0},{"source":2,"sampler":0},{"source":3,"sampler":0},{"source":4,"sampler":0},{"source":5,"sampler":0},{"source":6,"sampler":0},{"source":7,"sampler":0},{"source":8,"sampler":0},{"source":9,"sampler":0},{"source":10,"sampler":0},{"source":11,"sampler":0},{"source":12,"sampler":0},{"source":13,"sampler":0},{"source":14,"sampler":0},{"source":15,"sampler":0},{"source":16,"sampler":0},{"source":17,"sampler":0},{"source":18,"sampler":0},{"source":19,"sampler":0},{"source":20,"sampler":0},{"source":21,"sampler":0}],"images":[{"uri":"../textures/concrete-albedo.png"},{"uri":"../textures/concrete-normal.png"},{"uri":"../textures/concrete-orm.png"},{"uri":"../textures/brick-cream-albedo.png"},{"uri":"../textures/brick-cream-normal.png"},{"uri":"../textures/brick-cream-orm.png"},{"uri":"../textures/brick-red-albedo.png"},{"uri":"../textures/brick-red-normal.png"},{"uri":"../textures/brick-red-orm.png"},{"uri":"../textures/metal-copper-albedo.png"},{"uri":"../textures/metal-copper-normal.png"},{"uri":"../textures/metal-copper-orm.png"},{"uri":"../textures/glass-blue-albedo.png"},{"uri":"../textures/glass-blue-normal.png"},{"uri":"../textures/glass-blue-orm.png"},{"uri":"../textures/metal-dark-albedo.png"},{"uri":"../textures/metal-dark-normal.png"},{"uri":"../textures/metal-dark-orm.png"},{"uri":"../signs/suburban-history-museum.png"},{"uri":"../textures/asphalt-albedo.png"},{"uri":"../textures/asphalt-normal.png"},{"uri":"../textures/asphalt-orm.png"}],"samplers":[{"magFilter":9729,"minFilter":9987,"wrapS":10497,"wrapT":10497}],"buffers":[{"uri":"../shared/geometry.bin","byteLength":16435520}],"bufferViews":[{"buffer":0,"byteOffset":0,"byteLength":3888,"target":34962},{"buffer":0,"byteOffset":3888,"byteLength":3888,"target":34962},{"buffer":0,"byteOffset":14100420,"byteLength":2592,"target":34962},{"buffer":0,"byteOffset":4885320,"byteLength":3888,"target":34962},{"buffer":0,"byteOffset":14103012,"byteLength":2592,"target":34962},{"buffer":0,"byteOffset":14016708,"byteLength":2592,"target":34962},{"buffer":0,"byteOffset":13973668,"byteLength":768,"target":34962},{"buffer":0,"byteOffset":13974436,"byteLength":768,"target":34962},{"buffer":0,"byteOffset":13975204,"byteLength":512,"target":34962},{"buffer":0,"byteOffset":882248,"byteLength":240,"target":34963},{"buffer":0,"byteOffset":13975716,"byteLength":768,"target":34962},{"buffer":0,"byteOffset":13976484,"byteLength":768,"target":34962},{"buffer":0,"byteOffset":13977252,"byteLength":512,"target":34962},{"buffer":0,"byteOffset":13977764,"byteLength":2592,"target":34962},{"buffer":0,"byteOffset":45664,"byteLength":288,"target":34962},{"buffer":0,"byteOffset":45952,"byteLength":288,"target":34962},{"buffer":0,"byteOffset":46240,"byteLength":192,"target":34962},{"buffer":0,"byteOffset":46432,"byteLength":72,"target":34963},{"buffer":0,"byteOffset":46504,"byteLength":48,"target":34962},{"buffer":0,"byteOffset":46552,"byteLength":48,"target":34962},{"buffer":0,"byteOffset":205252,"byteLength":32,"target":34962},{"buffer":0,"byteOffset":46632,"byteLength":12,"target":34963},{"buffer":0,"byteOffset":13980356,"byteLength":2592,"target":34962},{"buffer":0,"byteOffset":14019300,"byteLength":2592,"target":34962},{"buffer":0,"byteOffset":46644,"byteLength":288,"target":34962},{"buffer":0,"byteOffset":14105604,"byteLength":192,"target":34962},{"buffer":0,"byteOffset":14105796,"byteLength":192,"target":34962},{"buffer":0,"byteOffset":14022084,"byteLength":192,"target":34962},{"buffer":0,"byteOffset":13985924,"byteLength":480,"target":34962},{"buffer":0,"byteOffset":13986404,"byteLength":480,"target":34962},{"buffer":0,"byteOffset":13986884,"byteLength":320,"target":34962},{"buffer":0,"byteOffset":48596,"byteLength":144,"target":34963},{"buffer":0,"byteOffset":13987204,"byteLength":480,"target":34962},{"buffer":0,"byteOffset":13987684,"byteLength":480,"target":34962},{"buffer":0,"byteOffset":13988164,"byteLength":320,"target":34962},{"buffer":0,"byteOffset":13988484,"byteLength":192,"target":34962},{"buffer":0,"byteOffset":13988676,"byteLength":192,"target":34962},{"buffer":0,"byteOffset":14022276,"byteLength":192,"target":34962}],"accessors":[{"bufferView":0,"componentType":5126,"count":324,"type":"VEC3","min":[-0.5,-0.5,-0.5],"max":[0.5,0.5,0.5]},{"bufferView":1,"componentType":5126,"count":324,"type":"VEC3"},{"bufferView":2,"componentType":5126,"count":324,"type":"VEC2"},{"bufferView":3,"componentType":5126,"count":324,"type":"VEC3","min":[-0.5,-0.5,-0.5],"max":[0.5,0.5,0.5]},{"bufferView":4,"componentType":5126,"count":324,"type":"VEC2"},{"bufferView":5,"componentType":5126,"count":324,"type":"VEC2"},{"bufferView":6,"componentType":5126,"count":64,"type":"VEC3","min":[-0.9510565400123596,-0.5,-1],"max":[0.9510565400123596,0.5,1]},{"bufferView":7,"componentType":5126,"count":64,"type":"VEC3"},{"bufferView":8,"componentType":5126,"count":64,"type":"VEC2"},{"bufferView":9,"componentType":5123,"count":120,"type":"SCALAR"},{"bufferView":10,"componentType":5126,"count":64,"type":"VEC3","min":[-0.9510565400123596,-0.5,-1],"max":[0.9510565400123596,0.5,1]},{"bufferView":11,"componentType":5126,"count":64,"type":"VEC3"},{"bufferView":12,"componentType":5126,"count":64,"type":"VEC2"},{"bufferView":13,"componentType":5126,"count":324,"type":"VEC2"},{"bufferView":14,"componentType":5126,"count":24,"type":"VEC3","min":[-0.5,-0.5,-0.02500000037252903],"max":[0.5,0.5,0.02500000037252903]},{"bufferView":15,"componentType":5126,"count":24,"type":"VEC3"},{"bufferView":16,"componentType":5126,"count":24,"type":"VEC2"},{"bufferView":17,"componentType":5123,"count":36,"type":"SCALAR"},{"bufferView":18,"componentType":5126,"count":4,"type":"VEC3","min":[-0.5,-0.5,0],"max":[0.5,0.5,0]},{"bufferView":19,"componentType":5126,"count":4,"type":"VEC3"},{"bufferView":20,"componentType":5126,"count":4,"type":"VEC2"},{"bufferView":21,"componentType":5123,"count":6,"type":"SCALAR"},{"bufferView":22,"componentType":5126,"count":324,"type":"VEC2"},{"bufferView":23,"componentType":5126,"count":324,"type":"VEC2"},{"bufferView":24,"componentType":5126,"count":24,"type":"VEC3","min":[-0.5,-0.5,-0.5],"max":[0.5,0.5,0.5]},{"bufferView":25,"componentType":5126,"count":24,"type":"VEC2"},{"bufferView":26,"componentType":5126,"count":24,"type":"VEC2"},{"bufferView":27,"componentType":5126,"count":24,"type":"VEC2"},{"bufferView":28,"componentType":5126,"count":40,"type":"VEC3","min":[-0.8660253882408142,-0.5,-1],"max":[0.8660253882408142,0.5,1]},{"bufferView":29,"componentType":5126,"count":40,"type":"VEC3"},{"bufferView":30,"componentType":5126,"count":40,"type":"VEC2"},{"bufferView":31,"componentType":5123,"count":72,"type":"SCALAR"},{"bufferView":32,"componentType":5126,"count":40,"type":"VEC3","min":[-0.8660253882408142,-0.5,-1],"max":[0.8660253882408142,0.5,1]},{"bufferView":33,"componentType":5126,"count":40,"type":"VEC3"},{"bufferView":34,"componentType":5126,"count":40,"type":"VEC2"},{"bufferView":35,"componentType":5126,"count":24,"type":"VEC2"},{"bufferView":36,"componentType":5126,"count":24,"type":"VEC2"},{"bufferView":37,"componentType":5126,"count":24,"type":"VEC2"}],"extensionsUsed":["KHR_materials_unlit"],"extras":{"id":"vlt-suburban-history-museum-20","family":"suburban-history-museum","variant":19,"plan":"D5-1","units":"metres","up":"+Y","front":"+Z","lodScenes":[0,1,2]}}