{"asset":{"version":"2.0","generator":"SLOPMERICA Department of Unnecessary Development 1.0"},"scene":0,"scenes":[{"name":"LOD 0","nodes":[0,1,2,3,4,5,6,7,8,9,10,11,12,13,14,15,16,17,18],"extras":{"level":0}},{"name":"LOD 1","nodes":[19,20,21,22,23,24,25,26,27,28,29,30,31,32,33,34,35,36,37],"extras":{"level":1}},{"name":"LOD 2","nodes":[38,39,40,41,42,43,44,45,46,47,48],"extras":{"level":2}}],"nodes":[{"name":"surveyed lot","mesh":0,"translation":[0,0.06,0],"scale":[22.8,0.12,15.6]},{"name":"commemorative parking lot","mesh":1,"translation":[0,0.09,0],"scale":[14,0.18,7.5]},{"name":"empty stripe 0","mesh":2,"translation":[-6.2,0.24,0.2],"scale":[0.09,0.035,5.2]},{"name":"empty stripe 1","mesh":2,"translation":[-4.822222,0.24,0.2],"scale":[0.09,0.035,5.2]},{"name":"empty stripe 2","mesh":2,"translation":[-3.444444,0.24,0.2],"scale":[0.09,0.035,5.2]},{"name":"empty stripe 3","mesh":2,"translation":[-2.066667,0.24,0.2],"scale":[0.09,0.035,5.2]},{"name":"empty stripe 4","mesh":2,"translation":[-0.688889,0.24,0.2],"scale":[0.09,0.035,5.2]},{"name":"empty stripe 5","mesh":2,"translation":[0.688889,0.24,0.2],"scale":[0.09,0.035,5.2]},{"name":"empty stripe 6","mesh":2,"translation":[2.066667,0.24,0.2],"scale":[0.09,0.035,5.2]},{"name":"empty stripe 7","mesh":2,"translation":[3.444444,0.24,0.2],"scale":[0.09,0.035,5.2]},{"name":"empty stripe 8","mesh":2,"translation":[4.822222,0.24,0.2],"scale":[0.09,0.035,5.2]},{"name":"empty stripe 9","mesh":2,"translation":[6.2,0.24,0.2],"scale":[0.09,0.035,5.2]},{"name":"granite plinth","mesh":3,"translation":[0,0.75,-4.6],"scale":[3.8,1.1,2.1]},{"name":"bronze salamander","mesh":4,"translation":[0,0,0]},{"name":"memorial story wall","mesh":5,"translation":[-2.8,0.96,-4.04],"rotation":[0,-0.119712,0,0.992809],"scale":[4.1,1.76,0.28]},{"name":"hellbender plaque-back","mesh":6,"translation":[0,0.9,-3.51],"rotation":[-0.532032,0,0,0.846724],"scale":[3.2,0.82,1]},{"name":"hellbender plaque","mesh":7,"translation":[0,0.926128,-3.497417],"rotation":[-0.532032,0,0,0.846724],"scale":[3.1,0.72,1]},{"name":"memorial suv body","mesh":8,"translation":[-2.5,0.35,0.5],"rotation":[0,1,0,0],"scale":[1.8,0.45,3.6]},{"name":"memorial suv cab","mesh":9,"translation":[-2.5,0.8,0.35],"rotation":[0,1,0,0],"scale":[1.45,0.55,1.65]},{"name":"surveyed lot","mesh":10,"translation":[0,0.06,0],"scale":[22.8,0.12,15.6]},{"name":"commemorative parking lot","mesh":11,"translation":[0,0.09,0],"scale":[14,0.18,7.5]},{"name":"empty stripe 0","mesh":12,"translation":[-6.2,0.24,0.2],"scale":[0.09,0.035,5.2]},{"name":"empty stripe 1","mesh":12,"translation":[-4.822222,0.24,0.2],"scale":[0.09,0.035,5.2]},{"name":"empty stripe 2","mesh":12,"translation":[-3.444444,0.24,0.2],"scale":[0.09,0.035,5.2]},{"name":"empty stripe 3","mesh":12,"translation":[-2.066667,0.24,0.2],"scale":[0.09,0.035,5.2]},{"name":"empty stripe 4","mesh":12,"translation":[-0.688889,0.24,0.2],"scale":[0.09,0.035,5.2]},{"name":"empty stripe 5","mesh":12,"translation":[0.688889,0.24,0.2],"scale":[0.09,0.035,5.2]},{"name":"empty stripe 6","mesh":12,"translation":[2.066667,0.24,0.2],"scale":[0.09,0.035,5.2]},{"name":"empty stripe 7","mesh":12,"translation":[3.444444,0.24,0.2],"scale":[0.09,0.035,5.2]},{"name":"empty stripe 8","mesh":12,"translation":[4.822222,0.24,0.2],"scale":[0.09,0.035,5.2]},{"name":"empty stripe 9","mesh":12,"translation":[6.2,0.24,0.2],"scale":[0.09,0.035,5.2]},{"name":"granite plinth","mesh":13,"translation":[0,0.75,-4.6],"scale":[3.8,1.1,2.1]},{"name":"bronze salamander","mesh":14,"translation":[0,0,0]},{"name":"memorial story wall","mesh":15,"translation":[-2.8,0.96,-4.04],"rotation":[0,-0.119712,0,0.992809],"scale":[4.1,1.76,0.28]},{"name":"hellbender plaque-back","mesh":6,"translation":[0,0.9,-3.51],"rotation":[-0.532032,0,0,0.846724],"scale":[3.2,0.82,1]},{"name":"hellbender plaque","mesh":7,"translation":[0,0.926128,-3.497417],"rotation":[-0.532032,0,0,0.846724],"scale":[3.1,0.72,1]},{"name":"memorial suv body","mesh":16,"translation":[-2.5,0.35,0.5],"rotation":[0,1,0,0],"scale":[1.8,0.45,3.6]},{"name":"memorial suv cab","mesh":17,"translation":[-2.5,0.8,0.35],"rotation":[0,1,0,0],"scale":[1.45,0.55,1.65]},{"name":"surveyed lot","mesh":10,"translation":[0,0.06,0],"scale":[22.8,0.12,15.6]},{"name":"commemorative parking lot","mesh":11,"translation":[0,0.09,0],"scale":[14,0.18,7.5]},{"name":"empty stripe 0","mesh":12,"translation":[-6.2,0.24,0.2],"scale":[0.09,0.035,5.2]},{"name":"empty stripe 1","mesh":12,"translation":[-2.066667,0.24,0.2],"scale":[0.09,0.035,5.2]},{"name":"empty stripe 2","mesh":12,"translation":[2.066667,0.24,0.2],"scale":[0.09,0.035,5.2]},{"name":"empty stripe 3","mesh":12,"translation":[6.2,0.24,0.2],"scale":[0.09,0.035,5.2]},{"name":"granite plinth","mesh":13,"translation":[0,0.75,-4.6],"scale":[3.8,1.1,2.1]},{"name":"bronze salamander","mesh":18,"translation":[0,0,0]},{"name":"memorial story wall","mesh":15,"translation":[-2.8,0.96,-4.04],"rotation":[0,-0.119712,0,0.992809],"scale":[4.1,1.76,0.28]},{"name":"hellbender plaque-back","mesh":6,"translation":[0,0.9,-3.51],"rotation":[-0.532032,0,0,0.846724],"scale":[3.2,0.82,1]},{"name":"hellbender plaque","mesh":7,"translation":[0,0.926128,-3.497417],"rotation":[-0.532032,0,0,0.846724],"scale":[3.1,0.72,1]}],"meshes":[{"primitives":[{"attributes":{"POSITION":0,"NORMAL":1,"TEXCOORD_0":2},"material":0,"mode":4}]},{"primitives":[{"attributes":{"POSITION":0,"NORMAL":1,"TEXCOORD_0":3},"material":1,"mode":4}]},{"primitives":[{"attributes":{"POSITION":0,"NORMAL":1,"TEXCOORD_0":4},"material":2,"mode":4}]},{"primitives":[{"attributes":{"POSITION":0,"NORMAL":1,"TEXCOORD_0":5},"material":3,"mode":4}]},{"primitives":[{"attributes":{"POSITION":6,"NORMAL":7,"TEXCOORD_0":8},"material":4,"mode":4,"indices":9}]},{"primitives":[{"attributes":{"POSITION":0,"NORMAL":1,"TEXCOORD_0":10},"material":3,"mode":4}]},{"primitives":[{"attributes":{"POSITION":11,"NORMAL":12,"TEXCOORD_0":13},"material":5,"mode":4,"indices":14}]},{"primitives":[{"attributes":{"POSITION":15,"NORMAL":16,"TEXCOORD_0":17},"material":6,"mode":4,"indices":18}]},{"primitives":[{"attributes":{"POSITION":0,"NORMAL":1,"TEXCOORD_0":19},"material":7,"mode":4}]},{"primitives":[{"attributes":{"POSITION":0,"NORMAL":1,"TEXCOORD_0":20},"material":8,"mode":4}]},{"primitives":[{"attributes":{"POSITION":21,"NORMAL":12,"TEXCOORD_0":22},"material":0,"mode":4,"indices":14}]},{"primitives":[{"attributes":{"POSITION":21,"NORMAL":12,"TEXCOORD_0":23},"material":1,"mode":4,"indices":14}]},{"primitives":[{"attributes":{"POSITION":21,"NORMAL":12,"TEXCOORD_0":24},"material":2,"mode":4,"indices":14}]},{"primitives":[{"attributes":{"POSITION":21,"NORMAL":12,"TEXCOORD_0":25},"material":3,"mode":4,"indices":14}]},{"primitives":[{"attributes":{"POSITION":26,"NORMAL":27,"TEXCOORD_0":28},"material":4,"mode":4,"indices":29}]},{"primitives":[{"attributes":{"POSITION":21,"NORMAL":12,"TEXCOORD_0":30},"material":3,"mode":4,"indices":14}]},{"primitives":[{"attributes":{"POSITION":21,"NORMAL":12,"TEXCOORD_0":31},"material":7,"mode":4,"indices":14}]},{"primitives":[{"attributes":{"POSITION":21,"NORMAL":12,"TEXCOORD_0":32},"material":8,"mode":4,"indices":14}]},{"primitives":[{"attributes":{"POSITION":33,"NORMAL":34,"TEXCOORD_0":35},"material":4,"mode":4,"indices":36}]}],"materials":[{"name":"concrete","pbrMetallicRoughness":{"baseColorTexture":{"index":0},"metallicRoughnessTexture":{"index":2},"roughnessFactor":1,"metallicFactor":1},"normalTexture":{"index":1,"scale":0.82},"occlusionTexture":{"index":2,"strength":0.35}},{"name":"asphalt","pbrMetallicRoughness":{"baseColorTexture":{"index":3},"metallicRoughnessTexture":{"index":5},"roughnessFactor":1,"metallicFactor":1},"normalTexture":{"index":4,"scale":0.62},"occlusionTexture":{"index":5,"strength":0.35}},{"name":"paint-white","pbrMetallicRoughness":{"baseColorFactor":[0.7912979403281551,0.7681511472425809,0.6795424696265424,1],"roughnessFactor":0.68,"metallicFactor":0}},{"name":"limestone","pbrMetallicRoughness":{"baseColorTexture":{"index":6},"metallicRoughnessTexture":{"index":8},"roughnessFactor":1,"metallicFactor":1},"normalTexture":{"index":7,"scale":0.9},"occlusionTexture":{"index":8,"strength":0.35}},{"name":"metal-copper","pbrMetallicRoughness":{"baseColorTexture":{"index":9},"metallicRoughnessTexture":{"index":11},"roughnessFactor":1,"metallicFactor":1},"normalTexture":{"index":10,"scale":0.7},"occlusionTexture":{"index":11,"strength":0.35}},{"name":"metal-dark","pbrMetallicRoughness":{"baseColorTexture":{"index":12},"metallicRoughnessTexture":{"index":14},"roughnessFactor":1,"metallicFactor":1},"normalTexture":{"index":13,"scale":0.35},"occlusionTexture":{"index":14,"strength":0.35}},{"name":"last-hellbender-memorial signage","pbrMetallicRoughness":{"baseColorTexture":{"index":15},"roughnessFactor":1,"metallicFactor":0},"extensions":{"KHR_materials_unlit":{}}},{"name":"paint-red","pbrMetallicRoughness":{"baseColorFactor":[0.46778379610254284,0.08021982030622662,0.05126945836711539,1],"roughnessFactor":0.62,"metallicFactor":0.05}},{"name":"glass-blue","pbrMetallicRoughness":{"baseColorTexture":{"index":16},"metallicRoughnessTexture":{"index":18},"roughnessFactor":1,"metallicFactor":1},"normalTexture":{"index":17,"scale":0.12},"occlusionTexture":{"index":18,"strength":0.35}}],"textures":[{"source":0,"sampler":0},{"source":1,"sampler":0},{"source":2,"sampler":0},{"source":3,"sampler":0},{"source":4,"sampler":0},{"source":5,"sampler":0},{"source":6,"sampler":0},{"source":7,"sampler":0},{"source":8,"sampler":0},{"source":9,"sampler":0},{"source":10,"sampler":0},{"source":11,"sampler":0},{"source":12,"sampler":0},{"source":13,"sampler":0},{"source":14,"sampler":0},{"source":15,"sampler":0},{"source":16,"sampler":0},{"source":17,"sampler":0},{"source":18,"sampler":0}],"images":[{"uri":"../textures/concrete-albedo.png"},{"uri":"../textures/concrete-normal.png"},{"uri":"../textures/concrete-orm.png"},{"uri":"../textures/asphalt-albedo.png"},{"uri":"../textures/asphalt-normal.png"},{"uri":"../textures/asphalt-orm.png"},{"uri":"../textures/limestone-albedo.png"},{"uri":"../textures/limestone-normal.png"},{"uri":"../textures/limestone-orm.png"},{"uri":"../textures/metal-copper-albedo.png"},{"uri":"../textures/metal-copper-normal.png"},{"uri":"../textures/metal-copper-orm.png"},{"uri":"../textures/metal-dark-albedo.png"},{"uri":"../textures/metal-dark-normal.png"},{"uri":"../textures/metal-dark-orm.png"},{"uri":"../signs/last-hellbender-memorial.png"},{"uri":"../textures/glass-blue-albedo.png"},{"uri":"../textures/glass-blue-normal.png"},{"uri":"../textures/glass-blue-orm.png"}],"samplers":[{"magFilter":9729,"minFilter":9987,"wrapS":10497,"wrapT":10497}],"buffers":[{"uri":"../shared/geometry.bin","byteLength":16435520}],"bufferViews":[{"buffer":0,"byteOffset":0,"byteLength":3888,"target":34962},{"buffer":0,"byteOffset":3888,"byteLength":3888,"target":34962},{"buffer":0,"byteOffset":7494832,"byteLength":2592,"target":34962},{"buffer":0,"byteOffset":7458232,"byteLength":2592,"target":34962},{"buffer":0,"byteOffset":7403024,"byteLength":2592,"target":34962},{"buffer":0,"byteOffset":7405616,"byteLength":2592,"target":34962},{"buffer":0,"byteOffset":7460824,"byteLength":1836,"target":34962},{"buffer":0,"byteOffset":7462660,"byteLength":1836,"target":34962},{"buffer":0,"byteOffset":7411880,"byteLength":1224,"target":34962},{"buffer":0,"byteOffset":7413104,"byteLength":1536,"target":34963},{"buffer":0,"byteOffset":7486288,"byteLength":2592,"target":34962},{"buffer":0,"byteOffset":45664,"byteLength":288,"target":34962},{"buffer":0,"byteOffset":45952,"byteLength":288,"target":34962},{"buffer":0,"byteOffset":46240,"byteLength":192,"target":34962},{"buffer":0,"byteOffset":46432,"byteLength":72,"target":34963},{"buffer":0,"byteOffset":46504,"byteLength":48,"target":34962},{"buffer":0,"byteOffset":46552,"byteLength":48,"target":34962},{"buffer":0,"byteOffset":222820,"byteLength":32,"target":34962},{"buffer":0,"byteOffset":46632,"byteLength":12,"target":34963},{"buffer":0,"byteOffset":7511536,"byteLength":2592,"target":34962},{"buffer":0,"byteOffset":6672632,"byteLength":2592,"target":34962},{"buffer":0,"byteOffset":46644,"byteLength":288,"target":34962},{"buffer":0,"byteOffset":7497424,"byteLength":192,"target":34962},{"buffer":0,"byteOffset":7464688,"byteLength":192,"target":34962},{"buffer":0,"byteOffset":7417616,"byteLength":192,"target":34962},{"buffer":0,"byteOffset":7417808,"byteLength":192,"target":34962},{"buffer":0,"byteOffset":7464880,"byteLength":756,"target":34962},{"buffer":0,"byteOffset":7465636,"byteLength":756,"target":34962},{"buffer":0,"byteOffset":7419512,"byteLength":504,"target":34962},{"buffer":0,"byteOffset":7420016,"byteLength":576,"target":34963},{"buffer":0,"byteOffset":7489072,"byteLength":192,"target":34962},{"buffer":0,"byteOffset":7514128,"byteLength":192,"target":34962},{"buffer":0,"byteOffset":6681556,"byteLength":192,"target":34962},{"buffer":0,"byteOffset":7466392,"byteLength":300,"target":34962},{"buffer":0,"byteOffset":7466692,"byteLength":300,"target":34962},{"buffer":0,"byteOffset":7421384,"byteLength":200,"target":34962},{"buffer":0,"byteOffset":440168,"byteLength":192,"target":34963}],"accessors":[{"bufferView":0,"componentType":5126,"count":324,"type":"VEC3","min":[-0.5,-0.5,-0.5],"max":[0.5,0.5,0.5]},{"bufferView":1,"componentType":5126,"count":324,"type":"VEC3"},{"bufferView":2,"componentType":5126,"count":324,"type":"VEC2"},{"bufferView":3,"componentType":5126,"count":324,"type":"VEC2"},{"bufferView":4,"componentType":5126,"count":324,"type":"VEC2"},{"bufferView":5,"componentType":5126,"count":324,"type":"VEC2"},{"bufferView":6,"componentType":5126,"count":153,"type":"VEC3","min":[-1.2973542213439941,1.1527129411697388,-4.820000171661377],"max":[1.6533732414245605,1.9634275436401367,-4.380000114440918]},{"bufferView":7,"componentType":5126,"count":153,"type":"VEC3"},{"bufferView":8,"componentType":5126,"count":153,"type":"VEC2"},{"bufferView":9,"componentType":5123,"count":768,"type":"SCALAR"},{"bufferView":10,"componentType":5126,"count":324,"type":"VEC2"},{"bufferView":11,"componentType":5126,"count":24,"type":"VEC3","min":[-0.5,-0.5,-0.02500000037252903],"max":[0.5,0.5,0.02500000037252903]},{"bufferView":12,"componentType":5126,"count":24,"type":"VEC3"},{"bufferView":13,"componentType":5126,"count":24,"type":"VEC2"},{"bufferView":14,"componentType":5123,"count":36,"type":"SCALAR"},{"bufferView":15,"componentType":5126,"count":4,"type":"VEC3","min":[-0.5,-0.5,0],"max":[0.5,0.5,0]},{"bufferView":16,"componentType":5126,"count":4,"type":"VEC3"},{"bufferView":17,"componentType":5126,"count":4,"type":"VEC2"},{"bufferView":18,"componentType":5123,"count":6,"type":"SCALAR"},{"bufferView":19,"componentType":5126,"count":324,"type":"VEC2"},{"bufferView":20,"componentType":5126,"count":324,"type":"VEC2"},{"bufferView":21,"componentType":5126,"count":24,"type":"VEC3","min":[-0.5,-0.5,-0.5],"max":[0.5,0.5,0.5]},{"bufferView":22,"componentType":5126,"count":24,"type":"VEC2"},{"bufferView":23,"componentType":5126,"count":24,"type":"VEC2"},{"bufferView":24,"componentType":5126,"count":24,"type":"VEC2"},{"bufferView":25,"componentType":5126,"count":24,"type":"VEC2"},{"bufferView":26,"componentType":5126,"count":63,"type":"VEC3","min":[-1.2843111753463745,1.1791443824768066,-4.820000171661377],"max":[1.6462225914001465,1.9348336458206177,-4.380000114440918]},{"bufferView":27,"componentType":5126,"count":63,"type":"VEC3"},{"bufferView":28,"componentType":5126,"count":63,"type":"VEC2"},{"bufferView":29,"componentType":5123,"count":288,"type":"SCALAR"},{"bufferView":30,"componentType":5126,"count":24,"type":"VEC2"},{"bufferView":31,"componentType":5126,"count":24,"type":"VEC2"},{"bufferView":32,"componentType":5126,"count":24,"type":"VEC2"},{"bufferView":33,"componentType":5126,"count":25,"type":"VEC3","min":[-1.2973542213439941,1.1527129411697388,-4.820000171661377],"max":[1.6533732414245605,1.9634275436401367,-4.380000114440918]},{"bufferView":34,"componentType":5126,"count":25,"type":"VEC3"},{"bufferView":35,"componentType":5126,"count":25,"type":"VEC2"},{"bufferView":36,"componentType":5123,"count":96,"type":"SCALAR"}],"extensionsUsed":["KHR_materials_unlit"],"extras":{"id":"vlt-last-hellbender-memorial-35","family":"last-hellbender-memorial","variant":34,"plan":"C5-2","units":"metres","up":"+Y","front":"+Z","lodScenes":[0,1,2]}}