{"asset":{"version":"2.0","generator":"SLOPMERICA Department of Unnecessary Development 1.0"},"scene":0,"scenes":[{"name":"LOD 0","nodes":[0,1,2,3,4,5,6,7,8,9,10,11,12,13,14,15,16,17,18,19,20],"extras":{"level":0}},{"name":"LOD 1","nodes":[21,22,23,24,25,26,27,28,29,30,31,32,33,34,35,36,37,38,39,40,41],"extras":{"level":1}},{"name":"LOD 2","nodes":[42,43,44,45,46,47,48,49,50,51,52,53,54],"extras":{"level":2}}],"nodes":[{"name":"site-pad","mesh":0,"translation":[0,0.06,0],"scale":[15.9744,0.12,9.984]},{"name":"variant-apron","mesh":1,"translation":[-2.9952,0.13,5.02],"scale":[3.7632,0.08,0.8]},{"name":"bollard-0","mesh":2,"translation":[-5.8368,0.43,5.14],"scale":[0.08,0.62,0.08]},{"name":"bollard-1","mesh":2,"translation":[5.8368,0.43,5.14],"scale":[0.08,0.62,0.08]},{"name":"layout-cabinet","mesh":3,"translation":[-7.88,0.525,-2.16],"scale":[0.45,0.81,0.32]},{"name":"deferred-maintenance-skip","mesh":4,"translation":[5.2224,0.5,-4.224],"scale":[1.27,0.75,0.65]},{"name":"skip-rubble","mesh":5,"translation":[5.2224,0.98,-4.224],"scale":[0.72,0.2,0.5]},{"name":"industrial-shell","mesh":6,"translation":[0,2.9765,0],"scale":[15.36,5.713,9.6]},{"name":"industrial-roof","mesh":7,"translation":[0,5.983,0],"scale":[15.71,0.28,9.95]},{"name":"loading-bay-0","mesh":8,"translation":[-5.8368,1.38,4.92],"scale":[2.2,2.5,0.16]},{"name":"dock-0","mesh":9,"translation":[-5.8368,0.35,5.38],"scale":[1.8,0.45,1]},{"name":"loading-bay-1","mesh":8,"translation":[0,1.38,4.92],"scale":[2.2,2.5,0.16]},{"name":"dock-1","mesh":9,"translation":[0,0.35,5.38],"scale":[1.8,0.45,1]},{"name":"loading-bay-2","mesh":8,"translation":[5.8368,1.38,4.92],"scale":[2.2,2.5,0.16]},{"name":"dock-2","mesh":9,"translation":[5.8368,0.35,5.38],"scale":[1.8,0.45,1]},{"name":"bus-canopy-0","mesh":10,"translation":[-1.4,3.3,7.8],"scale":[2.4,0.18,6.45]},{"name":"canopy-post-0","mesh":11,"translation":[-1.4,1.65,7.8],"scale":[0.16,3.1,0.16]},{"name":"bus-canopy-1","mesh":10,"translation":[1.4,3.3,7.8],"scale":[2.4,0.18,6.45]},{"name":"canopy-post-1","mesh":11,"translation":[1.4,1.65,7.8],"scale":[0.16,3.1,0.16]},{"name":"depot-sign-back","mesh":12,"translation":[0,4.913,4.98],"scale":[5.6,1.1,1]},{"name":"depot-sign","mesh":13,"translation":[0,4.913,5.009],"scale":[5.5,1,1]},{"name":"site-pad","mesh":14,"translation":[0,0.06,0],"scale":[15.9744,0.12,9.984]},{"name":"variant-apron","mesh":15,"translation":[-2.9952,0.13,5.02],"scale":[3.7632,0.08,0.8]},{"name":"bollard-0","mesh":16,"translation":[-5.8368,0.43,5.14],"scale":[0.08,0.62,0.08]},{"name":"bollard-1","mesh":16,"translation":[5.8368,0.43,5.14],"scale":[0.08,0.62,0.08]},{"name":"layout-cabinet","mesh":17,"translation":[-7.88,0.525,-2.16],"scale":[0.45,0.81,0.32]},{"name":"deferred-maintenance-skip","mesh":18,"translation":[5.2224,0.5,-4.224],"scale":[1.27,0.75,0.65]},{"name":"skip-rubble","mesh":19,"translation":[5.2224,0.98,-4.224],"scale":[0.72,0.2,0.5]},{"name":"industrial-shell","mesh":20,"translation":[0,2.9765,0],"scale":[15.36,5.713,9.6]},{"name":"industrial-roof","mesh":21,"translation":[0,5.983,0],"scale":[15.71,0.28,9.95]},{"name":"loading-bay-0","mesh":22,"translation":[-5.8368,1.38,4.92],"scale":[2.2,2.5,0.16]},{"name":"dock-0","mesh":23,"translation":[-5.8368,0.35,5.38],"scale":[1.8,0.45,1]},{"name":"loading-bay-1","mesh":22,"translation":[0,1.38,4.92],"scale":[2.2,2.5,0.16]},{"name":"dock-1","mesh":23,"translation":[0,0.35,5.38],"scale":[1.8,0.45,1]},{"name":"loading-bay-2","mesh":22,"translation":[5.8368,1.38,4.92],"scale":[2.2,2.5,0.16]},{"name":"dock-2","mesh":23,"translation":[5.8368,0.35,5.38],"scale":[1.8,0.45,1]},{"name":"bus-canopy-0","mesh":24,"translation":[-1.4,3.3,7.8],"scale":[2.4,0.18,6.45]},{"name":"canopy-post-0","mesh":25,"translation":[-1.4,1.65,7.8],"scale":[0.16,3.1,0.16]},{"name":"bus-canopy-1","mesh":24,"translation":[1.4,3.3,7.8],"scale":[2.4,0.18,6.45]},{"name":"canopy-post-1","mesh":25,"translation":[1.4,1.65,7.8],"scale":[0.16,3.1,0.16]},{"name":"depot-sign-back","mesh":12,"translation":[0,4.913,4.98],"scale":[5.6,1.1,1]},{"name":"depot-sign","mesh":13,"translation":[0,4.913,5.009],"scale":[5.5,1,1]},{"name":"site-pad","mesh":14,"translation":[0,0.06,0],"scale":[15.9744,0.12,9.984]},{"name":"variant-apron","mesh":15,"translation":[-2.9952,0.13,5.02],"scale":[3.7632,0.08,0.8]},{"name":"bollard-0","mesh":16,"translation":[-5.8368,0.43,5.14],"scale":[0.08,0.62,0.08]},{"name":"layout-cabinet","mesh":17,"translation":[-7.88,0.525,-2.16],"scale":[0.45,0.81,0.32]},{"name":"deferred-maintenance-skip","mesh":18,"translation":[5.2224,0.5,-4.224],"scale":[1.27,0.75,0.65]},{"name":"industrial-shell","mesh":20,"translation":[0,2.9765,0],"scale":[15.36,5.713,9.6]},{"name":"industrial-roof","mesh":21,"translation":[0,5.983,0],"scale":[15.71,0.28,9.95]},{"name":"loading-bay-0","mesh":22,"translation":[-5.8368,1.38,4.92],"scale":[2.2,2.5,0.16]},{"name":"loading-bay-1","mesh":22,"translation":[5.8368,1.38,4.92],"scale":[2.2,2.5,0.16]},{"name":"bus-canopy-0","mesh":24,"translation":[0,3.3,7.8],"scale":[2.4,0.18,6.45]},{"name":"canopy-post-0","mesh":25,"translation":[0,1.65,7.8],"scale":[0.16,3.1,0.16]},{"name":"depot-sign-back","mesh":12,"translation":[0,4.913,4.98],"scale":[5.6,1.1,1]},{"name":"depot-sign","mesh":13,"translation":[0,4.913,5.009],"scale":[5.5,1,1]}],"meshes":[{"primitives":[{"attributes":{"POSITION":0,"NORMAL":1,"TEXCOORD_0":2},"material":0,"mode":4}]},{"primitives":[{"attributes":{"POSITION":0,"NORMAL":1,"TEXCOORD_0":3},"material":0,"mode":4}]},{"primitives":[{"attributes":{"POSITION":4,"NORMAL":5,"TEXCOORD_0":6},"material":1,"mode":4,"indices":7}]},{"primitives":[{"attributes":{"POSITION":0,"NORMAL":1,"TEXCOORD_0":8},"material":2,"mode":4}]},{"primitives":[{"attributes":{"POSITION":0,"NORMAL":1,"TEXCOORD_0":9},"material":1,"mode":4}]},{"primitives":[{"attributes":{"POSITION":0,"NORMAL":1,"TEXCOORD_0":10},"material":3,"mode":4}]},{"primitives":[{"attributes":{"POSITION":11,"NORMAL":1,"TEXCOORD_0":12},"material":2,"mode":4}]},{"primitives":[{"attributes":{"POSITION":0,"NORMAL":1,"TEXCOORD_0":13},"material":4,"mode":4}]},{"primitives":[{"attributes":{"POSITION":0,"NORMAL":1,"TEXCOORD_0":14},"material":5,"mode":4}]},{"primitives":[{"attributes":{"POSITION":0,"NORMAL":1,"TEXCOORD_0":15},"material":3,"mode":4}]},{"primitives":[{"attributes":{"POSITION":0,"NORMAL":1,"TEXCOORD_0":16},"material":4,"mode":4}]},{"primitives":[{"attributes":{"POSITION":0,"NORMAL":1,"TEXCOORD_0":17},"material":5,"mode":4}]},{"primitives":[{"attributes":{"POSITION":18,"NORMAL":19,"TEXCOORD_0":20},"material":5,"mode":4,"indices":21}]},{"primitives":[{"attributes":{"POSITION":22,"NORMAL":23,"TEXCOORD_0":24},"material":6,"mode":4,"indices":25}]},{"primitives":[{"attributes":{"POSITION":26,"NORMAL":19,"TEXCOORD_0":27},"material":0,"mode":4,"indices":21}]},{"primitives":[{"attributes":{"POSITION":26,"NORMAL":19,"TEXCOORD_0":28},"material":0,"mode":4,"indices":21}]},{"primitives":[{"attributes":{"POSITION":29,"NORMAL":30,"TEXCOORD_0":31},"material":1,"mode":4,"indices":32}]},{"primitives":[{"attributes":{"POSITION":26,"NORMAL":19,"TEXCOORD_0":33},"material":2,"mode":4,"indices":21}]},{"primitives":[{"attributes":{"POSITION":26,"NORMAL":19,"TEXCOORD_0":34},"material":1,"mode":4,"indices":21}]},{"primitives":[{"attributes":{"POSITION":26,"NORMAL":19,"TEXCOORD_0":35},"material":3,"mode":4,"indices":21}]},{"primitives":[{"attributes":{"POSITION":26,"NORMAL":19,"TEXCOORD_0":36},"material":2,"mode":4,"indices":21}]},{"primitives":[{"attributes":{"POSITION":26,"NORMAL":19,"TEXCOORD_0":37},"material":4,"mode":4,"indices":21}]},{"primitives":[{"attributes":{"POSITION":26,"NORMAL":19,"TEXCOORD_0":38},"material":5,"mode":4,"indices":21}]},{"primitives":[{"attributes":{"POSITION":26,"NORMAL":19,"TEXCOORD_0":39},"material":3,"mode":4,"indices":21}]},{"primitives":[{"attributes":{"POSITION":26,"NORMAL":19,"TEXCOORD_0":40},"material":4,"mode":4,"indices":21}]},{"primitives":[{"attributes":{"POSITION":26,"NORMAL":19,"TEXCOORD_0":41},"material":5,"mode":4,"indices":21}]}],"materials":[{"name":"asphalt","pbrMetallicRoughness":{"baseColorTexture":{"index":0},"metallicRoughnessTexture":{"index":2},"roughnessFactor":1,"metallicFactor":1},"normalTexture":{"index":1,"scale":0.62},"occlusionTexture":{"index":2,"strength":0.35}},{"name":"paint-orange","pbrMetallicRoughness":{"baseColorFactor":[0.6444796819634361,0.1878207722902346,0.040915196900556984,1],"roughnessFactor":0.68,"metallicFactor":0.03}},{"name":"metal-galvanized","pbrMetallicRoughness":{"baseColorTexture":{"index":3},"metallicRoughnessTexture":{"index":5},"roughnessFactor":1,"metallicFactor":1},"normalTexture":{"index":4,"scale":0.15},"occlusionTexture":{"index":5,"strength":0.35}},{"name":"concrete","pbrMetallicRoughness":{"baseColorTexture":{"index":6},"metallicRoughnessTexture":{"index":8},"roughnessFactor":1,"metallicFactor":1},"normalTexture":{"index":7,"scale":0.82},"occlusionTexture":{"index":8,"strength":0.35}},{"name":"roof-metal","pbrMetallicRoughness":{"baseColorTexture":{"index":9},"metallicRoughnessTexture":{"index":11},"roughnessFactor":1,"metallicFactor":1},"normalTexture":{"index":10,"scale":0.68},"occlusionTexture":{"index":11,"strength":0.35}},{"name":"metal-dark","pbrMetallicRoughness":{"baseColorTexture":{"index":12},"metallicRoughnessTexture":{"index":14},"roughnessFactor":1,"metallicFactor":1},"normalTexture":{"index":13,"scale":0.35},"occlusionTexture":{"index":14,"strength":0.35}},{"name":"one-bus-depot signage","pbrMetallicRoughness":{"baseColorTexture":{"index":15},"roughnessFactor":1,"metallicFactor":0},"extensions":{"KHR_materials_unlit":{}}}],"textures":[{"source":0,"sampler":0},{"source":1,"sampler":0},{"source":2,"sampler":0},{"source":3,"sampler":0},{"source":4,"sampler":0},{"source":5,"sampler":0},{"source":6,"sampler":0},{"source":7,"sampler":0},{"source":8,"sampler":0},{"source":9,"sampler":0},{"source":10,"sampler":0},{"source":11,"sampler":0},{"source":12,"sampler":0},{"source":13,"sampler":0},{"source":14,"sampler":0},{"source":15,"sampler":0}],"images":[{"uri":"../textures/asphalt-albedo.png"},{"uri":"../textures/asphalt-normal.png"},{"uri":"../textures/asphalt-orm.png"},{"uri":"../textures/metal-galvanized-albedo.png"},{"uri":"../textures/metal-galvanized-normal.png"},{"uri":"../textures/metal-galvanized-orm.png"},{"uri":"../textures/concrete-albedo.png"},{"uri":"../textures/concrete-normal.png"},{"uri":"../textures/concrete-orm.png"},{"uri":"../textures/roof-metal-albedo.png"},{"uri":"../textures/roof-metal-normal.png"},{"uri":"../textures/roof-metal-orm.png"},{"uri":"../textures/metal-dark-albedo.png"},{"uri":"../textures/metal-dark-normal.png"},{"uri":"../textures/metal-dark-orm.png"},{"uri":"../signs/one-bus-depot.png"}],"samplers":[{"magFilter":9729,"minFilter":9987,"wrapS":10497,"wrapT":10497}],"buffers":[{"uri":"../shared/geometry.bin","byteLength":16435520}],"bufferViews":[{"buffer":0,"byteOffset":0,"byteLength":3888,"target":34962},{"buffer":0,"byteOffset":3888,"byteLength":3888,"target":34962},{"buffer":0,"byteOffset":9497912,"byteLength":2592,"target":34962},{"buffer":0,"byteOffset":9500504,"byteLength":2592,"target":34962},{"buffer":0,"byteOffset":12960,"byteLength":1200,"target":34962},{"buffer":0,"byteOffset":14160,"byteLength":1200,"target":34962},{"buffer":0,"byteOffset":15360,"byteLength":800,"target":34962},{"buffer":0,"byteOffset":16160,"byteLength":384,"target":34963},{"buffer":0,"byteOffset":56548,"byteLength":2592,"target":34962},{"buffer":0,"byteOffset":211268,"byteLength":2592,"target":34962},{"buffer":0,"byteOffset":208260,"byteLength":2592,"target":34962},{"buffer":0,"byteOffset":19136,"byteLength":3888,"target":34962},{"buffer":0,"byteOffset":9503096,"byteLength":2592,"target":34962},{"buffer":0,"byteOffset":9505688,"byteLength":2592,"target":34962},{"buffer":0,"byteOffset":28208,"byteLength":2592,"target":34962},{"buffer":0,"byteOffset":30800,"byteLength":2592,"target":34962},{"buffer":0,"byteOffset":9508280,"byteLength":2592,"target":34962},{"buffer":0,"byteOffset":9494360,"byteLength":2592,"target":34962},{"buffer":0,"byteOffset":45664,"byteLength":288,"target":34962},{"buffer":0,"byteOffset":45952,"byteLength":288,"target":34962},{"buffer":0,"byteOffset":46240,"byteLength":192,"target":34962},{"buffer":0,"byteOffset":46432,"byteLength":72,"target":34963},{"buffer":0,"byteOffset":46504,"byteLength":48,"target":34962},{"buffer":0,"byteOffset":46552,"byteLength":48,"target":34962},{"buffer":0,"byteOffset":213860,"byteLength":32,"target":34962},{"buffer":0,"byteOffset":46632,"byteLength":12,"target":34963},{"buffer":0,"byteOffset":46644,"byteLength":288,"target":34962},{"buffer":0,"byteOffset":9510872,"byteLength":192,"target":34962},{"buffer":0,"byteOffset":9511064,"byteLength":192,"target":34962},{"buffer":0,"byteOffset":47316,"byteLength":480,"target":34962},{"buffer":0,"byteOffset":47796,"byteLength":480,"target":34962},{"buffer":0,"byteOffset":48276,"byteLength":320,"target":34962},{"buffer":0,"byteOffset":48596,"byteLength":144,"target":34963},{"buffer":0,"byteOffset":67332,"byteLength":192,"target":34962},{"buffer":0,"byteOffset":213892,"byteLength":192,"target":34962},{"buffer":0,"byteOffset":211076,"byteLength":192,"target":34962},{"buffer":0,"byteOffset":9511256,"byteLength":192,"target":34962},{"buffer":0,"byteOffset":9511448,"byteLength":192,"target":34962},{"buffer":0,"byteOffset":49316,"byteLength":192,"target":34962},{"buffer":0,"byteOffset":49508,"byteLength":192,"target":34962},{"buffer":0,"byteOffset":9511640,"byteLength":192,"target":34962},{"buffer":0,"byteOffset":9497720,"byteLength":192,"target":34962}],"accessors":[{"bufferView":0,"componentType":5126,"count":324,"type":"VEC3","min":[-0.5,-0.5,-0.5],"max":[0.5,0.5,0.5]},{"bufferView":1,"componentType":5126,"count":324,"type":"VEC3"},{"bufferView":2,"componentType":5126,"count":324,"type":"VEC2"},{"bufferView":3,"componentType":5126,"count":324,"type":"VEC2"},{"bufferView":4,"componentType":5126,"count":100,"type":"VEC3","min":[-1,-0.5,-1],"max":[1,0.5,1]},{"bufferView":5,"componentType":5126,"count":100,"type":"VEC3"},{"bufferView":6,"componentType":5126,"count":100,"type":"VEC2"},{"bufferView":7,"componentType":5123,"count":192,"type":"SCALAR"},{"bufferView":8,"componentType":5126,"count":324,"type":"VEC2"},{"bufferView":9,"componentType":5126,"count":324,"type":"VEC2"},{"bufferView":10,"componentType":5126,"count":324,"type":"VEC2"},{"bufferView":11,"componentType":5126,"count":324,"type":"VEC3","min":[-0.5,-0.5,-0.5],"max":[0.5,0.5,0.5]},{"bufferView":12,"componentType":5126,"count":324,"type":"VEC2"},{"bufferView":13,"componentType":5126,"count":324,"type":"VEC2"},{"bufferView":14,"componentType":5126,"count":324,"type":"VEC2"},{"bufferView":15,"componentType":5126,"count":324,"type":"VEC2"},{"bufferView":16,"componentType":5126,"count":324,"type":"VEC2"},{"bufferView":17,"componentType":5126,"count":324,"type":"VEC2"},{"bufferView":18,"componentType":5126,"count":24,"type":"VEC3","min":[-0.5,-0.5,-0.02500000037252903],"max":[0.5,0.5,0.02500000037252903]},{"bufferView":19,"componentType":5126,"count":24,"type":"VEC3"},{"bufferView":20,"componentType":5126,"count":24,"type":"VEC2"},{"bufferView":21,"componentType":5123,"count":36,"type":"SCALAR"},{"bufferView":22,"componentType":5126,"count":4,"type":"VEC3","min":[-0.5,-0.5,0],"max":[0.5,0.5,0]},{"bufferView":23,"componentType":5126,"count":4,"type":"VEC3"},{"bufferView":24,"componentType":5126,"count":4,"type":"VEC2"},{"bufferView":25,"componentType":5123,"count":6,"type":"SCALAR"},{"bufferView":26,"componentType":5126,"count":24,"type":"VEC3","min":[-0.5,-0.5,-0.5],"max":[0.5,0.5,0.5]},{"bufferView":27,"componentType":5126,"count":24,"type":"VEC2"},{"bufferView":28,"componentType":5126,"count":24,"type":"VEC2"},{"bufferView":29,"componentType":5126,"count":40,"type":"VEC3","min":[-0.8660253882408142,-0.5,-1],"max":[0.8660253882408142,0.5,1]},{"bufferView":30,"componentType":5126,"count":40,"type":"VEC3"},{"bufferView":31,"componentType":5126,"count":40,"type":"VEC2"},{"bufferView":32,"componentType":5123,"count":72,"type":"SCALAR"},{"bufferView":33,"componentType":5126,"count":24,"type":"VEC2"},{"bufferView":34,"componentType":5126,"count":24,"type":"VEC2"},{"bufferView":35,"componentType":5126,"count":24,"type":"VEC2"},{"bufferView":36,"componentType":5126,"count":24,"type":"VEC2"},{"bufferView":37,"componentType":5126,"count":24,"type":"VEC2"},{"bufferView":38,"componentType":5126,"count":24,"type":"VEC2"},{"bufferView":39,"componentType":5126,"count":24,"type":"VEC2"},{"bufferView":40,"componentType":5126,"count":24,"type":"VEC2"},{"bufferView":41,"componentType":5126,"count":24,"type":"VEC2"}],"extensionsUsed":["KHR_materials_unlit"],"extras":{"id":"vlt-one-bus-depot-22","family":"one-bus-depot","variant":21,"plan":"A2-2","units":"metres","up":"+Y","front":"+Z","lodScenes":[0,1,2]}}