{"asset":{"version":"2.0","generator":"SLOPMERICA Department of Unnecessary Development 1.0"},"scene":0,"scenes":[{"name":"LOD 0","nodes":[0,1,2,3,4,5,6,7,8,9,10,11],"extras":{"level":0}},{"name":"LOD 1","nodes":[12,13,14,15,16,17,18,19,20,21],"extras":{"level":1}},{"name":"LOD 2","nodes":[22,23,24,25,26,27,28,29,30],"extras":{"level":2}}],"nodes":[{"name":"foundation","mesh":0,"translation":[0,0.08,0],"scale":[17.8,0.16,15.915]},{"name":"subscription-hub","mesh":1,"translation":[0,2.97,0],"scale":[4.836,5.94,4.836]},{"name":"recurring-pod-0","mesh":2,"translation":[4.629037,1.15,2.276419],"rotation":[0,-0.252245,0,0.967663],"scale":[2,2.3,1.25]},{"name":"recurring-pod-1","mesh":3,"translation":[0.072126,1.15,4.662669],"rotation":[0,-0.702283,0,0.711898],"scale":[2,2.3,1.25]},{"name":"recurring-pod-2","mesh":4,"translation":[-4.556911,1.15,2.38625],"rotation":[0,0.964144,0,-0.265381],"scale":[2,2.3,1.25]},{"name":"recurring-pod-3","mesh":2,"translation":[-4.629037,1.15,-2.276419],"rotation":[0,0.967663,0,0.252245],"scale":[2,2.3,1.25]},{"name":"recurring-pod-4","mesh":3,"translation":[-0.072126,1.15,-4.662669],"rotation":[0,0.711898,0,0.702283],"scale":[2,2.3,1.25]},{"name":"recurring-pod-5","mesh":4,"translation":[4.556911,1.15,-2.38625],"rotation":[0,0.265381,0,0.964144],"scale":[2,2.3,1.25]},{"name":"recurring-arrow","mesh":5,"translation":[0,4.3956,0],"rotation":[0.707107,0,0,0.707107]},{"name":"subscription-sign-back","mesh":6,"translation":[0,3.267,4.3888],"scale":[3.9,1.1,1]},{"name":"subscription-sign","mesh":7,"translation":[0,3.267,4.4178],"scale":[3.8,1,1]},{"name":"open-state-bollard","mesh":8,"translation":[6.708,0.425,7.6804],"scale":[0.22,0.85,0.22]},{"name":"foundation","mesh":9,"translation":[0,0.08,0],"scale":[17.8,0.16,15.915]},{"name":"subscription-hub","mesh":10,"translation":[0,2.97,0],"scale":[4.836,5.94,4.836]},{"name":"recurring-pod-0","mesh":11,"translation":[4.629037,1.15,2.276419],"rotation":[0,-0.252245,0,0.967663],"scale":[2,2.3,1.25]},{"name":"recurring-pod-1","mesh":12,"translation":[-2.589292,1.15,4.069695],"rotation":[0,-0.862606,0,0.505877],"scale":[2,2.3,1.25]},{"name":"recurring-pod-2","mesh":13,"translation":[-4.629037,1.15,-2.276419],"rotation":[0,0.967663,0,0.252245],"scale":[2,2.3,1.25]},{"name":"recurring-pod-3","mesh":11,"translation":[2.589292,1.15,-4.069695],"rotation":[0,0.505877,0,0.862606],"scale":[2,2.3,1.25]},{"name":"recurring-arrow","mesh":14,"translation":[0,4.3956,0],"rotation":[0.707107,0,0,0.707107]},{"name":"subscription-sign-back","mesh":6,"translation":[0,3.267,4.3888],"scale":[3.9,1.1,1]},{"name":"subscription-sign","mesh":7,"translation":[0,3.267,4.4178],"scale":[3.8,1,1]},{"name":"open-state-bollard","mesh":15,"translation":[6.708,0.425,7.6804],"scale":[0.22,0.85,0.22]},{"name":"foundation","mesh":9,"translation":[0,0.08,0],"scale":[17.8,0.16,15.915]},{"name":"subscription-hub","mesh":16,"translation":[0,2.97,0],"scale":[4.836,5.94,4.836]},{"name":"recurring-pod-0","mesh":11,"translation":[4.629037,1.15,2.276419],"rotation":[0,-0.252245,0,0.967663],"scale":[2,2.3,1.25]},{"name":"recurring-pod-1","mesh":12,"translation":[-4.556911,1.15,2.38625],"rotation":[0,0.964144,0,-0.265381],"scale":[2,2.3,1.25]},{"name":"recurring-pod-2","mesh":13,"translation":[-0.072126,1.15,-4.662669],"rotation":[0,0.711898,0,0.702283],"scale":[2,2.3,1.25]},{"name":"recurring-arrow","mesh":17,"translation":[0,4.3956,0],"rotation":[0.707107,0,0,0.707107]},{"name":"subscription-sign-back","mesh":6,"translation":[0,3.267,4.3888],"scale":[3.9,1.1,1]},{"name":"subscription-sign","mesh":7,"translation":[0,3.267,4.4178],"scale":[3.8,1,1]},{"name":"open-state-bollard","mesh":15,"translation":[6.708,0.425,7.6804],"scale":[0.22,0.85,0.22]}],"meshes":[{"primitives":[{"attributes":{"POSITION":0,"NORMAL":1,"TEXCOORD_0":2},"material":0,"mode":4}]},{"primitives":[{"attributes":{"POSITION":3,"NORMAL":4,"TEXCOORD_0":5},"material":1,"mode":4,"indices":6}]},{"primitives":[{"attributes":{"POSITION":7,"NORMAL":1,"TEXCOORD_0":8},"material":2,"mode":4}]},{"primitives":[{"attributes":{"POSITION":7,"NORMAL":1,"TEXCOORD_0":8},"material":3,"mode":4}]},{"primitives":[{"attributes":{"POSITION":7,"NORMAL":1,"TEXCOORD_0":8},"material":4,"mode":4}]},{"primitives":[{"attributes":{"POSITION":9,"NORMAL":10,"TEXCOORD_0":11},"material":3,"mode":4,"indices":12}]},{"primitives":[{"attributes":{"POSITION":13,"NORMAL":14,"TEXCOORD_0":15},"material":1,"mode":4,"indices":16}]},{"primitives":[{"attributes":{"POSITION":17,"NORMAL":18,"TEXCOORD_0":19},"material":5,"mode":4,"indices":20}]},{"primitives":[{"attributes":{"POSITION":0,"NORMAL":1,"TEXCOORD_0":21},"material":3,"mode":4}]},{"primitives":[{"attributes":{"POSITION":22,"NORMAL":14,"TEXCOORD_0":23},"material":0,"mode":4,"indices":16}]},{"primitives":[{"attributes":{"POSITION":24,"NORMAL":25,"TEXCOORD_0":26},"material":1,"mode":4,"indices":27}]},{"primitives":[{"attributes":{"POSITION":22,"NORMAL":14,"TEXCOORD_0":28},"material":2,"mode":4,"indices":16}]},{"primitives":[{"attributes":{"POSITION":22,"NORMAL":14,"TEXCOORD_0":28},"material":3,"mode":4,"indices":16}]},{"primitives":[{"attributes":{"POSITION":22,"NORMAL":14,"TEXCOORD_0":28},"material":4,"mode":4,"indices":16}]},{"primitives":[{"attributes":{"POSITION":29,"NORMAL":30,"TEXCOORD_0":31},"material":3,"mode":4,"indices":32}]},{"primitives":[{"attributes":{"POSITION":22,"NORMAL":14,"TEXCOORD_0":33},"material":3,"mode":4,"indices":16}]},{"primitives":[{"attributes":{"POSITION":34,"NORMAL":35,"TEXCOORD_0":36},"material":1,"mode":4,"indices":37}]},{"primitives":[{"attributes":{"POSITION":38,"NORMAL":39,"TEXCOORD_0":40},"material":3,"mode":4,"indices":41}]}],"materials":[{"name":"concrete","pbrMetallicRoughness":{"baseColorTexture":{"index":0},"metallicRoughnessTexture":{"index":2},"roughnessFactor":1,"metallicFactor":1},"normalTexture":{"index":1,"scale":0.82},"occlusionTexture":{"index":2,"strength":0.35}},{"name":"metal-dark","pbrMetallicRoughness":{"baseColorTexture":{"index":3},"metallicRoughnessTexture":{"index":5},"roughnessFactor":1,"metallicFactor":1},"normalTexture":{"index":4,"scale":0.35},"occlusionTexture":{"index":5,"strength":0.35}},{"name":"paint-teal","pbrMetallicRoughness":{"baseColorFactor":[0.040915196900556984,0.20507873637973145,0.1878207722902346,1],"roughnessFactor":0.59,"metallicFactor":0.05}},{"name":"paint-orange","pbrMetallicRoughness":{"baseColorFactor":[0.6444796819634361,0.1878207722902346,0.040915196900556984,1],"roughnessFactor":0.68,"metallicFactor":0.03}},{"name":"paint-blue","pbrMetallicRoughness":{"baseColorFactor":[0.05126945836711539,0.10946171076915331,0.22696587349938613,1],"roughnessFactor":0.58,"metallicFactor":0.05}},{"name":"subscription-station signage","pbrMetallicRoughness":{"baseColorTexture":{"index":6},"roughnessFactor":1,"metallicFactor":0},"extensions":{"KHR_materials_unlit":{}}}],"textures":[{"source":0,"sampler":0},{"source":1,"sampler":0},{"source":2,"sampler":0},{"source":3,"sampler":0},{"source":4,"sampler":0},{"source":5,"sampler":0},{"source":6,"sampler":0}],"images":[{"uri":"../textures/concrete-albedo.png"},{"uri":"../textures/concrete-normal.png"},{"uri":"../textures/concrete-orm.png"},{"uri":"../textures/metal-dark-albedo.png"},{"uri":"../textures/metal-dark-normal.png"},{"uri":"../textures/metal-dark-orm.png"},{"uri":"../signs/subscription-station.png"}],"samplers":[{"magFilter":9729,"minFilter":9987,"wrapS":10497,"wrapT":10497}],"buffers":[{"uri":"../shared/geometry.bin","byteLength":16435520}],"bufferViews":[{"buffer":0,"byteOffset":0,"byteLength":3888,"target":34962},{"buffer":0,"byteOffset":3888,"byteLength":3888,"target":34962},{"buffer":0,"byteOffset":13960132,"byteLength":2592,"target":34962},{"buffer":0,"byteOffset":13869004,"byteLength":1200,"target":34962},{"buffer":0,"byteOffset":13870204,"byteLength":1200,"target":34962},{"buffer":0,"byteOffset":13900696,"byteLength":800,"target":34962},{"buffer":0,"byteOffset":16160,"byteLength":384,"target":34963},{"buffer":0,"byteOffset":4709080,"byteLength":3888,"target":34962},{"buffer":0,"byteOffset":13872204,"byteLength":2592,"target":34962},{"buffer":0,"byteOffset":13901496,"byteLength":3132,"target":34962},{"buffer":0,"byteOffset":13877928,"byteLength":3132,"target":34962},{"buffer":0,"byteOffset":393836,"byteLength":2088,"target":34962},{"buffer":0,"byteOffset":395924,"byteLength":2688,"target":34963},{"buffer":0,"byteOffset":45664,"byteLength":288,"target":34962},{"buffer":0,"byteOffset":45952,"byteLength":288,"target":34962},{"buffer":0,"byteOffset":46240,"byteLength":192,"target":34962},{"buffer":0,"byteOffset":46432,"byteLength":72,"target":34963},{"buffer":0,"byteOffset":46504,"byteLength":48,"target":34962},{"buffer":0,"byteOffset":46552,"byteLength":48,"target":34962},{"buffer":0,"byteOffset":194052,"byteLength":32,"target":34962},{"buffer":0,"byteOffset":46632,"byteLength":12,"target":34963},{"buffer":0,"byteOffset":422312,"byteLength":2592,"target":34962},{"buffer":0,"byteOffset":46644,"byteLength":288,"target":34962},{"buffer":0,"byteOffset":13962724,"byteLength":192,"target":34962},{"buffer":0,"byteOffset":13881252,"byteLength":624,"target":34962},{"buffer":0,"byteOffset":13881876,"byteLength":624,"target":34962},{"buffer":0,"byteOffset":13904820,"byteLength":416,"target":34962},{"buffer":0,"byteOffset":1111736,"byteLength":192,"target":34963},{"buffer":0,"byteOffset":13882916,"byteLength":192,"target":34962},{"buffer":0,"byteOffset":13905236,"byteLength":1428,"target":34962},{"buffer":0,"byteOffset":13884536,"byteLength":1428,"target":34962},{"buffer":0,"byteOffset":429424,"byteLength":952,"target":34962},{"buffer":0,"byteOffset":430376,"byteLength":1152,"target":34963},{"buffer":0,"byteOffset":436936,"byteLength":192,"target":34962},{"buffer":0,"byteOffset":13885964,"byteLength":480,"target":34962},{"buffer":0,"byteOffset":13886444,"byteLength":480,"target":34962},{"buffer":0,"byteOffset":13906664,"byteLength":320,"target":34962},{"buffer":0,"byteOffset":48596,"byteLength":144,"target":34963},{"buffer":0,"byteOffset":13906984,"byteLength":660,"target":34962},{"buffer":0,"byteOffset":13887904,"byteLength":660,"target":34962},{"buffer":0,"byteOffset":438448,"byteLength":440,"target":34962},{"buffer":0,"byteOffset":438888,"byteLength":480,"target":34963}],"accessors":[{"bufferView":0,"componentType":5126,"count":324,"type":"VEC3","min":[-0.5,-0.5,-0.5],"max":[0.5,0.5,0.5]},{"bufferView":1,"componentType":5126,"count":324,"type":"VEC3"},{"bufferView":2,"componentType":5126,"count":324,"type":"VEC2"},{"bufferView":3,"componentType":5126,"count":100,"type":"VEC3","min":[-1,-0.5,-1],"max":[1,0.5,1]},{"bufferView":4,"componentType":5126,"count":100,"type":"VEC3"},{"bufferView":5,"componentType":5126,"count":100,"type":"VEC2"},{"bufferView":6,"componentType":5123,"count":192,"type":"SCALAR"},{"bufferView":7,"componentType":5126,"count":324,"type":"VEC3","min":[-0.5,-0.5,-0.5],"max":[0.5,0.5,0.5]},{"bufferView":8,"componentType":5126,"count":324,"type":"VEC2"},{"bufferView":9,"componentType":5126,"count":261,"type":"VEC3","min":[-5.617294788360596,-5.63112735748291,-0.18000000715255737],"max":[5.639999866485596,5.6343207359313965,0.18000000715255737]},{"bufferView":10,"componentType":5126,"count":261,"type":"VEC3"},{"bufferView":11,"componentType":5126,"count":261,"type":"VEC2"},{"bufferView":12,"componentType":5123,"count":1344,"type":"SCALAR"},{"bufferView":13,"componentType":5126,"count":24,"type":"VEC3","min":[-0.5,-0.5,-0.02500000037252903],"max":[0.5,0.5,0.02500000037252903]},{"bufferView":14,"componentType":5126,"count":24,"type":"VEC3"},{"bufferView":15,"componentType":5126,"count":24,"type":"VEC2"},{"bufferView":16,"componentType":5123,"count":36,"type":"SCALAR"},{"bufferView":17,"componentType":5126,"count":4,"type":"VEC3","min":[-0.5,-0.5,0],"max":[0.5,0.5,0]},{"bufferView":18,"componentType":5126,"count":4,"type":"VEC3"},{"bufferView":19,"componentType":5126,"count":4,"type":"VEC2"},{"bufferView":20,"componentType":5123,"count":6,"type":"SCALAR"},{"bufferView":21,"componentType":5126,"count":324,"type":"VEC2"},{"bufferView":22,"componentType":5126,"count":24,"type":"VEC3","min":[-0.5,-0.5,-0.5],"max":[0.5,0.5,0.5]},{"bufferView":23,"componentType":5126,"count":24,"type":"VEC2"},{"bufferView":24,"componentType":5126,"count":52,"type":"VEC3","min":[-1,-0.5,-1],"max":[1,0.5,1]},{"bufferView":25,"componentType":5126,"count":52,"type":"VEC3"},{"bufferView":26,"componentType":5126,"count":52,"type":"VEC2"},{"bufferView":27,"componentType":5123,"count":96,"type":"SCALAR"},{"bufferView":28,"componentType":5126,"count":24,"type":"VEC2"},{"bufferView":29,"componentType":5126,"count":119,"type":"VEC3","min":[-5.586811065673828,-5.635651588439941,-0.15588457882404327],"max":[5.639999866485596,5.612842082977295,0.15588457882404327]},{"bufferView":30,"componentType":5126,"count":119,"type":"VEC3"},{"bufferView":31,"componentType":5126,"count":119,"type":"VEC2"},{"bufferView":32,"componentType":5123,"count":576,"type":"SCALAR"},{"bufferView":33,"componentType":5126,"count":24,"type":"VEC2"},{"bufferView":34,"componentType":5126,"count":40,"type":"VEC3","min":[-0.8660253882408142,-0.5,-1],"max":[0.8660253882408142,0.5,1]},{"bufferView":35,"componentType":5126,"count":40,"type":"VEC3"},{"bufferView":36,"componentType":5126,"count":40,"type":"VEC2"},{"bufferView":37,"componentType":5123,"count":72,"type":"SCALAR"},{"bufferView":38,"componentType":5126,"count":55,"type":"VEC3","min":[-5.628870964050293,-5.614969253540039,-0.18000000715255737],"max":[5.639999866485596,5.637217044830322,0.18000000715255737]},{"bufferView":39,"componentType":5126,"count":55,"type":"VEC3"},{"bufferView":40,"componentType":5126,"count":55,"type":"VEC2"},{"bufferView":41,"componentType":5123,"count":240,"type":"SCALAR"}],"extensionsUsed":["KHR_materials_unlit"],"extras":{"id":"vlt-subscription-station-18","family":"subscription-station","variant":17,"plan":"D3-1","units":"metres","up":"+Y","front":"+Z","lodScenes":[0,1,2]}}