{"asset":{"version":"2.0","generator":"SLOPMERICA Department of Unnecessary Development 1.0"},"scene":0,"scenes":[{"name":"LOD 0","nodes":[0,1,2,3,4,5,6,7,8,9,10,11,12,13,14,15,16,17,18,19,20,21,22,23,24,25,26,27],"extras":{"level":0}},{"name":"LOD 1","nodes":[28,29,30,31,32,33,34,35,36,37,38,39,40,41,42,43,44,45,46,47,48,49,50,51,52,53,54,55],"extras":{"level":1}},{"name":"LOD 2","nodes":[56,57,58,59,60,61,62,63],"extras":{"level":2}}],"nodes":[{"name":"surveyed lot","mesh":0,"translation":[0,0.06,0],"scale":[18.24,0.12,18.24]},{"name":"ferris wheel rim","mesh":1,"translation":[0,5.55,-1],"rotation":[0,0.707107,0,0.707107]},{"name":"wheel spoke 0","mesh":2,"translation":[0,0,0]},{"name":"gondola 0","mesh":3,"translation":[0,5.55,3.75],"scale":[0.75,0.65,0.55]},{"name":"wheel spoke 1","mesh":4,"translation":[0,0,0]},{"name":"wheel spoke 2","mesh":5,"translation":[0,0,0]},{"name":"gondola 2","mesh":6,"translation":[0,9.2637,1.961577],"scale":[0.75,0.65,0.55]},{"name":"wheel spoke 3","mesh":7,"translation":[0,0,0]},{"name":"wheel spoke 4","mesh":8,"translation":[0,0,0]},{"name":"gondola 4","mesh":3,"translation":[0,10.180908,-2.056974],"scale":[0.75,0.65,0.55]},{"name":"wheel spoke 5","mesh":9,"translation":[0,0,0]},{"name":"wheel spoke 6","mesh":10,"translation":[0,0,0]},{"name":"gondola 6","mesh":6,"translation":[0,7.610948,-5.279602],"scale":[0.75,0.65,0.55]},{"name":"wheel spoke 7","mesh":11,"translation":[0,0,0]},{"name":"wheel spoke 8","mesh":12,"translation":[0,0,0]},{"name":"gondola 8","mesh":3,"translation":[0,3.489052,-5.279602],"scale":[0.75,0.65,0.55]},{"name":"wheel spoke 9","mesh":13,"translation":[0,0,0]},{"name":"wheel spoke 10","mesh":14,"translation":[0,0,0]},{"name":"gondola 10","mesh":6,"translation":[0,0.919092,-2.056974],"scale":[0.75,0.65,0.55]},{"name":"wheel spoke 11","mesh":15,"translation":[0,0,0]},{"name":"wheel spoke 12","mesh":16,"translation":[0,0,0]},{"name":"gondola 12","mesh":3,"translation":[0,1.8363,1.961577],"scale":[0.75,0.65,0.55]},{"name":"wheel spoke 13","mesh":17,"translation":[0,0,0]},{"name":"left wheel leg","mesh":18,"translation":[0,0,0]},{"name":"right wheel leg","mesh":19,"translation":[0,0,0]},{"name":"midway booth 0","mesh":20,"translation":[-6,1,6],"scale":[2.1,1.8,2]},{"name":"midway booth 1","mesh":21,"translation":[-3.3,1,6],"scale":[2.1,1.8,2]},{"name":"midway booth 2","mesh":20,"translation":[-0.6,1,6],"scale":[2.1,1.8,2]},{"name":"surveyed lot","mesh":22,"translation":[0,0.06,0],"scale":[18.24,0.12,18.24]},{"name":"ferris wheel rim","mesh":23,"translation":[0,5.55,-1],"rotation":[0,0.707107,0,0.707107]},{"name":"wheel spoke 0","mesh":24,"translation":[0,0,0]},{"name":"gondola 0","mesh":25,"translation":[0,5.55,3.75],"scale":[0.75,0.65,0.55]},{"name":"wheel spoke 1","mesh":26,"translation":[0,0,0]},{"name":"wheel spoke 2","mesh":27,"translation":[0,0,0]},{"name":"gondola 2","mesh":28,"translation":[0,9.2637,1.961577],"scale":[0.75,0.65,0.55]},{"name":"wheel spoke 3","mesh":29,"translation":[0,0,0]},{"name":"wheel spoke 4","mesh":30,"translation":[0,0,0]},{"name":"gondola 4","mesh":25,"translation":[0,10.180908,-2.056974],"scale":[0.75,0.65,0.55]},{"name":"wheel spoke 5","mesh":31,"translation":[0,0,0]},{"name":"wheel spoke 6","mesh":32,"translation":[0,0,0]},{"name":"gondola 6","mesh":28,"translation":[0,7.610948,-5.279602],"scale":[0.75,0.65,0.55]},{"name":"wheel spoke 7","mesh":33,"translation":[0,0,0]},{"name":"wheel spoke 8","mesh":34,"translation":[0,0,0]},{"name":"gondola 8","mesh":25,"translation":[0,3.489052,-5.279602],"scale":[0.75,0.65,0.55]},{"name":"wheel spoke 9","mesh":35,"translation":[0,0,0]},{"name":"wheel spoke 10","mesh":36,"translation":[0,0,0]},{"name":"gondola 10","mesh":28,"translation":[0,0.919092,-2.056974],"scale":[0.75,0.65,0.55]},{"name":"wheel spoke 11","mesh":37,"translation":[0,0,0]},{"name":"wheel spoke 12","mesh":38,"translation":[0,0,0]},{"name":"gondola 12","mesh":25,"translation":[0,1.8363,1.961577],"scale":[0.75,0.65,0.55]},{"name":"wheel spoke 13","mesh":39,"translation":[0,0,0]},{"name":"left wheel leg","mesh":40,"translation":[0,0,0]},{"name":"right wheel leg","mesh":41,"translation":[0,0,0]},{"name":"midway booth 0","mesh":42,"translation":[-6,1,6],"scale":[2.1,1.8,2]},{"name":"midway booth 1","mesh":43,"translation":[-3.3,1,6],"scale":[2.1,1.8,2]},{"name":"midway booth 2","mesh":42,"translation":[-0.6,1,6],"scale":[2.1,1.8,2]},{"name":"surveyed lot","mesh":22,"translation":[0,0.06,0],"scale":[18.24,0.12,18.24]},{"name":"ferris wheel rim","mesh":44,"translation":[0,5.55,-1],"rotation":[0,0.707107,0,0.707107]},{"name":"wheel spoke 0","mesh":45,"translation":[0,0,0]},{"name":"wheel spoke 1","mesh":46,"translation":[0,0,0]},{"name":"wheel spoke 2","mesh":47,"translation":[0,0,0]},{"name":"wheel spoke 3","mesh":48,"translation":[0,0,0]},{"name":"left wheel leg","mesh":49,"translation":[0,0,0]},{"name":"right wheel leg","mesh":50,"translation":[0,0,0]}],"meshes":[{"primitives":[{"attributes":{"POSITION":0,"NORMAL":1,"TEXCOORD_0":2},"material":0,"mode":4}]},{"primitives":[{"attributes":{"POSITION":3,"NORMAL":4,"TEXCOORD_0":5},"material":1,"mode":4,"indices":6}]},{"primitives":[{"attributes":{"POSITION":7,"NORMAL":8,"TEXCOORD_0":9},"material":2,"mode":4,"indices":10}]},{"primitives":[{"attributes":{"POSITION":0,"NORMAL":1,"TEXCOORD_0":11},"material":3,"mode":4}]},{"primitives":[{"attributes":{"POSITION":12,"NORMAL":13,"TEXCOORD_0":9},"material":2,"mode":4,"indices":10}]},{"primitives":[{"attributes":{"POSITION":14,"NORMAL":15,"TEXCOORD_0":9},"material":2,"mode":4,"indices":10}]},{"primitives":[{"attributes":{"POSITION":0,"NORMAL":1,"TEXCOORD_0":11},"material":4,"mode":4}]},{"primitives":[{"attributes":{"POSITION":16,"NORMAL":17,"TEXCOORD_0":9},"material":2,"mode":4,"indices":10}]},{"primitives":[{"attributes":{"POSITION":18,"NORMAL":19,"TEXCOORD_0":9},"material":2,"mode":4,"indices":10}]},{"primitives":[{"attributes":{"POSITION":20,"NORMAL":21,"TEXCOORD_0":9},"material":2,"mode":4,"indices":10}]},{"primitives":[{"attributes":{"POSITION":22,"NORMAL":23,"TEXCOORD_0":9},"material":2,"mode":4,"indices":10}]},{"primitives":[{"attributes":{"POSITION":24,"NORMAL":25,"TEXCOORD_0":9},"material":2,"mode":4,"indices":10}]},{"primitives":[{"attributes":{"POSITION":26,"NORMAL":27,"TEXCOORD_0":9},"material":2,"mode":4,"indices":10}]},{"primitives":[{"attributes":{"POSITION":28,"NORMAL":29,"TEXCOORD_0":9},"material":2,"mode":4,"indices":10}]},{"primitives":[{"attributes":{"POSITION":30,"NORMAL":31,"TEXCOORD_0":9},"material":2,"mode":4,"indices":10}]},{"primitives":[{"attributes":{"POSITION":32,"NORMAL":33,"TEXCOORD_0":9},"material":2,"mode":4,"indices":10}]},{"primitives":[{"attributes":{"POSITION":34,"NORMAL":35,"TEXCOORD_0":9},"material":2,"mode":4,"indices":10}]},{"primitives":[{"attributes":{"POSITION":36,"NORMAL":37,"TEXCOORD_0":9},"material":2,"mode":4,"indices":10}]},{"primitives":[{"attributes":{"POSITION":38,"NORMAL":39,"TEXCOORD_0":40},"material":1,"mode":4,"indices":10}]},{"primitives":[{"attributes":{"POSITION":41,"NORMAL":42,"TEXCOORD_0":40},"material":1,"mode":4,"indices":10}]},{"primitives":[{"attributes":{"POSITION":0,"NORMAL":1,"TEXCOORD_0":43},"material":4,"mode":4}]},{"primitives":[{"attributes":{"POSITION":0,"NORMAL":1,"TEXCOORD_0":43},"material":3,"mode":4}]},{"primitives":[{"attributes":{"POSITION":44,"NORMAL":45,"TEXCOORD_0":46},"material":0,"mode":4,"indices":47}]},{"primitives":[{"attributes":{"POSITION":48,"NORMAL":49,"TEXCOORD_0":50},"material":1,"mode":4,"indices":51}]},{"primitives":[{"attributes":{"POSITION":52,"NORMAL":53,"TEXCOORD_0":54},"material":2,"mode":4,"indices":55}]},{"primitives":[{"attributes":{"POSITION":44,"NORMAL":45,"TEXCOORD_0":56},"material":3,"mode":4,"indices":47}]},{"primitives":[{"attributes":{"POSITION":57,"NORMAL":58,"TEXCOORD_0":54},"material":2,"mode":4,"indices":55}]},{"primitives":[{"attributes":{"POSITION":59,"NORMAL":60,"TEXCOORD_0":54},"material":2,"mode":4,"indices":55}]},{"primitives":[{"attributes":{"POSITION":44,"NORMAL":45,"TEXCOORD_0":56},"material":4,"mode":4,"indices":47}]},{"primitives":[{"attributes":{"POSITION":61,"NORMAL":62,"TEXCOORD_0":54},"material":2,"mode":4,"indices":55}]},{"primitives":[{"attributes":{"POSITION":63,"NORMAL":64,"TEXCOORD_0":54},"material":2,"mode":4,"indices":55}]},{"primitives":[{"attributes":{"POSITION":65,"NORMAL":66,"TEXCOORD_0":54},"material":2,"mode":4,"indices":55}]},{"primitives":[{"attributes":{"POSITION":67,"NORMAL":68,"TEXCOORD_0":54},"material":2,"mode":4,"indices":55}]},{"primitives":[{"attributes":{"POSITION":69,"NORMAL":70,"TEXCOORD_0":54},"material":2,"mode":4,"indices":55}]},{"primitives":[{"attributes":{"POSITION":71,"NORMAL":72,"TEXCOORD_0":54},"material":2,"mode":4,"indices":55}]},{"primitives":[{"attributes":{"POSITION":73,"NORMAL":74,"TEXCOORD_0":54},"material":2,"mode":4,"indices":55}]},{"primitives":[{"attributes":{"POSITION":75,"NORMAL":76,"TEXCOORD_0":54},"material":2,"mode":4,"indices":55}]},{"primitives":[{"attributes":{"POSITION":77,"NORMAL":78,"TEXCOORD_0":54},"material":2,"mode":4,"indices":55}]},{"primitives":[{"attributes":{"POSITION":79,"NORMAL":80,"TEXCOORD_0":54},"material":2,"mode":4,"indices":55}]},{"primitives":[{"attributes":{"POSITION":81,"NORMAL":82,"TEXCOORD_0":54},"material":2,"mode":4,"indices":55}]},{"primitives":[{"attributes":{"POSITION":83,"NORMAL":84,"TEXCOORD_0":85},"material":1,"mode":4,"indices":55}]},{"primitives":[{"attributes":{"POSITION":86,"NORMAL":87,"TEXCOORD_0":85},"material":1,"mode":4,"indices":55}]},{"primitives":[{"attributes":{"POSITION":44,"NORMAL":45,"TEXCOORD_0":88},"material":4,"mode":4,"indices":47}]},{"primitives":[{"attributes":{"POSITION":44,"NORMAL":45,"TEXCOORD_0":88},"material":3,"mode":4,"indices":47}]},{"primitives":[{"attributes":{"POSITION":89,"NORMAL":90,"TEXCOORD_0":91},"material":1,"mode":4,"indices":92}]},{"primitives":[{"attributes":{"POSITION":93,"NORMAL":94,"TEXCOORD_0":95},"material":2,"mode":4,"indices":96}]},{"primitives":[{"attributes":{"POSITION":97,"NORMAL":98,"TEXCOORD_0":95},"material":2,"mode":4,"indices":96}]},{"primitives":[{"attributes":{"POSITION":99,"NORMAL":100,"TEXCOORD_0":95},"material":2,"mode":4,"indices":96}]},{"primitives":[{"attributes":{"POSITION":101,"NORMAL":102,"TEXCOORD_0":95},"material":2,"mode":4,"indices":96}]},{"primitives":[{"attributes":{"POSITION":103,"NORMAL":104,"TEXCOORD_0":105},"material":1,"mode":4,"indices":96}]},{"primitives":[{"attributes":{"POSITION":106,"NORMAL":107,"TEXCOORD_0":105},"material":1,"mode":4,"indices":96}]}],"materials":[{"name":"concrete","pbrMetallicRoughness":{"baseColorTexture":{"index":0},"metallicRoughnessTexture":{"index":2},"roughnessFactor":1,"metallicFactor":1},"normalTexture":{"index":1,"scale":0.82},"occlusionTexture":{"index":2,"strength":0.35}},{"name":"metal-dark","pbrMetallicRoughness":{"baseColorTexture":{"index":3},"metallicRoughnessTexture":{"index":5},"roughnessFactor":1,"metallicFactor":1},"normalTexture":{"index":4,"scale":0.35},"occlusionTexture":{"index":5,"strength":0.35}},{"name":"metal-galvanized","pbrMetallicRoughness":{"baseColorTexture":{"index":6},"metallicRoughnessTexture":{"index":8},"roughnessFactor":1,"metallicFactor":1},"normalTexture":{"index":7,"scale":0.15},"occlusionTexture":{"index":8,"strength":0.35}},{"name":"paint-red","pbrMetallicRoughness":{"baseColorFactor":[0.46778379610254284,0.08021982030622662,0.05126945836711539,1],"roughnessFactor":0.62,"metallicFactor":0.05}},{"name":"paint-yellow","pbrMetallicRoughness":{"baseColorFactor":[0.76052450467022,0.4793201830913402,0.07818742179702069,1],"roughnessFactor":0.66,"metallicFactor":0.03}}],"textures":[{"source":0,"sampler":0},{"source":1,"sampler":0},{"source":2,"sampler":0},{"source":3,"sampler":0},{"source":4,"sampler":0},{"source":5,"sampler":0},{"source":6,"sampler":0},{"source":7,"sampler":0},{"source":8,"sampler":0}],"images":[{"uri":"../textures/concrete-albedo.png"},{"uri":"../textures/concrete-normal.png"},{"uri":"../textures/concrete-orm.png"},{"uri":"../textures/metal-dark-albedo.png"},{"uri":"../textures/metal-dark-normal.png"},{"uri":"../textures/metal-dark-orm.png"},{"uri":"../textures/metal-galvanized-albedo.png"},{"uri":"../textures/metal-galvanized-normal.png"},{"uri":"../textures/metal-galvanized-orm.png"}],"samplers":[{"magFilter":9729,"minFilter":9987,"wrapS":10497,"wrapT":10497}],"buffers":[{"uri":"../shared/geometry.bin","byteLength":16435520}],"bufferViews":[{"buffer":0,"byteOffset":0,"byteLength":3888,"target":34962},{"buffer":0,"byteOffset":3888,"byteLength":3888,"target":34962},{"buffer":0,"byteOffset":3201176,"byteLength":2592,"target":34962},{"buffer":0,"byteOffset":2881820,"byteLength":3132,"target":34962},{"buffer":0,"byteOffset":390704,"byteLength":3132,"target":34962},{"buffer":0,"byteOffset":2835332,"byteLength":2088,"target":34962},{"buffer":0,"byteOffset":395924,"byteLength":2688,"target":34963},{"buffer":0,"byteOffset":2884952,"byteLength":972,"target":34962},{"buffer":0,"byteOffset":2838392,"byteLength":972,"target":34962},{"buffer":0,"byteOffset":409952,"byteLength":648,"target":34962},{"buffer":0,"byteOffset":410600,"byteLength":768,"target":34963},{"buffer":0,"byteOffset":2839364,"byteLength":2592,"target":34962},{"buffer":0,"byteOffset":3203768,"byteLength":972,"target":34962},{"buffer":0,"byteOffset":3168548,"byteLength":972,"target":34962},{"buffer":0,"byteOffset":3204740,"byteLength":972,"target":34962},{"buffer":0,"byteOffset":3170492,"byteLength":972,"target":34962},{"buffer":0,"byteOffset":3205712,"byteLength":972,"target":34962},{"buffer":0,"byteOffset":3172436,"byteLength":972,"target":34962},{"buffer":0,"byteOffset":3206684,"byteLength":972,"target":34962},{"buffer":0,"byteOffset":3174380,"byteLength":972,"target":34962},{"buffer":0,"byteOffset":3207656,"byteLength":972,"target":34962},{"buffer":0,"byteOffset":3176324,"byteLength":972,"target":34962},{"buffer":0,"byteOffset":3208628,"byteLength":972,"target":34962},{"buffer":0,"byteOffset":3178268,"byteLength":972,"target":34962},{"buffer":0,"byteOffset":2889812,"byteLength":972,"target":34962},{"buffer":0,"byteOffset":2848760,"byteLength":972,"target":34962},{"buffer":0,"byteOffset":3209600,"byteLength":972,"target":34962},{"buffer":0,"byteOffset":3180212,"byteLength":972,"target":34962},{"buffer":0,"byteOffset":3210572,"byteLength":972,"target":34962},{"buffer":0,"byteOffset":3182156,"byteLength":972,"target":34962},{"buffer":0,"byteOffset":3211544,"byteLength":972,"target":34962},{"buffer":0,"byteOffset":3184100,"byteLength":972,"target":34962},{"buffer":0,"byteOffset":3212516,"byteLength":972,"target":34962},{"buffer":0,"byteOffset":3186044,"byteLength":972,"target":34962},{"buffer":0,"byteOffset":3213488,"byteLength":972,"target":34962},{"buffer":0,"byteOffset":3214460,"byteLength":972,"target":34962},{"buffer":0,"byteOffset":3215432,"byteLength":972,"target":34962},{"buffer":0,"byteOffset":3216404,"byteLength":972,"target":34962},{"buffer":0,"byteOffset":2894672,"byteLength":972,"target":34962},{"buffer":0,"byteOffset":2895644,"byteLength":972,"target":34962},{"buffer":0,"byteOffset":2857508,"byteLength":648,"target":34962},{"buffer":0,"byteOffset":2896616,"byteLength":972,"target":34962},{"buffer":0,"byteOffset":2897588,"byteLength":972,"target":34962},{"buffer":0,"byteOffset":2860100,"byteLength":2592,"target":34962},{"buffer":0,"byteOffset":46644,"byteLength":288,"target":34962},{"buffer":0,"byteOffset":45952,"byteLength":288,"target":34962},{"buffer":0,"byteOffset":3217376,"byteLength":192,"target":34962},{"buffer":0,"byteOffset":46432,"byteLength":72,"target":34963},{"buffer":0,"byteOffset":2898752,"byteLength":1428,"target":34962},{"buffer":0,"byteOffset":427996,"byteLength":1428,"target":34962},{"buffer":0,"byteOffset":2864312,"byteLength":952,"target":34962},{"buffer":0,"byteOffset":430376,"byteLength":1152,"target":34963},{"buffer":0,"byteOffset":2900180,"byteLength":420,"target":34962},{"buffer":0,"byteOffset":2865684,"byteLength":420,"target":34962},{"buffer":0,"byteOffset":433796,"byteLength":280,"target":34962},{"buffer":0,"byteOffset":434076,"byteLength":288,"target":34963},{"buffer":0,"byteOffset":2866104,"byteLength":192,"target":34962},{"buffer":0,"byteOffset":3217568,"byteLength":420,"target":34962},{"buffer":0,"byteOffset":3191516,"byteLength":420,"target":34962},{"buffer":0,"byteOffset":3217988,"byteLength":420,"target":34962},{"buffer":0,"byteOffset":3192356,"byteLength":420,"target":34962},{"buffer":0,"byteOffset":3218408,"byteLength":420,"target":34962},{"buffer":0,"byteOffset":3193196,"byteLength":420,"target":34962},{"buffer":0,"byteOffset":3218828,"byteLength":420,"target":34962},{"buffer":0,"byteOffset":3194036,"byteLength":420,"target":34962},{"buffer":0,"byteOffset":3219248,"byteLength":420,"target":34962},{"buffer":0,"byteOffset":3194876,"byteLength":420,"target":34962},{"buffer":0,"byteOffset":3219668,"byteLength":420,"target":34962},{"buffer":0,"byteOffset":3195716,"byteLength":420,"target":34962},{"buffer":0,"byteOffset":2902280,"byteLength":420,"target":34962},{"buffer":0,"byteOffset":2902700,"byteLength":420,"target":34962},{"buffer":0,"byteOffset":3220088,"byteLength":420,"target":34962},{"buffer":0,"byteOffset":3196556,"byteLength":420,"target":34962},{"buffer":0,"byteOffset":3220508,"byteLength":420,"target":34962},{"buffer":0,"byteOffset":3197396,"byteLength":420,"target":34962},{"buffer":0,"byteOffset":3220928,"byteLength":420,"target":34962},{"buffer":0,"byteOffset":3198236,"byteLength":420,"target":34962},{"buffer":0,"byteOffset":3221348,"byteLength":420,"target":34962},{"buffer":0,"byteOffset":3221768,"byteLength":420,"target":34962},{"buffer":0,"byteOffset":3222188,"byteLength":420,"target":34962},{"buffer":0,"byteOffset":3199916,"byteLength":420,"target":34962},{"buffer":0,"byteOffset":3222608,"byteLength":420,"target":34962},{"buffer":0,"byteOffset":3223028,"byteLength":420,"target":34962},{"buffer":0,"byteOffset":2904800,"byteLength":420,"target":34962},{"buffer":0,"byteOffset":2905220,"byteLength":420,"target":34962},{"buffer":0,"byteOffset":2873016,"byteLength":280,"target":34962},{"buffer":0,"byteOffset":2905640,"byteLength":420,"target":34962},{"buffer":0,"byteOffset":2906060,"byteLength":420,"target":34962},{"buffer":0,"byteOffset":2874136,"byteLength":192,"target":34962},{"buffer":0,"byteOffset":2906480,"byteLength":660,"target":34962},{"buffer":0,"byteOffset":437788,"byteLength":660,"target":34962},{"buffer":0,"byteOffset":2874988,"byteLength":440,"target":34962},{"buffer":0,"byteOffset":438888,"byteLength":480,"target":34963},{"buffer":0,"byteOffset":2907140,"byteLength":300,"target":34962},{"buffer":0,"byteOffset":2875728,"byteLength":300,"target":34962},{"buffer":0,"byteOffset":439968,"byteLength":200,"target":34962},{"buffer":0,"byteOffset":440168,"byteLength":192,"target":34963},{"buffer":0,"byteOffset":2907440,"byteLength":300,"target":34962},{"buffer":0,"byteOffset":2907740,"byteLength":300,"target":34962},{"buffer":0,"byteOffset":2908040,"byteLength":300,"target":34962},{"buffer":0,"byteOffset":2908340,"byteLength":300,"target":34962},{"buffer":0,"byteOffset":2908640,"byteLength":300,"target":34962},{"buffer":0,"byteOffset":2877528,"byteLength":300,"target":34962},{"buffer":0,"byteOffset":2908940,"byteLength":300,"target":34962},{"buffer":0,"byteOffset":2909240,"byteLength":300,"target":34962},{"buffer":0,"byteOffset":2878428,"byteLength":200,"target":34962},{"buffer":0,"byteOffset":2909540,"byteLength":300,"target":34962},{"buffer":0,"byteOffset":2909840,"byteLength":300,"target":34962}],"accessors":[{"bufferView":0,"componentType":5126,"count":324,"type":"VEC3","min":[-0.5,-0.5,-0.5],"max":[0.5,0.5,0.5]},{"bufferView":1,"componentType":5126,"count":324,"type":"VEC3"},{"bufferView":2,"componentType":5126,"count":324,"type":"VEC2"},{"bufferView":3,"componentType":5126,"count":261,"type":"VEC3","min":[-4.929999828338623,-4.929999828338623,-0.18000000715255737],"max":[4.929999828338623,4.929999828338623,0.18000000715255737]},{"bufferView":4,"componentType":5126,"count":261,"type":"VEC3"},{"bufferView":5,"componentType":5126,"count":261,"type":"VEC2"},{"bufferView":6,"componentType":5123,"count":1344,"type":"SCALAR"},{"bufferView":7,"componentType":5126,"count":81,"type":"VEC3","min":[-0.054999999701976776,5.494999885559082,-1],"max":[0.054999999701976776,5.605000019073486,3.75]},{"bufferView":8,"componentType":5126,"count":81,"type":"VEC3"},{"bufferView":9,"componentType":5126,"count":81,"type":"VEC2"},{"bufferView":10,"componentType":5123,"count":384,"type":"SCALAR"},{"bufferView":11,"componentType":5126,"count":324,"type":"VEC2"},{"bufferView":12,"componentType":5126,"count":81,"type":"VEC3","min":[-0.054999999701976776,5.500446796417236,-1.0238635540008545],"max":[0.054999999701976776,7.660501003265381,3.3034658432006836]},{"bufferView":13,"componentType":5126,"count":81,"type":"VEC3"},{"bufferView":14,"componentType":5126,"count":81,"type":"VEC3","min":[-0.054999999701976776,5.515707969665527,-1.0430006980895996],"max":[0.054999999701976776,9.297991752624512,2.004577398300171]},{"bufferView":15,"componentType":5126,"count":81,"type":"VEC3"},{"bufferView":16,"componentType":5126,"count":81,"type":"VEC3","min":[-0.054999999701976776,5.537761211395264,-1.0536210536956787],"max":[0.054999999701976776,10.193146705627441,0.1105954721570015]},{"bufferView":17,"componentType":5126,"count":81,"type":"VEC3"},{"bufferView":18,"componentType":5126,"count":81,"type":"VEC3","min":[-0.054999999701976776,5.537761211395264,-2.110595464706421],"max":[0.054999999701976776,10.193146705627441,-0.9463789463043213]},{"bufferView":19,"componentType":5126,"count":81,"type":"VEC3"},{"bufferView":20,"componentType":5126,"count":81,"type":"VEC3","min":[-0.054999999701976776,5.515707969665527,-4.004577159881592],"max":[0.054999999701976776,9.297991752624512,-0.9569992423057556]},{"bufferView":21,"componentType":5126,"count":81,"type":"VEC3"},{"bufferView":22,"componentType":5126,"count":81,"type":"VEC3","min":[-0.054999999701976776,5.500446796417236,-5.303465843200684],"max":[0.054999999701976776,7.660501003265381,-0.9761363863945007]},{"bufferView":23,"componentType":5126,"count":81,"type":"VEC3"},{"bufferView":24,"componentType":5126,"count":81,"type":"VEC3","min":[-0.054999999701976776,5.494999885559082,-5.75],"max":[0.054999999701976776,5.605000019073486,-1]},{"bufferView":25,"componentType":5126,"count":81,"type":"VEC3"},{"bufferView":26,"componentType":5126,"count":81,"type":"VEC3","min":[-0.054999999701976776,3.4394989013671875,-5.303465843200684],"max":[0.054999999701976776,5.599553108215332,-0.9761363863945007]},{"bufferView":27,"componentType":5126,"count":81,"type":"VEC3"},{"bufferView":28,"componentType":5126,"count":81,"type":"VEC3","min":[-0.054999999701976776,1.8020085096359253,-4.004577159881592],"max":[0.054999999701976776,5.584291934967041,-0.9569992423057556]},{"bufferView":29,"componentType":5126,"count":81,"type":"VEC3"},{"bufferView":30,"componentType":5126,"count":81,"type":"VEC3","min":[-0.054999999701976776,0.9068537950515747,-2.110595464706421],"max":[0.054999999701976776,5.562238693237305,-0.9463789463043213]},{"bufferView":31,"componentType":5126,"count":81,"type":"VEC3"},{"bufferView":32,"componentType":5126,"count":81,"type":"VEC3","min":[-0.054999999701976776,0.9068537950515747,-1.0536210536956787],"max":[0.054999999701976776,5.562238693237305,0.1105954721570015]},{"bufferView":33,"componentType":5126,"count":81,"type":"VEC3"},{"bufferView":34,"componentType":5126,"count":81,"type":"VEC3","min":[-0.054999999701976776,1.8020085096359253,-1.0430006980895996],"max":[0.054999999701976776,5.584291934967041,2.004577398300171]},{"bufferView":35,"componentType":5126,"count":81,"type":"VEC3"},{"bufferView":36,"componentType":5126,"count":81,"type":"VEC3","min":[-0.054999999701976776,3.4394989013671875,-1.0238635540008545],"max":[0.054999999701976776,5.599553108215332,3.3034658432006836]},{"bufferView":37,"componentType":5126,"count":81,"type":"VEC3"},{"bufferView":38,"componentType":5126,"count":81,"type":"VEC3","min":[-3.5687971115112305,0.09272699803113937,-1.2000000476837158],"max":[0.16879722476005554,5.657272815704346,-0.800000011920929]},{"bufferView":39,"componentType":5126,"count":81,"type":"VEC3"},{"bufferView":40,"componentType":5126,"count":81,"type":"VEC2"},{"bufferView":41,"componentType":5126,"count":81,"type":"VEC3","min":[-0.16879722476005554,0.09272699803113937,-1.2000000476837158],"max":[3.5687971115112305,5.657272815704346,-0.800000011920929]},{"bufferView":42,"componentType":5126,"count":81,"type":"VEC3"},{"bufferView":43,"componentType":5126,"count":324,"type":"VEC2"},{"bufferView":44,"componentType":5126,"count":24,"type":"VEC3","min":[-0.5,-0.5,-0.5],"max":[0.5,0.5,0.5]},{"bufferView":45,"componentType":5126,"count":24,"type":"VEC3"},{"bufferView":46,"componentType":5126,"count":24,"type":"VEC2"},{"bufferView":47,"componentType":5123,"count":36,"type":"SCALAR"},{"bufferView":48,"componentType":5126,"count":119,"type":"VEC3","min":[-4.929999828338623,-4.929999828338623,-0.15588457882404327],"max":[4.929999828338623,4.929999828338623,0.15588457882404327]},{"bufferView":49,"componentType":5126,"count":119,"type":"VEC3"},{"bufferView":50,"componentType":5126,"count":119,"type":"VEC2"},{"bufferView":51,"componentType":5123,"count":576,"type":"SCALAR"},{"bufferView":52,"componentType":5126,"count":35,"type":"VEC3","min":[-0.0476313978433609,5.494999885559082,-1],"max":[0.0476313978433609,5.605000019073486,3.75]},{"bufferView":53,"componentType":5126,"count":35,"type":"VEC3"},{"bufferView":54,"componentType":5126,"count":35,"type":"VEC2"},{"bufferView":55,"componentType":5123,"count":144,"type":"SCALAR"},{"bufferView":56,"componentType":5126,"count":24,"type":"VEC2"},{"bufferView":57,"componentType":5126,"count":35,"type":"VEC3","min":[-0.054999999701976776,5.507085800170898,-1.020666480064392],"max":[0.054999999701976776,7.653861999511719,3.3002686500549316]},{"bufferView":58,"componentType":5126,"count":35,"type":"VEC3"},{"bufferView":59,"componentType":5126,"count":35,"type":"VEC3","min":[-0.054999999701976776,5.5203022956848145,-1.037239670753479],"max":[0.054999999701976776,9.293396949768066,1.9988162517547607]},{"bufferView":60,"componentType":5126,"count":35,"type":"VEC3"},{"bufferView":61,"componentType":5126,"count":35,"type":"VEC3","min":[-0.054999999701976776,5.539401054382324,-1.04643714427948],"max":[0.054999999701976776,10.191506385803223,0.10341161489486694]},{"bufferView":62,"componentType":5126,"count":35,"type":"VEC3"},{"bufferView":63,"componentType":5126,"count":35,"type":"VEC3","min":[-0.054999999701976776,5.539401054382324,-2.1034116744995117],"max":[0.054999999701976776,10.191506385803223,-0.9535627961158752]},{"bufferView":64,"componentType":5126,"count":35,"type":"VEC3"},{"bufferView":65,"componentType":5126,"count":35,"type":"VEC3","min":[-0.054999999701976776,5.5203022956848145,-3.9988162517547607],"max":[0.054999999701976776,9.293396949768066,-0.9627602696418762]},{"bufferView":66,"componentType":5126,"count":35,"type":"VEC3"},{"bufferView":67,"componentType":5126,"count":35,"type":"VEC3","min":[-0.054999999701976776,5.507085800170898,-5.300268650054932],"max":[0.054999999701976776,7.653861999511719,-0.9793335199356079]},{"bufferView":68,"componentType":5126,"count":35,"type":"VEC3"},{"bufferView":69,"componentType":5126,"count":35,"type":"VEC3","min":[-0.0476313978433609,5.494999885559082,-5.75],"max":[0.0476313978433609,5.605000019073486,-1]},{"bufferView":70,"componentType":5126,"count":35,"type":"VEC3"},{"bufferView":71,"componentType":5126,"count":35,"type":"VEC3","min":[-0.054999999701976776,3.4461379051208496,-5.300268650054932],"max":[0.054999999701976776,5.592914581298828,-0.9793335199356079]},{"bufferView":72,"componentType":5126,"count":35,"type":"VEC3"},{"bufferView":73,"componentType":5126,"count":35,"type":"VEC3","min":[-0.054999999701976776,1.8066027164459229,-3.9988162517547607],"max":[0.054999999701976776,5.579697608947754,-0.9627602696418762]},{"bufferView":74,"componentType":5126,"count":35,"type":"VEC3"},{"bufferView":75,"componentType":5126,"count":35,"type":"VEC3","min":[-0.054999999701976776,0.9084934592247009,-2.1034116744995117],"max":[0.054999999701976776,5.560598850250244,-0.9535627961158752]},{"bufferView":76,"componentType":5126,"count":35,"type":"VEC3"},{"bufferView":77,"componentType":5126,"count":35,"type":"VEC3","min":[-0.054999999701976776,0.9084934592247009,-1.04643714427948],"max":[0.054999999701976776,5.560598850250244,0.10341161489486694]},{"bufferView":78,"componentType":5126,"count":35,"type":"VEC3"},{"bufferView":79,"componentType":5126,"count":35,"type":"VEC3","min":[-0.054999999701976776,1.8066027164459229,-1.037239670753479],"max":[0.054999999701976776,5.579697608947754,1.9988162517547607]},{"bufferView":80,"componentType":5126,"count":35,"type":"VEC3"},{"bufferView":81,"componentType":5126,"count":35,"type":"VEC3","min":[-0.054999999701976776,3.4461379051208496,-1.020666480064392],"max":[0.054999999701976776,5.592914581298828,3.3002686500549316]},{"bufferView":82,"componentType":5126,"count":35,"type":"VEC3"},{"bufferView":83,"componentType":5126,"count":35,"type":"VEC3","min":[-3.546182632446289,0.10709885507822037,-1.2000000476837158],"max":[0.14618268609046936,5.6429009437561035,-0.800000011920929]},{"bufferView":84,"componentType":5126,"count":35,"type":"VEC3"},{"bufferView":85,"componentType":5126,"count":35,"type":"VEC2"},{"bufferView":86,"componentType":5126,"count":35,"type":"VEC3","min":[-0.14618268609046936,0.10709885507822037,-1.2000000476837158],"max":[3.546182632446289,5.6429009437561035,-0.800000011920929]},{"bufferView":87,"componentType":5126,"count":35,"type":"VEC3"},{"bufferView":88,"componentType":5126,"count":24,"type":"VEC2"},{"bufferView":89,"componentType":5126,"count":55,"type":"VEC3","min":[-4.929999828338623,-4.688708782196045,-0.18000000715255737],"max":[4.929999828338623,4.688708782196045,0.18000000715255737]},{"bufferView":90,"componentType":5126,"count":55,"type":"VEC3"},{"bufferView":91,"componentType":5126,"count":55,"type":"VEC2"},{"bufferView":92,"componentType":5123,"count":240,"type":"SCALAR"},{"bufferView":93,"componentType":5126,"count":25,"type":"VEC3","min":[-0.054999999701976776,5.494999885559082,-1],"max":[0.054999999701976776,5.605000019073486,3.75]},{"bufferView":94,"componentType":5126,"count":25,"type":"VEC3"},{"bufferView":95,"componentType":5126,"count":25,"type":"VEC2"},{"bufferView":96,"componentType":5123,"count":96,"type":"SCALAR"},{"bufferView":97,"componentType":5126,"count":25,"type":"VEC3","min":[-0.054999999701976776,5.550000190734863,-1.0549999475479126],"max":[0.054999999701976776,10.300000190734863,-0.9449999928474426]},{"bufferView":98,"componentType":5126,"count":25,"type":"VEC3"},{"bufferView":99,"componentType":5126,"count":25,"type":"VEC3","min":[-0.054999999701976776,5.494999885559082,-5.75],"max":[0.054999999701976776,5.605000019073486,-1]},{"bufferView":100,"componentType":5126,"count":25,"type":"VEC3"},{"bufferView":101,"componentType":5126,"count":25,"type":"VEC3","min":[-0.054999999701976776,0.800000011920929,-1.0549999475479126],"max":[0.054999999701976776,5.550000190734863,-0.9449999928474426]},{"bufferView":102,"componentType":5126,"count":25,"type":"VEC3"},{"bufferView":103,"componentType":5126,"count":25,"type":"VEC3","min":[-3.5687971115112305,0.09272699803113937,-1.2000000476837158],"max":[0.16879722476005554,5.657272815704346,-0.800000011920929]},{"bufferView":104,"componentType":5126,"count":25,"type":"VEC3"},{"bufferView":105,"componentType":5126,"count":25,"type":"VEC2"},{"bufferView":106,"componentType":5126,"count":25,"type":"VEC3","min":[-0.16879722476005554,0.09272699803113937,-1.2000000476837158],"max":[3.5687971115112305,5.657272815704346,-0.800000011920929]},{"bufferView":107,"componentType":5126,"count":25,"type":"VEC3"}],"extensionsUsed":["KHR_materials_unlit"],"extras":{"id":"vlt-county-fair-midway-17","family":"county-fair-midway","variant":16,"plan":"D2-1","units":"metres","up":"+Y","front":"+Z","lodScenes":[0,1,2]}}