{"asset":{"version":"2.0","generator":"SLOPMERICA Department of Unnecessary Development 1.0"},"scene":0,"scenes":[{"name":"LOD 0","nodes":[0,1,2,3,4,5,6,7,8,9,10,11,12,13,14,15,16,17,18,19,20,21,22,23,24,25],"extras":{"level":0}},{"name":"LOD 1","nodes":[26,27,28,29,30,31,32,33,34,35,36,37,38,39,40,41,42,43,44,45,46,47,48,49,50],"extras":{"level":1}},{"name":"LOD 2","nodes":[51,52,53,54,55,56,57,58,59,60,61,62,63,64,65,66,67],"extras":{"level":2}}],"nodes":[{"name":"foundation","mesh":0,"translation":[0,0.08,0],"scale":[19.48,0.16,14.86]},{"name":"store-shell","mesh":1,"translation":[0,1.8335,0],"scale":[7.9488,3.667,6.5832]},{"name":"roof-cap","mesh":2,"translation":[0,3.777,0],"scale":[8.1988,0.22,6.8332]},{"name":"window-0","mesh":3,"translation":[-2.941056,1.61348,3.3466],"scale":[1.282065,1.45,0.09]},{"name":"window-1","mesh":3,"translation":[-0.980352,1.61348,3.3466],"scale":[1.282065,1.45,0.09]},{"name":"window-2","mesh":3,"translation":[0.980352,1.61348,3.3466],"scale":[1.282065,1.45,0.09]},{"name":"window-3","mesh":3,"translation":[2.941056,1.61348,3.3466],"scale":[1.282065,1.45,0.09]},{"name":"door","mesh":4,"translation":[2.78208,1.025,3.3616],"scale":[0.92,2.05,0.12]},{"name":"awning","mesh":5,"translation":[0,2.42022,3.7716],"rotation":[-0.039989,0,0,0.9992],"scale":[6.518016,0.18,1.05]},{"name":"mullion-0","mesh":6,"translation":[-2.543616,1.61348,3.4116],"scale":[0.08,1.55,0.12]},{"name":"mullion-1","mesh":6,"translation":[0,1.61348,3.4116],"scale":[0.08,1.55,0.12]},{"name":"mullion-2","mesh":6,"translation":[2.543616,1.61348,3.4116],"scale":[0.08,1.55,0.12]},{"name":"primary-sign-back","mesh":7,"translation":[0,2.89693,3.4516],"scale":[5.028256,1.25,1]},{"name":"primary-sign","mesh":8,"translation":[0,2.89693,3.4806],"scale":[4.928256,1.15,1]},{"name":"canopy","mesh":9,"translation":[0,4.10125,5.697],"scale":[15.2064,0.35,6.0768]},{"name":"canopy-post-0","mesh":10,"translation":[-6.386688,1.960625,5.697],"scale":[0.1,3.92125,0.1]},{"name":"canopy-post-1","mesh":10,"translation":[-2.128896,1.960625,5.697],"scale":[0.1,3.92125,0.1]},{"name":"canopy-post-2","mesh":10,"translation":[2.128896,1.960625,5.697],"scale":[0.1,3.92125,0.1]},{"name":"canopy-post-3","mesh":10,"translation":[6.386688,1.960625,5.697],"scale":[0.1,3.92125,0.1]},{"name":"pump-0","mesh":11,"translation":[-5.8752,0.63,5.697],"scale":[0.55,1.25,0.45]},{"name":"pump-1","mesh":12,"translation":[0,0.63,5.697],"scale":[0.55,1.25,0.45]},{"name":"pump-2","mesh":11,"translation":[5.8752,0.63,5.697],"scale":[0.55,1.25,0.45]},{"name":"pole-sign-post","mesh":13,"translation":[7.776,3.9,-5.3172],"scale":[0.2,7.8,0.2]},{"name":"pole-sign-back","mesh":7,"translation":[7.776,7.8,-5.3172],"scale":[3.52,1.75,1]},{"name":"pole-sign","mesh":8,"translation":[7.776,7.8,-5.2882],"scale":[3.42,1.65,1]},{"name":"open-state-bollard","mesh":14,"translation":[7.4304,0.425,7.0896],"scale":[0.22,0.85,0.22]},{"name":"foundation","mesh":15,"translation":[0,0.08,0],"scale":[19.48,0.16,14.86]},{"name":"store-shell","mesh":16,"translation":[0,1.8335,0],"scale":[7.9488,3.667,6.5832]},{"name":"roof-cap","mesh":17,"translation":[0,3.777,0],"scale":[8.1988,0.22,6.8332]},{"name":"window-0","mesh":18,"translation":[-2.941056,1.61348,3.3466],"scale":[1.709419,1.45,0.09]},{"name":"window-1","mesh":18,"translation":[0,1.61348,3.3466],"scale":[1.709419,1.45,0.09]},{"name":"window-2","mesh":18,"translation":[2.941056,1.61348,3.3466],"scale":[1.709419,1.45,0.09]},{"name":"door","mesh":19,"translation":[2.78208,1.025,3.3616],"scale":[0.92,2.05,0.12]},{"name":"awning","mesh":20,"translation":[0,2.42022,3.7716],"rotation":[-0.039989,0,0,0.9992],"scale":[6.518016,0.18,1.05]},{"name":"mullion-0","mesh":21,"translation":[-2.543616,1.61348,3.4116],"scale":[0.08,1.55,0.12]},{"name":"mullion-1","mesh":21,"translation":[0,1.61348,3.4116],"scale":[0.08,1.55,0.12]},{"name":"mullion-2","mesh":21,"translation":[2.543616,1.61348,3.4116],"scale":[0.08,1.55,0.12]},{"name":"primary-sign-back","mesh":7,"translation":[0,2.89693,3.4516],"scale":[5.028256,1.25,1]},{"name":"primary-sign","mesh":8,"translation":[0,2.89693,3.4806],"scale":[4.928256,1.15,1]},{"name":"canopy","mesh":22,"translation":[0,4.10125,5.697],"scale":[15.2064,0.35,6.0768]},{"name":"canopy-post-0","mesh":23,"translation":[-6.386688,1.960625,5.697],"scale":[0.1,3.92125,0.1]},{"name":"canopy-post-1","mesh":23,"translation":[-2.128896,1.960625,5.697],"scale":[0.1,3.92125,0.1]},{"name":"canopy-post-2","mesh":23,"translation":[2.128896,1.960625,5.697],"scale":[0.1,3.92125,0.1]},{"name":"canopy-post-3","mesh":23,"translation":[6.386688,1.960625,5.697],"scale":[0.1,3.92125,0.1]},{"name":"pump-0","mesh":24,"translation":[-5.8752,0.63,5.697],"scale":[0.55,1.25,0.45]},{"name":"pump-1","mesh":25,"translation":[0,0.63,5.697],"scale":[0.55,1.25,0.45]},{"name":"pump-2","mesh":24,"translation":[5.8752,0.63,5.697],"scale":[0.55,1.25,0.45]},{"name":"pole-sign-post","mesh":26,"translation":[7.776,3.9,-5.3172],"scale":[0.2,7.8,0.2]},{"name":"pole-sign-back","mesh":7,"translation":[7.776,7.8,-5.3172],"scale":[3.52,1.75,1]},{"name":"pole-sign","mesh":8,"translation":[7.776,7.8,-5.2882],"scale":[3.42,1.65,1]},{"name":"open-state-bollard","mesh":27,"translation":[7.4304,0.425,7.0896],"scale":[0.22,0.85,0.22]},{"name":"foundation","mesh":15,"translation":[0,0.08,0],"scale":[19.48,0.16,14.86]},{"name":"store-shell","mesh":16,"translation":[0,1.8335,0],"scale":[7.9488,3.667,6.5832]},{"name":"roof-cap","mesh":17,"translation":[0,3.777,0],"scale":[8.1988,0.22,6.8332]},{"name":"window-0","mesh":28,"translation":[0,1.61348,3.3466],"scale":[5.128258,1.45,0.09]},{"name":"door","mesh":19,"translation":[2.78208,1.025,3.3616],"scale":[0.92,2.05,0.12]},{"name":"primary-sign-back","mesh":7,"translation":[0,2.89693,3.4516],"scale":[5.028256,1.25,1]},{"name":"primary-sign","mesh":8,"translation":[0,2.89693,3.4806],"scale":[4.928256,1.15,1]},{"name":"canopy","mesh":22,"translation":[0,4.10125,5.697],"scale":[15.2064,0.35,6.0768]},{"name":"canopy-post-0","mesh":23,"translation":[-6.386688,1.960625,5.697],"scale":[0.1,3.92125,0.1]},{"name":"canopy-post-1","mesh":23,"translation":[-2.128896,1.960625,5.697],"scale":[0.1,3.92125,0.1]},{"name":"canopy-post-2","mesh":23,"translation":[2.128896,1.960625,5.697],"scale":[0.1,3.92125,0.1]},{"name":"canopy-post-3","mesh":23,"translation":[6.386688,1.960625,5.697],"scale":[0.1,3.92125,0.1]},{"name":"pump-0","mesh":24,"translation":[-5.8752,0.63,5.697],"scale":[0.55,1.25,0.45]},{"name":"pole-sign-post","mesh":26,"translation":[7.776,3.9,-5.3172],"scale":[0.2,7.8,0.2]},{"name":"pole-sign-back","mesh":7,"translation":[7.776,7.8,-5.3172],"scale":[3.52,1.75,1]},{"name":"pole-sign","mesh":8,"translation":[7.776,7.8,-5.2882],"scale":[3.42,1.65,1]},{"name":"open-state-bollard","mesh":27,"translation":[7.4304,0.425,7.0896],"scale":[0.22,0.85,0.22]}],"meshes":[{"primitives":[{"attributes":{"POSITION":0,"NORMAL":1,"TEXCOORD_0":2},"material":0,"mode":4}]},{"primitives":[{"attributes":{"POSITION":3,"NORMAL":1,"TEXCOORD_0":4},"material":1,"mode":4}]},{"primitives":[{"attributes":{"POSITION":0,"NORMAL":1,"TEXCOORD_0":5},"material":2,"mode":4}]},{"primitives":[{"attributes":{"POSITION":0,"NORMAL":1,"TEXCOORD_0":6},"material":3,"mode":4}]},{"primitives":[{"attributes":{"POSITION":0,"NORMAL":1,"TEXCOORD_0":7},"material":2,"mode":4}]},{"primitives":[{"attributes":{"POSITION":0,"NORMAL":1,"TEXCOORD_0":8},"material":4,"mode":4}]},{"primitives":[{"attributes":{"POSITION":0,"NORMAL":1,"TEXCOORD_0":9},"material":4,"mode":4}]},{"primitives":[{"attributes":{"POSITION":10,"NORMAL":11,"TEXCOORD_0":12},"material":2,"mode":4,"indices":13}]},{"primitives":[{"attributes":{"POSITION":14,"NORMAL":15,"TEXCOORD_0":16},"material":5,"mode":4,"indices":17}]},{"primitives":[{"attributes":{"POSITION":0,"NORMAL":1,"TEXCOORD_0":18},"material":4,"mode":4}]},{"primitives":[{"attributes":{"POSITION":19,"NORMAL":20,"TEXCOORD_0":21},"material":6,"mode":4,"indices":22}]},{"primitives":[{"attributes":{"POSITION":0,"NORMAL":1,"TEXCOORD_0":23},"material":4,"mode":4}]},{"primitives":[{"attributes":{"POSITION":0,"NORMAL":1,"TEXCOORD_0":23},"material":7,"mode":4}]},{"primitives":[{"attributes":{"POSITION":24,"NORMAL":25,"TEXCOORD_0":26},"material":2,"mode":4,"indices":27}]},{"primitives":[{"attributes":{"POSITION":0,"NORMAL":1,"TEXCOORD_0":28},"material":4,"mode":4}]},{"primitives":[{"attributes":{"POSITION":29,"NORMAL":11,"TEXCOORD_0":30},"material":0,"mode":4,"indices":13}]},{"primitives":[{"attributes":{"POSITION":29,"NORMAL":11,"TEXCOORD_0":31},"material":1,"mode":4,"indices":13}]},{"primitives":[{"attributes":{"POSITION":29,"NORMAL":11,"TEXCOORD_0":32},"material":2,"mode":4,"indices":13}]},{"primitives":[{"attributes":{"POSITION":29,"NORMAL":11,"TEXCOORD_0":33},"material":3,"mode":4,"indices":13}]},{"primitives":[{"attributes":{"POSITION":29,"NORMAL":11,"TEXCOORD_0":34},"material":2,"mode":4,"indices":13}]},{"primitives":[{"attributes":{"POSITION":29,"NORMAL":11,"TEXCOORD_0":35},"material":4,"mode":4,"indices":13}]},{"primitives":[{"attributes":{"POSITION":29,"NORMAL":11,"TEXCOORD_0":36},"material":4,"mode":4,"indices":13}]},{"primitives":[{"attributes":{"POSITION":29,"NORMAL":11,"TEXCOORD_0":37},"material":4,"mode":4,"indices":13}]},{"primitives":[{"attributes":{"POSITION":38,"NORMAL":39,"TEXCOORD_0":40},"material":6,"mode":4,"indices":41}]},{"primitives":[{"attributes":{"POSITION":29,"NORMAL":11,"TEXCOORD_0":42},"material":4,"mode":4,"indices":13}]},{"primitives":[{"attributes":{"POSITION":29,"NORMAL":11,"TEXCOORD_0":42},"material":7,"mode":4,"indices":13}]},{"primitives":[{"attributes":{"POSITION":43,"NORMAL":44,"TEXCOORD_0":45},"material":2,"mode":4,"indices":41}]},{"primitives":[{"attributes":{"POSITION":29,"NORMAL":11,"TEXCOORD_0":46},"material":4,"mode":4,"indices":13}]},{"primitives":[{"attributes":{"POSITION":29,"NORMAL":11,"TEXCOORD_0":47},"material":3,"mode":4,"indices":13}]}],"materials":[{"name":"concrete","pbrMetallicRoughness":{"baseColorTexture":{"index":0},"metallicRoughnessTexture":{"index":2},"roughnessFactor":1,"metallicFactor":1},"normalTexture":{"index":1,"scale":0.82},"occlusionTexture":{"index":2,"strength":0.35}},{"name":"stucco-ivory","pbrMetallicRoughness":{"baseColorTexture":{"index":3},"metallicRoughnessTexture":{"index":5},"roughnessFactor":1,"metallicFactor":1},"normalTexture":{"index":4,"scale":0.5},"occlusionTexture":{"index":5,"strength":0.35}},{"name":"metal-dark","pbrMetallicRoughness":{"baseColorTexture":{"index":6},"metallicRoughnessTexture":{"index":8},"roughnessFactor":1,"metallicFactor":1},"normalTexture":{"index":7,"scale":0.35},"occlusionTexture":{"index":8,"strength":0.35}},{"name":"glass-blue","pbrMetallicRoughness":{"baseColorTexture":{"index":9},"metallicRoughnessTexture":{"index":11},"roughnessFactor":1,"metallicFactor":1},"normalTexture":{"index":10,"scale":0.12},"occlusionTexture":{"index":11,"strength":0.35}},{"name":"paint-red","pbrMetallicRoughness":{"baseColorFactor":[0.46778379610254284,0.08021982030622662,0.05126945836711539,1],"roughnessFactor":0.62,"metallicFactor":0.05}},{"name":"gas-guzzler-gulch signage","pbrMetallicRoughness":{"baseColorTexture":{"index":12},"roughnessFactor":1,"metallicFactor":0},"extensions":{"KHR_materials_unlit":{}}},{"name":"metal-galvanized","pbrMetallicRoughness":{"baseColorTexture":{"index":13},"metallicRoughnessTexture":{"index":15},"roughnessFactor":1,"metallicFactor":1},"normalTexture":{"index":14,"scale":0.15},"occlusionTexture":{"index":15,"strength":0.35}},{"name":"paint-blue","pbrMetallicRoughness":{"baseColorFactor":[0.05126945836711539,0.10946171076915331,0.22696587349938613,1],"roughnessFactor":0.58,"metallicFactor":0.05}}],"textures":[{"source":0,"sampler":0},{"source":1,"sampler":0},{"source":2,"sampler":0},{"source":3,"sampler":0},{"source":4,"sampler":0},{"source":5,"sampler":0},{"source":6,"sampler":0},{"source":7,"sampler":0},{"source":8,"sampler":0},{"source":9,"sampler":0},{"source":10,"sampler":0},{"source":11,"sampler":0},{"source":12,"sampler":0},{"source":13,"sampler":0},{"source":14,"sampler":0},{"source":15,"sampler":0}],"images":[{"uri":"../textures/concrete-albedo.png"},{"uri":"../textures/concrete-normal.png"},{"uri":"../textures/concrete-orm.png"},{"uri":"../textures/stucco-ivory-albedo.png"},{"uri":"../textures/stucco-ivory-normal.png"},{"uri":"../textures/stucco-ivory-orm.png"},{"uri":"../textures/metal-dark-albedo.png"},{"uri":"../textures/metal-dark-normal.png"},{"uri":"../textures/metal-dark-orm.png"},{"uri":"../textures/glass-blue-albedo.png"},{"uri":"../textures/glass-blue-normal.png"},{"uri":"../textures/glass-blue-orm.png"},{"uri":"../signs/gas-guzzler-gulch.png"},{"uri":"../textures/metal-galvanized-albedo.png"},{"uri":"../textures/metal-galvanized-normal.png"},{"uri":"../textures/metal-galvanized-orm.png"}],"samplers":[{"magFilter":9729,"minFilter":9987,"wrapS":10497,"wrapT":10497}],"buffers":[{"uri":"../shared/geometry.bin","byteLength":16435520}],"bufferViews":[{"buffer":0,"byteOffset":0,"byteLength":3888,"target":34962},{"buffer":0,"byteOffset":3888,"byteLength":3888,"target":34962},{"buffer":0,"byteOffset":5902272,"byteLength":2592,"target":34962},{"buffer":0,"byteOffset":822696,"byteLength":3888,"target":34962},{"buffer":0,"byteOffset":5904864,"byteLength":2592,"target":34962},{"buffer":0,"byteOffset":5907456,"byteLength":2592,"target":34962},{"buffer":0,"byteOffset":5715360,"byteLength":2592,"target":34962},{"buffer":0,"byteOffset":1428216,"byteLength":2592,"target":34962},{"buffer":0,"byteOffset":5717952,"byteLength":2592,"target":34962},{"buffer":0,"byteOffset":1433400,"byteLength":2592,"target":34962},{"buffer":0,"byteOffset":45664,"byteLength":288,"target":34962},{"buffer":0,"byteOffset":45952,"byteLength":288,"target":34962},{"buffer":0,"byteOffset":46240,"byteLength":192,"target":34962},{"buffer":0,"byteOffset":46432,"byteLength":72,"target":34963},{"buffer":0,"byteOffset":46504,"byteLength":48,"target":34962},{"buffer":0,"byteOffset":46552,"byteLength":48,"target":34962},{"buffer":0,"byteOffset":188452,"byteLength":32,"target":34962},{"buffer":0,"byteOffset":46632,"byteLength":12,"target":34963},{"buffer":0,"byteOffset":5910048,"byteLength":2592,"target":34962},{"buffer":0,"byteOffset":1110072,"byteLength":624,"target":34962},{"buffer":0,"byteOffset":1110696,"byteLength":624,"target":34962},{"buffer":0,"byteOffset":5723136,"byteLength":416,"target":34962},{"buffer":0,"byteOffset":1111736,"byteLength":192,"target":34963},{"buffer":0,"byteOffset":5702304,"byteLength":2592,"target":34962},{"buffer":0,"byteOffset":2362084,"byteLength":768,"target":34962},{"buffer":0,"byteOffset":2362852,"byteLength":768,"target":34962},{"buffer":0,"byteOffset":5900672,"byteLength":512,"target":34962},{"buffer":0,"byteOffset":882248,"byteLength":240,"target":34963},{"buffer":0,"byteOffset":422312,"byteLength":2592,"target":34962},{"buffer":0,"byteOffset":46644,"byteLength":288,"target":34962},{"buffer":0,"byteOffset":5912640,"byteLength":192,"target":34962},{"buffer":0,"byteOffset":5912832,"byteLength":192,"target":34962},{"buffer":0,"byteOffset":5913024,"byteLength":192,"target":34962},{"buffer":0,"byteOffset":5724128,"byteLength":192,"target":34962},{"buffer":0,"byteOffset":1447128,"byteLength":192,"target":34962},{"buffer":0,"byteOffset":5724320,"byteLength":192,"target":34962},{"buffer":0,"byteOffset":1447512,"byteLength":192,"target":34962},{"buffer":0,"byteOffset":5913216,"byteLength":192,"target":34962},{"buffer":0,"byteOffset":1112312,"byteLength":480,"target":34962},{"buffer":0,"byteOffset":1112792,"byteLength":480,"target":34962},{"buffer":0,"byteOffset":5724704,"byteLength":320,"target":34962},{"buffer":0,"byteOffset":48596,"byteLength":144,"target":34963},{"buffer":0,"byteOffset":5706880,"byteLength":192,"target":34962},{"buffer":0,"byteOffset":2368432,"byteLength":480,"target":34962},{"buffer":0,"byteOffset":2368912,"byteLength":480,"target":34962},{"buffer":0,"byteOffset":5901952,"byteLength":320,"target":34962},{"buffer":0,"byteOffset":436936,"byteLength":192,"target":34962},{"buffer":0,"byteOffset":5725024,"byteLength":192,"target":34962}],"accessors":[{"bufferView":0,"componentType":5126,"count":324,"type":"VEC3","min":[-0.5,-0.5,-0.5],"max":[0.5,0.5,0.5]},{"bufferView":1,"componentType":5126,"count":324,"type":"VEC3"},{"bufferView":2,"componentType":5126,"count":324,"type":"VEC2"},{"bufferView":3,"componentType":5126,"count":324,"type":"VEC3","min":[-0.5,-0.5,-0.5],"max":[0.5,0.5,0.5]},{"bufferView":4,"componentType":5126,"count":324,"type":"VEC2"},{"bufferView":5,"componentType":5126,"count":324,"type":"VEC2"},{"bufferView":6,"componentType":5126,"count":324,"type":"VEC2"},{"bufferView":7,"componentType":5126,"count":324,"type":"VEC2"},{"bufferView":8,"componentType":5126,"count":324,"type":"VEC2"},{"bufferView":9,"componentType":5126,"count":324,"type":"VEC2"},{"bufferView":10,"componentType":5126,"count":24,"type":"VEC3","min":[-0.5,-0.5,-0.02500000037252903],"max":[0.5,0.5,0.02500000037252903]},{"bufferView":11,"componentType":5126,"count":24,"type":"VEC3"},{"bufferView":12,"componentType":5126,"count":24,"type":"VEC2"},{"bufferView":13,"componentType":5123,"count":36,"type":"SCALAR"},{"bufferView":14,"componentType":5126,"count":4,"type":"VEC3","min":[-0.5,-0.5,0],"max":[0.5,0.5,0]},{"bufferView":15,"componentType":5126,"count":4,"type":"VEC3"},{"bufferView":16,"componentType":5126,"count":4,"type":"VEC2"},{"bufferView":17,"componentType":5123,"count":6,"type":"SCALAR"},{"bufferView":18,"componentType":5126,"count":324,"type":"VEC2"},{"bufferView":19,"componentType":5126,"count":52,"type":"VEC3","min":[-1,-0.5,-1],"max":[1,0.5,1]},{"bufferView":20,"componentType":5126,"count":52,"type":"VEC3"},{"bufferView":21,"componentType":5126,"count":52,"type":"VEC2"},{"bufferView":22,"componentType":5123,"count":96,"type":"SCALAR"},{"bufferView":23,"componentType":5126,"count":324,"type":"VEC2"},{"bufferView":24,"componentType":5126,"count":64,"type":"VEC3","min":[-0.9510565400123596,-0.5,-1],"max":[0.9510565400123596,0.5,1]},{"bufferView":25,"componentType":5126,"count":64,"type":"VEC3"},{"bufferView":26,"componentType":5126,"count":64,"type":"VEC2"},{"bufferView":27,"componentType":5123,"count":120,"type":"SCALAR"},{"bufferView":28,"componentType":5126,"count":324,"type":"VEC2"},{"bufferView":29,"componentType":5126,"count":24,"type":"VEC3","min":[-0.5,-0.5,-0.5],"max":[0.5,0.5,0.5]},{"bufferView":30,"componentType":5126,"count":24,"type":"VEC2"},{"bufferView":31,"componentType":5126,"count":24,"type":"VEC2"},{"bufferView":32,"componentType":5126,"count":24,"type":"VEC2"},{"bufferView":33,"componentType":5126,"count":24,"type":"VEC2"},{"bufferView":34,"componentType":5126,"count":24,"type":"VEC2"},{"bufferView":35,"componentType":5126,"count":24,"type":"VEC2"},{"bufferView":36,"componentType":5126,"count":24,"type":"VEC2"},{"bufferView":37,"componentType":5126,"count":24,"type":"VEC2"},{"bufferView":38,"componentType":5126,"count":40,"type":"VEC3","min":[-0.8660253882408142,-0.5,-1],"max":[0.8660253882408142,0.5,1]},{"bufferView":39,"componentType":5126,"count":40,"type":"VEC3"},{"bufferView":40,"componentType":5126,"count":40,"type":"VEC2"},{"bufferView":41,"componentType":5123,"count":72,"type":"SCALAR"},{"bufferView":42,"componentType":5126,"count":24,"type":"VEC2"},{"bufferView":43,"componentType":5126,"count":40,"type":"VEC3","min":[-0.8660253882408142,-0.5,-1],"max":[0.8660253882408142,0.5,1]},{"bufferView":44,"componentType":5126,"count":40,"type":"VEC3"},{"bufferView":45,"componentType":5126,"count":40,"type":"VEC2"},{"bufferView":46,"componentType":5126,"count":24,"type":"VEC2"},{"bufferView":47,"componentType":5126,"count":24,"type":"VEC2"}],"extensionsUsed":["KHR_materials_unlit"],"extras":{"id":"vlt-gas-guzzler-gulch-17","family":"gas-guzzler-gulch","variant":16,"plan":"D2-1","units":"metres","up":"+Y","front":"+Z","lodScenes":[0,1,2]}}