{"asset":{"version":"2.0","generator":"SLOPMERICA Department of Unnecessary Development 1.0"},"scene":0,"scenes":[{"name":"LOD 0","nodes":[0,1,2,3,4,5,6,7,8,9,10,11,12,13,14,15,16,17,18,19,20,21,22,23,24,25,26,27,28,29,30,31,32,33,34,35,36,37,38],"extras":{"level":0}},{"name":"LOD 1","nodes":[39,40,41,42,43,44,45,46,47,48,49,50,51,52,53,54,55,56,57,58,59,60,61,62,63,64,65],"extras":{"level":1}},{"name":"LOD 2","nodes":[66,67,68,69,70,71,72,73,74,75,76,77,78,79,80,81,82,83,84,85],"extras":{"level":2}}],"nodes":[{"name":"surveyed lot","mesh":0,"translation":[0,0.06,0],"scale":[24.96,0.12,24.96]},{"name":"home 0-0","mesh":1,"translation":[-6.3,1,-6.3],"scale":[2.5,1.75,5]},{"name":"roof 0-0","mesh":2,"translation":[-6.3,1.95,-6.3],"rotation":[0,0,-0.017499,0.999847],"scale":[2.7,0.18,5.2]},{"name":"home 0-1","mesh":1,"translation":[-3.15,1,-6.3],"scale":[2.5,1.75,5]},{"name":"roof 0-1","mesh":2,"translation":[-3.15,1.95,-6.3],"rotation":[0,0,0.017499,0.999847],"scale":[2.7,0.18,5.2]},{"name":"home 0-2","mesh":1,"translation":[0,1,-6.3],"scale":[2.5,1.75,5]},{"name":"roof 0-2","mesh":2,"translation":[0,1.95,-6.3],"rotation":[0,0,-0.017499,0.999847],"scale":[2.7,0.18,5.2]},{"name":"home 0-3","mesh":1,"translation":[3.15,1,-6.3],"scale":[2.5,1.75,5]},{"name":"roof 0-3","mesh":2,"translation":[3.15,1.95,-6.3],"rotation":[0,0,0.017499,0.999847],"scale":[2.7,0.18,5.2]},{"name":"home 0-4","mesh":1,"translation":[6.3,1,-6.3],"scale":[2.5,1.75,5]},{"name":"roof 0-4","mesh":2,"translation":[6.3,1.95,-6.3],"rotation":[0,0,-0.017499,0.999847],"scale":[2.7,0.18,5.2]},{"name":"home 1-0","mesh":3,"translation":[-6.3,1,0],"scale":[2.5,1.75,5]},{"name":"roof 1-0","mesh":2,"translation":[-6.3,1.95,0],"rotation":[0,0,-0.017499,0.999847],"scale":[2.7,0.18,5.2]},{"name":"home 1-1","mesh":3,"translation":[-3.15,1,0],"scale":[2.5,1.75,5]},{"name":"roof 1-1","mesh":2,"translation":[-3.15,1.95,0],"rotation":[0,0,0.017499,0.999847],"scale":[2.7,0.18,5.2]},{"name":"home 1-2","mesh":3,"translation":[0,1,0],"scale":[2.5,1.75,5]},{"name":"roof 1-2","mesh":2,"translation":[0,1.95,0],"rotation":[0,0,-0.017499,0.999847],"scale":[2.7,0.18,5.2]},{"name":"home 1-3","mesh":3,"translation":[3.15,1,0],"scale":[2.5,1.75,5]},{"name":"roof 1-3","mesh":2,"translation":[3.15,1.95,0],"rotation":[0,0,0.017499,0.999847],"scale":[2.7,0.18,5.2]},{"name":"home 1-4","mesh":3,"translation":[6.3,1,0],"scale":[2.5,1.75,5]},{"name":"roof 1-4","mesh":2,"translation":[6.3,1.95,0],"rotation":[0,0,-0.017499,0.999847],"scale":[2.7,0.18,5.2]},{"name":"home 2-0","mesh":1,"translation":[-6.3,1,6.3],"scale":[2.5,1.75,5]},{"name":"roof 2-0","mesh":2,"translation":[-6.3,1.95,6.3],"rotation":[0,0,-0.017499,0.999847],"scale":[2.7,0.18,5.2]},{"name":"home 2-1","mesh":1,"translation":[-3.15,1,6.3],"scale":[2.5,1.75,5]},{"name":"roof 2-1","mesh":2,"translation":[-3.15,1.95,6.3],"rotation":[0,0,0.017499,0.999847],"scale":[2.7,0.18,5.2]},{"name":"home 2-2","mesh":1,"translation":[0,1,6.3],"scale":[2.5,1.75,5]},{"name":"roof 2-2","mesh":2,"translation":[0,1.95,6.3],"rotation":[0,0,-0.017499,0.999847],"scale":[2.7,0.18,5.2]},{"name":"home 2-3","mesh":1,"translation":[3.15,1,6.3],"scale":[2.5,1.75,5]},{"name":"roof 2-3","mesh":2,"translation":[3.15,1.95,6.3],"rotation":[0,0,0.017499,0.999847],"scale":[2.7,0.18,5.2]},{"name":"home 2-4","mesh":1,"translation":[6.3,1,6.3],"scale":[2.5,1.75,5]},{"name":"roof 2-4","mesh":2,"translation":[6.3,1.95,6.3],"rotation":[0,0,-0.017499,0.999847],"scale":[2.7,0.18,5.2]},{"name":"entry beam","mesh":4,"translation":[0,4.1,10],"scale":[10.5,0.45,0.45]},{"name":"post -4 0","mesh":5,"translation":[-4,2,10],"scale":[0.16,4,0.16]},{"name":"post -4 1","mesh":5,"translation":[4,2,10],"scale":[0.16,4,0.16]},{"name":"whispering pines sign-back","mesh":6,"translation":[0,3.15,10.28],"scale":[5.6,1.5,1]},{"name":"whispering pines sign","mesh":7,"translation":[0,3.15,10.309],"scale":[5.5,1.4,1]},{"name":"community leasing cottage","mesh":8,"translation":[7.45,1.2,-4.35],"scale":[4.85,2.15,3.9]},{"name":"leasing cottage roof","mesh":9,"translation":[7.45,2.4,-4.35],"scale":[5.25,0.24,4.3]},{"name":"vacant pad","mesh":10,"translation":[6.5,0.14,-5],"scale":[4.5,0.08,6]},{"name":"surveyed lot","mesh":11,"translation":[0,0.06,0],"scale":[24.96,0.12,24.96]},{"name":"home 0-0","mesh":12,"translation":[-3.15,1,-6.3],"scale":[2.5,1.75,5]},{"name":"roof 0-0","mesh":13,"translation":[-3.15,1.95,-6.3],"rotation":[0,0,-0.017499,0.999847],"scale":[2.7,0.18,5.2]},{"name":"home 0-1","mesh":12,"translation":[0,1,-6.3],"scale":[2.5,1.75,5]},{"name":"roof 0-1","mesh":13,"translation":[0,1.95,-6.3],"rotation":[0,0,0.017499,0.999847],"scale":[2.7,0.18,5.2]},{"name":"home 0-2","mesh":12,"translation":[3.15,1,-6.3],"scale":[2.5,1.75,5]},{"name":"roof 0-2","mesh":13,"translation":[3.15,1.95,-6.3],"rotation":[0,0,-0.017499,0.999847],"scale":[2.7,0.18,5.2]},{"name":"home 1-0","mesh":14,"translation":[-3.15,1,0],"scale":[2.5,1.75,5]},{"name":"roof 1-0","mesh":13,"translation":[-3.15,1.95,0],"rotation":[0,0,-0.017499,0.999847],"scale":[2.7,0.18,5.2]},{"name":"home 1-1","mesh":14,"translation":[0,1,0],"scale":[2.5,1.75,5]},{"name":"roof 1-1","mesh":13,"translation":[0,1.95,0],"rotation":[0,0,0.017499,0.999847],"scale":[2.7,0.18,5.2]},{"name":"home 1-2","mesh":14,"translation":[3.15,1,0],"scale":[2.5,1.75,5]},{"name":"roof 1-2","mesh":13,"translation":[3.15,1.95,0],"rotation":[0,0,-0.017499,0.999847],"scale":[2.7,0.18,5.2]},{"name":"home 2-0","mesh":12,"translation":[-3.15,1,6.3],"scale":[2.5,1.75,5]},{"name":"roof 2-0","mesh":13,"translation":[-3.15,1.95,6.3],"rotation":[0,0,-0.017499,0.999847],"scale":[2.7,0.18,5.2]},{"name":"home 2-1","mesh":12,"translation":[0,1,6.3],"scale":[2.5,1.75,5]},{"name":"roof 2-1","mesh":13,"translation":[0,1.95,6.3],"rotation":[0,0,0.017499,0.999847],"scale":[2.7,0.18,5.2]},{"name":"home 2-2","mesh":12,"translation":[3.15,1,6.3],"scale":[2.5,1.75,5]},{"name":"roof 2-2","mesh":13,"translation":[3.15,1.95,6.3],"rotation":[0,0,-0.017499,0.999847],"scale":[2.7,0.18,5.2]},{"name":"entry beam","mesh":15,"translation":[0,4.1,10],"scale":[10.5,0.45,0.45]},{"name":"post -4 0","mesh":16,"translation":[-4,2,10],"scale":[0.16,4,0.16]},{"name":"post -4 1","mesh":16,"translation":[4,2,10],"scale":[0.16,4,0.16]},{"name":"whispering pines sign-back","mesh":6,"translation":[0,3.15,10.28],"scale":[5.6,1.5,1]},{"name":"whispering pines sign","mesh":7,"translation":[0,3.15,10.309],"scale":[5.5,1.4,1]},{"name":"community leasing cottage","mesh":17,"translation":[7.45,1.2,-4.35],"scale":[4.85,2.15,3.9]},{"name":"leasing cottage roof","mesh":18,"translation":[7.45,2.4,-4.35],"scale":[5.25,0.24,4.3]},{"name":"vacant pad","mesh":19,"translation":[6.5,0.14,-5],"scale":[4.5,0.08,6]},{"name":"surveyed lot","mesh":11,"translation":[0,0.06,0],"scale":[24.96,0.12,24.96]},{"name":"home 0-0","mesh":12,"translation":[-3.15,1,-3.15],"scale":[2.5,1.75,5]},{"name":"roof 0-0","mesh":13,"translation":[-3.15,1.95,-3.15],"rotation":[0,0,-0.017499,0.999847],"scale":[2.7,0.18,5.2]},{"name":"home 0-1","mesh":12,"translation":[0,1,-3.15],"scale":[2.5,1.75,5]},{"name":"roof 0-1","mesh":13,"translation":[0,1.95,-3.15],"rotation":[0,0,0.017499,0.999847],"scale":[2.7,0.18,5.2]},{"name":"home 0-2","mesh":12,"translation":[3.15,1,-3.15],"scale":[2.5,1.75,5]},{"name":"roof 0-2","mesh":13,"translation":[3.15,1.95,-3.15],"rotation":[0,0,-0.017499,0.999847],"scale":[2.7,0.18,5.2]},{"name":"home 1-0","mesh":14,"translation":[-3.15,1,3.15],"scale":[2.5,1.75,5]},{"name":"roof 1-0","mesh":13,"translation":[-3.15,1.95,3.15],"rotation":[0,0,-0.017499,0.999847],"scale":[2.7,0.18,5.2]},{"name":"home 1-1","mesh":14,"translation":[0,1,3.15],"scale":[2.5,1.75,5]},{"name":"roof 1-1","mesh":13,"translation":[0,1.95,3.15],"rotation":[0,0,0.017499,0.999847],"scale":[2.7,0.18,5.2]},{"name":"home 1-2","mesh":14,"translation":[3.15,1,3.15],"scale":[2.5,1.75,5]},{"name":"roof 1-2","mesh":13,"translation":[3.15,1.95,3.15],"rotation":[0,0,-0.017499,0.999847],"scale":[2.7,0.18,5.2]},{"name":"entry beam","mesh":15,"translation":[0,4.1,10],"scale":[10.5,0.45,0.45]},{"name":"post -4 0","mesh":16,"translation":[-4,2,10],"scale":[0.16,4,0.16]},{"name":"post -4 1","mesh":16,"translation":[4,2,10],"scale":[0.16,4,0.16]},{"name":"whispering pines sign-back","mesh":6,"translation":[0,3.15,10.28],"scale":[5.6,1.5,1]},{"name":"whispering pines sign","mesh":7,"translation":[0,3.15,10.309],"scale":[5.5,1.4,1]},{"name":"community leasing cottage","mesh":17,"translation":[7.45,1.2,-4.35],"scale":[4.85,2.15,3.9]},{"name":"leasing cottage roof","mesh":18,"translation":[7.45,2.4,-4.35],"scale":[5.25,0.24,4.3]}],"meshes":[{"primitives":[{"attributes":{"POSITION":0,"NORMAL":1,"TEXCOORD_0":2},"material":0,"mode":4}]},{"primitives":[{"attributes":{"POSITION":0,"NORMAL":1,"TEXCOORD_0":3},"material":1,"mode":4}]},{"primitives":[{"attributes":{"POSITION":0,"NORMAL":1,"TEXCOORD_0":4},"material":2,"mode":4}]},{"primitives":[{"attributes":{"POSITION":0,"NORMAL":1,"TEXCOORD_0":3},"material":3,"mode":4}]},{"primitives":[{"attributes":{"POSITION":0,"NORMAL":1,"TEXCOORD_0":5},"material":4,"mode":4}]},{"primitives":[{"attributes":{"POSITION":0,"NORMAL":1,"TEXCOORD_0":6},"material":4,"mode":4}]},{"primitives":[{"attributes":{"POSITION":7,"NORMAL":8,"TEXCOORD_0":9},"material":5,"mode":4,"indices":10}]},{"primitives":[{"attributes":{"POSITION":11,"NORMAL":12,"TEXCOORD_0":13},"material":6,"mode":4,"indices":14}]},{"primitives":[{"attributes":{"POSITION":0,"NORMAL":1,"TEXCOORD_0":15},"material":7,"mode":4}]},{"primitives":[{"attributes":{"POSITION":0,"NORMAL":1,"TEXCOORD_0":16},"material":8,"mode":4}]},{"primitives":[{"attributes":{"POSITION":0,"NORMAL":1,"TEXCOORD_0":17},"material":9,"mode":4}]},{"primitives":[{"attributes":{"POSITION":18,"NORMAL":8,"TEXCOORD_0":19},"material":0,"mode":4,"indices":10}]},{"primitives":[{"attributes":{"POSITION":18,"NORMAL":8,"TEXCOORD_0":20},"material":1,"mode":4,"indices":10}]},{"primitives":[{"attributes":{"POSITION":18,"NORMAL":8,"TEXCOORD_0":21},"material":2,"mode":4,"indices":10}]},{"primitives":[{"attributes":{"POSITION":18,"NORMAL":8,"TEXCOORD_0":20},"material":3,"mode":4,"indices":10}]},{"primitives":[{"attributes":{"POSITION":18,"NORMAL":8,"TEXCOORD_0":22},"material":4,"mode":4,"indices":10}]},{"primitives":[{"attributes":{"POSITION":18,"NORMAL":8,"TEXCOORD_0":23},"material":4,"mode":4,"indices":10}]},{"primitives":[{"attributes":{"POSITION":18,"NORMAL":8,"TEXCOORD_0":24},"material":7,"mode":4,"indices":10}]},{"primitives":[{"attributes":{"POSITION":18,"NORMAL":8,"TEXCOORD_0":25},"material":8,"mode":4,"indices":10}]},{"primitives":[{"attributes":{"POSITION":18,"NORMAL":8,"TEXCOORD_0":26},"material":9,"mode":4,"indices":10}]}],"materials":[{"name":"concrete","pbrMetallicRoughness":{"baseColorTexture":{"index":0},"metallicRoughnessTexture":{"index":2},"roughnessFactor":1,"metallicFactor":1},"normalTexture":{"index":1,"scale":0.82},"occlusionTexture":{"index":2,"strength":0.35}},{"name":"paint-white","pbrMetallicRoughness":{"baseColorFactor":[0.7912979403281551,0.7681511472425809,0.6795424696265424,1],"roughnessFactor":0.68,"metallicFactor":0}},{"name":"roof-metal","pbrMetallicRoughness":{"baseColorTexture":{"index":3},"metallicRoughnessTexture":{"index":5},"roughnessFactor":1,"metallicFactor":1},"normalTexture":{"index":4,"scale":0.68},"occlusionTexture":{"index":5,"strength":0.35}},{"name":"paint-teal","pbrMetallicRoughness":{"baseColorFactor":[0.040915196900556984,0.20507873637973145,0.1878207722902346,1],"roughnessFactor":0.59,"metallicFactor":0.05}},{"name":"wood-painted","pbrMetallicRoughness":{"baseColorTexture":{"index":6},"metallicRoughnessTexture":{"index":8},"roughnessFactor":1,"metallicFactor":1},"normalTexture":{"index":7,"scale":0.55},"occlusionTexture":{"index":8,"strength":0.35}},{"name":"metal-dark","pbrMetallicRoughness":{"baseColorTexture":{"index":9},"metallicRoughnessTexture":{"index":11},"roughnessFactor":1,"metallicFactor":1},"normalTexture":{"index":10,"scale":0.35},"occlusionTexture":{"index":11,"strength":0.35}},{"name":"whispering-pines signage","pbrMetallicRoughness":{"baseColorTexture":{"index":12},"roughnessFactor":1,"metallicFactor":0},"extensions":{"KHR_materials_unlit":{}}},{"name":"brick-cream","pbrMetallicRoughness":{"baseColorTexture":{"index":13},"metallicRoughnessTexture":{"index":15},"roughnessFactor":1,"metallicFactor":1},"normalTexture":{"index":14,"scale":1.05},"occlusionTexture":{"index":15,"strength":0.35}},{"name":"roof-shingle","pbrMetallicRoughness":{"baseColorTexture":{"index":16},"metallicRoughnessTexture":{"index":18},"roughnessFactor":1,"metallicFactor":1},"normalTexture":{"index":17,"scale":0.78},"occlusionTexture":{"index":18,"strength":0.35}},{"name":"asphalt","pbrMetallicRoughness":{"baseColorTexture":{"index":19},"metallicRoughnessTexture":{"index":21},"roughnessFactor":1,"metallicFactor":1},"normalTexture":{"index":20,"scale":0.62},"occlusionTexture":{"index":21,"strength":0.35}}],"textures":[{"source":0,"sampler":0},{"source":1,"sampler":0},{"source":2,"sampler":0},{"source":3,"sampler":0},{"source":4,"sampler":0},{"source":5,"sampler":0},{"source":6,"sampler":0},{"source":7,"sampler":0},{"source":8,"sampler":0},{"source":9,"sampler":0},{"source":10,"sampler":0},{"source":11,"sampler":0},{"source":12,"sampler":0},{"source":13,"sampler":0},{"source":14,"sampler":0},{"source":15,"sampler":0},{"source":16,"sampler":0},{"source":17,"sampler":0},{"source":18,"sampler":0},{"source":19,"sampler":0},{"source":20,"sampler":0},{"source":21,"sampler":0}],"images":[{"uri":"../textures/concrete-albedo.png"},{"uri":"../textures/concrete-normal.png"},{"uri":"../textures/concrete-orm.png"},{"uri":"../textures/roof-metal-albedo.png"},{"uri":"../textures/roof-metal-normal.png"},{"uri":"../textures/roof-metal-orm.png"},{"uri":"../textures/wood-painted-albedo.png"},{"uri":"../textures/wood-painted-normal.png"},{"uri":"../textures/wood-painted-orm.png"},{"uri":"../textures/metal-dark-albedo.png"},{"uri":"../textures/metal-dark-normal.png"},{"uri":"../textures/metal-dark-orm.png"},{"uri":"../signs/whispering-pines.png"},{"uri":"../textures/brick-cream-albedo.png"},{"uri":"../textures/brick-cream-normal.png"},{"uri":"../textures/brick-cream-orm.png"},{"uri":"../textures/roof-shingle-albedo.png"},{"uri":"../textures/roof-shingle-normal.png"},{"uri":"../textures/roof-shingle-orm.png"},{"uri":"../textures/asphalt-albedo.png"},{"uri":"../textures/asphalt-normal.png"},{"uri":"../textures/asphalt-orm.png"}],"samplers":[{"magFilter":9729,"minFilter":9987,"wrapS":10497,"wrapT":10497}],"buffers":[{"uri":"../shared/geometry.bin","byteLength":16435520}],"bufferViews":[{"buffer":0,"byteOffset":0,"byteLength":3888,"target":34962},{"buffer":0,"byteOffset":3888,"byteLength":3888,"target":34962},{"buffer":0,"byteOffset":4850808,"byteLength":2592,"target":34962},{"buffer":0,"byteOffset":16223168,"byteLength":2592,"target":34962},{"buffer":0,"byteOffset":16225760,"byteLength":2592,"target":34962},{"buffer":0,"byteOffset":16253760,"byteLength":2592,"target":34962},{"buffer":0,"byteOffset":16230944,"byteLength":2592,"target":34962},{"buffer":0,"byteOffset":45664,"byteLength":288,"target":34962},{"buffer":0,"byteOffset":45952,"byteLength":288,"target":34962},{"buffer":0,"byteOffset":46240,"byteLength":192,"target":34962},{"buffer":0,"byteOffset":46432,"byteLength":72,"target":34963},{"buffer":0,"byteOffset":46504,"byteLength":48,"target":34962},{"buffer":0,"byteOffset":46552,"byteLength":48,"target":34962},{"buffer":0,"byteOffset":222916,"byteLength":32,"target":34962},{"buffer":0,"byteOffset":46632,"byteLength":12,"target":34963},{"buffer":0,"byteOffset":16276032,"byteLength":2592,"target":34962},{"buffer":0,"byteOffset":16278624,"byteLength":2592,"target":34962},{"buffer":0,"byteOffset":16281600,"byteLength":2592,"target":34962},{"buffer":0,"byteOffset":46644,"byteLength":288,"target":34962},{"buffer":0,"byteOffset":4855992,"byteLength":192,"target":34962},{"buffer":0,"byteOffset":16246372,"byteLength":192,"target":34962},{"buffer":0,"byteOffset":16246564,"byteLength":192,"target":34962},{"buffer":0,"byteOffset":16256352,"byteLength":192,"target":34962},{"buffer":0,"byteOffset":16246948,"byteLength":192,"target":34962},{"buffer":0,"byteOffset":16281216,"byteLength":192,"target":34962},{"buffer":0,"byteOffset":16281408,"byteLength":192,"target":34962},{"buffer":0,"byteOffset":16284192,"byteLength":192,"target":34962}],"accessors":[{"bufferView":0,"componentType":5126,"count":324,"type":"VEC3","min":[-0.5,-0.5,-0.5],"max":[0.5,0.5,0.5]},{"bufferView":1,"componentType":5126,"count":324,"type":"VEC3"},{"bufferView":2,"componentType":5126,"count":324,"type":"VEC2"},{"bufferView":3,"componentType":5126,"count":324,"type":"VEC2"},{"bufferView":4,"componentType":5126,"count":324,"type":"VEC2"},{"bufferView":5,"componentType":5126,"count":324,"type":"VEC2"},{"bufferView":6,"componentType":5126,"count":324,"type":"VEC2"},{"bufferView":7,"componentType":5126,"count":24,"type":"VEC3","min":[-0.5,-0.5,-0.02500000037252903],"max":[0.5,0.5,0.02500000037252903]},{"bufferView":8,"componentType":5126,"count":24,"type":"VEC3"},{"bufferView":9,"componentType":5126,"count":24,"type":"VEC2"},{"bufferView":10,"componentType":5123,"count":36,"type":"SCALAR"},{"bufferView":11,"componentType":5126,"count":4,"type":"VEC3","min":[-0.5,-0.5,0],"max":[0.5,0.5,0]},{"bufferView":12,"componentType":5126,"count":4,"type":"VEC3"},{"bufferView":13,"componentType":5126,"count":4,"type":"VEC2"},{"bufferView":14,"componentType":5123,"count":6,"type":"SCALAR"},{"bufferView":15,"componentType":5126,"count":324,"type":"VEC2"},{"bufferView":16,"componentType":5126,"count":324,"type":"VEC2"},{"bufferView":17,"componentType":5126,"count":324,"type":"VEC2"},{"bufferView":18,"componentType":5126,"count":24,"type":"VEC3","min":[-0.5,-0.5,-0.5],"max":[0.5,0.5,0.5]},{"bufferView":19,"componentType":5126,"count":24,"type":"VEC2"},{"bufferView":20,"componentType":5126,"count":24,"type":"VEC2"},{"bufferView":21,"componentType":5126,"count":24,"type":"VEC2"},{"bufferView":22,"componentType":5126,"count":24,"type":"VEC2"},{"bufferView":23,"componentType":5126,"count":24,"type":"VEC2"},{"bufferView":24,"componentType":5126,"count":24,"type":"VEC2"},{"bufferView":25,"componentType":5126,"count":24,"type":"VEC2"},{"bufferView":26,"componentType":5126,"count":24,"type":"VEC2"}],"extensionsUsed":["KHR_materials_unlit"],"extras":{"id":"vlt-whispering-pines-38","family":"whispering-pines","variant":37,"plan":"D3-2","units":"metres","up":"+Y","front":"+Z","lodScenes":[0,1,2]}}