{"asset":{"version":"2.0","generator":"SLOPMERICA Department of Unnecessary Development 1.0"},"scene":0,"scenes":[{"name":"LOD 0","nodes":[0,1,2,3,4,5,6,7,8,9,10,11,12,13,14,15,16,17,18,19,20,21,22],"extras":{"level":0}},{"name":"LOD 1","nodes":[23,24,25,26,27,28,29,30,31,32,33,34,35,36,37,38,39,40,41,42,43,44,45],"extras":{"level":1}},{"name":"LOD 2","nodes":[46,47,48,49,50,51,52,53,54,55,56,57,58,59,60],"extras":{"level":2}}],"nodes":[{"name":"site-pad","mesh":0,"translation":[0,0.06,0],"scale":[11.8976,0.12,8.6528]},{"name":"variant-apron","mesh":1,"translation":[-2.2308,0.13,4.38],"scale":[3.0888,0.08,0.8]},{"name":"bollard-0","mesh":2,"translation":[-4.3472,0.43,4.5],"scale":[0.08,0.62,0.08]},{"name":"bollard-1","mesh":2,"translation":[0,0.43,4.5],"scale":[0.08,0.62,0.08]},{"name":"bollard-2","mesh":2,"translation":[4.3472,0.43,4.5],"scale":[0.08,0.62,0.08]},{"name":"layout-cabinet","mesh":3,"translation":[-5.92,0.555,-1.872],"scale":[0.45,0.87,0.32]},{"name":"civic-shell","mesh":4,"translation":[0,2.645,0],"scale":[11.44,5.05,8.32]},{"name":"flat-budget-roof","mesh":5,"translation":[0,5.3,0],"scale":[11.74,0.25,8.62]},{"name":"entrance-recess","mesh":6,"translation":[-2.7456,1.42,4.29],"scale":[2.24,2.6,0.24]},{"name":"glass-doors","mesh":7,"translation":[-2.7456,1.3,4.44],"scale":[1.5,2.15,0.12]},{"name":"window-0","mesh":8,"translation":[-4.3472,2.929,4.31],"scale":[0.85,1.15,0.1]},{"name":"window-1","mesh":8,"translation":[-1.449067,2.929,4.31],"scale":[0.85,1.15,0.1]},{"name":"window-2","mesh":8,"translation":[1.449067,2.929,4.31],"scale":[0.85,1.15,0.1]},{"name":"window-3","mesh":8,"translation":[4.3472,2.929,4.31],"scale":[0.85,1.15,0.1]},{"name":"column-0","mesh":9,"translation":[-3.8896,1.57,4.78],"scale":[0.19,2.9,0.19]},{"name":"column-1","mesh":9,"translation":[3.8896,1.57,4.78],"scale":[0.19,2.9,0.19]},{"name":"civic-sign-back","mesh":10,"translation":[0,4.33,4.34],"scale":[6.3,1,1]},{"name":"civic-sign","mesh":11,"translation":[0,4.33,4.369],"scale":[6.2,0.9,1]},{"name":"public-comment-dais","mesh":12,"translation":[0,0.55,5.16],"scale":[3.8,0.8,1.2]},{"name":"hearing-chair-0","mesh":13,"translation":[-1.44,0.52,6.26],"scale":[0.45,0.75,0.45]},{"name":"hearing-chair-1","mesh":13,"translation":[-0.72,0.52,6.26],"scale":[0.45,0.75,0.45]},{"name":"hearing-chair-2","mesh":13,"translation":[0,0.52,6.26],"scale":[0.45,0.75,0.45]},{"name":"hearing-chair-3","mesh":13,"translation":[0.72,0.52,6.26],"scale":[0.45,0.75,0.45]},{"name":"site-pad","mesh":14,"translation":[0,0.06,0],"scale":[11.8976,0.12,8.6528]},{"name":"variant-apron","mesh":15,"translation":[-2.2308,0.13,4.38],"scale":[3.0888,0.08,0.8]},{"name":"bollard-0","mesh":16,"translation":[-4.3472,0.43,4.5],"scale":[0.08,0.62,0.08]},{"name":"bollard-1","mesh":16,"translation":[0,0.43,4.5],"scale":[0.08,0.62,0.08]},{"name":"bollard-2","mesh":16,"translation":[4.3472,0.43,4.5],"scale":[0.08,0.62,0.08]},{"name":"layout-cabinet","mesh":17,"translation":[-5.92,0.555,-1.872],"scale":[0.45,0.87,0.32]},{"name":"civic-shell","mesh":18,"translation":[0,2.645,0],"scale":[11.44,5.05,8.32]},{"name":"flat-budget-roof","mesh":19,"translation":[0,5.3,0],"scale":[11.74,0.25,8.62]},{"name":"entrance-recess","mesh":20,"translation":[-2.7456,1.42,4.29],"scale":[2.24,2.6,0.24]},{"name":"glass-doors","mesh":21,"translation":[-2.7456,1.3,4.44],"scale":[1.5,2.15,0.12]},{"name":"window-0","mesh":22,"translation":[-4.3472,2.929,4.31],"scale":[0.85,1.15,0.1]},{"name":"window-1","mesh":22,"translation":[-1.449067,2.929,4.31],"scale":[0.85,1.15,0.1]},{"name":"window-2","mesh":22,"translation":[1.449067,2.929,4.31],"scale":[0.85,1.15,0.1]},{"name":"window-3","mesh":22,"translation":[4.3472,2.929,4.31],"scale":[0.85,1.15,0.1]},{"name":"column-0","mesh":23,"translation":[-3.8896,1.57,4.78],"scale":[0.19,2.9,0.19]},{"name":"column-1","mesh":23,"translation":[3.8896,1.57,4.78],"scale":[0.19,2.9,0.19]},{"name":"civic-sign-back","mesh":10,"translation":[0,4.33,4.34],"scale":[6.3,1,1]},{"name":"civic-sign","mesh":11,"translation":[0,4.33,4.369],"scale":[6.2,0.9,1]},{"name":"public-comment-dais","mesh":24,"translation":[0,0.55,5.16],"scale":[3.8,0.8,1.2]},{"name":"hearing-chair-0","mesh":25,"translation":[-1.44,0.52,6.26],"scale":[0.45,0.75,0.45]},{"name":"hearing-chair-1","mesh":25,"translation":[-0.72,0.52,6.26],"scale":[0.45,0.75,0.45]},{"name":"hearing-chair-2","mesh":25,"translation":[0,0.52,6.26],"scale":[0.45,0.75,0.45]},{"name":"hearing-chair-3","mesh":25,"translation":[0.72,0.52,6.26],"scale":[0.45,0.75,0.45]},{"name":"site-pad","mesh":14,"translation":[0,0.06,0],"scale":[11.8976,0.12,8.6528]},{"name":"variant-apron","mesh":15,"translation":[-2.2308,0.13,4.38],"scale":[3.0888,0.08,0.8]},{"name":"bollard-0","mesh":16,"translation":[-4.3472,0.43,4.5],"scale":[0.08,0.62,0.08]},{"name":"layout-cabinet","mesh":17,"translation":[-5.92,0.555,-1.872],"scale":[0.45,0.87,0.32]},{"name":"civic-shell","mesh":18,"translation":[0,2.645,0],"scale":[11.44,5.05,8.32]},{"name":"flat-budget-roof","mesh":19,"translation":[0,5.3,0],"scale":[11.74,0.25,8.62]},{"name":"entrance-recess","mesh":20,"translation":[-2.7456,1.42,4.29],"scale":[2.24,2.6,0.24]},{"name":"glass-doors","mesh":21,"translation":[-2.7456,1.3,4.44],"scale":[1.5,2.15,0.12]},{"name":"column-0","mesh":23,"translation":[-3.8896,1.57,4.78],"scale":[0.19,2.9,0.19]},{"name":"column-1","mesh":23,"translation":[3.8896,1.57,4.78],"scale":[0.19,2.9,0.19]},{"name":"civic-sign-back","mesh":10,"translation":[0,4.33,4.34],"scale":[6.3,1,1]},{"name":"civic-sign","mesh":11,"translation":[0,4.33,4.369],"scale":[6.2,0.9,1]},{"name":"public-comment-dais","mesh":24,"translation":[0,0.55,5.16],"scale":[3.8,0.8,1.2]},{"name":"hearing-chair-0","mesh":25,"translation":[-0.72,0.52,6.26],"scale":[0.45,0.75,0.45]},{"name":"hearing-chair-1","mesh":25,"translation":[0,0.52,6.26],"scale":[0.45,0.75,0.45]}],"meshes":[{"primitives":[{"attributes":{"POSITION":0,"NORMAL":1,"TEXCOORD_0":2},"material":0,"mode":4}]},{"primitives":[{"attributes":{"POSITION":0,"NORMAL":1,"TEXCOORD_0":3},"material":1,"mode":4}]},{"primitives":[{"attributes":{"POSITION":4,"NORMAL":5,"TEXCOORD_0":6},"material":2,"mode":4,"indices":7}]},{"primitives":[{"attributes":{"POSITION":0,"NORMAL":1,"TEXCOORD_0":8},"material":3,"mode":4}]},{"primitives":[{"attributes":{"POSITION":9,"NORMAL":1,"TEXCOORD_0":10},"material":4,"mode":4}]},{"primitives":[{"attributes":{"POSITION":0,"NORMAL":1,"TEXCOORD_0":11},"material":5,"mode":4}]},{"primitives":[{"attributes":{"POSITION":0,"NORMAL":1,"TEXCOORD_0":12},"material":6,"mode":4}]},{"primitives":[{"attributes":{"POSITION":0,"NORMAL":1,"TEXCOORD_0":13},"material":7,"mode":4}]},{"primitives":[{"attributes":{"POSITION":0,"NORMAL":1,"TEXCOORD_0":14},"material":7,"mode":4}]},{"primitives":[{"attributes":{"POSITION":15,"NORMAL":16,"TEXCOORD_0":17},"material":8,"mode":4,"indices":7}]},{"primitives":[{"attributes":{"POSITION":18,"NORMAL":19,"TEXCOORD_0":20},"material":6,"mode":4,"indices":21}]},{"primitives":[{"attributes":{"POSITION":22,"NORMAL":23,"TEXCOORD_0":24},"material":9,"mode":4,"indices":25}]},{"primitives":[{"attributes":{"POSITION":0,"NORMAL":1,"TEXCOORD_0":26},"material":10,"mode":4}]},{"primitives":[{"attributes":{"POSITION":0,"NORMAL":1,"TEXCOORD_0":27},"material":11,"mode":4}]},{"primitives":[{"attributes":{"POSITION":28,"NORMAL":19,"TEXCOORD_0":29},"material":0,"mode":4,"indices":21}]},{"primitives":[{"attributes":{"POSITION":28,"NORMAL":19,"TEXCOORD_0":30},"material":1,"mode":4,"indices":21}]},{"primitives":[{"attributes":{"POSITION":31,"NORMAL":32,"TEXCOORD_0":33},"material":2,"mode":4,"indices":34}]},{"primitives":[{"attributes":{"POSITION":28,"NORMAL":19,"TEXCOORD_0":35},"material":3,"mode":4,"indices":21}]},{"primitives":[{"attributes":{"POSITION":28,"NORMAL":19,"TEXCOORD_0":36},"material":4,"mode":4,"indices":21}]},{"primitives":[{"attributes":{"POSITION":28,"NORMAL":19,"TEXCOORD_0":37},"material":5,"mode":4,"indices":21}]},{"primitives":[{"attributes":{"POSITION":28,"NORMAL":19,"TEXCOORD_0":38},"material":6,"mode":4,"indices":21}]},{"primitives":[{"attributes":{"POSITION":28,"NORMAL":19,"TEXCOORD_0":39},"material":7,"mode":4,"indices":21}]},{"primitives":[{"attributes":{"POSITION":28,"NORMAL":19,"TEXCOORD_0":40},"material":7,"mode":4,"indices":21}]},{"primitives":[{"attributes":{"POSITION":41,"NORMAL":42,"TEXCOORD_0":43},"material":8,"mode":4,"indices":34}]},{"primitives":[{"attributes":{"POSITION":28,"NORMAL":19,"TEXCOORD_0":44},"material":10,"mode":4,"indices":21}]},{"primitives":[{"attributes":{"POSITION":28,"NORMAL":19,"TEXCOORD_0":45},"material":11,"mode":4,"indices":21}]}],"materials":[{"name":"concrete","pbrMetallicRoughness":{"baseColorTexture":{"index":0},"metallicRoughnessTexture":{"index":2},"roughnessFactor":1,"metallicFactor":1},"normalTexture":{"index":1,"scale":0.82},"occlusionTexture":{"index":2,"strength":0.35}},{"name":"asphalt","pbrMetallicRoughness":{"baseColorTexture":{"index":3},"metallicRoughnessTexture":{"index":5},"roughnessFactor":1,"metallicFactor":1},"normalTexture":{"index":4,"scale":0.62},"occlusionTexture":{"index":5,"strength":0.35}},{"name":"paint-yellow","pbrMetallicRoughness":{"baseColorFactor":[0.76052450467022,0.4793201830913402,0.07818742179702069,1],"roughnessFactor":0.66,"metallicFactor":0.03}},{"name":"metal-galvanized","pbrMetallicRoughness":{"baseColorTexture":{"index":6},"metallicRoughnessTexture":{"index":8},"roughnessFactor":1,"metallicFactor":1},"normalTexture":{"index":7,"scale":0.15},"occlusionTexture":{"index":8,"strength":0.35}},{"name":"brick-red","pbrMetallicRoughness":{"baseColorTexture":{"index":9},"metallicRoughnessTexture":{"index":11},"roughnessFactor":1,"metallicFactor":1},"normalTexture":{"index":10,"scale":1.15},"occlusionTexture":{"index":11,"strength":0.35}},{"name":"roof-metal","pbrMetallicRoughness":{"baseColorTexture":{"index":12},"metallicRoughnessTexture":{"index":14},"roughnessFactor":1,"metallicFactor":1},"normalTexture":{"index":13,"scale":0.68},"occlusionTexture":{"index":14,"strength":0.35}},{"name":"metal-dark","pbrMetallicRoughness":{"baseColorTexture":{"index":15},"metallicRoughnessTexture":{"index":17},"roughnessFactor":1,"metallicFactor":1},"normalTexture":{"index":16,"scale":0.35},"occlusionTexture":{"index":17,"strength":0.35}},{"name":"glass-blue","pbrMetallicRoughness":{"baseColorTexture":{"index":18},"metallicRoughnessTexture":{"index":20},"roughnessFactor":1,"metallicFactor":1},"normalTexture":{"index":19,"scale":0.12},"occlusionTexture":{"index":20,"strength":0.35}},{"name":"limestone","pbrMetallicRoughness":{"baseColorTexture":{"index":21},"metallicRoughnessTexture":{"index":23},"roughnessFactor":1,"metallicFactor":1},"normalTexture":{"index":22,"scale":0.9},"occlusionTexture":{"index":23,"strength":0.35}},{"name":"zoning-hearing-hall signage","pbrMetallicRoughness":{"baseColorTexture":{"index":24},"roughnessFactor":1,"metallicFactor":0},"extensions":{"KHR_materials_unlit":{}}},{"name":"wood-oak","pbrMetallicRoughness":{"baseColorTexture":{"index":25},"metallicRoughnessTexture":{"index":27},"roughnessFactor":1,"metallicFactor":1},"normalTexture":{"index":26,"scale":1},"occlusionTexture":{"index":27,"strength":0.35}},{"name":"wood-painted","pbrMetallicRoughness":{"baseColorTexture":{"index":28},"metallicRoughnessTexture":{"index":30},"roughnessFactor":1,"metallicFactor":1},"normalTexture":{"index":29,"scale":0.55},"occlusionTexture":{"index":30,"strength":0.35}}],"textures":[{"source":0,"sampler":0},{"source":1,"sampler":0},{"source":2,"sampler":0},{"source":3,"sampler":0},{"source":4,"sampler":0},{"source":5,"sampler":0},{"source":6,"sampler":0},{"source":7,"sampler":0},{"source":8,"sampler":0},{"source":9,"sampler":0},{"source":10,"sampler":0},{"source":11,"sampler":0},{"source":12,"sampler":0},{"source":13,"sampler":0},{"source":14,"sampler":0},{"source":15,"sampler":0},{"source":16,"sampler":0},{"source":17,"sampler":0},{"source":18,"sampler":0},{"source":19,"sampler":0},{"source":20,"sampler":0},{"source":21,"sampler":0},{"source":22,"sampler":0},{"source":23,"sampler":0},{"source":24,"sampler":0},{"source":25,"sampler":0},{"source":26,"sampler":0},{"source":27,"sampler":0},{"source":28,"sampler":0},{"source":29,"sampler":0},{"source":30,"sampler":0}],"images":[{"uri":"../textures/concrete-albedo.png"},{"uri":"../textures/concrete-normal.png"},{"uri":"../textures/concrete-orm.png"},{"uri":"../textures/asphalt-albedo.png"},{"uri":"../textures/asphalt-normal.png"},{"uri":"../textures/asphalt-orm.png"},{"uri":"../textures/metal-galvanized-albedo.png"},{"uri":"../textures/metal-galvanized-normal.png"},{"uri":"../textures/metal-galvanized-orm.png"},{"uri":"../textures/brick-red-albedo.png"},{"uri":"../textures/brick-red-normal.png"},{"uri":"../textures/brick-red-orm.png"},{"uri":"../textures/roof-metal-albedo.png"},{"uri":"../textures/roof-metal-normal.png"},{"uri":"../textures/roof-metal-orm.png"},{"uri":"../textures/metal-dark-albedo.png"},{"uri":"../textures/metal-dark-normal.png"},{"uri":"../textures/metal-dark-orm.png"},{"uri":"../textures/glass-blue-albedo.png"},{"uri":"../textures/glass-blue-normal.png"},{"uri":"../textures/glass-blue-orm.png"},{"uri":"../textures/limestone-albedo.png"},{"uri":"../textures/limestone-normal.png"},{"uri":"../textures/limestone-orm.png"},{"uri":"../signs/zoning-hearing-hall.png"},{"uri":"../textures/wood-oak-albedo.png"},{"uri":"../textures/wood-oak-normal.png"},{"uri":"../textures/wood-oak-orm.png"},{"uri":"../textures/wood-painted-albedo.png"},{"uri":"../textures/wood-painted-normal.png"},{"uri":"../textures/wood-painted-orm.png"}],"samplers":[{"magFilter":9729,"minFilter":9987,"wrapS":10497,"wrapT":10497}],"buffers":[{"uri":"../shared/geometry.bin","byteLength":16435520}],"bufferViews":[{"buffer":0,"byteOffset":0,"byteLength":3888,"target":34962},{"buffer":0,"byteOffset":3888,"byteLength":3888,"target":34962},{"buffer":0,"byteOffset":15337452,"byteLength":2592,"target":34962},{"buffer":0,"byteOffset":15340044,"byteLength":2592,"target":34962},{"buffer":0,"byteOffset":12960,"byteLength":1200,"target":34962},{"buffer":0,"byteOffset":14160,"byteLength":1200,"target":34962},{"buffer":0,"byteOffset":15360,"byteLength":800,"target":34962},{"buffer":0,"byteOffset":16160,"byteLength":384,"target":34963},{"buffer":0,"byteOffset":73284,"byteLength":2592,"target":34962},{"buffer":0,"byteOffset":19136,"byteLength":3888,"target":34962},{"buffer":0,"byteOffset":16418816,"byteLength":2592,"target":34962},{"buffer":0,"byteOffset":15345228,"byteLength":2592,"target":34962},{"buffer":0,"byteOffset":3936156,"byteLength":2592,"target":34962},{"buffer":0,"byteOffset":3899772,"byteLength":2592,"target":34962},{"buffer":0,"byteOffset":3902364,"byteLength":2592,"target":34962},{"buffer":0,"byteOffset":10268204,"byteLength":1200,"target":34962},{"buffer":0,"byteOffset":10269404,"byteLength":1200,"target":34962},{"buffer":0,"byteOffset":10270604,"byteLength":800,"target":34962},{"buffer":0,"byteOffset":45664,"byteLength":288,"target":34962},{"buffer":0,"byteOffset":45952,"byteLength":288,"target":34962},{"buffer":0,"byteOffset":46240,"byteLength":192,"target":34962},{"buffer":0,"byteOffset":46432,"byteLength":72,"target":34963},{"buffer":0,"byteOffset":46504,"byteLength":48,"target":34962},{"buffer":0,"byteOffset":46552,"byteLength":48,"target":34962},{"buffer":0,"byteOffset":83652,"byteLength":32,"target":34962},{"buffer":0,"byteOffset":46632,"byteLength":12,"target":34963},{"buffer":0,"byteOffset":16421408,"byteLength":2592,"target":34962},{"buffer":0,"byteOffset":16410080,"byteLength":2592,"target":34962},{"buffer":0,"byteOffset":46644,"byteLength":288,"target":34962},{"buffer":0,"byteOffset":15347820,"byteLength":192,"target":34962},{"buffer":0,"byteOffset":15348012,"byteLength":192,"target":34962},{"buffer":0,"byteOffset":47316,"byteLength":480,"target":34962},{"buffer":0,"byteOffset":47796,"byteLength":480,"target":34962},{"buffer":0,"byteOffset":48276,"byteLength":320,"target":34962},{"buffer":0,"byteOffset":48596,"byteLength":144,"target":34963},{"buffer":0,"byteOffset":84068,"byteLength":192,"target":34962},{"buffer":0,"byteOffset":16424000,"byteLength":192,"target":34962},{"buffer":0,"byteOffset":15348396,"byteLength":192,"target":34962},{"buffer":0,"byteOffset":3939516,"byteLength":192,"target":34962},{"buffer":0,"byteOffset":3911100,"byteLength":192,"target":34962},{"buffer":0,"byteOffset":3911292,"byteLength":192,"target":34962},{"buffer":0,"byteOffset":883256,"byteLength":480,"target":34962},{"buffer":0,"byteOffset":883736,"byteLength":480,"target":34962},{"buffer":0,"byteOffset":10277356,"byteLength":320,"target":34962},{"buffer":0,"byteOffset":16424192,"byteLength":192,"target":34962},{"buffer":0,"byteOffset":16413056,"byteLength":192,"target":34962}],"accessors":[{"bufferView":0,"componentType":5126,"count":324,"type":"VEC3","min":[-0.5,-0.5,-0.5],"max":[0.5,0.5,0.5]},{"bufferView":1,"componentType":5126,"count":324,"type":"VEC3"},{"bufferView":2,"componentType":5126,"count":324,"type":"VEC2"},{"bufferView":3,"componentType":5126,"count":324,"type":"VEC2"},{"bufferView":4,"componentType":5126,"count":100,"type":"VEC3","min":[-1,-0.5,-1],"max":[1,0.5,1]},{"bufferView":5,"componentType":5126,"count":100,"type":"VEC3"},{"bufferView":6,"componentType":5126,"count":100,"type":"VEC2"},{"bufferView":7,"componentType":5123,"count":192,"type":"SCALAR"},{"bufferView":8,"componentType":5126,"count":324,"type":"VEC2"},{"bufferView":9,"componentType":5126,"count":324,"type":"VEC3","min":[-0.5,-0.5,-0.5],"max":[0.5,0.5,0.5]},{"bufferView":10,"componentType":5126,"count":324,"type":"VEC2"},{"bufferView":11,"componentType":5126,"count":324,"type":"VEC2"},{"bufferView":12,"componentType":5126,"count":324,"type":"VEC2"},{"bufferView":13,"componentType":5126,"count":324,"type":"VEC2"},{"bufferView":14,"componentType":5126,"count":324,"type":"VEC2"},{"bufferView":15,"componentType":5126,"count":100,"type":"VEC3","min":[-1,-0.5,-1],"max":[1,0.5,1]},{"bufferView":16,"componentType":5126,"count":100,"type":"VEC3"},{"bufferView":17,"componentType":5126,"count":100,"type":"VEC2"},{"bufferView":18,"componentType":5126,"count":24,"type":"VEC3","min":[-0.5,-0.5,-0.02500000037252903],"max":[0.5,0.5,0.02500000037252903]},{"bufferView":19,"componentType":5126,"count":24,"type":"VEC3"},{"bufferView":20,"componentType":5126,"count":24,"type":"VEC2"},{"bufferView":21,"componentType":5123,"count":36,"type":"SCALAR"},{"bufferView":22,"componentType":5126,"count":4,"type":"VEC3","min":[-0.5,-0.5,0],"max":[0.5,0.5,0]},{"bufferView":23,"componentType":5126,"count":4,"type":"VEC3"},{"bufferView":24,"componentType":5126,"count":4,"type":"VEC2"},{"bufferView":25,"componentType":5123,"count":6,"type":"SCALAR"},{"bufferView":26,"componentType":5126,"count":324,"type":"VEC2"},{"bufferView":27,"componentType":5126,"count":324,"type":"VEC2"},{"bufferView":28,"componentType":5126,"count":24,"type":"VEC3","min":[-0.5,-0.5,-0.5],"max":[0.5,0.5,0.5]},{"bufferView":29,"componentType":5126,"count":24,"type":"VEC2"},{"bufferView":30,"componentType":5126,"count":24,"type":"VEC2"},{"bufferView":31,"componentType":5126,"count":40,"type":"VEC3","min":[-0.8660253882408142,-0.5,-1],"max":[0.8660253882408142,0.5,1]},{"bufferView":32,"componentType":5126,"count":40,"type":"VEC3"},{"bufferView":33,"componentType":5126,"count":40,"type":"VEC2"},{"bufferView":34,"componentType":5123,"count":72,"type":"SCALAR"},{"bufferView":35,"componentType":5126,"count":24,"type":"VEC2"},{"bufferView":36,"componentType":5126,"count":24,"type":"VEC2"},{"bufferView":37,"componentType":5126,"count":24,"type":"VEC2"},{"bufferView":38,"componentType":5126,"count":24,"type":"VEC2"},{"bufferView":39,"componentType":5126,"count":24,"type":"VEC2"},{"bufferView":40,"componentType":5126,"count":24,"type":"VEC2"},{"bufferView":41,"componentType":5126,"count":40,"type":"VEC3","min":[-0.8660253882408142,-0.5,-1],"max":[0.8660253882408142,0.5,1]},{"bufferView":42,"componentType":5126,"count":40,"type":"VEC3"},{"bufferView":43,"componentType":5126,"count":40,"type":"VEC2"},{"bufferView":44,"componentType":5126,"count":24,"type":"VEC2"},{"bufferView":45,"componentType":5126,"count":24,"type":"VEC2"}],"extensionsUsed":["KHR_materials_unlit"],"extras":{"id":"vlt-zoning-hearing-hall-03","family":"zoning-hearing-hall","variant":2,"plan":"A3-1","units":"metres","up":"+Y","front":"+Z","lodScenes":[0,1,2]}}