{"asset":{"version":"2.0","generator":"SLOPMERICA Department of Unnecessary Development 1.0"},"scene":0,"scenes":[{"name":"LOD 0","nodes":[0,1,2,3,4,5,6,7,8,9,10,11,12,13,14,15,16,17,18,19,20,21,22,23,24,25,26,27,28,29,30,31,32,33,34,35],"extras":{"level":0}},{"name":"LOD 1","nodes":[36,37,38,39,40,41,42,43,44,45,46,47,48,49,50,51,52,53,54,55,56,57,58,59,60,61,62,63,64,65,66,67,68,69,70,71],"extras":{"level":1}},{"name":"LOD 2","nodes":[72,73,74,75,76,77,78,79,80,81,82,83],"extras":{"level":2}}],"nodes":[{"name":"site-pad","mesh":0,"translation":[0,0.06,0],"scale":[16.224,0.12,11.232]},{"name":"variant-apron","mesh":1,"translation":[1.014,0.13,5.62],"scale":[4.992,0.08,1.16]},{"name":"bollard-0","mesh":2,"translation":[-5.928,0.43,5.74],"scale":[0.08,0.7,0.08]},{"name":"bollard-1","mesh":2,"translation":[-2.964,0.43,5.74],"scale":[0.08,0.7,0.08]},{"name":"bollard-2","mesh":2,"translation":[0,0.43,5.74],"scale":[0.08,0.7,0.08]},{"name":"bollard-3","mesh":2,"translation":[2.964,0.43,5.74],"scale":[0.08,0.7,0.08]},{"name":"bollard-4","mesh":2,"translation":[5.928,0.43,5.74],"scale":[0.08,0.7,0.08]},{"name":"layout-cabinet","mesh":3,"translation":[-8,0.615,0.81],"scale":[0.69,0.99,0.32]},{"name":"industrial-shell","mesh":4,"translation":[0,2.982,0],"scale":[15.6,5.724,10.8]},{"name":"industrial-roof","mesh":5,"translation":[0,5.994,0],"scale":[15.95,0.28,11.15]},{"name":"loading-bay-0","mesh":6,"translation":[-5.928,1.38,5.52],"scale":[2.2,2.5,0.16]},{"name":"dock-0","mesh":7,"translation":[-5.928,0.35,5.98],"scale":[1.8,0.45,1]},{"name":"loading-bay-1","mesh":6,"translation":[-3.5568,1.38,5.52],"scale":[2.2,2.5,0.16]},{"name":"dock-1","mesh":7,"translation":[-3.5568,0.35,5.98],"scale":[1.8,0.45,1]},{"name":"loading-bay-2","mesh":6,"translation":[-1.1856,1.38,5.52],"scale":[2.2,2.5,0.16]},{"name":"dock-2","mesh":7,"translation":[-1.1856,0.35,5.98],"scale":[1.8,0.45,1]},{"name":"loading-bay-3","mesh":6,"translation":[1.1856,1.38,5.52],"scale":[2.2,2.5,0.16]},{"name":"dock-3","mesh":7,"translation":[1.1856,0.35,5.98],"scale":[1.8,0.45,1]},{"name":"loading-bay-4","mesh":6,"translation":[3.5568,1.38,5.52],"scale":[2.2,2.5,0.16]},{"name":"dock-4","mesh":7,"translation":[3.5568,0.35,5.98],"scale":[1.8,0.45,1]},{"name":"loading-bay-5","mesh":6,"translation":[5.928,1.38,5.52],"scale":[2.2,2.5,0.16]},{"name":"dock-5","mesh":7,"translation":[5.928,0.35,5.98],"scale":[1.8,0.45,1]},{"name":"turbine-0","mesh":8,"translation":[-5.46,1.9,-6.4],"rotation":[0.707107,0,0,0.707107],"scale":[0.78,3.8,0.78]},{"name":"exhaust-0","mesh":9,"translation":[-5.46,7.924,-1.62],"scale":[0.34,5.5,0.34]},{"name":"turbine-1","mesh":8,"translation":[-3.276,1.9,-6.4],"rotation":[0.707107,0,0,0.707107],"scale":[0.78,3.8,0.78]},{"name":"exhaust-1","mesh":9,"translation":[-3.276,7.924,-1.62],"scale":[0.34,5.5,0.34]},{"name":"turbine-2","mesh":8,"translation":[-1.092,1.9,-6.4],"rotation":[0.707107,0,0,0.707107],"scale":[0.78,3.8,0.78]},{"name":"exhaust-2","mesh":9,"translation":[-1.092,7.924,-1.62],"scale":[0.34,5.5,0.34]},{"name":"turbine-3","mesh":8,"translation":[1.092,1.9,-6.4],"rotation":[0.707107,0,0,0.707107],"scale":[0.78,3.8,0.78]},{"name":"exhaust-3","mesh":9,"translation":[1.092,7.924,-1.62],"scale":[0.34,5.5,0.34]},{"name":"turbine-4","mesh":8,"translation":[3.276,1.9,-6.4],"rotation":[0.707107,0,0,0.707107],"scale":[0.78,3.8,0.78]},{"name":"exhaust-4","mesh":9,"translation":[3.276,7.924,-1.62],"scale":[0.34,5.5,0.34]},{"name":"turbine-5","mesh":8,"translation":[5.46,1.9,-6.4],"rotation":[0.707107,0,0,0.707107],"scale":[0.78,3.8,0.78]},{"name":"exhaust-5","mesh":9,"translation":[5.46,7.924,-1.62],"scale":[0.34,5.5,0.34]},{"name":"peaker-sign-back","mesh":10,"translation":[0,4.924,5.58],"scale":[4.3,1,1]},{"name":"peaker-sign","mesh":11,"translation":[0,4.924,5.609],"scale":[4.2,0.9,1]},{"name":"site-pad","mesh":12,"translation":[0,0.06,0],"scale":[16.224,0.12,11.232]},{"name":"variant-apron","mesh":13,"translation":[1.014,0.13,5.62],"scale":[4.992,0.08,1.16]},{"name":"bollard-0","mesh":14,"translation":[-5.928,0.43,5.74],"scale":[0.08,0.7,0.08]},{"name":"bollard-1","mesh":14,"translation":[-2.964,0.43,5.74],"scale":[0.08,0.7,0.08]},{"name":"bollard-2","mesh":14,"translation":[0,0.43,5.74],"scale":[0.08,0.7,0.08]},{"name":"bollard-3","mesh":14,"translation":[2.964,0.43,5.74],"scale":[0.08,0.7,0.08]},{"name":"bollard-4","mesh":14,"translation":[5.928,0.43,5.74],"scale":[0.08,0.7,0.08]},{"name":"layout-cabinet","mesh":15,"translation":[-8,0.615,0.81],"scale":[0.69,0.99,0.32]},{"name":"industrial-shell","mesh":16,"translation":[0,2.982,0],"scale":[15.6,5.724,10.8]},{"name":"industrial-roof","mesh":17,"translation":[0,5.994,0],"scale":[15.95,0.28,11.15]},{"name":"loading-bay-0","mesh":18,"translation":[-5.928,1.38,5.52],"scale":[2.2,2.5,0.16]},{"name":"dock-0","mesh":19,"translation":[-5.928,0.35,5.98],"scale":[1.8,0.45,1]},{"name":"loading-bay-1","mesh":18,"translation":[-3.5568,1.38,5.52],"scale":[2.2,2.5,0.16]},{"name":"dock-1","mesh":19,"translation":[-3.5568,0.35,5.98],"scale":[1.8,0.45,1]},{"name":"loading-bay-2","mesh":18,"translation":[-1.1856,1.38,5.52],"scale":[2.2,2.5,0.16]},{"name":"dock-2","mesh":19,"translation":[-1.1856,0.35,5.98],"scale":[1.8,0.45,1]},{"name":"loading-bay-3","mesh":18,"translation":[1.1856,1.38,5.52],"scale":[2.2,2.5,0.16]},{"name":"dock-3","mesh":19,"translation":[1.1856,0.35,5.98],"scale":[1.8,0.45,1]},{"name":"loading-bay-4","mesh":18,"translation":[3.5568,1.38,5.52],"scale":[2.2,2.5,0.16]},{"name":"dock-4","mesh":19,"translation":[3.5568,0.35,5.98],"scale":[1.8,0.45,1]},{"name":"loading-bay-5","mesh":18,"translation":[5.928,1.38,5.52],"scale":[2.2,2.5,0.16]},{"name":"dock-5","mesh":19,"translation":[5.928,0.35,5.98],"scale":[1.8,0.45,1]},{"name":"turbine-0","mesh":20,"translation":[-5.46,1.9,-6.4],"rotation":[0.707107,0,0,0.707107],"scale":[0.78,3.8,0.78]},{"name":"exhaust-0","mesh":21,"translation":[-5.46,7.924,-1.62],"scale":[0.34,5.5,0.34]},{"name":"turbine-1","mesh":20,"translation":[-3.276,1.9,-6.4],"rotation":[0.707107,0,0,0.707107],"scale":[0.78,3.8,0.78]},{"name":"exhaust-1","mesh":21,"translation":[-3.276,7.924,-1.62],"scale":[0.34,5.5,0.34]},{"name":"turbine-2","mesh":20,"translation":[-1.092,1.9,-6.4],"rotation":[0.707107,0,0,0.707107],"scale":[0.78,3.8,0.78]},{"name":"exhaust-2","mesh":21,"translation":[-1.092,7.924,-1.62],"scale":[0.34,5.5,0.34]},{"name":"turbine-3","mesh":20,"translation":[1.092,1.9,-6.4],"rotation":[0.707107,0,0,0.707107],"scale":[0.78,3.8,0.78]},{"name":"exhaust-3","mesh":21,"translation":[1.092,7.924,-1.62],"scale":[0.34,5.5,0.34]},{"name":"turbine-4","mesh":20,"translation":[3.276,1.9,-6.4],"rotation":[0.707107,0,0,0.707107],"scale":[0.78,3.8,0.78]},{"name":"exhaust-4","mesh":21,"translation":[3.276,7.924,-1.62],"scale":[0.34,5.5,0.34]},{"name":"turbine-5","mesh":20,"translation":[5.46,1.9,-6.4],"rotation":[0.707107,0,0,0.707107],"scale":[0.78,3.8,0.78]},{"name":"exhaust-5","mesh":21,"translation":[5.46,7.924,-1.62],"scale":[0.34,5.5,0.34]},{"name":"peaker-sign-back","mesh":10,"translation":[0,4.924,5.58],"scale":[4.3,1,1]},{"name":"peaker-sign","mesh":11,"translation":[0,4.924,5.609],"scale":[4.2,0.9,1]},{"name":"site-pad","mesh":12,"translation":[0,0.06,0],"scale":[16.224,0.12,11.232]},{"name":"variant-apron","mesh":13,"translation":[1.014,0.13,5.62],"scale":[4.992,0.08,1.16]},{"name":"bollard-0","mesh":14,"translation":[-5.928,0.43,5.74],"scale":[0.08,0.7,0.08]},{"name":"layout-cabinet","mesh":15,"translation":[-8,0.615,0.81],"scale":[0.69,0.99,0.32]},{"name":"industrial-shell","mesh":16,"translation":[0,2.982,0],"scale":[15.6,5.724,10.8]},{"name":"industrial-roof","mesh":17,"translation":[0,5.994,0],"scale":[15.95,0.28,11.15]},{"name":"loading-bay-0","mesh":18,"translation":[-5.928,1.38,5.52],"scale":[2.2,2.5,0.16]},{"name":"loading-bay-1","mesh":18,"translation":[5.928,1.38,5.52],"scale":[2.2,2.5,0.16]},{"name":"turbine-0","mesh":20,"translation":[-5.46,1.9,-6.4],"rotation":[0.707107,0,0,0.707107],"scale":[0.78,3.8,0.78]},{"name":"exhaust-0","mesh":21,"translation":[-5.46,7.924,-1.62],"scale":[0.34,5.5,0.34]},{"name":"peaker-sign-back","mesh":10,"translation":[0,4.924,5.58],"scale":[4.3,1,1]},{"name":"peaker-sign","mesh":11,"translation":[0,4.924,5.609],"scale":[4.2,0.9,1]}],"meshes":[{"primitives":[{"attributes":{"POSITION":0,"NORMAL":1,"TEXCOORD_0":2},"material":0,"mode":4}]},{"primitives":[{"attributes":{"POSITION":0,"NORMAL":1,"TEXCOORD_0":3},"material":0,"mode":4}]},{"primitives":[{"attributes":{"POSITION":4,"NORMAL":5,"TEXCOORD_0":6},"material":1,"mode":4,"indices":7}]},{"primitives":[{"attributes":{"POSITION":0,"NORMAL":1,"TEXCOORD_0":8},"material":2,"mode":4}]},{"primitives":[{"attributes":{"POSITION":9,"NORMAL":1,"TEXCOORD_0":10},"material":3,"mode":4}]},{"primitives":[{"attributes":{"POSITION":0,"NORMAL":1,"TEXCOORD_0":11},"material":4,"mode":4}]},{"primitives":[{"attributes":{"POSITION":0,"NORMAL":1,"TEXCOORD_0":12},"material":3,"mode":4}]},{"primitives":[{"attributes":{"POSITION":0,"NORMAL":1,"TEXCOORD_0":13},"material":5,"mode":4}]},{"primitives":[{"attributes":{"POSITION":14,"NORMAL":15,"TEXCOORD_0":16},"material":6,"mode":4,"indices":7}]},{"primitives":[{"attributes":{"POSITION":17,"NORMAL":18,"TEXCOORD_0":19},"material":2,"mode":4,"indices":7}]},{"primitives":[{"attributes":{"POSITION":20,"NORMAL":21,"TEXCOORD_0":22},"material":3,"mode":4,"indices":23}]},{"primitives":[{"attributes":{"POSITION":24,"NORMAL":25,"TEXCOORD_0":26},"material":7,"mode":4,"indices":27}]},{"primitives":[{"attributes":{"POSITION":28,"NORMAL":21,"TEXCOORD_0":29},"material":0,"mode":4,"indices":23}]},{"primitives":[{"attributes":{"POSITION":28,"NORMAL":21,"TEXCOORD_0":30},"material":0,"mode":4,"indices":23}]},{"primitives":[{"attributes":{"POSITION":31,"NORMAL":32,"TEXCOORD_0":33},"material":1,"mode":4,"indices":34}]},{"primitives":[{"attributes":{"POSITION":28,"NORMAL":21,"TEXCOORD_0":35},"material":2,"mode":4,"indices":23}]},{"primitives":[{"attributes":{"POSITION":28,"NORMAL":21,"TEXCOORD_0":36},"material":3,"mode":4,"indices":23}]},{"primitives":[{"attributes":{"POSITION":28,"NORMAL":21,"TEXCOORD_0":37},"material":4,"mode":4,"indices":23}]},{"primitives":[{"attributes":{"POSITION":28,"NORMAL":21,"TEXCOORD_0":38},"material":3,"mode":4,"indices":23}]},{"primitives":[{"attributes":{"POSITION":28,"NORMAL":21,"TEXCOORD_0":39},"material":5,"mode":4,"indices":23}]},{"primitives":[{"attributes":{"POSITION":40,"NORMAL":41,"TEXCOORD_0":42},"material":6,"mode":4,"indices":34}]},{"primitives":[{"attributes":{"POSITION":43,"NORMAL":44,"TEXCOORD_0":45},"material":2,"mode":4,"indices":34}]}],"materials":[{"name":"asphalt","pbrMetallicRoughness":{"baseColorTexture":{"index":0},"metallicRoughnessTexture":{"index":2},"roughnessFactor":1,"metallicFactor":1},"normalTexture":{"index":1,"scale":0.62},"occlusionTexture":{"index":2,"strength":0.35}},{"name":"paint-yellow","pbrMetallicRoughness":{"baseColorFactor":[0.76052450467022,0.4793201830913402,0.07818742179702069,1],"roughnessFactor":0.66,"metallicFactor":0.03}},{"name":"metal-galvanized","pbrMetallicRoughness":{"baseColorTexture":{"index":3},"metallicRoughnessTexture":{"index":5},"roughnessFactor":1,"metallicFactor":1},"normalTexture":{"index":4,"scale":0.15},"occlusionTexture":{"index":5,"strength":0.35}},{"name":"metal-dark","pbrMetallicRoughness":{"baseColorTexture":{"index":6},"metallicRoughnessTexture":{"index":8},"roughnessFactor":1,"metallicFactor":1},"normalTexture":{"index":7,"scale":0.35},"occlusionTexture":{"index":8,"strength":0.35}},{"name":"roof-metal","pbrMetallicRoughness":{"baseColorTexture":{"index":9},"metallicRoughnessTexture":{"index":11},"roughnessFactor":1,"metallicFactor":1},"normalTexture":{"index":10,"scale":0.68},"occlusionTexture":{"index":11,"strength":0.35}},{"name":"concrete","pbrMetallicRoughness":{"baseColorTexture":{"index":12},"metallicRoughnessTexture":{"index":14},"roughnessFactor":1,"metallicFactor":1},"normalTexture":{"index":13,"scale":0.82},"occlusionTexture":{"index":14,"strength":0.35}},{"name":"paint-blue","pbrMetallicRoughness":{"baseColorFactor":[0.05126945836711539,0.10946171076915331,0.22696587349938613,1],"roughnessFactor":0.58,"metallicFactor":0.05}},{"name":"gas-peaker-plant signage","pbrMetallicRoughness":{"baseColorTexture":{"index":15},"roughnessFactor":1,"metallicFactor":0},"extensions":{"KHR_materials_unlit":{}}}],"textures":[{"source":0,"sampler":0},{"source":1,"sampler":0},{"source":2,"sampler":0},{"source":3,"sampler":0},{"source":4,"sampler":0},{"source":5,"sampler":0},{"source":6,"sampler":0},{"source":7,"sampler":0},{"source":8,"sampler":0},{"source":9,"sampler":0},{"source":10,"sampler":0},{"source":11,"sampler":0},{"source":12,"sampler":0},{"source":13,"sampler":0},{"source":14,"sampler":0},{"source":15,"sampler":0}],"images":[{"uri":"../textures/asphalt-albedo.png"},{"uri":"../textures/asphalt-normal.png"},{"uri":"../textures/asphalt-orm.png"},{"uri":"../textures/metal-galvanized-albedo.png"},{"uri":"../textures/metal-galvanized-normal.png"},{"uri":"../textures/metal-galvanized-orm.png"},{"uri":"../textures/metal-dark-albedo.png"},{"uri":"../textures/metal-dark-normal.png"},{"uri":"../textures/metal-dark-orm.png"},{"uri":"../textures/roof-metal-albedo.png"},{"uri":"../textures/roof-metal-normal.png"},{"uri":"../textures/roof-metal-orm.png"},{"uri":"../textures/concrete-albedo.png"},{"uri":"../textures/concrete-normal.png"},{"uri":"../textures/concrete-orm.png"},{"uri":"../signs/gas-peaker-plant.png"}],"samplers":[{"magFilter":9729,"minFilter":9987,"wrapS":10497,"wrapT":10497}],"buffers":[{"uri":"../shared/geometry.bin","byteLength":16435520}],"bufferViews":[{"buffer":0,"byteOffset":0,"byteLength":3888,"target":34962},{"buffer":0,"byteOffset":3888,"byteLength":3888,"target":34962},{"buffer":0,"byteOffset":6010880,"byteLength":2592,"target":34962},{"buffer":0,"byteOffset":6051552,"byteLength":2592,"target":34962},{"buffer":0,"byteOffset":12960,"byteLength":1200,"target":34962},{"buffer":0,"byteOffset":14160,"byteLength":1200,"target":34962},{"buffer":0,"byteOffset":150020,"byteLength":800,"target":34962},{"buffer":0,"byteOffset":16160,"byteLength":384,"target":34963},{"buffer":0,"byteOffset":173540,"byteLength":2592,"target":34962},{"buffer":0,"byteOffset":19136,"byteLength":3888,"target":34962},{"buffer":0,"byteOffset":6016064,"byteLength":2592,"target":34962},{"buffer":0,"byteOffset":6018656,"byteLength":2592,"target":34962},{"buffer":0,"byteOffset":28208,"byteLength":2592,"target":34962},{"buffer":0,"byteOffset":30800,"byteLength":2592,"target":34962},{"buffer":0,"byteOffset":42464,"byteLength":1200,"target":34962},{"buffer":0,"byteOffset":43664,"byteLength":1200,"target":34962},{"buffer":0,"byteOffset":6040768,"byteLength":800,"target":34962},{"buffer":0,"byteOffset":5971904,"byteLength":1200,"target":34962},{"buffer":0,"byteOffset":5973104,"byteLength":1200,"target":34962},{"buffer":0,"byteOffset":6041568,"byteLength":800,"target":34962},{"buffer":0,"byteOffset":45664,"byteLength":288,"target":34962},{"buffer":0,"byteOffset":45952,"byteLength":288,"target":34962},{"buffer":0,"byteOffset":46240,"byteLength":192,"target":34962},{"buffer":0,"byteOffset":46432,"byteLength":72,"target":34963},{"buffer":0,"byteOffset":46504,"byteLength":48,"target":34962},{"buffer":0,"byteOffset":46552,"byteLength":48,"target":34962},{"buffer":0,"byteOffset":176132,"byteLength":32,"target":34962},{"buffer":0,"byteOffset":46632,"byteLength":12,"target":34963},{"buffer":0,"byteOffset":46644,"byteLength":288,"target":34962},{"buffer":0,"byteOffset":6021248,"byteLength":192,"target":34962},{"buffer":0,"byteOffset":6054144,"byteLength":192,"target":34962},{"buffer":0,"byteOffset":47316,"byteLength":480,"target":34962},{"buffer":0,"byteOffset":47796,"byteLength":480,"target":34962},{"buffer":0,"byteOffset":153636,"byteLength":320,"target":34962},{"buffer":0,"byteOffset":48596,"byteLength":144,"target":34963},{"buffer":0,"byteOffset":176356,"byteLength":192,"target":34962},{"buffer":0,"byteOffset":6021632,"byteLength":192,"target":34962},{"buffer":0,"byteOffset":6021824,"byteLength":192,"target":34962},{"buffer":0,"byteOffset":49316,"byteLength":192,"target":34962},{"buffer":0,"byteOffset":49508,"byteLength":192,"target":34962},{"buffer":0,"byteOffset":50084,"byteLength":480,"target":34962},{"buffer":0,"byteOffset":50564,"byteLength":480,"target":34962},{"buffer":0,"byteOffset":6042560,"byteLength":320,"target":34962},{"buffer":0,"byteOffset":5976192,"byteLength":480,"target":34962},{"buffer":0,"byteOffset":5976672,"byteLength":480,"target":34962},{"buffer":0,"byteOffset":6042880,"byteLength":320,"target":34962}],"accessors":[{"bufferView":0,"componentType":5126,"count":324,"type":"VEC3","min":[-0.5,-0.5,-0.5],"max":[0.5,0.5,0.5]},{"bufferView":1,"componentType":5126,"count":324,"type":"VEC3"},{"bufferView":2,"componentType":5126,"count":324,"type":"VEC2"},{"bufferView":3,"componentType":5126,"count":324,"type":"VEC2"},{"bufferView":4,"componentType":5126,"count":100,"type":"VEC3","min":[-1,-0.5,-1],"max":[1,0.5,1]},{"bufferView":5,"componentType":5126,"count":100,"type":"VEC3"},{"bufferView":6,"componentType":5126,"count":100,"type":"VEC2"},{"bufferView":7,"componentType":5123,"count":192,"type":"SCALAR"},{"bufferView":8,"componentType":5126,"count":324,"type":"VEC2"},{"bufferView":9,"componentType":5126,"count":324,"type":"VEC3","min":[-0.5,-0.5,-0.5],"max":[0.5,0.5,0.5]},{"bufferView":10,"componentType":5126,"count":324,"type":"VEC2"},{"bufferView":11,"componentType":5126,"count":324,"type":"VEC2"},{"bufferView":12,"componentType":5126,"count":324,"type":"VEC2"},{"bufferView":13,"componentType":5126,"count":324,"type":"VEC2"},{"bufferView":14,"componentType":5126,"count":100,"type":"VEC3","min":[-1,-0.5,-1],"max":[1,0.5,1]},{"bufferView":15,"componentType":5126,"count":100,"type":"VEC3"},{"bufferView":16,"componentType":5126,"count":100,"type":"VEC2"},{"bufferView":17,"componentType":5126,"count":100,"type":"VEC3","min":[-1,-0.5,-1],"max":[1,0.5,1]},{"bufferView":18,"componentType":5126,"count":100,"type":"VEC3"},{"bufferView":19,"componentType":5126,"count":100,"type":"VEC2"},{"bufferView":20,"componentType":5126,"count":24,"type":"VEC3","min":[-0.5,-0.5,-0.02500000037252903],"max":[0.5,0.5,0.02500000037252903]},{"bufferView":21,"componentType":5126,"count":24,"type":"VEC3"},{"bufferView":22,"componentType":5126,"count":24,"type":"VEC2"},{"bufferView":23,"componentType":5123,"count":36,"type":"SCALAR"},{"bufferView":24,"componentType":5126,"count":4,"type":"VEC3","min":[-0.5,-0.5,0],"max":[0.5,0.5,0]},{"bufferView":25,"componentType":5126,"count":4,"type":"VEC3"},{"bufferView":26,"componentType":5126,"count":4,"type":"VEC2"},{"bufferView":27,"componentType":5123,"count":6,"type":"SCALAR"},{"bufferView":28,"componentType":5126,"count":24,"type":"VEC3","min":[-0.5,-0.5,-0.5],"max":[0.5,0.5,0.5]},{"bufferView":29,"componentType":5126,"count":24,"type":"VEC2"},{"bufferView":30,"componentType":5126,"count":24,"type":"VEC2"},{"bufferView":31,"componentType":5126,"count":40,"type":"VEC3","min":[-0.8660253882408142,-0.5,-1],"max":[0.8660253882408142,0.5,1]},{"bufferView":32,"componentType":5126,"count":40,"type":"VEC3"},{"bufferView":33,"componentType":5126,"count":40,"type":"VEC2"},{"bufferView":34,"componentType":5123,"count":72,"type":"SCALAR"},{"bufferView":35,"componentType":5126,"count":24,"type":"VEC2"},{"bufferView":36,"componentType":5126,"count":24,"type":"VEC2"},{"bufferView":37,"componentType":5126,"count":24,"type":"VEC2"},{"bufferView":38,"componentType":5126,"count":24,"type":"VEC2"},{"bufferView":39,"componentType":5126,"count":24,"type":"VEC2"},{"bufferView":40,"componentType":5126,"count":40,"type":"VEC3","min":[-0.8660253882408142,-0.5,-1],"max":[0.8660253882408142,0.5,1]},{"bufferView":41,"componentType":5126,"count":40,"type":"VEC3"},{"bufferView":42,"componentType":5126,"count":40,"type":"VEC2"},{"bufferView":43,"componentType":5126,"count":40,"type":"VEC3","min":[-0.8660253882408142,-0.5,-1],"max":[0.8660253882408142,0.5,1]},{"bufferView":44,"componentType":5126,"count":40,"type":"VEC3"},{"bufferView":45,"componentType":5126,"count":40,"type":"VEC2"}],"extensionsUsed":["KHR_materials_unlit"],"extras":{"id":"vlt-gas-peaker-plant-15","family":"gas-peaker-plant","variant":14,"plan":"C5-1","units":"metres","up":"+Y","front":"+Z","lodScenes":[0,1,2]}}