{"asset":{"version":"2.0","generator":"SLOPMERICA Department of Unnecessary Development 1.0"},"scene":0,"scenes":[{"name":"LOD 0","nodes":[0,1,2,3,4,5,6,7,8,9,10,11,12,13,14,15,16,17,18,19],"extras":{"level":0}},{"name":"LOD 1","nodes":[20,21,22,23,24,25,26,27,28,29,30,31,32,33,34,35,36,37,38],"extras":{"level":1}},{"name":"LOD 2","nodes":[39,40,41,42,43,44,45,46,47,48],"extras":{"level":2}}],"nodes":[{"name":"foundation","mesh":0,"translation":[0,0.08,0],"scale":[19.48,0.16,15.915]},{"name":"store-shell","mesh":1,"translation":[0,2.0265,0],"scale":[11.7504,4.053,9.6005]},{"name":"roof-cap","mesh":2,"translation":[0,4.163,0],"scale":[12.0004,0.22,9.8505]},{"name":"window-0","mesh":3,"translation":[-4.347648,1.65,4.85525],"scale":[1.895226,1.45,0.09]},{"name":"window-1","mesh":3,"translation":[-1.449216,1.65,4.85525],"scale":[1.895226,1.45,0.09]},{"name":"window-2","mesh":3,"translation":[1.449216,1.65,4.85525],"scale":[1.895226,1.45,0.09]},{"name":"window-3","mesh":3,"translation":[4.347648,1.65,4.85525],"scale":[1.895226,1.45,0.09]},{"name":"door","mesh":4,"translation":[4.11264,1.025,4.87025],"scale":[0.92,2.05,0.12]},{"name":"awning","mesh":5,"translation":[0,2.67498,5.28025],"rotation":[-0.039989,0,0,0.9992],"scale":[9.635328,0.18,1.05]},{"name":"mullion-0","mesh":6,"translation":[-3.760128,1.65,4.92025],"scale":[0.08,1.55,0.12]},{"name":"mullion-1","mesh":6,"translation":[0,1.65,4.92025],"scale":[0.08,1.55,0.12]},{"name":"mullion-2","mesh":6,"translation":[3.760128,1.65,4.92025],"scale":[0.08,1.55,0.12]},{"name":"primary-sign-back","mesh":7,"translation":[0,3.20187,4.96025],"scale":[7.385248,1.25,1]},{"name":"primary-sign","mesh":8,"translation":[0,3.20187,4.98925],"scale":[7.285248,1.15,1]},{"name":"retail-silo","mesh":9,"translation":[6.3936,3.9372,-2.4687],"scale":[3.2916,7.8165,3.2916]},{"name":"silo-cap","mesh":10,"translation":[6.3936,8.8587,-2.4687],"scale":[3.5659,5.2117,3.5659]},{"name":"tractor-body","mesh":11,"translation":[-3.8016,0.7,8.229],"scale":[2,0.7,1]},{"name":"tractor-wheel-big","mesh":12,"translation":[-4.4216,0.76,8.729],"rotation":[0,0.707107,0,0.707107]},{"name":"tractor-wheel-small","mesh":13,"translation":[-3.1016,0.52,8.729],"rotation":[0,0.707107,0,0.707107]},{"name":"open-state-bollard","mesh":14,"translation":[7.4304,0.425,7.6804],"scale":[0.22,0.85,0.22]},{"name":"foundation","mesh":15,"translation":[0,0.08,0],"scale":[19.48,0.16,15.915]},{"name":"store-shell","mesh":16,"translation":[0,2.0265,0],"scale":[11.7504,4.053,9.6005]},{"name":"roof-cap","mesh":17,"translation":[0,4.163,0],"scale":[12.0004,0.22,9.8505]},{"name":"window-0","mesh":18,"translation":[-4.347648,1.65,4.85525],"scale":[2.526968,1.45,0.09]},{"name":"window-1","mesh":18,"translation":[0,1.65,4.85525],"scale":[2.526968,1.45,0.09]},{"name":"window-2","mesh":18,"translation":[4.347648,1.65,4.85525],"scale":[2.526968,1.45,0.09]},{"name":"door","mesh":19,"translation":[4.11264,1.025,4.87025],"scale":[0.92,2.05,0.12]},{"name":"awning","mesh":20,"translation":[0,2.67498,5.28025],"rotation":[-0.039989,0,0,0.9992],"scale":[9.635328,0.18,1.05]},{"name":"mullion-0","mesh":21,"translation":[-3.760128,1.65,4.92025],"scale":[0.08,1.55,0.12]},{"name":"mullion-1","mesh":21,"translation":[0,1.65,4.92025],"scale":[0.08,1.55,0.12]},{"name":"mullion-2","mesh":21,"translation":[3.760128,1.65,4.92025],"scale":[0.08,1.55,0.12]},{"name":"primary-sign-back","mesh":7,"translation":[0,3.20187,4.96025],"scale":[7.385248,1.25,1]},{"name":"primary-sign","mesh":8,"translation":[0,3.20187,4.98925],"scale":[7.285248,1.15,1]},{"name":"retail-silo","mesh":22,"translation":[6.3936,3.9372,-2.4687],"scale":[3.2916,7.8165,3.2916]},{"name":"silo-cap","mesh":23,"translation":[6.3936,8.8587,-2.4687],"scale":[3.5659,5.2117,3.5659]},{"name":"tractor-body","mesh":24,"translation":[-3.8016,0.7,8.229],"scale":[2,0.7,1]},{"name":"tractor-wheel-big","mesh":25,"translation":[-4.4216,0.76,8.729],"rotation":[0,0.707107,0,0.707107]},{"name":"tractor-wheel-small","mesh":26,"translation":[-3.1016,0.52,8.729],"rotation":[0,0.707107,0,0.707107]},{"name":"open-state-bollard","mesh":27,"translation":[7.4304,0.425,7.6804],"scale":[0.22,0.85,0.22]},{"name":"foundation","mesh":15,"translation":[0,0.08,0],"scale":[19.48,0.16,15.915]},{"name":"store-shell","mesh":16,"translation":[0,2.0265,0],"scale":[11.7504,4.053,9.6005]},{"name":"roof-cap","mesh":17,"translation":[0,4.163,0],"scale":[12.0004,0.22,9.8505]},{"name":"window-0","mesh":28,"translation":[0,1.65,4.85525],"scale":[7.580903,1.45,0.09]},{"name":"door","mesh":19,"translation":[4.11264,1.025,4.87025],"scale":[0.92,2.05,0.12]},{"name":"primary-sign-back","mesh":7,"translation":[0,3.20187,4.96025],"scale":[7.385248,1.25,1]},{"name":"primary-sign","mesh":8,"translation":[0,3.20187,4.98925],"scale":[7.285248,1.15,1]},{"name":"retail-silo","mesh":29,"translation":[6.3936,3.9372,-2.4687],"scale":[3.2916,7.8165,3.2916]},{"name":"silo-cap","mesh":23,"translation":[6.3936,8.8587,-2.4687],"scale":[3.5659,5.2117,3.5659]},{"name":"open-state-bollard","mesh":27,"translation":[7.4304,0.425,7.6804],"scale":[0.22,0.85,0.22]}],"meshes":[{"primitives":[{"attributes":{"POSITION":0,"NORMAL":1,"TEXCOORD_0":2},"material":0,"mode":4}]},{"primitives":[{"attributes":{"POSITION":3,"NORMAL":1,"TEXCOORD_0":4},"material":1,"mode":4}]},{"primitives":[{"attributes":{"POSITION":0,"NORMAL":1,"TEXCOORD_0":5},"material":2,"mode":4}]},{"primitives":[{"attributes":{"POSITION":0,"NORMAL":1,"TEXCOORD_0":6},"material":3,"mode":4}]},{"primitives":[{"attributes":{"POSITION":0,"NORMAL":1,"TEXCOORD_0":7},"material":4,"mode":4}]},{"primitives":[{"attributes":{"POSITION":0,"NORMAL":1,"TEXCOORD_0":8},"material":5,"mode":4}]},{"primitives":[{"attributes":{"POSITION":0,"NORMAL":1,"TEXCOORD_0":9},"material":5,"mode":4}]},{"primitives":[{"attributes":{"POSITION":10,"NORMAL":11,"TEXCOORD_0":12},"material":4,"mode":4,"indices":13}]},{"primitives":[{"attributes":{"POSITION":14,"NORMAL":15,"TEXCOORD_0":16},"material":6,"mode":4,"indices":17}]},{"primitives":[{"attributes":{"POSITION":18,"NORMAL":19,"TEXCOORD_0":20},"material":7,"mode":4,"indices":21}]},{"primitives":[{"attributes":{"POSITION":22,"NORMAL":23,"TEXCOORD_0":24},"material":2,"mode":4,"indices":25}]},{"primitives":[{"attributes":{"POSITION":0,"NORMAL":1,"TEXCOORD_0":26},"material":5,"mode":4}]},{"primitives":[{"attributes":{"POSITION":27,"NORMAL":28,"TEXCOORD_0":29},"material":8,"mode":4,"indices":30}]},{"primitives":[{"attributes":{"POSITION":31,"NORMAL":28,"TEXCOORD_0":29},"material":8,"mode":4,"indices":30}]},{"primitives":[{"attributes":{"POSITION":0,"NORMAL":1,"TEXCOORD_0":32},"material":5,"mode":4}]},{"primitives":[{"attributes":{"POSITION":33,"NORMAL":11,"TEXCOORD_0":34},"material":0,"mode":4,"indices":13}]},{"primitives":[{"attributes":{"POSITION":33,"NORMAL":11,"TEXCOORD_0":35},"material":1,"mode":4,"indices":13}]},{"primitives":[{"attributes":{"POSITION":33,"NORMAL":11,"TEXCOORD_0":36},"material":2,"mode":4,"indices":13}]},{"primitives":[{"attributes":{"POSITION":33,"NORMAL":11,"TEXCOORD_0":37},"material":3,"mode":4,"indices":13}]},{"primitives":[{"attributes":{"POSITION":33,"NORMAL":11,"TEXCOORD_0":38},"material":4,"mode":4,"indices":13}]},{"primitives":[{"attributes":{"POSITION":33,"NORMAL":11,"TEXCOORD_0":39},"material":5,"mode":4,"indices":13}]},{"primitives":[{"attributes":{"POSITION":33,"NORMAL":11,"TEXCOORD_0":40},"material":5,"mode":4,"indices":13}]},{"primitives":[{"attributes":{"POSITION":41,"NORMAL":42,"TEXCOORD_0":43},"material":7,"mode":4,"indices":44}]},{"primitives":[{"attributes":{"POSITION":45,"NORMAL":46,"TEXCOORD_0":47},"material":2,"mode":4,"indices":48}]},{"primitives":[{"attributes":{"POSITION":33,"NORMAL":11,"TEXCOORD_0":49},"material":5,"mode":4,"indices":13}]},{"primitives":[{"attributes":{"POSITION":50,"NORMAL":51,"TEXCOORD_0":52},"material":8,"mode":4,"indices":53}]},{"primitives":[{"attributes":{"POSITION":54,"NORMAL":51,"TEXCOORD_0":52},"material":8,"mode":4,"indices":53}]},{"primitives":[{"attributes":{"POSITION":33,"NORMAL":11,"TEXCOORD_0":55},"material":5,"mode":4,"indices":13}]},{"primitives":[{"attributes":{"POSITION":33,"NORMAL":11,"TEXCOORD_0":56},"material":3,"mode":4,"indices":13}]},{"primitives":[{"attributes":{"POSITION":57,"NORMAL":58,"TEXCOORD_0":59},"material":7,"mode":4,"indices":60}]}],"materials":[{"name":"concrete","pbrMetallicRoughness":{"baseColorTexture":{"index":0},"metallicRoughnessTexture":{"index":2},"roughnessFactor":1,"metallicFactor":1},"normalTexture":{"index":1,"scale":0.82},"occlusionTexture":{"index":2,"strength":0.35}},{"name":"brick-red","pbrMetallicRoughness":{"baseColorTexture":{"index":3},"metallicRoughnessTexture":{"index":5},"roughnessFactor":1,"metallicFactor":1},"normalTexture":{"index":4,"scale":1.15},"occlusionTexture":{"index":5,"strength":0.35}},{"name":"roof-metal","pbrMetallicRoughness":{"baseColorTexture":{"index":6},"metallicRoughnessTexture":{"index":8},"roughnessFactor":1,"metallicFactor":1},"normalTexture":{"index":7,"scale":0.68},"occlusionTexture":{"index":8,"strength":0.35}},{"name":"glass-blue","pbrMetallicRoughness":{"baseColorTexture":{"index":9},"metallicRoughnessTexture":{"index":11},"roughnessFactor":1,"metallicFactor":1},"normalTexture":{"index":10,"scale":0.12},"occlusionTexture":{"index":11,"strength":0.35}},{"name":"metal-dark","pbrMetallicRoughness":{"baseColorTexture":{"index":12},"metallicRoughnessTexture":{"index":14},"roughnessFactor":1,"metallicFactor":1},"normalTexture":{"index":13,"scale":0.35},"occlusionTexture":{"index":14,"strength":0.35}},{"name":"paint-yellow","pbrMetallicRoughness":{"baseColorFactor":[0.76052450467022,0.4793201830913402,0.07818742179702069,1],"roughnessFactor":0.66,"metallicFactor":0.03}},{"name":"tractor-therapy signage","pbrMetallicRoughness":{"baseColorTexture":{"index":15},"roughnessFactor":1,"metallicFactor":0},"extensions":{"KHR_materials_unlit":{}}},{"name":"metal-galvanized","pbrMetallicRoughness":{"baseColorTexture":{"index":16},"metallicRoughnessTexture":{"index":18},"roughnessFactor":1,"metallicFactor":1},"normalTexture":{"index":17,"scale":0.15},"occlusionTexture":{"index":18,"strength":0.35}},{"name":"rubber","pbrMetallicRoughness":{"baseColorTexture":{"index":19},"metallicRoughnessTexture":{"index":21},"roughnessFactor":1,"metallicFactor":1},"normalTexture":{"index":20,"scale":0.65},"occlusionTexture":{"index":21,"strength":0.35}}],"textures":[{"source":0,"sampler":0},{"source":1,"sampler":0},{"source":2,"sampler":0},{"source":3,"sampler":0},{"source":4,"sampler":0},{"source":5,"sampler":0},{"source":6,"sampler":0},{"source":7,"sampler":0},{"source":8,"sampler":0},{"source":9,"sampler":0},{"source":10,"sampler":0},{"source":11,"sampler":0},{"source":12,"sampler":0},{"source":13,"sampler":0},{"source":14,"sampler":0},{"source":15,"sampler":0},{"source":16,"sampler":0},{"source":17,"sampler":0},{"source":18,"sampler":0},{"source":19,"sampler":0},{"source":20,"sampler":0},{"source":21,"sampler":0}],"images":[{"uri":"../textures/concrete-albedo.png"},{"uri":"../textures/concrete-normal.png"},{"uri":"../textures/concrete-orm.png"},{"uri":"../textures/brick-red-albedo.png"},{"uri":"../textures/brick-red-normal.png"},{"uri":"../textures/brick-red-orm.png"},{"uri":"../textures/roof-metal-albedo.png"},{"uri":"../textures/roof-metal-normal.png"},{"uri":"../textures/roof-metal-orm.png"},{"uri":"../textures/glass-blue-albedo.png"},{"uri":"../textures/glass-blue-normal.png"},{"uri":"../textures/glass-blue-orm.png"},{"uri":"../textures/metal-dark-albedo.png"},{"uri":"../textures/metal-dark-normal.png"},{"uri":"../textures/metal-dark-orm.png"},{"uri":"../signs/tractor-therapy.png"},{"uri":"../textures/metal-galvanized-albedo.png"},{"uri":"../textures/metal-galvanized-normal.png"},{"uri":"../textures/metal-galvanized-orm.png"},{"uri":"../textures/rubber-albedo.png"},{"uri":"../textures/rubber-normal.png"},{"uri":"../textures/rubber-orm.png"}],"samplers":[{"magFilter":9729,"minFilter":9987,"wrapS":10497,"wrapT":10497}],"buffers":[{"uri":"../shared/geometry.bin","byteLength":16435520}],"bufferViews":[{"buffer":0,"byteOffset":0,"byteLength":3888,"target":34962},{"buffer":0,"byteOffset":3888,"byteLength":3888,"target":34962},{"buffer":0,"byteOffset":15170924,"byteLength":2592,"target":34962},{"buffer":0,"byteOffset":868536,"byteLength":3888,"target":34962},{"buffer":0,"byteOffset":15173516,"byteLength":2592,"target":34962},{"buffer":0,"byteOffset":15176108,"byteLength":2592,"target":34962},{"buffer":0,"byteOffset":15005468,"byteLength":2592,"target":34962},{"buffer":0,"byteOffset":1428216,"byteLength":2592,"target":34962},{"buffer":0,"byteOffset":15008060,"byteLength":2592,"target":34962},{"buffer":0,"byteOffset":1433400,"byteLength":2592,"target":34962},{"buffer":0,"byteOffset":45664,"byteLength":288,"target":34962},{"buffer":0,"byteOffset":45952,"byteLength":288,"target":34962},{"buffer":0,"byteOffset":46240,"byteLength":192,"target":34962},{"buffer":0,"byteOffset":46432,"byteLength":72,"target":34963},{"buffer":0,"byteOffset":46504,"byteLength":48,"target":34962},{"buffer":0,"byteOffset":46552,"byteLength":48,"target":34962},{"buffer":0,"byteOffset":188452,"byteLength":32,"target":34962},{"buffer":0,"byteOffset":46632,"byteLength":12,"target":34963},{"buffer":0,"byteOffset":14976500,"byteLength":1200,"target":34962},{"buffer":0,"byteOffset":14977700,"byteLength":1200,"target":34962},{"buffer":0,"byteOffset":15178700,"byteLength":800,"target":34962},{"buffer":0,"byteOffset":16160,"byteLength":384,"target":34963},{"buffer":0,"byteOffset":14979700,"byteLength":612,"target":34962},{"buffer":0,"byteOffset":14980312,"byteLength":612,"target":34962},{"buffer":0,"byteOffset":15168988,"byteLength":408,"target":34962},{"buffer":0,"byteOffset":14981332,"byteLength":144,"target":34963},{"buffer":0,"byteOffset":14981476,"byteLength":2592,"target":34962},{"buffer":0,"byteOffset":14984068,"byteLength":3132,"target":34962},{"buffer":0,"byteOffset":390704,"byteLength":3132,"target":34962},{"buffer":0,"byteOffset":420224,"byteLength":2088,"target":34962},{"buffer":0,"byteOffset":395924,"byteLength":2688,"target":34963},{"buffer":0,"byteOffset":14987200,"byteLength":3132,"target":34962},{"buffer":0,"byteOffset":422312,"byteLength":2592,"target":34962},{"buffer":0,"byteOffset":46644,"byteLength":288,"target":34962},{"buffer":0,"byteOffset":15179500,"byteLength":192,"target":34962},{"buffer":0,"byteOffset":15179692,"byteLength":192,"target":34962},{"buffer":0,"byteOffset":15179884,"byteLength":192,"target":34962},{"buffer":0,"byteOffset":15012028,"byteLength":192,"target":34962},{"buffer":0,"byteOffset":1447128,"byteLength":192,"target":34962},{"buffer":0,"byteOffset":15012220,"byteLength":192,"target":34962},{"buffer":0,"byteOffset":1447512,"byteLength":192,"target":34962},{"buffer":0,"byteOffset":14991292,"byteLength":624,"target":34962},{"buffer":0,"byteOffset":14991916,"byteLength":624,"target":34962},{"buffer":0,"byteOffset":15180076,"byteLength":416,"target":34962},{"buffer":0,"byteOffset":1111736,"byteLength":192,"target":34963},{"buffer":0,"byteOffset":692208,"byteLength":324,"target":34962},{"buffer":0,"byteOffset":692532,"byteLength":324,"target":34962},{"buffer":0,"byteOffset":15170388,"byteLength":216,"target":34962},{"buffer":0,"byteOffset":693072,"byteLength":72,"target":34963},{"buffer":0,"byteOffset":14993172,"byteLength":192,"target":34962},{"buffer":0,"byteOffset":14993364,"byteLength":1428,"target":34962},{"buffer":0,"byteOffset":427996,"byteLength":1428,"target":34962},{"buffer":0,"byteOffset":435984,"byteLength":952,"target":34962},{"buffer":0,"byteOffset":430376,"byteLength":1152,"target":34963},{"buffer":0,"byteOffset":14994792,"byteLength":1428,"target":34962},{"buffer":0,"byteOffset":436936,"byteLength":192,"target":34962},{"buffer":0,"byteOffset":15012828,"byteLength":192,"target":34962},{"buffer":0,"byteOffset":14996412,"byteLength":480,"target":34962},{"buffer":0,"byteOffset":14996892,"byteLength":480,"target":34962},{"buffer":0,"byteOffset":15180492,"byteLength":320,"target":34962},{"buffer":0,"byteOffset":48596,"byteLength":144,"target":34963}],"accessors":[{"bufferView":0,"componentType":5126,"count":324,"type":"VEC3","min":[-0.5,-0.5,-0.5],"max":[0.5,0.5,0.5]},{"bufferView":1,"componentType":5126,"count":324,"type":"VEC3"},{"bufferView":2,"componentType":5126,"count":324,"type":"VEC2"},{"bufferView":3,"componentType":5126,"count":324,"type":"VEC3","min":[-0.5,-0.5,-0.5],"max":[0.5,0.5,0.5]},{"bufferView":4,"componentType":5126,"count":324,"type":"VEC2"},{"bufferView":5,"componentType":5126,"count":324,"type":"VEC2"},{"bufferView":6,"componentType":5126,"count":324,"type":"VEC2"},{"bufferView":7,"componentType":5126,"count":324,"type":"VEC2"},{"bufferView":8,"componentType":5126,"count":324,"type":"VEC2"},{"bufferView":9,"componentType":5126,"count":324,"type":"VEC2"},{"bufferView":10,"componentType":5126,"count":24,"type":"VEC3","min":[-0.5,-0.5,-0.02500000037252903],"max":[0.5,0.5,0.02500000037252903]},{"bufferView":11,"componentType":5126,"count":24,"type":"VEC3"},{"bufferView":12,"componentType":5126,"count":24,"type":"VEC2"},{"bufferView":13,"componentType":5123,"count":36,"type":"SCALAR"},{"bufferView":14,"componentType":5126,"count":4,"type":"VEC3","min":[-0.5,-0.5,0],"max":[0.5,0.5,0]},{"bufferView":15,"componentType":5126,"count":4,"type":"VEC3"},{"bufferView":16,"componentType":5126,"count":4,"type":"VEC2"},{"bufferView":17,"componentType":5123,"count":6,"type":"SCALAR"},{"bufferView":18,"componentType":5126,"count":100,"type":"VEC3","min":[-1,-0.5,-1],"max":[1,0.5,1]},{"bufferView":19,"componentType":5126,"count":100,"type":"VEC3"},{"bufferView":20,"componentType":5126,"count":100,"type":"VEC2"},{"bufferView":21,"componentType":5123,"count":192,"type":"SCALAR"},{"bufferView":22,"componentType":5126,"count":51,"type":"VEC3","min":[-1,-0.5,-1],"max":[1,0.5,1]},{"bufferView":23,"componentType":5126,"count":51,"type":"VEC3"},{"bufferView":24,"componentType":5126,"count":51,"type":"VEC2"},{"bufferView":25,"componentType":5123,"count":72,"type":"SCALAR"},{"bufferView":26,"componentType":5126,"count":324,"type":"VEC2"},{"bufferView":27,"componentType":5126,"count":261,"type":"VEC3","min":[-0.75,-0.75,-0.12999999523162842],"max":[0.75,0.75,0.12999999523162842]},{"bufferView":28,"componentType":5126,"count":261,"type":"VEC3"},{"bufferView":29,"componentType":5126,"count":261,"type":"VEC2"},{"bufferView":30,"componentType":5123,"count":1344,"type":"SCALAR"},{"bufferView":31,"componentType":5126,"count":261,"type":"VEC3","min":[-0.5099999904632568,-0.5099999904632568,-0.12999999523162842],"max":[0.5099999904632568,0.5099999904632568,0.12999999523162842]},{"bufferView":32,"componentType":5126,"count":324,"type":"VEC2"},{"bufferView":33,"componentType":5126,"count":24,"type":"VEC3","min":[-0.5,-0.5,-0.5],"max":[0.5,0.5,0.5]},{"bufferView":34,"componentType":5126,"count":24,"type":"VEC2"},{"bufferView":35,"componentType":5126,"count":24,"type":"VEC2"},{"bufferView":36,"componentType":5126,"count":24,"type":"VEC2"},{"bufferView":37,"componentType":5126,"count":24,"type":"VEC2"},{"bufferView":38,"componentType":5126,"count":24,"type":"VEC2"},{"bufferView":39,"componentType":5126,"count":24,"type":"VEC2"},{"bufferView":40,"componentType":5126,"count":24,"type":"VEC2"},{"bufferView":41,"componentType":5126,"count":52,"type":"VEC3","min":[-1,-0.5,-1],"max":[1,0.5,1]},{"bufferView":42,"componentType":5126,"count":52,"type":"VEC3"},{"bufferView":43,"componentType":5126,"count":52,"type":"VEC2"},{"bufferView":44,"componentType":5123,"count":96,"type":"SCALAR"},{"bufferView":45,"componentType":5126,"count":27,"type":"VEC3","min":[-0.8660253882408142,-0.5,-1],"max":[0.8660253882408142,0.5,1]},{"bufferView":46,"componentType":5126,"count":27,"type":"VEC3"},{"bufferView":47,"componentType":5126,"count":27,"type":"VEC2"},{"bufferView":48,"componentType":5123,"count":36,"type":"SCALAR"},{"bufferView":49,"componentType":5126,"count":24,"type":"VEC2"},{"bufferView":50,"componentType":5126,"count":119,"type":"VEC3","min":[-0.75,-0.75,-0.11258330196142197],"max":[0.75,0.75,0.11258330196142197]},{"bufferView":51,"componentType":5126,"count":119,"type":"VEC3"},{"bufferView":52,"componentType":5126,"count":119,"type":"VEC2"},{"bufferView":53,"componentType":5123,"count":576,"type":"SCALAR"},{"bufferView":54,"componentType":5126,"count":119,"type":"VEC3","min":[-0.5099999904632568,-0.5099999904632568,-0.11258330196142197],"max":[0.5099999904632568,0.5099999904632568,0.11258330196142197]},{"bufferView":55,"componentType":5126,"count":24,"type":"VEC2"},{"bufferView":56,"componentType":5126,"count":24,"type":"VEC2"},{"bufferView":57,"componentType":5126,"count":40,"type":"VEC3","min":[-0.8660253882408142,-0.5,-1],"max":[0.8660253882408142,0.5,1]},{"bufferView":58,"componentType":5126,"count":40,"type":"VEC3"},{"bufferView":59,"componentType":5126,"count":40,"type":"VEC2"},{"bufferView":60,"componentType":5123,"count":72,"type":"SCALAR"}],"extensionsUsed":["KHR_materials_unlit"],"extras":{"id":"vlt-tractor-therapy-17","family":"tractor-therapy","variant":16,"plan":"D2-1","units":"metres","up":"+Y","front":"+Z","lodScenes":[0,1,2]}}