{"asset":{"version":"2.0","generator":"SLOPMERICA Department of Unnecessary Development 1.0"},"scene":0,"scenes":[{"name":"LOD 0","nodes":[0,1,2,3,4,5,6,7,8,9,10,11,12,13,14,15,16,17,18,19,20,21],"extras":{"level":0}},{"name":"LOD 1","nodes":[22,23,24,25,26,27,28,29,30,31,32,33,34,35,36,37,38,39,40,41,42,43],"extras":{"level":1}},{"name":"LOD 2","nodes":[44,45,46,47,48,49,50,51],"extras":{"level":2}}],"nodes":[{"name":"surveyed lot","mesh":0,"translation":[0,0.06,0],"scale":[26.4,0.12,19.2]},{"name":"ferris wheel rim","mesh":1,"translation":[0,6.6,-1],"rotation":[0,0.707107,0,0.707107]},{"name":"wheel spoke 0","mesh":2,"translation":[0,0,0]},{"name":"gondola 0","mesh":3,"translation":[0,6.6,4.8],"scale":[0.75,0.65,0.55]},{"name":"wheel spoke 1","mesh":4,"translation":[0,0,0]},{"name":"wheel spoke 2","mesh":5,"translation":[0,0,0]},{"name":"gondola 2","mesh":6,"translation":[0,12.4,-1],"scale":[0.75,0.65,0.55]},{"name":"wheel spoke 3","mesh":7,"translation":[0,0,0]},{"name":"wheel spoke 4","mesh":8,"translation":[0,0,0]},{"name":"gondola 4","mesh":3,"translation":[0,6.6,-6.8],"scale":[0.75,0.65,0.55]},{"name":"wheel spoke 5","mesh":9,"translation":[0,0,0]},{"name":"wheel spoke 6","mesh":10,"translation":[0,0,0]},{"name":"gondola 6","mesh":6,"translation":[0,0.8,-1],"scale":[0.75,0.65,0.55]},{"name":"wheel spoke 7","mesh":11,"translation":[0,0,0]},{"name":"left wheel leg","mesh":12,"translation":[0,0,0]},{"name":"right wheel leg","mesh":13,"translation":[0,0,0]},{"name":"midway booth 0","mesh":14,"translation":[-6,1,6],"scale":[2.1,1.8,2]},{"name":"midway booth 1","mesh":15,"translation":[-3.3,1,6],"scale":[2.1,1.8,2]},{"name":"midway booth 2","mesh":14,"translation":[-0.6,1,6],"scale":[2.1,1.8,2]},{"name":"midway booth 3","mesh":15,"translation":[2.1,1,6],"scale":[2.1,1.8,2]},{"name":"midway booth 4","mesh":14,"translation":[4.8,1,6],"scale":[2.1,1.8,2]},{"name":"midway booth 5","mesh":15,"translation":[7.5,1,6],"scale":[2.1,1.8,2]},{"name":"surveyed lot","mesh":16,"translation":[0,0.06,0],"scale":[26.4,0.12,19.2]},{"name":"ferris wheel rim","mesh":17,"translation":[0,6.6,-1],"rotation":[0,0.707107,0,0.707107]},{"name":"wheel spoke 0","mesh":18,"translation":[0,0,0]},{"name":"gondola 0","mesh":19,"translation":[0,6.6,4.8],"scale":[0.75,0.65,0.55]},{"name":"wheel spoke 1","mesh":20,"translation":[0,0,0]},{"name":"wheel spoke 2","mesh":21,"translation":[0,0,0]},{"name":"gondola 2","mesh":22,"translation":[0,12.4,-1],"scale":[0.75,0.65,0.55]},{"name":"wheel spoke 3","mesh":23,"translation":[0,0,0]},{"name":"wheel spoke 4","mesh":24,"translation":[0,0,0]},{"name":"gondola 4","mesh":19,"translation":[0,6.6,-6.8],"scale":[0.75,0.65,0.55]},{"name":"wheel spoke 5","mesh":25,"translation":[0,0,0]},{"name":"wheel spoke 6","mesh":26,"translation":[0,0,0]},{"name":"gondola 6","mesh":22,"translation":[0,0.8,-1],"scale":[0.75,0.65,0.55]},{"name":"wheel spoke 7","mesh":27,"translation":[0,0,0]},{"name":"left wheel leg","mesh":28,"translation":[0,0,0]},{"name":"right wheel leg","mesh":29,"translation":[0,0,0]},{"name":"midway booth 0","mesh":30,"translation":[-6,1,6],"scale":[2.1,1.8,2]},{"name":"midway booth 1","mesh":31,"translation":[-3.3,1,6],"scale":[2.1,1.8,2]},{"name":"midway booth 2","mesh":30,"translation":[-0.6,1,6],"scale":[2.1,1.8,2]},{"name":"midway booth 3","mesh":31,"translation":[2.1,1,6],"scale":[2.1,1.8,2]},{"name":"midway booth 4","mesh":30,"translation":[4.8,1,6],"scale":[2.1,1.8,2]},{"name":"midway booth 5","mesh":31,"translation":[7.5,1,6],"scale":[2.1,1.8,2]},{"name":"surveyed lot","mesh":16,"translation":[0,0.06,0],"scale":[26.4,0.12,19.2]},{"name":"ferris wheel rim","mesh":32,"translation":[0,6.6,-1],"rotation":[0,0.707107,0,0.707107]},{"name":"wheel spoke 0","mesh":33,"translation":[0,0,0]},{"name":"wheel spoke 1","mesh":34,"translation":[0,0,0]},{"name":"wheel spoke 2","mesh":35,"translation":[0,0,0]},{"name":"wheel spoke 3","mesh":36,"translation":[0,0,0]},{"name":"left wheel leg","mesh":37,"translation":[0,0,0]},{"name":"right wheel leg","mesh":38,"translation":[0,0,0]}],"meshes":[{"primitives":[{"attributes":{"POSITION":0,"NORMAL":1,"TEXCOORD_0":2},"material":0,"mode":4}]},{"primitives":[{"attributes":{"POSITION":3,"NORMAL":4,"TEXCOORD_0":5},"material":1,"mode":4,"indices":6}]},{"primitives":[{"attributes":{"POSITION":7,"NORMAL":8,"TEXCOORD_0":9},"material":2,"mode":4,"indices":10}]},{"primitives":[{"attributes":{"POSITION":0,"NORMAL":1,"TEXCOORD_0":11},"material":3,"mode":4}]},{"primitives":[{"attributes":{"POSITION":12,"NORMAL":13,"TEXCOORD_0":9},"material":2,"mode":4,"indices":10}]},{"primitives":[{"attributes":{"POSITION":14,"NORMAL":15,"TEXCOORD_0":9},"material":2,"mode":4,"indices":10}]},{"primitives":[{"attributes":{"POSITION":0,"NORMAL":1,"TEXCOORD_0":11},"material":4,"mode":4}]},{"primitives":[{"attributes":{"POSITION":16,"NORMAL":17,"TEXCOORD_0":9},"material":2,"mode":4,"indices":10}]},{"primitives":[{"attributes":{"POSITION":18,"NORMAL":19,"TEXCOORD_0":9},"material":2,"mode":4,"indices":10}]},{"primitives":[{"attributes":{"POSITION":20,"NORMAL":21,"TEXCOORD_0":9},"material":2,"mode":4,"indices":10}]},{"primitives":[{"attributes":{"POSITION":22,"NORMAL":23,"TEXCOORD_0":9},"material":2,"mode":4,"indices":10}]},{"primitives":[{"attributes":{"POSITION":24,"NORMAL":25,"TEXCOORD_0":9},"material":2,"mode":4,"indices":10}]},{"primitives":[{"attributes":{"POSITION":26,"NORMAL":27,"TEXCOORD_0":28},"material":1,"mode":4,"indices":10}]},{"primitives":[{"attributes":{"POSITION":29,"NORMAL":30,"TEXCOORD_0":28},"material":1,"mode":4,"indices":10}]},{"primitives":[{"attributes":{"POSITION":0,"NORMAL":1,"TEXCOORD_0":31},"material":4,"mode":4}]},{"primitives":[{"attributes":{"POSITION":0,"NORMAL":1,"TEXCOORD_0":31},"material":3,"mode":4}]},{"primitives":[{"attributes":{"POSITION":32,"NORMAL":33,"TEXCOORD_0":34},"material":0,"mode":4,"indices":35}]},{"primitives":[{"attributes":{"POSITION":36,"NORMAL":37,"TEXCOORD_0":38},"material":1,"mode":4,"indices":39}]},{"primitives":[{"attributes":{"POSITION":40,"NORMAL":41,"TEXCOORD_0":42},"material":2,"mode":4,"indices":43}]},{"primitives":[{"attributes":{"POSITION":32,"NORMAL":33,"TEXCOORD_0":44},"material":3,"mode":4,"indices":35}]},{"primitives":[{"attributes":{"POSITION":45,"NORMAL":46,"TEXCOORD_0":42},"material":2,"mode":4,"indices":43}]},{"primitives":[{"attributes":{"POSITION":47,"NORMAL":48,"TEXCOORD_0":42},"material":2,"mode":4,"indices":43}]},{"primitives":[{"attributes":{"POSITION":32,"NORMAL":33,"TEXCOORD_0":44},"material":4,"mode":4,"indices":35}]},{"primitives":[{"attributes":{"POSITION":49,"NORMAL":50,"TEXCOORD_0":42},"material":2,"mode":4,"indices":43}]},{"primitives":[{"attributes":{"POSITION":51,"NORMAL":52,"TEXCOORD_0":42},"material":2,"mode":4,"indices":43}]},{"primitives":[{"attributes":{"POSITION":53,"NORMAL":54,"TEXCOORD_0":42},"material":2,"mode":4,"indices":43}]},{"primitives":[{"attributes":{"POSITION":55,"NORMAL":56,"TEXCOORD_0":42},"material":2,"mode":4,"indices":43}]},{"primitives":[{"attributes":{"POSITION":57,"NORMAL":58,"TEXCOORD_0":42},"material":2,"mode":4,"indices":43}]},{"primitives":[{"attributes":{"POSITION":59,"NORMAL":60,"TEXCOORD_0":61},"material":1,"mode":4,"indices":43}]},{"primitives":[{"attributes":{"POSITION":62,"NORMAL":63,"TEXCOORD_0":61},"material":1,"mode":4,"indices":43}]},{"primitives":[{"attributes":{"POSITION":32,"NORMAL":33,"TEXCOORD_0":64},"material":4,"mode":4,"indices":35}]},{"primitives":[{"attributes":{"POSITION":32,"NORMAL":33,"TEXCOORD_0":64},"material":3,"mode":4,"indices":35}]},{"primitives":[{"attributes":{"POSITION":65,"NORMAL":66,"TEXCOORD_0":67},"material":1,"mode":4,"indices":68}]},{"primitives":[{"attributes":{"POSITION":69,"NORMAL":70,"TEXCOORD_0":71},"material":2,"mode":4,"indices":72}]},{"primitives":[{"attributes":{"POSITION":73,"NORMAL":74,"TEXCOORD_0":71},"material":2,"mode":4,"indices":72}]},{"primitives":[{"attributes":{"POSITION":75,"NORMAL":76,"TEXCOORD_0":71},"material":2,"mode":4,"indices":72}]},{"primitives":[{"attributes":{"POSITION":77,"NORMAL":78,"TEXCOORD_0":71},"material":2,"mode":4,"indices":72}]},{"primitives":[{"attributes":{"POSITION":79,"NORMAL":80,"TEXCOORD_0":81},"material":1,"mode":4,"indices":72}]},{"primitives":[{"attributes":{"POSITION":82,"NORMAL":83,"TEXCOORD_0":81},"material":1,"mode":4,"indices":72}]}],"materials":[{"name":"concrete","pbrMetallicRoughness":{"baseColorTexture":{"index":0},"metallicRoughnessTexture":{"index":2},"roughnessFactor":1,"metallicFactor":1},"normalTexture":{"index":1,"scale":0.82},"occlusionTexture":{"index":2,"strength":0.35}},{"name":"metal-dark","pbrMetallicRoughness":{"baseColorTexture":{"index":3},"metallicRoughnessTexture":{"index":5},"roughnessFactor":1,"metallicFactor":1},"normalTexture":{"index":4,"scale":0.35},"occlusionTexture":{"index":5,"strength":0.35}},{"name":"metal-galvanized","pbrMetallicRoughness":{"baseColorTexture":{"index":6},"metallicRoughnessTexture":{"index":8},"roughnessFactor":1,"metallicFactor":1},"normalTexture":{"index":7,"scale":0.15},"occlusionTexture":{"index":8,"strength":0.35}},{"name":"paint-red","pbrMetallicRoughness":{"baseColorFactor":[0.46778379610254284,0.08021982030622662,0.05126945836711539,1],"roughnessFactor":0.62,"metallicFactor":0.05}},{"name":"paint-yellow","pbrMetallicRoughness":{"baseColorFactor":[0.76052450467022,0.4793201830913402,0.07818742179702069,1],"roughnessFactor":0.66,"metallicFactor":0.03}}],"textures":[{"source":0,"sampler":0},{"source":1,"sampler":0},{"source":2,"sampler":0},{"source":3,"sampler":0},{"source":4,"sampler":0},{"source":5,"sampler":0},{"source":6,"sampler":0},{"source":7,"sampler":0},{"source":8,"sampler":0}],"images":[{"uri":"../textures/concrete-albedo.png"},{"uri":"../textures/concrete-normal.png"},{"uri":"../textures/concrete-orm.png"},{"uri":"../textures/metal-dark-albedo.png"},{"uri":"../textures/metal-dark-normal.png"},{"uri":"../textures/metal-dark-orm.png"},{"uri":"../textures/metal-galvanized-albedo.png"},{"uri":"../textures/metal-galvanized-normal.png"},{"uri":"../textures/metal-galvanized-orm.png"}],"samplers":[{"magFilter":9729,"minFilter":9987,"wrapS":10497,"wrapT":10497}],"buffers":[{"uri":"../shared/geometry.bin","byteLength":16435520}],"bufferViews":[{"buffer":0,"byteOffset":0,"byteLength":3888,"target":34962},{"buffer":0,"byteOffset":3888,"byteLength":3888,"target":34962},{"buffer":0,"byteOffset":2972096,"byteLength":2592,"target":34962},{"buffer":0,"byteOffset":2974688,"byteLength":3132,"target":34962},{"buffer":0,"byteOffset":390704,"byteLength":3132,"target":34962},{"buffer":0,"byteOffset":2835332,"byteLength":2088,"target":34962},{"buffer":0,"byteOffset":395924,"byteLength":2688,"target":34963},{"buffer":0,"byteOffset":2977820,"byteLength":972,"target":34962},{"buffer":0,"byteOffset":2838392,"byteLength":972,"target":34962},{"buffer":0,"byteOffset":409952,"byteLength":648,"target":34962},{"buffer":0,"byteOffset":410600,"byteLength":768,"target":34963},{"buffer":0,"byteOffset":2839364,"byteLength":2592,"target":34962},{"buffer":0,"byteOffset":2978792,"byteLength":972,"target":34962},{"buffer":0,"byteOffset":2842928,"byteLength":972,"target":34962},{"buffer":0,"byteOffset":2979764,"byteLength":972,"target":34962},{"buffer":0,"byteOffset":2950244,"byteLength":972,"target":34962},{"buffer":0,"byteOffset":2980736,"byteLength":972,"target":34962},{"buffer":0,"byteOffset":2846816,"byteLength":972,"target":34962},{"buffer":0,"byteOffset":2981708,"byteLength":972,"target":34962},{"buffer":0,"byteOffset":2921696,"byteLength":972,"target":34962},{"buffer":0,"byteOffset":2982680,"byteLength":972,"target":34962},{"buffer":0,"byteOffset":2850704,"byteLength":972,"target":34962},{"buffer":0,"byteOffset":2983652,"byteLength":972,"target":34962},{"buffer":0,"byteOffset":2955104,"byteLength":972,"target":34962},{"buffer":0,"byteOffset":2984624,"byteLength":972,"target":34962},{"buffer":0,"byteOffset":2854592,"byteLength":972,"target":34962},{"buffer":0,"byteOffset":2985596,"byteLength":972,"target":34962},{"buffer":0,"byteOffset":2986568,"byteLength":972,"target":34962},{"buffer":0,"byteOffset":2857508,"byteLength":648,"target":34962},{"buffer":0,"byteOffset":2987540,"byteLength":972,"target":34962},{"buffer":0,"byteOffset":2988512,"byteLength":972,"target":34962},{"buffer":0,"byteOffset":2860100,"byteLength":2592,"target":34962},{"buffer":0,"byteOffset":46644,"byteLength":288,"target":34962},{"buffer":0,"byteOffset":45952,"byteLength":288,"target":34962},{"buffer":0,"byteOffset":2989484,"byteLength":192,"target":34962},{"buffer":0,"byteOffset":46432,"byteLength":72,"target":34963},{"buffer":0,"byteOffset":2989676,"byteLength":1428,"target":34962},{"buffer":0,"byteOffset":427996,"byteLength":1428,"target":34962},{"buffer":0,"byteOffset":2864312,"byteLength":952,"target":34962},{"buffer":0,"byteOffset":430376,"byteLength":1152,"target":34963},{"buffer":0,"byteOffset":2991104,"byteLength":420,"target":34962},{"buffer":0,"byteOffset":2865684,"byteLength":420,"target":34962},{"buffer":0,"byteOffset":433796,"byteLength":280,"target":34962},{"buffer":0,"byteOffset":434076,"byteLength":288,"target":34963},{"buffer":0,"byteOffset":2866104,"byteLength":192,"target":34962},{"buffer":0,"byteOffset":2991524,"byteLength":420,"target":34962},{"buffer":0,"byteOffset":2866716,"byteLength":420,"target":34962},{"buffer":0,"byteOffset":2991944,"byteLength":420,"target":34962},{"buffer":0,"byteOffset":2963816,"byteLength":420,"target":34962},{"buffer":0,"byteOffset":2992364,"byteLength":420,"target":34962},{"buffer":0,"byteOffset":2868396,"byteLength":420,"target":34962},{"buffer":0,"byteOffset":2992784,"byteLength":420,"target":34962},{"buffer":0,"byteOffset":2934584,"byteLength":420,"target":34962},{"buffer":0,"byteOffset":2993204,"byteLength":420,"target":34962},{"buffer":0,"byteOffset":2870076,"byteLength":420,"target":34962},{"buffer":0,"byteOffset":2993624,"byteLength":420,"target":34962},{"buffer":0,"byteOffset":2965916,"byteLength":420,"target":34962},{"buffer":0,"byteOffset":2994044,"byteLength":420,"target":34962},{"buffer":0,"byteOffset":2904380,"byteLength":420,"target":34962},{"buffer":0,"byteOffset":2994464,"byteLength":420,"target":34962},{"buffer":0,"byteOffset":2994884,"byteLength":420,"target":34962},{"buffer":0,"byteOffset":2873016,"byteLength":280,"target":34962},{"buffer":0,"byteOffset":2995304,"byteLength":420,"target":34962},{"buffer":0,"byteOffset":2995724,"byteLength":420,"target":34962},{"buffer":0,"byteOffset":2874136,"byteLength":192,"target":34962},{"buffer":0,"byteOffset":2996144,"byteLength":660,"target":34962},{"buffer":0,"byteOffset":437788,"byteLength":660,"target":34962},{"buffer":0,"byteOffset":2874988,"byteLength":440,"target":34962},{"buffer":0,"byteOffset":438888,"byteLength":480,"target":34963},{"buffer":0,"byteOffset":2996804,"byteLength":300,"target":34962},{"buffer":0,"byteOffset":2875728,"byteLength":300,"target":34962},{"buffer":0,"byteOffset":439968,"byteLength":200,"target":34962},{"buffer":0,"byteOffset":440168,"byteLength":192,"target":34963},{"buffer":0,"byteOffset":2997104,"byteLength":300,"target":34962},{"buffer":0,"byteOffset":2969696,"byteLength":300,"target":34962},{"buffer":0,"byteOffset":2997404,"byteLength":300,"target":34962},{"buffer":0,"byteOffset":2939804,"byteLength":300,"target":34962},{"buffer":0,"byteOffset":2997704,"byteLength":300,"target":34962},{"buffer":0,"byteOffset":2970596,"byteLength":300,"target":34962},{"buffer":0,"byteOffset":2998004,"byteLength":300,"target":34962},{"buffer":0,"byteOffset":2998304,"byteLength":300,"target":34962},{"buffer":0,"byteOffset":2878428,"byteLength":200,"target":34962},{"buffer":0,"byteOffset":2998604,"byteLength":300,"target":34962},{"buffer":0,"byteOffset":2998904,"byteLength":300,"target":34962}],"accessors":[{"bufferView":0,"componentType":5126,"count":324,"type":"VEC3","min":[-0.5,-0.5,-0.5],"max":[0.5,0.5,0.5]},{"bufferView":1,"componentType":5126,"count":324,"type":"VEC3"},{"bufferView":2,"componentType":5126,"count":324,"type":"VEC2"},{"bufferView":3,"componentType":5126,"count":261,"type":"VEC3","min":[-5.980000019073486,-5.980000019073486,-0.18000000715255737],"max":[5.980000019073486,5.980000019073486,0.18000000715255737]},{"bufferView":4,"componentType":5126,"count":261,"type":"VEC3"},{"bufferView":5,"componentType":5126,"count":261,"type":"VEC2"},{"bufferView":6,"componentType":5123,"count":1344,"type":"SCALAR"},{"bufferView":7,"componentType":5126,"count":81,"type":"VEC3","min":[-0.054999999701976776,6.545000076293945,-1],"max":[0.054999999701976776,6.65500020980835,4.800000190734863]},{"bufferView":8,"componentType":5126,"count":81,"type":"VEC3"},{"bufferView":9,"componentType":5126,"count":81,"type":"VEC2"},{"bufferView":10,"componentType":5123,"count":384,"type":"SCALAR"},{"bufferView":11,"componentType":5126,"count":324,"type":"VEC2"},{"bufferView":12,"componentType":5126,"count":81,"type":"VEC3","min":[-0.054999999701976776,6.5611090660095215,-1.0388908386230469],"max":[0.054999999701976776,10.740110397338867,3.1401102542877197]},{"bufferView":13,"componentType":5126,"count":81,"type":"VEC3"},{"bufferView":14,"componentType":5126,"count":81,"type":"VEC3","min":[-0.054999999701976776,6.599999904632568,-1.0549999475479126],"max":[0.054999999701976776,12.399999618530273,-0.9449999928474426]},{"bufferView":15,"componentType":5126,"count":81,"type":"VEC3"},{"bufferView":16,"componentType":5126,"count":81,"type":"VEC3","min":[-0.054999999701976776,6.5611090660095215,-5.140110015869141],"max":[0.054999999701976776,10.740110397338867,-0.9611091017723083]},{"bufferView":17,"componentType":5126,"count":81,"type":"VEC3"},{"bufferView":18,"componentType":5126,"count":81,"type":"VEC3","min":[-0.054999999701976776,6.545000076293945,-6.800000190734863],"max":[0.054999999701976776,6.65500020980835,-1]},{"bufferView":19,"componentType":5126,"count":81,"type":"VEC3"},{"bufferView":20,"componentType":5126,"count":81,"type":"VEC3","min":[-0.054999999701976776,2.4598898887634277,-5.140110015869141],"max":[0.054999999701976776,6.638890743255615,-0.9611091017723083]},{"bufferView":21,"componentType":5126,"count":81,"type":"VEC3"},{"bufferView":22,"componentType":5126,"count":81,"type":"VEC3","min":[-0.054999999701976776,0.800000011920929,-1.0549999475479126],"max":[0.054999999701976776,6.599999904632568,-0.9449999928474426]},{"bufferView":23,"componentType":5126,"count":81,"type":"VEC3"},{"bufferView":24,"componentType":5126,"count":81,"type":"VEC3","min":[-0.054999999701976776,2.4598898887634277,-1.0388908386230469],"max":[0.054999999701976776,6.638890743255615,3.1401102542877197]},{"bufferView":25,"componentType":5126,"count":81,"type":"VEC3"},{"bufferView":26,"componentType":5126,"count":81,"type":"VEC3","min":[-3.5766232013702393,0.1061689555644989,-1.2000000476837158],"max":[0.1766231507062912,6.693830966949463,-0.800000011920929]},{"bufferView":27,"componentType":5126,"count":81,"type":"VEC3"},{"bufferView":28,"componentType":5126,"count":81,"type":"VEC2"},{"bufferView":29,"componentType":5126,"count":81,"type":"VEC3","min":[-0.1766231507062912,0.1061689555644989,-1.2000000476837158],"max":[3.5766232013702393,6.693830966949463,-0.800000011920929]},{"bufferView":30,"componentType":5126,"count":81,"type":"VEC3"},{"bufferView":31,"componentType":5126,"count":324,"type":"VEC2"},{"bufferView":32,"componentType":5126,"count":24,"type":"VEC3","min":[-0.5,-0.5,-0.5],"max":[0.5,0.5,0.5]},{"bufferView":33,"componentType":5126,"count":24,"type":"VEC3"},{"bufferView":34,"componentType":5126,"count":24,"type":"VEC2"},{"bufferView":35,"componentType":5123,"count":36,"type":"SCALAR"},{"bufferView":36,"componentType":5126,"count":119,"type":"VEC3","min":[-5.980000019073486,-5.980000019073486,-0.15588457882404327],"max":[5.980000019073486,5.980000019073486,0.15588457882404327]},{"bufferView":37,"componentType":5126,"count":119,"type":"VEC3"},{"bufferView":38,"componentType":5126,"count":119,"type":"VEC2"},{"bufferView":39,"componentType":5123,"count":576,"type":"SCALAR"},{"bufferView":40,"componentType":5126,"count":35,"type":"VEC3","min":[-0.0476313978433609,6.545000076293945,-1],"max":[0.0476313978433609,6.65500020980835,4.800000190734863]},{"bufferView":41,"componentType":5126,"count":35,"type":"VEC3"},{"bufferView":42,"componentType":5126,"count":35,"type":"VEC2"},{"bufferView":43,"componentType":5123,"count":144,"type":"SCALAR"},{"bufferView":44,"componentType":5126,"count":24,"type":"VEC2"},{"bufferView":45,"componentType":5126,"count":35,"type":"VEC3","min":[-0.054999999701976776,6.566319465637207,-1.0336804389953613],"max":[0.054999999701976776,10.734899520874023,3.134899854660034]},{"bufferView":46,"componentType":5126,"count":35,"type":"VEC3"},{"bufferView":47,"componentType":5126,"count":35,"type":"VEC3","min":[-0.0476313978433609,6.599999904632568,-1.0549999475479126],"max":[0.0476313978433609,12.399999618530273,-0.9449999928474426]},{"bufferView":48,"componentType":5126,"count":35,"type":"VEC3"},{"bufferView":49,"componentType":5126,"count":35,"type":"VEC3","min":[-0.054999999701976776,6.566319465637207,-5.134899616241455],"max":[0.054999999701976776,10.734899520874023,-0.9663195013999939]},{"bufferView":50,"componentType":5126,"count":35,"type":"VEC3"},{"bufferView":51,"componentType":5126,"count":35,"type":"VEC3","min":[-0.0476313978433609,6.545000076293945,-6.800000190734863],"max":[0.0476313978433609,6.65500020980835,-1]},{"bufferView":52,"componentType":5126,"count":35,"type":"VEC3"},{"bufferView":53,"componentType":5126,"count":35,"type":"VEC3","min":[-0.054999999701976776,2.4651002883911133,-5.134899616241455],"max":[0.054999999701976776,6.63368034362793,-0.9663195013999939]},{"bufferView":54,"componentType":5126,"count":35,"type":"VEC3"},{"bufferView":55,"componentType":5126,"count":35,"type":"VEC3","min":[-0.0476313978433609,0.800000011920929,-1.0549999475479126],"max":[0.0476313978433609,6.599999904632568,-0.9449999928474426]},{"bufferView":56,"componentType":5126,"count":35,"type":"VEC3"},{"bufferView":57,"componentType":5126,"count":35,"type":"VEC3","min":[-0.054999999701976776,2.4651002883911133,-1.0336804389953613],"max":[0.054999999701976776,6.63368034362793,3.134899854660034]},{"bufferView":58,"componentType":5126,"count":35,"type":"VEC3"},{"bufferView":59,"componentType":5126,"count":35,"type":"VEC3","min":[-3.552960157394409,0.11873993277549744,-1.2000000476837158],"max":[0.1529601365327835,6.681260108947754,-0.800000011920929]},{"bufferView":60,"componentType":5126,"count":35,"type":"VEC3"},{"bufferView":61,"componentType":5126,"count":35,"type":"VEC2"},{"bufferView":62,"componentType":5126,"count":35,"type":"VEC3","min":[-0.1529601365327835,0.11873993277549744,-1.2000000476837158],"max":[3.552960157394409,6.681260108947754,-0.800000011920929]},{"bufferView":63,"componentType":5126,"count":35,"type":"VEC3"},{"bufferView":64,"componentType":5126,"count":24,"type":"VEC2"},{"bufferView":65,"componentType":5126,"count":55,"type":"VEC3","min":[-5.980000019073486,-5.687317848205566,-0.18000000715255737],"max":[5.980000019073486,5.687317848205566,0.18000000715255737]},{"bufferView":66,"componentType":5126,"count":55,"type":"VEC3"},{"bufferView":67,"componentType":5126,"count":55,"type":"VEC2"},{"bufferView":68,"componentType":5123,"count":240,"type":"SCALAR"},{"bufferView":69,"componentType":5126,"count":25,"type":"VEC3","min":[-0.054999999701976776,6.545000076293945,-1],"max":[0.054999999701976776,6.65500020980835,4.800000190734863]},{"bufferView":70,"componentType":5126,"count":25,"type":"VEC3"},{"bufferView":71,"componentType":5126,"count":25,"type":"VEC2"},{"bufferView":72,"componentType":5123,"count":96,"type":"SCALAR"},{"bufferView":73,"componentType":5126,"count":25,"type":"VEC3","min":[-0.054999999701976776,6.599999904632568,-1.0549999475479126],"max":[0.054999999701976776,12.399999618530273,-0.9449999928474426]},{"bufferView":74,"componentType":5126,"count":25,"type":"VEC3"},{"bufferView":75,"componentType":5126,"count":25,"type":"VEC3","min":[-0.054999999701976776,6.545000076293945,-6.800000190734863],"max":[0.054999999701976776,6.65500020980835,-1]},{"bufferView":76,"componentType":5126,"count":25,"type":"VEC3"},{"bufferView":77,"componentType":5126,"count":25,"type":"VEC3","min":[-0.054999999701976776,0.800000011920929,-1.0549999475479126],"max":[0.054999999701976776,6.599999904632568,-0.9449999928474426]},{"bufferView":78,"componentType":5126,"count":25,"type":"VEC3"},{"bufferView":79,"componentType":5126,"count":25,"type":"VEC3","min":[-3.5766232013702393,0.1061689555644989,-1.2000000476837158],"max":[0.1766231507062912,6.693830966949463,-0.800000011920929]},{"bufferView":80,"componentType":5126,"count":25,"type":"VEC3"},{"bufferView":81,"componentType":5126,"count":25,"type":"VEC2"},{"bufferView":82,"componentType":5126,"count":25,"type":"VEC3","min":[-0.1766231507062912,0.1061689555644989,-1.2000000476837158],"max":[3.5766232013702393,6.693830966949463,-0.800000011920929]},{"bufferView":83,"componentType":5126,"count":25,"type":"VEC3"}],"extensionsUsed":["KHR_materials_unlit"],"extras":{"id":"vlt-county-fair-midway-05","family":"county-fair-midway","variant":4,"plan":"A5-1","units":"metres","up":"+Y","front":"+Z","lodScenes":[0,1,2]}}