{"asset":{"version":"2.0","generator":"SLOPMERICA Department of Unnecessary Development 1.0"},"scene":0,"scenes":[{"name":"LOD 0","nodes":[0,1,2,3,4,5,6,7,8,9,10,11,12,13],"extras":{"level":0}},{"name":"LOD 1","nodes":[14,15,16,17,18,19,20,21,22,23,24,25,26,27],"extras":{"level":1}},{"name":"LOD 2","nodes":[28,29,30,31,32,33,34,35,36,37,38,39,40],"extras":{"level":2}}],"nodes":[{"name":"site-pad","mesh":0,"translation":[0,0.06,0],"scale":[4.04352,0.12,2.392]},{"name":"variant-apron","mesh":1,"translation":[0.25272,0.13,1.37],"scale":[1.2,0.08,1.16]},{"name":"bollard-0","mesh":2,"translation":[-1.47744,0.43,1.49],"scale":[0.08,0.7,0.08]},{"name":"bollard-1","mesh":2,"translation":[1.47744,0.43,1.49],"scale":[0.08,0.7,0.08]},{"name":"layout-cabinet","mesh":3,"translation":[-2.144,0.525,0.1725],"scale":[0.69,0.81,0.32]},{"name":"shelter-roof","mesh":4,"translation":[0,2.65,0],"scale":[3.888,0.18,2.3]},{"name":"back-glass","mesh":5,"translation":[0,1.38,-1.15],"scale":[3.888,2.35,0.1]},{"name":"shelter-post--1.944","mesh":6,"translation":[-1.944,1.4,0],"scale":[0.12,2.6,0.12]},{"name":"shelter-post-1.944","mesh":6,"translation":[1.944,1.4,0],"scale":[0.12,2.6,0.12]},{"name":"bench","mesh":7,"translation":[-0.31104,0.72,-0.575],"scale":[2.41056,0.18,0.45]},{"name":"bench-leg","mesh":8,"translation":[-0.31104,0.4,-0.575],"scale":[0.16,0.65,0.16]},{"name":"route-pole","mesh":9,"translation":[-2.494,1.83,0.24],"scale":[0.07,3.42,0.07]},{"name":"route-sign-back","mesh":10,"translation":[-2.494,3.17,0.07],"scale":[0.91,0.95,1]},{"name":"route-sign","mesh":11,"translation":[-2.494,3.17,0.099],"scale":[0.81,0.85,1]},{"name":"site-pad","mesh":12,"translation":[0,0.06,0],"scale":[4.04352,0.12,2.392]},{"name":"variant-apron","mesh":13,"translation":[0.25272,0.13,1.37],"scale":[1.2,0.08,1.16]},{"name":"bollard-0","mesh":14,"translation":[-1.47744,0.43,1.49],"scale":[0.08,0.7,0.08]},{"name":"bollard-1","mesh":14,"translation":[1.47744,0.43,1.49],"scale":[0.08,0.7,0.08]},{"name":"layout-cabinet","mesh":15,"translation":[-2.144,0.525,0.1725],"scale":[0.69,0.81,0.32]},{"name":"shelter-roof","mesh":16,"translation":[0,2.65,0],"scale":[3.888,0.18,2.3]},{"name":"back-glass","mesh":17,"translation":[0,1.38,-1.15],"scale":[3.888,2.35,0.1]},{"name":"shelter-post--1.944","mesh":18,"translation":[-1.944,1.4,0],"scale":[0.12,2.6,0.12]},{"name":"shelter-post-1.944","mesh":18,"translation":[1.944,1.4,0],"scale":[0.12,2.6,0.12]},{"name":"bench","mesh":19,"translation":[-0.31104,0.72,-0.575],"scale":[2.41056,0.18,0.45]},{"name":"bench-leg","mesh":20,"translation":[-0.31104,0.4,-0.575],"scale":[0.16,0.65,0.16]},{"name":"route-pole","mesh":21,"translation":[-2.494,1.83,0.24],"scale":[0.07,3.42,0.07]},{"name":"route-sign-back","mesh":10,"translation":[-2.494,3.17,0.07],"scale":[0.91,0.95,1]},{"name":"route-sign","mesh":11,"translation":[-2.494,3.17,0.099],"scale":[0.81,0.85,1]},{"name":"site-pad","mesh":12,"translation":[0,0.06,0],"scale":[4.04352,0.12,2.392]},{"name":"variant-apron","mesh":13,"translation":[0.25272,0.13,1.37],"scale":[1.2,0.08,1.16]},{"name":"bollard-0","mesh":14,"translation":[-1.47744,0.43,1.49],"scale":[0.08,0.7,0.08]},{"name":"layout-cabinet","mesh":15,"translation":[-2.144,0.525,0.1725],"scale":[0.69,0.81,0.32]},{"name":"shelter-roof","mesh":16,"translation":[0,2.65,0],"scale":[3.888,0.18,2.3]},{"name":"back-glass","mesh":17,"translation":[0,1.38,-1.15],"scale":[3.888,2.35,0.1]},{"name":"shelter-post--1.944","mesh":18,"translation":[-1.944,1.4,0],"scale":[0.12,2.6,0.12]},{"name":"shelter-post-1.944","mesh":18,"translation":[1.944,1.4,0],"scale":[0.12,2.6,0.12]},{"name":"bench","mesh":19,"translation":[-0.31104,0.72,-0.575],"scale":[2.41056,0.18,0.45]},{"name":"bench-leg","mesh":20,"translation":[-0.31104,0.4,-0.575],"scale":[0.16,0.65,0.16]},{"name":"route-pole","mesh":21,"translation":[-2.494,1.83,0.24],"scale":[0.07,3.42,0.07]},{"name":"route-sign-back","mesh":10,"translation":[-2.494,3.17,0.07],"scale":[0.91,0.95,1]},{"name":"route-sign","mesh":11,"translation":[-2.494,3.17,0.099],"scale":[0.81,0.85,1]}],"meshes":[{"primitives":[{"attributes":{"POSITION":0,"NORMAL":1,"TEXCOORD_0":2},"material":0,"mode":4}]},{"primitives":[{"attributes":{"POSITION":0,"NORMAL":1,"TEXCOORD_0":3},"material":1,"mode":4}]},{"primitives":[{"attributes":{"POSITION":4,"NORMAL":5,"TEXCOORD_0":6},"material":2,"mode":4,"indices":7}]},{"primitives":[{"attributes":{"POSITION":0,"NORMAL":1,"TEXCOORD_0":8},"material":3,"mode":4}]},{"primitives":[{"attributes":{"POSITION":0,"NORMAL":1,"TEXCOORD_0":9},"material":4,"mode":4}]},{"primitives":[{"attributes":{"POSITION":0,"NORMAL":1,"TEXCOORD_0":10},"material":5,"mode":4}]},{"primitives":[{"attributes":{"POSITION":0,"NORMAL":1,"TEXCOORD_0":11},"material":6,"mode":4}]},{"primitives":[{"attributes":{"POSITION":0,"NORMAL":1,"TEXCOORD_0":12},"material":7,"mode":4}]},{"primitives":[{"attributes":{"POSITION":0,"NORMAL":1,"TEXCOORD_0":13},"material":6,"mode":4}]},{"primitives":[{"attributes":{"POSITION":14,"NORMAL":15,"TEXCOORD_0":16},"material":6,"mode":4,"indices":7}]},{"primitives":[{"attributes":{"POSITION":17,"NORMAL":18,"TEXCOORD_0":19},"material":6,"mode":4,"indices":20}]},{"primitives":[{"attributes":{"POSITION":21,"NORMAL":22,"TEXCOORD_0":23},"material":8,"mode":4,"indices":24}]},{"primitives":[{"attributes":{"POSITION":25,"NORMAL":18,"TEXCOORD_0":26},"material":0,"mode":4,"indices":20}]},{"primitives":[{"attributes":{"POSITION":25,"NORMAL":18,"TEXCOORD_0":27},"material":1,"mode":4,"indices":20}]},{"primitives":[{"attributes":{"POSITION":28,"NORMAL":29,"TEXCOORD_0":30},"material":2,"mode":4,"indices":31}]},{"primitives":[{"attributes":{"POSITION":25,"NORMAL":18,"TEXCOORD_0":32},"material":3,"mode":4,"indices":20}]},{"primitives":[{"attributes":{"POSITION":25,"NORMAL":18,"TEXCOORD_0":33},"material":4,"mode":4,"indices":20}]},{"primitives":[{"attributes":{"POSITION":25,"NORMAL":18,"TEXCOORD_0":34},"material":5,"mode":4,"indices":20}]},{"primitives":[{"attributes":{"POSITION":25,"NORMAL":18,"TEXCOORD_0":35},"material":6,"mode":4,"indices":20}]},{"primitives":[{"attributes":{"POSITION":25,"NORMAL":18,"TEXCOORD_0":36},"material":7,"mode":4,"indices":20}]},{"primitives":[{"attributes":{"POSITION":25,"NORMAL":18,"TEXCOORD_0":37},"material":6,"mode":4,"indices":20}]},{"primitives":[{"attributes":{"POSITION":38,"NORMAL":39,"TEXCOORD_0":40},"material":6,"mode":4,"indices":31}]}],"materials":[{"name":"concrete","pbrMetallicRoughness":{"baseColorTexture":{"index":0},"metallicRoughnessTexture":{"index":2},"roughnessFactor":1,"metallicFactor":1},"normalTexture":{"index":1,"scale":0.82},"occlusionTexture":{"index":2,"strength":0.35}},{"name":"asphalt","pbrMetallicRoughness":{"baseColorTexture":{"index":3},"metallicRoughnessTexture":{"index":5},"roughnessFactor":1,"metallicFactor":1},"normalTexture":{"index":4,"scale":0.62},"occlusionTexture":{"index":5,"strength":0.35}},{"name":"paint-yellow","pbrMetallicRoughness":{"baseColorFactor":[0.76052450467022,0.4793201830913402,0.07818742179702069,1],"roughnessFactor":0.66,"metallicFactor":0.03}},{"name":"metal-galvanized","pbrMetallicRoughness":{"baseColorTexture":{"index":6},"metallicRoughnessTexture":{"index":8},"roughnessFactor":1,"metallicFactor":1},"normalTexture":{"index":7,"scale":0.15},"occlusionTexture":{"index":8,"strength":0.35}},{"name":"roof-metal","pbrMetallicRoughness":{"baseColorTexture":{"index":9},"metallicRoughnessTexture":{"index":11},"roughnessFactor":1,"metallicFactor":1},"normalTexture":{"index":10,"scale":0.68},"occlusionTexture":{"index":11,"strength":0.35}},{"name":"glass-blue","pbrMetallicRoughness":{"baseColorTexture":{"index":12},"metallicRoughnessTexture":{"index":14},"roughnessFactor":1,"metallicFactor":1},"normalTexture":{"index":13,"scale":0.12},"occlusionTexture":{"index":14,"strength":0.35}},{"name":"metal-dark","pbrMetallicRoughness":{"baseColorTexture":{"index":15},"metallicRoughnessTexture":{"index":17},"roughnessFactor":1,"metallicFactor":1},"normalTexture":{"index":16,"scale":0.35},"occlusionTexture":{"index":17,"strength":0.35}},{"name":"wood-painted","pbrMetallicRoughness":{"baseColorTexture":{"index":18},"metallicRoughnessTexture":{"index":20},"roughnessFactor":1,"metallicFactor":1},"normalTexture":{"index":19,"scale":0.55},"occlusionTexture":{"index":20,"strength":0.35}},{"name":"bus-stop-nowhere signage","pbrMetallicRoughness":{"baseColorTexture":{"index":21},"roughnessFactor":1,"metallicFactor":0},"extensions":{"KHR_materials_unlit":{}}}],"textures":[{"source":0,"sampler":0},{"source":1,"sampler":0},{"source":2,"sampler":0},{"source":3,"sampler":0},{"source":4,"sampler":0},{"source":5,"sampler":0},{"source":6,"sampler":0},{"source":7,"sampler":0},{"source":8,"sampler":0},{"source":9,"sampler":0},{"source":10,"sampler":0},{"source":11,"sampler":0},{"source":12,"sampler":0},{"source":13,"sampler":0},{"source":14,"sampler":0},{"source":15,"sampler":0},{"source":16,"sampler":0},{"source":17,"sampler":0},{"source":18,"sampler":0},{"source":19,"sampler":0},{"source":20,"sampler":0},{"source":21,"sampler":0}],"images":[{"uri":"../textures/concrete-albedo.png"},{"uri":"../textures/concrete-normal.png"},{"uri":"../textures/concrete-orm.png"},{"uri":"../textures/asphalt-albedo.png"},{"uri":"../textures/asphalt-normal.png"},{"uri":"../textures/asphalt-orm.png"},{"uri":"../textures/metal-galvanized-albedo.png"},{"uri":"../textures/metal-galvanized-normal.png"},{"uri":"../textures/metal-galvanized-orm.png"},{"uri":"../textures/roof-metal-albedo.png"},{"uri":"../textures/roof-metal-normal.png"},{"uri":"../textures/roof-metal-orm.png"},{"uri":"../textures/glass-blue-albedo.png"},{"uri":"../textures/glass-blue-normal.png"},{"uri":"../textures/glass-blue-orm.png"},{"uri":"../textures/metal-dark-albedo.png"},{"uri":"../textures/metal-dark-normal.png"},{"uri":"../textures/metal-dark-orm.png"},{"uri":"../textures/wood-painted-albedo.png"},{"uri":"../textures/wood-painted-normal.png"},{"uri":"../textures/wood-painted-orm.png"},{"uri":"../signs/bus-stop-nowhere.png"}],"samplers":[{"magFilter":9729,"minFilter":9987,"wrapS":10497,"wrapT":10497}],"buffers":[{"uri":"../shared/geometry.bin","byteLength":16435520}],"bufferViews":[{"buffer":0,"byteOffset":0,"byteLength":3888,"target":34962},{"buffer":0,"byteOffset":3888,"byteLength":3888,"target":34962},{"buffer":0,"byteOffset":1348248,"byteLength":2592,"target":34962},{"buffer":0,"byteOffset":1342488,"byteLength":2592,"target":34962},{"buffer":0,"byteOffset":12960,"byteLength":1200,"target":34962},{"buffer":0,"byteOffset":14160,"byteLength":1200,"target":34962},{"buffer":0,"byteOffset":150020,"byteLength":800,"target":34962},{"buffer":0,"byteOffset":16160,"byteLength":384,"target":34963},{"buffer":0,"byteOffset":156740,"byteLength":2592,"target":34962},{"buffer":0,"byteOffset":1350840,"byteLength":2592,"target":34962},{"buffer":0,"byteOffset":1248728,"byteLength":2592,"target":34962},{"buffer":0,"byteOffset":1229944,"byteLength":2592,"target":34962},{"buffer":0,"byteOffset":1251320,"byteLength":2592,"target":34962},{"buffer":0,"byteOffset":1235128,"byteLength":2592,"target":34962},{"buffer":0,"byteOffset":1237720,"byteLength":1200,"target":34962},{"buffer":0,"byteOffset":1238920,"byteLength":1200,"target":34962},{"buffer":0,"byteOffset":1253912,"byteLength":800,"target":34962},{"buffer":0,"byteOffset":45664,"byteLength":288,"target":34962},{"buffer":0,"byteOffset":45952,"byteLength":288,"target":34962},{"buffer":0,"byteOffset":46240,"byteLength":192,"target":34962},{"buffer":0,"byteOffset":46432,"byteLength":72,"target":34963},{"buffer":0,"byteOffset":46504,"byteLength":48,"target":34962},{"buffer":0,"byteOffset":46552,"byteLength":48,"target":34962},{"buffer":0,"byteOffset":159332,"byteLength":32,"target":34962},{"buffer":0,"byteOffset":46632,"byteLength":12,"target":34963},{"buffer":0,"byteOffset":46644,"byteLength":288,"target":34962},{"buffer":0,"byteOffset":1353432,"byteLength":192,"target":34962},{"buffer":0,"byteOffset":1347864,"byteLength":192,"target":34962},{"buffer":0,"byteOffset":47316,"byteLength":480,"target":34962},{"buffer":0,"byteOffset":47796,"byteLength":480,"target":34962},{"buffer":0,"byteOffset":153636,"byteLength":320,"target":34962},{"buffer":0,"byteOffset":48596,"byteLength":144,"target":34963},{"buffer":0,"byteOffset":159556,"byteLength":192,"target":34962},{"buffer":0,"byteOffset":1353624,"byteLength":192,"target":34962},{"buffer":0,"byteOffset":1255096,"byteLength":192,"target":34962},{"buffer":0,"byteOffset":1241688,"byteLength":192,"target":34962},{"buffer":0,"byteOffset":1255288,"byteLength":192,"target":34962},{"buffer":0,"byteOffset":1242072,"byteLength":192,"target":34962},{"buffer":0,"byteOffset":1242264,"byteLength":480,"target":34962},{"buffer":0,"byteOffset":1242744,"byteLength":480,"target":34962},{"buffer":0,"byteOffset":1255480,"byteLength":320,"target":34962}],"accessors":[{"bufferView":0,"componentType":5126,"count":324,"type":"VEC3","min":[-0.5,-0.5,-0.5],"max":[0.5,0.5,0.5]},{"bufferView":1,"componentType":5126,"count":324,"type":"VEC3"},{"bufferView":2,"componentType":5126,"count":324,"type":"VEC2"},{"bufferView":3,"componentType":5126,"count":324,"type":"VEC2"},{"bufferView":4,"componentType":5126,"count":100,"type":"VEC3","min":[-1,-0.5,-1],"max":[1,0.5,1]},{"bufferView":5,"componentType":5126,"count":100,"type":"VEC3"},{"bufferView":6,"componentType":5126,"count":100,"type":"VEC2"},{"bufferView":7,"componentType":5123,"count":192,"type":"SCALAR"},{"bufferView":8,"componentType":5126,"count":324,"type":"VEC2"},{"bufferView":9,"componentType":5126,"count":324,"type":"VEC2"},{"bufferView":10,"componentType":5126,"count":324,"type":"VEC2"},{"bufferView":11,"componentType":5126,"count":324,"type":"VEC2"},{"bufferView":12,"componentType":5126,"count":324,"type":"VEC2"},{"bufferView":13,"componentType":5126,"count":324,"type":"VEC2"},{"bufferView":14,"componentType":5126,"count":100,"type":"VEC3","min":[-1,-0.5,-1],"max":[1,0.5,1]},{"bufferView":15,"componentType":5126,"count":100,"type":"VEC3"},{"bufferView":16,"componentType":5126,"count":100,"type":"VEC2"},{"bufferView":17,"componentType":5126,"count":24,"type":"VEC3","min":[-0.5,-0.5,-0.02500000037252903],"max":[0.5,0.5,0.02500000037252903]},{"bufferView":18,"componentType":5126,"count":24,"type":"VEC3"},{"bufferView":19,"componentType":5126,"count":24,"type":"VEC2"},{"bufferView":20,"componentType":5123,"count":36,"type":"SCALAR"},{"bufferView":21,"componentType":5126,"count":4,"type":"VEC3","min":[-0.5,-0.5,0],"max":[0.5,0.5,0]},{"bufferView":22,"componentType":5126,"count":4,"type":"VEC3"},{"bufferView":23,"componentType":5126,"count":4,"type":"VEC2"},{"bufferView":24,"componentType":5123,"count":6,"type":"SCALAR"},{"bufferView":25,"componentType":5126,"count":24,"type":"VEC3","min":[-0.5,-0.5,-0.5],"max":[0.5,0.5,0.5]},{"bufferView":26,"componentType":5126,"count":24,"type":"VEC2"},{"bufferView":27,"componentType":5126,"count":24,"type":"VEC2"},{"bufferView":28,"componentType":5126,"count":40,"type":"VEC3","min":[-0.8660253882408142,-0.5,-1],"max":[0.8660253882408142,0.5,1]},{"bufferView":29,"componentType":5126,"count":40,"type":"VEC3"},{"bufferView":30,"componentType":5126,"count":40,"type":"VEC2"},{"bufferView":31,"componentType":5123,"count":72,"type":"SCALAR"},{"bufferView":32,"componentType":5126,"count":24,"type":"VEC2"},{"bufferView":33,"componentType":5126,"count":24,"type":"VEC2"},{"bufferView":34,"componentType":5126,"count":24,"type":"VEC2"},{"bufferView":35,"componentType":5126,"count":24,"type":"VEC2"},{"bufferView":36,"componentType":5126,"count":24,"type":"VEC2"},{"bufferView":37,"componentType":5126,"count":24,"type":"VEC2"},{"bufferView":38,"componentType":5126,"count":40,"type":"VEC3","min":[-0.8660253882408142,-0.5,-1],"max":[0.8660253882408142,0.5,1]},{"bufferView":39,"componentType":5126,"count":40,"type":"VEC3"},{"bufferView":40,"componentType":5126,"count":40,"type":"VEC2"}],"extensionsUsed":["KHR_materials_unlit"],"extras":{"id":"vlt-bus-stop-nowhere-12","family":"bus-stop-nowhere","variant":11,"plan":"C2-1","units":"metres","up":"+Y","front":"+Z","lodScenes":[0,1,2]}}