{"asset":{"version":"2.0","generator":"SLOPMERICA Department of Unnecessary Development 1.0"},"scene":0,"scenes":[{"name":"LOD 0","nodes":[0,1,2,3,4,5,6,7,8,9,10,11,12,13],"extras":{"level":0}},{"name":"LOD 1","nodes":[14,15,16,17,18,19,20,21,22,23,24,25,26,27],"extras":{"level":1}},{"name":"LOD 2","nodes":[28,29,30,31,32,33,34],"extras":{"level":2}}],"nodes":[{"name":"patriotic splash pad","mesh":0,"translation":[0,0.13,0],"scale":[6.2,0.26,6.2]},{"name":"jet 0","mesh":1,"translation":[3.844,0.29,0],"scale":[0.13,0.18,0.13]},{"name":"jet 1","mesh":1,"translation":[2.944675,0.29,2.470876],"scale":[0.13,0.18,0.13]},{"name":"jet 2","mesh":1,"translation":[0.667504,0.29,3.785601],"scale":[0.13,0.18,0.13]},{"name":"jet 3","mesh":1,"translation":[-1.922,0.29,3.329002],"scale":[0.13,0.18,0.13]},{"name":"jet 4","mesh":1,"translation":[-3.612178,0.29,1.314725],"scale":[0.13,0.18,0.13]},{"name":"jet 5","mesh":1,"translation":[-3.612178,0.29,-1.314725],"scale":[0.13,0.18,0.13]},{"name":"jet 6","mesh":1,"translation":[-1.922,0.29,-3.329002],"scale":[0.13,0.18,0.13]},{"name":"jet 7","mesh":1,"translation":[0.667504,0.29,-3.785601],"scale":[0.13,0.18,0.13]},{"name":"jet 8","mesh":1,"translation":[2.944675,0.29,-2.470876],"scale":[0.13,0.18,0.13]},{"name":"flag pole","mesh":2,"translation":[0,3.5,0],"scale":[0.15,7,0.15]},{"name":"flag","mesh":3,"translation":[1.25,6.3,0],"scale":[2.7,1.3,0.07]},{"name":"splash pad rules-back","mesh":4,"translation":[7.5,1.5,0],"rotation":[0,0.707107,0,0.707107],"scale":[2.7,1.5,1]},{"name":"splash pad rules","mesh":5,"translation":[7.529,1.5,0],"rotation":[0,0.707107,0,0.707107],"scale":[2.6,1.4,1]},{"name":"patriotic splash pad","mesh":6,"translation":[0,0.13,0],"scale":[6.2,0.26,6.2]},{"name":"jet 0","mesh":7,"translation":[3.844,0.29,0],"scale":[0.13,0.18,0.13]},{"name":"jet 1","mesh":7,"translation":[2.944675,0.29,2.470876],"scale":[0.13,0.18,0.13]},{"name":"jet 2","mesh":7,"translation":[0.667504,0.29,3.785601],"scale":[0.13,0.18,0.13]},{"name":"jet 3","mesh":7,"translation":[-1.922,0.29,3.329002],"scale":[0.13,0.18,0.13]},{"name":"jet 4","mesh":7,"translation":[-3.612178,0.29,1.314725],"scale":[0.13,0.18,0.13]},{"name":"jet 5","mesh":7,"translation":[-3.612178,0.29,-1.314725],"scale":[0.13,0.18,0.13]},{"name":"jet 6","mesh":7,"translation":[-1.922,0.29,-3.329002],"scale":[0.13,0.18,0.13]},{"name":"jet 7","mesh":7,"translation":[0.667504,0.29,-3.785601],"scale":[0.13,0.18,0.13]},{"name":"jet 8","mesh":7,"translation":[2.944675,0.29,-2.470876],"scale":[0.13,0.18,0.13]},{"name":"flag pole","mesh":8,"translation":[0,3.5,0],"scale":[0.15,7,0.15]},{"name":"flag","mesh":9,"translation":[1.25,6.3,0],"scale":[2.7,1.3,0.07]},{"name":"splash pad rules-back","mesh":4,"translation":[7.5,1.5,0],"rotation":[0,0.707107,0,0.707107],"scale":[2.7,1.5,1]},{"name":"splash pad rules","mesh":5,"translation":[7.529,1.5,0],"rotation":[0,0.707107,0,0.707107],"scale":[2.6,1.4,1]},{"name":"patriotic splash pad","mesh":10,"translation":[0,0.13,0],"scale":[6.2,0.26,6.2]},{"name":"jet 0","mesh":7,"translation":[3.844,0.29,0],"scale":[0.13,0.18,0.13]},{"name":"jet 1","mesh":7,"translation":[0,0.29,3.844],"scale":[0.13,0.18,0.13]},{"name":"jet 2","mesh":7,"translation":[-3.844,0.29,0],"scale":[0.13,0.18,0.13]},{"name":"jet 3","mesh":7,"translation":[0,0.29,-3.844],"scale":[0.13,0.18,0.13]},{"name":"flag pole","mesh":8,"translation":[0,3.5,0],"scale":[0.15,7,0.15]},{"name":"flag","mesh":9,"translation":[1.25,6.3,0],"scale":[2.7,1.3,0.07]}],"meshes":[{"primitives":[{"attributes":{"POSITION":0,"NORMAL":1,"TEXCOORD_0":2},"material":0,"mode":4,"indices":3}]},{"primitives":[{"attributes":{"POSITION":4,"NORMAL":5,"TEXCOORD_0":6},"material":1,"mode":4,"indices":7}]},{"primitives":[{"attributes":{"POSITION":8,"NORMAL":9,"TEXCOORD_0":10},"material":2,"mode":4}]},{"primitives":[{"attributes":{"POSITION":8,"NORMAL":9,"TEXCOORD_0":11},"material":3,"mode":4}]},{"primitives":[{"attributes":{"POSITION":12,"NORMAL":13,"TEXCOORD_0":14},"material":4,"mode":4,"indices":15}]},{"primitives":[{"attributes":{"POSITION":16,"NORMAL":17,"TEXCOORD_0":18},"material":5,"mode":4,"indices":19}]},{"primitives":[{"attributes":{"POSITION":20,"NORMAL":21,"TEXCOORD_0":22},"material":0,"mode":4,"indices":23}]},{"primitives":[{"attributes":{"POSITION":24,"NORMAL":25,"TEXCOORD_0":26},"material":1,"mode":4,"indices":27}]},{"primitives":[{"attributes":{"POSITION":28,"NORMAL":13,"TEXCOORD_0":29},"material":2,"mode":4,"indices":15}]},{"primitives":[{"attributes":{"POSITION":28,"NORMAL":13,"TEXCOORD_0":30},"material":3,"mode":4,"indices":15}]},{"primitives":[{"attributes":{"POSITION":31,"NORMAL":32,"TEXCOORD_0":33},"material":0,"mode":4,"indices":27}]}],"materials":[{"name":"paint-blue","pbrMetallicRoughness":{"baseColorFactor":[0.05126945836711539,0.10946171076915331,0.22696587349938613,1],"roughnessFactor":0.58,"metallicFactor":0.05}},{"name":"metal-copper","pbrMetallicRoughness":{"baseColorTexture":{"index":0},"metallicRoughnessTexture":{"index":2},"roughnessFactor":1,"metallicFactor":1},"normalTexture":{"index":1,"scale":0.7},"occlusionTexture":{"index":2,"strength":0.35}},{"name":"metal-galvanized","pbrMetallicRoughness":{"baseColorTexture":{"index":3},"metallicRoughnessTexture":{"index":5},"roughnessFactor":1,"metallicFactor":1},"normalTexture":{"index":4,"scale":0.15},"occlusionTexture":{"index":5,"strength":0.35}},{"name":"paint-red","pbrMetallicRoughness":{"baseColorFactor":[0.46778379610254284,0.08021982030622662,0.05126945836711539,1],"roughnessFactor":0.62,"metallicFactor":0.05}},{"name":"metal-dark","pbrMetallicRoughness":{"baseColorTexture":{"index":6},"metallicRoughnessTexture":{"index":8},"roughnessFactor":1,"metallicFactor":1},"normalTexture":{"index":7,"scale":0.35},"occlusionTexture":{"index":8,"strength":0.35}},{"name":"freedom-splash-pad signage","pbrMetallicRoughness":{"baseColorTexture":{"index":9},"roughnessFactor":1,"metallicFactor":0},"extensions":{"KHR_materials_unlit":{}}}],"textures":[{"source":0,"sampler":0},{"source":1,"sampler":0},{"source":2,"sampler":0},{"source":3,"sampler":0},{"source":4,"sampler":0},{"source":5,"sampler":0},{"source":6,"sampler":0},{"source":7,"sampler":0},{"source":8,"sampler":0},{"source":9,"sampler":0}],"images":[{"uri":"../textures/metal-copper-albedo.png"},{"uri":"../textures/metal-copper-normal.png"},{"uri":"../textures/metal-copper-orm.png"},{"uri":"../textures/metal-galvanized-albedo.png"},{"uri":"../textures/metal-galvanized-normal.png"},{"uri":"../textures/metal-galvanized-orm.png"},{"uri":"../textures/metal-dark-albedo.png"},{"uri":"../textures/metal-dark-normal.png"},{"uri":"../textures/metal-dark-orm.png"},{"uri":"../signs/freedom-splash-pad.png"}],"samplers":[{"magFilter":9729,"minFilter":9987,"wrapS":10497,"wrapT":10497}],"buffers":[{"uri":"../shared/geometry.bin","byteLength":16435520}],"bufferViews":[{"buffer":0,"byteOffset":5513568,"byteLength":1776,"target":34962},{"buffer":0,"byteOffset":5515344,"byteLength":1776,"target":34962},{"buffer":0,"byteOffset":5541120,"byteLength":1184,"target":34962},{"buffer":0,"byteOffset":5518304,"byteLength":576,"target":34963},{"buffer":0,"byteOffset":5518880,"byteLength":552,"target":34962},{"buffer":0,"byteOffset":5519432,"byteLength":552,"target":34962},{"buffer":0,"byteOffset":5559264,"byteLength":368,"target":34962},{"buffer":0,"byteOffset":3772292,"byteLength":168,"target":34963},{"buffer":0,"byteOffset":0,"byteLength":3888,"target":34962},{"buffer":0,"byteOffset":3888,"byteLength":3888,"target":34962},{"buffer":0,"byteOffset":5521088,"byteLength":2592,"target":34962},{"buffer":0,"byteOffset":5542304,"byteLength":2592,"target":34962},{"buffer":0,"byteOffset":45664,"byteLength":288,"target":34962},{"buffer":0,"byteOffset":45952,"byteLength":288,"target":34962},{"buffer":0,"byteOffset":46240,"byteLength":192,"target":34962},{"buffer":0,"byteOffset":46432,"byteLength":72,"target":34963},{"buffer":0,"byteOffset":46504,"byteLength":48,"target":34962},{"buffer":0,"byteOffset":46552,"byteLength":48,"target":34962},{"buffer":0,"byteOffset":219492,"byteLength":32,"target":34962},{"buffer":0,"byteOffset":46632,"byteLength":12,"target":34963},{"buffer":0,"byteOffset":5526272,"byteLength":912,"target":34962},{"buffer":0,"byteOffset":5527184,"byteLength":912,"target":34962},{"buffer":0,"byteOffset":5544896,"byteLength":608,"target":34962},{"buffer":0,"byteOffset":387284,"byteLength":288,"target":34963},{"buffer":0,"byteOffset":5528704,"byteLength":480,"target":34962},{"buffer":0,"byteOffset":5529184,"byteLength":480,"target":34962},{"buffer":0,"byteOffset":5559632,"byteLength":320,"target":34962},{"buffer":0,"byteOffset":48596,"byteLength":144,"target":34963},{"buffer":0,"byteOffset":46644,"byteLength":288,"target":34962},{"buffer":0,"byteOffset":5530624,"byteLength":192,"target":34962},{"buffer":0,"byteOffset":5545504,"byteLength":192,"target":34962},{"buffer":0,"byteOffset":1112312,"byteLength":480,"target":34962},{"buffer":0,"byteOffset":1112792,"byteLength":480,"target":34962},{"buffer":0,"byteOffset":5545696,"byteLength":320,"target":34962}],"accessors":[{"bufferView":0,"componentType":5126,"count":148,"type":"VEC3","min":[-1,-0.5,-1],"max":[1,0.5,1]},{"bufferView":1,"componentType":5126,"count":148,"type":"VEC3"},{"bufferView":2,"componentType":5126,"count":148,"type":"VEC2"},{"bufferView":3,"componentType":5123,"count":288,"type":"SCALAR"},{"bufferView":4,"componentType":5126,"count":46,"type":"VEC3","min":[-0.9749279022216797,-0.5,-0.9009688496589661],"max":[0.9749279022216797,0.5,1]},{"bufferView":5,"componentType":5126,"count":46,"type":"VEC3"},{"bufferView":6,"componentType":5126,"count":46,"type":"VEC2"},{"bufferView":7,"componentType":5123,"count":84,"type":"SCALAR"},{"bufferView":8,"componentType":5126,"count":324,"type":"VEC3","min":[-0.5,-0.5,-0.5],"max":[0.5,0.5,0.5]},{"bufferView":9,"componentType":5126,"count":324,"type":"VEC3"},{"bufferView":10,"componentType":5126,"count":324,"type":"VEC2"},{"bufferView":11,"componentType":5126,"count":324,"type":"VEC2"},{"bufferView":12,"componentType":5126,"count":24,"type":"VEC3","min":[-0.5,-0.5,-0.02500000037252903],"max":[0.5,0.5,0.02500000037252903]},{"bufferView":13,"componentType":5126,"count":24,"type":"VEC3"},{"bufferView":14,"componentType":5126,"count":24,"type":"VEC2"},{"bufferView":15,"componentType":5123,"count":36,"type":"SCALAR"},{"bufferView":16,"componentType":5126,"count":4,"type":"VEC3","min":[-0.5,-0.5,0],"max":[0.5,0.5,0]},{"bufferView":17,"componentType":5126,"count":4,"type":"VEC3"},{"bufferView":18,"componentType":5126,"count":4,"type":"VEC2"},{"bufferView":19,"componentType":5123,"count":6,"type":"SCALAR"},{"bufferView":20,"componentType":5126,"count":76,"type":"VEC3","min":[-1,-0.5,-1],"max":[1,0.5,1]},{"bufferView":21,"componentType":5126,"count":76,"type":"VEC3"},{"bufferView":22,"componentType":5126,"count":76,"type":"VEC2"},{"bufferView":23,"componentType":5123,"count":144,"type":"SCALAR"},{"bufferView":24,"componentType":5126,"count":40,"type":"VEC3","min":[-0.8660253882408142,-0.5,-1],"max":[0.8660253882408142,0.5,1]},{"bufferView":25,"componentType":5126,"count":40,"type":"VEC3"},{"bufferView":26,"componentType":5126,"count":40,"type":"VEC2"},{"bufferView":27,"componentType":5123,"count":72,"type":"SCALAR"},{"bufferView":28,"componentType":5126,"count":24,"type":"VEC3","min":[-0.5,-0.5,-0.5],"max":[0.5,0.5,0.5]},{"bufferView":29,"componentType":5126,"count":24,"type":"VEC2"},{"bufferView":30,"componentType":5126,"count":24,"type":"VEC2"},{"bufferView":31,"componentType":5126,"count":40,"type":"VEC3","min":[-0.8660253882408142,-0.5,-1],"max":[0.8660253882408142,0.5,1]},{"bufferView":32,"componentType":5126,"count":40,"type":"VEC3"},{"bufferView":33,"componentType":5126,"count":40,"type":"VEC2"}],"extensionsUsed":["KHR_materials_unlit"],"extras":{"id":"vlt-freedom-splash-pad-24","family":"freedom-splash-pad","variant":23,"plan":"A4-2","units":"metres","up":"+Y","front":"+Z","lodScenes":[0,1,2]}}