{"asset":{"version":"2.0","generator":"SLOPMERICA Department of Unnecessary Development 1.0"},"scene":0,"scenes":[{"name":"LOD 0","nodes":[0,1,2,3,4,5,6,7,8,9,10,11],"extras":{"level":0}},{"name":"LOD 1","nodes":[12,13,14,15,16,17,18,19,20,21,22,23],"extras":{"level":1}},{"name":"LOD 2","nodes":[24,25,26,27,28,29,30,31,32,33,34,35],"extras":{"level":2}}],"nodes":[{"name":"foundation","mesh":0,"translation":[0,0.08,0],"scale":[19.8,0.16,16.97]},{"name":"er-block","mesh":1,"translation":[0,3.76,0],"scale":[17.6,7.52,14.77]},{"name":"emergency-wing","mesh":2,"translation":[6.688,2.7072,3.6925],"rotation":[0,0.059964,0,0.998201],"scale":[8.448,5.4144,7.6804]},{"name":"helipad","mesh":3,"translation":[0,7.7,0],"scale":[4.752,0.18,4.752]},{"name":"helipad-h1","mesh":4,"translation":[0,7.82,0],"scale":[2.816,0.04,0.5]},{"name":"helipad-h2","mesh":5,"translation":[0,7.83,0],"scale":[0.5,0.04,2.816]},{"name":"canopy","mesh":6,"translation":[0,5.264,8.5666],"scale":[6.688,0.35,3.6925]},{"name":"canopy-post-0","mesh":7,"translation":[-2.6752,2.542,8.5666],"scale":[0.1,5.084,0.1]},{"name":"canopy-post-1","mesh":7,"translation":[2.6752,2.542,8.5666],"scale":[0.1,5.084,0.1]},{"name":"er-sign-back","mesh":8,"translation":[0,5.4144,7.535],"scale":[7.492,1.3,1]},{"name":"er-sign","mesh":9,"translation":[0,5.4144,7.564],"scale":[7.392,1.2,1]},{"name":"open-state-bollard","mesh":10,"translation":[7.568,0.425,8.2712],"scale":[0.22,0.85,0.22]},{"name":"foundation","mesh":11,"translation":[0,0.08,0],"scale":[19.8,0.16,16.97]},{"name":"er-block","mesh":12,"translation":[0,3.76,0],"scale":[17.6,7.52,14.77]},{"name":"emergency-wing","mesh":13,"translation":[6.688,2.7072,3.6925],"rotation":[0,0.059964,0,0.998201],"scale":[8.448,5.4144,7.6804]},{"name":"helipad","mesh":14,"translation":[0,7.7,0],"scale":[4.752,0.18,4.752]},{"name":"helipad-h1","mesh":15,"translation":[0,7.82,0],"scale":[2.816,0.04,0.5]},{"name":"helipad-h2","mesh":16,"translation":[0,7.83,0],"scale":[0.5,0.04,2.816]},{"name":"canopy","mesh":17,"translation":[0,5.264,8.5666],"scale":[6.688,0.35,3.6925]},{"name":"canopy-post-0","mesh":18,"translation":[-2.6752,2.542,8.5666],"scale":[0.1,5.084,0.1]},{"name":"canopy-post-1","mesh":18,"translation":[2.6752,2.542,8.5666],"scale":[0.1,5.084,0.1]},{"name":"er-sign-back","mesh":8,"translation":[0,5.4144,7.535],"scale":[7.492,1.3,1]},{"name":"er-sign","mesh":9,"translation":[0,5.4144,7.564],"scale":[7.392,1.2,1]},{"name":"open-state-bollard","mesh":19,"translation":[7.568,0.425,8.2712],"scale":[0.22,0.85,0.22]},{"name":"foundation","mesh":11,"translation":[0,0.08,0],"scale":[19.8,0.16,16.97]},{"name":"er-block","mesh":12,"translation":[0,3.76,0],"scale":[17.6,7.52,14.77]},{"name":"emergency-wing","mesh":13,"translation":[6.688,2.7072,3.6925],"rotation":[0,0.059964,0,0.998201],"scale":[8.448,5.4144,7.6804]},{"name":"helipad","mesh":20,"translation":[0,7.7,0],"scale":[4.752,0.18,4.752]},{"name":"helipad-h1","mesh":15,"translation":[0,7.82,0],"scale":[2.816,0.04,0.5]},{"name":"helipad-h2","mesh":16,"translation":[0,7.83,0],"scale":[0.5,0.04,2.816]},{"name":"canopy","mesh":17,"translation":[0,5.264,8.5666],"scale":[6.688,0.35,3.6925]},{"name":"canopy-post-0","mesh":18,"translation":[-2.6752,2.542,8.5666],"scale":[0.1,5.084,0.1]},{"name":"canopy-post-1","mesh":18,"translation":[2.6752,2.542,8.5666],"scale":[0.1,5.084,0.1]},{"name":"er-sign-back","mesh":8,"translation":[0,5.4144,7.535],"scale":[7.492,1.3,1]},{"name":"er-sign","mesh":9,"translation":[0,5.4144,7.564],"scale":[7.392,1.2,1]},{"name":"open-state-bollard","mesh":19,"translation":[7.568,0.425,8.2712],"scale":[0.22,0.85,0.22]}],"meshes":[{"primitives":[{"attributes":{"POSITION":0,"NORMAL":1,"TEXCOORD_0":2},"material":0,"mode":4}]},{"primitives":[{"attributes":{"POSITION":3,"NORMAL":1,"TEXCOORD_0":4},"material":1,"mode":4}]},{"primitives":[{"attributes":{"POSITION":5,"NORMAL":1,"TEXCOORD_0":6},"material":2,"mode":4}]},{"primitives":[{"attributes":{"POSITION":7,"NORMAL":8,"TEXCOORD_0":9},"material":0,"mode":4,"indices":10}]},{"primitives":[{"attributes":{"POSITION":0,"NORMAL":1,"TEXCOORD_0":11},"material":1,"mode":4}]},{"primitives":[{"attributes":{"POSITION":0,"NORMAL":1,"TEXCOORD_0":12},"material":1,"mode":4}]},{"primitives":[{"attributes":{"POSITION":0,"NORMAL":1,"TEXCOORD_0":13},"material":2,"mode":4}]},{"primitives":[{"attributes":{"POSITION":14,"NORMAL":15,"TEXCOORD_0":16},"material":3,"mode":4,"indices":17}]},{"primitives":[{"attributes":{"POSITION":18,"NORMAL":19,"TEXCOORD_0":20},"material":4,"mode":4,"indices":21}]},{"primitives":[{"attributes":{"POSITION":22,"NORMAL":23,"TEXCOORD_0":24},"material":5,"mode":4,"indices":25}]},{"primitives":[{"attributes":{"POSITION":0,"NORMAL":1,"TEXCOORD_0":26},"material":6,"mode":4}]},{"primitives":[{"attributes":{"POSITION":27,"NORMAL":19,"TEXCOORD_0":28},"material":0,"mode":4,"indices":21}]},{"primitives":[{"attributes":{"POSITION":27,"NORMAL":19,"TEXCOORD_0":29},"material":1,"mode":4,"indices":21}]},{"primitives":[{"attributes":{"POSITION":27,"NORMAL":19,"TEXCOORD_0":30},"material":2,"mode":4,"indices":21}]},{"primitives":[{"attributes":{"POSITION":31,"NORMAL":32,"TEXCOORD_0":33},"material":0,"mode":4,"indices":34}]},{"primitives":[{"attributes":{"POSITION":27,"NORMAL":19,"TEXCOORD_0":35},"material":1,"mode":4,"indices":21}]},{"primitives":[{"attributes":{"POSITION":27,"NORMAL":19,"TEXCOORD_0":36},"material":1,"mode":4,"indices":21}]},{"primitives":[{"attributes":{"POSITION":27,"NORMAL":19,"TEXCOORD_0":37},"material":2,"mode":4,"indices":21}]},{"primitives":[{"attributes":{"POSITION":38,"NORMAL":39,"TEXCOORD_0":40},"material":3,"mode":4,"indices":41}]},{"primitives":[{"attributes":{"POSITION":27,"NORMAL":19,"TEXCOORD_0":42},"material":6,"mode":4,"indices":21}]},{"primitives":[{"attributes":{"POSITION":38,"NORMAL":39,"TEXCOORD_0":43},"material":0,"mode":4,"indices":41}]}],"materials":[{"name":"concrete","pbrMetallicRoughness":{"baseColorTexture":{"index":0},"metallicRoughnessTexture":{"index":2},"roughnessFactor":1,"metallicFactor":1},"normalTexture":{"index":1,"scale":0.82},"occlusionTexture":{"index":2,"strength":0.35}},{"name":"paint-white","pbrMetallicRoughness":{"baseColorFactor":[0.7912979403281551,0.7681511472425809,0.6795424696265424,1],"roughnessFactor":0.68,"metallicFactor":0}},{"name":"brick-red","pbrMetallicRoughness":{"baseColorTexture":{"index":3},"metallicRoughnessTexture":{"index":5},"roughnessFactor":1,"metallicFactor":1},"normalTexture":{"index":4,"scale":1.15},"occlusionTexture":{"index":5,"strength":0.35}},{"name":"metal-galvanized","pbrMetallicRoughness":{"baseColorTexture":{"index":6},"metallicRoughnessTexture":{"index":8},"roughnessFactor":1,"metallicFactor":1},"normalTexture":{"index":7,"scale":0.15},"occlusionTexture":{"index":8,"strength":0.35}},{"name":"metal-dark","pbrMetallicRoughness":{"baseColorTexture":{"index":9},"metallicRoughnessTexture":{"index":11},"roughnessFactor":1,"metallicFactor":1},"normalTexture":{"index":10,"scale":0.35},"occlusionTexture":{"index":11,"strength":0.35}},{"name":"wallet-er signage","pbrMetallicRoughness":{"baseColorTexture":{"index":12},"roughnessFactor":1,"metallicFactor":0},"extensions":{"KHR_materials_unlit":{}}},{"name":"paint-red","pbrMetallicRoughness":{"baseColorFactor":[0.46778379610254284,0.08021982030622662,0.05126945836711539,1],"roughnessFactor":0.62,"metallicFactor":0.05}}],"textures":[{"source":0,"sampler":0},{"source":1,"sampler":0},{"source":2,"sampler":0},{"source":3,"sampler":0},{"source":4,"sampler":0},{"source":5,"sampler":0},{"source":6,"sampler":0},{"source":7,"sampler":0},{"source":8,"sampler":0},{"source":9,"sampler":0},{"source":10,"sampler":0},{"source":11,"sampler":0},{"source":12,"sampler":0}],"images":[{"uri":"../textures/concrete-albedo.png"},{"uri":"../textures/concrete-normal.png"},{"uri":"../textures/concrete-orm.png"},{"uri":"../textures/brick-red-albedo.png"},{"uri":"../textures/brick-red-normal.png"},{"uri":"../textures/brick-red-orm.png"},{"uri":"../textures/metal-galvanized-albedo.png"},{"uri":"../textures/metal-galvanized-normal.png"},{"uri":"../textures/metal-galvanized-orm.png"},{"uri":"../textures/metal-dark-albedo.png"},{"uri":"../textures/metal-dark-normal.png"},{"uri":"../textures/metal-dark-orm.png"},{"uri":"../signs/wallet-er.png"}],"samplers":[{"magFilter":9729,"minFilter":9987,"wrapS":10497,"wrapT":10497}],"buffers":[{"uri":"../shared/geometry.bin","byteLength":16435520}],"bufferViews":[{"buffer":0,"byteOffset":0,"byteLength":3888,"target":34962},{"buffer":0,"byteOffset":3888,"byteLength":3888,"target":34962},{"buffer":0,"byteOffset":15811628,"byteLength":2592,"target":34962},{"buffer":0,"byteOffset":19136,"byteLength":3888,"target":34962},{"buffer":0,"byteOffset":15814220,"byteLength":2592,"target":34962},{"buffer":0,"byteOffset":33392,"byteLength":3888,"target":34962},{"buffer":0,"byteOffset":15816812,"byteLength":2592,"target":34962},{"buffer":0,"byteOffset":5513568,"byteLength":1776,"target":34962},{"buffer":0,"byteOffset":5515344,"byteLength":1776,"target":34962},{"buffer":0,"byteOffset":15610284,"byteLength":1184,"target":34962},{"buffer":0,"byteOffset":5518304,"byteLength":576,"target":34963},{"buffer":0,"byteOffset":15611468,"byteLength":2592,"target":34962},{"buffer":0,"byteOffset":15614060,"byteLength":2592,"target":34962},{"buffer":0,"byteOffset":15819404,"byteLength":2592,"target":34962},{"buffer":0,"byteOffset":1110072,"byteLength":624,"target":34962},{"buffer":0,"byteOffset":1110696,"byteLength":624,"target":34962},{"buffer":0,"byteOffset":15619244,"byteLength":416,"target":34962},{"buffer":0,"byteOffset":1111736,"byteLength":192,"target":34963},{"buffer":0,"byteOffset":45664,"byteLength":288,"target":34962},{"buffer":0,"byteOffset":45952,"byteLength":288,"target":34962},{"buffer":0,"byteOffset":46240,"byteLength":192,"target":34962},{"buffer":0,"byteOffset":46432,"byteLength":72,"target":34963},{"buffer":0,"byteOffset":46504,"byteLength":48,"target":34962},{"buffer":0,"byteOffset":46552,"byteLength":48,"target":34962},{"buffer":0,"byteOffset":182532,"byteLength":32,"target":34962},{"buffer":0,"byteOffset":46632,"byteLength":12,"target":34963},{"buffer":0,"byteOffset":422312,"byteLength":2592,"target":34962},{"buffer":0,"byteOffset":46644,"byteLength":288,"target":34962},{"buffer":0,"byteOffset":15821996,"byteLength":192,"target":34962},{"buffer":0,"byteOffset":15822188,"byteLength":192,"target":34962},{"buffer":0,"byteOffset":15822380,"byteLength":192,"target":34962},{"buffer":0,"byteOffset":5526272,"byteLength":912,"target":34962},{"buffer":0,"byteOffset":5527184,"byteLength":912,"target":34962},{"buffer":0,"byteOffset":15620236,"byteLength":608,"target":34962},{"buffer":0,"byteOffset":387284,"byteLength":288,"target":34963},{"buffer":0,"byteOffset":15620844,"byteLength":192,"target":34962},{"buffer":0,"byteOffset":15621036,"byteLength":192,"target":34962},{"buffer":0,"byteOffset":15822572,"byteLength":192,"target":34962},{"buffer":0,"byteOffset":1112312,"byteLength":480,"target":34962},{"buffer":0,"byteOffset":1112792,"byteLength":480,"target":34962},{"buffer":0,"byteOffset":15621420,"byteLength":320,"target":34962},{"buffer":0,"byteOffset":48596,"byteLength":144,"target":34963},{"buffer":0,"byteOffset":436936,"byteLength":192,"target":34962},{"buffer":0,"byteOffset":15621740,"byteLength":320,"target":34962}],"accessors":[{"bufferView":0,"componentType":5126,"count":324,"type":"VEC3","min":[-0.5,-0.5,-0.5],"max":[0.5,0.5,0.5]},{"bufferView":1,"componentType":5126,"count":324,"type":"VEC3"},{"bufferView":2,"componentType":5126,"count":324,"type":"VEC2"},{"bufferView":3,"componentType":5126,"count":324,"type":"VEC3","min":[-0.5,-0.5,-0.5],"max":[0.5,0.5,0.5]},{"bufferView":4,"componentType":5126,"count":324,"type":"VEC2"},{"bufferView":5,"componentType":5126,"count":324,"type":"VEC3","min":[-0.5,-0.5,-0.5],"max":[0.5,0.5,0.5]},{"bufferView":6,"componentType":5126,"count":324,"type":"VEC2"},{"bufferView":7,"componentType":5126,"count":148,"type":"VEC3","min":[-1,-0.5,-1],"max":[1,0.5,1]},{"bufferView":8,"componentType":5126,"count":148,"type":"VEC3"},{"bufferView":9,"componentType":5126,"count":148,"type":"VEC2"},{"bufferView":10,"componentType":5123,"count":288,"type":"SCALAR"},{"bufferView":11,"componentType":5126,"count":324,"type":"VEC2"},{"bufferView":12,"componentType":5126,"count":324,"type":"VEC2"},{"bufferView":13,"componentType":5126,"count":324,"type":"VEC2"},{"bufferView":14,"componentType":5126,"count":52,"type":"VEC3","min":[-1,-0.5,-1],"max":[1,0.5,1]},{"bufferView":15,"componentType":5126,"count":52,"type":"VEC3"},{"bufferView":16,"componentType":5126,"count":52,"type":"VEC2"},{"bufferView":17,"componentType":5123,"count":96,"type":"SCALAR"},{"bufferView":18,"componentType":5126,"count":24,"type":"VEC3","min":[-0.5,-0.5,-0.02500000037252903],"max":[0.5,0.5,0.02500000037252903]},{"bufferView":19,"componentType":5126,"count":24,"type":"VEC3"},{"bufferView":20,"componentType":5126,"count":24,"type":"VEC2"},{"bufferView":21,"componentType":5123,"count":36,"type":"SCALAR"},{"bufferView":22,"componentType":5126,"count":4,"type":"VEC3","min":[-0.5,-0.5,0],"max":[0.5,0.5,0]},{"bufferView":23,"componentType":5126,"count":4,"type":"VEC3"},{"bufferView":24,"componentType":5126,"count":4,"type":"VEC2"},{"bufferView":25,"componentType":5123,"count":6,"type":"SCALAR"},{"bufferView":26,"componentType":5126,"count":324,"type":"VEC2"},{"bufferView":27,"componentType":5126,"count":24,"type":"VEC3","min":[-0.5,-0.5,-0.5],"max":[0.5,0.5,0.5]},{"bufferView":28,"componentType":5126,"count":24,"type":"VEC2"},{"bufferView":29,"componentType":5126,"count":24,"type":"VEC2"},{"bufferView":30,"componentType":5126,"count":24,"type":"VEC2"},{"bufferView":31,"componentType":5126,"count":76,"type":"VEC3","min":[-1,-0.5,-1],"max":[1,0.5,1]},{"bufferView":32,"componentType":5126,"count":76,"type":"VEC3"},{"bufferView":33,"componentType":5126,"count":76,"type":"VEC2"},{"bufferView":34,"componentType":5123,"count":144,"type":"SCALAR"},{"bufferView":35,"componentType":5126,"count":24,"type":"VEC2"},{"bufferView":36,"componentType":5126,"count":24,"type":"VEC2"},{"bufferView":37,"componentType":5126,"count":24,"type":"VEC2"},{"bufferView":38,"componentType":5126,"count":40,"type":"VEC3","min":[-0.8660253882408142,-0.5,-1],"max":[0.8660253882408142,0.5,1]},{"bufferView":39,"componentType":5126,"count":40,"type":"VEC3"},{"bufferView":40,"componentType":5126,"count":40,"type":"VEC2"},{"bufferView":41,"componentType":5123,"count":72,"type":"SCALAR"},{"bufferView":42,"componentType":5126,"count":24,"type":"VEC2"},{"bufferView":43,"componentType":5126,"count":40,"type":"VEC2"}],"extensionsUsed":["KHR_materials_unlit"],"extras":{"id":"vlt-wallet-er-16","family":"wallet-er","variant":15,"plan":"D1-1","units":"metres","up":"+Y","front":"+Z","lodScenes":[0,1,2]}}