{"asset":{"version":"2.0","generator":"SLOPMERICA Department of Unnecessary Development 1.0"},"scene":0,"scenes":[{"name":"LOD 0","nodes":[0,1,2,3,4,5,6,7,8,9,10,11,12,13,14,15],"extras":{"level":0}},{"name":"LOD 1","nodes":[16,17,18,19,20,21,22,23,24,25,26,27,28,29,30,31],"extras":{"level":1}},{"name":"LOD 2","nodes":[32,33,34,35,36,37,38,39,40,41,42],"extras":{"level":2}}],"nodes":[{"name":"site-pad","mesh":0,"translation":[0,0.06,0],"scale":[12.8128,0.12,3.328]},{"name":"variant-apron","mesh":1,"translation":[2.4024,0.13,1.82],"scale":[2.7104,0.08,1.34]},{"name":"bollard-0","mesh":2,"translation":[-4.6816,0.43,1.94],"scale":[0.08,0.74,0.08]},{"name":"layout-cabinet","mesh":3,"translation":[6.36,0.495,0.72],"scale":[0.81,0.75,0.32]},{"name":"left-pier","mesh":4,"translation":[-6.16,3.625,0],"scale":[0.55,7.05,0.55]},{"name":"right-pier","mesh":4,"translation":[6.16,3.625,0],"scale":[0.55,7.05,0.55]},{"name":"gantry-truss","mesh":5,"translation":[0,6.85,0],"scale":[12.87,0.48,0.55]},{"name":"lane-rate-0-back","mesh":6,"translation":[-2.2176,6.1,0.36],"scale":[1.8,1.3,1]},{"name":"lane-rate-0","mesh":7,"translation":[-2.2176,6.1,0.389],"scale":[1.7,1.2,1]},{"name":"lane-rate-1-back","mesh":6,"translation":[2.2176,6.1,0.36],"scale":[1.8,1.3,1]},{"name":"lane-rate-1","mesh":7,"translation":[2.2176,6.1,0.389],"scale":[1.7,1.2,1]},{"name":"camera-0","mesh":8,"translation":[-2.1,7.23,0],"rotation":[0.707107,0,0,0.707107],"scale":[0.16,0.35,0.16]},{"name":"camera-1","mesh":8,"translation":[-0.7,7.23,0],"rotation":[0.707107,0,0,0.707107],"scale":[0.16,0.35,0.16]},{"name":"camera-2","mesh":8,"translation":[0.7,7.23,0],"rotation":[0.707107,0,0,0.707107],"scale":[0.16,0.35,0.16]},{"name":"camera-3","mesh":8,"translation":[2.1,7.23,0],"rotation":[0.707107,0,0,0.707107],"scale":[0.16,0.35,0.16]},{"name":"camera-4","mesh":8,"translation":[3.5,7.23,0],"rotation":[0.707107,0,0,0.707107],"scale":[0.16,0.35,0.16]},{"name":"site-pad","mesh":9,"translation":[0,0.06,0],"scale":[12.8128,0.12,3.328]},{"name":"variant-apron","mesh":10,"translation":[2.4024,0.13,1.82],"scale":[2.7104,0.08,1.34]},{"name":"bollard-0","mesh":11,"translation":[-4.6816,0.43,1.94],"scale":[0.08,0.74,0.08]},{"name":"layout-cabinet","mesh":12,"translation":[6.36,0.495,0.72],"scale":[0.81,0.75,0.32]},{"name":"left-pier","mesh":13,"translation":[-6.16,3.625,0],"scale":[0.55,7.05,0.55]},{"name":"right-pier","mesh":13,"translation":[6.16,3.625,0],"scale":[0.55,7.05,0.55]},{"name":"gantry-truss","mesh":14,"translation":[0,6.85,0],"scale":[12.87,0.48,0.55]},{"name":"lane-rate-0-back","mesh":6,"translation":[-2.2176,6.1,0.36],"scale":[1.8,1.3,1]},{"name":"lane-rate-0","mesh":7,"translation":[-2.2176,6.1,0.389],"scale":[1.7,1.2,1]},{"name":"lane-rate-1-back","mesh":6,"translation":[2.2176,6.1,0.36],"scale":[1.8,1.3,1]},{"name":"lane-rate-1","mesh":7,"translation":[2.2176,6.1,0.389],"scale":[1.7,1.2,1]},{"name":"camera-0","mesh":15,"translation":[-2.1,7.23,0],"rotation":[0.707107,0,0,0.707107],"scale":[0.16,0.35,0.16]},{"name":"camera-1","mesh":15,"translation":[-0.7,7.23,0],"rotation":[0.707107,0,0,0.707107],"scale":[0.16,0.35,0.16]},{"name":"camera-2","mesh":15,"translation":[0.7,7.23,0],"rotation":[0.707107,0,0,0.707107],"scale":[0.16,0.35,0.16]},{"name":"camera-3","mesh":15,"translation":[2.1,7.23,0],"rotation":[0.707107,0,0,0.707107],"scale":[0.16,0.35,0.16]},{"name":"camera-4","mesh":15,"translation":[3.5,7.23,0],"rotation":[0.707107,0,0,0.707107],"scale":[0.16,0.35,0.16]},{"name":"site-pad","mesh":9,"translation":[0,0.06,0],"scale":[12.8128,0.12,3.328]},{"name":"variant-apron","mesh":10,"translation":[2.4024,0.13,1.82],"scale":[2.7104,0.08,1.34]},{"name":"bollard-0","mesh":11,"translation":[-4.6816,0.43,1.94],"scale":[0.08,0.74,0.08]},{"name":"layout-cabinet","mesh":12,"translation":[6.36,0.495,0.72],"scale":[0.81,0.75,0.32]},{"name":"left-pier","mesh":13,"translation":[-6.16,3.625,0],"scale":[0.55,7.05,0.55]},{"name":"right-pier","mesh":13,"translation":[6.16,3.625,0],"scale":[0.55,7.05,0.55]},{"name":"gantry-truss","mesh":14,"translation":[0,6.85,0],"scale":[12.87,0.48,0.55]},{"name":"lane-rate-0-back","mesh":6,"translation":[-2.2176,6.1,0.36],"scale":[1.8,1.3,1]},{"name":"lane-rate-0","mesh":7,"translation":[-2.2176,6.1,0.389],"scale":[1.7,1.2,1]},{"name":"lane-rate-1-back","mesh":6,"translation":[2.2176,6.1,0.36],"scale":[1.8,1.3,1]},{"name":"lane-rate-1","mesh":7,"translation":[2.2176,6.1,0.389],"scale":[1.7,1.2,1]}],"meshes":[{"primitives":[{"attributes":{"POSITION":0,"NORMAL":1,"TEXCOORD_0":2},"material":0,"mode":4}]},{"primitives":[{"attributes":{"POSITION":0,"NORMAL":1,"TEXCOORD_0":3},"material":0,"mode":4}]},{"primitives":[{"attributes":{"POSITION":4,"NORMAL":5,"TEXCOORD_0":6},"material":1,"mode":4,"indices":7}]},{"primitives":[{"attributes":{"POSITION":0,"NORMAL":1,"TEXCOORD_0":8},"material":2,"mode":4}]},{"primitives":[{"attributes":{"POSITION":0,"NORMAL":1,"TEXCOORD_0":9},"material":2,"mode":4}]},{"primitives":[{"attributes":{"POSITION":0,"NORMAL":1,"TEXCOORD_0":10},"material":2,"mode":4}]},{"primitives":[{"attributes":{"POSITION":11,"NORMAL":12,"TEXCOORD_0":13},"material":3,"mode":4,"indices":14}]},{"primitives":[{"attributes":{"POSITION":15,"NORMAL":16,"TEXCOORD_0":17},"material":4,"mode":4,"indices":18}]},{"primitives":[{"attributes":{"POSITION":19,"NORMAL":20,"TEXCOORD_0":21},"material":3,"mode":4,"indices":7}]},{"primitives":[{"attributes":{"POSITION":22,"NORMAL":12,"TEXCOORD_0":23},"material":0,"mode":4,"indices":14}]},{"primitives":[{"attributes":{"POSITION":22,"NORMAL":12,"TEXCOORD_0":24},"material":0,"mode":4,"indices":14}]},{"primitives":[{"attributes":{"POSITION":25,"NORMAL":26,"TEXCOORD_0":27},"material":1,"mode":4,"indices":28}]},{"primitives":[{"attributes":{"POSITION":22,"NORMAL":12,"TEXCOORD_0":29},"material":2,"mode":4,"indices":14}]},{"primitives":[{"attributes":{"POSITION":22,"NORMAL":12,"TEXCOORD_0":30},"material":2,"mode":4,"indices":14}]},{"primitives":[{"attributes":{"POSITION":22,"NORMAL":12,"TEXCOORD_0":31},"material":2,"mode":4,"indices":14}]},{"primitives":[{"attributes":{"POSITION":32,"NORMAL":33,"TEXCOORD_0":34},"material":3,"mode":4,"indices":28}]}],"materials":[{"name":"asphalt","pbrMetallicRoughness":{"baseColorTexture":{"index":0},"metallicRoughnessTexture":{"index":2},"roughnessFactor":1,"metallicFactor":1},"normalTexture":{"index":1,"scale":0.62},"occlusionTexture":{"index":2,"strength":0.35}},{"name":"paint-yellow","pbrMetallicRoughness":{"baseColorFactor":[0.76052450467022,0.4793201830913402,0.07818742179702069,1],"roughnessFactor":0.66,"metallicFactor":0.03}},{"name":"metal-galvanized","pbrMetallicRoughness":{"baseColorTexture":{"index":3},"metallicRoughnessTexture":{"index":5},"roughnessFactor":1,"metallicFactor":1},"normalTexture":{"index":4,"scale":0.15},"occlusionTexture":{"index":5,"strength":0.35}},{"name":"metal-dark","pbrMetallicRoughness":{"baseColorTexture":{"index":6},"metallicRoughnessTexture":{"index":8},"roughnessFactor":1,"metallicFactor":1},"normalTexture":{"index":7,"scale":0.35},"occlusionTexture":{"index":8,"strength":0.35}},{"name":"express-lane-gantry signage","pbrMetallicRoughness":{"baseColorTexture":{"index":9},"roughnessFactor":1,"metallicFactor":0},"extensions":{"KHR_materials_unlit":{}}}],"textures":[{"source":0,"sampler":0},{"source":1,"sampler":0},{"source":2,"sampler":0},{"source":3,"sampler":0},{"source":4,"sampler":0},{"source":5,"sampler":0},{"source":6,"sampler":0},{"source":7,"sampler":0},{"source":8,"sampler":0},{"source":9,"sampler":0}],"images":[{"uri":"../textures/asphalt-albedo.png"},{"uri":"../textures/asphalt-normal.png"},{"uri":"../textures/asphalt-orm.png"},{"uri":"../textures/metal-galvanized-albedo.png"},{"uri":"../textures/metal-galvanized-normal.png"},{"uri":"../textures/metal-galvanized-orm.png"},{"uri":"../textures/metal-dark-albedo.png"},{"uri":"../textures/metal-dark-normal.png"},{"uri":"../textures/metal-dark-orm.png"},{"uri":"../signs/express-lane-gantry.png"}],"samplers":[{"magFilter":9729,"minFilter":9987,"wrapS":10497,"wrapT":10497}],"buffers":[{"uri":"../shared/geometry.bin","byteLength":16435520}],"bufferViews":[{"buffer":0,"byteOffset":0,"byteLength":3888,"target":34962},{"buffer":0,"byteOffset":3888,"byteLength":3888,"target":34962},{"buffer":0,"byteOffset":4336848,"byteLength":2592,"target":34962},{"buffer":0,"byteOffset":4419280,"byteLength":2592,"target":34962},{"buffer":0,"byteOffset":12960,"byteLength":1200,"target":34962},{"buffer":0,"byteOffset":14160,"byteLength":1200,"target":34962},{"buffer":0,"byteOffset":179140,"byteLength":800,"target":34962},{"buffer":0,"byteOffset":16160,"byteLength":384,"target":34963},{"buffer":0,"byteOffset":179940,"byteLength":2592,"target":34962},{"buffer":0,"byteOffset":4421872,"byteLength":2592,"target":34962},{"buffer":0,"byteOffset":4344624,"byteLength":2592,"target":34962},{"buffer":0,"byteOffset":45664,"byteLength":288,"target":34962},{"buffer":0,"byteOffset":45952,"byteLength":288,"target":34962},{"buffer":0,"byteOffset":46240,"byteLength":192,"target":34962},{"buffer":0,"byteOffset":46432,"byteLength":72,"target":34963},{"buffer":0,"byteOffset":46504,"byteLength":48,"target":34962},{"buffer":0,"byteOffset":46552,"byteLength":48,"target":34962},{"buffer":0,"byteOffset":182532,"byteLength":32,"target":34962},{"buffer":0,"byteOffset":46632,"byteLength":12,"target":34963},{"buffer":0,"byteOffset":4347216,"byteLength":1200,"target":34962},{"buffer":0,"byteOffset":4348416,"byteLength":1200,"target":34962},{"buffer":0,"byteOffset":4349616,"byteLength":800,"target":34962},{"buffer":0,"byteOffset":46644,"byteLength":288,"target":34962},{"buffer":0,"byteOffset":4350416,"byteLength":192,"target":34962},{"buffer":0,"byteOffset":4424464,"byteLength":192,"target":34962},{"buffer":0,"byteOffset":47316,"byteLength":480,"target":34962},{"buffer":0,"byteOffset":47796,"byteLength":480,"target":34962},{"buffer":0,"byteOffset":182756,"byteLength":320,"target":34962},{"buffer":0,"byteOffset":48596,"byteLength":144,"target":34963},{"buffer":0,"byteOffset":183076,"byteLength":192,"target":34962},{"buffer":0,"byteOffset":4424656,"byteLength":192,"target":34962},{"buffer":0,"byteOffset":4350992,"byteLength":192,"target":34962},{"buffer":0,"byteOffset":4351184,"byteLength":480,"target":34962},{"buffer":0,"byteOffset":4351664,"byteLength":480,"target":34962},{"buffer":0,"byteOffset":4352144,"byteLength":320,"target":34962}],"accessors":[{"bufferView":0,"componentType":5126,"count":324,"type":"VEC3","min":[-0.5,-0.5,-0.5],"max":[0.5,0.5,0.5]},{"bufferView":1,"componentType":5126,"count":324,"type":"VEC3"},{"bufferView":2,"componentType":5126,"count":324,"type":"VEC2"},{"bufferView":3,"componentType":5126,"count":324,"type":"VEC2"},{"bufferView":4,"componentType":5126,"count":100,"type":"VEC3","min":[-1,-0.5,-1],"max":[1,0.5,1]},{"bufferView":5,"componentType":5126,"count":100,"type":"VEC3"},{"bufferView":6,"componentType":5126,"count":100,"type":"VEC2"},{"bufferView":7,"componentType":5123,"count":192,"type":"SCALAR"},{"bufferView":8,"componentType":5126,"count":324,"type":"VEC2"},{"bufferView":9,"componentType":5126,"count":324,"type":"VEC2"},{"bufferView":10,"componentType":5126,"count":324,"type":"VEC2"},{"bufferView":11,"componentType":5126,"count":24,"type":"VEC3","min":[-0.5,-0.5,-0.02500000037252903],"max":[0.5,0.5,0.02500000037252903]},{"bufferView":12,"componentType":5126,"count":24,"type":"VEC3"},{"bufferView":13,"componentType":5126,"count":24,"type":"VEC2"},{"bufferView":14,"componentType":5123,"count":36,"type":"SCALAR"},{"bufferView":15,"componentType":5126,"count":4,"type":"VEC3","min":[-0.5,-0.5,0],"max":[0.5,0.5,0]},{"bufferView":16,"componentType":5126,"count":4,"type":"VEC3"},{"bufferView":17,"componentType":5126,"count":4,"type":"VEC2"},{"bufferView":18,"componentType":5123,"count":6,"type":"SCALAR"},{"bufferView":19,"componentType":5126,"count":100,"type":"VEC3","min":[-1,-0.5,-1],"max":[1,0.5,1]},{"bufferView":20,"componentType":5126,"count":100,"type":"VEC3"},{"bufferView":21,"componentType":5126,"count":100,"type":"VEC2"},{"bufferView":22,"componentType":5126,"count":24,"type":"VEC3","min":[-0.5,-0.5,-0.5],"max":[0.5,0.5,0.5]},{"bufferView":23,"componentType":5126,"count":24,"type":"VEC2"},{"bufferView":24,"componentType":5126,"count":24,"type":"VEC2"},{"bufferView":25,"componentType":5126,"count":40,"type":"VEC3","min":[-0.8660253882408142,-0.5,-1],"max":[0.8660253882408142,0.5,1]},{"bufferView":26,"componentType":5126,"count":40,"type":"VEC3"},{"bufferView":27,"componentType":5126,"count":40,"type":"VEC2"},{"bufferView":28,"componentType":5123,"count":72,"type":"SCALAR"},{"bufferView":29,"componentType":5126,"count":24,"type":"VEC2"},{"bufferView":30,"componentType":5126,"count":24,"type":"VEC2"},{"bufferView":31,"componentType":5126,"count":24,"type":"VEC2"},{"bufferView":32,"componentType":5126,"count":40,"type":"VEC3","min":[-0.8660253882408142,-0.5,-1],"max":[0.8660253882408142,0.5,1]},{"bufferView":33,"componentType":5126,"count":40,"type":"VEC3"},{"bufferView":34,"componentType":5126,"count":40,"type":"VEC2"}],"extensionsUsed":["KHR_materials_unlit"],"extras":{"id":"vlt-express-lane-gantry-16","family":"express-lane-gantry","variant":15,"plan":"D1-1","units":"metres","up":"+Y","front":"+Z","lodScenes":[0,1,2]}}