{"asset":{"version":"2.0","generator":"SLOPMERICA Department of Unnecessary Development 1.0"},"scene":0,"scenes":[{"name":"LOD 0","nodes":[0,1,2,3,4,5,6,7,8,9,10,11,12,13,14,15,16,17,18,19,20,21,22,23,24,25,26,27,28,29,30,31,32],"extras":{"level":0}},{"name":"LOD 1","nodes":[33,34,35,36,37,38,39,40,41,42,43,44,45,46,47,48,49,50,51,52,53,54,55,56,57,58,59,60,61,62,63,64,65],"extras":{"level":1}},{"name":"LOD 2","nodes":[66,67,68,69,70,71,72,73,74,75,76,77,78,79,80,81],"extras":{"level":2}}],"nodes":[{"name":"site-pad","mesh":0,"translation":[0,0.06,0],"scale":[15.1424,0.12,10.4832]},{"name":"variant-apron","mesh":1,"translation":[-2.8392,0.13,5.26],"scale":[4.2952,0.08,0.8]},{"name":"bollard-0","mesh":2,"translation":[-5.5328,0.43,5.38],"scale":[0.08,0.62,0.08]},{"name":"bollard-1","mesh":2,"translation":[-1.844267,0.43,5.38],"scale":[0.08,0.62,0.08]},{"name":"bollard-2","mesh":2,"translation":[1.844267,0.43,5.38],"scale":[0.08,0.62,0.08]},{"name":"bollard-3","mesh":2,"translation":[5.5328,0.43,5.38],"scale":[0.08,0.62,0.08]},{"name":"layout-cabinet","mesh":3,"translation":[-7.48,0.585,-2.268],"scale":[0.45,0.93,0.32]},{"name":"deferred-maintenance-skip","mesh":4,"translation":[4.9504,0.5,-4.4352],"scale":[1.51,0.75,0.65]},{"name":"skip-rubble","mesh":5,"translation":[4.9504,0.98,-4.4352],"scale":[0.72,0.2,0.5]},{"name":"industrial-shell","mesh":6,"translation":[0,2.7075,0],"scale":[14.56,5.175,10.08]},{"name":"industrial-roof","mesh":7,"translation":[0,5.445,0],"scale":[14.91,0.28,10.43]},{"name":"loading-bay-0","mesh":8,"translation":[-5.5328,1.38,5.16],"scale":[2.2,2.5,0.16]},{"name":"dock-0","mesh":9,"translation":[-5.5328,0.35,5.62],"scale":[1.8,0.45,1]},{"name":"loading-bay-1","mesh":8,"translation":[-2.7664,1.38,5.16],"scale":[2.2,2.5,0.16]},{"name":"dock-1","mesh":9,"translation":[-2.7664,0.35,5.62],"scale":[1.8,0.45,1]},{"name":"loading-bay-2","mesh":8,"translation":[0,1.38,5.16],"scale":[2.2,2.5,0.16]},{"name":"dock-2","mesh":9,"translation":[0,0.35,5.62],"scale":[1.8,0.45,1]},{"name":"loading-bay-3","mesh":8,"translation":[2.7664,1.38,5.16],"scale":[2.2,2.5,0.16]},{"name":"dock-3","mesh":9,"translation":[2.7664,0.35,5.62],"scale":[1.8,0.45,1]},{"name":"loading-bay-4","mesh":8,"translation":[5.5328,1.38,5.16],"scale":[2.2,2.5,0.16]},{"name":"dock-4","mesh":9,"translation":[5.5328,0.35,5.62],"scale":[1.8,0.45,1]},{"name":"stored-blade-0","mesh":10,"translation":[-5.096,0.55,-7.44],"scale":[0.32,0.55,7]},{"name":"stored-blade-1","mesh":10,"translation":[-2.548,0.55,-7.44],"rotation":[0,-0.039989,0,0.9992],"scale":[0.32,0.55,7]},{"name":"stored-blade-2","mesh":10,"translation":[0,0.55,-7.44],"rotation":[0,-0.079915,0,0.996802],"scale":[0.32,0.55,7]},{"name":"stored-blade-3","mesh":10,"translation":[2.548,0.55,-7.44],"rotation":[0,-0.119712,0,0.992809],"scale":[0.32,0.55,7]},{"name":"stored-blade-4","mesh":10,"translation":[5.096,0.55,-7.44],"rotation":[0,-0.159318,0,0.987227],"scale":[0.32,0.55,7]},{"name":"demo-tower","mesh":11,"translation":[-5.096,8.175,0],"scale":[0.55,9.65,0.55]},{"name":"demo-hub","mesh":12,"translation":[-5.096,13.825,0.45],"scale":[0.42,0.42,0.55]},{"name":"demo-blade-0","mesh":13,"translation":[-3.746,13.825,0.5],"scale":[0.16,3,0.25]},{"name":"demo-blade-1","mesh":13,"translation":[-5.771,14.994134,0.5],"rotation":[0,0,-0.866025,0.5],"scale":[0.16,3,0.25]},{"name":"demo-blade-2","mesh":13,"translation":[-5.771,12.655866,0.5],"rotation":[0,0,0.866025,0.5],"scale":[0.16,3,0.25]},{"name":"wind-sign-back","mesh":14,"translation":[0,4.375,5.22],"scale":[4.4,1,1]},{"name":"wind-sign","mesh":15,"translation":[0,4.375,5.249],"scale":[4.3,0.9,1]},{"name":"site-pad","mesh":16,"translation":[0,0.06,0],"scale":[15.1424,0.12,10.4832]},{"name":"variant-apron","mesh":17,"translation":[-2.8392,0.13,5.26],"scale":[4.2952,0.08,0.8]},{"name":"bollard-0","mesh":18,"translation":[-5.5328,0.43,5.38],"scale":[0.08,0.62,0.08]},{"name":"bollard-1","mesh":18,"translation":[-1.844267,0.43,5.38],"scale":[0.08,0.62,0.08]},{"name":"bollard-2","mesh":18,"translation":[1.844267,0.43,5.38],"scale":[0.08,0.62,0.08]},{"name":"bollard-3","mesh":18,"translation":[5.5328,0.43,5.38],"scale":[0.08,0.62,0.08]},{"name":"layout-cabinet","mesh":19,"translation":[-7.48,0.585,-2.268],"scale":[0.45,0.93,0.32]},{"name":"deferred-maintenance-skip","mesh":20,"translation":[4.9504,0.5,-4.4352],"scale":[1.51,0.75,0.65]},{"name":"skip-rubble","mesh":21,"translation":[4.9504,0.98,-4.4352],"scale":[0.72,0.2,0.5]},{"name":"industrial-shell","mesh":22,"translation":[0,2.7075,0],"scale":[14.56,5.175,10.08]},{"name":"industrial-roof","mesh":23,"translation":[0,5.445,0],"scale":[14.91,0.28,10.43]},{"name":"loading-bay-0","mesh":24,"translation":[-5.5328,1.38,5.16],"scale":[2.2,2.5,0.16]},{"name":"dock-0","mesh":25,"translation":[-5.5328,0.35,5.62],"scale":[1.8,0.45,1]},{"name":"loading-bay-1","mesh":24,"translation":[-2.7664,1.38,5.16],"scale":[2.2,2.5,0.16]},{"name":"dock-1","mesh":25,"translation":[-2.7664,0.35,5.62],"scale":[1.8,0.45,1]},{"name":"loading-bay-2","mesh":24,"translation":[0,1.38,5.16],"scale":[2.2,2.5,0.16]},{"name":"dock-2","mesh":25,"translation":[0,0.35,5.62],"scale":[1.8,0.45,1]},{"name":"loading-bay-3","mesh":24,"translation":[2.7664,1.38,5.16],"scale":[2.2,2.5,0.16]},{"name":"dock-3","mesh":25,"translation":[2.7664,0.35,5.62],"scale":[1.8,0.45,1]},{"name":"loading-bay-4","mesh":24,"translation":[5.5328,1.38,5.16],"scale":[2.2,2.5,0.16]},{"name":"dock-4","mesh":25,"translation":[5.5328,0.35,5.62],"scale":[1.8,0.45,1]},{"name":"stored-blade-0","mesh":26,"translation":[-5.096,0.55,-7.44],"scale":[0.32,0.55,7]},{"name":"stored-blade-1","mesh":26,"translation":[-2.548,0.55,-7.44],"rotation":[0,-0.039989,0,0.9992],"scale":[0.32,0.55,7]},{"name":"stored-blade-2","mesh":26,"translation":[0,0.55,-7.44],"rotation":[0,-0.079915,0,0.996802],"scale":[0.32,0.55,7]},{"name":"stored-blade-3","mesh":26,"translation":[2.548,0.55,-7.44],"rotation":[0,-0.119712,0,0.992809],"scale":[0.32,0.55,7]},{"name":"stored-blade-4","mesh":26,"translation":[5.096,0.55,-7.44],"rotation":[0,-0.159318,0,0.987227],"scale":[0.32,0.55,7]},{"name":"demo-tower","mesh":27,"translation":[-5.096,8.175,0],"scale":[0.55,9.65,0.55]},{"name":"demo-hub","mesh":28,"translation":[-5.096,13.825,0.45],"scale":[0.42,0.42,0.55]},{"name":"demo-blade-0","mesh":29,"translation":[-3.746,13.825,0.5],"scale":[0.16,3,0.25]},{"name":"demo-blade-1","mesh":29,"translation":[-5.771,14.994134,0.5],"rotation":[0,0,-0.866025,0.5],"scale":[0.16,3,0.25]},{"name":"demo-blade-2","mesh":29,"translation":[-5.771,12.655866,0.5],"rotation":[0,0,0.866025,0.5],"scale":[0.16,3,0.25]},{"name":"wind-sign-back","mesh":14,"translation":[0,4.375,5.22],"scale":[4.4,1,1]},{"name":"wind-sign","mesh":15,"translation":[0,4.375,5.249],"scale":[4.3,0.9,1]},{"name":"site-pad","mesh":16,"translation":[0,0.06,0],"scale":[15.1424,0.12,10.4832]},{"name":"variant-apron","mesh":17,"translation":[-2.8392,0.13,5.26],"scale":[4.2952,0.08,0.8]},{"name":"bollard-0","mesh":18,"translation":[-5.5328,0.43,5.38],"scale":[0.08,0.62,0.08]},{"name":"layout-cabinet","mesh":19,"translation":[-7.48,0.585,-2.268],"scale":[0.45,0.93,0.32]},{"name":"deferred-maintenance-skip","mesh":20,"translation":[4.9504,0.5,-4.4352],"scale":[1.51,0.75,0.65]},{"name":"industrial-shell","mesh":22,"translation":[0,2.7075,0],"scale":[14.56,5.175,10.08]},{"name":"industrial-roof","mesh":23,"translation":[0,5.445,0],"scale":[14.91,0.28,10.43]},{"name":"loading-bay-0","mesh":24,"translation":[-5.5328,1.38,5.16],"scale":[2.2,2.5,0.16]},{"name":"loading-bay-1","mesh":24,"translation":[5.5328,1.38,5.16],"scale":[2.2,2.5,0.16]},{"name":"stored-blade-0","mesh":26,"translation":[-5.096,0.55,-7.44],"scale":[0.32,0.55,7]},{"name":"demo-tower","mesh":27,"translation":[-5.096,8.175,0],"scale":[0.55,9.65,0.55]},{"name":"demo-hub","mesh":30,"translation":[-5.096,13.825,0.45],"scale":[0.42,0.42,0.55]},{"name":"demo-blade-0","mesh":29,"translation":[-3.746,13.825,0.5],"scale":[0.16,3,0.25]},{"name":"demo-blade-1","mesh":29,"translation":[-6.446,13.825,0.5],"rotation":[0,0,1,0],"scale":[0.16,3,0.25]},{"name":"wind-sign-back","mesh":14,"translation":[0,4.375,5.22],"scale":[4.4,1,1]},{"name":"wind-sign","mesh":15,"translation":[0,4.375,5.249],"scale":[4.3,0.9,1]}],"meshes":[{"primitives":[{"attributes":{"POSITION":0,"NORMAL":1,"TEXCOORD_0":2},"material":0,"mode":4}]},{"primitives":[{"attributes":{"POSITION":0,"NORMAL":1,"TEXCOORD_0":3},"material":0,"mode":4}]},{"primitives":[{"attributes":{"POSITION":4,"NORMAL":5,"TEXCOORD_0":6},"material":1,"mode":4,"indices":7}]},{"primitives":[{"attributes":{"POSITION":0,"NORMAL":1,"TEXCOORD_0":8},"material":2,"mode":4}]},{"primitives":[{"attributes":{"POSITION":0,"NORMAL":1,"TEXCOORD_0":9},"material":1,"mode":4}]},{"primitives":[{"attributes":{"POSITION":0,"NORMAL":1,"TEXCOORD_0":10},"material":3,"mode":4}]},{"primitives":[{"attributes":{"POSITION":11,"NORMAL":1,"TEXCOORD_0":12},"material":4,"mode":4}]},{"primitives":[{"attributes":{"POSITION":0,"NORMAL":1,"TEXCOORD_0":13},"material":5,"mode":4}]},{"primitives":[{"attributes":{"POSITION":0,"NORMAL":1,"TEXCOORD_0":14},"material":6,"mode":4}]},{"primitives":[{"attributes":{"POSITION":0,"NORMAL":1,"TEXCOORD_0":15},"material":3,"mode":4}]},{"primitives":[{"attributes":{"POSITION":0,"NORMAL":1,"TEXCOORD_0":16},"material":4,"mode":4}]},{"primitives":[{"attributes":{"POSITION":17,"NORMAL":18,"TEXCOORD_0":19},"material":4,"mode":4,"indices":7}]},{"primitives":[{"attributes":{"POSITION":20,"NORMAL":20,"TEXCOORD_0":21},"material":6,"mode":4,"indices":22}]},{"primitives":[{"attributes":{"POSITION":0,"NORMAL":1,"TEXCOORD_0":23},"material":4,"mode":4}]},{"primitives":[{"attributes":{"POSITION":24,"NORMAL":25,"TEXCOORD_0":26},"material":6,"mode":4,"indices":27}]},{"primitives":[{"attributes":{"POSITION":28,"NORMAL":29,"TEXCOORD_0":30},"material":7,"mode":4,"indices":31}]},{"primitives":[{"attributes":{"POSITION":32,"NORMAL":25,"TEXCOORD_0":33},"material":0,"mode":4,"indices":27}]},{"primitives":[{"attributes":{"POSITION":32,"NORMAL":25,"TEXCOORD_0":34},"material":0,"mode":4,"indices":27}]},{"primitives":[{"attributes":{"POSITION":35,"NORMAL":36,"TEXCOORD_0":37},"material":1,"mode":4,"indices":38}]},{"primitives":[{"attributes":{"POSITION":32,"NORMAL":25,"TEXCOORD_0":39},"material":2,"mode":4,"indices":27}]},{"primitives":[{"attributes":{"POSITION":32,"NORMAL":25,"TEXCOORD_0":40},"material":1,"mode":4,"indices":27}]},{"primitives":[{"attributes":{"POSITION":32,"NORMAL":25,"TEXCOORD_0":41},"material":3,"mode":4,"indices":27}]},{"primitives":[{"attributes":{"POSITION":32,"NORMAL":25,"TEXCOORD_0":42},"material":4,"mode":4,"indices":27}]},{"primitives":[{"attributes":{"POSITION":32,"NORMAL":25,"TEXCOORD_0":43},"material":5,"mode":4,"indices":27}]},{"primitives":[{"attributes":{"POSITION":32,"NORMAL":25,"TEXCOORD_0":44},"material":6,"mode":4,"indices":27}]},{"primitives":[{"attributes":{"POSITION":32,"NORMAL":25,"TEXCOORD_0":45},"material":3,"mode":4,"indices":27}]},{"primitives":[{"attributes":{"POSITION":32,"NORMAL":25,"TEXCOORD_0":46},"material":4,"mode":4,"indices":27}]},{"primitives":[{"attributes":{"POSITION":47,"NORMAL":48,"TEXCOORD_0":49},"material":4,"mode":4,"indices":38}]},{"primitives":[{"attributes":{"POSITION":50,"NORMAL":50,"TEXCOORD_0":51},"material":6,"mode":4,"indices":52}]},{"primitives":[{"attributes":{"POSITION":32,"NORMAL":25,"TEXCOORD_0":53},"material":4,"mode":4,"indices":27}]},{"primitives":[{"attributes":{"POSITION":54,"NORMAL":54,"TEXCOORD_0":55},"material":6,"mode":4,"indices":56}]}],"materials":[{"name":"asphalt","pbrMetallicRoughness":{"baseColorTexture":{"index":0},"metallicRoughnessTexture":{"index":2},"roughnessFactor":1,"metallicFactor":1},"normalTexture":{"index":1,"scale":0.62},"occlusionTexture":{"index":2,"strength":0.35}},{"name":"paint-orange","pbrMetallicRoughness":{"baseColorFactor":[0.6444796819634361,0.1878207722902346,0.040915196900556984,1],"roughnessFactor":0.68,"metallicFactor":0.03}},{"name":"metal-galvanized","pbrMetallicRoughness":{"baseColorTexture":{"index":3},"metallicRoughnessTexture":{"index":5},"roughnessFactor":1,"metallicFactor":1},"normalTexture":{"index":4,"scale":0.15},"occlusionTexture":{"index":5,"strength":0.35}},{"name":"concrete","pbrMetallicRoughness":{"baseColorTexture":{"index":6},"metallicRoughnessTexture":{"index":8},"roughnessFactor":1,"metallicFactor":1},"normalTexture":{"index":7,"scale":0.82},"occlusionTexture":{"index":8,"strength":0.35}},{"name":"paint-white","pbrMetallicRoughness":{"baseColorFactor":[0.7912979403281551,0.7681511472425809,0.6795424696265424,1],"roughnessFactor":0.68,"metallicFactor":0}},{"name":"roof-metal","pbrMetallicRoughness":{"baseColorTexture":{"index":9},"metallicRoughnessTexture":{"index":11},"roughnessFactor":1,"metallicFactor":1},"normalTexture":{"index":10,"scale":0.68},"occlusionTexture":{"index":11,"strength":0.35}},{"name":"metal-dark","pbrMetallicRoughness":{"baseColorTexture":{"index":12},"metallicRoughnessTexture":{"index":14},"roughnessFactor":1,"metallicFactor":1},"normalTexture":{"index":13,"scale":0.35},"occlusionTexture":{"index":14,"strength":0.35}},{"name":"wind-service-yard signage","pbrMetallicRoughness":{"baseColorTexture":{"index":15},"roughnessFactor":1,"metallicFactor":0},"extensions":{"KHR_materials_unlit":{}}}],"textures":[{"source":0,"sampler":0},{"source":1,"sampler":0},{"source":2,"sampler":0},{"source":3,"sampler":0},{"source":4,"sampler":0},{"source":5,"sampler":0},{"source":6,"sampler":0},{"source":7,"sampler":0},{"source":8,"sampler":0},{"source":9,"sampler":0},{"source":10,"sampler":0},{"source":11,"sampler":0},{"source":12,"sampler":0},{"source":13,"sampler":0},{"source":14,"sampler":0},{"source":15,"sampler":0}],"images":[{"uri":"../textures/asphalt-albedo.png"},{"uri":"../textures/asphalt-normal.png"},{"uri":"../textures/asphalt-orm.png"},{"uri":"../textures/metal-galvanized-albedo.png"},{"uri":"../textures/metal-galvanized-normal.png"},{"uri":"../textures/metal-galvanized-orm.png"},{"uri":"../textures/concrete-albedo.png"},{"uri":"../textures/concrete-normal.png"},{"uri":"../textures/concrete-orm.png"},{"uri":"../textures/roof-metal-albedo.png"},{"uri":"../textures/roof-metal-normal.png"},{"uri":"../textures/roof-metal-orm.png"},{"uri":"../textures/metal-dark-albedo.png"},{"uri":"../textures/metal-dark-normal.png"},{"uri":"../textures/metal-dark-orm.png"},{"uri":"../signs/wind-service-yard.png"}],"samplers":[{"magFilter":9729,"minFilter":9987,"wrapS":10497,"wrapT":10497}],"buffers":[{"uri":"../shared/geometry.bin","byteLength":16435520}],"bufferViews":[{"buffer":0,"byteOffset":0,"byteLength":3888,"target":34962},{"buffer":0,"byteOffset":3888,"byteLength":3888,"target":34962},{"buffer":0,"byteOffset":5999744,"byteLength":2592,"target":34962},{"buffer":0,"byteOffset":6002336,"byteLength":2592,"target":34962},{"buffer":0,"byteOffset":12960,"byteLength":1200,"target":34962},{"buffer":0,"byteOffset":14160,"byteLength":1200,"target":34962},{"buffer":0,"byteOffset":15360,"byteLength":800,"target":34962},{"buffer":0,"byteOffset":16160,"byteLength":384,"target":34963},{"buffer":0,"byteOffset":90020,"byteLength":2592,"target":34962},{"buffer":0,"byteOffset":216900,"byteLength":2592,"target":34962},{"buffer":0,"byteOffset":208260,"byteLength":2592,"target":34962},{"buffer":0,"byteOffset":19136,"byteLength":3888,"target":34962},{"buffer":0,"byteOffset":16305216,"byteLength":2592,"target":34962},{"buffer":0,"byteOffset":6007520,"byteLength":2592,"target":34962},{"buffer":0,"byteOffset":28208,"byteLength":2592,"target":34962},{"buffer":0,"byteOffset":30800,"byteLength":2592,"target":34962},{"buffer":0,"byteOffset":16286976,"byteLength":2592,"target":34962},{"buffer":0,"byteOffset":5071160,"byteLength":1200,"target":34962},{"buffer":0,"byteOffset":5072360,"byteLength":1200,"target":34962},{"buffer":0,"byteOffset":16307808,"byteLength":800,"target":34962},{"buffer":0,"byteOffset":6080864,"byteLength":3276,"target":34962},{"buffer":0,"byteOffset":16290368,"byteLength":2184,"target":34962},{"buffer":0,"byteOffset":6086324,"byteLength":2640,"target":34963},{"buffer":0,"byteOffset":16292552,"byteLength":2592,"target":34962},{"buffer":0,"byteOffset":45664,"byteLength":288,"target":34962},{"buffer":0,"byteOffset":45952,"byteLength":288,"target":34962},{"buffer":0,"byteOffset":46240,"byteLength":192,"target":34962},{"buffer":0,"byteOffset":46432,"byteLength":72,"target":34963},{"buffer":0,"byteOffset":46504,"byteLength":48,"target":34962},{"buffer":0,"byteOffset":46552,"byteLength":48,"target":34962},{"buffer":0,"byteOffset":219492,"byteLength":32,"target":34962},{"buffer":0,"byteOffset":46632,"byteLength":12,"target":34963},{"buffer":0,"byteOffset":46644,"byteLength":288,"target":34962},{"buffer":0,"byteOffset":6010112,"byteLength":192,"target":34962},{"buffer":0,"byteOffset":6010304,"byteLength":192,"target":34962},{"buffer":0,"byteOffset":47316,"byteLength":480,"target":34962},{"buffer":0,"byteOffset":47796,"byteLength":480,"target":34962},{"buffer":0,"byteOffset":48276,"byteLength":320,"target":34962},{"buffer":0,"byteOffset":48596,"byteLength":144,"target":34963},{"buffer":0,"byteOffset":100804,"byteLength":192,"target":34962},{"buffer":0,"byteOffset":219524,"byteLength":192,"target":34962},{"buffer":0,"byteOffset":211076,"byteLength":192,"target":34962},{"buffer":0,"byteOffset":16308608,"byteLength":192,"target":34962},{"buffer":0,"byteOffset":6010688,"byteLength":192,"target":34962},{"buffer":0,"byteOffset":49316,"byteLength":192,"target":34962},{"buffer":0,"byteOffset":49508,"byteLength":192,"target":34962},{"buffer":0,"byteOffset":16295336,"byteLength":192,"target":34962},{"buffer":0,"byteOffset":5086408,"byteLength":480,"target":34962},{"buffer":0,"byteOffset":5086888,"byteLength":480,"target":34962},{"buffer":0,"byteOffset":16308800,"byteLength":320,"target":34962},{"buffer":0,"byteOffset":6096692,"byteLength":1404,"target":34962},{"buffer":0,"byteOffset":16295848,"byteLength":936,"target":34962},{"buffer":0,"byteOffset":6099032,"byteLength":1008,"target":34963},{"buffer":0,"byteOffset":16296784,"byteLength":192,"target":34962},{"buffer":0,"byteOffset":6871440,"byteLength":648,"target":34962},{"buffer":0,"byteOffset":16296976,"byteLength":432,"target":34962},{"buffer":0,"byteOffset":6872520,"byteLength":384,"target":34963}],"accessors":[{"bufferView":0,"componentType":5126,"count":324,"type":"VEC3","min":[-0.5,-0.5,-0.5],"max":[0.5,0.5,0.5]},{"bufferView":1,"componentType":5126,"count":324,"type":"VEC3"},{"bufferView":2,"componentType":5126,"count":324,"type":"VEC2"},{"bufferView":3,"componentType":5126,"count":324,"type":"VEC2"},{"bufferView":4,"componentType":5126,"count":100,"type":"VEC3","min":[-1,-0.5,-1],"max":[1,0.5,1]},{"bufferView":5,"componentType":5126,"count":100,"type":"VEC3"},{"bufferView":6,"componentType":5126,"count":100,"type":"VEC2"},{"bufferView":7,"componentType":5123,"count":192,"type":"SCALAR"},{"bufferView":8,"componentType":5126,"count":324,"type":"VEC2"},{"bufferView":9,"componentType":5126,"count":324,"type":"VEC2"},{"bufferView":10,"componentType":5126,"count":324,"type":"VEC2"},{"bufferView":11,"componentType":5126,"count":324,"type":"VEC3","min":[-0.5,-0.5,-0.5],"max":[0.5,0.5,0.5]},{"bufferView":12,"componentType":5126,"count":324,"type":"VEC2"},{"bufferView":13,"componentType":5126,"count":324,"type":"VEC2"},{"bufferView":14,"componentType":5126,"count":324,"type":"VEC2"},{"bufferView":15,"componentType":5126,"count":324,"type":"VEC2"},{"bufferView":16,"componentType":5126,"count":324,"type":"VEC2"},{"bufferView":17,"componentType":5126,"count":100,"type":"VEC3","min":[-1,-0.5,-1],"max":[1,0.5,1]},{"bufferView":18,"componentType":5126,"count":100,"type":"VEC3"},{"bufferView":19,"componentType":5126,"count":100,"type":"VEC2"},{"bufferView":20,"componentType":5126,"count":273,"type":"VEC3","min":[-1,-1,-1],"max":[1,1,1]},{"bufferView":21,"componentType":5126,"count":273,"type":"VEC2"},{"bufferView":22,"componentType":5123,"count":1320,"type":"SCALAR"},{"bufferView":23,"componentType":5126,"count":324,"type":"VEC2"},{"bufferView":24,"componentType":5126,"count":24,"type":"VEC3","min":[-0.5,-0.5,-0.02500000037252903],"max":[0.5,0.5,0.02500000037252903]},{"bufferView":25,"componentType":5126,"count":24,"type":"VEC3"},{"bufferView":26,"componentType":5126,"count":24,"type":"VEC2"},{"bufferView":27,"componentType":5123,"count":36,"type":"SCALAR"},{"bufferView":28,"componentType":5126,"count":4,"type":"VEC3","min":[-0.5,-0.5,0],"max":[0.5,0.5,0]},{"bufferView":29,"componentType":5126,"count":4,"type":"VEC3"},{"bufferView":30,"componentType":5126,"count":4,"type":"VEC2"},{"bufferView":31,"componentType":5123,"count":6,"type":"SCALAR"},{"bufferView":32,"componentType":5126,"count":24,"type":"VEC3","min":[-0.5,-0.5,-0.5],"max":[0.5,0.5,0.5]},{"bufferView":33,"componentType":5126,"count":24,"type":"VEC2"},{"bufferView":34,"componentType":5126,"count":24,"type":"VEC2"},{"bufferView":35,"componentType":5126,"count":40,"type":"VEC3","min":[-0.8660253882408142,-0.5,-1],"max":[0.8660253882408142,0.5,1]},{"bufferView":36,"componentType":5126,"count":40,"type":"VEC3"},{"bufferView":37,"componentType":5126,"count":40,"type":"VEC2"},{"bufferView":38,"componentType":5123,"count":72,"type":"SCALAR"},{"bufferView":39,"componentType":5126,"count":24,"type":"VEC2"},{"bufferView":40,"componentType":5126,"count":24,"type":"VEC2"},{"bufferView":41,"componentType":5126,"count":24,"type":"VEC2"},{"bufferView":42,"componentType":5126,"count":24,"type":"VEC2"},{"bufferView":43,"componentType":5126,"count":24,"type":"VEC2"},{"bufferView":44,"componentType":5126,"count":24,"type":"VEC2"},{"bufferView":45,"componentType":5126,"count":24,"type":"VEC2"},{"bufferView":46,"componentType":5126,"count":24,"type":"VEC2"},{"bufferView":47,"componentType":5126,"count":40,"type":"VEC3","min":[-0.8660253882408142,-0.5,-1],"max":[0.8660253882408142,0.5,1]},{"bufferView":48,"componentType":5126,"count":40,"type":"VEC3"},{"bufferView":49,"componentType":5126,"count":40,"type":"VEC2"},{"bufferView":50,"componentType":5126,"count":117,"type":"VEC3","min":[-1,-1,-1],"max":[1,1,1]},{"bufferView":51,"componentType":5126,"count":117,"type":"VEC2"},{"bufferView":52,"componentType":5123,"count":504,"type":"SCALAR"},{"bufferView":53,"componentType":5126,"count":24,"type":"VEC2"},{"bufferView":54,"componentType":5126,"count":54,"type":"VEC3","min":[-0.9510565400123596,-1,-0.9510565400123596],"max":[0.9510565400123596,1,0.9510565400123596]},{"bufferView":55,"componentType":5126,"count":54,"type":"VEC2"},{"bufferView":56,"componentType":5123,"count":192,"type":"SCALAR"}],"extensionsUsed":["KHR_materials_unlit"],"extras":{"id":"vlt-wind-service-yard-24","family":"wind-service-yard","variant":23,"plan":"A4-2","units":"metres","up":"+Y","front":"+Z","lodScenes":[0,1,2]}}