{"asset":{"version":"2.0","generator":"SLOPMERICA Department of Unnecessary Development 1.0"},"scene":0,"scenes":[{"name":"LOD 0","nodes":[0,1,2,3,4,5,6,7,8,9,10,11,12,13,14,15,16,17,18,19,20,21,22,23],"extras":{"level":0}},{"name":"LOD 1","nodes":[24,25,26,27,28,29,30,31,32,33,34,35,36,37,38,39,40,41,42,43,44,45,46,47],"extras":{"level":1}},{"name":"LOD 2","nodes":[48,49,50,51,52,53,54,55,56,57],"extras":{"level":2}}],"nodes":[{"name":"surveyed lot","mesh":0,"translation":[0,0.06,0],"scale":[12.744,0.12,17.16]},{"name":"vinyl trailer","mesh":1,"translation":[0,1.55,0],"scale":[9.12,2.75,12.6]},{"name":"shallow roof","mesh":2,"translation":[0,3.04,0],"rotation":[0,0,0.017499,0.999847],"scale":[9.42,0.28,12.95]},{"name":"front door","mesh":3,"translation":[2.28,1.25,6.37],"scale":[0.95,2.05,0.12]},{"name":"window 1.8 0","mesh":4,"translation":[-3.04,1.8,6.375],"scale":[0.7,0.75,0.09]},{"name":"window 1.8 1","mesh":4,"translation":[-1.52,1.8,6.375],"scale":[0.7,0.75,0.09]},{"name":"window 1.8 2","mesh":4,"translation":[0,1.8,6.375],"scale":[0.7,0.75,0.09]},{"name":"window 1.8 3","mesh":4,"translation":[1.52,1.8,6.375],"scale":[0.7,0.75,0.09]},{"name":"window 1.8 4","mesh":4,"translation":[3.04,1.8,6.375],"scale":[0.7,0.75,0.09]},{"name":"post -4.26 0","mesh":5,"translation":[-4.26,0.675,7.3],"scale":[0.16,1.35,0.16]},{"name":"post -4.26 1","mesh":5,"translation":[-2.436,0.675,7.3],"scale":[0.16,1.35,0.16]},{"name":"post -4.26 2","mesh":5,"translation":[-0.612,0.675,7.3],"scale":[0.16,1.35,0.16]},{"name":"post -4.26 3","mesh":5,"translation":[1.212,0.675,7.3],"scale":[0.16,1.35,0.16]},{"name":"post -4.26 4","mesh":5,"translation":[3.036,0.675,7.3],"scale":[0.16,1.35,0.16]},{"name":"post -4.26 5","mesh":5,"translation":[4.86,0.675,7.3],"scale":[0.16,1.35,0.16]},{"name":"front steps","mesh":6,"translation":[2.28,0.28,7],"scale":[1.7,0.56,1.05]},{"name":"blue tarp","mesh":7,"translation":[-1.6416,3.23,-1.512],"rotation":[0,0,-0.039989,0.9992],"scale":[4.1952,0.08,4.788]},{"name":"marriage seam","mesh":8,"translation":[0,1.55,0],"scale":[0.08,2.4,12]},{"name":"screen porch floor","mesh":9,"translation":[1.2,0.45,6.2],"scale":[4.8,0.18,2.5]},{"name":"post -0.8 0","mesh":10,"translation":[-0.8,1.175,6.2],"scale":[0.16,2.35,0.16]},{"name":"post -0.8 1","mesh":10,"translation":[0.5,1.175,6.2],"scale":[0.16,2.35,0.16]},{"name":"post -0.8 2","mesh":10,"translation":[1.8,1.175,6.2],"scale":[0.16,2.35,0.16]},{"name":"post -0.8 3","mesh":10,"translation":[3.1,1.175,6.2],"scale":[0.16,2.35,0.16]},{"name":"skirting gap","mesh":11,"translation":[-2.2,0.35,5.3],"scale":[2.3,0.55,0.08]},{"name":"surveyed lot","mesh":12,"translation":[0,0.06,0],"scale":[12.744,0.12,17.16]},{"name":"vinyl trailer","mesh":13,"translation":[0,1.55,0],"scale":[9.12,2.75,12.6]},{"name":"shallow roof","mesh":14,"translation":[0,3.04,0],"rotation":[0,0,0.017499,0.999847],"scale":[9.42,0.28,12.95]},{"name":"front door","mesh":15,"translation":[2.28,1.25,6.37],"scale":[0.95,2.05,0.12]},{"name":"window 1.8 0","mesh":16,"translation":[-3.04,1.8,6.375],"scale":[0.7,0.75,0.09]},{"name":"window 1.8 1","mesh":16,"translation":[-1.52,1.8,6.375],"scale":[0.7,0.75,0.09]},{"name":"window 1.8 2","mesh":16,"translation":[0,1.8,6.375],"scale":[0.7,0.75,0.09]},{"name":"window 1.8 3","mesh":16,"translation":[1.52,1.8,6.375],"scale":[0.7,0.75,0.09]},{"name":"window 1.8 4","mesh":16,"translation":[3.04,1.8,6.375],"scale":[0.7,0.75,0.09]},{"name":"post -4.26 0","mesh":17,"translation":[-4.26,0.675,7.3],"scale":[0.16,1.35,0.16]},{"name":"post -4.26 1","mesh":17,"translation":[-2.436,0.675,7.3],"scale":[0.16,1.35,0.16]},{"name":"post -4.26 2","mesh":17,"translation":[-0.612,0.675,7.3],"scale":[0.16,1.35,0.16]},{"name":"post -4.26 3","mesh":17,"translation":[1.212,0.675,7.3],"scale":[0.16,1.35,0.16]},{"name":"post -4.26 4","mesh":17,"translation":[3.036,0.675,7.3],"scale":[0.16,1.35,0.16]},{"name":"post -4.26 5","mesh":17,"translation":[4.86,0.675,7.3],"scale":[0.16,1.35,0.16]},{"name":"front steps","mesh":18,"translation":[2.28,0.28,7],"scale":[1.7,0.56,1.05]},{"name":"blue tarp","mesh":19,"translation":[-1.6416,3.23,-1.512],"rotation":[0,0,-0.039989,0.9992],"scale":[4.1952,0.08,4.788]},{"name":"marriage seam","mesh":20,"translation":[0,1.55,0],"scale":[0.08,2.4,12]},{"name":"screen porch floor","mesh":21,"translation":[1.2,0.45,6.2],"scale":[4.8,0.18,2.5]},{"name":"post -0.8 0","mesh":22,"translation":[-0.8,1.175,6.2],"scale":[0.16,2.35,0.16]},{"name":"post -0.8 1","mesh":22,"translation":[0.5,1.175,6.2],"scale":[0.16,2.35,0.16]},{"name":"post -0.8 2","mesh":22,"translation":[1.8,1.175,6.2],"scale":[0.16,2.35,0.16]},{"name":"post -0.8 3","mesh":22,"translation":[3.1,1.175,6.2],"scale":[0.16,2.35,0.16]},{"name":"skirting gap","mesh":23,"translation":[-2.2,0.35,5.3],"scale":[2.3,0.55,0.08]},{"name":"surveyed lot","mesh":12,"translation":[0,0.06,0],"scale":[12.744,0.12,17.16]},{"name":"vinyl trailer","mesh":13,"translation":[0,1.55,0],"scale":[9.12,2.75,12.6]},{"name":"shallow roof","mesh":14,"translation":[0,3.04,0],"rotation":[0,0,0.017499,0.999847],"scale":[9.42,0.28,12.95]},{"name":"front door","mesh":15,"translation":[2.28,1.25,6.37],"scale":[0.95,2.05,0.12]},{"name":"window 1.8 0","mesh":16,"translation":[-3.04,1.8,6.375],"scale":[0.7,0.75,0.09]},{"name":"window 1.8 1","mesh":16,"translation":[-1.52,1.8,6.375],"scale":[0.7,0.75,0.09]},{"name":"window 1.8 2","mesh":16,"translation":[0,1.8,6.375],"scale":[0.7,0.75,0.09]},{"name":"window 1.8 3","mesh":16,"translation":[1.52,1.8,6.375],"scale":[0.7,0.75,0.09]},{"name":"window 1.8 4","mesh":16,"translation":[3.04,1.8,6.375],"scale":[0.7,0.75,0.09]},{"name":"marriage seam","mesh":20,"translation":[0,1.55,0],"scale":[0.08,2.4,12]}],"meshes":[{"primitives":[{"attributes":{"POSITION":0,"NORMAL":1,"TEXCOORD_0":2},"material":0,"mode":4}]},{"primitives":[{"attributes":{"POSITION":0,"NORMAL":1,"TEXCOORD_0":3},"material":1,"mode":4}]},{"primitives":[{"attributes":{"POSITION":0,"NORMAL":1,"TEXCOORD_0":4},"material":2,"mode":4}]},{"primitives":[{"attributes":{"POSITION":0,"NORMAL":1,"TEXCOORD_0":5},"material":3,"mode":4}]},{"primitives":[{"attributes":{"POSITION":0,"NORMAL":1,"TEXCOORD_0":6},"material":4,"mode":4}]},{"primitives":[{"attributes":{"POSITION":0,"NORMAL":1,"TEXCOORD_0":7},"material":5,"mode":4}]},{"primitives":[{"attributes":{"POSITION":0,"NORMAL":1,"TEXCOORD_0":8},"material":6,"mode":4}]},{"primitives":[{"attributes":{"POSITION":0,"NORMAL":1,"TEXCOORD_0":9},"material":7,"mode":4}]},{"primitives":[{"attributes":{"POSITION":0,"NORMAL":1,"TEXCOORD_0":10},"material":8,"mode":4}]},{"primitives":[{"attributes":{"POSITION":0,"NORMAL":1,"TEXCOORD_0":11},"material":6,"mode":4}]},{"primitives":[{"attributes":{"POSITION":0,"NORMAL":1,"TEXCOORD_0":12},"material":5,"mode":4}]},{"primitives":[{"attributes":{"POSITION":0,"NORMAL":1,"TEXCOORD_0":13},"material":9,"mode":4}]},{"primitives":[{"attributes":{"POSITION":14,"NORMAL":15,"TEXCOORD_0":16},"material":0,"mode":4,"indices":17}]},{"primitives":[{"attributes":{"POSITION":14,"NORMAL":15,"TEXCOORD_0":18},"material":1,"mode":4,"indices":17}]},{"primitives":[{"attributes":{"POSITION":14,"NORMAL":15,"TEXCOORD_0":19},"material":2,"mode":4,"indices":17}]},{"primitives":[{"attributes":{"POSITION":14,"NORMAL":15,"TEXCOORD_0":20},"material":3,"mode":4,"indices":17}]},{"primitives":[{"attributes":{"POSITION":14,"NORMAL":15,"TEXCOORD_0":21},"material":4,"mode":4,"indices":17}]},{"primitives":[{"attributes":{"POSITION":14,"NORMAL":15,"TEXCOORD_0":22},"material":5,"mode":4,"indices":17}]},{"primitives":[{"attributes":{"POSITION":14,"NORMAL":15,"TEXCOORD_0":23},"material":6,"mode":4,"indices":17}]},{"primitives":[{"attributes":{"POSITION":14,"NORMAL":15,"TEXCOORD_0":24},"material":7,"mode":4,"indices":17}]},{"primitives":[{"attributes":{"POSITION":14,"NORMAL":15,"TEXCOORD_0":25},"material":8,"mode":4,"indices":17}]},{"primitives":[{"attributes":{"POSITION":14,"NORMAL":15,"TEXCOORD_0":26},"material":6,"mode":4,"indices":17}]},{"primitives":[{"attributes":{"POSITION":14,"NORMAL":15,"TEXCOORD_0":27},"material":5,"mode":4,"indices":17}]},{"primitives":[{"attributes":{"POSITION":14,"NORMAL":15,"TEXCOORD_0":28},"material":9,"mode":4,"indices":17}]}],"materials":[{"name":"concrete","pbrMetallicRoughness":{"baseColorTexture":{"index":0},"metallicRoughnessTexture":{"index":2},"roughnessFactor":1,"metallicFactor":1},"normalTexture":{"index":1,"scale":0.82},"occlusionTexture":{"index":2,"strength":0.35}},{"name":"paint-white","pbrMetallicRoughness":{"baseColorFactor":[0.7912979403281551,0.7681511472425809,0.6795424696265424,1],"roughnessFactor":0.68,"metallicFactor":0}},{"name":"roof-metal","pbrMetallicRoughness":{"baseColorTexture":{"index":3},"metallicRoughnessTexture":{"index":5},"roughnessFactor":1,"metallicFactor":1},"normalTexture":{"index":4,"scale":0.68},"occlusionTexture":{"index":5,"strength":0.35}},{"name":"paint-teal","pbrMetallicRoughness":{"baseColorFactor":[0.040915196900556984,0.20507873637973145,0.1878207722902346,1],"roughnessFactor":0.59,"metallicFactor":0.05}},{"name":"glass-blue","pbrMetallicRoughness":{"baseColorTexture":{"index":6},"metallicRoughnessTexture":{"index":8},"roughnessFactor":1,"metallicFactor":1},"normalTexture":{"index":7,"scale":0.12},"occlusionTexture":{"index":8,"strength":0.35}},{"name":"wood-painted","pbrMetallicRoughness":{"baseColorTexture":{"index":9},"metallicRoughnessTexture":{"index":11},"roughnessFactor":1,"metallicFactor":1},"normalTexture":{"index":10,"scale":0.55},"occlusionTexture":{"index":11,"strength":0.35}},{"name":"wood-oak","pbrMetallicRoughness":{"baseColorTexture":{"index":12},"metallicRoughnessTexture":{"index":14},"roughnessFactor":1,"metallicFactor":1},"normalTexture":{"index":13,"scale":1},"occlusionTexture":{"index":14,"strength":0.35}},{"name":"paint-blue","pbrMetallicRoughness":{"baseColorFactor":[0.05126945836711539,0.10946171076915331,0.22696587349938613,1],"roughnessFactor":0.58,"metallicFactor":0.05}},{"name":"metal-galvanized","pbrMetallicRoughness":{"baseColorTexture":{"index":15},"metallicRoughnessTexture":{"index":17},"roughnessFactor":1,"metallicFactor":1},"normalTexture":{"index":16,"scale":0.15},"occlusionTexture":{"index":17,"strength":0.35}},{"name":"metal-dark","pbrMetallicRoughness":{"baseColorTexture":{"index":18},"metallicRoughnessTexture":{"index":20},"roughnessFactor":1,"metallicFactor":1},"normalTexture":{"index":19,"scale":0.35},"occlusionTexture":{"index":20,"strength":0.35}}],"textures":[{"source":0,"sampler":0},{"source":1,"sampler":0},{"source":2,"sampler":0},{"source":3,"sampler":0},{"source":4,"sampler":0},{"source":5,"sampler":0},{"source":6,"sampler":0},{"source":7,"sampler":0},{"source":8,"sampler":0},{"source":9,"sampler":0},{"source":10,"sampler":0},{"source":11,"sampler":0},{"source":12,"sampler":0},{"source":13,"sampler":0},{"source":14,"sampler":0},{"source":15,"sampler":0},{"source":16,"sampler":0},{"source":17,"sampler":0},{"source":18,"sampler":0},{"source":19,"sampler":0},{"source":20,"sampler":0}],"images":[{"uri":"../textures/concrete-albedo.png"},{"uri":"../textures/concrete-normal.png"},{"uri":"../textures/concrete-orm.png"},{"uri":"../textures/roof-metal-albedo.png"},{"uri":"../textures/roof-metal-normal.png"},{"uri":"../textures/roof-metal-orm.png"},{"uri":"../textures/glass-blue-albedo.png"},{"uri":"../textures/glass-blue-normal.png"},{"uri":"../textures/glass-blue-orm.png"},{"uri":"../textures/wood-painted-albedo.png"},{"uri":"../textures/wood-painted-normal.png"},{"uri":"../textures/wood-painted-orm.png"},{"uri":"../textures/wood-oak-albedo.png"},{"uri":"../textures/wood-oak-normal.png"},{"uri":"../textures/wood-oak-orm.png"},{"uri":"../textures/metal-galvanized-albedo.png"},{"uri":"../textures/metal-galvanized-normal.png"},{"uri":"../textures/metal-galvanized-orm.png"},{"uri":"../textures/metal-dark-albedo.png"},{"uri":"../textures/metal-dark-normal.png"},{"uri":"../textures/metal-dark-orm.png"}],"samplers":[{"magFilter":9729,"minFilter":9987,"wrapS":10497,"wrapT":10497}],"buffers":[{"uri":"../shared/geometry.bin","byteLength":16435520}],"bufferViews":[{"buffer":0,"byteOffset":0,"byteLength":3888,"target":34962},{"buffer":0,"byteOffset":3888,"byteLength":3888,"target":34962},{"buffer":0,"byteOffset":4295088,"byteLength":2592,"target":34962},{"buffer":0,"byteOffset":4297680,"byteLength":2592,"target":34962},{"buffer":0,"byteOffset":4300272,"byteLength":2592,"target":34962},{"buffer":0,"byteOffset":4233264,"byteLength":2592,"target":34962},{"buffer":0,"byteOffset":4235856,"byteLength":2592,"target":34962},{"buffer":0,"byteOffset":4238448,"byteLength":2592,"target":34962},{"buffer":0,"byteOffset":4302864,"byteLength":2592,"target":34962},{"buffer":0,"byteOffset":4331280,"byteLength":2592,"target":34962},{"buffer":0,"byteOffset":4305456,"byteLength":2592,"target":34962},{"buffer":0,"byteOffset":4246224,"byteLength":2592,"target":34962},{"buffer":0,"byteOffset":4248816,"byteLength":2592,"target":34962},{"buffer":0,"byteOffset":4333872,"byteLength":2592,"target":34962},{"buffer":0,"byteOffset":46644,"byteLength":288,"target":34962},{"buffer":0,"byteOffset":45952,"byteLength":288,"target":34962},{"buffer":0,"byteOffset":4308048,"byteLength":192,"target":34962},{"buffer":0,"byteOffset":46432,"byteLength":72,"target":34963},{"buffer":0,"byteOffset":4308240,"byteLength":192,"target":34962},{"buffer":0,"byteOffset":4308432,"byteLength":192,"target":34962},{"buffer":0,"byteOffset":4251984,"byteLength":192,"target":34962},{"buffer":0,"byteOffset":4252176,"byteLength":192,"target":34962},{"buffer":0,"byteOffset":4252368,"byteLength":192,"target":34962},{"buffer":0,"byteOffset":4308624,"byteLength":192,"target":34962},{"buffer":0,"byteOffset":4336464,"byteLength":192,"target":34962},{"buffer":0,"byteOffset":4308816,"byteLength":192,"target":34962},{"buffer":0,"byteOffset":4252944,"byteLength":192,"target":34962},{"buffer":0,"byteOffset":4253136,"byteLength":192,"target":34962},{"buffer":0,"byteOffset":4336656,"byteLength":192,"target":34962}],"accessors":[{"bufferView":0,"componentType":5126,"count":324,"type":"VEC3","min":[-0.5,-0.5,-0.5],"max":[0.5,0.5,0.5]},{"bufferView":1,"componentType":5126,"count":324,"type":"VEC3"},{"bufferView":2,"componentType":5126,"count":324,"type":"VEC2"},{"bufferView":3,"componentType":5126,"count":324,"type":"VEC2"},{"bufferView":4,"componentType":5126,"count":324,"type":"VEC2"},{"bufferView":5,"componentType":5126,"count":324,"type":"VEC2"},{"bufferView":6,"componentType":5126,"count":324,"type":"VEC2"},{"bufferView":7,"componentType":5126,"count":324,"type":"VEC2"},{"bufferView":8,"componentType":5126,"count":324,"type":"VEC2"},{"bufferView":9,"componentType":5126,"count":324,"type":"VEC2"},{"bufferView":10,"componentType":5126,"count":324,"type":"VEC2"},{"bufferView":11,"componentType":5126,"count":324,"type":"VEC2"},{"bufferView":12,"componentType":5126,"count":324,"type":"VEC2"},{"bufferView":13,"componentType":5126,"count":324,"type":"VEC2"},{"bufferView":14,"componentType":5126,"count":24,"type":"VEC3","min":[-0.5,-0.5,-0.5],"max":[0.5,0.5,0.5]},{"bufferView":15,"componentType":5126,"count":24,"type":"VEC3"},{"bufferView":16,"componentType":5126,"count":24,"type":"VEC2"},{"bufferView":17,"componentType":5123,"count":36,"type":"SCALAR"},{"bufferView":18,"componentType":5126,"count":24,"type":"VEC2"},{"bufferView":19,"componentType":5126,"count":24,"type":"VEC2"},{"bufferView":20,"componentType":5126,"count":24,"type":"VEC2"},{"bufferView":21,"componentType":5126,"count":24,"type":"VEC2"},{"bufferView":22,"componentType":5126,"count":24,"type":"VEC2"},{"bufferView":23,"componentType":5126,"count":24,"type":"VEC2"},{"bufferView":24,"componentType":5126,"count":24,"type":"VEC2"},{"bufferView":25,"componentType":5126,"count":24,"type":"VEC2"},{"bufferView":26,"componentType":5126,"count":24,"type":"VEC2"},{"bufferView":27,"componentType":5126,"count":24,"type":"VEC2"},{"bufferView":28,"componentType":5126,"count":24,"type":"VEC2"}],"extensionsUsed":["KHR_materials_unlit"],"extras":{"id":"vlt-double-wide-40","family":"double-wide","variant":39,"plan":"D5-2","units":"metres","up":"+Y","front":"+Z","lodScenes":[0,1,2]}}