{"asset":{"version":"2.0","generator":"SLOPMERICA Department of Unnecessary Development 1.0"},"scene":0,"scenes":[{"name":"LOD 0","nodes":[0,1,2,3,4,5,6,7,8,9,10,11,12,13,14,15,16,17,18,19,20,21,22,23,24,25,26,27,28,29,30,31,32,33,34,35,36,37,38,39,40,41,42,43,44,45,46,47],"extras":{"level":0}},{"name":"LOD 1","nodes":[48,49,50,51,52,53,54,55,56,57,58,59,60,61,62,63,64,65,66,67,68,69,70,71,72,73,74,75,76,77,78,79,80,81],"extras":{"level":1}},{"name":"LOD 2","nodes":[82,83,84,85,86,87,88,89,90,91,92,93,94,95,96,97,98,99,100,101],"extras":{"level":2}}],"nodes":[{"name":"site-pad","mesh":0,"translation":[0,0.06,0],"scale":[7.28,0.12,7.28]},{"name":"variant-apron","mesh":1,"translation":[-1.365,0.13,3.72],"scale":[1.89,0.08,0.8]},{"name":"bollard-0","mesh":2,"translation":[-2.66,0.43,3.84],"scale":[0.08,0.62,0.08]},{"name":"bollard-1","mesh":2,"translation":[0,0.43,3.84],"scale":[0.08,0.62,0.08]},{"name":"bollard-2","mesh":2,"translation":[2.66,0.43,3.84],"scale":[0.08,0.62,0.08]},{"name":"layout-cabinet","mesh":3,"translation":[-3.7,0.555,-1.575],"scale":[0.45,0.87,0.32]},{"name":"cell-trunk","mesh":4,"translation":[0,8.8,0],"scale":[0.55,17.6,0.55]},{"name":"fake-branch-0-0","mesh":5,"translation":[0,8.448,1.1],"rotation":[0,0,-0.07493,0.997189],"scale":[0.14,0.14,3]},{"name":"fake-branch-0-1","mesh":5,"translation":[1.046162,8.448,0.339919],"rotation":[0.044043,0.586133,0.060619,0.806743],"scale":[0.14,0.14,3]},{"name":"fake-branch-0-2","mesh":5,"translation":[0.646564,8.448,-0.889919],"rotation":[-0.071262,0.948383,-0.023155,0.308148],"scale":[0.14,0.14,3]},{"name":"fake-branch-0-3","mesh":5,"translation":[-0.646564,8.448,-0.889919],"rotation":[0.071262,0.948383,-0.023155,-0.308148],"scale":[0.14,0.14,3]},{"name":"fake-branch-0-4","mesh":5,"translation":[-1.046162,8.448,0.339919],"rotation":[0.044043,-0.586133,-0.060619,0.806743],"scale":[0.14,0.14,3]},{"name":"fake-branch-1-0","mesh":5,"translation":[0.377188,9.797333,1.03331],"rotation":[-0.013046,0.173619,-0.073785,0.981958],"scale":[0.14,0.14,3]},{"name":"fake-branch-1-1","mesh":5,"translation":[1.099294,9.797333,-0.039416],"rotation":[0.053924,0.717641,0.052025,0.69237],"scale":[0.14,0.14,3]},{"name":"fake-branch-1-2","mesh":5,"translation":[0.302213,9.797333,-1.057671],"rotation":[-0.074205,0.987549,-0.010394,0.138321],"scale":[0.14,0.14,3]},{"name":"fake-branch-1-3","mesh":5,"translation":[-0.912516,9.797333,-0.61426],"rotation":[0.066143,0.880247,-0.035208,-0.468563],"scale":[0.14,0.14,3]},{"name":"fake-branch-1-4","mesh":5,"translation":[-0.866179,9.797333,0.678037],"rotation":[0.032816,-0.43672,-0.067362,0.896471],"scale":[0.14,0.14,3]},{"name":"fake-branch-2-0","mesh":5,"translation":[0.708639,11.146667,0.841326],"rotation":[-0.025693,0.341934,-0.070387,0.936732],"scale":[0.14,0.14,3]},{"name":"fake-branch-2-1","mesh":5,"translation":[1.019131,11.146667,-0.413972],"rotation":[0.062159,0.827228,0.041842,0.556848],"scale":[0.14,0.14,3]},{"name":"fake-branch-2-2","mesh":5,"translation":[-0.078782,11.146667,-1.097175],"rotation":[-0.074882,0.996548,0.002685,-0.035732],"scale":[0.14,0.14,3]},{"name":"fake-branch-2-3","mesh":5,"translation":[-1.067821,11.146667,-0.26412],"rotation":[-0.059002,-0.785222,0.046186,0.614665],"scale":[0.14,0.14,3]},{"name":"fake-branch-2-4","mesh":5,"translation":[-0.581167,11.146667,0.93394],"rotation":[0.020586,-0.273967,-0.072046,0.958816],"scale":[0.14,0.14,3]},{"name":"fake-branch-3-0","mesh":5,"translation":[0.954166,12.496,0.547328],"rotation":[-0.037556,0.499804,-0.064838,0.862891],"scale":[0.14,0.14,3]},{"name":"fake-branch-3-1","mesh":5,"translation":[0.815393,12.496,-0.738332],"rotation":[0.068494,0.911545,0.030381,0.404316],"scale":[0.14,0.14,3]},{"name":"fake-branch-3-2","mesh":5,"translation":[-0.450225,12.496,-1.003642],"rotation":[-0.07327,0.975106,0.015681,-0.208694],"scale":[0.14,0.14,3]},{"name":"fake-branch-3-3","mesh":5,"translation":[-1.093648,12.496,0.118047],"rotation":[-0.05006,-0.666211,0.055754,0.74199],"scale":[0.14,0.14,3]},{"name":"fake-branch-3-4","mesh":5,"translation":[-0.225687,12.496,1.076599],"rotation":[0.007728,-0.102845,-0.07453,0.991871],"scale":[0.14,0.14,3]},{"name":"fake-branch-4-0","mesh":5,"translation":[1.083995,13.845333,0.186964],"rotation":[-0.048271,0.642407,-0.057309,0.762692],"scale":[0.14,0.14,3]},{"name":"fake-branch-4-1","mesh":5,"translation":[0.512786,13.845333,-0.973165],"rotation":[0.072738,0.968017,0.017991,0.239434],"scale":[0.14,0.14,3]},{"name":"fake-branch-4-2","mesh":5,"translation":[-0.767076,13.845333,-0.788413],"rotation":[-0.069421,0.923878,0.028199,-0.37528],"scale":[0.14,0.14,3]},{"name":"fake-branch-4-3","mesh":5,"translation":[-0.986865,13.845333,0.485899],"rotation":[-0.039588,-0.526849,0.063618,0.84665],"scale":[0.14,0.14,3]},{"name":"fake-branch-4-4","mesh":5,"translation":[0.15716,13.845333,1.088715],"rotation":[-0.005366,0.071419,-0.074737,0.994628],"scale":[0.14,0.14,3]},{"name":"fake-branch-5-0","mesh":5,"translation":[1.082385,15.194667,-0.196071],"rotation":[-0.057512,0.765386,-0.04803,0.639195],"scale":[0.14,0.14,3]},{"name":"fake-branch-5-1","mesh":5,"translation":[0.148001,15.194667,-1.089998],"rotation":[0.074759,0.994919,0.005052,0.067237],"scale":[0.14,0.14,3]},{"name":"fake-branch-5-2","mesh":5,"translation":[-0.990915,15.194667,-0.477585],"rotation":[0.063451,-0.844428,-0.039855,0.530403],"scale":[0.14,0.14,3]},{"name":"fake-branch-5-3","mesh":5,"translation":[-0.76042,15.194667,0.794834],"rotation":[-0.027907,-0.371393,0.069539,0.925447],"scale":[0.14,0.14,3]},{"name":"fake-branch-5-4","mesh":5,"translation":[0.520949,15.194667,0.96882],"rotation":[-0.018297,0.243501,-0.072661,0.967002],"scale":[0.14,0.14,3]},{"name":"fake-branch-6-0","mesh":5,"translation":[0.94953,16.544,-0.555331],"rotation":[-0.064996,0.864985,-0.037283,0.496172],"scale":[0.14,0.14,3]},{"name":"fake-branch-6-1","mesh":5,"translation":[-0.23473,16.544,-1.074664],"rotation":[0.074497,0.99143,-0.008041,-0.107013],"scale":[0.14,0.14,3]},{"name":"fake-branch-6-2","mesh":5,"translation":[-1.094601,16.544,-0.108848],"rotation":[0.055543,-0.739183,-0.050294,0.669324],"scale":[0.14,0.14,3]},{"name":"fake-branch-6-3","mesh":5,"translation":[-0.441771,16.544,1.007392],"rotation":[-0.015373,-0.204593,0.073336,0.975975],"scale":[0.14,0.14,3]},{"name":"fake-branch-6-4","mesh":5,"translation":[0.821572,16.544,0.73145],"rotation":[-0.030668,0.408145,-0.068366,0.909837],"scale":[0.14,0.14,3]},{"name":"antenna-0","mesh":6,"translation":[0,15.488,0.75],"scale":[0.28,1.35,0.16]},{"name":"antenna-1","mesh":6,"translation":[0.649519,15.488,-0.375],"rotation":[0,0.866025,0,0.5],"scale":[0.28,1.35,0.16]},{"name":"antenna-2","mesh":6,"translation":[-0.649519,15.488,-0.375],"rotation":[0,0.866025,0,-0.5],"scale":[0.28,1.35,0.16]},{"name":"cell-cabinet","mesh":7,"translation":[-2,1,0],"scale":[2.5,1.8,1.5]},{"name":"pine-plaque-back","mesh":8,"translation":[0,1.25,1.2],"scale":[2.6,0.8,1]},{"name":"pine-plaque","mesh":9,"translation":[0,1.25,1.229],"scale":[2.5,0.7,1]},{"name":"site-pad","mesh":10,"translation":[0,0.06,0],"scale":[7.28,0.12,7.28]},{"name":"variant-apron","mesh":11,"translation":[-1.365,0.13,3.72],"scale":[1.89,0.08,0.8]},{"name":"bollard-0","mesh":12,"translation":[-2.66,0.43,3.84],"scale":[0.08,0.62,0.08]},{"name":"bollard-1","mesh":12,"translation":[0,0.43,3.84],"scale":[0.08,0.62,0.08]},{"name":"bollard-2","mesh":12,"translation":[2.66,0.43,3.84],"scale":[0.08,0.62,0.08]},{"name":"layout-cabinet","mesh":13,"translation":[-3.7,0.555,-1.575],"scale":[0.45,0.87,0.32]},{"name":"cell-trunk","mesh":14,"translation":[0,8.8,0],"scale":[0.55,17.6,0.55]},{"name":"fake-branch-0-0","mesh":15,"translation":[0,8.448,1.1],"rotation":[0,0,-0.07493,0.997189],"scale":[0.14,0.14,3]},{"name":"fake-branch-0-1","mesh":15,"translation":[0.952628,8.448,-0.55],"rotation":[0.064891,0.863591,0.037465,0.498594],"scale":[0.14,0.14,3]},{"name":"fake-branch-0-2","mesh":15,"translation":[-0.952628,8.448,-0.55],"rotation":[-0.064891,0.863591,0.037465,-0.498594],"scale":[0.14,0.14,3]},{"name":"fake-branch-1-0","mesh":15,"translation":[0.377188,9.797333,1.03331],"rotation":[-0.013046,0.173619,-0.073785,0.981958],"scale":[0.14,0.14,3]},{"name":"fake-branch-1-1","mesh":15,"translation":[0.706279,9.797333,-0.843309],"rotation":[0.070423,0.93721,0.025595,0.340621],"scale":[0.14,0.14,3]},{"name":"fake-branch-1-2","mesh":15,"translation":[-1.083466,9.797333,-0.190001],"rotation":[0.057377,-0.763591,-0.048191,0.641337],"scale":[0.14,0.14,3]},{"name":"fake-branch-2-0","mesh":15,"translation":[0.708639,11.146667,0.841326],"rotation":[-0.025693,0.341934,-0.070387,0.936732],"scale":[0.14,0.14,3]},{"name":"fake-branch-2-1","mesh":15,"translation":[0.37429,11.146667,-1.034363],"rotation":[0.073803,0.982201,0.012942,0.172243],"scale":[0.14,0.14,3]},{"name":"fake-branch-2-2","mesh":15,"translation":[-1.08293,11.146667,0.193037],"rotation":[0.04811,-0.640267,-0.057444,0.764489],"scale":[0.14,0.14,3]},{"name":"fake-branch-3-0","mesh":15,"translation":[0.954166,12.496,0.547328],"rotation":[-0.037556,0.499804,-0.064838,0.862891],"scale":[0.14,0.14,3]},{"name":"fake-branch-3-1","mesh":15,"translation":[-0.003083,12.496,-1.099996],"rotation":[0.07493,0.997188,-0.000105,-0.001397],"scale":[0.14,0.14,3]},{"name":"fake-branch-3-2","mesh":15,"translation":[-0.951083,12.496,0.552668],"rotation":[0.037374,-0.497384,-0.064943,0.864289],"scale":[0.14,0.14,3]},{"name":"fake-branch-4-0","mesh":15,"translation":[1.083995,13.845333,0.186964],"rotation":[-0.048271,0.642407,-0.057309,0.762692],"scale":[0.14,0.14,3]},{"name":"fake-branch-4-1","mesh":15,"translation":[-0.380082,13.845333,-1.032249],"rotation":[0.073767,0.981714,-0.013149,-0.174994],"scale":[0.14,0.14,3]},{"name":"fake-branch-4-2","mesh":15,"translation":[-0.703913,13.845333,0.845285],"rotation":[0.025496,-0.339307,-0.070459,0.937687],"scale":[0.14,0.14,3]},{"name":"fake-branch-5-0","mesh":15,"translation":[1.082385,15.194667,-0.196071],"rotation":[-0.057512,0.765386,-0.04803,0.639195],"scale":[0.14,0.14,3]},{"name":"fake-branch-5-1","mesh":15,"translation":[-0.710994,15.194667,-0.839337],"rotation":[0.070351,0.936252,-0.025792,-0.343246],"scale":[0.14,0.14,3]},{"name":"fake-branch-5-2","mesh":15,"translation":[-0.37139,15.194667,1.035408],"rotation":[0.012839,-0.170866,-0.073822,0.982441],"scale":[0.14,0.14,3]},{"name":"fake-branch-6-0","mesh":15,"translation":[0.94953,16.544,-0.555331],"rotation":[-0.064996,0.864985,-0.037283,0.496172],"scale":[0.14,0.14,3]},{"name":"fake-branch-6-1","mesh":15,"translation":[-0.955696,16.544,-0.544652],"rotation":[-0.064786,-0.86219,0.037647,0.501013],"scale":[0.14,0.14,3]},{"name":"fake-branch-6-2","mesh":15,"translation":[0.006165,16.544,1.099983],"rotation":[-0.00021,0.002795,-0.074929,0.997185],"scale":[0.14,0.14,3]},{"name":"antenna-0","mesh":16,"translation":[0,15.488,0.75],"scale":[0.28,1.35,0.16]},{"name":"antenna-1","mesh":16,"translation":[0.649519,15.488,-0.375],"rotation":[0,0.866025,0,0.5],"scale":[0.28,1.35,0.16]},{"name":"antenna-2","mesh":16,"translation":[-0.649519,15.488,-0.375],"rotation":[0,0.866025,0,-0.5],"scale":[0.28,1.35,0.16]},{"name":"cell-cabinet","mesh":17,"translation":[-2,1,0],"scale":[2.5,1.8,1.5]},{"name":"pine-plaque-back","mesh":8,"translation":[0,1.25,1.2],"scale":[2.6,0.8,1]},{"name":"pine-plaque","mesh":9,"translation":[0,1.25,1.229],"scale":[2.5,0.7,1]},{"name":"site-pad","mesh":10,"translation":[0,0.06,0],"scale":[7.28,0.12,7.28]},{"name":"variant-apron","mesh":11,"translation":[-1.365,0.13,3.72],"scale":[1.89,0.08,0.8]},{"name":"bollard-0","mesh":12,"translation":[-2.66,0.43,3.84],"scale":[0.08,0.62,0.08]},{"name":"layout-cabinet","mesh":13,"translation":[-3.7,0.555,-1.575],"scale":[0.45,0.87,0.32]},{"name":"cell-trunk","mesh":14,"translation":[0,8.8,0],"scale":[0.55,17.6,0.55]},{"name":"fake-branch-0-0","mesh":15,"translation":[0,8.448,1.1],"rotation":[0,0,-0.07493,0.997189],"scale":[0.14,0.14,3]},{"name":"fake-branch-0-1","mesh":15,"translation":[0.952628,8.448,-0.55],"rotation":[0.064891,0.863591,0.037465,0.498594],"scale":[0.14,0.14,3]},{"name":"fake-branch-0-2","mesh":15,"translation":[-0.952628,8.448,-0.55],"rotation":[-0.064891,0.863591,0.037465,-0.498594],"scale":[0.14,0.14,3]},{"name":"fake-branch-1-0","mesh":15,"translation":[0.377188,12.496,1.03331],"rotation":[-0.013046,0.173619,-0.073785,0.981958],"scale":[0.14,0.14,3]},{"name":"fake-branch-1-1","mesh":15,"translation":[0.706279,12.496,-0.843309],"rotation":[0.070423,0.93721,0.025595,0.340621],"scale":[0.14,0.14,3]},{"name":"fake-branch-1-2","mesh":15,"translation":[-1.083466,12.496,-0.190001],"rotation":[0.057377,-0.763591,-0.048191,0.641337],"scale":[0.14,0.14,3]},{"name":"fake-branch-2-0","mesh":15,"translation":[0.708639,16.544,0.841326],"rotation":[-0.025693,0.341934,-0.070387,0.936732],"scale":[0.14,0.14,3]},{"name":"fake-branch-2-1","mesh":15,"translation":[0.37429,16.544,-1.034363],"rotation":[0.073803,0.982201,0.012942,0.172243],"scale":[0.14,0.14,3]},{"name":"fake-branch-2-2","mesh":15,"translation":[-1.08293,16.544,0.193037],"rotation":[0.04811,-0.640267,-0.057444,0.764489],"scale":[0.14,0.14,3]},{"name":"antenna-0","mesh":16,"translation":[0,15.488,0.75],"scale":[0.28,1.35,0.16]},{"name":"antenna-1","mesh":16,"translation":[0.649519,15.488,-0.375],"rotation":[0,0.866025,0,0.5],"scale":[0.28,1.35,0.16]},{"name":"antenna-2","mesh":16,"translation":[-0.649519,15.488,-0.375],"rotation":[0,0.866025,0,-0.5],"scale":[0.28,1.35,0.16]},{"name":"cell-cabinet","mesh":17,"translation":[-2,1,0],"scale":[2.5,1.8,1.5]},{"name":"pine-plaque-back","mesh":8,"translation":[0,1.25,1.2],"scale":[2.6,0.8,1]},{"name":"pine-plaque","mesh":9,"translation":[0,1.25,1.229],"scale":[2.5,0.7,1]}],"meshes":[{"primitives":[{"attributes":{"POSITION":0,"NORMAL":1,"TEXCOORD_0":2},"material":0,"mode":4}]},{"primitives":[{"attributes":{"POSITION":0,"NORMAL":1,"TEXCOORD_0":3},"material":1,"mode":4}]},{"primitives":[{"attributes":{"POSITION":4,"NORMAL":5,"TEXCOORD_0":6},"material":2,"mode":4,"indices":7}]},{"primitives":[{"attributes":{"POSITION":0,"NORMAL":1,"TEXCOORD_0":8},"material":3,"mode":4}]},{"primitives":[{"attributes":{"POSITION":9,"NORMAL":10,"TEXCOORD_0":11},"material":4,"mode":4,"indices":7}]},{"primitives":[{"attributes":{"POSITION":0,"NORMAL":1,"TEXCOORD_0":12},"material":5,"mode":4}]},{"primitives":[{"attributes":{"POSITION":0,"NORMAL":1,"TEXCOORD_0":13},"material":6,"mode":4}]},{"primitives":[{"attributes":{"POSITION":14,"NORMAL":1,"TEXCOORD_0":15},"material":3,"mode":4}]},{"primitives":[{"attributes":{"POSITION":16,"NORMAL":17,"TEXCOORD_0":18},"material":7,"mode":4,"indices":19}]},{"primitives":[{"attributes":{"POSITION":20,"NORMAL":21,"TEXCOORD_0":22},"material":8,"mode":4,"indices":23}]},{"primitives":[{"attributes":{"POSITION":24,"NORMAL":17,"TEXCOORD_0":25},"material":0,"mode":4,"indices":19}]},{"primitives":[{"attributes":{"POSITION":24,"NORMAL":17,"TEXCOORD_0":26},"material":1,"mode":4,"indices":19}]},{"primitives":[{"attributes":{"POSITION":27,"NORMAL":28,"TEXCOORD_0":29},"material":2,"mode":4,"indices":30}]},{"primitives":[{"attributes":{"POSITION":24,"NORMAL":17,"TEXCOORD_0":31},"material":3,"mode":4,"indices":19}]},{"primitives":[{"attributes":{"POSITION":32,"NORMAL":33,"TEXCOORD_0":34},"material":4,"mode":4,"indices":30}]},{"primitives":[{"attributes":{"POSITION":24,"NORMAL":17,"TEXCOORD_0":35},"material":5,"mode":4,"indices":19}]},{"primitives":[{"attributes":{"POSITION":24,"NORMAL":17,"TEXCOORD_0":36},"material":6,"mode":4,"indices":19}]},{"primitives":[{"attributes":{"POSITION":24,"NORMAL":17,"TEXCOORD_0":37},"material":3,"mode":4,"indices":19}]}],"materials":[{"name":"concrete","pbrMetallicRoughness":{"baseColorTexture":{"index":0},"metallicRoughnessTexture":{"index":2},"roughnessFactor":1,"metallicFactor":1},"normalTexture":{"index":1,"scale":0.82},"occlusionTexture":{"index":2,"strength":0.35}},{"name":"asphalt","pbrMetallicRoughness":{"baseColorTexture":{"index":3},"metallicRoughnessTexture":{"index":5},"roughnessFactor":1,"metallicFactor":1},"normalTexture":{"index":4,"scale":0.62},"occlusionTexture":{"index":5,"strength":0.35}},{"name":"paint-yellow","pbrMetallicRoughness":{"baseColorFactor":[0.76052450467022,0.4793201830913402,0.07818742179702069,1],"roughnessFactor":0.66,"metallicFactor":0.03}},{"name":"metal-galvanized","pbrMetallicRoughness":{"baseColorTexture":{"index":6},"metallicRoughnessTexture":{"index":8},"roughnessFactor":1,"metallicFactor":1},"normalTexture":{"index":7,"scale":0.15},"occlusionTexture":{"index":8,"strength":0.35}},{"name":"bark","pbrMetallicRoughness":{"baseColorTexture":{"index":9},"metallicRoughnessTexture":{"index":11},"roughnessFactor":1,"metallicFactor":1},"normalTexture":{"index":10,"scale":1.35},"occlusionTexture":{"index":11,"strength":0.35}},{"name":"foliage","pbrMetallicRoughness":{"baseColorTexture":{"index":12},"metallicRoughnessTexture":{"index":14},"roughnessFactor":1,"metallicFactor":1},"normalTexture":{"index":13,"scale":0.88},"occlusionTexture":{"index":14,"strength":0.35}},{"name":"paint-white","pbrMetallicRoughness":{"baseColorFactor":[0.7912979403281551,0.7681511472425809,0.6795424696265424,1],"roughnessFactor":0.68,"metallicFactor":0}},{"name":"metal-dark","pbrMetallicRoughness":{"baseColorTexture":{"index":15},"metallicRoughnessTexture":{"index":17},"roughnessFactor":1,"metallicFactor":1},"normalTexture":{"index":16,"scale":0.35},"occlusionTexture":{"index":17,"strength":0.35}},{"name":"frankenpine-cell-tower signage","pbrMetallicRoughness":{"baseColorTexture":{"index":18},"roughnessFactor":1,"metallicFactor":0},"extensions":{"KHR_materials_unlit":{}}}],"textures":[{"source":0,"sampler":0},{"source":1,"sampler":0},{"source":2,"sampler":0},{"source":3,"sampler":0},{"source":4,"sampler":0},{"source":5,"sampler":0},{"source":6,"sampler":0},{"source":7,"sampler":0},{"source":8,"sampler":0},{"source":9,"sampler":0},{"source":10,"sampler":0},{"source":11,"sampler":0},{"source":12,"sampler":0},{"source":13,"sampler":0},{"source":14,"sampler":0},{"source":15,"sampler":0},{"source":16,"sampler":0},{"source":17,"sampler":0},{"source":18,"sampler":0}],"images":[{"uri":"../textures/concrete-albedo.png"},{"uri":"../textures/concrete-normal.png"},{"uri":"../textures/concrete-orm.png"},{"uri":"../textures/asphalt-albedo.png"},{"uri":"../textures/asphalt-normal.png"},{"uri":"../textures/asphalt-orm.png"},{"uri":"../textures/metal-galvanized-albedo.png"},{"uri":"../textures/metal-galvanized-normal.png"},{"uri":"../textures/metal-galvanized-orm.png"},{"uri":"../textures/bark-albedo.png"},{"uri":"../textures/bark-normal.png"},{"uri":"../textures/bark-orm.png"},{"uri":"../textures/foliage-albedo.png"},{"uri":"../textures/foliage-normal.png"},{"uri":"../textures/foliage-orm.png"},{"uri":"../textures/metal-dark-albedo.png"},{"uri":"../textures/metal-dark-normal.png"},{"uri":"../textures/metal-dark-orm.png"},{"uri":"../signs/frankenpine-cell-tower.png"}],"samplers":[{"magFilter":9729,"minFilter":9987,"wrapS":10497,"wrapT":10497}],"buffers":[{"uri":"../shared/geometry.bin","byteLength":16435520}],"bufferViews":[{"buffer":0,"byteOffset":0,"byteLength":3888,"target":34962},{"buffer":0,"byteOffset":3888,"byteLength":3888,"target":34962},{"buffer":0,"byteOffset":5065976,"byteLength":2592,"target":34962},{"buffer":0,"byteOffset":5094952,"byteLength":2592,"target":34962},{"buffer":0,"byteOffset":12960,"byteLength":1200,"target":34962},{"buffer":0,"byteOffset":14160,"byteLength":1200,"target":34962},{"buffer":0,"byteOffset":15360,"byteLength":800,"target":34962},{"buffer":0,"byteOffset":16160,"byteLength":384,"target":34963},{"buffer":0,"byteOffset":73284,"byteLength":2592,"target":34962},{"buffer":0,"byteOffset":5071160,"byteLength":1200,"target":34962},{"buffer":0,"byteOffset":5072360,"byteLength":1200,"target":34962},{"buffer":0,"byteOffset":5097544,"byteLength":800,"target":34962},{"buffer":0,"byteOffset":5074360,"byteLength":2592,"target":34962},{"buffer":0,"byteOffset":5076952,"byteLength":2592,"target":34962},{"buffer":0,"byteOffset":5079544,"byteLength":3888,"target":34962},{"buffer":0,"byteOffset":5098344,"byteLength":2592,"target":34962},{"buffer":0,"byteOffset":45664,"byteLength":288,"target":34962},{"buffer":0,"byteOffset":45952,"byteLength":288,"target":34962},{"buffer":0,"byteOffset":46240,"byteLength":192,"target":34962},{"buffer":0,"byteOffset":46432,"byteLength":72,"target":34963},{"buffer":0,"byteOffset":46504,"byteLength":48,"target":34962},{"buffer":0,"byteOffset":46552,"byteLength":48,"target":34962},{"buffer":0,"byteOffset":83652,"byteLength":32,"target":34962},{"buffer":0,"byteOffset":46632,"byteLength":12,"target":34963},{"buffer":0,"byteOffset":46644,"byteLength":288,"target":34962},{"buffer":0,"byteOffset":5086024,"byteLength":192,"target":34962},{"buffer":0,"byteOffset":5100936,"byteLength":192,"target":34962},{"buffer":0,"byteOffset":47316,"byteLength":480,"target":34962},{"buffer":0,"byteOffset":47796,"byteLength":480,"target":34962},{"buffer":0,"byteOffset":48276,"byteLength":320,"target":34962},{"buffer":0,"byteOffset":48596,"byteLength":144,"target":34963},{"buffer":0,"byteOffset":84068,"byteLength":192,"target":34962},{"buffer":0,"byteOffset":5086408,"byteLength":480,"target":34962},{"buffer":0,"byteOffset":5086888,"byteLength":480,"target":34962},{"buffer":0,"byteOffset":5101128,"byteLength":320,"target":34962},{"buffer":0,"byteOffset":5087688,"byteLength":192,"target":34962},{"buffer":0,"byteOffset":5087880,"byteLength":192,"target":34962},{"buffer":0,"byteOffset":5101448,"byteLength":192,"target":34962}],"accessors":[{"bufferView":0,"componentType":5126,"count":324,"type":"VEC3","min":[-0.5,-0.5,-0.5],"max":[0.5,0.5,0.5]},{"bufferView":1,"componentType":5126,"count":324,"type":"VEC3"},{"bufferView":2,"componentType":5126,"count":324,"type":"VEC2"},{"bufferView":3,"componentType":5126,"count":324,"type":"VEC2"},{"bufferView":4,"componentType":5126,"count":100,"type":"VEC3","min":[-1,-0.5,-1],"max":[1,0.5,1]},{"bufferView":5,"componentType":5126,"count":100,"type":"VEC3"},{"bufferView":6,"componentType":5126,"count":100,"type":"VEC2"},{"bufferView":7,"componentType":5123,"count":192,"type":"SCALAR"},{"bufferView":8,"componentType":5126,"count":324,"type":"VEC2"},{"bufferView":9,"componentType":5126,"count":100,"type":"VEC3","min":[-1,-0.5,-1],"max":[1,0.5,1]},{"bufferView":10,"componentType":5126,"count":100,"type":"VEC3"},{"bufferView":11,"componentType":5126,"count":100,"type":"VEC2"},{"bufferView":12,"componentType":5126,"count":324,"type":"VEC2"},{"bufferView":13,"componentType":5126,"count":324,"type":"VEC2"},{"bufferView":14,"componentType":5126,"count":324,"type":"VEC3","min":[-0.5,-0.5,-0.5],"max":[0.5,0.5,0.5]},{"bufferView":15,"componentType":5126,"count":324,"type":"VEC2"},{"bufferView":16,"componentType":5126,"count":24,"type":"VEC3","min":[-0.5,-0.5,-0.02500000037252903],"max":[0.5,0.5,0.02500000037252903]},{"bufferView":17,"componentType":5126,"count":24,"type":"VEC3"},{"bufferView":18,"componentType":5126,"count":24,"type":"VEC2"},{"bufferView":19,"componentType":5123,"count":36,"type":"SCALAR"},{"bufferView":20,"componentType":5126,"count":4,"type":"VEC3","min":[-0.5,-0.5,0],"max":[0.5,0.5,0]},{"bufferView":21,"componentType":5126,"count":4,"type":"VEC3"},{"bufferView":22,"componentType":5126,"count":4,"type":"VEC2"},{"bufferView":23,"componentType":5123,"count":6,"type":"SCALAR"},{"bufferView":24,"componentType":5126,"count":24,"type":"VEC3","min":[-0.5,-0.5,-0.5],"max":[0.5,0.5,0.5]},{"bufferView":25,"componentType":5126,"count":24,"type":"VEC2"},{"bufferView":26,"componentType":5126,"count":24,"type":"VEC2"},{"bufferView":27,"componentType":5126,"count":40,"type":"VEC3","min":[-0.8660253882408142,-0.5,-1],"max":[0.8660253882408142,0.5,1]},{"bufferView":28,"componentType":5126,"count":40,"type":"VEC3"},{"bufferView":29,"componentType":5126,"count":40,"type":"VEC2"},{"bufferView":30,"componentType":5123,"count":72,"type":"SCALAR"},{"bufferView":31,"componentType":5126,"count":24,"type":"VEC2"},{"bufferView":32,"componentType":5126,"count":40,"type":"VEC3","min":[-0.8660253882408142,-0.5,-1],"max":[0.8660253882408142,0.5,1]},{"bufferView":33,"componentType":5126,"count":40,"type":"VEC3"},{"bufferView":34,"componentType":5126,"count":40,"type":"VEC2"},{"bufferView":35,"componentType":5126,"count":24,"type":"VEC2"},{"bufferView":36,"componentType":5126,"count":24,"type":"VEC2"},{"bufferView":37,"componentType":5126,"count":24,"type":"VEC2"}],"extensionsUsed":["KHR_materials_unlit"],"extras":{"id":"vlt-frankenpine-cell-tower-03","family":"frankenpine-cell-tower","variant":2,"plan":"A3-1","units":"metres","up":"+Y","front":"+Z","lodScenes":[0,1,2]}}