{"asset":{"version":"2.0","generator":"SLOPMERICA Department of Unnecessary Development 1.0"},"scene":0,"scenes":[{"name":"LOD 0","nodes":[0,1,2,3,4,5,6,7,8,9,10,11,12,13,14,15,16,17,18,19,20],"extras":{"level":0}},{"name":"LOD 1","nodes":[21,22,23,24,25,26,27,28,29,30,31,32,33,34,35,36,37,38],"extras":{"level":1}},{"name":"LOD 2","nodes":[39,40,41,42,43,44,45,46,47,48,49,50,51,52,53],"extras":{"level":2}}],"nodes":[{"name":"foundation","mesh":0,"translation":[0,0.08,0],"scale":[17.16,0.16,15.71]},{"name":"congress-store","mesh":1,"translation":[0,2.3688,0],"scale":[5.3856,4.7376,5.3856]},{"name":"rotunda-dome","mesh":2,"translation":[0,6.0536,0],"scale":[5.6848,2.7636,5.6848]},{"name":"snack-wing-0","mesh":3,"translation":[4.437605,1.3818,0.605673],"rotation":[0,-0.07493,0,0.997189],"scale":[5.3856,2.7636,3.7828]},{"name":"snack-wing-1","mesh":4,"translation":[-0.670678,1.3818,4.007489],"rotation":[0,-0.758102,0,0.652136],"scale":[5.3856,2.7636,3.7828]},{"name":"snack-wing-2","mesh":3,"translation":[-4.437605,1.3818,-0.605673],"rotation":[0,0.997189,0,0.07493],"scale":[5.3856,2.7636,3.7828]},{"name":"snack-wing-3","mesh":4,"translation":[0.670678,1.3818,-4.007489],"rotation":[0,0.652136,0,0.758102],"scale":[5.3856,2.7636,3.7828]},{"name":"canopy","mesh":5,"translation":[0,4.2112,7.4305],"scale":[8.6768,0.35,3.7828]},{"name":"canopy-post-0","mesh":6,"translation":[-3.644256,2.0156,7.4305],"scale":[0.1,4.0312,0.1]},{"name":"canopy-post-1","mesh":6,"translation":[-1.214752,2.0156,7.4305],"scale":[0.1,4.0312,0.1]},{"name":"canopy-post-2","mesh":6,"translation":[1.214752,2.0156,7.4305],"scale":[0.1,4.0312,0.1]},{"name":"canopy-post-3","mesh":6,"translation":[3.644256,2.0156,7.4305],"scale":[0.1,4.0312,0.1]},{"name":"pole-sign-post","mesh":7,"translation":[6.8816,3.3,-5.404],"scale":[0.2,6.6,0.2]},{"name":"pole-sign-back","mesh":8,"translation":[6.8816,6.6,-5.404],"scale":[3.3,1.75,1]},{"name":"pole-sign","mesh":9,"translation":[6.8816,6.6,-5.375],"scale":[3.2,1.65,1]},{"name":"busy-state-queue-bar","mesh":10,"translation":[0,0.65,8.5113],"scale":[10.7712,0.12,0.12]},{"name":"queue-car-0","mesh":11,"translation":[-4.488,0.34,9.457],"scale":[1.35,0.65,0.7]},{"name":"queue-car-1","mesh":12,"translation":[-2.244,0.34,10.5378],"scale":[1.35,0.65,0.7]},{"name":"queue-car-2","mesh":11,"translation":[0,0.34,9.457],"scale":[1.35,0.65,0.7]},{"name":"queue-car-3","mesh":12,"translation":[2.244,0.34,10.5378],"scale":[1.35,0.65,0.7]},{"name":"queue-car-4","mesh":11,"translation":[4.488,0.34,9.457],"scale":[1.35,0.65,0.7]},{"name":"foundation","mesh":13,"translation":[0,0.08,0],"scale":[17.16,0.16,15.71]},{"name":"congress-store","mesh":14,"translation":[0,2.3688,0],"scale":[5.3856,4.7376,5.3856]},{"name":"rotunda-dome","mesh":15,"translation":[0,6.0536,0],"scale":[5.6848,2.7636,5.6848]},{"name":"snack-wing-0","mesh":16,"translation":[4.437605,1.3818,0.605673],"rotation":[0,-0.07493,0,0.997189],"scale":[5.3856,2.7636,3.7828]},{"name":"snack-wing-1","mesh":17,"translation":[-2.799627,1.3818,3.167751],"rotation":[0,0.901056,0,-0.433703],"scale":[5.3856,2.7636,3.7828]},{"name":"snack-wing-2","mesh":16,"translation":[-1.637978,1.3818,-3.773424],"rotation":[0,0.826126,0,0.563485],"scale":[5.3856,2.7636,3.7828]},{"name":"canopy","mesh":18,"translation":[0,4.2112,7.4305],"scale":[8.6768,0.35,3.7828]},{"name":"canopy-post-0","mesh":19,"translation":[-3.644256,2.0156,7.4305],"scale":[0.1,4.0312,0.1]},{"name":"canopy-post-1","mesh":19,"translation":[-1.214752,2.0156,7.4305],"scale":[0.1,4.0312,0.1]},{"name":"canopy-post-2","mesh":19,"translation":[1.214752,2.0156,7.4305],"scale":[0.1,4.0312,0.1]},{"name":"canopy-post-3","mesh":19,"translation":[3.644256,2.0156,7.4305],"scale":[0.1,4.0312,0.1]},{"name":"pole-sign-post","mesh":20,"translation":[6.8816,3.3,-5.404],"scale":[0.2,6.6,0.2]},{"name":"pole-sign-back","mesh":8,"translation":[6.8816,6.6,-5.404],"scale":[3.3,1.75,1]},{"name":"pole-sign","mesh":9,"translation":[6.8816,6.6,-5.375],"scale":[3.2,1.65,1]},{"name":"busy-state-queue-bar","mesh":21,"translation":[0,0.65,8.5113],"scale":[10.7712,0.12,0.12]},{"name":"queue-car-0","mesh":22,"translation":[-4.488,0.34,9.457],"scale":[1.35,0.65,0.7]},{"name":"queue-car-1","mesh":23,"translation":[-2.244,0.34,10.5378],"scale":[1.35,0.65,0.7]},{"name":"queue-car-2","mesh":22,"translation":[0,0.34,9.457],"scale":[1.35,0.65,0.7]},{"name":"foundation","mesh":13,"translation":[0,0.08,0],"scale":[17.16,0.16,15.71]},{"name":"congress-store","mesh":24,"translation":[0,2.3688,0],"scale":[5.3856,4.7376,5.3856]},{"name":"rotunda-dome","mesh":25,"translation":[0,6.0536,0],"scale":[5.6848,2.7636,5.6848]},{"name":"snack-wing-0","mesh":16,"translation":[4.437605,1.3818,0.605673],"rotation":[0,-0.07493,0,0.997189],"scale":[5.3856,2.7636,3.7828]},{"name":"snack-wing-1","mesh":17,"translation":[-4.437605,1.3818,-0.605673],"rotation":[0,0.997189,0,0.07493],"scale":[5.3856,2.7636,3.7828]},{"name":"canopy","mesh":18,"translation":[0,4.2112,7.4305],"scale":[8.6768,0.35,3.7828]},{"name":"canopy-post-0","mesh":19,"translation":[-3.644256,2.0156,7.4305],"scale":[0.1,4.0312,0.1]},{"name":"canopy-post-1","mesh":19,"translation":[-1.214752,2.0156,7.4305],"scale":[0.1,4.0312,0.1]},{"name":"canopy-post-2","mesh":19,"translation":[1.214752,2.0156,7.4305],"scale":[0.1,4.0312,0.1]},{"name":"canopy-post-3","mesh":19,"translation":[3.644256,2.0156,7.4305],"scale":[0.1,4.0312,0.1]},{"name":"pole-sign-post","mesh":20,"translation":[6.8816,3.3,-5.404],"scale":[0.2,6.6,0.2]},{"name":"pole-sign-back","mesh":8,"translation":[6.8816,6.6,-5.404],"scale":[3.3,1.75,1]},{"name":"pole-sign","mesh":9,"translation":[6.8816,6.6,-5.375],"scale":[3.2,1.65,1]},{"name":"busy-state-queue-bar","mesh":21,"translation":[0,0.65,8.5113],"scale":[10.7712,0.12,0.12]},{"name":"queue-car-0","mesh":22,"translation":[-4.488,0.34,9.457],"scale":[1.35,0.65,0.7]}],"meshes":[{"primitives":[{"attributes":{"POSITION":0,"NORMAL":1,"TEXCOORD_0":2},"material":0,"mode":4}]},{"primitives":[{"attributes":{"POSITION":3,"NORMAL":4,"TEXCOORD_0":5},"material":1,"mode":4,"indices":6}]},{"primitives":[{"attributes":{"POSITION":7,"NORMAL":8,"TEXCOORD_0":9},"material":2,"mode":4,"indices":10}]},{"primitives":[{"attributes":{"POSITION":11,"NORMAL":1,"TEXCOORD_0":12},"material":3,"mode":4}]},{"primitives":[{"attributes":{"POSITION":11,"NORMAL":1,"TEXCOORD_0":13},"material":4,"mode":4}]},{"primitives":[{"attributes":{"POSITION":0,"NORMAL":1,"TEXCOORD_0":14},"material":2,"mode":4}]},{"primitives":[{"attributes":{"POSITION":15,"NORMAL":16,"TEXCOORD_0":17},"material":5,"mode":4,"indices":18}]},{"primitives":[{"attributes":{"POSITION":19,"NORMAL":20,"TEXCOORD_0":21},"material":6,"mode":4,"indices":22}]},{"primitives":[{"attributes":{"POSITION":23,"NORMAL":24,"TEXCOORD_0":25},"material":6,"mode":4,"indices":26}]},{"primitives":[{"attributes":{"POSITION":27,"NORMAL":28,"TEXCOORD_0":29},"material":7,"mode":4,"indices":30}]},{"primitives":[{"attributes":{"POSITION":0,"NORMAL":1,"TEXCOORD_0":31},"material":2,"mode":4}]},{"primitives":[{"attributes":{"POSITION":0,"NORMAL":1,"TEXCOORD_0":32},"material":8,"mode":4}]},{"primitives":[{"attributes":{"POSITION":0,"NORMAL":1,"TEXCOORD_0":32},"material":3,"mode":4}]},{"primitives":[{"attributes":{"POSITION":33,"NORMAL":24,"TEXCOORD_0":34},"material":0,"mode":4,"indices":26}]},{"primitives":[{"attributes":{"POSITION":35,"NORMAL":36,"TEXCOORD_0":37},"material":1,"mode":4,"indices":38}]},{"primitives":[{"attributes":{"POSITION":39,"NORMAL":40,"TEXCOORD_0":41},"material":2,"mode":4,"indices":42}]},{"primitives":[{"attributes":{"POSITION":33,"NORMAL":24,"TEXCOORD_0":43},"material":3,"mode":4,"indices":26}]},{"primitives":[{"attributes":{"POSITION":33,"NORMAL":24,"TEXCOORD_0":44},"material":4,"mode":4,"indices":26}]},{"primitives":[{"attributes":{"POSITION":33,"NORMAL":24,"TEXCOORD_0":45},"material":2,"mode":4,"indices":26}]},{"primitives":[{"attributes":{"POSITION":46,"NORMAL":47,"TEXCOORD_0":48},"material":5,"mode":4,"indices":49}]},{"primitives":[{"attributes":{"POSITION":50,"NORMAL":51,"TEXCOORD_0":52},"material":6,"mode":4,"indices":49}]},{"primitives":[{"attributes":{"POSITION":33,"NORMAL":24,"TEXCOORD_0":53},"material":2,"mode":4,"indices":26}]},{"primitives":[{"attributes":{"POSITION":33,"NORMAL":24,"TEXCOORD_0":54},"material":8,"mode":4,"indices":26}]},{"primitives":[{"attributes":{"POSITION":33,"NORMAL":24,"TEXCOORD_0":54},"material":3,"mode":4,"indices":26}]},{"primitives":[{"attributes":{"POSITION":55,"NORMAL":56,"TEXCOORD_0":57},"material":1,"mode":4,"indices":49}]},{"primitives":[{"attributes":{"POSITION":58,"NORMAL":59,"TEXCOORD_0":60},"material":2,"mode":4,"indices":61}]}],"materials":[{"name":"concrete","pbrMetallicRoughness":{"baseColorTexture":{"index":0},"metallicRoughnessTexture":{"index":2},"roughnessFactor":1,"metallicFactor":1},"normalTexture":{"index":1,"scale":0.82},"occlusionTexture":{"index":2,"strength":0.35}},{"name":"brick-cream","pbrMetallicRoughness":{"baseColorTexture":{"index":3},"metallicRoughnessTexture":{"index":5},"roughnessFactor":1,"metallicFactor":1},"normalTexture":{"index":4,"scale":1.05},"occlusionTexture":{"index":5,"strength":0.35}},{"name":"paint-yellow","pbrMetallicRoughness":{"baseColorFactor":[0.76052450467022,0.4793201830913402,0.07818742179702069,1],"roughnessFactor":0.66,"metallicFactor":0.03}},{"name":"paint-blue","pbrMetallicRoughness":{"baseColorFactor":[0.05126945836711539,0.10946171076915331,0.22696587349938613,1],"roughnessFactor":0.58,"metallicFactor":0.05}},{"name":"brick-red","pbrMetallicRoughness":{"baseColorTexture":{"index":6},"metallicRoughnessTexture":{"index":8},"roughnessFactor":1,"metallicFactor":1},"normalTexture":{"index":7,"scale":1.15},"occlusionTexture":{"index":8,"strength":0.35}},{"name":"metal-galvanized","pbrMetallicRoughness":{"baseColorTexture":{"index":9},"metallicRoughnessTexture":{"index":11},"roughnessFactor":1,"metallicFactor":1},"normalTexture":{"index":10,"scale":0.15},"occlusionTexture":{"index":11,"strength":0.35}},{"name":"metal-dark","pbrMetallicRoughness":{"baseColorTexture":{"index":12},"metallicRoughnessTexture":{"index":14},"roughnessFactor":1,"metallicFactor":1},"normalTexture":{"index":13,"scale":0.35},"occlusionTexture":{"index":14,"strength":0.35}},{"name":"convenience-congress signage","pbrMetallicRoughness":{"baseColorTexture":{"index":15},"roughnessFactor":1,"metallicFactor":0},"extensions":{"KHR_materials_unlit":{}}},{"name":"paint-red","pbrMetallicRoughness":{"baseColorFactor":[0.46778379610254284,0.08021982030622662,0.05126945836711539,1],"roughnessFactor":0.62,"metallicFactor":0.05}}],"textures":[{"source":0,"sampler":0},{"source":1,"sampler":0},{"source":2,"sampler":0},{"source":3,"sampler":0},{"source":4,"sampler":0},{"source":5,"sampler":0},{"source":6,"sampler":0},{"source":7,"sampler":0},{"source":8,"sampler":0},{"source":9,"sampler":0},{"source":10,"sampler":0},{"source":11,"sampler":0},{"source":12,"sampler":0},{"source":13,"sampler":0},{"source":14,"sampler":0},{"source":15,"sampler":0}],"images":[{"uri":"../textures/concrete-albedo.png"},{"uri":"../textures/concrete-normal.png"},{"uri":"../textures/concrete-orm.png"},{"uri":"../textures/brick-cream-albedo.png"},{"uri":"../textures/brick-cream-normal.png"},{"uri":"../textures/brick-cream-orm.png"},{"uri":"../textures/brick-red-albedo.png"},{"uri":"../textures/brick-red-normal.png"},{"uri":"../textures/brick-red-orm.png"},{"uri":"../textures/metal-galvanized-albedo.png"},{"uri":"../textures/metal-galvanized-normal.png"},{"uri":"../textures/metal-galvanized-orm.png"},{"uri":"../textures/metal-dark-albedo.png"},{"uri":"../textures/metal-dark-normal.png"},{"uri":"../textures/metal-dark-orm.png"},{"uri":"../signs/convenience-congress.png"}],"samplers":[{"magFilter":9729,"minFilter":9987,"wrapS":10497,"wrapT":10497}],"buffers":[{"uri":"../shared/geometry.bin","byteLength":16435520}],"bufferViews":[{"buffer":0,"byteOffset":0,"byteLength":3888,"target":34962},{"buffer":0,"byteOffset":3888,"byteLength":3888,"target":34962},{"buffer":0,"byteOffset":2429928,"byteLength":2592,"target":34962},{"buffer":0,"byteOffset":2347692,"byteLength":1344,"target":34962},{"buffer":0,"byteOffset":2349036,"byteLength":1344,"target":34962},{"buffer":0,"byteOffset":2350380,"byteLength":896,"target":34962},{"buffer":0,"byteOffset":2072684,"byteLength":432,"target":34963},{"buffer":0,"byteOffset":2351276,"byteLength":900,"target":34962},{"buffer":0,"byteOffset":2352176,"byteLength":900,"target":34962},{"buffer":0,"byteOffset":2353076,"byteLength":600,"target":34962},{"buffer":0,"byteOffset":2353676,"byteLength":216,"target":34963},{"buffer":0,"byteOffset":378372,"byteLength":3888,"target":34962},{"buffer":0,"byteOffset":2432520,"byteLength":2592,"target":34962},{"buffer":0,"byteOffset":2435112,"byteLength":2592,"target":34962},{"buffer":0,"byteOffset":2437704,"byteLength":2592,"target":34962},{"buffer":0,"byteOffset":1110072,"byteLength":624,"target":34962},{"buffer":0,"byteOffset":1110696,"byteLength":624,"target":34962},{"buffer":0,"byteOffset":2361668,"byteLength":416,"target":34962},{"buffer":0,"byteOffset":1111736,"byteLength":192,"target":34963},{"buffer":0,"byteOffset":2362084,"byteLength":768,"target":34962},{"buffer":0,"byteOffset":2362852,"byteLength":768,"target":34962},{"buffer":0,"byteOffset":2440296,"byteLength":512,"target":34962},{"buffer":0,"byteOffset":882248,"byteLength":240,"target":34963},{"buffer":0,"byteOffset":45664,"byteLength":288,"target":34962},{"buffer":0,"byteOffset":45952,"byteLength":288,"target":34962},{"buffer":0,"byteOffset":46240,"byteLength":192,"target":34962},{"buffer":0,"byteOffset":46432,"byteLength":72,"target":34963},{"buffer":0,"byteOffset":46504,"byteLength":48,"target":34962},{"buffer":0,"byteOffset":46552,"byteLength":48,"target":34962},{"buffer":0,"byteOffset":222532,"byteLength":32,"target":34962},{"buffer":0,"byteOffset":46632,"byteLength":12,"target":34963},{"buffer":0,"byteOffset":2599464,"byteLength":2592,"target":34962},{"buffer":0,"byteOffset":582912,"byteLength":2592,"target":34962},{"buffer":0,"byteOffset":46644,"byteLength":288,"target":34962},{"buffer":0,"byteOffset":2440808,"byteLength":192,"target":34962},{"buffer":0,"byteOffset":2364324,"byteLength":696,"target":34962},{"buffer":0,"byteOffset":2365020,"byteLength":696,"target":34962},{"buffer":0,"byteOffset":2365716,"byteLength":464,"target":34962},{"buffer":0,"byteOffset":2089908,"byteLength":216,"target":34963},{"buffer":0,"byteOffset":2366180,"byteLength":468,"target":34962},{"buffer":0,"byteOffset":2366648,"byteLength":468,"target":34962},{"buffer":0,"byteOffset":2367116,"byteLength":312,"target":34962},{"buffer":0,"byteOffset":2367428,"byteLength":108,"target":34963},{"buffer":0,"byteOffset":2441000,"byteLength":192,"target":34962},{"buffer":0,"byteOffset":2441192,"byteLength":192,"target":34962},{"buffer":0,"byteOffset":2441384,"byteLength":192,"target":34962},{"buffer":0,"byteOffset":1112312,"byteLength":480,"target":34962},{"buffer":0,"byteOffset":1112792,"byteLength":480,"target":34962},{"buffer":0,"byteOffset":2368112,"byteLength":320,"target":34962},{"buffer":0,"byteOffset":48596,"byteLength":144,"target":34963},{"buffer":0,"byteOffset":2368432,"byteLength":480,"target":34962},{"buffer":0,"byteOffset":2368912,"byteLength":480,"target":34962},{"buffer":0,"byteOffset":2441576,"byteLength":320,"target":34962},{"buffer":0,"byteOffset":2602056,"byteLength":192,"target":34962},{"buffer":0,"byteOffset":585696,"byteLength":192,"target":34962},{"buffer":0,"byteOffset":2369712,"byteLength":480,"target":34962},{"buffer":0,"byteOffset":2370192,"byteLength":480,"target":34962},{"buffer":0,"byteOffset":2370672,"byteLength":320,"target":34962},{"buffer":0,"byteOffset":692208,"byteLength":324,"target":34962},{"buffer":0,"byteOffset":692532,"byteLength":324,"target":34962},{"buffer":0,"byteOffset":2370992,"byteLength":216,"target":34962},{"buffer":0,"byteOffset":693072,"byteLength":72,"target":34963}],"accessors":[{"bufferView":0,"componentType":5126,"count":324,"type":"VEC3","min":[-0.5,-0.5,-0.5],"max":[0.5,0.5,0.5]},{"bufferView":1,"componentType":5126,"count":324,"type":"VEC3"},{"bufferView":2,"componentType":5126,"count":324,"type":"VEC2"},{"bufferView":3,"componentType":5126,"count":112,"type":"VEC3","min":[-0.9848077297210693,-0.5,-1],"max":[0.9848077297210693,0.5,1]},{"bufferView":4,"componentType":5126,"count":112,"type":"VEC3"},{"bufferView":5,"componentType":5126,"count":112,"type":"VEC2"},{"bufferView":6,"componentType":5123,"count":216,"type":"SCALAR"},{"bufferView":7,"componentType":5126,"count":75,"type":"VEC3","min":[-0.9848077297210693,-0.5,-1],"max":[0.9848077297210693,0.5,1]},{"bufferView":8,"componentType":5126,"count":75,"type":"VEC3"},{"bufferView":9,"componentType":5126,"count":75,"type":"VEC2"},{"bufferView":10,"componentType":5123,"count":108,"type":"SCALAR"},{"bufferView":11,"componentType":5126,"count":324,"type":"VEC3","min":[-0.5,-0.5,-0.5],"max":[0.5,0.5,0.5]},{"bufferView":12,"componentType":5126,"count":324,"type":"VEC2"},{"bufferView":13,"componentType":5126,"count":324,"type":"VEC2"},{"bufferView":14,"componentType":5126,"count":324,"type":"VEC2"},{"bufferView":15,"componentType":5126,"count":52,"type":"VEC3","min":[-1,-0.5,-1],"max":[1,0.5,1]},{"bufferView":16,"componentType":5126,"count":52,"type":"VEC3"},{"bufferView":17,"componentType":5126,"count":52,"type":"VEC2"},{"bufferView":18,"componentType":5123,"count":96,"type":"SCALAR"},{"bufferView":19,"componentType":5126,"count":64,"type":"VEC3","min":[-0.9510565400123596,-0.5,-1],"max":[0.9510565400123596,0.5,1]},{"bufferView":20,"componentType":5126,"count":64,"type":"VEC3"},{"bufferView":21,"componentType":5126,"count":64,"type":"VEC2"},{"bufferView":22,"componentType":5123,"count":120,"type":"SCALAR"},{"bufferView":23,"componentType":5126,"count":24,"type":"VEC3","min":[-0.5,-0.5,-0.02500000037252903],"max":[0.5,0.5,0.02500000037252903]},{"bufferView":24,"componentType":5126,"count":24,"type":"VEC3"},{"bufferView":25,"componentType":5126,"count":24,"type":"VEC2"},{"bufferView":26,"componentType":5123,"count":36,"type":"SCALAR"},{"bufferView":27,"componentType":5126,"count":4,"type":"VEC3","min":[-0.5,-0.5,0],"max":[0.5,0.5,0]},{"bufferView":28,"componentType":5126,"count":4,"type":"VEC3"},{"bufferView":29,"componentType":5126,"count":4,"type":"VEC2"},{"bufferView":30,"componentType":5123,"count":6,"type":"SCALAR"},{"bufferView":31,"componentType":5126,"count":324,"type":"VEC2"},{"bufferView":32,"componentType":5126,"count":324,"type":"VEC2"},{"bufferView":33,"componentType":5126,"count":24,"type":"VEC3","min":[-0.5,-0.5,-0.5],"max":[0.5,0.5,0.5]},{"bufferView":34,"componentType":5126,"count":24,"type":"VEC2"},{"bufferView":35,"componentType":5126,"count":58,"type":"VEC3","min":[-0.9848077297210693,-0.5,-0.9396926164627075],"max":[0.9848077297210693,0.5,1]},{"bufferView":36,"componentType":5126,"count":58,"type":"VEC3"},{"bufferView":37,"componentType":5126,"count":58,"type":"VEC2"},{"bufferView":38,"componentType":5123,"count":108,"type":"SCALAR"},{"bufferView":39,"componentType":5126,"count":39,"type":"VEC3","min":[-0.9848077297210693,-0.5,-0.9396926164627075],"max":[0.9848077297210693,0.5,1]},{"bufferView":40,"componentType":5126,"count":39,"type":"VEC3"},{"bufferView":41,"componentType":5126,"count":39,"type":"VEC2"},{"bufferView":42,"componentType":5123,"count":54,"type":"SCALAR"},{"bufferView":43,"componentType":5126,"count":24,"type":"VEC2"},{"bufferView":44,"componentType":5126,"count":24,"type":"VEC2"},{"bufferView":45,"componentType":5126,"count":24,"type":"VEC2"},{"bufferView":46,"componentType":5126,"count":40,"type":"VEC3","min":[-0.8660253882408142,-0.5,-1],"max":[0.8660253882408142,0.5,1]},{"bufferView":47,"componentType":5126,"count":40,"type":"VEC3"},{"bufferView":48,"componentType":5126,"count":40,"type":"VEC2"},{"bufferView":49,"componentType":5123,"count":72,"type":"SCALAR"},{"bufferView":50,"componentType":5126,"count":40,"type":"VEC3","min":[-0.8660253882408142,-0.5,-1],"max":[0.8660253882408142,0.5,1]},{"bufferView":51,"componentType":5126,"count":40,"type":"VEC3"},{"bufferView":52,"componentType":5126,"count":40,"type":"VEC2"},{"bufferView":53,"componentType":5126,"count":24,"type":"VEC2"},{"bufferView":54,"componentType":5126,"count":24,"type":"VEC2"},{"bufferView":55,"componentType":5126,"count":40,"type":"VEC3","min":[-0.8660253882408142,-0.5,-1],"max":[0.8660253882408142,0.5,1]},{"bufferView":56,"componentType":5126,"count":40,"type":"VEC3"},{"bufferView":57,"componentType":5126,"count":40,"type":"VEC2"},{"bufferView":58,"componentType":5126,"count":27,"type":"VEC3","min":[-0.8660253882408142,-0.5,-1],"max":[0.8660253882408142,0.5,1]},{"bufferView":59,"componentType":5126,"count":27,"type":"VEC3"},{"bufferView":60,"componentType":5126,"count":27,"type":"VEC2"},{"bufferView":61,"componentType":5123,"count":36,"type":"SCALAR"}],"extensionsUsed":["KHR_materials_unlit"],"extras":{"id":"vlt-convenience-congress-26","family":"convenience-congress","variant":25,"plan":"B1-2","units":"metres","up":"+Y","front":"+Z","lodScenes":[0,1,2]}}