{"asset":{"version":"2.0","generator":"SLOPMERICA Department of Unnecessary Development 1.0"},"scene":0,"scenes":[{"name":"LOD 0","nodes":[0,1,2,3,4,5,6,7,8,9,10,11,12,13,14,15,16,17,18],"extras":{"level":0}},{"name":"LOD 1","nodes":[19,20,21,22,23,24,25,26,27,28,29,30,31,32,33,34,35,36,37],"extras":{"level":1}},{"name":"LOD 2","nodes":[38,39,40,41,42,43,44,45,46,47,48],"extras":{"level":2}}],"nodes":[{"name":"site-pad","mesh":0,"translation":[0,0.06,0],"scale":[5.39136,0.12,4.69248]},{"name":"variant-apron","mesh":1,"translation":[0.33696,0.13,2.476],"scale":[1.27008,0.08,1.16]},{"name":"bollard-0","mesh":2,"translation":[-1.96992,0.43,2.596],"scale":[0.08,0.7,0.08]},{"name":"bollard-1","mesh":2,"translation":[1.96992,0.43,2.596],"scale":[0.08,0.7,0.08]},{"name":"layout-cabinet","mesh":3,"translation":[-2.792,0.525,0.3384],"scale":[0.69,0.81,0.32]},{"name":"deferred-maintenance-skip","mesh":4,"translation":[1.76256,0.5,-1.98528],"scale":[1.27,0.75,0.65]},{"name":"skip-rubble","mesh":5,"translation":[1.76256,0.98,-1.98528],"rotation":[0,0.198669,0,0.980067],"scale":[0.72,0.2,0.5]},{"name":"fiber-hut","mesh":6,"translation":[0,1.71,0],"scale":[5.184,3.18,4.512]},{"name":"fiber-roof","mesh":7,"translation":[0,3.4,0],"scale":[5.434,0.22,4.762]},{"name":"fiber-cabinet-0","mesh":8,"translation":[-1.8144,0.92,2.536],"scale":[0.75,1.61,0.45]},{"name":"fiber-cabinet-1","mesh":8,"translation":[0,0.92,2.536],"scale":[0.75,1.61,0.45]},{"name":"fiber-cabinet-2","mesh":8,"translation":[1.8144,0.92,2.536],"scale":[0.75,1.61,0.45]},{"name":"backup-vent","mesh":9,"translation":[-1.45152,3.9,0],"scale":[0.42,1.46,0.42]},{"name":"fiber-loop-0","mesh":10,"translation":[-2.712,0.8,0],"rotation":[0,0.707107,0,0.707107]},{"name":"fiber-loop-1","mesh":11,"translation":[-2.712,1.2,0],"rotation":[0,0.707107,0,0.707107]},{"name":"fiber-loop-2","mesh":12,"translation":[-2.712,1.6,0],"rotation":[0,0.707107,0,0.707107]},{"name":"fiber-loop-3","mesh":13,"translation":[-2.712,2,0],"rotation":[0,0.707107,0,0.707107]},{"name":"fiber-sign-back","mesh":14,"translation":[0,2.45,2.436],"scale":[2.8,0.82,1]},{"name":"fiber-sign","mesh":15,"translation":[0,2.45,2.465],"scale":[2.7,0.72,1]},{"name":"site-pad","mesh":16,"translation":[0,0.06,0],"scale":[5.39136,0.12,4.69248]},{"name":"variant-apron","mesh":17,"translation":[0.33696,0.13,2.476],"scale":[1.27008,0.08,1.16]},{"name":"bollard-0","mesh":18,"translation":[-1.96992,0.43,2.596],"scale":[0.08,0.7,0.08]},{"name":"bollard-1","mesh":18,"translation":[1.96992,0.43,2.596],"scale":[0.08,0.7,0.08]},{"name":"layout-cabinet","mesh":19,"translation":[-2.792,0.525,0.3384],"scale":[0.69,0.81,0.32]},{"name":"deferred-maintenance-skip","mesh":20,"translation":[1.76256,0.5,-1.98528],"scale":[1.27,0.75,0.65]},{"name":"skip-rubble","mesh":21,"translation":[1.76256,0.98,-1.98528],"rotation":[0,0.198669,0,0.980067],"scale":[0.72,0.2,0.5]},{"name":"fiber-hut","mesh":22,"translation":[0,1.71,0],"scale":[5.184,3.18,4.512]},{"name":"fiber-roof","mesh":23,"translation":[0,3.4,0],"scale":[5.434,0.22,4.762]},{"name":"fiber-cabinet-0","mesh":24,"translation":[-1.8144,0.92,2.536],"scale":[0.75,1.61,0.45]},{"name":"fiber-cabinet-1","mesh":24,"translation":[0,0.92,2.536],"scale":[0.75,1.61,0.45]},{"name":"fiber-cabinet-2","mesh":24,"translation":[1.8144,0.92,2.536],"scale":[0.75,1.61,0.45]},{"name":"backup-vent","mesh":25,"translation":[-1.45152,3.9,0],"scale":[0.42,1.46,0.42]},{"name":"fiber-loop-0","mesh":26,"translation":[-2.712,0.8,0],"rotation":[0,0.707107,0,0.707107]},{"name":"fiber-loop-1","mesh":27,"translation":[-2.712,1.2,0],"rotation":[0,0.707107,0,0.707107]},{"name":"fiber-loop-2","mesh":28,"translation":[-2.712,1.6,0],"rotation":[0,0.707107,0,0.707107]},{"name":"fiber-loop-3","mesh":29,"translation":[-2.712,2,0],"rotation":[0,0.707107,0,0.707107]},{"name":"fiber-sign-back","mesh":14,"translation":[0,2.45,2.436],"scale":[2.8,0.82,1]},{"name":"fiber-sign","mesh":15,"translation":[0,2.45,2.465],"scale":[2.7,0.72,1]},{"name":"site-pad","mesh":16,"translation":[0,0.06,0],"scale":[5.39136,0.12,4.69248]},{"name":"variant-apron","mesh":17,"translation":[0.33696,0.13,2.476],"scale":[1.27008,0.08,1.16]},{"name":"bollard-0","mesh":18,"translation":[-1.96992,0.43,2.596],"scale":[0.08,0.7,0.08]},{"name":"layout-cabinet","mesh":19,"translation":[-2.792,0.525,0.3384],"scale":[0.69,0.81,0.32]},{"name":"deferred-maintenance-skip","mesh":20,"translation":[1.76256,0.5,-1.98528],"scale":[1.27,0.75,0.65]},{"name":"fiber-hut","mesh":22,"translation":[0,1.71,0],"scale":[5.184,3.18,4.512]},{"name":"fiber-roof","mesh":23,"translation":[0,3.4,0],"scale":[5.434,0.22,4.762]},{"name":"fiber-cabinet-0","mesh":24,"translation":[-1.8144,0.92,2.536],"scale":[0.75,1.61,0.45]},{"name":"backup-vent","mesh":25,"translation":[-1.45152,3.9,0],"scale":[0.42,1.46,0.42]},{"name":"fiber-sign-back","mesh":14,"translation":[0,2.45,2.436],"scale":[2.8,0.82,1]},{"name":"fiber-sign","mesh":15,"translation":[0,2.45,2.465],"scale":[2.7,0.72,1]}],"meshes":[{"primitives":[{"attributes":{"POSITION":0,"NORMAL":1,"TEXCOORD_0":2},"material":0,"mode":4}]},{"primitives":[{"attributes":{"POSITION":0,"NORMAL":1,"TEXCOORD_0":3},"material":1,"mode":4}]},{"primitives":[{"attributes":{"POSITION":4,"NORMAL":5,"TEXCOORD_0":6},"material":2,"mode":4,"indices":7}]},{"primitives":[{"attributes":{"POSITION":0,"NORMAL":1,"TEXCOORD_0":8},"material":3,"mode":4}]},{"primitives":[{"attributes":{"POSITION":0,"NORMAL":1,"TEXCOORD_0":9},"material":2,"mode":4}]},{"primitives":[{"attributes":{"POSITION":0,"NORMAL":1,"TEXCOORD_0":10},"material":0,"mode":4}]},{"primitives":[{"attributes":{"POSITION":11,"NORMAL":1,"TEXCOORD_0":12},"material":0,"mode":4}]},{"primitives":[{"attributes":{"POSITION":0,"NORMAL":1,"TEXCOORD_0":13},"material":4,"mode":4}]},{"primitives":[{"attributes":{"POSITION":0,"NORMAL":1,"TEXCOORD_0":14},"material":5,"mode":4}]},{"primitives":[{"attributes":{"POSITION":15,"NORMAL":16,"TEXCOORD_0":17},"material":3,"mode":4,"indices":7}]},{"primitives":[{"attributes":{"POSITION":18,"NORMAL":19,"TEXCOORD_0":20},"material":2,"mode":4,"indices":21}]},{"primitives":[{"attributes":{"POSITION":22,"NORMAL":19,"TEXCOORD_0":20},"material":2,"mode":4,"indices":21}]},{"primitives":[{"attributes":{"POSITION":23,"NORMAL":19,"TEXCOORD_0":20},"material":2,"mode":4,"indices":21}]},{"primitives":[{"attributes":{"POSITION":24,"NORMAL":19,"TEXCOORD_0":20},"material":2,"mode":4,"indices":21}]},{"primitives":[{"attributes":{"POSITION":25,"NORMAL":26,"TEXCOORD_0":27},"material":6,"mode":4,"indices":28}]},{"primitives":[{"attributes":{"POSITION":29,"NORMAL":30,"TEXCOORD_0":31},"material":7,"mode":4,"indices":32}]},{"primitives":[{"attributes":{"POSITION":33,"NORMAL":26,"TEXCOORD_0":34},"material":0,"mode":4,"indices":28}]},{"primitives":[{"attributes":{"POSITION":33,"NORMAL":26,"TEXCOORD_0":35},"material":1,"mode":4,"indices":28}]},{"primitives":[{"attributes":{"POSITION":36,"NORMAL":37,"TEXCOORD_0":38},"material":2,"mode":4,"indices":39}]},{"primitives":[{"attributes":{"POSITION":33,"NORMAL":26,"TEXCOORD_0":40},"material":3,"mode":4,"indices":28}]},{"primitives":[{"attributes":{"POSITION":33,"NORMAL":26,"TEXCOORD_0":41},"material":2,"mode":4,"indices":28}]},{"primitives":[{"attributes":{"POSITION":33,"NORMAL":26,"TEXCOORD_0":42},"material":0,"mode":4,"indices":28}]},{"primitives":[{"attributes":{"POSITION":33,"NORMAL":26,"TEXCOORD_0":43},"material":0,"mode":4,"indices":28}]},{"primitives":[{"attributes":{"POSITION":33,"NORMAL":26,"TEXCOORD_0":44},"material":4,"mode":4,"indices":28}]},{"primitives":[{"attributes":{"POSITION":33,"NORMAL":26,"TEXCOORD_0":45},"material":5,"mode":4,"indices":28}]},{"primitives":[{"attributes":{"POSITION":46,"NORMAL":47,"TEXCOORD_0":48},"material":3,"mode":4,"indices":39}]},{"primitives":[{"attributes":{"POSITION":49,"NORMAL":50,"TEXCOORD_0":51},"material":2,"mode":4,"indices":52}]},{"primitives":[{"attributes":{"POSITION":53,"NORMAL":50,"TEXCOORD_0":51},"material":2,"mode":4,"indices":52}]},{"primitives":[{"attributes":{"POSITION":54,"NORMAL":50,"TEXCOORD_0":51},"material":2,"mode":4,"indices":52}]},{"primitives":[{"attributes":{"POSITION":55,"NORMAL":50,"TEXCOORD_0":51},"material":2,"mode":4,"indices":52}]}],"materials":[{"name":"concrete","pbrMetallicRoughness":{"baseColorTexture":{"index":0},"metallicRoughnessTexture":{"index":2},"roughnessFactor":1,"metallicFactor":1},"normalTexture":{"index":1,"scale":0.82},"occlusionTexture":{"index":2,"strength":0.35}},{"name":"asphalt","pbrMetallicRoughness":{"baseColorTexture":{"index":3},"metallicRoughnessTexture":{"index":5},"roughnessFactor":1,"metallicFactor":1},"normalTexture":{"index":4,"scale":0.62},"occlusionTexture":{"index":5,"strength":0.35}},{"name":"paint-orange","pbrMetallicRoughness":{"baseColorFactor":[0.6444796819634361,0.1878207722902346,0.040915196900556984,1],"roughnessFactor":0.68,"metallicFactor":0.03}},{"name":"metal-galvanized","pbrMetallicRoughness":{"baseColorTexture":{"index":6},"metallicRoughnessTexture":{"index":8},"roughnessFactor":1,"metallicFactor":1},"normalTexture":{"index":7,"scale":0.15},"occlusionTexture":{"index":8,"strength":0.35}},{"name":"roof-metal","pbrMetallicRoughness":{"baseColorTexture":{"index":9},"metallicRoughnessTexture":{"index":11},"roughnessFactor":1,"metallicFactor":1},"normalTexture":{"index":10,"scale":0.68},"occlusionTexture":{"index":11,"strength":0.35}},{"name":"paint-teal","pbrMetallicRoughness":{"baseColorFactor":[0.040915196900556984,0.20507873637973145,0.1878207722902346,1],"roughnessFactor":0.59,"metallicFactor":0.05}},{"name":"metal-dark","pbrMetallicRoughness":{"baseColorTexture":{"index":12},"metallicRoughnessTexture":{"index":14},"roughnessFactor":1,"metallicFactor":1},"normalTexture":{"index":13,"scale":0.35},"occlusionTexture":{"index":14,"strength":0.35}},{"name":"fiber-hut signage","pbrMetallicRoughness":{"baseColorTexture":{"index":15},"roughnessFactor":1,"metallicFactor":0},"extensions":{"KHR_materials_unlit":{}}}],"textures":[{"source":0,"sampler":0},{"source":1,"sampler":0},{"source":2,"sampler":0},{"source":3,"sampler":0},{"source":4,"sampler":0},{"source":5,"sampler":0},{"source":6,"sampler":0},{"source":7,"sampler":0},{"source":8,"sampler":0},{"source":9,"sampler":0},{"source":10,"sampler":0},{"source":11,"sampler":0},{"source":12,"sampler":0},{"source":13,"sampler":0},{"source":14,"sampler":0},{"source":15,"sampler":0}],"images":[{"uri":"../textures/concrete-albedo.png"},{"uri":"../textures/concrete-normal.png"},{"uri":"../textures/concrete-orm.png"},{"uri":"../textures/asphalt-albedo.png"},{"uri":"../textures/asphalt-normal.png"},{"uri":"../textures/asphalt-orm.png"},{"uri":"../textures/metal-galvanized-albedo.png"},{"uri":"../textures/metal-galvanized-normal.png"},{"uri":"../textures/metal-galvanized-orm.png"},{"uri":"../textures/roof-metal-albedo.png"},{"uri":"../textures/roof-metal-normal.png"},{"uri":"../textures/roof-metal-orm.png"},{"uri":"../textures/metal-dark-albedo.png"},{"uri":"../textures/metal-dark-normal.png"},{"uri":"../textures/metal-dark-orm.png"},{"uri":"../signs/fiber-hut.png"}],"samplers":[{"magFilter":9729,"minFilter":9987,"wrapS":10497,"wrapT":10497}],"buffers":[{"uri":"../shared/geometry.bin","byteLength":16435520}],"bufferViews":[{"buffer":0,"byteOffset":0,"byteLength":3888,"target":34962},{"buffer":0,"byteOffset":3888,"byteLength":3888,"target":34962},{"buffer":0,"byteOffset":4583440,"byteLength":2592,"target":34962},{"buffer":0,"byteOffset":4586032,"byteLength":2592,"target":34962},{"buffer":0,"byteOffset":12960,"byteLength":1200,"target":34962},{"buffer":0,"byteOffset":14160,"byteLength":1200,"target":34962},{"buffer":0,"byteOffset":150020,"byteLength":800,"target":34962},{"buffer":0,"byteOffset":16160,"byteLength":384,"target":34963},{"buffer":0,"byteOffset":156740,"byteLength":2592,"target":34962},{"buffer":0,"byteOffset":211268,"byteLength":2592,"target":34962},{"buffer":0,"byteOffset":208260,"byteLength":2592,"target":34962},{"buffer":0,"byteOffset":868536,"byteLength":3888,"target":34962},{"buffer":0,"byteOffset":4588624,"byteLength":2592,"target":34962},{"buffer":0,"byteOffset":4591216,"byteLength":2592,"target":34962},{"buffer":0,"byteOffset":4574400,"byteLength":2592,"target":34962},{"buffer":0,"byteOffset":4446352,"byteLength":1200,"target":34962},{"buffer":0,"byteOffset":4447552,"byteLength":1200,"target":34962},{"buffer":0,"byteOffset":4576992,"byteLength":800,"target":34962},{"buffer":0,"byteOffset":4449552,"byteLength":3132,"target":34962},{"buffer":0,"byteOffset":390704,"byteLength":3132,"target":34962},{"buffer":0,"byteOffset":393836,"byteLength":2088,"target":34962},{"buffer":0,"byteOffset":395924,"byteLength":2688,"target":34963},{"buffer":0,"byteOffset":4452684,"byteLength":3132,"target":34962},{"buffer":0,"byteOffset":4516432,"byteLength":3132,"target":34962},{"buffer":0,"byteOffset":4577792,"byteLength":3132,"target":34962},{"buffer":0,"byteOffset":45664,"byteLength":288,"target":34962},{"buffer":0,"byteOffset":45952,"byteLength":288,"target":34962},{"buffer":0,"byteOffset":46240,"byteLength":192,"target":34962},{"buffer":0,"byteOffset":46432,"byteLength":72,"target":34963},{"buffer":0,"byteOffset":46504,"byteLength":48,"target":34962},{"buffer":0,"byteOffset":46552,"byteLength":48,"target":34962},{"buffer":0,"byteOffset":222724,"byteLength":32,"target":34962},{"buffer":0,"byteOffset":46632,"byteLength":12,"target":34963},{"buffer":0,"byteOffset":46644,"byteLength":288,"target":34962},{"buffer":0,"byteOffset":4593808,"byteLength":192,"target":34962},{"buffer":0,"byteOffset":4594000,"byteLength":192,"target":34962},{"buffer":0,"byteOffset":47316,"byteLength":480,"target":34962},{"buffer":0,"byteOffset":47796,"byteLength":480,"target":34962},{"buffer":0,"byteOffset":153636,"byteLength":320,"target":34962},{"buffer":0,"byteOffset":48596,"byteLength":144,"target":34963},{"buffer":0,"byteOffset":159556,"byteLength":192,"target":34962},{"buffer":0,"byteOffset":213892,"byteLength":192,"target":34962},{"buffer":0,"byteOffset":211076,"byteLength":192,"target":34962},{"buffer":0,"byteOffset":4594192,"byteLength":192,"target":34962},{"buffer":0,"byteOffset":4594384,"byteLength":192,"target":34962},{"buffer":0,"byteOffset":4581500,"byteLength":192,"target":34962},{"buffer":0,"byteOffset":4456584,"byteLength":480,"target":34962},{"buffer":0,"byteOffset":4457064,"byteLength":480,"target":34962},{"buffer":0,"byteOffset":4581692,"byteLength":320,"target":34962},{"buffer":0,"byteOffset":4457864,"byteLength":1428,"target":34962},{"buffer":0,"byteOffset":427996,"byteLength":1428,"target":34962},{"buffer":0,"byteOffset":429424,"byteLength":952,"target":34962},{"buffer":0,"byteOffset":430376,"byteLength":1152,"target":34963},{"buffer":0,"byteOffset":4459292,"byteLength":1428,"target":34962},{"buffer":0,"byteOffset":4520652,"byteLength":1428,"target":34962},{"buffer":0,"byteOffset":4582012,"byteLength":1428,"target":34962}],"accessors":[{"bufferView":0,"componentType":5126,"count":324,"type":"VEC3","min":[-0.5,-0.5,-0.5],"max":[0.5,0.5,0.5]},{"bufferView":1,"componentType":5126,"count":324,"type":"VEC3"},{"bufferView":2,"componentType":5126,"count":324,"type":"VEC2"},{"bufferView":3,"componentType":5126,"count":324,"type":"VEC2"},{"bufferView":4,"componentType":5126,"count":100,"type":"VEC3","min":[-1,-0.5,-1],"max":[1,0.5,1]},{"bufferView":5,"componentType":5126,"count":100,"type":"VEC3"},{"bufferView":6,"componentType":5126,"count":100,"type":"VEC2"},{"bufferView":7,"componentType":5123,"count":192,"type":"SCALAR"},{"bufferView":8,"componentType":5126,"count":324,"type":"VEC2"},{"bufferView":9,"componentType":5126,"count":324,"type":"VEC2"},{"bufferView":10,"componentType":5126,"count":324,"type":"VEC2"},{"bufferView":11,"componentType":5126,"count":324,"type":"VEC3","min":[-0.5,-0.5,-0.5],"max":[0.5,0.5,0.5]},{"bufferView":12,"componentType":5126,"count":324,"type":"VEC2"},{"bufferView":13,"componentType":5126,"count":324,"type":"VEC2"},{"bufferView":14,"componentType":5126,"count":324,"type":"VEC2"},{"bufferView":15,"componentType":5126,"count":100,"type":"VEC3","min":[-1,-0.5,-1],"max":[1,0.5,1]},{"bufferView":16,"componentType":5126,"count":100,"type":"VEC3"},{"bufferView":17,"componentType":5126,"count":100,"type":"VEC2"},{"bufferView":18,"componentType":5126,"count":261,"type":"VEC3","min":[-0.4050000011920929,-0.4050000011920929,-0.04500000178813934],"max":[0.4050000011920929,0.4050000011920929,0.04500000178813934]},{"bufferView":19,"componentType":5126,"count":261,"type":"VEC3"},{"bufferView":20,"componentType":5126,"count":261,"type":"VEC2"},{"bufferView":21,"componentType":5123,"count":1344,"type":"SCALAR"},{"bufferView":22,"componentType":5126,"count":261,"type":"VEC3","min":[-0.48500001430511475,-0.48500001430511475,-0.04500000178813934],"max":[0.48500001430511475,0.48500001430511475,0.04500000178813934]},{"bufferView":23,"componentType":5126,"count":261,"type":"VEC3","min":[-0.5649999976158142,-0.5649999976158142,-0.04500000178813934],"max":[0.5649999976158142,0.5649999976158142,0.04500000178813934]},{"bufferView":24,"componentType":5126,"count":261,"type":"VEC3","min":[-0.6449999809265137,-0.6449999809265137,-0.04500000178813934],"max":[0.6449999809265137,0.6449999809265137,0.04500000178813934]},{"bufferView":25,"componentType":5126,"count":24,"type":"VEC3","min":[-0.5,-0.5,-0.02500000037252903],"max":[0.5,0.5,0.02500000037252903]},{"bufferView":26,"componentType":5126,"count":24,"type":"VEC3"},{"bufferView":27,"componentType":5126,"count":24,"type":"VEC2"},{"bufferView":28,"componentType":5123,"count":36,"type":"SCALAR"},{"bufferView":29,"componentType":5126,"count":4,"type":"VEC3","min":[-0.5,-0.5,0],"max":[0.5,0.5,0]},{"bufferView":30,"componentType":5126,"count":4,"type":"VEC3"},{"bufferView":31,"componentType":5126,"count":4,"type":"VEC2"},{"bufferView":32,"componentType":5123,"count":6,"type":"SCALAR"},{"bufferView":33,"componentType":5126,"count":24,"type":"VEC3","min":[-0.5,-0.5,-0.5],"max":[0.5,0.5,0.5]},{"bufferView":34,"componentType":5126,"count":24,"type":"VEC2"},{"bufferView":35,"componentType":5126,"count":24,"type":"VEC2"},{"bufferView":36,"componentType":5126,"count":40,"type":"VEC3","min":[-0.8660253882408142,-0.5,-1],"max":[0.8660253882408142,0.5,1]},{"bufferView":37,"componentType":5126,"count":40,"type":"VEC3"},{"bufferView":38,"componentType":5126,"count":40,"type":"VEC2"},{"bufferView":39,"componentType":5123,"count":72,"type":"SCALAR"},{"bufferView":40,"componentType":5126,"count":24,"type":"VEC2"},{"bufferView":41,"componentType":5126,"count":24,"type":"VEC2"},{"bufferView":42,"componentType":5126,"count":24,"type":"VEC2"},{"bufferView":43,"componentType":5126,"count":24,"type":"VEC2"},{"bufferView":44,"componentType":5126,"count":24,"type":"VEC2"},{"bufferView":45,"componentType":5126,"count":24,"type":"VEC2"},{"bufferView":46,"componentType":5126,"count":40,"type":"VEC3","min":[-0.8660253882408142,-0.5,-1],"max":[0.8660253882408142,0.5,1]},{"bufferView":47,"componentType":5126,"count":40,"type":"VEC3"},{"bufferView":48,"componentType":5126,"count":40,"type":"VEC2"},{"bufferView":49,"componentType":5126,"count":119,"type":"VEC3","min":[-0.4050000011920929,-0.4050000011920929,-0.03897114470601082],"max":[0.4050000011920929,0.4050000011920929,0.03897114470601082]},{"bufferView":50,"componentType":5126,"count":119,"type":"VEC3"},{"bufferView":51,"componentType":5126,"count":119,"type":"VEC2"},{"bufferView":52,"componentType":5123,"count":576,"type":"SCALAR"},{"bufferView":53,"componentType":5126,"count":119,"type":"VEC3","min":[-0.48500001430511475,-0.48500001430511475,-0.03897114470601082],"max":[0.48500001430511475,0.48500001430511475,0.03897114470601082]},{"bufferView":54,"componentType":5126,"count":119,"type":"VEC3","min":[-0.5649999976158142,-0.5649999976158142,-0.03897114470601082],"max":[0.5649999976158142,0.5649999976158142,0.03897114470601082]},{"bufferView":55,"componentType":5126,"count":119,"type":"VEC3","min":[-0.6449999809265137,-0.6449999809265137,-0.03897114470601082],"max":[0.6449999809265137,0.6449999809265137,0.03897114470601082]}],"extensionsUsed":["KHR_materials_unlit"],"extras":{"id":"vlt-fiber-hut-32","family":"fiber-hut","variant":31,"plan":"C2-2","units":"metres","up":"+Y","front":"+Z","lodScenes":[0,1,2]}}