{"asset":{"version":"2.0","generator":"SLOPMERICA Department of Unnecessary Development 1.0"},"scene":0,"scenes":[{"name":"LOD 0","nodes":[0,1,2,3,4,5,6,7,8,9,10,11,12,13,14,15,16,17],"extras":{"level":0}},{"name":"LOD 1","nodes":[18,19,20,21,22,23,24,25,26,27,28,29,30,31],"extras":{"level":1}},{"name":"LOD 2","nodes":[32,33,34,35,36,37,38,39,40,41],"extras":{"level":2}}],"nodes":[{"name":"foundation","mesh":0,"translation":[0,0.08,0],"scale":[23.32,0.16,12.3]},{"name":"strip-shell","mesh":1,"translation":[0,2.4125,0],"scale":[21.12,4.825,10.1]},{"name":"tenant-0","mesh":2,"translation":[-7.92,1.39925,5.13],"scale":[5.12,2.316,0.12]},{"name":"tenant-awning-0","mesh":3,"translation":[-7.92,2.7985,5.39],"scale":[5.18,0.14,0.82]},{"name":"tenant-1","mesh":4,"translation":[-2.64,1.39925,5.13],"scale":[5.12,2.316,0.12]},{"name":"tenant-awning-1","mesh":5,"translation":[-2.64,2.7985,5.39],"scale":[5.18,0.14,0.82]},{"name":"tenant-2","mesh":2,"translation":[2.64,1.39925,5.13],"scale":[5.12,2.316,0.12]},{"name":"tenant-awning-2","mesh":6,"translation":[2.64,2.7985,5.39],"scale":[5.18,0.14,0.82]},{"name":"tenant-3","mesh":4,"translation":[7.92,1.39925,5.13],"scale":[5.12,2.316,0.12]},{"name":"tenant-awning-3","mesh":7,"translation":[7.92,2.7985,5.39],"scale":[5.18,0.14,0.82]},{"name":"parapet","mesh":8,"translation":[0,5.095,0],"scale":[21.37,0.55,10.28]},{"name":"layout-annex","mesh":9,"translation":[-10.3304,1.737,-1.616],"scale":[3.1,3.474,5.05]},{"name":"busy-state-queue-bar","mesh":10,"translation":[0,0.65,6.363],"scale":[15.2064,0.12,0.12]},{"name":"queue-car-0","mesh":11,"translation":[-6.336,0.34,7.07],"scale":[1.35,0.65,0.7]},{"name":"queue-car-1","mesh":12,"translation":[-3.168,0.34,7.878],"scale":[1.35,0.65,0.7]},{"name":"queue-car-2","mesh":11,"translation":[0,0.34,7.07],"scale":[1.35,0.65,0.7]},{"name":"queue-car-3","mesh":12,"translation":[3.168,0.34,7.878],"scale":[1.35,0.65,0.7]},{"name":"queue-car-4","mesh":11,"translation":[6.336,0.34,7.07],"scale":[1.35,0.65,0.7]},{"name":"foundation","mesh":13,"translation":[0,0.08,0],"scale":[23.32,0.16,12.3]},{"name":"strip-shell","mesh":14,"translation":[0,2.4125,0],"scale":[21.12,4.825,10.1]},{"name":"tenant-0","mesh":15,"translation":[-7.04,1.39925,5.13],"scale":[6.88,2.316,0.12]},{"name":"tenant-awning-0","mesh":16,"translation":[-7.04,2.7985,5.39],"scale":[6.94,0.14,0.82]},{"name":"tenant-1","mesh":17,"translation":[0,1.39925,5.13],"scale":[6.88,2.316,0.12]},{"name":"tenant-awning-1","mesh":18,"translation":[0,2.7985,5.39],"scale":[6.94,0.14,0.82]},{"name":"tenant-2","mesh":15,"translation":[7.04,1.39925,5.13],"scale":[6.88,2.316,0.12]},{"name":"tenant-awning-2","mesh":19,"translation":[7.04,2.7985,5.39],"scale":[6.94,0.14,0.82]},{"name":"parapet","mesh":20,"translation":[0,5.095,0],"scale":[21.37,0.55,10.28]},{"name":"layout-annex","mesh":21,"translation":[-10.3304,1.737,-1.616],"scale":[3.1,3.474,5.05]},{"name":"busy-state-queue-bar","mesh":22,"translation":[0,0.65,6.363],"scale":[15.2064,0.12,0.12]},{"name":"queue-car-0","mesh":23,"translation":[-6.336,0.34,7.07],"scale":[1.35,0.65,0.7]},{"name":"queue-car-1","mesh":24,"translation":[-3.168,0.34,7.878],"scale":[1.35,0.65,0.7]},{"name":"queue-car-2","mesh":23,"translation":[0,0.34,7.07],"scale":[1.35,0.65,0.7]},{"name":"foundation","mesh":13,"translation":[0,0.08,0],"scale":[23.32,0.16,12.3]},{"name":"strip-shell","mesh":14,"translation":[0,2.4125,0],"scale":[21.12,4.825,10.1]},{"name":"tenant-0","mesh":25,"translation":[-5.28,1.39925,5.13],"scale":[10.4,2.316,0.12]},{"name":"tenant-awning-0","mesh":26,"translation":[-5.28,2.7985,5.39],"scale":[10.46,0.14,0.82]},{"name":"tenant-1","mesh":27,"translation":[5.28,1.39925,5.13],"scale":[10.4,2.316,0.12]},{"name":"tenant-awning-1","mesh":28,"translation":[5.28,2.7985,5.39],"scale":[10.46,0.14,0.82]},{"name":"parapet","mesh":20,"translation":[0,5.095,0],"scale":[21.37,0.55,10.28]},{"name":"layout-annex","mesh":21,"translation":[-10.3304,1.737,-1.616],"scale":[3.1,3.474,5.05]},{"name":"busy-state-queue-bar","mesh":22,"translation":[0,0.65,6.363],"scale":[15.2064,0.12,0.12]},{"name":"queue-car-0","mesh":23,"translation":[-6.336,0.34,7.07],"scale":[1.35,0.65,0.7]}],"meshes":[{"primitives":[{"attributes":{"POSITION":0,"NORMAL":1,"TEXCOORD_0":2},"material":0,"mode":4}]},{"primitives":[{"attributes":{"POSITION":3,"NORMAL":1,"TEXCOORD_0":4},"material":1,"mode":4}]},{"primitives":[{"attributes":{"POSITION":0,"NORMAL":1,"TEXCOORD_0":5},"material":2,"mode":4}]},{"primitives":[{"attributes":{"POSITION":0,"NORMAL":1,"TEXCOORD_0":6},"material":3,"mode":4}]},{"primitives":[{"attributes":{"POSITION":0,"NORMAL":1,"TEXCOORD_0":7},"material":4,"mode":4}]},{"primitives":[{"attributes":{"POSITION":0,"NORMAL":1,"TEXCOORD_0":6},"material":5,"mode":4}]},{"primitives":[{"attributes":{"POSITION":0,"NORMAL":1,"TEXCOORD_0":6},"material":6,"mode":4}]},{"primitives":[{"attributes":{"POSITION":0,"NORMAL":1,"TEXCOORD_0":6},"material":7,"mode":4}]},{"primitives":[{"attributes":{"POSITION":0,"NORMAL":1,"TEXCOORD_0":8},"material":8,"mode":4}]},{"primitives":[{"attributes":{"POSITION":9,"NORMAL":1,"TEXCOORD_0":10},"material":9,"mode":4}]},{"primitives":[{"attributes":{"POSITION":0,"NORMAL":1,"TEXCOORD_0":11},"material":3,"mode":4}]},{"primitives":[{"attributes":{"POSITION":0,"NORMAL":1,"TEXCOORD_0":12},"material":3,"mode":4}]},{"primitives":[{"attributes":{"POSITION":0,"NORMAL":1,"TEXCOORD_0":12},"material":7,"mode":4}]},{"primitives":[{"attributes":{"POSITION":13,"NORMAL":14,"TEXCOORD_0":15},"material":0,"mode":4,"indices":16}]},{"primitives":[{"attributes":{"POSITION":13,"NORMAL":14,"TEXCOORD_0":17},"material":1,"mode":4,"indices":16}]},{"primitives":[{"attributes":{"POSITION":13,"NORMAL":14,"TEXCOORD_0":18},"material":2,"mode":4,"indices":16}]},{"primitives":[{"attributes":{"POSITION":13,"NORMAL":14,"TEXCOORD_0":19},"material":3,"mode":4,"indices":16}]},{"primitives":[{"attributes":{"POSITION":13,"NORMAL":14,"TEXCOORD_0":20},"material":4,"mode":4,"indices":16}]},{"primitives":[{"attributes":{"POSITION":13,"NORMAL":14,"TEXCOORD_0":19},"material":5,"mode":4,"indices":16}]},{"primitives":[{"attributes":{"POSITION":13,"NORMAL":14,"TEXCOORD_0":19},"material":6,"mode":4,"indices":16}]},{"primitives":[{"attributes":{"POSITION":13,"NORMAL":14,"TEXCOORD_0":21},"material":8,"mode":4,"indices":16}]},{"primitives":[{"attributes":{"POSITION":13,"NORMAL":14,"TEXCOORD_0":22},"material":9,"mode":4,"indices":16}]},{"primitives":[{"attributes":{"POSITION":13,"NORMAL":14,"TEXCOORD_0":23},"material":3,"mode":4,"indices":16}]},{"primitives":[{"attributes":{"POSITION":13,"NORMAL":14,"TEXCOORD_0":24},"material":3,"mode":4,"indices":16}]},{"primitives":[{"attributes":{"POSITION":13,"NORMAL":14,"TEXCOORD_0":24},"material":7,"mode":4,"indices":16}]},{"primitives":[{"attributes":{"POSITION":13,"NORMAL":14,"TEXCOORD_0":25},"material":2,"mode":4,"indices":16}]},{"primitives":[{"attributes":{"POSITION":13,"NORMAL":14,"TEXCOORD_0":26},"material":3,"mode":4,"indices":16}]},{"primitives":[{"attributes":{"POSITION":13,"NORMAL":14,"TEXCOORD_0":27},"material":4,"mode":4,"indices":16}]},{"primitives":[{"attributes":{"POSITION":13,"NORMAL":14,"TEXCOORD_0":26},"material":5,"mode":4,"indices":16}]}],"materials":[{"name":"concrete","pbrMetallicRoughness":{"baseColorTexture":{"index":0},"metallicRoughnessTexture":{"index":2},"roughnessFactor":1,"metallicFactor":1},"normalTexture":{"index":1,"scale":0.82},"occlusionTexture":{"index":2,"strength":0.35}},{"name":"brick-cream","pbrMetallicRoughness":{"baseColorTexture":{"index":3},"metallicRoughnessTexture":{"index":5},"roughnessFactor":1,"metallicFactor":1},"normalTexture":{"index":4,"scale":1.05},"occlusionTexture":{"index":5,"strength":0.35}},{"name":"metal-dark","pbrMetallicRoughness":{"baseColorTexture":{"index":6},"metallicRoughnessTexture":{"index":8},"roughnessFactor":1,"metallicFactor":1},"normalTexture":{"index":7,"scale":0.35},"occlusionTexture":{"index":8,"strength":0.35}},{"name":"paint-red","pbrMetallicRoughness":{"baseColorFactor":[0.46778379610254284,0.08021982030622662,0.05126945836711539,1],"roughnessFactor":0.62,"metallicFactor":0.05}},{"name":"glass-blue","pbrMetallicRoughness":{"baseColorTexture":{"index":9},"metallicRoughnessTexture":{"index":11},"roughnessFactor":1,"metallicFactor":1},"normalTexture":{"index":10,"scale":0.12},"occlusionTexture":{"index":11,"strength":0.35}},{"name":"paint-yellow","pbrMetallicRoughness":{"baseColorFactor":[0.76052450467022,0.4793201830913402,0.07818742179702069,1],"roughnessFactor":0.66,"metallicFactor":0.03}},{"name":"paint-teal","pbrMetallicRoughness":{"baseColorFactor":[0.040915196900556984,0.20507873637973145,0.1878207722902346,1],"roughnessFactor":0.59,"metallicFactor":0.05}},{"name":"paint-blue","pbrMetallicRoughness":{"baseColorFactor":[0.05126945836711539,0.10946171076915331,0.22696587349938613,1],"roughnessFactor":0.58,"metallicFactor":0.05}},{"name":"stucco-ivory","pbrMetallicRoughness":{"baseColorTexture":{"index":12},"metallicRoughnessTexture":{"index":14},"roughnessFactor":1,"metallicFactor":1},"normalTexture":{"index":13,"scale":0.5},"occlusionTexture":{"index":14,"strength":0.35}},{"name":"brick-red","pbrMetallicRoughness":{"baseColorTexture":{"index":15},"metallicRoughnessTexture":{"index":17},"roughnessFactor":1,"metallicFactor":1},"normalTexture":{"index":16,"scale":1.15},"occlusionTexture":{"index":17,"strength":0.35}}],"textures":[{"source":0,"sampler":0},{"source":1,"sampler":0},{"source":2,"sampler":0},{"source":3,"sampler":0},{"source":4,"sampler":0},{"source":5,"sampler":0},{"source":6,"sampler":0},{"source":7,"sampler":0},{"source":8,"sampler":0},{"source":9,"sampler":0},{"source":10,"sampler":0},{"source":11,"sampler":0},{"source":12,"sampler":0},{"source":13,"sampler":0},{"source":14,"sampler":0},{"source":15,"sampler":0},{"source":16,"sampler":0},{"source":17,"sampler":0}],"images":[{"uri":"../textures/concrete-albedo.png"},{"uri":"../textures/concrete-normal.png"},{"uri":"../textures/concrete-orm.png"},{"uri":"../textures/brick-cream-albedo.png"},{"uri":"../textures/brick-cream-normal.png"},{"uri":"../textures/brick-cream-orm.png"},{"uri":"../textures/metal-dark-albedo.png"},{"uri":"../textures/metal-dark-normal.png"},{"uri":"../textures/metal-dark-orm.png"},{"uri":"../textures/glass-blue-albedo.png"},{"uri":"../textures/glass-blue-normal.png"},{"uri":"../textures/glass-blue-orm.png"},{"uri":"../textures/stucco-ivory-albedo.png"},{"uri":"../textures/stucco-ivory-normal.png"},{"uri":"../textures/stucco-ivory-orm.png"},{"uri":"../textures/brick-red-albedo.png"},{"uri":"../textures/brick-red-normal.png"},{"uri":"../textures/brick-red-orm.png"}],"samplers":[{"magFilter":9729,"minFilter":9987,"wrapS":10497,"wrapT":10497}],"buffers":[{"uri":"../shared/geometry.bin","byteLength":16435520}],"bufferViews":[{"buffer":0,"byteOffset":0,"byteLength":3888,"target":34962},{"buffer":0,"byteOffset":3888,"byteLength":3888,"target":34962},{"buffer":0,"byteOffset":13766188,"byteLength":2592,"target":34962},{"buffer":0,"byteOffset":868536,"byteLength":3888,"target":34962},{"buffer":0,"byteOffset":13768780,"byteLength":2592,"target":34962},{"buffer":0,"byteOffset":13624300,"byteLength":2592,"target":34962},{"buffer":0,"byteOffset":13626892,"byteLength":2592,"target":34962},{"buffer":0,"byteOffset":13629484,"byteLength":2592,"target":34962},{"buffer":0,"byteOffset":13771372,"byteLength":2592,"target":34962},{"buffer":0,"byteOffset":378372,"byteLength":3888,"target":34962},{"buffer":0,"byteOffset":13773964,"byteLength":2592,"target":34962},{"buffer":0,"byteOffset":5060408,"byteLength":2592,"target":34962},{"buffer":0,"byteOffset":582912,"byteLength":2592,"target":34962},{"buffer":0,"byteOffset":46644,"byteLength":288,"target":34962},{"buffer":0,"byteOffset":45952,"byteLength":288,"target":34962},{"buffer":0,"byteOffset":13776556,"byteLength":192,"target":34962},{"buffer":0,"byteOffset":46432,"byteLength":72,"target":34963},{"buffer":0,"byteOffset":13776748,"byteLength":192,"target":34962},{"buffer":0,"byteOffset":13637644,"byteLength":192,"target":34962},{"buffer":0,"byteOffset":13637836,"byteLength":192,"target":34962},{"buffer":0,"byteOffset":13638028,"byteLength":192,"target":34962},{"buffer":0,"byteOffset":13776940,"byteLength":192,"target":34962},{"buffer":0,"byteOffset":13777132,"byteLength":192,"target":34962},{"buffer":0,"byteOffset":5063000,"byteLength":192,"target":34962},{"buffer":0,"byteOffset":585696,"byteLength":192,"target":34962},{"buffer":0,"byteOffset":13638604,"byteLength":192,"target":34962},{"buffer":0,"byteOffset":13638796,"byteLength":192,"target":34962},{"buffer":0,"byteOffset":13638988,"byteLength":192,"target":34962}],"accessors":[{"bufferView":0,"componentType":5126,"count":324,"type":"VEC3","min":[-0.5,-0.5,-0.5],"max":[0.5,0.5,0.5]},{"bufferView":1,"componentType":5126,"count":324,"type":"VEC3"},{"bufferView":2,"componentType":5126,"count":324,"type":"VEC2"},{"bufferView":3,"componentType":5126,"count":324,"type":"VEC3","min":[-0.5,-0.5,-0.5],"max":[0.5,0.5,0.5]},{"bufferView":4,"componentType":5126,"count":324,"type":"VEC2"},{"bufferView":5,"componentType":5126,"count":324,"type":"VEC2"},{"bufferView":6,"componentType":5126,"count":324,"type":"VEC2"},{"bufferView":7,"componentType":5126,"count":324,"type":"VEC2"},{"bufferView":8,"componentType":5126,"count":324,"type":"VEC2"},{"bufferView":9,"componentType":5126,"count":324,"type":"VEC3","min":[-0.5,-0.5,-0.5],"max":[0.5,0.5,0.5]},{"bufferView":10,"componentType":5126,"count":324,"type":"VEC2"},{"bufferView":11,"componentType":5126,"count":324,"type":"VEC2"},{"bufferView":12,"componentType":5126,"count":324,"type":"VEC2"},{"bufferView":13,"componentType":5126,"count":24,"type":"VEC3","min":[-0.5,-0.5,-0.5],"max":[0.5,0.5,0.5]},{"bufferView":14,"componentType":5126,"count":24,"type":"VEC3"},{"bufferView":15,"componentType":5126,"count":24,"type":"VEC2"},{"bufferView":16,"componentType":5123,"count":36,"type":"SCALAR"},{"bufferView":17,"componentType":5126,"count":24,"type":"VEC2"},{"bufferView":18,"componentType":5126,"count":24,"type":"VEC2"},{"bufferView":19,"componentType":5126,"count":24,"type":"VEC2"},{"bufferView":20,"componentType":5126,"count":24,"type":"VEC2"},{"bufferView":21,"componentType":5126,"count":24,"type":"VEC2"},{"bufferView":22,"componentType":5126,"count":24,"type":"VEC2"},{"bufferView":23,"componentType":5126,"count":24,"type":"VEC2"},{"bufferView":24,"componentType":5126,"count":24,"type":"VEC2"},{"bufferView":25,"componentType":5126,"count":24,"type":"VEC2"},{"bufferView":26,"componentType":5126,"count":24,"type":"VEC2"},{"bufferView":27,"componentType":5126,"count":24,"type":"VEC2"}],"extensionsUsed":["KHR_materials_unlit"],"extras":{"id":"vlt-strip-mall-of-duty-32","family":"strip-mall-of-duty","variant":31,"plan":"C2-2","units":"metres","up":"+Y","front":"+Z","lodScenes":[0,1,2]}}