{"asset":{"version":"2.0","generator":"SLOPMERICA Department of Unnecessary Development 1.0"},"scene":0,"scenes":[{"name":"LOD 0","nodes":[0,1,2,3,4,5,6,7,8,9,10,11,12,13,14,15,16,17,18,19,20,21,22,23,24,25,26,27,28,29],"extras":{"level":0}},{"name":"LOD 1","nodes":[30,31,32,33,34,35,36,37,38,39,40,41,42,43,44,45,46,47,48,49,50,51,52,53,54,55,56,57],"extras":{"level":1}},{"name":"LOD 2","nodes":[58,59,60,61,62,63,64,65,66,67,68,69,70,71,72,73,74,75],"extras":{"level":2}}],"nodes":[{"name":"foundation","mesh":0,"translation":[0,0.08,0],"scale":[19.88,0.16,13.78]},{"name":"store-shell","mesh":1,"translation":[0,1.7325,0],"scale":[9.724,3.465,6.7164]},{"name":"roof-cap","mesh":2,"translation":[0,3.575,0],"scale":[9.974,0.22,6.9664]},{"name":"window-0","mesh":3,"translation":[-3.59788,1.5246,3.4132],"scale":[1.25471,1.45,0.09]},{"name":"window-1","mesh":3,"translation":[-1.79894,1.5246,3.4132],"scale":[1.25471,1.45,0.09]},{"name":"window-2","mesh":3,"translation":[0,1.5246,3.4132],"scale":[1.25471,1.45,0.09]},{"name":"window-3","mesh":3,"translation":[1.79894,1.5246,3.4132],"scale":[1.25471,1.45,0.09]},{"name":"window-4","mesh":3,"translation":[3.59788,1.5246,3.4132],"scale":[1.25471,1.45,0.09]},{"name":"door","mesh":4,"translation":[3.4034,1.025,3.4282],"scale":[0.92,2.05,0.12]},{"name":"awning","mesh":5,"translation":[0,2.2869,3.8382],"rotation":[-0.039989,0,0,0.9992],"scale":[7.97368,0.18,1.05]},{"name":"mullion-0","mesh":6,"translation":[-3.11168,1.5246,3.4782],"scale":[0.08,1.55,0.12]},{"name":"mullion-1","mesh":6,"translation":[-1.037227,1.5246,3.4782],"scale":[0.08,1.55,0.12]},{"name":"mullion-2","mesh":6,"translation":[1.037227,1.5246,3.4782],"scale":[0.08,1.55,0.12]},{"name":"mullion-3","mesh":6,"translation":[3.11168,1.5246,3.4782],"scale":[0.08,1.55,0.12]},{"name":"primary-sign-back","mesh":7,"translation":[0,2.73735,3.5182],"scale":[6.12888,1.25,1]},{"name":"primary-sign","mesh":8,"translation":[0,2.73735,3.5472],"scale":[6.02888,1.15,1]},{"name":"canopy","mesh":9,"translation":[0,3.762,4.8636],"scale":[12.7296,0.35,4.4004]},{"name":"canopy-post-0","mesh":10,"translation":[-5.346432,1.791,4.8636],"scale":[0.1,3.582,0.1]},{"name":"canopy-post-1","mesh":10,"translation":[-1.782144,1.791,4.8636],"scale":[0.1,3.582,0.1]},{"name":"canopy-post-2","mesh":10,"translation":[1.782144,1.791,4.8636],"scale":[0.1,3.582,0.1]},{"name":"canopy-post-3","mesh":10,"translation":[5.346432,1.791,4.8636],"scale":[0.1,3.582,0.1]},{"name":"palm-trunk","mesh":11,"translation":[7.4256,4.179,-2.316],"rotation":[0,0,-0.054972,0.998488],"scale":[0.24,8.1675,0.24]},{"name":"palm-frond-0","mesh":12,"translation":[8.1256,8.2665,-2.316],"rotation":[0,0,-0.059964,0.998201],"scale":[2.4,0.12,0.48]},{"name":"palm-frond-1","mesh":12,"translation":[7.803812,8.2665,-1.72697],"rotation":[0.026082,0.434183,0.053994,0.898827],"scale":[2.4,0.12,0.48]},{"name":"palm-frond-2","mesh":12,"translation":[7.134297,8.2665,-1.679492],"rotation":[-0.046971,0.781917,-0.037274,0.620491],"scale":[2.4,0.12,0.48]},{"name":"palm-frond-3","mesh":12,"translation":[6.732605,8.2665,-2.217216],"rotation":[0.058508,0.973968,0.013133,0.218613],"scale":[2.4,0.12,0.48]},{"name":"palm-frond-4","mesh":12,"translation":[6.968049,8.2665,-2.845762],"rotation":[-0.058396,0.972095,0.013624,-0.226793],"scale":[2.4,0.12,0.48]},{"name":"palm-frond-5","mesh":12,"translation":[7.624164,8.2665,-2.987247],"rotation":[-0.046656,-0.776673,0.037668,0.627043],"scale":[2.4,0.12,0.48]},{"name":"palm-frond-6","mesh":12,"translation":[8.097719,8.2665,-2.511591],"rotation":[0.025627,-0.426611,-0.054212,0.902445],"scale":[2.4,0.12,0.48]},{"name":"open-state-bollard","mesh":13,"translation":[7.6024,0.425,6.4848],"scale":[0.22,0.85,0.22]},{"name":"foundation","mesh":14,"translation":[0,0.08,0],"scale":[19.88,0.16,13.78]},{"name":"store-shell","mesh":15,"translation":[0,1.7325,0],"scale":[9.724,3.465,6.7164]},{"name":"roof-cap","mesh":16,"translation":[0,3.575,0],"scale":[9.974,0.22,6.9664]},{"name":"window-0","mesh":17,"translation":[-3.59788,1.5246,3.4132],"scale":[2.091183,1.45,0.09]},{"name":"window-1","mesh":17,"translation":[0,1.5246,3.4132],"scale":[2.091183,1.45,0.09]},{"name":"window-2","mesh":17,"translation":[3.59788,1.5246,3.4132],"scale":[2.091183,1.45,0.09]},{"name":"door","mesh":18,"translation":[3.4034,1.025,3.4282],"scale":[0.92,2.05,0.12]},{"name":"awning","mesh":19,"translation":[0,2.2869,3.8382],"rotation":[-0.039989,0,0,0.9992],"scale":[7.97368,0.18,1.05]},{"name":"mullion-0","mesh":20,"translation":[-3.11168,1.5246,3.4782],"scale":[0.08,1.55,0.12]},{"name":"mullion-1","mesh":20,"translation":[-1.037227,1.5246,3.4782],"scale":[0.08,1.55,0.12]},{"name":"mullion-2","mesh":20,"translation":[1.037227,1.5246,3.4782],"scale":[0.08,1.55,0.12]},{"name":"mullion-3","mesh":20,"translation":[3.11168,1.5246,3.4782],"scale":[0.08,1.55,0.12]},{"name":"primary-sign-back","mesh":7,"translation":[0,2.73735,3.5182],"scale":[6.12888,1.25,1]},{"name":"primary-sign","mesh":8,"translation":[0,2.73735,3.5472],"scale":[6.02888,1.15,1]},{"name":"canopy","mesh":21,"translation":[0,3.762,4.8636],"scale":[12.7296,0.35,4.4004]},{"name":"canopy-post-0","mesh":22,"translation":[-5.346432,1.791,4.8636],"scale":[0.1,3.582,0.1]},{"name":"canopy-post-1","mesh":22,"translation":[-1.782144,1.791,4.8636],"scale":[0.1,3.582,0.1]},{"name":"canopy-post-2","mesh":22,"translation":[1.782144,1.791,4.8636],"scale":[0.1,3.582,0.1]},{"name":"canopy-post-3","mesh":22,"translation":[5.346432,1.791,4.8636],"scale":[0.1,3.582,0.1]},{"name":"palm-trunk","mesh":23,"translation":[7.4256,4.179,-2.316],"rotation":[0,0,-0.054972,0.998488],"scale":[0.24,8.1675,0.24]},{"name":"palm-frond-0","mesh":24,"translation":[8.1256,8.2665,-2.316],"rotation":[0,0,-0.059964,0.998201],"scale":[2.4,0.12,0.48]},{"name":"palm-frond-1","mesh":24,"translation":[7.803812,8.2665,-1.72697],"rotation":[0.026082,0.434183,0.053994,0.898827],"scale":[2.4,0.12,0.48]},{"name":"palm-frond-2","mesh":24,"translation":[7.134297,8.2665,-1.679492],"rotation":[-0.046971,0.781917,-0.037274,0.620491],"scale":[2.4,0.12,0.48]},{"name":"palm-frond-3","mesh":24,"translation":[6.732605,8.2665,-2.217216],"rotation":[0.058508,0.973968,0.013133,0.218613],"scale":[2.4,0.12,0.48]},{"name":"palm-frond-4","mesh":24,"translation":[6.968049,8.2665,-2.845762],"rotation":[-0.058396,0.972095,0.013624,-0.226793],"scale":[2.4,0.12,0.48]},{"name":"palm-frond-5","mesh":24,"translation":[7.624164,8.2665,-2.987247],"rotation":[-0.046656,-0.776673,0.037668,0.627043],"scale":[2.4,0.12,0.48]},{"name":"palm-frond-6","mesh":24,"translation":[8.097719,8.2665,-2.511591],"rotation":[0.025627,-0.426611,-0.054212,0.902445],"scale":[2.4,0.12,0.48]},{"name":"open-state-bollard","mesh":25,"translation":[7.6024,0.425,6.4848],"scale":[0.22,0.85,0.22]},{"name":"foundation","mesh":14,"translation":[0,0.08,0],"scale":[19.88,0.16,13.78]},{"name":"store-shell","mesh":15,"translation":[0,1.7325,0],"scale":[9.724,3.465,6.7164]},{"name":"roof-cap","mesh":16,"translation":[0,3.575,0],"scale":[9.974,0.22,6.9664]},{"name":"window-0","mesh":26,"translation":[0,1.5246,3.4132],"scale":[6.273548,1.45,0.09]},{"name":"door","mesh":18,"translation":[3.4034,1.025,3.4282],"scale":[0.92,2.05,0.12]},{"name":"primary-sign-back","mesh":7,"translation":[0,2.73735,3.5182],"scale":[6.12888,1.25,1]},{"name":"primary-sign","mesh":8,"translation":[0,2.73735,3.5472],"scale":[6.02888,1.15,1]},{"name":"canopy","mesh":21,"translation":[0,3.762,4.8636],"scale":[12.7296,0.35,4.4004]},{"name":"canopy-post-0","mesh":22,"translation":[-5.346432,1.791,4.8636],"scale":[0.1,3.582,0.1]},{"name":"canopy-post-1","mesh":22,"translation":[-1.782144,1.791,4.8636],"scale":[0.1,3.582,0.1]},{"name":"canopy-post-2","mesh":22,"translation":[1.782144,1.791,4.8636],"scale":[0.1,3.582,0.1]},{"name":"canopy-post-3","mesh":22,"translation":[5.346432,1.791,4.8636],"scale":[0.1,3.582,0.1]},{"name":"palm-trunk","mesh":23,"translation":[7.4256,4.179,-2.316],"rotation":[0,0,-0.054972,0.998488],"scale":[0.24,8.1675,0.24]},{"name":"palm-frond-0","mesh":24,"translation":[8.1256,8.2665,-2.316],"rotation":[0,0,-0.059964,0.998201],"scale":[2.4,0.12,0.48]},{"name":"palm-frond-1","mesh":24,"translation":[7.803812,8.2665,-1.72697],"rotation":[0.026082,0.434183,0.053994,0.898827],"scale":[2.4,0.12,0.48]},{"name":"palm-frond-2","mesh":24,"translation":[7.134297,8.2665,-1.679492],"rotation":[-0.046971,0.781917,-0.037274,0.620491],"scale":[2.4,0.12,0.48]},{"name":"palm-frond-3","mesh":24,"translation":[6.732605,8.2665,-2.217216],"rotation":[0.058508,0.973968,0.013133,0.218613],"scale":[2.4,0.12,0.48]},{"name":"open-state-bollard","mesh":25,"translation":[7.6024,0.425,6.4848],"scale":[0.22,0.85,0.22]}],"meshes":[{"primitives":[{"attributes":{"POSITION":0,"NORMAL":1,"TEXCOORD_0":2},"material":0,"mode":4}]},{"primitives":[{"attributes":{"POSITION":3,"NORMAL":1,"TEXCOORD_0":4},"material":1,"mode":4}]},{"primitives":[{"attributes":{"POSITION":0,"NORMAL":1,"TEXCOORD_0":5},"material":2,"mode":4}]},{"primitives":[{"attributes":{"POSITION":0,"NORMAL":1,"TEXCOORD_0":6},"material":3,"mode":4}]},{"primitives":[{"attributes":{"POSITION":0,"NORMAL":1,"TEXCOORD_0":7},"material":2,"mode":4}]},{"primitives":[{"attributes":{"POSITION":0,"NORMAL":1,"TEXCOORD_0":8},"material":4,"mode":4}]},{"primitives":[{"attributes":{"POSITION":0,"NORMAL":1,"TEXCOORD_0":9},"material":4,"mode":4}]},{"primitives":[{"attributes":{"POSITION":10,"NORMAL":11,"TEXCOORD_0":12},"material":2,"mode":4,"indices":13}]},{"primitives":[{"attributes":{"POSITION":14,"NORMAL":15,"TEXCOORD_0":16},"material":5,"mode":4,"indices":17}]},{"primitives":[{"attributes":{"POSITION":0,"NORMAL":1,"TEXCOORD_0":18},"material":4,"mode":4}]},{"primitives":[{"attributes":{"POSITION":19,"NORMAL":20,"TEXCOORD_0":21},"material":6,"mode":4,"indices":22}]},{"primitives":[{"attributes":{"POSITION":23,"NORMAL":24,"TEXCOORD_0":25},"material":7,"mode":4,"indices":26}]},{"primitives":[{"attributes":{"POSITION":0,"NORMAL":1,"TEXCOORD_0":27},"material":8,"mode":4}]},{"primitives":[{"attributes":{"POSITION":0,"NORMAL":1,"TEXCOORD_0":28},"material":4,"mode":4}]},{"primitives":[{"attributes":{"POSITION":29,"NORMAL":11,"TEXCOORD_0":30},"material":0,"mode":4,"indices":13}]},{"primitives":[{"attributes":{"POSITION":29,"NORMAL":11,"TEXCOORD_0":31},"material":1,"mode":4,"indices":13}]},{"primitives":[{"attributes":{"POSITION":29,"NORMAL":11,"TEXCOORD_0":32},"material":2,"mode":4,"indices":13}]},{"primitives":[{"attributes":{"POSITION":29,"NORMAL":11,"TEXCOORD_0":33},"material":3,"mode":4,"indices":13}]},{"primitives":[{"attributes":{"POSITION":29,"NORMAL":11,"TEXCOORD_0":34},"material":2,"mode":4,"indices":13}]},{"primitives":[{"attributes":{"POSITION":29,"NORMAL":11,"TEXCOORD_0":35},"material":4,"mode":4,"indices":13}]},{"primitives":[{"attributes":{"POSITION":29,"NORMAL":11,"TEXCOORD_0":36},"material":4,"mode":4,"indices":13}]},{"primitives":[{"attributes":{"POSITION":29,"NORMAL":11,"TEXCOORD_0":37},"material":4,"mode":4,"indices":13}]},{"primitives":[{"attributes":{"POSITION":38,"NORMAL":39,"TEXCOORD_0":40},"material":6,"mode":4,"indices":41}]},{"primitives":[{"attributes":{"POSITION":42,"NORMAL":43,"TEXCOORD_0":44},"material":7,"mode":4,"indices":41}]},{"primitives":[{"attributes":{"POSITION":29,"NORMAL":11,"TEXCOORD_0":45},"material":8,"mode":4,"indices":13}]},{"primitives":[{"attributes":{"POSITION":29,"NORMAL":11,"TEXCOORD_0":46},"material":4,"mode":4,"indices":13}]},{"primitives":[{"attributes":{"POSITION":29,"NORMAL":11,"TEXCOORD_0":47},"material":3,"mode":4,"indices":13}]}],"materials":[{"name":"concrete","pbrMetallicRoughness":{"baseColorTexture":{"index":0},"metallicRoughnessTexture":{"index":2},"roughnessFactor":1,"metallicFactor":1},"normalTexture":{"index":1,"scale":0.82},"occlusionTexture":{"index":2,"strength":0.35}},{"name":"stucco-ivory","pbrMetallicRoughness":{"baseColorTexture":{"index":3},"metallicRoughnessTexture":{"index":5},"roughnessFactor":1,"metallicFactor":1},"normalTexture":{"index":4,"scale":0.5},"occlusionTexture":{"index":5,"strength":0.35}},{"name":"metal-dark","pbrMetallicRoughness":{"baseColorTexture":{"index":6},"metallicRoughnessTexture":{"index":8},"roughnessFactor":1,"metallicFactor":1},"normalTexture":{"index":7,"scale":0.35},"occlusionTexture":{"index":8,"strength":0.35}},{"name":"glass-blue","pbrMetallicRoughness":{"baseColorTexture":{"index":9},"metallicRoughnessTexture":{"index":11},"roughnessFactor":1,"metallicFactor":1},"normalTexture":{"index":10,"scale":0.12},"occlusionTexture":{"index":11,"strength":0.35}},{"name":"paint-teal","pbrMetallicRoughness":{"baseColorFactor":[0.040915196900556984,0.20507873637973145,0.1878207722902346,1],"roughnessFactor":0.59,"metallicFactor":0.05}},{"name":"octane-oasis signage","pbrMetallicRoughness":{"baseColorTexture":{"index":12},"roughnessFactor":1,"metallicFactor":0},"extensions":{"KHR_materials_unlit":{}}},{"name":"metal-galvanized","pbrMetallicRoughness":{"baseColorTexture":{"index":13},"metallicRoughnessTexture":{"index":15},"roughnessFactor":1,"metallicFactor":1},"normalTexture":{"index":14,"scale":0.15},"occlusionTexture":{"index":15,"strength":0.35}},{"name":"wood-painted","pbrMetallicRoughness":{"baseColorTexture":{"index":16},"metallicRoughnessTexture":{"index":18},"roughnessFactor":1,"metallicFactor":1},"normalTexture":{"index":17,"scale":0.55},"occlusionTexture":{"index":18,"strength":0.35}},{"name":"foliage","pbrMetallicRoughness":{"baseColorTexture":{"index":19},"metallicRoughnessTexture":{"index":21},"roughnessFactor":1,"metallicFactor":1},"normalTexture":{"index":20,"scale":0.88},"occlusionTexture":{"index":21,"strength":0.35}}],"textures":[{"source":0,"sampler":0},{"source":1,"sampler":0},{"source":2,"sampler":0},{"source":3,"sampler":0},{"source":4,"sampler":0},{"source":5,"sampler":0},{"source":6,"sampler":0},{"source":7,"sampler":0},{"source":8,"sampler":0},{"source":9,"sampler":0},{"source":10,"sampler":0},{"source":11,"sampler":0},{"source":12,"sampler":0},{"source":13,"sampler":0},{"source":14,"sampler":0},{"source":15,"sampler":0},{"source":16,"sampler":0},{"source":17,"sampler":0},{"source":18,"sampler":0},{"source":19,"sampler":0},{"source":20,"sampler":0},{"source":21,"sampler":0}],"images":[{"uri":"../textures/concrete-albedo.png"},{"uri":"../textures/concrete-normal.png"},{"uri":"../textures/concrete-orm.png"},{"uri":"../textures/stucco-ivory-albedo.png"},{"uri":"../textures/stucco-ivory-normal.png"},{"uri":"../textures/stucco-ivory-orm.png"},{"uri":"../textures/metal-dark-albedo.png"},{"uri":"../textures/metal-dark-normal.png"},{"uri":"../textures/metal-dark-orm.png"},{"uri":"../textures/glass-blue-albedo.png"},{"uri":"../textures/glass-blue-normal.png"},{"uri":"../textures/glass-blue-orm.png"},{"uri":"../signs/octane-oasis.png"},{"uri":"../textures/metal-galvanized-albedo.png"},{"uri":"../textures/metal-galvanized-normal.png"},{"uri":"../textures/metal-galvanized-orm.png"},{"uri":"../textures/wood-painted-albedo.png"},{"uri":"../textures/wood-painted-normal.png"},{"uri":"../textures/wood-painted-orm.png"},{"uri":"../textures/foliage-albedo.png"},{"uri":"../textures/foliage-normal.png"},{"uri":"../textures/foliage-orm.png"}],"samplers":[{"magFilter":9729,"minFilter":9987,"wrapS":10497,"wrapT":10497}],"buffers":[{"uri":"../shared/geometry.bin","byteLength":16435520}],"bufferViews":[{"buffer":0,"byteOffset":0,"byteLength":3888,"target":34962},{"buffer":0,"byteOffset":3888,"byteLength":3888,"target":34962},{"buffer":0,"byteOffset":9339224,"byteLength":2592,"target":34962},{"buffer":0,"byteOffset":822696,"byteLength":3888,"target":34962},{"buffer":0,"byteOffset":9341816,"byteLength":2592,"target":34962},{"buffer":0,"byteOffset":9344408,"byteLength":2592,"target":34962},{"buffer":0,"byteOffset":9269480,"byteLength":2592,"target":34962},{"buffer":0,"byteOffset":1428216,"byteLength":2592,"target":34962},{"buffer":0,"byteOffset":9272072,"byteLength":2592,"target":34962},{"buffer":0,"byteOffset":1433400,"byteLength":2592,"target":34962},{"buffer":0,"byteOffset":45664,"byteLength":288,"target":34962},{"buffer":0,"byteOffset":45952,"byteLength":288,"target":34962},{"buffer":0,"byteOffset":46240,"byteLength":192,"target":34962},{"buffer":0,"byteOffset":46432,"byteLength":72,"target":34963},{"buffer":0,"byteOffset":46504,"byteLength":48,"target":34962},{"buffer":0,"byteOffset":46552,"byteLength":48,"target":34962},{"buffer":0,"byteOffset":135812,"byteLength":32,"target":34962},{"buffer":0,"byteOffset":46632,"byteLength":12,"target":34963},{"buffer":0,"byteOffset":9347000,"byteLength":2592,"target":34962},{"buffer":0,"byteOffset":1110072,"byteLength":624,"target":34962},{"buffer":0,"byteOffset":1110696,"byteLength":624,"target":34962},{"buffer":0,"byteOffset":9277256,"byteLength":416,"target":34962},{"buffer":0,"byteOffset":1111736,"byteLength":192,"target":34963},{"buffer":0,"byteOffset":9235704,"byteLength":696,"target":34962},{"buffer":0,"byteOffset":9236400,"byteLength":696,"target":34962},{"buffer":0,"byteOffset":9277672,"byteLength":464,"target":34962},{"buffer":0,"byteOffset":2089908,"byteLength":216,"target":34963},{"buffer":0,"byteOffset":9237560,"byteLength":2592,"target":34962},{"buffer":0,"byteOffset":422312,"byteLength":2592,"target":34962},{"buffer":0,"byteOffset":46644,"byteLength":288,"target":34962},{"buffer":0,"byteOffset":9349592,"byteLength":192,"target":34962},{"buffer":0,"byteOffset":9349784,"byteLength":192,"target":34962},{"buffer":0,"byteOffset":9349976,"byteLength":192,"target":34962},{"buffer":0,"byteOffset":9278712,"byteLength":192,"target":34962},{"buffer":0,"byteOffset":1447128,"byteLength":192,"target":34962},{"buffer":0,"byteOffset":9278904,"byteLength":192,"target":34962},{"buffer":0,"byteOffset":1447512,"byteLength":192,"target":34962},{"buffer":0,"byteOffset":9350168,"byteLength":192,"target":34962},{"buffer":0,"byteOffset":1112312,"byteLength":480,"target":34962},{"buffer":0,"byteOffset":1112792,"byteLength":480,"target":34962},{"buffer":0,"byteOffset":9279288,"byteLength":320,"target":34962},{"buffer":0,"byteOffset":48596,"byteLength":144,"target":34963},{"buffer":0,"byteOffset":9241624,"byteLength":480,"target":34962},{"buffer":0,"byteOffset":9242104,"byteLength":480,"target":34962},{"buffer":0,"byteOffset":9279608,"byteLength":320,"target":34962},{"buffer":0,"byteOffset":9242904,"byteLength":192,"target":34962},{"buffer":0,"byteOffset":436936,"byteLength":192,"target":34962},{"buffer":0,"byteOffset":9279928,"byteLength":192,"target":34962}],"accessors":[{"bufferView":0,"componentType":5126,"count":324,"type":"VEC3","min":[-0.5,-0.5,-0.5],"max":[0.5,0.5,0.5]},{"bufferView":1,"componentType":5126,"count":324,"type":"VEC3"},{"bufferView":2,"componentType":5126,"count":324,"type":"VEC2"},{"bufferView":3,"componentType":5126,"count":324,"type":"VEC3","min":[-0.5,-0.5,-0.5],"max":[0.5,0.5,0.5]},{"bufferView":4,"componentType":5126,"count":324,"type":"VEC2"},{"bufferView":5,"componentType":5126,"count":324,"type":"VEC2"},{"bufferView":6,"componentType":5126,"count":324,"type":"VEC2"},{"bufferView":7,"componentType":5126,"count":324,"type":"VEC2"},{"bufferView":8,"componentType":5126,"count":324,"type":"VEC2"},{"bufferView":9,"componentType":5126,"count":324,"type":"VEC2"},{"bufferView":10,"componentType":5126,"count":24,"type":"VEC3","min":[-0.5,-0.5,-0.02500000037252903],"max":[0.5,0.5,0.02500000037252903]},{"bufferView":11,"componentType":5126,"count":24,"type":"VEC3"},{"bufferView":12,"componentType":5126,"count":24,"type":"VEC2"},{"bufferView":13,"componentType":5123,"count":36,"type":"SCALAR"},{"bufferView":14,"componentType":5126,"count":4,"type":"VEC3","min":[-0.5,-0.5,0],"max":[0.5,0.5,0]},{"bufferView":15,"componentType":5126,"count":4,"type":"VEC3"},{"bufferView":16,"componentType":5126,"count":4,"type":"VEC2"},{"bufferView":17,"componentType":5123,"count":6,"type":"SCALAR"},{"bufferView":18,"componentType":5126,"count":324,"type":"VEC2"},{"bufferView":19,"componentType":5126,"count":52,"type":"VEC3","min":[-1,-0.5,-1],"max":[1,0.5,1]},{"bufferView":20,"componentType":5126,"count":52,"type":"VEC3"},{"bufferView":21,"componentType":5126,"count":52,"type":"VEC2"},{"bufferView":22,"componentType":5123,"count":96,"type":"SCALAR"},{"bufferView":23,"componentType":5126,"count":58,"type":"VEC3","min":[-0.9848077297210693,-0.5,-0.9396926164627075],"max":[0.9848077297210693,0.5,1]},{"bufferView":24,"componentType":5126,"count":58,"type":"VEC3"},{"bufferView":25,"componentType":5126,"count":58,"type":"VEC2"},{"bufferView":26,"componentType":5123,"count":108,"type":"SCALAR"},{"bufferView":27,"componentType":5126,"count":324,"type":"VEC2"},{"bufferView":28,"componentType":5126,"count":324,"type":"VEC2"},{"bufferView":29,"componentType":5126,"count":24,"type":"VEC3","min":[-0.5,-0.5,-0.5],"max":[0.5,0.5,0.5]},{"bufferView":30,"componentType":5126,"count":24,"type":"VEC2"},{"bufferView":31,"componentType":5126,"count":24,"type":"VEC2"},{"bufferView":32,"componentType":5126,"count":24,"type":"VEC2"},{"bufferView":33,"componentType":5126,"count":24,"type":"VEC2"},{"bufferView":34,"componentType":5126,"count":24,"type":"VEC2"},{"bufferView":35,"componentType":5126,"count":24,"type":"VEC2"},{"bufferView":36,"componentType":5126,"count":24,"type":"VEC2"},{"bufferView":37,"componentType":5126,"count":24,"type":"VEC2"},{"bufferView":38,"componentType":5126,"count":40,"type":"VEC3","min":[-0.8660253882408142,-0.5,-1],"max":[0.8660253882408142,0.5,1]},{"bufferView":39,"componentType":5126,"count":40,"type":"VEC3"},{"bufferView":40,"componentType":5126,"count":40,"type":"VEC2"},{"bufferView":41,"componentType":5123,"count":72,"type":"SCALAR"},{"bufferView":42,"componentType":5126,"count":40,"type":"VEC3","min":[-0.8660253882408142,-0.5,-1],"max":[0.8660253882408142,0.5,1]},{"bufferView":43,"componentType":5126,"count":40,"type":"VEC3"},{"bufferView":44,"componentType":5126,"count":40,"type":"VEC2"},{"bufferView":45,"componentType":5126,"count":24,"type":"VEC2"},{"bufferView":46,"componentType":5126,"count":24,"type":"VEC2"},{"bufferView":47,"componentType":5126,"count":24,"type":"VEC2"}],"extensionsUsed":["KHR_materials_unlit"],"extras":{"id":"vlt-octane-oasis-08","family":"octane-oasis","variant":7,"plan":"B3-1","units":"metres","up":"+Y","front":"+Z","lodScenes":[0,1,2]}}