{"asset":{"version":"2.0","generator":"SLOPMERICA Department of Unnecessary Development 1.0"},"scene":0,"scenes":[{"name":"LOD 0","nodes":[0,1,2,3,4,5,6,7,8,9,10,11,12,13,14,15,16],"extras":{"level":0}},{"name":"LOD 1","nodes":[17,18,19,20,21,22,23,24,25,26,27,28,29,30,31,32,33],"extras":{"level":1}},{"name":"LOD 2","nodes":[34,35,36,37,38,39,40,41,42,43],"extras":{"level":2}}],"nodes":[{"name":"site-pad","mesh":0,"translation":[0,0.06,0],"scale":[11.648,0.12,9.36]},{"name":"variant-apron","mesh":1,"translation":[0.728,0.13,4.72],"scale":[3.304,0.08,1.16]},{"name":"bollard-0","mesh":2,"translation":[-4.256,0.43,4.84],"scale":[0.08,0.7,0.08]},{"name":"bollard-1","mesh":2,"translation":[-1.418667,0.43,4.84],"scale":[0.08,0.7,0.08]},{"name":"bollard-2","mesh":2,"translation":[1.418667,0.43,4.84],"scale":[0.08,0.7,0.08]},{"name":"bollard-3","mesh":2,"translation":[4.256,0.43,4.84],"scale":[0.08,0.7,0.08]},{"name":"layout-cabinet","mesh":3,"translation":[-5.8,0.585,0.675],"scale":[0.69,0.93,0.32]},{"name":"outfall-headwall","mesh":4,"translation":[0,1.9,-2.52],"scale":[11.2,3.6,1]},{"name":"outfall-pipe-0","mesh":5,"translation":[-2,1.15,0.2],"rotation":[0.707107,0,0,0.707107],"scale":[0.72,5.85,0.72]},{"name":"outfall-rim-0","mesh":6,"translation":[-2,1.15,4.68],"rotation":[0.707107,0,0,0.707107]},{"name":"outfall-pipe-1","mesh":5,"translation":[0,1.15,0.2],"rotation":[0.707107,0,0,0.707107],"scale":[0.72,5.85,0.72]},{"name":"outfall-rim-1","mesh":6,"translation":[0,1.15,4.68],"rotation":[0.707107,0,0,0.707107]},{"name":"outfall-pipe-2","mesh":5,"translation":[2,1.15,0.2],"rotation":[0.707107,0,0,0.707107],"scale":[0.72,5.85,0.72]},{"name":"outfall-rim-2","mesh":6,"translation":[2,1.15,4.68],"rotation":[0.707107,0,0,0.707107]},{"name":"discharge-channel","mesh":7,"translation":[-0.25,0.35,3.87],"scale":[8.064,0.18,6.3]},{"name":"outfall-sign-back","mesh":8,"translation":[0,3.05,-1.96],"scale":[3.3,0.9,1]},{"name":"outfall-sign","mesh":9,"translation":[0,3.05,-1.931],"scale":[3.2,0.8,1]},{"name":"site-pad","mesh":10,"translation":[0,0.06,0],"scale":[11.648,0.12,9.36]},{"name":"variant-apron","mesh":11,"translation":[0.728,0.13,4.72],"scale":[3.304,0.08,1.16]},{"name":"bollard-0","mesh":12,"translation":[-4.256,0.43,4.84],"scale":[0.08,0.7,0.08]},{"name":"bollard-1","mesh":12,"translation":[-1.418667,0.43,4.84],"scale":[0.08,0.7,0.08]},{"name":"bollard-2","mesh":12,"translation":[1.418667,0.43,4.84],"scale":[0.08,0.7,0.08]},{"name":"bollard-3","mesh":12,"translation":[4.256,0.43,4.84],"scale":[0.08,0.7,0.08]},{"name":"layout-cabinet","mesh":13,"translation":[-5.8,0.585,0.675],"scale":[0.69,0.93,0.32]},{"name":"outfall-headwall","mesh":14,"translation":[0,1.9,-2.52],"scale":[11.2,3.6,1]},{"name":"outfall-pipe-0","mesh":15,"translation":[-2,1.15,0.2],"rotation":[0.707107,0,0,0.707107],"scale":[0.72,5.85,0.72]},{"name":"outfall-rim-0","mesh":16,"translation":[-2,1.15,4.68],"rotation":[0.707107,0,0,0.707107]},{"name":"outfall-pipe-1","mesh":15,"translation":[0,1.15,0.2],"rotation":[0.707107,0,0,0.707107],"scale":[0.72,5.85,0.72]},{"name":"outfall-rim-1","mesh":16,"translation":[0,1.15,4.68],"rotation":[0.707107,0,0,0.707107]},{"name":"outfall-pipe-2","mesh":15,"translation":[2,1.15,0.2],"rotation":[0.707107,0,0,0.707107],"scale":[0.72,5.85,0.72]},{"name":"outfall-rim-2","mesh":16,"translation":[2,1.15,4.68],"rotation":[0.707107,0,0,0.707107]},{"name":"discharge-channel","mesh":17,"translation":[-0.25,0.35,3.87],"scale":[8.064,0.18,6.3]},{"name":"outfall-sign-back","mesh":8,"translation":[0,3.05,-1.96],"scale":[3.3,0.9,1]},{"name":"outfall-sign","mesh":9,"translation":[0,3.05,-1.931],"scale":[3.2,0.8,1]},{"name":"site-pad","mesh":10,"translation":[0,0.06,0],"scale":[11.648,0.12,9.36]},{"name":"variant-apron","mesh":11,"translation":[0.728,0.13,4.72],"scale":[3.304,0.08,1.16]},{"name":"bollard-0","mesh":12,"translation":[-4.256,0.43,4.84],"scale":[0.08,0.7,0.08]},{"name":"layout-cabinet","mesh":13,"translation":[-5.8,0.585,0.675],"scale":[0.69,0.93,0.32]},{"name":"outfall-headwall","mesh":14,"translation":[0,1.9,-2.52],"scale":[11.2,3.6,1]},{"name":"outfall-pipe-0","mesh":15,"translation":[0,1.15,0.2],"rotation":[0.707107,0,0,0.707107],"scale":[0.72,5.85,0.72]},{"name":"outfall-rim-0","mesh":18,"translation":[0,1.15,4.68],"rotation":[0.707107,0,0,0.707107]},{"name":"discharge-channel","mesh":17,"translation":[-0.25,0.35,3.87],"scale":[8.064,0.18,6.3]},{"name":"outfall-sign-back","mesh":8,"translation":[0,3.05,-1.96],"scale":[3.3,0.9,1]},{"name":"outfall-sign","mesh":9,"translation":[0,3.05,-1.931],"scale":[3.2,0.8,1]}],"meshes":[{"primitives":[{"attributes":{"POSITION":0,"NORMAL":1,"TEXCOORD_0":2},"material":0,"mode":4}]},{"primitives":[{"attributes":{"POSITION":0,"NORMAL":1,"TEXCOORD_0":3},"material":0,"mode":4}]},{"primitives":[{"attributes":{"POSITION":4,"NORMAL":5,"TEXCOORD_0":6},"material":1,"mode":4,"indices":7}]},{"primitives":[{"attributes":{"POSITION":0,"NORMAL":1,"TEXCOORD_0":8},"material":2,"mode":4}]},{"primitives":[{"attributes":{"POSITION":9,"NORMAL":1,"TEXCOORD_0":10},"material":3,"mode":4}]},{"primitives":[{"attributes":{"POSITION":11,"NORMAL":12,"TEXCOORD_0":13},"material":4,"mode":4,"indices":7}]},{"primitives":[{"attributes":{"POSITION":14,"NORMAL":15,"TEXCOORD_0":16},"material":2,"mode":4,"indices":17}]},{"primitives":[{"attributes":{"POSITION":0,"NORMAL":1,"TEXCOORD_0":18},"material":5,"mode":4}]},{"primitives":[{"attributes":{"POSITION":19,"NORMAL":20,"TEXCOORD_0":21},"material":4,"mode":4,"indices":22}]},{"primitives":[{"attributes":{"POSITION":23,"NORMAL":24,"TEXCOORD_0":25},"material":6,"mode":4,"indices":26}]},{"primitives":[{"attributes":{"POSITION":27,"NORMAL":20,"TEXCOORD_0":28},"material":0,"mode":4,"indices":22}]},{"primitives":[{"attributes":{"POSITION":27,"NORMAL":20,"TEXCOORD_0":29},"material":0,"mode":4,"indices":22}]},{"primitives":[{"attributes":{"POSITION":30,"NORMAL":31,"TEXCOORD_0":32},"material":1,"mode":4,"indices":33}]},{"primitives":[{"attributes":{"POSITION":27,"NORMAL":20,"TEXCOORD_0":34},"material":2,"mode":4,"indices":22}]},{"primitives":[{"attributes":{"POSITION":27,"NORMAL":20,"TEXCOORD_0":35},"material":3,"mode":4,"indices":22}]},{"primitives":[{"attributes":{"POSITION":36,"NORMAL":37,"TEXCOORD_0":38},"material":4,"mode":4,"indices":33}]},{"primitives":[{"attributes":{"POSITION":39,"NORMAL":40,"TEXCOORD_0":41},"material":2,"mode":4,"indices":42}]},{"primitives":[{"attributes":{"POSITION":27,"NORMAL":20,"TEXCOORD_0":43},"material":5,"mode":4,"indices":22}]},{"primitives":[{"attributes":{"POSITION":44,"NORMAL":45,"TEXCOORD_0":46},"material":2,"mode":4,"indices":47}]}],"materials":[{"name":"asphalt","pbrMetallicRoughness":{"baseColorTexture":{"index":0},"metallicRoughnessTexture":{"index":2},"roughnessFactor":1,"metallicFactor":1},"normalTexture":{"index":1,"scale":0.62},"occlusionTexture":{"index":2,"strength":0.35}},{"name":"paint-yellow","pbrMetallicRoughness":{"baseColorFactor":[0.76052450467022,0.4793201830913402,0.07818742179702069,1],"roughnessFactor":0.66,"metallicFactor":0.03}},{"name":"metal-galvanized","pbrMetallicRoughness":{"baseColorTexture":{"index":3},"metallicRoughnessTexture":{"index":5},"roughnessFactor":1,"metallicFactor":1},"normalTexture":{"index":4,"scale":0.15},"occlusionTexture":{"index":5,"strength":0.35}},{"name":"concrete","pbrMetallicRoughness":{"baseColorTexture":{"index":6},"metallicRoughnessTexture":{"index":8},"roughnessFactor":1,"metallicFactor":1},"normalTexture":{"index":7,"scale":0.82},"occlusionTexture":{"index":8,"strength":0.35}},{"name":"metal-dark","pbrMetallicRoughness":{"baseColorTexture":{"index":9},"metallicRoughnessTexture":{"index":11},"roughnessFactor":1,"metallicFactor":1},"normalTexture":{"index":10,"scale":0.35},"occlusionTexture":{"index":11,"strength":0.35}},{"name":"glass-blue","pbrMetallicRoughness":{"baseColorTexture":{"index":12},"metallicRoughnessTexture":{"index":14},"roughnessFactor":1,"metallicFactor":1},"normalTexture":{"index":13,"scale":0.12},"occlusionTexture":{"index":14,"strength":0.35}},{"name":"sewage-outfall signage","pbrMetallicRoughness":{"baseColorTexture":{"index":15},"roughnessFactor":1,"metallicFactor":0},"extensions":{"KHR_materials_unlit":{}}}],"textures":[{"source":0,"sampler":0},{"source":1,"sampler":0},{"source":2,"sampler":0},{"source":3,"sampler":0},{"source":4,"sampler":0},{"source":5,"sampler":0},{"source":6,"sampler":0},{"source":7,"sampler":0},{"source":8,"sampler":0},{"source":9,"sampler":0},{"source":10,"sampler":0},{"source":11,"sampler":0},{"source":12,"sampler":0},{"source":13,"sampler":0},{"source":14,"sampler":0},{"source":15,"sampler":0}],"images":[{"uri":"../textures/asphalt-albedo.png"},{"uri":"../textures/asphalt-normal.png"},{"uri":"../textures/asphalt-orm.png"},{"uri":"../textures/metal-galvanized-albedo.png"},{"uri":"../textures/metal-galvanized-normal.png"},{"uri":"../textures/metal-galvanized-orm.png"},{"uri":"../textures/concrete-albedo.png"},{"uri":"../textures/concrete-normal.png"},{"uri":"../textures/concrete-orm.png"},{"uri":"../textures/metal-dark-albedo.png"},{"uri":"../textures/metal-dark-normal.png"},{"uri":"../textures/metal-dark-orm.png"},{"uri":"../textures/glass-blue-albedo.png"},{"uri":"../textures/glass-blue-normal.png"},{"uri":"../textures/glass-blue-orm.png"},{"uri":"../signs/sewage-outfall.png"}],"samplers":[{"magFilter":9729,"minFilter":9987,"wrapS":10497,"wrapT":10497}],"buffers":[{"uri":"../shared/geometry.bin","byteLength":16435520}],"bufferViews":[{"buffer":0,"byteOffset":0,"byteLength":3888,"target":34962},{"buffer":0,"byteOffset":3888,"byteLength":3888,"target":34962},{"buffer":0,"byteOffset":13029096,"byteLength":2592,"target":34962},{"buffer":0,"byteOffset":10358796,"byteLength":2592,"target":34962},{"buffer":0,"byteOffset":12960,"byteLength":1200,"target":34962},{"buffer":0,"byteOffset":14160,"byteLength":1200,"target":34962},{"buffer":0,"byteOffset":150020,"byteLength":800,"target":34962},{"buffer":0,"byteOffset":16160,"byteLength":384,"target":34963},{"buffer":0,"byteOffset":167940,"byteLength":2592,"target":34962},{"buffer":0,"byteOffset":4742904,"byteLength":3888,"target":34962},{"buffer":0,"byteOffset":12951496,"byteLength":2592,"target":34962},{"buffer":0,"byteOffset":1101304,"byteLength":1200,"target":34962},{"buffer":0,"byteOffset":1102504,"byteLength":1200,"target":34962},{"buffer":0,"byteOffset":13008296,"byteLength":800,"target":34962},{"buffer":0,"byteOffset":12914444,"byteLength":3132,"target":34962},{"buffer":0,"byteOffset":390704,"byteLength":3132,"target":34962},{"buffer":0,"byteOffset":12917576,"byteLength":2088,"target":34962},{"buffer":0,"byteOffset":395924,"byteLength":2688,"target":34963},{"buffer":0,"byteOffset":13031688,"byteLength":2592,"target":34962},{"buffer":0,"byteOffset":45664,"byteLength":288,"target":34962},{"buffer":0,"byteOffset":45952,"byteLength":288,"target":34962},{"buffer":0,"byteOffset":46240,"byteLength":192,"target":34962},{"buffer":0,"byteOffset":46432,"byteLength":72,"target":34963},{"buffer":0,"byteOffset":46504,"byteLength":48,"target":34962},{"buffer":0,"byteOffset":46552,"byteLength":48,"target":34962},{"buffer":0,"byteOffset":170532,"byteLength":32,"target":34962},{"buffer":0,"byteOffset":46632,"byteLength":12,"target":34963},{"buffer":0,"byteOffset":46644,"byteLength":288,"target":34962},{"buffer":0,"byteOffset":13034280,"byteLength":192,"target":34962},{"buffer":0,"byteOffset":10361388,"byteLength":192,"target":34962},{"buffer":0,"byteOffset":47316,"byteLength":480,"target":34962},{"buffer":0,"byteOffset":47796,"byteLength":480,"target":34962},{"buffer":0,"byteOffset":153636,"byteLength":320,"target":34962},{"buffer":0,"byteOffset":48596,"byteLength":144,"target":34963},{"buffer":0,"byteOffset":170756,"byteLength":192,"target":34962},{"buffer":0,"byteOffset":12956872,"byteLength":192,"target":34962},{"buffer":0,"byteOffset":1112312,"byteLength":480,"target":34962},{"buffer":0,"byteOffset":1112792,"byteLength":480,"target":34962},{"buffer":0,"byteOffset":13011880,"byteLength":320,"target":34962},{"buffer":0,"byteOffset":12922960,"byteLength":1428,"target":34962},{"buffer":0,"byteOffset":427996,"byteLength":1428,"target":34962},{"buffer":0,"byteOffset":12924388,"byteLength":952,"target":34962},{"buffer":0,"byteOffset":430376,"byteLength":1152,"target":34963},{"buffer":0,"byteOffset":13034472,"byteLength":192,"target":34962},{"buffer":0,"byteOffset":12925532,"byteLength":660,"target":34962},{"buffer":0,"byteOffset":437788,"byteLength":660,"target":34962},{"buffer":0,"byteOffset":12926192,"byteLength":440,"target":34962},{"buffer":0,"byteOffset":438888,"byteLength":480,"target":34963}],"accessors":[{"bufferView":0,"componentType":5126,"count":324,"type":"VEC3","min":[-0.5,-0.5,-0.5],"max":[0.5,0.5,0.5]},{"bufferView":1,"componentType":5126,"count":324,"type":"VEC3"},{"bufferView":2,"componentType":5126,"count":324,"type":"VEC2"},{"bufferView":3,"componentType":5126,"count":324,"type":"VEC2"},{"bufferView":4,"componentType":5126,"count":100,"type":"VEC3","min":[-1,-0.5,-1],"max":[1,0.5,1]},{"bufferView":5,"componentType":5126,"count":100,"type":"VEC3"},{"bufferView":6,"componentType":5126,"count":100,"type":"VEC2"},{"bufferView":7,"componentType":5123,"count":192,"type":"SCALAR"},{"bufferView":8,"componentType":5126,"count":324,"type":"VEC2"},{"bufferView":9,"componentType":5126,"count":324,"type":"VEC3","min":[-0.5,-0.5,-0.5],"max":[0.5,0.5,0.5]},{"bufferView":10,"componentType":5126,"count":324,"type":"VEC2"},{"bufferView":11,"componentType":5126,"count":100,"type":"VEC3","min":[-1,-0.5,-1],"max":[1,0.5,1]},{"bufferView":12,"componentType":5126,"count":100,"type":"VEC3"},{"bufferView":13,"componentType":5126,"count":100,"type":"VEC2"},{"bufferView":14,"componentType":5126,"count":261,"type":"VEC3","min":[-0.8399999737739563,-0.8399999737739563,-0.11999999731779099],"max":[0.8399999737739563,0.8399999737739563,0.11999999731779099]},{"bufferView":15,"componentType":5126,"count":261,"type":"VEC3"},{"bufferView":16,"componentType":5126,"count":261,"type":"VEC2"},{"bufferView":17,"componentType":5123,"count":1344,"type":"SCALAR"},{"bufferView":18,"componentType":5126,"count":324,"type":"VEC2"},{"bufferView":19,"componentType":5126,"count":24,"type":"VEC3","min":[-0.5,-0.5,-0.02500000037252903],"max":[0.5,0.5,0.02500000037252903]},{"bufferView":20,"componentType":5126,"count":24,"type":"VEC3"},{"bufferView":21,"componentType":5126,"count":24,"type":"VEC2"},{"bufferView":22,"componentType":5123,"count":36,"type":"SCALAR"},{"bufferView":23,"componentType":5126,"count":4,"type":"VEC3","min":[-0.5,-0.5,0],"max":[0.5,0.5,0]},{"bufferView":24,"componentType":5126,"count":4,"type":"VEC3"},{"bufferView":25,"componentType":5126,"count":4,"type":"VEC2"},{"bufferView":26,"componentType":5123,"count":6,"type":"SCALAR"},{"bufferView":27,"componentType":5126,"count":24,"type":"VEC3","min":[-0.5,-0.5,-0.5],"max":[0.5,0.5,0.5]},{"bufferView":28,"componentType":5126,"count":24,"type":"VEC2"},{"bufferView":29,"componentType":5126,"count":24,"type":"VEC2"},{"bufferView":30,"componentType":5126,"count":40,"type":"VEC3","min":[-0.8660253882408142,-0.5,-1],"max":[0.8660253882408142,0.5,1]},{"bufferView":31,"componentType":5126,"count":40,"type":"VEC3"},{"bufferView":32,"componentType":5126,"count":40,"type":"VEC2"},{"bufferView":33,"componentType":5123,"count":72,"type":"SCALAR"},{"bufferView":34,"componentType":5126,"count":24,"type":"VEC2"},{"bufferView":35,"componentType":5126,"count":24,"type":"VEC2"},{"bufferView":36,"componentType":5126,"count":40,"type":"VEC3","min":[-0.8660253882408142,-0.5,-1],"max":[0.8660253882408142,0.5,1]},{"bufferView":37,"componentType":5126,"count":40,"type":"VEC3"},{"bufferView":38,"componentType":5126,"count":40,"type":"VEC2"},{"bufferView":39,"componentType":5126,"count":119,"type":"VEC3","min":[-0.8399999737739563,-0.8399999737739563,-0.10392304509878159],"max":[0.8399999737739563,0.8399999737739563,0.10392304509878159]},{"bufferView":40,"componentType":5126,"count":119,"type":"VEC3"},{"bufferView":41,"componentType":5126,"count":119,"type":"VEC2"},{"bufferView":42,"componentType":5123,"count":576,"type":"SCALAR"},{"bufferView":43,"componentType":5126,"count":24,"type":"VEC2"},{"bufferView":44,"componentType":5126,"count":55,"type":"VEC3","min":[-0.8399999737739563,-0.7988874912261963,-0.11999999731779099],"max":[0.8399999737739563,0.7988874912261963,0.11999999731779099]},{"bufferView":45,"componentType":5126,"count":55,"type":"VEC3"},{"bufferView":46,"componentType":5126,"count":55,"type":"VEC2"},{"bufferView":47,"componentType":5123,"count":240,"type":"SCALAR"}],"extensionsUsed":["KHR_materials_unlit"],"extras":{"id":"vlt-sewage-outfall-14","family":"sewage-outfall","variant":13,"plan":"C4-1","units":"metres","up":"+Y","front":"+Z","lodScenes":[0,1,2]}}