{"asset":{"version":"2.0","generator":"SLOPMERICA Department of Unnecessary Development 1.0"},"scene":0,"scenes":[{"name":"LOD 0","nodes":[0,1,2,3,4,5,6,7,8,9,10,11,12,13,14],"extras":{"level":0}},{"name":"LOD 1","nodes":[15,16,17,18,19,20,21,22,23,24,25,26,27,28,29],"extras":{"level":1}},{"name":"LOD 2","nodes":[30,31,32,33,34,35,36,37,38,39,40,41],"extras":{"level":2}}],"nodes":[{"name":"surveyed lot","mesh":0,"translation":[0,0.06,0],"scale":[13.52,0.12,11.44]},{"name":"world famous twine","mesh":1,"translation":[0,4.01,0],"scale":[3.72,3.66,3.66]},{"name":"twine wrap 0","mesh":2,"translation":[0,3.65,0],"rotation":[0.663433,0,0,0.748235]},{"name":"twine wrap 1","mesh":3,"translation":[0,3.77,0],"rotation":[0.672093,0.098899,0.091288,0.728132]},{"name":"twine wrap 2","mesh":4,"translation":[0,3.89,0],"rotation":[0.667724,0.192342,0.184798,0.694982]},{"name":"twine wrap 3","mesh":5,"translation":[0,4.01,0],"rotation":[0.649904,0.278613,0.278613,0.649904]},{"name":"twine wrap 4","mesh":6,"translation":[0,4.13,0],"rotation":[0.618499,0.356206,0.370747,0.594241]},{"name":"twine wrap 5","mesh":7,"translation":[0,4.25,0],"rotation":[0.573677,0.423846,0.459186,0.529526]},{"name":"post -4.5 0","mesh":8,"translation":[-4.5,4.16,0],"scale":[0.16,8.32,0.16]},{"name":"post -4.5 1","mesh":8,"translation":[-1.5,4.16,0],"scale":[0.16,8.32,0.16]},{"name":"post -4.5 2","mesh":8,"translation":[1.5,4.16,0],"scale":[0.16,8.32,0.16]},{"name":"post -4.5 3","mesh":8,"translation":[4.5,4.16,0],"scale":[0.16,8.32,0.16]},{"name":"souvenir shelter roof","mesh":9,"translation":[0,8.37,0],"scale":[10.2,0.3,8]},{"name":"twine miracle sign-back","mesh":10,"translation":[0,1.65,5.1],"scale":[5.6,1.6,1]},{"name":"twine miracle sign","mesh":11,"translation":[0,1.65,5.129],"scale":[5.5,1.5,1]},{"name":"surveyed lot","mesh":12,"translation":[0,0.06,0],"scale":[13.52,0.12,11.44]},{"name":"world famous twine","mesh":13,"translation":[0,4.01,0],"scale":[3.72,3.66,3.66]},{"name":"twine wrap 0","mesh":14,"translation":[0,3.65,0],"rotation":[0.663433,0,0,0.748235]},{"name":"twine wrap 1","mesh":15,"translation":[0,3.77,0],"rotation":[0.672093,0.098899,0.091288,0.728132]},{"name":"twine wrap 2","mesh":16,"translation":[0,3.89,0],"rotation":[0.667724,0.192342,0.184798,0.694982]},{"name":"twine wrap 3","mesh":17,"translation":[0,4.01,0],"rotation":[0.649904,0.278613,0.278613,0.649904]},{"name":"twine wrap 4","mesh":18,"translation":[0,4.13,0],"rotation":[0.618499,0.356206,0.370747,0.594241]},{"name":"twine wrap 5","mesh":19,"translation":[0,4.25,0],"rotation":[0.573677,0.423846,0.459186,0.529526]},{"name":"post -4.5 0","mesh":20,"translation":[-4.5,4.16,0],"scale":[0.16,8.32,0.16]},{"name":"post -4.5 1","mesh":20,"translation":[-1.5,4.16,0],"scale":[0.16,8.32,0.16]},{"name":"post -4.5 2","mesh":20,"translation":[1.5,4.16,0],"scale":[0.16,8.32,0.16]},{"name":"post -4.5 3","mesh":20,"translation":[4.5,4.16,0],"scale":[0.16,8.32,0.16]},{"name":"souvenir shelter roof","mesh":21,"translation":[0,8.37,0],"scale":[10.2,0.3,8]},{"name":"twine miracle sign-back","mesh":10,"translation":[0,1.65,5.1],"scale":[5.6,1.6,1]},{"name":"twine miracle sign","mesh":11,"translation":[0,1.65,5.129],"scale":[5.5,1.5,1]},{"name":"surveyed lot","mesh":12,"translation":[0,0.06,0],"scale":[13.52,0.12,11.44]},{"name":"world famous twine","mesh":22,"translation":[0,4.01,0],"scale":[3.72,3.66,3.66]},{"name":"twine wrap 0","mesh":23,"translation":[0,3.83,0],"rotation":[0.685579,0,0,0.727999]},{"name":"twine wrap 1","mesh":24,"translation":[0,3.95,0],"rotation":[0.693631,0.096117,0.094213,0.707645]},{"name":"twine wrap 2","mesh":25,"translation":[0,4.07,0],"rotation":[0.68827,0.186712,0.190484,0.67464]},{"name":"post -4.5 0","mesh":20,"translation":[-4.5,4.16,0],"scale":[0.16,8.32,0.16]},{"name":"post -4.5 1","mesh":20,"translation":[-1.5,4.16,0],"scale":[0.16,8.32,0.16]},{"name":"post -4.5 2","mesh":20,"translation":[1.5,4.16,0],"scale":[0.16,8.32,0.16]},{"name":"post -4.5 3","mesh":20,"translation":[4.5,4.16,0],"scale":[0.16,8.32,0.16]},{"name":"souvenir shelter roof","mesh":21,"translation":[0,8.37,0],"scale":[10.2,0.3,8]},{"name":"twine miracle sign-back","mesh":10,"translation":[0,1.65,5.1],"scale":[5.6,1.6,1]},{"name":"twine miracle sign","mesh":11,"translation":[0,1.65,5.129],"scale":[5.5,1.5,1]}],"meshes":[{"primitives":[{"attributes":{"POSITION":0,"NORMAL":1,"TEXCOORD_0":2},"material":0,"mode":4}]},{"primitives":[{"attributes":{"POSITION":3,"NORMAL":3,"TEXCOORD_0":4},"material":1,"mode":4,"indices":5}]},{"primitives":[{"attributes":{"POSITION":6,"NORMAL":7,"TEXCOORD_0":8},"material":1,"mode":4,"indices":9}]},{"primitives":[{"attributes":{"POSITION":10,"NORMAL":7,"TEXCOORD_0":11},"material":2,"mode":4,"indices":9}]},{"primitives":[{"attributes":{"POSITION":12,"NORMAL":7,"TEXCOORD_0":8},"material":1,"mode":4,"indices":9}]},{"primitives":[{"attributes":{"POSITION":13,"NORMAL":7,"TEXCOORD_0":11},"material":2,"mode":4,"indices":9}]},{"primitives":[{"attributes":{"POSITION":14,"NORMAL":7,"TEXCOORD_0":8},"material":1,"mode":4,"indices":9}]},{"primitives":[{"attributes":{"POSITION":15,"NORMAL":7,"TEXCOORD_0":11},"material":2,"mode":4,"indices":9}]},{"primitives":[{"attributes":{"POSITION":0,"NORMAL":1,"TEXCOORD_0":16},"material":3,"mode":4}]},{"primitives":[{"attributes":{"POSITION":0,"NORMAL":1,"TEXCOORD_0":17},"material":4,"mode":4}]},{"primitives":[{"attributes":{"POSITION":18,"NORMAL":19,"TEXCOORD_0":20},"material":5,"mode":4,"indices":21}]},{"primitives":[{"attributes":{"POSITION":22,"NORMAL":23,"TEXCOORD_0":24},"material":6,"mode":4,"indices":25}]},{"primitives":[{"attributes":{"POSITION":26,"NORMAL":19,"TEXCOORD_0":27},"material":0,"mode":4,"indices":21}]},{"primitives":[{"attributes":{"POSITION":28,"NORMAL":28,"TEXCOORD_0":29},"material":1,"mode":4,"indices":30}]},{"primitives":[{"attributes":{"POSITION":31,"NORMAL":32,"TEXCOORD_0":33},"material":1,"mode":4,"indices":34}]},{"primitives":[{"attributes":{"POSITION":35,"NORMAL":32,"TEXCOORD_0":36},"material":2,"mode":4,"indices":34}]},{"primitives":[{"attributes":{"POSITION":37,"NORMAL":32,"TEXCOORD_0":33},"material":1,"mode":4,"indices":34}]},{"primitives":[{"attributes":{"POSITION":38,"NORMAL":32,"TEXCOORD_0":36},"material":2,"mode":4,"indices":34}]},{"primitives":[{"attributes":{"POSITION":39,"NORMAL":32,"TEXCOORD_0":33},"material":1,"mode":4,"indices":34}]},{"primitives":[{"attributes":{"POSITION":40,"NORMAL":32,"TEXCOORD_0":36},"material":2,"mode":4,"indices":34}]},{"primitives":[{"attributes":{"POSITION":26,"NORMAL":19,"TEXCOORD_0":41},"material":3,"mode":4,"indices":21}]},{"primitives":[{"attributes":{"POSITION":26,"NORMAL":19,"TEXCOORD_0":42},"material":4,"mode":4,"indices":21}]},{"primitives":[{"attributes":{"POSITION":43,"NORMAL":43,"TEXCOORD_0":44},"material":1,"mode":4,"indices":45}]},{"primitives":[{"attributes":{"POSITION":46,"NORMAL":47,"TEXCOORD_0":48},"material":1,"mode":4,"indices":49}]},{"primitives":[{"attributes":{"POSITION":50,"NORMAL":47,"TEXCOORD_0":51},"material":2,"mode":4,"indices":49}]},{"primitives":[{"attributes":{"POSITION":52,"NORMAL":47,"TEXCOORD_0":48},"material":1,"mode":4,"indices":49}]}],"materials":[{"name":"concrete","pbrMetallicRoughness":{"baseColorTexture":{"index":0},"metallicRoughnessTexture":{"index":2},"roughnessFactor":1,"metallicFactor":1},"normalTexture":{"index":1,"scale":0.82},"occlusionTexture":{"index":2,"strength":0.35}},{"name":"wood-oak","pbrMetallicRoughness":{"baseColorTexture":{"index":3},"metallicRoughnessTexture":{"index":5},"roughnessFactor":1,"metallicFactor":1},"normalTexture":{"index":4,"scale":1},"occlusionTexture":{"index":5,"strength":0.35}},{"name":"brick-cream","pbrMetallicRoughness":{"baseColorTexture":{"index":6},"metallicRoughnessTexture":{"index":8},"roughnessFactor":1,"metallicFactor":1},"normalTexture":{"index":7,"scale":1.05},"occlusionTexture":{"index":8,"strength":0.35}},{"name":"wood-painted","pbrMetallicRoughness":{"baseColorTexture":{"index":9},"metallicRoughnessTexture":{"index":11},"roughnessFactor":1,"metallicFactor":1},"normalTexture":{"index":10,"scale":0.55},"occlusionTexture":{"index":11,"strength":0.35}},{"name":"roof-metal","pbrMetallicRoughness":{"baseColorTexture":{"index":12},"metallicRoughnessTexture":{"index":14},"roughnessFactor":1,"metallicFactor":1},"normalTexture":{"index":13,"scale":0.68},"occlusionTexture":{"index":14,"strength":0.35}},{"name":"metal-dark","pbrMetallicRoughness":{"baseColorTexture":{"index":15},"metallicRoughnessTexture":{"index":17},"roughnessFactor":1,"metallicFactor":1},"normalTexture":{"index":16,"scale":0.35},"occlusionTexture":{"index":17,"strength":0.35}},{"name":"miracle-twine-ball signage","pbrMetallicRoughness":{"baseColorTexture":{"index":18},"roughnessFactor":1,"metallicFactor":0},"extensions":{"KHR_materials_unlit":{}}}],"textures":[{"source":0,"sampler":0},{"source":1,"sampler":0},{"source":2,"sampler":0},{"source":3,"sampler":0},{"source":4,"sampler":0},{"source":5,"sampler":0},{"source":6,"sampler":0},{"source":7,"sampler":0},{"source":8,"sampler":0},{"source":9,"sampler":0},{"source":10,"sampler":0},{"source":11,"sampler":0},{"source":12,"sampler":0},{"source":13,"sampler":0},{"source":14,"sampler":0},{"source":15,"sampler":0},{"source":16,"sampler":0},{"source":17,"sampler":0},{"source":18,"sampler":0}],"images":[{"uri":"../textures/concrete-albedo.png"},{"uri":"../textures/concrete-normal.png"},{"uri":"../textures/concrete-orm.png"},{"uri":"../textures/wood-oak-albedo.png"},{"uri":"../textures/wood-oak-normal.png"},{"uri":"../textures/wood-oak-orm.png"},{"uri":"../textures/brick-cream-albedo.png"},{"uri":"../textures/brick-cream-normal.png"},{"uri":"../textures/brick-cream-orm.png"},{"uri":"../textures/wood-painted-albedo.png"},{"uri":"../textures/wood-painted-normal.png"},{"uri":"../textures/wood-painted-orm.png"},{"uri":"../textures/roof-metal-albedo.png"},{"uri":"../textures/roof-metal-normal.png"},{"uri":"../textures/roof-metal-orm.png"},{"uri":"../textures/metal-dark-albedo.png"},{"uri":"../textures/metal-dark-normal.png"},{"uri":"../textures/metal-dark-orm.png"},{"uri":"../signs/miracle-twine-ball.png"}],"samplers":[{"magFilter":9729,"minFilter":9987,"wrapS":10497,"wrapT":10497}],"buffers":[{"uri":"../shared/geometry.bin","byteLength":16435520}],"bufferViews":[{"buffer":0,"byteOffset":0,"byteLength":3888,"target":34962},{"buffer":0,"byteOffset":3888,"byteLength":3888,"target":34962},{"buffer":0,"byteOffset":8805688,"byteLength":2592,"target":34962},{"buffer":0,"byteOffset":6080864,"byteLength":3276,"target":34962},{"buffer":0,"byteOffset":8694676,"byteLength":2184,"target":34962},{"buffer":0,"byteOffset":6086324,"byteLength":2640,"target":34963},{"buffer":0,"byteOffset":8696860,"byteLength":3132,"target":34962},{"buffer":0,"byteOffset":390704,"byteLength":3132,"target":34962},{"buffer":0,"byteOffset":8622448,"byteLength":2088,"target":34962},{"buffer":0,"byteOffset":395924,"byteLength":2688,"target":34963},{"buffer":0,"byteOffset":8699992,"byteLength":3132,"target":34962},{"buffer":0,"byteOffset":8627668,"byteLength":2088,"target":34962},{"buffer":0,"byteOffset":8703124,"byteLength":3132,"target":34962},{"buffer":0,"byteOffset":8706256,"byteLength":3132,"target":34962},{"buffer":0,"byteOffset":8709388,"byteLength":3132,"target":34962},{"buffer":0,"byteOffset":8808280,"byteLength":3132,"target":34962},{"buffer":0,"byteOffset":8712520,"byteLength":2592,"target":34962},{"buffer":0,"byteOffset":8641744,"byteLength":2592,"target":34962},{"buffer":0,"byteOffset":45664,"byteLength":288,"target":34962},{"buffer":0,"byteOffset":45952,"byteLength":288,"target":34962},{"buffer":0,"byteOffset":46240,"byteLength":192,"target":34962},{"buffer":0,"byteOffset":46432,"byteLength":72,"target":34963},{"buffer":0,"byteOffset":46504,"byteLength":48,"target":34962},{"buffer":0,"byteOffset":46552,"byteLength":48,"target":34962},{"buffer":0,"byteOffset":135812,"byteLength":32,"target":34962},{"buffer":0,"byteOffset":46632,"byteLength":12,"target":34963},{"buffer":0,"byteOffset":46644,"byteLength":288,"target":34962},{"buffer":0,"byteOffset":8811412,"byteLength":192,"target":34962},{"buffer":0,"byteOffset":6096692,"byteLength":1404,"target":34962},{"buffer":0,"byteOffset":8715304,"byteLength":936,"target":34962},{"buffer":0,"byteOffset":6099032,"byteLength":1008,"target":34963},{"buffer":0,"byteOffset":8716240,"byteLength":1428,"target":34962},{"buffer":0,"byteOffset":427996,"byteLength":1428,"target":34962},{"buffer":0,"byteOffset":8646892,"byteLength":952,"target":34962},{"buffer":0,"byteOffset":430376,"byteLength":1152,"target":34963},{"buffer":0,"byteOffset":8717668,"byteLength":1428,"target":34962},{"buffer":0,"byteOffset":8649272,"byteLength":952,"target":34962},{"buffer":0,"byteOffset":8719096,"byteLength":1428,"target":34962},{"buffer":0,"byteOffset":8720524,"byteLength":1428,"target":34962},{"buffer":0,"byteOffset":8721952,"byteLength":1428,"target":34962},{"buffer":0,"byteOffset":8811604,"byteLength":1428,"target":34962},{"buffer":0,"byteOffset":8723380,"byteLength":192,"target":34962},{"buffer":0,"byteOffset":8654700,"byteLength":192,"target":34962},{"buffer":0,"byteOffset":6871440,"byteLength":648,"target":34962},{"buffer":0,"byteOffset":8723572,"byteLength":432,"target":34962},{"buffer":0,"byteOffset":6872520,"byteLength":384,"target":34963},{"buffer":0,"byteOffset":8724004,"byteLength":660,"target":34962},{"buffer":0,"byteOffset":437788,"byteLength":660,"target":34962},{"buffer":0,"byteOffset":8655984,"byteLength":440,"target":34962},{"buffer":0,"byteOffset":438888,"byteLength":480,"target":34963},{"buffer":0,"byteOffset":8724664,"byteLength":660,"target":34962},{"buffer":0,"byteOffset":8657084,"byteLength":440,"target":34962},{"buffer":0,"byteOffset":8725324,"byteLength":660,"target":34962}],"accessors":[{"bufferView":0,"componentType":5126,"count":324,"type":"VEC3","min":[-0.5,-0.5,-0.5],"max":[0.5,0.5,0.5]},{"bufferView":1,"componentType":5126,"count":324,"type":"VEC3"},{"bufferView":2,"componentType":5126,"count":324,"type":"VEC2"},{"bufferView":3,"componentType":5126,"count":273,"type":"VEC3","min":[-1,-1,-1],"max":[1,1,1]},{"bufferView":4,"componentType":5126,"count":273,"type":"VEC2"},{"bufferView":5,"componentType":5123,"count":1320,"type":"SCALAR"},{"bufferView":6,"componentType":5126,"count":261,"type":"VEC3","min":[-2.799999952316284,-2.799999952316284,-0.054999999701976776],"max":[2.799999952316284,2.799999952316284,0.054999999701976776]},{"bufferView":7,"componentType":5126,"count":261,"type":"VEC3"},{"bufferView":8,"componentType":5126,"count":261,"type":"VEC2"},{"bufferView":9,"componentType":5123,"count":1344,"type":"SCALAR"},{"bufferView":10,"componentType":5126,"count":261,"type":"VEC3","min":[-2.928100109100342,-2.928100109100342,-0.054999999701976776],"max":[2.928100109100342,2.928100109100342,0.054999999701976776]},{"bufferView":11,"componentType":5126,"count":261,"type":"VEC2"},{"bufferView":12,"componentType":5126,"count":261,"type":"VEC3","min":[-3.0562000274658203,-3.0562000274658203,-0.054999999701976776],"max":[3.0562000274658203,3.0562000274658203,0.054999999701976776]},{"bufferView":13,"componentType":5126,"count":261,"type":"VEC3","min":[-3.184299945831299,-3.184299945831299,-0.054999999701976776],"max":[3.184299945831299,3.184299945831299,0.054999999701976776]},{"bufferView":14,"componentType":5126,"count":261,"type":"VEC3","min":[-3.3124001026153564,-3.3124001026153564,-0.054999999701976776],"max":[3.3124001026153564,3.3124001026153564,0.054999999701976776]},{"bufferView":15,"componentType":5126,"count":261,"type":"VEC3","min":[-3.440500020980835,-3.440500020980835,-0.054999999701976776],"max":[3.440500020980835,3.440500020980835,0.054999999701976776]},{"bufferView":16,"componentType":5126,"count":324,"type":"VEC2"},{"bufferView":17,"componentType":5126,"count":324,"type":"VEC2"},{"bufferView":18,"componentType":5126,"count":24,"type":"VEC3","min":[-0.5,-0.5,-0.02500000037252903],"max":[0.5,0.5,0.02500000037252903]},{"bufferView":19,"componentType":5126,"count":24,"type":"VEC3"},{"bufferView":20,"componentType":5126,"count":24,"type":"VEC2"},{"bufferView":21,"componentType":5123,"count":36,"type":"SCALAR"},{"bufferView":22,"componentType":5126,"count":4,"type":"VEC3","min":[-0.5,-0.5,0],"max":[0.5,0.5,0]},{"bufferView":23,"componentType":5126,"count":4,"type":"VEC3"},{"bufferView":24,"componentType":5126,"count":4,"type":"VEC2"},{"bufferView":25,"componentType":5123,"count":6,"type":"SCALAR"},{"bufferView":26,"componentType":5126,"count":24,"type":"VEC3","min":[-0.5,-0.5,-0.5],"max":[0.5,0.5,0.5]},{"bufferView":27,"componentType":5126,"count":24,"type":"VEC2"},{"bufferView":28,"componentType":5126,"count":117,"type":"VEC3","min":[-1,-1,-1],"max":[1,1,1]},{"bufferView":29,"componentType":5126,"count":117,"type":"VEC2"},{"bufferView":30,"componentType":5123,"count":504,"type":"SCALAR"},{"bufferView":31,"componentType":5126,"count":119,"type":"VEC3","min":[-2.799999952316284,-2.799999952316284,-0.0476313978433609],"max":[2.799999952316284,2.799999952316284,0.0476313978433609]},{"bufferView":32,"componentType":5126,"count":119,"type":"VEC3"},{"bufferView":33,"componentType":5126,"count":119,"type":"VEC2"},{"bufferView":34,"componentType":5123,"count":576,"type":"SCALAR"},{"bufferView":35,"componentType":5126,"count":119,"type":"VEC3","min":[-2.928100109100342,-2.928100109100342,-0.0476313978433609],"max":[2.928100109100342,2.928100109100342,0.0476313978433609]},{"bufferView":36,"componentType":5126,"count":119,"type":"VEC2"},{"bufferView":37,"componentType":5126,"count":119,"type":"VEC3","min":[-3.0562000274658203,-3.0562000274658203,-0.0476313978433609],"max":[3.0562000274658203,3.0562000274658203,0.0476313978433609]},{"bufferView":38,"componentType":5126,"count":119,"type":"VEC3","min":[-3.184299945831299,-3.184299945831299,-0.0476313978433609],"max":[3.184299945831299,3.184299945831299,0.0476313978433609]},{"bufferView":39,"componentType":5126,"count":119,"type":"VEC3","min":[-3.3124001026153564,-3.3124001026153564,-0.0476313978433609],"max":[3.3124001026153564,3.3124001026153564,0.0476313978433609]},{"bufferView":40,"componentType":5126,"count":119,"type":"VEC3","min":[-3.440500020980835,-3.440500020980835,-0.0476313978433609],"max":[3.440500020980835,3.440500020980835,0.0476313978433609]},{"bufferView":41,"componentType":5126,"count":24,"type":"VEC2"},{"bufferView":42,"componentType":5126,"count":24,"type":"VEC2"},{"bufferView":43,"componentType":5126,"count":54,"type":"VEC3","min":[-0.9510565400123596,-1,-0.9510565400123596],"max":[0.9510565400123596,1,0.9510565400123596]},{"bufferView":44,"componentType":5126,"count":54,"type":"VEC2"},{"bufferView":45,"componentType":5123,"count":192,"type":"SCALAR"},{"bufferView":46,"componentType":5126,"count":55,"type":"VEC3","min":[-2.799999952316284,-2.6629581451416016,-0.054999999701976776],"max":[2.799999952316284,2.6629581451416016,0.054999999701976776]},{"bufferView":47,"componentType":5126,"count":55,"type":"VEC3"},{"bufferView":48,"componentType":5126,"count":55,"type":"VEC2"},{"bufferView":49,"componentType":5123,"count":240,"type":"SCALAR"},{"bufferView":50,"componentType":5126,"count":55,"type":"VEC3","min":[-2.928100109100342,-2.7847886085510254,-0.054999999701976776],"max":[2.928100109100342,2.7847886085510254,0.054999999701976776]},{"bufferView":51,"componentType":5126,"count":55,"type":"VEC2"},{"bufferView":52,"componentType":5126,"count":55,"type":"VEC3","min":[-3.0562000274658203,-2.90661883354187,-0.054999999701976776],"max":[3.0562000274658203,2.90661883354187,0.054999999701976776]}],"extensionsUsed":["KHR_materials_unlit"],"extras":{"id":"vlt-miracle-twine-ball-08","family":"miracle-twine-ball","variant":7,"plan":"B3-1","units":"metres","up":"+Y","front":"+Z","lodScenes":[0,1,2]}}