{"asset":{"version":"2.0","generator":"SLOPMERICA Department of Unnecessary Development 1.0"},"scene":0,"scenes":[{"name":"LOD 0","nodes":[0,1,2,3,4,5,6,7,8,9,10],"extras":{"level":0}},{"name":"LOD 1","nodes":[11,12,13,14,15,16,17,18,19,20,21],"extras":{"level":1}},{"name":"LOD 2","nodes":[22,23,24,25,26,27,28],"extras":{"level":2}}],"nodes":[{"name":"patriotic splash pad","mesh":0,"translation":[0,0.1,0],"scale":[5,0.2,5]},{"name":"jet 0","mesh":1,"translation":[3.060405,0.75,0.493886],"scale":[0.13,1.1,0.13]},{"name":"jet 1","mesh":2,"translation":[1.102484,0.925,2.897331],"scale":[0.13,1.45,0.13]},{"name":"jet 2","mesh":3,"translation":[-1.95792,1.1,2.403445],"scale":[0.13,1.8,0.13]},{"name":"jet 3","mesh":1,"translation":[-3.060405,0.75,-0.493886],"scale":[0.13,1.1,0.13]},{"name":"jet 4","mesh":2,"translation":[-1.102484,0.925,-2.897331],"scale":[0.13,1.45,0.13]},{"name":"jet 5","mesh":3,"translation":[1.95792,1.1,-2.403445],"scale":[0.13,1.8,0.13]},{"name":"flag pole","mesh":4,"translation":[0,4,0],"scale":[0.15,8,0.15]},{"name":"flag","mesh":5,"translation":[1.25,7.3,0],"scale":[2.4,1.3,0.07]},{"name":"splash pad rules-back","mesh":6,"translation":[6.3,1.5,0],"rotation":[0,0.707107,0,0.707107],"scale":[2.7,1.5,1]},{"name":"splash pad rules","mesh":7,"translation":[6.329,1.5,0],"rotation":[0,0.707107,0,0.707107],"scale":[2.6,1.4,1]},{"name":"patriotic splash pad","mesh":8,"translation":[0,0.1,0],"scale":[5,0.2,5]},{"name":"jet 0","mesh":9,"translation":[3.060405,0.75,0.493886],"scale":[0.13,1.1,0.13]},{"name":"jet 1","mesh":10,"translation":[1.102484,0.925,2.897331],"scale":[0.13,1.45,0.13]},{"name":"jet 2","mesh":11,"translation":[-1.95792,1.1,2.403445],"scale":[0.13,1.8,0.13]},{"name":"jet 3","mesh":9,"translation":[-3.060405,0.75,-0.493886],"scale":[0.13,1.1,0.13]},{"name":"jet 4","mesh":10,"translation":[-1.102484,0.925,-2.897331],"scale":[0.13,1.45,0.13]},{"name":"jet 5","mesh":11,"translation":[1.95792,1.1,-2.403445],"scale":[0.13,1.8,0.13]},{"name":"flag pole","mesh":12,"translation":[0,4,0],"scale":[0.15,8,0.15]},{"name":"flag","mesh":13,"translation":[1.25,7.3,0],"scale":[2.4,1.3,0.07]},{"name":"splash pad rules-back","mesh":6,"translation":[6.3,1.5,0],"rotation":[0,0.707107,0,0.707107],"scale":[2.7,1.5,1]},{"name":"splash pad rules","mesh":7,"translation":[6.329,1.5,0],"rotation":[0,0.707107,0,0.707107],"scale":[2.6,1.4,1]},{"name":"patriotic splash pad","mesh":14,"translation":[0,0.1,0],"scale":[5,0.2,5]},{"name":"jet 0","mesh":9,"translation":[3.060405,0.75,0.493886],"scale":[0.13,1.1,0.13]},{"name":"jet 1","mesh":10,"translation":[-0.493886,0.925,3.060405],"scale":[0.13,1.45,0.13]},{"name":"jet 2","mesh":11,"translation":[-3.060405,1.1,-0.493886],"scale":[0.13,1.8,0.13]},{"name":"jet 3","mesh":9,"translation":[0.493886,0.75,-3.060405],"scale":[0.13,1.1,0.13]},{"name":"flag pole","mesh":12,"translation":[0,4,0],"scale":[0.15,8,0.15]},{"name":"flag","mesh":13,"translation":[1.25,7.3,0],"scale":[2.4,1.3,0.07]}],"meshes":[{"primitives":[{"attributes":{"POSITION":0,"NORMAL":1,"TEXCOORD_0":2},"material":0,"mode":4,"indices":3}]},{"primitives":[{"attributes":{"POSITION":4,"NORMAL":5,"TEXCOORD_0":6},"material":1,"mode":4,"indices":7}]},{"primitives":[{"attributes":{"POSITION":4,"NORMAL":5,"TEXCOORD_0":8},"material":1,"mode":4,"indices":7}]},{"primitives":[{"attributes":{"POSITION":4,"NORMAL":5,"TEXCOORD_0":9},"material":1,"mode":4,"indices":7}]},{"primitives":[{"attributes":{"POSITION":10,"NORMAL":11,"TEXCOORD_0":12},"material":2,"mode":4}]},{"primitives":[{"attributes":{"POSITION":10,"NORMAL":11,"TEXCOORD_0":13},"material":3,"mode":4}]},{"primitives":[{"attributes":{"POSITION":14,"NORMAL":15,"TEXCOORD_0":16},"material":4,"mode":4,"indices":17}]},{"primitives":[{"attributes":{"POSITION":18,"NORMAL":19,"TEXCOORD_0":20},"material":5,"mode":4,"indices":21}]},{"primitives":[{"attributes":{"POSITION":22,"NORMAL":23,"TEXCOORD_0":24},"material":0,"mode":4,"indices":25}]},{"primitives":[{"attributes":{"POSITION":26,"NORMAL":27,"TEXCOORD_0":28},"material":1,"mode":4,"indices":29}]},{"primitives":[{"attributes":{"POSITION":26,"NORMAL":27,"TEXCOORD_0":30},"material":1,"mode":4,"indices":29}]},{"primitives":[{"attributes":{"POSITION":26,"NORMAL":27,"TEXCOORD_0":31},"material":1,"mode":4,"indices":29}]},{"primitives":[{"attributes":{"POSITION":32,"NORMAL":15,"TEXCOORD_0":33},"material":2,"mode":4,"indices":17}]},{"primitives":[{"attributes":{"POSITION":32,"NORMAL":15,"TEXCOORD_0":34},"material":3,"mode":4,"indices":17}]},{"primitives":[{"attributes":{"POSITION":35,"NORMAL":36,"TEXCOORD_0":37},"material":0,"mode":4,"indices":29}]}],"materials":[{"name":"paint-blue","pbrMetallicRoughness":{"baseColorFactor":[0.05126945836711539,0.10946171076915331,0.22696587349938613,1],"roughnessFactor":0.58,"metallicFactor":0.05}},{"name":"glass-blue","pbrMetallicRoughness":{"baseColorTexture":{"index":0},"metallicRoughnessTexture":{"index":2},"roughnessFactor":1,"metallicFactor":1},"normalTexture":{"index":1,"scale":0.12},"occlusionTexture":{"index":2,"strength":0.35}},{"name":"metal-galvanized","pbrMetallicRoughness":{"baseColorTexture":{"index":3},"metallicRoughnessTexture":{"index":5},"roughnessFactor":1,"metallicFactor":1},"normalTexture":{"index":4,"scale":0.15},"occlusionTexture":{"index":5,"strength":0.35}},{"name":"paint-red","pbrMetallicRoughness":{"baseColorFactor":[0.46778379610254284,0.08021982030622662,0.05126945836711539,1],"roughnessFactor":0.62,"metallicFactor":0.05}},{"name":"metal-dark","pbrMetallicRoughness":{"baseColorTexture":{"index":6},"metallicRoughnessTexture":{"index":8},"roughnessFactor":1,"metallicFactor":1},"normalTexture":{"index":7,"scale":0.35},"occlusionTexture":{"index":8,"strength":0.35}},{"name":"freedom-splash-pad signage","pbrMetallicRoughness":{"baseColorTexture":{"index":9},"roughnessFactor":1,"metallicFactor":0},"extensions":{"KHR_materials_unlit":{}}}],"textures":[{"source":0,"sampler":0},{"source":1,"sampler":0},{"source":2,"sampler":0},{"source":3,"sampler":0},{"source":4,"sampler":0},{"source":5,"sampler":0},{"source":6,"sampler":0},{"source":7,"sampler":0},{"source":8,"sampler":0},{"source":9,"sampler":0}],"images":[{"uri":"../textures/glass-blue-albedo.png"},{"uri":"../textures/glass-blue-normal.png"},{"uri":"../textures/glass-blue-orm.png"},{"uri":"../textures/metal-galvanized-albedo.png"},{"uri":"../textures/metal-galvanized-normal.png"},{"uri":"../textures/metal-galvanized-orm.png"},{"uri":"../textures/metal-dark-albedo.png"},{"uri":"../textures/metal-dark-normal.png"},{"uri":"../textures/metal-dark-orm.png"},{"uri":"../signs/freedom-splash-pad.png"}],"samplers":[{"magFilter":9729,"minFilter":9987,"wrapS":10497,"wrapT":10497}],"buffers":[{"uri":"../shared/geometry.bin","byteLength":16435520}],"bufferViews":[{"buffer":0,"byteOffset":5513568,"byteLength":1776,"target":34962},{"buffer":0,"byteOffset":5515344,"byteLength":1776,"target":34962},{"buffer":0,"byteOffset":5517120,"byteLength":1184,"target":34962},{"buffer":0,"byteOffset":5518304,"byteLength":576,"target":34963},{"buffer":0,"byteOffset":5518880,"byteLength":552,"target":34962},{"buffer":0,"byteOffset":5519432,"byteLength":552,"target":34962},{"buffer":0,"byteOffset":5519984,"byteLength":368,"target":34962},{"buffer":0,"byteOffset":3772292,"byteLength":168,"target":34963},{"buffer":0,"byteOffset":5520352,"byteLength":368,"target":34962},{"buffer":0,"byteOffset":5520720,"byteLength":368,"target":34962},{"buffer":0,"byteOffset":0,"byteLength":3888,"target":34962},{"buffer":0,"byteOffset":3888,"byteLength":3888,"target":34962},{"buffer":0,"byteOffset":5550912,"byteLength":2592,"target":34962},{"buffer":0,"byteOffset":5523680,"byteLength":2592,"target":34962},{"buffer":0,"byteOffset":45664,"byteLength":288,"target":34962},{"buffer":0,"byteOffset":45952,"byteLength":288,"target":34962},{"buffer":0,"byteOffset":46240,"byteLength":192,"target":34962},{"buffer":0,"byteOffset":46432,"byteLength":72,"target":34963},{"buffer":0,"byteOffset":46504,"byteLength":48,"target":34962},{"buffer":0,"byteOffset":46552,"byteLength":48,"target":34962},{"buffer":0,"byteOffset":124292,"byteLength":32,"target":34962},{"buffer":0,"byteOffset":46632,"byteLength":12,"target":34963},{"buffer":0,"byteOffset":5526272,"byteLength":912,"target":34962},{"buffer":0,"byteOffset":5527184,"byteLength":912,"target":34962},{"buffer":0,"byteOffset":5528096,"byteLength":608,"target":34962},{"buffer":0,"byteOffset":387284,"byteLength":288,"target":34963},{"buffer":0,"byteOffset":5528704,"byteLength":480,"target":34962},{"buffer":0,"byteOffset":5529184,"byteLength":480,"target":34962},{"buffer":0,"byteOffset":5529664,"byteLength":320,"target":34962},{"buffer":0,"byteOffset":48596,"byteLength":144,"target":34963},{"buffer":0,"byteOffset":5529984,"byteLength":320,"target":34962},{"buffer":0,"byteOffset":5530304,"byteLength":320,"target":34962},{"buffer":0,"byteOffset":46644,"byteLength":288,"target":34962},{"buffer":0,"byteOffset":5553504,"byteLength":192,"target":34962},{"buffer":0,"byteOffset":5530816,"byteLength":192,"target":34962},{"buffer":0,"byteOffset":1112312,"byteLength":480,"target":34962},{"buffer":0,"byteOffset":1112792,"byteLength":480,"target":34962},{"buffer":0,"byteOffset":5531008,"byteLength":320,"target":34962}],"accessors":[{"bufferView":0,"componentType":5126,"count":148,"type":"VEC3","min":[-1,-0.5,-1],"max":[1,0.5,1]},{"bufferView":1,"componentType":5126,"count":148,"type":"VEC3"},{"bufferView":2,"componentType":5126,"count":148,"type":"VEC2"},{"bufferView":3,"componentType":5123,"count":288,"type":"SCALAR"},{"bufferView":4,"componentType":5126,"count":46,"type":"VEC3","min":[-0.9749279022216797,-0.5,-0.9009688496589661],"max":[0.9749279022216797,0.5,1]},{"bufferView":5,"componentType":5126,"count":46,"type":"VEC3"},{"bufferView":6,"componentType":5126,"count":46,"type":"VEC2"},{"bufferView":7,"componentType":5123,"count":84,"type":"SCALAR"},{"bufferView":8,"componentType":5126,"count":46,"type":"VEC2"},{"bufferView":9,"componentType":5126,"count":46,"type":"VEC2"},{"bufferView":10,"componentType":5126,"count":324,"type":"VEC3","min":[-0.5,-0.5,-0.5],"max":[0.5,0.5,0.5]},{"bufferView":11,"componentType":5126,"count":324,"type":"VEC3"},{"bufferView":12,"componentType":5126,"count":324,"type":"VEC2"},{"bufferView":13,"componentType":5126,"count":324,"type":"VEC2"},{"bufferView":14,"componentType":5126,"count":24,"type":"VEC3","min":[-0.5,-0.5,-0.02500000037252903],"max":[0.5,0.5,0.02500000037252903]},{"bufferView":15,"componentType":5126,"count":24,"type":"VEC3"},{"bufferView":16,"componentType":5126,"count":24,"type":"VEC2"},{"bufferView":17,"componentType":5123,"count":36,"type":"SCALAR"},{"bufferView":18,"componentType":5126,"count":4,"type":"VEC3","min":[-0.5,-0.5,0],"max":[0.5,0.5,0]},{"bufferView":19,"componentType":5126,"count":4,"type":"VEC3"},{"bufferView":20,"componentType":5126,"count":4,"type":"VEC2"},{"bufferView":21,"componentType":5123,"count":6,"type":"SCALAR"},{"bufferView":22,"componentType":5126,"count":76,"type":"VEC3","min":[-1,-0.5,-1],"max":[1,0.5,1]},{"bufferView":23,"componentType":5126,"count":76,"type":"VEC3"},{"bufferView":24,"componentType":5126,"count":76,"type":"VEC2"},{"bufferView":25,"componentType":5123,"count":144,"type":"SCALAR"},{"bufferView":26,"componentType":5126,"count":40,"type":"VEC3","min":[-0.8660253882408142,-0.5,-1],"max":[0.8660253882408142,0.5,1]},{"bufferView":27,"componentType":5126,"count":40,"type":"VEC3"},{"bufferView":28,"componentType":5126,"count":40,"type":"VEC2"},{"bufferView":29,"componentType":5123,"count":72,"type":"SCALAR"},{"bufferView":30,"componentType":5126,"count":40,"type":"VEC2"},{"bufferView":31,"componentType":5126,"count":40,"type":"VEC2"},{"bufferView":32,"componentType":5126,"count":24,"type":"VEC3","min":[-0.5,-0.5,-0.5],"max":[0.5,0.5,0.5]},{"bufferView":33,"componentType":5126,"count":24,"type":"VEC2"},{"bufferView":34,"componentType":5126,"count":24,"type":"VEC2"},{"bufferView":35,"componentType":5126,"count":40,"type":"VEC3","min":[-0.8660253882408142,-0.5,-1],"max":[0.8660253882408142,0.5,1]},{"bufferView":36,"componentType":5126,"count":40,"type":"VEC3"},{"bufferView":37,"componentType":5126,"count":40,"type":"VEC2"}],"extensionsUsed":["KHR_materials_unlit"],"extras":{"id":"vlt-freedom-splash-pad-06","family":"freedom-splash-pad","variant":5,"plan":"B1-1","units":"metres","up":"+Y","front":"+Z","lodScenes":[0,1,2]}}