{"asset":{"version":"2.0","generator":"SLOPMERICA Department of Unnecessary Development 1.0"},"scene":0,"scenes":[{"name":"LOD 0","nodes":[0,1,2,3,4,5,6,7,8,9,10,11,12,13,14,15,16,17,18,19,20,21,22,23,24,25,26],"extras":{"level":0}},{"name":"LOD 1","nodes":[27,28,29,30,31,32,33,34,35,36,37,38,39,40,41,42,43,44,45,46,47,48,49,50,51,52,53],"extras":{"level":1}},{"name":"LOD 2","nodes":[54,55,56,57,58,59,60,61,62,63,64,65,66,67],"extras":{"level":2}}],"nodes":[{"name":"site-pad","mesh":0,"translation":[0,0.06,0],"scale":[20.5504,0.12,13.52]},{"name":"variant-apron","mesh":1,"translation":[-1.2844,0.13,6.72],"scale":[5.3352,0.08,0.98]},{"name":"bollard-0","mesh":2,"translation":[-7.5088,0.43,6.84],"scale":[0.08,0.66,0.08]},{"name":"bollard-1","mesh":2,"translation":[0,0.43,6.84],"scale":[0.08,0.66,0.08]},{"name":"bollard-2","mesh":2,"translation":[7.5088,0.43,6.84],"scale":[0.08,0.66,0.08]},{"name":"layout-cabinet","mesh":3,"translation":[10.08,0.555,-0.975],"scale":[0.57,0.87,0.32]},{"name":"hopper-0","mesh":4,"translation":[-7.1136,3,0],"scale":[1.4,2.55,1.4]},{"name":"hopper-leg-0--0.8","mesh":5,"translation":[-7.9136,1.25,0],"scale":[0.16,2.1,0.16]},{"name":"hopper-leg-0-0.8","mesh":5,"translation":[-6.3136,1.25,0],"scale":[0.16,2.1,0.16]},{"name":"hopper-1","mesh":4,"translation":[-3.5568,3,0],"scale":[1.4,2.55,1.4]},{"name":"hopper-leg-1--0.8","mesh":5,"translation":[-4.3568,1.25,0],"scale":[0.16,2.1,0.16]},{"name":"hopper-leg-1-0.8","mesh":5,"translation":[-2.7568,1.25,0],"scale":[0.16,2.1,0.16]},{"name":"hopper-2","mesh":4,"translation":[0,3,0],"scale":[1.4,2.55,1.4]},{"name":"hopper-leg-2--0.8","mesh":5,"translation":[-0.8,1.25,0],"scale":[0.16,2.1,0.16]},{"name":"hopper-leg-2-0.8","mesh":5,"translation":[0.8,1.25,0],"scale":[0.16,2.1,0.16]},{"name":"hopper-3","mesh":4,"translation":[3.5568,3,0],"scale":[1.4,2.55,1.4]},{"name":"hopper-leg-3--0.8","mesh":5,"translation":[2.7568,1.25,0],"scale":[0.16,2.1,0.16]},{"name":"hopper-leg-3-0.8","mesh":5,"translation":[4.3568,1.25,0],"scale":[0.16,2.1,0.16]},{"name":"hopper-4","mesh":4,"translation":[7.1136,3,0],"scale":[1.4,2.55,1.4]},{"name":"hopper-leg-4--0.8","mesh":5,"translation":[6.3136,1.25,0],"scale":[0.16,2.1,0.16]},{"name":"hopper-leg-4-0.8","mesh":5,"translation":[7.9136,1.25,0],"scale":[0.16,2.1,0.16]},{"name":"feed-conveyor","mesh":6,"translation":[0.988,5.32,-2.34],"rotation":[0,0,0.099833,0.995004],"scale":[15.808,0.55,1.1]},{"name":"aggregate-pile-0","mesh":7,"translation":[-4.4,1.2,4.55],"scale":[2.44,2.2,2.44]},{"name":"aggregate-pile-1","mesh":8,"translation":[0,1.2,4.55],"scale":[2.44,2.2,2.44]},{"name":"aggregate-pile-2","mesh":7,"translation":[4.4,1.2,4.55],"scale":[2.44,2.2,2.44]},{"name":"aggregate-sign-back","mesh":9,"translation":[0,2.4,6.7],"scale":[4.7,1,1]},{"name":"aggregate-sign","mesh":10,"translation":[0,2.4,6.729],"scale":[4.6,0.9,1]},{"name":"site-pad","mesh":11,"translation":[0,0.06,0],"scale":[20.5504,0.12,13.52]},{"name":"variant-apron","mesh":12,"translation":[-1.2844,0.13,6.72],"scale":[5.3352,0.08,0.98]},{"name":"bollard-0","mesh":13,"translation":[-7.5088,0.43,6.84],"scale":[0.08,0.66,0.08]},{"name":"bollard-1","mesh":13,"translation":[0,0.43,6.84],"scale":[0.08,0.66,0.08]},{"name":"bollard-2","mesh":13,"translation":[7.5088,0.43,6.84],"scale":[0.08,0.66,0.08]},{"name":"layout-cabinet","mesh":14,"translation":[10.08,0.555,-0.975],"scale":[0.57,0.87,0.32]},{"name":"hopper-0","mesh":15,"translation":[-7.1136,3,0],"scale":[1.4,2.55,1.4]},{"name":"hopper-leg-0--0.8","mesh":16,"translation":[-7.9136,1.25,0],"scale":[0.16,2.1,0.16]},{"name":"hopper-leg-0-0.8","mesh":16,"translation":[-6.3136,1.25,0],"scale":[0.16,2.1,0.16]},{"name":"hopper-1","mesh":15,"translation":[-3.5568,3,0],"scale":[1.4,2.55,1.4]},{"name":"hopper-leg-1--0.8","mesh":16,"translation":[-4.3568,1.25,0],"scale":[0.16,2.1,0.16]},{"name":"hopper-leg-1-0.8","mesh":16,"translation":[-2.7568,1.25,0],"scale":[0.16,2.1,0.16]},{"name":"hopper-2","mesh":15,"translation":[0,3,0],"scale":[1.4,2.55,1.4]},{"name":"hopper-leg-2--0.8","mesh":16,"translation":[-0.8,1.25,0],"scale":[0.16,2.1,0.16]},{"name":"hopper-leg-2-0.8","mesh":16,"translation":[0.8,1.25,0],"scale":[0.16,2.1,0.16]},{"name":"hopper-3","mesh":15,"translation":[3.5568,3,0],"scale":[1.4,2.55,1.4]},{"name":"hopper-leg-3--0.8","mesh":16,"translation":[2.7568,1.25,0],"scale":[0.16,2.1,0.16]},{"name":"hopper-leg-3-0.8","mesh":16,"translation":[4.3568,1.25,0],"scale":[0.16,2.1,0.16]},{"name":"hopper-4","mesh":15,"translation":[7.1136,3,0],"scale":[1.4,2.55,1.4]},{"name":"hopper-leg-4--0.8","mesh":16,"translation":[6.3136,1.25,0],"scale":[0.16,2.1,0.16]},{"name":"hopper-leg-4-0.8","mesh":16,"translation":[7.9136,1.25,0],"scale":[0.16,2.1,0.16]},{"name":"feed-conveyor","mesh":17,"translation":[0.988,5.32,-2.34],"rotation":[0,0,0.099833,0.995004],"scale":[15.808,0.55,1.1]},{"name":"aggregate-pile-0","mesh":18,"translation":[-4.4,1.2,4.55],"scale":[2.44,2.2,2.44]},{"name":"aggregate-pile-1","mesh":19,"translation":[0,1.2,4.55],"scale":[2.44,2.2,2.44]},{"name":"aggregate-pile-2","mesh":18,"translation":[4.4,1.2,4.55],"scale":[2.44,2.2,2.44]},{"name":"aggregate-sign-back","mesh":9,"translation":[0,2.4,6.7],"scale":[4.7,1,1]},{"name":"aggregate-sign","mesh":10,"translation":[0,2.4,6.729],"scale":[4.6,0.9,1]},{"name":"site-pad","mesh":11,"translation":[0,0.06,0],"scale":[20.5504,0.12,13.52]},{"name":"variant-apron","mesh":12,"translation":[-1.2844,0.13,6.72],"scale":[5.3352,0.08,0.98]},{"name":"bollard-0","mesh":13,"translation":[-7.5088,0.43,6.84],"scale":[0.08,0.66,0.08]},{"name":"layout-cabinet","mesh":14,"translation":[10.08,0.555,-0.975],"scale":[0.57,0.87,0.32]},{"name":"hopper-0","mesh":15,"translation":[-7.1136,3,0],"scale":[1.4,2.55,1.4]},{"name":"hopper-leg-0--0.8","mesh":16,"translation":[-7.9136,1.25,0],"scale":[0.16,2.1,0.16]},{"name":"hopper-leg-0-0.8","mesh":16,"translation":[-6.3136,1.25,0],"scale":[0.16,2.1,0.16]},{"name":"hopper-1","mesh":15,"translation":[7.1136,3,0],"scale":[1.4,2.55,1.4]},{"name":"hopper-leg-1--0.8","mesh":16,"translation":[6.3136,1.25,0],"scale":[0.16,2.1,0.16]},{"name":"hopper-leg-1-0.8","mesh":16,"translation":[7.9136,1.25,0],"scale":[0.16,2.1,0.16]},{"name":"feed-conveyor","mesh":17,"translation":[0.988,5.32,-2.34],"rotation":[0,0,0.099833,0.995004],"scale":[15.808,0.55,1.1]},{"name":"aggregate-pile-0","mesh":18,"translation":[0,1.2,4.55],"scale":[2.44,2.2,2.44]},{"name":"aggregate-sign-back","mesh":9,"translation":[0,2.4,6.7],"scale":[4.7,1,1]},{"name":"aggregate-sign","mesh":10,"translation":[0,2.4,6.729],"scale":[4.6,0.9,1]}],"meshes":[{"primitives":[{"attributes":{"POSITION":0,"NORMAL":1,"TEXCOORD_0":2},"material":0,"mode":4}]},{"primitives":[{"attributes":{"POSITION":0,"NORMAL":1,"TEXCOORD_0":3},"material":0,"mode":4}]},{"primitives":[{"attributes":{"POSITION":4,"NORMAL":5,"TEXCOORD_0":6},"material":1,"mode":4,"indices":7}]},{"primitives":[{"attributes":{"POSITION":0,"NORMAL":1,"TEXCOORD_0":8},"material":2,"mode":4}]},{"primitives":[{"attributes":{"POSITION":9,"NORMAL":10,"TEXCOORD_0":11},"material":2,"mode":4,"indices":7}]},{"primitives":[{"attributes":{"POSITION":0,"NORMAL":1,"TEXCOORD_0":12},"material":3,"mode":4}]},{"primitives":[{"attributes":{"POSITION":0,"NORMAL":1,"TEXCOORD_0":13},"material":3,"mode":4}]},{"primitives":[{"attributes":{"POSITION":14,"NORMAL":15,"TEXCOORD_0":16},"material":4,"mode":4,"indices":7}]},{"primitives":[{"attributes":{"POSITION":14,"NORMAL":15,"TEXCOORD_0":17},"material":5,"mode":4,"indices":7}]},{"primitives":[{"attributes":{"POSITION":18,"NORMAL":19,"TEXCOORD_0":20},"material":3,"mode":4,"indices":21}]},{"primitives":[{"attributes":{"POSITION":22,"NORMAL":23,"TEXCOORD_0":24},"material":6,"mode":4,"indices":25}]},{"primitives":[{"attributes":{"POSITION":26,"NORMAL":19,"TEXCOORD_0":27},"material":0,"mode":4,"indices":21}]},{"primitives":[{"attributes":{"POSITION":26,"NORMAL":19,"TEXCOORD_0":28},"material":0,"mode":4,"indices":21}]},{"primitives":[{"attributes":{"POSITION":29,"NORMAL":30,"TEXCOORD_0":31},"material":1,"mode":4,"indices":32}]},{"primitives":[{"attributes":{"POSITION":26,"NORMAL":19,"TEXCOORD_0":33},"material":2,"mode":4,"indices":21}]},{"primitives":[{"attributes":{"POSITION":34,"NORMAL":35,"TEXCOORD_0":36},"material":2,"mode":4,"indices":32}]},{"primitives":[{"attributes":{"POSITION":26,"NORMAL":19,"TEXCOORD_0":37},"material":3,"mode":4,"indices":21}]},{"primitives":[{"attributes":{"POSITION":26,"NORMAL":19,"TEXCOORD_0":38},"material":3,"mode":4,"indices":21}]},{"primitives":[{"attributes":{"POSITION":39,"NORMAL":40,"TEXCOORD_0":41},"material":4,"mode":4,"indices":32}]},{"primitives":[{"attributes":{"POSITION":39,"NORMAL":40,"TEXCOORD_0":42},"material":5,"mode":4,"indices":32}]}],"materials":[{"name":"asphalt","pbrMetallicRoughness":{"baseColorTexture":{"index":0},"metallicRoughnessTexture":{"index":2},"roughnessFactor":1,"metallicFactor":1},"normalTexture":{"index":1,"scale":0.62},"occlusionTexture":{"index":2,"strength":0.35}},{"name":"paint-yellow","pbrMetallicRoughness":{"baseColorFactor":[0.76052450467022,0.4793201830913402,0.07818742179702069,1],"roughnessFactor":0.66,"metallicFactor":0.03}},{"name":"metal-galvanized","pbrMetallicRoughness":{"baseColorTexture":{"index":3},"metallicRoughnessTexture":{"index":5},"roughnessFactor":1,"metallicFactor":1},"normalTexture":{"index":4,"scale":0.15},"occlusionTexture":{"index":5,"strength":0.35}},{"name":"metal-dark","pbrMetallicRoughness":{"baseColorTexture":{"index":6},"metallicRoughnessTexture":{"index":8},"roughnessFactor":1,"metallicFactor":1},"normalTexture":{"index":7,"scale":0.35},"occlusionTexture":{"index":8,"strength":0.35}},{"name":"concrete","pbrMetallicRoughness":{"baseColorTexture":{"index":9},"metallicRoughnessTexture":{"index":11},"roughnessFactor":1,"metallicFactor":1},"normalTexture":{"index":10,"scale":0.82},"occlusionTexture":{"index":11,"strength":0.35}},{"name":"soil","pbrMetallicRoughness":{"baseColorTexture":{"index":12},"metallicRoughnessTexture":{"index":14},"roughnessFactor":1,"metallicFactor":1},"normalTexture":{"index":13,"scale":0.8},"occlusionTexture":{"index":14,"strength":0.35}},{"name":"aggregate-loader signage","pbrMetallicRoughness":{"baseColorTexture":{"index":15},"roughnessFactor":1,"metallicFactor":0},"extensions":{"KHR_materials_unlit":{}}}],"textures":[{"source":0,"sampler":0},{"source":1,"sampler":0},{"source":2,"sampler":0},{"source":3,"sampler":0},{"source":4,"sampler":0},{"source":5,"sampler":0},{"source":6,"sampler":0},{"source":7,"sampler":0},{"source":8,"sampler":0},{"source":9,"sampler":0},{"source":10,"sampler":0},{"source":11,"sampler":0},{"source":12,"sampler":0},{"source":13,"sampler":0},{"source":14,"sampler":0},{"source":15,"sampler":0}],"images":[{"uri":"../textures/asphalt-albedo.png"},{"uri":"../textures/asphalt-normal.png"},{"uri":"../textures/asphalt-orm.png"},{"uri":"../textures/metal-galvanized-albedo.png"},{"uri":"../textures/metal-galvanized-normal.png"},{"uri":"../textures/metal-galvanized-orm.png"},{"uri":"../textures/metal-dark-albedo.png"},{"uri":"../textures/metal-dark-normal.png"},{"uri":"../textures/metal-dark-orm.png"},{"uri":"../textures/concrete-albedo.png"},{"uri":"../textures/concrete-normal.png"},{"uri":"../textures/concrete-orm.png"},{"uri":"../textures/soil-albedo.png"},{"uri":"../textures/soil-normal.png"},{"uri":"../textures/soil-orm.png"},{"uri":"../signs/aggregate-loader.png"}],"samplers":[{"magFilter":9729,"minFilter":9987,"wrapS":10497,"wrapT":10497}],"buffers":[{"uri":"../shared/geometry.bin","byteLength":16435520}],"bufferViews":[{"buffer":0,"byteOffset":0,"byteLength":3888,"target":34962},{"buffer":0,"byteOffset":3888,"byteLength":3888,"target":34962},{"buffer":0,"byteOffset":309508,"byteLength":2592,"target":34962},{"buffer":0,"byteOffset":312100,"byteLength":2592,"target":34962},{"buffer":0,"byteOffset":12960,"byteLength":1200,"target":34962},{"buffer":0,"byteOffset":14160,"byteLength":1200,"target":34962},{"buffer":0,"byteOffset":120900,"byteLength":800,"target":34962},{"buffer":0,"byteOffset":16160,"byteLength":384,"target":34963},{"buffer":0,"byteOffset":133220,"byteLength":2592,"target":34962},{"buffer":0,"byteOffset":228196,"byteLength":1200,"target":34962},{"buffer":0,"byteOffset":229396,"byteLength":1200,"target":34962},{"buffer":0,"byteOffset":302436,"byteLength":800,"target":34962},{"buffer":0,"byteOffset":231396,"byteLength":2592,"target":34962},{"buffer":0,"byteOffset":263364,"byteLength":2592,"target":34962},{"buffer":0,"byteOffset":265956,"byteLength":1200,"target":34962},{"buffer":0,"byteOffset":267156,"byteLength":1200,"target":34962},{"buffer":0,"byteOffset":268356,"byteLength":800,"target":34962},{"buffer":0,"byteOffset":269156,"byteLength":800,"target":34962},{"buffer":0,"byteOffset":45664,"byteLength":288,"target":34962},{"buffer":0,"byteOffset":45952,"byteLength":288,"target":34962},{"buffer":0,"byteOffset":46240,"byteLength":192,"target":34962},{"buffer":0,"byteOffset":46432,"byteLength":72,"target":34963},{"buffer":0,"byteOffset":46504,"byteLength":48,"target":34962},{"buffer":0,"byteOffset":46552,"byteLength":48,"target":34962},{"buffer":0,"byteOffset":135812,"byteLength":32,"target":34962},{"buffer":0,"byteOffset":46632,"byteLength":12,"target":34963},{"buffer":0,"byteOffset":46644,"byteLength":288,"target":34962},{"buffer":0,"byteOffset":314692,"byteLength":192,"target":34962},{"buffer":0,"byteOffset":314884,"byteLength":192,"target":34962},{"buffer":0,"byteOffset":47316,"byteLength":480,"target":34962},{"buffer":0,"byteOffset":47796,"byteLength":480,"target":34962},{"buffer":0,"byteOffset":124516,"byteLength":320,"target":34962},{"buffer":0,"byteOffset":48596,"byteLength":144,"target":34963},{"buffer":0,"byteOffset":136036,"byteLength":192,"target":34962},{"buffer":0,"byteOffset":240964,"byteLength":480,"target":34962},{"buffer":0,"byteOffset":241444,"byteLength":480,"target":34962},{"buffer":0,"byteOffset":303620,"byteLength":320,"target":34962},{"buffer":0,"byteOffset":242244,"byteLength":192,"target":34962},{"buffer":0,"byteOffset":270340,"byteLength":192,"target":34962},{"buffer":0,"byteOffset":270532,"byteLength":480,"target":34962},{"buffer":0,"byteOffset":271012,"byteLength":480,"target":34962},{"buffer":0,"byteOffset":271492,"byteLength":320,"target":34962},{"buffer":0,"byteOffset":271812,"byteLength":320,"target":34962}],"accessors":[{"bufferView":0,"componentType":5126,"count":324,"type":"VEC3","min":[-0.5,-0.5,-0.5],"max":[0.5,0.5,0.5]},{"bufferView":1,"componentType":5126,"count":324,"type":"VEC3"},{"bufferView":2,"componentType":5126,"count":324,"type":"VEC2"},{"bufferView":3,"componentType":5126,"count":324,"type":"VEC2"},{"bufferView":4,"componentType":5126,"count":100,"type":"VEC3","min":[-1,-0.5,-1],"max":[1,0.5,1]},{"bufferView":5,"componentType":5126,"count":100,"type":"VEC3"},{"bufferView":6,"componentType":5126,"count":100,"type":"VEC2"},{"bufferView":7,"componentType":5123,"count":192,"type":"SCALAR"},{"bufferView":8,"componentType":5126,"count":324,"type":"VEC2"},{"bufferView":9,"componentType":5126,"count":100,"type":"VEC3","min":[-1,-0.5,-1],"max":[1,0.5,1]},{"bufferView":10,"componentType":5126,"count":100,"type":"VEC3"},{"bufferView":11,"componentType":5126,"count":100,"type":"VEC2"},{"bufferView":12,"componentType":5126,"count":324,"type":"VEC2"},{"bufferView":13,"componentType":5126,"count":324,"type":"VEC2"},{"bufferView":14,"componentType":5126,"count":100,"type":"VEC3","min":[-1,-0.5,-1],"max":[1,0.5,1]},{"bufferView":15,"componentType":5126,"count":100,"type":"VEC3"},{"bufferView":16,"componentType":5126,"count":100,"type":"VEC2"},{"bufferView":17,"componentType":5126,"count":100,"type":"VEC2"},{"bufferView":18,"componentType":5126,"count":24,"type":"VEC3","min":[-0.5,-0.5,-0.02500000037252903],"max":[0.5,0.5,0.02500000037252903]},{"bufferView":19,"componentType":5126,"count":24,"type":"VEC3"},{"bufferView":20,"componentType":5126,"count":24,"type":"VEC2"},{"bufferView":21,"componentType":5123,"count":36,"type":"SCALAR"},{"bufferView":22,"componentType":5126,"count":4,"type":"VEC3","min":[-0.5,-0.5,0],"max":[0.5,0.5,0]},{"bufferView":23,"componentType":5126,"count":4,"type":"VEC3"},{"bufferView":24,"componentType":5126,"count":4,"type":"VEC2"},{"bufferView":25,"componentType":5123,"count":6,"type":"SCALAR"},{"bufferView":26,"componentType":5126,"count":24,"type":"VEC3","min":[-0.5,-0.5,-0.5],"max":[0.5,0.5,0.5]},{"bufferView":27,"componentType":5126,"count":24,"type":"VEC2"},{"bufferView":28,"componentType":5126,"count":24,"type":"VEC2"},{"bufferView":29,"componentType":5126,"count":40,"type":"VEC3","min":[-0.8660253882408142,-0.5,-1],"max":[0.8660253882408142,0.5,1]},{"bufferView":30,"componentType":5126,"count":40,"type":"VEC3"},{"bufferView":31,"componentType":5126,"count":40,"type":"VEC2"},{"bufferView":32,"componentType":5123,"count":72,"type":"SCALAR"},{"bufferView":33,"componentType":5126,"count":24,"type":"VEC2"},{"bufferView":34,"componentType":5126,"count":40,"type":"VEC3","min":[-0.8660253882408142,-0.5,-1],"max":[0.8660253882408142,0.5,1]},{"bufferView":35,"componentType":5126,"count":40,"type":"VEC3"},{"bufferView":36,"componentType":5126,"count":40,"type":"VEC2"},{"bufferView":37,"componentType":5126,"count":24,"type":"VEC2"},{"bufferView":38,"componentType":5126,"count":24,"type":"VEC2"},{"bufferView":39,"componentType":5126,"count":40,"type":"VEC3","min":[-0.8660253882408142,-0.5,-1],"max":[0.8660253882408142,0.5,1]},{"bufferView":40,"componentType":5126,"count":40,"type":"VEC3"},{"bufferView":41,"componentType":5126,"count":40,"type":"VEC2"},{"bufferView":42,"componentType":5126,"count":40,"type":"VEC2"}],"extensionsUsed":["KHR_materials_unlit"],"extras":{"id":"vlt-aggregate-loader-08","family":"aggregate-loader","variant":7,"plan":"B3-1","units":"metres","up":"+Y","front":"+Z","lodScenes":[0,1,2]}}