{"asset":{"version":"2.0","generator":"SLOPMERICA Department of Unnecessary Development 1.0"},"scene":0,"scenes":[{"name":"LOD 0","nodes":[0,1,2,3,4,5,6,7,8,9,10,11,12,13,14,15,16,17,18,19,20,21,22,23,24,25,26,27],"extras":{"level":0}},{"name":"LOD 1","nodes":[28,29,30,31,32,33,34,35,36,37,38,39,40,41,42,43,44,45,46,47,48,49,50],"extras":{"level":1}},{"name":"LOD 2","nodes":[51,52,53,54,55,56,57,58,59,60,61,62,63,64],"extras":{"level":2}}],"nodes":[{"name":"foundation","mesh":0,"translation":[0,0.08,0],"scale":[16.6,0.16,9.92]},{"name":"store-shell","mesh":1,"translation":[0,2.08,0],"scale":[10.368,4.16,5.404]},{"name":"roof-cap","mesh":2,"translation":[0,4.27,0],"scale":[10.618,0.22,5.654]},{"name":"window-0","mesh":3,"translation":[-3.83616,1.65,2.757],"scale":[1.114839,1.45,0.09]},{"name":"window-1","mesh":3,"translation":[-2.301696,1.65,2.757],"scale":[1.114839,1.45,0.09]},{"name":"window-2","mesh":3,"translation":[-0.767232,1.65,2.757],"scale":[1.114839,1.45,0.09]},{"name":"window-3","mesh":3,"translation":[0.767232,1.65,2.757],"scale":[1.114839,1.45,0.09]},{"name":"window-4","mesh":3,"translation":[2.301696,1.65,2.757],"scale":[1.114839,1.45,0.09]},{"name":"window-5","mesh":3,"translation":[3.83616,1.65,2.757],"scale":[1.114839,1.45,0.09]},{"name":"door","mesh":4,"translation":[3.6288,1.025,2.772],"scale":[0.92,2.05,0.12]},{"name":"awning","mesh":5,"translation":[0,2.7456,3.182],"rotation":[-0.039989,0,0,0.9992],"scale":[8.50176,0.18,1.05]},{"name":"mullion-0","mesh":6,"translation":[-3.31776,1.65,2.822],"scale":[0.08,1.55,0.12]},{"name":"mullion-1","mesh":6,"translation":[-1.10592,1.65,2.822],"scale":[0.08,1.55,0.12]},{"name":"mullion-2","mesh":6,"translation":[1.10592,1.65,2.822],"scale":[0.08,1.55,0.12]},{"name":"mullion-3","mesh":6,"translation":[3.31776,1.65,2.822],"scale":[0.08,1.55,0.12]},{"name":"primary-sign-back","mesh":7,"translation":[0,3.2864,2.862],"scale":[6.52816,1.25,1]},{"name":"primary-sign","mesh":8,"translation":[0,3.2864,2.891],"scale":[6.42816,1.15,1]},{"name":"canopy","mesh":9,"translation":[0,2.9952,2.5476],"scale":[6.336,0.35,2.2]},{"name":"canopy-post-0","mesh":10,"translation":[-2.5344,1.4076,2.5476],"scale":[0.1,2.8152,0.1]},{"name":"canopy-post-1","mesh":10,"translation":[2.5344,1.4076,2.5476],"scale":[0.1,2.8152,0.1]},{"name":"order-menu","mesh":11,"translation":[7.2,1.15,-1.158],"scale":[1.15,1.55,0.16]},{"name":"drive-loop-rail","mesh":12,"translation":[0,0,0]},{"name":"busy-state-queue-bar","mesh":13,"translation":[0,0.65,4.8636],"scale":[10.368,0.12,0.12]},{"name":"queue-car-0","mesh":14,"translation":[-4.32,0.34,5.404],"scale":[1.35,0.65,0.7]},{"name":"queue-car-1","mesh":15,"translation":[-2.16,0.34,6.0216],"scale":[1.35,0.65,0.7]},{"name":"queue-car-2","mesh":14,"translation":[0,0.34,5.404],"scale":[1.35,0.65,0.7]},{"name":"queue-car-3","mesh":15,"translation":[2.16,0.34,6.0216],"scale":[1.35,0.65,0.7]},{"name":"queue-car-4","mesh":14,"translation":[4.32,0.34,5.404],"scale":[1.35,0.65,0.7]},{"name":"foundation","mesh":16,"translation":[0,0.08,0],"scale":[16.6,0.16,9.92]},{"name":"store-shell","mesh":17,"translation":[0,2.08,0],"scale":[10.368,4.16,5.404]},{"name":"roof-cap","mesh":18,"translation":[0,4.27,0],"scale":[10.618,0.22,5.654]},{"name":"window-0","mesh":19,"translation":[-3.83616,1.65,2.757],"scale":[2.229677,1.45,0.09]},{"name":"window-1","mesh":19,"translation":[0,1.65,2.757],"scale":[2.229677,1.45,0.09]},{"name":"window-2","mesh":19,"translation":[3.83616,1.65,2.757],"scale":[2.229677,1.45,0.09]},{"name":"door","mesh":20,"translation":[3.6288,1.025,2.772],"scale":[0.92,2.05,0.12]},{"name":"awning","mesh":21,"translation":[0,2.7456,3.182],"rotation":[-0.039989,0,0,0.9992],"scale":[8.50176,0.18,1.05]},{"name":"mullion-0","mesh":22,"translation":[-3.31776,1.65,2.822],"scale":[0.08,1.55,0.12]},{"name":"mullion-1","mesh":22,"translation":[-1.10592,1.65,2.822],"scale":[0.08,1.55,0.12]},{"name":"mullion-2","mesh":22,"translation":[1.10592,1.65,2.822],"scale":[0.08,1.55,0.12]},{"name":"mullion-3","mesh":22,"translation":[3.31776,1.65,2.822],"scale":[0.08,1.55,0.12]},{"name":"primary-sign-back","mesh":7,"translation":[0,3.2864,2.862],"scale":[6.52816,1.25,1]},{"name":"primary-sign","mesh":8,"translation":[0,3.2864,2.891],"scale":[6.42816,1.15,1]},{"name":"canopy","mesh":23,"translation":[0,2.9952,2.5476],"scale":[6.336,0.35,2.2]},{"name":"canopy-post-0","mesh":24,"translation":[-2.5344,1.4076,2.5476],"scale":[0.1,2.8152,0.1]},{"name":"canopy-post-1","mesh":24,"translation":[2.5344,1.4076,2.5476],"scale":[0.1,2.8152,0.1]},{"name":"order-menu","mesh":25,"translation":[7.2,1.15,-1.158],"scale":[1.15,1.55,0.16]},{"name":"drive-loop-rail","mesh":26,"translation":[0,0,0]},{"name":"busy-state-queue-bar","mesh":27,"translation":[0,0.65,4.8636],"scale":[10.368,0.12,0.12]},{"name":"queue-car-0","mesh":28,"translation":[-4.32,0.34,5.404],"scale":[1.35,0.65,0.7]},{"name":"queue-car-1","mesh":29,"translation":[-2.16,0.34,6.0216],"scale":[1.35,0.65,0.7]},{"name":"queue-car-2","mesh":28,"translation":[0,0.34,5.404],"scale":[1.35,0.65,0.7]},{"name":"foundation","mesh":16,"translation":[0,0.08,0],"scale":[16.6,0.16,9.92]},{"name":"store-shell","mesh":17,"translation":[0,2.08,0],"scale":[10.368,4.16,5.404]},{"name":"roof-cap","mesh":18,"translation":[0,4.27,0],"scale":[10.618,0.22,5.654]},{"name":"window-0","mesh":30,"translation":[0,1.65,2.757],"scale":[6.689032,1.45,0.09]},{"name":"door","mesh":20,"translation":[3.6288,1.025,2.772],"scale":[0.92,2.05,0.12]},{"name":"primary-sign-back","mesh":7,"translation":[0,3.2864,2.862],"scale":[6.52816,1.25,1]},{"name":"primary-sign","mesh":8,"translation":[0,3.2864,2.891],"scale":[6.42816,1.15,1]},{"name":"canopy","mesh":23,"translation":[0,2.9952,2.5476],"scale":[6.336,0.35,2.2]},{"name":"canopy-post-0","mesh":24,"translation":[-2.5344,1.4076,2.5476],"scale":[0.1,2.8152,0.1]},{"name":"canopy-post-1","mesh":24,"translation":[2.5344,1.4076,2.5476],"scale":[0.1,2.8152,0.1]},{"name":"order-menu","mesh":25,"translation":[7.2,1.15,-1.158],"scale":[1.15,1.55,0.16]},{"name":"drive-loop-rail","mesh":31,"translation":[0,0,0]},{"name":"busy-state-queue-bar","mesh":27,"translation":[0,0.65,4.8636],"scale":[10.368,0.12,0.12]},{"name":"queue-car-0","mesh":28,"translation":[-4.32,0.34,5.404],"scale":[1.35,0.65,0.7]}],"meshes":[{"primitives":[{"attributes":{"POSITION":0,"NORMAL":1,"TEXCOORD_0":2},"material":0,"mode":4}]},{"primitives":[{"attributes":{"POSITION":3,"NORMAL":1,"TEXCOORD_0":4},"material":1,"mode":4}]},{"primitives":[{"attributes":{"POSITION":0,"NORMAL":1,"TEXCOORD_0":5},"material":2,"mode":4}]},{"primitives":[{"attributes":{"POSITION":0,"NORMAL":1,"TEXCOORD_0":6},"material":3,"mode":4}]},{"primitives":[{"attributes":{"POSITION":0,"NORMAL":1,"TEXCOORD_0":7},"material":2,"mode":4}]},{"primitives":[{"attributes":{"POSITION":0,"NORMAL":1,"TEXCOORD_0":8},"material":4,"mode":4}]},{"primitives":[{"attributes":{"POSITION":0,"NORMAL":1,"TEXCOORD_0":9},"material":4,"mode":4}]},{"primitives":[{"attributes":{"POSITION":10,"NORMAL":11,"TEXCOORD_0":12},"material":2,"mode":4,"indices":13}]},{"primitives":[{"attributes":{"POSITION":14,"NORMAL":15,"TEXCOORD_0":16},"material":5,"mode":4,"indices":17}]},{"primitives":[{"attributes":{"POSITION":0,"NORMAL":1,"TEXCOORD_0":18},"material":4,"mode":4}]},{"primitives":[{"attributes":{"POSITION":19,"NORMAL":20,"TEXCOORD_0":21},"material":6,"mode":4,"indices":22}]},{"primitives":[{"attributes":{"POSITION":0,"NORMAL":1,"TEXCOORD_0":23},"material":2,"mode":4}]},{"primitives":[{"attributes":{"POSITION":24,"NORMAL":25,"TEXCOORD_0":26},"material":7,"mode":4,"indices":27}]},{"primitives":[{"attributes":{"POSITION":0,"NORMAL":1,"TEXCOORD_0":28},"material":4,"mode":4}]},{"primitives":[{"attributes":{"POSITION":0,"NORMAL":1,"TEXCOORD_0":29},"material":4,"mode":4}]},{"primitives":[{"attributes":{"POSITION":0,"NORMAL":1,"TEXCOORD_0":29},"material":8,"mode":4}]},{"primitives":[{"attributes":{"POSITION":30,"NORMAL":11,"TEXCOORD_0":31},"material":0,"mode":4,"indices":13}]},{"primitives":[{"attributes":{"POSITION":30,"NORMAL":11,"TEXCOORD_0":32},"material":1,"mode":4,"indices":13}]},{"primitives":[{"attributes":{"POSITION":30,"NORMAL":11,"TEXCOORD_0":33},"material":2,"mode":4,"indices":13}]},{"primitives":[{"attributes":{"POSITION":30,"NORMAL":11,"TEXCOORD_0":34},"material":3,"mode":4,"indices":13}]},{"primitives":[{"attributes":{"POSITION":30,"NORMAL":11,"TEXCOORD_0":35},"material":2,"mode":4,"indices":13}]},{"primitives":[{"attributes":{"POSITION":30,"NORMAL":11,"TEXCOORD_0":36},"material":4,"mode":4,"indices":13}]},{"primitives":[{"attributes":{"POSITION":30,"NORMAL":11,"TEXCOORD_0":37},"material":4,"mode":4,"indices":13}]},{"primitives":[{"attributes":{"POSITION":30,"NORMAL":11,"TEXCOORD_0":38},"material":4,"mode":4,"indices":13}]},{"primitives":[{"attributes":{"POSITION":39,"NORMAL":40,"TEXCOORD_0":41},"material":6,"mode":4,"indices":42}]},{"primitives":[{"attributes":{"POSITION":30,"NORMAL":11,"TEXCOORD_0":43},"material":2,"mode":4,"indices":13}]},{"primitives":[{"attributes":{"POSITION":44,"NORMAL":45,"TEXCOORD_0":46},"material":7,"mode":4,"indices":47}]},{"primitives":[{"attributes":{"POSITION":30,"NORMAL":11,"TEXCOORD_0":48},"material":4,"mode":4,"indices":13}]},{"primitives":[{"attributes":{"POSITION":30,"NORMAL":11,"TEXCOORD_0":49},"material":4,"mode":4,"indices":13}]},{"primitives":[{"attributes":{"POSITION":30,"NORMAL":11,"TEXCOORD_0":49},"material":8,"mode":4,"indices":13}]},{"primitives":[{"attributes":{"POSITION":30,"NORMAL":11,"TEXCOORD_0":50},"material":3,"mode":4,"indices":13}]},{"primitives":[{"attributes":{"POSITION":51,"NORMAL":52,"TEXCOORD_0":53},"material":7,"mode":4,"indices":54}]}],"materials":[{"name":"concrete","pbrMetallicRoughness":{"baseColorTexture":{"index":0},"metallicRoughnessTexture":{"index":2},"roughnessFactor":1,"metallicFactor":1},"normalTexture":{"index":1,"scale":0.82},"occlusionTexture":{"index":2,"strength":0.35}},{"name":"stucco-ivory","pbrMetallicRoughness":{"baseColorTexture":{"index":3},"metallicRoughnessTexture":{"index":5},"roughnessFactor":1,"metallicFactor":1},"normalTexture":{"index":4,"scale":0.5},"occlusionTexture":{"index":5,"strength":0.35}},{"name":"metal-dark","pbrMetallicRoughness":{"baseColorTexture":{"index":6},"metallicRoughnessTexture":{"index":8},"roughnessFactor":1,"metallicFactor":1},"normalTexture":{"index":7,"scale":0.35},"occlusionTexture":{"index":8,"strength":0.35}},{"name":"glass-blue","pbrMetallicRoughness":{"baseColorTexture":{"index":9},"metallicRoughnessTexture":{"index":11},"roughnessFactor":1,"metallicFactor":1},"normalTexture":{"index":10,"scale":0.12},"occlusionTexture":{"index":11,"strength":0.35}},{"name":"paint-red","pbrMetallicRoughness":{"baseColorFactor":[0.46778379610254284,0.08021982030622662,0.05126945836711539,1],"roughnessFactor":0.62,"metallicFactor":0.05}},{"name":"curb-crave signage","pbrMetallicRoughness":{"baseColorTexture":{"index":12},"roughnessFactor":1,"metallicFactor":0},"extensions":{"KHR_materials_unlit":{}}},{"name":"metal-galvanized","pbrMetallicRoughness":{"baseColorTexture":{"index":13},"metallicRoughnessTexture":{"index":15},"roughnessFactor":1,"metallicFactor":1},"normalTexture":{"index":14,"scale":0.15},"occlusionTexture":{"index":15,"strength":0.35}},{"name":"paint-yellow","pbrMetallicRoughness":{"baseColorFactor":[0.76052450467022,0.4793201830913402,0.07818742179702069,1],"roughnessFactor":0.66,"metallicFactor":0.03}},{"name":"paint-blue","pbrMetallicRoughness":{"baseColorFactor":[0.05126945836711539,0.10946171076915331,0.22696587349938613,1],"roughnessFactor":0.58,"metallicFactor":0.05}}],"textures":[{"source":0,"sampler":0},{"source":1,"sampler":0},{"source":2,"sampler":0},{"source":3,"sampler":0},{"source":4,"sampler":0},{"source":5,"sampler":0},{"source":6,"sampler":0},{"source":7,"sampler":0},{"source":8,"sampler":0},{"source":9,"sampler":0},{"source":10,"sampler":0},{"source":11,"sampler":0},{"source":12,"sampler":0},{"source":13,"sampler":0},{"source":14,"sampler":0},{"source":15,"sampler":0}],"images":[{"uri":"../textures/concrete-albedo.png"},{"uri":"../textures/concrete-normal.png"},{"uri":"../textures/concrete-orm.png"},{"uri":"../textures/stucco-ivory-albedo.png"},{"uri":"../textures/stucco-ivory-normal.png"},{"uri":"../textures/stucco-ivory-orm.png"},{"uri":"../textures/metal-dark-albedo.png"},{"uri":"../textures/metal-dark-normal.png"},{"uri":"../textures/metal-dark-orm.png"},{"uri":"../textures/glass-blue-albedo.png"},{"uri":"../textures/glass-blue-normal.png"},{"uri":"../textures/glass-blue-orm.png"},{"uri":"../signs/curb-crave.png"},{"uri":"../textures/metal-galvanized-albedo.png"},{"uri":"../textures/metal-galvanized-normal.png"},{"uri":"../textures/metal-galvanized-orm.png"}],"samplers":[{"magFilter":9729,"minFilter":9987,"wrapS":10497,"wrapT":10497}],"buffers":[{"uri":"../shared/geometry.bin","byteLength":16435520}],"bufferViews":[{"buffer":0,"byteOffset":0,"byteLength":3888,"target":34962},{"buffer":0,"byteOffset":3888,"byteLength":3888,"target":34962},{"buffer":0,"byteOffset":3635216,"byteLength":2592,"target":34962},{"buffer":0,"byteOffset":868536,"byteLength":3888,"target":34962},{"buffer":0,"byteOffset":3637808,"byteLength":2592,"target":34962},{"buffer":0,"byteOffset":3640400,"byteLength":2592,"target":34962},{"buffer":0,"byteOffset":3578200,"byteLength":2592,"target":34962},{"buffer":0,"byteOffset":1428216,"byteLength":2592,"target":34962},{"buffer":0,"byteOffset":3580792,"byteLength":2592,"target":34962},{"buffer":0,"byteOffset":1433400,"byteLength":2592,"target":34962},{"buffer":0,"byteOffset":45664,"byteLength":288,"target":34962},{"buffer":0,"byteOffset":45952,"byteLength":288,"target":34962},{"buffer":0,"byteOffset":46240,"byteLength":192,"target":34962},{"buffer":0,"byteOffset":46432,"byteLength":72,"target":34963},{"buffer":0,"byteOffset":46504,"byteLength":48,"target":34962},{"buffer":0,"byteOffset":46552,"byteLength":48,"target":34962},{"buffer":0,"byteOffset":222660,"byteLength":32,"target":34962},{"buffer":0,"byteOffset":46632,"byteLength":12,"target":34963},{"buffer":0,"byteOffset":3583384,"byteLength":2592,"target":34962},{"buffer":0,"byteOffset":1110072,"byteLength":624,"target":34962},{"buffer":0,"byteOffset":1110696,"byteLength":624,"target":34962},{"buffer":0,"byteOffset":3585976,"byteLength":416,"target":34962},{"buffer":0,"byteOffset":1111736,"byteLength":192,"target":34963},{"buffer":0,"byteOffset":3501620,"byteLength":2592,"target":34962},{"buffer":0,"byteOffset":3642992,"byteLength":1404,"target":34962},{"buffer":0,"byteOffset":3599528,"byteLength":1404,"target":34962},{"buffer":0,"byteOffset":2085772,"byteLength":936,"target":34962},{"buffer":0,"byteOffset":2086708,"byteLength":1152,"target":34963},{"buffer":0,"byteOffset":1917116,"byteLength":2592,"target":34962},{"buffer":0,"byteOffset":582912,"byteLength":2592,"target":34962},{"buffer":0,"byteOffset":46644,"byteLength":288,"target":34962},{"buffer":0,"byteOffset":3644396,"byteLength":192,"target":34962},{"buffer":0,"byteOffset":3644588,"byteLength":192,"target":34962},{"buffer":0,"byteOffset":3644780,"byteLength":192,"target":34962},{"buffer":0,"byteOffset":3588372,"byteLength":192,"target":34962},{"buffer":0,"byteOffset":1447128,"byteLength":192,"target":34962},{"buffer":0,"byteOffset":3588564,"byteLength":192,"target":34962},{"buffer":0,"byteOffset":1447512,"byteLength":192,"target":34962},{"buffer":0,"byteOffset":3588756,"byteLength":192,"target":34962},{"buffer":0,"byteOffset":1112312,"byteLength":480,"target":34962},{"buffer":0,"byteOffset":1112792,"byteLength":480,"target":34962},{"buffer":0,"byteOffset":3588948,"byteLength":320,"target":34962},{"buffer":0,"byteOffset":48596,"byteLength":144,"target":34963},{"buffer":0,"byteOffset":3508492,"byteLength":192,"target":34962},{"buffer":0,"byteOffset":3644972,"byteLength":588,"target":34962},{"buffer":0,"byteOffset":3602096,"byteLength":588,"target":34962},{"buffer":0,"byteOffset":2096012,"byteLength":392,"target":34962},{"buffer":0,"byteOffset":2096404,"byteLength":432,"target":34963},{"buffer":0,"byteOffset":1919708,"byteLength":192,"target":34962},{"buffer":0,"byteOffset":585696,"byteLength":192,"target":34962},{"buffer":0,"byteOffset":3589856,"byteLength":192,"target":34962},{"buffer":0,"byteOffset":3645560,"byteLength":300,"target":34962},{"buffer":0,"byteOffset":3602984,"byteLength":300,"target":34962},{"buffer":0,"byteOffset":2100356,"byteLength":200,"target":34962},{"buffer":0,"byteOffset":440168,"byteLength":192,"target":34963}],"accessors":[{"bufferView":0,"componentType":5126,"count":324,"type":"VEC3","min":[-0.5,-0.5,-0.5],"max":[0.5,0.5,0.5]},{"bufferView":1,"componentType":5126,"count":324,"type":"VEC3"},{"bufferView":2,"componentType":5126,"count":324,"type":"VEC2"},{"bufferView":3,"componentType":5126,"count":324,"type":"VEC3","min":[-0.5,-0.5,-0.5],"max":[0.5,0.5,0.5]},{"bufferView":4,"componentType":5126,"count":324,"type":"VEC2"},{"bufferView":5,"componentType":5126,"count":324,"type":"VEC2"},{"bufferView":6,"componentType":5126,"count":324,"type":"VEC2"},{"bufferView":7,"componentType":5126,"count":324,"type":"VEC2"},{"bufferView":8,"componentType":5126,"count":324,"type":"VEC2"},{"bufferView":9,"componentType":5126,"count":324,"type":"VEC2"},{"bufferView":10,"componentType":5126,"count":24,"type":"VEC3","min":[-0.5,-0.5,-0.02500000037252903],"max":[0.5,0.5,0.02500000037252903]},{"bufferView":11,"componentType":5126,"count":24,"type":"VEC3"},{"bufferView":12,"componentType":5126,"count":24,"type":"VEC2"},{"bufferView":13,"componentType":5123,"count":36,"type":"SCALAR"},{"bufferView":14,"componentType":5126,"count":4,"type":"VEC3","min":[-0.5,-0.5,0],"max":[0.5,0.5,0]},{"bufferView":15,"componentType":5126,"count":4,"type":"VEC3"},{"bufferView":16,"componentType":5126,"count":4,"type":"VEC2"},{"bufferView":17,"componentType":5123,"count":6,"type":"SCALAR"},{"bufferView":18,"componentType":5126,"count":324,"type":"VEC2"},{"bufferView":19,"componentType":5126,"count":52,"type":"VEC3","min":[-1,-0.5,-1],"max":[1,0.5,1]},{"bufferView":20,"componentType":5126,"count":52,"type":"VEC3"},{"bufferView":21,"componentType":5126,"count":52,"type":"VEC2"},{"bufferView":22,"componentType":5123,"count":96,"type":"SCALAR"},{"bufferView":23,"componentType":5126,"count":324,"type":"VEC2"},{"bufferView":24,"componentType":5126,"count":117,"type":"VEC3","min":[7.126556396484375,0.27000001072883606,-3.2778069972991943],"max":[8.873699188232422,0.4300000071525574,3.7373178005218506]},{"bufferView":25,"componentType":5126,"count":117,"type":"VEC3"},{"bufferView":26,"componentType":5126,"count":117,"type":"VEC2"},{"bufferView":27,"componentType":5123,"count":576,"type":"SCALAR"},{"bufferView":28,"componentType":5126,"count":324,"type":"VEC2"},{"bufferView":29,"componentType":5126,"count":324,"type":"VEC2"},{"bufferView":30,"componentType":5126,"count":24,"type":"VEC3","min":[-0.5,-0.5,-0.5],"max":[0.5,0.5,0.5]},{"bufferView":31,"componentType":5126,"count":24,"type":"VEC2"},{"bufferView":32,"componentType":5126,"count":24,"type":"VEC2"},{"bufferView":33,"componentType":5126,"count":24,"type":"VEC2"},{"bufferView":34,"componentType":5126,"count":24,"type":"VEC2"},{"bufferView":35,"componentType":5126,"count":24,"type":"VEC2"},{"bufferView":36,"componentType":5126,"count":24,"type":"VEC2"},{"bufferView":37,"componentType":5126,"count":24,"type":"VEC2"},{"bufferView":38,"componentType":5126,"count":24,"type":"VEC2"},{"bufferView":39,"componentType":5126,"count":40,"type":"VEC3","min":[-0.8660253882408142,-0.5,-1],"max":[0.8660253882408142,0.5,1]},{"bufferView":40,"componentType":5126,"count":40,"type":"VEC3"},{"bufferView":41,"componentType":5126,"count":40,"type":"VEC2"},{"bufferView":42,"componentType":5123,"count":72,"type":"SCALAR"},{"bufferView":43,"componentType":5126,"count":24,"type":"VEC2"},{"bufferView":44,"componentType":5126,"count":49,"type":"VEC3","min":[7.1363959312438965,0.27000001072883606,-3.2730634212493896],"max":[8.863016128540039,0.4300000071525574,3.7330684661865234]},{"bufferView":45,"componentType":5126,"count":49,"type":"VEC3"},{"bufferView":46,"componentType":5126,"count":49,"type":"VEC2"},{"bufferView":47,"componentType":5123,"count":216,"type":"SCALAR"},{"bufferView":48,"componentType":5126,"count":24,"type":"VEC2"},{"bufferView":49,"componentType":5126,"count":24,"type":"VEC2"},{"bufferView":50,"componentType":5126,"count":24,"type":"VEC2"},{"bufferView":51,"componentType":5126,"count":25,"type":"VEC3","min":[7.126556396484375,0.27000001072883606,-3.2778069972991943],"max":[8.873699188232422,0.4300000071525574,3.7373178005218506]},{"bufferView":52,"componentType":5126,"count":25,"type":"VEC3"},{"bufferView":53,"componentType":5126,"count":25,"type":"VEC2"},{"bufferView":54,"componentType":5123,"count":96,"type":"SCALAR"}],"extensionsUsed":["KHR_materials_unlit"],"extras":{"id":"vlt-curb-crave-30","family":"curb-crave","variant":29,"plan":"B5-2","units":"metres","up":"+Y","front":"+Z","lodScenes":[0,1,2]}}