{"asset":{"version":"2.0","generator":"SLOPMERICA Department of Unnecessary Development 1.0"},"scene":0,"scenes":[{"name":"LOD 0","nodes":[0,1,2,3,4,5,6,7,8,9,10,11,12,13,14,15,16,17,18,19],"extras":{"level":0}},{"name":"LOD 1","nodes":[20,21,22,23,24,25,26,27,28,29,30,31,32,33],"extras":{"level":1}},{"name":"LOD 2","nodes":[34,35,36,37,38,39,40,41,42,43],"extras":{"level":2}}],"nodes":[{"name":"foundation","mesh":0,"translation":[0,0.08,0],"scale":[28.2,0.16,19.57]},{"name":"big-box","mesh":1,"translation":[0,4.16,0],"scale":[26,8.32,17.37]},{"name":"giant-brow","mesh":2,"translation":[0,5.6576,9.145],"rotation":[-0.059964,0,0,0.998201],"scale":[15.08,0.55,1.15]},{"name":"mouth-entry","mesh":3,"translation":[0,1.9968,8.785],"scale":[10.92,3.744,0.18]},{"name":"entry-tooth-0","mesh":4,"translation":[-4.68,3.9104,8.905],"rotation":[1,0,0,0],"scale":[0.22,0.65,0.22]},{"name":"entry-tooth-1","mesh":4,"translation":[-3.51,3.9104,8.905],"rotation":[1,0,0,0],"scale":[0.22,0.65,0.22]},{"name":"entry-tooth-2","mesh":4,"translation":[-2.34,3.9104,8.905],"rotation":[1,0,0,0],"scale":[0.22,0.65,0.22]},{"name":"entry-tooth-3","mesh":4,"translation":[-1.17,3.9104,8.905],"rotation":[1,0,0,0],"scale":[0.22,0.65,0.22]},{"name":"entry-tooth-4","mesh":4,"translation":[0,3.9104,8.905],"rotation":[1,0,0,0],"scale":[0.22,0.65,0.22]},{"name":"entry-tooth-5","mesh":4,"translation":[1.17,3.9104,8.905],"rotation":[1,0,0,0],"scale":[0.22,0.65,0.22]},{"name":"entry-tooth-6","mesh":4,"translation":[2.34,3.9104,8.905],"rotation":[1,0,0,0],"scale":[0.22,0.65,0.22]},{"name":"entry-tooth-7","mesh":4,"translation":[3.51,3.9104,8.905],"rotation":[1,0,0,0],"scale":[0.22,0.65,0.22]},{"name":"entry-tooth-8","mesh":4,"translation":[4.68,3.9104,8.905],"rotation":[1,0,0,0],"scale":[0.22,0.65,0.22]},{"name":"layout-annex","mesh":5,"translation":[12.2,2.1632,-2.7792],"scale":[2.75,4.3264,7.9902]},{"name":"busy-state-queue-bar","mesh":6,"translation":[0,0.65,10.9431],"scale":[18.72,0.12,0.12]},{"name":"queue-car-0","mesh":7,"translation":[-7.8,0.34,12.159],"scale":[1.35,0.65,0.7]},{"name":"queue-car-1","mesh":8,"translation":[-3.9,0.34,13.5486],"scale":[1.35,0.65,0.7]},{"name":"queue-car-2","mesh":7,"translation":[0,0.34,12.159],"scale":[1.35,0.65,0.7]},{"name":"queue-car-3","mesh":8,"translation":[3.9,0.34,13.5486],"scale":[1.35,0.65,0.7]},{"name":"queue-car-4","mesh":7,"translation":[7.8,0.34,12.159],"scale":[1.35,0.65,0.7]},{"name":"foundation","mesh":9,"translation":[0,0.08,0],"scale":[28.2,0.16,19.57]},{"name":"big-box","mesh":10,"translation":[0,4.16,0],"scale":[26,8.32,17.37]},{"name":"giant-brow","mesh":11,"translation":[0,5.6576,9.145],"rotation":[-0.059964,0,0,0.998201],"scale":[15.08,0.55,1.15]},{"name":"mouth-entry","mesh":12,"translation":[0,1.9968,8.785],"scale":[10.92,3.744,0.18]},{"name":"entry-tooth-0","mesh":4,"translation":[-4.68,3.9104,8.905],"rotation":[1,0,0,0],"scale":[0.22,0.65,0.22]},{"name":"entry-tooth-1","mesh":4,"translation":[-2.34,3.9104,8.905],"rotation":[1,0,0,0],"scale":[0.22,0.65,0.22]},{"name":"entry-tooth-2","mesh":4,"translation":[0,3.9104,8.905],"rotation":[1,0,0,0],"scale":[0.22,0.65,0.22]},{"name":"entry-tooth-3","mesh":4,"translation":[2.34,3.9104,8.905],"rotation":[1,0,0,0],"scale":[0.22,0.65,0.22]},{"name":"entry-tooth-4","mesh":4,"translation":[4.68,3.9104,8.905],"rotation":[1,0,0,0],"scale":[0.22,0.65,0.22]},{"name":"layout-annex","mesh":13,"translation":[12.2,2.1632,-2.7792],"scale":[2.75,4.3264,7.9902]},{"name":"busy-state-queue-bar","mesh":14,"translation":[0,0.65,10.9431],"scale":[18.72,0.12,0.12]},{"name":"queue-car-0","mesh":15,"translation":[-7.8,0.34,12.159],"scale":[1.35,0.65,0.7]},{"name":"queue-car-1","mesh":16,"translation":[-3.9,0.34,13.5486],"scale":[1.35,0.65,0.7]},{"name":"queue-car-2","mesh":15,"translation":[0,0.34,12.159],"scale":[1.35,0.65,0.7]},{"name":"foundation","mesh":9,"translation":[0,0.08,0],"scale":[28.2,0.16,19.57]},{"name":"big-box","mesh":10,"translation":[0,4.16,0],"scale":[26,8.32,17.37]},{"name":"giant-brow","mesh":11,"translation":[0,5.6576,9.145],"rotation":[-0.059964,0,0,0.998201],"scale":[15.08,0.55,1.15]},{"name":"mouth-entry","mesh":12,"translation":[0,1.9968,8.785],"scale":[10.92,3.744,0.18]},{"name":"entry-tooth-0","mesh":4,"translation":[-4.68,3.9104,8.905],"rotation":[1,0,0,0],"scale":[0.22,0.65,0.22]},{"name":"entry-tooth-1","mesh":4,"translation":[0,3.9104,8.905],"rotation":[1,0,0,0],"scale":[0.22,0.65,0.22]},{"name":"entry-tooth-2","mesh":4,"translation":[4.68,3.9104,8.905],"rotation":[1,0,0,0],"scale":[0.22,0.65,0.22]},{"name":"layout-annex","mesh":13,"translation":[12.2,2.1632,-2.7792],"scale":[2.75,4.3264,7.9902]},{"name":"busy-state-queue-bar","mesh":14,"translation":[0,0.65,10.9431],"scale":[18.72,0.12,0.12]},{"name":"queue-car-0","mesh":15,"translation":[-7.8,0.34,12.159],"scale":[1.35,0.65,0.7]}],"meshes":[{"primitives":[{"attributes":{"POSITION":0,"NORMAL":1,"TEXCOORD_0":2},"material":0,"mode":4}]},{"primitives":[{"attributes":{"POSITION":3,"NORMAL":1,"TEXCOORD_0":4},"material":1,"mode":4}]},{"primitives":[{"attributes":{"POSITION":0,"NORMAL":1,"TEXCOORD_0":5},"material":2,"mode":4}]},{"primitives":[{"attributes":{"POSITION":0,"NORMAL":1,"TEXCOORD_0":6},"material":3,"mode":4}]},{"primitives":[{"attributes":{"POSITION":7,"NORMAL":8,"TEXCOORD_0":9},"material":4,"mode":4,"indices":10}]},{"primitives":[{"attributes":{"POSITION":11,"NORMAL":1,"TEXCOORD_0":12},"material":5,"mode":4}]},{"primitives":[{"attributes":{"POSITION":0,"NORMAL":1,"TEXCOORD_0":13},"material":2,"mode":4}]},{"primitives":[{"attributes":{"POSITION":0,"NORMAL":1,"TEXCOORD_0":14},"material":2,"mode":4}]},{"primitives":[{"attributes":{"POSITION":0,"NORMAL":1,"TEXCOORD_0":14},"material":6,"mode":4}]},{"primitives":[{"attributes":{"POSITION":15,"NORMAL":16,"TEXCOORD_0":17},"material":0,"mode":4,"indices":18}]},{"primitives":[{"attributes":{"POSITION":15,"NORMAL":16,"TEXCOORD_0":19},"material":1,"mode":4,"indices":18}]},{"primitives":[{"attributes":{"POSITION":15,"NORMAL":16,"TEXCOORD_0":20},"material":2,"mode":4,"indices":18}]},{"primitives":[{"attributes":{"POSITION":15,"NORMAL":16,"TEXCOORD_0":21},"material":3,"mode":4,"indices":18}]},{"primitives":[{"attributes":{"POSITION":15,"NORMAL":16,"TEXCOORD_0":22},"material":5,"mode":4,"indices":18}]},{"primitives":[{"attributes":{"POSITION":15,"NORMAL":16,"TEXCOORD_0":23},"material":2,"mode":4,"indices":18}]},{"primitives":[{"attributes":{"POSITION":15,"NORMAL":16,"TEXCOORD_0":24},"material":2,"mode":4,"indices":18}]},{"primitives":[{"attributes":{"POSITION":15,"NORMAL":16,"TEXCOORD_0":24},"material":6,"mode":4,"indices":18}]}],"materials":[{"name":"concrete","pbrMetallicRoughness":{"baseColorTexture":{"index":0},"metallicRoughnessTexture":{"index":2},"roughnessFactor":1,"metallicFactor":1},"normalTexture":{"index":1,"scale":0.82},"occlusionTexture":{"index":2,"strength":0.35}},{"name":"stucco-ivory","pbrMetallicRoughness":{"baseColorTexture":{"index":3},"metallicRoughnessTexture":{"index":5},"roughnessFactor":1,"metallicFactor":1},"normalTexture":{"index":4,"scale":0.5},"occlusionTexture":{"index":5,"strength":0.35}},{"name":"paint-red","pbrMetallicRoughness":{"baseColorFactor":[0.46778379610254284,0.08021982030622662,0.05126945836711539,1],"roughnessFactor":0.62,"metallicFactor":0.05}},{"name":"glass-blue","pbrMetallicRoughness":{"baseColorTexture":{"index":6},"metallicRoughnessTexture":{"index":8},"roughnessFactor":1,"metallicFactor":1},"normalTexture":{"index":7,"scale":0.12},"occlusionTexture":{"index":8,"strength":0.35}},{"name":"paint-white","pbrMetallicRoughness":{"baseColorFactor":[0.7912979403281551,0.7681511472425809,0.6795424696265424,1],"roughnessFactor":0.68,"metallicFactor":0}},{"name":"metal-galvanized","pbrMetallicRoughness":{"baseColorTexture":{"index":9},"metallicRoughnessTexture":{"index":11},"roughnessFactor":1,"metallicFactor":1},"normalTexture":{"index":10,"scale":0.15},"occlusionTexture":{"index":11,"strength":0.35}},{"name":"paint-blue","pbrMetallicRoughness":{"baseColorFactor":[0.05126945836711539,0.10946171076915331,0.22696587349938613,1],"roughnessFactor":0.58,"metallicFactor":0.05}}],"textures":[{"source":0,"sampler":0},{"source":1,"sampler":0},{"source":2,"sampler":0},{"source":3,"sampler":0},{"source":4,"sampler":0},{"source":5,"sampler":0},{"source":6,"sampler":0},{"source":7,"sampler":0},{"source":8,"sampler":0},{"source":9,"sampler":0},{"source":10,"sampler":0},{"source":11,"sampler":0}],"images":[{"uri":"../textures/concrete-albedo.png"},{"uri":"../textures/concrete-normal.png"},{"uri":"../textures/concrete-orm.png"},{"uri":"../textures/stucco-ivory-albedo.png"},{"uri":"../textures/stucco-ivory-normal.png"},{"uri":"../textures/stucco-ivory-orm.png"},{"uri":"../textures/glass-blue-albedo.png"},{"uri":"../textures/glass-blue-normal.png"},{"uri":"../textures/glass-blue-orm.png"},{"uri":"../textures/metal-galvanized-albedo.png"},{"uri":"../textures/metal-galvanized-normal.png"},{"uri":"../textures/metal-galvanized-orm.png"}],"samplers":[{"magFilter":9729,"minFilter":9987,"wrapS":10497,"wrapT":10497}],"buffers":[{"uri":"../shared/geometry.bin","byteLength":16435520}],"bufferViews":[{"buffer":0,"byteOffset":0,"byteLength":3888,"target":34962},{"buffer":0,"byteOffset":3888,"byteLength":3888,"target":34962},{"buffer":0,"byteOffset":761832,"byteLength":2592,"target":34962},{"buffer":0,"byteOffset":19136,"byteLength":3888,"target":34962},{"buffer":0,"byteOffset":775752,"byteLength":2592,"target":34962},{"buffer":0,"byteOffset":719688,"byteLength":2592,"target":34962},{"buffer":0,"byteOffset":739368,"byteLength":2592,"target":34962},{"buffer":0,"byteOffset":692208,"byteLength":324,"target":34962},{"buffer":0,"byteOffset":692532,"byteLength":324,"target":34962},{"buffer":0,"byteOffset":692856,"byteLength":216,"target":34962},{"buffer":0,"byteOffset":693072,"byteLength":72,"target":34963},{"buffer":0,"byteOffset":378372,"byteLength":3888,"target":34962},{"buffer":0,"byteOffset":778344,"byteLength":2592,"target":34962},{"buffer":0,"byteOffset":863160,"byteLength":2592,"target":34962},{"buffer":0,"byteOffset":582912,"byteLength":2592,"target":34962},{"buffer":0,"byteOffset":46644,"byteLength":288,"target":34962},{"buffer":0,"byteOffset":45952,"byteLength":288,"target":34962},{"buffer":0,"byteOffset":769608,"byteLength":192,"target":34962},{"buffer":0,"byteOffset":46432,"byteLength":72,"target":34963},{"buffer":0,"byteOffset":780936,"byteLength":192,"target":34962},{"buffer":0,"byteOffset":727848,"byteLength":192,"target":34962},{"buffer":0,"byteOffset":744744,"byteLength":192,"target":34962},{"buffer":0,"byteOffset":781128,"byteLength":192,"target":34962},{"buffer":0,"byteOffset":865752,"byteLength":192,"target":34962},{"buffer":0,"byteOffset":585696,"byteLength":192,"target":34962}],"accessors":[{"bufferView":0,"componentType":5126,"count":324,"type":"VEC3","min":[-0.5,-0.5,-0.5],"max":[0.5,0.5,0.5]},{"bufferView":1,"componentType":5126,"count":324,"type":"VEC3"},{"bufferView":2,"componentType":5126,"count":324,"type":"VEC2"},{"bufferView":3,"componentType":5126,"count":324,"type":"VEC3","min":[-0.5,-0.5,-0.5],"max":[0.5,0.5,0.5]},{"bufferView":4,"componentType":5126,"count":324,"type":"VEC2"},{"bufferView":5,"componentType":5126,"count":324,"type":"VEC2"},{"bufferView":6,"componentType":5126,"count":324,"type":"VEC2"},{"bufferView":7,"componentType":5126,"count":27,"type":"VEC3","min":[-0.8660253882408142,-0.5,-1],"max":[0.8660253882408142,0.5,1]},{"bufferView":8,"componentType":5126,"count":27,"type":"VEC3"},{"bufferView":9,"componentType":5126,"count":27,"type":"VEC2"},{"bufferView":10,"componentType":5123,"count":36,"type":"SCALAR"},{"bufferView":11,"componentType":5126,"count":324,"type":"VEC3","min":[-0.5,-0.5,-0.5],"max":[0.5,0.5,0.5]},{"bufferView":12,"componentType":5126,"count":324,"type":"VEC2"},{"bufferView":13,"componentType":5126,"count":324,"type":"VEC2"},{"bufferView":14,"componentType":5126,"count":324,"type":"VEC2"},{"bufferView":15,"componentType":5126,"count":24,"type":"VEC3","min":[-0.5,-0.5,-0.5],"max":[0.5,0.5,0.5]},{"bufferView":16,"componentType":5126,"count":24,"type":"VEC3"},{"bufferView":17,"componentType":5126,"count":24,"type":"VEC2"},{"bufferView":18,"componentType":5123,"count":36,"type":"SCALAR"},{"bufferView":19,"componentType":5126,"count":24,"type":"VEC2"},{"bufferView":20,"componentType":5126,"count":24,"type":"VEC2"},{"bufferView":21,"componentType":5126,"count":24,"type":"VEC2"},{"bufferView":22,"componentType":5126,"count":24,"type":"VEC2"},{"bufferView":23,"componentType":5126,"count":24,"type":"VEC2"},{"bufferView":24,"componentType":5126,"count":24,"type":"VEC2"}],"extensionsUsed":["KHR_materials_unlit"],"extras":{"id":"vlt-boxzilla-bargains-30","family":"boxzilla-bargains","variant":29,"plan":"B5-2","units":"metres","up":"+Y","front":"+Z","lodScenes":[0,1,2]}}