{"asset":{"version":"2.0","generator":"SLOPMERICA Department of Unnecessary Development 1.0"},"scene":0,"scenes":[{"name":"LOD 0","nodes":[0,1,2,3,4,5,6,7,8,9,10,11,12,13,14,15,16,17,18,19,20,21,22],"extras":{"level":0}},{"name":"LOD 1","nodes":[23,24,25,26,27,28,29,30,31,32,33,34,35,36,37,38,39,40,41],"extras":{"level":1}},{"name":"LOD 2","nodes":[42,43,44,45,46,47,48,49,50,51,52,53,54,55],"extras":{"level":2}}],"nodes":[{"name":"foundation","mesh":0,"translation":[0,0.08,0],"scale":[11.88,0.16,11.695]},{"name":"store-shell","mesh":1,"translation":[0,2.35,0],"scale":[9.68,4.7,9.495]},{"name":"roof-cap","mesh":2,"translation":[0,4.81,0],"scale":[9.93,0.22,9.745]},{"name":"window-0","mesh":3,"translation":[-3.5816,1.65,4.8025],"scale":[2.08172,1.45,0.09]},{"name":"window-1","mesh":3,"translation":[0,1.65,4.8025],"scale":[2.08172,1.45,0.09]},{"name":"window-2","mesh":3,"translation":[3.5816,1.65,4.8025],"scale":[2.08172,1.45,0.09]},{"name":"door","mesh":4,"translation":[3.388,1.025,4.8175],"scale":[0.92,2.05,0.12]},{"name":"awning","mesh":5,"translation":[0,3.102,5.2275],"rotation":[-0.039989,0,0,0.9992],"scale":[7.9376,0.18,1.05]},{"name":"mullion-0","mesh":6,"translation":[-3.0976,1.65,4.8675],"scale":[0.08,1.55,0.12]},{"name":"mullion-1","mesh":6,"translation":[3.0976,1.65,4.8675],"scale":[0.08,1.55,0.12]},{"name":"primary-sign-back","mesh":7,"translation":[0,3.713,4.9075],"scale":[6.1016,1.25,1]},{"name":"primary-sign","mesh":8,"translation":[0,3.713,4.9365],"scale":[6.0016,1.15,1]},{"name":"vault-door","mesh":9,"translation":[0,1.974,4.9275],"rotation":[0.707107,0,0,0.707107],"scale":[1.55,0.25,1.55]},{"name":"apr-ring","mesh":10,"translation":[2.904,5.264,0]},{"name":"percent-tick-0","mesh":11,"translation":[4.554,5.264,0.12],"scale":[0.18,0.65,0.18]},{"name":"percent-tick-1","mesh":11,"translation":[3.795499,6.652427,0.12],"rotation":[0,0,0.380188,0.924909],"scale":[0.18,0.65,0.18]},{"name":"percent-tick-2","mesh":11,"translation":[2.217358,6.764341,0.12],"rotation":[0,0,0.703279,0.710914],"scale":[0.18,0.65,0.18]},{"name":"percent-tick-3","mesh":11,"translation":[1.270512,5.496848,0.12],"rotation":[0,0,0.920751,0.390152],"scale":[0.18,0.65,0.18]},{"name":"percent-tick-4","mesh":11,"translation":[1.825488,4.015276,0.12],"rotation":[0,0,0.999942,0.010796],"scale":[0.18,0.65,0.18]},{"name":"percent-tick-5","mesh":11,"translation":[3.372043,3.681775,0.12],"rotation":[0,0,0.92896,-0.370181],"scale":[0.18,0.65,0.18]},{"name":"percent-tick-6","mesh":11,"translation":[4.488281,4.802964,0.12],"rotation":[0,0,-0.718465,0.695563],"scale":[0.18,0.65,0.18]},{"name":"percent-tick-7","mesh":11,"translation":[4.147939,6.348028,0.12],"rotation":[0,0,-0.400069,0.916485],"scale":[0.18,0.65,0.18]},{"name":"open-state-bollard","mesh":12,"translation":[4.1624,0.425,5.3172],"scale":[0.22,0.85,0.22]},{"name":"foundation","mesh":13,"translation":[0,0.08,0],"scale":[11.88,0.16,11.695]},{"name":"store-shell","mesh":14,"translation":[0,2.35,0],"scale":[9.68,4.7,9.495]},{"name":"roof-cap","mesh":15,"translation":[0,4.81,0],"scale":[9.93,0.22,9.745]},{"name":"window-0","mesh":16,"translation":[-3.5816,1.65,4.8025],"scale":[2.08172,1.45,0.09]},{"name":"window-1","mesh":16,"translation":[0,1.65,4.8025],"scale":[2.08172,1.45,0.09]},{"name":"window-2","mesh":16,"translation":[3.5816,1.65,4.8025],"scale":[2.08172,1.45,0.09]},{"name":"door","mesh":17,"translation":[3.388,1.025,4.8175],"scale":[0.92,2.05,0.12]},{"name":"awning","mesh":18,"translation":[0,3.102,5.2275],"rotation":[-0.039989,0,0,0.9992],"scale":[7.9376,0.18,1.05]},{"name":"mullion-0","mesh":19,"translation":[-3.0976,1.65,4.8675],"scale":[0.08,1.55,0.12]},{"name":"mullion-1","mesh":19,"translation":[3.0976,1.65,4.8675],"scale":[0.08,1.55,0.12]},{"name":"primary-sign-back","mesh":7,"translation":[0,3.713,4.9075],"scale":[6.1016,1.25,1]},{"name":"primary-sign","mesh":8,"translation":[0,3.713,4.9365],"scale":[6.0016,1.15,1]},{"name":"vault-door","mesh":20,"translation":[0,1.974,4.9275],"rotation":[0.707107,0,0,0.707107],"scale":[1.55,0.25,1.55]},{"name":"apr-ring","mesh":21,"translation":[2.904,5.264,0]},{"name":"percent-tick-0","mesh":22,"translation":[4.554,5.264,0.12],"scale":[0.18,0.65,0.18]},{"name":"percent-tick-1","mesh":22,"translation":[3.795499,6.652427,0.12],"rotation":[0,0,0.380188,0.924909],"scale":[0.18,0.65,0.18]},{"name":"percent-tick-2","mesh":22,"translation":[2.217358,6.764341,0.12],"rotation":[0,0,0.703279,0.710914],"scale":[0.18,0.65,0.18]},{"name":"percent-tick-3","mesh":22,"translation":[1.270512,5.496848,0.12],"rotation":[0,0,0.920751,0.390152],"scale":[0.18,0.65,0.18]},{"name":"open-state-bollard","mesh":23,"translation":[4.1624,0.425,5.3172],"scale":[0.22,0.85,0.22]},{"name":"foundation","mesh":13,"translation":[0,0.08,0],"scale":[11.88,0.16,11.695]},{"name":"store-shell","mesh":14,"translation":[0,2.35,0],"scale":[9.68,4.7,9.495]},{"name":"roof-cap","mesh":15,"translation":[0,4.81,0],"scale":[9.93,0.22,9.745]},{"name":"window-0","mesh":24,"translation":[0,1.65,4.8025],"scale":[6.245161,1.45,0.09]},{"name":"door","mesh":17,"translation":[3.388,1.025,4.8175],"scale":[0.92,2.05,0.12]},{"name":"primary-sign-back","mesh":7,"translation":[0,3.713,4.9075],"scale":[6.1016,1.25,1]},{"name":"primary-sign","mesh":8,"translation":[0,3.713,4.9365],"scale":[6.0016,1.15,1]},{"name":"vault-door","mesh":25,"translation":[0,1.974,4.9275],"rotation":[0.707107,0,0,0.707107],"scale":[1.55,0.25,1.55]},{"name":"apr-ring","mesh":26,"translation":[2.904,5.264,0]},{"name":"percent-tick-0","mesh":22,"translation":[4.554,5.264,0.12],"scale":[0.18,0.65,0.18]},{"name":"percent-tick-1","mesh":22,"translation":[3.795499,6.652427,0.12],"rotation":[0,0,0.380188,0.924909],"scale":[0.18,0.65,0.18]},{"name":"percent-tick-2","mesh":22,"translation":[2.217358,6.764341,0.12],"rotation":[0,0,0.703279,0.710914],"scale":[0.18,0.65,0.18]},{"name":"percent-tick-3","mesh":22,"translation":[1.270512,5.496848,0.12],"rotation":[0,0,0.920751,0.390152],"scale":[0.18,0.65,0.18]},{"name":"open-state-bollard","mesh":23,"translation":[4.1624,0.425,5.3172],"scale":[0.22,0.85,0.22]}],"meshes":[{"primitives":[{"attributes":{"POSITION":0,"NORMAL":1,"TEXCOORD_0":2},"material":0,"mode":4}]},{"primitives":[{"attributes":{"POSITION":3,"NORMAL":1,"TEXCOORD_0":4},"material":1,"mode":4}]},{"primitives":[{"attributes":{"POSITION":0,"NORMAL":1,"TEXCOORD_0":5},"material":2,"mode":4}]},{"primitives":[{"attributes":{"POSITION":0,"NORMAL":1,"TEXCOORD_0":6},"material":3,"mode":4}]},{"primitives":[{"attributes":{"POSITION":0,"NORMAL":1,"TEXCOORD_0":7},"material":2,"mode":4}]},{"primitives":[{"attributes":{"POSITION":0,"NORMAL":1,"TEXCOORD_0":8},"material":4,"mode":4}]},{"primitives":[{"attributes":{"POSITION":0,"NORMAL":1,"TEXCOORD_0":9},"material":4,"mode":4}]},{"primitives":[{"attributes":{"POSITION":10,"NORMAL":11,"TEXCOORD_0":12},"material":2,"mode":4,"indices":13}]},{"primitives":[{"attributes":{"POSITION":14,"NORMAL":15,"TEXCOORD_0":16},"material":5,"mode":4,"indices":17}]},{"primitives":[{"attributes":{"POSITION":18,"NORMAL":19,"TEXCOORD_0":20},"material":6,"mode":4,"indices":21}]},{"primitives":[{"attributes":{"POSITION":22,"NORMAL":23,"TEXCOORD_0":24},"material":4,"mode":4,"indices":25}]},{"primitives":[{"attributes":{"POSITION":0,"NORMAL":1,"TEXCOORD_0":26},"material":7,"mode":4}]},{"primitives":[{"attributes":{"POSITION":0,"NORMAL":1,"TEXCOORD_0":27},"material":4,"mode":4}]},{"primitives":[{"attributes":{"POSITION":28,"NORMAL":11,"TEXCOORD_0":29},"material":0,"mode":4,"indices":13}]},{"primitives":[{"attributes":{"POSITION":28,"NORMAL":11,"TEXCOORD_0":30},"material":1,"mode":4,"indices":13}]},{"primitives":[{"attributes":{"POSITION":28,"NORMAL":11,"TEXCOORD_0":31},"material":2,"mode":4,"indices":13}]},{"primitives":[{"attributes":{"POSITION":28,"NORMAL":11,"TEXCOORD_0":32},"material":3,"mode":4,"indices":13}]},{"primitives":[{"attributes":{"POSITION":28,"NORMAL":11,"TEXCOORD_0":33},"material":2,"mode":4,"indices":13}]},{"primitives":[{"attributes":{"POSITION":28,"NORMAL":11,"TEXCOORD_0":34},"material":4,"mode":4,"indices":13}]},{"primitives":[{"attributes":{"POSITION":28,"NORMAL":11,"TEXCOORD_0":35},"material":4,"mode":4,"indices":13}]},{"primitives":[{"attributes":{"POSITION":36,"NORMAL":37,"TEXCOORD_0":38},"material":6,"mode":4,"indices":39}]},{"primitives":[{"attributes":{"POSITION":40,"NORMAL":41,"TEXCOORD_0":42},"material":4,"mode":4,"indices":43}]},{"primitives":[{"attributes":{"POSITION":28,"NORMAL":11,"TEXCOORD_0":44},"material":7,"mode":4,"indices":13}]},{"primitives":[{"attributes":{"POSITION":28,"NORMAL":11,"TEXCOORD_0":45},"material":4,"mode":4,"indices":13}]},{"primitives":[{"attributes":{"POSITION":28,"NORMAL":11,"TEXCOORD_0":46},"material":3,"mode":4,"indices":13}]},{"primitives":[{"attributes":{"POSITION":47,"NORMAL":48,"TEXCOORD_0":49},"material":6,"mode":4,"indices":50}]},{"primitives":[{"attributes":{"POSITION":51,"NORMAL":52,"TEXCOORD_0":53},"material":4,"mode":4,"indices":54}]}],"materials":[{"name":"concrete","pbrMetallicRoughness":{"baseColorTexture":{"index":0},"metallicRoughnessTexture":{"index":2},"roughnessFactor":1,"metallicFactor":1},"normalTexture":{"index":1,"scale":0.82},"occlusionTexture":{"index":2,"strength":0.35}},{"name":"foliage","pbrMetallicRoughness":{"baseColorTexture":{"index":3},"metallicRoughnessTexture":{"index":5},"roughnessFactor":1,"metallicFactor":1},"normalTexture":{"index":4,"scale":0.88},"occlusionTexture":{"index":5,"strength":0.35}},{"name":"metal-dark","pbrMetallicRoughness":{"baseColorTexture":{"index":6},"metallicRoughnessTexture":{"index":8},"roughnessFactor":1,"metallicFactor":1},"normalTexture":{"index":7,"scale":0.35},"occlusionTexture":{"index":8,"strength":0.35}},{"name":"glass-blue","pbrMetallicRoughness":{"baseColorTexture":{"index":9},"metallicRoughnessTexture":{"index":11},"roughnessFactor":1,"metallicFactor":1},"normalTexture":{"index":10,"scale":0.12},"occlusionTexture":{"index":11,"strength":0.35}},{"name":"paint-yellow","pbrMetallicRoughness":{"baseColorFactor":[0.76052450467022,0.4793201830913402,0.07818742179702069,1],"roughnessFactor":0.66,"metallicFactor":0.03}},{"name":"payday-patriot signage","pbrMetallicRoughness":{"baseColorTexture":{"index":12},"roughnessFactor":1,"metallicFactor":0},"extensions":{"KHR_materials_unlit":{}}},{"name":"metal-galvanized","pbrMetallicRoughness":{"baseColorTexture":{"index":13},"metallicRoughnessTexture":{"index":15},"roughnessFactor":1,"metallicFactor":1},"normalTexture":{"index":14,"scale":0.15},"occlusionTexture":{"index":15,"strength":0.35}},{"name":"paint-red","pbrMetallicRoughness":{"baseColorFactor":[0.46778379610254284,0.08021982030622662,0.05126945836711539,1],"roughnessFactor":0.62,"metallicFactor":0.05}}],"textures":[{"source":0,"sampler":0},{"source":1,"sampler":0},{"source":2,"sampler":0},{"source":3,"sampler":0},{"source":4,"sampler":0},{"source":5,"sampler":0},{"source":6,"sampler":0},{"source":7,"sampler":0},{"source":8,"sampler":0},{"source":9,"sampler":0},{"source":10,"sampler":0},{"source":11,"sampler":0},{"source":12,"sampler":0},{"source":13,"sampler":0},{"source":14,"sampler":0},{"source":15,"sampler":0}],"images":[{"uri":"../textures/concrete-albedo.png"},{"uri":"../textures/concrete-normal.png"},{"uri":"../textures/concrete-orm.png"},{"uri":"../textures/foliage-albedo.png"},{"uri":"../textures/foliage-normal.png"},{"uri":"../textures/foliage-orm.png"},{"uri":"../textures/metal-dark-albedo.png"},{"uri":"../textures/metal-dark-normal.png"},{"uri":"../textures/metal-dark-orm.png"},{"uri":"../textures/glass-blue-albedo.png"},{"uri":"../textures/glass-blue-normal.png"},{"uri":"../textures/glass-blue-orm.png"},{"uri":"../signs/payday-patriot.png"},{"uri":"../textures/metal-galvanized-albedo.png"},{"uri":"../textures/metal-galvanized-normal.png"},{"uri":"../textures/metal-galvanized-orm.png"}],"samplers":[{"magFilter":9729,"minFilter":9987,"wrapS":10497,"wrapT":10497}],"buffers":[{"uri":"../shared/geometry.bin","byteLength":16435520}],"bufferViews":[{"buffer":0,"byteOffset":0,"byteLength":3888,"target":34962},{"buffer":0,"byteOffset":3888,"byteLength":3888,"target":34962},{"buffer":0,"byteOffset":10118636,"byteLength":2592,"target":34962},{"buffer":0,"byteOffset":868536,"byteLength":3888,"target":34962},{"buffer":0,"byteOffset":10121228,"byteLength":2592,"target":34962},{"buffer":0,"byteOffset":10123820,"byteLength":2592,"target":34962},{"buffer":0,"byteOffset":9974168,"byteLength":2592,"target":34962},{"buffer":0,"byteOffset":1428216,"byteLength":2592,"target":34962},{"buffer":0,"byteOffset":9976760,"byteLength":2592,"target":34962},{"buffer":0,"byteOffset":1433400,"byteLength":2592,"target":34962},{"buffer":0,"byteOffset":45664,"byteLength":288,"target":34962},{"buffer":0,"byteOffset":45952,"byteLength":288,"target":34962},{"buffer":0,"byteOffset":46240,"byteLength":192,"target":34962},{"buffer":0,"byteOffset":46432,"byteLength":72,"target":34963},{"buffer":0,"byteOffset":46504,"byteLength":48,"target":34962},{"buffer":0,"byteOffset":46552,"byteLength":48,"target":34962},{"buffer":0,"byteOffset":182532,"byteLength":32,"target":34962},{"buffer":0,"byteOffset":46632,"byteLength":12,"target":34963},{"buffer":0,"byteOffset":2073116,"byteLength":1344,"target":34962},{"buffer":0,"byteOffset":2074460,"byteLength":1344,"target":34962},{"buffer":0,"byteOffset":9979352,"byteLength":896,"target":34962},{"buffer":0,"byteOffset":2072684,"byteLength":432,"target":34963},{"buffer":0,"byteOffset":9980248,"byteLength":3132,"target":34962},{"buffer":0,"byteOffset":390704,"byteLength":3132,"target":34962},{"buffer":0,"byteOffset":393836,"byteLength":2088,"target":34962},{"buffer":0,"byteOffset":395924,"byteLength":2688,"target":34963},{"buffer":0,"byteOffset":9983380,"byteLength":2592,"target":34962},{"buffer":0,"byteOffset":422312,"byteLength":2592,"target":34962},{"buffer":0,"byteOffset":46644,"byteLength":288,"target":34962},{"buffer":0,"byteOffset":10126412,"byteLength":192,"target":34962},{"buffer":0,"byteOffset":10126604,"byteLength":192,"target":34962},{"buffer":0,"byteOffset":10126796,"byteLength":192,"target":34962},{"buffer":0,"byteOffset":9986548,"byteLength":192,"target":34962},{"buffer":0,"byteOffset":1447128,"byteLength":192,"target":34962},{"buffer":0,"byteOffset":9986740,"byteLength":192,"target":34962},{"buffer":0,"byteOffset":1447512,"byteLength":192,"target":34962},{"buffer":0,"byteOffset":2090124,"byteLength":696,"target":34962},{"buffer":0,"byteOffset":2090820,"byteLength":696,"target":34962},{"buffer":0,"byteOffset":9986932,"byteLength":464,"target":34962},{"buffer":0,"byteOffset":2089908,"byteLength":216,"target":34963},{"buffer":0,"byteOffset":9987396,"byteLength":1428,"target":34962},{"buffer":0,"byteOffset":427996,"byteLength":1428,"target":34962},{"buffer":0,"byteOffset":429424,"byteLength":952,"target":34962},{"buffer":0,"byteOffset":430376,"byteLength":1152,"target":34963},{"buffer":0,"byteOffset":9988824,"byteLength":192,"target":34962},{"buffer":0,"byteOffset":436936,"byteLength":192,"target":34962},{"buffer":0,"byteOffset":9989016,"byteLength":192,"target":34962},{"buffer":0,"byteOffset":1112312,"byteLength":480,"target":34962},{"buffer":0,"byteOffset":1112792,"byteLength":480,"target":34962},{"buffer":0,"byteOffset":9989208,"byteLength":320,"target":34962},{"buffer":0,"byteOffset":48596,"byteLength":144,"target":34963},{"buffer":0,"byteOffset":9989528,"byteLength":660,"target":34962},{"buffer":0,"byteOffset":437788,"byteLength":660,"target":34962},{"buffer":0,"byteOffset":438448,"byteLength":440,"target":34962},{"buffer":0,"byteOffset":438888,"byteLength":480,"target":34963}],"accessors":[{"bufferView":0,"componentType":5126,"count":324,"type":"VEC3","min":[-0.5,-0.5,-0.5],"max":[0.5,0.5,0.5]},{"bufferView":1,"componentType":5126,"count":324,"type":"VEC3"},{"bufferView":2,"componentType":5126,"count":324,"type":"VEC2"},{"bufferView":3,"componentType":5126,"count":324,"type":"VEC3","min":[-0.5,-0.5,-0.5],"max":[0.5,0.5,0.5]},{"bufferView":4,"componentType":5126,"count":324,"type":"VEC2"},{"bufferView":5,"componentType":5126,"count":324,"type":"VEC2"},{"bufferView":6,"componentType":5126,"count":324,"type":"VEC2"},{"bufferView":7,"componentType":5126,"count":324,"type":"VEC2"},{"bufferView":8,"componentType":5126,"count":324,"type":"VEC2"},{"bufferView":9,"componentType":5126,"count":324,"type":"VEC2"},{"bufferView":10,"componentType":5126,"count":24,"type":"VEC3","min":[-0.5,-0.5,-0.02500000037252903],"max":[0.5,0.5,0.02500000037252903]},{"bufferView":11,"componentType":5126,"count":24,"type":"VEC3"},{"bufferView":12,"componentType":5126,"count":24,"type":"VEC2"},{"bufferView":13,"componentType":5123,"count":36,"type":"SCALAR"},{"bufferView":14,"componentType":5126,"count":4,"type":"VEC3","min":[-0.5,-0.5,0],"max":[0.5,0.5,0]},{"bufferView":15,"componentType":5126,"count":4,"type":"VEC3"},{"bufferView":16,"componentType":5126,"count":4,"type":"VEC2"},{"bufferView":17,"componentType":5123,"count":6,"type":"SCALAR"},{"bufferView":18,"componentType":5126,"count":112,"type":"VEC3","min":[-0.9848077297210693,-0.5,-1],"max":[0.9848077297210693,0.5,1]},{"bufferView":19,"componentType":5126,"count":112,"type":"VEC3"},{"bufferView":20,"componentType":5126,"count":112,"type":"VEC2"},{"bufferView":21,"componentType":5123,"count":216,"type":"SCALAR"},{"bufferView":22,"componentType":5126,"count":261,"type":"VEC3","min":[-2.319999933242798,-2.319999933242798,-0.2199999988079071],"max":[2.319999933242798,2.319999933242798,0.2199999988079071]},{"bufferView":23,"componentType":5126,"count":261,"type":"VEC3"},{"bufferView":24,"componentType":5126,"count":261,"type":"VEC2"},{"bufferView":25,"componentType":5123,"count":1344,"type":"SCALAR"},{"bufferView":26,"componentType":5126,"count":324,"type":"VEC2"},{"bufferView":27,"componentType":5126,"count":324,"type":"VEC2"},{"bufferView":28,"componentType":5126,"count":24,"type":"VEC3","min":[-0.5,-0.5,-0.5],"max":[0.5,0.5,0.5]},{"bufferView":29,"componentType":5126,"count":24,"type":"VEC2"},{"bufferView":30,"componentType":5126,"count":24,"type":"VEC2"},{"bufferView":31,"componentType":5126,"count":24,"type":"VEC2"},{"bufferView":32,"componentType":5126,"count":24,"type":"VEC2"},{"bufferView":33,"componentType":5126,"count":24,"type":"VEC2"},{"bufferView":34,"componentType":5126,"count":24,"type":"VEC2"},{"bufferView":35,"componentType":5126,"count":24,"type":"VEC2"},{"bufferView":36,"componentType":5126,"count":58,"type":"VEC3","min":[-0.9848077297210693,-0.5,-0.9396926164627075],"max":[0.9848077297210693,0.5,1]},{"bufferView":37,"componentType":5126,"count":58,"type":"VEC3"},{"bufferView":38,"componentType":5126,"count":58,"type":"VEC2"},{"bufferView":39,"componentType":5123,"count":108,"type":"SCALAR"},{"bufferView":40,"componentType":5126,"count":119,"type":"VEC3","min":[-2.319999933242798,-2.319999933242798,-0.1905255913734436],"max":[2.319999933242798,2.319999933242798,0.1905255913734436]},{"bufferView":41,"componentType":5126,"count":119,"type":"VEC3"},{"bufferView":42,"componentType":5126,"count":119,"type":"VEC2"},{"bufferView":43,"componentType":5123,"count":576,"type":"SCALAR"},{"bufferView":44,"componentType":5126,"count":24,"type":"VEC2"},{"bufferView":45,"componentType":5126,"count":24,"type":"VEC2"},{"bufferView":46,"componentType":5126,"count":24,"type":"VEC2"},{"bufferView":47,"componentType":5126,"count":40,"type":"VEC3","min":[-0.8660253882408142,-0.5,-1],"max":[0.8660253882408142,0.5,1]},{"bufferView":48,"componentType":5126,"count":40,"type":"VEC3"},{"bufferView":49,"componentType":5126,"count":40,"type":"VEC2"},{"bufferView":50,"componentType":5123,"count":72,"type":"SCALAR"},{"bufferView":51,"componentType":5126,"count":55,"type":"VEC3","min":[-2.319999933242798,-2.206451177597046,-0.2199999988079071],"max":[2.319999933242798,2.206451177597046,0.2199999988079071]},{"bufferView":52,"componentType":5126,"count":55,"type":"VEC3"},{"bufferView":53,"componentType":5126,"count":55,"type":"VEC2"},{"bufferView":54,"componentType":5123,"count":240,"type":"SCALAR"}],"extensionsUsed":["KHR_materials_unlit"],"extras":{"id":"vlt-payday-patriot-16","family":"payday-patriot","variant":15,"plan":"D1-1","units":"metres","up":"+Y","front":"+Z","lodScenes":[0,1,2]}}