{"asset":{"version":"2.0","generator":"SLOPMERICA Department of Unnecessary Development 1.0"},"scene":0,"scenes":[{"name":"LOD 0","nodes":[0,1,2,3,4,5,6,7,8,9,10],"extras":{"level":0}},{"name":"LOD 1","nodes":[11,12,13,14,15,16,17,18,19,20,21],"extras":{"level":1}},{"name":"LOD 2","nodes":[22,23,24,25,26,27,28,29],"extras":{"level":2}}],"nodes":[{"name":"surveyed lot","mesh":0,"translation":[0,0.06,0],"scale":[13.2,0.12,14.08]},{"name":"metal barn home","mesh":1,"translation":[0,2.5,0],"scale":[10,4.8,12]},{"name":"barn roof right","mesh":2,"translation":[-2.7,6.257712,0],"rotation":[0,0,0.227978,0.973666],"scale":[6.026433,0.16,12.5]},{"name":"barn roof left","mesh":2,"translation":[2.7,6.257712,0],"rotation":[0,0,-0.227978,0.973666],"scale":[6.026433,0.16,12.5]},{"name":"barn roof end infill","mesh":3,"translation":[0,4.92,0]},{"name":"airplane hangar door","mesh":4,"translation":[0,2,6.08],"scale":[5.5,3.55,0.15]},{"name":"tiny human door","mesh":5,"translation":[-4,1.3,6.1],"scale":[0.9,2.15,0.18]},{"name":"domestic window 0","mesh":6,"translation":[-4,3.6,6.11],"scale":[0.65,0.75,0.1]},{"name":"domestic window 1","mesh":6,"translation":[-2.8,3.6,6.11],"scale":[0.65,0.75,0.1]},{"name":"decorative grain bin","mesh":7,"translation":[7.8,2.1,-2],"scale":[2,4.1,2]},{"name":"unfinished addition","mesh":8,"translation":[-6.7,1.5,1.8],"scale":[3.5,2.8,5]},{"name":"surveyed lot","mesh":9,"translation":[0,0.06,0],"scale":[13.2,0.12,14.08]},{"name":"metal barn home","mesh":10,"translation":[0,2.5,0],"scale":[10,4.8,12]},{"name":"barn roof right","mesh":11,"translation":[-2.7,6.257712,0],"rotation":[0,0,0.227978,0.973666],"scale":[6.026433,0.16,12.5]},{"name":"barn roof left","mesh":11,"translation":[2.7,6.257712,0],"rotation":[0,0,-0.227978,0.973666],"scale":[6.026433,0.16,12.5]},{"name":"barn roof end infill","mesh":3,"translation":[0,4.92,0]},{"name":"airplane hangar door","mesh":12,"translation":[0,2,6.08],"scale":[5.5,3.55,0.15]},{"name":"tiny human door","mesh":13,"translation":[-4,1.3,6.1],"scale":[0.9,2.15,0.18]},{"name":"domestic window 0","mesh":14,"translation":[-4,3.6,6.11],"scale":[0.65,0.75,0.1]},{"name":"domestic window 1","mesh":14,"translation":[-2.8,3.6,6.11],"scale":[0.65,0.75,0.1]},{"name":"decorative grain bin","mesh":15,"translation":[7.8,2.1,-2],"scale":[2,4.1,2]},{"name":"unfinished addition","mesh":16,"translation":[-6.7,1.5,1.8],"scale":[3.5,2.8,5]},{"name":"surveyed lot","mesh":9,"translation":[0,0.06,0],"scale":[13.2,0.12,14.08]},{"name":"metal barn home","mesh":10,"translation":[0,2.5,0],"scale":[10,4.8,12]},{"name":"barn roof right","mesh":11,"translation":[-2.7,6.257712,0],"rotation":[0,0,0.227978,0.973666],"scale":[6.026433,0.16,12.5]},{"name":"barn roof left","mesh":11,"translation":[2.7,6.257712,0],"rotation":[0,0,-0.227978,0.973666],"scale":[6.026433,0.16,12.5]},{"name":"barn roof end infill","mesh":3,"translation":[0,4.92,0]},{"name":"airplane hangar door","mesh":12,"translation":[0,2,6.08],"scale":[5.5,3.55,0.15]},{"name":"tiny human door","mesh":13,"translation":[-4,1.3,6.1],"scale":[0.9,2.15,0.18]},{"name":"unfinished addition","mesh":16,"translation":[-6.7,1.5,1.8],"scale":[3.5,2.8,5]}],"meshes":[{"primitives":[{"attributes":{"POSITION":0,"NORMAL":1,"TEXCOORD_0":2},"material":0,"mode":4}]},{"primitives":[{"attributes":{"POSITION":3,"NORMAL":1,"TEXCOORD_0":4},"material":1,"mode":4}]},{"primitives":[{"attributes":{"POSITION":0,"NORMAL":1,"TEXCOORD_0":5},"material":2,"mode":4}]},{"primitives":[{"attributes":{"POSITION":6,"NORMAL":7,"TEXCOORD_0":8},"material":1,"mode":4}]},{"primitives":[{"attributes":{"POSITION":0,"NORMAL":1,"TEXCOORD_0":9},"material":3,"mode":4}]},{"primitives":[{"attributes":{"POSITION":0,"NORMAL":1,"TEXCOORD_0":10},"material":4,"mode":4}]},{"primitives":[{"attributes":{"POSITION":0,"NORMAL":1,"TEXCOORD_0":11},"material":5,"mode":4}]},{"primitives":[{"attributes":{"POSITION":12,"NORMAL":13,"TEXCOORD_0":14},"material":1,"mode":4,"indices":15}]},{"primitives":[{"attributes":{"POSITION":16,"NORMAL":1,"TEXCOORD_0":17},"material":6,"mode":4}]},{"primitives":[{"attributes":{"POSITION":18,"NORMAL":19,"TEXCOORD_0":20},"material":0,"mode":4,"indices":21}]},{"primitives":[{"attributes":{"POSITION":18,"NORMAL":19,"TEXCOORD_0":22},"material":1,"mode":4,"indices":21}]},{"primitives":[{"attributes":{"POSITION":18,"NORMAL":19,"TEXCOORD_0":23},"material":2,"mode":4,"indices":21}]},{"primitives":[{"attributes":{"POSITION":18,"NORMAL":19,"TEXCOORD_0":24},"material":3,"mode":4,"indices":21}]},{"primitives":[{"attributes":{"POSITION":18,"NORMAL":19,"TEXCOORD_0":25},"material":4,"mode":4,"indices":21}]},{"primitives":[{"attributes":{"POSITION":18,"NORMAL":19,"TEXCOORD_0":26},"material":5,"mode":4,"indices":21}]},{"primitives":[{"attributes":{"POSITION":27,"NORMAL":28,"TEXCOORD_0":29},"material":1,"mode":4,"indices":30}]},{"primitives":[{"attributes":{"POSITION":18,"NORMAL":19,"TEXCOORD_0":31},"material":6,"mode":4,"indices":21}]}],"materials":[{"name":"concrete","pbrMetallicRoughness":{"baseColorTexture":{"index":0},"metallicRoughnessTexture":{"index":2},"roughnessFactor":1,"metallicFactor":1},"normalTexture":{"index":1,"scale":0.82},"occlusionTexture":{"index":2,"strength":0.35}},{"name":"metal-galvanized","pbrMetallicRoughness":{"baseColorTexture":{"index":3},"metallicRoughnessTexture":{"index":5},"roughnessFactor":1,"metallicFactor":1},"normalTexture":{"index":4,"scale":0.15},"occlusionTexture":{"index":5,"strength":0.35}},{"name":"roof-metal","pbrMetallicRoughness":{"baseColorTexture":{"index":6},"metallicRoughnessTexture":{"index":8},"roughnessFactor":1,"metallicFactor":1},"normalTexture":{"index":7,"scale":0.68},"occlusionTexture":{"index":8,"strength":0.35}},{"name":"metal-dark","pbrMetallicRoughness":{"baseColorTexture":{"index":9},"metallicRoughnessTexture":{"index":11},"roughnessFactor":1,"metallicFactor":1},"normalTexture":{"index":10,"scale":0.35},"occlusionTexture":{"index":11,"strength":0.35}},{"name":"paint-red","pbrMetallicRoughness":{"baseColorFactor":[0.46778379610254284,0.08021982030622662,0.05126945836711539,1],"roughnessFactor":0.62,"metallicFactor":0.05}},{"name":"glass-blue","pbrMetallicRoughness":{"baseColorTexture":{"index":12},"metallicRoughnessTexture":{"index":14},"roughnessFactor":1,"metallicFactor":1},"normalTexture":{"index":13,"scale":0.12},"occlusionTexture":{"index":14,"strength":0.35}},{"name":"wood-oak","pbrMetallicRoughness":{"baseColorTexture":{"index":15},"metallicRoughnessTexture":{"index":17},"roughnessFactor":1,"metallicFactor":1},"normalTexture":{"index":16,"scale":1},"occlusionTexture":{"index":17,"strength":0.35}}],"textures":[{"source":0,"sampler":0},{"source":1,"sampler":0},{"source":2,"sampler":0},{"source":3,"sampler":0},{"source":4,"sampler":0},{"source":5,"sampler":0},{"source":6,"sampler":0},{"source":7,"sampler":0},{"source":8,"sampler":0},{"source":9,"sampler":0},{"source":10,"sampler":0},{"source":11,"sampler":0},{"source":12,"sampler":0},{"source":13,"sampler":0},{"source":14,"sampler":0},{"source":15,"sampler":0},{"source":16,"sampler":0},{"source":17,"sampler":0}],"images":[{"uri":"../textures/concrete-albedo.png"},{"uri":"../textures/concrete-normal.png"},{"uri":"../textures/concrete-orm.png"},{"uri":"../textures/metal-galvanized-albedo.png"},{"uri":"../textures/metal-galvanized-normal.png"},{"uri":"../textures/metal-galvanized-orm.png"},{"uri":"../textures/roof-metal-albedo.png"},{"uri":"../textures/roof-metal-normal.png"},{"uri":"../textures/roof-metal-orm.png"},{"uri":"../textures/metal-dark-albedo.png"},{"uri":"../textures/metal-dark-normal.png"},{"uri":"../textures/metal-dark-orm.png"},{"uri":"../textures/glass-blue-albedo.png"},{"uri":"../textures/glass-blue-normal.png"},{"uri":"../textures/glass-blue-orm.png"},{"uri":"../textures/wood-oak-albedo.png"},{"uri":"../textures/wood-oak-normal.png"},{"uri":"../textures/wood-oak-orm.png"}],"samplers":[{"magFilter":9729,"minFilter":9987,"wrapS":10497,"wrapT":10497}],"buffers":[{"uri":"../shared/geometry.bin","byteLength":16435520}],"bufferViews":[{"buffer":0,"byteOffset":0,"byteLength":3888,"target":34962},{"buffer":0,"byteOffset":3888,"byteLength":3888,"target":34962},{"buffer":0,"byteOffset":7792448,"byteLength":2592,"target":34962},{"buffer":0,"byteOffset":5079544,"byteLength":3888,"target":34962},{"buffer":0,"byteOffset":7795040,"byteLength":2592,"target":34962},{"buffer":0,"byteOffset":7797632,"byteLength":2592,"target":34962},{"buffer":0,"byteOffset":7800224,"byteLength":72,"target":34962},{"buffer":0,"byteOffset":608760,"byteLength":72,"target":34962},{"buffer":0,"byteOffset":7800296,"byteLength":48,"target":34962},{"buffer":0,"byteOffset":7800344,"byteLength":2592,"target":34962},{"buffer":0,"byteOffset":7802936,"byteLength":2592,"target":34962},{"buffer":0,"byteOffset":7805528,"byteLength":2592,"target":34962},{"buffer":0,"byteOffset":5526272,"byteLength":912,"target":34962},{"buffer":0,"byteOffset":5527184,"byteLength":912,"target":34962},{"buffer":0,"byteOffset":7808120,"byteLength":608,"target":34962},{"buffer":0,"byteOffset":387284,"byteLength":288,"target":34963},{"buffer":0,"byteOffset":868536,"byteLength":3888,"target":34962},{"buffer":0,"byteOffset":7996432,"byteLength":2592,"target":34962},{"buffer":0,"byteOffset":46644,"byteLength":288,"target":34962},{"buffer":0,"byteOffset":45952,"byteLength":288,"target":34962},{"buffer":0,"byteOffset":7808728,"byteLength":192,"target":34962},{"buffer":0,"byteOffset":46432,"byteLength":72,"target":34963},{"buffer":0,"byteOffset":7808920,"byteLength":192,"target":34962},{"buffer":0,"byteOffset":7809112,"byteLength":192,"target":34962},{"buffer":0,"byteOffset":7809304,"byteLength":192,"target":34962},{"buffer":0,"byteOffset":7809496,"byteLength":192,"target":34962},{"buffer":0,"byteOffset":7809688,"byteLength":192,"target":34962},{"buffer":0,"byteOffset":1112312,"byteLength":480,"target":34962},{"buffer":0,"byteOffset":1112792,"byteLength":480,"target":34962},{"buffer":0,"byteOffset":7809880,"byteLength":320,"target":34962},{"buffer":0,"byteOffset":48596,"byteLength":144,"target":34963},{"buffer":0,"byteOffset":7999024,"byteLength":192,"target":34962}],"accessors":[{"bufferView":0,"componentType":5126,"count":324,"type":"VEC3","min":[-0.5,-0.5,-0.5],"max":[0.5,0.5,0.5]},{"bufferView":1,"componentType":5126,"count":324,"type":"VEC3"},{"bufferView":2,"componentType":5126,"count":324,"type":"VEC2"},{"bufferView":3,"componentType":5126,"count":324,"type":"VEC3","min":[-0.5,-0.5,-0.5],"max":[0.5,0.5,0.5]},{"bufferView":4,"componentType":5126,"count":324,"type":"VEC2"},{"bufferView":5,"componentType":5126,"count":324,"type":"VEC2"},{"bufferView":6,"componentType":5126,"count":6,"type":"VEC3","min":[-5.400000095367432,0,-6.235000133514404],"max":[5.400000095367432,2.6754233837127686,6.235000133514404]},{"bufferView":7,"componentType":5126,"count":6,"type":"VEC3"},{"bufferView":8,"componentType":5126,"count":6,"type":"VEC2"},{"bufferView":9,"componentType":5126,"count":324,"type":"VEC2"},{"bufferView":10,"componentType":5126,"count":324,"type":"VEC2"},{"bufferView":11,"componentType":5126,"count":324,"type":"VEC2"},{"bufferView":12,"componentType":5126,"count":76,"type":"VEC3","min":[-1,-0.5,-1],"max":[1,0.5,1]},{"bufferView":13,"componentType":5126,"count":76,"type":"VEC3"},{"bufferView":14,"componentType":5126,"count":76,"type":"VEC2"},{"bufferView":15,"componentType":5123,"count":144,"type":"SCALAR"},{"bufferView":16,"componentType":5126,"count":324,"type":"VEC3","min":[-0.5,-0.5,-0.5],"max":[0.5,0.5,0.5]},{"bufferView":17,"componentType":5126,"count":324,"type":"VEC2"},{"bufferView":18,"componentType":5126,"count":24,"type":"VEC3","min":[-0.5,-0.5,-0.5],"max":[0.5,0.5,0.5]},{"bufferView":19,"componentType":5126,"count":24,"type":"VEC3"},{"bufferView":20,"componentType":5126,"count":24,"type":"VEC2"},{"bufferView":21,"componentType":5123,"count":36,"type":"SCALAR"},{"bufferView":22,"componentType":5126,"count":24,"type":"VEC2"},{"bufferView":23,"componentType":5126,"count":24,"type":"VEC2"},{"bufferView":24,"componentType":5126,"count":24,"type":"VEC2"},{"bufferView":25,"componentType":5126,"count":24,"type":"VEC2"},{"bufferView":26,"componentType":5126,"count":24,"type":"VEC2"},{"bufferView":27,"componentType":5126,"count":40,"type":"VEC3","min":[-0.8660253882408142,-0.5,-1],"max":[0.8660253882408142,0.5,1]},{"bufferView":28,"componentType":5126,"count":40,"type":"VEC3"},{"bufferView":29,"componentType":5126,"count":40,"type":"VEC2"},{"bufferView":30,"componentType":5123,"count":72,"type":"SCALAR"},{"bufferView":31,"componentType":5126,"count":24,"type":"VEC2"}],"extensionsUsed":["KHR_materials_unlit"],"extras":{"id":"vlt-liberty-barndominium-21","family":"liberty-barndominium","variant":20,"plan":"A1-2","units":"metres","up":"+Y","front":"+Z","lodScenes":[0,1,2]}}