{"asset":{"version":"2.0","generator":"SLOPMERICA Department of Unnecessary Development 1.0"},"scene":0,"scenes":[{"name":"LOD 0","nodes":[0,1,2,3,4,5,6,7,8,9,10,11,12,13,14,15,16,17,18,19,20,21,22,23,24,25,26,27,28,29,30,31,32,33,34,35,36,37,38],"extras":{"level":0}},{"name":"LOD 1","nodes":[39,40,41,42,43,44,45,46,47,48,49,50,51,52,53,54,55,56,57,58,59,60,61,62,63,64,65],"extras":{"level":1}},{"name":"LOD 2","nodes":[66,67,68,69,70,71,72,73,74,75,76,77,78,79,80],"extras":{"level":2}}],"nodes":[{"name":"site-pad","mesh":0,"translation":[0,0.06,0],"scale":[15.5584,0.12,16.4736]},{"name":"variant-apron","mesh":1,"translation":[2.9172,0.13,8.14],"scale":[3.2912,0.08,1.34]},{"name":"bollard-0","mesh":2,"translation":[-5.6848,0.43,8.26],"scale":[0.08,0.74,0.08]},{"name":"layout-cabinet","mesh":3,"translation":[7.68,0.495,3.564],"scale":[0.81,0.75,0.32]},{"name":"parking-field","mesh":4,"translation":[0,0.2,0],"scale":[14.96,0.12,15.84]},{"name":"stripe-0-0","mesh":5,"translation":[-5.984,0.275,-5.7024],"rotation":[0,0.049979,0,0.99875],"scale":[0.07,0.025,2.7]},{"name":"stripe-0-1","mesh":5,"translation":[-2.992,0.275,-5.7024],"rotation":[0,0.049979,0,0.99875],"scale":[0.07,0.025,2.7]},{"name":"stripe-0-2","mesh":5,"translation":[0,0.275,-5.7024],"rotation":[0,0.049979,0,0.99875],"scale":[0.07,0.025,2.7]},{"name":"stripe-0-3","mesh":5,"translation":[2.992,0.275,-5.7024],"rotation":[0,0.049979,0,0.99875],"scale":[0.07,0.025,2.7]},{"name":"stripe-0-4","mesh":5,"translation":[5.984,0.275,-5.7024],"rotation":[0,0.049979,0,0.99875],"scale":[0.07,0.025,2.7]},{"name":"stripe-1-0","mesh":5,"translation":[-5.984,0.275,-3.42144],"rotation":[0,0.049979,0,0.99875],"scale":[0.07,0.025,2.7]},{"name":"stripe-1-1","mesh":5,"translation":[-2.992,0.275,-3.42144],"rotation":[0,0.049979,0,0.99875],"scale":[0.07,0.025,2.7]},{"name":"stripe-1-2","mesh":5,"translation":[0,0.275,-3.42144],"rotation":[0,0.049979,0,0.99875],"scale":[0.07,0.025,2.7]},{"name":"stripe-1-3","mesh":5,"translation":[2.992,0.275,-3.42144],"rotation":[0,0.049979,0,0.99875],"scale":[0.07,0.025,2.7]},{"name":"stripe-1-4","mesh":5,"translation":[5.984,0.275,-3.42144],"rotation":[0,0.049979,0,0.99875],"scale":[0.07,0.025,2.7]},{"name":"stripe-2-0","mesh":5,"translation":[-5.984,0.275,-1.14048],"rotation":[0,0.049979,0,0.99875],"scale":[0.07,0.025,2.7]},{"name":"stripe-2-1","mesh":5,"translation":[-2.992,0.275,-1.14048],"rotation":[0,0.049979,0,0.99875],"scale":[0.07,0.025,2.7]},{"name":"stripe-2-2","mesh":5,"translation":[0,0.275,-1.14048],"rotation":[0,0.049979,0,0.99875],"scale":[0.07,0.025,2.7]},{"name":"stripe-2-3","mesh":5,"translation":[2.992,0.275,-1.14048],"rotation":[0,0.049979,0,0.99875],"scale":[0.07,0.025,2.7]},{"name":"stripe-2-4","mesh":5,"translation":[5.984,0.275,-1.14048],"rotation":[0,0.049979,0,0.99875],"scale":[0.07,0.025,2.7]},{"name":"stripe-3-0","mesh":5,"translation":[-5.984,0.275,1.14048],"rotation":[0,0.049979,0,0.99875],"scale":[0.07,0.025,2.7]},{"name":"stripe-3-1","mesh":5,"translation":[-2.992,0.275,1.14048],"rotation":[0,0.049979,0,0.99875],"scale":[0.07,0.025,2.7]},{"name":"stripe-3-2","mesh":5,"translation":[0,0.275,1.14048],"rotation":[0,0.049979,0,0.99875],"scale":[0.07,0.025,2.7]},{"name":"stripe-3-3","mesh":5,"translation":[2.992,0.275,1.14048],"rotation":[0,0.049979,0,0.99875],"scale":[0.07,0.025,2.7]},{"name":"stripe-3-4","mesh":5,"translation":[5.984,0.275,1.14048],"rotation":[0,0.049979,0,0.99875],"scale":[0.07,0.025,2.7]},{"name":"stripe-4-0","mesh":5,"translation":[-5.984,0.275,3.42144],"rotation":[0,0.049979,0,0.99875],"scale":[0.07,0.025,2.7]},{"name":"stripe-4-1","mesh":5,"translation":[-2.992,0.275,3.42144],"rotation":[0,0.049979,0,0.99875],"scale":[0.07,0.025,2.7]},{"name":"stripe-4-2","mesh":5,"translation":[0,0.275,3.42144],"rotation":[0,0.049979,0,0.99875],"scale":[0.07,0.025,2.7]},{"name":"stripe-4-3","mesh":5,"translation":[2.992,0.275,3.42144],"rotation":[0,0.049979,0,0.99875],"scale":[0.07,0.025,2.7]},{"name":"stripe-4-4","mesh":5,"translation":[5.984,0.275,3.42144],"rotation":[0,0.049979,0,0.99875],"scale":[0.07,0.025,2.7]},{"name":"stripe-5-0","mesh":5,"translation":[-5.984,0.275,5.7024],"rotation":[0,0.049979,0,0.99875],"scale":[0.07,0.025,2.7]},{"name":"stripe-5-1","mesh":5,"translation":[-2.992,0.275,5.7024],"rotation":[0,0.049979,0,0.99875],"scale":[0.07,0.025,2.7]},{"name":"stripe-5-2","mesh":5,"translation":[0,0.275,5.7024],"rotation":[0,0.049979,0,0.99875],"scale":[0.07,0.025,2.7]},{"name":"stripe-5-3","mesh":5,"translation":[2.992,0.275,5.7024],"rotation":[0,0.049979,0,0.99875],"scale":[0.07,0.025,2.7]},{"name":"stripe-5-4","mesh":5,"translation":[5.984,0.275,5.7024],"rotation":[0,0.049979,0,0.99875],"scale":[0.07,0.025,2.7]},{"name":"light-pole-0","mesh":6,"translation":[-5.236,3.07,0],"scale":[0.12,5.9,0.12]},{"name":"light-head-0","mesh":7,"translation":[-5.236,6.25,0],"scale":[1,0.18,0.28]},{"name":"minimum-sign-back","mesh":8,"translation":[4.1888,2,8.12],"scale":[3.9,1.1,1]},{"name":"minimum-sign","mesh":9,"translation":[4.1888,2,8.149],"scale":[3.8,1,1]},{"name":"site-pad","mesh":10,"translation":[0,0.06,0],"scale":[15.5584,0.12,16.4736]},{"name":"variant-apron","mesh":11,"translation":[2.9172,0.13,8.14],"scale":[3.2912,0.08,1.34]},{"name":"bollard-0","mesh":12,"translation":[-5.6848,0.43,8.26],"scale":[0.08,0.74,0.08]},{"name":"layout-cabinet","mesh":13,"translation":[7.68,0.495,3.564],"scale":[0.81,0.75,0.32]},{"name":"parking-field","mesh":14,"translation":[0,0.2,0],"scale":[14.96,0.12,15.84]},{"name":"stripe-0-0","mesh":15,"translation":[-5.984,0.275,-5.7024],"rotation":[0,0.049979,0,0.99875],"scale":[0.07,0.025,2.7]},{"name":"stripe-0-1","mesh":15,"translation":[0,0.275,-5.7024],"rotation":[0,0.049979,0,0.99875],"scale":[0.07,0.025,2.7]},{"name":"stripe-0-2","mesh":15,"translation":[5.984,0.275,-5.7024],"rotation":[0,0.049979,0,0.99875],"scale":[0.07,0.025,2.7]},{"name":"stripe-1-0","mesh":15,"translation":[-5.984,0.275,-3.42144],"rotation":[0,0.049979,0,0.99875],"scale":[0.07,0.025,2.7]},{"name":"stripe-1-1","mesh":15,"translation":[0,0.275,-3.42144],"rotation":[0,0.049979,0,0.99875],"scale":[0.07,0.025,2.7]},{"name":"stripe-1-2","mesh":15,"translation":[5.984,0.275,-3.42144],"rotation":[0,0.049979,0,0.99875],"scale":[0.07,0.025,2.7]},{"name":"stripe-2-0","mesh":15,"translation":[-5.984,0.275,-1.14048],"rotation":[0,0.049979,0,0.99875],"scale":[0.07,0.025,2.7]},{"name":"stripe-2-1","mesh":15,"translation":[0,0.275,-1.14048],"rotation":[0,0.049979,0,0.99875],"scale":[0.07,0.025,2.7]},{"name":"stripe-2-2","mesh":15,"translation":[5.984,0.275,-1.14048],"rotation":[0,0.049979,0,0.99875],"scale":[0.07,0.025,2.7]},{"name":"stripe-3-0","mesh":15,"translation":[-5.984,0.275,1.14048],"rotation":[0,0.049979,0,0.99875],"scale":[0.07,0.025,2.7]},{"name":"stripe-3-1","mesh":15,"translation":[0,0.275,1.14048],"rotation":[0,0.049979,0,0.99875],"scale":[0.07,0.025,2.7]},{"name":"stripe-3-2","mesh":15,"translation":[5.984,0.275,1.14048],"rotation":[0,0.049979,0,0.99875],"scale":[0.07,0.025,2.7]},{"name":"stripe-4-0","mesh":15,"translation":[-5.984,0.275,3.42144],"rotation":[0,0.049979,0,0.99875],"scale":[0.07,0.025,2.7]},{"name":"stripe-4-1","mesh":15,"translation":[0,0.275,3.42144],"rotation":[0,0.049979,0,0.99875],"scale":[0.07,0.025,2.7]},{"name":"stripe-4-2","mesh":15,"translation":[5.984,0.275,3.42144],"rotation":[0,0.049979,0,0.99875],"scale":[0.07,0.025,2.7]},{"name":"stripe-5-0","mesh":15,"translation":[-5.984,0.275,5.7024],"rotation":[0,0.049979,0,0.99875],"scale":[0.07,0.025,2.7]},{"name":"stripe-5-1","mesh":15,"translation":[0,0.275,5.7024],"rotation":[0,0.049979,0,0.99875],"scale":[0.07,0.025,2.7]},{"name":"stripe-5-2","mesh":15,"translation":[5.984,0.275,5.7024],"rotation":[0,0.049979,0,0.99875],"scale":[0.07,0.025,2.7]},{"name":"light-pole-0","mesh":16,"translation":[-5.236,3.07,0],"scale":[0.12,5.9,0.12]},{"name":"light-head-0","mesh":17,"translation":[-5.236,6.25,0],"scale":[1,0.18,0.28]},{"name":"minimum-sign-back","mesh":8,"translation":[4.1888,2,8.12],"scale":[3.9,1.1,1]},{"name":"minimum-sign","mesh":9,"translation":[4.1888,2,8.149],"scale":[3.8,1,1]},{"name":"site-pad","mesh":10,"translation":[0,0.06,0],"scale":[15.5584,0.12,16.4736]},{"name":"variant-apron","mesh":11,"translation":[2.9172,0.13,8.14],"scale":[3.2912,0.08,1.34]},{"name":"bollard-0","mesh":12,"translation":[-5.6848,0.43,8.26],"scale":[0.08,0.74,0.08]},{"name":"layout-cabinet","mesh":13,"translation":[7.68,0.495,3.564],"scale":[0.81,0.75,0.32]},{"name":"parking-field","mesh":14,"translation":[0,0.2,0],"scale":[14.96,0.12,15.84]},{"name":"stripe-0-0","mesh":15,"translation":[-5.984,0.275,-5.7024],"rotation":[0,0.049979,0,0.99875],"scale":[0.07,0.025,2.7]},{"name":"stripe-0-1","mesh":15,"translation":[0,0.275,-5.7024],"rotation":[0,0.049979,0,0.99875],"scale":[0.07,0.025,2.7]},{"name":"stripe-0-2","mesh":15,"translation":[5.984,0.275,-5.7024],"rotation":[0,0.049979,0,0.99875],"scale":[0.07,0.025,2.7]},{"name":"stripe-1-0","mesh":15,"translation":[-5.984,0.275,5.7024],"rotation":[0,0.049979,0,0.99875],"scale":[0.07,0.025,2.7]},{"name":"stripe-1-1","mesh":15,"translation":[0,0.275,5.7024],"rotation":[0,0.049979,0,0.99875],"scale":[0.07,0.025,2.7]},{"name":"stripe-1-2","mesh":15,"translation":[5.984,0.275,5.7024],"rotation":[0,0.049979,0,0.99875],"scale":[0.07,0.025,2.7]},{"name":"light-pole-0","mesh":16,"translation":[-5.236,3.07,0],"scale":[0.12,5.9,0.12]},{"name":"light-head-0","mesh":17,"translation":[-5.236,6.25,0],"scale":[1,0.18,0.28]},{"name":"minimum-sign-back","mesh":8,"translation":[4.1888,2,8.12],"scale":[3.9,1.1,1]},{"name":"minimum-sign","mesh":9,"translation":[4.1888,2,8.149],"scale":[3.8,1,1]}],"meshes":[{"primitives":[{"attributes":{"POSITION":0,"NORMAL":1,"TEXCOORD_0":2},"material":0,"mode":4}]},{"primitives":[{"attributes":{"POSITION":0,"NORMAL":1,"TEXCOORD_0":3},"material":0,"mode":4}]},{"primitives":[{"attributes":{"POSITION":4,"NORMAL":5,"TEXCOORD_0":6},"material":1,"mode":4,"indices":7}]},{"primitives":[{"attributes":{"POSITION":0,"NORMAL":1,"TEXCOORD_0":8},"material":2,"mode":4}]},{"primitives":[{"attributes":{"POSITION":0,"NORMAL":1,"TEXCOORD_0":9},"material":0,"mode":4}]},{"primitives":[{"attributes":{"POSITION":0,"NORMAL":1,"TEXCOORD_0":10},"material":3,"mode":4}]},{"primitives":[{"attributes":{"POSITION":11,"NORMAL":12,"TEXCOORD_0":13},"material":4,"mode":4,"indices":7}]},{"primitives":[{"attributes":{"POSITION":0,"NORMAL":1,"TEXCOORD_0":14},"material":3,"mode":4}]},{"primitives":[{"attributes":{"POSITION":15,"NORMAL":16,"TEXCOORD_0":17},"material":4,"mode":4,"indices":18}]},{"primitives":[{"attributes":{"POSITION":19,"NORMAL":20,"TEXCOORD_0":21},"material":5,"mode":4,"indices":22}]},{"primitives":[{"attributes":{"POSITION":23,"NORMAL":16,"TEXCOORD_0":24},"material":0,"mode":4,"indices":18}]},{"primitives":[{"attributes":{"POSITION":23,"NORMAL":16,"TEXCOORD_0":25},"material":0,"mode":4,"indices":18}]},{"primitives":[{"attributes":{"POSITION":26,"NORMAL":27,"TEXCOORD_0":28},"material":1,"mode":4,"indices":29}]},{"primitives":[{"attributes":{"POSITION":23,"NORMAL":16,"TEXCOORD_0":30},"material":2,"mode":4,"indices":18}]},{"primitives":[{"attributes":{"POSITION":23,"NORMAL":16,"TEXCOORD_0":31},"material":0,"mode":4,"indices":18}]},{"primitives":[{"attributes":{"POSITION":23,"NORMAL":16,"TEXCOORD_0":32},"material":3,"mode":4,"indices":18}]},{"primitives":[{"attributes":{"POSITION":33,"NORMAL":34,"TEXCOORD_0":35},"material":4,"mode":4,"indices":29}]},{"primitives":[{"attributes":{"POSITION":23,"NORMAL":16,"TEXCOORD_0":36},"material":3,"mode":4,"indices":18}]}],"materials":[{"name":"asphalt","pbrMetallicRoughness":{"baseColorTexture":{"index":0},"metallicRoughnessTexture":{"index":2},"roughnessFactor":1,"metallicFactor":1},"normalTexture":{"index":1,"scale":0.62},"occlusionTexture":{"index":2,"strength":0.35}},{"name":"paint-yellow","pbrMetallicRoughness":{"baseColorFactor":[0.76052450467022,0.4793201830913402,0.07818742179702069,1],"roughnessFactor":0.66,"metallicFactor":0.03}},{"name":"metal-galvanized","pbrMetallicRoughness":{"baseColorTexture":{"index":3},"metallicRoughnessTexture":{"index":5},"roughnessFactor":1,"metallicFactor":1},"normalTexture":{"index":4,"scale":0.15},"occlusionTexture":{"index":5,"strength":0.35}},{"name":"paint-white","pbrMetallicRoughness":{"baseColorFactor":[0.7912979403281551,0.7681511472425809,0.6795424696265424,1],"roughnessFactor":0.68,"metallicFactor":0}},{"name":"metal-dark","pbrMetallicRoughness":{"baseColorTexture":{"index":6},"metallicRoughnessTexture":{"index":8},"roughnessFactor":1,"metallicFactor":1},"normalTexture":{"index":7,"scale":0.35},"occlusionTexture":{"index":8,"strength":0.35}},{"name":"surface-parking-empire signage","pbrMetallicRoughness":{"baseColorTexture":{"index":9},"roughnessFactor":1,"metallicFactor":0},"extensions":{"KHR_materials_unlit":{}}}],"textures":[{"source":0,"sampler":0},{"source":1,"sampler":0},{"source":2,"sampler":0},{"source":3,"sampler":0},{"source":4,"sampler":0},{"source":5,"sampler":0},{"source":6,"sampler":0},{"source":7,"sampler":0},{"source":8,"sampler":0},{"source":9,"sampler":0}],"images":[{"uri":"../textures/asphalt-albedo.png"},{"uri":"../textures/asphalt-normal.png"},{"uri":"../textures/asphalt-orm.png"},{"uri":"../textures/metal-galvanized-albedo.png"},{"uri":"../textures/metal-galvanized-normal.png"},{"uri":"../textures/metal-galvanized-orm.png"},{"uri":"../textures/metal-dark-albedo.png"},{"uri":"../textures/metal-dark-normal.png"},{"uri":"../textures/metal-dark-orm.png"},{"uri":"../signs/surface-parking-empire.png"}],"samplers":[{"magFilter":9729,"minFilter":9987,"wrapS":10497,"wrapT":10497}],"buffers":[{"uri":"../shared/geometry.bin","byteLength":16435520}],"bufferViews":[{"buffer":0,"byteOffset":0,"byteLength":3888,"target":34962},{"buffer":0,"byteOffset":3888,"byteLength":3888,"target":34962},{"buffer":0,"byteOffset":14246340,"byteLength":2592,"target":34962},{"buffer":0,"byteOffset":11538512,"byteLength":2592,"target":34962},{"buffer":0,"byteOffset":12960,"byteLength":1200,"target":34962},{"buffer":0,"byteOffset":14160,"byteLength":1200,"target":34962},{"buffer":0,"byteOffset":179140,"byteLength":800,"target":34962},{"buffer":0,"byteOffset":16160,"byteLength":384,"target":34963},{"buffer":0,"byteOffset":179940,"byteLength":2592,"target":34962},{"buffer":0,"byteOffset":14248932,"byteLength":2592,"target":34962},{"buffer":0,"byteOffset":14122500,"byteLength":2592,"target":34962},{"buffer":0,"byteOffset":14125092,"byteLength":1200,"target":34962},{"buffer":0,"byteOffset":14126292,"byteLength":1200,"target":34962},{"buffer":0,"byteOffset":14251524,"byteLength":800,"target":34962},{"buffer":0,"byteOffset":14128292,"byteLength":2592,"target":34962},{"buffer":0,"byteOffset":45664,"byteLength":288,"target":34962},{"buffer":0,"byteOffset":45952,"byteLength":288,"target":34962},{"buffer":0,"byteOffset":46240,"byteLength":192,"target":34962},{"buffer":0,"byteOffset":46432,"byteLength":72,"target":34963},{"buffer":0,"byteOffset":46504,"byteLength":48,"target":34962},{"buffer":0,"byteOffset":46552,"byteLength":48,"target":34962},{"buffer":0,"byteOffset":182532,"byteLength":32,"target":34962},{"buffer":0,"byteOffset":46632,"byteLength":12,"target":34963},{"buffer":0,"byteOffset":46644,"byteLength":288,"target":34962},{"buffer":0,"byteOffset":14252324,"byteLength":192,"target":34962},{"buffer":0,"byteOffset":11543696,"byteLength":192,"target":34962},{"buffer":0,"byteOffset":47316,"byteLength":480,"target":34962},{"buffer":0,"byteOffset":47796,"byteLength":480,"target":34962},{"buffer":0,"byteOffset":182756,"byteLength":320,"target":34962},{"buffer":0,"byteOffset":48596,"byteLength":144,"target":34963},{"buffer":0,"byteOffset":183076,"byteLength":192,"target":34962},{"buffer":0,"byteOffset":14252516,"byteLength":192,"target":34962},{"buffer":0,"byteOffset":14131076,"byteLength":192,"target":34962},{"buffer":0,"byteOffset":14131268,"byteLength":480,"target":34962},{"buffer":0,"byteOffset":14131748,"byteLength":480,"target":34962},{"buffer":0,"byteOffset":14252708,"byteLength":320,"target":34962},{"buffer":0,"byteOffset":14132548,"byteLength":192,"target":34962}],"accessors":[{"bufferView":0,"componentType":5126,"count":324,"type":"VEC3","min":[-0.5,-0.5,-0.5],"max":[0.5,0.5,0.5]},{"bufferView":1,"componentType":5126,"count":324,"type":"VEC3"},{"bufferView":2,"componentType":5126,"count":324,"type":"VEC2"},{"bufferView":3,"componentType":5126,"count":324,"type":"VEC2"},{"bufferView":4,"componentType":5126,"count":100,"type":"VEC3","min":[-1,-0.5,-1],"max":[1,0.5,1]},{"bufferView":5,"componentType":5126,"count":100,"type":"VEC3"},{"bufferView":6,"componentType":5126,"count":100,"type":"VEC2"},{"bufferView":7,"componentType":5123,"count":192,"type":"SCALAR"},{"bufferView":8,"componentType":5126,"count":324,"type":"VEC2"},{"bufferView":9,"componentType":5126,"count":324,"type":"VEC2"},{"bufferView":10,"componentType":5126,"count":324,"type":"VEC2"},{"bufferView":11,"componentType":5126,"count":100,"type":"VEC3","min":[-1,-0.5,-1],"max":[1,0.5,1]},{"bufferView":12,"componentType":5126,"count":100,"type":"VEC3"},{"bufferView":13,"componentType":5126,"count":100,"type":"VEC2"},{"bufferView":14,"componentType":5126,"count":324,"type":"VEC2"},{"bufferView":15,"componentType":5126,"count":24,"type":"VEC3","min":[-0.5,-0.5,-0.02500000037252903],"max":[0.5,0.5,0.02500000037252903]},{"bufferView":16,"componentType":5126,"count":24,"type":"VEC3"},{"bufferView":17,"componentType":5126,"count":24,"type":"VEC2"},{"bufferView":18,"componentType":5123,"count":36,"type":"SCALAR"},{"bufferView":19,"componentType":5126,"count":4,"type":"VEC3","min":[-0.5,-0.5,0],"max":[0.5,0.5,0]},{"bufferView":20,"componentType":5126,"count":4,"type":"VEC3"},{"bufferView":21,"componentType":5126,"count":4,"type":"VEC2"},{"bufferView":22,"componentType":5123,"count":6,"type":"SCALAR"},{"bufferView":23,"componentType":5126,"count":24,"type":"VEC3","min":[-0.5,-0.5,-0.5],"max":[0.5,0.5,0.5]},{"bufferView":24,"componentType":5126,"count":24,"type":"VEC2"},{"bufferView":25,"componentType":5126,"count":24,"type":"VEC2"},{"bufferView":26,"componentType":5126,"count":40,"type":"VEC3","min":[-0.8660253882408142,-0.5,-1],"max":[0.8660253882408142,0.5,1]},{"bufferView":27,"componentType":5126,"count":40,"type":"VEC3"},{"bufferView":28,"componentType":5126,"count":40,"type":"VEC2"},{"bufferView":29,"componentType":5123,"count":72,"type":"SCALAR"},{"bufferView":30,"componentType":5126,"count":24,"type":"VEC2"},{"bufferView":31,"componentType":5126,"count":24,"type":"VEC2"},{"bufferView":32,"componentType":5126,"count":24,"type":"VEC2"},{"bufferView":33,"componentType":5126,"count":40,"type":"VEC3","min":[-0.8660253882408142,-0.5,-1],"max":[0.8660253882408142,0.5,1]},{"bufferView":34,"componentType":5126,"count":40,"type":"VEC3"},{"bufferView":35,"componentType":5126,"count":40,"type":"VEC2"},{"bufferView":36,"componentType":5126,"count":24,"type":"VEC2"}],"extensionsUsed":["KHR_materials_unlit"],"extras":{"id":"vlt-surface-parking-empire-16","family":"surface-parking-empire","variant":15,"plan":"D1-1","units":"metres","up":"+Y","front":"+Z","lodScenes":[0,1,2]}}