{"asset":{"version":"2.0","generator":"SLOPMERICA Department of Unnecessary Development 1.0"},"scene":0,"scenes":[{"name":"LOD 0","nodes":[0,1,2,3,4,5,6,7,8,9,10,11,12,13,14,15,16,17],"extras":{"level":0}},{"name":"LOD 1","nodes":[18,19,20,21,22,23,24,25,26,27,28,29,30,31,32,33,34,35],"extras":{"level":1}},{"name":"LOD 2","nodes":[36,37,38,39,40,41,42,43,44,45,46],"extras":{"level":2}}],"nodes":[{"name":"site-pad","mesh":0,"translation":[0,0.06,0],"scale":[19.8016,0.12,10.4832]},{"name":"variant-apron","mesh":1,"translation":[-1.2376,0.13,5.26],"scale":[5.6168,0.08,0.98]},{"name":"bollard-0","mesh":2,"translation":[-7.2352,0.43,5.38],"scale":[0.08,0.66,0.08]},{"name":"bollard-1","mesh":2,"translation":[-2.411733,0.43,5.38],"scale":[0.08,0.66,0.08]},{"name":"bollard-2","mesh":2,"translation":[2.411733,0.43,5.38],"scale":[0.08,0.66,0.08]},{"name":"bollard-3","mesh":2,"translation":[7.2352,0.43,5.38],"scale":[0.08,0.66,0.08]},{"name":"layout-cabinet","mesh":3,"translation":[9.72,0.585,-0.756],"scale":[0.57,0.93,0.32]},{"name":"deferred-maintenance-skip","mesh":4,"translation":[-6.4736,0.5,-4.4352],"scale":[1.51,0.75,0.65]},{"name":"skip-rubble","mesh":5,"translation":[-6.4736,0.98,-4.4352],"rotation":[0,0.099833,0,0.995004],"scale":[0.72,0.2,0.5]},{"name":"berm","mesh":6,"translation":[0,0.45,0],"scale":[19.04,0.7,10.08]},{"name":"pond-water","mesh":7,"translation":[0.7616,0.84,0],"scale":[15.6128,0.08,7.56]},{"name":"inlet-0","mesh":8,"translation":[-5.712,1.15,-4.2336],"rotation":[0.707107,0,0,0.707107],"scale":[0.32,2.4,0.32]},{"name":"inlet-1","mesh":8,"translation":[-4.712,1.15,-4.2336],"rotation":[0.707107,0,0,0.707107],"scale":[0.32,2.4,0.32]},{"name":"inlet-2","mesh":8,"translation":[-3.712,1.15,-4.2336],"rotation":[0.707107,0,0,0.707107],"scale":[0.32,2.4,0.32]},{"name":"inlet-3","mesh":8,"translation":[-2.712,1.15,-4.2336],"rotation":[0.707107,0,0,0.707107],"scale":[0.32,2.4,0.32]},{"name":"control-box","mesh":9,"translation":[6.0928,1.38,2.52],"scale":[1.4,1.46,1.2]},{"name":"serenity-sign-back","mesh":10,"translation":[0,2,5.34],"scale":[3.2,0.95,1]},{"name":"serenity-sign","mesh":11,"translation":[0,2,5.369],"scale":[3.1,0.85,1]},{"name":"site-pad","mesh":12,"translation":[0,0.06,0],"scale":[19.8016,0.12,10.4832]},{"name":"variant-apron","mesh":13,"translation":[-1.2376,0.13,5.26],"scale":[5.6168,0.08,0.98]},{"name":"bollard-0","mesh":14,"translation":[-7.2352,0.43,5.38],"scale":[0.08,0.66,0.08]},{"name":"bollard-1","mesh":14,"translation":[-2.411733,0.43,5.38],"scale":[0.08,0.66,0.08]},{"name":"bollard-2","mesh":14,"translation":[2.411733,0.43,5.38],"scale":[0.08,0.66,0.08]},{"name":"bollard-3","mesh":14,"translation":[7.2352,0.43,5.38],"scale":[0.08,0.66,0.08]},{"name":"layout-cabinet","mesh":15,"translation":[9.72,0.585,-0.756],"scale":[0.57,0.93,0.32]},{"name":"deferred-maintenance-skip","mesh":16,"translation":[-6.4736,0.5,-4.4352],"scale":[1.51,0.75,0.65]},{"name":"skip-rubble","mesh":17,"translation":[-6.4736,0.98,-4.4352],"rotation":[0,0.099833,0,0.995004],"scale":[0.72,0.2,0.5]},{"name":"berm","mesh":18,"translation":[0,0.45,0],"scale":[19.04,0.7,10.08]},{"name":"pond-water","mesh":19,"translation":[0.7616,0.84,0],"scale":[15.6128,0.08,7.56]},{"name":"inlet-0","mesh":20,"translation":[-5.712,1.15,-4.2336],"rotation":[0.707107,0,0,0.707107],"scale":[0.32,2.4,0.32]},{"name":"inlet-1","mesh":20,"translation":[-4.712,1.15,-4.2336],"rotation":[0.707107,0,0,0.707107],"scale":[0.32,2.4,0.32]},{"name":"inlet-2","mesh":20,"translation":[-3.712,1.15,-4.2336],"rotation":[0.707107,0,0,0.707107],"scale":[0.32,2.4,0.32]},{"name":"inlet-3","mesh":20,"translation":[-2.712,1.15,-4.2336],"rotation":[0.707107,0,0,0.707107],"scale":[0.32,2.4,0.32]},{"name":"control-box","mesh":21,"translation":[6.0928,1.38,2.52],"scale":[1.4,1.46,1.2]},{"name":"serenity-sign-back","mesh":10,"translation":[0,2,5.34],"scale":[3.2,0.95,1]},{"name":"serenity-sign","mesh":11,"translation":[0,2,5.369],"scale":[3.1,0.85,1]},{"name":"site-pad","mesh":12,"translation":[0,0.06,0],"scale":[19.8016,0.12,10.4832]},{"name":"variant-apron","mesh":13,"translation":[-1.2376,0.13,5.26],"scale":[5.6168,0.08,0.98]},{"name":"bollard-0","mesh":14,"translation":[-7.2352,0.43,5.38],"scale":[0.08,0.66,0.08]},{"name":"layout-cabinet","mesh":15,"translation":[9.72,0.585,-0.756],"scale":[0.57,0.93,0.32]},{"name":"deferred-maintenance-skip","mesh":16,"translation":[-6.4736,0.5,-4.4352],"scale":[1.51,0.75,0.65]},{"name":"berm","mesh":18,"translation":[0,0.45,0],"scale":[19.04,0.7,10.08]},{"name":"pond-water","mesh":19,"translation":[0.7616,0.84,0],"scale":[15.6128,0.08,7.56]},{"name":"inlet-0","mesh":20,"translation":[-5.712,1.15,-4.2336],"rotation":[0.707107,0,0,0.707107],"scale":[0.32,2.4,0.32]},{"name":"control-box","mesh":21,"translation":[6.0928,1.38,2.52],"scale":[1.4,1.46,1.2]},{"name":"serenity-sign-back","mesh":10,"translation":[0,2,5.34],"scale":[3.2,0.95,1]},{"name":"serenity-sign","mesh":11,"translation":[0,2,5.369],"scale":[3.1,0.85,1]}],"meshes":[{"primitives":[{"attributes":{"POSITION":0,"NORMAL":1,"TEXCOORD_0":2},"material":0,"mode":4}]},{"primitives":[{"attributes":{"POSITION":0,"NORMAL":1,"TEXCOORD_0":3},"material":1,"mode":4}]},{"primitives":[{"attributes":{"POSITION":4,"NORMAL":5,"TEXCOORD_0":6},"material":2,"mode":4,"indices":7}]},{"primitives":[{"attributes":{"POSITION":0,"NORMAL":1,"TEXCOORD_0":8},"material":3,"mode":4}]},{"primitives":[{"attributes":{"POSITION":0,"NORMAL":1,"TEXCOORD_0":9},"material":2,"mode":4}]},{"primitives":[{"attributes":{"POSITION":0,"NORMAL":1,"TEXCOORD_0":10},"material":0,"mode":4}]},{"primitives":[{"attributes":{"POSITION":0,"NORMAL":1,"TEXCOORD_0":11},"material":4,"mode":4}]},{"primitives":[{"attributes":{"POSITION":0,"NORMAL":1,"TEXCOORD_0":12},"material":5,"mode":4}]},{"primitives":[{"attributes":{"POSITION":13,"NORMAL":14,"TEXCOORD_0":15},"material":0,"mode":4,"indices":7}]},{"primitives":[{"attributes":{"POSITION":16,"NORMAL":1,"TEXCOORD_0":17},"material":3,"mode":4}]},{"primitives":[{"attributes":{"POSITION":18,"NORMAL":19,"TEXCOORD_0":20},"material":6,"mode":4,"indices":21}]},{"primitives":[{"attributes":{"POSITION":22,"NORMAL":23,"TEXCOORD_0":24},"material":7,"mode":4,"indices":25}]},{"primitives":[{"attributes":{"POSITION":26,"NORMAL":19,"TEXCOORD_0":27},"material":0,"mode":4,"indices":21}]},{"primitives":[{"attributes":{"POSITION":26,"NORMAL":19,"TEXCOORD_0":28},"material":1,"mode":4,"indices":21}]},{"primitives":[{"attributes":{"POSITION":29,"NORMAL":30,"TEXCOORD_0":31},"material":2,"mode":4,"indices":32}]},{"primitives":[{"attributes":{"POSITION":26,"NORMAL":19,"TEXCOORD_0":33},"material":3,"mode":4,"indices":21}]},{"primitives":[{"attributes":{"POSITION":26,"NORMAL":19,"TEXCOORD_0":34},"material":2,"mode":4,"indices":21}]},{"primitives":[{"attributes":{"POSITION":26,"NORMAL":19,"TEXCOORD_0":35},"material":0,"mode":4,"indices":21}]},{"primitives":[{"attributes":{"POSITION":26,"NORMAL":19,"TEXCOORD_0":36},"material":4,"mode":4,"indices":21}]},{"primitives":[{"attributes":{"POSITION":26,"NORMAL":19,"TEXCOORD_0":37},"material":5,"mode":4,"indices":21}]},{"primitives":[{"attributes":{"POSITION":38,"NORMAL":39,"TEXCOORD_0":40},"material":0,"mode":4,"indices":32}]},{"primitives":[{"attributes":{"POSITION":26,"NORMAL":19,"TEXCOORD_0":41},"material":3,"mode":4,"indices":21}]}],"materials":[{"name":"concrete","pbrMetallicRoughness":{"baseColorTexture":{"index":0},"metallicRoughnessTexture":{"index":2},"roughnessFactor":1,"metallicFactor":1},"normalTexture":{"index":1,"scale":0.82},"occlusionTexture":{"index":2,"strength":0.35}},{"name":"asphalt","pbrMetallicRoughness":{"baseColorTexture":{"index":3},"metallicRoughnessTexture":{"index":5},"roughnessFactor":1,"metallicFactor":1},"normalTexture":{"index":4,"scale":0.62},"occlusionTexture":{"index":5,"strength":0.35}},{"name":"paint-orange","pbrMetallicRoughness":{"baseColorFactor":[0.6444796819634361,0.1878207722902346,0.040915196900556984,1],"roughnessFactor":0.68,"metallicFactor":0.03}},{"name":"metal-galvanized","pbrMetallicRoughness":{"baseColorTexture":{"index":6},"metallicRoughnessTexture":{"index":8},"roughnessFactor":1,"metallicFactor":1},"normalTexture":{"index":7,"scale":0.15},"occlusionTexture":{"index":8,"strength":0.35}},{"name":"soil","pbrMetallicRoughness":{"baseColorTexture":{"index":9},"metallicRoughnessTexture":{"index":11},"roughnessFactor":1,"metallicFactor":1},"normalTexture":{"index":10,"scale":0.8},"occlusionTexture":{"index":11,"strength":0.35}},{"name":"glass-blue","pbrMetallicRoughness":{"baseColorTexture":{"index":12},"metallicRoughnessTexture":{"index":14},"roughnessFactor":1,"metallicFactor":1},"normalTexture":{"index":13,"scale":0.12},"occlusionTexture":{"index":14,"strength":0.35}},{"name":"metal-dark","pbrMetallicRoughness":{"baseColorTexture":{"index":15},"metallicRoughnessTexture":{"index":17},"roughnessFactor":1,"metallicFactor":1},"normalTexture":{"index":16,"scale":0.35},"occlusionTexture":{"index":17,"strength":0.35}},{"name":"retention-pond-office signage","pbrMetallicRoughness":{"baseColorTexture":{"index":18},"roughnessFactor":1,"metallicFactor":0},"extensions":{"KHR_materials_unlit":{}}}],"textures":[{"source":0,"sampler":0},{"source":1,"sampler":0},{"source":2,"sampler":0},{"source":3,"sampler":0},{"source":4,"sampler":0},{"source":5,"sampler":0},{"source":6,"sampler":0},{"source":7,"sampler":0},{"source":8,"sampler":0},{"source":9,"sampler":0},{"source":10,"sampler":0},{"source":11,"sampler":0},{"source":12,"sampler":0},{"source":13,"sampler":0},{"source":14,"sampler":0},{"source":15,"sampler":0},{"source":16,"sampler":0},{"source":17,"sampler":0},{"source":18,"sampler":0}],"images":[{"uri":"../textures/concrete-albedo.png"},{"uri":"../textures/concrete-normal.png"},{"uri":"../textures/concrete-orm.png"},{"uri":"../textures/asphalt-albedo.png"},{"uri":"../textures/asphalt-normal.png"},{"uri":"../textures/asphalt-orm.png"},{"uri":"../textures/metal-galvanized-albedo.png"},{"uri":"../textures/metal-galvanized-normal.png"},{"uri":"../textures/metal-galvanized-orm.png"},{"uri":"../textures/soil-albedo.png"},{"uri":"../textures/soil-normal.png"},{"uri":"../textures/soil-orm.png"},{"uri":"../textures/glass-blue-albedo.png"},{"uri":"../textures/glass-blue-normal.png"},{"uri":"../textures/glass-blue-orm.png"},{"uri":"../textures/metal-dark-albedo.png"},{"uri":"../textures/metal-dark-normal.png"},{"uri":"../textures/metal-dark-orm.png"},{"uri":"../signs/retention-pond-office.png"}],"samplers":[{"magFilter":9729,"minFilter":9987,"wrapS":10497,"wrapT":10497}],"buffers":[{"uri":"../shared/geometry.bin","byteLength":16435520}],"bufferViews":[{"buffer":0,"byteOffset":0,"byteLength":3888,"target":34962},{"buffer":0,"byteOffset":3888,"byteLength":3888,"target":34962},{"buffer":0,"byteOffset":12025404,"byteLength":2592,"target":34962},{"buffer":0,"byteOffset":11516240,"byteLength":2592,"target":34962},{"buffer":0,"byteOffset":12960,"byteLength":1200,"target":34962},{"buffer":0,"byteOffset":14160,"byteLength":1200,"target":34962},{"buffer":0,"byteOffset":120900,"byteLength":800,"target":34962},{"buffer":0,"byteOffset":16160,"byteLength":384,"target":34963},{"buffer":0,"byteOffset":138820,"byteLength":2592,"target":34962},{"buffer":0,"byteOffset":216900,"byteLength":2592,"target":34962},{"buffer":0,"byteOffset":208260,"byteLength":2592,"target":34962},{"buffer":0,"byteOffset":12027996,"byteLength":2592,"target":34962},{"buffer":0,"byteOffset":12030588,"byteLength":2592,"target":34962},{"buffer":0,"byteOffset":1101304,"byteLength":1200,"target":34962},{"buffer":0,"byteOffset":1102504,"byteLength":1200,"target":34962},{"buffer":0,"byteOffset":12006812,"byteLength":800,"target":34962},{"buffer":0,"byteOffset":4885320,"byteLength":3888,"target":34962},{"buffer":0,"byteOffset":11979164,"byteLength":2592,"target":34962},{"buffer":0,"byteOffset":45664,"byteLength":288,"target":34962},{"buffer":0,"byteOffset":45952,"byteLength":288,"target":34962},{"buffer":0,"byteOffset":46240,"byteLength":192,"target":34962},{"buffer":0,"byteOffset":46432,"byteLength":72,"target":34963},{"buffer":0,"byteOffset":46504,"byteLength":48,"target":34962},{"buffer":0,"byteOffset":46552,"byteLength":48,"target":34962},{"buffer":0,"byteOffset":222628,"byteLength":32,"target":34962},{"buffer":0,"byteOffset":46632,"byteLength":12,"target":34963},{"buffer":0,"byteOffset":46644,"byteLength":288,"target":34962},{"buffer":0,"byteOffset":12033180,"byteLength":192,"target":34962},{"buffer":0,"byteOffset":11518832,"byteLength":192,"target":34962},{"buffer":0,"byteOffset":47316,"byteLength":480,"target":34962},{"buffer":0,"byteOffset":47796,"byteLength":480,"target":34962},{"buffer":0,"byteOffset":124516,"byteLength":320,"target":34962},{"buffer":0,"byteOffset":48596,"byteLength":144,"target":34963},{"buffer":0,"byteOffset":141636,"byteLength":192,"target":34962},{"buffer":0,"byteOffset":219524,"byteLength":192,"target":34962},{"buffer":0,"byteOffset":211076,"byteLength":192,"target":34962},{"buffer":0,"byteOffset":12033372,"byteLength":192,"target":34962},{"buffer":0,"byteOffset":12033564,"byteLength":192,"target":34962},{"buffer":0,"byteOffset":1112312,"byteLength":480,"target":34962},{"buffer":0,"byteOffset":1112792,"byteLength":480,"target":34962},{"buffer":0,"byteOffset":12008380,"byteLength":320,"target":34962},{"buffer":0,"byteOffset":11982332,"byteLength":192,"target":34962}],"accessors":[{"bufferView":0,"componentType":5126,"count":324,"type":"VEC3","min":[-0.5,-0.5,-0.5],"max":[0.5,0.5,0.5]},{"bufferView":1,"componentType":5126,"count":324,"type":"VEC3"},{"bufferView":2,"componentType":5126,"count":324,"type":"VEC2"},{"bufferView":3,"componentType":5126,"count":324,"type":"VEC2"},{"bufferView":4,"componentType":5126,"count":100,"type":"VEC3","min":[-1,-0.5,-1],"max":[1,0.5,1]},{"bufferView":5,"componentType":5126,"count":100,"type":"VEC3"},{"bufferView":6,"componentType":5126,"count":100,"type":"VEC2"},{"bufferView":7,"componentType":5123,"count":192,"type":"SCALAR"},{"bufferView":8,"componentType":5126,"count":324,"type":"VEC2"},{"bufferView":9,"componentType":5126,"count":324,"type":"VEC2"},{"bufferView":10,"componentType":5126,"count":324,"type":"VEC2"},{"bufferView":11,"componentType":5126,"count":324,"type":"VEC2"},{"bufferView":12,"componentType":5126,"count":324,"type":"VEC2"},{"bufferView":13,"componentType":5126,"count":100,"type":"VEC3","min":[-1,-0.5,-1],"max":[1,0.5,1]},{"bufferView":14,"componentType":5126,"count":100,"type":"VEC3"},{"bufferView":15,"componentType":5126,"count":100,"type":"VEC2"},{"bufferView":16,"componentType":5126,"count":324,"type":"VEC3","min":[-0.5,-0.5,-0.5],"max":[0.5,0.5,0.5]},{"bufferView":17,"componentType":5126,"count":324,"type":"VEC2"},{"bufferView":18,"componentType":5126,"count":24,"type":"VEC3","min":[-0.5,-0.5,-0.02500000037252903],"max":[0.5,0.5,0.02500000037252903]},{"bufferView":19,"componentType":5126,"count":24,"type":"VEC3"},{"bufferView":20,"componentType":5126,"count":24,"type":"VEC2"},{"bufferView":21,"componentType":5123,"count":36,"type":"SCALAR"},{"bufferView":22,"componentType":5126,"count":4,"type":"VEC3","min":[-0.5,-0.5,0],"max":[0.5,0.5,0]},{"bufferView":23,"componentType":5126,"count":4,"type":"VEC3"},{"bufferView":24,"componentType":5126,"count":4,"type":"VEC2"},{"bufferView":25,"componentType":5123,"count":6,"type":"SCALAR"},{"bufferView":26,"componentType":5126,"count":24,"type":"VEC3","min":[-0.5,-0.5,-0.5],"max":[0.5,0.5,0.5]},{"bufferView":27,"componentType":5126,"count":24,"type":"VEC2"},{"bufferView":28,"componentType":5126,"count":24,"type":"VEC2"},{"bufferView":29,"componentType":5126,"count":40,"type":"VEC3","min":[-0.8660253882408142,-0.5,-1],"max":[0.8660253882408142,0.5,1]},{"bufferView":30,"componentType":5126,"count":40,"type":"VEC3"},{"bufferView":31,"componentType":5126,"count":40,"type":"VEC2"},{"bufferView":32,"componentType":5123,"count":72,"type":"SCALAR"},{"bufferView":33,"componentType":5126,"count":24,"type":"VEC2"},{"bufferView":34,"componentType":5126,"count":24,"type":"VEC2"},{"bufferView":35,"componentType":5126,"count":24,"type":"VEC2"},{"bufferView":36,"componentType":5126,"count":24,"type":"VEC2"},{"bufferView":37,"componentType":5126,"count":24,"type":"VEC2"},{"bufferView":38,"componentType":5126,"count":40,"type":"VEC3","min":[-0.8660253882408142,-0.5,-1],"max":[0.8660253882408142,0.5,1]},{"bufferView":39,"componentType":5126,"count":40,"type":"VEC3"},{"bufferView":40,"componentType":5126,"count":40,"type":"VEC2"},{"bufferView":41,"componentType":5126,"count":24,"type":"VEC2"}],"extensionsUsed":["KHR_materials_unlit"],"extras":{"id":"vlt-retention-pond-office-29","family":"retention-pond-office","variant":28,"plan":"B4-2","units":"metres","up":"+Y","front":"+Z","lodScenes":[0,1,2]}}