{"asset":{"version":"2.0","generator":"SLOPMERICA Department of Unnecessary Development 1.0"},"scene":0,"scenes":[{"name":"LOD 0","nodes":[0,1,2,3,4,5,6,7,8,9,10,11,12,13,14,15,16,17,18,19],"extras":{"level":0}},{"name":"LOD 1","nodes":[20,21,22,23,24,25,26,27,28,29,30,31,32,33,34,35,36,37,38,39],"extras":{"level":1}},{"name":"LOD 2","nodes":[40,41,42,43,44,45,46,47,48,49,50],"extras":{"level":2}}],"nodes":[{"name":"site-pad","mesh":0,"translation":[0,0.06,0],"scale":[13.728,0.12,7.28]},{"name":"variant-apron","mesh":1,"translation":[-2.574,0.13,3.72],"scale":[4.224,0.08,0.8]},{"name":"bollard-0","mesh":2,"translation":[-5.016,0.43,3.84],"scale":[0.08,0.62,0.08]},{"name":"bollard-1","mesh":2,"translation":[-2.508,0.43,3.84],"scale":[0.08,0.62,0.08]},{"name":"bollard-2","mesh":2,"translation":[0,0.43,3.84],"scale":[0.08,0.62,0.08]},{"name":"bollard-3","mesh":2,"translation":[2.508,0.43,3.84],"scale":[0.08,0.62,0.08]},{"name":"bollard-4","mesh":2,"translation":[5.016,0.43,3.84],"scale":[0.08,0.62,0.08]},{"name":"layout-cabinet","mesh":3,"translation":[-6.8,0.615,-1.575],"scale":[0.45,0.99,0.32]},{"name":"deferred-maintenance-skip","mesh":4,"translation":[4.488,0.5,-3.08],"scale":[1.63,0.75,0.65]},{"name":"skip-rubble","mesh":5,"translation":[4.488,0.98,-3.08],"scale":[0.72,0.2,0.5]},{"name":"outfall-headwall","mesh":6,"translation":[0,1.9,-1.96],"scale":[13.2,3.6,1]},{"name":"outfall-pipe-0","mesh":7,"translation":[-2,1.15,0.2],"rotation":[0.707107,0,0,0.707107],"scale":[0.72,4.55,0.72]},{"name":"outfall-rim-0","mesh":8,"translation":[-2,1.15,3.64],"rotation":[0.707107,0,0,0.707107]},{"name":"outfall-pipe-1","mesh":7,"translation":[0,1.15,0.2],"rotation":[0.707107,0,0,0.707107],"scale":[0.72,4.55,0.72]},{"name":"outfall-rim-1","mesh":8,"translation":[0,1.15,3.64],"rotation":[0.707107,0,0,0.707107]},{"name":"outfall-pipe-2","mesh":7,"translation":[2,1.15,0.2],"rotation":[0.707107,0,0,0.707107],"scale":[0.72,4.55,0.72]},{"name":"outfall-rim-2","mesh":8,"translation":[2,1.15,3.64],"rotation":[0.707107,0,0,0.707107]},{"name":"discharge-channel","mesh":9,"translation":[-0.25,0.35,3.01],"scale":[9.504,0.18,4.9]},{"name":"outfall-sign-back","mesh":10,"translation":[0,3.05,-1.4],"scale":[3.3,0.9,1]},{"name":"outfall-sign","mesh":11,"translation":[0,3.05,-1.371],"scale":[3.2,0.8,1]},{"name":"site-pad","mesh":12,"translation":[0,0.06,0],"scale":[13.728,0.12,7.28]},{"name":"variant-apron","mesh":13,"translation":[-2.574,0.13,3.72],"scale":[4.224,0.08,0.8]},{"name":"bollard-0","mesh":14,"translation":[-5.016,0.43,3.84],"scale":[0.08,0.62,0.08]},{"name":"bollard-1","mesh":14,"translation":[-2.508,0.43,3.84],"scale":[0.08,0.62,0.08]},{"name":"bollard-2","mesh":14,"translation":[0,0.43,3.84],"scale":[0.08,0.62,0.08]},{"name":"bollard-3","mesh":14,"translation":[2.508,0.43,3.84],"scale":[0.08,0.62,0.08]},{"name":"bollard-4","mesh":14,"translation":[5.016,0.43,3.84],"scale":[0.08,0.62,0.08]},{"name":"layout-cabinet","mesh":15,"translation":[-6.8,0.615,-1.575],"scale":[0.45,0.99,0.32]},{"name":"deferred-maintenance-skip","mesh":16,"translation":[4.488,0.5,-3.08],"scale":[1.63,0.75,0.65]},{"name":"skip-rubble","mesh":17,"translation":[4.488,0.98,-3.08],"scale":[0.72,0.2,0.5]},{"name":"outfall-headwall","mesh":18,"translation":[0,1.9,-1.96],"scale":[13.2,3.6,1]},{"name":"outfall-pipe-0","mesh":19,"translation":[-2,1.15,0.2],"rotation":[0.707107,0,0,0.707107],"scale":[0.72,4.55,0.72]},{"name":"outfall-rim-0","mesh":20,"translation":[-2,1.15,3.64],"rotation":[0.707107,0,0,0.707107]},{"name":"outfall-pipe-1","mesh":19,"translation":[0,1.15,0.2],"rotation":[0.707107,0,0,0.707107],"scale":[0.72,4.55,0.72]},{"name":"outfall-rim-1","mesh":20,"translation":[0,1.15,3.64],"rotation":[0.707107,0,0,0.707107]},{"name":"outfall-pipe-2","mesh":19,"translation":[2,1.15,0.2],"rotation":[0.707107,0,0,0.707107],"scale":[0.72,4.55,0.72]},{"name":"outfall-rim-2","mesh":20,"translation":[2,1.15,3.64],"rotation":[0.707107,0,0,0.707107]},{"name":"discharge-channel","mesh":21,"translation":[-0.25,0.35,3.01],"scale":[9.504,0.18,4.9]},{"name":"outfall-sign-back","mesh":10,"translation":[0,3.05,-1.4],"scale":[3.3,0.9,1]},{"name":"outfall-sign","mesh":11,"translation":[0,3.05,-1.371],"scale":[3.2,0.8,1]},{"name":"site-pad","mesh":12,"translation":[0,0.06,0],"scale":[13.728,0.12,7.28]},{"name":"variant-apron","mesh":13,"translation":[-2.574,0.13,3.72],"scale":[4.224,0.08,0.8]},{"name":"bollard-0","mesh":14,"translation":[-5.016,0.43,3.84],"scale":[0.08,0.62,0.08]},{"name":"layout-cabinet","mesh":15,"translation":[-6.8,0.615,-1.575],"scale":[0.45,0.99,0.32]},{"name":"deferred-maintenance-skip","mesh":16,"translation":[4.488,0.5,-3.08],"scale":[1.63,0.75,0.65]},{"name":"outfall-headwall","mesh":18,"translation":[0,1.9,-1.96],"scale":[13.2,3.6,1]},{"name":"outfall-pipe-0","mesh":19,"translation":[0,1.15,0.2],"rotation":[0.707107,0,0,0.707107],"scale":[0.72,4.55,0.72]},{"name":"outfall-rim-0","mesh":22,"translation":[0,1.15,3.64],"rotation":[0.707107,0,0,0.707107]},{"name":"discharge-channel","mesh":21,"translation":[-0.25,0.35,3.01],"scale":[9.504,0.18,4.9]},{"name":"outfall-sign-back","mesh":10,"translation":[0,3.05,-1.4],"scale":[3.3,0.9,1]},{"name":"outfall-sign","mesh":11,"translation":[0,3.05,-1.371],"scale":[3.2,0.8,1]}],"meshes":[{"primitives":[{"attributes":{"POSITION":0,"NORMAL":1,"TEXCOORD_0":2},"material":0,"mode":4}]},{"primitives":[{"attributes":{"POSITION":0,"NORMAL":1,"TEXCOORD_0":3},"material":0,"mode":4}]},{"primitives":[{"attributes":{"POSITION":4,"NORMAL":5,"TEXCOORD_0":6},"material":1,"mode":4,"indices":7}]},{"primitives":[{"attributes":{"POSITION":0,"NORMAL":1,"TEXCOORD_0":8},"material":2,"mode":4}]},{"primitives":[{"attributes":{"POSITION":0,"NORMAL":1,"TEXCOORD_0":9},"material":1,"mode":4}]},{"primitives":[{"attributes":{"POSITION":0,"NORMAL":1,"TEXCOORD_0":10},"material":3,"mode":4}]},{"primitives":[{"attributes":{"POSITION":11,"NORMAL":1,"TEXCOORD_0":12},"material":3,"mode":4}]},{"primitives":[{"attributes":{"POSITION":13,"NORMAL":14,"TEXCOORD_0":15},"material":4,"mode":4,"indices":7}]},{"primitives":[{"attributes":{"POSITION":16,"NORMAL":17,"TEXCOORD_0":18},"material":2,"mode":4,"indices":19}]},{"primitives":[{"attributes":{"POSITION":0,"NORMAL":1,"TEXCOORD_0":20},"material":5,"mode":4}]},{"primitives":[{"attributes":{"POSITION":21,"NORMAL":22,"TEXCOORD_0":23},"material":4,"mode":4,"indices":24}]},{"primitives":[{"attributes":{"POSITION":25,"NORMAL":26,"TEXCOORD_0":27},"material":6,"mode":4,"indices":28}]},{"primitives":[{"attributes":{"POSITION":29,"NORMAL":22,"TEXCOORD_0":30},"material":0,"mode":4,"indices":24}]},{"primitives":[{"attributes":{"POSITION":29,"NORMAL":22,"TEXCOORD_0":31},"material":0,"mode":4,"indices":24}]},{"primitives":[{"attributes":{"POSITION":32,"NORMAL":33,"TEXCOORD_0":34},"material":1,"mode":4,"indices":35}]},{"primitives":[{"attributes":{"POSITION":29,"NORMAL":22,"TEXCOORD_0":36},"material":2,"mode":4,"indices":24}]},{"primitives":[{"attributes":{"POSITION":29,"NORMAL":22,"TEXCOORD_0":37},"material":1,"mode":4,"indices":24}]},{"primitives":[{"attributes":{"POSITION":29,"NORMAL":22,"TEXCOORD_0":38},"material":3,"mode":4,"indices":24}]},{"primitives":[{"attributes":{"POSITION":29,"NORMAL":22,"TEXCOORD_0":39},"material":3,"mode":4,"indices":24}]},{"primitives":[{"attributes":{"POSITION":40,"NORMAL":41,"TEXCOORD_0":42},"material":4,"mode":4,"indices":35}]},{"primitives":[{"attributes":{"POSITION":43,"NORMAL":44,"TEXCOORD_0":45},"material":2,"mode":4,"indices":46}]},{"primitives":[{"attributes":{"POSITION":29,"NORMAL":22,"TEXCOORD_0":47},"material":5,"mode":4,"indices":24}]},{"primitives":[{"attributes":{"POSITION":48,"NORMAL":49,"TEXCOORD_0":50},"material":2,"mode":4,"indices":51}]}],"materials":[{"name":"asphalt","pbrMetallicRoughness":{"baseColorTexture":{"index":0},"metallicRoughnessTexture":{"index":2},"roughnessFactor":1,"metallicFactor":1},"normalTexture":{"index":1,"scale":0.62},"occlusionTexture":{"index":2,"strength":0.35}},{"name":"paint-orange","pbrMetallicRoughness":{"baseColorFactor":[0.6444796819634361,0.1878207722902346,0.040915196900556984,1],"roughnessFactor":0.68,"metallicFactor":0.03}},{"name":"metal-galvanized","pbrMetallicRoughness":{"baseColorTexture":{"index":3},"metallicRoughnessTexture":{"index":5},"roughnessFactor":1,"metallicFactor":1},"normalTexture":{"index":4,"scale":0.15},"occlusionTexture":{"index":5,"strength":0.35}},{"name":"concrete","pbrMetallicRoughness":{"baseColorTexture":{"index":6},"metallicRoughnessTexture":{"index":8},"roughnessFactor":1,"metallicFactor":1},"normalTexture":{"index":7,"scale":0.82},"occlusionTexture":{"index":8,"strength":0.35}},{"name":"metal-dark","pbrMetallicRoughness":{"baseColorTexture":{"index":9},"metallicRoughnessTexture":{"index":11},"roughnessFactor":1,"metallicFactor":1},"normalTexture":{"index":10,"scale":0.35},"occlusionTexture":{"index":11,"strength":0.35}},{"name":"glass-blue","pbrMetallicRoughness":{"baseColorTexture":{"index":12},"metallicRoughnessTexture":{"index":14},"roughnessFactor":1,"metallicFactor":1},"normalTexture":{"index":13,"scale":0.12},"occlusionTexture":{"index":14,"strength":0.35}},{"name":"sewage-outfall signage","pbrMetallicRoughness":{"baseColorTexture":{"index":15},"roughnessFactor":1,"metallicFactor":0},"extensions":{"KHR_materials_unlit":{}}}],"textures":[{"source":0,"sampler":0},{"source":1,"sampler":0},{"source":2,"sampler":0},{"source":3,"sampler":0},{"source":4,"sampler":0},{"source":5,"sampler":0},{"source":6,"sampler":0},{"source":7,"sampler":0},{"source":8,"sampler":0},{"source":9,"sampler":0},{"source":10,"sampler":0},{"source":11,"sampler":0},{"source":12,"sampler":0},{"source":13,"sampler":0},{"source":14,"sampler":0},{"source":15,"sampler":0}],"images":[{"uri":"../textures/asphalt-albedo.png"},{"uri":"../textures/asphalt-normal.png"},{"uri":"../textures/asphalt-orm.png"},{"uri":"../textures/metal-galvanized-albedo.png"},{"uri":"../textures/metal-galvanized-normal.png"},{"uri":"../textures/metal-galvanized-orm.png"},{"uri":"../textures/concrete-albedo.png"},{"uri":"../textures/concrete-normal.png"},{"uri":"../textures/concrete-orm.png"},{"uri":"../textures/metal-dark-albedo.png"},{"uri":"../textures/metal-dark-normal.png"},{"uri":"../textures/metal-dark-orm.png"},{"uri":"../textures/glass-blue-albedo.png"},{"uri":"../textures/glass-blue-normal.png"},{"uri":"../textures/glass-blue-orm.png"},{"uri":"../signs/sewage-outfall.png"}],"samplers":[{"magFilter":9729,"minFilter":9987,"wrapS":10497,"wrapT":10497}],"buffers":[{"uri":"../shared/geometry.bin","byteLength":16435520}],"bufferViews":[{"buffer":0,"byteOffset":0,"byteLength":3888,"target":34962},{"buffer":0,"byteOffset":3888,"byteLength":3888,"target":34962},{"buffer":0,"byteOffset":12957256,"byteLength":2592,"target":34962},{"buffer":0,"byteOffset":12959848,"byteLength":2592,"target":34962},{"buffer":0,"byteOffset":12960,"byteLength":1200,"target":34962},{"buffer":0,"byteOffset":14160,"byteLength":1200,"target":34962},{"buffer":0,"byteOffset":15360,"byteLength":800,"target":34962},{"buffer":0,"byteOffset":16160,"byteLength":384,"target":34963},{"buffer":0,"byteOffset":106756,"byteLength":2592,"target":34962},{"buffer":0,"byteOffset":219716,"byteLength":2592,"target":34962},{"buffer":0,"byteOffset":208260,"byteLength":2592,"target":34962},{"buffer":0,"byteOffset":4742904,"byteLength":3888,"target":34962},{"buffer":0,"byteOffset":12962440,"byteLength":2592,"target":34962},{"buffer":0,"byteOffset":1101304,"byteLength":1200,"target":34962},{"buffer":0,"byteOffset":1102504,"byteLength":1200,"target":34962},{"buffer":0,"byteOffset":12913644,"byteLength":800,"target":34962},{"buffer":0,"byteOffset":12914444,"byteLength":3132,"target":34962},{"buffer":0,"byteOffset":390704,"byteLength":3132,"target":34962},{"buffer":0,"byteOffset":12917576,"byteLength":2088,"target":34962},{"buffer":0,"byteOffset":395924,"byteLength":2688,"target":34963},{"buffer":0,"byteOffset":12965032,"byteLength":2592,"target":34962},{"buffer":0,"byteOffset":45664,"byteLength":288,"target":34962},{"buffer":0,"byteOffset":45952,"byteLength":288,"target":34962},{"buffer":0,"byteOffset":46240,"byteLength":192,"target":34962},{"buffer":0,"byteOffset":46432,"byteLength":72,"target":34963},{"buffer":0,"byteOffset":46504,"byteLength":48,"target":34962},{"buffer":0,"byteOffset":46552,"byteLength":48,"target":34962},{"buffer":0,"byteOffset":222308,"byteLength":32,"target":34962},{"buffer":0,"byteOffset":46632,"byteLength":12,"target":34963},{"buffer":0,"byteOffset":46644,"byteLength":288,"target":34962},{"buffer":0,"byteOffset":12967624,"byteLength":192,"target":34962},{"buffer":0,"byteOffset":12967816,"byteLength":192,"target":34962},{"buffer":0,"byteOffset":47316,"byteLength":480,"target":34962},{"buffer":0,"byteOffset":47796,"byteLength":480,"target":34962},{"buffer":0,"byteOffset":48276,"byteLength":320,"target":34962},{"buffer":0,"byteOffset":48596,"byteLength":144,"target":34963},{"buffer":0,"byteOffset":117540,"byteLength":192,"target":34962},{"buffer":0,"byteOffset":222340,"byteLength":192,"target":34962},{"buffer":0,"byteOffset":211076,"byteLength":192,"target":34962},{"buffer":0,"byteOffset":12968008,"byteLength":192,"target":34962},{"buffer":0,"byteOffset":1112312,"byteLength":480,"target":34962},{"buffer":0,"byteOffset":1112792,"byteLength":480,"target":34962},{"buffer":0,"byteOffset":12922640,"byteLength":320,"target":34962},{"buffer":0,"byteOffset":12922960,"byteLength":1428,"target":34962},{"buffer":0,"byteOffset":427996,"byteLength":1428,"target":34962},{"buffer":0,"byteOffset":12924388,"byteLength":952,"target":34962},{"buffer":0,"byteOffset":430376,"byteLength":1152,"target":34963},{"buffer":0,"byteOffset":12968200,"byteLength":192,"target":34962},{"buffer":0,"byteOffset":12925532,"byteLength":660,"target":34962},{"buffer":0,"byteOffset":437788,"byteLength":660,"target":34962},{"buffer":0,"byteOffset":12926192,"byteLength":440,"target":34962},{"buffer":0,"byteOffset":438888,"byteLength":480,"target":34963}],"accessors":[{"bufferView":0,"componentType":5126,"count":324,"type":"VEC3","min":[-0.5,-0.5,-0.5],"max":[0.5,0.5,0.5]},{"bufferView":1,"componentType":5126,"count":324,"type":"VEC3"},{"bufferView":2,"componentType":5126,"count":324,"type":"VEC2"},{"bufferView":3,"componentType":5126,"count":324,"type":"VEC2"},{"bufferView":4,"componentType":5126,"count":100,"type":"VEC3","min":[-1,-0.5,-1],"max":[1,0.5,1]},{"bufferView":5,"componentType":5126,"count":100,"type":"VEC3"},{"bufferView":6,"componentType":5126,"count":100,"type":"VEC2"},{"bufferView":7,"componentType":5123,"count":192,"type":"SCALAR"},{"bufferView":8,"componentType":5126,"count":324,"type":"VEC2"},{"bufferView":9,"componentType":5126,"count":324,"type":"VEC2"},{"bufferView":10,"componentType":5126,"count":324,"type":"VEC2"},{"bufferView":11,"componentType":5126,"count":324,"type":"VEC3","min":[-0.5,-0.5,-0.5],"max":[0.5,0.5,0.5]},{"bufferView":12,"componentType":5126,"count":324,"type":"VEC2"},{"bufferView":13,"componentType":5126,"count":100,"type":"VEC3","min":[-1,-0.5,-1],"max":[1,0.5,1]},{"bufferView":14,"componentType":5126,"count":100,"type":"VEC3"},{"bufferView":15,"componentType":5126,"count":100,"type":"VEC2"},{"bufferView":16,"componentType":5126,"count":261,"type":"VEC3","min":[-0.8399999737739563,-0.8399999737739563,-0.11999999731779099],"max":[0.8399999737739563,0.8399999737739563,0.11999999731779099]},{"bufferView":17,"componentType":5126,"count":261,"type":"VEC3"},{"bufferView":18,"componentType":5126,"count":261,"type":"VEC2"},{"bufferView":19,"componentType":5123,"count":1344,"type":"SCALAR"},{"bufferView":20,"componentType":5126,"count":324,"type":"VEC2"},{"bufferView":21,"componentType":5126,"count":24,"type":"VEC3","min":[-0.5,-0.5,-0.02500000037252903],"max":[0.5,0.5,0.02500000037252903]},{"bufferView":22,"componentType":5126,"count":24,"type":"VEC3"},{"bufferView":23,"componentType":5126,"count":24,"type":"VEC2"},{"bufferView":24,"componentType":5123,"count":36,"type":"SCALAR"},{"bufferView":25,"componentType":5126,"count":4,"type":"VEC3","min":[-0.5,-0.5,0],"max":[0.5,0.5,0]},{"bufferView":26,"componentType":5126,"count":4,"type":"VEC3"},{"bufferView":27,"componentType":5126,"count":4,"type":"VEC2"},{"bufferView":28,"componentType":5123,"count":6,"type":"SCALAR"},{"bufferView":29,"componentType":5126,"count":24,"type":"VEC3","min":[-0.5,-0.5,-0.5],"max":[0.5,0.5,0.5]},{"bufferView":30,"componentType":5126,"count":24,"type":"VEC2"},{"bufferView":31,"componentType":5126,"count":24,"type":"VEC2"},{"bufferView":32,"componentType":5126,"count":40,"type":"VEC3","min":[-0.8660253882408142,-0.5,-1],"max":[0.8660253882408142,0.5,1]},{"bufferView":33,"componentType":5126,"count":40,"type":"VEC3"},{"bufferView":34,"componentType":5126,"count":40,"type":"VEC2"},{"bufferView":35,"componentType":5123,"count":72,"type":"SCALAR"},{"bufferView":36,"componentType":5126,"count":24,"type":"VEC2"},{"bufferView":37,"componentType":5126,"count":24,"type":"VEC2"},{"bufferView":38,"componentType":5126,"count":24,"type":"VEC2"},{"bufferView":39,"componentType":5126,"count":24,"type":"VEC2"},{"bufferView":40,"componentType":5126,"count":40,"type":"VEC3","min":[-0.8660253882408142,-0.5,-1],"max":[0.8660253882408142,0.5,1]},{"bufferView":41,"componentType":5126,"count":40,"type":"VEC3"},{"bufferView":42,"componentType":5126,"count":40,"type":"VEC2"},{"bufferView":43,"componentType":5126,"count":119,"type":"VEC3","min":[-0.8399999737739563,-0.8399999737739563,-0.10392304509878159],"max":[0.8399999737739563,0.8399999737739563,0.10392304509878159]},{"bufferView":44,"componentType":5126,"count":119,"type":"VEC3"},{"bufferView":45,"componentType":5126,"count":119,"type":"VEC2"},{"bufferView":46,"componentType":5123,"count":576,"type":"SCALAR"},{"bufferView":47,"componentType":5126,"count":24,"type":"VEC2"},{"bufferView":48,"componentType":5126,"count":55,"type":"VEC3","min":[-0.8399999737739563,-0.7988874912261963,-0.11999999731779099],"max":[0.8399999737739563,0.7988874912261963,0.11999999731779099]},{"bufferView":49,"componentType":5126,"count":55,"type":"VEC3"},{"bufferView":50,"componentType":5126,"count":55,"type":"VEC2"},{"bufferView":51,"componentType":5123,"count":240,"type":"SCALAR"}],"extensionsUsed":["KHR_materials_unlit"],"extras":{"id":"vlt-sewage-outfall-25","family":"sewage-outfall","variant":24,"plan":"A5-2","units":"metres","up":"+Y","front":"+Z","lodScenes":[0,1,2]}}