{"asset":{"version":"2.0","generator":"SLOPMERICA Department of Unnecessary Development 1.0"},"scene":0,"scenes":[{"name":"LOD 0","nodes":[0,1,2,3,4,5,6,7,8,9,10,11,12,13,14,15,16,17,18,19,20,21,22,23,24,25,26,27,28],"extras":{"level":0}},{"name":"LOD 1","nodes":[29,30,31,32,33,34,35,36,37,38,39,40,41,42,43,44,45,46,47,48,49,50,51,52],"extras":{"level":1}},{"name":"LOD 2","nodes":[53,54,55,56,57,58,59,60,61,62,63,64,65],"extras":{"level":2}}],"nodes":[{"name":"foundation","mesh":0,"translation":[0,0.08,0],"scale":[16.6,0.16,11.29]},{"name":"store-shell","mesh":1,"translation":[0,2.184,0],"scale":[11.808,4.368,9.09]},{"name":"roof-cap","mesh":2,"translation":[0,4.478,0],"scale":[12.058,0.22,9.34]},{"name":"window-0","mesh":3,"translation":[-4.36896,1.65,4.6],"scale":[1.269677,1.45,0.09]},{"name":"window-1","mesh":3,"translation":[-2.621376,1.65,4.6],"scale":[1.269677,1.45,0.09]},{"name":"window-2","mesh":3,"translation":[-0.873792,1.65,4.6],"scale":[1.269677,1.45,0.09]},{"name":"window-3","mesh":3,"translation":[0.873792,1.65,4.6],"scale":[1.269677,1.45,0.09]},{"name":"window-4","mesh":3,"translation":[2.621376,1.65,4.6],"scale":[1.269677,1.45,0.09]},{"name":"window-5","mesh":3,"translation":[4.36896,1.65,4.6],"scale":[1.269677,1.45,0.09]},{"name":"door","mesh":4,"translation":[-4.1328,1.025,4.615],"scale":[0.92,2.05,0.12]},{"name":"awning","mesh":5,"translation":[0,2.88288,5.025],"rotation":[-0.039989,0,0,0.9992],"scale":[9.68256,0.18,1.05]},{"name":"mullion-0","mesh":6,"translation":[-3.77856,1.65,4.665],"scale":[0.08,1.55,0.12]},{"name":"mullion-1","mesh":6,"translation":[-1.25952,1.65,4.665],"scale":[0.08,1.55,0.12]},{"name":"mullion-2","mesh":6,"translation":[1.25952,1.65,4.665],"scale":[0.08,1.55,0.12]},{"name":"mullion-3","mesh":6,"translation":[3.77856,1.65,4.665],"scale":[0.08,1.55,0.12]},{"name":"primary-sign-back","mesh":7,"translation":[0,3.45072,4.705],"scale":[7.42096,1.25,1]},{"name":"primary-sign","mesh":8,"translation":[0,3.45072,4.734],"scale":[7.32096,1.15,1]},{"name":"baron-tower","mesh":9,"translation":[-4.896,2.97024,-1.0908],"scale":[1.45,5.8968,1.45]},{"name":"crown-0","mesh":10,"translation":[-5.656,6.552,-1.0908],"rotation":[0,0,0.099833,0.995004],"scale":[0.35,0.8,0.35]},{"name":"crown-1","mesh":11,"translation":[-5.276,6.552,-1.0908],"rotation":[0,0,0.049979,0.99875],"scale":[0.35,1.15,0.35]},{"name":"crown-2","mesh":10,"translation":[-4.896,6.552,-1.0908],"scale":[0.35,0.8,0.35]},{"name":"crown-3","mesh":11,"translation":[-4.516,6.552,-1.0908],"rotation":[0,0,-0.049979,0.99875],"scale":[0.35,1.15,0.35]},{"name":"crown-4","mesh":10,"translation":[-4.136,6.552,-1.0908],"rotation":[0,0,-0.099833,0.995004],"scale":[0.35,0.8,0.35]},{"name":"busy-state-queue-bar","mesh":12,"translation":[0,0.65,5.7267],"scale":[10.368,0.12,0.12]},{"name":"queue-car-0","mesh":13,"translation":[-4.32,0.34,6.363],"scale":[1.35,0.65,0.7]},{"name":"queue-car-1","mesh":14,"translation":[-2.16,0.34,7.0902],"scale":[1.35,0.65,0.7]},{"name":"queue-car-2","mesh":13,"translation":[0,0.34,6.363],"scale":[1.35,0.65,0.7]},{"name":"queue-car-3","mesh":14,"translation":[2.16,0.34,7.0902],"scale":[1.35,0.65,0.7]},{"name":"queue-car-4","mesh":13,"translation":[4.32,0.34,6.363],"scale":[1.35,0.65,0.7]},{"name":"foundation","mesh":15,"translation":[0,0.08,0],"scale":[16.6,0.16,11.29]},{"name":"store-shell","mesh":16,"translation":[0,2.184,0],"scale":[11.808,4.368,9.09]},{"name":"roof-cap","mesh":17,"translation":[0,4.478,0],"scale":[12.058,0.22,9.34]},{"name":"window-0","mesh":18,"translation":[-4.36896,1.65,4.6],"scale":[2.539355,1.45,0.09]},{"name":"window-1","mesh":18,"translation":[0,1.65,4.6],"scale":[2.539355,1.45,0.09]},{"name":"window-2","mesh":18,"translation":[4.36896,1.65,4.6],"scale":[2.539355,1.45,0.09]},{"name":"door","mesh":19,"translation":[-4.1328,1.025,4.615],"scale":[0.92,2.05,0.12]},{"name":"awning","mesh":20,"translation":[0,2.88288,5.025],"rotation":[-0.039989,0,0,0.9992],"scale":[9.68256,0.18,1.05]},{"name":"mullion-0","mesh":21,"translation":[-3.77856,1.65,4.665],"scale":[0.08,1.55,0.12]},{"name":"mullion-1","mesh":21,"translation":[-1.25952,1.65,4.665],"scale":[0.08,1.55,0.12]},{"name":"mullion-2","mesh":21,"translation":[1.25952,1.65,4.665],"scale":[0.08,1.55,0.12]},{"name":"mullion-3","mesh":21,"translation":[3.77856,1.65,4.665],"scale":[0.08,1.55,0.12]},{"name":"primary-sign-back","mesh":7,"translation":[0,3.45072,4.705],"scale":[7.42096,1.25,1]},{"name":"primary-sign","mesh":8,"translation":[0,3.45072,4.734],"scale":[7.32096,1.15,1]},{"name":"baron-tower","mesh":22,"translation":[-4.896,2.97024,-1.0908],"scale":[1.45,5.8968,1.45]},{"name":"crown-0","mesh":23,"translation":[-5.656,6.552,-1.0908],"rotation":[0,0,0.099833,0.995004],"scale":[0.35,0.8,0.35]},{"name":"crown-1","mesh":24,"translation":[-5.276,6.552,-1.0908],"rotation":[0,0,0.049979,0.99875],"scale":[0.35,1.15,0.35]},{"name":"crown-2","mesh":23,"translation":[-4.896,6.552,-1.0908],"scale":[0.35,0.8,0.35]},{"name":"crown-3","mesh":24,"translation":[-4.516,6.552,-1.0908],"rotation":[0,0,-0.049979,0.99875],"scale":[0.35,1.15,0.35]},{"name":"crown-4","mesh":23,"translation":[-4.136,6.552,-1.0908],"rotation":[0,0,-0.099833,0.995004],"scale":[0.35,0.8,0.35]},{"name":"busy-state-queue-bar","mesh":25,"translation":[0,0.65,5.7267],"scale":[10.368,0.12,0.12]},{"name":"queue-car-0","mesh":26,"translation":[-4.32,0.34,6.363],"scale":[1.35,0.65,0.7]},{"name":"queue-car-1","mesh":27,"translation":[-2.16,0.34,7.0902],"scale":[1.35,0.65,0.7]},{"name":"queue-car-2","mesh":26,"translation":[0,0.34,6.363],"scale":[1.35,0.65,0.7]},{"name":"foundation","mesh":15,"translation":[0,0.08,0],"scale":[16.6,0.16,11.29]},{"name":"store-shell","mesh":16,"translation":[0,2.184,0],"scale":[11.808,4.368,9.09]},{"name":"roof-cap","mesh":17,"translation":[0,4.478,0],"scale":[12.058,0.22,9.34]},{"name":"window-0","mesh":28,"translation":[0,1.65,4.6],"scale":[7.618065,1.45,0.09]},{"name":"door","mesh":19,"translation":[-4.1328,1.025,4.615],"scale":[0.92,2.05,0.12]},{"name":"primary-sign-back","mesh":7,"translation":[0,3.45072,4.705],"scale":[7.42096,1.25,1]},{"name":"primary-sign","mesh":8,"translation":[0,3.45072,4.734],"scale":[7.32096,1.15,1]},{"name":"baron-tower","mesh":22,"translation":[-4.896,2.97024,-1.0908],"scale":[1.45,5.8968,1.45]},{"name":"crown-0","mesh":23,"translation":[-5.656,6.552,-1.0908],"rotation":[0,0,0.099833,0.995004],"scale":[0.35,0.8,0.35]},{"name":"crown-1","mesh":24,"translation":[-5.276,6.552,-1.0908],"rotation":[0,0,0.049979,0.99875],"scale":[0.35,1.15,0.35]},{"name":"crown-2","mesh":23,"translation":[-4.896,6.552,-1.0908],"scale":[0.35,0.8,0.35]},{"name":"busy-state-queue-bar","mesh":25,"translation":[0,0.65,5.7267],"scale":[10.368,0.12,0.12]},{"name":"queue-car-0","mesh":26,"translation":[-4.32,0.34,6.363],"scale":[1.35,0.65,0.7]}],"meshes":[{"primitives":[{"attributes":{"POSITION":0,"NORMAL":1,"TEXCOORD_0":2},"material":0,"mode":4}]},{"primitives":[{"attributes":{"POSITION":3,"NORMAL":1,"TEXCOORD_0":4},"material":1,"mode":4}]},{"primitives":[{"attributes":{"POSITION":0,"NORMAL":1,"TEXCOORD_0":5},"material":2,"mode":4}]},{"primitives":[{"attributes":{"POSITION":0,"NORMAL":1,"TEXCOORD_0":6},"material":3,"mode":4}]},{"primitives":[{"attributes":{"POSITION":0,"NORMAL":1,"TEXCOORD_0":7},"material":2,"mode":4}]},{"primitives":[{"attributes":{"POSITION":0,"NORMAL":1,"TEXCOORD_0":8},"material":4,"mode":4}]},{"primitives":[{"attributes":{"POSITION":0,"NORMAL":1,"TEXCOORD_0":9},"material":4,"mode":4}]},{"primitives":[{"attributes":{"POSITION":10,"NORMAL":11,"TEXCOORD_0":12},"material":2,"mode":4,"indices":13}]},{"primitives":[{"attributes":{"POSITION":14,"NORMAL":15,"TEXCOORD_0":16},"material":5,"mode":4,"indices":17}]},{"primitives":[{"attributes":{"POSITION":18,"NORMAL":19,"TEXCOORD_0":20},"material":6,"mode":4,"indices":21}]},{"primitives":[{"attributes":{"POSITION":0,"NORMAL":1,"TEXCOORD_0":22},"material":4,"mode":4}]},{"primitives":[{"attributes":{"POSITION":0,"NORMAL":1,"TEXCOORD_0":23},"material":4,"mode":4}]},{"primitives":[{"attributes":{"POSITION":0,"NORMAL":1,"TEXCOORD_0":24},"material":4,"mode":4}]},{"primitives":[{"attributes":{"POSITION":0,"NORMAL":1,"TEXCOORD_0":25},"material":7,"mode":4}]},{"primitives":[{"attributes":{"POSITION":0,"NORMAL":1,"TEXCOORD_0":25},"material":8,"mode":4}]},{"primitives":[{"attributes":{"POSITION":26,"NORMAL":11,"TEXCOORD_0":27},"material":0,"mode":4,"indices":13}]},{"primitives":[{"attributes":{"POSITION":26,"NORMAL":11,"TEXCOORD_0":28},"material":1,"mode":4,"indices":13}]},{"primitives":[{"attributes":{"POSITION":26,"NORMAL":11,"TEXCOORD_0":29},"material":2,"mode":4,"indices":13}]},{"primitives":[{"attributes":{"POSITION":26,"NORMAL":11,"TEXCOORD_0":30},"material":3,"mode":4,"indices":13}]},{"primitives":[{"attributes":{"POSITION":26,"NORMAL":11,"TEXCOORD_0":31},"material":2,"mode":4,"indices":13}]},{"primitives":[{"attributes":{"POSITION":26,"NORMAL":11,"TEXCOORD_0":32},"material":4,"mode":4,"indices":13}]},{"primitives":[{"attributes":{"POSITION":26,"NORMAL":11,"TEXCOORD_0":33},"material":4,"mode":4,"indices":13}]},{"primitives":[{"attributes":{"POSITION":34,"NORMAL":35,"TEXCOORD_0":36},"material":6,"mode":4,"indices":37}]},{"primitives":[{"attributes":{"POSITION":26,"NORMAL":11,"TEXCOORD_0":38},"material":4,"mode":4,"indices":13}]},{"primitives":[{"attributes":{"POSITION":26,"NORMAL":11,"TEXCOORD_0":39},"material":4,"mode":4,"indices":13}]},{"primitives":[{"attributes":{"POSITION":26,"NORMAL":11,"TEXCOORD_0":40},"material":4,"mode":4,"indices":13}]},{"primitives":[{"attributes":{"POSITION":26,"NORMAL":11,"TEXCOORD_0":41},"material":7,"mode":4,"indices":13}]},{"primitives":[{"attributes":{"POSITION":26,"NORMAL":11,"TEXCOORD_0":41},"material":8,"mode":4,"indices":13}]},{"primitives":[{"attributes":{"POSITION":26,"NORMAL":11,"TEXCOORD_0":42},"material":3,"mode":4,"indices":13}]}],"materials":[{"name":"concrete","pbrMetallicRoughness":{"baseColorTexture":{"index":0},"metallicRoughnessTexture":{"index":2},"roughnessFactor":1,"metallicFactor":1},"normalTexture":{"index":1,"scale":0.82},"occlusionTexture":{"index":2,"strength":0.35}},{"name":"stucco-ivory","pbrMetallicRoughness":{"baseColorTexture":{"index":3},"metallicRoughnessTexture":{"index":5},"roughnessFactor":1,"metallicFactor":1},"normalTexture":{"index":4,"scale":0.5},"occlusionTexture":{"index":5,"strength":0.35}},{"name":"metal-dark","pbrMetallicRoughness":{"baseColorTexture":{"index":6},"metallicRoughnessTexture":{"index":8},"roughnessFactor":1,"metallicFactor":1},"normalTexture":{"index":7,"scale":0.35},"occlusionTexture":{"index":8,"strength":0.35}},{"name":"glass-blue","pbrMetallicRoughness":{"baseColorTexture":{"index":9},"metallicRoughnessTexture":{"index":11},"roughnessFactor":1,"metallicFactor":1},"normalTexture":{"index":10,"scale":0.12},"occlusionTexture":{"index":11,"strength":0.35}},{"name":"paint-yellow","pbrMetallicRoughness":{"baseColorFactor":[0.76052450467022,0.4793201830913402,0.07818742179702069,1],"roughnessFactor":0.66,"metallicFactor":0.03}},{"name":"lane-lord-burgers signage","pbrMetallicRoughness":{"baseColorTexture":{"index":12},"roughnessFactor":1,"metallicFactor":0},"extensions":{"KHR_materials_unlit":{}}},{"name":"brick-red","pbrMetallicRoughness":{"baseColorTexture":{"index":13},"metallicRoughnessTexture":{"index":15},"roughnessFactor":1,"metallicFactor":1},"normalTexture":{"index":14,"scale":1.15},"occlusionTexture":{"index":15,"strength":0.35}},{"name":"paint-red","pbrMetallicRoughness":{"baseColorFactor":[0.46778379610254284,0.08021982030622662,0.05126945836711539,1],"roughnessFactor":0.62,"metallicFactor":0.05}},{"name":"paint-blue","pbrMetallicRoughness":{"baseColorFactor":[0.05126945836711539,0.10946171076915331,0.22696587349938613,1],"roughnessFactor":0.58,"metallicFactor":0.05}}],"textures":[{"source":0,"sampler":0},{"source":1,"sampler":0},{"source":2,"sampler":0},{"source":3,"sampler":0},{"source":4,"sampler":0},{"source":5,"sampler":0},{"source":6,"sampler":0},{"source":7,"sampler":0},{"source":8,"sampler":0},{"source":9,"sampler":0},{"source":10,"sampler":0},{"source":11,"sampler":0},{"source":12,"sampler":0},{"source":13,"sampler":0},{"source":14,"sampler":0},{"source":15,"sampler":0}],"images":[{"uri":"../textures/concrete-albedo.png"},{"uri":"../textures/concrete-normal.png"},{"uri":"../textures/concrete-orm.png"},{"uri":"../textures/stucco-ivory-albedo.png"},{"uri":"../textures/stucco-ivory-normal.png"},{"uri":"../textures/stucco-ivory-orm.png"},{"uri":"../textures/metal-dark-albedo.png"},{"uri":"../textures/metal-dark-normal.png"},{"uri":"../textures/metal-dark-orm.png"},{"uri":"../textures/glass-blue-albedo.png"},{"uri":"../textures/glass-blue-normal.png"},{"uri":"../textures/glass-blue-orm.png"},{"uri":"../signs/lane-lord-burgers.png"},{"uri":"../textures/brick-red-albedo.png"},{"uri":"../textures/brick-red-normal.png"},{"uri":"../textures/brick-red-orm.png"}],"samplers":[{"magFilter":9729,"minFilter":9987,"wrapS":10497,"wrapT":10497}],"buffers":[{"uri":"../shared/geometry.bin","byteLength":16435520}],"bufferViews":[{"buffer":0,"byteOffset":0,"byteLength":3888,"target":34962},{"buffer":0,"byteOffset":3888,"byteLength":3888,"target":34962},{"buffer":0,"byteOffset":7347728,"byteLength":2592,"target":34962},{"buffer":0,"byteOffset":868536,"byteLength":3888,"target":34962},{"buffer":0,"byteOffset":7350320,"byteLength":2592,"target":34962},{"buffer":0,"byteOffset":7352912,"byteLength":2592,"target":34962},{"buffer":0,"byteOffset":7265392,"byteLength":2592,"target":34962},{"buffer":0,"byteOffset":1428216,"byteLength":2592,"target":34962},{"buffer":0,"byteOffset":7267984,"byteLength":2592,"target":34962},{"buffer":0,"byteOffset":1433400,"byteLength":2592,"target":34962},{"buffer":0,"byteOffset":45664,"byteLength":288,"target":34962},{"buffer":0,"byteOffset":45952,"byteLength":288,"target":34962},{"buffer":0,"byteOffset":46240,"byteLength":192,"target":34962},{"buffer":0,"byteOffset":46432,"byteLength":72,"target":34963},{"buffer":0,"byteOffset":46504,"byteLength":48,"target":34962},{"buffer":0,"byteOffset":46552,"byteLength":48,"target":34962},{"buffer":0,"byteOffset":222820,"byteLength":32,"target":34962},{"buffer":0,"byteOffset":46632,"byteLength":12,"target":34963},{"buffer":0,"byteOffset":7202736,"byteLength":768,"target":34962},{"buffer":0,"byteOffset":7203504,"byteLength":768,"target":34962},{"buffer":0,"byteOffset":7270576,"byteLength":512,"target":34962},{"buffer":0,"byteOffset":882248,"byteLength":240,"target":34963},{"buffer":0,"byteOffset":7204784,"byteLength":2592,"target":34962},{"buffer":0,"byteOffset":7207376,"byteLength":2592,"target":34962},{"buffer":0,"byteOffset":1917116,"byteLength":2592,"target":34962},{"buffer":0,"byteOffset":582912,"byteLength":2592,"target":34962},{"buffer":0,"byteOffset":46644,"byteLength":288,"target":34962},{"buffer":0,"byteOffset":7355504,"byteLength":192,"target":34962},{"buffer":0,"byteOffset":7355696,"byteLength":192,"target":34962},{"buffer":0,"byteOffset":7355888,"byteLength":192,"target":34962},{"buffer":0,"byteOffset":7271664,"byteLength":192,"target":34962},{"buffer":0,"byteOffset":1447128,"byteLength":192,"target":34962},{"buffer":0,"byteOffset":7271856,"byteLength":192,"target":34962},{"buffer":0,"byteOffset":1447512,"byteLength":192,"target":34962},{"buffer":0,"byteOffset":7210928,"byteLength":480,"target":34962},{"buffer":0,"byteOffset":7211408,"byteLength":480,"target":34962},{"buffer":0,"byteOffset":7272048,"byteLength":320,"target":34962},{"buffer":0,"byteOffset":48596,"byteLength":144,"target":34963},{"buffer":0,"byteOffset":7212208,"byteLength":192,"target":34962},{"buffer":0,"byteOffset":7212400,"byteLength":192,"target":34962},{"buffer":0,"byteOffset":1919708,"byteLength":192,"target":34962},{"buffer":0,"byteOffset":585696,"byteLength":192,"target":34962},{"buffer":0,"byteOffset":7272368,"byteLength":192,"target":34962}],"accessors":[{"bufferView":0,"componentType":5126,"count":324,"type":"VEC3","min":[-0.5,-0.5,-0.5],"max":[0.5,0.5,0.5]},{"bufferView":1,"componentType":5126,"count":324,"type":"VEC3"},{"bufferView":2,"componentType":5126,"count":324,"type":"VEC2"},{"bufferView":3,"componentType":5126,"count":324,"type":"VEC3","min":[-0.5,-0.5,-0.5],"max":[0.5,0.5,0.5]},{"bufferView":4,"componentType":5126,"count":324,"type":"VEC2"},{"bufferView":5,"componentType":5126,"count":324,"type":"VEC2"},{"bufferView":6,"componentType":5126,"count":324,"type":"VEC2"},{"bufferView":7,"componentType":5126,"count":324,"type":"VEC2"},{"bufferView":8,"componentType":5126,"count":324,"type":"VEC2"},{"bufferView":9,"componentType":5126,"count":324,"type":"VEC2"},{"bufferView":10,"componentType":5126,"count":24,"type":"VEC3","min":[-0.5,-0.5,-0.02500000037252903],"max":[0.5,0.5,0.02500000037252903]},{"bufferView":11,"componentType":5126,"count":24,"type":"VEC3"},{"bufferView":12,"componentType":5126,"count":24,"type":"VEC2"},{"bufferView":13,"componentType":5123,"count":36,"type":"SCALAR"},{"bufferView":14,"componentType":5126,"count":4,"type":"VEC3","min":[-0.5,-0.5,0],"max":[0.5,0.5,0]},{"bufferView":15,"componentType":5126,"count":4,"type":"VEC3"},{"bufferView":16,"componentType":5126,"count":4,"type":"VEC2"},{"bufferView":17,"componentType":5123,"count":6,"type":"SCALAR"},{"bufferView":18,"componentType":5126,"count":64,"type":"VEC3","min":[-0.9510565400123596,-0.5,-1],"max":[0.9510565400123596,0.5,1]},{"bufferView":19,"componentType":5126,"count":64,"type":"VEC3"},{"bufferView":20,"componentType":5126,"count":64,"type":"VEC2"},{"bufferView":21,"componentType":5123,"count":120,"type":"SCALAR"},{"bufferView":22,"componentType":5126,"count":324,"type":"VEC2"},{"bufferView":23,"componentType":5126,"count":324,"type":"VEC2"},{"bufferView":24,"componentType":5126,"count":324,"type":"VEC2"},{"bufferView":25,"componentType":5126,"count":324,"type":"VEC2"},{"bufferView":26,"componentType":5126,"count":24,"type":"VEC3","min":[-0.5,-0.5,-0.5],"max":[0.5,0.5,0.5]},{"bufferView":27,"componentType":5126,"count":24,"type":"VEC2"},{"bufferView":28,"componentType":5126,"count":24,"type":"VEC2"},{"bufferView":29,"componentType":5126,"count":24,"type":"VEC2"},{"bufferView":30,"componentType":5126,"count":24,"type":"VEC2"},{"bufferView":31,"componentType":5126,"count":24,"type":"VEC2"},{"bufferView":32,"componentType":5126,"count":24,"type":"VEC2"},{"bufferView":33,"componentType":5126,"count":24,"type":"VEC2"},{"bufferView":34,"componentType":5126,"count":40,"type":"VEC3","min":[-0.8660253882408142,-0.5,-1],"max":[0.8660253882408142,0.5,1]},{"bufferView":35,"componentType":5126,"count":40,"type":"VEC3"},{"bufferView":36,"componentType":5126,"count":40,"type":"VEC2"},{"bufferView":37,"componentType":5123,"count":72,"type":"SCALAR"},{"bufferView":38,"componentType":5126,"count":24,"type":"VEC2"},{"bufferView":39,"componentType":5126,"count":24,"type":"VEC2"},{"bufferView":40,"componentType":5126,"count":24,"type":"VEC2"},{"bufferView":41,"componentType":5126,"count":24,"type":"VEC2"},{"bufferView":42,"componentType":5126,"count":24,"type":"VEC2"}],"extensionsUsed":["KHR_materials_unlit"],"extras":{"id":"vlt-lane-lord-burgers-35","family":"lane-lord-burgers","variant":34,"plan":"C5-2","units":"metres","up":"+Y","front":"+Z","lodScenes":[0,1,2]}}