{"asset":{"version":"2.0","generator":"SLOPMERICA Department of Unnecessary Development 1.0"},"scene":0,"scenes":[{"name":"LOD 0","nodes":[0,1,2,3,4,5,6,7,8,9,10,11,12,13,14,15,16],"extras":{"level":0}},{"name":"LOD 1","nodes":[17,18,19,20,21,22,23,24,25,26,27,28,29,30,31],"extras":{"level":1}},{"name":"LOD 2","nodes":[32,33,34,35,36,37,38,39,40,41,42,43,44],"extras":{"level":2}}],"nodes":[{"name":"foundation","mesh":0,"translation":[0,0.08,0],"scale":[21.4,0.16,15.08]},{"name":"er-block","mesh":1,"translation":[0,3.86,0],"scale":[19.2,7.72,12.88]},{"name":"emergency-wing","mesh":2,"translation":[-7.296,2.7792,3.22],"rotation":[0,-0.059964,0,0.998201],"scale":[9.216,5.5584,6.6976]},{"name":"helipad","mesh":3,"translation":[0,7.9,0],"scale":[5.184,0.18,5.184]},{"name":"helipad-h1","mesh":4,"translation":[0,8.02,0],"scale":[3.072,0.04,0.5]},{"name":"helipad-h2","mesh":5,"translation":[0,8.03,0],"scale":[0.5,0.04,3.072]},{"name":"canopy","mesh":6,"translation":[0,5.404,7.4704],"scale":[7.296,0.35,3.22]},{"name":"canopy-post-0","mesh":7,"translation":[-2.9184,2.612,7.4704],"scale":[0.1,5.224,0.1]},{"name":"canopy-post-1","mesh":7,"translation":[2.9184,2.612,7.4704],"scale":[0.1,5.224,0.1]},{"name":"er-sign-back","mesh":8,"translation":[0,5.5584,6.59],"scale":[8.164,1.3,1]},{"name":"er-sign","mesh":9,"translation":[0,5.5584,6.619],"scale":[8.064,1.2,1]},{"name":"busy-state-queue-bar","mesh":10,"translation":[0,0.65,8.1144],"scale":[13.824,0.12,0.12]},{"name":"queue-car-0","mesh":11,"translation":[-5.76,0.34,9.016],"scale":[1.35,0.65,0.7]},{"name":"queue-car-1","mesh":12,"translation":[-2.88,0.34,10.0464],"scale":[1.35,0.65,0.7]},{"name":"queue-car-2","mesh":11,"translation":[0,0.34,9.016],"scale":[1.35,0.65,0.7]},{"name":"queue-car-3","mesh":12,"translation":[2.88,0.34,10.0464],"scale":[1.35,0.65,0.7]},{"name":"queue-car-4","mesh":11,"translation":[5.76,0.34,9.016],"scale":[1.35,0.65,0.7]},{"name":"foundation","mesh":13,"translation":[0,0.08,0],"scale":[21.4,0.16,15.08]},{"name":"er-block","mesh":14,"translation":[0,3.86,0],"scale":[19.2,7.72,12.88]},{"name":"emergency-wing","mesh":15,"translation":[-7.296,2.7792,3.22],"rotation":[0,-0.059964,0,0.998201],"scale":[9.216,5.5584,6.6976]},{"name":"helipad","mesh":16,"translation":[0,7.9,0],"scale":[5.184,0.18,5.184]},{"name":"helipad-h1","mesh":17,"translation":[0,8.02,0],"scale":[3.072,0.04,0.5]},{"name":"helipad-h2","mesh":18,"translation":[0,8.03,0],"scale":[0.5,0.04,3.072]},{"name":"canopy","mesh":19,"translation":[0,5.404,7.4704],"scale":[7.296,0.35,3.22]},{"name":"canopy-post-0","mesh":20,"translation":[-2.9184,2.612,7.4704],"scale":[0.1,5.224,0.1]},{"name":"canopy-post-1","mesh":20,"translation":[2.9184,2.612,7.4704],"scale":[0.1,5.224,0.1]},{"name":"er-sign-back","mesh":8,"translation":[0,5.5584,6.59],"scale":[8.164,1.3,1]},{"name":"er-sign","mesh":9,"translation":[0,5.5584,6.619],"scale":[8.064,1.2,1]},{"name":"busy-state-queue-bar","mesh":21,"translation":[0,0.65,8.1144],"scale":[13.824,0.12,0.12]},{"name":"queue-car-0","mesh":22,"translation":[-5.76,0.34,9.016],"scale":[1.35,0.65,0.7]},{"name":"queue-car-1","mesh":23,"translation":[-2.88,0.34,10.0464],"scale":[1.35,0.65,0.7]},{"name":"queue-car-2","mesh":22,"translation":[0,0.34,9.016],"scale":[1.35,0.65,0.7]},{"name":"foundation","mesh":13,"translation":[0,0.08,0],"scale":[21.4,0.16,15.08]},{"name":"er-block","mesh":14,"translation":[0,3.86,0],"scale":[19.2,7.72,12.88]},{"name":"emergency-wing","mesh":15,"translation":[-7.296,2.7792,3.22],"rotation":[0,-0.059964,0,0.998201],"scale":[9.216,5.5584,6.6976]},{"name":"helipad","mesh":24,"translation":[0,7.9,0],"scale":[5.184,0.18,5.184]},{"name":"helipad-h1","mesh":17,"translation":[0,8.02,0],"scale":[3.072,0.04,0.5]},{"name":"helipad-h2","mesh":18,"translation":[0,8.03,0],"scale":[0.5,0.04,3.072]},{"name":"canopy","mesh":19,"translation":[0,5.404,7.4704],"scale":[7.296,0.35,3.22]},{"name":"canopy-post-0","mesh":20,"translation":[-2.9184,2.612,7.4704],"scale":[0.1,5.224,0.1]},{"name":"canopy-post-1","mesh":20,"translation":[2.9184,2.612,7.4704],"scale":[0.1,5.224,0.1]},{"name":"er-sign-back","mesh":8,"translation":[0,5.5584,6.59],"scale":[8.164,1.3,1]},{"name":"er-sign","mesh":9,"translation":[0,5.5584,6.619],"scale":[8.064,1.2,1]},{"name":"busy-state-queue-bar","mesh":21,"translation":[0,0.65,8.1144],"scale":[13.824,0.12,0.12]},{"name":"queue-car-0","mesh":22,"translation":[-5.76,0.34,9.016],"scale":[1.35,0.65,0.7]}],"meshes":[{"primitives":[{"attributes":{"POSITION":0,"NORMAL":1,"TEXCOORD_0":2},"material":0,"mode":4}]},{"primitives":[{"attributes":{"POSITION":3,"NORMAL":1,"TEXCOORD_0":4},"material":1,"mode":4}]},{"primitives":[{"attributes":{"POSITION":5,"NORMAL":1,"TEXCOORD_0":6},"material":2,"mode":4}]},{"primitives":[{"attributes":{"POSITION":7,"NORMAL":8,"TEXCOORD_0":9},"material":0,"mode":4,"indices":10}]},{"primitives":[{"attributes":{"POSITION":0,"NORMAL":1,"TEXCOORD_0":11},"material":1,"mode":4}]},{"primitives":[{"attributes":{"POSITION":0,"NORMAL":1,"TEXCOORD_0":12},"material":1,"mode":4}]},{"primitives":[{"attributes":{"POSITION":0,"NORMAL":1,"TEXCOORD_0":13},"material":2,"mode":4}]},{"primitives":[{"attributes":{"POSITION":14,"NORMAL":15,"TEXCOORD_0":16},"material":3,"mode":4,"indices":17}]},{"primitives":[{"attributes":{"POSITION":18,"NORMAL":19,"TEXCOORD_0":20},"material":4,"mode":4,"indices":21}]},{"primitives":[{"attributes":{"POSITION":22,"NORMAL":23,"TEXCOORD_0":24},"material":5,"mode":4,"indices":25}]},{"primitives":[{"attributes":{"POSITION":0,"NORMAL":1,"TEXCOORD_0":26},"material":6,"mode":4}]},{"primitives":[{"attributes":{"POSITION":0,"NORMAL":1,"TEXCOORD_0":27},"material":6,"mode":4}]},{"primitives":[{"attributes":{"POSITION":0,"NORMAL":1,"TEXCOORD_0":27},"material":7,"mode":4}]},{"primitives":[{"attributes":{"POSITION":28,"NORMAL":19,"TEXCOORD_0":29},"material":0,"mode":4,"indices":21}]},{"primitives":[{"attributes":{"POSITION":28,"NORMAL":19,"TEXCOORD_0":30},"material":1,"mode":4,"indices":21}]},{"primitives":[{"attributes":{"POSITION":28,"NORMAL":19,"TEXCOORD_0":31},"material":2,"mode":4,"indices":21}]},{"primitives":[{"attributes":{"POSITION":32,"NORMAL":33,"TEXCOORD_0":34},"material":0,"mode":4,"indices":35}]},{"primitives":[{"attributes":{"POSITION":28,"NORMAL":19,"TEXCOORD_0":36},"material":1,"mode":4,"indices":21}]},{"primitives":[{"attributes":{"POSITION":28,"NORMAL":19,"TEXCOORD_0":37},"material":1,"mode":4,"indices":21}]},{"primitives":[{"attributes":{"POSITION":28,"NORMAL":19,"TEXCOORD_0":38},"material":2,"mode":4,"indices":21}]},{"primitives":[{"attributes":{"POSITION":39,"NORMAL":40,"TEXCOORD_0":41},"material":3,"mode":4,"indices":42}]},{"primitives":[{"attributes":{"POSITION":28,"NORMAL":19,"TEXCOORD_0":43},"material":6,"mode":4,"indices":21}]},{"primitives":[{"attributes":{"POSITION":28,"NORMAL":19,"TEXCOORD_0":44},"material":6,"mode":4,"indices":21}]},{"primitives":[{"attributes":{"POSITION":28,"NORMAL":19,"TEXCOORD_0":44},"material":7,"mode":4,"indices":21}]},{"primitives":[{"attributes":{"POSITION":39,"NORMAL":40,"TEXCOORD_0":45},"material":0,"mode":4,"indices":42}]}],"materials":[{"name":"concrete","pbrMetallicRoughness":{"baseColorTexture":{"index":0},"metallicRoughnessTexture":{"index":2},"roughnessFactor":1,"metallicFactor":1},"normalTexture":{"index":1,"scale":0.82},"occlusionTexture":{"index":2,"strength":0.35}},{"name":"paint-white","pbrMetallicRoughness":{"baseColorFactor":[0.7912979403281551,0.7681511472425809,0.6795424696265424,1],"roughnessFactor":0.68,"metallicFactor":0}},{"name":"brick-red","pbrMetallicRoughness":{"baseColorTexture":{"index":3},"metallicRoughnessTexture":{"index":5},"roughnessFactor":1,"metallicFactor":1},"normalTexture":{"index":4,"scale":1.15},"occlusionTexture":{"index":5,"strength":0.35}},{"name":"metal-galvanized","pbrMetallicRoughness":{"baseColorTexture":{"index":6},"metallicRoughnessTexture":{"index":8},"roughnessFactor":1,"metallicFactor":1},"normalTexture":{"index":7,"scale":0.15},"occlusionTexture":{"index":8,"strength":0.35}},{"name":"metal-dark","pbrMetallicRoughness":{"baseColorTexture":{"index":9},"metallicRoughnessTexture":{"index":11},"roughnessFactor":1,"metallicFactor":1},"normalTexture":{"index":10,"scale":0.35},"occlusionTexture":{"index":11,"strength":0.35}},{"name":"wallet-er signage","pbrMetallicRoughness":{"baseColorTexture":{"index":12},"roughnessFactor":1,"metallicFactor":0},"extensions":{"KHR_materials_unlit":{}}},{"name":"paint-red","pbrMetallicRoughness":{"baseColorFactor":[0.46778379610254284,0.08021982030622662,0.05126945836711539,1],"roughnessFactor":0.62,"metallicFactor":0.05}},{"name":"paint-blue","pbrMetallicRoughness":{"baseColorFactor":[0.05126945836711539,0.10946171076915331,0.22696587349938613,1],"roughnessFactor":0.58,"metallicFactor":0.05}}],"textures":[{"source":0,"sampler":0},{"source":1,"sampler":0},{"source":2,"sampler":0},{"source":3,"sampler":0},{"source":4,"sampler":0},{"source":5,"sampler":0},{"source":6,"sampler":0},{"source":7,"sampler":0},{"source":8,"sampler":0},{"source":9,"sampler":0},{"source":10,"sampler":0},{"source":11,"sampler":0},{"source":12,"sampler":0}],"images":[{"uri":"../textures/concrete-albedo.png"},{"uri":"../textures/concrete-normal.png"},{"uri":"../textures/concrete-orm.png"},{"uri":"../textures/brick-red-albedo.png"},{"uri":"../textures/brick-red-normal.png"},{"uri":"../textures/brick-red-orm.png"},{"uri":"../textures/metal-galvanized-albedo.png"},{"uri":"../textures/metal-galvanized-normal.png"},{"uri":"../textures/metal-galvanized-orm.png"},{"uri":"../textures/metal-dark-albedo.png"},{"uri":"../textures/metal-dark-normal.png"},{"uri":"../textures/metal-dark-orm.png"},{"uri":"../signs/wallet-er.png"}],"samplers":[{"magFilter":9729,"minFilter":9987,"wrapS":10497,"wrapT":10497}],"buffers":[{"uri":"../shared/geometry.bin","byteLength":16435520}],"bufferViews":[{"buffer":0,"byteOffset":0,"byteLength":3888,"target":34962},{"buffer":0,"byteOffset":3888,"byteLength":3888,"target":34962},{"buffer":0,"byteOffset":15622060,"byteLength":2592,"target":34962},{"buffer":0,"byteOffset":19136,"byteLength":3888,"target":34962},{"buffer":0,"byteOffset":15624652,"byteLength":2592,"target":34962},{"buffer":0,"byteOffset":33392,"byteLength":3888,"target":34962},{"buffer":0,"byteOffset":15627244,"byteLength":2592,"target":34962},{"buffer":0,"byteOffset":5513568,"byteLength":1776,"target":34962},{"buffer":0,"byteOffset":5515344,"byteLength":1776,"target":34962},{"buffer":0,"byteOffset":15629836,"byteLength":1184,"target":34962},{"buffer":0,"byteOffset":5518304,"byteLength":576,"target":34963},{"buffer":0,"byteOffset":15631020,"byteLength":2592,"target":34962},{"buffer":0,"byteOffset":15633612,"byteLength":2592,"target":34962},{"buffer":0,"byteOffset":15636204,"byteLength":2592,"target":34962},{"buffer":0,"byteOffset":1110072,"byteLength":624,"target":34962},{"buffer":0,"byteOffset":1110696,"byteLength":624,"target":34962},{"buffer":0,"byteOffset":15638796,"byteLength":416,"target":34962},{"buffer":0,"byteOffset":1111736,"byteLength":192,"target":34963},{"buffer":0,"byteOffset":45664,"byteLength":288,"target":34962},{"buffer":0,"byteOffset":45952,"byteLength":288,"target":34962},{"buffer":0,"byteOffset":46240,"byteLength":192,"target":34962},{"buffer":0,"byteOffset":46432,"byteLength":72,"target":34963},{"buffer":0,"byteOffset":46504,"byteLength":48,"target":34962},{"buffer":0,"byteOffset":46552,"byteLength":48,"target":34962},{"buffer":0,"byteOffset":213860,"byteLength":32,"target":34962},{"buffer":0,"byteOffset":46632,"byteLength":12,"target":34963},{"buffer":0,"byteOffset":7784096,"byteLength":2592,"target":34962},{"buffer":0,"byteOffset":582912,"byteLength":2592,"target":34962},{"buffer":0,"byteOffset":46644,"byteLength":288,"target":34962},{"buffer":0,"byteOffset":15639212,"byteLength":192,"target":34962},{"buffer":0,"byteOffset":15639404,"byteLength":192,"target":34962},{"buffer":0,"byteOffset":15639596,"byteLength":192,"target":34962},{"buffer":0,"byteOffset":5526272,"byteLength":912,"target":34962},{"buffer":0,"byteOffset":5527184,"byteLength":912,"target":34962},{"buffer":0,"byteOffset":15639788,"byteLength":608,"target":34962},{"buffer":0,"byteOffset":387284,"byteLength":288,"target":34963},{"buffer":0,"byteOffset":15640396,"byteLength":192,"target":34962},{"buffer":0,"byteOffset":15640588,"byteLength":192,"target":34962},{"buffer":0,"byteOffset":15640780,"byteLength":192,"target":34962},{"buffer":0,"byteOffset":1112312,"byteLength":480,"target":34962},{"buffer":0,"byteOffset":1112792,"byteLength":480,"target":34962},{"buffer":0,"byteOffset":15640972,"byteLength":320,"target":34962},{"buffer":0,"byteOffset":48596,"byteLength":144,"target":34963},{"buffer":0,"byteOffset":7786688,"byteLength":192,"target":34962},{"buffer":0,"byteOffset":585696,"byteLength":192,"target":34962},{"buffer":0,"byteOffset":15641292,"byteLength":320,"target":34962}],"accessors":[{"bufferView":0,"componentType":5126,"count":324,"type":"VEC3","min":[-0.5,-0.5,-0.5],"max":[0.5,0.5,0.5]},{"bufferView":1,"componentType":5126,"count":324,"type":"VEC3"},{"bufferView":2,"componentType":5126,"count":324,"type":"VEC2"},{"bufferView":3,"componentType":5126,"count":324,"type":"VEC3","min":[-0.5,-0.5,-0.5],"max":[0.5,0.5,0.5]},{"bufferView":4,"componentType":5126,"count":324,"type":"VEC2"},{"bufferView":5,"componentType":5126,"count":324,"type":"VEC3","min":[-0.5,-0.5,-0.5],"max":[0.5,0.5,0.5]},{"bufferView":6,"componentType":5126,"count":324,"type":"VEC2"},{"bufferView":7,"componentType":5126,"count":148,"type":"VEC3","min":[-1,-0.5,-1],"max":[1,0.5,1]},{"bufferView":8,"componentType":5126,"count":148,"type":"VEC3"},{"bufferView":9,"componentType":5126,"count":148,"type":"VEC2"},{"bufferView":10,"componentType":5123,"count":288,"type":"SCALAR"},{"bufferView":11,"componentType":5126,"count":324,"type":"VEC2"},{"bufferView":12,"componentType":5126,"count":324,"type":"VEC2"},{"bufferView":13,"componentType":5126,"count":324,"type":"VEC2"},{"bufferView":14,"componentType":5126,"count":52,"type":"VEC3","min":[-1,-0.5,-1],"max":[1,0.5,1]},{"bufferView":15,"componentType":5126,"count":52,"type":"VEC3"},{"bufferView":16,"componentType":5126,"count":52,"type":"VEC2"},{"bufferView":17,"componentType":5123,"count":96,"type":"SCALAR"},{"bufferView":18,"componentType":5126,"count":24,"type":"VEC3","min":[-0.5,-0.5,-0.02500000037252903],"max":[0.5,0.5,0.02500000037252903]},{"bufferView":19,"componentType":5126,"count":24,"type":"VEC3"},{"bufferView":20,"componentType":5126,"count":24,"type":"VEC2"},{"bufferView":21,"componentType":5123,"count":36,"type":"SCALAR"},{"bufferView":22,"componentType":5126,"count":4,"type":"VEC3","min":[-0.5,-0.5,0],"max":[0.5,0.5,0]},{"bufferView":23,"componentType":5126,"count":4,"type":"VEC3"},{"bufferView":24,"componentType":5126,"count":4,"type":"VEC2"},{"bufferView":25,"componentType":5123,"count":6,"type":"SCALAR"},{"bufferView":26,"componentType":5126,"count":324,"type":"VEC2"},{"bufferView":27,"componentType":5126,"count":324,"type":"VEC2"},{"bufferView":28,"componentType":5126,"count":24,"type":"VEC3","min":[-0.5,-0.5,-0.5],"max":[0.5,0.5,0.5]},{"bufferView":29,"componentType":5126,"count":24,"type":"VEC2"},{"bufferView":30,"componentType":5126,"count":24,"type":"VEC2"},{"bufferView":31,"componentType":5126,"count":24,"type":"VEC2"},{"bufferView":32,"componentType":5126,"count":76,"type":"VEC3","min":[-1,-0.5,-1],"max":[1,0.5,1]},{"bufferView":33,"componentType":5126,"count":76,"type":"VEC3"},{"bufferView":34,"componentType":5126,"count":76,"type":"VEC2"},{"bufferView":35,"componentType":5123,"count":144,"type":"SCALAR"},{"bufferView":36,"componentType":5126,"count":24,"type":"VEC2"},{"bufferView":37,"componentType":5126,"count":24,"type":"VEC2"},{"bufferView":38,"componentType":5126,"count":24,"type":"VEC2"},{"bufferView":39,"componentType":5126,"count":40,"type":"VEC3","min":[-0.8660253882408142,-0.5,-1],"max":[0.8660253882408142,0.5,1]},{"bufferView":40,"componentType":5126,"count":40,"type":"VEC3"},{"bufferView":41,"componentType":5126,"count":40,"type":"VEC2"},{"bufferView":42,"componentType":5123,"count":72,"type":"SCALAR"},{"bufferView":43,"componentType":5126,"count":24,"type":"VEC2"},{"bufferView":44,"componentType":5126,"count":24,"type":"VEC2"},{"bufferView":45,"componentType":5126,"count":40,"type":"VEC2"}],"extensionsUsed":["KHR_materials_unlit"],"extras":{"id":"vlt-wallet-er-22","family":"wallet-er","variant":21,"plan":"A2-2","units":"metres","up":"+Y","front":"+Z","lodScenes":[0,1,2]}}