{"asset":{"version":"2.0","generator":"SLOPMERICA Department of Unnecessary Development 1.0"},"scene":0,"scenes":[{"name":"LOD 0","nodes":[0,1,2,3,4,5,6,7,8,9,10,11,12,13,14,15,16,17,18,19,20,21,22,23,24,25,26,27],"extras":{"level":0}},{"name":"LOD 1","nodes":[28,29,30,31,32,33,34,35,36,37,38,39,40,41,42,43,44,45,46,47,48,49,50,51,52],"extras":{"level":1}},{"name":"LOD 2","nodes":[53,54,55,56,57,58,59,60,61,62,63,64,65],"extras":{"level":2}}],"nodes":[{"name":"foundation","mesh":0,"translation":[0,0.08,0],"scale":[17.56,0.16,14.86]},{"name":"store-shell","mesh":1,"translation":[0,1.6791,0],"scale":[9.5232,3.3582,7.8492]},{"name":"roof-cap","mesh":2,"translation":[0,3.4682,0],"scale":[9.7732,0.22,8.0992]},{"name":"window-0","mesh":3,"translation":[-3.523584,1.477608,3.9796],"scale":[1.536,1.45,0.09]},{"name":"window-1","mesh":3,"translation":[-1.174528,1.477608,3.9796],"scale":[1.536,1.45,0.09]},{"name":"window-2","mesh":3,"translation":[1.174528,1.477608,3.9796],"scale":[1.536,1.45,0.09]},{"name":"window-3","mesh":3,"translation":[3.523584,1.477608,3.9796],"scale":[1.536,1.45,0.09]},{"name":"door","mesh":4,"translation":[3.33312,1.025,3.9946],"scale":[0.92,2.05,0.12]},{"name":"awning","mesh":5,"translation":[0,2.216412,4.4046],"rotation":[-0.039989,0,0,0.9992],"scale":[7.809024,0.18,1.05]},{"name":"mullion-0","mesh":6,"translation":[-3.047424,1.477608,4.0446],"scale":[0.08,1.55,0.12]},{"name":"mullion-1","mesh":6,"translation":[0,1.477608,4.0446],"scale":[0.08,1.55,0.12]},{"name":"mullion-2","mesh":6,"translation":[3.047424,1.477608,4.0446],"scale":[0.08,1.55,0.12]},{"name":"primary-sign-back","mesh":7,"translation":[0,2.652978,4.0846],"scale":[6.004384,1.25,1]},{"name":"primary-sign","mesh":8,"translation":[0,2.652978,4.1136],"scale":[5.904384,1.15,1]},{"name":"return-funnel","mesh":9,"translation":[4.608,4.9215,-1.266],"rotation":[1,0,0,0],"scale":[5.2224,6.948,5.2224]},{"name":"return-chute","mesh":10,"translation":[0,0,0]},{"name":"returned-box-0","mesh":11,"translation":[-1.5,0.35,7.8492],"scale":[0.7,0.5,0.6]},{"name":"returned-box-1","mesh":12,"translation":[-0.5,0.8,7.8492],"rotation":[0,0.109778,0,0.993956],"scale":[0.7,0.5,0.6]},{"name":"returned-box-2","mesh":11,"translation":[0.5,0.35,7.8492],"rotation":[0,0.21823,0,0.975897],"scale":[0.7,0.5,0.6]},{"name":"returned-box-3","mesh":12,"translation":[1.5,0.8,7.8492],"rotation":[0,0.324043,0,0.946042],"scale":[0.7,0.5,0.6]},{"name":"return-sign-back","mesh":7,"translation":[0,2.5476,4.0512],"scale":[6.244,1.1,1]},{"name":"return-sign","mesh":8,"translation":[0,2.5476,4.0802],"scale":[6.144,1,1]},{"name":"busy-state-queue-bar","mesh":13,"translation":[0,0.65,7.9758],"scale":[11.0592,0.12,0.12]},{"name":"queue-car-0","mesh":14,"translation":[-4.608,0.34,8.862],"scale":[1.35,0.65,0.7]},{"name":"queue-car-1","mesh":15,"translation":[-2.304,0.34,9.8748],"scale":[1.35,0.65,0.7]},{"name":"queue-car-2","mesh":14,"translation":[0,0.34,8.862],"scale":[1.35,0.65,0.7]},{"name":"queue-car-3","mesh":15,"translation":[2.304,0.34,9.8748],"scale":[1.35,0.65,0.7]},{"name":"queue-car-4","mesh":14,"translation":[4.608,0.34,8.862],"scale":[1.35,0.65,0.7]},{"name":"foundation","mesh":16,"translation":[0,0.08,0],"scale":[17.56,0.16,14.86]},{"name":"store-shell","mesh":17,"translation":[0,1.6791,0],"scale":[9.5232,3.3582,7.8492]},{"name":"roof-cap","mesh":18,"translation":[0,3.4682,0],"scale":[9.7732,0.22,8.0992]},{"name":"window-0","mesh":19,"translation":[-3.523584,1.477608,3.9796],"scale":[2.048,1.45,0.09]},{"name":"window-1","mesh":19,"translation":[0,1.477608,3.9796],"scale":[2.048,1.45,0.09]},{"name":"window-2","mesh":19,"translation":[3.523584,1.477608,3.9796],"scale":[2.048,1.45,0.09]},{"name":"door","mesh":20,"translation":[3.33312,1.025,3.9946],"scale":[0.92,2.05,0.12]},{"name":"awning","mesh":21,"translation":[0,2.216412,4.4046],"rotation":[-0.039989,0,0,0.9992],"scale":[7.809024,0.18,1.05]},{"name":"mullion-0","mesh":22,"translation":[-3.047424,1.477608,4.0446],"scale":[0.08,1.55,0.12]},{"name":"mullion-1","mesh":22,"translation":[0,1.477608,4.0446],"scale":[0.08,1.55,0.12]},{"name":"mullion-2","mesh":22,"translation":[3.047424,1.477608,4.0446],"scale":[0.08,1.55,0.12]},{"name":"primary-sign-back","mesh":7,"translation":[0,2.652978,4.0846],"scale":[6.004384,1.25,1]},{"name":"primary-sign","mesh":8,"translation":[0,2.652978,4.1136],"scale":[5.904384,1.15,1]},{"name":"return-funnel","mesh":23,"translation":[4.608,4.9215,-1.266],"rotation":[1,0,0,0],"scale":[5.2224,6.948,5.2224]},{"name":"return-chute","mesh":24,"translation":[0,0,0]},{"name":"returned-box-0","mesh":25,"translation":[-1.5,0.35,7.8492],"scale":[0.7,0.5,0.6]},{"name":"returned-box-1","mesh":26,"translation":[-0.5,0.8,7.8492],"rotation":[0,0.109778,0,0.993956],"scale":[0.7,0.5,0.6]},{"name":"returned-box-2","mesh":25,"translation":[0.5,0.35,7.8492],"rotation":[0,0.21823,0,0.975897],"scale":[0.7,0.5,0.6]},{"name":"returned-box-3","mesh":26,"translation":[1.5,0.8,7.8492],"rotation":[0,0.324043,0,0.946042],"scale":[0.7,0.5,0.6]},{"name":"return-sign-back","mesh":7,"translation":[0,2.5476,4.0512],"scale":[6.244,1.1,1]},{"name":"return-sign","mesh":8,"translation":[0,2.5476,4.0802],"scale":[6.144,1,1]},{"name":"busy-state-queue-bar","mesh":27,"translation":[0,0.65,7.9758],"scale":[11.0592,0.12,0.12]},{"name":"queue-car-0","mesh":28,"translation":[-4.608,0.34,8.862],"scale":[1.35,0.65,0.7]},{"name":"queue-car-1","mesh":29,"translation":[-2.304,0.34,9.8748],"scale":[1.35,0.65,0.7]},{"name":"queue-car-2","mesh":28,"translation":[0,0.34,8.862],"scale":[1.35,0.65,0.7]},{"name":"foundation","mesh":16,"translation":[0,0.08,0],"scale":[17.56,0.16,14.86]},{"name":"store-shell","mesh":17,"translation":[0,1.6791,0],"scale":[9.5232,3.3582,7.8492]},{"name":"roof-cap","mesh":18,"translation":[0,3.4682,0],"scale":[9.7732,0.22,8.0992]},{"name":"window-0","mesh":30,"translation":[0,1.477608,3.9796],"scale":[6.144,1.45,0.09]},{"name":"door","mesh":20,"translation":[3.33312,1.025,3.9946],"scale":[0.92,2.05,0.12]},{"name":"primary-sign-back","mesh":7,"translation":[0,2.652978,4.0846],"scale":[6.004384,1.25,1]},{"name":"primary-sign","mesh":8,"translation":[0,2.652978,4.1136],"scale":[5.904384,1.15,1]},{"name":"return-funnel","mesh":31,"translation":[4.608,4.9215,-1.266],"rotation":[1,0,0,0],"scale":[5.2224,6.948,5.2224]},{"name":"return-chute","mesh":32,"translation":[0,0,0]},{"name":"return-sign-back","mesh":7,"translation":[0,2.5476,4.0512],"scale":[6.244,1.1,1]},{"name":"return-sign","mesh":8,"translation":[0,2.5476,4.0802],"scale":[6.144,1,1]},{"name":"busy-state-queue-bar","mesh":27,"translation":[0,0.65,7.9758],"scale":[11.0592,0.12,0.12]},{"name":"queue-car-0","mesh":28,"translation":[-4.608,0.34,8.862],"scale":[1.35,0.65,0.7]}],"meshes":[{"primitives":[{"attributes":{"POSITION":0,"NORMAL":1,"TEXCOORD_0":2},"material":0,"mode":4}]},{"primitives":[{"attributes":{"POSITION":3,"NORMAL":1,"TEXCOORD_0":4},"material":1,"mode":4}]},{"primitives":[{"attributes":{"POSITION":0,"NORMAL":1,"TEXCOORD_0":5},"material":2,"mode":4}]},{"primitives":[{"attributes":{"POSITION":0,"NORMAL":1,"TEXCOORD_0":6},"material":3,"mode":4}]},{"primitives":[{"attributes":{"POSITION":0,"NORMAL":1,"TEXCOORD_0":7},"material":2,"mode":4}]},{"primitives":[{"attributes":{"POSITION":0,"NORMAL":1,"TEXCOORD_0":8},"material":4,"mode":4}]},{"primitives":[{"attributes":{"POSITION":0,"NORMAL":1,"TEXCOORD_0":9},"material":4,"mode":4}]},{"primitives":[{"attributes":{"POSITION":10,"NORMAL":11,"TEXCOORD_0":12},"material":2,"mode":4,"indices":13}]},{"primitives":[{"attributes":{"POSITION":14,"NORMAL":15,"TEXCOORD_0":16},"material":5,"mode":4,"indices":17}]},{"primitives":[{"attributes":{"POSITION":18,"NORMAL":19,"TEXCOORD_0":20},"material":4,"mode":4,"indices":21}]},{"primitives":[{"attributes":{"POSITION":22,"NORMAL":23,"TEXCOORD_0":24},"material":2,"mode":4,"indices":25}]},{"primitives":[{"attributes":{"POSITION":0,"NORMAL":1,"TEXCOORD_0":26},"material":6,"mode":4}]},{"primitives":[{"attributes":{"POSITION":0,"NORMAL":1,"TEXCOORD_0":27},"material":7,"mode":4}]},{"primitives":[{"attributes":{"POSITION":0,"NORMAL":1,"TEXCOORD_0":28},"material":4,"mode":4}]},{"primitives":[{"attributes":{"POSITION":0,"NORMAL":1,"TEXCOORD_0":29},"material":8,"mode":4}]},{"primitives":[{"attributes":{"POSITION":0,"NORMAL":1,"TEXCOORD_0":29},"material":9,"mode":4}]},{"primitives":[{"attributes":{"POSITION":30,"NORMAL":11,"TEXCOORD_0":31},"material":0,"mode":4,"indices":13}]},{"primitives":[{"attributes":{"POSITION":30,"NORMAL":11,"TEXCOORD_0":32},"material":1,"mode":4,"indices":13}]},{"primitives":[{"attributes":{"POSITION":30,"NORMAL":11,"TEXCOORD_0":33},"material":2,"mode":4,"indices":13}]},{"primitives":[{"attributes":{"POSITION":30,"NORMAL":11,"TEXCOORD_0":34},"material":3,"mode":4,"indices":13}]},{"primitives":[{"attributes":{"POSITION":30,"NORMAL":11,"TEXCOORD_0":35},"material":2,"mode":4,"indices":13}]},{"primitives":[{"attributes":{"POSITION":30,"NORMAL":11,"TEXCOORD_0":36},"material":4,"mode":4,"indices":13}]},{"primitives":[{"attributes":{"POSITION":30,"NORMAL":11,"TEXCOORD_0":37},"material":4,"mode":4,"indices":13}]},{"primitives":[{"attributes":{"POSITION":38,"NORMAL":39,"TEXCOORD_0":40},"material":4,"mode":4,"indices":41}]},{"primitives":[{"attributes":{"POSITION":42,"NORMAL":43,"TEXCOORD_0":44},"material":2,"mode":4,"indices":45}]},{"primitives":[{"attributes":{"POSITION":30,"NORMAL":11,"TEXCOORD_0":46},"material":6,"mode":4,"indices":13}]},{"primitives":[{"attributes":{"POSITION":30,"NORMAL":11,"TEXCOORD_0":47},"material":7,"mode":4,"indices":13}]},{"primitives":[{"attributes":{"POSITION":30,"NORMAL":11,"TEXCOORD_0":48},"material":4,"mode":4,"indices":13}]},{"primitives":[{"attributes":{"POSITION":30,"NORMAL":11,"TEXCOORD_0":49},"material":8,"mode":4,"indices":13}]},{"primitives":[{"attributes":{"POSITION":30,"NORMAL":11,"TEXCOORD_0":49},"material":9,"mode":4,"indices":13}]},{"primitives":[{"attributes":{"POSITION":30,"NORMAL":11,"TEXCOORD_0":50},"material":3,"mode":4,"indices":13}]},{"primitives":[{"attributes":{"POSITION":51,"NORMAL":52,"TEXCOORD_0":53},"material":4,"mode":4,"indices":54}]},{"primitives":[{"attributes":{"POSITION":55,"NORMAL":56,"TEXCOORD_0":57},"material":2,"mode":4,"indices":58}]}],"materials":[{"name":"concrete","pbrMetallicRoughness":{"baseColorTexture":{"index":0},"metallicRoughnessTexture":{"index":2},"roughnessFactor":1,"metallicFactor":1},"normalTexture":{"index":1,"scale":0.82},"occlusionTexture":{"index":2,"strength":0.35}},{"name":"metal-galvanized","pbrMetallicRoughness":{"baseColorTexture":{"index":3},"metallicRoughnessTexture":{"index":5},"roughnessFactor":1,"metallicFactor":1},"normalTexture":{"index":4,"scale":0.15},"occlusionTexture":{"index":5,"strength":0.35}},{"name":"metal-dark","pbrMetallicRoughness":{"baseColorTexture":{"index":6},"metallicRoughnessTexture":{"index":8},"roughnessFactor":1,"metallicFactor":1},"normalTexture":{"index":7,"scale":0.35},"occlusionTexture":{"index":8,"strength":0.35}},{"name":"glass-blue","pbrMetallicRoughness":{"baseColorTexture":{"index":9},"metallicRoughnessTexture":{"index":11},"roughnessFactor":1,"metallicFactor":1},"normalTexture":{"index":10,"scale":0.12},"occlusionTexture":{"index":11,"strength":0.35}},{"name":"paint-orange","pbrMetallicRoughness":{"baseColorFactor":[0.6444796819634361,0.1878207722902346,0.040915196900556984,1],"roughnessFactor":0.68,"metallicFactor":0.03}},{"name":"return-to-sender-outlet signage","pbrMetallicRoughness":{"baseColorTexture":{"index":12},"roughnessFactor":1,"metallicFactor":0},"extensions":{"KHR_materials_unlit":{}}},{"name":"paint-yellow","pbrMetallicRoughness":{"baseColorFactor":[0.76052450467022,0.4793201830913402,0.07818742179702069,1],"roughnessFactor":0.66,"metallicFactor":0.03}},{"name":"brick-cream","pbrMetallicRoughness":{"baseColorTexture":{"index":13},"metallicRoughnessTexture":{"index":15},"roughnessFactor":1,"metallicFactor":1},"normalTexture":{"index":14,"scale":1.05},"occlusionTexture":{"index":15,"strength":0.35}},{"name":"paint-red","pbrMetallicRoughness":{"baseColorFactor":[0.46778379610254284,0.08021982030622662,0.05126945836711539,1],"roughnessFactor":0.62,"metallicFactor":0.05}},{"name":"paint-blue","pbrMetallicRoughness":{"baseColorFactor":[0.05126945836711539,0.10946171076915331,0.22696587349938613,1],"roughnessFactor":0.58,"metallicFactor":0.05}}],"textures":[{"source":0,"sampler":0},{"source":1,"sampler":0},{"source":2,"sampler":0},{"source":3,"sampler":0},{"source":4,"sampler":0},{"source":5,"sampler":0},{"source":6,"sampler":0},{"source":7,"sampler":0},{"source":8,"sampler":0},{"source":9,"sampler":0},{"source":10,"sampler":0},{"source":11,"sampler":0},{"source":12,"sampler":0},{"source":13,"sampler":0},{"source":14,"sampler":0},{"source":15,"sampler":0}],"images":[{"uri":"../textures/concrete-albedo.png"},{"uri":"../textures/concrete-normal.png"},{"uri":"../textures/concrete-orm.png"},{"uri":"../textures/metal-galvanized-albedo.png"},{"uri":"../textures/metal-galvanized-normal.png"},{"uri":"../textures/metal-galvanized-orm.png"},{"uri":"../textures/metal-dark-albedo.png"},{"uri":"../textures/metal-dark-normal.png"},{"uri":"../textures/metal-dark-orm.png"},{"uri":"../textures/glass-blue-albedo.png"},{"uri":"../textures/glass-blue-normal.png"},{"uri":"../textures/glass-blue-orm.png"},{"uri":"../signs/return-to-sender-outlet.png"},{"uri":"../textures/brick-cream-albedo.png"},{"uri":"../textures/brick-cream-normal.png"},{"uri":"../textures/brick-cream-orm.png"}],"samplers":[{"magFilter":9729,"minFilter":9987,"wrapS":10497,"wrapT":10497}],"buffers":[{"uri":"../shared/geometry.bin","byteLength":16435520}],"bufferViews":[{"buffer":0,"byteOffset":0,"byteLength":3888,"target":34962},{"buffer":0,"byteOffset":3888,"byteLength":3888,"target":34962},{"buffer":0,"byteOffset":10645680,"byteLength":2592,"target":34962},{"buffer":0,"byteOffset":822696,"byteLength":3888,"target":34962},{"buffer":0,"byteOffset":12349724,"byteLength":2592,"target":34962},{"buffer":0,"byteOffset":12352316,"byteLength":2592,"target":34962},{"buffer":0,"byteOffset":12174020,"byteLength":2592,"target":34962},{"buffer":0,"byteOffset":1428216,"byteLength":2592,"target":34962},{"buffer":0,"byteOffset":12176612,"byteLength":2592,"target":34962},{"buffer":0,"byteOffset":1433400,"byteLength":2592,"target":34962},{"buffer":0,"byteOffset":45664,"byteLength":288,"target":34962},{"buffer":0,"byteOffset":45952,"byteLength":288,"target":34962},{"buffer":0,"byteOffset":46240,"byteLength":192,"target":34962},{"buffer":0,"byteOffset":46432,"byteLength":72,"target":34963},{"buffer":0,"byteOffset":46504,"byteLength":48,"target":34962},{"buffer":0,"byteOffset":46552,"byteLength":48,"target":34962},{"buffer":0,"byteOffset":222884,"byteLength":32,"target":34962},{"buffer":0,"byteOffset":46632,"byteLength":12,"target":34963},{"buffer":0,"byteOffset":12152156,"byteLength":1056,"target":34962},{"buffer":0,"byteOffset":12153212,"byteLength":1056,"target":34962},{"buffer":0,"byteOffset":12179204,"byteLength":704,"target":34962},{"buffer":0,"byteOffset":3762292,"byteLength":336,"target":34963},{"buffer":0,"byteOffset":12354908,"byteLength":1404,"target":34962},{"buffer":0,"byteOffset":12356312,"byteLength":1404,"target":34962},{"buffer":0,"byteOffset":10880064,"byteLength":936,"target":34962},{"buffer":0,"byteOffset":2086708,"byteLength":1152,"target":34963},{"buffer":0,"byteOffset":12157780,"byteLength":2592,"target":34962},{"buffer":0,"byteOffset":12160372,"byteLength":2592,"target":34962},{"buffer":0,"byteOffset":10670736,"byteLength":2592,"target":34962},{"buffer":0,"byteOffset":582912,"byteLength":2592,"target":34962},{"buffer":0,"byteOffset":46644,"byteLength":288,"target":34962},{"buffer":0,"byteOffset":10650864,"byteLength":192,"target":34962},{"buffer":0,"byteOffset":12357716,"byteLength":192,"target":34962},{"buffer":0,"byteOffset":12357908,"byteLength":192,"target":34962},{"buffer":0,"byteOffset":12183100,"byteLength":192,"target":34962},{"buffer":0,"byteOffset":1447128,"byteLength":192,"target":34962},{"buffer":0,"byteOffset":12183292,"byteLength":192,"target":34962},{"buffer":0,"byteOffset":1447512,"byteLength":192,"target":34962},{"buffer":0,"byteOffset":12163732,"byteLength":552,"target":34962},{"buffer":0,"byteOffset":12164284,"byteLength":552,"target":34962},{"buffer":0,"byteOffset":12183484,"byteLength":368,"target":34962},{"buffer":0,"byteOffset":3772292,"byteLength":168,"target":34963},{"buffer":0,"byteOffset":12358100,"byteLength":588,"target":34962},{"buffer":0,"byteOffset":12358688,"byteLength":588,"target":34962},{"buffer":0,"byteOffset":10883192,"byteLength":392,"target":34962},{"buffer":0,"byteOffset":2096404,"byteLength":432,"target":34963},{"buffer":0,"byteOffset":12166380,"byteLength":192,"target":34962},{"buffer":0,"byteOffset":12166572,"byteLength":192,"target":34962},{"buffer":0,"byteOffset":10673328,"byteLength":192,"target":34962},{"buffer":0,"byteOffset":585696,"byteLength":192,"target":34962},{"buffer":0,"byteOffset":12185028,"byteLength":192,"target":34962},{"buffer":0,"byteOffset":12166956,"byteLength":480,"target":34962},{"buffer":0,"byteOffset":12167436,"byteLength":480,"target":34962},{"buffer":0,"byteOffset":12185220,"byteLength":320,"target":34962},{"buffer":0,"byteOffset":48596,"byteLength":144,"target":34963},{"buffer":0,"byteOffset":12359276,"byteLength":300,"target":34962},{"buffer":0,"byteOffset":12359576,"byteLength":300,"target":34962},{"buffer":0,"byteOffset":2878428,"byteLength":200,"target":34962},{"buffer":0,"byteOffset":440168,"byteLength":192,"target":34963}],"accessors":[{"bufferView":0,"componentType":5126,"count":324,"type":"VEC3","min":[-0.5,-0.5,-0.5],"max":[0.5,0.5,0.5]},{"bufferView":1,"componentType":5126,"count":324,"type":"VEC3"},{"bufferView":2,"componentType":5126,"count":324,"type":"VEC2"},{"bufferView":3,"componentType":5126,"count":324,"type":"VEC3","min":[-0.5,-0.5,-0.5],"max":[0.5,0.5,0.5]},{"bufferView":4,"componentType":5126,"count":324,"type":"VEC2"},{"bufferView":5,"componentType":5126,"count":324,"type":"VEC2"},{"bufferView":6,"componentType":5126,"count":324,"type":"VEC2"},{"bufferView":7,"componentType":5126,"count":324,"type":"VEC2"},{"bufferView":8,"componentType":5126,"count":324,"type":"VEC2"},{"bufferView":9,"componentType":5126,"count":324,"type":"VEC2"},{"bufferView":10,"componentType":5126,"count":24,"type":"VEC3","min":[-0.5,-0.5,-0.02500000037252903],"max":[0.5,0.5,0.02500000037252903]},{"bufferView":11,"componentType":5126,"count":24,"type":"VEC3"},{"bufferView":12,"componentType":5126,"count":24,"type":"VEC2"},{"bufferView":13,"componentType":5123,"count":36,"type":"SCALAR"},{"bufferView":14,"componentType":5126,"count":4,"type":"VEC3","min":[-0.5,-0.5,0],"max":[0.5,0.5,0]},{"bufferView":15,"componentType":5126,"count":4,"type":"VEC3"},{"bufferView":16,"componentType":5126,"count":4,"type":"VEC2"},{"bufferView":17,"componentType":5123,"count":6,"type":"SCALAR"},{"bufferView":18,"componentType":5126,"count":88,"type":"VEC3","min":[-0.9749279022216797,-0.5,-1],"max":[0.9749279022216797,0.5,1]},{"bufferView":19,"componentType":5126,"count":88,"type":"VEC3"},{"bufferView":20,"componentType":5126,"count":88,"type":"VEC2"},{"bufferView":21,"componentType":5123,"count":168,"type":"SCALAR"},{"bufferView":22,"componentType":5126,"count":117,"type":"VEC3","min":[-0.542717456817627,0.17265799641609192,-1.483922004699707],"max":[4.919303894042969,2.229980945587158,8.645312309265137]},{"bufferView":23,"componentType":5126,"count":117,"type":"VEC3"},{"bufferView":24,"componentType":5126,"count":117,"type":"VEC2"},{"bufferView":25,"componentType":5123,"count":576,"type":"SCALAR"},{"bufferView":26,"componentType":5126,"count":324,"type":"VEC2"},{"bufferView":27,"componentType":5126,"count":324,"type":"VEC2"},{"bufferView":28,"componentType":5126,"count":324,"type":"VEC2"},{"bufferView":29,"componentType":5126,"count":324,"type":"VEC2"},{"bufferView":30,"componentType":5126,"count":24,"type":"VEC3","min":[-0.5,-0.5,-0.5],"max":[0.5,0.5,0.5]},{"bufferView":31,"componentType":5126,"count":24,"type":"VEC2"},{"bufferView":32,"componentType":5126,"count":24,"type":"VEC2"},{"bufferView":33,"componentType":5126,"count":24,"type":"VEC2"},{"bufferView":34,"componentType":5126,"count":24,"type":"VEC2"},{"bufferView":35,"componentType":5126,"count":24,"type":"VEC2"},{"bufferView":36,"componentType":5126,"count":24,"type":"VEC2"},{"bufferView":37,"componentType":5126,"count":24,"type":"VEC2"},{"bufferView":38,"componentType":5126,"count":46,"type":"VEC3","min":[-0.9749279022216797,-0.5,-0.9009688496589661],"max":[0.9749279022216797,0.5,1]},{"bufferView":39,"componentType":5126,"count":46,"type":"VEC3"},{"bufferView":40,"componentType":5126,"count":46,"type":"VEC2"},{"bufferView":41,"componentType":5123,"count":84,"type":"SCALAR"},{"bufferView":42,"componentType":5126,"count":49,"type":"VEC3","min":[-0.5050228834152222,0.17265799641609192,-1.473650574684143],"max":[4.890844821929932,2.229980945587158,8.645312309265137]},{"bufferView":43,"componentType":5126,"count":49,"type":"VEC3"},{"bufferView":44,"componentType":5126,"count":49,"type":"VEC2"},{"bufferView":45,"componentType":5123,"count":216,"type":"SCALAR"},{"bufferView":46,"componentType":5126,"count":24,"type":"VEC2"},{"bufferView":47,"componentType":5126,"count":24,"type":"VEC2"},{"bufferView":48,"componentType":5126,"count":24,"type":"VEC2"},{"bufferView":49,"componentType":5126,"count":24,"type":"VEC2"},{"bufferView":50,"componentType":5126,"count":24,"type":"VEC2"},{"bufferView":51,"componentType":5126,"count":40,"type":"VEC3","min":[-0.8660253882408142,-0.5,-1],"max":[0.8660253882408142,0.5,1]},{"bufferView":52,"componentType":5126,"count":40,"type":"VEC3"},{"bufferView":53,"componentType":5126,"count":40,"type":"VEC2"},{"bufferView":54,"componentType":5123,"count":72,"type":"SCALAR"},{"bufferView":55,"componentType":5126,"count":25,"type":"VEC3","min":[-0.484088659286499,0.17265799641609192,-1.483922004699707],"max":[4.919303894042969,2.229980945587158,8.645312309265137]},{"bufferView":56,"componentType":5126,"count":25,"type":"VEC3"},{"bufferView":57,"componentType":5126,"count":25,"type":"VEC2"},{"bufferView":58,"componentType":5123,"count":96,"type":"SCALAR"}],"extensionsUsed":["KHR_materials_unlit"],"extras":{"id":"vlt-return-to-sender-outlet-37","family":"return-to-sender-outlet","variant":36,"plan":"D2-2","units":"metres","up":"+Y","front":"+Z","lodScenes":[0,1,2]}}