{"asset":{"version":"2.0","generator":"SLOPMERICA Department of Unnecessary Development 1.0"},"scene":0,"scenes":[{"name":"LOD 0","nodes":[0,1,2,3,4,5,6,7,8,9,10,11,12,13,14,15,16,17,18,19,20,21,22,23,24,25,26,27,28,29,30,31,32,33,34,35,36,37,38,39,40,41,42,43,44,45,46,47,48],"extras":{"level":0}},{"name":"LOD 1","nodes":[49,50,51,52,53,54,55,56,57,58,59,60,61,62,63,64,65,66,67,68,69,70,71,72,73,74,75,76,77,78,79,80,81,82,83,84,85,86,87,88,89,90,91,92,93,94,95,96,97],"extras":{"level":1}},{"name":"LOD 2","nodes":[98,99,100,101,102,103,104,105,106,107,108,109,110,111],"extras":{"level":2}}],"nodes":[{"name":"site-pad","mesh":0,"translation":[0,0.06,0],"scale":[19.2192,0.12,13.9776]},{"name":"variant-apron","mesh":1,"translation":[3.6036,0.13,6.94],"scale":[5.4516,0.08,1.34]},{"name":"bollard-0","mesh":2,"translation":[-7.0224,0.43,7.06],"scale":[0.08,0.74,0.08]},{"name":"bollard-1","mesh":2,"translation":[-2.3408,0.43,7.06],"scale":[0.08,0.74,0.08]},{"name":"bollard-2","mesh":2,"translation":[2.3408,0.43,7.06],"scale":[0.08,0.74,0.08]},{"name":"bollard-3","mesh":2,"translation":[7.0224,0.43,7.06],"scale":[0.08,0.74,0.08]},{"name":"layout-cabinet","mesh":3,"translation":[9.44,0.585,3.024],"scale":[0.81,0.93,0.32]},{"name":"transformer-0-0","mesh":4,"translation":[-6.2832,1.1,-2.9568],"scale":[1.15,1.96,0.9]},{"name":"insulator-0-0","mesh":5,"translation":[-6.2832,2.61,-2.9568],"scale":[0.12,1.1,0.12]},{"name":"transformer-0-1","mesh":4,"translation":[-3.76992,1.1,-2.9568],"scale":[1.15,1.96,0.9]},{"name":"insulator-0-1","mesh":5,"translation":[-3.76992,2.61,-2.9568],"scale":[0.12,1.1,0.12]},{"name":"transformer-0-2","mesh":4,"translation":[-1.25664,1.1,-2.9568],"scale":[1.15,1.96,0.9]},{"name":"insulator-0-2","mesh":5,"translation":[-1.25664,2.61,-2.9568],"scale":[0.12,1.1,0.12]},{"name":"transformer-0-3","mesh":4,"translation":[1.25664,1.1,-2.9568],"scale":[1.15,1.96,0.9]},{"name":"insulator-0-3","mesh":5,"translation":[1.25664,2.61,-2.9568],"scale":[0.12,1.1,0.12]},{"name":"transformer-0-4","mesh":4,"translation":[3.76992,1.1,-2.9568],"scale":[1.15,1.96,0.9]},{"name":"insulator-0-4","mesh":5,"translation":[3.76992,2.61,-2.9568],"scale":[0.12,1.1,0.12]},{"name":"transformer-0-5","mesh":4,"translation":[6.2832,1.1,-2.9568],"scale":[1.15,1.96,0.9]},{"name":"insulator-0-5","mesh":5,"translation":[6.2832,2.61,-2.9568],"scale":[0.12,1.1,0.12]},{"name":"transformer-1-0","mesh":4,"translation":[-6.2832,1.1,2.9568],"scale":[1.15,1.96,0.9]},{"name":"insulator-1-0","mesh":5,"translation":[-6.2832,2.61,2.9568],"scale":[0.12,1.1,0.12]},{"name":"transformer-1-1","mesh":4,"translation":[-3.76992,1.1,2.9568],"scale":[1.15,1.96,0.9]},{"name":"insulator-1-1","mesh":5,"translation":[-3.76992,2.61,2.9568],"scale":[0.12,1.1,0.12]},{"name":"transformer-1-2","mesh":4,"translation":[-1.25664,1.1,2.9568],"scale":[1.15,1.96,0.9]},{"name":"insulator-1-2","mesh":5,"translation":[-1.25664,2.61,2.9568],"scale":[0.12,1.1,0.12]},{"name":"transformer-1-3","mesh":4,"translation":[1.25664,1.1,2.9568],"scale":[1.15,1.96,0.9]},{"name":"insulator-1-3","mesh":5,"translation":[1.25664,2.61,2.9568],"scale":[0.12,1.1,0.12]},{"name":"transformer-1-4","mesh":4,"translation":[3.76992,1.1,2.9568],"scale":[1.15,1.96,0.9]},{"name":"insulator-1-4","mesh":5,"translation":[3.76992,2.61,2.9568],"scale":[0.12,1.1,0.12]},{"name":"transformer-1-5","mesh":4,"translation":[6.2832,1.1,2.9568],"scale":[1.15,1.96,0.9]},{"name":"insulator-1-5","mesh":5,"translation":[6.2832,2.61,2.9568],"scale":[0.12,1.1,0.12]},{"name":"transformer-2-0","mesh":4,"translation":[-6.2832,1.1,8.8704],"scale":[1.15,1.96,0.9]},{"name":"insulator-2-0","mesh":5,"translation":[-6.2832,2.61,8.8704],"scale":[0.12,1.1,0.12]},{"name":"transformer-2-1","mesh":4,"translation":[-3.76992,1.1,8.8704],"scale":[1.15,1.96,0.9]},{"name":"insulator-2-1","mesh":5,"translation":[-3.76992,2.61,8.8704],"scale":[0.12,1.1,0.12]},{"name":"transformer-2-2","mesh":4,"translation":[-1.25664,1.1,8.8704],"scale":[1.15,1.96,0.9]},{"name":"insulator-2-2","mesh":5,"translation":[-1.25664,2.61,8.8704],"scale":[0.12,1.1,0.12]},{"name":"transformer-2-3","mesh":4,"translation":[1.25664,1.1,8.8704],"scale":[1.15,1.96,0.9]},{"name":"insulator-2-3","mesh":5,"translation":[1.25664,2.61,8.8704],"scale":[0.12,1.1,0.12]},{"name":"transformer-2-4","mesh":4,"translation":[3.76992,1.1,8.8704],"scale":[1.15,1.96,0.9]},{"name":"insulator-2-4","mesh":5,"translation":[3.76992,2.61,8.8704],"scale":[0.12,1.1,0.12]},{"name":"transformer-2-5","mesh":4,"translation":[6.2832,1.1,8.8704],"scale":[1.15,1.96,0.9]},{"name":"insulator-2-5","mesh":5,"translation":[6.2832,2.61,8.8704],"scale":[0.12,1.1,0.12]},{"name":"bus-pole--8.1312","mesh":6,"translation":[-8.1312,2.595,0],"scale":[0.2,4.95,0.2]},{"name":"busbar--8.1312","mesh":7,"translation":[0,4.7,-3.0912],"scale":[15.708,0.12,0.12]},{"name":"bus-pole-8.1312","mesh":6,"translation":[8.1312,2.595,0],"scale":[0.2,4.95,0.2]},{"name":"busbar-8.1312","mesh":7,"translation":[0,4.7,3.0912],"scale":[15.708,0.12,0.12]},{"name":"grid-sign-back","mesh":8,"translation":[0,2,6.92],"scale":[3.1,0.9,1]},{"name":"grid-sign","mesh":9,"translation":[0,2,6.949],"scale":[3,0.8,1]},{"name":"site-pad","mesh":10,"translation":[0,0.06,0],"scale":[19.2192,0.12,13.9776]},{"name":"variant-apron","mesh":11,"translation":[3.6036,0.13,6.94],"scale":[5.4516,0.08,1.34]},{"name":"bollard-0","mesh":12,"translation":[-7.0224,0.43,7.06],"scale":[0.08,0.74,0.08]},{"name":"bollard-1","mesh":12,"translation":[-2.3408,0.43,7.06],"scale":[0.08,0.74,0.08]},{"name":"bollard-2","mesh":12,"translation":[2.3408,0.43,7.06],"scale":[0.08,0.74,0.08]},{"name":"bollard-3","mesh":12,"translation":[7.0224,0.43,7.06],"scale":[0.08,0.74,0.08]},{"name":"layout-cabinet","mesh":13,"translation":[9.44,0.585,3.024],"scale":[0.81,0.93,0.32]},{"name":"transformer-0-0","mesh":14,"translation":[-6.2832,1.1,-2.9568],"scale":[1.15,1.96,0.9]},{"name":"insulator-0-0","mesh":15,"translation":[-6.2832,2.61,-2.9568],"scale":[0.12,1.1,0.12]},{"name":"transformer-0-1","mesh":14,"translation":[-3.76992,1.1,-2.9568],"scale":[1.15,1.96,0.9]},{"name":"insulator-0-1","mesh":15,"translation":[-3.76992,2.61,-2.9568],"scale":[0.12,1.1,0.12]},{"name":"transformer-0-2","mesh":14,"translation":[-1.25664,1.1,-2.9568],"scale":[1.15,1.96,0.9]},{"name":"insulator-0-2","mesh":15,"translation":[-1.25664,2.61,-2.9568],"scale":[0.12,1.1,0.12]},{"name":"transformer-0-3","mesh":14,"translation":[1.25664,1.1,-2.9568],"scale":[1.15,1.96,0.9]},{"name":"insulator-0-3","mesh":15,"translation":[1.25664,2.61,-2.9568],"scale":[0.12,1.1,0.12]},{"name":"transformer-0-4","mesh":14,"translation":[3.76992,1.1,-2.9568],"scale":[1.15,1.96,0.9]},{"name":"insulator-0-4","mesh":15,"translation":[3.76992,2.61,-2.9568],"scale":[0.12,1.1,0.12]},{"name":"transformer-0-5","mesh":14,"translation":[6.2832,1.1,-2.9568],"scale":[1.15,1.96,0.9]},{"name":"insulator-0-5","mesh":15,"translation":[6.2832,2.61,-2.9568],"scale":[0.12,1.1,0.12]},{"name":"transformer-1-0","mesh":14,"translation":[-6.2832,1.1,2.9568],"scale":[1.15,1.96,0.9]},{"name":"insulator-1-0","mesh":15,"translation":[-6.2832,2.61,2.9568],"scale":[0.12,1.1,0.12]},{"name":"transformer-1-1","mesh":14,"translation":[-3.76992,1.1,2.9568],"scale":[1.15,1.96,0.9]},{"name":"insulator-1-1","mesh":15,"translation":[-3.76992,2.61,2.9568],"scale":[0.12,1.1,0.12]},{"name":"transformer-1-2","mesh":14,"translation":[-1.25664,1.1,2.9568],"scale":[1.15,1.96,0.9]},{"name":"insulator-1-2","mesh":15,"translation":[-1.25664,2.61,2.9568],"scale":[0.12,1.1,0.12]},{"name":"transformer-1-3","mesh":14,"translation":[1.25664,1.1,2.9568],"scale":[1.15,1.96,0.9]},{"name":"insulator-1-3","mesh":15,"translation":[1.25664,2.61,2.9568],"scale":[0.12,1.1,0.12]},{"name":"transformer-1-4","mesh":14,"translation":[3.76992,1.1,2.9568],"scale":[1.15,1.96,0.9]},{"name":"insulator-1-4","mesh":15,"translation":[3.76992,2.61,2.9568],"scale":[0.12,1.1,0.12]},{"name":"transformer-1-5","mesh":14,"translation":[6.2832,1.1,2.9568],"scale":[1.15,1.96,0.9]},{"name":"insulator-1-5","mesh":15,"translation":[6.2832,2.61,2.9568],"scale":[0.12,1.1,0.12]},{"name":"transformer-2-0","mesh":14,"translation":[-6.2832,1.1,8.8704],"scale":[1.15,1.96,0.9]},{"name":"insulator-2-0","mesh":15,"translation":[-6.2832,2.61,8.8704],"scale":[0.12,1.1,0.12]},{"name":"transformer-2-1","mesh":14,"translation":[-3.76992,1.1,8.8704],"scale":[1.15,1.96,0.9]},{"name":"insulator-2-1","mesh":15,"translation":[-3.76992,2.61,8.8704],"scale":[0.12,1.1,0.12]},{"name":"transformer-2-2","mesh":14,"translation":[-1.25664,1.1,8.8704],"scale":[1.15,1.96,0.9]},{"name":"insulator-2-2","mesh":15,"translation":[-1.25664,2.61,8.8704],"scale":[0.12,1.1,0.12]},{"name":"transformer-2-3","mesh":14,"translation":[1.25664,1.1,8.8704],"scale":[1.15,1.96,0.9]},{"name":"insulator-2-3","mesh":15,"translation":[1.25664,2.61,8.8704],"scale":[0.12,1.1,0.12]},{"name":"transformer-2-4","mesh":14,"translation":[3.76992,1.1,8.8704],"scale":[1.15,1.96,0.9]},{"name":"insulator-2-4","mesh":15,"translation":[3.76992,2.61,8.8704],"scale":[0.12,1.1,0.12]},{"name":"transformer-2-5","mesh":14,"translation":[6.2832,1.1,8.8704],"scale":[1.15,1.96,0.9]},{"name":"insulator-2-5","mesh":15,"translation":[6.2832,2.61,8.8704],"scale":[0.12,1.1,0.12]},{"name":"bus-pole--8.1312","mesh":16,"translation":[-8.1312,2.595,0],"scale":[0.2,4.95,0.2]},{"name":"busbar--8.1312","mesh":17,"translation":[0,4.7,-3.0912],"scale":[15.708,0.12,0.12]},{"name":"bus-pole-8.1312","mesh":16,"translation":[8.1312,2.595,0],"scale":[0.2,4.95,0.2]},{"name":"busbar-8.1312","mesh":17,"translation":[0,4.7,3.0912],"scale":[15.708,0.12,0.12]},{"name":"grid-sign-back","mesh":8,"translation":[0,2,6.92],"scale":[3.1,0.9,1]},{"name":"grid-sign","mesh":9,"translation":[0,2,6.949],"scale":[3,0.8,1]},{"name":"site-pad","mesh":10,"translation":[0,0.06,0],"scale":[19.2192,0.12,13.9776]},{"name":"variant-apron","mesh":11,"translation":[3.6036,0.13,6.94],"scale":[5.4516,0.08,1.34]},{"name":"bollard-0","mesh":12,"translation":[-7.0224,0.43,7.06],"scale":[0.08,0.74,0.08]},{"name":"layout-cabinet","mesh":13,"translation":[9.44,0.585,3.024],"scale":[0.81,0.93,0.32]},{"name":"transformer-0-0","mesh":14,"translation":[-6.2832,1.1,-2.9568],"scale":[1.15,1.96,0.9]},{"name":"insulator-0-0","mesh":15,"translation":[-6.2832,2.61,-2.9568],"scale":[0.12,1.1,0.12]},{"name":"transformer-0-1","mesh":14,"translation":[6.2832,1.1,-2.9568],"scale":[1.15,1.96,0.9]},{"name":"insulator-0-1","mesh":15,"translation":[6.2832,2.61,-2.9568],"scale":[0.12,1.1,0.12]},{"name":"bus-pole--8.1312","mesh":16,"translation":[-8.1312,2.595,0],"scale":[0.2,4.95,0.2]},{"name":"busbar--8.1312","mesh":17,"translation":[0,4.7,-3.0912],"scale":[15.708,0.12,0.12]},{"name":"bus-pole-8.1312","mesh":16,"translation":[8.1312,2.595,0],"scale":[0.2,4.95,0.2]},{"name":"busbar-8.1312","mesh":17,"translation":[0,4.7,3.0912],"scale":[15.708,0.12,0.12]},{"name":"grid-sign-back","mesh":8,"translation":[0,2,6.92],"scale":[3.1,0.9,1]},{"name":"grid-sign","mesh":9,"translation":[0,2,6.949],"scale":[3,0.8,1]}],"meshes":[{"primitives":[{"attributes":{"POSITION":0,"NORMAL":1,"TEXCOORD_0":2},"material":0,"mode":4}]},{"primitives":[{"attributes":{"POSITION":0,"NORMAL":1,"TEXCOORD_0":3},"material":0,"mode":4}]},{"primitives":[{"attributes":{"POSITION":4,"NORMAL":5,"TEXCOORD_0":6},"material":1,"mode":4,"indices":7}]},{"primitives":[{"attributes":{"POSITION":0,"NORMAL":1,"TEXCOORD_0":8},"material":2,"mode":4}]},{"primitives":[{"attributes":{"POSITION":9,"NORMAL":1,"TEXCOORD_0":10},"material":2,"mode":4}]},{"primitives":[{"attributes":{"POSITION":11,"NORMAL":12,"TEXCOORD_0":13},"material":3,"mode":4,"indices":7}]},{"primitives":[{"attributes":{"POSITION":0,"NORMAL":1,"TEXCOORD_0":14},"material":4,"mode":4}]},{"primitives":[{"attributes":{"POSITION":0,"NORMAL":1,"TEXCOORD_0":15},"material":3,"mode":4}]},{"primitives":[{"attributes":{"POSITION":16,"NORMAL":17,"TEXCOORD_0":18},"material":4,"mode":4,"indices":19}]},{"primitives":[{"attributes":{"POSITION":20,"NORMAL":21,"TEXCOORD_0":22},"material":5,"mode":4,"indices":23}]},{"primitives":[{"attributes":{"POSITION":24,"NORMAL":17,"TEXCOORD_0":25},"material":0,"mode":4,"indices":19}]},{"primitives":[{"attributes":{"POSITION":24,"NORMAL":17,"TEXCOORD_0":26},"material":0,"mode":4,"indices":19}]},{"primitives":[{"attributes":{"POSITION":27,"NORMAL":28,"TEXCOORD_0":29},"material":1,"mode":4,"indices":30}]},{"primitives":[{"attributes":{"POSITION":24,"NORMAL":17,"TEXCOORD_0":31},"material":2,"mode":4,"indices":19}]},{"primitives":[{"attributes":{"POSITION":24,"NORMAL":17,"TEXCOORD_0":32},"material":2,"mode":4,"indices":19}]},{"primitives":[{"attributes":{"POSITION":33,"NORMAL":34,"TEXCOORD_0":35},"material":3,"mode":4,"indices":30}]},{"primitives":[{"attributes":{"POSITION":24,"NORMAL":17,"TEXCOORD_0":36},"material":4,"mode":4,"indices":19}]},{"primitives":[{"attributes":{"POSITION":24,"NORMAL":17,"TEXCOORD_0":37},"material":3,"mode":4,"indices":19}]}],"materials":[{"name":"asphalt","pbrMetallicRoughness":{"baseColorTexture":{"index":0},"metallicRoughnessTexture":{"index":2},"roughnessFactor":1,"metallicFactor":1},"normalTexture":{"index":1,"scale":0.62},"occlusionTexture":{"index":2,"strength":0.35}},{"name":"paint-yellow","pbrMetallicRoughness":{"baseColorFactor":[0.76052450467022,0.4793201830913402,0.07818742179702069,1],"roughnessFactor":0.66,"metallicFactor":0.03}},{"name":"metal-galvanized","pbrMetallicRoughness":{"baseColorTexture":{"index":3},"metallicRoughnessTexture":{"index":5},"roughnessFactor":1,"metallicFactor":1},"normalTexture":{"index":4,"scale":0.15},"occlusionTexture":{"index":5,"strength":0.35}},{"name":"metal-copper","pbrMetallicRoughness":{"baseColorTexture":{"index":6},"metallicRoughnessTexture":{"index":8},"roughnessFactor":1,"metallicFactor":1},"normalTexture":{"index":7,"scale":0.7},"occlusionTexture":{"index":8,"strength":0.35}},{"name":"metal-dark","pbrMetallicRoughness":{"baseColorTexture":{"index":9},"metallicRoughnessTexture":{"index":11},"roughnessFactor":1,"metallicFactor":1},"normalTexture":{"index":10,"scale":0.35},"occlusionTexture":{"index":11,"strength":0.35}},{"name":"grid-substation signage","pbrMetallicRoughness":{"baseColorTexture":{"index":12},"roughnessFactor":1,"metallicFactor":0},"extensions":{"KHR_materials_unlit":{}}}],"textures":[{"source":0,"sampler":0},{"source":1,"sampler":0},{"source":2,"sampler":0},{"source":3,"sampler":0},{"source":4,"sampler":0},{"source":5,"sampler":0},{"source":6,"sampler":0},{"source":7,"sampler":0},{"source":8,"sampler":0},{"source":9,"sampler":0},{"source":10,"sampler":0},{"source":11,"sampler":0},{"source":12,"sampler":0}],"images":[{"uri":"../textures/asphalt-albedo.png"},{"uri":"../textures/asphalt-normal.png"},{"uri":"../textures/asphalt-orm.png"},{"uri":"../textures/metal-galvanized-albedo.png"},{"uri":"../textures/metal-galvanized-normal.png"},{"uri":"../textures/metal-galvanized-orm.png"},{"uri":"../textures/metal-copper-albedo.png"},{"uri":"../textures/metal-copper-normal.png"},{"uri":"../textures/metal-copper-orm.png"},{"uri":"../textures/metal-dark-albedo.png"},{"uri":"../textures/metal-dark-normal.png"},{"uri":"../textures/metal-dark-orm.png"},{"uri":"../signs/grid-substation.png"}],"samplers":[{"magFilter":9729,"minFilter":9987,"wrapS":10497,"wrapT":10497}],"buffers":[{"uri":"../shared/geometry.bin","byteLength":16435520}],"bufferViews":[{"buffer":0,"byteOffset":0,"byteLength":3888,"target":34962},{"buffer":0,"byteOffset":3888,"byteLength":3888,"target":34962},{"buffer":0,"byteOffset":6648608,"byteLength":2592,"target":34962},{"buffer":0,"byteOffset":6651200,"byteLength":2592,"target":34962},{"buffer":0,"byteOffset":12960,"byteLength":1200,"target":34962},{"buffer":0,"byteOffset":14160,"byteLength":1200,"target":34962},{"buffer":0,"byteOffset":179140,"byteLength":800,"target":34962},{"buffer":0,"byteOffset":16160,"byteLength":384,"target":34963},{"buffer":0,"byteOffset":197060,"byteLength":2592,"target":34962},{"buffer":0,"byteOffset":4709080,"byteLength":3888,"target":34962},{"buffer":0,"byteOffset":6634496,"byteLength":2592,"target":34962},{"buffer":0,"byteOffset":1101304,"byteLength":1200,"target":34962},{"buffer":0,"byteOffset":1102504,"byteLength":1200,"target":34962},{"buffer":0,"byteOffset":6532960,"byteLength":800,"target":34962},{"buffer":0,"byteOffset":6567488,"byteLength":2592,"target":34962},{"buffer":0,"byteOffset":6570080,"byteLength":2592,"target":34962},{"buffer":0,"byteOffset":45664,"byteLength":288,"target":34962},{"buffer":0,"byteOffset":45952,"byteLength":288,"target":34962},{"buffer":0,"byteOffset":46240,"byteLength":192,"target":34962},{"buffer":0,"byteOffset":46432,"byteLength":72,"target":34963},{"buffer":0,"byteOffset":46504,"byteLength":48,"target":34962},{"buffer":0,"byteOffset":46552,"byteLength":48,"target":34962},{"buffer":0,"byteOffset":199652,"byteLength":32,"target":34962},{"buffer":0,"byteOffset":46632,"byteLength":12,"target":34963},{"buffer":0,"byteOffset":46644,"byteLength":288,"target":34962},{"buffer":0,"byteOffset":6653792,"byteLength":192,"target":34962},{"buffer":0,"byteOffset":6653984,"byteLength":192,"target":34962},{"buffer":0,"byteOffset":47316,"byteLength":480,"target":34962},{"buffer":0,"byteOffset":47796,"byteLength":480,"target":34962},{"buffer":0,"byteOffset":182756,"byteLength":320,"target":34962},{"buffer":0,"byteOffset":48596,"byteLength":144,"target":34963},{"buffer":0,"byteOffset":199876,"byteLength":192,"target":34962},{"buffer":0,"byteOffset":6637280,"byteLength":192,"target":34962},{"buffer":0,"byteOffset":1112312,"byteLength":480,"target":34962},{"buffer":0,"byteOffset":1112792,"byteLength":480,"target":34962},{"buffer":0,"byteOffset":6539328,"byteLength":320,"target":34962},{"buffer":0,"byteOffset":6573056,"byteLength":192,"target":34962},{"buffer":0,"byteOffset":6573248,"byteLength":192,"target":34962}],"accessors":[{"bufferView":0,"componentType":5126,"count":324,"type":"VEC3","min":[-0.5,-0.5,-0.5],"max":[0.5,0.5,0.5]},{"bufferView":1,"componentType":5126,"count":324,"type":"VEC3"},{"bufferView":2,"componentType":5126,"count":324,"type":"VEC2"},{"bufferView":3,"componentType":5126,"count":324,"type":"VEC2"},{"bufferView":4,"componentType":5126,"count":100,"type":"VEC3","min":[-1,-0.5,-1],"max":[1,0.5,1]},{"bufferView":5,"componentType":5126,"count":100,"type":"VEC3"},{"bufferView":6,"componentType":5126,"count":100,"type":"VEC2"},{"bufferView":7,"componentType":5123,"count":192,"type":"SCALAR"},{"bufferView":8,"componentType":5126,"count":324,"type":"VEC2"},{"bufferView":9,"componentType":5126,"count":324,"type":"VEC3","min":[-0.5,-0.5,-0.5],"max":[0.5,0.5,0.5]},{"bufferView":10,"componentType":5126,"count":324,"type":"VEC2"},{"bufferView":11,"componentType":5126,"count":100,"type":"VEC3","min":[-1,-0.5,-1],"max":[1,0.5,1]},{"bufferView":12,"componentType":5126,"count":100,"type":"VEC3"},{"bufferView":13,"componentType":5126,"count":100,"type":"VEC2"},{"bufferView":14,"componentType":5126,"count":324,"type":"VEC2"},{"bufferView":15,"componentType":5126,"count":324,"type":"VEC2"},{"bufferView":16,"componentType":5126,"count":24,"type":"VEC3","min":[-0.5,-0.5,-0.02500000037252903],"max":[0.5,0.5,0.02500000037252903]},{"bufferView":17,"componentType":5126,"count":24,"type":"VEC3"},{"bufferView":18,"componentType":5126,"count":24,"type":"VEC2"},{"bufferView":19,"componentType":5123,"count":36,"type":"SCALAR"},{"bufferView":20,"componentType":5126,"count":4,"type":"VEC3","min":[-0.5,-0.5,0],"max":[0.5,0.5,0]},{"bufferView":21,"componentType":5126,"count":4,"type":"VEC3"},{"bufferView":22,"componentType":5126,"count":4,"type":"VEC2"},{"bufferView":23,"componentType":5123,"count":6,"type":"SCALAR"},{"bufferView":24,"componentType":5126,"count":24,"type":"VEC3","min":[-0.5,-0.5,-0.5],"max":[0.5,0.5,0.5]},{"bufferView":25,"componentType":5126,"count":24,"type":"VEC2"},{"bufferView":26,"componentType":5126,"count":24,"type":"VEC2"},{"bufferView":27,"componentType":5126,"count":40,"type":"VEC3","min":[-0.8660253882408142,-0.5,-1],"max":[0.8660253882408142,0.5,1]},{"bufferView":28,"componentType":5126,"count":40,"type":"VEC3"},{"bufferView":29,"componentType":5126,"count":40,"type":"VEC2"},{"bufferView":30,"componentType":5123,"count":72,"type":"SCALAR"},{"bufferView":31,"componentType":5126,"count":24,"type":"VEC2"},{"bufferView":32,"componentType":5126,"count":24,"type":"VEC2"},{"bufferView":33,"componentType":5126,"count":40,"type":"VEC3","min":[-0.8660253882408142,-0.5,-1],"max":[0.8660253882408142,0.5,1]},{"bufferView":34,"componentType":5126,"count":40,"type":"VEC3"},{"bufferView":35,"componentType":5126,"count":40,"type":"VEC2"},{"bufferView":36,"componentType":5126,"count":24,"type":"VEC2"},{"bufferView":37,"componentType":5126,"count":24,"type":"VEC2"}],"extensionsUsed":["KHR_materials_unlit"],"extras":{"id":"vlt-grid-substation-19","family":"grid-substation","variant":18,"plan":"D4-1","units":"metres","up":"+Y","front":"+Z","lodScenes":[0,1,2]}}