{"asset":{"version":"2.0","generator":"SLOPMERICA Department of Unnecessary Development 1.0"},"scene":0,"scenes":[{"name":"LOD 0","nodes":[0,1,2,3,4,5,6,7,8,9,10,11,12,13,14],"extras":{"level":0}},{"name":"LOD 1","nodes":[15,16,17,18,19,20,21,22,23,24,25,26,27,28,29],"extras":{"level":1}},{"name":"LOD 2","nodes":[30,31,32,33,34,35,36,37,38,39,40,41,42],"extras":{"level":2}}],"nodes":[{"name":"surveyed lot","mesh":0,"translation":[0,0.06,0],"scale":[14.4,0.12,7.2]},{"name":"sole bench seat","mesh":1,"translation":[0,0.62,0.6],"rotation":[0,0.039989,0,0.9992],"scale":[2.4,0.16,0.55]},{"name":"sole bench back","mesh":2,"translation":[0,1.02,0.35],"rotation":[0,0.039989,0,0.9992],"scale":[2.4,0.75,0.13]},{"name":"post -0.85 0","mesh":3,"translation":[-0.85,0.31,0.6],"scale":[0.16,0.62,0.16]},{"name":"post -0.85 1","mesh":3,"translation":[0.85,0.31,0.6],"scale":[0.16,0.62,0.16]},{"name":"six lane view","mesh":4,"translation":[0,0.14,4.5],"scale":[13.5,0.1,2.8]},{"name":"lane stripe -2","mesh":5,"translation":[-3.1,0.21,4.5],"scale":[0.12,0.03,2.8]},{"name":"lane stripe -1","mesh":5,"translation":[-1.55,0.21,4.5],"scale":[0.12,0.03,2.8]},{"name":"lane stripe 0","mesh":5,"translation":[0,0.21,4.5],"scale":[0.12,0.03,2.8]},{"name":"lane stripe 1","mesh":5,"translation":[1.55,0.21,4.5],"scale":[0.12,0.03,2.8]},{"name":"lane stripe 2","mesh":5,"translation":[3.1,0.21,4.5],"scale":[0.12,0.03,2.8]},{"name":"tiny trash can","mesh":6,"translation":[2.1,0.5,0.4],"scale":[0.65,0.9,0.65]},{"name":"stump","mesh":7,"translation":[-2.6,0.28,-0.8],"scale":[0.97,0.42,0.65]},{"name":"pocket park plaque-back","mesh":8,"translation":[0,0.95,-3],"scale":[2.8,0.9,1]},{"name":"pocket park plaque","mesh":9,"translation":[0,0.95,-2.971],"scale":[2.7,0.8,1]},{"name":"surveyed lot","mesh":10,"translation":[0,0.06,0],"scale":[14.4,0.12,7.2]},{"name":"sole bench seat","mesh":11,"translation":[0,0.62,0.6],"rotation":[0,0.039989,0,0.9992],"scale":[2.4,0.16,0.55]},{"name":"sole bench back","mesh":12,"translation":[0,1.02,0.35],"rotation":[0,0.039989,0,0.9992],"scale":[2.4,0.75,0.13]},{"name":"post -0.85 0","mesh":13,"translation":[-0.85,0.31,0.6],"scale":[0.16,0.62,0.16]},{"name":"post -0.85 1","mesh":13,"translation":[0.85,0.31,0.6],"scale":[0.16,0.62,0.16]},{"name":"six lane view","mesh":14,"translation":[0,0.14,4.5],"scale":[13.5,0.1,2.8]},{"name":"lane stripe -2","mesh":15,"translation":[-3.1,0.21,4.5],"scale":[0.12,0.03,2.8]},{"name":"lane stripe -1","mesh":15,"translation":[-1.55,0.21,4.5],"scale":[0.12,0.03,2.8]},{"name":"lane stripe 0","mesh":15,"translation":[0,0.21,4.5],"scale":[0.12,0.03,2.8]},{"name":"lane stripe 1","mesh":15,"translation":[1.55,0.21,4.5],"scale":[0.12,0.03,2.8]},{"name":"lane stripe 2","mesh":15,"translation":[3.1,0.21,4.5],"scale":[0.12,0.03,2.8]},{"name":"tiny trash can","mesh":16,"translation":[2.1,0.5,0.4],"scale":[0.65,0.9,0.65]},{"name":"stump","mesh":17,"translation":[-2.6,0.28,-0.8],"scale":[0.97,0.42,0.65]},{"name":"pocket park plaque-back","mesh":8,"translation":[0,0.95,-3],"scale":[2.8,0.9,1]},{"name":"pocket park plaque","mesh":9,"translation":[0,0.95,-2.971],"scale":[2.7,0.8,1]},{"name":"surveyed lot","mesh":10,"translation":[0,0.06,0],"scale":[14.4,0.12,7.2]},{"name":"sole bench seat","mesh":11,"translation":[0,0.62,0.6],"rotation":[0,0.039989,0,0.9992],"scale":[2.4,0.16,0.55]},{"name":"sole bench back","mesh":12,"translation":[0,1.02,0.35],"rotation":[0,0.039989,0,0.9992],"scale":[2.4,0.75,0.13]},{"name":"post -0.85 0","mesh":13,"translation":[-0.85,0.31,0.6],"scale":[0.16,0.62,0.16]},{"name":"post -0.85 1","mesh":13,"translation":[0.85,0.31,0.6],"scale":[0.16,0.62,0.16]},{"name":"six lane view","mesh":14,"translation":[0,0.14,4.5],"scale":[13.5,0.1,2.8]},{"name":"lane stripe -2","mesh":15,"translation":[-3.1,0.21,4.5],"scale":[0.12,0.03,2.8]},{"name":"lane stripe -1","mesh":15,"translation":[-1.55,0.21,4.5],"scale":[0.12,0.03,2.8]},{"name":"lane stripe 0","mesh":15,"translation":[0,0.21,4.5],"scale":[0.12,0.03,2.8]},{"name":"lane stripe 1","mesh":15,"translation":[1.55,0.21,4.5],"scale":[0.12,0.03,2.8]},{"name":"lane stripe 2","mesh":15,"translation":[3.1,0.21,4.5],"scale":[0.12,0.03,2.8]},{"name":"pocket park plaque-back","mesh":8,"translation":[0,0.95,-3],"scale":[2.8,0.9,1]},{"name":"pocket park plaque","mesh":9,"translation":[0,0.95,-2.971],"scale":[2.7,0.8,1]}],"meshes":[{"primitives":[{"attributes":{"POSITION":0,"NORMAL":1,"TEXCOORD_0":2},"material":0,"mode":4}]},{"primitives":[{"attributes":{"POSITION":0,"NORMAL":1,"TEXCOORD_0":3},"material":1,"mode":4}]},{"primitives":[{"attributes":{"POSITION":0,"NORMAL":1,"TEXCOORD_0":4},"material":1,"mode":4}]},{"primitives":[{"attributes":{"POSITION":0,"NORMAL":1,"TEXCOORD_0":5},"material":2,"mode":4}]},{"primitives":[{"attributes":{"POSITION":0,"NORMAL":1,"TEXCOORD_0":6},"material":3,"mode":4}]},{"primitives":[{"attributes":{"POSITION":0,"NORMAL":1,"TEXCOORD_0":7},"material":4,"mode":4}]},{"primitives":[{"attributes":{"POSITION":0,"NORMAL":1,"TEXCOORD_0":8},"material":2,"mode":4}]},{"primitives":[{"attributes":{"POSITION":0,"NORMAL":1,"TEXCOORD_0":9},"material":5,"mode":4}]},{"primitives":[{"attributes":{"POSITION":10,"NORMAL":11,"TEXCOORD_0":12},"material":2,"mode":4,"indices":13}]},{"primitives":[{"attributes":{"POSITION":14,"NORMAL":15,"TEXCOORD_0":16},"material":6,"mode":4,"indices":17}]},{"primitives":[{"attributes":{"POSITION":18,"NORMAL":11,"TEXCOORD_0":19},"material":0,"mode":4,"indices":13}]},{"primitives":[{"attributes":{"POSITION":18,"NORMAL":11,"TEXCOORD_0":20},"material":1,"mode":4,"indices":13}]},{"primitives":[{"attributes":{"POSITION":18,"NORMAL":11,"TEXCOORD_0":21},"material":1,"mode":4,"indices":13}]},{"primitives":[{"attributes":{"POSITION":18,"NORMAL":11,"TEXCOORD_0":22},"material":2,"mode":4,"indices":13}]},{"primitives":[{"attributes":{"POSITION":18,"NORMAL":11,"TEXCOORD_0":23},"material":3,"mode":4,"indices":13}]},{"primitives":[{"attributes":{"POSITION":18,"NORMAL":11,"TEXCOORD_0":24},"material":4,"mode":4,"indices":13}]},{"primitives":[{"attributes":{"POSITION":18,"NORMAL":11,"TEXCOORD_0":25},"material":2,"mode":4,"indices":13}]},{"primitives":[{"attributes":{"POSITION":18,"NORMAL":11,"TEXCOORD_0":26},"material":5,"mode":4,"indices":13}]}],"materials":[{"name":"concrete","pbrMetallicRoughness":{"baseColorTexture":{"index":0},"metallicRoughnessTexture":{"index":2},"roughnessFactor":1,"metallicFactor":1},"normalTexture":{"index":1,"scale":0.82},"occlusionTexture":{"index":2,"strength":0.35}},{"name":"wood-oak","pbrMetallicRoughness":{"baseColorTexture":{"index":3},"metallicRoughnessTexture":{"index":5},"roughnessFactor":1,"metallicFactor":1},"normalTexture":{"index":4,"scale":1},"occlusionTexture":{"index":5,"strength":0.35}},{"name":"metal-dark","pbrMetallicRoughness":{"baseColorTexture":{"index":6},"metallicRoughnessTexture":{"index":8},"roughnessFactor":1,"metallicFactor":1},"normalTexture":{"index":7,"scale":0.35},"occlusionTexture":{"index":8,"strength":0.35}},{"name":"asphalt","pbrMetallicRoughness":{"baseColorTexture":{"index":9},"metallicRoughnessTexture":{"index":11},"roughnessFactor":1,"metallicFactor":1},"normalTexture":{"index":10,"scale":0.62},"occlusionTexture":{"index":11,"strength":0.35}},{"name":"paint-yellow","pbrMetallicRoughness":{"baseColorFactor":[0.76052450467022,0.4793201830913402,0.07818742179702069,1],"roughnessFactor":0.66,"metallicFactor":0.03}},{"name":"bark","pbrMetallicRoughness":{"baseColorTexture":{"index":12},"metallicRoughnessTexture":{"index":14},"roughnessFactor":1,"metallicFactor":1},"normalTexture":{"index":13,"scale":1.35},"occlusionTexture":{"index":14,"strength":0.35}},{"name":"pocket-park signage","pbrMetallicRoughness":{"baseColorTexture":{"index":15},"roughnessFactor":1,"metallicFactor":0},"extensions":{"KHR_materials_unlit":{}}}],"textures":[{"source":0,"sampler":0},{"source":1,"sampler":0},{"source":2,"sampler":0},{"source":3,"sampler":0},{"source":4,"sampler":0},{"source":5,"sampler":0},{"source":6,"sampler":0},{"source":7,"sampler":0},{"source":8,"sampler":0},{"source":9,"sampler":0},{"source":10,"sampler":0},{"source":11,"sampler":0},{"source":12,"sampler":0},{"source":13,"sampler":0},{"source":14,"sampler":0},{"source":15,"sampler":0}],"images":[{"uri":"../textures/concrete-albedo.png"},{"uri":"../textures/concrete-normal.png"},{"uri":"../textures/concrete-orm.png"},{"uri":"../textures/wood-oak-albedo.png"},{"uri":"../textures/wood-oak-normal.png"},{"uri":"../textures/wood-oak-orm.png"},{"uri":"../textures/metal-dark-albedo.png"},{"uri":"../textures/metal-dark-normal.png"},{"uri":"../textures/metal-dark-orm.png"},{"uri":"../textures/asphalt-albedo.png"},{"uri":"../textures/asphalt-normal.png"},{"uri":"../textures/asphalt-orm.png"},{"uri":"../textures/bark-albedo.png"},{"uri":"../textures/bark-normal.png"},{"uri":"../textures/bark-orm.png"},{"uri":"../signs/pocket-park.png"}],"samplers":[{"magFilter":9729,"minFilter":9987,"wrapS":10497,"wrapT":10497}],"buffers":[{"uri":"../shared/geometry.bin","byteLength":16435520}],"bufferViews":[{"buffer":0,"byteOffset":0,"byteLength":3888,"target":34962},{"buffer":0,"byteOffset":3888,"byteLength":3888,"target":34962},{"buffer":0,"byteOffset":10494896,"byteLength":2592,"target":34962},{"buffer":0,"byteOffset":6749352,"byteLength":2592,"target":34962},{"buffer":0,"byteOffset":6751944,"byteLength":2592,"target":34962},{"buffer":0,"byteOffset":6754536,"byteLength":2592,"target":34962},{"buffer":0,"byteOffset":10453264,"byteLength":2592,"target":34962},{"buffer":0,"byteOffset":10380684,"byteLength":2592,"target":34962},{"buffer":0,"byteOffset":10383276,"byteLength":2592,"target":34962},{"buffer":0,"byteOffset":10536656,"byteLength":2592,"target":34962},{"buffer":0,"byteOffset":45664,"byteLength":288,"target":34962},{"buffer":0,"byteOffset":45952,"byteLength":288,"target":34962},{"buffer":0,"byteOffset":46240,"byteLength":192,"target":34962},{"buffer":0,"byteOffset":46432,"byteLength":72,"target":34963},{"buffer":0,"byteOffset":46504,"byteLength":48,"target":34962},{"buffer":0,"byteOffset":46552,"byteLength":48,"target":34962},{"buffer":0,"byteOffset":222660,"byteLength":32,"target":34962},{"buffer":0,"byteOffset":46632,"byteLength":12,"target":34963},{"buffer":0,"byteOffset":46644,"byteLength":288,"target":34962},{"buffer":0,"byteOffset":10499432,"byteLength":192,"target":34962},{"buffer":0,"byteOffset":6776392,"byteLength":192,"target":34962},{"buffer":0,"byteOffset":6776584,"byteLength":192,"target":34962},{"buffer":0,"byteOffset":6776776,"byteLength":192,"target":34962},{"buffer":0,"byteOffset":10463700,"byteLength":192,"target":34962},{"buffer":0,"byteOffset":10394876,"byteLength":192,"target":34962},{"buffer":0,"byteOffset":10395068,"byteLength":192,"target":34962},{"buffer":0,"byteOffset":10539248,"byteLength":192,"target":34962}],"accessors":[{"bufferView":0,"componentType":5126,"count":324,"type":"VEC3","min":[-0.5,-0.5,-0.5],"max":[0.5,0.5,0.5]},{"bufferView":1,"componentType":5126,"count":324,"type":"VEC3"},{"bufferView":2,"componentType":5126,"count":324,"type":"VEC2"},{"bufferView":3,"componentType":5126,"count":324,"type":"VEC2"},{"bufferView":4,"componentType":5126,"count":324,"type":"VEC2"},{"bufferView":5,"componentType":5126,"count":324,"type":"VEC2"},{"bufferView":6,"componentType":5126,"count":324,"type":"VEC2"},{"bufferView":7,"componentType":5126,"count":324,"type":"VEC2"},{"bufferView":8,"componentType":5126,"count":324,"type":"VEC2"},{"bufferView":9,"componentType":5126,"count":324,"type":"VEC2"},{"bufferView":10,"componentType":5126,"count":24,"type":"VEC3","min":[-0.5,-0.5,-0.02500000037252903],"max":[0.5,0.5,0.02500000037252903]},{"bufferView":11,"componentType":5126,"count":24,"type":"VEC3"},{"bufferView":12,"componentType":5126,"count":24,"type":"VEC2"},{"bufferView":13,"componentType":5123,"count":36,"type":"SCALAR"},{"bufferView":14,"componentType":5126,"count":4,"type":"VEC3","min":[-0.5,-0.5,0],"max":[0.5,0.5,0]},{"bufferView":15,"componentType":5126,"count":4,"type":"VEC3"},{"bufferView":16,"componentType":5126,"count":4,"type":"VEC2"},{"bufferView":17,"componentType":5123,"count":6,"type":"SCALAR"},{"bufferView":18,"componentType":5126,"count":24,"type":"VEC3","min":[-0.5,-0.5,-0.5],"max":[0.5,0.5,0.5]},{"bufferView":19,"componentType":5126,"count":24,"type":"VEC2"},{"bufferView":20,"componentType":5126,"count":24,"type":"VEC2"},{"bufferView":21,"componentType":5126,"count":24,"type":"VEC2"},{"bufferView":22,"componentType":5126,"count":24,"type":"VEC2"},{"bufferView":23,"componentType":5126,"count":24,"type":"VEC2"},{"bufferView":24,"componentType":5126,"count":24,"type":"VEC2"},{"bufferView":25,"componentType":5126,"count":24,"type":"VEC2"},{"bufferView":26,"componentType":5126,"count":24,"type":"VEC2"}],"extensionsUsed":["KHR_materials_unlit"],"extras":{"id":"vlt-pocket-park-30","family":"pocket-park","variant":29,"plan":"B5-2","units":"metres","up":"+Y","front":"+Z","lodScenes":[0,1,2]}}