{"asset":{"version":"2.0","generator":"SLOPMERICA Department of Unnecessary Development 1.0"},"scene":0,"scenes":[{"name":"LOD 0","nodes":[0,1,2,3,4,5,6,7,8,9,10,11,12,13,14,15,16,17,18,19,20,21],"extras":{"level":0}},{"name":"LOD 1","nodes":[22,23,24,25,26,27,28,29,30,31,32,33,34,35,36,37,38,39,40,41,42,43],"extras":{"level":1}},{"name":"LOD 2","nodes":[44,45,46,47,48,49,50,51,52,53,54,55],"extras":{"level":2}}],"nodes":[{"name":"surveyed lot","mesh":0,"translation":[0,0.06,0],"scale":[14.56,0.12,10.08]},{"name":"steel tree trunk","mesh":1,"translation":[0,7.5,0],"scale":[0.58,15,0.58]},{"name":"fake branch left 0","mesh":2,"translation":[0,0,0]},{"name":"fake branch right 0","mesh":3,"translation":[0,0,0]},{"name":"fake branch left 1","mesh":4,"translation":[0,0,0]},{"name":"fake branch right 1","mesh":5,"translation":[0,0,0]},{"name":"fake branch left 2","mesh":6,"translation":[0,0,0]},{"name":"fake branch right 2","mesh":7,"translation":[0,0,0]},{"name":"fake branch left 3","mesh":8,"translation":[0,0,0]},{"name":"fake branch right 3","mesh":9,"translation":[0,0,0]},{"name":"fake branch left 4","mesh":10,"translation":[0,0,0]},{"name":"fake branch right 4","mesh":11,"translation":[0,0,0]},{"name":"fake branch left 5","mesh":12,"translation":[0,0,0]},{"name":"fake branch right 5","mesh":13,"translation":[0,0,0]},{"name":"fake branch left 6","mesh":14,"translation":[0,0,0]},{"name":"fake branch right 6","mesh":15,"translation":[0,0,0]},{"name":"fake branch left 7","mesh":16,"translation":[0,0,0]},{"name":"fake branch right 7","mesh":17,"translation":[0,0,0]},{"name":"cell panels","mesh":18,"translation":[0,11.7,0.65],"rotation":[0,0.099833,0,0.995004],"scale":[2.92,1.7,0.28]},{"name":"last tree plaque plinth","mesh":19,"translation":[0,0.6,3.2],"scale":[3.5,1,1.8]},{"name":"last tree plaque-back","mesh":20,"translation":[0,0.75,4.12],"scale":[3,0.8,1]},{"name":"last tree plaque","mesh":21,"translation":[0,0.75,4.149],"scale":[2.9,0.7,1]},{"name":"surveyed lot","mesh":22,"translation":[0,0.06,0],"scale":[14.56,0.12,10.08]},{"name":"steel tree trunk","mesh":23,"translation":[0,7.5,0],"scale":[0.58,15,0.58]},{"name":"fake branch left 0","mesh":24,"translation":[0,0,0]},{"name":"fake branch right 0","mesh":25,"translation":[0,0,0]},{"name":"fake branch left 1","mesh":26,"translation":[0,0,0]},{"name":"fake branch right 1","mesh":27,"translation":[0,0,0]},{"name":"fake branch left 2","mesh":28,"translation":[0,0,0]},{"name":"fake branch right 2","mesh":29,"translation":[0,0,0]},{"name":"fake branch left 3","mesh":30,"translation":[0,0,0]},{"name":"fake branch right 3","mesh":31,"translation":[0,0,0]},{"name":"fake branch left 4","mesh":32,"translation":[0,0,0]},{"name":"fake branch right 4","mesh":33,"translation":[0,0,0]},{"name":"fake branch left 5","mesh":34,"translation":[0,0,0]},{"name":"fake branch right 5","mesh":35,"translation":[0,0,0]},{"name":"fake branch left 6","mesh":36,"translation":[0,0,0]},{"name":"fake branch right 6","mesh":37,"translation":[0,0,0]},{"name":"fake branch left 7","mesh":38,"translation":[0,0,0]},{"name":"fake branch right 7","mesh":39,"translation":[0,0,0]},{"name":"cell panels","mesh":40,"translation":[0,11.7,0.65],"rotation":[0,0.099833,0,0.995004],"scale":[2.92,1.7,0.28]},{"name":"last tree plaque plinth","mesh":41,"translation":[0,0.6,3.2],"scale":[3.5,1,1.8]},{"name":"last tree plaque-back","mesh":20,"translation":[0,0.75,4.12],"scale":[3,0.8,1]},{"name":"last tree plaque","mesh":21,"translation":[0,0.75,4.149],"scale":[2.9,0.7,1]},{"name":"surveyed lot","mesh":22,"translation":[0,0.06,0],"scale":[14.56,0.12,10.08]},{"name":"steel tree trunk","mesh":23,"translation":[0,7.5,0],"scale":[0.58,15,0.58]},{"name":"fake branch left 0","mesh":42,"translation":[0,0,0]},{"name":"fake branch right 0","mesh":43,"translation":[0,0,0]},{"name":"fake branch left 1","mesh":44,"translation":[0,0,0]},{"name":"fake branch right 1","mesh":45,"translation":[0,0,0]},{"name":"fake branch left 2","mesh":46,"translation":[0,0,0]},{"name":"fake branch right 2","mesh":47,"translation":[0,0,0]},{"name":"cell panels","mesh":40,"translation":[0,11.7,0.65],"rotation":[0,0.099833,0,0.995004],"scale":[2.92,1.7,0.28]},{"name":"last tree plaque plinth","mesh":41,"translation":[0,0.6,3.2],"scale":[3.5,1,1.8]},{"name":"last tree plaque-back","mesh":20,"translation":[0,0.75,4.12],"scale":[3,0.8,1]},{"name":"last tree plaque","mesh":21,"translation":[0,0.75,4.149],"scale":[2.9,0.7,1]}],"meshes":[{"primitives":[{"attributes":{"POSITION":0,"NORMAL":1,"TEXCOORD_0":2},"material":0,"mode":4}]},{"primitives":[{"attributes":{"POSITION":3,"NORMAL":4,"TEXCOORD_0":5},"material":1,"mode":4,"indices":6}]},{"primitives":[{"attributes":{"POSITION":7,"NORMAL":8,"TEXCOORD_0":9},"material":2,"mode":4,"indices":10}]},{"primitives":[{"attributes":{"POSITION":11,"NORMAL":12,"TEXCOORD_0":9},"material":2,"mode":4,"indices":10}]},{"primitives":[{"attributes":{"POSITION":13,"NORMAL":14,"TEXCOORD_0":9},"material":2,"mode":4,"indices":10}]},{"primitives":[{"attributes":{"POSITION":15,"NORMAL":16,"TEXCOORD_0":9},"material":2,"mode":4,"indices":10}]},{"primitives":[{"attributes":{"POSITION":17,"NORMAL":18,"TEXCOORD_0":9},"material":2,"mode":4,"indices":10}]},{"primitives":[{"attributes":{"POSITION":19,"NORMAL":20,"TEXCOORD_0":9},"material":2,"mode":4,"indices":10}]},{"primitives":[{"attributes":{"POSITION":21,"NORMAL":22,"TEXCOORD_0":9},"material":2,"mode":4,"indices":10}]},{"primitives":[{"attributes":{"POSITION":23,"NORMAL":24,"TEXCOORD_0":9},"material":2,"mode":4,"indices":10}]},{"primitives":[{"attributes":{"POSITION":25,"NORMAL":26,"TEXCOORD_0":9},"material":2,"mode":4,"indices":10}]},{"primitives":[{"attributes":{"POSITION":27,"NORMAL":28,"TEXCOORD_0":9},"material":2,"mode":4,"indices":10}]},{"primitives":[{"attributes":{"POSITION":29,"NORMAL":30,"TEXCOORD_0":9},"material":2,"mode":4,"indices":10}]},{"primitives":[{"attributes":{"POSITION":31,"NORMAL":32,"TEXCOORD_0":9},"material":2,"mode":4,"indices":10}]},{"primitives":[{"attributes":{"POSITION":33,"NORMAL":34,"TEXCOORD_0":9},"material":2,"mode":4,"indices":10}]},{"primitives":[{"attributes":{"POSITION":35,"NORMAL":36,"TEXCOORD_0":9},"material":2,"mode":4,"indices":10}]},{"primitives":[{"attributes":{"POSITION":37,"NORMAL":38,"TEXCOORD_0":9},"material":2,"mode":4,"indices":10}]},{"primitives":[{"attributes":{"POSITION":39,"NORMAL":40,"TEXCOORD_0":9},"material":2,"mode":4,"indices":10}]},{"primitives":[{"attributes":{"POSITION":0,"NORMAL":1,"TEXCOORD_0":41},"material":3,"mode":4}]},{"primitives":[{"attributes":{"POSITION":0,"NORMAL":1,"TEXCOORD_0":42},"material":4,"mode":4}]},{"primitives":[{"attributes":{"POSITION":43,"NORMAL":44,"TEXCOORD_0":45},"material":5,"mode":4,"indices":46}]},{"primitives":[{"attributes":{"POSITION":47,"NORMAL":48,"TEXCOORD_0":49},"material":6,"mode":4,"indices":50}]},{"primitives":[{"attributes":{"POSITION":51,"NORMAL":44,"TEXCOORD_0":52},"material":0,"mode":4,"indices":46}]},{"primitives":[{"attributes":{"POSITION":53,"NORMAL":54,"TEXCOORD_0":55},"material":1,"mode":4,"indices":56}]},{"primitives":[{"attributes":{"POSITION":57,"NORMAL":58,"TEXCOORD_0":59},"material":2,"mode":4,"indices":60}]},{"primitives":[{"attributes":{"POSITION":61,"NORMAL":62,"TEXCOORD_0":59},"material":2,"mode":4,"indices":60}]},{"primitives":[{"attributes":{"POSITION":63,"NORMAL":64,"TEXCOORD_0":59},"material":2,"mode":4,"indices":60}]},{"primitives":[{"attributes":{"POSITION":65,"NORMAL":66,"TEXCOORD_0":59},"material":2,"mode":4,"indices":60}]},{"primitives":[{"attributes":{"POSITION":67,"NORMAL":68,"TEXCOORD_0":59},"material":2,"mode":4,"indices":60}]},{"primitives":[{"attributes":{"POSITION":69,"NORMAL":70,"TEXCOORD_0":59},"material":2,"mode":4,"indices":60}]},{"primitives":[{"attributes":{"POSITION":71,"NORMAL":72,"TEXCOORD_0":59},"material":2,"mode":4,"indices":60}]},{"primitives":[{"attributes":{"POSITION":73,"NORMAL":74,"TEXCOORD_0":59},"material":2,"mode":4,"indices":60}]},{"primitives":[{"attributes":{"POSITION":75,"NORMAL":76,"TEXCOORD_0":59},"material":2,"mode":4,"indices":60}]},{"primitives":[{"attributes":{"POSITION":77,"NORMAL":78,"TEXCOORD_0":59},"material":2,"mode":4,"indices":60}]},{"primitives":[{"attributes":{"POSITION":79,"NORMAL":80,"TEXCOORD_0":59},"material":2,"mode":4,"indices":60}]},{"primitives":[{"attributes":{"POSITION":81,"NORMAL":82,"TEXCOORD_0":59},"material":2,"mode":4,"indices":60}]},{"primitives":[{"attributes":{"POSITION":83,"NORMAL":84,"TEXCOORD_0":59},"material":2,"mode":4,"indices":60}]},{"primitives":[{"attributes":{"POSITION":85,"NORMAL":86,"TEXCOORD_0":59},"material":2,"mode":4,"indices":60}]},{"primitives":[{"attributes":{"POSITION":87,"NORMAL":88,"TEXCOORD_0":59},"material":2,"mode":4,"indices":60}]},{"primitives":[{"attributes":{"POSITION":89,"NORMAL":90,"TEXCOORD_0":59},"material":2,"mode":4,"indices":60}]},{"primitives":[{"attributes":{"POSITION":51,"NORMAL":44,"TEXCOORD_0":91},"material":3,"mode":4,"indices":46}]},{"primitives":[{"attributes":{"POSITION":51,"NORMAL":44,"TEXCOORD_0":92},"material":4,"mode":4,"indices":46}]},{"primitives":[{"attributes":{"POSITION":93,"NORMAL":94,"TEXCOORD_0":95},"material":2,"mode":4,"indices":96}]},{"primitives":[{"attributes":{"POSITION":97,"NORMAL":98,"TEXCOORD_0":95},"material":2,"mode":4,"indices":96}]},{"primitives":[{"attributes":{"POSITION":99,"NORMAL":100,"TEXCOORD_0":95},"material":2,"mode":4,"indices":96}]},{"primitives":[{"attributes":{"POSITION":101,"NORMAL":102,"TEXCOORD_0":95},"material":2,"mode":4,"indices":96}]},{"primitives":[{"attributes":{"POSITION":103,"NORMAL":104,"TEXCOORD_0":95},"material":2,"mode":4,"indices":96}]},{"primitives":[{"attributes":{"POSITION":105,"NORMAL":106,"TEXCOORD_0":95},"material":2,"mode":4,"indices":96}]}],"materials":[{"name":"concrete","pbrMetallicRoughness":{"baseColorTexture":{"index":0},"metallicRoughnessTexture":{"index":2},"roughnessFactor":1,"metallicFactor":1},"normalTexture":{"index":1,"scale":0.82},"occlusionTexture":{"index":2,"strength":0.35}},{"name":"bark","pbrMetallicRoughness":{"baseColorTexture":{"index":3},"metallicRoughnessTexture":{"index":5},"roughnessFactor":1,"metallicFactor":1},"normalTexture":{"index":4,"scale":1.35},"occlusionTexture":{"index":5,"strength":0.35}},{"name":"foliage","pbrMetallicRoughness":{"baseColorTexture":{"index":6},"metallicRoughnessTexture":{"index":8},"roughnessFactor":1,"metallicFactor":1},"normalTexture":{"index":7,"scale":0.88},"occlusionTexture":{"index":8,"strength":0.35}},{"name":"metal-galvanized","pbrMetallicRoughness":{"baseColorTexture":{"index":9},"metallicRoughnessTexture":{"index":11},"roughnessFactor":1,"metallicFactor":1},"normalTexture":{"index":10,"scale":0.15},"occlusionTexture":{"index":11,"strength":0.35}},{"name":"limestone","pbrMetallicRoughness":{"baseColorTexture":{"index":12},"metallicRoughnessTexture":{"index":14},"roughnessFactor":1,"metallicFactor":1},"normalTexture":{"index":13,"scale":0.9},"occlusionTexture":{"index":14,"strength":0.35}},{"name":"metal-dark","pbrMetallicRoughness":{"baseColorTexture":{"index":15},"metallicRoughnessTexture":{"index":17},"roughnessFactor":1,"metallicFactor":1},"normalTexture":{"index":16,"scale":0.35},"occlusionTexture":{"index":17,"strength":0.35}},{"name":"frankenpine-memorial signage","pbrMetallicRoughness":{"baseColorTexture":{"index":18},"roughnessFactor":1,"metallicFactor":0},"extensions":{"KHR_materials_unlit":{}}}],"textures":[{"source":0,"sampler":0},{"source":1,"sampler":0},{"source":2,"sampler":0},{"source":3,"sampler":0},{"source":4,"sampler":0},{"source":5,"sampler":0},{"source":6,"sampler":0},{"source":7,"sampler":0},{"source":8,"sampler":0},{"source":9,"sampler":0},{"source":10,"sampler":0},{"source":11,"sampler":0},{"source":12,"sampler":0},{"source":13,"sampler":0},{"source":14,"sampler":0},{"source":15,"sampler":0},{"source":16,"sampler":0},{"source":17,"sampler":0},{"source":18,"sampler":0}],"images":[{"uri":"../textures/concrete-albedo.png"},{"uri":"../textures/concrete-normal.png"},{"uri":"../textures/concrete-orm.png"},{"uri":"../textures/bark-albedo.png"},{"uri":"../textures/bark-normal.png"},{"uri":"../textures/bark-orm.png"},{"uri":"../textures/foliage-albedo.png"},{"uri":"../textures/foliage-normal.png"},{"uri":"../textures/foliage-orm.png"},{"uri":"../textures/metal-galvanized-albedo.png"},{"uri":"../textures/metal-galvanized-normal.png"},{"uri":"../textures/metal-galvanized-orm.png"},{"uri":"../textures/limestone-albedo.png"},{"uri":"../textures/limestone-normal.png"},{"uri":"../textures/limestone-orm.png"},{"uri":"../textures/metal-dark-albedo.png"},{"uri":"../textures/metal-dark-normal.png"},{"uri":"../textures/metal-dark-orm.png"},{"uri":"../signs/frankenpine-memorial.png"}],"samplers":[{"magFilter":9729,"minFilter":9987,"wrapS":10497,"wrapT":10497}],"buffers":[{"uri":"../shared/geometry.bin","byteLength":16435520}],"bufferViews":[{"buffer":0,"byteOffset":0,"byteLength":3888,"target":34962},{"buffer":0,"byteOffset":3888,"byteLength":3888,"target":34962},{"buffer":0,"byteOffset":5485728,"byteLength":2592,"target":34962},{"buffer":0,"byteOffset":5184520,"byteLength":696,"target":34962},{"buffer":0,"byteOffset":5185216,"byteLength":696,"target":34962},{"buffer":0,"byteOffset":5304160,"byteLength":464,"target":34962},{"buffer":0,"byteOffset":2089908,"byteLength":216,"target":34963},{"buffer":0,"byteOffset":5304624,"byteLength":972,"target":34962},{"buffer":0,"byteOffset":5305596,"byteLength":972,"target":34962},{"buffer":0,"byteOffset":5188320,"byteLength":648,"target":34962},{"buffer":0,"byteOffset":410600,"byteLength":768,"target":34963},{"buffer":0,"byteOffset":5306568,"byteLength":972,"target":34962},{"buffer":0,"byteOffset":5307540,"byteLength":972,"target":34962},{"buffer":0,"byteOffset":5308512,"byteLength":972,"target":34962},{"buffer":0,"byteOffset":5309484,"byteLength":972,"target":34962},{"buffer":0,"byteOffset":5310456,"byteLength":972,"target":34962},{"buffer":0,"byteOffset":5311428,"byteLength":972,"target":34962},{"buffer":0,"byteOffset":5312400,"byteLength":972,"target":34962},{"buffer":0,"byteOffset":5313372,"byteLength":972,"target":34962},{"buffer":0,"byteOffset":5314344,"byteLength":972,"target":34962},{"buffer":0,"byteOffset":5315316,"byteLength":972,"target":34962},{"buffer":0,"byteOffset":5316288,"byteLength":972,"target":34962},{"buffer":0,"byteOffset":5317260,"byteLength":972,"target":34962},{"buffer":0,"byteOffset":5318232,"byteLength":972,"target":34962},{"buffer":0,"byteOffset":5319204,"byteLength":972,"target":34962},{"buffer":0,"byteOffset":5320176,"byteLength":972,"target":34962},{"buffer":0,"byteOffset":5321148,"byteLength":972,"target":34962},{"buffer":0,"byteOffset":5322120,"byteLength":972,"target":34962},{"buffer":0,"byteOffset":5323092,"byteLength":972,"target":34962},{"buffer":0,"byteOffset":5404800,"byteLength":972,"target":34962},{"buffer":0,"byteOffset":5405772,"byteLength":972,"target":34962},{"buffer":0,"byteOffset":5406744,"byteLength":972,"target":34962},{"buffer":0,"byteOffset":5407716,"byteLength":972,"target":34962},{"buffer":0,"byteOffset":5446560,"byteLength":972,"target":34962},{"buffer":0,"byteOffset":5447532,"byteLength":972,"target":34962},{"buffer":0,"byteOffset":5448504,"byteLength":972,"target":34962},{"buffer":0,"byteOffset":5449476,"byteLength":972,"target":34962},{"buffer":0,"byteOffset":5488320,"byteLength":972,"target":34962},{"buffer":0,"byteOffset":5489292,"byteLength":972,"target":34962},{"buffer":0,"byteOffset":5490264,"byteLength":972,"target":34962},{"buffer":0,"byteOffset":5491236,"byteLength":972,"target":34962},{"buffer":0,"byteOffset":5324064,"byteLength":2592,"target":34962},{"buffer":0,"byteOffset":5209056,"byteLength":2592,"target":34962},{"buffer":0,"byteOffset":45664,"byteLength":288,"target":34962},{"buffer":0,"byteOffset":45952,"byteLength":288,"target":34962},{"buffer":0,"byteOffset":46240,"byteLength":192,"target":34962},{"buffer":0,"byteOffset":46432,"byteLength":72,"target":34963},{"buffer":0,"byteOffset":46504,"byteLength":48,"target":34962},{"buffer":0,"byteOffset":46552,"byteLength":48,"target":34962},{"buffer":0,"byteOffset":199652,"byteLength":32,"target":34962},{"buffer":0,"byteOffset":46632,"byteLength":12,"target":34963},{"buffer":0,"byteOffset":46644,"byteLength":288,"target":34962},{"buffer":0,"byteOffset":5492208,"byteLength":192,"target":34962},{"buffer":0,"byteOffset":5211840,"byteLength":480,"target":34962},{"buffer":0,"byteOffset":5212320,"byteLength":480,"target":34962},{"buffer":0,"byteOffset":5326848,"byteLength":320,"target":34962},{"buffer":0,"byteOffset":48596,"byteLength":144,"target":34963},{"buffer":0,"byteOffset":5327168,"byteLength":420,"target":34962},{"buffer":0,"byteOffset":5327588,"byteLength":420,"target":34962},{"buffer":0,"byteOffset":5213960,"byteLength":280,"target":34962},{"buffer":0,"byteOffset":434076,"byteLength":288,"target":34963},{"buffer":0,"byteOffset":5328008,"byteLength":420,"target":34962},{"buffer":0,"byteOffset":5328428,"byteLength":420,"target":34962},{"buffer":0,"byteOffset":5328848,"byteLength":420,"target":34962},{"buffer":0,"byteOffset":5329268,"byteLength":420,"target":34962},{"buffer":0,"byteOffset":5329688,"byteLength":420,"target":34962},{"buffer":0,"byteOffset":5330108,"byteLength":420,"target":34962},{"buffer":0,"byteOffset":5330528,"byteLength":420,"target":34962},{"buffer":0,"byteOffset":5330948,"byteLength":420,"target":34962},{"buffer":0,"byteOffset":5331368,"byteLength":420,"target":34962},{"buffer":0,"byteOffset":5331788,"byteLength":420,"target":34962},{"buffer":0,"byteOffset":5332208,"byteLength":420,"target":34962},{"buffer":0,"byteOffset":5332628,"byteLength":420,"target":34962},{"buffer":0,"byteOffset":5333048,"byteLength":420,"target":34962},{"buffer":0,"byteOffset":5333468,"byteLength":420,"target":34962},{"buffer":0,"byteOffset":5333888,"byteLength":420,"target":34962},{"buffer":0,"byteOffset":5334308,"byteLength":420,"target":34962},{"buffer":0,"byteOffset":5334728,"byteLength":420,"target":34962},{"buffer":0,"byteOffset":5335148,"byteLength":420,"target":34962},{"buffer":0,"byteOffset":5408880,"byteLength":420,"target":34962},{"buffer":0,"byteOffset":5409300,"byteLength":420,"target":34962},{"buffer":0,"byteOffset":5409720,"byteLength":420,"target":34962},{"buffer":0,"byteOffset":5410140,"byteLength":420,"target":34962},{"buffer":0,"byteOffset":5450640,"byteLength":420,"target":34962},{"buffer":0,"byteOffset":5451060,"byteLength":420,"target":34962},{"buffer":0,"byteOffset":5451480,"byteLength":420,"target":34962},{"buffer":0,"byteOffset":5451900,"byteLength":420,"target":34962},{"buffer":0,"byteOffset":5492400,"byteLength":420,"target":34962},{"buffer":0,"byteOffset":5492820,"byteLength":420,"target":34962},{"buffer":0,"byteOffset":5493240,"byteLength":420,"target":34962},{"buffer":0,"byteOffset":5493660,"byteLength":420,"target":34962},{"buffer":0,"byteOffset":5335568,"byteLength":192,"target":34962},{"buffer":0,"byteOffset":5221992,"byteLength":192,"target":34962},{"buffer":0,"byteOffset":5335760,"byteLength":300,"target":34962},{"buffer":0,"byteOffset":5336060,"byteLength":300,"target":34962},{"buffer":0,"byteOffset":5222784,"byteLength":200,"target":34962},{"buffer":0,"byteOffset":440168,"byteLength":192,"target":34963},{"buffer":0,"byteOffset":5336360,"byteLength":300,"target":34962},{"buffer":0,"byteOffset":5336660,"byteLength":300,"target":34962},{"buffer":0,"byteOffset":5336960,"byteLength":300,"target":34962},{"buffer":0,"byteOffset":5337260,"byteLength":300,"target":34962},{"buffer":0,"byteOffset":5337560,"byteLength":300,"target":34962},{"buffer":0,"byteOffset":5337860,"byteLength":300,"target":34962},{"buffer":0,"byteOffset":5338160,"byteLength":300,"target":34962},{"buffer":0,"byteOffset":5338460,"byteLength":300,"target":34962},{"buffer":0,"byteOffset":5338760,"byteLength":300,"target":34962},{"buffer":0,"byteOffset":5339060,"byteLength":300,"target":34962}],"accessors":[{"bufferView":0,"componentType":5126,"count":324,"type":"VEC3","min":[-0.5,-0.5,-0.5],"max":[0.5,0.5,0.5]},{"bufferView":1,"componentType":5126,"count":324,"type":"VEC3"},{"bufferView":2,"componentType":5126,"count":324,"type":"VEC2"},{"bufferView":3,"componentType":5126,"count":58,"type":"VEC3","min":[-0.9848077297210693,-0.5,-0.9396926164627075],"max":[0.9848077297210693,0.5,1]},{"bufferView":4,"componentType":5126,"count":58,"type":"VEC3"},{"bufferView":5,"componentType":5126,"count":58,"type":"VEC2"},{"bufferView":6,"componentType":5123,"count":108,"type":"SCALAR"},{"bufferView":7,"componentType":5126,"count":81,"type":"VEC3","min":[-3.657928466796875,7.0813469886779785,-0.11999999731779099],"max":[0.017928363755345345,7.868653297424316,0.11999999731779099]},{"bufferView":8,"componentType":5126,"count":81,"type":"VEC3"},{"bufferView":9,"componentType":5126,"count":81,"type":"VEC2"},{"bufferView":10,"componentType":5123,"count":384,"type":"SCALAR"},{"bufferView":11,"componentType":5126,"count":81,"type":"VEC3","min":[-0.0169705618172884,7.261206150054932,-0.11999999731779099],"max":[3.656970500946045,8.018794059753418,0.11999999731779099]},{"bufferView":12,"componentType":5126,"count":81,"type":"VEC3"},{"bufferView":13,"componentType":5126,"count":81,"type":"VEC3","min":[-3.346170663833618,8.356613159179688,-0.11869701743125916],"max":[0.026170579716563225,9.143386840820312,0.6186970472335815]},{"bufferView":14,"componentType":5126,"count":81,"type":"VEC3"},{"bufferView":15,"componentType":5126,"count":81,"type":"VEC3","min":[-0.025467360392212868,8.536445617675781,-0.6186933517456055],"max":[3.3454673290252686,9.293554306030273,0.11869337409734726]},{"bufferView":16,"componentType":5126,"count":81,"type":"VEC3"},{"bufferView":17,"componentType":5126,"count":81,"type":"VEC3","min":[-3.021639347076416,9.631967544555664,-0.11999999731779099],"max":[0.021639343351125717,10.4180326461792,0.11999999731779099]},{"bufferView":18,"componentType":5126,"count":81,"type":"VEC3"},{"bufferView":19,"componentType":5126,"count":81,"type":"VEC3","min":[-0.020494407042860985,9.811762809753418,-0.11999999731779099],"max":[3.0204944610595703,10.5682373046875,0.11999999731779099]},{"bufferView":20,"componentType":5126,"count":81,"type":"VEC3"},{"bufferView":21,"componentType":5126,"count":81,"type":"VEC3","min":[-2.7120018005371094,10.907449722290039,-0.11804480850696564],"max":[0.03200175240635872,11.692549705505371,0.6180447936058044]},{"bufferView":22,"componentType":5126,"count":81,"type":"VEC3"},{"bufferView":23,"componentType":5126,"count":81,"type":"VEC3","min":[-0.031169312074780464,11.087197303771973,-0.6180365681648254],"max":[2.7111692428588867,11.842803001403809,0.11803659051656723]},{"bufferView":24,"componentType":5126,"count":81,"type":"VEC3"},{"bufferView":25,"componentType":5126,"count":81,"type":"VEC3","min":[-2.3872363567352295,12.18313217163086,-0.11999999731779099],"max":[0.027236243709921837,12.96686840057373,0.11999999731779099]},{"bufferView":26,"componentType":5126,"count":81,"type":"VEC3"},{"bufferView":27,"componentType":5126,"count":81,"type":"VEC3","min":[-0.025821303948760033,12.362811088562012,-0.11999999731779099],"max":[2.3858213424682617,13.117189407348633,0.11999999731779099]},{"bufferView":28,"componentType":5126,"count":81,"type":"VEC3"},{"bufferView":29,"componentType":5126,"count":81,"type":"VEC3","min":[-2.0809552669525146,13.459136962890625,-0.11677471548318863],"max":[0.04095516353845596,14.240862846374512,0.6167747378349304]},{"bufferView":30,"componentType":5126,"count":81,"type":"VEC3"},{"bufferView":31,"componentType":5126,"count":81,"type":"VEC3","min":[-0.03995883837342262,13.638718605041504,-0.6167522668838501],"max":[2.079958915710449,14.391282081604004,0.11675228923559189]},{"bufferView":32,"componentType":5126,"count":81,"type":"VEC3"},{"bufferView":33,"componentType":5126,"count":81,"type":"VEC3","min":[-1.7565490007400513,14.735701560974121,-0.11999999731779099],"max":[0.036548975855112076,15.514298439025879,0.11999999731779099]},{"bufferView":34,"componentType":5126,"count":81,"type":"VEC3"},{"bufferView":35,"componentType":5126,"count":81,"type":"VEC3","min":[-0.034726738929748535,14.91513442993164,-0.11999999731779099],"max":[1.754726767539978,15.664865493774414,0.11999999731779099]},{"bufferView":36,"componentType":5126,"count":81,"type":"VEC3"},{"bufferView":37,"componentType":5126,"count":81,"type":"VEC3","min":[-1.4559390544891357,16.013309478759766,-0.11387345939874649],"max":[0.05593911185860634,16.78668975830078,0.6138734817504883]},{"bufferView":38,"componentType":5126,"count":81,"type":"VEC3"},{"bufferView":39,"componentType":5126,"count":81,"type":"VEC3","min":[-0.05479755252599716,16.192508697509766,-0.6137920022010803],"max":[1.4547975063323975,16.937490463256836,0.11379200965166092]},{"bufferView":40,"componentType":5126,"count":81,"type":"VEC3"},{"bufferView":41,"componentType":5126,"count":324,"type":"VEC2"},{"bufferView":42,"componentType":5126,"count":324,"type":"VEC2"},{"bufferView":43,"componentType":5126,"count":24,"type":"VEC3","min":[-0.5,-0.5,-0.02500000037252903],"max":[0.5,0.5,0.02500000037252903]},{"bufferView":44,"componentType":5126,"count":24,"type":"VEC3"},{"bufferView":45,"componentType":5126,"count":24,"type":"VEC2"},{"bufferView":46,"componentType":5123,"count":36,"type":"SCALAR"},{"bufferView":47,"componentType":5126,"count":4,"type":"VEC3","min":[-0.5,-0.5,0],"max":[0.5,0.5,0]},{"bufferView":48,"componentType":5126,"count":4,"type":"VEC3"},{"bufferView":49,"componentType":5126,"count":4,"type":"VEC2"},{"bufferView":50,"componentType":5123,"count":6,"type":"SCALAR"},{"bufferView":51,"componentType":5126,"count":24,"type":"VEC3","min":[-0.5,-0.5,-0.5],"max":[0.5,0.5,0.5]},{"bufferView":52,"componentType":5126,"count":24,"type":"VEC2"},{"bufferView":53,"componentType":5126,"count":40,"type":"VEC3","min":[-0.8660253882408142,-0.5,-1],"max":[0.8660253882408142,0.5,1]},{"bufferView":54,"componentType":5126,"count":40,"type":"VEC3"},{"bufferView":55,"componentType":5126,"count":40,"type":"VEC2"},{"bufferView":56,"componentType":5123,"count":72,"type":"SCALAR"},{"bufferView":57,"componentType":5126,"count":35,"type":"VEC3","min":[-3.6555263996124268,7.097243309020996,-0.11999999731779099],"max":[0.015526417642831802,7.852756500244141,0.11999999731779099]},{"bufferView":58,"componentType":5126,"count":35,"type":"VEC3"},{"bufferView":59,"componentType":5126,"count":35,"type":"VEC2"},{"bufferView":60,"componentType":5123,"count":144,"type":"SCALAR"},{"bufferView":61,"componentType":5126,"count":35,"type":"VEC3","min":[-0.014696938917040825,7.277121543884277,-0.11999999731779099],"max":[3.6546969413757324,8.002878189086914,0.11999999731779099]},{"bufferView":62,"componentType":5126,"count":35,"type":"VEC3"},{"bufferView":63,"componentType":5126,"count":35,"type":"VEC3","min":[-3.345684051513672,8.37103271484375,-0.11869701743125916],"max":[0.025683965533971786,9.12896728515625,0.6186970472335815]},{"bufferView":64,"componentType":5126,"count":35,"type":"VEC3"},{"bufferView":65,"componentType":5126,"count":35,"type":"VEC3","min":[-0.024804795160889626,8.550962448120117,-0.6186933517456055],"max":[3.3448047637939453,9.279037475585938,0.11869337409734726]},{"bufferView":66,"componentType":5126,"count":35,"type":"VEC3"},{"bufferView":67,"componentType":5126,"count":35,"type":"VEC3","min":[-3.018740177154541,9.647780418395996,-0.11999999731779099],"max":[0.018740221858024597,10.402219772338867,0.11999999731779099]},{"bufferView":68,"componentType":5126,"count":35,"type":"VEC3"},{"bufferView":69,"componentType":5126,"count":35,"type":"VEC3","min":[-0.017748676240444183,9.827603340148926,-0.11999999731779099],"max":[3.0177485942840576,10.552395820617676,0.11999999731779099]},{"bufferView":70,"componentType":5126,"count":35,"type":"VEC3"},{"bufferView":71,"componentType":5126,"count":35,"type":"VEC3","min":[-2.711458683013916,10.921030044555664,-0.11804480850696564],"max":[0.03145868331193924,11.678970336914062,0.6180447936058044]},{"bufferView":72,"componentType":5126,"count":35,"type":"VEC3"},{"bufferView":73,"componentType":5126,"count":35,"type":"VEC3","min":[-0.03040638193488121,11.100920677185059,-0.6180365681648254],"max":[2.7104063034057617,11.829079627990723,0.11803659051656723]},{"bufferView":74,"componentType":5126,"count":35,"type":"VEC3"},{"bufferView":75,"componentType":5126,"count":35,"type":"VEC3","min":[-2.38358736038208,12.198789596557617,-0.11999999731779099],"max":[0.02358727902173996,12.951210975646973,0.11999999731779099]},{"bufferView":76,"componentType":5126,"count":35,"type":"VEC3"},{"bufferView":77,"componentType":5126,"count":35,"type":"VEC3","min":[-0.02236190438270569,12.378511428833008,-0.11999999731779099],"max":[2.382361888885498,13.101489067077637,0.11999999731779099]},{"bufferView":78,"componentType":5126,"count":35,"type":"VEC3"},{"bufferView":79,"componentType":5126,"count":35,"type":"VEC3","min":[-2.0803933143615723,13.471062660217285,-0.11677471548318863],"max":[0.0403934121131897,14.228937149047852,0.6167747378349304]},{"bufferView":80,"componentType":5126,"count":35,"type":"VEC3"},{"bufferView":81,"componentType":5126,"count":35,"type":"VEC3","min":[-0.03910432010889053,13.650872230529785,-0.6167522668838501],"max":[2.079104423522949,14.379127502441406,0.11675228923559189]},{"bufferView":82,"componentType":5126,"count":35,"type":"VEC3"},{"bufferView":83,"componentType":5126,"count":35,"type":"VEC3","min":[-1.7516523599624634,14.751014709472656,-0.11999999731779099],"max":[0.031652338802814484,15.498985290527344,0.11999999731779099]},{"bufferView":84,"componentType":5126,"count":35,"type":"VEC3"},{"bufferView":85,"componentType":5126,"count":35,"type":"VEC3","min":[-0.030074238777160645,14.930523872375488,-0.11999999731779099],"max":[1.7500742673873901,15.649476051330566,0.11999999731779099]},{"bufferView":86,"componentType":5126,"count":35,"type":"VEC3"},{"bufferView":87,"componentType":5126,"count":35,"type":"VEC3","min":[-1.455615520477295,16.021352767944336,-0.11387345939874649],"max":[0.055615492165088654,16.77864646911621,0.6138734817504883]},{"bufferView":88,"componentType":5126,"count":35,"type":"VEC3"},{"bufferView":89,"componentType":5126,"count":35,"type":"VEC3","min":[-0.05404113605618477,16.200946807861328,-0.6137920022010803],"max":[1.4540411233901978,16.929052352905273,0.11379200965166092]},{"bufferView":90,"componentType":5126,"count":35,"type":"VEC3"},{"bufferView":91,"componentType":5126,"count":24,"type":"VEC2"},{"bufferView":92,"componentType":5126,"count":24,"type":"VEC2"},{"bufferView":93,"componentType":5126,"count":25,"type":"VEC3","min":[-3.657928466796875,7.0813469886779785,-0.11999999731779099],"max":[0.017928363755345345,7.868653297424316,0.11999999731779099]},{"bufferView":94,"componentType":5126,"count":25,"type":"VEC3"},{"bufferView":95,"componentType":5126,"count":25,"type":"VEC2"},{"bufferView":96,"componentType":5123,"count":96,"type":"SCALAR"},{"bufferView":97,"componentType":5126,"count":25,"type":"VEC3","min":[-0.0169705618172884,7.261206150054932,-0.11999999731779099],"max":[3.656970500946045,8.018794059753418,0.11999999731779099]},{"bufferView":98,"componentType":5126,"count":25,"type":"VEC3"},{"bufferView":99,"componentType":5126,"count":25,"type":"VEC3","min":[-3.3396122455596924,8.356613159179688,-0.11869701743125916],"max":[0.01961221918463707,9.143386840820312,0.6186970472335815]},{"bufferView":100,"componentType":5126,"count":25,"type":"VEC3"},{"bufferView":101,"componentType":5126,"count":25,"type":"VEC3","min":[-0.018568797037005424,8.536445617675781,-0.6186933517456055],"max":[3.338568687438965,9.293554306030273,0.11869337409734726]},{"bufferView":102,"componentType":5126,"count":25,"type":"VEC3"},{"bufferView":103,"componentType":5126,"count":25,"type":"VEC3","min":[-3.021639347076416,9.631967544555664,-0.11999999731779099],"max":[0.021639343351125717,10.4180326461792,0.11999999731779099]},{"bufferView":104,"componentType":5126,"count":25,"type":"VEC3"},{"bufferView":105,"componentType":5126,"count":25,"type":"VEC3","min":[-0.020494407042860985,9.811762809753418,-0.11999999731779099],"max":[3.0204944610595703,10.5682373046875,0.11999999731779099]},{"bufferView":106,"componentType":5126,"count":25,"type":"VEC3"}],"extensionsUsed":["KHR_materials_unlit"],"extras":{"id":"vlt-frankenpine-memorial-19","family":"frankenpine-memorial","variant":18,"plan":"D4-1","units":"metres","up":"+Y","front":"+Z","lodScenes":[0,1,2]}}