{"asset":{"version":"2.0","generator":"SLOPMERICA Department of Unnecessary Development 1.0"},"scene":0,"scenes":[{"name":"LOD 0","nodes":[0,1,2,3,4,5,6,7,8,9,10],"extras":{"level":0}},{"name":"LOD 1","nodes":[11,12,13,14,15,16,17,18,19,20,21],"extras":{"level":1}},{"name":"LOD 2","nodes":[22,23,24,25,26,27,28,29],"extras":{"level":2}}],"nodes":[{"name":"surveyed lot","mesh":0,"translation":[0,0.06,0],"scale":[16.848,0.12,20.328]},{"name":"main house","mesh":1,"translation":[0,1.93,0],"scale":[8.64,3.5,10.44]},{"name":"hip roof slab","mesh":2,"translation":[0,3.92,0],"rotation":[0,0,-0.017499,0.999847],"scale":[9.34,0.55,11.14]},{"name":"entry column left","mesh":3,"translation":[-1.25,1.72,6.02],"scale":[0.22,3.1,0.22]},{"name":"entry column right","mesh":3,"translation":[1.25,1.72,6.02],"scale":[0.22,3.1,0.22]},{"name":"sunroom upgrade","mesh":4,"translation":[-5.73,1.35,-0.16],"scale":[3.56,2.35,3.64]},{"name":"sunroom cap","mesh":5,"translation":[-5.73,2.65,-0.16],"scale":[3.96,0.22,4.04]},{"name":"garage door","mesh":6,"translation":[-2.92,1.3,5.3],"scale":[4.1,2.05,0.12]},{"name":"window 1.8 0","mesh":7,"translation":[-1.35,1.8,5.3],"scale":[0.7,0.75,0.09]},{"name":"window 1.8 1","mesh":7,"translation":[0,1.8,5.3],"scale":[0.7,0.75,0.09]},{"name":"window 1.8 2","mesh":7,"translation":[1.35,1.8,5.3],"scale":[0.7,0.75,0.09]},{"name":"surveyed lot","mesh":8,"translation":[0,0.06,0],"scale":[16.848,0.12,20.328]},{"name":"main house","mesh":9,"translation":[0,1.93,0],"scale":[8.64,3.5,10.44]},{"name":"hip roof slab","mesh":10,"translation":[0,3.92,0],"rotation":[0,0,-0.017499,0.999847],"scale":[9.34,0.55,11.14]},{"name":"entry column left","mesh":11,"translation":[-1.25,1.72,6.02],"scale":[0.22,3.1,0.22]},{"name":"entry column right","mesh":11,"translation":[1.25,1.72,6.02],"scale":[0.22,3.1,0.22]},{"name":"sunroom upgrade","mesh":12,"translation":[-5.73,1.35,-0.16],"scale":[3.56,2.35,3.64]},{"name":"sunroom cap","mesh":13,"translation":[-5.73,2.65,-0.16],"scale":[3.96,0.22,4.04]},{"name":"garage door","mesh":14,"translation":[-2.92,1.3,5.3],"scale":[4.1,2.05,0.12]},{"name":"window 1.8 0","mesh":15,"translation":[-1.35,1.8,5.3],"scale":[0.7,0.75,0.09]},{"name":"window 1.8 1","mesh":15,"translation":[0,1.8,5.3],"scale":[0.7,0.75,0.09]},{"name":"window 1.8 2","mesh":15,"translation":[1.35,1.8,5.3],"scale":[0.7,0.75,0.09]},{"name":"surveyed lot","mesh":8,"translation":[0,0.06,0],"scale":[16.848,0.12,20.328]},{"name":"main house","mesh":9,"translation":[0,1.93,0],"scale":[8.64,3.5,10.44]},{"name":"hip roof slab","mesh":10,"translation":[0,3.92,0],"rotation":[0,0,-0.017499,0.999847],"scale":[9.34,0.55,11.14]},{"name":"entry column left","mesh":11,"translation":[-1.25,1.72,6.02],"scale":[0.22,3.1,0.22]},{"name":"entry column right","mesh":11,"translation":[1.25,1.72,6.02],"scale":[0.22,3.1,0.22]},{"name":"sunroom upgrade","mesh":12,"translation":[-5.73,1.35,-0.16],"scale":[3.56,2.35,3.64]},{"name":"sunroom cap","mesh":13,"translation":[-5.73,2.65,-0.16],"scale":[3.96,0.22,4.04]},{"name":"garage door","mesh":14,"translation":[-2.92,1.3,5.3],"scale":[4.1,2.05,0.12]}],"meshes":[{"primitives":[{"attributes":{"POSITION":0,"NORMAL":1,"TEXCOORD_0":2},"material":0,"mode":4}]},{"primitives":[{"attributes":{"POSITION":3,"NORMAL":1,"TEXCOORD_0":4},"material":1,"mode":4}]},{"primitives":[{"attributes":{"POSITION":0,"NORMAL":1,"TEXCOORD_0":5},"material":2,"mode":4}]},{"primitives":[{"attributes":{"POSITION":6,"NORMAL":7,"TEXCOORD_0":8},"material":3,"mode":4,"indices":9}]},{"primitives":[{"attributes":{"POSITION":0,"NORMAL":1,"TEXCOORD_0":10},"material":4,"mode":4}]},{"primitives":[{"attributes":{"POSITION":0,"NORMAL":1,"TEXCOORD_0":11},"material":5,"mode":4}]},{"primitives":[{"attributes":{"POSITION":0,"NORMAL":1,"TEXCOORD_0":12},"material":6,"mode":4}]},{"primitives":[{"attributes":{"POSITION":0,"NORMAL":1,"TEXCOORD_0":13},"material":4,"mode":4}]},{"primitives":[{"attributes":{"POSITION":14,"NORMAL":15,"TEXCOORD_0":16},"material":0,"mode":4,"indices":17}]},{"primitives":[{"attributes":{"POSITION":14,"NORMAL":15,"TEXCOORD_0":18},"material":1,"mode":4,"indices":17}]},{"primitives":[{"attributes":{"POSITION":14,"NORMAL":15,"TEXCOORD_0":19},"material":2,"mode":4,"indices":17}]},{"primitives":[{"attributes":{"POSITION":20,"NORMAL":21,"TEXCOORD_0":22},"material":3,"mode":4,"indices":23}]},{"primitives":[{"attributes":{"POSITION":14,"NORMAL":15,"TEXCOORD_0":24},"material":4,"mode":4,"indices":17}]},{"primitives":[{"attributes":{"POSITION":14,"NORMAL":15,"TEXCOORD_0":25},"material":5,"mode":4,"indices":17}]},{"primitives":[{"attributes":{"POSITION":14,"NORMAL":15,"TEXCOORD_0":26},"material":6,"mode":4,"indices":17}]},{"primitives":[{"attributes":{"POSITION":14,"NORMAL":15,"TEXCOORD_0":27},"material":4,"mode":4,"indices":17}]}],"materials":[{"name":"concrete","pbrMetallicRoughness":{"baseColorTexture":{"index":0},"metallicRoughnessTexture":{"index":2},"roughnessFactor":1,"metallicFactor":1},"normalTexture":{"index":1,"scale":0.82},"occlusionTexture":{"index":2,"strength":0.35}},{"name":"stucco-ivory","pbrMetallicRoughness":{"baseColorTexture":{"index":3},"metallicRoughnessTexture":{"index":5},"roughnessFactor":1,"metallicFactor":1},"normalTexture":{"index":4,"scale":0.5},"occlusionTexture":{"index":5,"strength":0.35}},{"name":"roof-shingle","pbrMetallicRoughness":{"baseColorTexture":{"index":6},"metallicRoughnessTexture":{"index":8},"roughnessFactor":1,"metallicFactor":1},"normalTexture":{"index":7,"scale":0.78},"occlusionTexture":{"index":8,"strength":0.35}},{"name":"limestone","pbrMetallicRoughness":{"baseColorTexture":{"index":9},"metallicRoughnessTexture":{"index":11},"roughnessFactor":1,"metallicFactor":1},"normalTexture":{"index":10,"scale":0.9},"occlusionTexture":{"index":11,"strength":0.35}},{"name":"glass-blue","pbrMetallicRoughness":{"baseColorTexture":{"index":12},"metallicRoughnessTexture":{"index":14},"roughnessFactor":1,"metallicFactor":1},"normalTexture":{"index":13,"scale":0.12},"occlusionTexture":{"index":14,"strength":0.35}},{"name":"roof-metal","pbrMetallicRoughness":{"baseColorTexture":{"index":15},"metallicRoughnessTexture":{"index":17},"roughnessFactor":1,"metallicFactor":1},"normalTexture":{"index":16,"scale":0.68},"occlusionTexture":{"index":17,"strength":0.35}},{"name":"wood-painted","pbrMetallicRoughness":{"baseColorTexture":{"index":18},"metallicRoughnessTexture":{"index":20},"roughnessFactor":1,"metallicFactor":1},"normalTexture":{"index":19,"scale":0.55},"occlusionTexture":{"index":20,"strength":0.35}}],"textures":[{"source":0,"sampler":0},{"source":1,"sampler":0},{"source":2,"sampler":0},{"source":3,"sampler":0},{"source":4,"sampler":0},{"source":5,"sampler":0},{"source":6,"sampler":0},{"source":7,"sampler":0},{"source":8,"sampler":0},{"source":9,"sampler":0},{"source":10,"sampler":0},{"source":11,"sampler":0},{"source":12,"sampler":0},{"source":13,"sampler":0},{"source":14,"sampler":0},{"source":15,"sampler":0},{"source":16,"sampler":0},{"source":17,"sampler":0},{"source":18,"sampler":0},{"source":19,"sampler":0},{"source":20,"sampler":0}],"images":[{"uri":"../textures/concrete-albedo.png"},{"uri":"../textures/concrete-normal.png"},{"uri":"../textures/concrete-orm.png"},{"uri":"../textures/stucco-ivory-albedo.png"},{"uri":"../textures/stucco-ivory-normal.png"},{"uri":"../textures/stucco-ivory-orm.png"},{"uri":"../textures/roof-shingle-albedo.png"},{"uri":"../textures/roof-shingle-normal.png"},{"uri":"../textures/roof-shingle-orm.png"},{"uri":"../textures/limestone-albedo.png"},{"uri":"../textures/limestone-normal.png"},{"uri":"../textures/limestone-orm.png"},{"uri":"../textures/glass-blue-albedo.png"},{"uri":"../textures/glass-blue-normal.png"},{"uri":"../textures/glass-blue-orm.png"},{"uri":"../textures/roof-metal-albedo.png"},{"uri":"../textures/roof-metal-normal.png"},{"uri":"../textures/roof-metal-orm.png"},{"uri":"../textures/wood-painted-albedo.png"},{"uri":"../textures/wood-painted-normal.png"},{"uri":"../textures/wood-painted-orm.png"}],"samplers":[{"magFilter":9729,"minFilter":9987,"wrapS":10497,"wrapT":10497}],"buffers":[{"uri":"../shared/geometry.bin","byteLength":16435520}],"bufferViews":[{"buffer":0,"byteOffset":0,"byteLength":3888,"target":34962},{"buffer":0,"byteOffset":3888,"byteLength":3888,"target":34962},{"buffer":0,"byteOffset":14768060,"byteLength":2592,"target":34962},{"buffer":0,"byteOffset":4709080,"byteLength":3888,"target":34962},{"buffer":0,"byteOffset":14770652,"byteLength":2592,"target":34962},{"buffer":0,"byteOffset":14773244,"byteLength":2592,"target":34962},{"buffer":0,"byteOffset":14731708,"byteLength":768,"target":34962},{"buffer":0,"byteOffset":14732476,"byteLength":768,"target":34962},{"buffer":0,"byteOffset":14733244,"byteLength":512,"target":34962},{"buffer":0,"byteOffset":882248,"byteLength":240,"target":34963},{"buffer":0,"byteOffset":14781980,"byteLength":2592,"target":34962},{"buffer":0,"byteOffset":14784572,"byteLength":2592,"target":34962},{"buffer":0,"byteOffset":14738940,"byteLength":2592,"target":34962},{"buffer":0,"byteOffset":4235856,"byteLength":2592,"target":34962},{"buffer":0,"byteOffset":46644,"byteLength":288,"target":34962},{"buffer":0,"byteOffset":45952,"byteLength":288,"target":34962},{"buffer":0,"byteOffset":14775836,"byteLength":192,"target":34962},{"buffer":0,"byteOffset":46432,"byteLength":72,"target":34963},{"buffer":0,"byteOffset":14776028,"byteLength":192,"target":34962},{"buffer":0,"byteOffset":14776220,"byteLength":192,"target":34962},{"buffer":0,"byteOffset":4954904,"byteLength":480,"target":34962},{"buffer":0,"byteOffset":4955384,"byteLength":480,"target":34962},{"buffer":0,"byteOffset":14742108,"byteLength":320,"target":34962},{"buffer":0,"byteOffset":48596,"byteLength":144,"target":34963},{"buffer":0,"byteOffset":14787164,"byteLength":192,"target":34962},{"buffer":0,"byteOffset":14787356,"byteLength":192,"target":34962},{"buffer":0,"byteOffset":14742812,"byteLength":192,"target":34962},{"buffer":0,"byteOffset":4252176,"byteLength":192,"target":34962}],"accessors":[{"bufferView":0,"componentType":5126,"count":324,"type":"VEC3","min":[-0.5,-0.5,-0.5],"max":[0.5,0.5,0.5]},{"bufferView":1,"componentType":5126,"count":324,"type":"VEC3"},{"bufferView":2,"componentType":5126,"count":324,"type":"VEC2"},{"bufferView":3,"componentType":5126,"count":324,"type":"VEC3","min":[-0.5,-0.5,-0.5],"max":[0.5,0.5,0.5]},{"bufferView":4,"componentType":5126,"count":324,"type":"VEC2"},{"bufferView":5,"componentType":5126,"count":324,"type":"VEC2"},{"bufferView":6,"componentType":5126,"count":64,"type":"VEC3","min":[-0.9510565400123596,-0.5,-1],"max":[0.9510565400123596,0.5,1]},{"bufferView":7,"componentType":5126,"count":64,"type":"VEC3"},{"bufferView":8,"componentType":5126,"count":64,"type":"VEC2"},{"bufferView":9,"componentType":5123,"count":120,"type":"SCALAR"},{"bufferView":10,"componentType":5126,"count":324,"type":"VEC2"},{"bufferView":11,"componentType":5126,"count":324,"type":"VEC2"},{"bufferView":12,"componentType":5126,"count":324,"type":"VEC2"},{"bufferView":13,"componentType":5126,"count":324,"type":"VEC2"},{"bufferView":14,"componentType":5126,"count":24,"type":"VEC3","min":[-0.5,-0.5,-0.5],"max":[0.5,0.5,0.5]},{"bufferView":15,"componentType":5126,"count":24,"type":"VEC3"},{"bufferView":16,"componentType":5126,"count":24,"type":"VEC2"},{"bufferView":17,"componentType":5123,"count":36,"type":"SCALAR"},{"bufferView":18,"componentType":5126,"count":24,"type":"VEC2"},{"bufferView":19,"componentType":5126,"count":24,"type":"VEC2"},{"bufferView":20,"componentType":5126,"count":40,"type":"VEC3","min":[-0.8660253882408142,-0.5,-1],"max":[0.8660253882408142,0.5,1]},{"bufferView":21,"componentType":5126,"count":40,"type":"VEC3"},{"bufferView":22,"componentType":5126,"count":40,"type":"VEC2"},{"bufferView":23,"componentType":5123,"count":72,"type":"SCALAR"},{"bufferView":24,"componentType":5126,"count":24,"type":"VEC2"},{"bufferView":25,"componentType":5126,"count":24,"type":"VEC2"},{"bufferView":26,"componentType":5126,"count":24,"type":"VEC2"},{"bufferView":27,"componentType":5126,"count":24,"type":"VEC2"}],"extensionsUsed":["KHR_materials_unlit"],"extras":{"id":"vlt-tract-beaumont-15","family":"tract-beaumont","variant":14,"plan":"C5-1","units":"metres","up":"+Y","front":"+Z","lodScenes":[0,1,2]}}