{"asset":{"version":"2.0","generator":"SLOPMERICA Department of Unnecessary Development 1.0"},"scene":0,"scenes":[{"name":"LOD 0","nodes":[0,1,2,3,4,5,6,7,8,9,10,11,12,13,14,15,16,17,18,19,20,21,22,23,24,25,26,27,28,29,30,31,32,33,34,35,36,37,38,39],"extras":{"level":0}},{"name":"LOD 1","nodes":[40,41,42,43,44,45,46,47,48,49,50,51,52,53,54,55,56,57,58,59,60,61,62,63,64,65,66,67],"extras":{"level":1}},{"name":"LOD 2","nodes":[68,69,70,71,72,73,74,75,76,77,78,79,80,81,82,83,84],"extras":{"level":2}}],"nodes":[{"name":"site-pad","mesh":0,"translation":[0,0.06,0],"scale":[13.728,0.12,10.9824]},{"name":"variant-apron","mesh":1,"translation":[2.574,0.13,5.5],"scale":[2.904,0.08,1.34]},{"name":"bollard-0","mesh":2,"translation":[-5.016,0.43,5.62],"scale":[0.08,0.74,0.08]},{"name":"layout-cabinet","mesh":3,"translation":[6.8,0.495,2.376],"scale":[0.81,0.75,0.32]},{"name":"deck-0","mesh":4,"translation":[0,0.32,0],"scale":[13.2,0.28,10.56]},{"name":"post-0-0--4.224","mesh":5,"translation":[-5.544,1.3,-4.224],"scale":[0.32,2.25,0.32]},{"name":"post-0-0-4.224","mesh":5,"translation":[-5.544,1.3,4.224],"scale":[0.32,2.25,0.32]},{"name":"post-0-1--4.224","mesh":5,"translation":[-2.772,1.3,-4.224],"scale":[0.32,2.25,0.32]},{"name":"post-0-1-4.224","mesh":5,"translation":[-2.772,1.3,4.224],"scale":[0.32,2.25,0.32]},{"name":"post-0-2--4.224","mesh":5,"translation":[0,1.3,-4.224],"scale":[0.32,2.25,0.32]},{"name":"post-0-2-4.224","mesh":5,"translation":[0,1.3,4.224],"scale":[0.32,2.25,0.32]},{"name":"post-0-3--4.224","mesh":5,"translation":[2.772,1.3,-4.224],"scale":[0.32,2.25,0.32]},{"name":"post-0-3-4.224","mesh":5,"translation":[2.772,1.3,4.224],"scale":[0.32,2.25,0.32]},{"name":"post-0-4--4.224","mesh":5,"translation":[5.544,1.3,-4.224],"scale":[0.32,2.25,0.32]},{"name":"post-0-4-4.224","mesh":5,"translation":[5.544,1.3,4.224],"scale":[0.32,2.25,0.32]},{"name":"deck-1","mesh":4,"translation":[0,2.57,0],"scale":[13.2,0.28,10.56]},{"name":"post-1-0--4.224","mesh":5,"translation":[-5.544,3.55,-4.224],"scale":[0.32,2.25,0.32]},{"name":"post-1-0-4.224","mesh":5,"translation":[-5.544,3.55,4.224],"scale":[0.32,2.25,0.32]},{"name":"post-1-1--4.224","mesh":5,"translation":[-2.772,3.55,-4.224],"scale":[0.32,2.25,0.32]},{"name":"post-1-1-4.224","mesh":5,"translation":[-2.772,3.55,4.224],"scale":[0.32,2.25,0.32]},{"name":"post-1-2--4.224","mesh":5,"translation":[0,3.55,-4.224],"scale":[0.32,2.25,0.32]},{"name":"post-1-2-4.224","mesh":5,"translation":[0,3.55,4.224],"scale":[0.32,2.25,0.32]},{"name":"post-1-3--4.224","mesh":5,"translation":[2.772,3.55,-4.224],"scale":[0.32,2.25,0.32]},{"name":"post-1-3-4.224","mesh":5,"translation":[2.772,3.55,4.224],"scale":[0.32,2.25,0.32]},{"name":"post-1-4--4.224","mesh":5,"translation":[5.544,3.55,-4.224],"scale":[0.32,2.25,0.32]},{"name":"post-1-4-4.224","mesh":5,"translation":[5.544,3.55,4.224],"scale":[0.32,2.25,0.32]},{"name":"deck-2","mesh":4,"translation":[0,4.82,0],"scale":[13.2,0.28,10.56]},{"name":"post-2-0--4.224","mesh":5,"translation":[-5.544,5.8,-4.224],"scale":[0.32,2.25,0.32]},{"name":"post-2-0-4.224","mesh":5,"translation":[-5.544,5.8,4.224],"scale":[0.32,2.25,0.32]},{"name":"post-2-1--4.224","mesh":5,"translation":[-2.772,5.8,-4.224],"scale":[0.32,2.25,0.32]},{"name":"post-2-1-4.224","mesh":5,"translation":[-2.772,5.8,4.224],"scale":[0.32,2.25,0.32]},{"name":"post-2-2--4.224","mesh":5,"translation":[0,5.8,-4.224],"scale":[0.32,2.25,0.32]},{"name":"post-2-2-4.224","mesh":5,"translation":[0,5.8,4.224],"scale":[0.32,2.25,0.32]},{"name":"post-2-3--4.224","mesh":5,"translation":[2.772,5.8,-4.224],"scale":[0.32,2.25,0.32]},{"name":"post-2-3-4.224","mesh":5,"translation":[2.772,5.8,4.224],"scale":[0.32,2.25,0.32]},{"name":"post-2-4--4.224","mesh":5,"translation":[5.544,5.8,-4.224],"scale":[0.32,2.25,0.32]},{"name":"post-2-4-4.224","mesh":5,"translation":[5.544,5.8,4.224],"scale":[0.32,2.25,0.32]},{"name":"ramp","mesh":6,"translation":[1.056,3.24,-2.64],"rotation":[0,0,0.084898,0.99639],"scale":[7.92,0.24,2]},{"name":"parking-sign-back","mesh":7,"translation":[4.752,5.95,5.48],"scale":[2.4,1.8,1]},{"name":"parking-sign","mesh":8,"translation":[4.752,5.95,5.509],"scale":[2.3,1.7,1]},{"name":"site-pad","mesh":9,"translation":[0,0.06,0],"scale":[13.728,0.12,10.9824]},{"name":"variant-apron","mesh":10,"translation":[2.574,0.13,5.5],"scale":[2.904,0.08,1.34]},{"name":"bollard-0","mesh":11,"translation":[-5.016,0.43,5.62],"scale":[0.08,0.74,0.08]},{"name":"layout-cabinet","mesh":12,"translation":[6.8,0.495,2.376],"scale":[0.81,0.75,0.32]},{"name":"deck-0","mesh":13,"translation":[0,0.32,0],"scale":[13.2,0.28,10.56]},{"name":"post-0-0--4.224","mesh":14,"translation":[-5.544,1.3,-4.224],"scale":[0.32,2.25,0.32]},{"name":"post-0-0-4.224","mesh":14,"translation":[-5.544,1.3,4.224],"scale":[0.32,2.25,0.32]},{"name":"post-0-1--4.224","mesh":14,"translation":[0,1.3,-4.224],"scale":[0.32,2.25,0.32]},{"name":"post-0-1-4.224","mesh":14,"translation":[0,1.3,4.224],"scale":[0.32,2.25,0.32]},{"name":"post-0-2--4.224","mesh":14,"translation":[5.544,1.3,-4.224],"scale":[0.32,2.25,0.32]},{"name":"post-0-2-4.224","mesh":14,"translation":[5.544,1.3,4.224],"scale":[0.32,2.25,0.32]},{"name":"deck-1","mesh":13,"translation":[0,2.57,0],"scale":[13.2,0.28,10.56]},{"name":"post-1-0--4.224","mesh":14,"translation":[-5.544,3.55,-4.224],"scale":[0.32,2.25,0.32]},{"name":"post-1-0-4.224","mesh":14,"translation":[-5.544,3.55,4.224],"scale":[0.32,2.25,0.32]},{"name":"post-1-1--4.224","mesh":14,"translation":[0,3.55,-4.224],"scale":[0.32,2.25,0.32]},{"name":"post-1-1-4.224","mesh":14,"translation":[0,3.55,4.224],"scale":[0.32,2.25,0.32]},{"name":"post-1-2--4.224","mesh":14,"translation":[5.544,3.55,-4.224],"scale":[0.32,2.25,0.32]},{"name":"post-1-2-4.224","mesh":14,"translation":[5.544,3.55,4.224],"scale":[0.32,2.25,0.32]},{"name":"deck-2","mesh":13,"translation":[0,4.82,0],"scale":[13.2,0.28,10.56]},{"name":"post-2-0--4.224","mesh":14,"translation":[-5.544,5.8,-4.224],"scale":[0.32,2.25,0.32]},{"name":"post-2-0-4.224","mesh":14,"translation":[-5.544,5.8,4.224],"scale":[0.32,2.25,0.32]},{"name":"post-2-1--4.224","mesh":14,"translation":[0,5.8,-4.224],"scale":[0.32,2.25,0.32]},{"name":"post-2-1-4.224","mesh":14,"translation":[0,5.8,4.224],"scale":[0.32,2.25,0.32]},{"name":"post-2-2--4.224","mesh":14,"translation":[5.544,5.8,-4.224],"scale":[0.32,2.25,0.32]},{"name":"post-2-2-4.224","mesh":14,"translation":[5.544,5.8,4.224],"scale":[0.32,2.25,0.32]},{"name":"ramp","mesh":15,"translation":[1.056,3.24,-2.64],"rotation":[0,0,0.084898,0.99639],"scale":[7.92,0.24,2]},{"name":"parking-sign-back","mesh":7,"translation":[4.752,5.95,5.48],"scale":[2.4,1.8,1]},{"name":"parking-sign","mesh":8,"translation":[4.752,5.95,5.509],"scale":[2.3,1.7,1]},{"name":"site-pad","mesh":9,"translation":[0,0.06,0],"scale":[13.728,0.12,10.9824]},{"name":"variant-apron","mesh":10,"translation":[2.574,0.13,5.5],"scale":[2.904,0.08,1.34]},{"name":"bollard-0","mesh":11,"translation":[-5.016,0.43,5.62],"scale":[0.08,0.74,0.08]},{"name":"layout-cabinet","mesh":12,"translation":[6.8,0.495,2.376],"scale":[0.81,0.75,0.32]},{"name":"deck-0","mesh":13,"translation":[0,0.32,0],"scale":[13.2,0.28,10.56]},{"name":"post-0-0--4.224","mesh":14,"translation":[-5.544,1.3,-4.224],"scale":[0.32,2.25,0.32]},{"name":"post-0-0-4.224","mesh":14,"translation":[-5.544,1.3,4.224],"scale":[0.32,2.25,0.32]},{"name":"post-0-1--4.224","mesh":14,"translation":[5.544,1.3,-4.224],"scale":[0.32,2.25,0.32]},{"name":"post-0-1-4.224","mesh":14,"translation":[5.544,1.3,4.224],"scale":[0.32,2.25,0.32]},{"name":"deck-1","mesh":13,"translation":[0,2.57,0],"scale":[13.2,0.28,10.56]},{"name":"post-1-0--4.224","mesh":14,"translation":[-5.544,3.55,-4.224],"scale":[0.32,2.25,0.32]},{"name":"post-1-0-4.224","mesh":14,"translation":[-5.544,3.55,4.224],"scale":[0.32,2.25,0.32]},{"name":"post-1-1--4.224","mesh":14,"translation":[5.544,3.55,-4.224],"scale":[0.32,2.25,0.32]},{"name":"post-1-1-4.224","mesh":14,"translation":[5.544,3.55,4.224],"scale":[0.32,2.25,0.32]},{"name":"ramp","mesh":15,"translation":[1.056,2.16,-2.64],"rotation":[0,0,0.084898,0.99639],"scale":[7.92,0.24,2]},{"name":"parking-sign-back","mesh":7,"translation":[4.752,3.7,5.48],"scale":[2.4,1.8,1]},{"name":"parking-sign","mesh":8,"translation":[4.752,3.7,5.509],"scale":[2.3,1.7,1]}],"meshes":[{"primitives":[{"attributes":{"POSITION":0,"NORMAL":1,"TEXCOORD_0":2},"material":0,"mode":4}]},{"primitives":[{"attributes":{"POSITION":0,"NORMAL":1,"TEXCOORD_0":3},"material":0,"mode":4}]},{"primitives":[{"attributes":{"POSITION":4,"NORMAL":5,"TEXCOORD_0":6},"material":1,"mode":4,"indices":7}]},{"primitives":[{"attributes":{"POSITION":0,"NORMAL":1,"TEXCOORD_0":8},"material":2,"mode":4}]},{"primitives":[{"attributes":{"POSITION":0,"NORMAL":1,"TEXCOORD_0":9},"material":3,"mode":4}]},{"primitives":[{"attributes":{"POSITION":0,"NORMAL":1,"TEXCOORD_0":10},"material":3,"mode":4}]},{"primitives":[{"attributes":{"POSITION":0,"NORMAL":1,"TEXCOORD_0":11},"material":3,"mode":4}]},{"primitives":[{"attributes":{"POSITION":12,"NORMAL":13,"TEXCOORD_0":14},"material":4,"mode":4,"indices":15}]},{"primitives":[{"attributes":{"POSITION":16,"NORMAL":17,"TEXCOORD_0":18},"material":5,"mode":4,"indices":19}]},{"primitives":[{"attributes":{"POSITION":20,"NORMAL":13,"TEXCOORD_0":21},"material":0,"mode":4,"indices":15}]},{"primitives":[{"attributes":{"POSITION":20,"NORMAL":13,"TEXCOORD_0":22},"material":0,"mode":4,"indices":15}]},{"primitives":[{"attributes":{"POSITION":23,"NORMAL":24,"TEXCOORD_0":25},"material":1,"mode":4,"indices":26}]},{"primitives":[{"attributes":{"POSITION":20,"NORMAL":13,"TEXCOORD_0":27},"material":2,"mode":4,"indices":15}]},{"primitives":[{"attributes":{"POSITION":20,"NORMAL":13,"TEXCOORD_0":28},"material":3,"mode":4,"indices":15}]},{"primitives":[{"attributes":{"POSITION":20,"NORMAL":13,"TEXCOORD_0":29},"material":3,"mode":4,"indices":15}]},{"primitives":[{"attributes":{"POSITION":20,"NORMAL":13,"TEXCOORD_0":30},"material":3,"mode":4,"indices":15}]}],"materials":[{"name":"asphalt","pbrMetallicRoughness":{"baseColorTexture":{"index":0},"metallicRoughnessTexture":{"index":2},"roughnessFactor":1,"metallicFactor":1},"normalTexture":{"index":1,"scale":0.62},"occlusionTexture":{"index":2,"strength":0.35}},{"name":"paint-yellow","pbrMetallicRoughness":{"baseColorFactor":[0.76052450467022,0.4793201830913402,0.07818742179702069,1],"roughnessFactor":0.66,"metallicFactor":0.03}},{"name":"metal-galvanized","pbrMetallicRoughness":{"baseColorTexture":{"index":3},"metallicRoughnessTexture":{"index":5},"roughnessFactor":1,"metallicFactor":1},"normalTexture":{"index":4,"scale":0.15},"occlusionTexture":{"index":5,"strength":0.35}},{"name":"concrete","pbrMetallicRoughness":{"baseColorTexture":{"index":6},"metallicRoughnessTexture":{"index":8},"roughnessFactor":1,"metallicFactor":1},"normalTexture":{"index":7,"scale":0.82},"occlusionTexture":{"index":8,"strength":0.35}},{"name":"metal-dark","pbrMetallicRoughness":{"baseColorTexture":{"index":9},"metallicRoughnessTexture":{"index":11},"roughnessFactor":1,"metallicFactor":1},"normalTexture":{"index":10,"scale":0.35},"occlusionTexture":{"index":11,"strength":0.35}},{"name":"parking-minimums-garage signage","pbrMetallicRoughness":{"baseColorTexture":{"index":12},"roughnessFactor":1,"metallicFactor":0},"extensions":{"KHR_materials_unlit":{}}}],"textures":[{"source":0,"sampler":0},{"source":1,"sampler":0},{"source":2,"sampler":0},{"source":3,"sampler":0},{"source":4,"sampler":0},{"source":5,"sampler":0},{"source":6,"sampler":0},{"source":7,"sampler":0},{"source":8,"sampler":0},{"source":9,"sampler":0},{"source":10,"sampler":0},{"source":11,"sampler":0},{"source":12,"sampler":0}],"images":[{"uri":"../textures/asphalt-albedo.png"},{"uri":"../textures/asphalt-normal.png"},{"uri":"../textures/asphalt-orm.png"},{"uri":"../textures/metal-galvanized-albedo.png"},{"uri":"../textures/metal-galvanized-normal.png"},{"uri":"../textures/metal-galvanized-orm.png"},{"uri":"../textures/concrete-albedo.png"},{"uri":"../textures/concrete-normal.png"},{"uri":"../textures/concrete-orm.png"},{"uri":"../textures/metal-dark-albedo.png"},{"uri":"../textures/metal-dark-normal.png"},{"uri":"../textures/metal-dark-orm.png"},{"uri":"../signs/parking-minimums-garage.png"}],"samplers":[{"magFilter":9729,"minFilter":9987,"wrapS":10497,"wrapT":10497}],"buffers":[{"uri":"../shared/geometry.bin","byteLength":16435520}],"bufferViews":[{"buffer":0,"byteOffset":0,"byteLength":3888,"target":34962},{"buffer":0,"byteOffset":3888,"byteLength":3888,"target":34962},{"buffer":0,"byteOffset":2269356,"byteLength":2592,"target":34962},{"buffer":0,"byteOffset":2321516,"byteLength":2592,"target":34962},{"buffer":0,"byteOffset":12960,"byteLength":1200,"target":34962},{"buffer":0,"byteOffset":14160,"byteLength":1200,"target":34962},{"buffer":0,"byteOffset":179140,"byteLength":800,"target":34962},{"buffer":0,"byteOffset":16160,"byteLength":384,"target":34963},{"buffer":0,"byteOffset":179940,"byteLength":2592,"target":34962},{"buffer":0,"byteOffset":9935768,"byteLength":2592,"target":34962},{"buffer":0,"byteOffset":9826808,"byteLength":2592,"target":34962},{"buffer":0,"byteOffset":9829400,"byteLength":2592,"target":34962},{"buffer":0,"byteOffset":45664,"byteLength":288,"target":34962},{"buffer":0,"byteOffset":45952,"byteLength":288,"target":34962},{"buffer":0,"byteOffset":46240,"byteLength":192,"target":34962},{"buffer":0,"byteOffset":46432,"byteLength":72,"target":34963},{"buffer":0,"byteOffset":46504,"byteLength":48,"target":34962},{"buffer":0,"byteOffset":46552,"byteLength":48,"target":34962},{"buffer":0,"byteOffset":182532,"byteLength":32,"target":34962},{"buffer":0,"byteOffset":46632,"byteLength":12,"target":34963},{"buffer":0,"byteOffset":46644,"byteLength":288,"target":34962},{"buffer":0,"byteOffset":2275340,"byteLength":192,"target":34962},{"buffer":0,"byteOffset":2325100,"byteLength":192,"target":34962},{"buffer":0,"byteOffset":47316,"byteLength":480,"target":34962},{"buffer":0,"byteOffset":47796,"byteLength":480,"target":34962},{"buffer":0,"byteOffset":182756,"byteLength":320,"target":34962},{"buffer":0,"byteOffset":48596,"byteLength":144,"target":34963},{"buffer":0,"byteOffset":183076,"byteLength":192,"target":34962},{"buffer":0,"byteOffset":9938360,"byteLength":192,"target":34962},{"buffer":0,"byteOffset":9832376,"byteLength":192,"target":34962},{"buffer":0,"byteOffset":9832568,"byteLength":192,"target":34962}],"accessors":[{"bufferView":0,"componentType":5126,"count":324,"type":"VEC3","min":[-0.5,-0.5,-0.5],"max":[0.5,0.5,0.5]},{"bufferView":1,"componentType":5126,"count":324,"type":"VEC3"},{"bufferView":2,"componentType":5126,"count":324,"type":"VEC2"},{"bufferView":3,"componentType":5126,"count":324,"type":"VEC2"},{"bufferView":4,"componentType":5126,"count":100,"type":"VEC3","min":[-1,-0.5,-1],"max":[1,0.5,1]},{"bufferView":5,"componentType":5126,"count":100,"type":"VEC3"},{"bufferView":6,"componentType":5126,"count":100,"type":"VEC2"},{"bufferView":7,"componentType":5123,"count":192,"type":"SCALAR"},{"bufferView":8,"componentType":5126,"count":324,"type":"VEC2"},{"bufferView":9,"componentType":5126,"count":324,"type":"VEC2"},{"bufferView":10,"componentType":5126,"count":324,"type":"VEC2"},{"bufferView":11,"componentType":5126,"count":324,"type":"VEC2"},{"bufferView":12,"componentType":5126,"count":24,"type":"VEC3","min":[-0.5,-0.5,-0.02500000037252903],"max":[0.5,0.5,0.02500000037252903]},{"bufferView":13,"componentType":5126,"count":24,"type":"VEC3"},{"bufferView":14,"componentType":5126,"count":24,"type":"VEC2"},{"bufferView":15,"componentType":5123,"count":36,"type":"SCALAR"},{"bufferView":16,"componentType":5126,"count":4,"type":"VEC3","min":[-0.5,-0.5,0],"max":[0.5,0.5,0]},{"bufferView":17,"componentType":5126,"count":4,"type":"VEC3"},{"bufferView":18,"componentType":5126,"count":4,"type":"VEC2"},{"bufferView":19,"componentType":5123,"count":6,"type":"SCALAR"},{"bufferView":20,"componentType":5126,"count":24,"type":"VEC3","min":[-0.5,-0.5,-0.5],"max":[0.5,0.5,0.5]},{"bufferView":21,"componentType":5126,"count":24,"type":"VEC2"},{"bufferView":22,"componentType":5126,"count":24,"type":"VEC2"},{"bufferView":23,"componentType":5126,"count":40,"type":"VEC3","min":[-0.8660253882408142,-0.5,-1],"max":[0.8660253882408142,0.5,1]},{"bufferView":24,"componentType":5126,"count":40,"type":"VEC3"},{"bufferView":25,"componentType":5126,"count":40,"type":"VEC2"},{"bufferView":26,"componentType":5123,"count":72,"type":"SCALAR"},{"bufferView":27,"componentType":5126,"count":24,"type":"VEC2"},{"bufferView":28,"componentType":5126,"count":24,"type":"VEC2"},{"bufferView":29,"componentType":5126,"count":24,"type":"VEC2"},{"bufferView":30,"componentType":5126,"count":24,"type":"VEC2"}],"extensionsUsed":["KHR_materials_unlit"],"extras":{"id":"vlt-parking-minimums-garage-16","family":"parking-minimums-garage","variant":15,"plan":"D1-1","units":"metres","up":"+Y","front":"+Z","lodScenes":[0,1,2]}}