{"asset":{"version":"2.0","generator":"SLOPMERICA Department of Unnecessary Development 1.0"},"scene":0,"scenes":[{"name":"LOD 0","nodes":[0,1,2,3,4,5,6,7,8,9,10,11,12,13,14,15,16,17,18,19,20,21,22,23,24,25,26,27,28,29,30,31],"extras":{"level":0}},{"name":"LOD 1","nodes":[32,33,34,35,36,37,38,39,40,41,42,43,44,45,46,47,48,49,50,51,52,53,54,55,56,57,58,59,60,61,62,63],"extras":{"level":1}},{"name":"LOD 2","nodes":[64,65,66,67,68,69,70,71,72,73,74,75],"extras":{"level":2}}],"nodes":[{"name":"site-pad","mesh":0,"translation":[0,0.06,0],"scale":[8.736,0.12,7.488]},{"name":"variant-apron","mesh":1,"translation":[-0.546,0.13,3.82],"scale":[2.688,0.08,0.98]},{"name":"bollard-0","mesh":2,"translation":[-3.192,0.43,3.94],"scale":[0.08,0.66,0.08]},{"name":"bollard-1","mesh":2,"translation":[-1.596,0.43,3.94],"scale":[0.08,0.66,0.08]},{"name":"bollard-2","mesh":2,"translation":[0,0.43,3.94],"scale":[0.08,0.66,0.08]},{"name":"bollard-3","mesh":2,"translation":[1.596,0.43,3.94],"scale":[0.08,0.66,0.08]},{"name":"bollard-4","mesh":2,"translation":[3.192,0.43,3.94],"scale":[0.08,0.66,0.08]},{"name":"layout-cabinet","mesh":3,"translation":[4.4,0.615,-0.54],"scale":[0.57,0.99,0.32]},{"name":"civic-shell","mesh":4,"translation":[0,1.848,0],"scale":[8.4,3.456,7.2]},{"name":"flat-budget-roof","mesh":5,"translation":[0,3.706,0],"scale":[8.7,0.25,7.5]},{"name":"entrance-recess","mesh":6,"translation":[-0.672,1.42,3.73],"scale":[2.48,2.6,0.24]},{"name":"glass-doors","mesh":7,"translation":[-0.672,1.3,3.88],"scale":[1.5,2.15,0.12]},{"name":"window-0","mesh":8,"translation":[-3.192,2.00448,3.75],"scale":[0.85,1.15,0.1]},{"name":"window-1","mesh":8,"translation":[-1.9152,2.00448,3.75],"scale":[0.85,1.15,0.1]},{"name":"window-3","mesh":8,"translation":[0.6384,2.00448,3.75],"scale":[0.85,1.15,0.1]},{"name":"window-4","mesh":8,"translation":[1.9152,2.00448,3.75],"scale":[0.85,1.15,0.1]},{"name":"window-5","mesh":8,"translation":[3.192,2.00448,3.75],"scale":[0.85,1.15,0.1]},{"name":"civic-sign-back","mesh":9,"translation":[0,2.736,3.78],"scale":[5.308,1,1]},{"name":"civic-sign","mesh":10,"translation":[0,2.736,3.809],"scale":[5.208,0.9,1]},{"name":"pump-0","mesh":11,"translation":[-2.856,0.88,-4.35],"scale":[0.48,1.42,0.48]},{"name":"pump-elbow-0","mesh":12,"translation":[-2.856,1.5,-4.35],"rotation":[0.707107,0,0,0.707107]},{"name":"pump-1","mesh":11,"translation":[-1.7136,0.88,-4.35],"scale":[0.48,1.42,0.48]},{"name":"pump-elbow-1","mesh":12,"translation":[-1.7136,1.5,-4.35],"rotation":[0.707107,0,0,0.707107]},{"name":"pump-2","mesh":11,"translation":[-0.5712,0.88,-4.35],"scale":[0.48,1.42,0.48]},{"name":"pump-elbow-2","mesh":12,"translation":[-0.5712,1.5,-4.35],"rotation":[0.707107,0,0,0.707107]},{"name":"pump-3","mesh":11,"translation":[0.5712,0.88,-4.35],"scale":[0.48,1.42,0.48]},{"name":"pump-elbow-3","mesh":12,"translation":[0.5712,1.5,-4.35],"rotation":[0.707107,0,0,0.707107]},{"name":"pump-4","mesh":11,"translation":[1.7136,0.88,-4.35],"scale":[0.48,1.42,0.48]},{"name":"pump-elbow-4","mesh":12,"translation":[1.7136,1.5,-4.35],"rotation":[0.707107,0,0,0.707107]},{"name":"pump-5","mesh":11,"translation":[2.856,0.88,-4.35],"scale":[0.48,1.42,0.48]},{"name":"pump-elbow-5","mesh":12,"translation":[2.856,1.5,-4.35],"rotation":[0.707107,0,0,0.707107]},{"name":"intake-screen","mesh":13,"translation":[1.5,0.9,3.85],"scale":[3.4,1.5,0.25]},{"name":"site-pad","mesh":14,"translation":[0,0.06,0],"scale":[8.736,0.12,7.488]},{"name":"variant-apron","mesh":15,"translation":[-0.546,0.13,3.82],"scale":[2.688,0.08,0.98]},{"name":"bollard-0","mesh":16,"translation":[-3.192,0.43,3.94],"scale":[0.08,0.66,0.08]},{"name":"bollard-1","mesh":16,"translation":[-1.596,0.43,3.94],"scale":[0.08,0.66,0.08]},{"name":"bollard-2","mesh":16,"translation":[0,0.43,3.94],"scale":[0.08,0.66,0.08]},{"name":"bollard-3","mesh":16,"translation":[1.596,0.43,3.94],"scale":[0.08,0.66,0.08]},{"name":"bollard-4","mesh":16,"translation":[3.192,0.43,3.94],"scale":[0.08,0.66,0.08]},{"name":"layout-cabinet","mesh":17,"translation":[4.4,0.615,-0.54],"scale":[0.57,0.99,0.32]},{"name":"civic-shell","mesh":18,"translation":[0,1.848,0],"scale":[8.4,3.456,7.2]},{"name":"flat-budget-roof","mesh":19,"translation":[0,3.706,0],"scale":[8.7,0.25,7.5]},{"name":"entrance-recess","mesh":20,"translation":[-0.672,1.42,3.73],"scale":[2.48,2.6,0.24]},{"name":"glass-doors","mesh":21,"translation":[-0.672,1.3,3.88],"scale":[1.5,2.15,0.12]},{"name":"window-0","mesh":22,"translation":[-3.192,2.00448,3.75],"scale":[0.85,1.15,0.1]},{"name":"window-1","mesh":22,"translation":[-1.9152,2.00448,3.75],"scale":[0.85,1.15,0.1]},{"name":"window-3","mesh":22,"translation":[0.6384,2.00448,3.75],"scale":[0.85,1.15,0.1]},{"name":"window-4","mesh":22,"translation":[1.9152,2.00448,3.75],"scale":[0.85,1.15,0.1]},{"name":"window-5","mesh":22,"translation":[3.192,2.00448,3.75],"scale":[0.85,1.15,0.1]},{"name":"civic-sign-back","mesh":9,"translation":[0,2.736,3.78],"scale":[5.308,1,1]},{"name":"civic-sign","mesh":10,"translation":[0,2.736,3.809],"scale":[5.208,0.9,1]},{"name":"pump-0","mesh":23,"translation":[-2.856,0.88,-4.35],"scale":[0.48,1.42,0.48]},{"name":"pump-elbow-0","mesh":24,"translation":[-2.856,1.5,-4.35],"rotation":[0.707107,0,0,0.707107]},{"name":"pump-1","mesh":23,"translation":[-1.7136,0.88,-4.35],"scale":[0.48,1.42,0.48]},{"name":"pump-elbow-1","mesh":24,"translation":[-1.7136,1.5,-4.35],"rotation":[0.707107,0,0,0.707107]},{"name":"pump-2","mesh":23,"translation":[-0.5712,0.88,-4.35],"scale":[0.48,1.42,0.48]},{"name":"pump-elbow-2","mesh":24,"translation":[-0.5712,1.5,-4.35],"rotation":[0.707107,0,0,0.707107]},{"name":"pump-3","mesh":23,"translation":[0.5712,0.88,-4.35],"scale":[0.48,1.42,0.48]},{"name":"pump-elbow-3","mesh":24,"translation":[0.5712,1.5,-4.35],"rotation":[0.707107,0,0,0.707107]},{"name":"pump-4","mesh":23,"translation":[1.7136,0.88,-4.35],"scale":[0.48,1.42,0.48]},{"name":"pump-elbow-4","mesh":24,"translation":[1.7136,1.5,-4.35],"rotation":[0.707107,0,0,0.707107]},{"name":"pump-5","mesh":23,"translation":[2.856,0.88,-4.35],"scale":[0.48,1.42,0.48]},{"name":"pump-elbow-5","mesh":24,"translation":[2.856,1.5,-4.35],"rotation":[0.707107,0,0,0.707107]},{"name":"intake-screen","mesh":25,"translation":[1.5,0.9,3.85],"scale":[3.4,1.5,0.25]},{"name":"site-pad","mesh":14,"translation":[0,0.06,0],"scale":[8.736,0.12,7.488]},{"name":"variant-apron","mesh":15,"translation":[-0.546,0.13,3.82],"scale":[2.688,0.08,0.98]},{"name":"bollard-0","mesh":16,"translation":[-3.192,0.43,3.94],"scale":[0.08,0.66,0.08]},{"name":"layout-cabinet","mesh":17,"translation":[4.4,0.615,-0.54],"scale":[0.57,0.99,0.32]},{"name":"civic-shell","mesh":18,"translation":[0,1.848,0],"scale":[8.4,3.456,7.2]},{"name":"flat-budget-roof","mesh":19,"translation":[0,3.706,0],"scale":[8.7,0.25,7.5]},{"name":"entrance-recess","mesh":20,"translation":[-0.672,1.42,3.73],"scale":[2.48,2.6,0.24]},{"name":"glass-doors","mesh":21,"translation":[-0.672,1.3,3.88],"scale":[1.5,2.15,0.12]},{"name":"civic-sign-back","mesh":9,"translation":[0,2.736,3.78],"scale":[5.308,1,1]},{"name":"civic-sign","mesh":10,"translation":[0,2.736,3.809],"scale":[5.208,0.9,1]},{"name":"pump-0","mesh":23,"translation":[-2.856,0.88,-4.35],"scale":[0.48,1.42,0.48]},{"name":"intake-screen","mesh":25,"translation":[1.5,0.9,3.85],"scale":[3.4,1.5,0.25]}],"meshes":[{"primitives":[{"attributes":{"POSITION":0,"NORMAL":1,"TEXCOORD_0":2},"material":0,"mode":4}]},{"primitives":[{"attributes":{"POSITION":0,"NORMAL":1,"TEXCOORD_0":3},"material":1,"mode":4}]},{"primitives":[{"attributes":{"POSITION":4,"NORMAL":5,"TEXCOORD_0":6},"material":2,"mode":4,"indices":7}]},{"primitives":[{"attributes":{"POSITION":0,"NORMAL":1,"TEXCOORD_0":8},"material":3,"mode":4}]},{"primitives":[{"attributes":{"POSITION":9,"NORMAL":1,"TEXCOORD_0":10},"material":4,"mode":4}]},{"primitives":[{"attributes":{"POSITION":0,"NORMAL":1,"TEXCOORD_0":11},"material":5,"mode":4}]},{"primitives":[{"attributes":{"POSITION":0,"NORMAL":1,"TEXCOORD_0":12},"material":6,"mode":4}]},{"primitives":[{"attributes":{"POSITION":0,"NORMAL":1,"TEXCOORD_0":13},"material":7,"mode":4}]},{"primitives":[{"attributes":{"POSITION":0,"NORMAL":1,"TEXCOORD_0":14},"material":7,"mode":4}]},{"primitives":[{"attributes":{"POSITION":15,"NORMAL":16,"TEXCOORD_0":17},"material":6,"mode":4,"indices":18}]},{"primitives":[{"attributes":{"POSITION":19,"NORMAL":20,"TEXCOORD_0":21},"material":8,"mode":4,"indices":22}]},{"primitives":[{"attributes":{"POSITION":4,"NORMAL":5,"TEXCOORD_0":23},"material":9,"mode":4,"indices":7}]},{"primitives":[{"attributes":{"POSITION":24,"NORMAL":25,"TEXCOORD_0":26},"material":10,"mode":4,"indices":27}]},{"primitives":[{"attributes":{"POSITION":0,"NORMAL":1,"TEXCOORD_0":28},"material":6,"mode":4}]},{"primitives":[{"attributes":{"POSITION":29,"NORMAL":16,"TEXCOORD_0":30},"material":0,"mode":4,"indices":18}]},{"primitives":[{"attributes":{"POSITION":29,"NORMAL":16,"TEXCOORD_0":31},"material":1,"mode":4,"indices":18}]},{"primitives":[{"attributes":{"POSITION":32,"NORMAL":33,"TEXCOORD_0":34},"material":2,"mode":4,"indices":35}]},{"primitives":[{"attributes":{"POSITION":29,"NORMAL":16,"TEXCOORD_0":36},"material":3,"mode":4,"indices":18}]},{"primitives":[{"attributes":{"POSITION":29,"NORMAL":16,"TEXCOORD_0":37},"material":4,"mode":4,"indices":18}]},{"primitives":[{"attributes":{"POSITION":29,"NORMAL":16,"TEXCOORD_0":38},"material":5,"mode":4,"indices":18}]},{"primitives":[{"attributes":{"POSITION":29,"NORMAL":16,"TEXCOORD_0":39},"material":6,"mode":4,"indices":18}]},{"primitives":[{"attributes":{"POSITION":29,"NORMAL":16,"TEXCOORD_0":40},"material":7,"mode":4,"indices":18}]},{"primitives":[{"attributes":{"POSITION":29,"NORMAL":16,"TEXCOORD_0":41},"material":7,"mode":4,"indices":18}]},{"primitives":[{"attributes":{"POSITION":32,"NORMAL":33,"TEXCOORD_0":42},"material":9,"mode":4,"indices":35}]},{"primitives":[{"attributes":{"POSITION":43,"NORMAL":44,"TEXCOORD_0":45},"material":10,"mode":4,"indices":46}]},{"primitives":[{"attributes":{"POSITION":29,"NORMAL":16,"TEXCOORD_0":47},"material":6,"mode":4,"indices":18}]}],"materials":[{"name":"concrete","pbrMetallicRoughness":{"baseColorTexture":{"index":0},"metallicRoughnessTexture":{"index":2},"roughnessFactor":1,"metallicFactor":1},"normalTexture":{"index":1,"scale":0.82},"occlusionTexture":{"index":2,"strength":0.35}},{"name":"asphalt","pbrMetallicRoughness":{"baseColorTexture":{"index":3},"metallicRoughnessTexture":{"index":5},"roughnessFactor":1,"metallicFactor":1},"normalTexture":{"index":4,"scale":0.62},"occlusionTexture":{"index":5,"strength":0.35}},{"name":"paint-yellow","pbrMetallicRoughness":{"baseColorFactor":[0.76052450467022,0.4793201830913402,0.07818742179702069,1],"roughnessFactor":0.66,"metallicFactor":0.03}},{"name":"metal-galvanized","pbrMetallicRoughness":{"baseColorTexture":{"index":6},"metallicRoughnessTexture":{"index":8},"roughnessFactor":1,"metallicFactor":1},"normalTexture":{"index":7,"scale":0.15},"occlusionTexture":{"index":8,"strength":0.35}},{"name":"brick-cream","pbrMetallicRoughness":{"baseColorTexture":{"index":9},"metallicRoughnessTexture":{"index":11},"roughnessFactor":1,"metallicFactor":1},"normalTexture":{"index":10,"scale":1.05},"occlusionTexture":{"index":11,"strength":0.35}},{"name":"roof-metal","pbrMetallicRoughness":{"baseColorTexture":{"index":12},"metallicRoughnessTexture":{"index":14},"roughnessFactor":1,"metallicFactor":1},"normalTexture":{"index":13,"scale":0.68},"occlusionTexture":{"index":14,"strength":0.35}},{"name":"metal-dark","pbrMetallicRoughness":{"baseColorTexture":{"index":15},"metallicRoughnessTexture":{"index":17},"roughnessFactor":1,"metallicFactor":1},"normalTexture":{"index":16,"scale":0.35},"occlusionTexture":{"index":17,"strength":0.35}},{"name":"glass-blue","pbrMetallicRoughness":{"baseColorTexture":{"index":18},"metallicRoughnessTexture":{"index":20},"roughnessFactor":1,"metallicFactor":1},"normalTexture":{"index":19,"scale":0.12},"occlusionTexture":{"index":20,"strength":0.35}},{"name":"pump-station signage","pbrMetallicRoughness":{"baseColorTexture":{"index":21},"roughnessFactor":1,"metallicFactor":0},"extensions":{"KHR_materials_unlit":{}}},{"name":"paint-blue","pbrMetallicRoughness":{"baseColorFactor":[0.05126945836711539,0.10946171076915331,0.22696587349938613,1],"roughnessFactor":0.58,"metallicFactor":0.05}},{"name":"metal-copper","pbrMetallicRoughness":{"baseColorTexture":{"index":22},"metallicRoughnessTexture":{"index":24},"roughnessFactor":1,"metallicFactor":1},"normalTexture":{"index":23,"scale":0.7},"occlusionTexture":{"index":24,"strength":0.35}}],"textures":[{"source":0,"sampler":0},{"source":1,"sampler":0},{"source":2,"sampler":0},{"source":3,"sampler":0},{"source":4,"sampler":0},{"source":5,"sampler":0},{"source":6,"sampler":0},{"source":7,"sampler":0},{"source":8,"sampler":0},{"source":9,"sampler":0},{"source":10,"sampler":0},{"source":11,"sampler":0},{"source":12,"sampler":0},{"source":13,"sampler":0},{"source":14,"sampler":0},{"source":15,"sampler":0},{"source":16,"sampler":0},{"source":17,"sampler":0},{"source":18,"sampler":0},{"source":19,"sampler":0},{"source":20,"sampler":0},{"source":21,"sampler":0},{"source":22,"sampler":0},{"source":23,"sampler":0},{"source":24,"sampler":0}],"images":[{"uri":"../textures/concrete-albedo.png"},{"uri":"../textures/concrete-normal.png"},{"uri":"../textures/concrete-orm.png"},{"uri":"../textures/asphalt-albedo.png"},{"uri":"../textures/asphalt-normal.png"},{"uri":"../textures/asphalt-orm.png"},{"uri":"../textures/metal-galvanized-albedo.png"},{"uri":"../textures/metal-galvanized-normal.png"},{"uri":"../textures/metal-galvanized-orm.png"},{"uri":"../textures/brick-cream-albedo.png"},{"uri":"../textures/brick-cream-normal.png"},{"uri":"../textures/brick-cream-orm.png"},{"uri":"../textures/roof-metal-albedo.png"},{"uri":"../textures/roof-metal-normal.png"},{"uri":"../textures/roof-metal-orm.png"},{"uri":"../textures/metal-dark-albedo.png"},{"uri":"../textures/metal-dark-normal.png"},{"uri":"../textures/metal-dark-orm.png"},{"uri":"../textures/glass-blue-albedo.png"},{"uri":"../textures/glass-blue-normal.png"},{"uri":"../textures/glass-blue-orm.png"},{"uri":"../signs/pump-station.png"},{"uri":"../textures/metal-copper-albedo.png"},{"uri":"../textures/metal-copper-normal.png"},{"uri":"../textures/metal-copper-orm.png"}],"samplers":[{"magFilter":9729,"minFilter":9987,"wrapS":10497,"wrapT":10497}],"buffers":[{"uri":"../shared/geometry.bin","byteLength":16435520}],"bufferViews":[{"buffer":0,"byteOffset":0,"byteLength":3888,"target":34962},{"buffer":0,"byteOffset":3888,"byteLength":3888,"target":34962},{"buffer":0,"byteOffset":11369200,"byteLength":2592,"target":34962},{"buffer":0,"byteOffset":11395376,"byteLength":2592,"target":34962},{"buffer":0,"byteOffset":12960,"byteLength":1200,"target":34962},{"buffer":0,"byteOffset":14160,"byteLength":1200,"target":34962},{"buffer":0,"byteOffset":120900,"byteLength":800,"target":34962},{"buffer":0,"byteOffset":16160,"byteLength":384,"target":34963},{"buffer":0,"byteOffset":144420,"byteLength":2592,"target":34962},{"buffer":0,"byteOffset":868536,"byteLength":3888,"target":34962},{"buffer":0,"byteOffset":11374384,"byteLength":2592,"target":34962},{"buffer":0,"byteOffset":11376976,"byteLength":2592,"target":34962},{"buffer":0,"byteOffset":3961404,"byteLength":2592,"target":34962},{"buffer":0,"byteOffset":3899772,"byteLength":2592,"target":34962},{"buffer":0,"byteOffset":3902364,"byteLength":2592,"target":34962},{"buffer":0,"byteOffset":45664,"byteLength":288,"target":34962},{"buffer":0,"byteOffset":45952,"byteLength":288,"target":34962},{"buffer":0,"byteOffset":46240,"byteLength":192,"target":34962},{"buffer":0,"byteOffset":46432,"byteLength":72,"target":34963},{"buffer":0,"byteOffset":46504,"byteLength":48,"target":34962},{"buffer":0,"byteOffset":46552,"byteLength":48,"target":34962},{"buffer":0,"byteOffset":147012,"byteLength":32,"target":34962},{"buffer":0,"byteOffset":46632,"byteLength":12,"target":34963},{"buffer":0,"byteOffset":11385712,"byteLength":800,"target":34962},{"buffer":0,"byteOffset":11315968,"byteLength":3132,"target":34962},{"buffer":0,"byteOffset":6760260,"byteLength":3132,"target":34962},{"buffer":0,"byteOffset":11319100,"byteLength":2088,"target":34962},{"buffer":0,"byteOffset":395924,"byteLength":2688,"target":34963},{"buffer":0,"byteOffset":11379568,"byteLength":2592,"target":34962},{"buffer":0,"byteOffset":46644,"byteLength":288,"target":34962},{"buffer":0,"byteOffset":11382160,"byteLength":192,"target":34962},{"buffer":0,"byteOffset":11397968,"byteLength":192,"target":34962},{"buffer":0,"byteOffset":47316,"byteLength":480,"target":34962},{"buffer":0,"byteOffset":47796,"byteLength":480,"target":34962},{"buffer":0,"byteOffset":124516,"byteLength":320,"target":34962},{"buffer":0,"byteOffset":48596,"byteLength":144,"target":34963},{"buffer":0,"byteOffset":147236,"byteLength":192,"target":34962},{"buffer":0,"byteOffset":11382544,"byteLength":192,"target":34962},{"buffer":0,"byteOffset":11382736,"byteLength":192,"target":34962},{"buffer":0,"byteOffset":3964572,"byteLength":192,"target":34962},{"buffer":0,"byteOffset":3911100,"byteLength":192,"target":34962},{"buffer":0,"byteOffset":3911292,"byteLength":192,"target":34962},{"buffer":0,"byteOffset":11386704,"byteLength":320,"target":34962},{"buffer":0,"byteOffset":11324868,"byteLength":1428,"target":34962},{"buffer":0,"byteOffset":6778396,"byteLength":1428,"target":34962},{"buffer":0,"byteOffset":11326296,"byteLength":952,"target":34962},{"buffer":0,"byteOffset":430376,"byteLength":1152,"target":34963},{"buffer":0,"byteOffset":11382928,"byteLength":192,"target":34962}],"accessors":[{"bufferView":0,"componentType":5126,"count":324,"type":"VEC3","min":[-0.5,-0.5,-0.5],"max":[0.5,0.5,0.5]},{"bufferView":1,"componentType":5126,"count":324,"type":"VEC3"},{"bufferView":2,"componentType":5126,"count":324,"type":"VEC2"},{"bufferView":3,"componentType":5126,"count":324,"type":"VEC2"},{"bufferView":4,"componentType":5126,"count":100,"type":"VEC3","min":[-1,-0.5,-1],"max":[1,0.5,1]},{"bufferView":5,"componentType":5126,"count":100,"type":"VEC3"},{"bufferView":6,"componentType":5126,"count":100,"type":"VEC2"},{"bufferView":7,"componentType":5123,"count":192,"type":"SCALAR"},{"bufferView":8,"componentType":5126,"count":324,"type":"VEC2"},{"bufferView":9,"componentType":5126,"count":324,"type":"VEC3","min":[-0.5,-0.5,-0.5],"max":[0.5,0.5,0.5]},{"bufferView":10,"componentType":5126,"count":324,"type":"VEC2"},{"bufferView":11,"componentType":5126,"count":324,"type":"VEC2"},{"bufferView":12,"componentType":5126,"count":324,"type":"VEC2"},{"bufferView":13,"componentType":5126,"count":324,"type":"VEC2"},{"bufferView":14,"componentType":5126,"count":324,"type":"VEC2"},{"bufferView":15,"componentType":5126,"count":24,"type":"VEC3","min":[-0.5,-0.5,-0.02500000037252903],"max":[0.5,0.5,0.02500000037252903]},{"bufferView":16,"componentType":5126,"count":24,"type":"VEC3"},{"bufferView":17,"componentType":5126,"count":24,"type":"VEC2"},{"bufferView":18,"componentType":5123,"count":36,"type":"SCALAR"},{"bufferView":19,"componentType":5126,"count":4,"type":"VEC3","min":[-0.5,-0.5,0],"max":[0.5,0.5,0]},{"bufferView":20,"componentType":5126,"count":4,"type":"VEC3"},{"bufferView":21,"componentType":5126,"count":4,"type":"VEC2"},{"bufferView":22,"componentType":5123,"count":6,"type":"SCALAR"},{"bufferView":23,"componentType":5126,"count":100,"type":"VEC2"},{"bufferView":24,"componentType":5126,"count":261,"type":"VEC3","min":[-0.5600000023841858,0,-0.10000000149011612],"max":[0.5600000023841858,0.5600000023841858,0.10000000149011612]},{"bufferView":25,"componentType":5126,"count":261,"type":"VEC3"},{"bufferView":26,"componentType":5126,"count":261,"type":"VEC2"},{"bufferView":27,"componentType":5123,"count":1344,"type":"SCALAR"},{"bufferView":28,"componentType":5126,"count":324,"type":"VEC2"},{"bufferView":29,"componentType":5126,"count":24,"type":"VEC3","min":[-0.5,-0.5,-0.5],"max":[0.5,0.5,0.5]},{"bufferView":30,"componentType":5126,"count":24,"type":"VEC2"},{"bufferView":31,"componentType":5126,"count":24,"type":"VEC2"},{"bufferView":32,"componentType":5126,"count":40,"type":"VEC3","min":[-0.8660253882408142,-0.5,-1],"max":[0.8660253882408142,0.5,1]},{"bufferView":33,"componentType":5126,"count":40,"type":"VEC3"},{"bufferView":34,"componentType":5126,"count":40,"type":"VEC2"},{"bufferView":35,"componentType":5123,"count":72,"type":"SCALAR"},{"bufferView":36,"componentType":5126,"count":24,"type":"VEC2"},{"bufferView":37,"componentType":5126,"count":24,"type":"VEC2"},{"bufferView":38,"componentType":5126,"count":24,"type":"VEC2"},{"bufferView":39,"componentType":5126,"count":24,"type":"VEC2"},{"bufferView":40,"componentType":5126,"count":24,"type":"VEC2"},{"bufferView":41,"componentType":5126,"count":24,"type":"VEC2"},{"bufferView":42,"componentType":5126,"count":40,"type":"VEC2"},{"bufferView":43,"componentType":5126,"count":119,"type":"VEC3","min":[-0.5600000023841858,0,-0.08660253882408142],"max":[0.5600000023841858,0.5600000023841858,0.08660253882408142]},{"bufferView":44,"componentType":5126,"count":119,"type":"VEC3"},{"bufferView":45,"componentType":5126,"count":119,"type":"VEC2"},{"bufferView":46,"componentType":5123,"count":576,"type":"SCALAR"},{"bufferView":47,"componentType":5126,"count":24,"type":"VEC2"}],"extensionsUsed":["KHR_materials_unlit"],"extras":{"id":"vlt-pump-station-10","family":"pump-station","variant":9,"plan":"B5-1","units":"metres","up":"+Y","front":"+Z","lodScenes":[0,1,2]}}