{"asset":{"version":"2.0","generator":"SLOPMERICA Department of Unnecessary Development 1.0"},"scene":0,"scenes":[{"name":"LOD 0","nodes":[0,1,2,3,4,5,6,7,8,9,10,11,12,13,14,15,16,17,18,19,20,21,22,23,24,25,26],"extras":{"level":0}},{"name":"LOD 1","nodes":[27,28,29,30,31,32,33,34,35,36,37,38,39,40,41,42,43,44,45,46,47,48],"extras":{"level":1}},{"name":"LOD 2","nodes":[49,50,51,52,53,54,55,56,57,58,59,60,61,62,63],"extras":{"level":2}}],"nodes":[{"name":"foundation","mesh":0,"translation":[0,0.08,0],"scale":[18.92,0.16,15.33]},{"name":"store-shell","mesh":1,"translation":[0,2.0304,0],"scale":[16.72,4.0608,8.9284]},{"name":"roof-cap","mesh":2,"translation":[0,4.1708,0],"scale":[16.97,0.22,9.1784]},{"name":"window-0","mesh":3,"translation":[-6.1864,1.65,4.5192],"scale":[3.595699,1.45,0.09]},{"name":"window-1","mesh":3,"translation":[0,1.65,4.5192],"scale":[3.595699,1.45,0.09]},{"name":"window-2","mesh":3,"translation":[6.1864,1.65,4.5192],"scale":[3.595699,1.45,0.09]},{"name":"door","mesh":4,"translation":[-5.852,1.025,4.5342],"scale":[0.92,2.05,0.12]},{"name":"awning","mesh":5,"translation":[0,2.680128,4.9442],"rotation":[-0.039989,0,0,0.9992],"scale":[13.7104,0.18,1.05]},{"name":"mullion-0","mesh":6,"translation":[-5.3504,1.65,4.5842],"scale":[0.08,1.55,0.12]},{"name":"mullion-1","mesh":6,"translation":[5.3504,1.65,4.5842],"scale":[0.08,1.55,0.12]},{"name":"primary-sign-back","mesh":7,"translation":[0,3.208032,4.6242],"scale":[7.6,1.25,1]},{"name":"primary-sign","mesh":8,"translation":[0,3.208032,4.6532],"scale":[7.5,1.15,1]},{"name":"giant-seat","mesh":9,"translation":[0,5.89,0],"scale":[7.6912,0.75,4.4642]},{"name":"giant-back","mesh":10,"translation":[0,6.64,-1.7069],"rotation":[-0.049979,0,0,0.99875],"scale":[7.6912,1.45,0.5]},{"name":"giant-arm-a","mesh":11,"translation":[-4.18,6.09,0],"scale":[0.62,1.05,4.7268]},{"name":"giant-arm-b","mesh":11,"translation":[4.18,6.09,0],"scale":[0.62,1.05,4.7268]},{"name":"payment-tag-0","mesh":12,"translation":[-5.3504,1.974,4.7268],"rotation":[0,0,-0.079915,0.996802],"scale":[0.65,0.85,0.06]},{"name":"payment-tag-1","mesh":13,"translation":[-2.6752,1.974,4.7268],"rotation":[0,0,-0.039989,0.9992],"scale":[0.65,0.85,0.06]},{"name":"payment-tag-2","mesh":12,"translation":[0,1.974,4.7268],"scale":[0.65,0.85,0.06]},{"name":"payment-tag-3","mesh":13,"translation":[2.6752,1.974,4.7268],"rotation":[0,0,0.039989,0.9992],"scale":[0.65,0.85,0.06]},{"name":"payment-tag-4","mesh":12,"translation":[5.3504,1.974,4.7268],"rotation":[0,0,0.079915,0.996802],"scale":[0.65,0.85,0.06]},{"name":"busy-state-queue-bar","mesh":14,"translation":[0,0.65,8.2719],"scale":[12.0384,0.12,0.12]},{"name":"queue-car-0","mesh":15,"translation":[-5.016,0.34,9.191],"scale":[1.35,0.65,0.7]},{"name":"queue-car-1","mesh":16,"translation":[-2.508,0.34,10.2414],"scale":[1.35,0.65,0.7]},{"name":"queue-car-2","mesh":15,"translation":[0,0.34,9.191],"scale":[1.35,0.65,0.7]},{"name":"queue-car-3","mesh":16,"translation":[2.508,0.34,10.2414],"scale":[1.35,0.65,0.7]},{"name":"queue-car-4","mesh":15,"translation":[5.016,0.34,9.191],"scale":[1.35,0.65,0.7]},{"name":"foundation","mesh":17,"translation":[0,0.08,0],"scale":[18.92,0.16,15.33]},{"name":"store-shell","mesh":18,"translation":[0,2.0304,0],"scale":[16.72,4.0608,8.9284]},{"name":"roof-cap","mesh":19,"translation":[0,4.1708,0],"scale":[16.97,0.22,9.1784]},{"name":"window-0","mesh":20,"translation":[-6.1864,1.65,4.5192],"scale":[3.595699,1.45,0.09]},{"name":"window-1","mesh":20,"translation":[0,1.65,4.5192],"scale":[3.595699,1.45,0.09]},{"name":"window-2","mesh":20,"translation":[6.1864,1.65,4.5192],"scale":[3.595699,1.45,0.09]},{"name":"door","mesh":21,"translation":[-5.852,1.025,4.5342],"scale":[0.92,2.05,0.12]},{"name":"awning","mesh":22,"translation":[0,2.680128,4.9442],"rotation":[-0.039989,0,0,0.9992],"scale":[13.7104,0.18,1.05]},{"name":"mullion-0","mesh":23,"translation":[-5.3504,1.65,4.5842],"scale":[0.08,1.55,0.12]},{"name":"mullion-1","mesh":23,"translation":[5.3504,1.65,4.5842],"scale":[0.08,1.55,0.12]},{"name":"primary-sign-back","mesh":7,"translation":[0,3.208032,4.6242],"scale":[7.6,1.25,1]},{"name":"primary-sign","mesh":8,"translation":[0,3.208032,4.6532],"scale":[7.5,1.15,1]},{"name":"giant-seat","mesh":24,"translation":[0,5.89,0],"scale":[7.6912,0.75,4.4642]},{"name":"giant-back","mesh":25,"translation":[0,6.64,-1.7069],"rotation":[-0.049979,0,0,0.99875],"scale":[7.6912,1.45,0.5]},{"name":"giant-arm-a","mesh":26,"translation":[-4.18,6.09,0],"scale":[0.62,1.05,4.7268]},{"name":"giant-arm-b","mesh":26,"translation":[4.18,6.09,0],"scale":[0.62,1.05,4.7268]},{"name":"payment-tag-0","mesh":27,"translation":[-5.3504,1.974,4.7268],"rotation":[0,0,-0.079915,0.996802],"scale":[0.65,0.85,0.06]},{"name":"payment-tag-1","mesh":28,"translation":[5.3504,1.974,4.7268],"rotation":[0,0,-0.039989,0.9992],"scale":[0.65,0.85,0.06]},{"name":"busy-state-queue-bar","mesh":29,"translation":[0,0.65,8.2719],"scale":[12.0384,0.12,0.12]},{"name":"queue-car-0","mesh":30,"translation":[-5.016,0.34,9.191],"scale":[1.35,0.65,0.7]},{"name":"queue-car-1","mesh":31,"translation":[-2.508,0.34,10.2414],"scale":[1.35,0.65,0.7]},{"name":"queue-car-2","mesh":30,"translation":[0,0.34,9.191],"scale":[1.35,0.65,0.7]},{"name":"foundation","mesh":17,"translation":[0,0.08,0],"scale":[18.92,0.16,15.33]},{"name":"store-shell","mesh":18,"translation":[0,2.0304,0],"scale":[16.72,4.0608,8.9284]},{"name":"roof-cap","mesh":19,"translation":[0,4.1708,0],"scale":[16.97,0.22,9.1784]},{"name":"window-0","mesh":32,"translation":[0,1.65,4.5192],"scale":[10.787097,1.45,0.09]},{"name":"door","mesh":21,"translation":[-5.852,1.025,4.5342],"scale":[0.92,2.05,0.12]},{"name":"primary-sign-back","mesh":7,"translation":[0,3.208032,4.6242],"scale":[7.6,1.25,1]},{"name":"primary-sign","mesh":8,"translation":[0,3.208032,4.6532],"scale":[7.5,1.15,1]},{"name":"giant-seat","mesh":24,"translation":[0,5.89,0],"scale":[7.6912,0.75,4.4642]},{"name":"giant-back","mesh":25,"translation":[0,6.64,-1.7069],"rotation":[-0.049979,0,0,0.99875],"scale":[7.6912,1.45,0.5]},{"name":"giant-arm-a","mesh":26,"translation":[-4.18,6.09,0],"scale":[0.62,1.05,4.7268]},{"name":"giant-arm-b","mesh":26,"translation":[4.18,6.09,0],"scale":[0.62,1.05,4.7268]},{"name":"payment-tag-0","mesh":27,"translation":[-5.3504,1.974,4.7268],"rotation":[0,0,-0.079915,0.996802],"scale":[0.65,0.85,0.06]},{"name":"payment-tag-1","mesh":28,"translation":[5.3504,1.974,4.7268],"rotation":[0,0,-0.039989,0.9992],"scale":[0.65,0.85,0.06]},{"name":"busy-state-queue-bar","mesh":29,"translation":[0,0.65,8.2719],"scale":[12.0384,0.12,0.12]},{"name":"queue-car-0","mesh":30,"translation":[-5.016,0.34,9.191],"scale":[1.35,0.65,0.7]}],"meshes":[{"primitives":[{"attributes":{"POSITION":0,"NORMAL":1,"TEXCOORD_0":2},"material":0,"mode":4}]},{"primitives":[{"attributes":{"POSITION":3,"NORMAL":1,"TEXCOORD_0":4},"material":1,"mode":4}]},{"primitives":[{"attributes":{"POSITION":0,"NORMAL":1,"TEXCOORD_0":5},"material":2,"mode":4}]},{"primitives":[{"attributes":{"POSITION":0,"NORMAL":1,"TEXCOORD_0":6},"material":3,"mode":4}]},{"primitives":[{"attributes":{"POSITION":0,"NORMAL":1,"TEXCOORD_0":7},"material":2,"mode":4}]},{"primitives":[{"attributes":{"POSITION":0,"NORMAL":1,"TEXCOORD_0":8},"material":4,"mode":4}]},{"primitives":[{"attributes":{"POSITION":0,"NORMAL":1,"TEXCOORD_0":9},"material":4,"mode":4}]},{"primitives":[{"attributes":{"POSITION":10,"NORMAL":11,"TEXCOORD_0":12},"material":2,"mode":4,"indices":13}]},{"primitives":[{"attributes":{"POSITION":14,"NORMAL":15,"TEXCOORD_0":16},"material":5,"mode":4,"indices":17}]},{"primitives":[{"attributes":{"POSITION":0,"NORMAL":1,"TEXCOORD_0":18},"material":6,"mode":4}]},{"primitives":[{"attributes":{"POSITION":0,"NORMAL":1,"TEXCOORD_0":19},"material":6,"mode":4}]},{"primitives":[{"attributes":{"POSITION":0,"NORMAL":1,"TEXCOORD_0":20},"material":6,"mode":4}]},{"primitives":[{"attributes":{"POSITION":0,"NORMAL":1,"TEXCOORD_0":21},"material":7,"mode":4}]},{"primitives":[{"attributes":{"POSITION":0,"NORMAL":1,"TEXCOORD_0":21},"material":8,"mode":4}]},{"primitives":[{"attributes":{"POSITION":0,"NORMAL":1,"TEXCOORD_0":22},"material":4,"mode":4}]},{"primitives":[{"attributes":{"POSITION":0,"NORMAL":1,"TEXCOORD_0":23},"material":4,"mode":4}]},{"primitives":[{"attributes":{"POSITION":0,"NORMAL":1,"TEXCOORD_0":23},"material":9,"mode":4}]},{"primitives":[{"attributes":{"POSITION":24,"NORMAL":11,"TEXCOORD_0":25},"material":0,"mode":4,"indices":13}]},{"primitives":[{"attributes":{"POSITION":24,"NORMAL":11,"TEXCOORD_0":26},"material":1,"mode":4,"indices":13}]},{"primitives":[{"attributes":{"POSITION":24,"NORMAL":11,"TEXCOORD_0":27},"material":2,"mode":4,"indices":13}]},{"primitives":[{"attributes":{"POSITION":24,"NORMAL":11,"TEXCOORD_0":28},"material":3,"mode":4,"indices":13}]},{"primitives":[{"attributes":{"POSITION":24,"NORMAL":11,"TEXCOORD_0":29},"material":2,"mode":4,"indices":13}]},{"primitives":[{"attributes":{"POSITION":24,"NORMAL":11,"TEXCOORD_0":30},"material":4,"mode":4,"indices":13}]},{"primitives":[{"attributes":{"POSITION":24,"NORMAL":11,"TEXCOORD_0":31},"material":4,"mode":4,"indices":13}]},{"primitives":[{"attributes":{"POSITION":24,"NORMAL":11,"TEXCOORD_0":32},"material":6,"mode":4,"indices":13}]},{"primitives":[{"attributes":{"POSITION":24,"NORMAL":11,"TEXCOORD_0":33},"material":6,"mode":4,"indices":13}]},{"primitives":[{"attributes":{"POSITION":24,"NORMAL":11,"TEXCOORD_0":34},"material":6,"mode":4,"indices":13}]},{"primitives":[{"attributes":{"POSITION":24,"NORMAL":11,"TEXCOORD_0":35},"material":7,"mode":4,"indices":13}]},{"primitives":[{"attributes":{"POSITION":24,"NORMAL":11,"TEXCOORD_0":35},"material":8,"mode":4,"indices":13}]},{"primitives":[{"attributes":{"POSITION":24,"NORMAL":11,"TEXCOORD_0":36},"material":4,"mode":4,"indices":13}]},{"primitives":[{"attributes":{"POSITION":24,"NORMAL":11,"TEXCOORD_0":37},"material":4,"mode":4,"indices":13}]},{"primitives":[{"attributes":{"POSITION":24,"NORMAL":11,"TEXCOORD_0":37},"material":9,"mode":4,"indices":13}]},{"primitives":[{"attributes":{"POSITION":24,"NORMAL":11,"TEXCOORD_0":38},"material":3,"mode":4,"indices":13}]}],"materials":[{"name":"concrete","pbrMetallicRoughness":{"baseColorTexture":{"index":0},"metallicRoughnessTexture":{"index":2},"roughnessFactor":1,"metallicFactor":1},"normalTexture":{"index":1,"scale":0.82},"occlusionTexture":{"index":2,"strength":0.35}},{"name":"brick-cream","pbrMetallicRoughness":{"baseColorTexture":{"index":3},"metallicRoughnessTexture":{"index":5},"roughnessFactor":1,"metallicFactor":1},"normalTexture":{"index":4,"scale":1.05},"occlusionTexture":{"index":5,"strength":0.35}},{"name":"metal-dark","pbrMetallicRoughness":{"baseColorTexture":{"index":6},"metallicRoughnessTexture":{"index":8},"roughnessFactor":1,"metallicFactor":1},"normalTexture":{"index":7,"scale":0.35},"occlusionTexture":{"index":8,"strength":0.35}},{"name":"glass-blue","pbrMetallicRoughness":{"baseColorTexture":{"index":9},"metallicRoughnessTexture":{"index":11},"roughnessFactor":1,"metallicFactor":1},"normalTexture":{"index":10,"scale":0.12},"occlusionTexture":{"index":11,"strength":0.35}},{"name":"paint-red","pbrMetallicRoughness":{"baseColorFactor":[0.46778379610254284,0.08021982030622662,0.05126945836711539,1],"roughnessFactor":0.62,"metallicFactor":0.05}},{"name":"buy-now-cry-later signage","pbrMetallicRoughness":{"baseColorTexture":{"index":12},"roughnessFactor":1,"metallicFactor":0},"extensions":{"KHR_materials_unlit":{}}},{"name":"brick-red","pbrMetallicRoughness":{"baseColorTexture":{"index":13},"metallicRoughnessTexture":{"index":15},"roughnessFactor":1,"metallicFactor":1},"normalTexture":{"index":14,"scale":1.15},"occlusionTexture":{"index":15,"strength":0.35}},{"name":"paint-white","pbrMetallicRoughness":{"baseColorFactor":[0.7912979403281551,0.7681511472425809,0.6795424696265424,1],"roughnessFactor":0.68,"metallicFactor":0}},{"name":"paint-yellow","pbrMetallicRoughness":{"baseColorFactor":[0.76052450467022,0.4793201830913402,0.07818742179702069,1],"roughnessFactor":0.66,"metallicFactor":0.03}},{"name":"paint-blue","pbrMetallicRoughness":{"baseColorFactor":[0.05126945836711539,0.10946171076915331,0.22696587349938613,1],"roughnessFactor":0.58,"metallicFactor":0.05}}],"textures":[{"source":0,"sampler":0},{"source":1,"sampler":0},{"source":2,"sampler":0},{"source":3,"sampler":0},{"source":4,"sampler":0},{"source":5,"sampler":0},{"source":6,"sampler":0},{"source":7,"sampler":0},{"source":8,"sampler":0},{"source":9,"sampler":0},{"source":10,"sampler":0},{"source":11,"sampler":0},{"source":12,"sampler":0},{"source":13,"sampler":0},{"source":14,"sampler":0},{"source":15,"sampler":0}],"images":[{"uri":"../textures/concrete-albedo.png"},{"uri":"../textures/concrete-normal.png"},{"uri":"../textures/concrete-orm.png"},{"uri":"../textures/brick-cream-albedo.png"},{"uri":"../textures/brick-cream-normal.png"},{"uri":"../textures/brick-cream-orm.png"},{"uri":"../textures/metal-dark-albedo.png"},{"uri":"../textures/metal-dark-normal.png"},{"uri":"../textures/metal-dark-orm.png"},{"uri":"../textures/glass-blue-albedo.png"},{"uri":"../textures/glass-blue-normal.png"},{"uri":"../textures/glass-blue-orm.png"},{"uri":"../signs/buy-now-cry-later.png"},{"uri":"../textures/brick-red-albedo.png"},{"uri":"../textures/brick-red-normal.png"},{"uri":"../textures/brick-red-orm.png"}],"samplers":[{"magFilter":9729,"minFilter":9987,"wrapS":10497,"wrapT":10497}],"buffers":[{"uri":"../shared/geometry.bin","byteLength":16435520}],"bufferViews":[{"buffer":0,"byteOffset":0,"byteLength":3888,"target":34962},{"buffer":0,"byteOffset":3888,"byteLength":3888,"target":34962},{"buffer":0,"byteOffset":1585848,"byteLength":2592,"target":34962},{"buffer":0,"byteOffset":868536,"byteLength":3888,"target":34962},{"buffer":0,"byteOffset":1588440,"byteLength":2592,"target":34962},{"buffer":0,"byteOffset":1591032,"byteLength":2592,"target":34962},{"buffer":0,"byteOffset":1425624,"byteLength":2592,"target":34962},{"buffer":0,"byteOffset":1428216,"byteLength":2592,"target":34962},{"buffer":0,"byteOffset":1430808,"byteLength":2592,"target":34962},{"buffer":0,"byteOffset":1433400,"byteLength":2592,"target":34962},{"buffer":0,"byteOffset":45664,"byteLength":288,"target":34962},{"buffer":0,"byteOffset":45952,"byteLength":288,"target":34962},{"buffer":0,"byteOffset":46240,"byteLength":192,"target":34962},{"buffer":0,"byteOffset":46432,"byteLength":72,"target":34963},{"buffer":0,"byteOffset":46504,"byteLength":48,"target":34962},{"buffer":0,"byteOffset":46552,"byteLength":48,"target":34962},{"buffer":0,"byteOffset":222692,"byteLength":32,"target":34962},{"buffer":0,"byteOffset":46632,"byteLength":12,"target":34963},{"buffer":0,"byteOffset":1593624,"byteLength":2592,"target":34962},{"buffer":0,"byteOffset":1438584,"byteLength":2592,"target":34962},{"buffer":0,"byteOffset":1596216,"byteLength":2592,"target":34962},{"buffer":0,"byteOffset":1443768,"byteLength":2592,"target":34962},{"buffer":0,"byteOffset":1702776,"byteLength":2592,"target":34962},{"buffer":0,"byteOffset":582912,"byteLength":2592,"target":34962},{"buffer":0,"byteOffset":46644,"byteLength":288,"target":34962},{"buffer":0,"byteOffset":1598808,"byteLength":192,"target":34962},{"buffer":0,"byteOffset":1599000,"byteLength":192,"target":34962},{"buffer":0,"byteOffset":1599192,"byteLength":192,"target":34962},{"buffer":0,"byteOffset":1446936,"byteLength":192,"target":34962},{"buffer":0,"byteOffset":1447128,"byteLength":192,"target":34962},{"buffer":0,"byteOffset":1447320,"byteLength":192,"target":34962},{"buffer":0,"byteOffset":1447512,"byteLength":192,"target":34962},{"buffer":0,"byteOffset":1599384,"byteLength":192,"target":34962},{"buffer":0,"byteOffset":1447896,"byteLength":192,"target":34962},{"buffer":0,"byteOffset":1599576,"byteLength":192,"target":34962},{"buffer":0,"byteOffset":1448280,"byteLength":192,"target":34962},{"buffer":0,"byteOffset":1705368,"byteLength":192,"target":34962},{"buffer":0,"byteOffset":585696,"byteLength":192,"target":34962},{"buffer":0,"byteOffset":1448472,"byteLength":192,"target":34962}],"accessors":[{"bufferView":0,"componentType":5126,"count":324,"type":"VEC3","min":[-0.5,-0.5,-0.5],"max":[0.5,0.5,0.5]},{"bufferView":1,"componentType":5126,"count":324,"type":"VEC3"},{"bufferView":2,"componentType":5126,"count":324,"type":"VEC2"},{"bufferView":3,"componentType":5126,"count":324,"type":"VEC3","min":[-0.5,-0.5,-0.5],"max":[0.5,0.5,0.5]},{"bufferView":4,"componentType":5126,"count":324,"type":"VEC2"},{"bufferView":5,"componentType":5126,"count":324,"type":"VEC2"},{"bufferView":6,"componentType":5126,"count":324,"type":"VEC2"},{"bufferView":7,"componentType":5126,"count":324,"type":"VEC2"},{"bufferView":8,"componentType":5126,"count":324,"type":"VEC2"},{"bufferView":9,"componentType":5126,"count":324,"type":"VEC2"},{"bufferView":10,"componentType":5126,"count":24,"type":"VEC3","min":[-0.5,-0.5,-0.02500000037252903],"max":[0.5,0.5,0.02500000037252903]},{"bufferView":11,"componentType":5126,"count":24,"type":"VEC3"},{"bufferView":12,"componentType":5126,"count":24,"type":"VEC2"},{"bufferView":13,"componentType":5123,"count":36,"type":"SCALAR"},{"bufferView":14,"componentType":5126,"count":4,"type":"VEC3","min":[-0.5,-0.5,0],"max":[0.5,0.5,0]},{"bufferView":15,"componentType":5126,"count":4,"type":"VEC3"},{"bufferView":16,"componentType":5126,"count":4,"type":"VEC2"},{"bufferView":17,"componentType":5123,"count":6,"type":"SCALAR"},{"bufferView":18,"componentType":5126,"count":324,"type":"VEC2"},{"bufferView":19,"componentType":5126,"count":324,"type":"VEC2"},{"bufferView":20,"componentType":5126,"count":324,"type":"VEC2"},{"bufferView":21,"componentType":5126,"count":324,"type":"VEC2"},{"bufferView":22,"componentType":5126,"count":324,"type":"VEC2"},{"bufferView":23,"componentType":5126,"count":324,"type":"VEC2"},{"bufferView":24,"componentType":5126,"count":24,"type":"VEC3","min":[-0.5,-0.5,-0.5],"max":[0.5,0.5,0.5]},{"bufferView":25,"componentType":5126,"count":24,"type":"VEC2"},{"bufferView":26,"componentType":5126,"count":24,"type":"VEC2"},{"bufferView":27,"componentType":5126,"count":24,"type":"VEC2"},{"bufferView":28,"componentType":5126,"count":24,"type":"VEC2"},{"bufferView":29,"componentType":5126,"count":24,"type":"VEC2"},{"bufferView":30,"componentType":5126,"count":24,"type":"VEC2"},{"bufferView":31,"componentType":5126,"count":24,"type":"VEC2"},{"bufferView":32,"componentType":5126,"count":24,"type":"VEC2"},{"bufferView":33,"componentType":5126,"count":24,"type":"VEC2"},{"bufferView":34,"componentType":5126,"count":24,"type":"VEC2"},{"bufferView":35,"componentType":5126,"count":24,"type":"VEC2"},{"bufferView":36,"componentType":5126,"count":24,"type":"VEC2"},{"bufferView":37,"componentType":5126,"count":24,"type":"VEC2"},{"bufferView":38,"componentType":5126,"count":24,"type":"VEC2"}],"extensionsUsed":["KHR_materials_unlit"],"extras":{"id":"vlt-buy-now-cry-later-31","family":"buy-now-cry-later","variant":30,"plan":"C1-2","units":"metres","up":"+Y","front":"+Z","lodScenes":[0,1,2]}}