{"asset":{"version":"2.0","generator":"SLOPMERICA Department of Unnecessary Development 1.0"},"scene":0,"scenes":[{"name":"LOD 0","nodes":[0,1,2,3,4,5,6,7],"extras":{"level":0}},{"name":"LOD 1","nodes":[8,9,10,11,12,13,14,15],"extras":{"level":1}},{"name":"LOD 2","nodes":[16,17,18,19,20,21,22,23],"extras":{"level":2}}],"nodes":[{"name":"foundation","mesh":0,"translation":[0,0.08,0],"scale":[12.6,0.16,10.885]},{"name":"cup-shop","mesh":1,"translation":[0,2.475,0],"scale":[3.536,4.95,3.536]},{"name":"coffee-rim","mesh":2,"translation":[0,4.95,0],"scale":[3.744,0.3,3.744]},{"name":"cup-handle","mesh":3,"translation":[3.536,2.7225,0],"rotation":[0,0.707107,0,0.707107]},{"name":"steam","mesh":4,"translation":[0,0,0]},{"name":"cup-sign-back","mesh":5,"translation":[0,2.8215,3.016],"scale":[3.7,1.15,1]},{"name":"cup-sign","mesh":6,"translation":[0,2.8215,3.045],"scale":[3.6,1.05,1]},{"name":"open-state-bollard","mesh":7,"translation":[4.472,0.425,4.8636],"scale":[0.22,0.85,0.22]},{"name":"foundation","mesh":8,"translation":[0,0.08,0],"scale":[12.6,0.16,10.885]},{"name":"cup-shop","mesh":9,"translation":[0,2.475,0],"scale":[3.536,4.95,3.536]},{"name":"coffee-rim","mesh":10,"translation":[0,4.95,0],"scale":[3.744,0.3,3.744]},{"name":"cup-handle","mesh":11,"translation":[3.536,2.7225,0],"rotation":[0,0.707107,0,0.707107]},{"name":"steam","mesh":12,"translation":[0,0,0]},{"name":"cup-sign-back","mesh":5,"translation":[0,2.8215,3.016],"scale":[3.7,1.15,1]},{"name":"cup-sign","mesh":6,"translation":[0,2.8215,3.045],"scale":[3.6,1.05,1]},{"name":"open-state-bollard","mesh":13,"translation":[4.472,0.425,4.8636],"scale":[0.22,0.85,0.22]},{"name":"foundation","mesh":8,"translation":[0,0.08,0],"scale":[12.6,0.16,10.885]},{"name":"cup-shop","mesh":14,"translation":[0,2.475,0],"scale":[3.536,4.95,3.536]},{"name":"coffee-rim","mesh":15,"translation":[0,4.95,0],"scale":[3.744,0.3,3.744]},{"name":"cup-handle","mesh":16,"translation":[3.536,2.7225,0],"rotation":[0,0.707107,0,0.707107]},{"name":"steam","mesh":17,"translation":[0,0,0]},{"name":"cup-sign-back","mesh":5,"translation":[0,2.8215,3.016],"scale":[3.7,1.15,1]},{"name":"cup-sign","mesh":6,"translation":[0,2.8215,3.045],"scale":[3.6,1.05,1]},{"name":"open-state-bollard","mesh":13,"translation":[4.472,0.425,4.8636],"scale":[0.22,0.85,0.22]}],"meshes":[{"primitives":[{"attributes":{"POSITION":0,"NORMAL":1,"TEXCOORD_0":2},"material":0,"mode":4}]},{"primitives":[{"attributes":{"POSITION":3,"NORMAL":4,"TEXCOORD_0":5},"material":1,"mode":4,"indices":6}]},{"primitives":[{"attributes":{"POSITION":7,"NORMAL":8,"TEXCOORD_0":9},"material":2,"mode":4,"indices":6}]},{"primitives":[{"attributes":{"POSITION":10,"NORMAL":11,"TEXCOORD_0":12},"material":2,"mode":4,"indices":13}]},{"primitives":[{"attributes":{"POSITION":14,"NORMAL":15,"TEXCOORD_0":16},"material":3,"mode":4,"indices":17}]},{"primitives":[{"attributes":{"POSITION":18,"NORMAL":19,"TEXCOORD_0":20},"material":4,"mode":4,"indices":21}]},{"primitives":[{"attributes":{"POSITION":22,"NORMAL":23,"TEXCOORD_0":24},"material":5,"mode":4,"indices":25}]},{"primitives":[{"attributes":{"POSITION":0,"NORMAL":1,"TEXCOORD_0":26},"material":2,"mode":4}]},{"primitives":[{"attributes":{"POSITION":27,"NORMAL":19,"TEXCOORD_0":28},"material":0,"mode":4,"indices":21}]},{"primitives":[{"attributes":{"POSITION":29,"NORMAL":30,"TEXCOORD_0":31},"material":1,"mode":4,"indices":32}]},{"primitives":[{"attributes":{"POSITION":33,"NORMAL":34,"TEXCOORD_0":35},"material":2,"mode":4,"indices":32}]},{"primitives":[{"attributes":{"POSITION":36,"NORMAL":37,"TEXCOORD_0":38},"material":2,"mode":4,"indices":39}]},{"primitives":[{"attributes":{"POSITION":40,"NORMAL":41,"TEXCOORD_0":42},"material":3,"mode":4,"indices":43}]},{"primitives":[{"attributes":{"POSITION":27,"NORMAL":19,"TEXCOORD_0":44},"material":2,"mode":4,"indices":21}]},{"primitives":[{"attributes":{"POSITION":45,"NORMAL":46,"TEXCOORD_0":47},"material":1,"mode":4,"indices":48}]},{"primitives":[{"attributes":{"POSITION":49,"NORMAL":50,"TEXCOORD_0":51},"material":2,"mode":4,"indices":48}]},{"primitives":[{"attributes":{"POSITION":52,"NORMAL":53,"TEXCOORD_0":54},"material":2,"mode":4,"indices":55}]},{"primitives":[{"attributes":{"POSITION":56,"NORMAL":57,"TEXCOORD_0":58},"material":3,"mode":4,"indices":59}]}],"materials":[{"name":"concrete","pbrMetallicRoughness":{"baseColorTexture":{"index":0},"metallicRoughnessTexture":{"index":2},"roughnessFactor":1,"metallicFactor":1},"normalTexture":{"index":1,"scale":0.82},"occlusionTexture":{"index":2,"strength":0.35}},{"name":"brick-cream","pbrMetallicRoughness":{"baseColorTexture":{"index":3},"metallicRoughnessTexture":{"index":5},"roughnessFactor":1,"metallicFactor":1},"normalTexture":{"index":4,"scale":1.05},"occlusionTexture":{"index":5,"strength":0.35}},{"name":"paint-teal","pbrMetallicRoughness":{"baseColorFactor":[0.040915196900556984,0.20507873637973145,0.1878207722902346,1],"roughnessFactor":0.59,"metallicFactor":0.05}},{"name":"paint-white","pbrMetallicRoughness":{"baseColorFactor":[0.7912979403281551,0.7681511472425809,0.6795424696265424,1],"roughnessFactor":0.68,"metallicFactor":0}},{"name":"metal-dark","pbrMetallicRoughness":{"baseColorTexture":{"index":6},"metallicRoughnessTexture":{"index":8},"roughnessFactor":1,"metallicFactor":1},"normalTexture":{"index":7,"scale":0.35},"occlusionTexture":{"index":8,"strength":0.35}},{"name":"coffee-covenant signage","pbrMetallicRoughness":{"baseColorTexture":{"index":9},"roughnessFactor":1,"metallicFactor":0},"extensions":{"KHR_materials_unlit":{}}}],"textures":[{"source":0,"sampler":0},{"source":1,"sampler":0},{"source":2,"sampler":0},{"source":3,"sampler":0},{"source":4,"sampler":0},{"source":5,"sampler":0},{"source":6,"sampler":0},{"source":7,"sampler":0},{"source":8,"sampler":0},{"source":9,"sampler":0}],"images":[{"uri":"../textures/concrete-albedo.png"},{"uri":"../textures/concrete-normal.png"},{"uri":"../textures/concrete-orm.png"},{"uri":"../textures/brick-cream-albedo.png"},{"uri":"../textures/brick-cream-normal.png"},{"uri":"../textures/brick-cream-orm.png"},{"uri":"../textures/metal-dark-albedo.png"},{"uri":"../textures/metal-dark-normal.png"},{"uri":"../textures/metal-dark-orm.png"},{"uri":"../signs/coffee-covenant.png"}],"samplers":[{"magFilter":9729,"minFilter":9987,"wrapS":10497,"wrapT":10497}],"buffers":[{"uri":"../shared/geometry.bin","byteLength":16435520}],"bufferViews":[{"buffer":0,"byteOffset":0,"byteLength":3888,"target":34962},{"buffer":0,"byteOffset":3888,"byteLength":3888,"target":34962},{"buffer":0,"byteOffset":2160748,"byteLength":2592,"target":34962},{"buffer":0,"byteOffset":2069100,"byteLength":1344,"target":34962},{"buffer":0,"byteOffset":2070444,"byteLength":1344,"target":34962},{"buffer":0,"byteOffset":2116804,"byteLength":896,"target":34962},{"buffer":0,"byteOffset":2072684,"byteLength":432,"target":34963},{"buffer":0,"byteOffset":2073116,"byteLength":1344,"target":34962},{"buffer":0,"byteOffset":2074460,"byteLength":1344,"target":34962},{"buffer":0,"byteOffset":2117700,"byteLength":896,"target":34962},{"buffer":0,"byteOffset":2118596,"byteLength":3132,"target":34962},{"buffer":0,"byteOffset":2079832,"byteLength":3132,"target":34962},{"buffer":0,"byteOffset":393836,"byteLength":2088,"target":34962},{"buffer":0,"byteOffset":395924,"byteLength":2688,"target":34963},{"buffer":0,"byteOffset":2121728,"byteLength":1404,"target":34962},{"buffer":0,"byteOffset":2084368,"byteLength":1404,"target":34962},{"buffer":0,"byteOffset":2085772,"byteLength":936,"target":34962},{"buffer":0,"byteOffset":2086708,"byteLength":1152,"target":34963},{"buffer":0,"byteOffset":45664,"byteLength":288,"target":34962},{"buffer":0,"byteOffset":45952,"byteLength":288,"target":34962},{"buffer":0,"byteOffset":46240,"byteLength":192,"target":34962},{"buffer":0,"byteOffset":46432,"byteLength":72,"target":34963},{"buffer":0,"byteOffset":46504,"byteLength":48,"target":34962},{"buffer":0,"byteOffset":46552,"byteLength":48,"target":34962},{"buffer":0,"byteOffset":135812,"byteLength":32,"target":34962},{"buffer":0,"byteOffset":46632,"byteLength":12,"target":34963},{"buffer":0,"byteOffset":422312,"byteLength":2592,"target":34962},{"buffer":0,"byteOffset":46644,"byteLength":288,"target":34962},{"buffer":0,"byteOffset":2163340,"byteLength":192,"target":34962},{"buffer":0,"byteOffset":2088052,"byteLength":696,"target":34962},{"buffer":0,"byteOffset":2088748,"byteLength":696,"target":34962},{"buffer":0,"byteOffset":2123324,"byteLength":464,"target":34962},{"buffer":0,"byteOffset":2089908,"byteLength":216,"target":34963},{"buffer":0,"byteOffset":2090124,"byteLength":696,"target":34962},{"buffer":0,"byteOffset":2090820,"byteLength":696,"target":34962},{"buffer":0,"byteOffset":2123788,"byteLength":464,"target":34962},{"buffer":0,"byteOffset":2124252,"byteLength":1428,"target":34962},{"buffer":0,"byteOffset":2093408,"byteLength":1428,"target":34962},{"buffer":0,"byteOffset":429424,"byteLength":952,"target":34962},{"buffer":0,"byteOffset":430376,"byteLength":1152,"target":34963},{"buffer":0,"byteOffset":2125680,"byteLength":588,"target":34962},{"buffer":0,"byteOffset":2095424,"byteLength":588,"target":34962},{"buffer":0,"byteOffset":2096012,"byteLength":392,"target":34962},{"buffer":0,"byteOffset":2096404,"byteLength":432,"target":34963},{"buffer":0,"byteOffset":436936,"byteLength":192,"target":34962},{"buffer":0,"byteOffset":2096836,"byteLength":480,"target":34962},{"buffer":0,"byteOffset":2097316,"byteLength":480,"target":34962},{"buffer":0,"byteOffset":2126268,"byteLength":320,"target":34962},{"buffer":0,"byteOffset":48596,"byteLength":144,"target":34963},{"buffer":0,"byteOffset":1112312,"byteLength":480,"target":34962},{"buffer":0,"byteOffset":1112792,"byteLength":480,"target":34962},{"buffer":0,"byteOffset":2126588,"byteLength":320,"target":34962},{"buffer":0,"byteOffset":2126908,"byteLength":660,"target":34962},{"buffer":0,"byteOffset":2099096,"byteLength":660,"target":34962},{"buffer":0,"byteOffset":438448,"byteLength":440,"target":34962},{"buffer":0,"byteOffset":438888,"byteLength":480,"target":34963},{"buffer":0,"byteOffset":2127568,"byteLength":300,"target":34962},{"buffer":0,"byteOffset":2100056,"byteLength":300,"target":34962},{"buffer":0,"byteOffset":2100356,"byteLength":200,"target":34962},{"buffer":0,"byteOffset":440168,"byteLength":192,"target":34963}],"accessors":[{"bufferView":0,"componentType":5126,"count":324,"type":"VEC3","min":[-0.5,-0.5,-0.5],"max":[0.5,0.5,0.5]},{"bufferView":1,"componentType":5126,"count":324,"type":"VEC3"},{"bufferView":2,"componentType":5126,"count":324,"type":"VEC2"},{"bufferView":3,"componentType":5126,"count":112,"type":"VEC3","min":[-0.9848077297210693,-0.5,-1],"max":[0.9848077297210693,0.5,1]},{"bufferView":4,"componentType":5126,"count":112,"type":"VEC3"},{"bufferView":5,"componentType":5126,"count":112,"type":"VEC2"},{"bufferView":6,"componentType":5123,"count":216,"type":"SCALAR"},{"bufferView":7,"componentType":5126,"count":112,"type":"VEC3","min":[-0.9848077297210693,-0.5,-1],"max":[0.9848077297210693,0.5,1]},{"bufferView":8,"componentType":5126,"count":112,"type":"VEC3"},{"bufferView":9,"componentType":5126,"count":112,"type":"VEC2"},{"bufferView":10,"componentType":5126,"count":261,"type":"VEC3","min":[-2.100867748260498,-2.1007025241851807,-0.2199999988079071],"max":[2.1010000705718994,2.1009669303894043,0.2199999988079071]},{"bufferView":11,"componentType":5126,"count":261,"type":"VEC3"},{"bufferView":12,"componentType":5126,"count":261,"type":"VEC2"},{"bufferView":13,"componentType":5123,"count":1344,"type":"SCALAR"},{"bufferView":14,"componentType":5126,"count":117,"type":"VEC3","min":[-0.8933985829353333,5.121532917022705,-0.09000000357627869],"max":[-0.2742978632450104,6.7986741065979,0.09000000357627869]},{"bufferView":15,"componentType":5126,"count":117,"type":"VEC3"},{"bufferView":16,"componentType":5126,"count":117,"type":"VEC2"},{"bufferView":17,"componentType":5123,"count":576,"type":"SCALAR"},{"bufferView":18,"componentType":5126,"count":24,"type":"VEC3","min":[-0.5,-0.5,-0.02500000037252903],"max":[0.5,0.5,0.02500000037252903]},{"bufferView":19,"componentType":5126,"count":24,"type":"VEC3"},{"bufferView":20,"componentType":5126,"count":24,"type":"VEC2"},{"bufferView":21,"componentType":5123,"count":36,"type":"SCALAR"},{"bufferView":22,"componentType":5126,"count":4,"type":"VEC3","min":[-0.5,-0.5,0],"max":[0.5,0.5,0]},{"bufferView":23,"componentType":5126,"count":4,"type":"VEC3"},{"bufferView":24,"componentType":5126,"count":4,"type":"VEC2"},{"bufferView":25,"componentType":5123,"count":6,"type":"SCALAR"},{"bufferView":26,"componentType":5126,"count":324,"type":"VEC2"},{"bufferView":27,"componentType":5126,"count":24,"type":"VEC3","min":[-0.5,-0.5,-0.5],"max":[0.5,0.5,0.5]},{"bufferView":28,"componentType":5126,"count":24,"type":"VEC2"},{"bufferView":29,"componentType":5126,"count":58,"type":"VEC3","min":[-0.9848077297210693,-0.5,-0.9396926164627075],"max":[0.9848077297210693,0.5,1]},{"bufferView":30,"componentType":5126,"count":58,"type":"VEC3"},{"bufferView":31,"componentType":5126,"count":58,"type":"VEC2"},{"bufferView":32,"componentType":5123,"count":108,"type":"SCALAR"},{"bufferView":33,"componentType":5126,"count":58,"type":"VEC3","min":[-0.9848077297210693,-0.5,-0.9396926164627075],"max":[0.9848077297210693,0.5,1]},{"bufferView":34,"componentType":5126,"count":58,"type":"VEC3"},{"bufferView":35,"componentType":5126,"count":58,"type":"VEC2"},{"bufferView":36,"componentType":5126,"count":119,"type":"VEC3","min":[-2.0908830165863037,-2.0782599449157715,-0.1905255913734436],"max":[2.1010000705718994,2.0984692573547363,0.1905255913734436]},{"bufferView":37,"componentType":5126,"count":119,"type":"VEC3"},{"bufferView":38,"componentType":5126,"count":119,"type":"VEC2"},{"bufferView":39,"componentType":5123,"count":576,"type":"SCALAR"},{"bufferView":40,"componentType":5126,"count":49,"type":"VEC3","min":[-0.8813410401344299,5.125347137451172,-0.09000000357627869],"max":[-0.2844400107860565,6.792153358459473,0.09000000357627869]},{"bufferView":41,"componentType":5126,"count":49,"type":"VEC3"},{"bufferView":42,"componentType":5126,"count":49,"type":"VEC2"},{"bufferView":43,"componentType":5123,"count":216,"type":"SCALAR"},{"bufferView":44,"componentType":5126,"count":24,"type":"VEC2"},{"bufferView":45,"componentType":5126,"count":40,"type":"VEC3","min":[-0.8660253882408142,-0.5,-1],"max":[0.8660253882408142,0.5,1]},{"bufferView":46,"componentType":5126,"count":40,"type":"VEC3"},{"bufferView":47,"componentType":5126,"count":40,"type":"VEC2"},{"bufferView":48,"componentType":5123,"count":72,"type":"SCALAR"},{"bufferView":49,"componentType":5126,"count":40,"type":"VEC3","min":[-0.8660253882408142,-0.5,-1],"max":[0.8660253882408142,0.5,1]},{"bufferView":50,"componentType":5126,"count":40,"type":"VEC3"},{"bufferView":51,"componentType":5126,"count":40,"type":"VEC2"},{"bufferView":52,"componentType":5126,"count":55,"type":"VEC3","min":[-2.050401210784912,-2.0751330852508545,-0.2199999988079071],"max":[2.1010000705718994,2.0883119106292725,0.2199999988079071]},{"bufferView":53,"componentType":5126,"count":55,"type":"VEC3"},{"bufferView":54,"componentType":5126,"count":55,"type":"VEC2"},{"bufferView":55,"componentType":5123,"count":240,"type":"SCALAR"},{"bufferView":56,"componentType":5126,"count":25,"type":"VEC3","min":[-0.8933985829353333,5.121532917022705,-0.09000000357627869],"max":[-0.2742978632450104,6.7986741065979,0.09000000357627869]},{"bufferView":57,"componentType":5126,"count":25,"type":"VEC3"},{"bufferView":58,"componentType":5126,"count":25,"type":"VEC2"},{"bufferView":59,"componentType":5123,"count":96,"type":"SCALAR"}],"extensionsUsed":["KHR_materials_unlit"],"extras":{"id":"vlt-coffee-covenant-08","family":"coffee-covenant","variant":7,"plan":"B3-1","units":"metres","up":"+Y","front":"+Z","lodScenes":[0,1,2]}}