{"asset":{"version":"2.0","generator":"SLOPMERICA Department of Unnecessary Development 1.0"},"scene":0,"scenes":[{"name":"LOD 0","nodes":[0,1,2,3,4,5,6,7,8,9,10,11,12],"extras":{"level":0}},{"name":"LOD 1","nodes":[13,14,15,16,17,18,19,20,21,22,23,24,25],"extras":{"level":1}},{"name":"LOD 2","nodes":[26,27,28,29,30,31,32,33,34,35,36],"extras":{"level":2}}],"nodes":[{"name":"surveyed lot","mesh":0,"translation":[0,0.06,0],"scale":[13.2,0.12,11.44]},{"name":"commemorative parking lot","mesh":1,"translation":[0,0.07,0],"scale":[10,0.14,7.5]},{"name":"empty stripe 0","mesh":2,"translation":[-4.2,0.24,0.2],"scale":[0.09,0.035,5.2]},{"name":"empty stripe 1","mesh":2,"translation":[-2.52,0.24,0.2],"scale":[0.09,0.035,5.2]},{"name":"empty stripe 2","mesh":2,"translation":[-0.84,0.24,0.2],"scale":[0.09,0.035,5.2]},{"name":"empty stripe 3","mesh":2,"translation":[0.84,0.24,0.2],"scale":[0.09,0.035,5.2]},{"name":"empty stripe 4","mesh":2,"translation":[2.52,0.24,0.2],"scale":[0.09,0.035,5.2]},{"name":"empty stripe 5","mesh":2,"translation":[4.2,0.24,0.2],"scale":[0.09,0.035,5.2]},{"name":"granite plinth","mesh":3,"translation":[0,0.75,-4.6],"scale":[3.8,1.1,2.1]},{"name":"bronze salamander","mesh":4,"translation":[0,0,0]},{"name":"memorial story wall","mesh":5,"translation":[-2.8,0.96,-4.04],"rotation":[0,-0.119712,0,0.992809],"scale":[4.1,1.76,0.28]},{"name":"hellbender plaque-back","mesh":6,"translation":[0,0.9,-3.51],"rotation":[-0.532032,0,0,0.846724],"scale":[3.2,0.82,1]},{"name":"hellbender plaque","mesh":7,"translation":[0,0.926128,-3.497417],"rotation":[-0.532032,0,0,0.846724],"scale":[3.1,0.72,1]},{"name":"surveyed lot","mesh":8,"translation":[0,0.06,0],"scale":[13.2,0.12,11.44]},{"name":"commemorative parking lot","mesh":9,"translation":[0,0.07,0],"scale":[10,0.14,7.5]},{"name":"empty stripe 0","mesh":10,"translation":[-4.2,0.24,0.2],"scale":[0.09,0.035,5.2]},{"name":"empty stripe 1","mesh":10,"translation":[-2.52,0.24,0.2],"scale":[0.09,0.035,5.2]},{"name":"empty stripe 2","mesh":10,"translation":[-0.84,0.24,0.2],"scale":[0.09,0.035,5.2]},{"name":"empty stripe 3","mesh":10,"translation":[0.84,0.24,0.2],"scale":[0.09,0.035,5.2]},{"name":"empty stripe 4","mesh":10,"translation":[2.52,0.24,0.2],"scale":[0.09,0.035,5.2]},{"name":"empty stripe 5","mesh":10,"translation":[4.2,0.24,0.2],"scale":[0.09,0.035,5.2]},{"name":"granite plinth","mesh":11,"translation":[0,0.75,-4.6],"scale":[3.8,1.1,2.1]},{"name":"bronze salamander","mesh":12,"translation":[0,0,0]},{"name":"memorial story wall","mesh":13,"translation":[-2.8,0.96,-4.04],"rotation":[0,-0.119712,0,0.992809],"scale":[4.1,1.76,0.28]},{"name":"hellbender plaque-back","mesh":6,"translation":[0,0.9,-3.51],"rotation":[-0.532032,0,0,0.846724],"scale":[3.2,0.82,1]},{"name":"hellbender plaque","mesh":7,"translation":[0,0.926128,-3.497417],"rotation":[-0.532032,0,0,0.846724],"scale":[3.1,0.72,1]},{"name":"surveyed lot","mesh":8,"translation":[0,0.06,0],"scale":[13.2,0.12,11.44]},{"name":"commemorative parking lot","mesh":9,"translation":[0,0.07,0],"scale":[10,0.14,7.5]},{"name":"empty stripe 0","mesh":10,"translation":[-4.2,0.24,0.2],"scale":[0.09,0.035,5.2]},{"name":"empty stripe 1","mesh":10,"translation":[-1.4,0.24,0.2],"scale":[0.09,0.035,5.2]},{"name":"empty stripe 2","mesh":10,"translation":[1.4,0.24,0.2],"scale":[0.09,0.035,5.2]},{"name":"empty stripe 3","mesh":10,"translation":[4.2,0.24,0.2],"scale":[0.09,0.035,5.2]},{"name":"granite plinth","mesh":11,"translation":[0,0.75,-4.6],"scale":[3.8,1.1,2.1]},{"name":"bronze salamander","mesh":14,"translation":[0,0,0]},{"name":"memorial story wall","mesh":13,"translation":[-2.8,0.96,-4.04],"rotation":[0,-0.119712,0,0.992809],"scale":[4.1,1.76,0.28]},{"name":"hellbender plaque-back","mesh":6,"translation":[0,0.9,-3.51],"rotation":[-0.532032,0,0,0.846724],"scale":[3.2,0.82,1]},{"name":"hellbender plaque","mesh":7,"translation":[0,0.926128,-3.497417],"rotation":[-0.532032,0,0,0.846724],"scale":[3.1,0.72,1]}],"meshes":[{"primitives":[{"attributes":{"POSITION":0,"NORMAL":1,"TEXCOORD_0":2},"material":0,"mode":4}]},{"primitives":[{"attributes":{"POSITION":0,"NORMAL":1,"TEXCOORD_0":3},"material":1,"mode":4}]},{"primitives":[{"attributes":{"POSITION":0,"NORMAL":1,"TEXCOORD_0":4},"material":2,"mode":4}]},{"primitives":[{"attributes":{"POSITION":0,"NORMAL":1,"TEXCOORD_0":5},"material":3,"mode":4}]},{"primitives":[{"attributes":{"POSITION":6,"NORMAL":7,"TEXCOORD_0":8},"material":4,"mode":4,"indices":9}]},{"primitives":[{"attributes":{"POSITION":0,"NORMAL":1,"TEXCOORD_0":10},"material":3,"mode":4}]},{"primitives":[{"attributes":{"POSITION":11,"NORMAL":12,"TEXCOORD_0":13},"material":5,"mode":4,"indices":14}]},{"primitives":[{"attributes":{"POSITION":15,"NORMAL":16,"TEXCOORD_0":17},"material":6,"mode":4,"indices":18}]},{"primitives":[{"attributes":{"POSITION":19,"NORMAL":12,"TEXCOORD_0":20},"material":0,"mode":4,"indices":14}]},{"primitives":[{"attributes":{"POSITION":19,"NORMAL":12,"TEXCOORD_0":21},"material":1,"mode":4,"indices":14}]},{"primitives":[{"attributes":{"POSITION":19,"NORMAL":12,"TEXCOORD_0":22},"material":2,"mode":4,"indices":14}]},{"primitives":[{"attributes":{"POSITION":19,"NORMAL":12,"TEXCOORD_0":23},"material":3,"mode":4,"indices":14}]},{"primitives":[{"attributes":{"POSITION":24,"NORMAL":25,"TEXCOORD_0":26},"material":4,"mode":4,"indices":27}]},{"primitives":[{"attributes":{"POSITION":19,"NORMAL":12,"TEXCOORD_0":28},"material":3,"mode":4,"indices":14}]},{"primitives":[{"attributes":{"POSITION":29,"NORMAL":30,"TEXCOORD_0":31},"material":4,"mode":4,"indices":32}]}],"materials":[{"name":"concrete","pbrMetallicRoughness":{"baseColorTexture":{"index":0},"metallicRoughnessTexture":{"index":2},"roughnessFactor":1,"metallicFactor":1},"normalTexture":{"index":1,"scale":0.82},"occlusionTexture":{"index":2,"strength":0.35}},{"name":"asphalt","pbrMetallicRoughness":{"baseColorTexture":{"index":3},"metallicRoughnessTexture":{"index":5},"roughnessFactor":1,"metallicFactor":1},"normalTexture":{"index":4,"scale":0.62},"occlusionTexture":{"index":5,"strength":0.35}},{"name":"paint-white","pbrMetallicRoughness":{"baseColorFactor":[0.7912979403281551,0.7681511472425809,0.6795424696265424,1],"roughnessFactor":0.68,"metallicFactor":0}},{"name":"limestone","pbrMetallicRoughness":{"baseColorTexture":{"index":6},"metallicRoughnessTexture":{"index":8},"roughnessFactor":1,"metallicFactor":1},"normalTexture":{"index":7,"scale":0.9},"occlusionTexture":{"index":8,"strength":0.35}},{"name":"metal-copper","pbrMetallicRoughness":{"baseColorTexture":{"index":9},"metallicRoughnessTexture":{"index":11},"roughnessFactor":1,"metallicFactor":1},"normalTexture":{"index":10,"scale":0.7},"occlusionTexture":{"index":11,"strength":0.35}},{"name":"metal-dark","pbrMetallicRoughness":{"baseColorTexture":{"index":12},"metallicRoughnessTexture":{"index":14},"roughnessFactor":1,"metallicFactor":1},"normalTexture":{"index":13,"scale":0.35},"occlusionTexture":{"index":14,"strength":0.35}},{"name":"last-hellbender-memorial signage","pbrMetallicRoughness":{"baseColorTexture":{"index":15},"roughnessFactor":1,"metallicFactor":0},"extensions":{"KHR_materials_unlit":{}}}],"textures":[{"source":0,"sampler":0},{"source":1,"sampler":0},{"source":2,"sampler":0},{"source":3,"sampler":0},{"source":4,"sampler":0},{"source":5,"sampler":0},{"source":6,"sampler":0},{"source":7,"sampler":0},{"source":8,"sampler":0},{"source":9,"sampler":0},{"source":10,"sampler":0},{"source":11,"sampler":0},{"source":12,"sampler":0},{"source":13,"sampler":0},{"source":14,"sampler":0},{"source":15,"sampler":0}],"images":[{"uri":"../textures/concrete-albedo.png"},{"uri":"../textures/concrete-normal.png"},{"uri":"../textures/concrete-orm.png"},{"uri":"../textures/asphalt-albedo.png"},{"uri":"../textures/asphalt-normal.png"},{"uri":"../textures/asphalt-orm.png"},{"uri":"../textures/limestone-albedo.png"},{"uri":"../textures/limestone-normal.png"},{"uri":"../textures/limestone-orm.png"},{"uri":"../textures/metal-copper-albedo.png"},{"uri":"../textures/metal-copper-normal.png"},{"uri":"../textures/metal-copper-orm.png"},{"uri":"../textures/metal-dark-albedo.png"},{"uri":"../textures/metal-dark-normal.png"},{"uri":"../textures/metal-dark-orm.png"},{"uri":"../signs/last-hellbender-memorial.png"}],"samplers":[{"magFilter":9729,"minFilter":9987,"wrapS":10497,"wrapT":10497}],"buffers":[{"uri":"../shared/geometry.bin","byteLength":16435520}],"bufferViews":[{"buffer":0,"byteOffset":0,"byteLength":3888,"target":34962},{"buffer":0,"byteOffset":3888,"byteLength":3888,"target":34962},{"buffer":0,"byteOffset":7483696,"byteLength":2592,"target":34962},{"buffer":0,"byteOffset":7400432,"byteLength":2592,"target":34962},{"buffer":0,"byteOffset":7403024,"byteLength":2592,"target":34962},{"buffer":0,"byteOffset":7405616,"byteLength":2592,"target":34962},{"buffer":0,"byteOffset":7408208,"byteLength":1836,"target":34962},{"buffer":0,"byteOffset":7410044,"byteLength":1836,"target":34962},{"buffer":0,"byteOffset":7411880,"byteLength":1224,"target":34962},{"buffer":0,"byteOffset":7413104,"byteLength":1536,"target":34963},{"buffer":0,"byteOffset":7486288,"byteLength":2592,"target":34962},{"buffer":0,"byteOffset":45664,"byteLength":288,"target":34962},{"buffer":0,"byteOffset":45952,"byteLength":288,"target":34962},{"buffer":0,"byteOffset":46240,"byteLength":192,"target":34962},{"buffer":0,"byteOffset":46432,"byteLength":72,"target":34963},{"buffer":0,"byteOffset":46504,"byteLength":48,"target":34962},{"buffer":0,"byteOffset":46552,"byteLength":48,"target":34962},{"buffer":0,"byteOffset":153412,"byteLength":32,"target":34962},{"buffer":0,"byteOffset":46632,"byteLength":12,"target":34963},{"buffer":0,"byteOffset":46644,"byteLength":288,"target":34962},{"buffer":0,"byteOffset":7488880,"byteLength":192,"target":34962},{"buffer":0,"byteOffset":7417424,"byteLength":192,"target":34962},{"buffer":0,"byteOffset":7417616,"byteLength":192,"target":34962},{"buffer":0,"byteOffset":7417808,"byteLength":192,"target":34962},{"buffer":0,"byteOffset":7418000,"byteLength":756,"target":34962},{"buffer":0,"byteOffset":7418756,"byteLength":756,"target":34962},{"buffer":0,"byteOffset":7419512,"byteLength":504,"target":34962},{"buffer":0,"byteOffset":7420016,"byteLength":576,"target":34963},{"buffer":0,"byteOffset":7489072,"byteLength":192,"target":34962},{"buffer":0,"byteOffset":7420784,"byteLength":300,"target":34962},{"buffer":0,"byteOffset":7421084,"byteLength":300,"target":34962},{"buffer":0,"byteOffset":7421384,"byteLength":200,"target":34962},{"buffer":0,"byteOffset":440168,"byteLength":192,"target":34963}],"accessors":[{"bufferView":0,"componentType":5126,"count":324,"type":"VEC3","min":[-0.5,-0.5,-0.5],"max":[0.5,0.5,0.5]},{"bufferView":1,"componentType":5126,"count":324,"type":"VEC3"},{"bufferView":2,"componentType":5126,"count":324,"type":"VEC2"},{"bufferView":3,"componentType":5126,"count":324,"type":"VEC2"},{"bufferView":4,"componentType":5126,"count":324,"type":"VEC2"},{"bufferView":5,"componentType":5126,"count":324,"type":"VEC2"},{"bufferView":6,"componentType":5126,"count":153,"type":"VEC3","min":[-1.2973542213439941,1.1527129411697388,-4.820000171661377],"max":[1.277266502380371,1.955985188484192,-4.380000114440918]},{"bufferView":7,"componentType":5126,"count":153,"type":"VEC3"},{"bufferView":8,"componentType":5126,"count":153,"type":"VEC2"},{"bufferView":9,"componentType":5123,"count":768,"type":"SCALAR"},{"bufferView":10,"componentType":5126,"count":324,"type":"VEC2"},{"bufferView":11,"componentType":5126,"count":24,"type":"VEC3","min":[-0.5,-0.5,-0.02500000037252903],"max":[0.5,0.5,0.02500000037252903]},{"bufferView":12,"componentType":5126,"count":24,"type":"VEC3"},{"bufferView":13,"componentType":5126,"count":24,"type":"VEC2"},{"bufferView":14,"componentType":5123,"count":36,"type":"SCALAR"},{"bufferView":15,"componentType":5126,"count":4,"type":"VEC3","min":[-0.5,-0.5,0],"max":[0.5,0.5,0]},{"bufferView":16,"componentType":5126,"count":4,"type":"VEC3"},{"bufferView":17,"componentType":5126,"count":4,"type":"VEC2"},{"bufferView":18,"componentType":5123,"count":6,"type":"SCALAR"},{"bufferView":19,"componentType":5126,"count":24,"type":"VEC3","min":[-0.5,-0.5,-0.5],"max":[0.5,0.5,0.5]},{"bufferView":20,"componentType":5126,"count":24,"type":"VEC2"},{"bufferView":21,"componentType":5126,"count":24,"type":"VEC2"},{"bufferView":22,"componentType":5126,"count":24,"type":"VEC2"},{"bufferView":23,"componentType":5126,"count":24,"type":"VEC2"},{"bufferView":24,"componentType":5126,"count":63,"type":"VEC3","min":[-1.2843111753463745,1.1791443824768066,-4.820000171661377],"max":[1.26691472530365,1.9283883571624756,-4.380000114440918]},{"bufferView":25,"componentType":5126,"count":63,"type":"VEC3"},{"bufferView":26,"componentType":5126,"count":63,"type":"VEC2"},{"bufferView":27,"componentType":5123,"count":288,"type":"SCALAR"},{"bufferView":28,"componentType":5126,"count":24,"type":"VEC2"},{"bufferView":29,"componentType":5126,"count":25,"type":"VEC3","min":[-1.2973542213439941,1.1527129411697388,-4.820000171661377],"max":[1.277266502380371,1.955985188484192,-4.380000114440918]},{"bufferView":30,"componentType":5126,"count":25,"type":"VEC3"},{"bufferView":31,"componentType":5126,"count":25,"type":"VEC2"},{"bufferView":32,"componentType":5123,"count":96,"type":"SCALAR"}],"extensionsUsed":["KHR_materials_unlit"],"extras":{"id":"vlt-last-hellbender-memorial-11","family":"last-hellbender-memorial","variant":10,"plan":"C1-1","units":"metres","up":"+Y","front":"+Z","lodScenes":[0,1,2]}}