{"asset":{"version":"2.0","generator":"SLOPMERICA Department of Unnecessary Development 1.0"},"scene":0,"scenes":[{"name":"LOD 0","nodes":[0,1,2,3,4,5,6,7,8,9,10],"extras":{"level":0}},{"name":"LOD 1","nodes":[11,12,13,14,15,16,17,18,19,20,21],"extras":{"level":1}},{"name":"LOD 2","nodes":[22,23,24,25,26,27,28],"extras":{"level":2}}],"nodes":[{"name":"surveyed lot","mesh":0,"translation":[0,0.06,0],"scale":[14.48512,0.12,14.54752]},{"name":"main house","mesh":1,"translation":[0,1.58,0],"scale":[8.528,2.8,7.488]},{"name":"broad ranch roof left","mesh":2,"translation":[-2.282,4.130614,0],"rotation":[0,0,0.227978,0.973666],"scale":[5.093452,0.16,7.988]},{"name":"broad ranch roof right","mesh":2,"translation":[2.282,4.130614,0],"rotation":[0,0,-0.227978,0.973666],"scale":[5.093452,0.16,7.988]},{"name":"broad ranch roof end infill","mesh":3,"translation":[0,3,0]},{"name":"garage snout","mesh":4,"translation":[-3.064,1.48,5.244],"scale":[3.5,2.6,3.5]},{"name":"garage door","mesh":5,"translation":[-2.864,1.3,7.024],"scale":[3,2.05,0.12]},{"name":"window 1.8 0","mesh":6,"translation":[-2.025,1.8,3.824],"scale":[0.7,0.75,0.09]},{"name":"window 1.8 1","mesh":6,"translation":[-0.675,1.8,3.824],"scale":[0.7,0.75,0.09]},{"name":"window 1.8 2","mesh":6,"translation":[0.675,1.8,3.824],"scale":[0.7,0.75,0.09]},{"name":"window 1.8 3","mesh":6,"translation":[2.025,1.8,3.824],"scale":[0.7,0.75,0.09]},{"name":"surveyed lot","mesh":7,"translation":[0,0.06,0],"scale":[14.48512,0.12,14.54752]},{"name":"main house","mesh":8,"translation":[0,1.58,0],"scale":[8.528,2.8,7.488]},{"name":"broad ranch roof left","mesh":9,"translation":[-2.282,4.130614,0],"rotation":[0,0,0.227978,0.973666],"scale":[5.093452,0.16,7.988]},{"name":"broad ranch roof right","mesh":9,"translation":[2.282,4.130614,0],"rotation":[0,0,-0.227978,0.973666],"scale":[5.093452,0.16,7.988]},{"name":"broad ranch roof end infill","mesh":3,"translation":[0,3,0]},{"name":"garage snout","mesh":10,"translation":[-3.064,1.48,5.244],"scale":[3.5,2.6,3.5]},{"name":"garage door","mesh":11,"translation":[-2.864,1.3,7.024],"scale":[3,2.05,0.12]},{"name":"window 1.8 0","mesh":12,"translation":[-2.025,1.8,3.824],"scale":[0.7,0.75,0.09]},{"name":"window 1.8 1","mesh":12,"translation":[-0.675,1.8,3.824],"scale":[0.7,0.75,0.09]},{"name":"window 1.8 2","mesh":12,"translation":[0.675,1.8,3.824],"scale":[0.7,0.75,0.09]},{"name":"window 1.8 3","mesh":12,"translation":[2.025,1.8,3.824],"scale":[0.7,0.75,0.09]},{"name":"surveyed lot","mesh":7,"translation":[0,0.06,0],"scale":[14.48512,0.12,14.54752]},{"name":"main house","mesh":8,"translation":[0,1.58,0],"scale":[8.528,2.8,7.488]},{"name":"broad ranch roof left","mesh":9,"translation":[-2.282,4.130614,0],"rotation":[0,0,0.227978,0.973666],"scale":[5.093452,0.16,7.988]},{"name":"broad ranch roof right","mesh":9,"translation":[2.282,4.130614,0],"rotation":[0,0,-0.227978,0.973666],"scale":[5.093452,0.16,7.988]},{"name":"broad ranch roof end infill","mesh":3,"translation":[0,3,0]},{"name":"garage snout","mesh":10,"translation":[-3.064,1.48,5.244],"scale":[3.5,2.6,3.5]},{"name":"garage door","mesh":11,"translation":[-2.864,1.3,7.024],"scale":[3,2.05,0.12]}],"meshes":[{"primitives":[{"attributes":{"POSITION":0,"NORMAL":1,"TEXCOORD_0":2},"material":0,"mode":4}]},{"primitives":[{"attributes":{"POSITION":0,"NORMAL":1,"TEXCOORD_0":3},"material":1,"mode":4}]},{"primitives":[{"attributes":{"POSITION":0,"NORMAL":1,"TEXCOORD_0":4},"material":2,"mode":4}]},{"primitives":[{"attributes":{"POSITION":5,"NORMAL":6,"TEXCOORD_0":7},"material":1,"mode":4}]},{"primitives":[{"attributes":{"POSITION":0,"NORMAL":1,"TEXCOORD_0":8},"material":1,"mode":4}]},{"primitives":[{"attributes":{"POSITION":0,"NORMAL":1,"TEXCOORD_0":9},"material":3,"mode":4}]},{"primitives":[{"attributes":{"POSITION":0,"NORMAL":1,"TEXCOORD_0":10},"material":4,"mode":4}]},{"primitives":[{"attributes":{"POSITION":11,"NORMAL":12,"TEXCOORD_0":13},"material":0,"mode":4,"indices":14}]},{"primitives":[{"attributes":{"POSITION":11,"NORMAL":12,"TEXCOORD_0":15},"material":1,"mode":4,"indices":14}]},{"primitives":[{"attributes":{"POSITION":11,"NORMAL":12,"TEXCOORD_0":16},"material":2,"mode":4,"indices":14}]},{"primitives":[{"attributes":{"POSITION":11,"NORMAL":12,"TEXCOORD_0":17},"material":1,"mode":4,"indices":14}]},{"primitives":[{"attributes":{"POSITION":11,"NORMAL":12,"TEXCOORD_0":18},"material":3,"mode":4,"indices":14}]},{"primitives":[{"attributes":{"POSITION":11,"NORMAL":12,"TEXCOORD_0":19},"material":4,"mode":4,"indices":14}]}],"materials":[{"name":"concrete","pbrMetallicRoughness":{"baseColorTexture":{"index":0},"metallicRoughnessTexture":{"index":2},"roughnessFactor":1,"metallicFactor":1},"normalTexture":{"index":1,"scale":0.82},"occlusionTexture":{"index":2,"strength":0.35}},{"name":"brick-cream","pbrMetallicRoughness":{"baseColorTexture":{"index":3},"metallicRoughnessTexture":{"index":5},"roughnessFactor":1,"metallicFactor":1},"normalTexture":{"index":4,"scale":1.05},"occlusionTexture":{"index":5,"strength":0.35}},{"name":"roof-shingle","pbrMetallicRoughness":{"baseColorTexture":{"index":6},"metallicRoughnessTexture":{"index":8},"roughnessFactor":1,"metallicFactor":1},"normalTexture":{"index":7,"scale":0.78},"occlusionTexture":{"index":8,"strength":0.35}},{"name":"wood-painted","pbrMetallicRoughness":{"baseColorTexture":{"index":9},"metallicRoughnessTexture":{"index":11},"roughnessFactor":1,"metallicFactor":1},"normalTexture":{"index":10,"scale":0.55},"occlusionTexture":{"index":11,"strength":0.35}},{"name":"glass-blue","pbrMetallicRoughness":{"baseColorTexture":{"index":12},"metallicRoughnessTexture":{"index":14},"roughnessFactor":1,"metallicFactor":1},"normalTexture":{"index":13,"scale":0.12},"occlusionTexture":{"index":14,"strength":0.35}}],"textures":[{"source":0,"sampler":0},{"source":1,"sampler":0},{"source":2,"sampler":0},{"source":3,"sampler":0},{"source":4,"sampler":0},{"source":5,"sampler":0},{"source":6,"sampler":0},{"source":7,"sampler":0},{"source":8,"sampler":0},{"source":9,"sampler":0},{"source":10,"sampler":0},{"source":11,"sampler":0},{"source":12,"sampler":0},{"source":13,"sampler":0},{"source":14,"sampler":0}],"images":[{"uri":"../textures/concrete-albedo.png"},{"uri":"../textures/concrete-normal.png"},{"uri":"../textures/concrete-orm.png"},{"uri":"../textures/brick-cream-albedo.png"},{"uri":"../textures/brick-cream-normal.png"},{"uri":"../textures/brick-cream-orm.png"},{"uri":"../textures/roof-shingle-albedo.png"},{"uri":"../textures/roof-shingle-normal.png"},{"uri":"../textures/roof-shingle-orm.png"},{"uri":"../textures/wood-painted-albedo.png"},{"uri":"../textures/wood-painted-normal.png"},{"uri":"../textures/wood-painted-orm.png"},{"uri":"../textures/glass-blue-albedo.png"},{"uri":"../textures/glass-blue-normal.png"},{"uri":"../textures/glass-blue-orm.png"}],"samplers":[{"magFilter":9729,"minFilter":9987,"wrapS":10497,"wrapT":10497}],"buffers":[{"uri":"../shared/geometry.bin","byteLength":16435520}],"bufferViews":[{"buffer":0,"byteOffset":0,"byteLength":3888,"target":34962},{"buffer":0,"byteOffset":3888,"byteLength":3888,"target":34962},{"buffer":0,"byteOffset":14592724,"byteLength":2592,"target":34962},{"buffer":0,"byteOffset":14595316,"byteLength":2592,"target":34962},{"buffer":0,"byteOffset":14597908,"byteLength":2592,"target":34962},{"buffer":0,"byteOffset":14600500,"byteLength":72,"target":34962},{"buffer":0,"byteOffset":608760,"byteLength":72,"target":34962},{"buffer":0,"byteOffset":14600572,"byteLength":48,"target":34962},{"buffer":0,"byteOffset":14600620,"byteLength":2592,"target":34962},{"buffer":0,"byteOffset":14577916,"byteLength":2592,"target":34962},{"buffer":0,"byteOffset":4235856,"byteLength":2592,"target":34962},{"buffer":0,"byteOffset":46644,"byteLength":288,"target":34962},{"buffer":0,"byteOffset":45952,"byteLength":288,"target":34962},{"buffer":0,"byteOffset":14603212,"byteLength":192,"target":34962},{"buffer":0,"byteOffset":46432,"byteLength":72,"target":34963},{"buffer":0,"byteOffset":14603404,"byteLength":192,"target":34962},{"buffer":0,"byteOffset":14603596,"byteLength":192,"target":34962},{"buffer":0,"byteOffset":14603788,"byteLength":192,"target":34962},{"buffer":0,"byteOffset":14581276,"byteLength":192,"target":34962},{"buffer":0,"byteOffset":4252176,"byteLength":192,"target":34962}],"accessors":[{"bufferView":0,"componentType":5126,"count":324,"type":"VEC3","min":[-0.5,-0.5,-0.5],"max":[0.5,0.5,0.5]},{"bufferView":1,"componentType":5126,"count":324,"type":"VEC3"},{"bufferView":2,"componentType":5126,"count":324,"type":"VEC2"},{"bufferView":3,"componentType":5126,"count":324,"type":"VEC2"},{"bufferView":4,"componentType":5126,"count":324,"type":"VEC2"},{"bufferView":5,"componentType":5126,"count":6,"type":"VEC3","min":[-4.564000129699707,0,-3.9790000915527344],"max":[4.564000129699707,2.261228084564209,3.9790000915527344]},{"bufferView":6,"componentType":5126,"count":6,"type":"VEC3"},{"bufferView":7,"componentType":5126,"count":6,"type":"VEC2"},{"bufferView":8,"componentType":5126,"count":324,"type":"VEC2"},{"bufferView":9,"componentType":5126,"count":324,"type":"VEC2"},{"bufferView":10,"componentType":5126,"count":324,"type":"VEC2"},{"bufferView":11,"componentType":5126,"count":24,"type":"VEC3","min":[-0.5,-0.5,-0.5],"max":[0.5,0.5,0.5]},{"bufferView":12,"componentType":5126,"count":24,"type":"VEC3"},{"bufferView":13,"componentType":5126,"count":24,"type":"VEC2"},{"bufferView":14,"componentType":5123,"count":36,"type":"SCALAR"},{"bufferView":15,"componentType":5126,"count":24,"type":"VEC2"},{"bufferView":16,"componentType":5126,"count":24,"type":"VEC2"},{"bufferView":17,"componentType":5126,"count":24,"type":"VEC2"},{"bufferView":18,"componentType":5126,"count":24,"type":"VEC2"},{"bufferView":19,"componentType":5126,"count":24,"type":"VEC2"}],"extensionsUsed":["KHR_materials_unlit"],"extras":{"id":"vlt-tract-ashford-03","family":"tract-ashford","variant":2,"plan":"A3-1","units":"metres","up":"+Y","front":"+Z","lodScenes":[0,1,2]}}