{"asset":{"version":"2.0","generator":"SLOPMERICA Department of Unnecessary Development 1.0"},"scene":0,"scenes":[{"name":"LOD 0","nodes":[0,1,2,3,4,5,6,7,8,9,10,11,12,13,14,15,16,17,18,19,20,21,22,23,24,25,26,27,28,29,30,31,32,33,34,35,36,37,38,39,40,41,42,43,44,45],"extras":{"level":0}},{"name":"LOD 1","nodes":[46,47,48,49,50,51,52,53,54,55,56,57,58,59,60,61,62,63,64,65,66,67,68,69,70,71,72,73,74,75,76,77,78,79,80,81,82,83,84,85,86,87,88,89,90,91],"extras":{"level":1}},{"name":"LOD 2","nodes":[92,93,94,95,96,97,98,99,100,101,102,103,104,105,106,107],"extras":{"level":2}}],"nodes":[{"name":"site-pad","mesh":0,"translation":[0,0.06,0],"scale":[14.04,0.12,18.2]},{"name":"variant-apron","mesh":1,"translation":[0.8775,0.13,8.97],"scale":[3.645,0.08,1.16]},{"name":"bollard-0","mesh":2,"translation":[-5.13,0.43,9.09],"scale":[0.08,0.7,0.08]},{"name":"bollard-1","mesh":2,"translation":[0,0.43,9.09],"scale":[0.08,0.7,0.08]},{"name":"bollard-2","mesh":2,"translation":[5.13,0.43,9.09],"scale":[0.08,0.7,0.08]},{"name":"layout-cabinet","mesh":3,"translation":[-6.95,0.555,1.3125],"scale":[0.69,0.87,0.32]},{"name":"deferred-maintenance-skip","mesh":4,"translation":[4.59,0.5,-7.7],"scale":[1.39,0.75,0.65]},{"name":"skip-rubble","mesh":5,"translation":[4.59,0.98,-7.7],"rotation":[0,0.198669,0,0.980067],"scale":[0.72,0.2,0.5]},{"name":"storage-row-0","mesh":6,"translation":[0,1.6,-7],"scale":[13.5,2.96,2.4]},{"name":"rollup-0-0","mesh":7,"translation":[-5.625,1.28,-8.23],"scale":[1.65,2.15,0.12]},{"name":"rollup-0-1","mesh":7,"translation":[-3.375,1.28,-8.23],"scale":[1.65,2.15,0.12]},{"name":"rollup-0-2","mesh":8,"translation":[-1.125,1.28,-8.23],"scale":[1.65,2.15,0.12]},{"name":"rollup-0-3","mesh":7,"translation":[1.125,1.28,-8.23],"scale":[1.65,2.15,0.12]},{"name":"rollup-0-4","mesh":7,"translation":[3.375,1.28,-8.23],"scale":[1.65,2.15,0.12]},{"name":"rollup-0-5","mesh":8,"translation":[5.625,1.28,-8.23],"scale":[1.65,2.15,0.12]},{"name":"storage-row-1","mesh":9,"translation":[0,1.6,-3.5],"scale":[13.5,2.96,2.4]},{"name":"rollup-1-0","mesh":7,"translation":[-5.625,1.28,-4.73],"scale":[1.65,2.15,0.12]},{"name":"rollup-1-1","mesh":7,"translation":[-3.375,1.28,-4.73],"scale":[1.65,2.15,0.12]},{"name":"rollup-1-2","mesh":8,"translation":[-1.125,1.28,-4.73],"scale":[1.65,2.15,0.12]},{"name":"rollup-1-3","mesh":7,"translation":[1.125,1.28,-4.73],"scale":[1.65,2.15,0.12]},{"name":"rollup-1-4","mesh":7,"translation":[3.375,1.28,-4.73],"scale":[1.65,2.15,0.12]},{"name":"rollup-1-5","mesh":8,"translation":[5.625,1.28,-4.73],"scale":[1.65,2.15,0.12]},{"name":"storage-row-2","mesh":6,"translation":[0,1.6,0],"scale":[13.5,2.96,2.4]},{"name":"rollup-2-0","mesh":7,"translation":[-5.625,1.28,-1.23],"scale":[1.65,2.15,0.12]},{"name":"rollup-2-1","mesh":7,"translation":[-3.375,1.28,-1.23],"scale":[1.65,2.15,0.12]},{"name":"rollup-2-2","mesh":8,"translation":[-1.125,1.28,-1.23],"scale":[1.65,2.15,0.12]},{"name":"rollup-2-3","mesh":7,"translation":[1.125,1.28,-1.23],"scale":[1.65,2.15,0.12]},{"name":"rollup-2-4","mesh":7,"translation":[3.375,1.28,-1.23],"scale":[1.65,2.15,0.12]},{"name":"rollup-2-5","mesh":8,"translation":[5.625,1.28,-1.23],"scale":[1.65,2.15,0.12]},{"name":"storage-row-3","mesh":9,"translation":[0,1.6,3.5],"scale":[13.5,2.96,2.4]},{"name":"rollup-3-0","mesh":7,"translation":[-5.625,1.28,2.27],"scale":[1.65,2.15,0.12]},{"name":"rollup-3-1","mesh":7,"translation":[-3.375,1.28,2.27],"scale":[1.65,2.15,0.12]},{"name":"rollup-3-2","mesh":8,"translation":[-1.125,1.28,2.27],"scale":[1.65,2.15,0.12]},{"name":"rollup-3-3","mesh":7,"translation":[1.125,1.28,2.27],"scale":[1.65,2.15,0.12]},{"name":"rollup-3-4","mesh":7,"translation":[3.375,1.28,2.27],"scale":[1.65,2.15,0.12]},{"name":"rollup-3-5","mesh":8,"translation":[5.625,1.28,2.27],"scale":[1.65,2.15,0.12]},{"name":"storage-row-4","mesh":6,"translation":[0,1.6,7],"scale":[13.5,2.96,2.4]},{"name":"rollup-4-0","mesh":7,"translation":[-5.625,1.28,5.77],"scale":[1.65,2.15,0.12]},{"name":"rollup-4-1","mesh":7,"translation":[-3.375,1.28,5.77],"scale":[1.65,2.15,0.12]},{"name":"rollup-4-2","mesh":8,"translation":[-1.125,1.28,5.77],"scale":[1.65,2.15,0.12]},{"name":"rollup-4-3","mesh":7,"translation":[1.125,1.28,5.77],"scale":[1.65,2.15,0.12]},{"name":"rollup-4-4","mesh":7,"translation":[3.375,1.28,5.77],"scale":[1.65,2.15,0.12]},{"name":"rollup-4-5","mesh":8,"translation":[5.625,1.28,5.77],"scale":[1.65,2.15,0.12]},{"name":"manager-box","mesh":10,"translation":[-8.35,1.82,-6.125],"scale":[3.8,3.4,3.2]},{"name":"storage-sign-back","mesh":11,"translation":[-8.35,3,-4.475],"scale":[4.6,1.1,1]},{"name":"storage-sign","mesh":12,"translation":[-8.35,3,-4.446],"scale":[4.5,1,1]},{"name":"site-pad","mesh":13,"translation":[0,0.06,0],"scale":[14.04,0.12,18.2]},{"name":"variant-apron","mesh":14,"translation":[0.8775,0.13,8.97],"scale":[3.645,0.08,1.16]},{"name":"bollard-0","mesh":15,"translation":[-5.13,0.43,9.09],"scale":[0.08,0.7,0.08]},{"name":"bollard-1","mesh":15,"translation":[0,0.43,9.09],"scale":[0.08,0.7,0.08]},{"name":"bollard-2","mesh":15,"translation":[5.13,0.43,9.09],"scale":[0.08,0.7,0.08]},{"name":"layout-cabinet","mesh":16,"translation":[-6.95,0.555,1.3125],"scale":[0.69,0.87,0.32]},{"name":"deferred-maintenance-skip","mesh":17,"translation":[4.59,0.5,-7.7],"scale":[1.39,0.75,0.65]},{"name":"skip-rubble","mesh":18,"translation":[4.59,0.98,-7.7],"rotation":[0,0.198669,0,0.980067],"scale":[0.72,0.2,0.5]},{"name":"storage-row-0","mesh":19,"translation":[0,1.6,-7],"scale":[13.5,2.96,2.4]},{"name":"rollup-0-0","mesh":20,"translation":[-5.625,1.28,-8.23],"scale":[1.65,2.15,0.12]},{"name":"rollup-0-1","mesh":20,"translation":[-3.375,1.28,-8.23],"scale":[1.65,2.15,0.12]},{"name":"rollup-0-2","mesh":21,"translation":[-1.125,1.28,-8.23],"scale":[1.65,2.15,0.12]},{"name":"rollup-0-3","mesh":20,"translation":[1.125,1.28,-8.23],"scale":[1.65,2.15,0.12]},{"name":"rollup-0-4","mesh":20,"translation":[3.375,1.28,-8.23],"scale":[1.65,2.15,0.12]},{"name":"rollup-0-5","mesh":21,"translation":[5.625,1.28,-8.23],"scale":[1.65,2.15,0.12]},{"name":"storage-row-1","mesh":22,"translation":[0,1.6,-3.5],"scale":[13.5,2.96,2.4]},{"name":"rollup-1-0","mesh":20,"translation":[-5.625,1.28,-4.73],"scale":[1.65,2.15,0.12]},{"name":"rollup-1-1","mesh":20,"translation":[-3.375,1.28,-4.73],"scale":[1.65,2.15,0.12]},{"name":"rollup-1-2","mesh":21,"translation":[-1.125,1.28,-4.73],"scale":[1.65,2.15,0.12]},{"name":"rollup-1-3","mesh":20,"translation":[1.125,1.28,-4.73],"scale":[1.65,2.15,0.12]},{"name":"rollup-1-4","mesh":20,"translation":[3.375,1.28,-4.73],"scale":[1.65,2.15,0.12]},{"name":"rollup-1-5","mesh":21,"translation":[5.625,1.28,-4.73],"scale":[1.65,2.15,0.12]},{"name":"storage-row-2","mesh":19,"translation":[0,1.6,0],"scale":[13.5,2.96,2.4]},{"name":"rollup-2-0","mesh":20,"translation":[-5.625,1.28,-1.23],"scale":[1.65,2.15,0.12]},{"name":"rollup-2-1","mesh":20,"translation":[-3.375,1.28,-1.23],"scale":[1.65,2.15,0.12]},{"name":"rollup-2-2","mesh":21,"translation":[-1.125,1.28,-1.23],"scale":[1.65,2.15,0.12]},{"name":"rollup-2-3","mesh":20,"translation":[1.125,1.28,-1.23],"scale":[1.65,2.15,0.12]},{"name":"rollup-2-4","mesh":20,"translation":[3.375,1.28,-1.23],"scale":[1.65,2.15,0.12]},{"name":"rollup-2-5","mesh":21,"translation":[5.625,1.28,-1.23],"scale":[1.65,2.15,0.12]},{"name":"storage-row-3","mesh":22,"translation":[0,1.6,3.5],"scale":[13.5,2.96,2.4]},{"name":"rollup-3-0","mesh":20,"translation":[-5.625,1.28,2.27],"scale":[1.65,2.15,0.12]},{"name":"rollup-3-1","mesh":20,"translation":[-3.375,1.28,2.27],"scale":[1.65,2.15,0.12]},{"name":"rollup-3-2","mesh":21,"translation":[-1.125,1.28,2.27],"scale":[1.65,2.15,0.12]},{"name":"rollup-3-3","mesh":20,"translation":[1.125,1.28,2.27],"scale":[1.65,2.15,0.12]},{"name":"rollup-3-4","mesh":20,"translation":[3.375,1.28,2.27],"scale":[1.65,2.15,0.12]},{"name":"rollup-3-5","mesh":21,"translation":[5.625,1.28,2.27],"scale":[1.65,2.15,0.12]},{"name":"storage-row-4","mesh":19,"translation":[0,1.6,7],"scale":[13.5,2.96,2.4]},{"name":"rollup-4-0","mesh":20,"translation":[-5.625,1.28,5.77],"scale":[1.65,2.15,0.12]},{"name":"rollup-4-1","mesh":20,"translation":[-3.375,1.28,5.77],"scale":[1.65,2.15,0.12]},{"name":"rollup-4-2","mesh":21,"translation":[-1.125,1.28,5.77],"scale":[1.65,2.15,0.12]},{"name":"rollup-4-3","mesh":20,"translation":[1.125,1.28,5.77],"scale":[1.65,2.15,0.12]},{"name":"rollup-4-4","mesh":20,"translation":[3.375,1.28,5.77],"scale":[1.65,2.15,0.12]},{"name":"rollup-4-5","mesh":21,"translation":[5.625,1.28,5.77],"scale":[1.65,2.15,0.12]},{"name":"manager-box","mesh":23,"translation":[-8.35,1.82,-6.125],"scale":[3.8,3.4,3.2]},{"name":"storage-sign-back","mesh":11,"translation":[-8.35,3,-4.475],"scale":[4.6,1.1,1]},{"name":"storage-sign","mesh":12,"translation":[-8.35,3,-4.446],"scale":[4.5,1,1]},{"name":"site-pad","mesh":24,"translation":[0,0.06,0],"scale":[7.02,0.12,7.28]},{"name":"variant-apron","mesh":25,"translation":[0.43875,0.13,3.72],"scale":[1.8225,0.08,1.16]},{"name":"bollard-0","mesh":15,"translation":[-2.565,0.43,3.84],"scale":[0.08,0.7,0.08]},{"name":"layout-cabinet","mesh":16,"translation":[-3.575,0.555,0.525],"scale":[0.69,0.87,0.32]},{"name":"deferred-maintenance-skip","mesh":17,"translation":[2.295,0.5,-3.08],"scale":[1.39,0.75,0.65]},{"name":"storage-row-0","mesh":26,"translation":[0,1.6,-1.75],"scale":[6.75,2.96,2.4]},{"name":"rollup-0-0","mesh":20,"translation":[-2.25,1.28,-2.98],"scale":[1.65,2.15,0.12]},{"name":"rollup-0-1","mesh":20,"translation":[0,1.28,-2.98],"scale":[1.65,2.15,0.12]},{"name":"rollup-0-2","mesh":21,"translation":[2.25,1.28,-2.98],"scale":[1.65,2.15,0.12]},{"name":"storage-row-1","mesh":27,"translation":[0,1.6,1.75],"scale":[6.75,2.96,2.4]},{"name":"rollup-1-0","mesh":20,"translation":[-2.25,1.28,0.52],"scale":[1.65,2.15,0.12]},{"name":"rollup-1-1","mesh":20,"translation":[0,1.28,0.52],"scale":[1.65,2.15,0.12]},{"name":"rollup-1-2","mesh":21,"translation":[2.25,1.28,0.52],"scale":[1.65,2.15,0.12]},{"name":"manager-box","mesh":23,"translation":[-4.975,1.82,-2.45],"scale":[3.8,3.4,3.2]},{"name":"storage-sign-back","mesh":11,"translation":[-4.975,3,-0.8],"scale":[4.6,1.1,1]},{"name":"storage-sign","mesh":12,"translation":[-4.975,3,-0.771],"scale":[4.5,1,1]}],"meshes":[{"primitives":[{"attributes":{"POSITION":0,"NORMAL":1,"TEXCOORD_0":2},"material":0,"mode":4}]},{"primitives":[{"attributes":{"POSITION":0,"NORMAL":1,"TEXCOORD_0":3},"material":0,"mode":4}]},{"primitives":[{"attributes":{"POSITION":4,"NORMAL":5,"TEXCOORD_0":6},"material":1,"mode":4,"indices":7}]},{"primitives":[{"attributes":{"POSITION":0,"NORMAL":1,"TEXCOORD_0":8},"material":2,"mode":4}]},{"primitives":[{"attributes":{"POSITION":0,"NORMAL":1,"TEXCOORD_0":9},"material":1,"mode":4}]},{"primitives":[{"attributes":{"POSITION":0,"NORMAL":1,"TEXCOORD_0":10},"material":3,"mode":4}]},{"primitives":[{"attributes":{"POSITION":11,"NORMAL":1,"TEXCOORD_0":12},"material":4,"mode":4}]},{"primitives":[{"attributes":{"POSITION":0,"NORMAL":1,"TEXCOORD_0":13},"material":5,"mode":4}]},{"primitives":[{"attributes":{"POSITION":0,"NORMAL":1,"TEXCOORD_0":13},"material":1,"mode":4}]},{"primitives":[{"attributes":{"POSITION":11,"NORMAL":1,"TEXCOORD_0":14},"material":2,"mode":4}]},{"primitives":[{"attributes":{"POSITION":15,"NORMAL":1,"TEXCOORD_0":16},"material":6,"mode":4}]},{"primitives":[{"attributes":{"POSITION":17,"NORMAL":18,"TEXCOORD_0":19},"material":7,"mode":4,"indices":20}]},{"primitives":[{"attributes":{"POSITION":21,"NORMAL":22,"TEXCOORD_0":23},"material":8,"mode":4,"indices":24}]},{"primitives":[{"attributes":{"POSITION":25,"NORMAL":18,"TEXCOORD_0":26},"material":0,"mode":4,"indices":20}]},{"primitives":[{"attributes":{"POSITION":25,"NORMAL":18,"TEXCOORD_0":27},"material":0,"mode":4,"indices":20}]},{"primitives":[{"attributes":{"POSITION":28,"NORMAL":29,"TEXCOORD_0":30},"material":1,"mode":4,"indices":31}]},{"primitives":[{"attributes":{"POSITION":25,"NORMAL":18,"TEXCOORD_0":32},"material":2,"mode":4,"indices":20}]},{"primitives":[{"attributes":{"POSITION":25,"NORMAL":18,"TEXCOORD_0":33},"material":1,"mode":4,"indices":20}]},{"primitives":[{"attributes":{"POSITION":25,"NORMAL":18,"TEXCOORD_0":34},"material":3,"mode":4,"indices":20}]},{"primitives":[{"attributes":{"POSITION":25,"NORMAL":18,"TEXCOORD_0":35},"material":4,"mode":4,"indices":20}]},{"primitives":[{"attributes":{"POSITION":25,"NORMAL":18,"TEXCOORD_0":36},"material":5,"mode":4,"indices":20}]},{"primitives":[{"attributes":{"POSITION":25,"NORMAL":18,"TEXCOORD_0":36},"material":1,"mode":4,"indices":20}]},{"primitives":[{"attributes":{"POSITION":25,"NORMAL":18,"TEXCOORD_0":37},"material":2,"mode":4,"indices":20}]},{"primitives":[{"attributes":{"POSITION":25,"NORMAL":18,"TEXCOORD_0":38},"material":6,"mode":4,"indices":20}]},{"primitives":[{"attributes":{"POSITION":25,"NORMAL":18,"TEXCOORD_0":39},"material":0,"mode":4,"indices":20}]},{"primitives":[{"attributes":{"POSITION":25,"NORMAL":18,"TEXCOORD_0":40},"material":0,"mode":4,"indices":20}]},{"primitives":[{"attributes":{"POSITION":25,"NORMAL":18,"TEXCOORD_0":41},"material":4,"mode":4,"indices":20}]},{"primitives":[{"attributes":{"POSITION":25,"NORMAL":18,"TEXCOORD_0":42},"material":2,"mode":4,"indices":20}]}],"materials":[{"name":"asphalt","pbrMetallicRoughness":{"baseColorTexture":{"index":0},"metallicRoughnessTexture":{"index":2},"roughnessFactor":1,"metallicFactor":1},"normalTexture":{"index":1,"scale":0.62},"occlusionTexture":{"index":2,"strength":0.35}},{"name":"paint-orange","pbrMetallicRoughness":{"baseColorFactor":[0.6444796819634361,0.1878207722902346,0.040915196900556984,1],"roughnessFactor":0.68,"metallicFactor":0.03}},{"name":"metal-galvanized","pbrMetallicRoughness":{"baseColorTexture":{"index":3},"metallicRoughnessTexture":{"index":5},"roughnessFactor":1,"metallicFactor":1},"normalTexture":{"index":4,"scale":0.15},"occlusionTexture":{"index":5,"strength":0.35}},{"name":"concrete","pbrMetallicRoughness":{"baseColorTexture":{"index":6},"metallicRoughnessTexture":{"index":8},"roughnessFactor":1,"metallicFactor":1},"normalTexture":{"index":7,"scale":0.82},"occlusionTexture":{"index":8,"strength":0.35}},{"name":"stucco-ivory","pbrMetallicRoughness":{"baseColorTexture":{"index":9},"metallicRoughnessTexture":{"index":11},"roughnessFactor":1,"metallicFactor":1},"normalTexture":{"index":10,"scale":0.5},"occlusionTexture":{"index":11,"strength":0.35}},{"name":"paint-teal","pbrMetallicRoughness":{"baseColorFactor":[0.040915196900556984,0.20507873637973145,0.1878207722902346,1],"roughnessFactor":0.59,"metallicFactor":0.05}},{"name":"brick-cream","pbrMetallicRoughness":{"baseColorTexture":{"index":12},"metallicRoughnessTexture":{"index":14},"roughnessFactor":1,"metallicFactor":1},"normalTexture":{"index":13,"scale":1.05},"occlusionTexture":{"index":14,"strength":0.35}},{"name":"metal-dark","pbrMetallicRoughness":{"baseColorTexture":{"index":15},"metallicRoughnessTexture":{"index":17},"roughnessFactor":1,"metallicFactor":1},"normalTexture":{"index":16,"scale":0.35},"occlusionTexture":{"index":17,"strength":0.35}},{"name":"self-storage-complex signage","pbrMetallicRoughness":{"baseColorTexture":{"index":18},"roughnessFactor":1,"metallicFactor":0},"extensions":{"KHR_materials_unlit":{}}}],"textures":[{"source":0,"sampler":0},{"source":1,"sampler":0},{"source":2,"sampler":0},{"source":3,"sampler":0},{"source":4,"sampler":0},{"source":5,"sampler":0},{"source":6,"sampler":0},{"source":7,"sampler":0},{"source":8,"sampler":0},{"source":9,"sampler":0},{"source":10,"sampler":0},{"source":11,"sampler":0},{"source":12,"sampler":0},{"source":13,"sampler":0},{"source":14,"sampler":0},{"source":15,"sampler":0},{"source":16,"sampler":0},{"source":17,"sampler":0},{"source":18,"sampler":0}],"images":[{"uri":"../textures/asphalt-albedo.png"},{"uri":"../textures/asphalt-normal.png"},{"uri":"../textures/asphalt-orm.png"},{"uri":"../textures/metal-galvanized-albedo.png"},{"uri":"../textures/metal-galvanized-normal.png"},{"uri":"../textures/metal-galvanized-orm.png"},{"uri":"../textures/concrete-albedo.png"},{"uri":"../textures/concrete-normal.png"},{"uri":"../textures/concrete-orm.png"},{"uri":"../textures/stucco-ivory-albedo.png"},{"uri":"../textures/stucco-ivory-normal.png"},{"uri":"../textures/stucco-ivory-orm.png"},{"uri":"../textures/brick-cream-albedo.png"},{"uri":"../textures/brick-cream-normal.png"},{"uri":"../textures/brick-cream-orm.png"},{"uri":"../textures/metal-dark-albedo.png"},{"uri":"../textures/metal-dark-normal.png"},{"uri":"../textures/metal-dark-orm.png"},{"uri":"../signs/self-storage-complex.png"}],"samplers":[{"magFilter":9729,"minFilter":9987,"wrapS":10497,"wrapT":10497}],"buffers":[{"uri":"../shared/geometry.bin","byteLength":16435520}],"bufferViews":[{"buffer":0,"byteOffset":0,"byteLength":3888,"target":34962},{"buffer":0,"byteOffset":3888,"byteLength":3888,"target":34962},{"buffer":0,"byteOffset":12685164,"byteLength":2592,"target":34962},{"buffer":0,"byteOffset":12687756,"byteLength":2592,"target":34962},{"buffer":0,"byteOffset":12960,"byteLength":1200,"target":34962},{"buffer":0,"byteOffset":14160,"byteLength":1200,"target":34962},{"buffer":0,"byteOffset":150020,"byteLength":800,"target":34962},{"buffer":0,"byteOffset":16160,"byteLength":384,"target":34963},{"buffer":0,"byteOffset":162340,"byteLength":2592,"target":34962},{"buffer":0,"byteOffset":214084,"byteLength":2592,"target":34962},{"buffer":0,"byteOffset":208260,"byteLength":2592,"target":34962},{"buffer":0,"byteOffset":822696,"byteLength":3888,"target":34962},{"buffer":0,"byteOffset":12620460,"byteLength":2592,"target":34962},{"buffer":0,"byteOffset":12593868,"byteLength":2592,"target":34962},{"buffer":0,"byteOffset":12623052,"byteLength":2592,"target":34962},{"buffer":0,"byteOffset":868536,"byteLength":3888,"target":34962},{"buffer":0,"byteOffset":12599052,"byteLength":2592,"target":34962},{"buffer":0,"byteOffset":45664,"byteLength":288,"target":34962},{"buffer":0,"byteOffset":45952,"byteLength":288,"target":34962},{"buffer":0,"byteOffset":46240,"byteLength":192,"target":34962},{"buffer":0,"byteOffset":46432,"byteLength":72,"target":34963},{"buffer":0,"byteOffset":46504,"byteLength":48,"target":34962},{"buffer":0,"byteOffset":46552,"byteLength":48,"target":34962},{"buffer":0,"byteOffset":222756,"byteLength":32,"target":34962},{"buffer":0,"byteOffset":46632,"byteLength":12,"target":34963},{"buffer":0,"byteOffset":46644,"byteLength":288,"target":34962},{"buffer":0,"byteOffset":12690348,"byteLength":192,"target":34962},{"buffer":0,"byteOffset":12690540,"byteLength":192,"target":34962},{"buffer":0,"byteOffset":47316,"byteLength":480,"target":34962},{"buffer":0,"byteOffset":47796,"byteLength":480,"target":34962},{"buffer":0,"byteOffset":153636,"byteLength":320,"target":34962},{"buffer":0,"byteOffset":48596,"byteLength":144,"target":34963},{"buffer":0,"byteOffset":165156,"byteLength":192,"target":34962},{"buffer":0,"byteOffset":216708,"byteLength":192,"target":34962},{"buffer":0,"byteOffset":211076,"byteLength":192,"target":34962},{"buffer":0,"byteOffset":12626028,"byteLength":192,"target":34962},{"buffer":0,"byteOffset":12602220,"byteLength":192,"target":34962},{"buffer":0,"byteOffset":12626220,"byteLength":192,"target":34962},{"buffer":0,"byteOffset":12602604,"byteLength":192,"target":34962},{"buffer":0,"byteOffset":12602796,"byteLength":192,"target":34962},{"buffer":0,"byteOffset":12690732,"byteLength":192,"target":34962},{"buffer":0,"byteOffset":12626604,"byteLength":192,"target":34962},{"buffer":0,"byteOffset":12626796,"byteLength":192,"target":34962}],"accessors":[{"bufferView":0,"componentType":5126,"count":324,"type":"VEC3","min":[-0.5,-0.5,-0.5],"max":[0.5,0.5,0.5]},{"bufferView":1,"componentType":5126,"count":324,"type":"VEC3"},{"bufferView":2,"componentType":5126,"count":324,"type":"VEC2"},{"bufferView":3,"componentType":5126,"count":324,"type":"VEC2"},{"bufferView":4,"componentType":5126,"count":100,"type":"VEC3","min":[-1,-0.5,-1],"max":[1,0.5,1]},{"bufferView":5,"componentType":5126,"count":100,"type":"VEC3"},{"bufferView":6,"componentType":5126,"count":100,"type":"VEC2"},{"bufferView":7,"componentType":5123,"count":192,"type":"SCALAR"},{"bufferView":8,"componentType":5126,"count":324,"type":"VEC2"},{"bufferView":9,"componentType":5126,"count":324,"type":"VEC2"},{"bufferView":10,"componentType":5126,"count":324,"type":"VEC2"},{"bufferView":11,"componentType":5126,"count":324,"type":"VEC3","min":[-0.5,-0.5,-0.5],"max":[0.5,0.5,0.5]},{"bufferView":12,"componentType":5126,"count":324,"type":"VEC2"},{"bufferView":13,"componentType":5126,"count":324,"type":"VEC2"},{"bufferView":14,"componentType":5126,"count":324,"type":"VEC2"},{"bufferView":15,"componentType":5126,"count":324,"type":"VEC3","min":[-0.5,-0.5,-0.5],"max":[0.5,0.5,0.5]},{"bufferView":16,"componentType":5126,"count":324,"type":"VEC2"},{"bufferView":17,"componentType":5126,"count":24,"type":"VEC3","min":[-0.5,-0.5,-0.02500000037252903],"max":[0.5,0.5,0.02500000037252903]},{"bufferView":18,"componentType":5126,"count":24,"type":"VEC3"},{"bufferView":19,"componentType":5126,"count":24,"type":"VEC2"},{"bufferView":20,"componentType":5123,"count":36,"type":"SCALAR"},{"bufferView":21,"componentType":5126,"count":4,"type":"VEC3","min":[-0.5,-0.5,0],"max":[0.5,0.5,0]},{"bufferView":22,"componentType":5126,"count":4,"type":"VEC3"},{"bufferView":23,"componentType":5126,"count":4,"type":"VEC2"},{"bufferView":24,"componentType":5123,"count":6,"type":"SCALAR"},{"bufferView":25,"componentType":5126,"count":24,"type":"VEC3","min":[-0.5,-0.5,-0.5],"max":[0.5,0.5,0.5]},{"bufferView":26,"componentType":5126,"count":24,"type":"VEC2"},{"bufferView":27,"componentType":5126,"count":24,"type":"VEC2"},{"bufferView":28,"componentType":5126,"count":40,"type":"VEC3","min":[-0.8660253882408142,-0.5,-1],"max":[0.8660253882408142,0.5,1]},{"bufferView":29,"componentType":5126,"count":40,"type":"VEC3"},{"bufferView":30,"componentType":5126,"count":40,"type":"VEC2"},{"bufferView":31,"componentType":5123,"count":72,"type":"SCALAR"},{"bufferView":32,"componentType":5126,"count":24,"type":"VEC2"},{"bufferView":33,"componentType":5126,"count":24,"type":"VEC2"},{"bufferView":34,"componentType":5126,"count":24,"type":"VEC2"},{"bufferView":35,"componentType":5126,"count":24,"type":"VEC2"},{"bufferView":36,"componentType":5126,"count":24,"type":"VEC2"},{"bufferView":37,"componentType":5126,"count":24,"type":"VEC2"},{"bufferView":38,"componentType":5126,"count":24,"type":"VEC2"},{"bufferView":39,"componentType":5126,"count":24,"type":"VEC2"},{"bufferView":40,"componentType":5126,"count":24,"type":"VEC2"},{"bufferView":41,"componentType":5126,"count":24,"type":"VEC2"},{"bufferView":42,"componentType":5126,"count":24,"type":"VEC2"}],"extensionsUsed":["KHR_materials_unlit"],"extras":{"id":"vlt-self-storage-complex-33","family":"self-storage-complex","variant":32,"plan":"C3-2","units":"metres","up":"+Y","front":"+Z","lodScenes":[0,1,2]}}