{"asset":{"version":"2.0","generator":"SLOPMERICA Department of Unnecessary Development 1.0"},"scene":0,"scenes":[{"name":"LOD 0","nodes":[0,1,2,3,4,5,6,7,8,9,10,11,12,13,14,15,16,17],"extras":{"level":0}},{"name":"LOD 1","nodes":[18,19,20,21,22,23,24,25,26,27,28,29,30,31,32,33,34,35],"extras":{"level":1}},{"name":"LOD 2","nodes":[36,37,38,39,40,41,42,43,44],"extras":{"level":2}}],"nodes":[{"name":"surveyed lot","mesh":0,"translation":[0,0.06,0],"scale":[9.78016,0.12,13.1248]},{"name":"vinyl trailer","mesh":1,"translation":[0,1.55,0],"scale":[7.904,2.75,10.92]},{"name":"shallow roof","mesh":2,"translation":[0,3.04,0],"rotation":[0,0,-0.017499,0.999847],"scale":[8.204,0.28,11.27]},{"name":"front door","mesh":3,"translation":[-1.976,1.25,5.53],"scale":[0.95,2.05,0.12]},{"name":"window 1.8 0","mesh":4,"translation":[-2.964,1.8,5.535],"scale":[0.7,0.75,0.09]},{"name":"window 1.8 1","mesh":4,"translation":[-0.988,1.8,5.535],"scale":[0.7,0.75,0.09]},{"name":"window 1.8 2","mesh":4,"translation":[0.988,1.8,5.535],"scale":[0.7,0.75,0.09]},{"name":"window 1.8 3","mesh":4,"translation":[2.964,1.8,5.535],"scale":[0.7,0.75,0.09]},{"name":"post -3.652 0","mesh":5,"translation":[-3.652,0.675,6.46],"scale":[0.16,1.35,0.16]},{"name":"post -3.652 1","mesh":5,"translation":[0.3,0.675,6.46],"scale":[0.16,1.35,0.16]},{"name":"post -3.652 2","mesh":5,"translation":[4.252,0.675,6.46],"scale":[0.16,1.35,0.16]},{"name":"front steps","mesh":6,"translation":[-1.976,0.22,6.16],"scale":[1.7,0.44,1.05]},{"name":"marriage seam","mesh":7,"translation":[0,1.55,0],"scale":[0.08,2.4,10.4]},{"name":"screen porch floor","mesh":8,"translation":[-1.2,0.45,6.2],"scale":[4.8,0.18,2.5]},{"name":"post 0.8 0","mesh":9,"translation":[0.8,1.175,6.2],"scale":[0.16,2.35,0.16]},{"name":"post 0.8 1","mesh":9,"translation":[-0.5,1.175,6.2],"scale":[0.16,2.35,0.16]},{"name":"post 0.8 2","mesh":9,"translation":[-1.8,1.175,6.2],"scale":[0.16,2.35,0.16]},{"name":"post 0.8 3","mesh":9,"translation":[-3.1,1.175,6.2],"scale":[0.16,2.35,0.16]},{"name":"surveyed lot","mesh":10,"translation":[0,0.06,0],"scale":[9.78016,0.12,13.1248]},{"name":"vinyl trailer","mesh":11,"translation":[0,1.55,0],"scale":[7.904,2.75,10.92]},{"name":"shallow roof","mesh":12,"translation":[0,3.04,0],"rotation":[0,0,-0.017499,0.999847],"scale":[8.204,0.28,11.27]},{"name":"front door","mesh":13,"translation":[-1.976,1.25,5.53],"scale":[0.95,2.05,0.12]},{"name":"window 1.8 0","mesh":14,"translation":[-2.964,1.8,5.535],"scale":[0.7,0.75,0.09]},{"name":"window 1.8 1","mesh":14,"translation":[-0.988,1.8,5.535],"scale":[0.7,0.75,0.09]},{"name":"window 1.8 2","mesh":14,"translation":[0.988,1.8,5.535],"scale":[0.7,0.75,0.09]},{"name":"window 1.8 3","mesh":14,"translation":[2.964,1.8,5.535],"scale":[0.7,0.75,0.09]},{"name":"post -3.652 0","mesh":15,"translation":[-3.652,0.675,6.46],"scale":[0.16,1.35,0.16]},{"name":"post -3.652 1","mesh":15,"translation":[0.3,0.675,6.46],"scale":[0.16,1.35,0.16]},{"name":"post -3.652 2","mesh":15,"translation":[4.252,0.675,6.46],"scale":[0.16,1.35,0.16]},{"name":"front steps","mesh":16,"translation":[-1.976,0.22,6.16],"scale":[1.7,0.44,1.05]},{"name":"marriage seam","mesh":17,"translation":[0,1.55,0],"scale":[0.08,2.4,10.4]},{"name":"screen porch floor","mesh":18,"translation":[-1.2,0.45,6.2],"scale":[4.8,0.18,2.5]},{"name":"post 0.8 0","mesh":19,"translation":[0.8,1.175,6.2],"scale":[0.16,2.35,0.16]},{"name":"post 0.8 1","mesh":19,"translation":[-0.5,1.175,6.2],"scale":[0.16,2.35,0.16]},{"name":"post 0.8 2","mesh":19,"translation":[-1.8,1.175,6.2],"scale":[0.16,2.35,0.16]},{"name":"post 0.8 3","mesh":19,"translation":[-3.1,1.175,6.2],"scale":[0.16,2.35,0.16]},{"name":"surveyed lot","mesh":10,"translation":[0,0.06,0],"scale":[9.78016,0.12,13.1248]},{"name":"vinyl trailer","mesh":11,"translation":[0,1.55,0],"scale":[7.904,2.75,10.92]},{"name":"shallow roof","mesh":12,"translation":[0,3.04,0],"rotation":[0,0,-0.017499,0.999847],"scale":[8.204,0.28,11.27]},{"name":"front door","mesh":13,"translation":[-1.976,1.25,5.53],"scale":[0.95,2.05,0.12]},{"name":"window 1.8 0","mesh":14,"translation":[-2.964,1.8,5.535],"scale":[0.7,0.75,0.09]},{"name":"window 1.8 1","mesh":14,"translation":[-0.988,1.8,5.535],"scale":[0.7,0.75,0.09]},{"name":"window 1.8 2","mesh":14,"translation":[0.988,1.8,5.535],"scale":[0.7,0.75,0.09]},{"name":"window 1.8 3","mesh":14,"translation":[2.964,1.8,5.535],"scale":[0.7,0.75,0.09]},{"name":"marriage seam","mesh":17,"translation":[0,1.55,0],"scale":[0.08,2.4,10.4]}],"meshes":[{"primitives":[{"attributes":{"POSITION":0,"NORMAL":1,"TEXCOORD_0":2},"material":0,"mode":4}]},{"primitives":[{"attributes":{"POSITION":0,"NORMAL":1,"TEXCOORD_0":3},"material":1,"mode":4}]},{"primitives":[{"attributes":{"POSITION":0,"NORMAL":1,"TEXCOORD_0":4},"material":2,"mode":4}]},{"primitives":[{"attributes":{"POSITION":0,"NORMAL":1,"TEXCOORD_0":5},"material":3,"mode":4}]},{"primitives":[{"attributes":{"POSITION":0,"NORMAL":1,"TEXCOORD_0":6},"material":4,"mode":4}]},{"primitives":[{"attributes":{"POSITION":0,"NORMAL":1,"TEXCOORD_0":7},"material":5,"mode":4}]},{"primitives":[{"attributes":{"POSITION":0,"NORMAL":1,"TEXCOORD_0":8},"material":6,"mode":4}]},{"primitives":[{"attributes":{"POSITION":0,"NORMAL":1,"TEXCOORD_0":9},"material":7,"mode":4}]},{"primitives":[{"attributes":{"POSITION":0,"NORMAL":1,"TEXCOORD_0":10},"material":6,"mode":4}]},{"primitives":[{"attributes":{"POSITION":0,"NORMAL":1,"TEXCOORD_0":11},"material":5,"mode":4}]},{"primitives":[{"attributes":{"POSITION":12,"NORMAL":13,"TEXCOORD_0":14},"material":0,"mode":4,"indices":15}]},{"primitives":[{"attributes":{"POSITION":12,"NORMAL":13,"TEXCOORD_0":16},"material":1,"mode":4,"indices":15}]},{"primitives":[{"attributes":{"POSITION":12,"NORMAL":13,"TEXCOORD_0":17},"material":2,"mode":4,"indices":15}]},{"primitives":[{"attributes":{"POSITION":12,"NORMAL":13,"TEXCOORD_0":18},"material":3,"mode":4,"indices":15}]},{"primitives":[{"attributes":{"POSITION":12,"NORMAL":13,"TEXCOORD_0":19},"material":4,"mode":4,"indices":15}]},{"primitives":[{"attributes":{"POSITION":12,"NORMAL":13,"TEXCOORD_0":20},"material":5,"mode":4,"indices":15}]},{"primitives":[{"attributes":{"POSITION":12,"NORMAL":13,"TEXCOORD_0":21},"material":6,"mode":4,"indices":15}]},{"primitives":[{"attributes":{"POSITION":12,"NORMAL":13,"TEXCOORD_0":22},"material":7,"mode":4,"indices":15}]},{"primitives":[{"attributes":{"POSITION":12,"NORMAL":13,"TEXCOORD_0":23},"material":6,"mode":4,"indices":15}]},{"primitives":[{"attributes":{"POSITION":12,"NORMAL":13,"TEXCOORD_0":24},"material":5,"mode":4,"indices":15}]}],"materials":[{"name":"concrete","pbrMetallicRoughness":{"baseColorTexture":{"index":0},"metallicRoughnessTexture":{"index":2},"roughnessFactor":1,"metallicFactor":1},"normalTexture":{"index":1,"scale":0.82},"occlusionTexture":{"index":2,"strength":0.35}},{"name":"paint-white","pbrMetallicRoughness":{"baseColorFactor":[0.7912979403281551,0.7681511472425809,0.6795424696265424,1],"roughnessFactor":0.68,"metallicFactor":0}},{"name":"roof-metal","pbrMetallicRoughness":{"baseColorTexture":{"index":3},"metallicRoughnessTexture":{"index":5},"roughnessFactor":1,"metallicFactor":1},"normalTexture":{"index":4,"scale":0.68},"occlusionTexture":{"index":5,"strength":0.35}},{"name":"paint-teal","pbrMetallicRoughness":{"baseColorFactor":[0.040915196900556984,0.20507873637973145,0.1878207722902346,1],"roughnessFactor":0.59,"metallicFactor":0.05}},{"name":"glass-blue","pbrMetallicRoughness":{"baseColorTexture":{"index":6},"metallicRoughnessTexture":{"index":8},"roughnessFactor":1,"metallicFactor":1},"normalTexture":{"index":7,"scale":0.12},"occlusionTexture":{"index":8,"strength":0.35}},{"name":"wood-painted","pbrMetallicRoughness":{"baseColorTexture":{"index":9},"metallicRoughnessTexture":{"index":11},"roughnessFactor":1,"metallicFactor":1},"normalTexture":{"index":10,"scale":0.55},"occlusionTexture":{"index":11,"strength":0.35}},{"name":"wood-oak","pbrMetallicRoughness":{"baseColorTexture":{"index":12},"metallicRoughnessTexture":{"index":14},"roughnessFactor":1,"metallicFactor":1},"normalTexture":{"index":13,"scale":1},"occlusionTexture":{"index":14,"strength":0.35}},{"name":"metal-galvanized","pbrMetallicRoughness":{"baseColorTexture":{"index":15},"metallicRoughnessTexture":{"index":17},"roughnessFactor":1,"metallicFactor":1},"normalTexture":{"index":16,"scale":0.15},"occlusionTexture":{"index":17,"strength":0.35}}],"textures":[{"source":0,"sampler":0},{"source":1,"sampler":0},{"source":2,"sampler":0},{"source":3,"sampler":0},{"source":4,"sampler":0},{"source":5,"sampler":0},{"source":6,"sampler":0},{"source":7,"sampler":0},{"source":8,"sampler":0},{"source":9,"sampler":0},{"source":10,"sampler":0},{"source":11,"sampler":0},{"source":12,"sampler":0},{"source":13,"sampler":0},{"source":14,"sampler":0},{"source":15,"sampler":0},{"source":16,"sampler":0},{"source":17,"sampler":0}],"images":[{"uri":"../textures/concrete-albedo.png"},{"uri":"../textures/concrete-normal.png"},{"uri":"../textures/concrete-orm.png"},{"uri":"../textures/roof-metal-albedo.png"},{"uri":"../textures/roof-metal-normal.png"},{"uri":"../textures/roof-metal-orm.png"},{"uri":"../textures/glass-blue-albedo.png"},{"uri":"../textures/glass-blue-normal.png"},{"uri":"../textures/glass-blue-orm.png"},{"uri":"../textures/wood-painted-albedo.png"},{"uri":"../textures/wood-painted-normal.png"},{"uri":"../textures/wood-painted-orm.png"},{"uri":"../textures/wood-oak-albedo.png"},{"uri":"../textures/wood-oak-normal.png"},{"uri":"../textures/wood-oak-orm.png"},{"uri":"../textures/metal-galvanized-albedo.png"},{"uri":"../textures/metal-galvanized-normal.png"},{"uri":"../textures/metal-galvanized-orm.png"}],"samplers":[{"magFilter":9729,"minFilter":9987,"wrapS":10497,"wrapT":10497}],"buffers":[{"uri":"../shared/geometry.bin","byteLength":16435520}],"bufferViews":[{"buffer":0,"byteOffset":0,"byteLength":3888,"target":34962},{"buffer":0,"byteOffset":3888,"byteLength":3888,"target":34962},{"buffer":0,"byteOffset":4267248,"byteLength":2592,"target":34962},{"buffer":0,"byteOffset":4269840,"byteLength":2592,"target":34962},{"buffer":0,"byteOffset":4272432,"byteLength":2592,"target":34962},{"buffer":0,"byteOffset":4233264,"byteLength":2592,"target":34962},{"buffer":0,"byteOffset":4235856,"byteLength":2592,"target":34962},{"buffer":0,"byteOffset":4238448,"byteLength":2592,"target":34962},{"buffer":0,"byteOffset":4275024,"byteLength":2592,"target":34962},{"buffer":0,"byteOffset":4277616,"byteLength":2592,"target":34962},{"buffer":0,"byteOffset":4246224,"byteLength":2592,"target":34962},{"buffer":0,"byteOffset":4248816,"byteLength":2592,"target":34962},{"buffer":0,"byteOffset":46644,"byteLength":288,"target":34962},{"buffer":0,"byteOffset":45952,"byteLength":288,"target":34962},{"buffer":0,"byteOffset":4280208,"byteLength":192,"target":34962},{"buffer":0,"byteOffset":46432,"byteLength":72,"target":34963},{"buffer":0,"byteOffset":4280400,"byteLength":192,"target":34962},{"buffer":0,"byteOffset":4280592,"byteLength":192,"target":34962},{"buffer":0,"byteOffset":4251984,"byteLength":192,"target":34962},{"buffer":0,"byteOffset":4252176,"byteLength":192,"target":34962},{"buffer":0,"byteOffset":4252368,"byteLength":192,"target":34962},{"buffer":0,"byteOffset":4280784,"byteLength":192,"target":34962},{"buffer":0,"byteOffset":4280976,"byteLength":192,"target":34962},{"buffer":0,"byteOffset":4252944,"byteLength":192,"target":34962},{"buffer":0,"byteOffset":4253136,"byteLength":192,"target":34962}],"accessors":[{"bufferView":0,"componentType":5126,"count":324,"type":"VEC3","min":[-0.5,-0.5,-0.5],"max":[0.5,0.5,0.5]},{"bufferView":1,"componentType":5126,"count":324,"type":"VEC3"},{"bufferView":2,"componentType":5126,"count":324,"type":"VEC2"},{"bufferView":3,"componentType":5126,"count":324,"type":"VEC2"},{"bufferView":4,"componentType":5126,"count":324,"type":"VEC2"},{"bufferView":5,"componentType":5126,"count":324,"type":"VEC2"},{"bufferView":6,"componentType":5126,"count":324,"type":"VEC2"},{"bufferView":7,"componentType":5126,"count":324,"type":"VEC2"},{"bufferView":8,"componentType":5126,"count":324,"type":"VEC2"},{"bufferView":9,"componentType":5126,"count":324,"type":"VEC2"},{"bufferView":10,"componentType":5126,"count":324,"type":"VEC2"},{"bufferView":11,"componentType":5126,"count":324,"type":"VEC2"},{"bufferView":12,"componentType":5126,"count":24,"type":"VEC3","min":[-0.5,-0.5,-0.5],"max":[0.5,0.5,0.5]},{"bufferView":13,"componentType":5126,"count":24,"type":"VEC3"},{"bufferView":14,"componentType":5126,"count":24,"type":"VEC2"},{"bufferView":15,"componentType":5123,"count":36,"type":"SCALAR"},{"bufferView":16,"componentType":5126,"count":24,"type":"VEC2"},{"bufferView":17,"componentType":5126,"count":24,"type":"VEC2"},{"bufferView":18,"componentType":5126,"count":24,"type":"VEC2"},{"bufferView":19,"componentType":5126,"count":24,"type":"VEC2"},{"bufferView":20,"componentType":5126,"count":24,"type":"VEC2"},{"bufferView":21,"componentType":5126,"count":24,"type":"VEC2"},{"bufferView":22,"componentType":5126,"count":24,"type":"VEC2"},{"bufferView":23,"componentType":5126,"count":24,"type":"VEC2"},{"bufferView":24,"componentType":5126,"count":24,"type":"VEC2"}],"extensionsUsed":["KHR_materials_unlit"],"extras":{"id":"vlt-double-wide-03","family":"double-wide","variant":2,"plan":"A3-1","units":"metres","up":"+Y","front":"+Z","lodScenes":[0,1,2]}}