{"asset":{"version":"2.0","generator":"SLOPMERICA Department of Unnecessary Development 1.0"},"scene":0,"scenes":[{"name":"LOD 0","nodes":[0,1,2,3,4,5,6,7,8,9,10,11,12,13,14,15,16,17,18,19,20,21,22,23,24,25,26,27,28,29,30,31,32,33],"extras":{"level":0}},{"name":"LOD 1","nodes":[34,35,36,37,38,39,40,41,42,43,44,45,46,47,48],"extras":{"level":1}},{"name":"LOD 2","nodes":[49,50,51,52,53,54,55,56,57,58,59],"extras":{"level":2}}],"nodes":[{"name":"foundation","mesh":0,"translation":[0,0.08,0],"scale":[16.76,0.16,9.585]},{"name":"locker-wall","mesh":1,"translation":[0,2.3751,0],"scale":[14.56,4.7502,2.6586]},{"name":"locker-0-0","mesh":2,"translation":[-6.471111,0.8793,1.50315],"scale":[1.517778,1.1586,0.18]},{"name":"locker-0-1","mesh":3,"translation":[-4.853333,0.8793,1.50315],"scale":[1.517778,1.1586,0.18]},{"name":"locker-0-2","mesh":4,"translation":[-3.235556,0.8793,1.50315],"scale":[1.517778,1.1586,0.18]},{"name":"locker-0-3","mesh":2,"translation":[-1.617778,0.8793,1.50315],"scale":[1.517778,1.1586,0.18]},{"name":"locker-0-4","mesh":3,"translation":[0,0.8793,1.50315],"scale":[1.517778,1.1586,0.18]},{"name":"locker-0-5","mesh":4,"translation":[1.617778,0.8793,1.50315],"scale":[1.517778,1.1586,0.18]},{"name":"locker-0-6","mesh":2,"translation":[3.235556,0.8793,1.50315],"scale":[1.517778,1.1586,0.18]},{"name":"locker-0-7","mesh":3,"translation":[4.853333,0.8793,1.50315],"scale":[1.517778,1.1586,0.18]},{"name":"locker-0-8","mesh":4,"translation":[6.471111,0.8793,1.50315],"scale":[1.517778,1.1586,0.18]},{"name":"locker-1-0","mesh":3,"translation":[-6.471111,2.1379,1.50315],"scale":[1.517778,1.1586,0.18]},{"name":"locker-1-1","mesh":4,"translation":[-4.853333,2.1379,1.50315],"scale":[1.517778,1.1586,0.18]},{"name":"locker-1-2","mesh":2,"translation":[-3.235556,2.1379,1.50315],"scale":[1.517778,1.1586,0.18]},{"name":"locker-1-3","mesh":3,"translation":[-1.617778,2.1379,1.50315],"scale":[1.517778,1.1586,0.18]},{"name":"locker-1-4","mesh":4,"translation":[0,2.1379,1.50315],"scale":[1.517778,1.1586,0.18]},{"name":"locker-1-5","mesh":2,"translation":[1.617778,2.1379,1.50315],"scale":[1.517778,1.1586,0.18]},{"name":"locker-1-6","mesh":3,"translation":[3.235556,2.1379,1.50315],"scale":[1.517778,1.1586,0.18]},{"name":"locker-1-7","mesh":4,"translation":[4.853333,2.1379,1.50315],"scale":[1.517778,1.1586,0.18]},{"name":"locker-1-8","mesh":2,"translation":[6.471111,2.1379,1.50315],"scale":[1.517778,1.1586,0.18]},{"name":"locker-2-0","mesh":4,"translation":[-6.471111,3.3965,1.50315],"scale":[1.517778,1.1586,0.18]},{"name":"locker-2-1","mesh":2,"translation":[-4.853333,3.3965,1.50315],"scale":[1.517778,1.1586,0.18]},{"name":"locker-2-2","mesh":3,"translation":[-3.235556,3.3965,1.50315],"scale":[1.517778,1.1586,0.18]},{"name":"locker-2-3","mesh":4,"translation":[-1.617778,3.3965,1.50315],"scale":[1.517778,1.1586,0.18]},{"name":"locker-2-4","mesh":2,"translation":[0,3.3965,1.50315],"scale":[1.517778,1.1586,0.18]},{"name":"locker-2-5","mesh":3,"translation":[1.617778,3.3965,1.50315],"scale":[1.517778,1.1586,0.18]},{"name":"locker-2-6","mesh":4,"translation":[3.235556,3.3965,1.50315],"scale":[1.517778,1.1586,0.18]},{"name":"locker-2-7","mesh":2,"translation":[4.853333,3.3965,1.50315],"scale":[1.517778,1.1586,0.18]},{"name":"locker-2-8","mesh":3,"translation":[6.471111,3.3965,1.50315],"scale":[1.517778,1.1586,0.18]},{"name":"parcel-eye","mesh":5,"translation":[5.2416,6.3945,0],"rotation":[0.707107,0,0,0.707107],"scale":[0.9,0.7,0.9]},{"name":"parcel-eye-lens","mesh":6,"translation":[5.2416,6.3945,2.2155],"scale":[0.32,0.32,0.18]},{"name":"roof-left","mesh":7,"translation":[-3.4293,4.9938,0],"rotation":[0,0,0.188859,0.982004],"scale":[8.2005,0.22,4.4333]},{"name":"roof-right","mesh":7,"translation":[3.4293,4.9938,0],"rotation":[0,0,-0.188859,0.982004],"scale":[8.2005,0.22,4.4333]},{"name":"open-state-bollard","mesh":8,"translation":[6.2608,0.425,4.1356],"scale":[0.22,0.85,0.22]},{"name":"foundation","mesh":9,"translation":[0,0.08,0],"scale":[16.76,0.16,9.585]},{"name":"locker-wall","mesh":10,"translation":[0,2.3751,0],"scale":[14.56,4.7502,2.6586]},{"name":"locker-0-0","mesh":11,"translation":[-5.46,1.19395,1.50315],"scale":[3.54,1.7879,0.18]},{"name":"locker-0-1","mesh":12,"translation":[-1.82,1.19395,1.50315],"scale":[3.54,1.7879,0.18]},{"name":"locker-0-2","mesh":13,"translation":[1.82,1.19395,1.50315],"scale":[3.54,1.7879,0.18]},{"name":"locker-0-3","mesh":11,"translation":[5.46,1.19395,1.50315],"scale":[3.54,1.7879,0.18]},{"name":"locker-1-0","mesh":12,"translation":[-5.46,3.08185,1.50315],"scale":[3.54,1.7879,0.18]},{"name":"locker-1-1","mesh":13,"translation":[-1.82,3.08185,1.50315],"scale":[3.54,1.7879,0.18]},{"name":"locker-1-2","mesh":11,"translation":[1.82,3.08185,1.50315],"scale":[3.54,1.7879,0.18]},{"name":"locker-1-3","mesh":12,"translation":[5.46,3.08185,1.50315],"scale":[3.54,1.7879,0.18]},{"name":"parcel-eye","mesh":14,"translation":[5.2416,6.3945,0],"rotation":[0.707107,0,0,0.707107],"scale":[0.9,0.7,0.9]},{"name":"parcel-eye-lens","mesh":15,"translation":[5.2416,6.3945,2.2155],"scale":[0.32,0.32,0.18]},{"name":"roof-left","mesh":16,"translation":[-3.4293,4.9938,0],"rotation":[0,0,0.188859,0.982004],"scale":[8.2005,0.22,4.4333]},{"name":"roof-right","mesh":16,"translation":[3.4293,4.9938,0],"rotation":[0,0,-0.188859,0.982004],"scale":[8.2005,0.22,4.4333]},{"name":"open-state-bollard","mesh":17,"translation":[6.2608,0.425,4.1356],"scale":[0.22,0.85,0.22]},{"name":"foundation","mesh":9,"translation":[0,0.08,0],"scale":[16.76,0.16,9.585]},{"name":"locker-wall","mesh":10,"translation":[0,2.3751,0],"scale":[14.56,4.7502,2.6586]},{"name":"locker-0-0","mesh":18,"translation":[-3.64,1.19395,1.50315],"scale":[7.18,1.7879,0.18]},{"name":"locker-0-1","mesh":19,"translation":[3.64,1.19395,1.50315],"scale":[7.18,1.7879,0.18]},{"name":"locker-1-0","mesh":19,"translation":[-3.64,3.08185,1.50315],"scale":[7.18,1.7879,0.18]},{"name":"locker-1-1","mesh":20,"translation":[3.64,3.08185,1.50315],"scale":[7.18,1.7879,0.18]},{"name":"parcel-eye","mesh":14,"translation":[5.2416,6.3945,0],"rotation":[0.707107,0,0,0.707107],"scale":[0.9,0.7,0.9]},{"name":"parcel-eye-lens","mesh":21,"translation":[5.2416,6.3945,2.2155],"scale":[0.32,0.32,0.18]},{"name":"roof-left","mesh":16,"translation":[-3.4293,4.9938,0],"rotation":[0,0,0.188859,0.982004],"scale":[8.2005,0.22,4.4333]},{"name":"roof-right","mesh":16,"translation":[3.4293,4.9938,0],"rotation":[0,0,-0.188859,0.982004],"scale":[8.2005,0.22,4.4333]},{"name":"open-state-bollard","mesh":17,"translation":[6.2608,0.425,4.1356],"scale":[0.22,0.85,0.22]}],"meshes":[{"primitives":[{"attributes":{"POSITION":0,"NORMAL":1,"TEXCOORD_0":2},"material":0,"mode":4}]},{"primitives":[{"attributes":{"POSITION":3,"NORMAL":1,"TEXCOORD_0":4},"material":1,"mode":4}]},{"primitives":[{"attributes":{"POSITION":0,"NORMAL":1,"TEXCOORD_0":5},"material":2,"mode":4}]},{"primitives":[{"attributes":{"POSITION":0,"NORMAL":1,"TEXCOORD_0":5},"material":3,"mode":4}]},{"primitives":[{"attributes":{"POSITION":0,"NORMAL":1,"TEXCOORD_0":5},"material":4,"mode":4}]},{"primitives":[{"attributes":{"POSITION":6,"NORMAL":7,"TEXCOORD_0":8},"material":2,"mode":4,"indices":9}]},{"primitives":[{"attributes":{"POSITION":10,"NORMAL":10,"TEXCOORD_0":11},"material":5,"mode":4,"indices":12}]},{"primitives":[{"attributes":{"POSITION":0,"NORMAL":1,"TEXCOORD_0":13},"material":6,"mode":4}]},{"primitives":[{"attributes":{"POSITION":0,"NORMAL":1,"TEXCOORD_0":14},"material":2,"mode":4}]},{"primitives":[{"attributes":{"POSITION":15,"NORMAL":16,"TEXCOORD_0":17},"material":0,"mode":4,"indices":18}]},{"primitives":[{"attributes":{"POSITION":15,"NORMAL":16,"TEXCOORD_0":19},"material":1,"mode":4,"indices":18}]},{"primitives":[{"attributes":{"POSITION":15,"NORMAL":16,"TEXCOORD_0":20},"material":2,"mode":4,"indices":18}]},{"primitives":[{"attributes":{"POSITION":15,"NORMAL":16,"TEXCOORD_0":20},"material":3,"mode":4,"indices":18}]},{"primitives":[{"attributes":{"POSITION":15,"NORMAL":16,"TEXCOORD_0":20},"material":4,"mode":4,"indices":18}]},{"primitives":[{"attributes":{"POSITION":21,"NORMAL":22,"TEXCOORD_0":23},"material":2,"mode":4,"indices":24}]},{"primitives":[{"attributes":{"POSITION":25,"NORMAL":25,"TEXCOORD_0":26},"material":5,"mode":4,"indices":27}]},{"primitives":[{"attributes":{"POSITION":15,"NORMAL":16,"TEXCOORD_0":28},"material":6,"mode":4,"indices":18}]},{"primitives":[{"attributes":{"POSITION":15,"NORMAL":16,"TEXCOORD_0":29},"material":2,"mode":4,"indices":18}]},{"primitives":[{"attributes":{"POSITION":15,"NORMAL":16,"TEXCOORD_0":30},"material":2,"mode":4,"indices":18}]},{"primitives":[{"attributes":{"POSITION":15,"NORMAL":16,"TEXCOORD_0":30},"material":3,"mode":4,"indices":18}]},{"primitives":[{"attributes":{"POSITION":15,"NORMAL":16,"TEXCOORD_0":30},"material":4,"mode":4,"indices":18}]},{"primitives":[{"attributes":{"POSITION":31,"NORMAL":31,"TEXCOORD_0":32},"material":5,"mode":4,"indices":33}]}],"materials":[{"name":"concrete","pbrMetallicRoughness":{"baseColorTexture":{"index":0},"metallicRoughnessTexture":{"index":2},"roughnessFactor":1,"metallicFactor":1},"normalTexture":{"index":1,"scale":0.82},"occlusionTexture":{"index":2,"strength":0.35}},{"name":"metal-dark","pbrMetallicRoughness":{"baseColorTexture":{"index":3},"metallicRoughnessTexture":{"index":5},"roughnessFactor":1,"metallicFactor":1},"normalTexture":{"index":4,"scale":0.35},"occlusionTexture":{"index":5,"strength":0.35}},{"name":"paint-yellow","pbrMetallicRoughness":{"baseColorFactor":[0.76052450467022,0.4793201830913402,0.07818742179702069,1],"roughnessFactor":0.66,"metallicFactor":0.03}},{"name":"paint-teal","pbrMetallicRoughness":{"baseColorFactor":[0.040915196900556984,0.20507873637973145,0.1878207722902346,1],"roughnessFactor":0.59,"metallicFactor":0.05}},{"name":"paint-orange","pbrMetallicRoughness":{"baseColorFactor":[0.6444796819634361,0.1878207722902346,0.040915196900556984,1],"roughnessFactor":0.68,"metallicFactor":0.03}},{"name":"glass-blue","pbrMetallicRoughness":{"baseColorTexture":{"index":6},"metallicRoughnessTexture":{"index":8},"roughnessFactor":1,"metallicFactor":1},"normalTexture":{"index":7,"scale":0.12},"occlusionTexture":{"index":8,"strength":0.35}},{"name":"roof-metal","pbrMetallicRoughness":{"baseColorTexture":{"index":9},"metallicRoughnessTexture":{"index":11},"roughnessFactor":1,"metallicFactor":1},"normalTexture":{"index":10,"scale":0.68},"occlusionTexture":{"index":11,"strength":0.35}}],"textures":[{"source":0,"sampler":0},{"source":1,"sampler":0},{"source":2,"sampler":0},{"source":3,"sampler":0},{"source":4,"sampler":0},{"source":5,"sampler":0},{"source":6,"sampler":0},{"source":7,"sampler":0},{"source":8,"sampler":0},{"source":9,"sampler":0},{"source":10,"sampler":0},{"source":11,"sampler":0}],"images":[{"uri":"../textures/concrete-albedo.png"},{"uri":"../textures/concrete-normal.png"},{"uri":"../textures/concrete-orm.png"},{"uri":"../textures/metal-dark-albedo.png"},{"uri":"../textures/metal-dark-normal.png"},{"uri":"../textures/metal-dark-orm.png"},{"uri":"../textures/glass-blue-albedo.png"},{"uri":"../textures/glass-blue-normal.png"},{"uri":"../textures/glass-blue-orm.png"},{"uri":"../textures/roof-metal-albedo.png"},{"uri":"../textures/roof-metal-normal.png"},{"uri":"../textures/roof-metal-orm.png"}],"samplers":[{"magFilter":9729,"minFilter":9987,"wrapS":10497,"wrapT":10497}],"buffers":[{"uri":"../shared/geometry.bin","byteLength":16435520}],"bufferViews":[{"buffer":0,"byteOffset":0,"byteLength":3888,"target":34962},{"buffer":0,"byteOffset":3888,"byteLength":3888,"target":34962},{"buffer":0,"byteOffset":10851568,"byteLength":2592,"target":34962},{"buffer":0,"byteOffset":693144,"byteLength":3888,"target":34962},{"buffer":0,"byteOffset":10854160,"byteLength":2592,"target":34962},{"buffer":0,"byteOffset":10725520,"byteLength":2592,"target":34962},{"buffer":0,"byteOffset":10686864,"byteLength":912,"target":34962},{"buffer":0,"byteOffset":10687776,"byteLength":912,"target":34962},{"buffer":0,"byteOffset":10688688,"byteLength":608,"target":34962},{"buffer":0,"byteOffset":387284,"byteLength":288,"target":34963},{"buffer":0,"byteOffset":6080864,"byteLength":3276,"target":34962},{"buffer":0,"byteOffset":10689296,"byteLength":2184,"target":34962},{"buffer":0,"byteOffset":6086324,"byteLength":2640,"target":34963},{"buffer":0,"byteOffset":10856752,"byteLength":2592,"target":34962},{"buffer":0,"byteOffset":422312,"byteLength":2592,"target":34962},{"buffer":0,"byteOffset":46644,"byteLength":288,"target":34962},{"buffer":0,"byteOffset":45952,"byteLength":288,"target":34962},{"buffer":0,"byteOffset":10859344,"byteLength":192,"target":34962},{"buffer":0,"byteOffset":46432,"byteLength":72,"target":34963},{"buffer":0,"byteOffset":10859536,"byteLength":192,"target":34962},{"buffer":0,"byteOffset":10731088,"byteLength":192,"target":34962},{"buffer":0,"byteOffset":10694648,"byteLength":480,"target":34962},{"buffer":0,"byteOffset":10695128,"byteLength":480,"target":34962},{"buffer":0,"byteOffset":10695608,"byteLength":320,"target":34962},{"buffer":0,"byteOffset":48596,"byteLength":144,"target":34963},{"buffer":0,"byteOffset":6096692,"byteLength":1404,"target":34962},{"buffer":0,"byteOffset":10695928,"byteLength":936,"target":34962},{"buffer":0,"byteOffset":6099032,"byteLength":1008,"target":34963},{"buffer":0,"byteOffset":10859728,"byteLength":192,"target":34962},{"buffer":0,"byteOffset":436936,"byteLength":192,"target":34962},{"buffer":0,"byteOffset":10731472,"byteLength":192,"target":34962},{"buffer":0,"byteOffset":6871440,"byteLength":648,"target":34962},{"buffer":0,"byteOffset":10697248,"byteLength":432,"target":34962},{"buffer":0,"byteOffset":6872520,"byteLength":384,"target":34963}],"accessors":[{"bufferView":0,"componentType":5126,"count":324,"type":"VEC3","min":[-0.5,-0.5,-0.5],"max":[0.5,0.5,0.5]},{"bufferView":1,"componentType":5126,"count":324,"type":"VEC3"},{"bufferView":2,"componentType":5126,"count":324,"type":"VEC2"},{"bufferView":3,"componentType":5126,"count":324,"type":"VEC3","min":[-0.5,-0.5,-0.5],"max":[0.5,0.5,0.5]},{"bufferView":4,"componentType":5126,"count":324,"type":"VEC2"},{"bufferView":5,"componentType":5126,"count":324,"type":"VEC2"},{"bufferView":6,"componentType":5126,"count":76,"type":"VEC3","min":[-1,-0.5,-1],"max":[1,0.5,1]},{"bufferView":7,"componentType":5126,"count":76,"type":"VEC3"},{"bufferView":8,"componentType":5126,"count":76,"type":"VEC2"},{"bufferView":9,"componentType":5123,"count":144,"type":"SCALAR"},{"bufferView":10,"componentType":5126,"count":273,"type":"VEC3","min":[-1,-1,-1],"max":[1,1,1]},{"bufferView":11,"componentType":5126,"count":273,"type":"VEC2"},{"bufferView":12,"componentType":5123,"count":1320,"type":"SCALAR"},{"bufferView":13,"componentType":5126,"count":324,"type":"VEC2"},{"bufferView":14,"componentType":5126,"count":324,"type":"VEC2"},{"bufferView":15,"componentType":5126,"count":24,"type":"VEC3","min":[-0.5,-0.5,-0.5],"max":[0.5,0.5,0.5]},{"bufferView":16,"componentType":5126,"count":24,"type":"VEC3"},{"bufferView":17,"componentType":5126,"count":24,"type":"VEC2"},{"bufferView":18,"componentType":5123,"count":36,"type":"SCALAR"},{"bufferView":19,"componentType":5126,"count":24,"type":"VEC2"},{"bufferView":20,"componentType":5126,"count":24,"type":"VEC2"},{"bufferView":21,"componentType":5126,"count":40,"type":"VEC3","min":[-0.8660253882408142,-0.5,-1],"max":[0.8660253882408142,0.5,1]},{"bufferView":22,"componentType":5126,"count":40,"type":"VEC3"},{"bufferView":23,"componentType":5126,"count":40,"type":"VEC2"},{"bufferView":24,"componentType":5123,"count":72,"type":"SCALAR"},{"bufferView":25,"componentType":5126,"count":117,"type":"VEC3","min":[-1,-1,-1],"max":[1,1,1]},{"bufferView":26,"componentType":5126,"count":117,"type":"VEC2"},{"bufferView":27,"componentType":5123,"count":504,"type":"SCALAR"},{"bufferView":28,"componentType":5126,"count":24,"type":"VEC2"},{"bufferView":29,"componentType":5126,"count":24,"type":"VEC2"},{"bufferView":30,"componentType":5126,"count":24,"type":"VEC2"},{"bufferView":31,"componentType":5126,"count":54,"type":"VEC3","min":[-0.9510565400123596,-1,-0.9510565400123596],"max":[0.9510565400123596,1,0.9510565400123596]},{"bufferView":32,"componentType":5126,"count":54,"type":"VEC2"},{"bufferView":33,"componentType":5123,"count":192,"type":"SCALAR"}],"extensionsUsed":["KHR_materials_unlit"],"extras":{"id":"vlt-porch-pirate-proof-19","family":"porch-pirate-proof","variant":18,"plan":"D4-1","units":"metres","up":"+Y","front":"+Z","lodScenes":[0,1,2]}}