{"asset":{"version":"2.0","generator":"SLOPMERICA Department of Unnecessary Development 1.0"},"scene":0,"scenes":[{"name":"LOD 0","nodes":[0,1,2,3,4,5,6,7,8,9,10,11,12,13,14,15,16],"extras":{"level":0}},{"name":"LOD 1","nodes":[17,18,19,20,21,22,23,24,25,26,27,28,29,30,31,32,33],"extras":{"level":1}},{"name":"LOD 2","nodes":[34,35,36,37,38,39,40,41,42,43,44,45,46],"extras":{"level":2}}],"nodes":[{"name":"site-pad","mesh":0,"translation":[0,0.06,0],"scale":[11.68128,0.12,11.68128]},{"name":"variant-apron","mesh":1,"translation":[0.73008,0.13,5.836],"scale":[3.03264,0.08,1.16]},{"name":"bollard-0","mesh":2,"translation":[-4.26816,0.43,5.956],"scale":[0.08,0.7,0.08]},{"name":"bollard-1","mesh":2,"translation":[0,0.43,5.956],"scale":[0.08,0.7,0.08]},{"name":"bollard-2","mesh":2,"translation":[4.26816,0.43,5.956],"scale":[0.08,0.7,0.08]},{"name":"layout-cabinet","mesh":3,"translation":[-5.816,0.555,0.8424],"scale":[0.69,0.87,0.32]},{"name":"deferred-maintenance-skip","mesh":4,"translation":[3.81888,0.5,-4.94208],"scale":[1.39,0.75,0.65]},{"name":"skip-rubble","mesh":5,"translation":[3.81888,0.98,-4.94208],"rotation":[0,0.198669,0,0.980067],"scale":[0.72,0.2,0.5]},{"name":"tower-leg-0","mesh":6,"translation":[2.2464,6.82,0],"rotation":[0,0,0.024997,0.999688],"scale":[0.22,13.4,0.22]},{"name":"tower-leg-1","mesh":6,"translation":[0,6.82,2.2464],"scale":[0.22,13.4,0.22]},{"name":"tower-leg-2","mesh":6,"translation":[-2.2464,6.82,0],"rotation":[0,0,-0.024997,0.999688],"scale":[0.22,13.4,0.22]},{"name":"tower-leg-3","mesh":6,"translation":[0,6.82,-2.2464],"scale":[0.22,13.4,0.22]},{"name":"water-tank","mesh":7,"translation":[0,14.5232,0],"scale":[2.808,5.616,2.808]},{"name":"tank-dome","mesh":8,"translation":[0,17.27504,0],"scale":[2.808,1.46016,2.808]},{"name":"tank-stem","mesh":9,"translation":[0,10.05,0],"scale":[0.62,6.7,0.62]},{"name":"county-name-back","mesh":10,"translation":[0,14.9444,2.858],"scale":[4.1716,1.44784,1]},{"name":"county-name","mesh":11,"translation":[0,14.9444,2.887],"scale":[4.0716,1.34784,1]},{"name":"site-pad","mesh":12,"translation":[0,0.06,0],"scale":[11.68128,0.12,11.68128]},{"name":"variant-apron","mesh":13,"translation":[0.73008,0.13,5.836],"scale":[3.03264,0.08,1.16]},{"name":"bollard-0","mesh":14,"translation":[-4.26816,0.43,5.956],"scale":[0.08,0.7,0.08]},{"name":"bollard-1","mesh":14,"translation":[0,0.43,5.956],"scale":[0.08,0.7,0.08]},{"name":"bollard-2","mesh":14,"translation":[4.26816,0.43,5.956],"scale":[0.08,0.7,0.08]},{"name":"layout-cabinet","mesh":15,"translation":[-5.816,0.555,0.8424],"scale":[0.69,0.87,0.32]},{"name":"deferred-maintenance-skip","mesh":16,"translation":[3.81888,0.5,-4.94208],"scale":[1.39,0.75,0.65]},{"name":"skip-rubble","mesh":17,"translation":[3.81888,0.98,-4.94208],"rotation":[0,0.198669,0,0.980067],"scale":[0.72,0.2,0.5]},{"name":"tower-leg-0","mesh":18,"translation":[2.2464,6.82,0],"rotation":[0,0,0.024997,0.999688],"scale":[0.22,13.4,0.22]},{"name":"tower-leg-1","mesh":18,"translation":[0,6.82,2.2464],"scale":[0.22,13.4,0.22]},{"name":"tower-leg-2","mesh":18,"translation":[-2.2464,6.82,0],"rotation":[0,0,-0.024997,0.999688],"scale":[0.22,13.4,0.22]},{"name":"tower-leg-3","mesh":18,"translation":[0,6.82,-2.2464],"scale":[0.22,13.4,0.22]},{"name":"water-tank","mesh":19,"translation":[0,14.5232,0],"scale":[2.808,5.616,2.808]},{"name":"tank-dome","mesh":20,"translation":[0,17.27504,0],"scale":[2.808,1.46016,2.808]},{"name":"tank-stem","mesh":21,"translation":[0,10.05,0],"scale":[0.62,6.7,0.62]},{"name":"county-name-back","mesh":10,"translation":[0,14.9444,2.858],"scale":[4.1716,1.44784,1]},{"name":"county-name","mesh":11,"translation":[0,14.9444,2.887],"scale":[4.0716,1.34784,1]},{"name":"site-pad","mesh":12,"translation":[0,0.06,0],"scale":[11.68128,0.12,11.68128]},{"name":"variant-apron","mesh":13,"translation":[0.73008,0.13,5.836],"scale":[3.03264,0.08,1.16]},{"name":"bollard-0","mesh":14,"translation":[-4.26816,0.43,5.956],"scale":[0.08,0.7,0.08]},{"name":"layout-cabinet","mesh":15,"translation":[-5.816,0.555,0.8424],"scale":[0.69,0.87,0.32]},{"name":"deferred-maintenance-skip","mesh":16,"translation":[3.81888,0.5,-4.94208],"scale":[1.39,0.75,0.65]},{"name":"tower-leg-0","mesh":18,"translation":[2.2464,6.82,0],"rotation":[0,0,0.024997,0.999688],"scale":[0.22,13.4,0.22]},{"name":"tower-leg-1","mesh":18,"translation":[-1.1232,6.82,1.945439],"rotation":[0,0,-0.0125,0.999922],"scale":[0.22,13.4,0.22]},{"name":"tower-leg-2","mesh":18,"translation":[-1.1232,6.82,-1.945439],"rotation":[0,0,-0.0125,0.999922],"scale":[0.22,13.4,0.22]},{"name":"water-tank","mesh":19,"translation":[0,14.5232,0],"scale":[2.808,5.616,2.808]},{"name":"tank-dome","mesh":22,"translation":[0,17.27504,0],"scale":[2.808,1.46016,2.808]},{"name":"tank-stem","mesh":21,"translation":[0,10.05,0],"scale":[0.62,6.7,0.62]},{"name":"county-name-back","mesh":10,"translation":[0,14.9444,2.858],"scale":[4.1716,1.44784,1]},{"name":"county-name","mesh":11,"translation":[0,14.9444,2.887],"scale":[4.0716,1.34784,1]}],"meshes":[{"primitives":[{"attributes":{"POSITION":0,"NORMAL":1,"TEXCOORD_0":2},"material":0,"mode":4}]},{"primitives":[{"attributes":{"POSITION":0,"NORMAL":1,"TEXCOORD_0":3},"material":1,"mode":4}]},{"primitives":[{"attributes":{"POSITION":4,"NORMAL":5,"TEXCOORD_0":6},"material":2,"mode":4,"indices":7}]},{"primitives":[{"attributes":{"POSITION":0,"NORMAL":1,"TEXCOORD_0":8},"material":3,"mode":4}]},{"primitives":[{"attributes":{"POSITION":0,"NORMAL":1,"TEXCOORD_0":9},"material":2,"mode":4}]},{"primitives":[{"attributes":{"POSITION":0,"NORMAL":1,"TEXCOORD_0":10},"material":0,"mode":4}]},{"primitives":[{"attributes":{"POSITION":11,"NORMAL":12,"TEXCOORD_0":13},"material":3,"mode":4,"indices":7}]},{"primitives":[{"attributes":{"POSITION":14,"NORMAL":15,"TEXCOORD_0":16},"material":4,"mode":4,"indices":7}]},{"primitives":[{"attributes":{"POSITION":17,"NORMAL":17,"TEXCOORD_0":18},"material":4,"mode":4,"indices":19}]},{"primitives":[{"attributes":{"POSITION":20,"NORMAL":21,"TEXCOORD_0":22},"material":3,"mode":4,"indices":7}]},{"primitives":[{"attributes":{"POSITION":23,"NORMAL":24,"TEXCOORD_0":25},"material":5,"mode":4,"indices":26}]},{"primitives":[{"attributes":{"POSITION":27,"NORMAL":28,"TEXCOORD_0":29},"material":6,"mode":4,"indices":30}]},{"primitives":[{"attributes":{"POSITION":31,"NORMAL":24,"TEXCOORD_0":32},"material":0,"mode":4,"indices":26}]},{"primitives":[{"attributes":{"POSITION":31,"NORMAL":24,"TEXCOORD_0":33},"material":1,"mode":4,"indices":26}]},{"primitives":[{"attributes":{"POSITION":34,"NORMAL":35,"TEXCOORD_0":36},"material":2,"mode":4,"indices":37}]},{"primitives":[{"attributes":{"POSITION":31,"NORMAL":24,"TEXCOORD_0":38},"material":3,"mode":4,"indices":26}]},{"primitives":[{"attributes":{"POSITION":31,"NORMAL":24,"TEXCOORD_0":39},"material":2,"mode":4,"indices":26}]},{"primitives":[{"attributes":{"POSITION":31,"NORMAL":24,"TEXCOORD_0":40},"material":0,"mode":4,"indices":26}]},{"primitives":[{"attributes":{"POSITION":41,"NORMAL":42,"TEXCOORD_0":43},"material":3,"mode":4,"indices":37}]},{"primitives":[{"attributes":{"POSITION":44,"NORMAL":45,"TEXCOORD_0":46},"material":4,"mode":4,"indices":37}]},{"primitives":[{"attributes":{"POSITION":47,"NORMAL":47,"TEXCOORD_0":48},"material":4,"mode":4,"indices":49}]},{"primitives":[{"attributes":{"POSITION":50,"NORMAL":51,"TEXCOORD_0":52},"material":3,"mode":4,"indices":37}]},{"primitives":[{"attributes":{"POSITION":53,"NORMAL":53,"TEXCOORD_0":54},"material":4,"mode":4,"indices":55}]}],"materials":[{"name":"concrete","pbrMetallicRoughness":{"baseColorTexture":{"index":0},"metallicRoughnessTexture":{"index":2},"roughnessFactor":1,"metallicFactor":1},"normalTexture":{"index":1,"scale":0.82},"occlusionTexture":{"index":2,"strength":0.35}},{"name":"asphalt","pbrMetallicRoughness":{"baseColorTexture":{"index":3},"metallicRoughnessTexture":{"index":5},"roughnessFactor":1,"metallicFactor":1},"normalTexture":{"index":4,"scale":0.62},"occlusionTexture":{"index":5,"strength":0.35}},{"name":"paint-orange","pbrMetallicRoughness":{"baseColorFactor":[0.6444796819634361,0.1878207722902346,0.040915196900556984,1],"roughnessFactor":0.68,"metallicFactor":0.03}},{"name":"metal-galvanized","pbrMetallicRoughness":{"baseColorTexture":{"index":6},"metallicRoughnessTexture":{"index":8},"roughnessFactor":1,"metallicFactor":1},"normalTexture":{"index":7,"scale":0.15},"occlusionTexture":{"index":8,"strength":0.35}},{"name":"paint-white","pbrMetallicRoughness":{"baseColorFactor":[0.7912979403281551,0.7681511472425809,0.6795424696265424,1],"roughnessFactor":0.68,"metallicFactor":0}},{"name":"metal-dark","pbrMetallicRoughness":{"baseColorTexture":{"index":9},"metallicRoughnessTexture":{"index":11},"roughnessFactor":1,"metallicFactor":1},"normalTexture":{"index":10,"scale":0.35},"occlusionTexture":{"index":11,"strength":0.35}},{"name":"water-tower signage","pbrMetallicRoughness":{"baseColorTexture":{"index":12},"roughnessFactor":1,"metallicFactor":0},"extensions":{"KHR_materials_unlit":{}}}],"textures":[{"source":0,"sampler":0},{"source":1,"sampler":0},{"source":2,"sampler":0},{"source":3,"sampler":0},{"source":4,"sampler":0},{"source":5,"sampler":0},{"source":6,"sampler":0},{"source":7,"sampler":0},{"source":8,"sampler":0},{"source":9,"sampler":0},{"source":10,"sampler":0},{"source":11,"sampler":0},{"source":12,"sampler":0}],"images":[{"uri":"../textures/concrete-albedo.png"},{"uri":"../textures/concrete-normal.png"},{"uri":"../textures/concrete-orm.png"},{"uri":"../textures/asphalt-albedo.png"},{"uri":"../textures/asphalt-normal.png"},{"uri":"../textures/asphalt-orm.png"},{"uri":"../textures/metal-galvanized-albedo.png"},{"uri":"../textures/metal-galvanized-normal.png"},{"uri":"../textures/metal-galvanized-orm.png"},{"uri":"../textures/metal-dark-albedo.png"},{"uri":"../textures/metal-dark-normal.png"},{"uri":"../textures/metal-dark-orm.png"},{"uri":"../signs/water-tower.png"}],"samplers":[{"magFilter":9729,"minFilter":9987,"wrapS":10497,"wrapT":10497}],"buffers":[{"uri":"../shared/geometry.bin","byteLength":16435520}],"bufferViews":[{"buffer":0,"byteOffset":0,"byteLength":3888,"target":34962},{"buffer":0,"byteOffset":3888,"byteLength":3888,"target":34962},{"buffer":0,"byteOffset":16143968,"byteLength":2592,"target":34962},{"buffer":0,"byteOffset":16198656,"byteLength":2592,"target":34962},{"buffer":0,"byteOffset":12960,"byteLength":1200,"target":34962},{"buffer":0,"byteOffset":14160,"byteLength":1200,"target":34962},{"buffer":0,"byteOffset":150020,"byteLength":800,"target":34962},{"buffer":0,"byteOffset":16160,"byteLength":384,"target":34963},{"buffer":0,"byteOffset":162340,"byteLength":2592,"target":34962},{"buffer":0,"byteOffset":214084,"byteLength":2592,"target":34962},{"buffer":0,"byteOffset":208260,"byteLength":2592,"target":34962},{"buffer":0,"byteOffset":16116352,"byteLength":1200,"target":34962},{"buffer":0,"byteOffset":16117552,"byteLength":1200,"target":34962},{"buffer":0,"byteOffset":16193440,"byteLength":800,"target":34962},{"buffer":0,"byteOffset":16119552,"byteLength":1200,"target":34962},{"buffer":0,"byteOffset":16120752,"byteLength":1200,"target":34962},{"buffer":0,"byteOffset":16149152,"byteLength":800,"target":34962},{"buffer":0,"byteOffset":6080864,"byteLength":3276,"target":34962},{"buffer":0,"byteOffset":16149952,"byteLength":2184,"target":34962},{"buffer":0,"byteOffset":6086324,"byteLength":2640,"target":34963},{"buffer":0,"byteOffset":16124936,"byteLength":1200,"target":34962},{"buffer":0,"byteOffset":16126136,"byteLength":1200,"target":34962},{"buffer":0,"byteOffset":16194240,"byteLength":800,"target":34962},{"buffer":0,"byteOffset":45664,"byteLength":288,"target":34962},{"buffer":0,"byteOffset":45952,"byteLength":288,"target":34962},{"buffer":0,"byteOffset":46240,"byteLength":192,"target":34962},{"buffer":0,"byteOffset":46432,"byteLength":72,"target":34963},{"buffer":0,"byteOffset":46504,"byteLength":48,"target":34962},{"buffer":0,"byteOffset":46552,"byteLength":48,"target":34962},{"buffer":0,"byteOffset":222756,"byteLength":32,"target":34962},{"buffer":0,"byteOffset":46632,"byteLength":12,"target":34963},{"buffer":0,"byteOffset":46644,"byteLength":288,"target":34962},{"buffer":0,"byteOffset":16152136,"byteLength":192,"target":34962},{"buffer":0,"byteOffset":16201248,"byteLength":192,"target":34962},{"buffer":0,"byteOffset":47316,"byteLength":480,"target":34962},{"buffer":0,"byteOffset":47796,"byteLength":480,"target":34962},{"buffer":0,"byteOffset":153636,"byteLength":320,"target":34962},{"buffer":0,"byteOffset":48596,"byteLength":144,"target":34963},{"buffer":0,"byteOffset":165156,"byteLength":192,"target":34962},{"buffer":0,"byteOffset":216708,"byteLength":192,"target":34962},{"buffer":0,"byteOffset":211076,"byteLength":192,"target":34962},{"buffer":0,"byteOffset":16128520,"byteLength":480,"target":34962},{"buffer":0,"byteOffset":16129000,"byteLength":480,"target":34962},{"buffer":0,"byteOffset":16195232,"byteLength":320,"target":34962},{"buffer":0,"byteOffset":16129800,"byteLength":480,"target":34962},{"buffer":0,"byteOffset":16130280,"byteLength":480,"target":34962},{"buffer":0,"byteOffset":16152520,"byteLength":320,"target":34962},{"buffer":0,"byteOffset":6096692,"byteLength":1404,"target":34962},{"buffer":0,"byteOffset":16152840,"byteLength":936,"target":34962},{"buffer":0,"byteOffset":6099032,"byteLength":1008,"target":34963},{"buffer":0,"byteOffset":16132016,"byteLength":480,"target":34962},{"buffer":0,"byteOffset":16132496,"byteLength":480,"target":34962},{"buffer":0,"byteOffset":16195552,"byteLength":320,"target":34962},{"buffer":0,"byteOffset":6871440,"byteLength":648,"target":34962},{"buffer":0,"byteOffset":16153776,"byteLength":432,"target":34962},{"buffer":0,"byteOffset":6872520,"byteLength":384,"target":34963}],"accessors":[{"bufferView":0,"componentType":5126,"count":324,"type":"VEC3","min":[-0.5,-0.5,-0.5],"max":[0.5,0.5,0.5]},{"bufferView":1,"componentType":5126,"count":324,"type":"VEC3"},{"bufferView":2,"componentType":5126,"count":324,"type":"VEC2"},{"bufferView":3,"componentType":5126,"count":324,"type":"VEC2"},{"bufferView":4,"componentType":5126,"count":100,"type":"VEC3","min":[-1,-0.5,-1],"max":[1,0.5,1]},{"bufferView":5,"componentType":5126,"count":100,"type":"VEC3"},{"bufferView":6,"componentType":5126,"count":100,"type":"VEC2"},{"bufferView":7,"componentType":5123,"count":192,"type":"SCALAR"},{"bufferView":8,"componentType":5126,"count":324,"type":"VEC2"},{"bufferView":9,"componentType":5126,"count":324,"type":"VEC2"},{"bufferView":10,"componentType":5126,"count":324,"type":"VEC2"},{"bufferView":11,"componentType":5126,"count":100,"type":"VEC3","min":[-1,-0.5,-1],"max":[1,0.5,1]},{"bufferView":12,"componentType":5126,"count":100,"type":"VEC3"},{"bufferView":13,"componentType":5126,"count":100,"type":"VEC2"},{"bufferView":14,"componentType":5126,"count":100,"type":"VEC3","min":[-1,-0.5,-1],"max":[1,0.5,1]},{"bufferView":15,"componentType":5126,"count":100,"type":"VEC3"},{"bufferView":16,"componentType":5126,"count":100,"type":"VEC2"},{"bufferView":17,"componentType":5126,"count":273,"type":"VEC3","min":[-1,-1,-1],"max":[1,1,1]},{"bufferView":18,"componentType":5126,"count":273,"type":"VEC2"},{"bufferView":19,"componentType":5123,"count":1320,"type":"SCALAR"},{"bufferView":20,"componentType":5126,"count":100,"type":"VEC3","min":[-1,-0.5,-1],"max":[1,0.5,1]},{"bufferView":21,"componentType":5126,"count":100,"type":"VEC3"},{"bufferView":22,"componentType":5126,"count":100,"type":"VEC2"},{"bufferView":23,"componentType":5126,"count":24,"type":"VEC3","min":[-0.5,-0.5,-0.02500000037252903],"max":[0.5,0.5,0.02500000037252903]},{"bufferView":24,"componentType":5126,"count":24,"type":"VEC3"},{"bufferView":25,"componentType":5126,"count":24,"type":"VEC2"},{"bufferView":26,"componentType":5123,"count":36,"type":"SCALAR"},{"bufferView":27,"componentType":5126,"count":4,"type":"VEC3","min":[-0.5,-0.5,0],"max":[0.5,0.5,0]},{"bufferView":28,"componentType":5126,"count":4,"type":"VEC3"},{"bufferView":29,"componentType":5126,"count":4,"type":"VEC2"},{"bufferView":30,"componentType":5123,"count":6,"type":"SCALAR"},{"bufferView":31,"componentType":5126,"count":24,"type":"VEC3","min":[-0.5,-0.5,-0.5],"max":[0.5,0.5,0.5]},{"bufferView":32,"componentType":5126,"count":24,"type":"VEC2"},{"bufferView":33,"componentType":5126,"count":24,"type":"VEC2"},{"bufferView":34,"componentType":5126,"count":40,"type":"VEC3","min":[-0.8660253882408142,-0.5,-1],"max":[0.8660253882408142,0.5,1]},{"bufferView":35,"componentType":5126,"count":40,"type":"VEC3"},{"bufferView":36,"componentType":5126,"count":40,"type":"VEC2"},{"bufferView":37,"componentType":5123,"count":72,"type":"SCALAR"},{"bufferView":38,"componentType":5126,"count":24,"type":"VEC2"},{"bufferView":39,"componentType":5126,"count":24,"type":"VEC2"},{"bufferView":40,"componentType":5126,"count":24,"type":"VEC2"},{"bufferView":41,"componentType":5126,"count":40,"type":"VEC3","min":[-0.8660253882408142,-0.5,-1],"max":[0.8660253882408142,0.5,1]},{"bufferView":42,"componentType":5126,"count":40,"type":"VEC3"},{"bufferView":43,"componentType":5126,"count":40,"type":"VEC2"},{"bufferView":44,"componentType":5126,"count":40,"type":"VEC3","min":[-0.8660253882408142,-0.5,-1],"max":[0.8660253882408142,0.5,1]},{"bufferView":45,"componentType":5126,"count":40,"type":"VEC3"},{"bufferView":46,"componentType":5126,"count":40,"type":"VEC2"},{"bufferView":47,"componentType":5126,"count":117,"type":"VEC3","min":[-1,-1,-1],"max":[1,1,1]},{"bufferView":48,"componentType":5126,"count":117,"type":"VEC2"},{"bufferView":49,"componentType":5123,"count":504,"type":"SCALAR"},{"bufferView":50,"componentType":5126,"count":40,"type":"VEC3","min":[-0.8660253882408142,-0.5,-1],"max":[0.8660253882408142,0.5,1]},{"bufferView":51,"componentType":5126,"count":40,"type":"VEC3"},{"bufferView":52,"componentType":5126,"count":40,"type":"VEC2"},{"bufferView":53,"componentType":5126,"count":54,"type":"VEC3","min":[-0.9510565400123596,-1,-0.9510565400123596],"max":[0.9510565400123596,1,0.9510565400123596]},{"bufferView":54,"componentType":5126,"count":54,"type":"VEC2"},{"bufferView":55,"componentType":5123,"count":192,"type":"SCALAR"}],"extensionsUsed":["KHR_materials_unlit"],"extras":{"id":"vlt-water-tower-33","family":"water-tower","variant":32,"plan":"C3-2","units":"metres","up":"+Y","front":"+Z","lodScenes":[0,1,2]}}