{"asset":{"version":"2.0","generator":"SLOPMERICA Department of Unnecessary Development 1.0"},"scene":0,"scenes":[{"name":"LOD 0","nodes":[0,1,2,3,4,5,6,7,8,9,10],"extras":{"level":0}},{"name":"LOD 1","nodes":[11,12,13,14,15,16,17,18,19,20,21],"extras":{"level":1}},{"name":"LOD 2","nodes":[22,23,24,25],"extras":{"level":2}}],"nodes":[{"name":"surveyed lot","mesh":0,"translation":[0,0.06,0],"scale":[11.44,0.12,9.68]},{"name":"towering upright","mesh":1,"translation":[0,7,0],"scale":[1.25,14,1.1]},{"name":"towering crossbeam","mesh":2,"translation":[0,9.66,0],"rotation":[0,0,-0.017499,0.999847],"scale":[8,1.2,1.1]},{"name":"illuminated base","mesh":3,"translation":[0,0.62,0],"scale":[3.5,1.2,3.5]},{"name":"uplight 0","mesh":4,"translation":[-2,1.25,1.5],"scale":[0.18,0.12,0.18]},{"name":"uplight 1","mesh":4,"translation":[-1,1.25,1.5],"scale":[0.18,0.12,0.18]},{"name":"uplight 2","mesh":4,"translation":[0,1.25,1.5],"scale":[0.18,0.12,0.18]},{"name":"uplight 3","mesh":4,"translation":[1,1.25,1.5],"scale":[0.18,0.12,0.18]},{"name":"uplight 4","mesh":4,"translation":[2,1.25,1.5],"scale":[0.18,0.12,0.18]},{"name":"cross attraction sign-back","mesh":5,"translation":[0,1.45,4.8],"scale":[4.8,1.4,1]},{"name":"cross attraction sign","mesh":6,"translation":[0,1.45,4.829],"scale":[4.7,1.3,1]},{"name":"surveyed lot","mesh":7,"translation":[0,0.06,0],"scale":[11.44,0.12,9.68]},{"name":"towering upright","mesh":8,"translation":[0,7,0],"scale":[1.25,14,1.1]},{"name":"towering crossbeam","mesh":9,"translation":[0,9.66,0],"rotation":[0,0,-0.017499,0.999847],"scale":[8,1.2,1.1]},{"name":"illuminated base","mesh":10,"translation":[0,0.62,0],"scale":[3.5,1.2,3.5]},{"name":"uplight 0","mesh":11,"translation":[-2,1.25,1.5],"scale":[0.18,0.12,0.18]},{"name":"uplight 1","mesh":11,"translation":[-1,1.25,1.5],"scale":[0.18,0.12,0.18]},{"name":"uplight 2","mesh":11,"translation":[0,1.25,1.5],"scale":[0.18,0.12,0.18]},{"name":"uplight 3","mesh":11,"translation":[1,1.25,1.5],"scale":[0.18,0.12,0.18]},{"name":"uplight 4","mesh":11,"translation":[2,1.25,1.5],"scale":[0.18,0.12,0.18]},{"name":"cross attraction sign-back","mesh":5,"translation":[0,1.45,4.8],"scale":[4.8,1.4,1]},{"name":"cross attraction sign","mesh":6,"translation":[0,1.45,4.829],"scale":[4.7,1.3,1]},{"name":"surveyed lot","mesh":7,"translation":[0,0.06,0],"scale":[11.44,0.12,9.68]},{"name":"towering upright","mesh":8,"translation":[0,7,0],"scale":[1.25,14,1.1]},{"name":"towering crossbeam","mesh":9,"translation":[0,9.66,0],"rotation":[0,0,-0.017499,0.999847],"scale":[8,1.2,1.1]},{"name":"illuminated base","mesh":12,"translation":[0,0.62,0],"scale":[3.5,1.2,3.5]}],"meshes":[{"primitives":[{"attributes":{"POSITION":0,"NORMAL":1,"TEXCOORD_0":2},"material":0,"mode":4}]},{"primitives":[{"attributes":{"POSITION":0,"NORMAL":1,"TEXCOORD_0":3},"material":1,"mode":4}]},{"primitives":[{"attributes":{"POSITION":0,"NORMAL":1,"TEXCOORD_0":4},"material":1,"mode":4}]},{"primitives":[{"attributes":{"POSITION":5,"NORMAL":6,"TEXCOORD_0":7},"material":2,"mode":4,"indices":8}]},{"primitives":[{"attributes":{"POSITION":9,"NORMAL":9,"TEXCOORD_0":10},"material":3,"mode":4,"indices":11}]},{"primitives":[{"attributes":{"POSITION":12,"NORMAL":13,"TEXCOORD_0":14},"material":3,"mode":4,"indices":15}]},{"primitives":[{"attributes":{"POSITION":16,"NORMAL":17,"TEXCOORD_0":18},"material":4,"mode":4,"indices":19}]},{"primitives":[{"attributes":{"POSITION":20,"NORMAL":13,"TEXCOORD_0":21},"material":0,"mode":4,"indices":15}]},{"primitives":[{"attributes":{"POSITION":20,"NORMAL":13,"TEXCOORD_0":22},"material":1,"mode":4,"indices":15}]},{"primitives":[{"attributes":{"POSITION":20,"NORMAL":13,"TEXCOORD_0":23},"material":1,"mode":4,"indices":15}]},{"primitives":[{"attributes":{"POSITION":24,"NORMAL":25,"TEXCOORD_0":26},"material":2,"mode":4,"indices":27}]},{"primitives":[{"attributes":{"POSITION":28,"NORMAL":28,"TEXCOORD_0":29},"material":3,"mode":4,"indices":30}]},{"primitives":[{"attributes":{"POSITION":31,"NORMAL":32,"TEXCOORD_0":33},"material":2,"mode":4,"indices":34}]}],"materials":[{"name":"concrete","pbrMetallicRoughness":{"baseColorTexture":{"index":0},"metallicRoughnessTexture":{"index":2},"roughnessFactor":1,"metallicFactor":1},"normalTexture":{"index":1,"scale":0.82},"occlusionTexture":{"index":2,"strength":0.35}},{"name":"paint-white","pbrMetallicRoughness":{"baseColorFactor":[0.7912979403281551,0.7681511472425809,0.6795424696265424,1],"roughnessFactor":0.68,"metallicFactor":0}},{"name":"limestone","pbrMetallicRoughness":{"baseColorTexture":{"index":3},"metallicRoughnessTexture":{"index":5},"roughnessFactor":1,"metallicFactor":1},"normalTexture":{"index":4,"scale":0.9},"occlusionTexture":{"index":5,"strength":0.35}},{"name":"metal-dark","pbrMetallicRoughness":{"baseColorTexture":{"index":6},"metallicRoughnessTexture":{"index":8},"roughnessFactor":1,"metallicFactor":1},"normalTexture":{"index":7,"scale":0.35},"occlusionTexture":{"index":8,"strength":0.35}},{"name":"roadside-cross signage","pbrMetallicRoughness":{"baseColorTexture":{"index":9},"roughnessFactor":1,"metallicFactor":0},"extensions":{"KHR_materials_unlit":{}}}],"textures":[{"source":0,"sampler":0},{"source":1,"sampler":0},{"source":2,"sampler":0},{"source":3,"sampler":0},{"source":4,"sampler":0},{"source":5,"sampler":0},{"source":6,"sampler":0},{"source":7,"sampler":0},{"source":8,"sampler":0},{"source":9,"sampler":0}],"images":[{"uri":"../textures/concrete-albedo.png"},{"uri":"../textures/concrete-normal.png"},{"uri":"../textures/concrete-orm.png"},{"uri":"../textures/limestone-albedo.png"},{"uri":"../textures/limestone-normal.png"},{"uri":"../textures/limestone-orm.png"},{"uri":"../textures/metal-dark-albedo.png"},{"uri":"../textures/metal-dark-normal.png"},{"uri":"../textures/metal-dark-orm.png"},{"uri":"../signs/roadside-cross.png"}],"samplers":[{"magFilter":9729,"minFilter":9987,"wrapS":10497,"wrapT":10497}],"buffers":[{"uri":"../shared/geometry.bin","byteLength":16435520}],"bufferViews":[{"buffer":0,"byteOffset":0,"byteLength":3888,"target":34962},{"buffer":0,"byteOffset":3888,"byteLength":3888,"target":34962},{"buffer":0,"byteOffset":6810704,"byteLength":2592,"target":34962},{"buffer":0,"byteOffset":12524604,"byteLength":2592,"target":34962},{"buffer":0,"byteOffset":12527196,"byteLength":2592,"target":34962},{"buffer":0,"byteOffset":12529788,"byteLength":1344,"target":34962},{"buffer":0,"byteOffset":12531132,"byteLength":1344,"target":34962},{"buffer":0,"byteOffset":12532476,"byteLength":896,"target":34962},{"buffer":0,"byteOffset":2072684,"byteLength":432,"target":34963},{"buffer":0,"byteOffset":6080864,"byteLength":3276,"target":34962},{"buffer":0,"byteOffset":12582972,"byteLength":2184,"target":34962},{"buffer":0,"byteOffset":6086324,"byteLength":2640,"target":34963},{"buffer":0,"byteOffset":45664,"byteLength":288,"target":34962},{"buffer":0,"byteOffset":45952,"byteLength":288,"target":34962},{"buffer":0,"byteOffset":46240,"byteLength":192,"target":34962},{"buffer":0,"byteOffset":46432,"byteLength":72,"target":34963},{"buffer":0,"byteOffset":46504,"byteLength":48,"target":34962},{"buffer":0,"byteOffset":46552,"byteLength":48,"target":34962},{"buffer":0,"byteOffset":210852,"byteLength":32,"target":34962},{"buffer":0,"byteOffset":46632,"byteLength":12,"target":34963},{"buffer":0,"byteOffset":46644,"byteLength":288,"target":34962},{"buffer":0,"byteOffset":6813296,"byteLength":192,"target":34962},{"buffer":0,"byteOffset":12535556,"byteLength":192,"target":34962},{"buffer":0,"byteOffset":12535748,"byteLength":192,"target":34962},{"buffer":0,"byteOffset":12535940,"byteLength":696,"target":34962},{"buffer":0,"byteOffset":12536636,"byteLength":696,"target":34962},{"buffer":0,"byteOffset":12537332,"byteLength":464,"target":34962},{"buffer":0,"byteOffset":2089908,"byteLength":216,"target":34963},{"buffer":0,"byteOffset":6096692,"byteLength":1404,"target":34962},{"buffer":0,"byteOffset":12585156,"byteLength":936,"target":34962},{"buffer":0,"byteOffset":6099032,"byteLength":1008,"target":34963},{"buffer":0,"byteOffset":12538732,"byteLength":480,"target":34962},{"buffer":0,"byteOffset":12539212,"byteLength":480,"target":34962},{"buffer":0,"byteOffset":12539692,"byteLength":320,"target":34962},{"buffer":0,"byteOffset":48596,"byteLength":144,"target":34963}],"accessors":[{"bufferView":0,"componentType":5126,"count":324,"type":"VEC3","min":[-0.5,-0.5,-0.5],"max":[0.5,0.5,0.5]},{"bufferView":1,"componentType":5126,"count":324,"type":"VEC3"},{"bufferView":2,"componentType":5126,"count":324,"type":"VEC2"},{"bufferView":3,"componentType":5126,"count":324,"type":"VEC2"},{"bufferView":4,"componentType":5126,"count":324,"type":"VEC2"},{"bufferView":5,"componentType":5126,"count":112,"type":"VEC3","min":[-0.9848077297210693,-0.5,-1],"max":[0.9848077297210693,0.5,1]},{"bufferView":6,"componentType":5126,"count":112,"type":"VEC3"},{"bufferView":7,"componentType":5126,"count":112,"type":"VEC2"},{"bufferView":8,"componentType":5123,"count":216,"type":"SCALAR"},{"bufferView":9,"componentType":5126,"count":273,"type":"VEC3","min":[-1,-1,-1],"max":[1,1,1]},{"bufferView":10,"componentType":5126,"count":273,"type":"VEC2"},{"bufferView":11,"componentType":5123,"count":1320,"type":"SCALAR"},{"bufferView":12,"componentType":5126,"count":24,"type":"VEC3","min":[-0.5,-0.5,-0.02500000037252903],"max":[0.5,0.5,0.02500000037252903]},{"bufferView":13,"componentType":5126,"count":24,"type":"VEC3"},{"bufferView":14,"componentType":5126,"count":24,"type":"VEC2"},{"bufferView":15,"componentType":5123,"count":36,"type":"SCALAR"},{"bufferView":16,"componentType":5126,"count":4,"type":"VEC3","min":[-0.5,-0.5,0],"max":[0.5,0.5,0]},{"bufferView":17,"componentType":5126,"count":4,"type":"VEC3"},{"bufferView":18,"componentType":5126,"count":4,"type":"VEC2"},{"bufferView":19,"componentType":5123,"count":6,"type":"SCALAR"},{"bufferView":20,"componentType":5126,"count":24,"type":"VEC3","min":[-0.5,-0.5,-0.5],"max":[0.5,0.5,0.5]},{"bufferView":21,"componentType":5126,"count":24,"type":"VEC2"},{"bufferView":22,"componentType":5126,"count":24,"type":"VEC2"},{"bufferView":23,"componentType":5126,"count":24,"type":"VEC2"},{"bufferView":24,"componentType":5126,"count":58,"type":"VEC3","min":[-0.9848077297210693,-0.5,-0.9396926164627075],"max":[0.9848077297210693,0.5,1]},{"bufferView":25,"componentType":5126,"count":58,"type":"VEC3"},{"bufferView":26,"componentType":5126,"count":58,"type":"VEC2"},{"bufferView":27,"componentType":5123,"count":108,"type":"SCALAR"},{"bufferView":28,"componentType":5126,"count":117,"type":"VEC3","min":[-1,-1,-1],"max":[1,1,1]},{"bufferView":29,"componentType":5126,"count":117,"type":"VEC2"},{"bufferView":30,"componentType":5123,"count":504,"type":"SCALAR"},{"bufferView":31,"componentType":5126,"count":40,"type":"VEC3","min":[-0.8660253882408142,-0.5,-1],"max":[0.8660253882408142,0.5,1]},{"bufferView":32,"componentType":5126,"count":40,"type":"VEC3"},{"bufferView":33,"componentType":5126,"count":40,"type":"VEC2"},{"bufferView":34,"componentType":5123,"count":72,"type":"SCALAR"}],"extensionsUsed":["KHR_materials_unlit"],"extras":{"id":"vlt-roadside-cross-21","family":"roadside-cross","variant":20,"plan":"A1-2","units":"metres","up":"+Y","front":"+Z","lodScenes":[0,1,2]}}