{"asset":{"version":"2.0","generator":"SLOPMERICA Department of Unnecessary Development 1.0"},"scene":0,"scenes":[{"name":"LOD 0","nodes":[0,1,2,3,4,5,6,7,8,9,10,11,12,13,14,15,16,17,18,19,20],"extras":{"level":0}},{"name":"LOD 1","nodes":[21,22,23,24,25,26,27,28,29,30,31,32,33,34,35,36,37,38,39],"extras":{"level":1}},{"name":"LOD 2","nodes":[40,41,42,43,44,45,46,47,48,49,50,51],"extras":{"level":2}}],"nodes":[{"name":"foundation","mesh":0,"translation":[0,0.08,0],"scale":[12.76,0.16,11.29]},{"name":"store-shell","mesh":1,"translation":[0,1.739,0],"scale":[7.92,3.478,6.5448]},{"name":"roof-cap","mesh":2,"translation":[0,3.588,0],"scale":[8.17,0.22,6.7948]},{"name":"window-0","mesh":3,"translation":[-2.9304,1.53032,3.3274],"scale":[1.703226,1.45,0.09]},{"name":"window-1","mesh":3,"translation":[0,1.53032,3.3274],"scale":[1.703226,1.45,0.09]},{"name":"window-2","mesh":3,"translation":[2.9304,1.53032,3.3274],"scale":[1.703226,1.45,0.09]},{"name":"door","mesh":4,"translation":[-2.772,1.025,3.3424],"scale":[0.92,2.05,0.12]},{"name":"awning","mesh":5,"translation":[0,2.29548,3.7524],"rotation":[-0.039989,0,0,0.9992],"scale":[6.4944,0.18,1.05]},{"name":"mullion-0","mesh":6,"translation":[-2.5344,1.53032,3.3924],"scale":[0.08,1.55,0.12]},{"name":"mullion-1","mesh":6,"translation":[2.5344,1.53032,3.3924],"scale":[0.08,1.55,0.12]},{"name":"primary-sign-back","mesh":7,"translation":[0,2.74762,3.4324],"scale":[5.0104,1.25,1]},{"name":"primary-sign","mesh":8,"translation":[0,2.74762,3.4614],"scale":[4.9104,1.15,1]},{"name":"umbrella-pole","mesh":9,"translation":[0,3.666,0],"scale":[0.12,7.285,0.12]},{"name":"umbrella-canopy","mesh":10,"translation":[0,6.768,0],"rotation":[1,0,0,0],"scale":[3.5904,1.598,3.5904]},{"name":"denial-hook","mesh":11,"translation":[0,0,0]},{"name":"busy-state-queue-bar","mesh":12,"translation":[0,0.65,5.7267],"scale":[7.6032,0.12,0.12]},{"name":"queue-car-0","mesh":13,"translation":[-3.168,0.34,6.363],"scale":[1.35,0.65,0.7]},{"name":"queue-car-1","mesh":14,"translation":[-1.584,0.34,7.0902],"scale":[1.35,0.65,0.7]},{"name":"queue-car-2","mesh":13,"translation":[0,0.34,6.363],"scale":[1.35,0.65,0.7]},{"name":"queue-car-3","mesh":14,"translation":[1.584,0.34,7.0902],"scale":[1.35,0.65,0.7]},{"name":"queue-car-4","mesh":13,"translation":[3.168,0.34,6.363],"scale":[1.35,0.65,0.7]},{"name":"foundation","mesh":15,"translation":[0,0.08,0],"scale":[12.76,0.16,11.29]},{"name":"store-shell","mesh":16,"translation":[0,1.739,0],"scale":[7.92,3.478,6.5448]},{"name":"roof-cap","mesh":17,"translation":[0,3.588,0],"scale":[8.17,0.22,6.7948]},{"name":"window-0","mesh":18,"translation":[-2.9304,1.53032,3.3274],"scale":[1.703226,1.45,0.09]},{"name":"window-1","mesh":18,"translation":[0,1.53032,3.3274],"scale":[1.703226,1.45,0.09]},{"name":"window-2","mesh":18,"translation":[2.9304,1.53032,3.3274],"scale":[1.703226,1.45,0.09]},{"name":"door","mesh":19,"translation":[-2.772,1.025,3.3424],"scale":[0.92,2.05,0.12]},{"name":"awning","mesh":20,"translation":[0,2.29548,3.7524],"rotation":[-0.039989,0,0,0.9992],"scale":[6.4944,0.18,1.05]},{"name":"mullion-0","mesh":21,"translation":[-2.5344,1.53032,3.3924],"scale":[0.08,1.55,0.12]},{"name":"mullion-1","mesh":21,"translation":[2.5344,1.53032,3.3924],"scale":[0.08,1.55,0.12]},{"name":"primary-sign-back","mesh":7,"translation":[0,2.74762,3.4324],"scale":[5.0104,1.25,1]},{"name":"primary-sign","mesh":8,"translation":[0,2.74762,3.4614],"scale":[4.9104,1.15,1]},{"name":"umbrella-pole","mesh":22,"translation":[0,3.666,0],"scale":[0.12,7.285,0.12]},{"name":"umbrella-canopy","mesh":23,"translation":[0,6.768,0],"rotation":[1,0,0,0],"scale":[3.5904,1.598,3.5904]},{"name":"denial-hook","mesh":24,"translation":[0,0,0]},{"name":"busy-state-queue-bar","mesh":25,"translation":[0,0.65,5.7267],"scale":[7.6032,0.12,0.12]},{"name":"queue-car-0","mesh":26,"translation":[-3.168,0.34,6.363],"scale":[1.35,0.65,0.7]},{"name":"queue-car-1","mesh":27,"translation":[-1.584,0.34,7.0902],"scale":[1.35,0.65,0.7]},{"name":"queue-car-2","mesh":26,"translation":[0,0.34,6.363],"scale":[1.35,0.65,0.7]},{"name":"foundation","mesh":15,"translation":[0,0.08,0],"scale":[12.76,0.16,11.29]},{"name":"store-shell","mesh":16,"translation":[0,1.739,0],"scale":[7.92,3.478,6.5448]},{"name":"roof-cap","mesh":17,"translation":[0,3.588,0],"scale":[8.17,0.22,6.7948]},{"name":"window-0","mesh":28,"translation":[0,1.53032,3.3274],"scale":[5.109677,1.45,0.09]},{"name":"door","mesh":19,"translation":[-2.772,1.025,3.3424],"scale":[0.92,2.05,0.12]},{"name":"primary-sign-back","mesh":7,"translation":[0,2.74762,3.4324],"scale":[5.0104,1.25,1]},{"name":"primary-sign","mesh":8,"translation":[0,2.74762,3.4614],"scale":[4.9104,1.15,1]},{"name":"umbrella-pole","mesh":22,"translation":[0,3.666,0],"scale":[0.12,7.285,0.12]},{"name":"umbrella-canopy","mesh":29,"translation":[0,6.768,0],"rotation":[1,0,0,0],"scale":[3.5904,1.598,3.5904]},{"name":"denial-hook","mesh":30,"translation":[0,0,0]},{"name":"busy-state-queue-bar","mesh":25,"translation":[0,0.65,5.7267],"scale":[7.6032,0.12,0.12]},{"name":"queue-car-0","mesh":26,"translation":[-3.168,0.34,6.363],"scale":[1.35,0.65,0.7]}],"meshes":[{"primitives":[{"attributes":{"POSITION":0,"NORMAL":1,"TEXCOORD_0":2},"material":0,"mode":4}]},{"primitives":[{"attributes":{"POSITION":3,"NORMAL":1,"TEXCOORD_0":4},"material":1,"mode":4}]},{"primitives":[{"attributes":{"POSITION":0,"NORMAL":1,"TEXCOORD_0":5},"material":2,"mode":4}]},{"primitives":[{"attributes":{"POSITION":0,"NORMAL":1,"TEXCOORD_0":6},"material":3,"mode":4}]},{"primitives":[{"attributes":{"POSITION":0,"NORMAL":1,"TEXCOORD_0":7},"material":2,"mode":4}]},{"primitives":[{"attributes":{"POSITION":0,"NORMAL":1,"TEXCOORD_0":8},"material":4,"mode":4}]},{"primitives":[{"attributes":{"POSITION":0,"NORMAL":1,"TEXCOORD_0":9},"material":4,"mode":4}]},{"primitives":[{"attributes":{"POSITION":10,"NORMAL":11,"TEXCOORD_0":12},"material":2,"mode":4,"indices":13}]},{"primitives":[{"attributes":{"POSITION":14,"NORMAL":15,"TEXCOORD_0":16},"material":5,"mode":4,"indices":17}]},{"primitives":[{"attributes":{"POSITION":18,"NORMAL":19,"TEXCOORD_0":20},"material":2,"mode":4,"indices":21}]},{"primitives":[{"attributes":{"POSITION":22,"NORMAL":23,"TEXCOORD_0":24},"material":4,"mode":4,"indices":25}]},{"primitives":[{"attributes":{"POSITION":26,"NORMAL":27,"TEXCOORD_0":28},"material":2,"mode":4,"indices":29}]},{"primitives":[{"attributes":{"POSITION":0,"NORMAL":1,"TEXCOORD_0":30},"material":4,"mode":4}]},{"primitives":[{"attributes":{"POSITION":0,"NORMAL":1,"TEXCOORD_0":31},"material":4,"mode":4}]},{"primitives":[{"attributes":{"POSITION":0,"NORMAL":1,"TEXCOORD_0":31},"material":6,"mode":4}]},{"primitives":[{"attributes":{"POSITION":32,"NORMAL":11,"TEXCOORD_0":33},"material":0,"mode":4,"indices":13}]},{"primitives":[{"attributes":{"POSITION":32,"NORMAL":11,"TEXCOORD_0":34},"material":1,"mode":4,"indices":13}]},{"primitives":[{"attributes":{"POSITION":32,"NORMAL":11,"TEXCOORD_0":35},"material":2,"mode":4,"indices":13}]},{"primitives":[{"attributes":{"POSITION":32,"NORMAL":11,"TEXCOORD_0":36},"material":3,"mode":4,"indices":13}]},{"primitives":[{"attributes":{"POSITION":32,"NORMAL":11,"TEXCOORD_0":37},"material":2,"mode":4,"indices":13}]},{"primitives":[{"attributes":{"POSITION":32,"NORMAL":11,"TEXCOORD_0":38},"material":4,"mode":4,"indices":13}]},{"primitives":[{"attributes":{"POSITION":32,"NORMAL":11,"TEXCOORD_0":39},"material":4,"mode":4,"indices":13}]},{"primitives":[{"attributes":{"POSITION":40,"NORMAL":41,"TEXCOORD_0":42},"material":2,"mode":4,"indices":43}]},{"primitives":[{"attributes":{"POSITION":44,"NORMAL":45,"TEXCOORD_0":46},"material":4,"mode":4,"indices":47}]},{"primitives":[{"attributes":{"POSITION":48,"NORMAL":49,"TEXCOORD_0":50},"material":2,"mode":4,"indices":51}]},{"primitives":[{"attributes":{"POSITION":32,"NORMAL":11,"TEXCOORD_0":52},"material":4,"mode":4,"indices":13}]},{"primitives":[{"attributes":{"POSITION":32,"NORMAL":11,"TEXCOORD_0":53},"material":4,"mode":4,"indices":13}]},{"primitives":[{"attributes":{"POSITION":32,"NORMAL":11,"TEXCOORD_0":53},"material":6,"mode":4,"indices":13}]},{"primitives":[{"attributes":{"POSITION":32,"NORMAL":11,"TEXCOORD_0":54},"material":3,"mode":4,"indices":13}]},{"primitives":[{"attributes":{"POSITION":55,"NORMAL":56,"TEXCOORD_0":57},"material":4,"mode":4,"indices":58}]},{"primitives":[{"attributes":{"POSITION":59,"NORMAL":60,"TEXCOORD_0":61},"material":2,"mode":4,"indices":62}]}],"materials":[{"name":"concrete","pbrMetallicRoughness":{"baseColorTexture":{"index":0},"metallicRoughnessTexture":{"index":2},"roughnessFactor":1,"metallicFactor":1},"normalTexture":{"index":1,"scale":0.82},"occlusionTexture":{"index":2,"strength":0.35}},{"name":"stucco-ivory","pbrMetallicRoughness":{"baseColorTexture":{"index":3},"metallicRoughnessTexture":{"index":5},"roughnessFactor":1,"metallicFactor":1},"normalTexture":{"index":4,"scale":0.5},"occlusionTexture":{"index":5,"strength":0.35}},{"name":"metal-dark","pbrMetallicRoughness":{"baseColorTexture":{"index":6},"metallicRoughnessTexture":{"index":8},"roughnessFactor":1,"metallicFactor":1},"normalTexture":{"index":7,"scale":0.35},"occlusionTexture":{"index":8,"strength":0.35}},{"name":"glass-blue","pbrMetallicRoughness":{"baseColorTexture":{"index":9},"metallicRoughnessTexture":{"index":11},"roughnessFactor":1,"metallicFactor":1},"normalTexture":{"index":10,"scale":0.12},"occlusionTexture":{"index":11,"strength":0.35}},{"name":"paint-red","pbrMetallicRoughness":{"baseColorFactor":[0.46778379610254284,0.08021982030622662,0.05126945836711539,1],"roughnessFactor":0.62,"metallicFactor":0.05}},{"name":"premium-denied signage","pbrMetallicRoughness":{"baseColorTexture":{"index":12},"roughnessFactor":1,"metallicFactor":0},"extensions":{"KHR_materials_unlit":{}}},{"name":"paint-blue","pbrMetallicRoughness":{"baseColorFactor":[0.05126945836711539,0.10946171076915331,0.22696587349938613,1],"roughnessFactor":0.58,"metallicFactor":0.05}}],"textures":[{"source":0,"sampler":0},{"source":1,"sampler":0},{"source":2,"sampler":0},{"source":3,"sampler":0},{"source":4,"sampler":0},{"source":5,"sampler":0},{"source":6,"sampler":0},{"source":7,"sampler":0},{"source":8,"sampler":0},{"source":9,"sampler":0},{"source":10,"sampler":0},{"source":11,"sampler":0},{"source":12,"sampler":0}],"images":[{"uri":"../textures/concrete-albedo.png"},{"uri":"../textures/concrete-normal.png"},{"uri":"../textures/concrete-orm.png"},{"uri":"../textures/stucco-ivory-albedo.png"},{"uri":"../textures/stucco-ivory-normal.png"},{"uri":"../textures/stucco-ivory-orm.png"},{"uri":"../textures/metal-dark-albedo.png"},{"uri":"../textures/metal-dark-normal.png"},{"uri":"../textures/metal-dark-orm.png"},{"uri":"../textures/glass-blue-albedo.png"},{"uri":"../textures/glass-blue-normal.png"},{"uri":"../textures/glass-blue-orm.png"},{"uri":"../signs/premium-denied.png"}],"samplers":[{"magFilter":9729,"minFilter":9987,"wrapS":10497,"wrapT":10497}],"buffers":[{"uri":"../shared/geometry.bin","byteLength":16435520}],"bufferViews":[{"buffer":0,"byteOffset":0,"byteLength":3888,"target":34962},{"buffer":0,"byteOffset":3888,"byteLength":3888,"target":34962},{"buffer":0,"byteOffset":7314320,"byteLength":2592,"target":34962},{"buffer":0,"byteOffset":822696,"byteLength":3888,"target":34962},{"buffer":0,"byteOffset":11006264,"byteLength":2592,"target":34962},{"buffer":0,"byteOffset":11008856,"byteLength":2592,"target":34962},{"buffer":0,"byteOffset":9995372,"byteLength":2592,"target":34962},{"buffer":0,"byteOffset":1428216,"byteLength":2592,"target":34962},{"buffer":0,"byteOffset":4036224,"byteLength":2592,"target":34962},{"buffer":0,"byteOffset":1433400,"byteLength":2592,"target":34962},{"buffer":0,"byteOffset":45664,"byteLength":288,"target":34962},{"buffer":0,"byteOffset":45952,"byteLength":288,"target":34962},{"buffer":0,"byteOffset":46240,"byteLength":192,"target":34962},{"buffer":0,"byteOffset":46432,"byteLength":72,"target":34963},{"buffer":0,"byteOffset":46504,"byteLength":48,"target":34962},{"buffer":0,"byteOffset":46552,"byteLength":48,"target":34962},{"buffer":0,"byteOffset":222692,"byteLength":32,"target":34962},{"buffer":0,"byteOffset":46632,"byteLength":12,"target":34963},{"buffer":0,"byteOffset":1110072,"byteLength":624,"target":34962},{"buffer":0,"byteOffset":1110696,"byteLength":624,"target":34962},{"buffer":0,"byteOffset":10876240,"byteLength":416,"target":34962},{"buffer":0,"byteOffset":1111736,"byteLength":192,"target":34963},{"buffer":0,"byteOffset":2351276,"byteLength":900,"target":34962},{"buffer":0,"byteOffset":2352176,"byteLength":900,"target":34962},{"buffer":0,"byteOffset":10876656,"byteLength":600,"target":34962},{"buffer":0,"byteOffset":2353676,"byteLength":216,"target":34963},{"buffer":0,"byteOffset":11011448,"byteLength":1404,"target":34962},{"buffer":0,"byteOffset":10878660,"byteLength":1404,"target":34962},{"buffer":0,"byteOffset":10880064,"byteLength":936,"target":34962},{"buffer":0,"byteOffset":2086708,"byteLength":1152,"target":34963},{"buffer":0,"byteOffset":1908764,"byteLength":2592,"target":34962},{"buffer":0,"byteOffset":582912,"byteLength":2592,"target":34962},{"buffer":0,"byteOffset":46644,"byteLength":288,"target":34962},{"buffer":0,"byteOffset":7322096,"byteLength":192,"target":34962},{"buffer":0,"byteOffset":11012852,"byteLength":192,"target":34962},{"buffer":0,"byteOffset":11013044,"byteLength":192,"target":34962},{"buffer":0,"byteOffset":4042332,"byteLength":192,"target":34962},{"buffer":0,"byteOffset":1447128,"byteLength":192,"target":34962},{"buffer":0,"byteOffset":4042524,"byteLength":192,"target":34962},{"buffer":0,"byteOffset":1447512,"byteLength":192,"target":34962},{"buffer":0,"byteOffset":1112312,"byteLength":480,"target":34962},{"buffer":0,"byteOffset":1112792,"byteLength":480,"target":34962},{"buffer":0,"byteOffset":10881384,"byteLength":320,"target":34962},{"buffer":0,"byteOffset":48596,"byteLength":144,"target":34963},{"buffer":0,"byteOffset":2366180,"byteLength":468,"target":34962},{"buffer":0,"byteOffset":2366648,"byteLength":468,"target":34962},{"buffer":0,"byteOffset":10881704,"byteLength":312,"target":34962},{"buffer":0,"byteOffset":2367428,"byteLength":108,"target":34963},{"buffer":0,"byteOffset":11013236,"byteLength":588,"target":34962},{"buffer":0,"byteOffset":10882604,"byteLength":588,"target":34962},{"buffer":0,"byteOffset":10883192,"byteLength":392,"target":34962},{"buffer":0,"byteOffset":2096404,"byteLength":432,"target":34963},{"buffer":0,"byteOffset":1911356,"byteLength":192,"target":34962},{"buffer":0,"byteOffset":585696,"byteLength":192,"target":34962},{"buffer":0,"byteOffset":4044144,"byteLength":192,"target":34962},{"buffer":0,"byteOffset":692208,"byteLength":324,"target":34962},{"buffer":0,"byteOffset":692532,"byteLength":324,"target":34962},{"buffer":0,"byteOffset":10883584,"byteLength":216,"target":34962},{"buffer":0,"byteOffset":693072,"byteLength":72,"target":34963},{"buffer":0,"byteOffset":11013824,"byteLength":300,"target":34962},{"buffer":0,"byteOffset":10884100,"byteLength":300,"target":34962},{"buffer":0,"byteOffset":2878428,"byteLength":200,"target":34962},{"buffer":0,"byteOffset":440168,"byteLength":192,"target":34963}],"accessors":[{"bufferView":0,"componentType":5126,"count":324,"type":"VEC3","min":[-0.5,-0.5,-0.5],"max":[0.5,0.5,0.5]},{"bufferView":1,"componentType":5126,"count":324,"type":"VEC3"},{"bufferView":2,"componentType":5126,"count":324,"type":"VEC2"},{"bufferView":3,"componentType":5126,"count":324,"type":"VEC3","min":[-0.5,-0.5,-0.5],"max":[0.5,0.5,0.5]},{"bufferView":4,"componentType":5126,"count":324,"type":"VEC2"},{"bufferView":5,"componentType":5126,"count":324,"type":"VEC2"},{"bufferView":6,"componentType":5126,"count":324,"type":"VEC2"},{"bufferView":7,"componentType":5126,"count":324,"type":"VEC2"},{"bufferView":8,"componentType":5126,"count":324,"type":"VEC2"},{"bufferView":9,"componentType":5126,"count":324,"type":"VEC2"},{"bufferView":10,"componentType":5126,"count":24,"type":"VEC3","min":[-0.5,-0.5,-0.02500000037252903],"max":[0.5,0.5,0.02500000037252903]},{"bufferView":11,"componentType":5126,"count":24,"type":"VEC3"},{"bufferView":12,"componentType":5126,"count":24,"type":"VEC2"},{"bufferView":13,"componentType":5123,"count":36,"type":"SCALAR"},{"bufferView":14,"componentType":5126,"count":4,"type":"VEC3","min":[-0.5,-0.5,0],"max":[0.5,0.5,0]},{"bufferView":15,"componentType":5126,"count":4,"type":"VEC3"},{"bufferView":16,"componentType":5126,"count":4,"type":"VEC2"},{"bufferView":17,"componentType":5123,"count":6,"type":"SCALAR"},{"bufferView":18,"componentType":5126,"count":52,"type":"VEC3","min":[-1,-0.5,-1],"max":[1,0.5,1]},{"bufferView":19,"componentType":5126,"count":52,"type":"VEC3"},{"bufferView":20,"componentType":5126,"count":52,"type":"VEC2"},{"bufferView":21,"componentType":5123,"count":96,"type":"SCALAR"},{"bufferView":22,"componentType":5126,"count":75,"type":"VEC3","min":[-0.9848077297210693,-0.5,-1],"max":[0.9848077297210693,0.5,1]},{"bufferView":23,"componentType":5126,"count":75,"type":"VEC3"},{"bufferView":24,"componentType":5126,"count":75,"type":"VEC2"},{"bufferView":25,"componentType":5123,"count":108,"type":"SCALAR"},{"bufferView":26,"componentType":5126,"count":117,"type":"VEC3","min":[-5.195666790008545,0.42685988545417786,3.9704999923706055],"max":[-3.6179795265197754,5.026174545288086,4.2104997634887695]},{"bufferView":27,"componentType":5126,"count":117,"type":"VEC3"},{"bufferView":28,"componentType":5126,"count":117,"type":"VEC2"},{"bufferView":29,"componentType":5123,"count":576,"type":"SCALAR"},{"bufferView":30,"componentType":5126,"count":324,"type":"VEC2"},{"bufferView":31,"componentType":5126,"count":324,"type":"VEC2"},{"bufferView":32,"componentType":5126,"count":24,"type":"VEC3","min":[-0.5,-0.5,-0.5],"max":[0.5,0.5,0.5]},{"bufferView":33,"componentType":5126,"count":24,"type":"VEC2"},{"bufferView":34,"componentType":5126,"count":24,"type":"VEC2"},{"bufferView":35,"componentType":5126,"count":24,"type":"VEC2"},{"bufferView":36,"componentType":5126,"count":24,"type":"VEC2"},{"bufferView":37,"componentType":5126,"count":24,"type":"VEC2"},{"bufferView":38,"componentType":5126,"count":24,"type":"VEC2"},{"bufferView":39,"componentType":5126,"count":24,"type":"VEC2"},{"bufferView":40,"componentType":5126,"count":40,"type":"VEC3","min":[-0.8660253882408142,-0.5,-1],"max":[0.8660253882408142,0.5,1]},{"bufferView":41,"componentType":5126,"count":40,"type":"VEC3"},{"bufferView":42,"componentType":5126,"count":40,"type":"VEC2"},{"bufferView":43,"componentType":5123,"count":72,"type":"SCALAR"},{"bufferView":44,"componentType":5126,"count":39,"type":"VEC3","min":[-0.9848077297210693,-0.5,-0.9396926164627075],"max":[0.9848077297210693,0.5,1]},{"bufferView":45,"componentType":5126,"count":39,"type":"VEC3"},{"bufferView":46,"componentType":5126,"count":39,"type":"VEC2"},{"bufferView":47,"componentType":5123,"count":54,"type":"SCALAR"},{"bufferView":48,"componentType":5126,"count":49,"type":"VEC3","min":[-5.157028675079346,0.43263956904411316,3.9704999923706055],"max":[-3.628432273864746,5.0139594078063965,4.2104997634887695]},{"bufferView":49,"componentType":5126,"count":49,"type":"VEC3"},{"bufferView":50,"componentType":5126,"count":49,"type":"VEC2"},{"bufferView":51,"componentType":5123,"count":216,"type":"SCALAR"},{"bufferView":52,"componentType":5126,"count":24,"type":"VEC2"},{"bufferView":53,"componentType":5126,"count":24,"type":"VEC2"},{"bufferView":54,"componentType":5126,"count":24,"type":"VEC2"},{"bufferView":55,"componentType":5126,"count":27,"type":"VEC3","min":[-0.8660253882408142,-0.5,-1],"max":[0.8660253882408142,0.5,1]},{"bufferView":56,"componentType":5126,"count":27,"type":"VEC3"},{"bufferView":57,"componentType":5126,"count":27,"type":"VEC2"},{"bufferView":58,"componentType":5123,"count":36,"type":"SCALAR"},{"bufferView":59,"componentType":5126,"count":25,"type":"VEC3","min":[-5.0751118659973145,0.42685988545417786,3.9704999923706055],"max":[-3.6179795265197754,5.026174545288086,4.2104997634887695]},{"bufferView":60,"componentType":5126,"count":25,"type":"VEC3"},{"bufferView":61,"componentType":5126,"count":25,"type":"VEC2"},{"bufferView":62,"componentType":5123,"count":96,"type":"SCALAR"}],"extensionsUsed":["KHR_materials_unlit"],"extras":{"id":"vlt-premium-denied-31","family":"premium-denied","variant":30,"plan":"C1-2","units":"metres","up":"+Y","front":"+Z","lodScenes":[0,1,2]}}