{"asset":{"version":"2.0","generator":"SLOPMERICA Department of Unnecessary Development 1.0"},"scene":0,"scenes":[{"name":"LOD 0","nodes":[0,1,2,3,4,5,6,7,8,9,10,11,12,13,14,15,16,17,18,19,20,21,22,23,24,25,26,27],"extras":{"level":0}},{"name":"LOD 1","nodes":[28,29,30,31,32,33,34,35,36,37,38,39,40,41,42,43,44,45,46,47],"extras":{"level":1}},{"name":"LOD 2","nodes":[48,49,50,51,52,53,54,55,56,57,58,59],"extras":{"level":2}}],"nodes":[{"name":"foundation","mesh":0,"translation":[0,0.08,0],"scale":[16.6,0.16,13.24]},{"name":"appliance-0-0","mesh":1,"translation":[-3.6,2.0844,0],"scale":[3.168,4.1688,6.072]},{"name":"washer-door-0-0","mesh":2,"translation":[-3.6,2.2002,3.2016]},{"name":"appliance-0-1","mesh":3,"translation":[0,2.0844,0],"scale":[3.168,4.1688,6.072]},{"name":"washer-door-0-1","mesh":2,"translation":[0,2.2002,3.2016]},{"name":"appliance-0-2","mesh":1,"translation":[3.6,2.0844,0],"scale":[3.168,4.1688,6.072]},{"name":"washer-door-0-2","mesh":2,"translation":[3.6,2.2002,3.2016]},{"name":"appliance-1-0","mesh":1,"translation":[-3.85,6.369,-0.8832],"scale":[3.168,4.1688,6.072]},{"name":"washer-door-1-0","mesh":2,"translation":[-3.85,6.4848,2.3184]},{"name":"appliance-1-1","mesh":3,"translation":[-0.25,6.369,-0.8832],"scale":[3.168,4.1688,6.072]},{"name":"washer-door-1-1","mesh":2,"translation":[-0.25,6.4848,2.3184]},{"name":"appliance-1-2","mesh":1,"translation":[3.35,6.369,-0.8832],"scale":[3.168,4.1688,6.072]},{"name":"washer-door-1-2","mesh":2,"translation":[3.35,6.4848,2.3184]},{"name":"appliance-2-0","mesh":1,"translation":[-4.1,10.6536,-1.7664],"scale":[3.168,4.1688,6.072]},{"name":"washer-door-2-0","mesh":2,"translation":[-4.1,10.7694,1.4352]},{"name":"appliance-2-1","mesh":3,"translation":[-0.5,10.6536,-1.7664],"scale":[3.168,4.1688,6.072]},{"name":"washer-door-2-1","mesh":2,"translation":[-0.5,10.7694,1.4352]},{"name":"appliance-2-2","mesh":1,"translation":[3.1,10.6536,-1.7664],"scale":[3.168,4.1688,6.072]},{"name":"washer-door-2-2","mesh":2,"translation":[3.1,10.7694,1.4352]},{"name":"rent-counter","mesh":4,"translation":[0,1.6791,-3.7536],"scale":[11.808,3.3582,4.968]},{"name":"rent-sign-back","mesh":5,"translation":[0,2.7792,2.6496],"scale":[7.012,1.25,1]},{"name":"rent-sign","mesh":6,"translation":[0,2.7792,2.6786],"scale":[6.912,1.15,1]},{"name":"busy-state-queue-bar","mesh":7,"translation":[0,0.65,6.9552],"scale":[10.368,0.12,0.12]},{"name":"queue-car-0","mesh":8,"translation":[-4.32,0.34,7.728],"scale":[1.35,0.65,0.7]},{"name":"queue-car-1","mesh":9,"translation":[-2.16,0.34,8.6112],"scale":[1.35,0.65,0.7]},{"name":"queue-car-2","mesh":8,"translation":[0,0.34,7.728],"scale":[1.35,0.65,0.7]},{"name":"queue-car-3","mesh":9,"translation":[2.16,0.34,8.6112],"scale":[1.35,0.65,0.7]},{"name":"queue-car-4","mesh":8,"translation":[4.32,0.34,7.728],"scale":[1.35,0.65,0.7]},{"name":"foundation","mesh":10,"translation":[0,0.08,0],"scale":[16.6,0.16,13.24]},{"name":"appliance-0-0","mesh":11,"translation":[-3.6,2.0844,0],"scale":[3.168,4.1688,6.072]},{"name":"washer-door-0-0","mesh":12,"translation":[-3.6,2.2002,3.2016]},{"name":"appliance-0-1","mesh":13,"translation":[0,2.0844,0],"scale":[3.168,4.1688,6.072]},{"name":"washer-door-0-1","mesh":12,"translation":[0,2.2002,3.2016]},{"name":"appliance-0-2","mesh":11,"translation":[3.6,2.0844,0],"scale":[3.168,4.1688,6.072]},{"name":"washer-door-0-2","mesh":12,"translation":[3.6,2.2002,3.2016]},{"name":"appliance-1-0","mesh":11,"translation":[-3.85,6.369,-0.8832],"scale":[3.168,4.1688,6.072]},{"name":"washer-door-1-0","mesh":12,"translation":[-3.85,6.4848,2.3184]},{"name":"appliance-1-1","mesh":13,"translation":[-0.25,6.369,-0.8832],"scale":[3.168,4.1688,6.072]},{"name":"washer-door-1-1","mesh":12,"translation":[-0.25,6.4848,2.3184]},{"name":"appliance-1-2","mesh":11,"translation":[3.35,6.369,-0.8832],"scale":[3.168,4.1688,6.072]},{"name":"washer-door-1-2","mesh":12,"translation":[3.35,6.4848,2.3184]},{"name":"rent-counter","mesh":14,"translation":[0,1.6791,-3.7536],"scale":[11.808,3.3582,4.968]},{"name":"rent-sign-back","mesh":5,"translation":[0,2.7792,2.6496],"scale":[7.012,1.25,1]},{"name":"rent-sign","mesh":6,"translation":[0,2.7792,2.6786],"scale":[6.912,1.15,1]},{"name":"busy-state-queue-bar","mesh":15,"translation":[0,0.65,6.9552],"scale":[10.368,0.12,0.12]},{"name":"queue-car-0","mesh":16,"translation":[-4.32,0.34,7.728],"scale":[1.35,0.65,0.7]},{"name":"queue-car-1","mesh":17,"translation":[-2.16,0.34,8.6112],"scale":[1.35,0.65,0.7]},{"name":"queue-car-2","mesh":16,"translation":[0,0.34,7.728],"scale":[1.35,0.65,0.7]},{"name":"foundation","mesh":10,"translation":[0,0.08,0],"scale":[16.6,0.16,13.24]},{"name":"appliance-0-0","mesh":11,"translation":[-3.6,2.0844,0],"scale":[3.168,4.1688,6.072]},{"name":"washer-door-0-0","mesh":18,"translation":[-3.6,2.2002,3.2016]},{"name":"appliance-0-1","mesh":13,"translation":[0,2.0844,0],"scale":[3.168,4.1688,6.072]},{"name":"washer-door-0-1","mesh":18,"translation":[0,2.2002,3.2016]},{"name":"appliance-0-2","mesh":11,"translation":[3.6,2.0844,0],"scale":[3.168,4.1688,6.072]},{"name":"washer-door-0-2","mesh":18,"translation":[3.6,2.2002,3.2016]},{"name":"rent-counter","mesh":14,"translation":[0,1.6791,-3.7536],"scale":[11.808,3.3582,4.968]},{"name":"rent-sign-back","mesh":5,"translation":[0,2.7792,2.6496],"scale":[7.012,1.25,1]},{"name":"rent-sign","mesh":6,"translation":[0,2.7792,2.6786],"scale":[6.912,1.15,1]},{"name":"busy-state-queue-bar","mesh":15,"translation":[0,0.65,6.9552],"scale":[10.368,0.12,0.12]},{"name":"queue-car-0","mesh":16,"translation":[-4.32,0.34,7.728],"scale":[1.35,0.65,0.7]}],"meshes":[{"primitives":[{"attributes":{"POSITION":0,"NORMAL":1,"TEXCOORD_0":2},"material":0,"mode":4}]},{"primitives":[{"attributes":{"POSITION":3,"NORMAL":1,"TEXCOORD_0":4},"material":1,"mode":4}]},{"primitives":[{"attributes":{"POSITION":5,"NORMAL":6,"TEXCOORD_0":7},"material":2,"mode":4,"indices":8}]},{"primitives":[{"attributes":{"POSITION":3,"NORMAL":1,"TEXCOORD_0":9},"material":3,"mode":4}]},{"primitives":[{"attributes":{"POSITION":10,"NORMAL":1,"TEXCOORD_0":11},"material":4,"mode":4}]},{"primitives":[{"attributes":{"POSITION":12,"NORMAL":13,"TEXCOORD_0":14},"material":5,"mode":4,"indices":15}]},{"primitives":[{"attributes":{"POSITION":16,"NORMAL":17,"TEXCOORD_0":18},"material":6,"mode":4,"indices":19}]},{"primitives":[{"attributes":{"POSITION":0,"NORMAL":1,"TEXCOORD_0":20},"material":4,"mode":4}]},{"primitives":[{"attributes":{"POSITION":0,"NORMAL":1,"TEXCOORD_0":21},"material":4,"mode":4}]},{"primitives":[{"attributes":{"POSITION":0,"NORMAL":1,"TEXCOORD_0":21},"material":7,"mode":4}]},{"primitives":[{"attributes":{"POSITION":22,"NORMAL":13,"TEXCOORD_0":23},"material":0,"mode":4,"indices":15}]},{"primitives":[{"attributes":{"POSITION":22,"NORMAL":13,"TEXCOORD_0":24},"material":1,"mode":4,"indices":15}]},{"primitives":[{"attributes":{"POSITION":25,"NORMAL":26,"TEXCOORD_0":27},"material":2,"mode":4,"indices":28}]},{"primitives":[{"attributes":{"POSITION":22,"NORMAL":13,"TEXCOORD_0":29},"material":3,"mode":4,"indices":15}]},{"primitives":[{"attributes":{"POSITION":22,"NORMAL":13,"TEXCOORD_0":30},"material":4,"mode":4,"indices":15}]},{"primitives":[{"attributes":{"POSITION":22,"NORMAL":13,"TEXCOORD_0":31},"material":4,"mode":4,"indices":15}]},{"primitives":[{"attributes":{"POSITION":22,"NORMAL":13,"TEXCOORD_0":32},"material":4,"mode":4,"indices":15}]},{"primitives":[{"attributes":{"POSITION":22,"NORMAL":13,"TEXCOORD_0":32},"material":7,"mode":4,"indices":15}]},{"primitives":[{"attributes":{"POSITION":33,"NORMAL":34,"TEXCOORD_0":35},"material":2,"mode":4,"indices":36}]}],"materials":[{"name":"concrete","pbrMetallicRoughness":{"baseColorTexture":{"index":0},"metallicRoughnessTexture":{"index":2},"roughnessFactor":1,"metallicFactor":1},"normalTexture":{"index":1,"scale":0.82},"occlusionTexture":{"index":2,"strength":0.35}},{"name":"metal-galvanized","pbrMetallicRoughness":{"baseColorTexture":{"index":3},"metallicRoughnessTexture":{"index":5},"roughnessFactor":1,"metallicFactor":1},"normalTexture":{"index":4,"scale":0.15},"occlusionTexture":{"index":5,"strength":0.35}},{"name":"glass-blue","pbrMetallicRoughness":{"baseColorTexture":{"index":6},"metallicRoughnessTexture":{"index":8},"roughnessFactor":1,"metallicFactor":1},"normalTexture":{"index":7,"scale":0.12},"occlusionTexture":{"index":8,"strength":0.35}},{"name":"paint-white","pbrMetallicRoughness":{"baseColorFactor":[0.7912979403281551,0.7681511472425809,0.6795424696265424,1],"roughnessFactor":0.68,"metallicFactor":0}},{"name":"paint-red","pbrMetallicRoughness":{"baseColorFactor":[0.46778379610254284,0.08021982030622662,0.05126945836711539,1],"roughnessFactor":0.62,"metallicFactor":0.05}},{"name":"metal-dark","pbrMetallicRoughness":{"baseColorTexture":{"index":9},"metallicRoughnessTexture":{"index":11},"roughnessFactor":1,"metallicFactor":1},"normalTexture":{"index":10,"scale":0.35},"occlusionTexture":{"index":11,"strength":0.35}},{"name":"rent-a-life signage","pbrMetallicRoughness":{"baseColorTexture":{"index":12},"roughnessFactor":1,"metallicFactor":0},"extensions":{"KHR_materials_unlit":{}}},{"name":"paint-blue","pbrMetallicRoughness":{"baseColorFactor":[0.05126945836711539,0.10946171076915331,0.22696587349938613,1],"roughnessFactor":0.58,"metallicFactor":0.05}}],"textures":[{"source":0,"sampler":0},{"source":1,"sampler":0},{"source":2,"sampler":0},{"source":3,"sampler":0},{"source":4,"sampler":0},{"source":5,"sampler":0},{"source":6,"sampler":0},{"source":7,"sampler":0},{"source":8,"sampler":0},{"source":9,"sampler":0},{"source":10,"sampler":0},{"source":11,"sampler":0},{"source":12,"sampler":0}],"images":[{"uri":"../textures/concrete-albedo.png"},{"uri":"../textures/concrete-normal.png"},{"uri":"../textures/concrete-orm.png"},{"uri":"../textures/metal-galvanized-albedo.png"},{"uri":"../textures/metal-galvanized-normal.png"},{"uri":"../textures/metal-galvanized-orm.png"},{"uri":"../textures/glass-blue-albedo.png"},{"uri":"../textures/glass-blue-normal.png"},{"uri":"../textures/glass-blue-orm.png"},{"uri":"../textures/metal-dark-albedo.png"},{"uri":"../textures/metal-dark-normal.png"},{"uri":"../textures/metal-dark-orm.png"},{"uri":"../signs/rent-a-life.png"}],"samplers":[{"magFilter":9729,"minFilter":9987,"wrapS":10497,"wrapT":10497}],"buffers":[{"uri":"../shared/geometry.bin","byteLength":16435520}],"bufferViews":[{"buffer":0,"byteOffset":0,"byteLength":3888,"target":34962},{"buffer":0,"byteOffset":3888,"byteLength":3888,"target":34962},{"buffer":0,"byteOffset":11575052,"byteLength":2592,"target":34962},{"buffer":0,"byteOffset":378372,"byteLength":3888,"target":34962},{"buffer":0,"byteOffset":11577644,"byteLength":2592,"target":34962},{"buffer":0,"byteOffset":11580236,"byteLength":3132,"target":34962},{"buffer":0,"byteOffset":390704,"byteLength":3132,"target":34962},{"buffer":0,"byteOffset":11563532,"byteLength":2088,"target":34962},{"buffer":0,"byteOffset":395924,"byteLength":2688,"target":34963},{"buffer":0,"byteOffset":11583368,"byteLength":2592,"target":34962},{"buffer":0,"byteOffset":822696,"byteLength":3888,"target":34962},{"buffer":0,"byteOffset":11585960,"byteLength":2592,"target":34962},{"buffer":0,"byteOffset":45664,"byteLength":288,"target":34962},{"buffer":0,"byteOffset":45952,"byteLength":288,"target":34962},{"buffer":0,"byteOffset":46240,"byteLength":192,"target":34962},{"buffer":0,"byteOffset":46432,"byteLength":72,"target":34963},{"buffer":0,"byteOffset":46504,"byteLength":48,"target":34962},{"buffer":0,"byteOffset":46552,"byteLength":48,"target":34962},{"buffer":0,"byteOffset":213860,"byteLength":32,"target":34962},{"buffer":0,"byteOffset":46632,"byteLength":12,"target":34963},{"buffer":0,"byteOffset":1917116,"byteLength":2592,"target":34962},{"buffer":0,"byteOffset":582912,"byteLength":2592,"target":34962},{"buffer":0,"byteOffset":46644,"byteLength":288,"target":34962},{"buffer":0,"byteOffset":11588552,"byteLength":192,"target":34962},{"buffer":0,"byteOffset":11588744,"byteLength":192,"target":34962},{"buffer":0,"byteOffset":11588936,"byteLength":1428,"target":34962},{"buffer":0,"byteOffset":427996,"byteLength":1428,"target":34962},{"buffer":0,"byteOffset":11572616,"byteLength":952,"target":34962},{"buffer":0,"byteOffset":430376,"byteLength":1152,"target":34963},{"buffer":0,"byteOffset":11590364,"byteLength":192,"target":34962},{"buffer":0,"byteOffset":11590556,"byteLength":192,"target":34962},{"buffer":0,"byteOffset":1919708,"byteLength":192,"target":34962},{"buffer":0,"byteOffset":585696,"byteLength":192,"target":34962},{"buffer":0,"byteOffset":11590748,"byteLength":660,"target":34962},{"buffer":0,"byteOffset":437788,"byteLength":660,"target":34962},{"buffer":0,"byteOffset":11574612,"byteLength":440,"target":34962},{"buffer":0,"byteOffset":438888,"byteLength":480,"target":34963}],"accessors":[{"bufferView":0,"componentType":5126,"count":324,"type":"VEC3","min":[-0.5,-0.5,-0.5],"max":[0.5,0.5,0.5]},{"bufferView":1,"componentType":5126,"count":324,"type":"VEC3"},{"bufferView":2,"componentType":5126,"count":324,"type":"VEC2"},{"bufferView":3,"componentType":5126,"count":324,"type":"VEC3","min":[-0.5,-0.5,-0.5],"max":[0.5,0.5,0.5]},{"bufferView":4,"componentType":5126,"count":324,"type":"VEC2"},{"bufferView":5,"componentType":5126,"count":261,"type":"VEC3","min":[-1.0880000591278076,-1.0880000591278076,-0.07999999821186066],"max":[1.0880000591278076,1.0880000591278076,0.07999999821186066]},{"bufferView":6,"componentType":5126,"count":261,"type":"VEC3"},{"bufferView":7,"componentType":5126,"count":261,"type":"VEC2"},{"bufferView":8,"componentType":5123,"count":1344,"type":"SCALAR"},{"bufferView":9,"componentType":5126,"count":324,"type":"VEC2"},{"bufferView":10,"componentType":5126,"count":324,"type":"VEC3","min":[-0.5,-0.5,-0.5],"max":[0.5,0.5,0.5]},{"bufferView":11,"componentType":5126,"count":324,"type":"VEC2"},{"bufferView":12,"componentType":5126,"count":24,"type":"VEC3","min":[-0.5,-0.5,-0.02500000037252903],"max":[0.5,0.5,0.02500000037252903]},{"bufferView":13,"componentType":5126,"count":24,"type":"VEC3"},{"bufferView":14,"componentType":5126,"count":24,"type":"VEC2"},{"bufferView":15,"componentType":5123,"count":36,"type":"SCALAR"},{"bufferView":16,"componentType":5126,"count":4,"type":"VEC3","min":[-0.5,-0.5,0],"max":[0.5,0.5,0]},{"bufferView":17,"componentType":5126,"count":4,"type":"VEC3"},{"bufferView":18,"componentType":5126,"count":4,"type":"VEC2"},{"bufferView":19,"componentType":5123,"count":6,"type":"SCALAR"},{"bufferView":20,"componentType":5126,"count":324,"type":"VEC2"},{"bufferView":21,"componentType":5126,"count":324,"type":"VEC2"},{"bufferView":22,"componentType":5126,"count":24,"type":"VEC3","min":[-0.5,-0.5,-0.5],"max":[0.5,0.5,0.5]},{"bufferView":23,"componentType":5126,"count":24,"type":"VEC2"},{"bufferView":24,"componentType":5126,"count":24,"type":"VEC2"},{"bufferView":25,"componentType":5126,"count":119,"type":"VEC3","min":[-1.0880000591278076,-1.0880000591278076,-0.06928203254938126],"max":[1.0880000591278076,1.0880000591278076,0.06928203254938126]},{"bufferView":26,"componentType":5126,"count":119,"type":"VEC3"},{"bufferView":27,"componentType":5126,"count":119,"type":"VEC2"},{"bufferView":28,"componentType":5123,"count":576,"type":"SCALAR"},{"bufferView":29,"componentType":5126,"count":24,"type":"VEC2"},{"bufferView":30,"componentType":5126,"count":24,"type":"VEC2"},{"bufferView":31,"componentType":5126,"count":24,"type":"VEC2"},{"bufferView":32,"componentType":5126,"count":24,"type":"VEC2"},{"bufferView":33,"componentType":5126,"count":55,"type":"VEC3","min":[-1.0880000591278076,-1.0347495079040527,-0.07999999821186066],"max":[1.0880000591278076,1.0347495079040527,0.07999999821186066]},{"bufferView":34,"componentType":5126,"count":55,"type":"VEC3"},{"bufferView":35,"componentType":5126,"count":55,"type":"VEC2"},{"bufferView":36,"componentType":5123,"count":240,"type":"SCALAR"}],"extensionsUsed":["KHR_materials_unlit"],"extras":{"id":"vlt-rent-a-life-22","family":"rent-a-life","variant":21,"plan":"A2-2","units":"metres","up":"+Y","front":"+Z","lodScenes":[0,1,2]}}