{"asset":{"version":"2.0","generator":"SLOPMERICA Department of Unnecessary Development 1.0"},"scene":0,"scenes":[{"name":"LOD 0","nodes":[0,1,2,3,4,5,6,7,8,9,10,11,12,13,14,15,16,17,18,19,20,21,22],"extras":{"level":0}},{"name":"LOD 1","nodes":[23,24,25,26,27,28,29,30,31,32,33,34,35,36,37,38,39,40,41,42,43,44,45],"extras":{"level":1}},{"name":"LOD 2","nodes":[46,47,48,49,50,51,52,53,54,55,56,57,58,59,60],"extras":{"level":2}}],"nodes":[{"name":"site-pad","mesh":0,"translation":[0,0.06,0],"scale":[14.6432,0.12,15.6]},{"name":"variant-apron","mesh":1,"translation":[2.7456,0.13,7.72],"scale":[3.0976,0.08,1.34]},{"name":"bollard-0","mesh":2,"translation":[-5.3504,0.43,7.84],"scale":[0.08,0.74,0.08]},{"name":"layout-cabinet","mesh":3,"translation":[7.24,0.495,3.375],"scale":[0.81,0.75,0.32]},{"name":"deferred-maintenance-skip","mesh":4,"translation":[-4.7872,0.5,-6.6],"scale":[1.15,0.75,0.65]},{"name":"skip-rubble","mesh":5,"translation":[-4.7872,0.98,-6.6],"rotation":[0,0.29552,0,0.955336],"scale":[0.72,0.2,0.5]},{"name":"hopper-0","mesh":6,"translation":[-5.0688,3,0],"scale":[1.4,2.85,1.4]},{"name":"hopper-leg-0--0.8","mesh":7,"translation":[-5.8688,1.25,0],"scale":[0.16,2.1,0.16]},{"name":"hopper-leg-0-0.8","mesh":7,"translation":[-4.2688,1.25,0],"scale":[0.16,2.1,0.16]},{"name":"hopper-1","mesh":6,"translation":[0,3,0],"scale":[1.4,2.85,1.4]},{"name":"hopper-leg-1--0.8","mesh":7,"translation":[-0.8,1.25,0],"scale":[0.16,2.1,0.16]},{"name":"hopper-leg-1-0.8","mesh":7,"translation":[0.8,1.25,0],"scale":[0.16,2.1,0.16]},{"name":"hopper-2","mesh":6,"translation":[5.0688,3,0],"scale":[1.4,2.85,1.4]},{"name":"hopper-leg-2--0.8","mesh":7,"translation":[4.2688,1.25,0],"scale":[0.16,2.1,0.16]},{"name":"hopper-leg-2-0.8","mesh":7,"translation":[5.8688,1.25,0],"scale":[0.16,2.1,0.16]},{"name":"feed-conveyor","mesh":8,"translation":[0.704,5.56,-2.7],"rotation":[0,0,0.099833,0.995004],"scale":[11.264,0.55,1.1]},{"name":"aggregate-pile-0","mesh":9,"translation":[-8.8,1.2,5.25],"scale":[2.2,2.2,2.2]},{"name":"aggregate-pile-1","mesh":10,"translation":[-4.4,1.2,5.25],"scale":[2.2,2.2,2.2]},{"name":"aggregate-pile-2","mesh":9,"translation":[0,1.2,5.25],"scale":[2.2,2.2,2.2]},{"name":"aggregate-pile-3","mesh":10,"translation":[4.4,1.2,5.25],"scale":[2.2,2.2,2.2]},{"name":"aggregate-pile-4","mesh":9,"translation":[8.8,1.2,5.25],"scale":[2.2,2.2,2.2]},{"name":"aggregate-sign-back","mesh":11,"translation":[0,2.4,7.7],"scale":[4.7,1,1]},{"name":"aggregate-sign","mesh":12,"translation":[0,2.4,7.729],"scale":[4.6,0.9,1]},{"name":"site-pad","mesh":13,"translation":[0,0.06,0],"scale":[14.6432,0.12,15.6]},{"name":"variant-apron","mesh":14,"translation":[2.7456,0.13,7.72],"scale":[3.0976,0.08,1.34]},{"name":"bollard-0","mesh":15,"translation":[-5.3504,0.43,7.84],"scale":[0.08,0.74,0.08]},{"name":"layout-cabinet","mesh":16,"translation":[7.24,0.495,3.375],"scale":[0.81,0.75,0.32]},{"name":"deferred-maintenance-skip","mesh":17,"translation":[-4.7872,0.5,-6.6],"scale":[1.15,0.75,0.65]},{"name":"skip-rubble","mesh":18,"translation":[-4.7872,0.98,-6.6],"rotation":[0,0.29552,0,0.955336],"scale":[0.72,0.2,0.5]},{"name":"hopper-0","mesh":19,"translation":[-5.0688,3,0],"scale":[1.4,2.85,1.4]},{"name":"hopper-leg-0--0.8","mesh":20,"translation":[-5.8688,1.25,0],"scale":[0.16,2.1,0.16]},{"name":"hopper-leg-0-0.8","mesh":20,"translation":[-4.2688,1.25,0],"scale":[0.16,2.1,0.16]},{"name":"hopper-1","mesh":19,"translation":[0,3,0],"scale":[1.4,2.85,1.4]},{"name":"hopper-leg-1--0.8","mesh":20,"translation":[-0.8,1.25,0],"scale":[0.16,2.1,0.16]},{"name":"hopper-leg-1-0.8","mesh":20,"translation":[0.8,1.25,0],"scale":[0.16,2.1,0.16]},{"name":"hopper-2","mesh":19,"translation":[5.0688,3,0],"scale":[1.4,2.85,1.4]},{"name":"hopper-leg-2--0.8","mesh":20,"translation":[4.2688,1.25,0],"scale":[0.16,2.1,0.16]},{"name":"hopper-leg-2-0.8","mesh":20,"translation":[5.8688,1.25,0],"scale":[0.16,2.1,0.16]},{"name":"feed-conveyor","mesh":21,"translation":[0.704,5.56,-2.7],"rotation":[0,0,0.099833,0.995004],"scale":[11.264,0.55,1.1]},{"name":"aggregate-pile-0","mesh":22,"translation":[-8.8,1.2,5.25],"scale":[2.2,2.2,2.2]},{"name":"aggregate-pile-1","mesh":23,"translation":[-4.4,1.2,5.25],"scale":[2.2,2.2,2.2]},{"name":"aggregate-pile-2","mesh":22,"translation":[0,1.2,5.25],"scale":[2.2,2.2,2.2]},{"name":"aggregate-pile-3","mesh":23,"translation":[4.4,1.2,5.25],"scale":[2.2,2.2,2.2]},{"name":"aggregate-pile-4","mesh":22,"translation":[8.8,1.2,5.25],"scale":[2.2,2.2,2.2]},{"name":"aggregate-sign-back","mesh":11,"translation":[0,2.4,7.7],"scale":[4.7,1,1]},{"name":"aggregate-sign","mesh":12,"translation":[0,2.4,7.729],"scale":[4.6,0.9,1]},{"name":"site-pad","mesh":13,"translation":[0,0.06,0],"scale":[14.6432,0.12,15.6]},{"name":"variant-apron","mesh":14,"translation":[2.7456,0.13,7.72],"scale":[3.0976,0.08,1.34]},{"name":"bollard-0","mesh":15,"translation":[-5.3504,0.43,7.84],"scale":[0.08,0.74,0.08]},{"name":"layout-cabinet","mesh":16,"translation":[7.24,0.495,3.375],"scale":[0.81,0.75,0.32]},{"name":"deferred-maintenance-skip","mesh":17,"translation":[-4.7872,0.5,-6.6],"scale":[1.15,0.75,0.65]},{"name":"hopper-0","mesh":19,"translation":[-5.0688,3,0],"scale":[1.4,2.85,1.4]},{"name":"hopper-leg-0--0.8","mesh":20,"translation":[-5.8688,1.25,0],"scale":[0.16,2.1,0.16]},{"name":"hopper-leg-0-0.8","mesh":20,"translation":[-4.2688,1.25,0],"scale":[0.16,2.1,0.16]},{"name":"hopper-1","mesh":19,"translation":[5.0688,3,0],"scale":[1.4,2.85,1.4]},{"name":"hopper-leg-1--0.8","mesh":20,"translation":[4.2688,1.25,0],"scale":[0.16,2.1,0.16]},{"name":"hopper-leg-1-0.8","mesh":20,"translation":[5.8688,1.25,0],"scale":[0.16,2.1,0.16]},{"name":"feed-conveyor","mesh":21,"translation":[0.704,5.56,-2.7],"rotation":[0,0,0.099833,0.995004],"scale":[11.264,0.55,1.1]},{"name":"aggregate-pile-0","mesh":22,"translation":[0,1.2,5.25],"scale":[2.2,2.2,2.2]},{"name":"aggregate-sign-back","mesh":11,"translation":[0,2.4,7.7],"scale":[4.7,1,1]},{"name":"aggregate-sign","mesh":12,"translation":[0,2.4,7.729],"scale":[4.6,0.9,1]}],"meshes":[{"primitives":[{"attributes":{"POSITION":0,"NORMAL":1,"TEXCOORD_0":2},"material":0,"mode":4}]},{"primitives":[{"attributes":{"POSITION":0,"NORMAL":1,"TEXCOORD_0":3},"material":0,"mode":4}]},{"primitives":[{"attributes":{"POSITION":4,"NORMAL":5,"TEXCOORD_0":6},"material":1,"mode":4,"indices":7}]},{"primitives":[{"attributes":{"POSITION":0,"NORMAL":1,"TEXCOORD_0":8},"material":2,"mode":4}]},{"primitives":[{"attributes":{"POSITION":0,"NORMAL":1,"TEXCOORD_0":9},"material":1,"mode":4}]},{"primitives":[{"attributes":{"POSITION":0,"NORMAL":1,"TEXCOORD_0":10},"material":3,"mode":4}]},{"primitives":[{"attributes":{"POSITION":11,"NORMAL":12,"TEXCOORD_0":13},"material":2,"mode":4,"indices":7}]},{"primitives":[{"attributes":{"POSITION":0,"NORMAL":1,"TEXCOORD_0":14},"material":4,"mode":4}]},{"primitives":[{"attributes":{"POSITION":0,"NORMAL":1,"TEXCOORD_0":15},"material":4,"mode":4}]},{"primitives":[{"attributes":{"POSITION":16,"NORMAL":17,"TEXCOORD_0":18},"material":3,"mode":4,"indices":7}]},{"primitives":[{"attributes":{"POSITION":16,"NORMAL":17,"TEXCOORD_0":19},"material":5,"mode":4,"indices":7}]},{"primitives":[{"attributes":{"POSITION":20,"NORMAL":21,"TEXCOORD_0":22},"material":4,"mode":4,"indices":23}]},{"primitives":[{"attributes":{"POSITION":24,"NORMAL":25,"TEXCOORD_0":26},"material":6,"mode":4,"indices":27}]},{"primitives":[{"attributes":{"POSITION":28,"NORMAL":21,"TEXCOORD_0":29},"material":0,"mode":4,"indices":23}]},{"primitives":[{"attributes":{"POSITION":28,"NORMAL":21,"TEXCOORD_0":30},"material":0,"mode":4,"indices":23}]},{"primitives":[{"attributes":{"POSITION":31,"NORMAL":32,"TEXCOORD_0":33},"material":1,"mode":4,"indices":34}]},{"primitives":[{"attributes":{"POSITION":28,"NORMAL":21,"TEXCOORD_0":35},"material":2,"mode":4,"indices":23}]},{"primitives":[{"attributes":{"POSITION":28,"NORMAL":21,"TEXCOORD_0":36},"material":1,"mode":4,"indices":23}]},{"primitives":[{"attributes":{"POSITION":28,"NORMAL":21,"TEXCOORD_0":37},"material":3,"mode":4,"indices":23}]},{"primitives":[{"attributes":{"POSITION":38,"NORMAL":39,"TEXCOORD_0":40},"material":2,"mode":4,"indices":34}]},{"primitives":[{"attributes":{"POSITION":28,"NORMAL":21,"TEXCOORD_0":41},"material":4,"mode":4,"indices":23}]},{"primitives":[{"attributes":{"POSITION":28,"NORMAL":21,"TEXCOORD_0":42},"material":4,"mode":4,"indices":23}]},{"primitives":[{"attributes":{"POSITION":43,"NORMAL":44,"TEXCOORD_0":45},"material":3,"mode":4,"indices":34}]},{"primitives":[{"attributes":{"POSITION":43,"NORMAL":44,"TEXCOORD_0":46},"material":5,"mode":4,"indices":34}]}],"materials":[{"name":"asphalt","pbrMetallicRoughness":{"baseColorTexture":{"index":0},"metallicRoughnessTexture":{"index":2},"roughnessFactor":1,"metallicFactor":1},"normalTexture":{"index":1,"scale":0.62},"occlusionTexture":{"index":2,"strength":0.35}},{"name":"paint-orange","pbrMetallicRoughness":{"baseColorFactor":[0.6444796819634361,0.1878207722902346,0.040915196900556984,1],"roughnessFactor":0.68,"metallicFactor":0.03}},{"name":"metal-galvanized","pbrMetallicRoughness":{"baseColorTexture":{"index":3},"metallicRoughnessTexture":{"index":5},"roughnessFactor":1,"metallicFactor":1},"normalTexture":{"index":4,"scale":0.15},"occlusionTexture":{"index":5,"strength":0.35}},{"name":"concrete","pbrMetallicRoughness":{"baseColorTexture":{"index":6},"metallicRoughnessTexture":{"index":8},"roughnessFactor":1,"metallicFactor":1},"normalTexture":{"index":7,"scale":0.82},"occlusionTexture":{"index":8,"strength":0.35}},{"name":"metal-dark","pbrMetallicRoughness":{"baseColorTexture":{"index":9},"metallicRoughnessTexture":{"index":11},"roughnessFactor":1,"metallicFactor":1},"normalTexture":{"index":10,"scale":0.35},"occlusionTexture":{"index":11,"strength":0.35}},{"name":"soil","pbrMetallicRoughness":{"baseColorTexture":{"index":12},"metallicRoughnessTexture":{"index":14},"roughnessFactor":1,"metallicFactor":1},"normalTexture":{"index":13,"scale":0.8},"occlusionTexture":{"index":14,"strength":0.35}},{"name":"aggregate-loader signage","pbrMetallicRoughness":{"baseColorTexture":{"index":15},"roughnessFactor":1,"metallicFactor":0},"extensions":{"KHR_materials_unlit":{}}}],"textures":[{"source":0,"sampler":0},{"source":1,"sampler":0},{"source":2,"sampler":0},{"source":3,"sampler":0},{"source":4,"sampler":0},{"source":5,"sampler":0},{"source":6,"sampler":0},{"source":7,"sampler":0},{"source":8,"sampler":0},{"source":9,"sampler":0},{"source":10,"sampler":0},{"source":11,"sampler":0},{"source":12,"sampler":0},{"source":13,"sampler":0},{"source":14,"sampler":0},{"source":15,"sampler":0}],"images":[{"uri":"../textures/asphalt-albedo.png"},{"uri":"../textures/asphalt-normal.png"},{"uri":"../textures/asphalt-orm.png"},{"uri":"../textures/metal-galvanized-albedo.png"},{"uri":"../textures/metal-galvanized-normal.png"},{"uri":"../textures/metal-galvanized-orm.png"},{"uri":"../textures/concrete-albedo.png"},{"uri":"../textures/concrete-normal.png"},{"uri":"../textures/concrete-orm.png"},{"uri":"../textures/metal-dark-albedo.png"},{"uri":"../textures/metal-dark-normal.png"},{"uri":"../textures/metal-dark-orm.png"},{"uri":"../textures/soil-albedo.png"},{"uri":"../textures/soil-normal.png"},{"uri":"../textures/soil-orm.png"},{"uri":"../signs/aggregate-loader.png"}],"samplers":[{"magFilter":9729,"minFilter":9987,"wrapS":10497,"wrapT":10497}],"buffers":[{"uri":"../shared/geometry.bin","byteLength":16435520}],"bufferViews":[{"buffer":0,"byteOffset":0,"byteLength":3888,"target":34962},{"buffer":0,"byteOffset":3888,"byteLength":3888,"target":34962},{"buffer":0,"byteOffset":349604,"byteLength":2592,"target":34962},{"buffer":0,"byteOffset":352196,"byteLength":2592,"target":34962},{"buffer":0,"byteOffset":12960,"byteLength":1200,"target":34962},{"buffer":0,"byteOffset":14160,"byteLength":1200,"target":34962},{"buffer":0,"byteOffset":179140,"byteLength":800,"target":34962},{"buffer":0,"byteOffset":16160,"byteLength":384,"target":34963},{"buffer":0,"byteOffset":179940,"byteLength":2592,"target":34962},{"buffer":0,"byteOffset":205668,"byteLength":2592,"target":34962},{"buffer":0,"byteOffset":208260,"byteLength":2592,"target":34962},{"buffer":0,"byteOffset":228196,"byteLength":1200,"target":34962},{"buffer":0,"byteOffset":229396,"byteLength":1200,"target":34962},{"buffer":0,"byteOffset":354788,"byteLength":800,"target":34962},{"buffer":0,"byteOffset":231396,"byteLength":2592,"target":34962},{"buffer":0,"byteOffset":233988,"byteLength":2592,"target":34962},{"buffer":0,"byteOffset":236580,"byteLength":1200,"target":34962},{"buffer":0,"byteOffset":237780,"byteLength":1200,"target":34962},{"buffer":0,"byteOffset":238980,"byteLength":800,"target":34962},{"buffer":0,"byteOffset":239780,"byteLength":800,"target":34962},{"buffer":0,"byteOffset":45664,"byteLength":288,"target":34962},{"buffer":0,"byteOffset":45952,"byteLength":288,"target":34962},{"buffer":0,"byteOffset":46240,"byteLength":192,"target":34962},{"buffer":0,"byteOffset":46432,"byteLength":72,"target":34963},{"buffer":0,"byteOffset":46504,"byteLength":48,"target":34962},{"buffer":0,"byteOffset":46552,"byteLength":48,"target":34962},{"buffer":0,"byteOffset":222852,"byteLength":32,"target":34962},{"buffer":0,"byteOffset":46632,"byteLength":12,"target":34963},{"buffer":0,"byteOffset":46644,"byteLength":288,"target":34962},{"buffer":0,"byteOffset":355588,"byteLength":192,"target":34962},{"buffer":0,"byteOffset":355780,"byteLength":192,"target":34962},{"buffer":0,"byteOffset":47316,"byteLength":480,"target":34962},{"buffer":0,"byteOffset":47796,"byteLength":480,"target":34962},{"buffer":0,"byteOffset":182756,"byteLength":320,"target":34962},{"buffer":0,"byteOffset":48596,"byteLength":144,"target":34963},{"buffer":0,"byteOffset":183076,"byteLength":192,"target":34962},{"buffer":0,"byteOffset":210884,"byteLength":192,"target":34962},{"buffer":0,"byteOffset":211076,"byteLength":192,"target":34962},{"buffer":0,"byteOffset":240964,"byteLength":480,"target":34962},{"buffer":0,"byteOffset":241444,"byteLength":480,"target":34962},{"buffer":0,"byteOffset":355972,"byteLength":320,"target":34962},{"buffer":0,"byteOffset":242244,"byteLength":192,"target":34962},{"buffer":0,"byteOffset":242436,"byteLength":192,"target":34962},{"buffer":0,"byteOffset":242628,"byteLength":480,"target":34962},{"buffer":0,"byteOffset":243108,"byteLength":480,"target":34962},{"buffer":0,"byteOffset":243588,"byteLength":320,"target":34962},{"buffer":0,"byteOffset":243908,"byteLength":320,"target":34962}],"accessors":[{"bufferView":0,"componentType":5126,"count":324,"type":"VEC3","min":[-0.5,-0.5,-0.5],"max":[0.5,0.5,0.5]},{"bufferView":1,"componentType":5126,"count":324,"type":"VEC3"},{"bufferView":2,"componentType":5126,"count":324,"type":"VEC2"},{"bufferView":3,"componentType":5126,"count":324,"type":"VEC2"},{"bufferView":4,"componentType":5126,"count":100,"type":"VEC3","min":[-1,-0.5,-1],"max":[1,0.5,1]},{"bufferView":5,"componentType":5126,"count":100,"type":"VEC3"},{"bufferView":6,"componentType":5126,"count":100,"type":"VEC2"},{"bufferView":7,"componentType":5123,"count":192,"type":"SCALAR"},{"bufferView":8,"componentType":5126,"count":324,"type":"VEC2"},{"bufferView":9,"componentType":5126,"count":324,"type":"VEC2"},{"bufferView":10,"componentType":5126,"count":324,"type":"VEC2"},{"bufferView":11,"componentType":5126,"count":100,"type":"VEC3","min":[-1,-0.5,-1],"max":[1,0.5,1]},{"bufferView":12,"componentType":5126,"count":100,"type":"VEC3"},{"bufferView":13,"componentType":5126,"count":100,"type":"VEC2"},{"bufferView":14,"componentType":5126,"count":324,"type":"VEC2"},{"bufferView":15,"componentType":5126,"count":324,"type":"VEC2"},{"bufferView":16,"componentType":5126,"count":100,"type":"VEC3","min":[-1,-0.5,-1],"max":[1,0.5,1]},{"bufferView":17,"componentType":5126,"count":100,"type":"VEC3"},{"bufferView":18,"componentType":5126,"count":100,"type":"VEC2"},{"bufferView":19,"componentType":5126,"count":100,"type":"VEC2"},{"bufferView":20,"componentType":5126,"count":24,"type":"VEC3","min":[-0.5,-0.5,-0.02500000037252903],"max":[0.5,0.5,0.02500000037252903]},{"bufferView":21,"componentType":5126,"count":24,"type":"VEC3"},{"bufferView":22,"componentType":5126,"count":24,"type":"VEC2"},{"bufferView":23,"componentType":5123,"count":36,"type":"SCALAR"},{"bufferView":24,"componentType":5126,"count":4,"type":"VEC3","min":[-0.5,-0.5,0],"max":[0.5,0.5,0]},{"bufferView":25,"componentType":5126,"count":4,"type":"VEC3"},{"bufferView":26,"componentType":5126,"count":4,"type":"VEC2"},{"bufferView":27,"componentType":5123,"count":6,"type":"SCALAR"},{"bufferView":28,"componentType":5126,"count":24,"type":"VEC3","min":[-0.5,-0.5,-0.5],"max":[0.5,0.5,0.5]},{"bufferView":29,"componentType":5126,"count":24,"type":"VEC2"},{"bufferView":30,"componentType":5126,"count":24,"type":"VEC2"},{"bufferView":31,"componentType":5126,"count":40,"type":"VEC3","min":[-0.8660253882408142,-0.5,-1],"max":[0.8660253882408142,0.5,1]},{"bufferView":32,"componentType":5126,"count":40,"type":"VEC3"},{"bufferView":33,"componentType":5126,"count":40,"type":"VEC2"},{"bufferView":34,"componentType":5123,"count":72,"type":"SCALAR"},{"bufferView":35,"componentType":5126,"count":24,"type":"VEC2"},{"bufferView":36,"componentType":5126,"count":24,"type":"VEC2"},{"bufferView":37,"componentType":5126,"count":24,"type":"VEC2"},{"bufferView":38,"componentType":5126,"count":40,"type":"VEC3","min":[-0.8660253882408142,-0.5,-1],"max":[0.8660253882408142,0.5,1]},{"bufferView":39,"componentType":5126,"count":40,"type":"VEC3"},{"bufferView":40,"componentType":5126,"count":40,"type":"VEC2"},{"bufferView":41,"componentType":5126,"count":24,"type":"VEC2"},{"bufferView":42,"componentType":5126,"count":24,"type":"VEC2"},{"bufferView":43,"componentType":5126,"count":40,"type":"VEC3","min":[-0.8660253882408142,-0.5,-1],"max":[0.8660253882408142,0.5,1]},{"bufferView":44,"componentType":5126,"count":40,"type":"VEC3"},{"bufferView":45,"componentType":5126,"count":40,"type":"VEC2"},{"bufferView":46,"componentType":5126,"count":40,"type":"VEC2"}],"extensionsUsed":["KHR_materials_unlit"],"extras":{"id":"vlt-aggregate-loader-36","family":"aggregate-loader","variant":35,"plan":"D1-2","units":"metres","up":"+Y","front":"+Z","lodScenes":[0,1,2]}}