{"asset":{"version":"2.0","generator":"SLOPMERICA Department of Unnecessary Development 1.0"},"scene":0,"scenes":[{"name":"LOD 0","nodes":[0,1,2,3,4,5,6,7,8,9,10,11,12,13,14,15,16,17,18,19,20,21,22,23,24,25,26],"extras":{"level":0}},{"name":"LOD 1","nodes":[27,28,29,30,31,32,33,34,35,36,37,38,39,40,41,42,43,44,45,46,47,48,49,50,51,52,53],"extras":{"level":1}},{"name":"LOD 2","nodes":[54,55,56,57,58,59,60,61,62,63,64,65,66,67,68],"extras":{"level":2}}],"nodes":[{"name":"site-pad","mesh":0,"translation":[0,0.06,0],"scale":[13.728,0.12,9.984]},{"name":"variant-apron","mesh":1,"translation":[-2.574,0.13,5.02],"scale":[4.224,0.08,0.8]},{"name":"bollard-0","mesh":2,"translation":[-5.016,0.43,5.14],"scale":[0.08,0.62,0.08]},{"name":"bollard-1","mesh":2,"translation":[-2.508,0.43,5.14],"scale":[0.08,0.62,0.08]},{"name":"bollard-2","mesh":2,"translation":[0,0.43,5.14],"scale":[0.08,0.62,0.08]},{"name":"bollard-3","mesh":2,"translation":[2.508,0.43,5.14],"scale":[0.08,0.62,0.08]},{"name":"bollard-4","mesh":2,"translation":[5.016,0.43,5.14],"scale":[0.08,0.62,0.08]},{"name":"layout-cabinet","mesh":3,"translation":[-6.8,0.615,-2.16],"scale":[0.45,0.99,0.32]},{"name":"deferred-maintenance-skip","mesh":4,"translation":[4.488,0.5,-4.224],"scale":[1.63,0.75,0.65]},{"name":"skip-rubble","mesh":5,"translation":[4.488,0.98,-4.224],"scale":[0.72,0.2,0.5]},{"name":"civic-shell","mesh":6,"translation":[0,2.928,0],"scale":[13.2,5.616,9.6]},{"name":"flat-budget-roof","mesh":7,"translation":[0,5.866,0],"scale":[13.5,0.25,9.9]},{"name":"entrance-recess","mesh":8,"translation":[-3.168,1.42,4.93],"scale":[2.48,2.6,0.24]},{"name":"glass-doors","mesh":9,"translation":[-3.168,1.3,5.08],"scale":[1.5,2.15,0.12]},{"name":"window-0","mesh":10,"translation":[-5.016,3.25728,4.95],"scale":[0.85,1.15,0.1]},{"name":"window-2","mesh":10,"translation":[-1.0032,3.25728,4.95],"scale":[0.85,1.15,0.1]},{"name":"window-3","mesh":10,"translation":[1.0032,3.25728,4.95],"scale":[0.85,1.15,0.1]},{"name":"window-4","mesh":10,"translation":[3.0096,3.25728,4.95],"scale":[0.85,1.15,0.1]},{"name":"window-5","mesh":10,"translation":[5.016,3.25728,4.95],"scale":[0.85,1.15,0.1]},{"name":"civic-sign-back","mesh":11,"translation":[0,4.896,4.98],"scale":[6.3,1,1]},{"name":"civic-sign","mesh":12,"translation":[0,4.896,5.009],"scale":[6.2,0.9,1]},{"name":"engine-door-0","mesh":13,"translation":[-4.224,1.65,5.02],"scale":[1.8,3,0.18]},{"name":"engine-door-1","mesh":13,"translation":[-1.408,1.65,5.02],"scale":[1.8,3,0.18]},{"name":"engine-door-2","mesh":13,"translation":[1.408,1.65,5.02],"scale":[1.8,3,0.18]},{"name":"engine-door-3","mesh":13,"translation":[4.224,1.65,5.02],"scale":[1.8,3,0.18]},{"name":"hose-drying-tower","mesh":14,"translation":[-4.488,7.516,-1.728],"scale":[1.05,5,1.05]},{"name":"tower-cap","mesh":15,"translation":[-4.488,10.096,-1.728],"scale":[2.35,0.28,2.35]},{"name":"site-pad","mesh":16,"translation":[0,0.06,0],"scale":[13.728,0.12,9.984]},{"name":"variant-apron","mesh":17,"translation":[-2.574,0.13,5.02],"scale":[4.224,0.08,0.8]},{"name":"bollard-0","mesh":18,"translation":[-5.016,0.43,5.14],"scale":[0.08,0.62,0.08]},{"name":"bollard-1","mesh":18,"translation":[-2.508,0.43,5.14],"scale":[0.08,0.62,0.08]},{"name":"bollard-2","mesh":18,"translation":[0,0.43,5.14],"scale":[0.08,0.62,0.08]},{"name":"bollard-3","mesh":18,"translation":[2.508,0.43,5.14],"scale":[0.08,0.62,0.08]},{"name":"bollard-4","mesh":18,"translation":[5.016,0.43,5.14],"scale":[0.08,0.62,0.08]},{"name":"layout-cabinet","mesh":19,"translation":[-6.8,0.615,-2.16],"scale":[0.45,0.99,0.32]},{"name":"deferred-maintenance-skip","mesh":20,"translation":[4.488,0.5,-4.224],"scale":[1.63,0.75,0.65]},{"name":"skip-rubble","mesh":21,"translation":[4.488,0.98,-4.224],"scale":[0.72,0.2,0.5]},{"name":"civic-shell","mesh":22,"translation":[0,2.928,0],"scale":[13.2,5.616,9.6]},{"name":"flat-budget-roof","mesh":23,"translation":[0,5.866,0],"scale":[13.5,0.25,9.9]},{"name":"entrance-recess","mesh":24,"translation":[-3.168,1.42,4.93],"scale":[2.48,2.6,0.24]},{"name":"glass-doors","mesh":25,"translation":[-3.168,1.3,5.08],"scale":[1.5,2.15,0.12]},{"name":"window-0","mesh":26,"translation":[-5.016,3.25728,4.95],"scale":[0.85,1.15,0.1]},{"name":"window-2","mesh":26,"translation":[-1.0032,3.25728,4.95],"scale":[0.85,1.15,0.1]},{"name":"window-3","mesh":26,"translation":[1.0032,3.25728,4.95],"scale":[0.85,1.15,0.1]},{"name":"window-4","mesh":26,"translation":[3.0096,3.25728,4.95],"scale":[0.85,1.15,0.1]},{"name":"window-5","mesh":26,"translation":[5.016,3.25728,4.95],"scale":[0.85,1.15,0.1]},{"name":"civic-sign-back","mesh":11,"translation":[0,4.896,4.98],"scale":[6.3,1,1]},{"name":"civic-sign","mesh":12,"translation":[0,4.896,5.009],"scale":[6.2,0.9,1]},{"name":"engine-door-0","mesh":27,"translation":[-4.224,1.65,5.02],"scale":[1.8,3,0.18]},{"name":"engine-door-1","mesh":27,"translation":[-1.408,1.65,5.02],"scale":[1.8,3,0.18]},{"name":"engine-door-2","mesh":27,"translation":[1.408,1.65,5.02],"scale":[1.8,3,0.18]},{"name":"engine-door-3","mesh":27,"translation":[4.224,1.65,5.02],"scale":[1.8,3,0.18]},{"name":"hose-drying-tower","mesh":28,"translation":[-4.488,7.516,-1.728],"scale":[1.05,5,1.05]},{"name":"tower-cap","mesh":29,"translation":[-4.488,10.096,-1.728],"scale":[2.35,0.28,2.35]},{"name":"site-pad","mesh":16,"translation":[0,0.06,0],"scale":[13.728,0.12,9.984]},{"name":"variant-apron","mesh":17,"translation":[-2.574,0.13,5.02],"scale":[4.224,0.08,0.8]},{"name":"bollard-0","mesh":18,"translation":[-5.016,0.43,5.14],"scale":[0.08,0.62,0.08]},{"name":"layout-cabinet","mesh":19,"translation":[-6.8,0.615,-2.16],"scale":[0.45,0.99,0.32]},{"name":"deferred-maintenance-skip","mesh":20,"translation":[4.488,0.5,-4.224],"scale":[1.63,0.75,0.65]},{"name":"civic-shell","mesh":22,"translation":[0,2.928,0],"scale":[13.2,5.616,9.6]},{"name":"flat-budget-roof","mesh":23,"translation":[0,5.866,0],"scale":[13.5,0.25,9.9]},{"name":"entrance-recess","mesh":24,"translation":[-3.168,1.42,4.93],"scale":[2.48,2.6,0.24]},{"name":"glass-doors","mesh":25,"translation":[-3.168,1.3,5.08],"scale":[1.5,2.15,0.12]},{"name":"civic-sign-back","mesh":11,"translation":[0,4.896,4.98],"scale":[6.3,1,1]},{"name":"civic-sign","mesh":12,"translation":[0,4.896,5.009],"scale":[6.2,0.9,1]},{"name":"engine-door-0","mesh":27,"translation":[-4.224,1.65,5.02],"scale":[1.8,3,0.18]},{"name":"engine-door-1","mesh":27,"translation":[4.224,1.65,5.02],"scale":[1.8,3,0.18]},{"name":"hose-drying-tower","mesh":28,"translation":[-4.488,7.516,-1.728],"scale":[1.05,5,1.05]},{"name":"tower-cap","mesh":29,"translation":[-4.488,10.096,-1.728],"scale":[2.35,0.28,2.35]}],"meshes":[{"primitives":[{"attributes":{"POSITION":0,"NORMAL":1,"TEXCOORD_0":2},"material":0,"mode":4}]},{"primitives":[{"attributes":{"POSITION":0,"NORMAL":1,"TEXCOORD_0":3},"material":1,"mode":4}]},{"primitives":[{"attributes":{"POSITION":4,"NORMAL":5,"TEXCOORD_0":6},"material":2,"mode":4,"indices":7}]},{"primitives":[{"attributes":{"POSITION":0,"NORMAL":1,"TEXCOORD_0":8},"material":3,"mode":4}]},{"primitives":[{"attributes":{"POSITION":0,"NORMAL":1,"TEXCOORD_0":9},"material":2,"mode":4}]},{"primitives":[{"attributes":{"POSITION":0,"NORMAL":1,"TEXCOORD_0":10},"material":0,"mode":4}]},{"primitives":[{"attributes":{"POSITION":11,"NORMAL":1,"TEXCOORD_0":12},"material":4,"mode":4}]},{"primitives":[{"attributes":{"POSITION":0,"NORMAL":1,"TEXCOORD_0":13},"material":5,"mode":4}]},{"primitives":[{"attributes":{"POSITION":0,"NORMAL":1,"TEXCOORD_0":14},"material":6,"mode":4}]},{"primitives":[{"attributes":{"POSITION":0,"NORMAL":1,"TEXCOORD_0":15},"material":7,"mode":4}]},{"primitives":[{"attributes":{"POSITION":0,"NORMAL":1,"TEXCOORD_0":16},"material":7,"mode":4}]},{"primitives":[{"attributes":{"POSITION":17,"NORMAL":18,"TEXCOORD_0":19},"material":6,"mode":4,"indices":20}]},{"primitives":[{"attributes":{"POSITION":21,"NORMAL":22,"TEXCOORD_0":23},"material":8,"mode":4,"indices":24}]},{"primitives":[{"attributes":{"POSITION":0,"NORMAL":1,"TEXCOORD_0":25},"material":9,"mode":4}]},{"primitives":[{"attributes":{"POSITION":26,"NORMAL":27,"TEXCOORD_0":28},"material":4,"mode":4,"indices":7}]},{"primitives":[{"attributes":{"POSITION":0,"NORMAL":1,"TEXCOORD_0":29},"material":5,"mode":4}]},{"primitives":[{"attributes":{"POSITION":30,"NORMAL":18,"TEXCOORD_0":31},"material":0,"mode":4,"indices":20}]},{"primitives":[{"attributes":{"POSITION":30,"NORMAL":18,"TEXCOORD_0":32},"material":1,"mode":4,"indices":20}]},{"primitives":[{"attributes":{"POSITION":33,"NORMAL":34,"TEXCOORD_0":35},"material":2,"mode":4,"indices":36}]},{"primitives":[{"attributes":{"POSITION":30,"NORMAL":18,"TEXCOORD_0":37},"material":3,"mode":4,"indices":20}]},{"primitives":[{"attributes":{"POSITION":30,"NORMAL":18,"TEXCOORD_0":38},"material":2,"mode":4,"indices":20}]},{"primitives":[{"attributes":{"POSITION":30,"NORMAL":18,"TEXCOORD_0":39},"material":0,"mode":4,"indices":20}]},{"primitives":[{"attributes":{"POSITION":30,"NORMAL":18,"TEXCOORD_0":40},"material":4,"mode":4,"indices":20}]},{"primitives":[{"attributes":{"POSITION":30,"NORMAL":18,"TEXCOORD_0":41},"material":5,"mode":4,"indices":20}]},{"primitives":[{"attributes":{"POSITION":30,"NORMAL":18,"TEXCOORD_0":42},"material":6,"mode":4,"indices":20}]},{"primitives":[{"attributes":{"POSITION":30,"NORMAL":18,"TEXCOORD_0":43},"material":7,"mode":4,"indices":20}]},{"primitives":[{"attributes":{"POSITION":30,"NORMAL":18,"TEXCOORD_0":44},"material":7,"mode":4,"indices":20}]},{"primitives":[{"attributes":{"POSITION":30,"NORMAL":18,"TEXCOORD_0":45},"material":9,"mode":4,"indices":20}]},{"primitives":[{"attributes":{"POSITION":46,"NORMAL":47,"TEXCOORD_0":48},"material":4,"mode":4,"indices":36}]},{"primitives":[{"attributes":{"POSITION":30,"NORMAL":18,"TEXCOORD_0":49},"material":5,"mode":4,"indices":20}]}],"materials":[{"name":"concrete","pbrMetallicRoughness":{"baseColorTexture":{"index":0},"metallicRoughnessTexture":{"index":2},"roughnessFactor":1,"metallicFactor":1},"normalTexture":{"index":1,"scale":0.82},"occlusionTexture":{"index":2,"strength":0.35}},{"name":"asphalt","pbrMetallicRoughness":{"baseColorTexture":{"index":3},"metallicRoughnessTexture":{"index":5},"roughnessFactor":1,"metallicFactor":1},"normalTexture":{"index":4,"scale":0.62},"occlusionTexture":{"index":5,"strength":0.35}},{"name":"paint-orange","pbrMetallicRoughness":{"baseColorFactor":[0.6444796819634361,0.1878207722902346,0.040915196900556984,1],"roughnessFactor":0.68,"metallicFactor":0.03}},{"name":"metal-galvanized","pbrMetallicRoughness":{"baseColorTexture":{"index":6},"metallicRoughnessTexture":{"index":8},"roughnessFactor":1,"metallicFactor":1},"normalTexture":{"index":7,"scale":0.15},"occlusionTexture":{"index":8,"strength":0.35}},{"name":"brick-red","pbrMetallicRoughness":{"baseColorTexture":{"index":9},"metallicRoughnessTexture":{"index":11},"roughnessFactor":1,"metallicFactor":1},"normalTexture":{"index":10,"scale":1.15},"occlusionTexture":{"index":11,"strength":0.35}},{"name":"roof-metal","pbrMetallicRoughness":{"baseColorTexture":{"index":12},"metallicRoughnessTexture":{"index":14},"roughnessFactor":1,"metallicFactor":1},"normalTexture":{"index":13,"scale":0.68},"occlusionTexture":{"index":14,"strength":0.35}},{"name":"metal-dark","pbrMetallicRoughness":{"baseColorTexture":{"index":15},"metallicRoughnessTexture":{"index":17},"roughnessFactor":1,"metallicFactor":1},"normalTexture":{"index":16,"scale":0.35},"occlusionTexture":{"index":17,"strength":0.35}},{"name":"glass-blue","pbrMetallicRoughness":{"baseColorTexture":{"index":18},"metallicRoughnessTexture":{"index":20},"roughnessFactor":1,"metallicFactor":1},"normalTexture":{"index":19,"scale":0.12},"occlusionTexture":{"index":20,"strength":0.35}},{"name":"volunteer-firehouse signage","pbrMetallicRoughness":{"baseColorTexture":{"index":21},"roughnessFactor":1,"metallicFactor":0},"extensions":{"KHR_materials_unlit":{}}},{"name":"paint-red","pbrMetallicRoughness":{"baseColorFactor":[0.46778379610254284,0.08021982030622662,0.05126945836711539,1],"roughnessFactor":0.62,"metallicFactor":0.05}}],"textures":[{"source":0,"sampler":0},{"source":1,"sampler":0},{"source":2,"sampler":0},{"source":3,"sampler":0},{"source":4,"sampler":0},{"source":5,"sampler":0},{"source":6,"sampler":0},{"source":7,"sampler":0},{"source":8,"sampler":0},{"source":9,"sampler":0},{"source":10,"sampler":0},{"source":11,"sampler":0},{"source":12,"sampler":0},{"source":13,"sampler":0},{"source":14,"sampler":0},{"source":15,"sampler":0},{"source":16,"sampler":0},{"source":17,"sampler":0},{"source":18,"sampler":0},{"source":19,"sampler":0},{"source":20,"sampler":0},{"source":21,"sampler":0}],"images":[{"uri":"../textures/concrete-albedo.png"},{"uri":"../textures/concrete-normal.png"},{"uri":"../textures/concrete-orm.png"},{"uri":"../textures/asphalt-albedo.png"},{"uri":"../textures/asphalt-normal.png"},{"uri":"../textures/asphalt-orm.png"},{"uri":"../textures/metal-galvanized-albedo.png"},{"uri":"../textures/metal-galvanized-normal.png"},{"uri":"../textures/metal-galvanized-orm.png"},{"uri":"../textures/brick-red-albedo.png"},{"uri":"../textures/brick-red-normal.png"},{"uri":"../textures/brick-red-orm.png"},{"uri":"../textures/roof-metal-albedo.png"},{"uri":"../textures/roof-metal-normal.png"},{"uri":"../textures/roof-metal-orm.png"},{"uri":"../textures/metal-dark-albedo.png"},{"uri":"../textures/metal-dark-normal.png"},{"uri":"../textures/metal-dark-orm.png"},{"uri":"../textures/glass-blue-albedo.png"},{"uri":"../textures/glass-blue-normal.png"},{"uri":"../textures/glass-blue-orm.png"},{"uri":"../signs/volunteer-firehouse.png"}],"samplers":[{"magFilter":9729,"minFilter":9987,"wrapS":10497,"wrapT":10497}],"buffers":[{"uri":"../shared/geometry.bin","byteLength":16435520}],"bufferViews":[{"buffer":0,"byteOffset":0,"byteLength":3888,"target":34962},{"buffer":0,"byteOffset":3888,"byteLength":3888,"target":34962},{"buffer":0,"byteOffset":15356940,"byteLength":2592,"target":34962},{"buffer":0,"byteOffset":12959848,"byteLength":2592,"target":34962},{"buffer":0,"byteOffset":12960,"byteLength":1200,"target":34962},{"buffer":0,"byteOffset":14160,"byteLength":1200,"target":34962},{"buffer":0,"byteOffset":15360,"byteLength":800,"target":34962},{"buffer":0,"byteOffset":16160,"byteLength":384,"target":34963},{"buffer":0,"byteOffset":106756,"byteLength":2592,"target":34962},{"buffer":0,"byteOffset":219716,"byteLength":2592,"target":34962},{"buffer":0,"byteOffset":208260,"byteLength":2592,"target":34962},{"buffer":0,"byteOffset":19136,"byteLength":3888,"target":34962},{"buffer":0,"byteOffset":15359532,"byteLength":2592,"target":34962},{"buffer":0,"byteOffset":15362124,"byteLength":2592,"target":34962},{"buffer":0,"byteOffset":3961404,"byteLength":2592,"target":34962},{"buffer":0,"byteOffset":3899772,"byteLength":2592,"target":34962},{"buffer":0,"byteOffset":3902364,"byteLength":2592,"target":34962},{"buffer":0,"byteOffset":45664,"byteLength":288,"target":34962},{"buffer":0,"byteOffset":45952,"byteLength":288,"target":34962},{"buffer":0,"byteOffset":46240,"byteLength":192,"target":34962},{"buffer":0,"byteOffset":46432,"byteLength":72,"target":34963},{"buffer":0,"byteOffset":46504,"byteLength":48,"target":34962},{"buffer":0,"byteOffset":46552,"byteLength":48,"target":34962},{"buffer":0,"byteOffset":222308,"byteLength":32,"target":34962},{"buffer":0,"byteOffset":46632,"byteLength":12,"target":34963},{"buffer":0,"byteOffset":15315884,"byteLength":2592,"target":34962},{"buffer":0,"byteOffset":15318476,"byteLength":1200,"target":34962},{"buffer":0,"byteOffset":15319676,"byteLength":1200,"target":34962},{"buffer":0,"byteOffset":15320876,"byteLength":800,"target":34962},{"buffer":0,"byteOffset":15321676,"byteLength":2592,"target":34962},{"buffer":0,"byteOffset":46644,"byteLength":288,"target":34962},{"buffer":0,"byteOffset":15364716,"byteLength":192,"target":34962},{"buffer":0,"byteOffset":12967816,"byteLength":192,"target":34962},{"buffer":0,"byteOffset":47316,"byteLength":480,"target":34962},{"buffer":0,"byteOffset":47796,"byteLength":480,"target":34962},{"buffer":0,"byteOffset":48276,"byteLength":320,"target":34962},{"buffer":0,"byteOffset":48596,"byteLength":144,"target":34963},{"buffer":0,"byteOffset":117540,"byteLength":192,"target":34962},{"buffer":0,"byteOffset":222340,"byteLength":192,"target":34962},{"buffer":0,"byteOffset":211076,"byteLength":192,"target":34962},{"buffer":0,"byteOffset":15364908,"byteLength":192,"target":34962},{"buffer":0,"byteOffset":15365100,"byteLength":192,"target":34962},{"buffer":0,"byteOffset":3964572,"byteLength":192,"target":34962},{"buffer":0,"byteOffset":3911100,"byteLength":192,"target":34962},{"buffer":0,"byteOffset":3911292,"byteLength":192,"target":34962},{"buffer":0,"byteOffset":15324652,"byteLength":192,"target":34962},{"buffer":0,"byteOffset":15324844,"byteLength":480,"target":34962},{"buffer":0,"byteOffset":15325324,"byteLength":480,"target":34962},{"buffer":0,"byteOffset":15325804,"byteLength":320,"target":34962},{"buffer":0,"byteOffset":15326124,"byteLength":192,"target":34962}],"accessors":[{"bufferView":0,"componentType":5126,"count":324,"type":"VEC3","min":[-0.5,-0.5,-0.5],"max":[0.5,0.5,0.5]},{"bufferView":1,"componentType":5126,"count":324,"type":"VEC3"},{"bufferView":2,"componentType":5126,"count":324,"type":"VEC2"},{"bufferView":3,"componentType":5126,"count":324,"type":"VEC2"},{"bufferView":4,"componentType":5126,"count":100,"type":"VEC3","min":[-1,-0.5,-1],"max":[1,0.5,1]},{"bufferView":5,"componentType":5126,"count":100,"type":"VEC3"},{"bufferView":6,"componentType":5126,"count":100,"type":"VEC2"},{"bufferView":7,"componentType":5123,"count":192,"type":"SCALAR"},{"bufferView":8,"componentType":5126,"count":324,"type":"VEC2"},{"bufferView":9,"componentType":5126,"count":324,"type":"VEC2"},{"bufferView":10,"componentType":5126,"count":324,"type":"VEC2"},{"bufferView":11,"componentType":5126,"count":324,"type":"VEC3","min":[-0.5,-0.5,-0.5],"max":[0.5,0.5,0.5]},{"bufferView":12,"componentType":5126,"count":324,"type":"VEC2"},{"bufferView":13,"componentType":5126,"count":324,"type":"VEC2"},{"bufferView":14,"componentType":5126,"count":324,"type":"VEC2"},{"bufferView":15,"componentType":5126,"count":324,"type":"VEC2"},{"bufferView":16,"componentType":5126,"count":324,"type":"VEC2"},{"bufferView":17,"componentType":5126,"count":24,"type":"VEC3","min":[-0.5,-0.5,-0.02500000037252903],"max":[0.5,0.5,0.02500000037252903]},{"bufferView":18,"componentType":5126,"count":24,"type":"VEC3"},{"bufferView":19,"componentType":5126,"count":24,"type":"VEC2"},{"bufferView":20,"componentType":5123,"count":36,"type":"SCALAR"},{"bufferView":21,"componentType":5126,"count":4,"type":"VEC3","min":[-0.5,-0.5,0],"max":[0.5,0.5,0]},{"bufferView":22,"componentType":5126,"count":4,"type":"VEC3"},{"bufferView":23,"componentType":5126,"count":4,"type":"VEC2"},{"bufferView":24,"componentType":5123,"count":6,"type":"SCALAR"},{"bufferView":25,"componentType":5126,"count":324,"type":"VEC2"},{"bufferView":26,"componentType":5126,"count":100,"type":"VEC3","min":[-1,-0.5,-1],"max":[1,0.5,1]},{"bufferView":27,"componentType":5126,"count":100,"type":"VEC3"},{"bufferView":28,"componentType":5126,"count":100,"type":"VEC2"},{"bufferView":29,"componentType":5126,"count":324,"type":"VEC2"},{"bufferView":30,"componentType":5126,"count":24,"type":"VEC3","min":[-0.5,-0.5,-0.5],"max":[0.5,0.5,0.5]},{"bufferView":31,"componentType":5126,"count":24,"type":"VEC2"},{"bufferView":32,"componentType":5126,"count":24,"type":"VEC2"},{"bufferView":33,"componentType":5126,"count":40,"type":"VEC3","min":[-0.8660253882408142,-0.5,-1],"max":[0.8660253882408142,0.5,1]},{"bufferView":34,"componentType":5126,"count":40,"type":"VEC3"},{"bufferView":35,"componentType":5126,"count":40,"type":"VEC2"},{"bufferView":36,"componentType":5123,"count":72,"type":"SCALAR"},{"bufferView":37,"componentType":5126,"count":24,"type":"VEC2"},{"bufferView":38,"componentType":5126,"count":24,"type":"VEC2"},{"bufferView":39,"componentType":5126,"count":24,"type":"VEC2"},{"bufferView":40,"componentType":5126,"count":24,"type":"VEC2"},{"bufferView":41,"componentType":5126,"count":24,"type":"VEC2"},{"bufferView":42,"componentType":5126,"count":24,"type":"VEC2"},{"bufferView":43,"componentType":5126,"count":24,"type":"VEC2"},{"bufferView":44,"componentType":5126,"count":24,"type":"VEC2"},{"bufferView":45,"componentType":5126,"count":24,"type":"VEC2"},{"bufferView":46,"componentType":5126,"count":40,"type":"VEC3","min":[-0.8660253882408142,-0.5,-1],"max":[0.8660253882408142,0.5,1]},{"bufferView":47,"componentType":5126,"count":40,"type":"VEC3"},{"bufferView":48,"componentType":5126,"count":40,"type":"VEC2"},{"bufferView":49,"componentType":5126,"count":24,"type":"VEC2"}],"extensionsUsed":["KHR_materials_unlit"],"extras":{"id":"vlt-volunteer-firehouse-25","family":"volunteer-firehouse","variant":24,"plan":"A5-2","units":"metres","up":"+Y","front":"+Z","lodScenes":[0,1,2]}}