{"asset":{"version":"2.0","generator":"SLOPMERICA Department of Unnecessary Development 1.0"},"scene":0,"scenes":[{"name":"LOD 0","nodes":[0,1,2,3,4,5,6,7,8,9,10,11,12,13,14,15,16,17],"extras":{"level":0}},{"name":"LOD 1","nodes":[18,19,20,21,22,23,24,25,26,27,28,29,30,31,32,33,34],"extras":{"level":1}},{"name":"LOD 2","nodes":[35,36,37,38,39,40,41,42,43,44,45],"extras":{"level":2}}],"nodes":[{"name":"foundation","mesh":0,"translation":[0,0.08,0],"scale":[13.72,0.16,10.885]},{"name":"store-shell","mesh":1,"translation":[0,1.78525,0],"scale":[8.64,3.5705,6.2532]},{"name":"roof-cap","mesh":2,"translation":[0,3.6805,0],"scale":[8.89,0.22,6.5032]},{"name":"window-0","mesh":3,"translation":[-3.1968,1.57102,3.1816],"scale":[1.393548,1.45,0.09]},{"name":"window-1","mesh":3,"translation":[-1.0656,1.57102,3.1816],"scale":[1.393548,1.45,0.09]},{"name":"window-2","mesh":3,"translation":[1.0656,1.57102,3.1816],"scale":[1.393548,1.45,0.09]},{"name":"window-3","mesh":3,"translation":[3.1968,1.57102,3.1816],"scale":[1.393548,1.45,0.09]},{"name":"door","mesh":4,"translation":[3.024,1.025,3.1966],"scale":[0.92,2.05,0.12]},{"name":"awning","mesh":5,"translation":[0,2.35653,3.6066],"rotation":[-0.039989,0,0,0.9992],"scale":[7.0848,0.18,1.05]},{"name":"mullion-0","mesh":6,"translation":[-2.7648,1.57102,3.2466],"scale":[0.08,1.55,0.12]},{"name":"mullion-1","mesh":6,"translation":[0,1.57102,3.2466],"scale":[0.08,1.55,0.12]},{"name":"mullion-2","mesh":6,"translation":[2.7648,1.57102,3.2466],"scale":[0.08,1.55,0.12]},{"name":"primary-sign-back","mesh":7,"translation":[0,2.820695,3.2866],"scale":[5.4568,1.25,1]},{"name":"primary-sign","mesh":8,"translation":[0,2.820695,3.3156],"scale":[5.3568,1.15,1]},{"name":"umbrella-pole","mesh":9,"translation":[0,3.7635,0],"scale":[0.12,7.47875,0.12]},{"name":"umbrella-canopy","mesh":10,"translation":[0,6.948,0],"rotation":[1,0,0,0],"scale":[3.9168,1.6405,3.9168]},{"name":"denial-hook","mesh":11,"translation":[0,0,0]},{"name":"open-state-bollard","mesh":12,"translation":[4.9536,0.425,4.8636],"scale":[0.22,0.85,0.22]},{"name":"foundation","mesh":13,"translation":[0,0.08,0],"scale":[13.72,0.16,10.885]},{"name":"store-shell","mesh":14,"translation":[0,1.78525,0],"scale":[8.64,3.5705,6.2532]},{"name":"roof-cap","mesh":15,"translation":[0,3.6805,0],"scale":[8.89,0.22,6.5032]},{"name":"window-0","mesh":16,"translation":[-3.1968,1.57102,3.1816],"scale":[1.858065,1.45,0.09]},{"name":"window-1","mesh":16,"translation":[0,1.57102,3.1816],"scale":[1.858065,1.45,0.09]},{"name":"window-2","mesh":16,"translation":[3.1968,1.57102,3.1816],"scale":[1.858065,1.45,0.09]},{"name":"door","mesh":17,"translation":[3.024,1.025,3.1966],"scale":[0.92,2.05,0.12]},{"name":"awning","mesh":18,"translation":[0,2.35653,3.6066],"rotation":[-0.039989,0,0,0.9992],"scale":[7.0848,0.18,1.05]},{"name":"mullion-0","mesh":19,"translation":[-2.7648,1.57102,3.2466],"scale":[0.08,1.55,0.12]},{"name":"mullion-1","mesh":19,"translation":[0,1.57102,3.2466],"scale":[0.08,1.55,0.12]},{"name":"mullion-2","mesh":19,"translation":[2.7648,1.57102,3.2466],"scale":[0.08,1.55,0.12]},{"name":"primary-sign-back","mesh":7,"translation":[0,2.820695,3.2866],"scale":[5.4568,1.25,1]},{"name":"primary-sign","mesh":8,"translation":[0,2.820695,3.3156],"scale":[5.3568,1.15,1]},{"name":"umbrella-pole","mesh":20,"translation":[0,3.7635,0],"scale":[0.12,7.47875,0.12]},{"name":"umbrella-canopy","mesh":21,"translation":[0,6.948,0],"rotation":[1,0,0,0],"scale":[3.9168,1.6405,3.9168]},{"name":"denial-hook","mesh":22,"translation":[0,0,0]},{"name":"open-state-bollard","mesh":23,"translation":[4.9536,0.425,4.8636],"scale":[0.22,0.85,0.22]},{"name":"foundation","mesh":13,"translation":[0,0.08,0],"scale":[13.72,0.16,10.885]},{"name":"store-shell","mesh":14,"translation":[0,1.78525,0],"scale":[8.64,3.5705,6.2532]},{"name":"roof-cap","mesh":15,"translation":[0,3.6805,0],"scale":[8.89,0.22,6.5032]},{"name":"window-0","mesh":24,"translation":[0,1.57102,3.1816],"scale":[5.574194,1.45,0.09]},{"name":"door","mesh":17,"translation":[3.024,1.025,3.1966],"scale":[0.92,2.05,0.12]},{"name":"primary-sign-back","mesh":7,"translation":[0,2.820695,3.2866],"scale":[5.4568,1.25,1]},{"name":"primary-sign","mesh":8,"translation":[0,2.820695,3.3156],"scale":[5.3568,1.15,1]},{"name":"umbrella-pole","mesh":20,"translation":[0,3.7635,0],"scale":[0.12,7.47875,0.12]},{"name":"umbrella-canopy","mesh":25,"translation":[0,6.948,0],"rotation":[1,0,0,0],"scale":[3.9168,1.6405,3.9168]},{"name":"denial-hook","mesh":26,"translation":[0,0,0]},{"name":"open-state-bollard","mesh":23,"translation":[4.9536,0.425,4.8636],"scale":[0.22,0.85,0.22]}],"meshes":[{"primitives":[{"attributes":{"POSITION":0,"NORMAL":1,"TEXCOORD_0":2},"material":0,"mode":4}]},{"primitives":[{"attributes":{"POSITION":3,"NORMAL":1,"TEXCOORD_0":4},"material":1,"mode":4}]},{"primitives":[{"attributes":{"POSITION":0,"NORMAL":1,"TEXCOORD_0":5},"material":2,"mode":4}]},{"primitives":[{"attributes":{"POSITION":0,"NORMAL":1,"TEXCOORD_0":6},"material":3,"mode":4}]},{"primitives":[{"attributes":{"POSITION":0,"NORMAL":1,"TEXCOORD_0":7},"material":2,"mode":4}]},{"primitives":[{"attributes":{"POSITION":0,"NORMAL":1,"TEXCOORD_0":8},"material":4,"mode":4}]},{"primitives":[{"attributes":{"POSITION":0,"NORMAL":1,"TEXCOORD_0":9},"material":4,"mode":4}]},{"primitives":[{"attributes":{"POSITION":10,"NORMAL":11,"TEXCOORD_0":12},"material":2,"mode":4,"indices":13}]},{"primitives":[{"attributes":{"POSITION":14,"NORMAL":15,"TEXCOORD_0":16},"material":5,"mode":4,"indices":17}]},{"primitives":[{"attributes":{"POSITION":18,"NORMAL":19,"TEXCOORD_0":20},"material":2,"mode":4,"indices":21}]},{"primitives":[{"attributes":{"POSITION":22,"NORMAL":23,"TEXCOORD_0":24},"material":4,"mode":4,"indices":25}]},{"primitives":[{"attributes":{"POSITION":26,"NORMAL":27,"TEXCOORD_0":28},"material":2,"mode":4,"indices":29}]},{"primitives":[{"attributes":{"POSITION":0,"NORMAL":1,"TEXCOORD_0":30},"material":4,"mode":4}]},{"primitives":[{"attributes":{"POSITION":31,"NORMAL":11,"TEXCOORD_0":32},"material":0,"mode":4,"indices":13}]},{"primitives":[{"attributes":{"POSITION":31,"NORMAL":11,"TEXCOORD_0":33},"material":1,"mode":4,"indices":13}]},{"primitives":[{"attributes":{"POSITION":31,"NORMAL":11,"TEXCOORD_0":34},"material":2,"mode":4,"indices":13}]},{"primitives":[{"attributes":{"POSITION":31,"NORMAL":11,"TEXCOORD_0":35},"material":3,"mode":4,"indices":13}]},{"primitives":[{"attributes":{"POSITION":31,"NORMAL":11,"TEXCOORD_0":36},"material":2,"mode":4,"indices":13}]},{"primitives":[{"attributes":{"POSITION":31,"NORMAL":11,"TEXCOORD_0":37},"material":4,"mode":4,"indices":13}]},{"primitives":[{"attributes":{"POSITION":31,"NORMAL":11,"TEXCOORD_0":38},"material":4,"mode":4,"indices":13}]},{"primitives":[{"attributes":{"POSITION":39,"NORMAL":40,"TEXCOORD_0":41},"material":2,"mode":4,"indices":42}]},{"primitives":[{"attributes":{"POSITION":43,"NORMAL":44,"TEXCOORD_0":45},"material":4,"mode":4,"indices":46}]},{"primitives":[{"attributes":{"POSITION":47,"NORMAL":48,"TEXCOORD_0":49},"material":2,"mode":4,"indices":50}]},{"primitives":[{"attributes":{"POSITION":31,"NORMAL":11,"TEXCOORD_0":51},"material":4,"mode":4,"indices":13}]},{"primitives":[{"attributes":{"POSITION":31,"NORMAL":11,"TEXCOORD_0":52},"material":3,"mode":4,"indices":13}]},{"primitives":[{"attributes":{"POSITION":53,"NORMAL":54,"TEXCOORD_0":55},"material":4,"mode":4,"indices":56}]},{"primitives":[{"attributes":{"POSITION":57,"NORMAL":58,"TEXCOORD_0":59},"material":2,"mode":4,"indices":60}]}],"materials":[{"name":"concrete","pbrMetallicRoughness":{"baseColorTexture":{"index":0},"metallicRoughnessTexture":{"index":2},"roughnessFactor":1,"metallicFactor":1},"normalTexture":{"index":1,"scale":0.82},"occlusionTexture":{"index":2,"strength":0.35}},{"name":"stucco-ivory","pbrMetallicRoughness":{"baseColorTexture":{"index":3},"metallicRoughnessTexture":{"index":5},"roughnessFactor":1,"metallicFactor":1},"normalTexture":{"index":4,"scale":0.5},"occlusionTexture":{"index":5,"strength":0.35}},{"name":"metal-dark","pbrMetallicRoughness":{"baseColorTexture":{"index":6},"metallicRoughnessTexture":{"index":8},"roughnessFactor":1,"metallicFactor":1},"normalTexture":{"index":7,"scale":0.35},"occlusionTexture":{"index":8,"strength":0.35}},{"name":"glass-blue","pbrMetallicRoughness":{"baseColorTexture":{"index":9},"metallicRoughnessTexture":{"index":11},"roughnessFactor":1,"metallicFactor":1},"normalTexture":{"index":10,"scale":0.12},"occlusionTexture":{"index":11,"strength":0.35}},{"name":"paint-red","pbrMetallicRoughness":{"baseColorFactor":[0.46778379610254284,0.08021982030622662,0.05126945836711539,1],"roughnessFactor":0.62,"metallicFactor":0.05}},{"name":"premium-denied signage","pbrMetallicRoughness":{"baseColorTexture":{"index":12},"roughnessFactor":1,"metallicFactor":0},"extensions":{"KHR_materials_unlit":{}}}],"textures":[{"source":0,"sampler":0},{"source":1,"sampler":0},{"source":2,"sampler":0},{"source":3,"sampler":0},{"source":4,"sampler":0},{"source":5,"sampler":0},{"source":6,"sampler":0},{"source":7,"sampler":0},{"source":8,"sampler":0},{"source":9,"sampler":0},{"source":10,"sampler":0},{"source":11,"sampler":0},{"source":12,"sampler":0}],"images":[{"uri":"../textures/concrete-albedo.png"},{"uri":"../textures/concrete-normal.png"},{"uri":"../textures/concrete-orm.png"},{"uri":"../textures/stucco-ivory-albedo.png"},{"uri":"../textures/stucco-ivory-normal.png"},{"uri":"../textures/stucco-ivory-orm.png"},{"uri":"../textures/metal-dark-albedo.png"},{"uri":"../textures/metal-dark-normal.png"},{"uri":"../textures/metal-dark-orm.png"},{"uri":"../textures/glass-blue-albedo.png"},{"uri":"../textures/glass-blue-normal.png"},{"uri":"../textures/glass-blue-orm.png"},{"uri":"../signs/premium-denied.png"}],"samplers":[{"magFilter":9729,"minFilter":9987,"wrapS":10497,"wrapT":10497}],"buffers":[{"uri":"../shared/geometry.bin","byteLength":16435520}],"bufferViews":[{"buffer":0,"byteOffset":0,"byteLength":3888,"target":34962},{"buffer":0,"byteOffset":3888,"byteLength":3888,"target":34962},{"buffer":0,"byteOffset":7280912,"byteLength":2592,"target":34962},{"buffer":0,"byteOffset":822696,"byteLength":3888,"target":34962},{"buffer":0,"byteOffset":10965656,"byteLength":2592,"target":34962},{"buffer":0,"byteOffset":10968248,"byteLength":2592,"target":34962},{"buffer":0,"byteOffset":10889584,"byteLength":2592,"target":34962},{"buffer":0,"byteOffset":1428216,"byteLength":2592,"target":34962},{"buffer":0,"byteOffset":10892176,"byteLength":2592,"target":34962},{"buffer":0,"byteOffset":1433400,"byteLength":2592,"target":34962},{"buffer":0,"byteOffset":45664,"byteLength":288,"target":34962},{"buffer":0,"byteOffset":45952,"byteLength":288,"target":34962},{"buffer":0,"byteOffset":46240,"byteLength":192,"target":34962},{"buffer":0,"byteOffset":46432,"byteLength":72,"target":34963},{"buffer":0,"byteOffset":46504,"byteLength":48,"target":34962},{"buffer":0,"byteOffset":46552,"byteLength":48,"target":34962},{"buffer":0,"byteOffset":130212,"byteLength":32,"target":34962},{"buffer":0,"byteOffset":46632,"byteLength":12,"target":34963},{"buffer":0,"byteOffset":1110072,"byteLength":624,"target":34962},{"buffer":0,"byteOffset":1110696,"byteLength":624,"target":34962},{"buffer":0,"byteOffset":10894768,"byteLength":416,"target":34962},{"buffer":0,"byteOffset":1111736,"byteLength":192,"target":34963},{"buffer":0,"byteOffset":2351276,"byteLength":900,"target":34962},{"buffer":0,"byteOffset":2352176,"byteLength":900,"target":34962},{"buffer":0,"byteOffset":10895184,"byteLength":600,"target":34962},{"buffer":0,"byteOffset":2353676,"byteLength":216,"target":34963},{"buffer":0,"byteOffset":10970840,"byteLength":1404,"target":34962},{"buffer":0,"byteOffset":10972244,"byteLength":1404,"target":34962},{"buffer":0,"byteOffset":10880064,"byteLength":936,"target":34962},{"buffer":0,"byteOffset":2086708,"byteLength":1152,"target":34963},{"buffer":0,"byteOffset":422312,"byteLength":2592,"target":34962},{"buffer":0,"byteOffset":46644,"byteLength":288,"target":34962},{"buffer":0,"byteOffset":7288688,"byteLength":192,"target":34962},{"buffer":0,"byteOffset":10973648,"byteLength":192,"target":34962},{"buffer":0,"byteOffset":10973840,"byteLength":192,"target":34962},{"buffer":0,"byteOffset":10898976,"byteLength":192,"target":34962},{"buffer":0,"byteOffset":1447128,"byteLength":192,"target":34962},{"buffer":0,"byteOffset":10899168,"byteLength":192,"target":34962},{"buffer":0,"byteOffset":1447512,"byteLength":192,"target":34962},{"buffer":0,"byteOffset":1112312,"byteLength":480,"target":34962},{"buffer":0,"byteOffset":1112792,"byteLength":480,"target":34962},{"buffer":0,"byteOffset":10899360,"byteLength":320,"target":34962},{"buffer":0,"byteOffset":48596,"byteLength":144,"target":34963},{"buffer":0,"byteOffset":2366180,"byteLength":468,"target":34962},{"buffer":0,"byteOffset":2366648,"byteLength":468,"target":34962},{"buffer":0,"byteOffset":10899680,"byteLength":312,"target":34962},{"buffer":0,"byteOffset":2367428,"byteLength":108,"target":34963},{"buffer":0,"byteOffset":10974032,"byteLength":588,"target":34962},{"buffer":0,"byteOffset":10974620,"byteLength":588,"target":34962},{"buffer":0,"byteOffset":10883192,"byteLength":392,"target":34962},{"buffer":0,"byteOffset":2096404,"byteLength":432,"target":34963},{"buffer":0,"byteOffset":436936,"byteLength":192,"target":34962},{"buffer":0,"byteOffset":10901168,"byteLength":192,"target":34962},{"buffer":0,"byteOffset":692208,"byteLength":324,"target":34962},{"buffer":0,"byteOffset":692532,"byteLength":324,"target":34962},{"buffer":0,"byteOffset":10901360,"byteLength":216,"target":34962},{"buffer":0,"byteOffset":693072,"byteLength":72,"target":34963},{"buffer":0,"byteOffset":10975208,"byteLength":300,"target":34962},{"buffer":0,"byteOffset":10975508,"byteLength":300,"target":34962},{"buffer":0,"byteOffset":2878428,"byteLength":200,"target":34962},{"buffer":0,"byteOffset":440168,"byteLength":192,"target":34963}],"accessors":[{"bufferView":0,"componentType":5126,"count":324,"type":"VEC3","min":[-0.5,-0.5,-0.5],"max":[0.5,0.5,0.5]},{"bufferView":1,"componentType":5126,"count":324,"type":"VEC3"},{"bufferView":2,"componentType":5126,"count":324,"type":"VEC2"},{"bufferView":3,"componentType":5126,"count":324,"type":"VEC3","min":[-0.5,-0.5,-0.5],"max":[0.5,0.5,0.5]},{"bufferView":4,"componentType":5126,"count":324,"type":"VEC2"},{"bufferView":5,"componentType":5126,"count":324,"type":"VEC2"},{"bufferView":6,"componentType":5126,"count":324,"type":"VEC2"},{"bufferView":7,"componentType":5126,"count":324,"type":"VEC2"},{"bufferView":8,"componentType":5126,"count":324,"type":"VEC2"},{"bufferView":9,"componentType":5126,"count":324,"type":"VEC2"},{"bufferView":10,"componentType":5126,"count":24,"type":"VEC3","min":[-0.5,-0.5,-0.02500000037252903],"max":[0.5,0.5,0.02500000037252903]},{"bufferView":11,"componentType":5126,"count":24,"type":"VEC3"},{"bufferView":12,"componentType":5126,"count":24,"type":"VEC2"},{"bufferView":13,"componentType":5123,"count":36,"type":"SCALAR"},{"bufferView":14,"componentType":5126,"count":4,"type":"VEC3","min":[-0.5,-0.5,0],"max":[0.5,0.5,0]},{"bufferView":15,"componentType":5126,"count":4,"type":"VEC3"},{"bufferView":16,"componentType":5126,"count":4,"type":"VEC2"},{"bufferView":17,"componentType":5123,"count":6,"type":"SCALAR"},{"bufferView":18,"componentType":5126,"count":52,"type":"VEC3","min":[-1,-0.5,-1],"max":[1,0.5,1]},{"bufferView":19,"componentType":5126,"count":52,"type":"VEC3"},{"bufferView":20,"componentType":5126,"count":52,"type":"VEC2"},{"bufferView":21,"componentType":5123,"count":96,"type":"SCALAR"},{"bufferView":22,"componentType":5126,"count":75,"type":"VEC3","min":[-0.9848077297210693,-0.5,-1],"max":[0.9848077297210693,0.5,1]},{"bufferView":23,"componentType":5126,"count":75,"type":"VEC3"},{"bufferView":24,"componentType":5126,"count":75,"type":"VEC2"},{"bufferView":25,"componentType":5123,"count":108,"type":"SCALAR"},{"bufferView":26,"componentType":5126,"count":117,"type":"VEC3","min":[3.9567365646362305,0.43703553080558777,3.788249969482422],"max":[5.658316612243652,5.159713268280029,4.028250217437744]},{"bufferView":27,"componentType":5126,"count":117,"type":"VEC3"},{"bufferView":28,"componentType":5126,"count":117,"type":"VEC2"},{"bufferView":29,"componentType":5123,"count":576,"type":"SCALAR"},{"bufferView":30,"componentType":5126,"count":324,"type":"VEC2"},{"bufferView":31,"componentType":5126,"count":24,"type":"VEC3","min":[-0.5,-0.5,-0.5],"max":[0.5,0.5,0.5]},{"bufferView":32,"componentType":5126,"count":24,"type":"VEC2"},{"bufferView":33,"componentType":5126,"count":24,"type":"VEC2"},{"bufferView":34,"componentType":5126,"count":24,"type":"VEC2"},{"bufferView":35,"componentType":5126,"count":24,"type":"VEC2"},{"bufferView":36,"componentType":5126,"count":24,"type":"VEC2"},{"bufferView":37,"componentType":5126,"count":24,"type":"VEC2"},{"bufferView":38,"componentType":5126,"count":24,"type":"VEC2"},{"bufferView":39,"componentType":5126,"count":40,"type":"VEC3","min":[-0.8660253882408142,-0.5,-1],"max":[0.8660253882408142,0.5,1]},{"bufferView":40,"componentType":5126,"count":40,"type":"VEC3"},{"bufferView":41,"componentType":5126,"count":40,"type":"VEC2"},{"bufferView":42,"componentType":5123,"count":72,"type":"SCALAR"},{"bufferView":43,"componentType":5126,"count":39,"type":"VEC3","min":[-0.9848077297210693,-0.5,-0.9396926164627075],"max":[0.9848077297210693,0.5,1]},{"bufferView":44,"componentType":5126,"count":39,"type":"VEC3"},{"bufferView":45,"componentType":5126,"count":39,"type":"VEC2"},{"bufferView":46,"componentType":5123,"count":54,"type":"SCALAR"},{"bufferView":47,"componentType":5126,"count":49,"type":"VEC3","min":[3.966820001602173,0.4431266188621521,3.788249969482422],"max":[5.603328704833984,5.147191524505615,4.028250217437744]},{"bufferView":48,"componentType":5126,"count":49,"type":"VEC3"},{"bufferView":49,"componentType":5126,"count":49,"type":"VEC2"},{"bufferView":50,"componentType":5123,"count":216,"type":"SCALAR"},{"bufferView":51,"componentType":5126,"count":24,"type":"VEC2"},{"bufferView":52,"componentType":5126,"count":24,"type":"VEC2"},{"bufferView":53,"componentType":5126,"count":27,"type":"VEC3","min":[-0.8660253882408142,-0.5,-1],"max":[0.8660253882408142,0.5,1]},{"bufferView":54,"componentType":5126,"count":27,"type":"VEC3"},{"bufferView":55,"componentType":5126,"count":27,"type":"VEC2"},{"bufferView":56,"componentType":5123,"count":36,"type":"SCALAR"},{"bufferView":57,"componentType":5126,"count":25,"type":"VEC3","min":[3.9567365646362305,0.43703553080558777,3.788249969482422],"max":[5.528472423553467,5.159713268280029,4.028250217437744]},{"bufferView":58,"componentType":5126,"count":25,"type":"VEC3"},{"bufferView":59,"componentType":5126,"count":25,"type":"VEC2"},{"bufferView":60,"componentType":5123,"count":96,"type":"SCALAR"}],"extensionsUsed":["KHR_materials_unlit"],"extras":{"id":"vlt-premium-denied-07","family":"premium-denied","variant":6,"plan":"B2-1","units":"metres","up":"+Y","front":"+Z","lodScenes":[0,1,2]}}