{"asset":{"version":"2.0","generator":"SLOPMERICA Department of Unnecessary Development 1.0"},"scene":0,"scenes":[{"name":"LOD 0","nodes":[0,1,2,3,4,5,6,7,8,9,10,11,12,13,14,15,16,17,18,19,20,21,22,23,24,25,26,27,28,29,30,31],"extras":{"level":0}},{"name":"LOD 1","nodes":[32,33,34,35,36,37,38,39,40,41,42,43,44,45,46,47,48,49,50,51,52,53,54,55,56,57,58,59,60,61,62,63],"extras":{"level":1}},{"name":"LOD 2","nodes":[64,65,66,67,68,69,70,71,72,73,74],"extras":{"level":2}}],"nodes":[{"name":"site-pad","mesh":0,"translation":[0,0.06,0],"scale":[27.7056,0.12,16.224]},{"name":"variant-apron","mesh":1,"translation":[1.7316,0.13,8.02],"scale":[8.5248,0.08,1.16]},{"name":"bollard-0","mesh":2,"translation":[-10.1232,0.43,8.14],"scale":[0.08,0.7,0.08]},{"name":"bollard-1","mesh":2,"translation":[-5.0616,0.43,8.14],"scale":[0.08,0.7,0.08]},{"name":"bollard-2","mesh":2,"translation":[0,0.43,8.14],"scale":[0.08,0.7,0.08]},{"name":"bollard-3","mesh":2,"translation":[5.0616,0.43,8.14],"scale":[0.08,0.7,0.08]},{"name":"bollard-4","mesh":2,"translation":[10.1232,0.43,8.14],"scale":[0.08,0.7,0.08]},{"name":"layout-cabinet","mesh":3,"translation":[-13.52,0.615,1.17],"scale":[0.69,0.99,0.32]},{"name":"clarifier-0","mesh":4,"translation":[-8.677029,0.62,0],"scale":[1.74,0.8,1.74]},{"name":"clarifier-water-0","mesh":5,"translation":[-8.677029,1.05,0],"scale":[1.52,0.06,1.52]},{"name":"sweep-arm-0","mesh":6,"translation":[-8.677029,1.15,0],"rotation":[0,0.564642,0,0.825336],"scale":[2.4,0.08,0.12]},{"name":"clarifier-1","mesh":4,"translation":[-5.784686,0.62,0],"scale":[1.74,0.8,1.74]},{"name":"clarifier-water-1","mesh":5,"translation":[-5.784686,1.05,0],"scale":[1.52,0.06,1.52]},{"name":"sweep-arm-1","mesh":6,"translation":[-5.784686,1.15,0],"rotation":[0,0.783327,0,0.62161],"scale":[2.4,0.08,0.12]},{"name":"clarifier-2","mesh":4,"translation":[-2.892343,0.62,0],"scale":[1.74,0.8,1.74]},{"name":"clarifier-water-2","mesh":5,"translation":[-2.892343,1.05,0],"scale":[1.52,0.06,1.52]},{"name":"sweep-arm-2","mesh":6,"translation":[-2.892343,1.15,0],"rotation":[0,0.932039,0,0.362358],"scale":[2.4,0.08,0.12]},{"name":"clarifier-3","mesh":4,"translation":[0,0.62,0],"scale":[1.74,0.8,1.74]},{"name":"clarifier-water-3","mesh":5,"translation":[0,1.05,0],"scale":[1.52,0.06,1.52]},{"name":"sweep-arm-3","mesh":6,"translation":[0,1.15,0],"rotation":[0,0.997495,0,0.070737],"scale":[2.4,0.08,0.12]},{"name":"clarifier-4","mesh":4,"translation":[2.892343,0.62,0],"scale":[1.74,0.8,1.74]},{"name":"clarifier-water-4","mesh":5,"translation":[2.892343,1.05,0],"scale":[1.52,0.06,1.52]},{"name":"sweep-arm-4","mesh":6,"translation":[2.892343,1.15,0],"rotation":[0,0.973848,0,-0.227202],"scale":[2.4,0.08,0.12]},{"name":"clarifier-5","mesh":4,"translation":[5.784686,0.62,0],"scale":[1.74,0.8,1.74]},{"name":"clarifier-water-5","mesh":5,"translation":[5.784686,1.05,0],"scale":[1.52,0.06,1.52]},{"name":"sweep-arm-5","mesh":6,"translation":[5.784686,1.15,0],"rotation":[0,-0.863209,0,0.504846],"scale":[2.4,0.08,0.12]},{"name":"clarifier-6","mesh":4,"translation":[8.677029,0.62,0],"scale":[1.74,0.8,1.74]},{"name":"clarifier-water-6","mesh":5,"translation":[8.677029,1.05,0],"scale":[1.52,0.06,1.52]},{"name":"sweep-arm-6","mesh":6,"translation":[8.677029,1.15,0],"rotation":[0,-0.675463,0,0.737394],"scale":[2.4,0.08,0.12]},{"name":"control-building","mesh":7,"translation":[-7.4592,1.72,-4.992],"scale":[5,3.2,4]},{"name":"treatment-sign-back","mesh":8,"translation":[-7.4592,2.55,-2.942],"scale":[4.1,0.95,1]},{"name":"treatment-sign","mesh":9,"translation":[-7.4592,2.55,-2.913],"scale":[4,0.85,1]},{"name":"site-pad","mesh":10,"translation":[0,0.06,0],"scale":[27.7056,0.12,16.224]},{"name":"variant-apron","mesh":11,"translation":[1.7316,0.13,8.02],"scale":[8.5248,0.08,1.16]},{"name":"bollard-0","mesh":12,"translation":[-10.1232,0.43,8.14],"scale":[0.08,0.7,0.08]},{"name":"bollard-1","mesh":12,"translation":[-5.0616,0.43,8.14],"scale":[0.08,0.7,0.08]},{"name":"bollard-2","mesh":12,"translation":[0,0.43,8.14],"scale":[0.08,0.7,0.08]},{"name":"bollard-3","mesh":12,"translation":[5.0616,0.43,8.14],"scale":[0.08,0.7,0.08]},{"name":"bollard-4","mesh":12,"translation":[10.1232,0.43,8.14],"scale":[0.08,0.7,0.08]},{"name":"layout-cabinet","mesh":13,"translation":[-13.52,0.615,1.17],"scale":[0.69,0.99,0.32]},{"name":"clarifier-0","mesh":14,"translation":[-8.677029,0.62,0],"scale":[1.74,0.8,1.74]},{"name":"clarifier-water-0","mesh":15,"translation":[-8.677029,1.05,0],"scale":[1.52,0.06,1.52]},{"name":"sweep-arm-0","mesh":16,"translation":[-8.677029,1.15,0],"rotation":[0,0.564642,0,0.825336],"scale":[2.4,0.08,0.12]},{"name":"clarifier-1","mesh":14,"translation":[-5.784686,0.62,0],"scale":[1.74,0.8,1.74]},{"name":"clarifier-water-1","mesh":15,"translation":[-5.784686,1.05,0],"scale":[1.52,0.06,1.52]},{"name":"sweep-arm-1","mesh":16,"translation":[-5.784686,1.15,0],"rotation":[0,0.783327,0,0.62161],"scale":[2.4,0.08,0.12]},{"name":"clarifier-2","mesh":14,"translation":[-2.892343,0.62,0],"scale":[1.74,0.8,1.74]},{"name":"clarifier-water-2","mesh":15,"translation":[-2.892343,1.05,0],"scale":[1.52,0.06,1.52]},{"name":"sweep-arm-2","mesh":16,"translation":[-2.892343,1.15,0],"rotation":[0,0.932039,0,0.362358],"scale":[2.4,0.08,0.12]},{"name":"clarifier-3","mesh":14,"translation":[0,0.62,0],"scale":[1.74,0.8,1.74]},{"name":"clarifier-water-3","mesh":15,"translation":[0,1.05,0],"scale":[1.52,0.06,1.52]},{"name":"sweep-arm-3","mesh":16,"translation":[0,1.15,0],"rotation":[0,0.997495,0,0.070737],"scale":[2.4,0.08,0.12]},{"name":"clarifier-4","mesh":14,"translation":[2.892343,0.62,0],"scale":[1.74,0.8,1.74]},{"name":"clarifier-water-4","mesh":15,"translation":[2.892343,1.05,0],"scale":[1.52,0.06,1.52]},{"name":"sweep-arm-4","mesh":16,"translation":[2.892343,1.15,0],"rotation":[0,0.973848,0,-0.227202],"scale":[2.4,0.08,0.12]},{"name":"clarifier-5","mesh":14,"translation":[5.784686,0.62,0],"scale":[1.74,0.8,1.74]},{"name":"clarifier-water-5","mesh":15,"translation":[5.784686,1.05,0],"scale":[1.52,0.06,1.52]},{"name":"sweep-arm-5","mesh":16,"translation":[5.784686,1.15,0],"rotation":[0,-0.863209,0,0.504846],"scale":[2.4,0.08,0.12]},{"name":"clarifier-6","mesh":14,"translation":[8.677029,0.62,0],"scale":[1.74,0.8,1.74]},{"name":"clarifier-water-6","mesh":15,"translation":[8.677029,1.05,0],"scale":[1.52,0.06,1.52]},{"name":"sweep-arm-6","mesh":16,"translation":[8.677029,1.15,0],"rotation":[0,-0.675463,0,0.737394],"scale":[2.4,0.08,0.12]},{"name":"control-building","mesh":17,"translation":[-7.4592,1.72,-4.992],"scale":[5,3.2,4]},{"name":"treatment-sign-back","mesh":8,"translation":[-7.4592,2.55,-2.942],"scale":[4.1,0.95,1]},{"name":"treatment-sign","mesh":9,"translation":[-7.4592,2.55,-2.913],"scale":[4,0.85,1]},{"name":"site-pad","mesh":10,"translation":[0,0.06,0],"scale":[27.7056,0.12,16.224]},{"name":"variant-apron","mesh":11,"translation":[1.7316,0.13,8.02],"scale":[8.5248,0.08,1.16]},{"name":"bollard-0","mesh":12,"translation":[-10.1232,0.43,8.14],"scale":[0.08,0.7,0.08]},{"name":"layout-cabinet","mesh":13,"translation":[-13.52,0.615,1.17],"scale":[0.69,0.99,0.32]},{"name":"clarifier-0","mesh":14,"translation":[-5.0616,0.62,0],"scale":[1.74,0.8,1.74]},{"name":"clarifier-water-0","mesh":15,"translation":[-5.0616,1.05,0],"scale":[1.52,0.06,1.52]},{"name":"clarifier-1","mesh":14,"translation":[5.0616,0.62,0],"scale":[1.74,0.8,1.74]},{"name":"clarifier-water-1","mesh":15,"translation":[5.0616,1.05,0],"scale":[1.52,0.06,1.52]},{"name":"control-building","mesh":17,"translation":[-7.4592,1.72,-4.992],"scale":[5,3.2,4]},{"name":"treatment-sign-back","mesh":8,"translation":[-7.4592,2.55,-2.942],"scale":[4.1,0.95,1]},{"name":"treatment-sign","mesh":9,"translation":[-7.4592,2.55,-2.913],"scale":[4,0.85,1]}],"meshes":[{"primitives":[{"attributes":{"POSITION":0,"NORMAL":1,"TEXCOORD_0":2},"material":0,"mode":4}]},{"primitives":[{"attributes":{"POSITION":0,"NORMAL":1,"TEXCOORD_0":3},"material":0,"mode":4}]},{"primitives":[{"attributes":{"POSITION":4,"NORMAL":5,"TEXCOORD_0":6},"material":1,"mode":4,"indices":7}]},{"primitives":[{"attributes":{"POSITION":0,"NORMAL":1,"TEXCOORD_0":8},"material":2,"mode":4}]},{"primitives":[{"attributes":{"POSITION":9,"NORMAL":10,"TEXCOORD_0":11},"material":3,"mode":4,"indices":7}]},{"primitives":[{"attributes":{"POSITION":9,"NORMAL":10,"TEXCOORD_0":12},"material":4,"mode":4,"indices":7}]},{"primitives":[{"attributes":{"POSITION":0,"NORMAL":1,"TEXCOORD_0":13},"material":5,"mode":4}]},{"primitives":[{"attributes":{"POSITION":14,"NORMAL":1,"TEXCOORD_0":15},"material":6,"mode":4}]},{"primitives":[{"attributes":{"POSITION":16,"NORMAL":17,"TEXCOORD_0":18},"material":5,"mode":4,"indices":19}]},{"primitives":[{"attributes":{"POSITION":20,"NORMAL":21,"TEXCOORD_0":22},"material":7,"mode":4,"indices":23}]},{"primitives":[{"attributes":{"POSITION":24,"NORMAL":17,"TEXCOORD_0":25},"material":0,"mode":4,"indices":19}]},{"primitives":[{"attributes":{"POSITION":24,"NORMAL":17,"TEXCOORD_0":26},"material":0,"mode":4,"indices":19}]},{"primitives":[{"attributes":{"POSITION":27,"NORMAL":28,"TEXCOORD_0":29},"material":1,"mode":4,"indices":30}]},{"primitives":[{"attributes":{"POSITION":24,"NORMAL":17,"TEXCOORD_0":31},"material":2,"mode":4,"indices":19}]},{"primitives":[{"attributes":{"POSITION":32,"NORMAL":33,"TEXCOORD_0":34},"material":3,"mode":4,"indices":30}]},{"primitives":[{"attributes":{"POSITION":32,"NORMAL":33,"TEXCOORD_0":35},"material":4,"mode":4,"indices":30}]},{"primitives":[{"attributes":{"POSITION":24,"NORMAL":17,"TEXCOORD_0":36},"material":5,"mode":4,"indices":19}]},{"primitives":[{"attributes":{"POSITION":24,"NORMAL":17,"TEXCOORD_0":37},"material":6,"mode":4,"indices":19}]}],"materials":[{"name":"asphalt","pbrMetallicRoughness":{"baseColorTexture":{"index":0},"metallicRoughnessTexture":{"index":2},"roughnessFactor":1,"metallicFactor":1},"normalTexture":{"index":1,"scale":0.62},"occlusionTexture":{"index":2,"strength":0.35}},{"name":"paint-yellow","pbrMetallicRoughness":{"baseColorFactor":[0.76052450467022,0.4793201830913402,0.07818742179702069,1],"roughnessFactor":0.66,"metallicFactor":0.03}},{"name":"metal-galvanized","pbrMetallicRoughness":{"baseColorTexture":{"index":3},"metallicRoughnessTexture":{"index":5},"roughnessFactor":1,"metallicFactor":1},"normalTexture":{"index":4,"scale":0.15},"occlusionTexture":{"index":5,"strength":0.35}},{"name":"concrete","pbrMetallicRoughness":{"baseColorTexture":{"index":6},"metallicRoughnessTexture":{"index":8},"roughnessFactor":1,"metallicFactor":1},"normalTexture":{"index":7,"scale":0.82},"occlusionTexture":{"index":8,"strength":0.35}},{"name":"glass-blue","pbrMetallicRoughness":{"baseColorTexture":{"index":9},"metallicRoughnessTexture":{"index":11},"roughnessFactor":1,"metallicFactor":1},"normalTexture":{"index":10,"scale":0.12},"occlusionTexture":{"index":11,"strength":0.35}},{"name":"metal-dark","pbrMetallicRoughness":{"baseColorTexture":{"index":12},"metallicRoughnessTexture":{"index":14},"roughnessFactor":1,"metallicFactor":1},"normalTexture":{"index":13,"scale":0.35},"occlusionTexture":{"index":14,"strength":0.35}},{"name":"brick-cream","pbrMetallicRoughness":{"baseColorTexture":{"index":15},"metallicRoughnessTexture":{"index":17},"roughnessFactor":1,"metallicFactor":1},"normalTexture":{"index":16,"scale":1.05},"occlusionTexture":{"index":17,"strength":0.35}},{"name":"wastewater-plant signage","pbrMetallicRoughness":{"baseColorTexture":{"index":18},"roughnessFactor":1,"metallicFactor":0},"extensions":{"KHR_materials_unlit":{}}}],"textures":[{"source":0,"sampler":0},{"source":1,"sampler":0},{"source":2,"sampler":0},{"source":3,"sampler":0},{"source":4,"sampler":0},{"source":5,"sampler":0},{"source":6,"sampler":0},{"source":7,"sampler":0},{"source":8,"sampler":0},{"source":9,"sampler":0},{"source":10,"sampler":0},{"source":11,"sampler":0},{"source":12,"sampler":0},{"source":13,"sampler":0},{"source":14,"sampler":0},{"source":15,"sampler":0},{"source":16,"sampler":0},{"source":17,"sampler":0},{"source":18,"sampler":0}],"images":[{"uri":"../textures/asphalt-albedo.png"},{"uri":"../textures/asphalt-normal.png"},{"uri":"../textures/asphalt-orm.png"},{"uri":"../textures/metal-galvanized-albedo.png"},{"uri":"../textures/metal-galvanized-normal.png"},{"uri":"../textures/metal-galvanized-orm.png"},{"uri":"../textures/concrete-albedo.png"},{"uri":"../textures/concrete-normal.png"},{"uri":"../textures/concrete-orm.png"},{"uri":"../textures/glass-blue-albedo.png"},{"uri":"../textures/glass-blue-normal.png"},{"uri":"../textures/glass-blue-orm.png"},{"uri":"../textures/metal-dark-albedo.png"},{"uri":"../textures/metal-dark-normal.png"},{"uri":"../textures/metal-dark-orm.png"},{"uri":"../textures/brick-cream-albedo.png"},{"uri":"../textures/brick-cream-normal.png"},{"uri":"../textures/brick-cream-orm.png"},{"uri":"../signs/wastewater-plant.png"}],"samplers":[{"magFilter":9729,"minFilter":9987,"wrapS":10497,"wrapT":10497}],"buffers":[{"uri":"../shared/geometry.bin","byteLength":16435520}],"bufferViews":[{"buffer":0,"byteOffset":0,"byteLength":3888,"target":34962},{"buffer":0,"byteOffset":3888,"byteLength":3888,"target":34962},{"buffer":0,"byteOffset":16083872,"byteLength":2592,"target":34962},{"buffer":0,"byteOffset":16086464,"byteLength":2592,"target":34962},{"buffer":0,"byteOffset":12960,"byteLength":1200,"target":34962},{"buffer":0,"byteOffset":14160,"byteLength":1200,"target":34962},{"buffer":0,"byteOffset":150020,"byteLength":800,"target":34962},{"buffer":0,"byteOffset":16160,"byteLength":384,"target":34963},{"buffer":0,"byteOffset":173540,"byteLength":2592,"target":34962},{"buffer":0,"byteOffset":1101304,"byteLength":1200,"target":34962},{"buffer":0,"byteOffset":1102504,"byteLength":1200,"target":34962},{"buffer":0,"byteOffset":16067712,"byteLength":800,"target":34962},{"buffer":0,"byteOffset":16068512,"byteLength":800,"target":34962},{"buffer":0,"byteOffset":16020288,"byteLength":2592,"target":34962},{"buffer":0,"byteOffset":868536,"byteLength":3888,"target":34962},{"buffer":0,"byteOffset":16022880,"byteLength":2592,"target":34962},{"buffer":0,"byteOffset":45664,"byteLength":288,"target":34962},{"buffer":0,"byteOffset":45952,"byteLength":288,"target":34962},{"buffer":0,"byteOffset":46240,"byteLength":192,"target":34962},{"buffer":0,"byteOffset":46432,"byteLength":72,"target":34963},{"buffer":0,"byteOffset":46504,"byteLength":48,"target":34962},{"buffer":0,"byteOffset":46552,"byteLength":48,"target":34962},{"buffer":0,"byteOffset":176132,"byteLength":32,"target":34962},{"buffer":0,"byteOffset":46632,"byteLength":12,"target":34963},{"buffer":0,"byteOffset":46644,"byteLength":288,"target":34962},{"buffer":0,"byteOffset":16089056,"byteLength":192,"target":34962},{"buffer":0,"byteOffset":16089248,"byteLength":192,"target":34962},{"buffer":0,"byteOffset":47316,"byteLength":480,"target":34962},{"buffer":0,"byteOffset":47796,"byteLength":480,"target":34962},{"buffer":0,"byteOffset":153636,"byteLength":320,"target":34962},{"buffer":0,"byteOffset":48596,"byteLength":144,"target":34963},{"buffer":0,"byteOffset":176356,"byteLength":192,"target":34962},{"buffer":0,"byteOffset":1112312,"byteLength":480,"target":34962},{"buffer":0,"byteOffset":1112792,"byteLength":480,"target":34962},{"buffer":0,"byteOffset":16069312,"byteLength":320,"target":34962},{"buffer":0,"byteOffset":16069632,"byteLength":320,"target":34962},{"buffer":0,"byteOffset":16026112,"byteLength":192,"target":34962},{"buffer":0,"byteOffset":16026304,"byteLength":192,"target":34962}],"accessors":[{"bufferView":0,"componentType":5126,"count":324,"type":"VEC3","min":[-0.5,-0.5,-0.5],"max":[0.5,0.5,0.5]},{"bufferView":1,"componentType":5126,"count":324,"type":"VEC3"},{"bufferView":2,"componentType":5126,"count":324,"type":"VEC2"},{"bufferView":3,"componentType":5126,"count":324,"type":"VEC2"},{"bufferView":4,"componentType":5126,"count":100,"type":"VEC3","min":[-1,-0.5,-1],"max":[1,0.5,1]},{"bufferView":5,"componentType":5126,"count":100,"type":"VEC3"},{"bufferView":6,"componentType":5126,"count":100,"type":"VEC2"},{"bufferView":7,"componentType":5123,"count":192,"type":"SCALAR"},{"bufferView":8,"componentType":5126,"count":324,"type":"VEC2"},{"bufferView":9,"componentType":5126,"count":100,"type":"VEC3","min":[-1,-0.5,-1],"max":[1,0.5,1]},{"bufferView":10,"componentType":5126,"count":100,"type":"VEC3"},{"bufferView":11,"componentType":5126,"count":100,"type":"VEC2"},{"bufferView":12,"componentType":5126,"count":100,"type":"VEC2"},{"bufferView":13,"componentType":5126,"count":324,"type":"VEC2"},{"bufferView":14,"componentType":5126,"count":324,"type":"VEC3","min":[-0.5,-0.5,-0.5],"max":[0.5,0.5,0.5]},{"bufferView":15,"componentType":5126,"count":324,"type":"VEC2"},{"bufferView":16,"componentType":5126,"count":24,"type":"VEC3","min":[-0.5,-0.5,-0.02500000037252903],"max":[0.5,0.5,0.02500000037252903]},{"bufferView":17,"componentType":5126,"count":24,"type":"VEC3"},{"bufferView":18,"componentType":5126,"count":24,"type":"VEC2"},{"bufferView":19,"componentType":5123,"count":36,"type":"SCALAR"},{"bufferView":20,"componentType":5126,"count":4,"type":"VEC3","min":[-0.5,-0.5,0],"max":[0.5,0.5,0]},{"bufferView":21,"componentType":5126,"count":4,"type":"VEC3"},{"bufferView":22,"componentType":5126,"count":4,"type":"VEC2"},{"bufferView":23,"componentType":5123,"count":6,"type":"SCALAR"},{"bufferView":24,"componentType":5126,"count":24,"type":"VEC3","min":[-0.5,-0.5,-0.5],"max":[0.5,0.5,0.5]},{"bufferView":25,"componentType":5126,"count":24,"type":"VEC2"},{"bufferView":26,"componentType":5126,"count":24,"type":"VEC2"},{"bufferView":27,"componentType":5126,"count":40,"type":"VEC3","min":[-0.8660253882408142,-0.5,-1],"max":[0.8660253882408142,0.5,1]},{"bufferView":28,"componentType":5126,"count":40,"type":"VEC3"},{"bufferView":29,"componentType":5126,"count":40,"type":"VEC2"},{"bufferView":30,"componentType":5123,"count":72,"type":"SCALAR"},{"bufferView":31,"componentType":5126,"count":24,"type":"VEC2"},{"bufferView":32,"componentType":5126,"count":40,"type":"VEC3","min":[-0.8660253882408142,-0.5,-1],"max":[0.8660253882408142,0.5,1]},{"bufferView":33,"componentType":5126,"count":40,"type":"VEC3"},{"bufferView":34,"componentType":5126,"count":40,"type":"VEC2"},{"bufferView":35,"componentType":5126,"count":40,"type":"VEC2"},{"bufferView":36,"componentType":5126,"count":24,"type":"VEC2"},{"bufferView":37,"componentType":5126,"count":24,"type":"VEC2"}],"extensionsUsed":["KHR_materials_unlit"],"extras":{"id":"vlt-wastewater-plant-15","family":"wastewater-plant","variant":14,"plan":"C5-1","units":"metres","up":"+Y","front":"+Z","lodScenes":[0,1,2]}}