{"asset":{"version":"2.0","generator":"SLOPMERICA Department of Unnecessary Development 1.0"},"scene":0,"scenes":[{"name":"LOD 0","nodes":[0,1,2,3,4,5,6,7,8,9,10,11,12,13,14,15,16,17,18,19,20,21,22,23,24],"extras":{"level":0}},{"name":"LOD 1","nodes":[25,26,27,28,29,30,31,32,33,34,35,36,37,38,39,40,41,42,43,44,45,46,47,48,49],"extras":{"level":1}},{"name":"LOD 2","nodes":[50,51,52,53,54,55,56,57,58],"extras":{"level":2}}],"nodes":[{"name":"surveyed lot","mesh":0,"translation":[0,0.06,0],"scale":[23.52,0.12,19.04]},{"name":"ferris wheel rim","mesh":1,"translation":[0,6.25,-1],"rotation":[0,0.707107,0,0.707107]},{"name":"wheel spoke 0","mesh":2,"translation":[0,0,0]},{"name":"gondola 0","mesh":3,"translation":[0,6.25,4.45],"scale":[0.75,0.65,0.55]},{"name":"wheel spoke 1","mesh":4,"translation":[0,0,0]},{"name":"wheel spoke 2","mesh":5,"translation":[0,0,0]},{"name":"gondola 2","mesh":6,"translation":[0,11.433258,0.684143],"scale":[0.75,0.65,0.55]},{"name":"wheel spoke 3","mesh":7,"translation":[0,0,0]},{"name":"wheel spoke 4","mesh":8,"translation":[0,0,0]},{"name":"gondola 4","mesh":3,"translation":[0,9.45343,-5.409143],"scale":[0.75,0.65,0.55]},{"name":"wheel spoke 5","mesh":9,"translation":[0,0,0]},{"name":"wheel spoke 6","mesh":10,"translation":[0,0,0]},{"name":"gondola 6","mesh":6,"translation":[0,3.04657,-5.409143],"scale":[0.75,0.65,0.55]},{"name":"wheel spoke 7","mesh":11,"translation":[0,0,0]},{"name":"wheel spoke 8","mesh":12,"translation":[0,0,0]},{"name":"gondola 8","mesh":3,"translation":[0,1.066742,0.684143],"scale":[0.75,0.65,0.55]},{"name":"wheel spoke 9","mesh":13,"translation":[0,0,0]},{"name":"left wheel leg","mesh":14,"translation":[0,0,0]},{"name":"right wheel leg","mesh":15,"translation":[0,0,0]},{"name":"midway booth 0","mesh":16,"translation":[-6,1,6],"scale":[2.1,1.8,2]},{"name":"midway booth 1","mesh":17,"translation":[-3.3,1,6],"scale":[2.1,1.8,2]},{"name":"midway booth 2","mesh":16,"translation":[-0.6,1,6],"scale":[2.1,1.8,2]},{"name":"midway booth 3","mesh":17,"translation":[2.1,1,6],"scale":[2.1,1.8,2]},{"name":"midway booth 4","mesh":16,"translation":[4.8,1,6],"scale":[2.1,1.8,2]},{"name":"closed tarp","mesh":18,"translation":[5.2,0.25,2.8],"scale":[4.95,0.12,3.2]},{"name":"surveyed lot","mesh":19,"translation":[0,0.06,0],"scale":[23.52,0.12,19.04]},{"name":"ferris wheel rim","mesh":20,"translation":[0,6.25,-1],"rotation":[0,0.707107,0,0.707107]},{"name":"wheel spoke 0","mesh":21,"translation":[0,0,0]},{"name":"gondola 0","mesh":22,"translation":[0,6.25,4.45],"scale":[0.75,0.65,0.55]},{"name":"wheel spoke 1","mesh":23,"translation":[0,0,0]},{"name":"wheel spoke 2","mesh":24,"translation":[0,0,0]},{"name":"gondola 2","mesh":25,"translation":[0,11.433258,0.684143],"scale":[0.75,0.65,0.55]},{"name":"wheel spoke 3","mesh":26,"translation":[0,0,0]},{"name":"wheel spoke 4","mesh":27,"translation":[0,0,0]},{"name":"gondola 4","mesh":22,"translation":[0,9.45343,-5.409143],"scale":[0.75,0.65,0.55]},{"name":"wheel spoke 5","mesh":28,"translation":[0,0,0]},{"name":"wheel spoke 6","mesh":29,"translation":[0,0,0]},{"name":"gondola 6","mesh":25,"translation":[0,3.04657,-5.409143],"scale":[0.75,0.65,0.55]},{"name":"wheel spoke 7","mesh":30,"translation":[0,0,0]},{"name":"wheel spoke 8","mesh":31,"translation":[0,0,0]},{"name":"gondola 8","mesh":22,"translation":[0,1.066742,0.684143],"scale":[0.75,0.65,0.55]},{"name":"wheel spoke 9","mesh":32,"translation":[0,0,0]},{"name":"left wheel leg","mesh":33,"translation":[0,0,0]},{"name":"right wheel leg","mesh":34,"translation":[0,0,0]},{"name":"midway booth 0","mesh":35,"translation":[-6,1,6],"scale":[2.1,1.8,2]},{"name":"midway booth 1","mesh":36,"translation":[-3.3,1,6],"scale":[2.1,1.8,2]},{"name":"midway booth 2","mesh":35,"translation":[-0.6,1,6],"scale":[2.1,1.8,2]},{"name":"midway booth 3","mesh":36,"translation":[2.1,1,6],"scale":[2.1,1.8,2]},{"name":"midway booth 4","mesh":35,"translation":[4.8,1,6],"scale":[2.1,1.8,2]},{"name":"closed tarp","mesh":37,"translation":[5.2,0.25,2.8],"scale":[4.95,0.12,3.2]},{"name":"surveyed lot","mesh":19,"translation":[0,0.06,0],"scale":[23.52,0.12,19.04]},{"name":"ferris wheel rim","mesh":38,"translation":[0,6.25,-1],"rotation":[0,0.707107,0,0.707107]},{"name":"wheel spoke 0","mesh":39,"translation":[0,0,0]},{"name":"wheel spoke 1","mesh":40,"translation":[0,0,0]},{"name":"wheel spoke 2","mesh":41,"translation":[0,0,0]},{"name":"wheel spoke 3","mesh":42,"translation":[0,0,0]},{"name":"left wheel leg","mesh":43,"translation":[0,0,0]},{"name":"right wheel leg","mesh":44,"translation":[0,0,0]},{"name":"closed tarp","mesh":37,"translation":[5.2,0.25,2.8],"scale":[4.95,0.12,3.2]}],"meshes":[{"primitives":[{"attributes":{"POSITION":0,"NORMAL":1,"TEXCOORD_0":2},"material":0,"mode":4}]},{"primitives":[{"attributes":{"POSITION":3,"NORMAL":4,"TEXCOORD_0":5},"material":1,"mode":4,"indices":6}]},{"primitives":[{"attributes":{"POSITION":7,"NORMAL":8,"TEXCOORD_0":9},"material":2,"mode":4,"indices":10}]},{"primitives":[{"attributes":{"POSITION":0,"NORMAL":1,"TEXCOORD_0":11},"material":3,"mode":4}]},{"primitives":[{"attributes":{"POSITION":12,"NORMAL":13,"TEXCOORD_0":9},"material":2,"mode":4,"indices":10}]},{"primitives":[{"attributes":{"POSITION":14,"NORMAL":15,"TEXCOORD_0":9},"material":2,"mode":4,"indices":10}]},{"primitives":[{"attributes":{"POSITION":0,"NORMAL":1,"TEXCOORD_0":11},"material":4,"mode":4}]},{"primitives":[{"attributes":{"POSITION":16,"NORMAL":17,"TEXCOORD_0":9},"material":2,"mode":4,"indices":10}]},{"primitives":[{"attributes":{"POSITION":18,"NORMAL":19,"TEXCOORD_0":9},"material":2,"mode":4,"indices":10}]},{"primitives":[{"attributes":{"POSITION":20,"NORMAL":21,"TEXCOORD_0":9},"material":2,"mode":4,"indices":10}]},{"primitives":[{"attributes":{"POSITION":22,"NORMAL":23,"TEXCOORD_0":9},"material":2,"mode":4,"indices":10}]},{"primitives":[{"attributes":{"POSITION":24,"NORMAL":25,"TEXCOORD_0":9},"material":2,"mode":4,"indices":10}]},{"primitives":[{"attributes":{"POSITION":26,"NORMAL":27,"TEXCOORD_0":9},"material":2,"mode":4,"indices":10}]},{"primitives":[{"attributes":{"POSITION":28,"NORMAL":29,"TEXCOORD_0":9},"material":2,"mode":4,"indices":10}]},{"primitives":[{"attributes":{"POSITION":30,"NORMAL":31,"TEXCOORD_0":32},"material":1,"mode":4,"indices":10}]},{"primitives":[{"attributes":{"POSITION":33,"NORMAL":34,"TEXCOORD_0":32},"material":1,"mode":4,"indices":10}]},{"primitives":[{"attributes":{"POSITION":0,"NORMAL":1,"TEXCOORD_0":35},"material":4,"mode":4}]},{"primitives":[{"attributes":{"POSITION":0,"NORMAL":1,"TEXCOORD_0":35},"material":3,"mode":4}]},{"primitives":[{"attributes":{"POSITION":0,"NORMAL":1,"TEXCOORD_0":36},"material":5,"mode":4}]},{"primitives":[{"attributes":{"POSITION":37,"NORMAL":38,"TEXCOORD_0":39},"material":0,"mode":4,"indices":40}]},{"primitives":[{"attributes":{"POSITION":41,"NORMAL":42,"TEXCOORD_0":43},"material":1,"mode":4,"indices":44}]},{"primitives":[{"attributes":{"POSITION":45,"NORMAL":46,"TEXCOORD_0":47},"material":2,"mode":4,"indices":48}]},{"primitives":[{"attributes":{"POSITION":37,"NORMAL":38,"TEXCOORD_0":49},"material":3,"mode":4,"indices":40}]},{"primitives":[{"attributes":{"POSITION":50,"NORMAL":51,"TEXCOORD_0":47},"material":2,"mode":4,"indices":48}]},{"primitives":[{"attributes":{"POSITION":52,"NORMAL":53,"TEXCOORD_0":47},"material":2,"mode":4,"indices":48}]},{"primitives":[{"attributes":{"POSITION":37,"NORMAL":38,"TEXCOORD_0":49},"material":4,"mode":4,"indices":40}]},{"primitives":[{"attributes":{"POSITION":54,"NORMAL":55,"TEXCOORD_0":47},"material":2,"mode":4,"indices":48}]},{"primitives":[{"attributes":{"POSITION":56,"NORMAL":57,"TEXCOORD_0":47},"material":2,"mode":4,"indices":48}]},{"primitives":[{"attributes":{"POSITION":58,"NORMAL":59,"TEXCOORD_0":47},"material":2,"mode":4,"indices":48}]},{"primitives":[{"attributes":{"POSITION":60,"NORMAL":61,"TEXCOORD_0":47},"material":2,"mode":4,"indices":48}]},{"primitives":[{"attributes":{"POSITION":62,"NORMAL":63,"TEXCOORD_0":47},"material":2,"mode":4,"indices":48}]},{"primitives":[{"attributes":{"POSITION":64,"NORMAL":65,"TEXCOORD_0":47},"material":2,"mode":4,"indices":48}]},{"primitives":[{"attributes":{"POSITION":66,"NORMAL":67,"TEXCOORD_0":47},"material":2,"mode":4,"indices":48}]},{"primitives":[{"attributes":{"POSITION":68,"NORMAL":69,"TEXCOORD_0":70},"material":1,"mode":4,"indices":48}]},{"primitives":[{"attributes":{"POSITION":71,"NORMAL":72,"TEXCOORD_0":70},"material":1,"mode":4,"indices":48}]},{"primitives":[{"attributes":{"POSITION":37,"NORMAL":38,"TEXCOORD_0":73},"material":4,"mode":4,"indices":40}]},{"primitives":[{"attributes":{"POSITION":37,"NORMAL":38,"TEXCOORD_0":73},"material":3,"mode":4,"indices":40}]},{"primitives":[{"attributes":{"POSITION":37,"NORMAL":38,"TEXCOORD_0":74},"material":5,"mode":4,"indices":40}]},{"primitives":[{"attributes":{"POSITION":75,"NORMAL":76,"TEXCOORD_0":77},"material":1,"mode":4,"indices":78}]},{"primitives":[{"attributes":{"POSITION":79,"NORMAL":80,"TEXCOORD_0":81},"material":2,"mode":4,"indices":82}]},{"primitives":[{"attributes":{"POSITION":83,"NORMAL":84,"TEXCOORD_0":81},"material":2,"mode":4,"indices":82}]},{"primitives":[{"attributes":{"POSITION":85,"NORMAL":86,"TEXCOORD_0":81},"material":2,"mode":4,"indices":82}]},{"primitives":[{"attributes":{"POSITION":87,"NORMAL":88,"TEXCOORD_0":81},"material":2,"mode":4,"indices":82}]},{"primitives":[{"attributes":{"POSITION":89,"NORMAL":90,"TEXCOORD_0":91},"material":1,"mode":4,"indices":82}]},{"primitives":[{"attributes":{"POSITION":92,"NORMAL":93,"TEXCOORD_0":91},"material":1,"mode":4,"indices":82}]}],"materials":[{"name":"concrete","pbrMetallicRoughness":{"baseColorTexture":{"index":0},"metallicRoughnessTexture":{"index":2},"roughnessFactor":1,"metallicFactor":1},"normalTexture":{"index":1,"scale":0.82},"occlusionTexture":{"index":2,"strength":0.35}},{"name":"metal-dark","pbrMetallicRoughness":{"baseColorTexture":{"index":3},"metallicRoughnessTexture":{"index":5},"roughnessFactor":1,"metallicFactor":1},"normalTexture":{"index":4,"scale":0.35},"occlusionTexture":{"index":5,"strength":0.35}},{"name":"metal-galvanized","pbrMetallicRoughness":{"baseColorTexture":{"index":6},"metallicRoughnessTexture":{"index":8},"roughnessFactor":1,"metallicFactor":1},"normalTexture":{"index":7,"scale":0.15},"occlusionTexture":{"index":8,"strength":0.35}},{"name":"paint-red","pbrMetallicRoughness":{"baseColorFactor":[0.46778379610254284,0.08021982030622662,0.05126945836711539,1],"roughnessFactor":0.62,"metallicFactor":0.05}},{"name":"paint-yellow","pbrMetallicRoughness":{"baseColorFactor":[0.76052450467022,0.4793201830913402,0.07818742179702069,1],"roughnessFactor":0.66,"metallicFactor":0.03}},{"name":"paint-blue","pbrMetallicRoughness":{"baseColorFactor":[0.05126945836711539,0.10946171076915331,0.22696587349938613,1],"roughnessFactor":0.58,"metallicFactor":0.05}}],"textures":[{"source":0,"sampler":0},{"source":1,"sampler":0},{"source":2,"sampler":0},{"source":3,"sampler":0},{"source":4,"sampler":0},{"source":5,"sampler":0},{"source":6,"sampler":0},{"source":7,"sampler":0},{"source":8,"sampler":0}],"images":[{"uri":"../textures/concrete-albedo.png"},{"uri":"../textures/concrete-normal.png"},{"uri":"../textures/concrete-orm.png"},{"uri":"../textures/metal-dark-albedo.png"},{"uri":"../textures/metal-dark-normal.png"},{"uri":"../textures/metal-dark-orm.png"},{"uri":"../textures/metal-galvanized-albedo.png"},{"uri":"../textures/metal-galvanized-normal.png"},{"uri":"../textures/metal-galvanized-orm.png"}],"samplers":[{"magFilter":9729,"minFilter":9987,"wrapS":10497,"wrapT":10497}],"buffers":[{"uri":"../shared/geometry.bin","byteLength":16435520}],"bufferViews":[{"buffer":0,"byteOffset":0,"byteLength":3888,"target":34962},{"buffer":0,"byteOffset":3888,"byteLength":3888,"target":34962},{"buffer":0,"byteOffset":3054044,"byteLength":2592,"target":34962},{"buffer":0,"byteOffset":2944196,"byteLength":3132,"target":34962},{"buffer":0,"byteOffset":390704,"byteLength":3132,"target":34962},{"buffer":0,"byteOffset":2835332,"byteLength":2088,"target":34962},{"buffer":0,"byteOffset":395924,"byteLength":2688,"target":34963},{"buffer":0,"byteOffset":2947328,"byteLength":972,"target":34962},{"buffer":0,"byteOffset":2838392,"byteLength":972,"target":34962},{"buffer":0,"byteOffset":409952,"byteLength":648,"target":34962},{"buffer":0,"byteOffset":410600,"byteLength":768,"target":34963},{"buffer":0,"byteOffset":2839364,"byteLength":2592,"target":34962},{"buffer":0,"byteOffset":3056636,"byteLength":972,"target":34962},{"buffer":0,"byteOffset":3002768,"byteLength":972,"target":34962},{"buffer":0,"byteOffset":3057608,"byteLength":972,"target":34962},{"buffer":0,"byteOffset":3004712,"byteLength":972,"target":34962},{"buffer":0,"byteOffset":3058580,"byteLength":972,"target":34962},{"buffer":0,"byteOffset":3006656,"byteLength":972,"target":34962},{"buffer":0,"byteOffset":3059552,"byteLength":972,"target":34962},{"buffer":0,"byteOffset":3008600,"byteLength":972,"target":34962},{"buffer":0,"byteOffset":2952188,"byteLength":972,"target":34962},{"buffer":0,"byteOffset":2921696,"byteLength":972,"target":34962},{"buffer":0,"byteOffset":3060524,"byteLength":972,"target":34962},{"buffer":0,"byteOffset":3010544,"byteLength":972,"target":34962},{"buffer":0,"byteOffset":3061496,"byteLength":972,"target":34962},{"buffer":0,"byteOffset":3012488,"byteLength":972,"target":34962},{"buffer":0,"byteOffset":3062468,"byteLength":972,"target":34962},{"buffer":0,"byteOffset":3014432,"byteLength":972,"target":34962},{"buffer":0,"byteOffset":3063440,"byteLength":972,"target":34962},{"buffer":0,"byteOffset":3035600,"byteLength":972,"target":34962},{"buffer":0,"byteOffset":2957048,"byteLength":972,"target":34962},{"buffer":0,"byteOffset":2958020,"byteLength":972,"target":34962},{"buffer":0,"byteOffset":2857508,"byteLength":648,"target":34962},{"buffer":0,"byteOffset":2958992,"byteLength":972,"target":34962},{"buffer":0,"byteOffset":2959964,"byteLength":972,"target":34962},{"buffer":0,"byteOffset":2860100,"byteLength":2592,"target":34962},{"buffer":0,"byteOffset":3292208,"byteLength":2592,"target":34962},{"buffer":0,"byteOffset":46644,"byteLength":288,"target":34962},{"buffer":0,"byteOffset":45952,"byteLength":288,"target":34962},{"buffer":0,"byteOffset":3064412,"byteLength":192,"target":34962},{"buffer":0,"byteOffset":46432,"byteLength":72,"target":34963},{"buffer":0,"byteOffset":2961128,"byteLength":1428,"target":34962},{"buffer":0,"byteOffset":427996,"byteLength":1428,"target":34962},{"buffer":0,"byteOffset":2864312,"byteLength":952,"target":34962},{"buffer":0,"byteOffset":430376,"byteLength":1152,"target":34963},{"buffer":0,"byteOffset":2962556,"byteLength":420,"target":34962},{"buffer":0,"byteOffset":2865684,"byteLength":420,"target":34962},{"buffer":0,"byteOffset":433796,"byteLength":280,"target":34962},{"buffer":0,"byteOffset":434076,"byteLength":288,"target":34963},{"buffer":0,"byteOffset":2866104,"byteLength":192,"target":34962},{"buffer":0,"byteOffset":3064604,"byteLength":420,"target":34962},{"buffer":0,"byteOffset":3017960,"byteLength":420,"target":34962},{"buffer":0,"byteOffset":3065024,"byteLength":420,"target":34962},{"buffer":0,"byteOffset":3018800,"byteLength":420,"target":34962},{"buffer":0,"byteOffset":3065444,"byteLength":420,"target":34962},{"buffer":0,"byteOffset":3019640,"byteLength":420,"target":34962},{"buffer":0,"byteOffset":3065864,"byteLength":420,"target":34962},{"buffer":0,"byteOffset":3020480,"byteLength":420,"target":34962},{"buffer":0,"byteOffset":2964656,"byteLength":420,"target":34962},{"buffer":0,"byteOffset":2934584,"byteLength":420,"target":34962},{"buffer":0,"byteOffset":3066284,"byteLength":420,"target":34962},{"buffer":0,"byteOffset":3021320,"byteLength":420,"target":34962},{"buffer":0,"byteOffset":3066704,"byteLength":420,"target":34962},{"buffer":0,"byteOffset":3022160,"byteLength":420,"target":34962},{"buffer":0,"byteOffset":3067124,"byteLength":420,"target":34962},{"buffer":0,"byteOffset":3023000,"byteLength":420,"target":34962},{"buffer":0,"byteOffset":3067544,"byteLength":420,"target":34962},{"buffer":0,"byteOffset":3023840,"byteLength":420,"target":34962},{"buffer":0,"byteOffset":2966756,"byteLength":420,"target":34962},{"buffer":0,"byteOffset":2967176,"byteLength":420,"target":34962},{"buffer":0,"byteOffset":2873016,"byteLength":280,"target":34962},{"buffer":0,"byteOffset":2967596,"byteLength":420,"target":34962},{"buffer":0,"byteOffset":2968016,"byteLength":420,"target":34962},{"buffer":0,"byteOffset":2874136,"byteLength":192,"target":34962},{"buffer":0,"byteOffset":3294800,"byteLength":192,"target":34962},{"buffer":0,"byteOffset":2968436,"byteLength":660,"target":34962},{"buffer":0,"byteOffset":437788,"byteLength":660,"target":34962},{"buffer":0,"byteOffset":2874988,"byteLength":440,"target":34962},{"buffer":0,"byteOffset":438888,"byteLength":480,"target":34963},{"buffer":0,"byteOffset":2969096,"byteLength":300,"target":34962},{"buffer":0,"byteOffset":2875728,"byteLength":300,"target":34962},{"buffer":0,"byteOffset":439968,"byteLength":200,"target":34962},{"buffer":0,"byteOffset":440168,"byteLength":192,"target":34963},{"buffer":0,"byteOffset":2969396,"byteLength":300,"target":34962},{"buffer":0,"byteOffset":2969696,"byteLength":300,"target":34962},{"buffer":0,"byteOffset":2969996,"byteLength":300,"target":34962},{"buffer":0,"byteOffset":2939804,"byteLength":300,"target":34962},{"buffer":0,"byteOffset":2970296,"byteLength":300,"target":34962},{"buffer":0,"byteOffset":2970596,"byteLength":300,"target":34962},{"buffer":0,"byteOffset":2970896,"byteLength":300,"target":34962},{"buffer":0,"byteOffset":2971196,"byteLength":300,"target":34962},{"buffer":0,"byteOffset":2878428,"byteLength":200,"target":34962},{"buffer":0,"byteOffset":2971496,"byteLength":300,"target":34962},{"buffer":0,"byteOffset":2971796,"byteLength":300,"target":34962}],"accessors":[{"bufferView":0,"componentType":5126,"count":324,"type":"VEC3","min":[-0.5,-0.5,-0.5],"max":[0.5,0.5,0.5]},{"bufferView":1,"componentType":5126,"count":324,"type":"VEC3"},{"bufferView":2,"componentType":5126,"count":324,"type":"VEC2"},{"bufferView":3,"componentType":5126,"count":261,"type":"VEC3","min":[-5.630000114440918,-5.630000114440918,-0.18000000715255737],"max":[5.630000114440918,5.630000114440918,0.18000000715255737]},{"bufferView":4,"componentType":5126,"count":261,"type":"VEC3"},{"bufferView":5,"componentType":5126,"count":261,"type":"VEC2"},{"bufferView":6,"componentType":5123,"count":1344,"type":"SCALAR"},{"bufferView":7,"componentType":5126,"count":81,"type":"VEC3","min":[-0.054999999701976776,6.195000171661377,-1],"max":[0.054999999701976776,6.304999828338623,4.449999809265137]},{"bufferView":8,"componentType":5126,"count":81,"type":"VEC3"},{"bufferView":9,"componentType":5126,"count":81,"type":"VEC2"},{"bufferView":10,"componentType":5123,"count":384,"type":"SCALAR"},{"bufferView":11,"componentType":5126,"count":324,"type":"VEC2"},{"bufferView":12,"componentType":5126,"count":81,"type":"VEC3","min":[-0.054999999701976776,6.205503940582275,-1.0323282480239868],"max":[0.054999999701976776,9.497925758361816,3.4414708614349365]},{"bufferView":13,"componentType":5126,"count":81,"type":"VEC3"},{"bufferView":14,"componentType":5126,"count":81,"type":"VEC3","min":[-0.054999999701976776,6.233004093170166,-1.0523080825805664],"max":[0.054999999701976776,11.4502534866333,0.736450731754303]},{"bufferView":15,"componentType":5126,"count":81,"type":"VEC3"},{"bufferView":16,"componentType":5126,"count":81,"type":"VEC3","min":[-0.054999999701976776,6.233004093170166,-2.736450672149658],"max":[0.054999999701976776,11.4502534866333,-0.9476919174194336]},{"bufferView":17,"componentType":5126,"count":81,"type":"VEC3"},{"bufferView":18,"componentType":5126,"count":81,"type":"VEC3","min":[-0.054999999701976776,6.205503940582275,-5.441470623016357],"max":[0.054999999701976776,9.497925758361816,-0.967671811580658]},{"bufferView":19,"componentType":5126,"count":81,"type":"VEC3"},{"bufferView":20,"componentType":5126,"count":81,"type":"VEC3","min":[-0.054999999701976776,6.195000171661377,-6.449999809265137],"max":[0.054999999701976776,6.304999828338623,-1]},{"bufferView":21,"componentType":5126,"count":81,"type":"VEC3"},{"bufferView":22,"componentType":5126,"count":81,"type":"VEC3","min":[-0.054999999701976776,3.0020744800567627,-5.441470623016357],"max":[0.054999999701976776,6.294496059417725,-0.967671811580658]},{"bufferView":23,"componentType":5126,"count":81,"type":"VEC3"},{"bufferView":24,"componentType":5126,"count":81,"type":"VEC3","min":[-0.054999999701976776,1.049746036529541,-2.736450672149658],"max":[0.054999999701976776,6.266995906829834,-0.9476919174194336]},{"bufferView":25,"componentType":5126,"count":81,"type":"VEC3"},{"bufferView":26,"componentType":5126,"count":81,"type":"VEC3","min":[-0.054999999701976776,1.049746036529541,-1.0523080825805664],"max":[0.054999999701976776,6.266995906829834,0.736450731754303]},{"bufferView":27,"componentType":5126,"count":81,"type":"VEC3"},{"bufferView":28,"componentType":5126,"count":81,"type":"VEC3","min":[-0.054999999701976776,3.0020744800567627,-1.0323282480239868],"max":[0.054999999701976776,6.294496059417725,3.4414708614349365]},{"bufferView":29,"componentType":5126,"count":81,"type":"VEC3"},{"bufferView":30,"componentType":5126,"count":81,"type":"VEC3","min":[-3.5743536949157715,0.10201617330312729,-1.2000000476837158],"max":[0.17435356974601746,6.3479838371276855,-0.800000011920929]},{"bufferView":31,"componentType":5126,"count":81,"type":"VEC3"},{"bufferView":32,"componentType":5126,"count":81,"type":"VEC2"},{"bufferView":33,"componentType":5126,"count":81,"type":"VEC3","min":[-0.17435356974601746,0.10201617330312729,-1.2000000476837158],"max":[3.5743536949157715,6.3479838371276855,-0.800000011920929]},{"bufferView":34,"componentType":5126,"count":81,"type":"VEC3"},{"bufferView":35,"componentType":5126,"count":324,"type":"VEC2"},{"bufferView":36,"componentType":5126,"count":324,"type":"VEC2"},{"bufferView":37,"componentType":5126,"count":24,"type":"VEC3","min":[-0.5,-0.5,-0.5],"max":[0.5,0.5,0.5]},{"bufferView":38,"componentType":5126,"count":24,"type":"VEC3"},{"bufferView":39,"componentType":5126,"count":24,"type":"VEC2"},{"bufferView":40,"componentType":5123,"count":36,"type":"SCALAR"},{"bufferView":41,"componentType":5126,"count":119,"type":"VEC3","min":[-5.630000114440918,-5.630000114440918,-0.15588457882404327],"max":[5.630000114440918,5.630000114440918,0.15588457882404327]},{"bufferView":42,"componentType":5126,"count":119,"type":"VEC3"},{"bufferView":43,"componentType":5126,"count":119,"type":"VEC2"},{"bufferView":44,"componentType":5123,"count":576,"type":"SCALAR"},{"bufferView":45,"componentType":5126,"count":35,"type":"VEC3","min":[-0.0476313978433609,6.195000171661377,-1],"max":[0.0476313978433609,6.304999828338623,4.449999809265137]},{"bufferView":46,"componentType":5126,"count":35,"type":"VEC3"},{"bufferView":47,"componentType":5126,"count":35,"type":"VEC2"},{"bufferView":48,"componentType":5123,"count":144,"type":"SCALAR"},{"bufferView":49,"componentType":5126,"count":24,"type":"VEC2"},{"bufferView":50,"componentType":5126,"count":35,"type":"VEC3","min":[-0.054999999701976776,6.211465358734131,-1.0279970169067383],"max":[0.054999999701976776,9.491964340209961,3.4371397495269775]},{"bufferView":51,"componentType":5126,"count":35,"type":"VEC3"},{"bufferView":52,"componentType":5126,"count":35,"type":"VEC3","min":[-0.054999999701976776,6.235280990600586,-1.0453001260757446],"max":[0.054999999701976776,11.447977066040039,0.7294427752494812]},{"bufferView":53,"componentType":5126,"count":35,"type":"VEC3"},{"bufferView":54,"componentType":5126,"count":35,"type":"VEC3","min":[-0.054999999701976776,6.235280990600586,-2.729442834854126],"max":[0.054999999701976776,11.447977066040039,-0.9546998739242554]},{"bufferView":55,"componentType":5126,"count":35,"type":"VEC3"},{"bufferView":56,"componentType":5126,"count":35,"type":"VEC3","min":[-0.054999999701976776,6.211465358734131,-5.437139511108398],"max":[0.054999999701976776,9.491964340209961,-0.9720029830932617]},{"bufferView":57,"componentType":5126,"count":35,"type":"VEC3"},{"bufferView":58,"componentType":5126,"count":35,"type":"VEC3","min":[-0.0476313978433609,6.195000171661377,-6.449999809265137],"max":[0.0476313978433609,6.304999828338623,-1]},{"bufferView":59,"componentType":5126,"count":35,"type":"VEC3"},{"bufferView":60,"componentType":5126,"count":35,"type":"VEC3","min":[-0.054999999701976776,3.008035659790039,-5.437139511108398],"max":[0.054999999701976776,6.288534641265869,-0.9720029830932617]},{"bufferView":61,"componentType":5126,"count":35,"type":"VEC3"},{"bufferView":62,"componentType":5126,"count":35,"type":"VEC3","min":[-0.054999999701976776,1.0520230531692505,-2.729442834854126],"max":[0.054999999701976776,6.264719009399414,-0.9546998739242554]},{"bufferView":63,"componentType":5126,"count":35,"type":"VEC3"},{"bufferView":64,"componentType":5126,"count":35,"type":"VEC3","min":[-0.054999999701976776,1.0520230531692505,-1.0453001260757446],"max":[0.054999999701976776,6.264719009399414,0.7294427752494812]},{"bufferView":65,"componentType":5126,"count":35,"type":"VEC3"},{"bufferView":66,"componentType":5126,"count":35,"type":"VEC3","min":[-0.054999999701976776,3.008035659790039,-1.0279970169067383],"max":[0.054999999701976776,6.288534641265869,3.4371397495269775]},{"bufferView":67,"componentType":5126,"count":35,"type":"VEC3"},{"bufferView":68,"componentType":5126,"count":35,"type":"VEC3","min":[-3.550994634628296,0.11514351516962051,-1.2000000476837158],"max":[0.15099462866783142,6.3348565101623535,-0.800000011920929]},{"bufferView":69,"componentType":5126,"count":35,"type":"VEC3"},{"bufferView":70,"componentType":5126,"count":35,"type":"VEC2"},{"bufferView":71,"componentType":5126,"count":35,"type":"VEC3","min":[-0.15099462866783142,0.11514351516962051,-1.2000000476837158],"max":[3.550994634628296,6.3348565101623535,-0.800000011920929]},{"bufferView":72,"componentType":5126,"count":35,"type":"VEC3"},{"bufferView":73,"componentType":5126,"count":24,"type":"VEC2"},{"bufferView":74,"componentType":5126,"count":24,"type":"VEC2"},{"bufferView":75,"componentType":5126,"count":55,"type":"VEC3","min":[-5.630000114440918,-5.354448318481445,-0.18000000715255737],"max":[5.630000114440918,5.354448318481445,0.18000000715255737]},{"bufferView":76,"componentType":5126,"count":55,"type":"VEC3"},{"bufferView":77,"componentType":5126,"count":55,"type":"VEC2"},{"bufferView":78,"componentType":5123,"count":240,"type":"SCALAR"},{"bufferView":79,"componentType":5126,"count":25,"type":"VEC3","min":[-0.054999999701976776,6.195000171661377,-1],"max":[0.054999999701976776,6.304999828338623,4.449999809265137]},{"bufferView":80,"componentType":5126,"count":25,"type":"VEC3"},{"bufferView":81,"componentType":5126,"count":25,"type":"VEC2"},{"bufferView":82,"componentType":5123,"count":96,"type":"SCALAR"},{"bufferView":83,"componentType":5126,"count":25,"type":"VEC3","min":[-0.054999999701976776,6.25,-1.0549999475479126],"max":[0.054999999701976776,11.699999809265137,-0.9449999928474426]},{"bufferView":84,"componentType":5126,"count":25,"type":"VEC3"},{"bufferView":85,"componentType":5126,"count":25,"type":"VEC3","min":[-0.054999999701976776,6.195000171661377,-6.449999809265137],"max":[0.054999999701976776,6.304999828338623,-1]},{"bufferView":86,"componentType":5126,"count":25,"type":"VEC3"},{"bufferView":87,"componentType":5126,"count":25,"type":"VEC3","min":[-0.054999999701976776,0.800000011920929,-1.0549999475479126],"max":[0.054999999701976776,6.25,-0.9449999928474426]},{"bufferView":88,"componentType":5126,"count":25,"type":"VEC3"},{"bufferView":89,"componentType":5126,"count":25,"type":"VEC3","min":[-3.5743536949157715,0.10201617330312729,-1.2000000476837158],"max":[0.17435356974601746,6.3479838371276855,-0.800000011920929]},{"bufferView":90,"componentType":5126,"count":25,"type":"VEC3"},{"bufferView":91,"componentType":5126,"count":25,"type":"VEC2"},{"bufferView":92,"componentType":5126,"count":25,"type":"VEC3","min":[-0.17435356974601746,0.10201617330312729,-1.2000000476837158],"max":[3.5743536949157715,6.3479838371276855,-0.800000011920929]},{"bufferView":93,"componentType":5126,"count":25,"type":"VEC3"}],"extensionsUsed":["KHR_materials_unlit"],"extras":{"id":"vlt-county-fair-midway-29","family":"county-fair-midway","variant":28,"plan":"B4-2","units":"metres","up":"+Y","front":"+Z","lodScenes":[0,1,2]}}