{"asset":{"version":"2.0","generator":"SLOPMERICA Department of Unnecessary Development 1.0"},"scene":0,"scenes":[{"name":"LOD 0","nodes":[0,1,2,3,4,5,6,7,8,9,10,11,12,13,14,15,16,17,18,19,20],"extras":{"level":0}},{"name":"LOD 1","nodes":[21,22,23,24,25,26,27,28,29,30,31,32,33,34,35],"extras":{"level":1}},{"name":"LOD 2","nodes":[36,37,38,39,40,41,42,43,44,45,46],"extras":{"level":2}}],"nodes":[{"name":"foundation","mesh":0,"translation":[0,0.08,0],"scale":[17.8,0.16,13.805]},{"name":"lab","mesh":1,"translation":[0,2.0196,0],"scale":[15.6,4.0392,11.605]},{"name":"points-tube-0","mesh":2,"translation":[-5.304,3.6828,3.2494],"scale":[0.42,5.346,0.42]},{"name":"tube-cap-0","mesh":3,"translation":[-5.304,6.4152,3.2494],"scale":[0.44,0.25,0.44]},{"name":"points-tube-1","mesh":4,"translation":[-2.652,3.6828,3.2494],"scale":[0.42,5.346,0.42]},{"name":"tube-cap-1","mesh":3,"translation":[-2.652,6.4152,3.2494],"scale":[0.44,0.25,0.44]},{"name":"points-tube-2","mesh":5,"translation":[0,3.6828,3.2494],"scale":[0.42,5.346,0.42]},{"name":"tube-cap-2","mesh":3,"translation":[0,6.4152,3.2494],"scale":[0.44,0.25,0.44]},{"name":"points-tube-3","mesh":2,"translation":[2.652,3.6828,3.2494],"scale":[0.42,5.346,0.42]},{"name":"tube-cap-3","mesh":3,"translation":[2.652,6.4152,3.2494],"scale":[0.44,0.25,0.44]},{"name":"points-tube-4","mesh":4,"translation":[5.304,3.6828,3.2494],"scale":[0.42,5.346,0.42]},{"name":"tube-cap-4","mesh":3,"translation":[5.304,6.4152,3.2494],"scale":[0.44,0.25,0.44]},{"name":"loyalty-orbit","mesh":6,"translation":[0,7.425,0],"rotation":[0.681489,0.188608,0.188608,0.681489]},{"name":"lab-sign-back","mesh":7,"translation":[0,2.8512,5.9325],"scale":[7.276,1.1,1]},{"name":"lab-sign","mesh":8,"translation":[0,2.8512,5.9615],"scale":[7.176,1,1]},{"name":"busy-state-queue-bar","mesh":9,"translation":[0,0.65,7.31115],"scale":[11.232,0.12,0.12]},{"name":"queue-car-0","mesh":10,"translation":[-4.68,0.34,8.1235],"scale":[1.35,0.65,0.7]},{"name":"queue-car-1","mesh":11,"translation":[-2.34,0.34,9.0519],"scale":[1.35,0.65,0.7]},{"name":"queue-car-2","mesh":10,"translation":[0,0.34,8.1235],"scale":[1.35,0.65,0.7]},{"name":"queue-car-3","mesh":11,"translation":[2.34,0.34,9.0519],"scale":[1.35,0.65,0.7]},{"name":"queue-car-4","mesh":10,"translation":[4.68,0.34,8.1235],"scale":[1.35,0.65,0.7]},{"name":"foundation","mesh":12,"translation":[0,0.08,0],"scale":[17.8,0.16,13.805]},{"name":"lab","mesh":13,"translation":[0,2.0196,0],"scale":[15.6,4.0392,11.605]},{"name":"points-tube-0","mesh":14,"translation":[-5.304,3.6828,3.2494],"scale":[0.42,5.346,0.42]},{"name":"tube-cap-0","mesh":15,"translation":[-5.304,6.4152,3.2494],"scale":[0.44,0.25,0.44]},{"name":"points-tube-1","mesh":16,"translation":[0,3.6828,3.2494],"scale":[0.42,5.346,0.42]},{"name":"tube-cap-1","mesh":15,"translation":[0,6.4152,3.2494],"scale":[0.44,0.25,0.44]},{"name":"points-tube-2","mesh":17,"translation":[5.304,3.6828,3.2494],"scale":[0.42,5.346,0.42]},{"name":"tube-cap-2","mesh":15,"translation":[5.304,6.4152,3.2494],"scale":[0.44,0.25,0.44]},{"name":"loyalty-orbit","mesh":18,"translation":[0,7.425,0],"rotation":[0.681489,0.188608,0.188608,0.681489]},{"name":"lab-sign-back","mesh":7,"translation":[0,2.8512,5.9325],"scale":[7.276,1.1,1]},{"name":"lab-sign","mesh":8,"translation":[0,2.8512,5.9615],"scale":[7.176,1,1]},{"name":"busy-state-queue-bar","mesh":19,"translation":[0,0.65,7.31115],"scale":[11.232,0.12,0.12]},{"name":"queue-car-0","mesh":20,"translation":[-4.68,0.34,8.1235],"scale":[1.35,0.65,0.7]},{"name":"queue-car-1","mesh":21,"translation":[-2.34,0.34,9.0519],"scale":[1.35,0.65,0.7]},{"name":"queue-car-2","mesh":20,"translation":[0,0.34,8.1235],"scale":[1.35,0.65,0.7]},{"name":"foundation","mesh":12,"translation":[0,0.08,0],"scale":[17.8,0.16,13.805]},{"name":"lab","mesh":13,"translation":[0,2.0196,0],"scale":[15.6,4.0392,11.605]},{"name":"points-tube-0","mesh":14,"translation":[-5.304,3.6828,3.2494],"scale":[0.42,5.346,0.42]},{"name":"tube-cap-0","mesh":22,"translation":[-5.304,6.4152,3.2494],"scale":[0.44,0.25,0.44]},{"name":"points-tube-1","mesh":16,"translation":[5.304,3.6828,3.2494],"scale":[0.42,5.346,0.42]},{"name":"tube-cap-1","mesh":22,"translation":[5.304,6.4152,3.2494],"scale":[0.44,0.25,0.44]},{"name":"loyalty-orbit","mesh":23,"translation":[0,7.425,0],"rotation":[0.681489,0.188608,0.188608,0.681489]},{"name":"lab-sign-back","mesh":7,"translation":[0,2.8512,5.9325],"scale":[7.276,1.1,1]},{"name":"lab-sign","mesh":8,"translation":[0,2.8512,5.9615],"scale":[7.176,1,1]},{"name":"busy-state-queue-bar","mesh":19,"translation":[0,0.65,7.31115],"scale":[11.232,0.12,0.12]},{"name":"queue-car-0","mesh":20,"translation":[-4.68,0.34,8.1235],"scale":[1.35,0.65,0.7]}],"meshes":[{"primitives":[{"attributes":{"POSITION":0,"NORMAL":1,"TEXCOORD_0":2},"material":0,"mode":4}]},{"primitives":[{"attributes":{"POSITION":3,"NORMAL":1,"TEXCOORD_0":4},"material":1,"mode":4}]},{"primitives":[{"attributes":{"POSITION":5,"NORMAL":6,"TEXCOORD_0":7},"material":2,"mode":4,"indices":8}]},{"primitives":[{"attributes":{"POSITION":9,"NORMAL":9,"TEXCOORD_0":10},"material":3,"mode":4,"indices":11}]},{"primitives":[{"attributes":{"POSITION":5,"NORMAL":6,"TEXCOORD_0":7},"material":4,"mode":4,"indices":8}]},{"primitives":[{"attributes":{"POSITION":5,"NORMAL":6,"TEXCOORD_0":7},"material":5,"mode":4,"indices":8}]},{"primitives":[{"attributes":{"POSITION":12,"NORMAL":13,"TEXCOORD_0":14},"material":2,"mode":4,"indices":15}]},{"primitives":[{"attributes":{"POSITION":16,"NORMAL":17,"TEXCOORD_0":18},"material":6,"mode":4,"indices":19}]},{"primitives":[{"attributes":{"POSITION":20,"NORMAL":21,"TEXCOORD_0":22},"material":7,"mode":4,"indices":23}]},{"primitives":[{"attributes":{"POSITION":0,"NORMAL":1,"TEXCOORD_0":24},"material":2,"mode":4}]},{"primitives":[{"attributes":{"POSITION":0,"NORMAL":1,"TEXCOORD_0":25},"material":8,"mode":4}]},{"primitives":[{"attributes":{"POSITION":0,"NORMAL":1,"TEXCOORD_0":25},"material":5,"mode":4}]},{"primitives":[{"attributes":{"POSITION":26,"NORMAL":17,"TEXCOORD_0":27},"material":0,"mode":4,"indices":19}]},{"primitives":[{"attributes":{"POSITION":26,"NORMAL":17,"TEXCOORD_0":28},"material":1,"mode":4,"indices":19}]},{"primitives":[{"attributes":{"POSITION":29,"NORMAL":30,"TEXCOORD_0":31},"material":2,"mode":4,"indices":32}]},{"primitives":[{"attributes":{"POSITION":33,"NORMAL":33,"TEXCOORD_0":34},"material":3,"mode":4,"indices":35}]},{"primitives":[{"attributes":{"POSITION":29,"NORMAL":30,"TEXCOORD_0":31},"material":4,"mode":4,"indices":32}]},{"primitives":[{"attributes":{"POSITION":29,"NORMAL":30,"TEXCOORD_0":31},"material":5,"mode":4,"indices":32}]},{"primitives":[{"attributes":{"POSITION":36,"NORMAL":37,"TEXCOORD_0":38},"material":2,"mode":4,"indices":39}]},{"primitives":[{"attributes":{"POSITION":26,"NORMAL":17,"TEXCOORD_0":40},"material":2,"mode":4,"indices":19}]},{"primitives":[{"attributes":{"POSITION":26,"NORMAL":17,"TEXCOORD_0":41},"material":8,"mode":4,"indices":19}]},{"primitives":[{"attributes":{"POSITION":26,"NORMAL":17,"TEXCOORD_0":41},"material":5,"mode":4,"indices":19}]},{"primitives":[{"attributes":{"POSITION":42,"NORMAL":42,"TEXCOORD_0":43},"material":3,"mode":4,"indices":44}]},{"primitives":[{"attributes":{"POSITION":45,"NORMAL":46,"TEXCOORD_0":47},"material":2,"mode":4,"indices":48}]}],"materials":[{"name":"concrete","pbrMetallicRoughness":{"baseColorTexture":{"index":0},"metallicRoughnessTexture":{"index":2},"roughnessFactor":1,"metallicFactor":1},"normalTexture":{"index":1,"scale":0.82},"occlusionTexture":{"index":2,"strength":0.35}},{"name":"paint-white","pbrMetallicRoughness":{"baseColorFactor":[0.7912979403281551,0.7681511472425809,0.6795424696265424,1],"roughnessFactor":0.68,"metallicFactor":0}},{"name":"paint-teal","pbrMetallicRoughness":{"baseColorFactor":[0.040915196900556984,0.20507873637973145,0.1878207722902346,1],"roughnessFactor":0.59,"metallicFactor":0.05}},{"name":"glass-blue","pbrMetallicRoughness":{"baseColorTexture":{"index":3},"metallicRoughnessTexture":{"index":5},"roughnessFactor":1,"metallicFactor":1},"normalTexture":{"index":4,"scale":0.12},"occlusionTexture":{"index":5,"strength":0.35}},{"name":"paint-orange","pbrMetallicRoughness":{"baseColorFactor":[0.6444796819634361,0.1878207722902346,0.040915196900556984,1],"roughnessFactor":0.68,"metallicFactor":0.03}},{"name":"paint-blue","pbrMetallicRoughness":{"baseColorFactor":[0.05126945836711539,0.10946171076915331,0.22696587349938613,1],"roughnessFactor":0.58,"metallicFactor":0.05}},{"name":"metal-dark","pbrMetallicRoughness":{"baseColorTexture":{"index":6},"metallicRoughnessTexture":{"index":8},"roughnessFactor":1,"metallicFactor":1},"normalTexture":{"index":7,"scale":0.35},"occlusionTexture":{"index":8,"strength":0.35}},{"name":"loyalty-lab signage","pbrMetallicRoughness":{"baseColorTexture":{"index":9},"roughnessFactor":1,"metallicFactor":0},"extensions":{"KHR_materials_unlit":{}}},{"name":"paint-red","pbrMetallicRoughness":{"baseColorFactor":[0.46778379610254284,0.08021982030622662,0.05126945836711539,1],"roughnessFactor":0.62,"metallicFactor":0.05}}],"textures":[{"source":0,"sampler":0},{"source":1,"sampler":0},{"source":2,"sampler":0},{"source":3,"sampler":0},{"source":4,"sampler":0},{"source":5,"sampler":0},{"source":6,"sampler":0},{"source":7,"sampler":0},{"source":8,"sampler":0},{"source":9,"sampler":0}],"images":[{"uri":"../textures/concrete-albedo.png"},{"uri":"../textures/concrete-normal.png"},{"uri":"../textures/concrete-orm.png"},{"uri":"../textures/glass-blue-albedo.png"},{"uri":"../textures/glass-blue-normal.png"},{"uri":"../textures/glass-blue-orm.png"},{"uri":"../textures/metal-dark-albedo.png"},{"uri":"../textures/metal-dark-normal.png"},{"uri":"../textures/metal-dark-orm.png"},{"uri":"../signs/loyalty-lab.png"}],"samplers":[{"magFilter":9729,"minFilter":9987,"wrapS":10497,"wrapT":10497}],"buffers":[{"uri":"../shared/geometry.bin","byteLength":16435520}],"bufferViews":[{"buffer":0,"byteOffset":0,"byteLength":3888,"target":34962},{"buffer":0,"byteOffset":3888,"byteLength":3888,"target":34962},{"buffer":0,"byteOffset":8319100,"byteLength":2592,"target":34962},{"buffer":0,"byteOffset":868536,"byteLength":3888,"target":34962},{"buffer":0,"byteOffset":8321692,"byteLength":2592,"target":34962},{"buffer":0,"byteOffset":5526272,"byteLength":912,"target":34962},{"buffer":0,"byteOffset":5527184,"byteLength":912,"target":34962},{"buffer":0,"byteOffset":8222320,"byteLength":608,"target":34962},{"buffer":0,"byteOffset":387284,"byteLength":288,"target":34963},{"buffer":0,"byteOffset":6080864,"byteLength":3276,"target":34962},{"buffer":0,"byteOffset":8195944,"byteLength":2184,"target":34962},{"buffer":0,"byteOffset":6086324,"byteLength":2640,"target":34963},{"buffer":0,"byteOffset":8222928,"byteLength":3132,"target":34962},{"buffer":0,"byteOffset":390704,"byteLength":3132,"target":34962},{"buffer":0,"byteOffset":393836,"byteLength":2088,"target":34962},{"buffer":0,"byteOffset":395924,"byteLength":2688,"target":34963},{"buffer":0,"byteOffset":45664,"byteLength":288,"target":34962},{"buffer":0,"byteOffset":45952,"byteLength":288,"target":34962},{"buffer":0,"byteOffset":46240,"byteLength":192,"target":34962},{"buffer":0,"byteOffset":46432,"byteLength":72,"target":34963},{"buffer":0,"byteOffset":46504,"byteLength":48,"target":34962},{"buffer":0,"byteOffset":46552,"byteLength":48,"target":34962},{"buffer":0,"byteOffset":222916,"byteLength":32,"target":34962},{"buffer":0,"byteOffset":46632,"byteLength":12,"target":34963},{"buffer":0,"byteOffset":2824040,"byteLength":2592,"target":34962},{"buffer":0,"byteOffset":582912,"byteLength":2592,"target":34962},{"buffer":0,"byteOffset":46644,"byteLength":288,"target":34962},{"buffer":0,"byteOffset":8324284,"byteLength":192,"target":34962},{"buffer":0,"byteOffset":8324476,"byteLength":192,"target":34962},{"buffer":0,"byteOffset":1112312,"byteLength":480,"target":34962},{"buffer":0,"byteOffset":1112792,"byteLength":480,"target":34962},{"buffer":0,"byteOffset":8226444,"byteLength":320,"target":34962},{"buffer":0,"byteOffset":48596,"byteLength":144,"target":34963},{"buffer":0,"byteOffset":6096692,"byteLength":1404,"target":34962},{"buffer":0,"byteOffset":8201964,"byteLength":936,"target":34962},{"buffer":0,"byteOffset":6099032,"byteLength":1008,"target":34963},{"buffer":0,"byteOffset":8226764,"byteLength":1428,"target":34962},{"buffer":0,"byteOffset":427996,"byteLength":1428,"target":34962},{"buffer":0,"byteOffset":429424,"byteLength":952,"target":34962},{"buffer":0,"byteOffset":430376,"byteLength":1152,"target":34963},{"buffer":0,"byteOffset":2826632,"byteLength":192,"target":34962},{"buffer":0,"byteOffset":585696,"byteLength":192,"target":34962},{"buffer":0,"byteOffset":6871440,"byteLength":648,"target":34962},{"buffer":0,"byteOffset":8204328,"byteLength":432,"target":34962},{"buffer":0,"byteOffset":6872520,"byteLength":384,"target":34963},{"buffer":0,"byteOffset":8228192,"byteLength":660,"target":34962},{"buffer":0,"byteOffset":437788,"byteLength":660,"target":34962},{"buffer":0,"byteOffset":438448,"byteLength":440,"target":34962},{"buffer":0,"byteOffset":438888,"byteLength":480,"target":34963}],"accessors":[{"bufferView":0,"componentType":5126,"count":324,"type":"VEC3","min":[-0.5,-0.5,-0.5],"max":[0.5,0.5,0.5]},{"bufferView":1,"componentType":5126,"count":324,"type":"VEC3"},{"bufferView":2,"componentType":5126,"count":324,"type":"VEC2"},{"bufferView":3,"componentType":5126,"count":324,"type":"VEC3","min":[-0.5,-0.5,-0.5],"max":[0.5,0.5,0.5]},{"bufferView":4,"componentType":5126,"count":324,"type":"VEC2"},{"bufferView":5,"componentType":5126,"count":76,"type":"VEC3","min":[-1,-0.5,-1],"max":[1,0.5,1]},{"bufferView":6,"componentType":5126,"count":76,"type":"VEC3"},{"bufferView":7,"componentType":5126,"count":76,"type":"VEC2"},{"bufferView":8,"componentType":5123,"count":144,"type":"SCALAR"},{"bufferView":9,"componentType":5126,"count":273,"type":"VEC3","min":[-1,-1,-1],"max":[1,1,1]},{"bufferView":10,"componentType":5126,"count":273,"type":"VEC2"},{"bufferView":11,"componentType":5123,"count":1320,"type":"SCALAR"},{"bufferView":12,"componentType":5126,"count":261,"type":"VEC3","min":[-4.97599983215332,-4.97599983215332,-0.14000000059604645],"max":[4.97599983215332,4.97599983215332,0.14000000059604645]},{"bufferView":13,"componentType":5126,"count":261,"type":"VEC3"},{"bufferView":14,"componentType":5126,"count":261,"type":"VEC2"},{"bufferView":15,"componentType":5123,"count":1344,"type":"SCALAR"},{"bufferView":16,"componentType":5126,"count":24,"type":"VEC3","min":[-0.5,-0.5,-0.02500000037252903],"max":[0.5,0.5,0.02500000037252903]},{"bufferView":17,"componentType":5126,"count":24,"type":"VEC3"},{"bufferView":18,"componentType":5126,"count":24,"type":"VEC2"},{"bufferView":19,"componentType":5123,"count":36,"type":"SCALAR"},{"bufferView":20,"componentType":5126,"count":4,"type":"VEC3","min":[-0.5,-0.5,0],"max":[0.5,0.5,0]},{"bufferView":21,"componentType":5126,"count":4,"type":"VEC3"},{"bufferView":22,"componentType":5126,"count":4,"type":"VEC2"},{"bufferView":23,"componentType":5123,"count":6,"type":"SCALAR"},{"bufferView":24,"componentType":5126,"count":324,"type":"VEC2"},{"bufferView":25,"componentType":5126,"count":324,"type":"VEC2"},{"bufferView":26,"componentType":5126,"count":24,"type":"VEC3","min":[-0.5,-0.5,-0.5],"max":[0.5,0.5,0.5]},{"bufferView":27,"componentType":5126,"count":24,"type":"VEC2"},{"bufferView":28,"componentType":5126,"count":24,"type":"VEC2"},{"bufferView":29,"componentType":5126,"count":40,"type":"VEC3","min":[-0.8660253882408142,-0.5,-1],"max":[0.8660253882408142,0.5,1]},{"bufferView":30,"componentType":5126,"count":40,"type":"VEC3"},{"bufferView":31,"componentType":5126,"count":40,"type":"VEC2"},{"bufferView":32,"componentType":5123,"count":72,"type":"SCALAR"},{"bufferView":33,"componentType":5126,"count":117,"type":"VEC3","min":[-1,-1,-1],"max":[1,1,1]},{"bufferView":34,"componentType":5126,"count":117,"type":"VEC2"},{"bufferView":35,"componentType":5123,"count":504,"type":"SCALAR"},{"bufferView":36,"componentType":5126,"count":119,"type":"VEC3","min":[-4.97599983215332,-4.97599983215332,-0.12124355882406235],"max":[4.97599983215332,4.97599983215332,0.12124355882406235]},{"bufferView":37,"componentType":5126,"count":119,"type":"VEC3"},{"bufferView":38,"componentType":5126,"count":119,"type":"VEC2"},{"bufferView":39,"componentType":5123,"count":576,"type":"SCALAR"},{"bufferView":40,"componentType":5126,"count":24,"type":"VEC2"},{"bufferView":41,"componentType":5126,"count":24,"type":"VEC2"},{"bufferView":42,"componentType":5126,"count":54,"type":"VEC3","min":[-0.9510565400123596,-1,-0.9510565400123596],"max":[0.9510565400123596,1,0.9510565400123596]},{"bufferView":43,"componentType":5126,"count":54,"type":"VEC2"},{"bufferView":44,"componentType":5123,"count":192,"type":"SCALAR"},{"bufferView":45,"componentType":5126,"count":55,"type":"VEC3","min":[-4.97599983215332,-4.732457160949707,-0.14000000059604645],"max":[4.97599983215332,4.732457160949707,0.14000000059604645]},{"bufferView":46,"componentType":5126,"count":55,"type":"VEC3"},{"bufferView":47,"componentType":5126,"count":55,"type":"VEC2"},{"bufferView":48,"componentType":5123,"count":240,"type":"SCALAR"}],"extensionsUsed":["KHR_materials_unlit"],"extras":{"id":"vlt-loyalty-lab-38","family":"loyalty-lab","variant":37,"plan":"D3-2","units":"metres","up":"+Y","front":"+Z","lodScenes":[0,1,2]}}