{"asset":{"version":"2.0","generator":"SLOPMERICA Department of Unnecessary Development 1.0"},"scene":0,"scenes":[{"name":"LOD 0","nodes":[0,1,2,3,4,5,6,7,8,9],"extras":{"level":0}},{"name":"LOD 1","nodes":[10,11,12,13,14,15,16,17,18,19],"extras":{"level":1}},{"name":"LOD 2","nodes":[20,21,22,23,24,25,26,27,28,29],"extras":{"level":2}}],"nodes":[{"name":"foundation","mesh":0,"translation":[0,0.08,0],"scale":[19.8,0.16,13.805]},{"name":"store-a","mesh":1,"translation":[-5.08,2.35,0],"scale":[8.096,4.7,11.605]},{"name":"store-b","mesh":2,"translation":[5.08,2.303,0],"scale":[8.096,4.606,11.605]},{"name":"sign-a-back","mesh":3,"translation":[-5.08,3.384,5.9225],"scale":[6.084,1.15,1]},{"name":"sign-a","mesh":4,"translation":[-5.08,3.384,5.9515],"scale":[5.984,1.05,1]},{"name":"sign-b-back","mesh":3,"translation":[5.08,3.149,5.9225],"scale":[6.084,1.15,1]},{"name":"sign-b","mesh":4,"translation":[5.08,3.149,5.9515],"scale":[5.984,1.05,1]},{"name":"giant-mattress","mesh":5,"translation":[0,5.15,-1.3926],"rotation":[0.046254,0.10711,0.063936,0.991111],"scale":[7.392,0.7,3.2494]},{"name":"open-state-bollard","mesh":6,"translation":[7.568,0.425,6.4988],"scale":[0.22,0.85,0.22]},{"name":"open-state-bollard","mesh":6,"translation":[7.568,0.425,6.4988],"scale":[0.22,0.85,0.22]},{"name":"foundation","mesh":7,"translation":[0,0.08,0],"scale":[19.8,0.16,13.805]},{"name":"store-a","mesh":8,"translation":[-5.08,2.35,0],"scale":[8.096,4.7,11.605]},{"name":"store-b","mesh":9,"translation":[5.08,2.303,0],"scale":[8.096,4.606,11.605]},{"name":"sign-a-back","mesh":3,"translation":[-5.08,3.384,5.9225],"scale":[6.084,1.15,1]},{"name":"sign-a","mesh":4,"translation":[-5.08,3.384,5.9515],"scale":[5.984,1.05,1]},{"name":"sign-b-back","mesh":3,"translation":[5.08,3.149,5.9225],"scale":[6.084,1.15,1]},{"name":"sign-b","mesh":4,"translation":[5.08,3.149,5.9515],"scale":[5.984,1.05,1]},{"name":"giant-mattress","mesh":10,"translation":[0,5.15,-1.3926],"rotation":[0.046254,0.10711,0.063936,0.991111],"scale":[7.392,0.7,3.2494]},{"name":"open-state-bollard","mesh":11,"translation":[7.568,0.425,6.4988],"scale":[0.22,0.85,0.22]},{"name":"open-state-bollard","mesh":11,"translation":[7.568,0.425,6.4988],"scale":[0.22,0.85,0.22]},{"name":"foundation","mesh":7,"translation":[0,0.08,0],"scale":[19.8,0.16,13.805]},{"name":"store-a","mesh":8,"translation":[-5.08,2.35,0],"scale":[8.096,4.7,11.605]},{"name":"store-b","mesh":9,"translation":[5.08,2.303,0],"scale":[8.096,4.606,11.605]},{"name":"sign-a-back","mesh":3,"translation":[-5.08,3.384,5.9225],"scale":[6.084,1.15,1]},{"name":"sign-a","mesh":4,"translation":[-5.08,3.384,5.9515],"scale":[5.984,1.05,1]},{"name":"sign-b-back","mesh":3,"translation":[5.08,3.149,5.9225],"scale":[6.084,1.15,1]},{"name":"sign-b","mesh":4,"translation":[5.08,3.149,5.9515],"scale":[5.984,1.05,1]},{"name":"giant-mattress","mesh":10,"translation":[0,5.15,-1.3926],"rotation":[0.046254,0.10711,0.063936,0.991111],"scale":[7.392,0.7,3.2494]},{"name":"open-state-bollard","mesh":11,"translation":[7.568,0.425,6.4988],"scale":[0.22,0.85,0.22]},{"name":"open-state-bollard","mesh":11,"translation":[7.568,0.425,6.4988],"scale":[0.22,0.85,0.22]}],"meshes":[{"primitives":[{"attributes":{"POSITION":0,"NORMAL":1,"TEXCOORD_0":2},"material":0,"mode":4}]},{"primitives":[{"attributes":{"POSITION":3,"NORMAL":1,"TEXCOORD_0":4},"material":1,"mode":4}]},{"primitives":[{"attributes":{"POSITION":3,"NORMAL":1,"TEXCOORD_0":5},"material":2,"mode":4}]},{"primitives":[{"attributes":{"POSITION":6,"NORMAL":7,"TEXCOORD_0":8},"material":3,"mode":4,"indices":9}]},{"primitives":[{"attributes":{"POSITION":10,"NORMAL":11,"TEXCOORD_0":12},"material":4,"mode":4,"indices":13}]},{"primitives":[{"attributes":{"POSITION":0,"NORMAL":1,"TEXCOORD_0":14},"material":1,"mode":4}]},{"primitives":[{"attributes":{"POSITION":0,"NORMAL":1,"TEXCOORD_0":15},"material":2,"mode":4}]},{"primitives":[{"attributes":{"POSITION":16,"NORMAL":7,"TEXCOORD_0":17},"material":0,"mode":4,"indices":9}]},{"primitives":[{"attributes":{"POSITION":16,"NORMAL":7,"TEXCOORD_0":18},"material":1,"mode":4,"indices":9}]},{"primitives":[{"attributes":{"POSITION":16,"NORMAL":7,"TEXCOORD_0":19},"material":2,"mode":4,"indices":9}]},{"primitives":[{"attributes":{"POSITION":16,"NORMAL":7,"TEXCOORD_0":20},"material":1,"mode":4,"indices":9}]},{"primitives":[{"attributes":{"POSITION":16,"NORMAL":7,"TEXCOORD_0":21},"material":2,"mode":4,"indices":9}]}],"materials":[{"name":"concrete","pbrMetallicRoughness":{"baseColorTexture":{"index":0},"metallicRoughnessTexture":{"index":2},"roughnessFactor":1,"metallicFactor":1},"normalTexture":{"index":1,"scale":0.82},"occlusionTexture":{"index":2,"strength":0.35}},{"name":"paint-white","pbrMetallicRoughness":{"baseColorFactor":[0.7912979403281551,0.7681511472425809,0.6795424696265424,1],"roughnessFactor":0.68,"metallicFactor":0}},{"name":"paint-blue","pbrMetallicRoughness":{"baseColorFactor":[0.05126945836711539,0.10946171076915331,0.22696587349938613,1],"roughnessFactor":0.58,"metallicFactor":0.05}},{"name":"metal-dark","pbrMetallicRoughness":{"baseColorTexture":{"index":3},"metallicRoughnessTexture":{"index":5},"roughnessFactor":1,"metallicFactor":1},"normalTexture":{"index":4,"scale":0.35},"occlusionTexture":{"index":5,"strength":0.35}},{"name":"mattress-mitosis signage","pbrMetallicRoughness":{"baseColorTexture":{"index":6},"roughnessFactor":1,"metallicFactor":0},"extensions":{"KHR_materials_unlit":{}}}],"textures":[{"source":0,"sampler":0},{"source":1,"sampler":0},{"source":2,"sampler":0},{"source":3,"sampler":0},{"source":4,"sampler":0},{"source":5,"sampler":0},{"source":6,"sampler":0}],"images":[{"uri":"../textures/concrete-albedo.png"},{"uri":"../textures/concrete-normal.png"},{"uri":"../textures/concrete-orm.png"},{"uri":"../textures/metal-dark-albedo.png"},{"uri":"../textures/metal-dark-normal.png"},{"uri":"../textures/metal-dark-orm.png"},{"uri":"../signs/mattress-mitosis.png"}],"samplers":[{"magFilter":9729,"minFilter":9987,"wrapS":10497,"wrapT":10497}],"buffers":[{"uri":"../shared/geometry.bin","byteLength":16435520}],"bufferViews":[{"buffer":0,"byteOffset":0,"byteLength":3888,"target":34962},{"buffer":0,"byteOffset":3888,"byteLength":3888,"target":34962},{"buffer":0,"byteOffset":8558860,"byteLength":2592,"target":34962},{"buffer":0,"byteOffset":868536,"byteLength":3888,"target":34962},{"buffer":0,"byteOffset":8561452,"byteLength":2592,"target":34962},{"buffer":0,"byteOffset":8564044,"byteLength":2592,"target":34962},{"buffer":0,"byteOffset":45664,"byteLength":288,"target":34962},{"buffer":0,"byteOffset":45952,"byteLength":288,"target":34962},{"buffer":0,"byteOffset":46240,"byteLength":192,"target":34962},{"buffer":0,"byteOffset":46432,"byteLength":72,"target":34963},{"buffer":0,"byteOffset":46504,"byteLength":48,"target":34962},{"buffer":0,"byteOffset":46552,"byteLength":48,"target":34962},{"buffer":0,"byteOffset":182532,"byteLength":32,"target":34962},{"buffer":0,"byteOffset":46632,"byteLength":12,"target":34963},{"buffer":0,"byteOffset":8566636,"byteLength":2592,"target":34962},{"buffer":0,"byteOffset":422312,"byteLength":2592,"target":34962},{"buffer":0,"byteOffset":46644,"byteLength":288,"target":34962},{"buffer":0,"byteOffset":8569228,"byteLength":192,"target":34962},{"buffer":0,"byteOffset":8569420,"byteLength":192,"target":34962},{"buffer":0,"byteOffset":8569612,"byteLength":192,"target":34962},{"buffer":0,"byteOffset":8569804,"byteLength":192,"target":34962},{"buffer":0,"byteOffset":436936,"byteLength":192,"target":34962}],"accessors":[{"bufferView":0,"componentType":5126,"count":324,"type":"VEC3","min":[-0.5,-0.5,-0.5],"max":[0.5,0.5,0.5]},{"bufferView":1,"componentType":5126,"count":324,"type":"VEC3"},{"bufferView":2,"componentType":5126,"count":324,"type":"VEC2"},{"bufferView":3,"componentType":5126,"count":324,"type":"VEC3","min":[-0.5,-0.5,-0.5],"max":[0.5,0.5,0.5]},{"bufferView":4,"componentType":5126,"count":324,"type":"VEC2"},{"bufferView":5,"componentType":5126,"count":324,"type":"VEC2"},{"bufferView":6,"componentType":5126,"count":24,"type":"VEC3","min":[-0.5,-0.5,-0.02500000037252903],"max":[0.5,0.5,0.02500000037252903]},{"bufferView":7,"componentType":5126,"count":24,"type":"VEC3"},{"bufferView":8,"componentType":5126,"count":24,"type":"VEC2"},{"bufferView":9,"componentType":5123,"count":36,"type":"SCALAR"},{"bufferView":10,"componentType":5126,"count":4,"type":"VEC3","min":[-0.5,-0.5,0],"max":[0.5,0.5,0]},{"bufferView":11,"componentType":5126,"count":4,"type":"VEC3"},{"bufferView":12,"componentType":5126,"count":4,"type":"VEC2"},{"bufferView":13,"componentType":5123,"count":6,"type":"SCALAR"},{"bufferView":14,"componentType":5126,"count":324,"type":"VEC2"},{"bufferView":15,"componentType":5126,"count":324,"type":"VEC2"},{"bufferView":16,"componentType":5126,"count":24,"type":"VEC3","min":[-0.5,-0.5,-0.5],"max":[0.5,0.5,0.5]},{"bufferView":17,"componentType":5126,"count":24,"type":"VEC2"},{"bufferView":18,"componentType":5126,"count":24,"type":"VEC2"},{"bufferView":19,"componentType":5126,"count":24,"type":"VEC2"},{"bufferView":20,"componentType":5126,"count":24,"type":"VEC2"},{"bufferView":21,"componentType":5126,"count":24,"type":"VEC2"}],"extensionsUsed":["KHR_materials_unlit"],"extras":{"id":"vlt-mattress-mitosis-16","family":"mattress-mitosis","variant":15,"plan":"D1-1","units":"metres","up":"+Y","front":"+Z","lodScenes":[0,1,2]}}