{"asset":{"version":"2.0","generator":"SLOPMERICA Department of Unnecessary Development 1.0"},"scene":0,"scenes":[{"name":"LOD 0","nodes":[0,1,2,3,4,5,6,7,8,9,10,11,12,13,14,15,16,17,18,19,20,21,22,23,24,25,26,27,28,29],"extras":{"level":0}},{"name":"LOD 1","nodes":[30,31,32,33,34,35,36,37,38,39,40,41,42,43,44,45,46,47,48,49,50,51,52,53,54,55,56,57,58,59],"extras":{"level":1}},{"name":"LOD 2","nodes":[60,61,62,63,64,65,66,67,68,69,70,71],"extras":{"level":2}}],"nodes":[{"name":"site-pad","mesh":0,"translation":[0,0.06,0],"scale":[19.344,0.12,8.32]},{"name":"variant-apron","mesh":1,"translation":[-1.209,0.13,4.22],"scale":[5.487,0.08,0.98]},{"name":"bollard-0","mesh":2,"translation":[-7.068,0.43,4.34],"scale":[0.08,0.66,0.08]},{"name":"bollard-1","mesh":2,"translation":[-2.356,0.43,4.34],"scale":[0.08,0.66,0.08]},{"name":"bollard-2","mesh":2,"translation":[2.356,0.43,4.34],"scale":[0.08,0.66,0.08]},{"name":"bollard-3","mesh":2,"translation":[7.068,0.43,4.34],"scale":[0.08,0.66,0.08]},{"name":"layout-cabinet","mesh":3,"translation":[9.5,0.585,-0.6],"scale":[0.57,0.93,0.32]},{"name":"deferred-maintenance-skip","mesh":4,"translation":[-6.324,0.5,-3.52],"scale":[1.51,0.75,0.65]},{"name":"skip-rubble","mesh":5,"translation":[-6.324,0.98,-3.52],"rotation":[0,0.099833,0,0.995004],"scale":[0.72,0.2,0.5]},{"name":"toll-canopy","mesh":6,"translation":[0,4.2,0],"scale":[19.6,0.45,4.55]},{"name":"toll-island-0","mesh":7,"translation":[-7.75,0.28,0],"scale":[0.55,0.32,8]},{"name":"toll-booth-0","mesh":8,"translation":[-7.75,1.5,0.55],"scale":[1.05,2.25,1.45]},{"name":"barrier-0","mesh":9,"translation":[-6.6,1,-1.5],"rotation":[0,0,0.079915,0.996802],"scale":[2.2,0.08,0.12]},{"name":"toll-island-1","mesh":7,"translation":[-4.65,0.28,0],"scale":[0.55,0.32,8]},{"name":"toll-booth-1","mesh":10,"translation":[-4.65,1.5,0.55],"scale":[1.05,2.25,1.45]},{"name":"barrier-1","mesh":9,"translation":[-3.5,1,-1.5],"rotation":[0,0,-0.079915,0.996802],"scale":[2.2,0.08,0.12]},{"name":"toll-island-2","mesh":7,"translation":[-1.55,0.28,0],"scale":[0.55,0.32,8]},{"name":"toll-booth-2","mesh":8,"translation":[-1.55,1.5,0.55],"scale":[1.05,2.25,1.45]},{"name":"barrier-2","mesh":9,"translation":[-0.4,1,-1.5],"rotation":[0,0,0.079915,0.996802],"scale":[2.2,0.08,0.12]},{"name":"toll-island-3","mesh":7,"translation":[1.55,0.28,0],"scale":[0.55,0.32,8]},{"name":"toll-booth-3","mesh":8,"translation":[1.55,1.5,0.55],"scale":[1.05,2.25,1.45]},{"name":"barrier-3","mesh":9,"translation":[2.7,1,-1.5],"rotation":[0,0,-0.079915,0.996802],"scale":[2.2,0.08,0.12]},{"name":"toll-island-4","mesh":7,"translation":[4.65,0.28,0],"scale":[0.55,0.32,8]},{"name":"toll-booth-4","mesh":8,"translation":[4.65,1.5,0.55],"scale":[1.05,2.25,1.45]},{"name":"barrier-4","mesh":9,"translation":[5.8,1,-1.5],"rotation":[0,0,0.079915,0.996802],"scale":[2.2,0.08,0.12]},{"name":"toll-island-5","mesh":7,"translation":[7.75,0.28,0],"scale":[0.55,0.32,8]},{"name":"toll-booth-5","mesh":8,"translation":[7.75,1.5,0.55],"scale":[1.05,2.25,1.45]},{"name":"barrier-5","mesh":9,"translation":[8.9,1,-1.5],"rotation":[0,0,-0.079915,0.996802],"scale":[2.2,0.08,0.12]},{"name":"toll-sign-back","mesh":11,"translation":[0,4.34,0.4],"scale":[7.1,1.05,1]},{"name":"toll-sign","mesh":12,"translation":[0,4.34,0.429],"scale":[7,0.95,1]},{"name":"site-pad","mesh":13,"translation":[0,0.06,0],"scale":[19.344,0.12,8.32]},{"name":"variant-apron","mesh":14,"translation":[-1.209,0.13,4.22],"scale":[5.487,0.08,0.98]},{"name":"bollard-0","mesh":15,"translation":[-7.068,0.43,4.34],"scale":[0.08,0.66,0.08]},{"name":"bollard-1","mesh":15,"translation":[-2.356,0.43,4.34],"scale":[0.08,0.66,0.08]},{"name":"bollard-2","mesh":15,"translation":[2.356,0.43,4.34],"scale":[0.08,0.66,0.08]},{"name":"bollard-3","mesh":15,"translation":[7.068,0.43,4.34],"scale":[0.08,0.66,0.08]},{"name":"layout-cabinet","mesh":16,"translation":[9.5,0.585,-0.6],"scale":[0.57,0.93,0.32]},{"name":"deferred-maintenance-skip","mesh":17,"translation":[-6.324,0.5,-3.52],"scale":[1.51,0.75,0.65]},{"name":"skip-rubble","mesh":18,"translation":[-6.324,0.98,-3.52],"rotation":[0,0.099833,0,0.995004],"scale":[0.72,0.2,0.5]},{"name":"toll-canopy","mesh":19,"translation":[0,4.2,0],"scale":[19.6,0.45,4.55]},{"name":"toll-island-0","mesh":20,"translation":[-7.75,0.28,0],"scale":[0.55,0.32,8]},{"name":"toll-booth-0","mesh":21,"translation":[-7.75,1.5,0.55],"scale":[1.05,2.25,1.45]},{"name":"barrier-0","mesh":22,"translation":[-6.6,1,-1.5],"rotation":[0,0,0.079915,0.996802],"scale":[2.2,0.08,0.12]},{"name":"toll-island-1","mesh":20,"translation":[-4.65,0.28,0],"scale":[0.55,0.32,8]},{"name":"toll-booth-1","mesh":23,"translation":[-4.65,1.5,0.55],"scale":[1.05,2.25,1.45]},{"name":"barrier-1","mesh":22,"translation":[-3.5,1,-1.5],"rotation":[0,0,-0.079915,0.996802],"scale":[2.2,0.08,0.12]},{"name":"toll-island-2","mesh":20,"translation":[-1.55,0.28,0],"scale":[0.55,0.32,8]},{"name":"toll-booth-2","mesh":21,"translation":[-1.55,1.5,0.55],"scale":[1.05,2.25,1.45]},{"name":"barrier-2","mesh":22,"translation":[-0.4,1,-1.5],"rotation":[0,0,0.079915,0.996802],"scale":[2.2,0.08,0.12]},{"name":"toll-island-3","mesh":20,"translation":[1.55,0.28,0],"scale":[0.55,0.32,8]},{"name":"toll-booth-3","mesh":21,"translation":[1.55,1.5,0.55],"scale":[1.05,2.25,1.45]},{"name":"barrier-3","mesh":22,"translation":[2.7,1,-1.5],"rotation":[0,0,-0.079915,0.996802],"scale":[2.2,0.08,0.12]},{"name":"toll-island-4","mesh":20,"translation":[4.65,0.28,0],"scale":[0.55,0.32,8]},{"name":"toll-booth-4","mesh":21,"translation":[4.65,1.5,0.55],"scale":[1.05,2.25,1.45]},{"name":"barrier-4","mesh":22,"translation":[5.8,1,-1.5],"rotation":[0,0,0.079915,0.996802],"scale":[2.2,0.08,0.12]},{"name":"toll-island-5","mesh":20,"translation":[7.75,0.28,0],"scale":[0.55,0.32,8]},{"name":"toll-booth-5","mesh":21,"translation":[7.75,1.5,0.55],"scale":[1.05,2.25,1.45]},{"name":"barrier-5","mesh":22,"translation":[8.9,1,-1.5],"rotation":[0,0,-0.079915,0.996802],"scale":[2.2,0.08,0.12]},{"name":"toll-sign-back","mesh":11,"translation":[0,4.34,0.4],"scale":[7.1,1.05,1]},{"name":"toll-sign","mesh":12,"translation":[0,4.34,0.429],"scale":[7,0.95,1]},{"name":"site-pad","mesh":24,"translation":[0,0.06,0],"scale":[6.448,0.12,8.32]},{"name":"variant-apron","mesh":25,"translation":[-0.403,0.13,4.22],"scale":[1.829,0.08,0.98]},{"name":"bollard-0","mesh":15,"translation":[-2.356,0.43,4.34],"scale":[0.08,0.66,0.08]},{"name":"layout-cabinet","mesh":16,"translation":[3.3,0.585,-0.6],"scale":[0.57,0.93,0.32]},{"name":"deferred-maintenance-skip","mesh":17,"translation":[-2.108,0.5,-3.52],"scale":[1.51,0.75,0.65]},{"name":"toll-canopy","mesh":26,"translation":[0,4.2,0],"scale":[7.2,0.45,4.55]},{"name":"toll-island-0","mesh":20,"translation":[-1.55,0.28,0],"scale":[0.55,0.32,8]},{"name":"toll-booth-0","mesh":21,"translation":[-1.55,1.5,0.55],"scale":[1.05,2.25,1.45]},{"name":"toll-island-1","mesh":20,"translation":[1.55,0.28,0],"scale":[0.55,0.32,8]},{"name":"toll-booth-1","mesh":23,"translation":[1.55,1.5,0.55],"scale":[1.05,2.25,1.45]},{"name":"toll-sign-back","mesh":11,"translation":[0,4.34,0.4],"scale":[3.2,1.05,1]},{"name":"toll-sign","mesh":12,"translation":[0,4.34,0.429],"scale":[3.1,0.95,1]}],"meshes":[{"primitives":[{"attributes":{"POSITION":0,"NORMAL":1,"TEXCOORD_0":2},"material":0,"mode":4}]},{"primitives":[{"attributes":{"POSITION":0,"NORMAL":1,"TEXCOORD_0":3},"material":0,"mode":4}]},{"primitives":[{"attributes":{"POSITION":4,"NORMAL":5,"TEXCOORD_0":6},"material":1,"mode":4,"indices":7}]},{"primitives":[{"attributes":{"POSITION":0,"NORMAL":1,"TEXCOORD_0":8},"material":2,"mode":4}]},{"primitives":[{"attributes":{"POSITION":0,"NORMAL":1,"TEXCOORD_0":9},"material":1,"mode":4}]},{"primitives":[{"attributes":{"POSITION":0,"NORMAL":1,"TEXCOORD_0":10},"material":3,"mode":4}]},{"primitives":[{"attributes":{"POSITION":0,"NORMAL":1,"TEXCOORD_0":11},"material":4,"mode":4}]},{"primitives":[{"attributes":{"POSITION":0,"NORMAL":1,"TEXCOORD_0":12},"material":3,"mode":4}]},{"primitives":[{"attributes":{"POSITION":13,"NORMAL":1,"TEXCOORD_0":14},"material":5,"mode":4}]},{"primitives":[{"attributes":{"POSITION":0,"NORMAL":1,"TEXCOORD_0":15},"material":6,"mode":4}]},{"primitives":[{"attributes":{"POSITION":13,"NORMAL":1,"TEXCOORD_0":14},"material":7,"mode":4}]},{"primitives":[{"attributes":{"POSITION":16,"NORMAL":17,"TEXCOORD_0":18},"material":8,"mode":4,"indices":19}]},{"primitives":[{"attributes":{"POSITION":20,"NORMAL":21,"TEXCOORD_0":22},"material":9,"mode":4,"indices":23}]},{"primitives":[{"attributes":{"POSITION":24,"NORMAL":17,"TEXCOORD_0":25},"material":0,"mode":4,"indices":19}]},{"primitives":[{"attributes":{"POSITION":24,"NORMAL":17,"TEXCOORD_0":26},"material":0,"mode":4,"indices":19}]},{"primitives":[{"attributes":{"POSITION":27,"NORMAL":28,"TEXCOORD_0":29},"material":1,"mode":4,"indices":30}]},{"primitives":[{"attributes":{"POSITION":24,"NORMAL":17,"TEXCOORD_0":31},"material":2,"mode":4,"indices":19}]},{"primitives":[{"attributes":{"POSITION":24,"NORMAL":17,"TEXCOORD_0":32},"material":1,"mode":4,"indices":19}]},{"primitives":[{"attributes":{"POSITION":24,"NORMAL":17,"TEXCOORD_0":33},"material":3,"mode":4,"indices":19}]},{"primitives":[{"attributes":{"POSITION":24,"NORMAL":17,"TEXCOORD_0":34},"material":4,"mode":4,"indices":19}]},{"primitives":[{"attributes":{"POSITION":24,"NORMAL":17,"TEXCOORD_0":35},"material":3,"mode":4,"indices":19}]},{"primitives":[{"attributes":{"POSITION":24,"NORMAL":17,"TEXCOORD_0":36},"material":5,"mode":4,"indices":19}]},{"primitives":[{"attributes":{"POSITION":24,"NORMAL":17,"TEXCOORD_0":37},"material":6,"mode":4,"indices":19}]},{"primitives":[{"attributes":{"POSITION":24,"NORMAL":17,"TEXCOORD_0":36},"material":7,"mode":4,"indices":19}]},{"primitives":[{"attributes":{"POSITION":24,"NORMAL":17,"TEXCOORD_0":38},"material":0,"mode":4,"indices":19}]},{"primitives":[{"attributes":{"POSITION":24,"NORMAL":17,"TEXCOORD_0":39},"material":0,"mode":4,"indices":19}]},{"primitives":[{"attributes":{"POSITION":24,"NORMAL":17,"TEXCOORD_0":40},"material":4,"mode":4,"indices":19}]}],"materials":[{"name":"asphalt","pbrMetallicRoughness":{"baseColorTexture":{"index":0},"metallicRoughnessTexture":{"index":2},"roughnessFactor":1,"metallicFactor":1},"normalTexture":{"index":1,"scale":0.62},"occlusionTexture":{"index":2,"strength":0.35}},{"name":"paint-orange","pbrMetallicRoughness":{"baseColorFactor":[0.6444796819634361,0.1878207722902346,0.040915196900556984,1],"roughnessFactor":0.68,"metallicFactor":0.03}},{"name":"metal-galvanized","pbrMetallicRoughness":{"baseColorTexture":{"index":3},"metallicRoughnessTexture":{"index":5},"roughnessFactor":1,"metallicFactor":1},"normalTexture":{"index":4,"scale":0.15},"occlusionTexture":{"index":5,"strength":0.35}},{"name":"concrete","pbrMetallicRoughness":{"baseColorTexture":{"index":6},"metallicRoughnessTexture":{"index":8},"roughnessFactor":1,"metallicFactor":1},"normalTexture":{"index":7,"scale":0.82},"occlusionTexture":{"index":8,"strength":0.35}},{"name":"roof-metal","pbrMetallicRoughness":{"baseColorTexture":{"index":9},"metallicRoughnessTexture":{"index":11},"roughnessFactor":1,"metallicFactor":1},"normalTexture":{"index":10,"scale":0.68},"occlusionTexture":{"index":11,"strength":0.35}},{"name":"paint-blue","pbrMetallicRoughness":{"baseColorFactor":[0.05126945836711539,0.10946171076915331,0.22696587349938613,1],"roughnessFactor":0.58,"metallicFactor":0.05}},{"name":"paint-red","pbrMetallicRoughness":{"baseColorFactor":[0.46778379610254284,0.08021982030622662,0.05126945836711539,1],"roughnessFactor":0.62,"metallicFactor":0.05}},{"name":"paint-yellow","pbrMetallicRoughness":{"baseColorFactor":[0.76052450467022,0.4793201830913402,0.07818742179702069,1],"roughnessFactor":0.66,"metallicFactor":0.03}},{"name":"metal-dark","pbrMetallicRoughness":{"baseColorTexture":{"index":12},"metallicRoughnessTexture":{"index":14},"roughnessFactor":1,"metallicFactor":1},"normalTexture":{"index":13,"scale":0.35},"occlusionTexture":{"index":14,"strength":0.35}},{"name":"tollbooth-plaza signage","pbrMetallicRoughness":{"baseColorTexture":{"index":15},"roughnessFactor":1,"metallicFactor":0},"extensions":{"KHR_materials_unlit":{}}}],"textures":[{"source":0,"sampler":0},{"source":1,"sampler":0},{"source":2,"sampler":0},{"source":3,"sampler":0},{"source":4,"sampler":0},{"source":5,"sampler":0},{"source":6,"sampler":0},{"source":7,"sampler":0},{"source":8,"sampler":0},{"source":9,"sampler":0},{"source":10,"sampler":0},{"source":11,"sampler":0},{"source":12,"sampler":0},{"source":13,"sampler":0},{"source":14,"sampler":0},{"source":15,"sampler":0}],"images":[{"uri":"../textures/asphalt-albedo.png"},{"uri":"../textures/asphalt-normal.png"},{"uri":"../textures/asphalt-orm.png"},{"uri":"../textures/metal-galvanized-albedo.png"},{"uri":"../textures/metal-galvanized-normal.png"},{"uri":"../textures/metal-galvanized-orm.png"},{"uri":"../textures/concrete-albedo.png"},{"uri":"../textures/concrete-normal.png"},{"uri":"../textures/concrete-orm.png"},{"uri":"../textures/roof-metal-albedo.png"},{"uri":"../textures/roof-metal-normal.png"},{"uri":"../textures/roof-metal-orm.png"},{"uri":"../textures/metal-dark-albedo.png"},{"uri":"../textures/metal-dark-normal.png"},{"uri":"../textures/metal-dark-orm.png"},{"uri":"../signs/tollbooth-plaza.png"}],"samplers":[{"magFilter":9729,"minFilter":9987,"wrapS":10497,"wrapT":10497}],"buffers":[{"uri":"../shared/geometry.bin","byteLength":16435520}],"bufferViews":[{"buffer":0,"byteOffset":0,"byteLength":3888,"target":34962},{"buffer":0,"byteOffset":3888,"byteLength":3888,"target":34962},{"buffer":0,"byteOffset":14458564,"byteLength":2592,"target":34962},{"buffer":0,"byteOffset":14461156,"byteLength":2592,"target":34962},{"buffer":0,"byteOffset":12960,"byteLength":1200,"target":34962},{"buffer":0,"byteOffset":14160,"byteLength":1200,"target":34962},{"buffer":0,"byteOffset":120900,"byteLength":800,"target":34962},{"buffer":0,"byteOffset":16160,"byteLength":384,"target":34963},{"buffer":0,"byteOffset":138820,"byteLength":2592,"target":34962},{"buffer":0,"byteOffset":216900,"byteLength":2592,"target":34962},{"buffer":0,"byteOffset":208260,"byteLength":2592,"target":34962},{"buffer":0,"byteOffset":14463748,"byteLength":2592,"target":34962},{"buffer":0,"byteOffset":14437540,"byteLength":2592,"target":34962},{"buffer":0,"byteOffset":599616,"byteLength":3888,"target":34962},{"buffer":0,"byteOffset":14388676,"byteLength":2592,"target":34962},{"buffer":0,"byteOffset":14391268,"byteLength":2592,"target":34962},{"buffer":0,"byteOffset":45664,"byteLength":288,"target":34962},{"buffer":0,"byteOffset":45952,"byteLength":288,"target":34962},{"buffer":0,"byteOffset":46240,"byteLength":192,"target":34962},{"buffer":0,"byteOffset":46432,"byteLength":72,"target":34963},{"buffer":0,"byteOffset":46504,"byteLength":48,"target":34962},{"buffer":0,"byteOffset":46552,"byteLength":48,"target":34962},{"buffer":0,"byteOffset":222628,"byteLength":32,"target":34962},{"buffer":0,"byteOffset":46632,"byteLength":12,"target":34963},{"buffer":0,"byteOffset":46644,"byteLength":288,"target":34962},{"buffer":0,"byteOffset":14466340,"byteLength":192,"target":34962},{"buffer":0,"byteOffset":14466532,"byteLength":192,"target":34962},{"buffer":0,"byteOffset":47316,"byteLength":480,"target":34962},{"buffer":0,"byteOffset":47796,"byteLength":480,"target":34962},{"buffer":0,"byteOffset":124516,"byteLength":320,"target":34962},{"buffer":0,"byteOffset":48596,"byteLength":144,"target":34963},{"buffer":0,"byteOffset":141636,"byteLength":192,"target":34962},{"buffer":0,"byteOffset":219524,"byteLength":192,"target":34962},{"buffer":0,"byteOffset":211076,"byteLength":192,"target":34962},{"buffer":0,"byteOffset":14466724,"byteLength":192,"target":34962},{"buffer":0,"byteOffset":14440708,"byteLength":192,"target":34962},{"buffer":0,"byteOffset":14394628,"byteLength":192,"target":34962},{"buffer":0,"byteOffset":14394820,"byteLength":192,"target":34962},{"buffer":0,"byteOffset":14440900,"byteLength":192,"target":34962},{"buffer":0,"byteOffset":14466916,"byteLength":192,"target":34962},{"buffer":0,"byteOffset":14441284,"byteLength":192,"target":34962}],"accessors":[{"bufferView":0,"componentType":5126,"count":324,"type":"VEC3","min":[-0.5,-0.5,-0.5],"max":[0.5,0.5,0.5]},{"bufferView":1,"componentType":5126,"count":324,"type":"VEC3"},{"bufferView":2,"componentType":5126,"count":324,"type":"VEC2"},{"bufferView":3,"componentType":5126,"count":324,"type":"VEC2"},{"bufferView":4,"componentType":5126,"count":100,"type":"VEC3","min":[-1,-0.5,-1],"max":[1,0.5,1]},{"bufferView":5,"componentType":5126,"count":100,"type":"VEC3"},{"bufferView":6,"componentType":5126,"count":100,"type":"VEC2"},{"bufferView":7,"componentType":5123,"count":192,"type":"SCALAR"},{"bufferView":8,"componentType":5126,"count":324,"type":"VEC2"},{"bufferView":9,"componentType":5126,"count":324,"type":"VEC2"},{"bufferView":10,"componentType":5126,"count":324,"type":"VEC2"},{"bufferView":11,"componentType":5126,"count":324,"type":"VEC2"},{"bufferView":12,"componentType":5126,"count":324,"type":"VEC2"},{"bufferView":13,"componentType":5126,"count":324,"type":"VEC3","min":[-0.5,-0.5,-0.5],"max":[0.5,0.5,0.5]},{"bufferView":14,"componentType":5126,"count":324,"type":"VEC2"},{"bufferView":15,"componentType":5126,"count":324,"type":"VEC2"},{"bufferView":16,"componentType":5126,"count":24,"type":"VEC3","min":[-0.5,-0.5,-0.02500000037252903],"max":[0.5,0.5,0.02500000037252903]},{"bufferView":17,"componentType":5126,"count":24,"type":"VEC3"},{"bufferView":18,"componentType":5126,"count":24,"type":"VEC2"},{"bufferView":19,"componentType":5123,"count":36,"type":"SCALAR"},{"bufferView":20,"componentType":5126,"count":4,"type":"VEC3","min":[-0.5,-0.5,0],"max":[0.5,0.5,0]},{"bufferView":21,"componentType":5126,"count":4,"type":"VEC3"},{"bufferView":22,"componentType":5126,"count":4,"type":"VEC2"},{"bufferView":23,"componentType":5123,"count":6,"type":"SCALAR"},{"bufferView":24,"componentType":5126,"count":24,"type":"VEC3","min":[-0.5,-0.5,-0.5],"max":[0.5,0.5,0.5]},{"bufferView":25,"componentType":5126,"count":24,"type":"VEC2"},{"bufferView":26,"componentType":5126,"count":24,"type":"VEC2"},{"bufferView":27,"componentType":5126,"count":40,"type":"VEC3","min":[-0.8660253882408142,-0.5,-1],"max":[0.8660253882408142,0.5,1]},{"bufferView":28,"componentType":5126,"count":40,"type":"VEC3"},{"bufferView":29,"componentType":5126,"count":40,"type":"VEC2"},{"bufferView":30,"componentType":5123,"count":72,"type":"SCALAR"},{"bufferView":31,"componentType":5126,"count":24,"type":"VEC2"},{"bufferView":32,"componentType":5126,"count":24,"type":"VEC2"},{"bufferView":33,"componentType":5126,"count":24,"type":"VEC2"},{"bufferView":34,"componentType":5126,"count":24,"type":"VEC2"},{"bufferView":35,"componentType":5126,"count":24,"type":"VEC2"},{"bufferView":36,"componentType":5126,"count":24,"type":"VEC2"},{"bufferView":37,"componentType":5126,"count":24,"type":"VEC2"},{"bufferView":38,"componentType":5126,"count":24,"type":"VEC2"},{"bufferView":39,"componentType":5126,"count":24,"type":"VEC2"},{"bufferView":40,"componentType":5126,"count":24,"type":"VEC2"}],"extensionsUsed":["KHR_materials_unlit"],"extras":{"id":"vlt-tollbooth-plaza-29","family":"tollbooth-plaza","variant":28,"plan":"B4-2","units":"metres","up":"+Y","front":"+Z","lodScenes":[0,1,2]}}