{"asset":{"version":"2.0","generator":"SLOPMERICA Department of Unnecessary Development 1.0"},"scene":0,"scenes":[{"name":"LOD 0","nodes":[0,1,2,3,4,5,6,7,8,9,10,11,12,13,14,15,16,17,18,19,20,21,22,23,24,25,26,27,28,29,30,31,32,33,34,35,36,37,38,39,40],"extras":{"level":0}},{"name":"LOD 1","nodes":[41,42,43,44,45,46,47,48,49,50,51,52,53,54],"extras":{"level":1}},{"name":"LOD 2","nodes":[55,56,57,58,59,60,61,62,63,64,65],"extras":{"level":2}}],"nodes":[{"name":"foundation","mesh":0,"translation":[0,0.08,0],"scale":[28.2,0.16,21.19]},{"name":"storage-row-0","mesh":1,"translation":[0,1.43,-7.2162],"scale":[26,2.86,2.94345]},{"name":"door-0-0","mesh":2,"translation":[-11.375,1.3,-5.697],"scale":[3.07,1.976,0.08]},{"name":"door-0-1","mesh":3,"translation":[-8.125,1.3,-5.697],"scale":[3.07,1.976,0.08]},{"name":"door-0-2","mesh":2,"translation":[-4.875,1.3,-5.697],"scale":[3.07,1.976,0.08]},{"name":"door-0-3","mesh":3,"translation":[-1.625,1.3,-5.697],"scale":[3.07,1.976,0.08]},{"name":"door-0-4","mesh":2,"translation":[1.625,1.3,-5.697],"scale":[3.07,1.976,0.08]},{"name":"door-0-5","mesh":3,"translation":[4.875,1.3,-5.697],"scale":[3.07,1.976,0.08]},{"name":"door-0-6","mesh":2,"translation":[8.125,1.3,-5.697],"scale":[3.07,1.976,0.08]},{"name":"door-0-7","mesh":3,"translation":[11.375,1.3,-5.697],"scale":[3.07,1.976,0.08]},{"name":"storage-row-1","mesh":1,"translation":[0,1.43,-2.4054],"scale":[26,2.86,2.94345]},{"name":"door-1-0","mesh":2,"translation":[-11.375,1.3,-0.8862],"scale":[3.07,1.976,0.08]},{"name":"door-1-1","mesh":3,"translation":[-8.125,1.3,-0.8862],"scale":[3.07,1.976,0.08]},{"name":"door-1-2","mesh":2,"translation":[-4.875,1.3,-0.8862],"scale":[3.07,1.976,0.08]},{"name":"door-1-3","mesh":3,"translation":[-1.625,1.3,-0.8862],"scale":[3.07,1.976,0.08]},{"name":"door-1-4","mesh":2,"translation":[1.625,1.3,-0.8862],"scale":[3.07,1.976,0.08]},{"name":"door-1-5","mesh":3,"translation":[4.875,1.3,-0.8862],"scale":[3.07,1.976,0.08]},{"name":"door-1-6","mesh":2,"translation":[8.125,1.3,-0.8862],"scale":[3.07,1.976,0.08]},{"name":"door-1-7","mesh":3,"translation":[11.375,1.3,-0.8862],"scale":[3.07,1.976,0.08]},{"name":"storage-row-2","mesh":1,"translation":[0,1.43,2.4054],"scale":[26,2.86,2.94345]},{"name":"door-2-0","mesh":2,"translation":[-11.375,1.3,3.9246],"scale":[3.07,1.976,0.08]},{"name":"door-2-1","mesh":3,"translation":[-8.125,1.3,3.9246],"scale":[3.07,1.976,0.08]},{"name":"door-2-2","mesh":2,"translation":[-4.875,1.3,3.9246],"scale":[3.07,1.976,0.08]},{"name":"door-2-3","mesh":3,"translation":[-1.625,1.3,3.9246],"scale":[3.07,1.976,0.08]},{"name":"door-2-4","mesh":2,"translation":[1.625,1.3,3.9246],"scale":[3.07,1.976,0.08]},{"name":"door-2-5","mesh":3,"translation":[4.875,1.3,3.9246],"scale":[3.07,1.976,0.08]},{"name":"door-2-6","mesh":2,"translation":[8.125,1.3,3.9246],"scale":[3.07,1.976,0.08]},{"name":"door-2-7","mesh":3,"translation":[11.375,1.3,3.9246],"scale":[3.07,1.976,0.08]},{"name":"storage-row-3","mesh":1,"translation":[0,1.43,7.2162],"scale":[26,2.86,2.94345]},{"name":"door-3-0","mesh":2,"translation":[-11.375,1.3,8.7354],"scale":[3.07,1.976,0.08]},{"name":"door-3-1","mesh":3,"translation":[-8.125,1.3,8.7354],"scale":[3.07,1.976,0.08]},{"name":"door-3-2","mesh":2,"translation":[-4.875,1.3,8.7354],"scale":[3.07,1.976,0.08]},{"name":"door-3-3","mesh":3,"translation":[-1.625,1.3,8.7354],"scale":[3.07,1.976,0.08]},{"name":"door-3-4","mesh":2,"translation":[1.625,1.3,8.7354],"scale":[3.07,1.976,0.08]},{"name":"door-3-5","mesh":3,"translation":[4.875,1.3,8.7354],"scale":[3.07,1.976,0.08]},{"name":"door-3-6","mesh":2,"translation":[8.125,1.3,8.7354],"scale":[3.07,1.976,0.08]},{"name":"door-3-7","mesh":3,"translation":[11.375,1.3,8.7354],"scale":[3.07,1.976,0.08]},{"name":"storage-beacon","mesh":4,"translation":[11.7,4.16,-8.5455],"scale":[0.22,8.32,0.22]},{"name":"storage-sign-back","mesh":5,"translation":[11.7,7.384,-8.5455],"scale":[3.4,1.45,1]},{"name":"storage-sign","mesh":6,"translation":[11.7,7.384,-8.5165],"scale":[3.3,1.35,1]},{"name":"open-state-bollard","mesh":7,"translation":[11.18,0.425,10.6344],"scale":[0.22,0.85,0.22]},{"name":"foundation","mesh":8,"translation":[0,0.08,0],"scale":[28.2,0.16,21.19]},{"name":"storage-row-0","mesh":9,"translation":[0,1.43,-7.2162],"scale":[26,2.86,3.9246]},{"name":"door-0-0","mesh":10,"translation":[-6.5,1.3,-5.1906],"scale":[12.82,1.976,0.08]},{"name":"door-0-1","mesh":11,"translation":[6.5,1.3,-5.1906],"scale":[12.82,1.976,0.08]},{"name":"storage-row-1","mesh":9,"translation":[0,1.43,0],"scale":[26,2.86,3.9246]},{"name":"door-1-0","mesh":10,"translation":[-6.5,1.3,2.0256],"scale":[12.82,1.976,0.08]},{"name":"door-1-1","mesh":11,"translation":[6.5,1.3,2.0256],"scale":[12.82,1.976,0.08]},{"name":"storage-row-2","mesh":9,"translation":[0,1.43,7.2162],"scale":[26,2.86,3.9246]},{"name":"door-2-0","mesh":10,"translation":[-6.5,1.3,9.2418],"scale":[12.82,1.976,0.08]},{"name":"door-2-1","mesh":11,"translation":[6.5,1.3,9.2418],"scale":[12.82,1.976,0.08]},{"name":"storage-beacon","mesh":12,"translation":[11.7,4.16,-8.5455],"scale":[0.22,8.32,0.22]},{"name":"storage-sign-back","mesh":5,"translation":[11.7,7.384,-8.5455],"scale":[3.4,1.45,1]},{"name":"storage-sign","mesh":6,"translation":[11.7,7.384,-8.5165],"scale":[3.3,1.35,1]},{"name":"open-state-bollard","mesh":13,"translation":[11.18,0.425,10.6344],"scale":[0.22,0.85,0.22]},{"name":"foundation","mesh":8,"translation":[0,0.08,0],"scale":[28.2,0.16,21.19]},{"name":"storage-row-0","mesh":14,"translation":[0,1.43,-7.2162],"scale":[26,2.86,5.8869]},{"name":"door-0-0","mesh":10,"translation":[-6.5,1.3,-4.1778],"scale":[12.82,1.976,0.08]},{"name":"door-0-1","mesh":11,"translation":[6.5,1.3,-4.1778],"scale":[12.82,1.976,0.08]},{"name":"storage-row-1","mesh":14,"translation":[0,1.43,7.2162],"scale":[26,2.86,5.8869]},{"name":"door-1-0","mesh":10,"translation":[-6.5,1.3,10.2546],"scale":[12.82,1.976,0.08]},{"name":"door-1-1","mesh":11,"translation":[6.5,1.3,10.2546],"scale":[12.82,1.976,0.08]},{"name":"storage-beacon","mesh":12,"translation":[11.7,4.16,-8.5455],"scale":[0.22,8.32,0.22]},{"name":"storage-sign-back","mesh":5,"translation":[11.7,7.384,-8.5455],"scale":[3.4,1.45,1]},{"name":"storage-sign","mesh":6,"translation":[11.7,7.384,-8.5165],"scale":[3.3,1.35,1]},{"name":"open-state-bollard","mesh":13,"translation":[11.18,0.425,10.6344],"scale":[0.22,0.85,0.22]}],"meshes":[{"primitives":[{"attributes":{"POSITION":0,"NORMAL":1,"TEXCOORD_0":2},"material":0,"mode":4}]},{"primitives":[{"attributes":{"POSITION":3,"NORMAL":1,"TEXCOORD_0":4},"material":1,"mode":4}]},{"primitives":[{"attributes":{"POSITION":0,"NORMAL":1,"TEXCOORD_0":5},"material":2,"mode":4}]},{"primitives":[{"attributes":{"POSITION":0,"NORMAL":1,"TEXCOORD_0":5},"material":3,"mode":4}]},{"primitives":[{"attributes":{"POSITION":6,"NORMAL":7,"TEXCOORD_0":8},"material":4,"mode":4,"indices":9}]},{"primitives":[{"attributes":{"POSITION":10,"NORMAL":11,"TEXCOORD_0":12},"material":4,"mode":4,"indices":13}]},{"primitives":[{"attributes":{"POSITION":14,"NORMAL":15,"TEXCOORD_0":16},"material":5,"mode":4,"indices":17}]},{"primitives":[{"attributes":{"POSITION":0,"NORMAL":1,"TEXCOORD_0":18},"material":3,"mode":4}]},{"primitives":[{"attributes":{"POSITION":19,"NORMAL":11,"TEXCOORD_0":20},"material":0,"mode":4,"indices":13}]},{"primitives":[{"attributes":{"POSITION":19,"NORMAL":11,"TEXCOORD_0":21},"material":1,"mode":4,"indices":13}]},{"primitives":[{"attributes":{"POSITION":19,"NORMAL":11,"TEXCOORD_0":22},"material":2,"mode":4,"indices":13}]},{"primitives":[{"attributes":{"POSITION":19,"NORMAL":11,"TEXCOORD_0":22},"material":3,"mode":4,"indices":13}]},{"primitives":[{"attributes":{"POSITION":23,"NORMAL":24,"TEXCOORD_0":25},"material":4,"mode":4,"indices":26}]},{"primitives":[{"attributes":{"POSITION":19,"NORMAL":11,"TEXCOORD_0":27},"material":3,"mode":4,"indices":13}]},{"primitives":[{"attributes":{"POSITION":19,"NORMAL":11,"TEXCOORD_0":28},"material":1,"mode":4,"indices":13}]}],"materials":[{"name":"concrete","pbrMetallicRoughness":{"baseColorTexture":{"index":0},"metallicRoughnessTexture":{"index":2},"roughnessFactor":1,"metallicFactor":1},"normalTexture":{"index":1,"scale":0.82},"occlusionTexture":{"index":2,"strength":0.35}},{"name":"metal-galvanized","pbrMetallicRoughness":{"baseColorTexture":{"index":3},"metallicRoughnessTexture":{"index":5},"roughnessFactor":1,"metallicFactor":1},"normalTexture":{"index":4,"scale":0.15},"occlusionTexture":{"index":5,"strength":0.35}},{"name":"paint-blue","pbrMetallicRoughness":{"baseColorFactor":[0.05126945836711539,0.10946171076915331,0.22696587349938613,1],"roughnessFactor":0.58,"metallicFactor":0.05}},{"name":"paint-orange","pbrMetallicRoughness":{"baseColorFactor":[0.6444796819634361,0.1878207722902346,0.040915196900556984,1],"roughnessFactor":0.68,"metallicFactor":0.03}},{"name":"metal-dark","pbrMetallicRoughness":{"baseColorTexture":{"index":6},"metallicRoughnessTexture":{"index":8},"roughnessFactor":1,"metallicFactor":1},"normalTexture":{"index":7,"scale":0.35},"occlusionTexture":{"index":8,"strength":0.35}},{"name":"forever-box-storage signage","pbrMetallicRoughness":{"baseColorTexture":{"index":9},"roughnessFactor":1,"metallicFactor":0},"extensions":{"KHR_materials_unlit":{}}}],"textures":[{"source":0,"sampler":0},{"source":1,"sampler":0},{"source":2,"sampler":0},{"source":3,"sampler":0},{"source":4,"sampler":0},{"source":5,"sampler":0},{"source":6,"sampler":0},{"source":7,"sampler":0},{"source":8,"sampler":0},{"source":9,"sampler":0}],"images":[{"uri":"../textures/concrete-albedo.png"},{"uri":"../textures/concrete-normal.png"},{"uri":"../textures/concrete-orm.png"},{"uri":"../textures/metal-galvanized-albedo.png"},{"uri":"../textures/metal-galvanized-normal.png"},{"uri":"../textures/metal-galvanized-orm.png"},{"uri":"../textures/metal-dark-albedo.png"},{"uri":"../textures/metal-dark-normal.png"},{"uri":"../textures/metal-dark-orm.png"},{"uri":"../signs/forever-box-storage.png"}],"samplers":[{"magFilter":9729,"minFilter":9987,"wrapS":10497,"wrapT":10497}],"buffers":[{"uri":"../shared/geometry.bin","byteLength":16435520}],"bufferViews":[{"buffer":0,"byteOffset":0,"byteLength":3888,"target":34962},{"buffer":0,"byteOffset":3888,"byteLength":3888,"target":34962},{"buffer":0,"byteOffset":838104,"byteLength":2592,"target":34962},{"buffer":0,"byteOffset":378372,"byteLength":3888,"target":34962},{"buffer":0,"byteOffset":5054648,"byteLength":2592,"target":34962},{"buffer":0,"byteOffset":4984024,"byteLength":2592,"target":34962},{"buffer":0,"byteOffset":4952664,"byteLength":624,"target":34962},{"buffer":0,"byteOffset":4953288,"byteLength":624,"target":34962},{"buffer":0,"byteOffset":4986616,"byteLength":416,"target":34962},{"buffer":0,"byteOffset":1111736,"byteLength":192,"target":34963},{"buffer":0,"byteOffset":45664,"byteLength":288,"target":34962},{"buffer":0,"byteOffset":45952,"byteLength":288,"target":34962},{"buffer":0,"byteOffset":46240,"byteLength":192,"target":34962},{"buffer":0,"byteOffset":46432,"byteLength":72,"target":34963},{"buffer":0,"byteOffset":46504,"byteLength":48,"target":34962},{"buffer":0,"byteOffset":46552,"byteLength":48,"target":34962},{"buffer":0,"byteOffset":205252,"byteLength":32,"target":34962},{"buffer":0,"byteOffset":46632,"byteLength":12,"target":34963},{"buffer":0,"byteOffset":422312,"byteLength":2592,"target":34962},{"buffer":0,"byteOffset":46644,"byteLength":288,"target":34962},{"buffer":0,"byteOffset":845880,"byteLength":192,"target":34962},{"buffer":0,"byteOffset":5057240,"byteLength":192,"target":34962},{"buffer":0,"byteOffset":4987224,"byteLength":192,"target":34962},{"buffer":0,"byteOffset":4954904,"byteLength":480,"target":34962},{"buffer":0,"byteOffset":4955384,"byteLength":480,"target":34962},{"buffer":0,"byteOffset":4987416,"byteLength":320,"target":34962},{"buffer":0,"byteOffset":48596,"byteLength":144,"target":34963},{"buffer":0,"byteOffset":436936,"byteLength":192,"target":34962},{"buffer":0,"byteOffset":5057432,"byteLength":192,"target":34962}],"accessors":[{"bufferView":0,"componentType":5126,"count":324,"type":"VEC3","min":[-0.5,-0.5,-0.5],"max":[0.5,0.5,0.5]},{"bufferView":1,"componentType":5126,"count":324,"type":"VEC3"},{"bufferView":2,"componentType":5126,"count":324,"type":"VEC2"},{"bufferView":3,"componentType":5126,"count":324,"type":"VEC3","min":[-0.5,-0.5,-0.5],"max":[0.5,0.5,0.5]},{"bufferView":4,"componentType":5126,"count":324,"type":"VEC2"},{"bufferView":5,"componentType":5126,"count":324,"type":"VEC2"},{"bufferView":6,"componentType":5126,"count":52,"type":"VEC3","min":[-1,-0.5,-1],"max":[1,0.5,1]},{"bufferView":7,"componentType":5126,"count":52,"type":"VEC3"},{"bufferView":8,"componentType":5126,"count":52,"type":"VEC2"},{"bufferView":9,"componentType":5123,"count":96,"type":"SCALAR"},{"bufferView":10,"componentType":5126,"count":24,"type":"VEC3","min":[-0.5,-0.5,-0.02500000037252903],"max":[0.5,0.5,0.02500000037252903]},{"bufferView":11,"componentType":5126,"count":24,"type":"VEC3"},{"bufferView":12,"componentType":5126,"count":24,"type":"VEC2"},{"bufferView":13,"componentType":5123,"count":36,"type":"SCALAR"},{"bufferView":14,"componentType":5126,"count":4,"type":"VEC3","min":[-0.5,-0.5,0],"max":[0.5,0.5,0]},{"bufferView":15,"componentType":5126,"count":4,"type":"VEC3"},{"bufferView":16,"componentType":5126,"count":4,"type":"VEC2"},{"bufferView":17,"componentType":5123,"count":6,"type":"SCALAR"},{"bufferView":18,"componentType":5126,"count":324,"type":"VEC2"},{"bufferView":19,"componentType":5126,"count":24,"type":"VEC3","min":[-0.5,-0.5,-0.5],"max":[0.5,0.5,0.5]},{"bufferView":20,"componentType":5126,"count":24,"type":"VEC2"},{"bufferView":21,"componentType":5126,"count":24,"type":"VEC2"},{"bufferView":22,"componentType":5126,"count":24,"type":"VEC2"},{"bufferView":23,"componentType":5126,"count":40,"type":"VEC3","min":[-0.8660253882408142,-0.5,-1],"max":[0.8660253882408142,0.5,1]},{"bufferView":24,"componentType":5126,"count":40,"type":"VEC3"},{"bufferView":25,"componentType":5126,"count":40,"type":"VEC2"},{"bufferView":26,"componentType":5123,"count":72,"type":"SCALAR"},{"bufferView":27,"componentType":5126,"count":24,"type":"VEC2"},{"bufferView":28,"componentType":5126,"count":24,"type":"VEC2"}],"extensionsUsed":["KHR_materials_unlit"],"extras":{"id":"vlt-forever-box-storage-20","family":"forever-box-storage","variant":19,"plan":"D5-1","units":"metres","up":"+Y","front":"+Z","lodScenes":[0,1,2]}}