{"asset":{"version":"2.0","generator":"SLOPMERICA Department of Unnecessary Development 1.0"},"scene":0,"scenes":[{"name":"LOD 0","nodes":[0,1,2,3,4,5,6,7,8,9],"extras":{"level":0}},{"name":"LOD 1","nodes":[10,11,12,13,14,15,16,17,18,19],"extras":{"level":1}},{"name":"LOD 2","nodes":[20,21,22,23,24,25,26,27,28,29],"extras":{"level":2}}],"nodes":[{"name":"site-pad","mesh":0,"translation":[0,0.06,0],"scale":[10.0672,0.12,9.152]},{"name":"variant-apron","mesh":1,"translation":[0.6292,0.13,4.62],"scale":[2.1296,0.08,1.16]},{"name":"bollard-0","mesh":2,"translation":[-3.6784,0.43,4.74],"scale":[0.08,0.7,0.08]},{"name":"layout-cabinet","mesh":3,"translation":[-5.04,0.495,0.66],"scale":[0.69,0.75,0.32]},{"name":"berm","mesh":4,"translation":[0,0.45,0],"scale":[9.68,0.7,8.8]},{"name":"pond-water","mesh":5,"translation":[-0.3872,0.84,0],"scale":[7.9376,0.08,6.6]},{"name":"inlet-0","mesh":6,"translation":[-2.904,1.15,-3.696],"rotation":[0.707107,0,0,0.707107],"scale":[0.32,2.6,0.32]},{"name":"control-box","mesh":7,"translation":[3.0976,1.38,2.2],"scale":[1.4,1.1,1.2]},{"name":"serenity-sign-back","mesh":8,"translation":[0,2,4.7],"scale":[3.2,0.95,1]},{"name":"serenity-sign","mesh":9,"translation":[0,2,4.729],"scale":[3.1,0.85,1]},{"name":"site-pad","mesh":10,"translation":[0,0.06,0],"scale":[10.0672,0.12,9.152]},{"name":"variant-apron","mesh":11,"translation":[0.6292,0.13,4.62],"scale":[2.1296,0.08,1.16]},{"name":"bollard-0","mesh":12,"translation":[-3.6784,0.43,4.74],"scale":[0.08,0.7,0.08]},{"name":"layout-cabinet","mesh":13,"translation":[-5.04,0.495,0.66],"scale":[0.69,0.75,0.32]},{"name":"berm","mesh":14,"translation":[0,0.45,0],"scale":[9.68,0.7,8.8]},{"name":"pond-water","mesh":15,"translation":[-0.3872,0.84,0],"scale":[7.9376,0.08,6.6]},{"name":"inlet-0","mesh":16,"translation":[-2.904,1.15,-3.696],"rotation":[0.707107,0,0,0.707107],"scale":[0.32,2.6,0.32]},{"name":"control-box","mesh":17,"translation":[3.0976,1.38,2.2],"scale":[1.4,1.1,1.2]},{"name":"serenity-sign-back","mesh":8,"translation":[0,2,4.7],"scale":[3.2,0.95,1]},{"name":"serenity-sign","mesh":9,"translation":[0,2,4.729],"scale":[3.1,0.85,1]},{"name":"site-pad","mesh":10,"translation":[0,0.06,0],"scale":[10.0672,0.12,9.152]},{"name":"variant-apron","mesh":11,"translation":[0.6292,0.13,4.62],"scale":[2.1296,0.08,1.16]},{"name":"bollard-0","mesh":12,"translation":[-3.6784,0.43,4.74],"scale":[0.08,0.7,0.08]},{"name":"layout-cabinet","mesh":13,"translation":[-5.04,0.495,0.66],"scale":[0.69,0.75,0.32]},{"name":"berm","mesh":14,"translation":[0,0.45,0],"scale":[9.68,0.7,8.8]},{"name":"pond-water","mesh":15,"translation":[-0.3872,0.84,0],"scale":[7.9376,0.08,6.6]},{"name":"inlet-0","mesh":16,"translation":[-2.904,1.15,-3.696],"rotation":[0.707107,0,0,0.707107],"scale":[0.32,2.6,0.32]},{"name":"control-box","mesh":17,"translation":[3.0976,1.38,2.2],"scale":[1.4,1.1,1.2]},{"name":"serenity-sign-back","mesh":8,"translation":[0,2,4.7],"scale":[3.2,0.95,1]},{"name":"serenity-sign","mesh":9,"translation":[0,2,4.729],"scale":[3.1,0.85,1]}],"meshes":[{"primitives":[{"attributes":{"POSITION":0,"NORMAL":1,"TEXCOORD_0":2},"material":0,"mode":4}]},{"primitives":[{"attributes":{"POSITION":0,"NORMAL":1,"TEXCOORD_0":3},"material":1,"mode":4}]},{"primitives":[{"attributes":{"POSITION":4,"NORMAL":5,"TEXCOORD_0":6},"material":2,"mode":4,"indices":7}]},{"primitives":[{"attributes":{"POSITION":0,"NORMAL":1,"TEXCOORD_0":8},"material":3,"mode":4}]},{"primitives":[{"attributes":{"POSITION":0,"NORMAL":1,"TEXCOORD_0":9},"material":4,"mode":4}]},{"primitives":[{"attributes":{"POSITION":0,"NORMAL":1,"TEXCOORD_0":10},"material":5,"mode":4}]},{"primitives":[{"attributes":{"POSITION":11,"NORMAL":12,"TEXCOORD_0":13},"material":0,"mode":4,"indices":7}]},{"primitives":[{"attributes":{"POSITION":14,"NORMAL":1,"TEXCOORD_0":15},"material":3,"mode":4}]},{"primitives":[{"attributes":{"POSITION":16,"NORMAL":17,"TEXCOORD_0":18},"material":6,"mode":4,"indices":19}]},{"primitives":[{"attributes":{"POSITION":20,"NORMAL":21,"TEXCOORD_0":22},"material":7,"mode":4,"indices":23}]},{"primitives":[{"attributes":{"POSITION":24,"NORMAL":17,"TEXCOORD_0":25},"material":0,"mode":4,"indices":19}]},{"primitives":[{"attributes":{"POSITION":24,"NORMAL":17,"TEXCOORD_0":26},"material":1,"mode":4,"indices":19}]},{"primitives":[{"attributes":{"POSITION":27,"NORMAL":28,"TEXCOORD_0":29},"material":2,"mode":4,"indices":30}]},{"primitives":[{"attributes":{"POSITION":24,"NORMAL":17,"TEXCOORD_0":31},"material":3,"mode":4,"indices":19}]},{"primitives":[{"attributes":{"POSITION":24,"NORMAL":17,"TEXCOORD_0":32},"material":4,"mode":4,"indices":19}]},{"primitives":[{"attributes":{"POSITION":24,"NORMAL":17,"TEXCOORD_0":33},"material":5,"mode":4,"indices":19}]},{"primitives":[{"attributes":{"POSITION":34,"NORMAL":35,"TEXCOORD_0":36},"material":0,"mode":4,"indices":30}]},{"primitives":[{"attributes":{"POSITION":24,"NORMAL":17,"TEXCOORD_0":37},"material":3,"mode":4,"indices":19}]}],"materials":[{"name":"concrete","pbrMetallicRoughness":{"baseColorTexture":{"index":0},"metallicRoughnessTexture":{"index":2},"roughnessFactor":1,"metallicFactor":1},"normalTexture":{"index":1,"scale":0.82},"occlusionTexture":{"index":2,"strength":0.35}},{"name":"asphalt","pbrMetallicRoughness":{"baseColorTexture":{"index":3},"metallicRoughnessTexture":{"index":5},"roughnessFactor":1,"metallicFactor":1},"normalTexture":{"index":4,"scale":0.62},"occlusionTexture":{"index":5,"strength":0.35}},{"name":"paint-yellow","pbrMetallicRoughness":{"baseColorFactor":[0.76052450467022,0.4793201830913402,0.07818742179702069,1],"roughnessFactor":0.66,"metallicFactor":0.03}},{"name":"metal-galvanized","pbrMetallicRoughness":{"baseColorTexture":{"index":6},"metallicRoughnessTexture":{"index":8},"roughnessFactor":1,"metallicFactor":1},"normalTexture":{"index":7,"scale":0.15},"occlusionTexture":{"index":8,"strength":0.35}},{"name":"soil","pbrMetallicRoughness":{"baseColorTexture":{"index":9},"metallicRoughnessTexture":{"index":11},"roughnessFactor":1,"metallicFactor":1},"normalTexture":{"index":10,"scale":0.8},"occlusionTexture":{"index":11,"strength":0.35}},{"name":"glass-blue","pbrMetallicRoughness":{"baseColorTexture":{"index":12},"metallicRoughnessTexture":{"index":14},"roughnessFactor":1,"metallicFactor":1},"normalTexture":{"index":13,"scale":0.12},"occlusionTexture":{"index":14,"strength":0.35}},{"name":"metal-dark","pbrMetallicRoughness":{"baseColorTexture":{"index":15},"metallicRoughnessTexture":{"index":17},"roughnessFactor":1,"metallicFactor":1},"normalTexture":{"index":16,"scale":0.35},"occlusionTexture":{"index":17,"strength":0.35}},{"name":"retention-pond-office signage","pbrMetallicRoughness":{"baseColorTexture":{"index":18},"roughnessFactor":1,"metallicFactor":0},"extensions":{"KHR_materials_unlit":{}}}],"textures":[{"source":0,"sampler":0},{"source":1,"sampler":0},{"source":2,"sampler":0},{"source":3,"sampler":0},{"source":4,"sampler":0},{"source":5,"sampler":0},{"source":6,"sampler":0},{"source":7,"sampler":0},{"source":8,"sampler":0},{"source":9,"sampler":0},{"source":10,"sampler":0},{"source":11,"sampler":0},{"source":12,"sampler":0},{"source":13,"sampler":0},{"source":14,"sampler":0},{"source":15,"sampler":0},{"source":16,"sampler":0},{"source":17,"sampler":0},{"source":18,"sampler":0}],"images":[{"uri":"../textures/concrete-albedo.png"},{"uri":"../textures/concrete-normal.png"},{"uri":"../textures/concrete-orm.png"},{"uri":"../textures/asphalt-albedo.png"},{"uri":"../textures/asphalt-normal.png"},{"uri":"../textures/asphalt-orm.png"},{"uri":"../textures/metal-galvanized-albedo.png"},{"uri":"../textures/metal-galvanized-normal.png"},{"uri":"../textures/metal-galvanized-orm.png"},{"uri":"../textures/soil-albedo.png"},{"uri":"../textures/soil-normal.png"},{"uri":"../textures/soil-orm.png"},{"uri":"../textures/glass-blue-albedo.png"},{"uri":"../textures/glass-blue-normal.png"},{"uri":"../textures/glass-blue-orm.png"},{"uri":"../textures/metal-dark-albedo.png"},{"uri":"../textures/metal-dark-normal.png"},{"uri":"../textures/metal-dark-orm.png"},{"uri":"../signs/retention-pond-office.png"}],"samplers":[{"magFilter":9729,"minFilter":9987,"wrapS":10497,"wrapT":10497}],"buffers":[{"uri":"../shared/geometry.bin","byteLength":16435520}],"bufferViews":[{"buffer":0,"byteOffset":0,"byteLength":3888,"target":34962},{"buffer":0,"byteOffset":3888,"byteLength":3888,"target":34962},{"buffer":0,"byteOffset":12044892,"byteLength":2592,"target":34962},{"buffer":0,"byteOffset":12047484,"byteLength":2592,"target":34962},{"buffer":0,"byteOffset":12960,"byteLength":1200,"target":34962},{"buffer":0,"byteOffset":14160,"byteLength":1200,"target":34962},{"buffer":0,"byteOffset":150020,"byteLength":800,"target":34962},{"buffer":0,"byteOffset":16160,"byteLength":384,"target":34963},{"buffer":0,"byteOffset":150820,"byteLength":2592,"target":34962},{"buffer":0,"byteOffset":12050076,"byteLength":2592,"target":34962},{"buffer":0,"byteOffset":12052668,"byteLength":2592,"target":34962},{"buffer":0,"byteOffset":1101304,"byteLength":1200,"target":34962},{"buffer":0,"byteOffset":1102504,"byteLength":1200,"target":34962},{"buffer":0,"byteOffset":12055260,"byteLength":800,"target":34962},{"buffer":0,"byteOffset":4875864,"byteLength":3888,"target":34962},{"buffer":0,"byteOffset":11945244,"byteLength":2592,"target":34962},{"buffer":0,"byteOffset":45664,"byteLength":288,"target":34962},{"buffer":0,"byteOffset":45952,"byteLength":288,"target":34962},{"buffer":0,"byteOffset":46240,"byteLength":192,"target":34962},{"buffer":0,"byteOffset":46432,"byteLength":72,"target":34963},{"buffer":0,"byteOffset":46504,"byteLength":48,"target":34962},{"buffer":0,"byteOffset":46552,"byteLength":48,"target":34962},{"buffer":0,"byteOffset":153412,"byteLength":32,"target":34962},{"buffer":0,"byteOffset":46632,"byteLength":12,"target":34963},{"buffer":0,"byteOffset":46644,"byteLength":288,"target":34962},{"buffer":0,"byteOffset":12056060,"byteLength":192,"target":34962},{"buffer":0,"byteOffset":12056252,"byteLength":192,"target":34962},{"buffer":0,"byteOffset":47316,"byteLength":480,"target":34962},{"buffer":0,"byteOffset":47796,"byteLength":480,"target":34962},{"buffer":0,"byteOffset":153636,"byteLength":320,"target":34962},{"buffer":0,"byteOffset":48596,"byteLength":144,"target":34963},{"buffer":0,"byteOffset":153956,"byteLength":192,"target":34962},{"buffer":0,"byteOffset":12056444,"byteLength":192,"target":34962},{"buffer":0,"byteOffset":12056636,"byteLength":192,"target":34962},{"buffer":0,"byteOffset":1112312,"byteLength":480,"target":34962},{"buffer":0,"byteOffset":1112792,"byteLength":480,"target":34962},{"buffer":0,"byteOffset":12056828,"byteLength":320,"target":34962},{"buffer":0,"byteOffset":11948924,"byteLength":192,"target":34962}],"accessors":[{"bufferView":0,"componentType":5126,"count":324,"type":"VEC3","min":[-0.5,-0.5,-0.5],"max":[0.5,0.5,0.5]},{"bufferView":1,"componentType":5126,"count":324,"type":"VEC3"},{"bufferView":2,"componentType":5126,"count":324,"type":"VEC2"},{"bufferView":3,"componentType":5126,"count":324,"type":"VEC2"},{"bufferView":4,"componentType":5126,"count":100,"type":"VEC3","min":[-1,-0.5,-1],"max":[1,0.5,1]},{"bufferView":5,"componentType":5126,"count":100,"type":"VEC3"},{"bufferView":6,"componentType":5126,"count":100,"type":"VEC2"},{"bufferView":7,"componentType":5123,"count":192,"type":"SCALAR"},{"bufferView":8,"componentType":5126,"count":324,"type":"VEC2"},{"bufferView":9,"componentType":5126,"count":324,"type":"VEC2"},{"bufferView":10,"componentType":5126,"count":324,"type":"VEC2"},{"bufferView":11,"componentType":5126,"count":100,"type":"VEC3","min":[-1,-0.5,-1],"max":[1,0.5,1]},{"bufferView":12,"componentType":5126,"count":100,"type":"VEC3"},{"bufferView":13,"componentType":5126,"count":100,"type":"VEC2"},{"bufferView":14,"componentType":5126,"count":324,"type":"VEC3","min":[-0.5,-0.5,-0.5],"max":[0.5,0.5,0.5]},{"bufferView":15,"componentType":5126,"count":324,"type":"VEC2"},{"bufferView":16,"componentType":5126,"count":24,"type":"VEC3","min":[-0.5,-0.5,-0.02500000037252903],"max":[0.5,0.5,0.02500000037252903]},{"bufferView":17,"componentType":5126,"count":24,"type":"VEC3"},{"bufferView":18,"componentType":5126,"count":24,"type":"VEC2"},{"bufferView":19,"componentType":5123,"count":36,"type":"SCALAR"},{"bufferView":20,"componentType":5126,"count":4,"type":"VEC3","min":[-0.5,-0.5,0],"max":[0.5,0.5,0]},{"bufferView":21,"componentType":5126,"count":4,"type":"VEC3"},{"bufferView":22,"componentType":5126,"count":4,"type":"VEC2"},{"bufferView":23,"componentType":5123,"count":6,"type":"SCALAR"},{"bufferView":24,"componentType":5126,"count":24,"type":"VEC3","min":[-0.5,-0.5,-0.5],"max":[0.5,0.5,0.5]},{"bufferView":25,"componentType":5126,"count":24,"type":"VEC2"},{"bufferView":26,"componentType":5126,"count":24,"type":"VEC2"},{"bufferView":27,"componentType":5126,"count":40,"type":"VEC3","min":[-0.8660253882408142,-0.5,-1],"max":[0.8660253882408142,0.5,1]},{"bufferView":28,"componentType":5126,"count":40,"type":"VEC3"},{"bufferView":29,"componentType":5126,"count":40,"type":"VEC2"},{"bufferView":30,"componentType":5123,"count":72,"type":"SCALAR"},{"bufferView":31,"componentType":5126,"count":24,"type":"VEC2"},{"bufferView":32,"componentType":5126,"count":24,"type":"VEC2"},{"bufferView":33,"componentType":5126,"count":24,"type":"VEC2"},{"bufferView":34,"componentType":5126,"count":40,"type":"VEC3","min":[-0.8660253882408142,-0.5,-1],"max":[0.8660253882408142,0.5,1]},{"bufferView":35,"componentType":5126,"count":40,"type":"VEC3"},{"bufferView":36,"componentType":5126,"count":40,"type":"VEC2"},{"bufferView":37,"componentType":5126,"count":24,"type":"VEC2"}],"extensionsUsed":["KHR_materials_unlit"],"extras":{"id":"vlt-retention-pond-office-11","family":"retention-pond-office","variant":10,"plan":"C1-1","units":"metres","up":"+Y","front":"+Z","lodScenes":[0,1,2]}}