{"asset":{"version":"2.0","generator":"SLOPMERICA Department of Unnecessary Development 1.0"},"scene":0,"scenes":[{"name":"LOD 0","nodes":[0,1,2,3,4,5,6,7,8,9,10,11,12,13,14,15,16,17,18,19,20,21,22,23,24,25,26,27,28,29,30,31,32,33,34,35,36,37,38,39,40,41,42,43,44,45,46,47,48],"extras":{"level":0}},{"name":"LOD 1","nodes":[49,50,51,52,53,54,55,56,57,58,59,60,61,62,63,64,65,66,67,68,69,70,71,72,73,74,75,76,77,78,79,80,81,82,83,84,85,86,87,88,89,90,91,92,93,94,95,96,97],"extras":{"level":1}},{"name":"LOD 2","nodes":[98,99,100,101,102,103,104,105,106,107,108,109,110,111,112,113,114,115,116,117],"extras":{"level":2}}],"nodes":[{"name":"site-pad","mesh":0,"translation":[0,0.06,0],"scale":[10.816,0.12,15.6]},{"name":"variant-apron","mesh":1,"translation":[2.028,0.13,7.72],"scale":[2.288,0.08,1.34]},{"name":"bollard-0","mesh":2,"translation":[-3.952,0.43,7.84],"scale":[0.08,0.74,0.08]},{"name":"layout-cabinet","mesh":3,"translation":[5.4,0.495,3.375],"scale":[0.81,0.75,0.32]},{"name":"deferred-maintenance-skip","mesh":4,"translation":[-3.536,0.5,-6.6],"scale":[1.15,0.75,0.65]},{"name":"skip-rubble","mesh":5,"translation":[-3.536,0.98,-6.6],"rotation":[0,0.29552,0,0.955336],"scale":[0.72,0.2,0.5]},{"name":"panel-0-0","mesh":6,"translation":[-3.9,1.12,-6],"rotation":[0.19116,0.039251,0.00765,0.980744],"scale":[2.2,0.12,1.6]},{"name":"panel-post-0-0","mesh":7,"translation":[-3.9,0.62,-6],"scale":[0.12,1,0.12]},{"name":"panel-0-1","mesh":6,"translation":[-1.3,1.12,-6],"rotation":[0.19116,0.039251,0.00765,0.980744],"scale":[2.2,0.12,1.6]},{"name":"panel-post-0-1","mesh":7,"translation":[-1.3,0.62,-6],"scale":[0.12,1,0.12]},{"name":"panel-0-2","mesh":6,"translation":[1.3,1.12,-6],"rotation":[0.19116,0.039251,0.00765,0.980744],"scale":[2.2,0.12,1.6]},{"name":"panel-post-0-2","mesh":7,"translation":[1.3,0.62,-6],"scale":[0.12,1,0.12]},{"name":"panel-0-3","mesh":6,"translation":[3.9,1.12,-6],"rotation":[0.19116,0.039251,0.00765,0.980744],"scale":[2.2,0.12,1.6]},{"name":"panel-post-0-3","mesh":7,"translation":[3.9,0.62,-6],"scale":[0.12,1,0.12]},{"name":"panel-1-0","mesh":6,"translation":[-3.9,1.2,-3],"rotation":[0.19116,0.039251,0.00765,0.980744],"scale":[2.2,0.12,1.6]},{"name":"panel-post-1-0","mesh":7,"translation":[-3.9,0.62,-3],"scale":[0.12,1,0.12]},{"name":"panel-1-1","mesh":6,"translation":[-1.3,1.2,-3],"rotation":[0.19116,0.039251,0.00765,0.980744],"scale":[2.2,0.12,1.6]},{"name":"panel-post-1-1","mesh":7,"translation":[-1.3,0.62,-3],"scale":[0.12,1,0.12]},{"name":"panel-1-2","mesh":6,"translation":[1.3,1.2,-3],"rotation":[0.19116,0.039251,0.00765,0.980744],"scale":[2.2,0.12,1.6]},{"name":"panel-post-1-2","mesh":7,"translation":[1.3,0.62,-3],"scale":[0.12,1,0.12]},{"name":"panel-1-3","mesh":6,"translation":[3.9,1.2,-3],"rotation":[0.19116,0.039251,0.00765,0.980744],"scale":[2.2,0.12,1.6]},{"name":"panel-post-1-3","mesh":7,"translation":[3.9,0.62,-3],"scale":[0.12,1,0.12]},{"name":"panel-2-0","mesh":6,"translation":[-3.9,1.28,0],"rotation":[0.19116,0.039251,0.00765,0.980744],"scale":[2.2,0.12,1.6]},{"name":"panel-post-2-0","mesh":7,"translation":[-3.9,0.62,0],"scale":[0.12,1,0.12]},{"name":"panel-2-1","mesh":6,"translation":[-1.3,1.28,0],"rotation":[0.19116,0.039251,0.00765,0.980744],"scale":[2.2,0.12,1.6]},{"name":"panel-post-2-1","mesh":7,"translation":[-1.3,0.62,0],"scale":[0.12,1,0.12]},{"name":"panel-2-2","mesh":6,"translation":[1.3,1.28,0],"rotation":[0.19116,0.039251,0.00765,0.980744],"scale":[2.2,0.12,1.6]},{"name":"panel-post-2-2","mesh":7,"translation":[1.3,0.62,0],"scale":[0.12,1,0.12]},{"name":"panel-2-3","mesh":6,"translation":[3.9,1.28,0],"rotation":[0.19116,0.039251,0.00765,0.980744],"scale":[2.2,0.12,1.6]},{"name":"panel-post-2-3","mesh":7,"translation":[3.9,0.62,0],"scale":[0.12,1,0.12]},{"name":"panel-3-0","mesh":6,"translation":[-3.9,1.36,3],"rotation":[0.19116,0.039251,0.00765,0.980744],"scale":[2.2,0.12,1.6]},{"name":"panel-post-3-0","mesh":7,"translation":[-3.9,0.62,3],"scale":[0.12,1,0.12]},{"name":"panel-3-1","mesh":6,"translation":[-1.3,1.36,3],"rotation":[0.19116,0.039251,0.00765,0.980744],"scale":[2.2,0.12,1.6]},{"name":"panel-post-3-1","mesh":7,"translation":[-1.3,0.62,3],"scale":[0.12,1,0.12]},{"name":"panel-3-2","mesh":6,"translation":[1.3,1.36,3],"rotation":[0.19116,0.039251,0.00765,0.980744],"scale":[2.2,0.12,1.6]},{"name":"panel-post-3-2","mesh":7,"translation":[1.3,0.62,3],"scale":[0.12,1,0.12]},{"name":"panel-3-3","mesh":6,"translation":[3.9,1.36,3],"rotation":[0.19116,0.039251,0.00765,0.980744],"scale":[2.2,0.12,1.6]},{"name":"panel-post-3-3","mesh":7,"translation":[3.9,0.62,3],"scale":[0.12,1,0.12]},{"name":"panel-4-0","mesh":6,"translation":[-3.9,1.44,6],"rotation":[0.19116,0.039251,0.00765,0.980744],"scale":[2.2,0.12,1.6]},{"name":"panel-post-4-0","mesh":7,"translation":[-3.9,0.62,6],"scale":[0.12,1,0.12]},{"name":"panel-4-1","mesh":6,"translation":[-1.3,1.44,6],"rotation":[0.19116,0.039251,0.00765,0.980744],"scale":[2.2,0.12,1.6]},{"name":"panel-post-4-1","mesh":7,"translation":[-1.3,0.62,6],"scale":[0.12,1,0.12]},{"name":"panel-4-2","mesh":6,"translation":[1.3,1.44,6],"rotation":[0.19116,0.039251,0.00765,0.980744],"scale":[2.2,0.12,1.6]},{"name":"panel-post-4-2","mesh":7,"translation":[1.3,0.62,6],"scale":[0.12,1,0.12]},{"name":"panel-4-3","mesh":6,"translation":[3.9,1.44,6],"rotation":[0.19116,0.039251,0.00765,0.980744],"scale":[2.2,0.12,1.6]},{"name":"panel-post-4-3","mesh":7,"translation":[3.9,0.62,6],"scale":[0.12,1,0.12]},{"name":"inverter","mesh":8,"translation":[3.952,0.95,6],"scale":[1.8,1.6,1.1]},{"name":"solar-sign-back","mesh":9,"translation":[0,1.8,7.75],"scale":[3.6,0.9,1]},{"name":"solar-sign","mesh":10,"translation":[0,1.8,7.779],"scale":[3.5,0.8,1]},{"name":"site-pad","mesh":11,"translation":[0,0.06,0],"scale":[10.816,0.12,15.6]},{"name":"variant-apron","mesh":12,"translation":[2.028,0.13,7.72],"scale":[2.288,0.08,1.34]},{"name":"bollard-0","mesh":13,"translation":[-3.952,0.43,7.84],"scale":[0.08,0.74,0.08]},{"name":"layout-cabinet","mesh":14,"translation":[5.4,0.495,3.375],"scale":[0.81,0.75,0.32]},{"name":"deferred-maintenance-skip","mesh":15,"translation":[-3.536,0.5,-6.6],"scale":[1.15,0.75,0.65]},{"name":"skip-rubble","mesh":16,"translation":[-3.536,0.98,-6.6],"rotation":[0,0.29552,0,0.955336],"scale":[0.72,0.2,0.5]},{"name":"panel-0-0","mesh":17,"translation":[-3.9,1.12,-6],"rotation":[0.19116,0.039251,0.00765,0.980744],"scale":[2.2,0.12,1.6]},{"name":"panel-post-0-0","mesh":18,"translation":[-3.9,0.62,-6],"scale":[0.12,1,0.12]},{"name":"panel-0-1","mesh":17,"translation":[-1.3,1.12,-6],"rotation":[0.19116,0.039251,0.00765,0.980744],"scale":[2.2,0.12,1.6]},{"name":"panel-post-0-1","mesh":18,"translation":[-1.3,0.62,-6],"scale":[0.12,1,0.12]},{"name":"panel-0-2","mesh":17,"translation":[1.3,1.12,-6],"rotation":[0.19116,0.039251,0.00765,0.980744],"scale":[2.2,0.12,1.6]},{"name":"panel-post-0-2","mesh":18,"translation":[1.3,0.62,-6],"scale":[0.12,1,0.12]},{"name":"panel-0-3","mesh":17,"translation":[3.9,1.12,-6],"rotation":[0.19116,0.039251,0.00765,0.980744],"scale":[2.2,0.12,1.6]},{"name":"panel-post-0-3","mesh":18,"translation":[3.9,0.62,-6],"scale":[0.12,1,0.12]},{"name":"panel-1-0","mesh":17,"translation":[-3.9,1.2,-3],"rotation":[0.19116,0.039251,0.00765,0.980744],"scale":[2.2,0.12,1.6]},{"name":"panel-post-1-0","mesh":18,"translation":[-3.9,0.62,-3],"scale":[0.12,1,0.12]},{"name":"panel-1-1","mesh":17,"translation":[-1.3,1.2,-3],"rotation":[0.19116,0.039251,0.00765,0.980744],"scale":[2.2,0.12,1.6]},{"name":"panel-post-1-1","mesh":18,"translation":[-1.3,0.62,-3],"scale":[0.12,1,0.12]},{"name":"panel-1-2","mesh":17,"translation":[1.3,1.2,-3],"rotation":[0.19116,0.039251,0.00765,0.980744],"scale":[2.2,0.12,1.6]},{"name":"panel-post-1-2","mesh":18,"translation":[1.3,0.62,-3],"scale":[0.12,1,0.12]},{"name":"panel-1-3","mesh":17,"translation":[3.9,1.2,-3],"rotation":[0.19116,0.039251,0.00765,0.980744],"scale":[2.2,0.12,1.6]},{"name":"panel-post-1-3","mesh":18,"translation":[3.9,0.62,-3],"scale":[0.12,1,0.12]},{"name":"panel-2-0","mesh":17,"translation":[-3.9,1.28,0],"rotation":[0.19116,0.039251,0.00765,0.980744],"scale":[2.2,0.12,1.6]},{"name":"panel-post-2-0","mesh":18,"translation":[-3.9,0.62,0],"scale":[0.12,1,0.12]},{"name":"panel-2-1","mesh":17,"translation":[-1.3,1.28,0],"rotation":[0.19116,0.039251,0.00765,0.980744],"scale":[2.2,0.12,1.6]},{"name":"panel-post-2-1","mesh":18,"translation":[-1.3,0.62,0],"scale":[0.12,1,0.12]},{"name":"panel-2-2","mesh":17,"translation":[1.3,1.28,0],"rotation":[0.19116,0.039251,0.00765,0.980744],"scale":[2.2,0.12,1.6]},{"name":"panel-post-2-2","mesh":18,"translation":[1.3,0.62,0],"scale":[0.12,1,0.12]},{"name":"panel-2-3","mesh":17,"translation":[3.9,1.28,0],"rotation":[0.19116,0.039251,0.00765,0.980744],"scale":[2.2,0.12,1.6]},{"name":"panel-post-2-3","mesh":18,"translation":[3.9,0.62,0],"scale":[0.12,1,0.12]},{"name":"panel-3-0","mesh":17,"translation":[-3.9,1.36,3],"rotation":[0.19116,0.039251,0.00765,0.980744],"scale":[2.2,0.12,1.6]},{"name":"panel-post-3-0","mesh":18,"translation":[-3.9,0.62,3],"scale":[0.12,1,0.12]},{"name":"panel-3-1","mesh":17,"translation":[-1.3,1.36,3],"rotation":[0.19116,0.039251,0.00765,0.980744],"scale":[2.2,0.12,1.6]},{"name":"panel-post-3-1","mesh":18,"translation":[-1.3,0.62,3],"scale":[0.12,1,0.12]},{"name":"panel-3-2","mesh":17,"translation":[1.3,1.36,3],"rotation":[0.19116,0.039251,0.00765,0.980744],"scale":[2.2,0.12,1.6]},{"name":"panel-post-3-2","mesh":18,"translation":[1.3,0.62,3],"scale":[0.12,1,0.12]},{"name":"panel-3-3","mesh":17,"translation":[3.9,1.36,3],"rotation":[0.19116,0.039251,0.00765,0.980744],"scale":[2.2,0.12,1.6]},{"name":"panel-post-3-3","mesh":18,"translation":[3.9,0.62,3],"scale":[0.12,1,0.12]},{"name":"panel-4-0","mesh":17,"translation":[-3.9,1.44,6],"rotation":[0.19116,0.039251,0.00765,0.980744],"scale":[2.2,0.12,1.6]},{"name":"panel-post-4-0","mesh":18,"translation":[-3.9,0.62,6],"scale":[0.12,1,0.12]},{"name":"panel-4-1","mesh":17,"translation":[-1.3,1.44,6],"rotation":[0.19116,0.039251,0.00765,0.980744],"scale":[2.2,0.12,1.6]},{"name":"panel-post-4-1","mesh":18,"translation":[-1.3,0.62,6],"scale":[0.12,1,0.12]},{"name":"panel-4-2","mesh":17,"translation":[1.3,1.44,6],"rotation":[0.19116,0.039251,0.00765,0.980744],"scale":[2.2,0.12,1.6]},{"name":"panel-post-4-2","mesh":18,"translation":[1.3,0.62,6],"scale":[0.12,1,0.12]},{"name":"panel-4-3","mesh":17,"translation":[3.9,1.44,6],"rotation":[0.19116,0.039251,0.00765,0.980744],"scale":[2.2,0.12,1.6]},{"name":"panel-post-4-3","mesh":18,"translation":[3.9,0.62,6],"scale":[0.12,1,0.12]},{"name":"inverter","mesh":19,"translation":[3.952,0.95,6],"scale":[1.8,1.6,1.1]},{"name":"solar-sign-back","mesh":9,"translation":[0,1.8,7.75],"scale":[3.6,0.9,1]},{"name":"solar-sign","mesh":10,"translation":[0,1.8,7.779],"scale":[3.5,0.8,1]},{"name":"site-pad","mesh":20,"translation":[0,0.06,0],"scale":[8.112,0.12,6.24]},{"name":"variant-apron","mesh":21,"translation":[1.521,0.13,3.22],"scale":[1.716,0.08,1.34]},{"name":"bollard-0","mesh":13,"translation":[-2.964,0.43,3.34],"scale":[0.08,0.74,0.08]},{"name":"layout-cabinet","mesh":14,"translation":[4.1,0.495,1.35],"scale":[0.81,0.75,0.32]},{"name":"deferred-maintenance-skip","mesh":15,"translation":[-2.652,0.5,-2.64],"scale":[1.15,0.75,0.65]},{"name":"panel-0-0","mesh":17,"translation":[-2.6,1.12,-1.5],"rotation":[0.19116,0.039251,0.00765,0.980744],"scale":[2.2,0.12,1.6]},{"name":"panel-post-0-0","mesh":18,"translation":[-2.6,0.62,-1.5],"scale":[0.12,1,0.12]},{"name":"panel-0-1","mesh":17,"translation":[0,1.12,-1.5],"rotation":[0.19116,0.039251,0.00765,0.980744],"scale":[2.2,0.12,1.6]},{"name":"panel-post-0-1","mesh":18,"translation":[0,0.62,-1.5],"scale":[0.12,1,0.12]},{"name":"panel-0-2","mesh":17,"translation":[2.6,1.12,-1.5],"rotation":[0.19116,0.039251,0.00765,0.980744],"scale":[2.2,0.12,1.6]},{"name":"panel-post-0-2","mesh":18,"translation":[2.6,0.62,-1.5],"scale":[0.12,1,0.12]},{"name":"panel-1-0","mesh":17,"translation":[-2.6,1.2,1.5],"rotation":[0.19116,0.039251,0.00765,0.980744],"scale":[2.2,0.12,1.6]},{"name":"panel-post-1-0","mesh":18,"translation":[-2.6,0.62,1.5],"scale":[0.12,1,0.12]},{"name":"panel-1-1","mesh":17,"translation":[0,1.2,1.5],"rotation":[0.19116,0.039251,0.00765,0.980744],"scale":[2.2,0.12,1.6]},{"name":"panel-post-1-1","mesh":18,"translation":[0,0.62,1.5],"scale":[0.12,1,0.12]},{"name":"panel-1-2","mesh":17,"translation":[2.6,1.2,1.5],"rotation":[0.19116,0.039251,0.00765,0.980744],"scale":[2.2,0.12,1.6]},{"name":"panel-post-1-2","mesh":18,"translation":[2.6,0.62,1.5],"scale":[0.12,1,0.12]},{"name":"inverter","mesh":19,"translation":[2.964,0.95,2.4],"scale":[1.8,1.6,1.1]},{"name":"solar-sign-back","mesh":9,"translation":[0,1.8,3.25],"scale":[3.6,0.9,1]},{"name":"solar-sign","mesh":10,"translation":[0,1.8,3.279],"scale":[3.5,0.8,1]}],"meshes":[{"primitives":[{"attributes":{"POSITION":0,"NORMAL":1,"TEXCOORD_0":2},"material":0,"mode":4}]},{"primitives":[{"attributes":{"POSITION":0,"NORMAL":1,"TEXCOORD_0":3},"material":0,"mode":4}]},{"primitives":[{"attributes":{"POSITION":4,"NORMAL":5,"TEXCOORD_0":6},"material":1,"mode":4,"indices":7}]},{"primitives":[{"attributes":{"POSITION":0,"NORMAL":1,"TEXCOORD_0":8},"material":2,"mode":4}]},{"primitives":[{"attributes":{"POSITION":0,"NORMAL":1,"TEXCOORD_0":9},"material":1,"mode":4}]},{"primitives":[{"attributes":{"POSITION":0,"NORMAL":1,"TEXCOORD_0":10},"material":3,"mode":4}]},{"primitives":[{"attributes":{"POSITION":0,"NORMAL":1,"TEXCOORD_0":11},"material":4,"mode":4}]},{"primitives":[{"attributes":{"POSITION":0,"NORMAL":1,"TEXCOORD_0":12},"material":2,"mode":4}]},{"primitives":[{"attributes":{"POSITION":13,"NORMAL":1,"TEXCOORD_0":14},"material":5,"mode":4}]},{"primitives":[{"attributes":{"POSITION":15,"NORMAL":16,"TEXCOORD_0":17},"material":6,"mode":4,"indices":18}]},{"primitives":[{"attributes":{"POSITION":19,"NORMAL":20,"TEXCOORD_0":21},"material":7,"mode":4,"indices":22}]},{"primitives":[{"attributes":{"POSITION":23,"NORMAL":16,"TEXCOORD_0":24},"material":0,"mode":4,"indices":18}]},{"primitives":[{"attributes":{"POSITION":23,"NORMAL":16,"TEXCOORD_0":25},"material":0,"mode":4,"indices":18}]},{"primitives":[{"attributes":{"POSITION":26,"NORMAL":27,"TEXCOORD_0":28},"material":1,"mode":4,"indices":29}]},{"primitives":[{"attributes":{"POSITION":23,"NORMAL":16,"TEXCOORD_0":30},"material":2,"mode":4,"indices":18}]},{"primitives":[{"attributes":{"POSITION":23,"NORMAL":16,"TEXCOORD_0":31},"material":1,"mode":4,"indices":18}]},{"primitives":[{"attributes":{"POSITION":23,"NORMAL":16,"TEXCOORD_0":32},"material":3,"mode":4,"indices":18}]},{"primitives":[{"attributes":{"POSITION":23,"NORMAL":16,"TEXCOORD_0":33},"material":4,"mode":4,"indices":18}]},{"primitives":[{"attributes":{"POSITION":23,"NORMAL":16,"TEXCOORD_0":34},"material":2,"mode":4,"indices":18}]},{"primitives":[{"attributes":{"POSITION":23,"NORMAL":16,"TEXCOORD_0":35},"material":5,"mode":4,"indices":18}]},{"primitives":[{"attributes":{"POSITION":23,"NORMAL":16,"TEXCOORD_0":36},"material":0,"mode":4,"indices":18}]},{"primitives":[{"attributes":{"POSITION":23,"NORMAL":16,"TEXCOORD_0":37},"material":0,"mode":4,"indices":18}]}],"materials":[{"name":"asphalt","pbrMetallicRoughness":{"baseColorTexture":{"index":0},"metallicRoughnessTexture":{"index":2},"roughnessFactor":1,"metallicFactor":1},"normalTexture":{"index":1,"scale":0.62},"occlusionTexture":{"index":2,"strength":0.35}},{"name":"paint-orange","pbrMetallicRoughness":{"baseColorFactor":[0.6444796819634361,0.1878207722902346,0.040915196900556984,1],"roughnessFactor":0.68,"metallicFactor":0.03}},{"name":"metal-galvanized","pbrMetallicRoughness":{"baseColorTexture":{"index":3},"metallicRoughnessTexture":{"index":5},"roughnessFactor":1,"metallicFactor":1},"normalTexture":{"index":4,"scale":0.15},"occlusionTexture":{"index":5,"strength":0.35}},{"name":"concrete","pbrMetallicRoughness":{"baseColorTexture":{"index":6},"metallicRoughnessTexture":{"index":8},"roughnessFactor":1,"metallicFactor":1},"normalTexture":{"index":7,"scale":0.82},"occlusionTexture":{"index":8,"strength":0.35}},{"name":"glass-blue","pbrMetallicRoughness":{"baseColorTexture":{"index":9},"metallicRoughnessTexture":{"index":11},"roughnessFactor":1,"metallicFactor":1},"normalTexture":{"index":10,"scale":0.12},"occlusionTexture":{"index":11,"strength":0.35}},{"name":"paint-white","pbrMetallicRoughness":{"baseColorFactor":[0.7912979403281551,0.7681511472425809,0.6795424696265424,1],"roughnessFactor":0.68,"metallicFactor":0}},{"name":"metal-dark","pbrMetallicRoughness":{"baseColorTexture":{"index":12},"metallicRoughnessTexture":{"index":14},"roughnessFactor":1,"metallicFactor":1},"normalTexture":{"index":13,"scale":0.35},"occlusionTexture":{"index":14,"strength":0.35}},{"name":"solar-farm signage","pbrMetallicRoughness":{"baseColorTexture":{"index":15},"roughnessFactor":1,"metallicFactor":0},"extensions":{"KHR_materials_unlit":{}}}],"textures":[{"source":0,"sampler":0},{"source":1,"sampler":0},{"source":2,"sampler":0},{"source":3,"sampler":0},{"source":4,"sampler":0},{"source":5,"sampler":0},{"source":6,"sampler":0},{"source":7,"sampler":0},{"source":8,"sampler":0},{"source":9,"sampler":0},{"source":10,"sampler":0},{"source":11,"sampler":0},{"source":12,"sampler":0},{"source":13,"sampler":0},{"source":14,"sampler":0},{"source":15,"sampler":0}],"images":[{"uri":"../textures/asphalt-albedo.png"},{"uri":"../textures/asphalt-normal.png"},{"uri":"../textures/asphalt-orm.png"},{"uri":"../textures/metal-galvanized-albedo.png"},{"uri":"../textures/metal-galvanized-normal.png"},{"uri":"../textures/metal-galvanized-orm.png"},{"uri":"../textures/concrete-albedo.png"},{"uri":"../textures/concrete-normal.png"},{"uri":"../textures/concrete-orm.png"},{"uri":"../textures/glass-blue-albedo.png"},{"uri":"../textures/glass-blue-normal.png"},{"uri":"../textures/glass-blue-orm.png"},{"uri":"../textures/metal-dark-albedo.png"},{"uri":"../textures/metal-dark-normal.png"},{"uri":"../textures/metal-dark-orm.png"},{"uri":"../signs/solar-farm.png"}],"samplers":[{"magFilter":9729,"minFilter":9987,"wrapS":10497,"wrapT":10497}],"buffers":[{"uri":"../shared/geometry.bin","byteLength":16435520}],"bufferViews":[{"buffer":0,"byteOffset":0,"byteLength":3888,"target":34962},{"buffer":0,"byteOffset":3888,"byteLength":3888,"target":34962},{"buffer":0,"byteOffset":13573036,"byteLength":2592,"target":34962},{"buffer":0,"byteOffset":13575628,"byteLength":2592,"target":34962},{"buffer":0,"byteOffset":12960,"byteLength":1200,"target":34962},{"buffer":0,"byteOffset":14160,"byteLength":1200,"target":34962},{"buffer":0,"byteOffset":179140,"byteLength":800,"target":34962},{"buffer":0,"byteOffset":16160,"byteLength":384,"target":34963},{"buffer":0,"byteOffset":179940,"byteLength":2592,"target":34962},{"buffer":0,"byteOffset":205668,"byteLength":2592,"target":34962},{"buffer":0,"byteOffset":208260,"byteLength":2592,"target":34962},{"buffer":0,"byteOffset":13480492,"byteLength":2592,"target":34962},{"buffer":0,"byteOffset":13483084,"byteLength":2592,"target":34962},{"buffer":0,"byteOffset":4875864,"byteLength":3888,"target":34962},{"buffer":0,"byteOffset":13485676,"byteLength":2592,"target":34962},{"buffer":0,"byteOffset":45664,"byteLength":288,"target":34962},{"buffer":0,"byteOffset":45952,"byteLength":288,"target":34962},{"buffer":0,"byteOffset":46240,"byteLength":192,"target":34962},{"buffer":0,"byteOffset":46432,"byteLength":72,"target":34963},{"buffer":0,"byteOffset":46504,"byteLength":48,"target":34962},{"buffer":0,"byteOffset":46552,"byteLength":48,"target":34962},{"buffer":0,"byteOffset":222852,"byteLength":32,"target":34962},{"buffer":0,"byteOffset":46632,"byteLength":12,"target":34963},{"buffer":0,"byteOffset":46644,"byteLength":288,"target":34962},{"buffer":0,"byteOffset":13578220,"byteLength":192,"target":34962},{"buffer":0,"byteOffset":13578412,"byteLength":192,"target":34962},{"buffer":0,"byteOffset":47316,"byteLength":480,"target":34962},{"buffer":0,"byteOffset":47796,"byteLength":480,"target":34962},{"buffer":0,"byteOffset":182756,"byteLength":320,"target":34962},{"buffer":0,"byteOffset":48596,"byteLength":144,"target":34963},{"buffer":0,"byteOffset":183076,"byteLength":192,"target":34962},{"buffer":0,"byteOffset":210884,"byteLength":192,"target":34962},{"buffer":0,"byteOffset":211076,"byteLength":192,"target":34962},{"buffer":0,"byteOffset":13488652,"byteLength":192,"target":34962},{"buffer":0,"byteOffset":13488844,"byteLength":192,"target":34962},{"buffer":0,"byteOffset":13489036,"byteLength":192,"target":34962},{"buffer":0,"byteOffset":13489228,"byteLength":192,"target":34962},{"buffer":0,"byteOffset":13578604,"byteLength":192,"target":34962}],"accessors":[{"bufferView":0,"componentType":5126,"count":324,"type":"VEC3","min":[-0.5,-0.5,-0.5],"max":[0.5,0.5,0.5]},{"bufferView":1,"componentType":5126,"count":324,"type":"VEC3"},{"bufferView":2,"componentType":5126,"count":324,"type":"VEC2"},{"bufferView":3,"componentType":5126,"count":324,"type":"VEC2"},{"bufferView":4,"componentType":5126,"count":100,"type":"VEC3","min":[-1,-0.5,-1],"max":[1,0.5,1]},{"bufferView":5,"componentType":5126,"count":100,"type":"VEC3"},{"bufferView":6,"componentType":5126,"count":100,"type":"VEC2"},{"bufferView":7,"componentType":5123,"count":192,"type":"SCALAR"},{"bufferView":8,"componentType":5126,"count":324,"type":"VEC2"},{"bufferView":9,"componentType":5126,"count":324,"type":"VEC2"},{"bufferView":10,"componentType":5126,"count":324,"type":"VEC2"},{"bufferView":11,"componentType":5126,"count":324,"type":"VEC2"},{"bufferView":12,"componentType":5126,"count":324,"type":"VEC2"},{"bufferView":13,"componentType":5126,"count":324,"type":"VEC3","min":[-0.5,-0.5,-0.5],"max":[0.5,0.5,0.5]},{"bufferView":14,"componentType":5126,"count":324,"type":"VEC2"},{"bufferView":15,"componentType":5126,"count":24,"type":"VEC3","min":[-0.5,-0.5,-0.02500000037252903],"max":[0.5,0.5,0.02500000037252903]},{"bufferView":16,"componentType":5126,"count":24,"type":"VEC3"},{"bufferView":17,"componentType":5126,"count":24,"type":"VEC2"},{"bufferView":18,"componentType":5123,"count":36,"type":"SCALAR"},{"bufferView":19,"componentType":5126,"count":4,"type":"VEC3","min":[-0.5,-0.5,0],"max":[0.5,0.5,0]},{"bufferView":20,"componentType":5126,"count":4,"type":"VEC3"},{"bufferView":21,"componentType":5126,"count":4,"type":"VEC2"},{"bufferView":22,"componentType":5123,"count":6,"type":"SCALAR"},{"bufferView":23,"componentType":5126,"count":24,"type":"VEC3","min":[-0.5,-0.5,-0.5],"max":[0.5,0.5,0.5]},{"bufferView":24,"componentType":5126,"count":24,"type":"VEC2"},{"bufferView":25,"componentType":5126,"count":24,"type":"VEC2"},{"bufferView":26,"componentType":5126,"count":40,"type":"VEC3","min":[-0.8660253882408142,-0.5,-1],"max":[0.8660253882408142,0.5,1]},{"bufferView":27,"componentType":5126,"count":40,"type":"VEC3"},{"bufferView":28,"componentType":5126,"count":40,"type":"VEC2"},{"bufferView":29,"componentType":5123,"count":72,"type":"SCALAR"},{"bufferView":30,"componentType":5126,"count":24,"type":"VEC2"},{"bufferView":31,"componentType":5126,"count":24,"type":"VEC2"},{"bufferView":32,"componentType":5126,"count":24,"type":"VEC2"},{"bufferView":33,"componentType":5126,"count":24,"type":"VEC2"},{"bufferView":34,"componentType":5126,"count":24,"type":"VEC2"},{"bufferView":35,"componentType":5126,"count":24,"type":"VEC2"},{"bufferView":36,"componentType":5126,"count":24,"type":"VEC2"},{"bufferView":37,"componentType":5126,"count":24,"type":"VEC2"}],"extensionsUsed":["KHR_materials_unlit"],"extras":{"id":"vlt-solar-farm-36","family":"solar-farm","variant":35,"plan":"D1-2","units":"metres","up":"+Y","front":"+Z","lodScenes":[0,1,2]}}