{"asset":{"version":"2.0","generator":"SLOPMERICA Department of Unnecessary Development 1.0"},"scene":0,"scenes":[{"name":"LOD 0","nodes":[0,1,2,3,4,5,6,7,8,9,10,11,12,13,14,15,16,17,18,19,20],"extras":{"level":0}},{"name":"LOD 1","nodes":[21,22,23,24,25,26,27,28,29,30,31,32,33,34,35,36,37,38,39,40,41],"extras":{"level":1}},{"name":"LOD 2","nodes":[42,43,44,45,46,47,48,49,50,51,52,53,54,55,56],"extras":{"level":2}}],"nodes":[{"name":"surveyed lot","mesh":0,"translation":[0,0.06,0],"scale":[17.6,0.12,19.36]},{"name":"five acre ranch house","mesh":1,"translation":[4,1.55,-3],"scale":[7,2.8,6.2]},{"name":"ranch roof right","mesh":2,"translation":[-1.925,3.923739,-3],"rotation":[0,0,0.227978,0.973666],"scale":[4.296623,0.16,6.8]},{"name":"ranch roof left","mesh":2,"translation":[1.925,3.923739,-3],"rotation":[0,0,-0.227978,0.973666],"scale":[4.296623,0.16,6.8]},{"name":"ranch roof end infill","mesh":3,"translation":[0,2.97,-3]},{"name":"white fence rail 0","mesh":4,"translation":[0,0.55,5.8],"scale":[18,0.11,0.11]},{"name":"white fence rail 1","mesh":4,"translation":[0,0.97,5.8],"scale":[18,0.11,0.11]},{"name":"white fence rail 2","mesh":4,"translation":[0,1.39,5.8],"scale":[18,0.11,0.11]},{"name":"white fence rail 3","mesh":4,"translation":[0,1.81,5.8],"scale":[18,0.11,0.11]},{"name":"white fence rail 4","mesh":4,"translation":[0,2.23,5.8],"scale":[18,0.11,0.11]},{"name":"post -9 0","mesh":5,"translation":[-9,0.9,5.8],"scale":[0.16,1.8,0.16]},{"name":"post -9 1","mesh":5,"translation":[-5.4,0.9,5.8],"scale":[0.16,1.8,0.16]},{"name":"post -9 2","mesh":5,"translation":[-1.8,0.9,5.8],"scale":[0.16,1.8,0.16]},{"name":"post -9 3","mesh":5,"translation":[1.8,0.9,5.8],"scale":[0.16,1.8,0.16]},{"name":"post -9 4","mesh":5,"translation":[5.4,0.9,5.8],"scale":[0.16,1.8,0.16]},{"name":"post -9 5","mesh":5,"translation":[9,0.9,5.8],"scale":[0.16,1.8,0.16]},{"name":"one horse body","mesh":6,"translation":[-4,1.2,-1],"scale":[1.1,1.1,2.2]},{"name":"one horse neck","mesh":7,"translation":[-4,2,0.7],"rotation":[0.309017,0,0,0.951057],"scale":[0.4,1.25,0.4]},{"name":"riding mower","mesh":8,"translation":[-1.8,0.5,3.2],"scale":[1.3,0.65,1.8]},{"name":"abandoned stable","mesh":9,"translation":[6,1.25,-5],"rotation":[0,0,-0.034993,0.999388],"scale":[4.7,2.5,4.3]},{"name":"stable roof","mesh":10,"translation":[6,2.62,-5],"rotation":[0,0,-0.059964,0.998201],"scale":[5.2,0.2,4.8]},{"name":"surveyed lot","mesh":11,"translation":[0,0.06,0],"scale":[17.6,0.12,19.36]},{"name":"five acre ranch house","mesh":12,"translation":[4,1.55,-3],"scale":[7,2.8,6.2]},{"name":"ranch roof right","mesh":13,"translation":[-1.925,3.923739,-3],"rotation":[0,0,0.227978,0.973666],"scale":[4.296623,0.16,6.8]},{"name":"ranch roof left","mesh":13,"translation":[1.925,3.923739,-3],"rotation":[0,0,-0.227978,0.973666],"scale":[4.296623,0.16,6.8]},{"name":"ranch roof end infill","mesh":3,"translation":[0,2.97,-3]},{"name":"white fence rail 0","mesh":14,"translation":[0,0.55,5.8],"scale":[18,0.11,0.11]},{"name":"white fence rail 1","mesh":14,"translation":[0,0.97,5.8],"scale":[18,0.11,0.11]},{"name":"white fence rail 2","mesh":14,"translation":[0,1.39,5.8],"scale":[18,0.11,0.11]},{"name":"white fence rail 3","mesh":14,"translation":[0,1.81,5.8],"scale":[18,0.11,0.11]},{"name":"white fence rail 4","mesh":14,"translation":[0,2.23,5.8],"scale":[18,0.11,0.11]},{"name":"post -9 0","mesh":15,"translation":[-9,0.9,5.8],"scale":[0.16,1.8,0.16]},{"name":"post -9 1","mesh":15,"translation":[-5.4,0.9,5.8],"scale":[0.16,1.8,0.16]},{"name":"post -9 2","mesh":15,"translation":[-1.8,0.9,5.8],"scale":[0.16,1.8,0.16]},{"name":"post -9 3","mesh":15,"translation":[1.8,0.9,5.8],"scale":[0.16,1.8,0.16]},{"name":"post -9 4","mesh":15,"translation":[5.4,0.9,5.8],"scale":[0.16,1.8,0.16]},{"name":"post -9 5","mesh":15,"translation":[9,0.9,5.8],"scale":[0.16,1.8,0.16]},{"name":"one horse body","mesh":16,"translation":[-4,1.2,-1],"scale":[1.1,1.1,2.2]},{"name":"one horse neck","mesh":17,"translation":[-4,2,0.7],"rotation":[0.309017,0,0,0.951057],"scale":[0.4,1.25,0.4]},{"name":"riding mower","mesh":18,"translation":[-1.8,0.5,3.2],"scale":[1.3,0.65,1.8]},{"name":"abandoned stable","mesh":19,"translation":[6,1.25,-5],"rotation":[0,0,-0.034993,0.999388],"scale":[4.7,2.5,4.3]},{"name":"stable roof","mesh":20,"translation":[6,2.62,-5],"rotation":[0,0,-0.059964,0.998201],"scale":[5.2,0.2,4.8]},{"name":"surveyed lot","mesh":11,"translation":[0,0.06,0],"scale":[17.6,0.12,19.36]},{"name":"five acre ranch house","mesh":12,"translation":[4,1.55,-3],"scale":[7,2.8,6.2]},{"name":"ranch roof right","mesh":13,"translation":[-1.925,3.923739,-3],"rotation":[0,0,0.227978,0.973666],"scale":[4.296623,0.16,6.8]},{"name":"ranch roof left","mesh":13,"translation":[1.925,3.923739,-3],"rotation":[0,0,-0.227978,0.973666],"scale":[4.296623,0.16,6.8]},{"name":"ranch roof end infill","mesh":3,"translation":[0,2.97,-3]},{"name":"white fence rail 0","mesh":14,"translation":[0,0.55,5.8],"scale":[18,0.11,0.11]},{"name":"white fence rail 1","mesh":14,"translation":[0,0.97,5.8],"scale":[18,0.11,0.11]},{"name":"post -9 0","mesh":15,"translation":[-9,0.9,5.8],"scale":[0.16,1.8,0.16]},{"name":"post -9 1","mesh":15,"translation":[-5.4,0.9,5.8],"scale":[0.16,1.8,0.16]},{"name":"post -9 2","mesh":15,"translation":[-1.8,0.9,5.8],"scale":[0.16,1.8,0.16]},{"name":"post -9 3","mesh":15,"translation":[1.8,0.9,5.8],"scale":[0.16,1.8,0.16]},{"name":"post -9 4","mesh":15,"translation":[5.4,0.9,5.8],"scale":[0.16,1.8,0.16]},{"name":"post -9 5","mesh":15,"translation":[9,0.9,5.8],"scale":[0.16,1.8,0.16]},{"name":"abandoned stable","mesh":19,"translation":[6,1.25,-5],"rotation":[0,0,-0.034993,0.999388],"scale":[4.7,2.5,4.3]},{"name":"stable roof","mesh":20,"translation":[6,2.62,-5],"rotation":[0,0,-0.059964,0.998201],"scale":[5.2,0.2,4.8]}],"meshes":[{"primitives":[{"attributes":{"POSITION":0,"NORMAL":1,"TEXCOORD_0":2},"material":0,"mode":4}]},{"primitives":[{"attributes":{"POSITION":0,"NORMAL":1,"TEXCOORD_0":3},"material":1,"mode":4}]},{"primitives":[{"attributes":{"POSITION":0,"NORMAL":1,"TEXCOORD_0":4},"material":2,"mode":4}]},{"primitives":[{"attributes":{"POSITION":5,"NORMAL":6,"TEXCOORD_0":7},"material":1,"mode":4}]},{"primitives":[{"attributes":{"POSITION":0,"NORMAL":1,"TEXCOORD_0":8},"material":3,"mode":4}]},{"primitives":[{"attributes":{"POSITION":0,"NORMAL":1,"TEXCOORD_0":9},"material":3,"mode":4}]},{"primitives":[{"attributes":{"POSITION":0,"NORMAL":1,"TEXCOORD_0":10},"material":4,"mode":4}]},{"primitives":[{"attributes":{"POSITION":11,"NORMAL":12,"TEXCOORD_0":13},"material":4,"mode":4,"indices":14}]},{"primitives":[{"attributes":{"POSITION":0,"NORMAL":1,"TEXCOORD_0":15},"material":5,"mode":4}]},{"primitives":[{"attributes":{"POSITION":16,"NORMAL":1,"TEXCOORD_0":17},"material":6,"mode":4}]},{"primitives":[{"attributes":{"POSITION":0,"NORMAL":1,"TEXCOORD_0":18},"material":2,"mode":4}]},{"primitives":[{"attributes":{"POSITION":19,"NORMAL":20,"TEXCOORD_0":21},"material":0,"mode":4,"indices":22}]},{"primitives":[{"attributes":{"POSITION":19,"NORMAL":20,"TEXCOORD_0":23},"material":1,"mode":4,"indices":22}]},{"primitives":[{"attributes":{"POSITION":19,"NORMAL":20,"TEXCOORD_0":24},"material":2,"mode":4,"indices":22}]},{"primitives":[{"attributes":{"POSITION":19,"NORMAL":20,"TEXCOORD_0":25},"material":3,"mode":4,"indices":22}]},{"primitives":[{"attributes":{"POSITION":19,"NORMAL":20,"TEXCOORD_0":26},"material":3,"mode":4,"indices":22}]},{"primitives":[{"attributes":{"POSITION":19,"NORMAL":20,"TEXCOORD_0":27},"material":4,"mode":4,"indices":22}]},{"primitives":[{"attributes":{"POSITION":28,"NORMAL":29,"TEXCOORD_0":30},"material":4,"mode":4,"indices":31}]},{"primitives":[{"attributes":{"POSITION":19,"NORMAL":20,"TEXCOORD_0":32},"material":5,"mode":4,"indices":22}]},{"primitives":[{"attributes":{"POSITION":19,"NORMAL":20,"TEXCOORD_0":33},"material":6,"mode":4,"indices":22}]},{"primitives":[{"attributes":{"POSITION":19,"NORMAL":20,"TEXCOORD_0":34},"material":2,"mode":4,"indices":22}]}],"materials":[{"name":"concrete","pbrMetallicRoughness":{"baseColorTexture":{"index":0},"metallicRoughnessTexture":{"index":2},"roughnessFactor":1,"metallicFactor":1},"normalTexture":{"index":1,"scale":0.82},"occlusionTexture":{"index":2,"strength":0.35}},{"name":"brick-red","pbrMetallicRoughness":{"baseColorTexture":{"index":3},"metallicRoughnessTexture":{"index":5},"roughnessFactor":1,"metallicFactor":1},"normalTexture":{"index":4,"scale":1.15},"occlusionTexture":{"index":5,"strength":0.35}},{"name":"roof-metal","pbrMetallicRoughness":{"baseColorTexture":{"index":6},"metallicRoughnessTexture":{"index":8},"roughnessFactor":1,"metallicFactor":1},"normalTexture":{"index":7,"scale":0.68},"occlusionTexture":{"index":8,"strength":0.35}},{"name":"paint-white","pbrMetallicRoughness":{"baseColorFactor":[0.7912979403281551,0.7681511472425809,0.6795424696265424,1],"roughnessFactor":0.68,"metallicFactor":0}},{"name":"bark","pbrMetallicRoughness":{"baseColorTexture":{"index":9},"metallicRoughnessTexture":{"index":11},"roughnessFactor":1,"metallicFactor":1},"normalTexture":{"index":10,"scale":1.35},"occlusionTexture":{"index":11,"strength":0.35}},{"name":"metal-copper","pbrMetallicRoughness":{"baseColorTexture":{"index":12},"metallicRoughnessTexture":{"index":14},"roughnessFactor":1,"metallicFactor":1},"normalTexture":{"index":13,"scale":0.7},"occlusionTexture":{"index":14,"strength":0.35}},{"name":"wood-oak","pbrMetallicRoughness":{"baseColorTexture":{"index":15},"metallicRoughnessTexture":{"index":17},"roughnessFactor":1,"metallicFactor":1},"normalTexture":{"index":16,"scale":1},"occlusionTexture":{"index":17,"strength":0.35}}],"textures":[{"source":0,"sampler":0},{"source":1,"sampler":0},{"source":2,"sampler":0},{"source":3,"sampler":0},{"source":4,"sampler":0},{"source":5,"sampler":0},{"source":6,"sampler":0},{"source":7,"sampler":0},{"source":8,"sampler":0},{"source":9,"sampler":0},{"source":10,"sampler":0},{"source":11,"sampler":0},{"source":12,"sampler":0},{"source":13,"sampler":0},{"source":14,"sampler":0},{"source":15,"sampler":0},{"source":16,"sampler":0},{"source":17,"sampler":0}],"images":[{"uri":"../textures/concrete-albedo.png"},{"uri":"../textures/concrete-normal.png"},{"uri":"../textures/concrete-orm.png"},{"uri":"../textures/brick-red-albedo.png"},{"uri":"../textures/brick-red-normal.png"},{"uri":"../textures/brick-red-orm.png"},{"uri":"../textures/roof-metal-albedo.png"},{"uri":"../textures/roof-metal-normal.png"},{"uri":"../textures/roof-metal-orm.png"},{"uri":"../textures/bark-albedo.png"},{"uri":"../textures/bark-normal.png"},{"uri":"../textures/bark-orm.png"},{"uri":"../textures/metal-copper-albedo.png"},{"uri":"../textures/metal-copper-normal.png"},{"uri":"../textures/metal-copper-orm.png"},{"uri":"../textures/wood-oak-albedo.png"},{"uri":"../textures/wood-oak-normal.png"},{"uri":"../textures/wood-oak-orm.png"}],"samplers":[{"magFilter":9729,"minFilter":9987,"wrapS":10497,"wrapT":10497}],"buffers":[{"uri":"../shared/geometry.bin","byteLength":16435520}],"bufferViews":[{"buffer":0,"byteOffset":0,"byteLength":3888,"target":34962},{"buffer":0,"byteOffset":3888,"byteLength":3888,"target":34962},{"buffer":0,"byteOffset":4806264,"byteLength":2592,"target":34962},{"buffer":0,"byteOffset":4691936,"byteLength":2592,"target":34962},{"buffer":0,"byteOffset":4694528,"byteLength":2592,"target":34962},{"buffer":0,"byteOffset":4697120,"byteLength":72,"target":34962},{"buffer":0,"byteOffset":608760,"byteLength":72,"target":34962},{"buffer":0,"byteOffset":4697192,"byteLength":48,"target":34962},{"buffer":0,"byteOffset":4697240,"byteLength":2592,"target":34962},{"buffer":0,"byteOffset":4699832,"byteLength":2592,"target":34962},{"buffer":0,"byteOffset":4702424,"byteLength":2592,"target":34962},{"buffer":0,"byteOffset":4705016,"byteLength":552,"target":34962},{"buffer":0,"byteOffset":4705568,"byteLength":552,"target":34962},{"buffer":0,"byteOffset":4706120,"byteLength":368,"target":34962},{"buffer":0,"byteOffset":3772292,"byteLength":168,"target":34963},{"buffer":0,"byteOffset":4867512,"byteLength":2592,"target":34962},{"buffer":0,"byteOffset":599616,"byteLength":3888,"target":34962},{"buffer":0,"byteOffset":4911480,"byteLength":2592,"target":34962},{"buffer":0,"byteOffset":4914072,"byteLength":2592,"target":34962},{"buffer":0,"byteOffset":46644,"byteLength":288,"target":34962},{"buffer":0,"byteOffset":45952,"byteLength":288,"target":34962},{"buffer":0,"byteOffset":4814040,"byteLength":192,"target":34962},{"buffer":0,"byteOffset":46432,"byteLength":72,"target":34963},{"buffer":0,"byteOffset":4718344,"byteLength":192,"target":34962},{"buffer":0,"byteOffset":4718536,"byteLength":192,"target":34962},{"buffer":0,"byteOffset":4718728,"byteLength":192,"target":34962},{"buffer":0,"byteOffset":4718920,"byteLength":192,"target":34962},{"buffer":0,"byteOffset":4719112,"byteLength":192,"target":34962},{"buffer":0,"byteOffset":4719304,"byteLength":480,"target":34962},{"buffer":0,"byteOffset":4719784,"byteLength":480,"target":34962},{"buffer":0,"byteOffset":4720264,"byteLength":320,"target":34962},{"buffer":0,"byteOffset":48596,"byteLength":144,"target":34963},{"buffer":0,"byteOffset":4875288,"byteLength":192,"target":34962},{"buffer":0,"byteOffset":4916664,"byteLength":192,"target":34962},{"buffer":0,"byteOffset":4916856,"byteLength":192,"target":34962}],"accessors":[{"bufferView":0,"componentType":5126,"count":324,"type":"VEC3","min":[-0.5,-0.5,-0.5],"max":[0.5,0.5,0.5]},{"bufferView":1,"componentType":5126,"count":324,"type":"VEC3"},{"bufferView":2,"componentType":5126,"count":324,"type":"VEC2"},{"bufferView":3,"componentType":5126,"count":324,"type":"VEC2"},{"bufferView":4,"componentType":5126,"count":324,"type":"VEC2"},{"bufferView":5,"componentType":5126,"count":6,"type":"VEC3","min":[-3.8499999046325684,0,-3.384999990463257],"max":[3.8499999046325684,1.9074777364730835,3.384999990463257]},{"bufferView":6,"componentType":5126,"count":6,"type":"VEC3"},{"bufferView":7,"componentType":5126,"count":6,"type":"VEC2"},{"bufferView":8,"componentType":5126,"count":324,"type":"VEC2"},{"bufferView":9,"componentType":5126,"count":324,"type":"VEC2"},{"bufferView":10,"componentType":5126,"count":324,"type":"VEC2"},{"bufferView":11,"componentType":5126,"count":46,"type":"VEC3","min":[-0.9749279022216797,-0.5,-0.9009688496589661],"max":[0.9749279022216797,0.5,1]},{"bufferView":12,"componentType":5126,"count":46,"type":"VEC3"},{"bufferView":13,"componentType":5126,"count":46,"type":"VEC2"},{"bufferView":14,"componentType":5123,"count":84,"type":"SCALAR"},{"bufferView":15,"componentType":5126,"count":324,"type":"VEC2"},{"bufferView":16,"componentType":5126,"count":324,"type":"VEC3","min":[-0.5,-0.5,-0.5],"max":[0.5,0.5,0.5]},{"bufferView":17,"componentType":5126,"count":324,"type":"VEC2"},{"bufferView":18,"componentType":5126,"count":324,"type":"VEC2"},{"bufferView":19,"componentType":5126,"count":24,"type":"VEC3","min":[-0.5,-0.5,-0.5],"max":[0.5,0.5,0.5]},{"bufferView":20,"componentType":5126,"count":24,"type":"VEC3"},{"bufferView":21,"componentType":5126,"count":24,"type":"VEC2"},{"bufferView":22,"componentType":5123,"count":36,"type":"SCALAR"},{"bufferView":23,"componentType":5126,"count":24,"type":"VEC2"},{"bufferView":24,"componentType":5126,"count":24,"type":"VEC2"},{"bufferView":25,"componentType":5126,"count":24,"type":"VEC2"},{"bufferView":26,"componentType":5126,"count":24,"type":"VEC2"},{"bufferView":27,"componentType":5126,"count":24,"type":"VEC2"},{"bufferView":28,"componentType":5126,"count":40,"type":"VEC3","min":[-0.8660253882408142,-0.5,-1],"max":[0.8660253882408142,0.5,1]},{"bufferView":29,"componentType":5126,"count":40,"type":"VEC3"},{"bufferView":30,"componentType":5126,"count":40,"type":"VEC2"},{"bufferView":31,"componentType":5123,"count":72,"type":"SCALAR"},{"bufferView":32,"componentType":5126,"count":24,"type":"VEC2"},{"bufferView":33,"componentType":5126,"count":24,"type":"VEC2"},{"bufferView":34,"componentType":5126,"count":24,"type":"VEC2"}],"extensionsUsed":["KHR_materials_unlit"],"extras":{"id":"vlt-five-acre-ranchette-31","family":"five-acre-ranchette","variant":30,"plan":"C1-2","units":"metres","up":"+Y","front":"+Z","lodScenes":[0,1,2]}}