{"asset":{"version":"2.0","generator":"SLOPMERICA Department of Unnecessary Development 1.0"},"scene":0,"scenes":[{"name":"LOD 0","nodes":[0,1,2,3,4,5,6,7,8,9,10,11,12,13,14,15,16,17,18,19,20,21,22,23,24,25,26,27,28,29,30,31],"extras":{"level":0}},{"name":"LOD 1","nodes":[32,33,34,35,36,37,38,39,40,41,42,43,44,45,46,47,48,49,50],"extras":{"level":1}},{"name":"LOD 2","nodes":[51,52,53,54,55,56,57,58,59,60],"extras":{"level":2}}],"nodes":[{"name":"foundation","mesh":0,"translation":[0,0.08,0],"scale":[14.52,0.16,10.64]},{"name":"store-shell","mesh":1,"translation":[0,1.624,0],"scale":[9.24,3.248,6.9208]},{"name":"roof-cap","mesh":2,"translation":[0,3.358,0],"scale":[9.49,0.22,7.1708]},{"name":"window-0","mesh":3,"translation":[-3.4188,1.42912,3.5154],"scale":[0.993548,1.45,0.09]},{"name":"window-1","mesh":3,"translation":[-2.05128,1.42912,3.5154],"scale":[0.993548,1.45,0.09]},{"name":"window-2","mesh":3,"translation":[-0.68376,1.42912,3.5154],"scale":[0.993548,1.45,0.09]},{"name":"window-3","mesh":3,"translation":[0.68376,1.42912,3.5154],"scale":[0.993548,1.45,0.09]},{"name":"window-4","mesh":3,"translation":[2.05128,1.42912,3.5154],"scale":[0.993548,1.45,0.09]},{"name":"window-5","mesh":3,"translation":[3.4188,1.42912,3.5154],"scale":[0.993548,1.45,0.09]},{"name":"door","mesh":4,"translation":[3.234,1.025,3.5304],"scale":[0.92,2.05,0.12]},{"name":"awning","mesh":5,"translation":[0,2.14368,3.9404],"rotation":[-0.039989,0,0,0.9992],"scale":[7.5768,0.18,1.05]},{"name":"mullion-0","mesh":6,"translation":[-2.9568,1.42912,3.5804],"scale":[0.08,1.55,0.12]},{"name":"mullion-1","mesh":6,"translation":[-0.9856,1.42912,3.5804],"scale":[0.08,1.55,0.12]},{"name":"mullion-2","mesh":6,"translation":[0.9856,1.42912,3.5804],"scale":[0.08,1.55,0.12]},{"name":"mullion-3","mesh":6,"translation":[2.9568,1.42912,3.5804],"scale":[0.08,1.55,0.12]},{"name":"primary-sign-back","mesh":7,"translation":[0,2.56592,3.6204],"scale":[5.8288,1.25,1]},{"name":"primary-sign","mesh":8,"translation":[0,2.56592,3.6494],"scale":[5.7288,1.15,1]},{"name":"giant-donut","mesh":9,"translation":[3.5728,5.51,1.266]},{"name":"sprinkle-0","mesh":10,"translation":[4.8228,5.51,1.766],"scale":[0.08,0.32,0.1]},{"name":"sprinkle-1","mesh":11,"translation":[4.248178,6.561839,1.766],"rotation":[0,0,0.479426,0.877583],"scale":[0.08,0.32,0.1]},{"name":"sprinkle-2","mesh":10,"translation":[3.052616,6.646622,1.766],"rotation":[0,0,0.841471,0.540302],"scale":[0.08,0.32,0.1]},{"name":"sprinkle-3","mesh":11,"translation":[2.335309,5.6864,1.766],"rotation":[0,0,0.997495,0.070737],"scale":[0.08,0.32,0.1]},{"name":"sprinkle-4","mesh":10,"translation":[2.755745,4.563997,1.766],"rotation":[0,0,0.909297,-0.416147],"scale":[0.08,0.32,0.1]},{"name":"sprinkle-5","mesh":11,"translation":[3.927378,4.311345,1.766],"rotation":[0,0,-0.598472,0.801144],"scale":[0.08,0.32,0.1]},{"name":"sprinkle-6","mesh":10,"translation":[4.773013,5.160731,1.766],"rotation":[0,0,-0.14112,0.989992],"scale":[0.08,0.32,0.1]},{"name":"sprinkle-7","mesh":11,"translation":[4.515178,6.331233,1.766],"rotation":[0,0,0.350783,0.936457],"scale":[0.08,0.32,0.1]},{"name":"busy-state-queue-bar","mesh":12,"translation":[0,0.65,5.3172],"scale":[8.8704,0.12,0.12]},{"name":"queue-car-0","mesh":13,"translation":[-3.696,0.34,5.908],"scale":[1.35,0.65,0.7]},{"name":"queue-car-1","mesh":14,"translation":[-1.848,0.34,6.5832],"scale":[1.35,0.65,0.7]},{"name":"queue-car-2","mesh":13,"translation":[0,0.34,5.908],"scale":[1.35,0.65,0.7]},{"name":"queue-car-3","mesh":14,"translation":[1.848,0.34,6.5832],"scale":[1.35,0.65,0.7]},{"name":"queue-car-4","mesh":13,"translation":[3.696,0.34,5.908],"scale":[1.35,0.65,0.7]},{"name":"foundation","mesh":15,"translation":[0,0.08,0],"scale":[14.52,0.16,10.64]},{"name":"store-shell","mesh":16,"translation":[0,1.624,0],"scale":[9.24,3.248,6.9208]},{"name":"roof-cap","mesh":17,"translation":[0,3.358,0],"scale":[9.49,0.22,7.1708]},{"name":"window-0","mesh":18,"translation":[-3.4188,1.42912,3.5154],"scale":[1.987097,1.45,0.09]},{"name":"window-1","mesh":18,"translation":[0,1.42912,3.5154],"scale":[1.987097,1.45,0.09]},{"name":"window-2","mesh":18,"translation":[3.4188,1.42912,3.5154],"scale":[1.987097,1.45,0.09]},{"name":"door","mesh":19,"translation":[3.234,1.025,3.5304],"scale":[0.92,2.05,0.12]},{"name":"awning","mesh":20,"translation":[0,2.14368,3.9404],"rotation":[-0.039989,0,0,0.9992],"scale":[7.5768,0.18,1.05]},{"name":"mullion-0","mesh":21,"translation":[-2.9568,1.42912,3.5804],"scale":[0.08,1.55,0.12]},{"name":"mullion-1","mesh":21,"translation":[-0.9856,1.42912,3.5804],"scale":[0.08,1.55,0.12]},{"name":"mullion-2","mesh":21,"translation":[0.9856,1.42912,3.5804],"scale":[0.08,1.55,0.12]},{"name":"mullion-3","mesh":21,"translation":[2.9568,1.42912,3.5804],"scale":[0.08,1.55,0.12]},{"name":"primary-sign-back","mesh":7,"translation":[0,2.56592,3.6204],"scale":[5.8288,1.25,1]},{"name":"primary-sign","mesh":8,"translation":[0,2.56592,3.6494],"scale":[5.7288,1.15,1]},{"name":"giant-donut","mesh":22,"translation":[3.5728,5.51,1.266]},{"name":"busy-state-queue-bar","mesh":23,"translation":[0,0.65,5.3172],"scale":[8.8704,0.12,0.12]},{"name":"queue-car-0","mesh":24,"translation":[-3.696,0.34,5.908],"scale":[1.35,0.65,0.7]},{"name":"queue-car-1","mesh":25,"translation":[-1.848,0.34,6.5832],"scale":[1.35,0.65,0.7]},{"name":"queue-car-2","mesh":24,"translation":[0,0.34,5.908],"scale":[1.35,0.65,0.7]},{"name":"foundation","mesh":15,"translation":[0,0.08,0],"scale":[14.52,0.16,10.64]},{"name":"store-shell","mesh":16,"translation":[0,1.624,0],"scale":[9.24,3.248,6.9208]},{"name":"roof-cap","mesh":17,"translation":[0,3.358,0],"scale":[9.49,0.22,7.1708]},{"name":"window-0","mesh":26,"translation":[0,1.42912,3.5154],"scale":[5.96129,1.45,0.09]},{"name":"door","mesh":19,"translation":[3.234,1.025,3.5304],"scale":[0.92,2.05,0.12]},{"name":"primary-sign-back","mesh":7,"translation":[0,2.56592,3.6204],"scale":[5.8288,1.25,1]},{"name":"primary-sign","mesh":8,"translation":[0,2.56592,3.6494],"scale":[5.7288,1.15,1]},{"name":"giant-donut","mesh":27,"translation":[3.5728,5.51,1.266]},{"name":"busy-state-queue-bar","mesh":23,"translation":[0,0.65,5.3172],"scale":[8.8704,0.12,0.12]},{"name":"queue-car-0","mesh":24,"translation":[-3.696,0.34,5.908],"scale":[1.35,0.65,0.7]}],"meshes":[{"primitives":[{"attributes":{"POSITION":0,"NORMAL":1,"TEXCOORD_0":2},"material":0,"mode":4}]},{"primitives":[{"attributes":{"POSITION":3,"NORMAL":1,"TEXCOORD_0":4},"material":1,"mode":4}]},{"primitives":[{"attributes":{"POSITION":0,"NORMAL":1,"TEXCOORD_0":5},"material":2,"mode":4}]},{"primitives":[{"attributes":{"POSITION":0,"NORMAL":1,"TEXCOORD_0":6},"material":3,"mode":4}]},{"primitives":[{"attributes":{"POSITION":0,"NORMAL":1,"TEXCOORD_0":7},"material":2,"mode":4}]},{"primitives":[{"attributes":{"POSITION":0,"NORMAL":1,"TEXCOORD_0":8},"material":4,"mode":4}]},{"primitives":[{"attributes":{"POSITION":0,"NORMAL":1,"TEXCOORD_0":9},"material":4,"mode":4}]},{"primitives":[{"attributes":{"POSITION":10,"NORMAL":11,"TEXCOORD_0":12},"material":2,"mode":4,"indices":13}]},{"primitives":[{"attributes":{"POSITION":14,"NORMAL":15,"TEXCOORD_0":16},"material":5,"mode":4,"indices":17}]},{"primitives":[{"attributes":{"POSITION":18,"NORMAL":19,"TEXCOORD_0":20},"material":4,"mode":4,"indices":21}]},{"primitives":[{"attributes":{"POSITION":0,"NORMAL":1,"TEXCOORD_0":22},"material":6,"mode":4}]},{"primitives":[{"attributes":{"POSITION":0,"NORMAL":1,"TEXCOORD_0":22},"material":7,"mode":4}]},{"primitives":[{"attributes":{"POSITION":0,"NORMAL":1,"TEXCOORD_0":23},"material":4,"mode":4}]},{"primitives":[{"attributes":{"POSITION":0,"NORMAL":1,"TEXCOORD_0":24},"material":8,"mode":4}]},{"primitives":[{"attributes":{"POSITION":0,"NORMAL":1,"TEXCOORD_0":24},"material":9,"mode":4}]},{"primitives":[{"attributes":{"POSITION":25,"NORMAL":11,"TEXCOORD_0":26},"material":0,"mode":4,"indices":13}]},{"primitives":[{"attributes":{"POSITION":25,"NORMAL":11,"TEXCOORD_0":27},"material":1,"mode":4,"indices":13}]},{"primitives":[{"attributes":{"POSITION":25,"NORMAL":11,"TEXCOORD_0":28},"material":2,"mode":4,"indices":13}]},{"primitives":[{"attributes":{"POSITION":25,"NORMAL":11,"TEXCOORD_0":29},"material":3,"mode":4,"indices":13}]},{"primitives":[{"attributes":{"POSITION":25,"NORMAL":11,"TEXCOORD_0":30},"material":2,"mode":4,"indices":13}]},{"primitives":[{"attributes":{"POSITION":25,"NORMAL":11,"TEXCOORD_0":31},"material":4,"mode":4,"indices":13}]},{"primitives":[{"attributes":{"POSITION":25,"NORMAL":11,"TEXCOORD_0":32},"material":4,"mode":4,"indices":13}]},{"primitives":[{"attributes":{"POSITION":33,"NORMAL":34,"TEXCOORD_0":35},"material":4,"mode":4,"indices":36}]},{"primitives":[{"attributes":{"POSITION":25,"NORMAL":11,"TEXCOORD_0":37},"material":4,"mode":4,"indices":13}]},{"primitives":[{"attributes":{"POSITION":25,"NORMAL":11,"TEXCOORD_0":38},"material":8,"mode":4,"indices":13}]},{"primitives":[{"attributes":{"POSITION":25,"NORMAL":11,"TEXCOORD_0":38},"material":9,"mode":4,"indices":13}]},{"primitives":[{"attributes":{"POSITION":25,"NORMAL":11,"TEXCOORD_0":39},"material":3,"mode":4,"indices":13}]},{"primitives":[{"attributes":{"POSITION":40,"NORMAL":41,"TEXCOORD_0":42},"material":4,"mode":4,"indices":43}]}],"materials":[{"name":"concrete","pbrMetallicRoughness":{"baseColorTexture":{"index":0},"metallicRoughnessTexture":{"index":2},"roughnessFactor":1,"metallicFactor":1},"normalTexture":{"index":1,"scale":0.82},"occlusionTexture":{"index":2,"strength":0.35}},{"name":"stucco-ivory","pbrMetallicRoughness":{"baseColorTexture":{"index":3},"metallicRoughnessTexture":{"index":5},"roughnessFactor":1,"metallicFactor":1},"normalTexture":{"index":4,"scale":0.5},"occlusionTexture":{"index":5,"strength":0.35}},{"name":"metal-dark","pbrMetallicRoughness":{"baseColorTexture":{"index":6},"metallicRoughnessTexture":{"index":8},"roughnessFactor":1,"metallicFactor":1},"normalTexture":{"index":7,"scale":0.35},"occlusionTexture":{"index":8,"strength":0.35}},{"name":"glass-blue","pbrMetallicRoughness":{"baseColorTexture":{"index":9},"metallicRoughnessTexture":{"index":11},"roughnessFactor":1,"metallicFactor":1},"normalTexture":{"index":10,"scale":0.12},"occlusionTexture":{"index":11,"strength":0.35}},{"name":"paint-orange","pbrMetallicRoughness":{"baseColorFactor":[0.6444796819634361,0.1878207722902346,0.040915196900556984,1],"roughnessFactor":0.68,"metallicFactor":0.03}},{"name":"donut-deposition signage","pbrMetallicRoughness":{"baseColorTexture":{"index":12},"roughnessFactor":1,"metallicFactor":0},"extensions":{"KHR_materials_unlit":{}}},{"name":"paint-white","pbrMetallicRoughness":{"baseColorFactor":[0.7912979403281551,0.7681511472425809,0.6795424696265424,1],"roughnessFactor":0.68,"metallicFactor":0}},{"name":"paint-teal","pbrMetallicRoughness":{"baseColorFactor":[0.040915196900556984,0.20507873637973145,0.1878207722902346,1],"roughnessFactor":0.59,"metallicFactor":0.05}},{"name":"paint-red","pbrMetallicRoughness":{"baseColorFactor":[0.46778379610254284,0.08021982030622662,0.05126945836711539,1],"roughnessFactor":0.62,"metallicFactor":0.05}},{"name":"paint-blue","pbrMetallicRoughness":{"baseColorFactor":[0.05126945836711539,0.10946171076915331,0.22696587349938613,1],"roughnessFactor":0.58,"metallicFactor":0.05}}],"textures":[{"source":0,"sampler":0},{"source":1,"sampler":0},{"source":2,"sampler":0},{"source":3,"sampler":0},{"source":4,"sampler":0},{"source":5,"sampler":0},{"source":6,"sampler":0},{"source":7,"sampler":0},{"source":8,"sampler":0},{"source":9,"sampler":0},{"source":10,"sampler":0},{"source":11,"sampler":0},{"source":12,"sampler":0}],"images":[{"uri":"../textures/concrete-albedo.png"},{"uri":"../textures/concrete-normal.png"},{"uri":"../textures/concrete-orm.png"},{"uri":"../textures/stucco-ivory-albedo.png"},{"uri":"../textures/stucco-ivory-normal.png"},{"uri":"../textures/stucco-ivory-orm.png"},{"uri":"../textures/metal-dark-albedo.png"},{"uri":"../textures/metal-dark-normal.png"},{"uri":"../textures/metal-dark-orm.png"},{"uri":"../textures/glass-blue-albedo.png"},{"uri":"../textures/glass-blue-normal.png"},{"uri":"../textures/glass-blue-orm.png"},{"uri":"../signs/donut-deposition.png"}],"samplers":[{"magFilter":9729,"minFilter":9987,"wrapS":10497,"wrapT":10497}],"buffers":[{"uri":"../shared/geometry.bin","byteLength":16435520}],"bufferViews":[{"buffer":0,"byteOffset":0,"byteLength":3888,"target":34962},{"buffer":0,"byteOffset":3888,"byteLength":3888,"target":34962},{"buffer":0,"byteOffset":4203216,"byteLength":2592,"target":34962},{"buffer":0,"byteOffset":822696,"byteLength":3888,"target":34962},{"buffer":0,"byteOffset":4205808,"byteLength":2592,"target":34962},{"buffer":0,"byteOffset":4208400,"byteLength":2592,"target":34962},{"buffer":0,"byteOffset":4072104,"byteLength":2592,"target":34962},{"buffer":0,"byteOffset":1428216,"byteLength":2592,"target":34962},{"buffer":0,"byteOffset":4074696,"byteLength":2592,"target":34962},{"buffer":0,"byteOffset":1433400,"byteLength":2592,"target":34962},{"buffer":0,"byteOffset":45664,"byteLength":288,"target":34962},{"buffer":0,"byteOffset":45952,"byteLength":288,"target":34962},{"buffer":0,"byteOffset":46240,"byteLength":192,"target":34962},{"buffer":0,"byteOffset":46432,"byteLength":72,"target":34963},{"buffer":0,"byteOffset":46504,"byteLength":48,"target":34962},{"buffer":0,"byteOffset":46552,"byteLength":48,"target":34962},{"buffer":0,"byteOffset":222948,"byteLength":32,"target":34962},{"buffer":0,"byteOffset":46632,"byteLength":12,"target":34963},{"buffer":0,"byteOffset":4077288,"byteLength":3132,"target":34962},{"buffer":0,"byteOffset":390704,"byteLength":3132,"target":34962},{"buffer":0,"byteOffset":393836,"byteLength":2088,"target":34962},{"buffer":0,"byteOffset":395924,"byteLength":2688,"target":34963},{"buffer":0,"byteOffset":4022616,"byteLength":2592,"target":34962},{"buffer":0,"byteOffset":580320,"byteLength":2592,"target":34962},{"buffer":0,"byteOffset":582912,"byteLength":2592,"target":34962},{"buffer":0,"byteOffset":46644,"byteLength":288,"target":34962},{"buffer":0,"byteOffset":4210992,"byteLength":192,"target":34962},{"buffer":0,"byteOffset":4211184,"byteLength":192,"target":34962},{"buffer":0,"byteOffset":4211376,"byteLength":192,"target":34962},{"buffer":0,"byteOffset":4080996,"byteLength":192,"target":34962},{"buffer":0,"byteOffset":1447128,"byteLength":192,"target":34962},{"buffer":0,"byteOffset":4081188,"byteLength":192,"target":34962},{"buffer":0,"byteOffset":1447512,"byteLength":192,"target":34962},{"buffer":0,"byteOffset":4081380,"byteLength":1428,"target":34962},{"buffer":0,"byteOffset":427996,"byteLength":1428,"target":34962},{"buffer":0,"byteOffset":429424,"byteLength":952,"target":34962},{"buffer":0,"byteOffset":430376,"byteLength":1152,"target":34963},{"buffer":0,"byteOffset":585504,"byteLength":192,"target":34962},{"buffer":0,"byteOffset":585696,"byteLength":192,"target":34962},{"buffer":0,"byteOffset":4082808,"byteLength":192,"target":34962},{"buffer":0,"byteOffset":4083000,"byteLength":660,"target":34962},{"buffer":0,"byteOffset":437788,"byteLength":660,"target":34962},{"buffer":0,"byteOffset":438448,"byteLength":440,"target":34962},{"buffer":0,"byteOffset":438888,"byteLength":480,"target":34963}],"accessors":[{"bufferView":0,"componentType":5126,"count":324,"type":"VEC3","min":[-0.5,-0.5,-0.5],"max":[0.5,0.5,0.5]},{"bufferView":1,"componentType":5126,"count":324,"type":"VEC3"},{"bufferView":2,"componentType":5126,"count":324,"type":"VEC2"},{"bufferView":3,"componentType":5126,"count":324,"type":"VEC3","min":[-0.5,-0.5,-0.5],"max":[0.5,0.5,0.5]},{"bufferView":4,"componentType":5126,"count":324,"type":"VEC2"},{"bufferView":5,"componentType":5126,"count":324,"type":"VEC2"},{"bufferView":6,"componentType":5126,"count":324,"type":"VEC2"},{"bufferView":7,"componentType":5126,"count":324,"type":"VEC2"},{"bufferView":8,"componentType":5126,"count":324,"type":"VEC2"},{"bufferView":9,"componentType":5126,"count":324,"type":"VEC2"},{"bufferView":10,"componentType":5126,"count":24,"type":"VEC3","min":[-0.5,-0.5,-0.02500000037252903],"max":[0.5,0.5,0.02500000037252903]},{"bufferView":11,"componentType":5126,"count":24,"type":"VEC3"},{"bufferView":12,"componentType":5126,"count":24,"type":"VEC2"},{"bufferView":13,"componentType":5123,"count":36,"type":"SCALAR"},{"bufferView":14,"componentType":5126,"count":4,"type":"VEC3","min":[-0.5,-0.5,0],"max":[0.5,0.5,0]},{"bufferView":15,"componentType":5126,"count":4,"type":"VEC3"},{"bufferView":16,"componentType":5126,"count":4,"type":"VEC2"},{"bufferView":17,"componentType":5123,"count":6,"type":"SCALAR"},{"bufferView":18,"componentType":5126,"count":261,"type":"VEC3","min":[-2.359999895095825,-2.359999895095825,-0.5199999809265137],"max":[2.359999895095825,2.359999895095825,0.5199999809265137]},{"bufferView":19,"componentType":5126,"count":261,"type":"VEC3"},{"bufferView":20,"componentType":5126,"count":261,"type":"VEC2"},{"bufferView":21,"componentType":5123,"count":1344,"type":"SCALAR"},{"bufferView":22,"componentType":5126,"count":324,"type":"VEC2"},{"bufferView":23,"componentType":5126,"count":324,"type":"VEC2"},{"bufferView":24,"componentType":5126,"count":324,"type":"VEC2"},{"bufferView":25,"componentType":5126,"count":24,"type":"VEC3","min":[-0.5,-0.5,-0.5],"max":[0.5,0.5,0.5]},{"bufferView":26,"componentType":5126,"count":24,"type":"VEC2"},{"bufferView":27,"componentType":5126,"count":24,"type":"VEC2"},{"bufferView":28,"componentType":5126,"count":24,"type":"VEC2"},{"bufferView":29,"componentType":5126,"count":24,"type":"VEC2"},{"bufferView":30,"componentType":5126,"count":24,"type":"VEC2"},{"bufferView":31,"componentType":5126,"count":24,"type":"VEC2"},{"bufferView":32,"componentType":5126,"count":24,"type":"VEC2"},{"bufferView":33,"componentType":5126,"count":119,"type":"VEC3","min":[-2.359999895095825,-2.359999895095825,-0.45033320784568787],"max":[2.359999895095825,2.359999895095825,0.45033320784568787]},{"bufferView":34,"componentType":5126,"count":119,"type":"VEC3"},{"bufferView":35,"componentType":5126,"count":119,"type":"VEC2"},{"bufferView":36,"componentType":5123,"count":576,"type":"SCALAR"},{"bufferView":37,"componentType":5126,"count":24,"type":"VEC2"},{"bufferView":38,"componentType":5126,"count":24,"type":"VEC2"},{"bufferView":39,"componentType":5126,"count":24,"type":"VEC2"},{"bufferView":40,"componentType":5126,"count":55,"type":"VEC3","min":[-2.359999895095825,-2.2444934844970703,-0.5199999809265137],"max":[2.359999895095825,2.2444934844970703,0.5199999809265137]},{"bufferView":41,"componentType":5126,"count":55,"type":"VEC3"},{"bufferView":42,"componentType":5126,"count":55,"type":"VEC2"},{"bufferView":43,"componentType":5123,"count":240,"type":"SCALAR"}],"extensionsUsed":["KHR_materials_unlit"],"extras":{"id":"vlt-donut-deposition-39","family":"donut-deposition","variant":38,"plan":"D4-2","units":"metres","up":"+Y","front":"+Z","lodScenes":[0,1,2]}}