{"asset":{"version":"2.0","generator":"SLOPMERICA Department of Unnecessary Development 1.0"},"scene":0,"scenes":[{"name":"LOD 0","nodes":[0,1,2,3,4,5,6,7,8,9,10,11,12,13,14,15,16,17,18,19,20,21],"extras":{"level":0}},{"name":"LOD 1","nodes":[22,23,24,25,26,27,28,29,30,31,32,33,34,35,36,37,38,39,40,41,42,43],"extras":{"level":1}},{"name":"LOD 2","nodes":[44,45,46,47,48,49,50,51,52,53,54,55],"extras":{"level":2}}],"nodes":[{"name":"surveyed lot","mesh":0,"translation":[0,0.06,0],"scale":[17.92,0.12,14.56]},{"name":"log cabin","mesh":1,"translation":[0,1.55,0],"scale":[6.944,2.8,7.616]},{"name":"rusted gable left","mesh":2,"translation":[-1.8735,3.928223,0],"rotation":[0,0,0.227978,0.973666],"scale":[4.181675,0.16,8.216]},{"name":"rusted gable right","mesh":2,"translation":[1.8735,3.928223,0],"rotation":[0,0,-0.227978,0.973666],"scale":[4.181675,0.16,8.216]},{"name":"rusted gable end infill","mesh":3,"translation":[0,3,0]},{"name":"porch","mesh":4,"translation":[0,0.48,4.708],"scale":[7.944,0.18,2.3]},{"name":"post -3.4720000000000004 0","mesh":5,"translation":[-3.472,1.4,4.808],"scale":[0.16,2.8,0.16]},{"name":"post -3.4720000000000004 1","mesh":5,"translation":[-2.0832,1.4,4.808],"scale":[0.16,2.8,0.16]},{"name":"post -3.4720000000000004 2","mesh":5,"translation":[-0.6944,1.4,4.808],"scale":[0.16,2.8,0.16]},{"name":"post -3.4720000000000004 3","mesh":5,"translation":[0.6944,1.4,4.808],"scale":[0.16,2.8,0.16]},{"name":"post -3.4720000000000004 4","mesh":5,"translation":[2.0832,1.4,4.808],"scale":[0.16,2.8,0.16]},{"name":"post -3.4720000000000004 5","mesh":5,"translation":[3.472,1.4,4.808],"scale":[0.16,2.8,0.16]},{"name":"junk car 0 body","mesh":6,"translation":[-6,0.45,-4.8],"scale":[1.8,0.45,3.6]},{"name":"junk car 0 cab","mesh":7,"translation":[-6,0.9,-4.95],"scale":[1.45,0.55,1.65]},{"name":"junk car 1 body","mesh":6,"translation":[-3.2,0.45,-2.6],"rotation":[0,0.114747,0,0.993395],"scale":[1.8,0.45,3.6]},{"name":"junk car 1 cab","mesh":7,"translation":[-3.2,0.9,-2.75],"rotation":[0,0.114747,0,0.993395],"scale":[1.45,0.55,1.65]},{"name":"junk car 2 body","mesh":6,"translation":[-0.4,0.45,-4.8],"rotation":[0,0.227978,0,0.973666],"scale":[1.8,0.45,3.6]},{"name":"junk car 2 cab","mesh":7,"translation":[-0.4,0.9,-4.95],"rotation":[0,0.227978,0,0.973666],"scale":[1.45,0.55,1.65]},{"name":"junk car 3 body","mesh":6,"translation":[2.4,0.45,-2.6],"rotation":[0,0.338197,0,0.941075],"scale":[1.8,0.45,3.6]},{"name":"junk car 3 cab","mesh":7,"translation":[2.4,0.9,-2.75],"rotation":[0,0.338197,0,0.941075],"scale":[1.45,0.55,1.65]},{"name":"trampoline rim","mesh":8,"translation":[5.3,0.8,3],"rotation":[0.707107,0,0,0.707107]},{"name":"burn barrel","mesh":9,"translation":[-5,0.5,3.8],"scale":[0.42,0.9,0.42]},{"name":"surveyed lot","mesh":10,"translation":[0,0.06,0],"scale":[17.92,0.12,14.56]},{"name":"log cabin","mesh":11,"translation":[0,1.55,0],"scale":[6.944,2.8,7.616]},{"name":"rusted gable left","mesh":12,"translation":[-1.8735,3.928223,0],"rotation":[0,0,0.227978,0.973666],"scale":[4.181675,0.16,8.216]},{"name":"rusted gable right","mesh":12,"translation":[1.8735,3.928223,0],"rotation":[0,0,-0.227978,0.973666],"scale":[4.181675,0.16,8.216]},{"name":"rusted gable end infill","mesh":3,"translation":[0,3,0]},{"name":"porch","mesh":13,"translation":[0,0.48,4.708],"scale":[7.944,0.18,2.3]},{"name":"post -3.4720000000000004 0","mesh":14,"translation":[-3.472,1.4,4.808],"scale":[0.16,2.8,0.16]},{"name":"post -3.4720000000000004 1","mesh":14,"translation":[-2.0832,1.4,4.808],"scale":[0.16,2.8,0.16]},{"name":"post -3.4720000000000004 2","mesh":14,"translation":[-0.6944,1.4,4.808],"scale":[0.16,2.8,0.16]},{"name":"post -3.4720000000000004 3","mesh":14,"translation":[0.6944,1.4,4.808],"scale":[0.16,2.8,0.16]},{"name":"post -3.4720000000000004 4","mesh":14,"translation":[2.0832,1.4,4.808],"scale":[0.16,2.8,0.16]},{"name":"post -3.4720000000000004 5","mesh":14,"translation":[3.472,1.4,4.808],"scale":[0.16,2.8,0.16]},{"name":"junk car 0 body","mesh":15,"translation":[-6,0.45,-4.8],"scale":[1.8,0.45,3.6]},{"name":"junk car 0 cab","mesh":16,"translation":[-6,0.9,-4.95],"scale":[1.45,0.55,1.65]},{"name":"junk car 1 body","mesh":15,"translation":[-3.2,0.45,-2.6],"rotation":[0,0.114747,0,0.993395],"scale":[1.8,0.45,3.6]},{"name":"junk car 1 cab","mesh":16,"translation":[-3.2,0.9,-2.75],"rotation":[0,0.114747,0,0.993395],"scale":[1.45,0.55,1.65]},{"name":"junk car 2 body","mesh":15,"translation":[-0.4,0.45,-4.8],"rotation":[0,0.227978,0,0.973666],"scale":[1.8,0.45,3.6]},{"name":"junk car 2 cab","mesh":16,"translation":[-0.4,0.9,-4.95],"rotation":[0,0.227978,0,0.973666],"scale":[1.45,0.55,1.65]},{"name":"junk car 3 body","mesh":15,"translation":[2.4,0.45,-2.6],"rotation":[0,0.338197,0,0.941075],"scale":[1.8,0.45,3.6]},{"name":"junk car 3 cab","mesh":16,"translation":[2.4,0.9,-2.75],"rotation":[0,0.338197,0,0.941075],"scale":[1.45,0.55,1.65]},{"name":"trampoline rim","mesh":17,"translation":[5.3,0.8,3],"rotation":[0.707107,0,0,0.707107]},{"name":"burn barrel","mesh":18,"translation":[-5,0.5,3.8],"scale":[0.42,0.9,0.42]},{"name":"surveyed lot","mesh":10,"translation":[0,0.06,0],"scale":[17.92,0.12,14.56]},{"name":"log cabin","mesh":11,"translation":[0,1.55,0],"scale":[6.944,2.8,7.616]},{"name":"rusted gable left","mesh":12,"translation":[-1.8735,3.928223,0],"rotation":[0,0,0.227978,0.973666],"scale":[4.181675,0.16,8.216]},{"name":"rusted gable right","mesh":12,"translation":[1.8735,3.928223,0],"rotation":[0,0,-0.227978,0.973666],"scale":[4.181675,0.16,8.216]},{"name":"rusted gable end infill","mesh":3,"translation":[0,3,0]},{"name":"porch","mesh":13,"translation":[0,0.48,4.708],"scale":[7.944,0.18,2.3]},{"name":"post -3.4720000000000004 0","mesh":14,"translation":[-3.472,1.4,4.808],"scale":[0.16,2.8,0.16]},{"name":"post -3.4720000000000004 1","mesh":14,"translation":[-2.0832,1.4,4.808],"scale":[0.16,2.8,0.16]},{"name":"post -3.4720000000000004 2","mesh":14,"translation":[-0.6944,1.4,4.808],"scale":[0.16,2.8,0.16]},{"name":"post -3.4720000000000004 3","mesh":14,"translation":[0.6944,1.4,4.808],"scale":[0.16,2.8,0.16]},{"name":"post -3.4720000000000004 4","mesh":14,"translation":[2.0832,1.4,4.808],"scale":[0.16,2.8,0.16]},{"name":"post -3.4720000000000004 5","mesh":14,"translation":[3.472,1.4,4.808],"scale":[0.16,2.8,0.16]}],"meshes":[{"primitives":[{"attributes":{"POSITION":0,"NORMAL":1,"TEXCOORD_0":2},"material":0,"mode":4}]},{"primitives":[{"attributes":{"POSITION":0,"NORMAL":1,"TEXCOORD_0":3},"material":1,"mode":4}]},{"primitives":[{"attributes":{"POSITION":0,"NORMAL":1,"TEXCOORD_0":4},"material":2,"mode":4}]},{"primitives":[{"attributes":{"POSITION":5,"NORMAL":6,"TEXCOORD_0":7},"material":1,"mode":4}]},{"primitives":[{"attributes":{"POSITION":0,"NORMAL":1,"TEXCOORD_0":8},"material":1,"mode":4}]},{"primitives":[{"attributes":{"POSITION":0,"NORMAL":1,"TEXCOORD_0":9},"material":1,"mode":4}]},{"primitives":[{"attributes":{"POSITION":0,"NORMAL":1,"TEXCOORD_0":10},"material":3,"mode":4}]},{"primitives":[{"attributes":{"POSITION":0,"NORMAL":1,"TEXCOORD_0":11},"material":4,"mode":4}]},{"primitives":[{"attributes":{"POSITION":12,"NORMAL":13,"TEXCOORD_0":14},"material":5,"mode":4,"indices":15}]},{"primitives":[{"attributes":{"POSITION":16,"NORMAL":17,"TEXCOORD_0":18},"material":3,"mode":4,"indices":19}]},{"primitives":[{"attributes":{"POSITION":20,"NORMAL":21,"TEXCOORD_0":22},"material":0,"mode":4,"indices":23}]},{"primitives":[{"attributes":{"POSITION":20,"NORMAL":21,"TEXCOORD_0":24},"material":1,"mode":4,"indices":23}]},{"primitives":[{"attributes":{"POSITION":20,"NORMAL":21,"TEXCOORD_0":25},"material":2,"mode":4,"indices":23}]},{"primitives":[{"attributes":{"POSITION":20,"NORMAL":21,"TEXCOORD_0":26},"material":1,"mode":4,"indices":23}]},{"primitives":[{"attributes":{"POSITION":20,"NORMAL":21,"TEXCOORD_0":27},"material":1,"mode":4,"indices":23}]},{"primitives":[{"attributes":{"POSITION":20,"NORMAL":21,"TEXCOORD_0":28},"material":3,"mode":4,"indices":23}]},{"primitives":[{"attributes":{"POSITION":20,"NORMAL":21,"TEXCOORD_0":29},"material":4,"mode":4,"indices":23}]},{"primitives":[{"attributes":{"POSITION":30,"NORMAL":31,"TEXCOORD_0":32},"material":5,"mode":4,"indices":33}]},{"primitives":[{"attributes":{"POSITION":34,"NORMAL":35,"TEXCOORD_0":36},"material":3,"mode":4,"indices":37}]}],"materials":[{"name":"concrete","pbrMetallicRoughness":{"baseColorTexture":{"index":0},"metallicRoughnessTexture":{"index":2},"roughnessFactor":1,"metallicFactor":1},"normalTexture":{"index":1,"scale":0.82},"occlusionTexture":{"index":2,"strength":0.35}},{"name":"wood-oak","pbrMetallicRoughness":{"baseColorTexture":{"index":3},"metallicRoughnessTexture":{"index":5},"roughnessFactor":1,"metallicFactor":1},"normalTexture":{"index":4,"scale":1},"occlusionTexture":{"index":5,"strength":0.35}},{"name":"roof-metal","pbrMetallicRoughness":{"baseColorTexture":{"index":6},"metallicRoughnessTexture":{"index":8},"roughnessFactor":1,"metallicFactor":1},"normalTexture":{"index":7,"scale":0.68},"occlusionTexture":{"index":8,"strength":0.35}},{"name":"metal-copper","pbrMetallicRoughness":{"baseColorTexture":{"index":9},"metallicRoughnessTexture":{"index":11},"roughnessFactor":1,"metallicFactor":1},"normalTexture":{"index":10,"scale":0.7},"occlusionTexture":{"index":11,"strength":0.35}},{"name":"glass-blue","pbrMetallicRoughness":{"baseColorTexture":{"index":12},"metallicRoughnessTexture":{"index":14},"roughnessFactor":1,"metallicFactor":1},"normalTexture":{"index":13,"scale":0.12},"occlusionTexture":{"index":14,"strength":0.35}},{"name":"metal-dark","pbrMetallicRoughness":{"baseColorTexture":{"index":15},"metallicRoughnessTexture":{"index":17},"roughnessFactor":1,"metallicFactor":1},"normalTexture":{"index":16,"scale":0.35},"occlusionTexture":{"index":17,"strength":0.35}}],"textures":[{"source":0,"sampler":0},{"source":1,"sampler":0},{"source":2,"sampler":0},{"source":3,"sampler":0},{"source":4,"sampler":0},{"source":5,"sampler":0},{"source":6,"sampler":0},{"source":7,"sampler":0},{"source":8,"sampler":0},{"source":9,"sampler":0},{"source":10,"sampler":0},{"source":11,"sampler":0},{"source":12,"sampler":0},{"source":13,"sampler":0},{"source":14,"sampler":0},{"source":15,"sampler":0},{"source":16,"sampler":0},{"source":17,"sampler":0}],"images":[{"uri":"../textures/concrete-albedo.png"},{"uri":"../textures/concrete-normal.png"},{"uri":"../textures/concrete-orm.png"},{"uri":"../textures/wood-oak-albedo.png"},{"uri":"../textures/wood-oak-normal.png"},{"uri":"../textures/wood-oak-orm.png"},{"uri":"../textures/roof-metal-albedo.png"},{"uri":"../textures/roof-metal-normal.png"},{"uri":"../textures/roof-metal-orm.png"},{"uri":"../textures/metal-copper-albedo.png"},{"uri":"../textures/metal-copper-normal.png"},{"uri":"../textures/metal-copper-orm.png"},{"uri":"../textures/glass-blue-albedo.png"},{"uri":"../textures/glass-blue-normal.png"},{"uri":"../textures/glass-blue-orm.png"},{"uri":"../textures/metal-dark-albedo.png"},{"uri":"../textures/metal-dark-normal.png"},{"uri":"../textures/metal-dark-orm.png"}],"samplers":[{"magFilter":9729,"minFilter":9987,"wrapS":10497,"wrapT":10497}],"buffers":[{"uri":"../shared/geometry.bin","byteLength":16435520}],"bufferViews":[{"buffer":0,"byteOffset":0,"byteLength":3888,"target":34962},{"buffer":0,"byteOffset":3888,"byteLength":3888,"target":34962},{"buffer":0,"byteOffset":6715128,"byteLength":2592,"target":34962},{"buffer":0,"byteOffset":6717720,"byteLength":2592,"target":34962},{"buffer":0,"byteOffset":6720312,"byteLength":2592,"target":34962},{"buffer":0,"byteOffset":6722904,"byteLength":72,"target":34962},{"buffer":0,"byteOffset":608760,"byteLength":72,"target":34962},{"buffer":0,"byteOffset":6722976,"byteLength":48,"target":34962},{"buffer":0,"byteOffset":6723024,"byteLength":2592,"target":34962},{"buffer":0,"byteOffset":6667448,"byteLength":2592,"target":34962},{"buffer":0,"byteOffset":6670040,"byteLength":2592,"target":34962},{"buffer":0,"byteOffset":6672632,"byteLength":2592,"target":34962},{"buffer":0,"byteOffset":6725616,"byteLength":3132,"target":34962},{"buffer":0,"byteOffset":390704,"byteLength":3132,"target":34962},{"buffer":0,"byteOffset":2835332,"byteLength":2088,"target":34962},{"buffer":0,"byteOffset":395924,"byteLength":2688,"target":34963},{"buffer":0,"byteOffset":6678356,"byteLength":768,"target":34962},{"buffer":0,"byteOffset":6679124,"byteLength":768,"target":34962},{"buffer":0,"byteOffset":6679892,"byteLength":512,"target":34962},{"buffer":0,"byteOffset":882248,"byteLength":240,"target":34963},{"buffer":0,"byteOffset":46644,"byteLength":288,"target":34962},{"buffer":0,"byteOffset":45952,"byteLength":288,"target":34962},{"buffer":0,"byteOffset":6728748,"byteLength":192,"target":34962},{"buffer":0,"byteOffset":46432,"byteLength":72,"target":34963},{"buffer":0,"byteOffset":6728940,"byteLength":192,"target":34962},{"buffer":0,"byteOffset":6729132,"byteLength":192,"target":34962},{"buffer":0,"byteOffset":6729324,"byteLength":192,"target":34962},{"buffer":0,"byteOffset":6681172,"byteLength":192,"target":34962},{"buffer":0,"byteOffset":6681364,"byteLength":192,"target":34962},{"buffer":0,"byteOffset":6681556,"byteLength":192,"target":34962},{"buffer":0,"byteOffset":6729516,"byteLength":1428,"target":34962},{"buffer":0,"byteOffset":427996,"byteLength":1428,"target":34962},{"buffer":0,"byteOffset":2864312,"byteLength":952,"target":34962},{"buffer":0,"byteOffset":430376,"byteLength":1152,"target":34963},{"buffer":0,"byteOffset":1112312,"byteLength":480,"target":34962},{"buffer":0,"byteOffset":1112792,"byteLength":480,"target":34962},{"buffer":0,"byteOffset":6683176,"byteLength":320,"target":34962},{"buffer":0,"byteOffset":48596,"byteLength":144,"target":34963}],"accessors":[{"bufferView":0,"componentType":5126,"count":324,"type":"VEC3","min":[-0.5,-0.5,-0.5],"max":[0.5,0.5,0.5]},{"bufferView":1,"componentType":5126,"count":324,"type":"VEC3"},{"bufferView":2,"componentType":5126,"count":324,"type":"VEC2"},{"bufferView":3,"componentType":5126,"count":324,"type":"VEC2"},{"bufferView":4,"componentType":5126,"count":324,"type":"VEC2"},{"bufferView":5,"componentType":5126,"count":6,"type":"VEC3","min":[-3.746999979019165,0,-4.0929999351501465],"max":[3.746999979019165,1.8564465045928955,4.0929999351501465]},{"bufferView":6,"componentType":5126,"count":6,"type":"VEC3"},{"bufferView":7,"componentType":5126,"count":6,"type":"VEC2"},{"bufferView":8,"componentType":5126,"count":324,"type":"VEC2"},{"bufferView":9,"componentType":5126,"count":324,"type":"VEC2"},{"bufferView":10,"componentType":5126,"count":324,"type":"VEC2"},{"bufferView":11,"componentType":5126,"count":324,"type":"VEC2"},{"bufferView":12,"componentType":5126,"count":261,"type":"VEC3","min":[-2.0799999237060547,-2.0799999237060547,-0.07999999821186066],"max":[2.0799999237060547,2.0799999237060547,0.07999999821186066]},{"bufferView":13,"componentType":5126,"count":261,"type":"VEC3"},{"bufferView":14,"componentType":5126,"count":261,"type":"VEC2"},{"bufferView":15,"componentType":5123,"count":1344,"type":"SCALAR"},{"bufferView":16,"componentType":5126,"count":64,"type":"VEC3","min":[-0.9510565400123596,-0.5,-1],"max":[0.9510565400123596,0.5,1]},{"bufferView":17,"componentType":5126,"count":64,"type":"VEC3"},{"bufferView":18,"componentType":5126,"count":64,"type":"VEC2"},{"bufferView":19,"componentType":5123,"count":120,"type":"SCALAR"},{"bufferView":20,"componentType":5126,"count":24,"type":"VEC3","min":[-0.5,-0.5,-0.5],"max":[0.5,0.5,0.5]},{"bufferView":21,"componentType":5126,"count":24,"type":"VEC3"},{"bufferView":22,"componentType":5126,"count":24,"type":"VEC2"},{"bufferView":23,"componentType":5123,"count":36,"type":"SCALAR"},{"bufferView":24,"componentType":5126,"count":24,"type":"VEC2"},{"bufferView":25,"componentType":5126,"count":24,"type":"VEC2"},{"bufferView":26,"componentType":5126,"count":24,"type":"VEC2"},{"bufferView":27,"componentType":5126,"count":24,"type":"VEC2"},{"bufferView":28,"componentType":5126,"count":24,"type":"VEC2"},{"bufferView":29,"componentType":5126,"count":24,"type":"VEC2"},{"bufferView":30,"componentType":5126,"count":119,"type":"VEC3","min":[-2.0799999237060547,-2.0799999237060547,-0.06928203254938126],"max":[2.0799999237060547,2.0799999237060547,0.06928203254938126]},{"bufferView":31,"componentType":5126,"count":119,"type":"VEC3"},{"bufferView":32,"componentType":5126,"count":119,"type":"VEC2"},{"bufferView":33,"componentType":5123,"count":576,"type":"SCALAR"},{"bufferView":34,"componentType":5126,"count":40,"type":"VEC3","min":[-0.8660253882408142,-0.5,-1],"max":[0.8660253882408142,0.5,1]},{"bufferView":35,"componentType":5126,"count":40,"type":"VEC3"},{"bufferView":36,"componentType":5126,"count":40,"type":"VEC2"},{"bufferView":37,"componentType":5123,"count":72,"type":"SCALAR"}],"extensionsUsed":["KHR_materials_unlit"],"extras":{"id":"vlt-holler-cabin-19","family":"holler-cabin","variant":18,"plan":"D4-1","units":"metres","up":"+Y","front":"+Z","lodScenes":[0,1,2]}}