{"asset":{"version":"2.0","generator":"SLOPMERICA Department of Unnecessary Development 1.0"},"scene":0,"scenes":[{"name":"LOD 0","nodes":[0,1,2,3,4,5,6,7,8,9,10,11,12,13,14,15,16],"extras":{"level":0}},{"name":"LOD 1","nodes":[17,18,19,20,21,22,23,24,25,26,27,28,29],"extras":{"level":1}},{"name":"LOD 2","nodes":[30,31,32,33,34,35,36,37,38,39],"extras":{"level":2}}],"nodes":[{"name":"foundation","mesh":0,"translation":[0,0.08,0],"scale":[20.2,0.16,14.745]},{"name":"subscription-hub","mesh":1,"translation":[0,3.12,0],"scale":[5.58,6.24,5.58]},{"name":"recurring-pod-0","mesh":2,"translation":[6.031779,1.15,0.721613],"rotation":[0,-0.084898,0,0.99639],"scale":[2,2.3,1.25]},{"name":"recurring-pod-1","mesh":3,"translation":[2.11921,1.15,4.001417],"rotation":[0,-0.571718,0,0.82045],"scale":[2,2.3,1.25]},{"name":"recurring-pod-2","mesh":4,"translation":[-3.912569,1.15,3.279804],"rotation":[0,0.905348,0,-0.424671],"scale":[2,2.3,1.25]},{"name":"recurring-pod-3","mesh":2,"translation":[-6.031779,1.15,-0.721613],"rotation":[0,0.99639,0,0.084898],"scale":[2,2.3,1.25]},{"name":"recurring-pod-4","mesh":3,"translation":[-2.11921,1.15,-4.001417],"rotation":[0,0.82045,0,0.571718],"scale":[2,2.3,1.25]},{"name":"recurring-pod-5","mesh":4,"translation":[3.912569,1.15,-3.279804],"rotation":[0,0.424671,0,0.905348],"scale":[2,2.3,1.25]},{"name":"recurring-arrow","mesh":5,"translation":[0,4.6176,0],"rotation":[0.707107,0,0,0.707107]},{"name":"subscription-sign-back","mesh":6,"translation":[0,3.432,4.0144],"scale":[3.9,1.1,1]},{"name":"subscription-sign","mesh":7,"translation":[0,3.432,4.0434],"scale":[3.8,1,1]},{"name":"busy-state-queue-bar","mesh":8,"translation":[0,0.65,7.90335],"scale":[12.96,0.12,0.12]},{"name":"queue-car-0","mesh":9,"translation":[-5.4,0.34,8.7815],"scale":[1.35,0.65,0.7]},{"name":"queue-car-1","mesh":10,"translation":[-2.7,0.34,9.7851],"scale":[1.35,0.65,0.7]},{"name":"queue-car-2","mesh":9,"translation":[0,0.34,8.7815],"scale":[1.35,0.65,0.7]},{"name":"queue-car-3","mesh":10,"translation":[2.7,0.34,9.7851],"scale":[1.35,0.65,0.7]},{"name":"queue-car-4","mesh":9,"translation":[5.4,0.34,8.7815],"scale":[1.35,0.65,0.7]},{"name":"foundation","mesh":11,"translation":[0,0.08,0],"scale":[20.2,0.16,14.745]},{"name":"subscription-hub","mesh":12,"translation":[0,3.12,0],"scale":[5.58,6.24,5.58]},{"name":"recurring-pod-0","mesh":13,"translation":[6.031779,1.15,0.721613],"rotation":[0,-0.084898,0,0.99639],"scale":[2,2.3,1.25]},{"name":"recurring-pod-1","mesh":14,"translation":[-1.035396,1.15,4.203815],"rotation":[0,-0.764586,0,0.644522],"scale":[2,2.3,1.25]},{"name":"recurring-pod-2","mesh":15,"translation":[-6.031779,1.15,-0.721613],"rotation":[0,0.99639,0,0.084898],"scale":[2,2.3,1.25]},{"name":"recurring-pod-3","mesh":13,"translation":[1.035396,1.15,-4.203815],"rotation":[0,0.644522,0,0.764586],"scale":[2,2.3,1.25]},{"name":"recurring-arrow","mesh":16,"translation":[0,4.6176,0],"rotation":[0.707107,0,0,0.707107]},{"name":"subscription-sign-back","mesh":6,"translation":[0,3.432,4.0144],"scale":[3.9,1.1,1]},{"name":"subscription-sign","mesh":7,"translation":[0,3.432,4.0434],"scale":[3.8,1,1]},{"name":"busy-state-queue-bar","mesh":17,"translation":[0,0.65,7.90335],"scale":[12.96,0.12,0.12]},{"name":"queue-car-0","mesh":18,"translation":[-5.4,0.34,8.7815],"scale":[1.35,0.65,0.7]},{"name":"queue-car-1","mesh":19,"translation":[-2.7,0.34,9.7851],"scale":[1.35,0.65,0.7]},{"name":"queue-car-2","mesh":18,"translation":[0,0.34,8.7815],"scale":[1.35,0.65,0.7]},{"name":"foundation","mesh":11,"translation":[0,0.08,0],"scale":[20.2,0.16,14.745]},{"name":"subscription-hub","mesh":20,"translation":[0,3.12,0],"scale":[5.58,6.24,5.58]},{"name":"recurring-pod-0","mesh":13,"translation":[6.031779,1.15,0.721613],"rotation":[0,-0.084898,0,0.99639],"scale":[2,2.3,1.25]},{"name":"recurring-pod-1","mesh":14,"translation":[-3.912569,1.15,3.279804],"rotation":[0,0.905348,0,-0.424671],"scale":[2,2.3,1.25]},{"name":"recurring-pod-2","mesh":15,"translation":[-2.11921,1.15,-4.001417],"rotation":[0,0.82045,0,0.571718],"scale":[2,2.3,1.25]},{"name":"recurring-arrow","mesh":21,"translation":[0,4.6176,0],"rotation":[0.707107,0,0,0.707107]},{"name":"subscription-sign-back","mesh":6,"translation":[0,3.432,4.0144],"scale":[3.9,1.1,1]},{"name":"subscription-sign","mesh":7,"translation":[0,3.432,4.0434],"scale":[3.8,1,1]},{"name":"busy-state-queue-bar","mesh":17,"translation":[0,0.65,7.90335],"scale":[12.96,0.12,0.12]},{"name":"queue-car-0","mesh":18,"translation":[-5.4,0.34,8.7815],"scale":[1.35,0.65,0.7]}],"meshes":[{"primitives":[{"attributes":{"POSITION":0,"NORMAL":1,"TEXCOORD_0":2},"material":0,"mode":4}]},{"primitives":[{"attributes":{"POSITION":3,"NORMAL":4,"TEXCOORD_0":5},"material":1,"mode":4,"indices":6}]},{"primitives":[{"attributes":{"POSITION":7,"NORMAL":1,"TEXCOORD_0":8},"material":2,"mode":4}]},{"primitives":[{"attributes":{"POSITION":7,"NORMAL":1,"TEXCOORD_0":8},"material":3,"mode":4}]},{"primitives":[{"attributes":{"POSITION":7,"NORMAL":1,"TEXCOORD_0":8},"material":4,"mode":4}]},{"primitives":[{"attributes":{"POSITION":9,"NORMAL":10,"TEXCOORD_0":11},"material":3,"mode":4,"indices":12}]},{"primitives":[{"attributes":{"POSITION":13,"NORMAL":14,"TEXCOORD_0":15},"material":1,"mode":4,"indices":16}]},{"primitives":[{"attributes":{"POSITION":17,"NORMAL":18,"TEXCOORD_0":19},"material":5,"mode":4,"indices":20}]},{"primitives":[{"attributes":{"POSITION":0,"NORMAL":1,"TEXCOORD_0":21},"material":3,"mode":4}]},{"primitives":[{"attributes":{"POSITION":0,"NORMAL":1,"TEXCOORD_0":22},"material":6,"mode":4}]},{"primitives":[{"attributes":{"POSITION":0,"NORMAL":1,"TEXCOORD_0":22},"material":4,"mode":4}]},{"primitives":[{"attributes":{"POSITION":23,"NORMAL":14,"TEXCOORD_0":24},"material":0,"mode":4,"indices":16}]},{"primitives":[{"attributes":{"POSITION":25,"NORMAL":26,"TEXCOORD_0":27},"material":1,"mode":4,"indices":28}]},{"primitives":[{"attributes":{"POSITION":23,"NORMAL":14,"TEXCOORD_0":29},"material":2,"mode":4,"indices":16}]},{"primitives":[{"attributes":{"POSITION":23,"NORMAL":14,"TEXCOORD_0":29},"material":3,"mode":4,"indices":16}]},{"primitives":[{"attributes":{"POSITION":23,"NORMAL":14,"TEXCOORD_0":29},"material":4,"mode":4,"indices":16}]},{"primitives":[{"attributes":{"POSITION":30,"NORMAL":31,"TEXCOORD_0":32},"material":3,"mode":4,"indices":33}]},{"primitives":[{"attributes":{"POSITION":23,"NORMAL":14,"TEXCOORD_0":34},"material":3,"mode":4,"indices":16}]},{"primitives":[{"attributes":{"POSITION":23,"NORMAL":14,"TEXCOORD_0":35},"material":6,"mode":4,"indices":16}]},{"primitives":[{"attributes":{"POSITION":23,"NORMAL":14,"TEXCOORD_0":35},"material":4,"mode":4,"indices":16}]},{"primitives":[{"attributes":{"POSITION":36,"NORMAL":37,"TEXCOORD_0":38},"material":1,"mode":4,"indices":39}]},{"primitives":[{"attributes":{"POSITION":40,"NORMAL":41,"TEXCOORD_0":42},"material":3,"mode":4,"indices":43}]}],"materials":[{"name":"concrete","pbrMetallicRoughness":{"baseColorTexture":{"index":0},"metallicRoughnessTexture":{"index":2},"roughnessFactor":1,"metallicFactor":1},"normalTexture":{"index":1,"scale":0.82},"occlusionTexture":{"index":2,"strength":0.35}},{"name":"metal-dark","pbrMetallicRoughness":{"baseColorTexture":{"index":3},"metallicRoughnessTexture":{"index":5},"roughnessFactor":1,"metallicFactor":1},"normalTexture":{"index":4,"scale":0.35},"occlusionTexture":{"index":5,"strength":0.35}},{"name":"paint-teal","pbrMetallicRoughness":{"baseColorFactor":[0.040915196900556984,0.20507873637973145,0.1878207722902346,1],"roughnessFactor":0.59,"metallicFactor":0.05}},{"name":"paint-orange","pbrMetallicRoughness":{"baseColorFactor":[0.6444796819634361,0.1878207722902346,0.040915196900556984,1],"roughnessFactor":0.68,"metallicFactor":0.03}},{"name":"paint-blue","pbrMetallicRoughness":{"baseColorFactor":[0.05126945836711539,0.10946171076915331,0.22696587349938613,1],"roughnessFactor":0.58,"metallicFactor":0.05}},{"name":"subscription-station signage","pbrMetallicRoughness":{"baseColorTexture":{"index":6},"roughnessFactor":1,"metallicFactor":0},"extensions":{"KHR_materials_unlit":{}}},{"name":"paint-red","pbrMetallicRoughness":{"baseColorFactor":[0.46778379610254284,0.08021982030622662,0.05126945836711539,1],"roughnessFactor":0.62,"metallicFactor":0.05}}],"textures":[{"source":0,"sampler":0},{"source":1,"sampler":0},{"source":2,"sampler":0},{"source":3,"sampler":0},{"source":4,"sampler":0},{"source":5,"sampler":0},{"source":6,"sampler":0}],"images":[{"uri":"../textures/concrete-albedo.png"},{"uri":"../textures/concrete-normal.png"},{"uri":"../textures/concrete-orm.png"},{"uri":"../textures/metal-dark-albedo.png"},{"uri":"../textures/metal-dark-normal.png"},{"uri":"../textures/metal-dark-orm.png"},{"uri":"../signs/subscription-station.png"}],"samplers":[{"magFilter":9729,"minFilter":9987,"wrapS":10497,"wrapT":10497}],"buffers":[{"uri":"../shared/geometry.bin","byteLength":16435520}],"bufferViews":[{"buffer":0,"byteOffset":0,"byteLength":3888,"target":34962},{"buffer":0,"byteOffset":3888,"byteLength":3888,"target":34962},{"buffer":0,"byteOffset":13937860,"byteLength":2592,"target":34962},{"buffer":0,"byteOffset":13869004,"byteLength":1200,"target":34962},{"buffer":0,"byteOffset":13870204,"byteLength":1200,"target":34962},{"buffer":0,"byteOffset":13919776,"byteLength":800,"target":34962},{"buffer":0,"byteOffset":16160,"byteLength":384,"target":34963},{"buffer":0,"byteOffset":4709080,"byteLength":3888,"target":34962},{"buffer":0,"byteOffset":13872204,"byteLength":2592,"target":34962},{"buffer":0,"byteOffset":13920576,"byteLength":3132,"target":34962},{"buffer":0,"byteOffset":13877928,"byteLength":3132,"target":34962},{"buffer":0,"byteOffset":393836,"byteLength":2088,"target":34962},{"buffer":0,"byteOffset":395924,"byteLength":2688,"target":34963},{"buffer":0,"byteOffset":45664,"byteLength":288,"target":34962},{"buffer":0,"byteOffset":45952,"byteLength":288,"target":34962},{"buffer":0,"byteOffset":46240,"byteLength":192,"target":34962},{"buffer":0,"byteOffset":46432,"byteLength":72,"target":34963},{"buffer":0,"byteOffset":46504,"byteLength":48,"target":34962},{"buffer":0,"byteOffset":46552,"byteLength":48,"target":34962},{"buffer":0,"byteOffset":222660,"byteLength":32,"target":34962},{"buffer":0,"byteOffset":46632,"byteLength":12,"target":34963},{"buffer":0,"byteOffset":2826824,"byteLength":2592,"target":34962},{"buffer":0,"byteOffset":582912,"byteLength":2592,"target":34962},{"buffer":0,"byteOffset":46644,"byteLength":288,"target":34962},{"buffer":0,"byteOffset":13940452,"byteLength":192,"target":34962},{"buffer":0,"byteOffset":13881252,"byteLength":624,"target":34962},{"buffer":0,"byteOffset":13881876,"byteLength":624,"target":34962},{"buffer":0,"byteOffset":13923900,"byteLength":416,"target":34962},{"buffer":0,"byteOffset":1111736,"byteLength":192,"target":34963},{"buffer":0,"byteOffset":13882916,"byteLength":192,"target":34962},{"buffer":0,"byteOffset":13924316,"byteLength":1428,"target":34962},{"buffer":0,"byteOffset":13884536,"byteLength":1428,"target":34962},{"buffer":0,"byteOffset":429424,"byteLength":952,"target":34962},{"buffer":0,"byteOffset":430376,"byteLength":1152,"target":34963},{"buffer":0,"byteOffset":2829416,"byteLength":192,"target":34962},{"buffer":0,"byteOffset":585696,"byteLength":192,"target":34962},{"buffer":0,"byteOffset":13885964,"byteLength":480,"target":34962},{"buffer":0,"byteOffset":13886444,"byteLength":480,"target":34962},{"buffer":0,"byteOffset":13925744,"byteLength":320,"target":34962},{"buffer":0,"byteOffset":48596,"byteLength":144,"target":34963},{"buffer":0,"byteOffset":13926064,"byteLength":660,"target":34962},{"buffer":0,"byteOffset":13887904,"byteLength":660,"target":34962},{"buffer":0,"byteOffset":438448,"byteLength":440,"target":34962},{"buffer":0,"byteOffset":438888,"byteLength":480,"target":34963}],"accessors":[{"bufferView":0,"componentType":5126,"count":324,"type":"VEC3","min":[-0.5,-0.5,-0.5],"max":[0.5,0.5,0.5]},{"bufferView":1,"componentType":5126,"count":324,"type":"VEC3"},{"bufferView":2,"componentType":5126,"count":324,"type":"VEC2"},{"bufferView":3,"componentType":5126,"count":100,"type":"VEC3","min":[-1,-0.5,-1],"max":[1,0.5,1]},{"bufferView":4,"componentType":5126,"count":100,"type":"VEC3"},{"bufferView":5,"componentType":5126,"count":100,"type":"VEC2"},{"bufferView":6,"componentType":5123,"count":192,"type":"SCALAR"},{"bufferView":7,"componentType":5126,"count":324,"type":"VEC3","min":[-0.5,-0.5,-0.5],"max":[0.5,0.5,0.5]},{"bufferView":8,"componentType":5126,"count":324,"type":"VEC2"},{"bufferView":9,"componentType":5126,"count":261,"type":"VEC3","min":[-6.45391321182251,-6.469805717468262,-0.18000000715255737],"max":[6.480000019073486,6.473474979400635,0.18000000715255737]},{"bufferView":10,"componentType":5126,"count":261,"type":"VEC3"},{"bufferView":11,"componentType":5126,"count":261,"type":"VEC2"},{"bufferView":12,"componentType":5123,"count":1344,"type":"SCALAR"},{"bufferView":13,"componentType":5126,"count":24,"type":"VEC3","min":[-0.5,-0.5,-0.02500000037252903],"max":[0.5,0.5,0.02500000037252903]},{"bufferView":14,"componentType":5126,"count":24,"type":"VEC3"},{"bufferView":15,"componentType":5126,"count":24,"type":"VEC2"},{"bufferView":16,"componentType":5123,"count":36,"type":"SCALAR"},{"bufferView":17,"componentType":5126,"count":4,"type":"VEC3","min":[-0.5,-0.5,0],"max":[0.5,0.5,0]},{"bufferView":18,"componentType":5126,"count":4,"type":"VEC3"},{"bufferView":19,"componentType":5126,"count":4,"type":"VEC2"},{"bufferView":20,"componentType":5123,"count":6,"type":"SCALAR"},{"bufferView":21,"componentType":5126,"count":324,"type":"VEC2"},{"bufferView":22,"componentType":5126,"count":324,"type":"VEC2"},{"bufferView":23,"componentType":5126,"count":24,"type":"VEC3","min":[-0.5,-0.5,-0.5],"max":[0.5,0.5,0.5]},{"bufferView":24,"componentType":5126,"count":24,"type":"VEC2"},{"bufferView":25,"componentType":5126,"count":52,"type":"VEC3","min":[-1,-0.5,-1],"max":[1,0.5,1]},{"bufferView":26,"componentType":5126,"count":52,"type":"VEC3"},{"bufferView":27,"componentType":5126,"count":52,"type":"VEC2"},{"bufferView":28,"componentType":5123,"count":96,"type":"SCALAR"},{"bufferView":29,"componentType":5126,"count":24,"type":"VEC2"},{"bufferView":30,"componentType":5126,"count":119,"type":"VEC3","min":[-6.41888952255249,-6.475004196166992,-0.15588457882404327],"max":[6.480000019073486,6.448797225952148,0.15588457882404327]},{"bufferView":31,"componentType":5126,"count":119,"type":"VEC3"},{"bufferView":32,"componentType":5126,"count":119,"type":"VEC2"},{"bufferView":33,"componentType":5123,"count":576,"type":"SCALAR"},{"bufferView":34,"componentType":5126,"count":24,"type":"VEC2"},{"bufferView":35,"componentType":5126,"count":24,"type":"VEC2"},{"bufferView":36,"componentType":5126,"count":40,"type":"VEC3","min":[-0.8660253882408142,-0.5,-1],"max":[0.8660253882408142,0.5,1]},{"bufferView":37,"componentType":5126,"count":40,"type":"VEC3"},{"bufferView":38,"componentType":5126,"count":40,"type":"VEC2"},{"bufferView":39,"componentType":5123,"count":72,"type":"SCALAR"},{"bufferView":40,"componentType":5126,"count":55,"type":"VEC3","min":[-6.467213153839111,-6.451241493225098,-0.18000000715255737],"max":[6.480000019073486,6.476802349090576,0.18000000715255737]},{"bufferView":41,"componentType":5126,"count":55,"type":"VEC3"},{"bufferView":42,"componentType":5126,"count":55,"type":"VEC2"},{"bufferView":43,"componentType":5123,"count":240,"type":"SCALAR"}],"extensionsUsed":["KHR_materials_unlit"],"extras":{"id":"vlt-subscription-station-30","family":"subscription-station","variant":29,"plan":"B5-2","units":"metres","up":"+Y","front":"+Z","lodScenes":[0,1,2]}}