{"asset":{"version":"2.0","generator":"SLOPMERICA Department of Unnecessary Development 1.0"},"scene":0,"scenes":[{"name":"LOD 0","nodes":[0,1,2,3,4,5,6,7,8,9,10,11,12,13,14,15,16,17,18,19,20,21],"extras":{"level":0}},{"name":"LOD 1","nodes":[22,23,24,25,26,27,28,29,30,31,32,33,34,35,36,37,38,39],"extras":{"level":1}},{"name":"LOD 2","nodes":[40,41,42,43,44,45,46,47,48],"extras":{"level":2}}],"nodes":[{"name":"foundation","mesh":0,"translation":[0,0.08,0],"scale":[14.52,0.16,14.32]},{"name":"dispatch-base","mesh":1,"translation":[0,1.3818,0],"scale":[7.1456,2.7636,8.484]},{"name":"dispatch-tower","mesh":2,"translation":[0,6.1194,0],"scale":[1.65,10.199,1.65]},{"name":"signal-0","mesh":3,"translation":[0,10.857,0],"rotation":[0.707107,0,0,0.707107]},{"name":"signal-1","mesh":4,"translation":[0,11.037,0],"rotation":[0.707107,0,0,0.707107]},{"name":"signal-2","mesh":5,"translation":[0,11.217,0],"rotation":[0.707107,0,0,0.707107]},{"name":"signal-3","mesh":6,"translation":[0,11.397,0],"rotation":[0.707107,0,0,0.707107]},{"name":"antenna","mesh":7,"translation":[0,0,0]},{"name":"scooter-0","mesh":8,"translation":[-2,0.45,6.666],"scale":[0.9,0.35,0.32]},{"name":"scooter-wheel-0","mesh":9,"translation":[-2,0.36,8.7264],"rotation":[0,0.707107,0,0.707107]},{"name":"scooter-1","mesh":10,"translation":[0,0.45,6.666],"scale":[0.9,0.35,0.32]},{"name":"scooter-wheel-1","mesh":9,"translation":[0,0.36,8.7264],"rotation":[0,0.707107,0,0.707107]},{"name":"scooter-2","mesh":8,"translation":[2,0.45,6.666],"scale":[0.9,0.35,0.32]},{"name":"scooter-wheel-2","mesh":9,"translation":[2,0.36,8.7264],"rotation":[0,0.707107,0,0.707107]},{"name":"dispatch-sign-back","mesh":11,"translation":[0,2.2372,4.3632],"scale":[5.2744,1.1,1]},{"name":"dispatch-sign","mesh":12,"translation":[0,2.2372,4.3922],"scale":[5.1744,1,1]},{"name":"busy-state-queue-bar","mesh":13,"translation":[0,0.65,7.6356],"scale":[8.8704,0.12,0.12]},{"name":"queue-car-0","mesh":14,"translation":[-3.696,0.34,8.484],"scale":[1.35,0.65,0.7]},{"name":"queue-car-1","mesh":15,"translation":[-1.848,0.34,9.4536],"scale":[1.35,0.65,0.7]},{"name":"queue-car-2","mesh":14,"translation":[0,0.34,8.484],"scale":[1.35,0.65,0.7]},{"name":"queue-car-3","mesh":15,"translation":[1.848,0.34,9.4536],"scale":[1.35,0.65,0.7]},{"name":"queue-car-4","mesh":14,"translation":[3.696,0.34,8.484],"scale":[1.35,0.65,0.7]},{"name":"foundation","mesh":16,"translation":[0,0.08,0],"scale":[14.52,0.16,14.32]},{"name":"dispatch-base","mesh":17,"translation":[0,1.3818,0],"scale":[7.1456,2.7636,8.484]},{"name":"dispatch-tower","mesh":18,"translation":[0,6.1194,0],"scale":[1.65,10.199,1.65]},{"name":"signal-0","mesh":19,"translation":[0,10.857,0],"rotation":[0.707107,0,0,0.707107]},{"name":"signal-1","mesh":20,"translation":[0,11.037,0],"rotation":[0.707107,0,0,0.707107]},{"name":"antenna","mesh":21,"translation":[0,0,0]},{"name":"scooter-0","mesh":22,"translation":[-2,0.45,6.666],"scale":[0.9,0.35,0.32]},{"name":"scooter-wheel-0","mesh":23,"translation":[-2,0.36,8.7264],"rotation":[0,0.707107,0,0.707107]},{"name":"scooter-1","mesh":24,"translation":[0,0.45,6.666],"scale":[0.9,0.35,0.32]},{"name":"scooter-wheel-1","mesh":23,"translation":[0,0.36,8.7264],"rotation":[0,0.707107,0,0.707107]},{"name":"scooter-2","mesh":22,"translation":[2,0.45,6.666],"scale":[0.9,0.35,0.32]},{"name":"scooter-wheel-2","mesh":23,"translation":[2,0.36,8.7264],"rotation":[0,0.707107,0,0.707107]},{"name":"dispatch-sign-back","mesh":11,"translation":[0,2.2372,4.3632],"scale":[5.2744,1.1,1]},{"name":"dispatch-sign","mesh":12,"translation":[0,2.2372,4.3922],"scale":[5.1744,1,1]},{"name":"busy-state-queue-bar","mesh":25,"translation":[0,0.65,7.6356],"scale":[8.8704,0.12,0.12]},{"name":"queue-car-0","mesh":26,"translation":[-3.696,0.34,8.484],"scale":[1.35,0.65,0.7]},{"name":"queue-car-1","mesh":27,"translation":[-1.848,0.34,9.4536],"scale":[1.35,0.65,0.7]},{"name":"queue-car-2","mesh":26,"translation":[0,0.34,8.484],"scale":[1.35,0.65,0.7]},{"name":"foundation","mesh":16,"translation":[0,0.08,0],"scale":[14.52,0.16,14.32]},{"name":"dispatch-base","mesh":17,"translation":[0,1.3818,0],"scale":[7.1456,2.7636,8.484]},{"name":"dispatch-tower","mesh":18,"translation":[0,6.1194,0],"scale":[1.65,10.199,1.65]},{"name":"signal-0","mesh":28,"translation":[0,10.857,0],"rotation":[0.707107,0,0,0.707107]},{"name":"antenna","mesh":29,"translation":[0,0,0]},{"name":"dispatch-sign-back","mesh":11,"translation":[0,2.2372,4.3632],"scale":[5.2744,1.1,1]},{"name":"dispatch-sign","mesh":12,"translation":[0,2.2372,4.3922],"scale":[5.1744,1,1]},{"name":"busy-state-queue-bar","mesh":25,"translation":[0,0.65,7.6356],"scale":[8.8704,0.12,0.12]},{"name":"queue-car-0","mesh":26,"translation":[-3.696,0.34,8.484],"scale":[1.35,0.65,0.7]}],"meshes":[{"primitives":[{"attributes":{"POSITION":0,"NORMAL":1,"TEXCOORD_0":2},"material":0,"mode":4}]},{"primitives":[{"attributes":{"POSITION":3,"NORMAL":1,"TEXCOORD_0":4},"material":1,"mode":4}]},{"primitives":[{"attributes":{"POSITION":5,"NORMAL":6,"TEXCOORD_0":7},"material":2,"mode":4,"indices":8}]},{"primitives":[{"attributes":{"POSITION":9,"NORMAL":10,"TEXCOORD_0":11},"material":2,"mode":4,"indices":12}]},{"primitives":[{"attributes":{"POSITION":13,"NORMAL":10,"TEXCOORD_0":11},"material":3,"mode":4,"indices":12}]},{"primitives":[{"attributes":{"POSITION":14,"NORMAL":10,"TEXCOORD_0":11},"material":2,"mode":4,"indices":12}]},{"primitives":[{"attributes":{"POSITION":15,"NORMAL":10,"TEXCOORD_0":11},"material":3,"mode":4,"indices":12}]},{"primitives":[{"attributes":{"POSITION":16,"NORMAL":17,"TEXCOORD_0":18},"material":4,"mode":4,"indices":19}]},{"primitives":[{"attributes":{"POSITION":0,"NORMAL":1,"TEXCOORD_0":20},"material":5,"mode":4}]},{"primitives":[{"attributes":{"POSITION":21,"NORMAL":22,"TEXCOORD_0":23},"material":6,"mode":4,"indices":12}]},{"primitives":[{"attributes":{"POSITION":0,"NORMAL":1,"TEXCOORD_0":20},"material":7,"mode":4}]},{"primitives":[{"attributes":{"POSITION":24,"NORMAL":25,"TEXCOORD_0":26},"material":1,"mode":4,"indices":27}]},{"primitives":[{"attributes":{"POSITION":28,"NORMAL":29,"TEXCOORD_0":30},"material":8,"mode":4,"indices":31}]},{"primitives":[{"attributes":{"POSITION":0,"NORMAL":1,"TEXCOORD_0":32},"material":2,"mode":4}]},{"primitives":[{"attributes":{"POSITION":0,"NORMAL":1,"TEXCOORD_0":33},"material":7,"mode":4}]},{"primitives":[{"attributes":{"POSITION":0,"NORMAL":1,"TEXCOORD_0":33},"material":2,"mode":4}]},{"primitives":[{"attributes":{"POSITION":34,"NORMAL":25,"TEXCOORD_0":35},"material":0,"mode":4,"indices":27}]},{"primitives":[{"attributes":{"POSITION":34,"NORMAL":25,"TEXCOORD_0":36},"material":1,"mode":4,"indices":27}]},{"primitives":[{"attributes":{"POSITION":37,"NORMAL":38,"TEXCOORD_0":39},"material":2,"mode":4,"indices":40}]},{"primitives":[{"attributes":{"POSITION":41,"NORMAL":42,"TEXCOORD_0":43},"material":2,"mode":4,"indices":44}]},{"primitives":[{"attributes":{"POSITION":45,"NORMAL":42,"TEXCOORD_0":43},"material":3,"mode":4,"indices":44}]},{"primitives":[{"attributes":{"POSITION":46,"NORMAL":47,"TEXCOORD_0":48},"material":4,"mode":4,"indices":49}]},{"primitives":[{"attributes":{"POSITION":34,"NORMAL":25,"TEXCOORD_0":50},"material":5,"mode":4,"indices":27}]},{"primitives":[{"attributes":{"POSITION":51,"NORMAL":42,"TEXCOORD_0":52},"material":6,"mode":4,"indices":44}]},{"primitives":[{"attributes":{"POSITION":34,"NORMAL":25,"TEXCOORD_0":50},"material":7,"mode":4,"indices":27}]},{"primitives":[{"attributes":{"POSITION":34,"NORMAL":25,"TEXCOORD_0":53},"material":2,"mode":4,"indices":27}]},{"primitives":[{"attributes":{"POSITION":34,"NORMAL":25,"TEXCOORD_0":54},"material":7,"mode":4,"indices":27}]},{"primitives":[{"attributes":{"POSITION":34,"NORMAL":25,"TEXCOORD_0":54},"material":2,"mode":4,"indices":27}]},{"primitives":[{"attributes":{"POSITION":55,"NORMAL":56,"TEXCOORD_0":57},"material":2,"mode":4,"indices":58}]},{"primitives":[{"attributes":{"POSITION":59,"NORMAL":60,"TEXCOORD_0":61},"material":4,"mode":4,"indices":62}]}],"materials":[{"name":"concrete","pbrMetallicRoughness":{"baseColorTexture":{"index":0},"metallicRoughnessTexture":{"index":2},"roughnessFactor":1,"metallicFactor":1},"normalTexture":{"index":1,"scale":0.82},"occlusionTexture":{"index":2,"strength":0.35}},{"name":"metal-dark","pbrMetallicRoughness":{"baseColorTexture":{"index":3},"metallicRoughnessTexture":{"index":5},"roughnessFactor":1,"metallicFactor":1},"normalTexture":{"index":4,"scale":0.35},"occlusionTexture":{"index":5,"strength":0.35}},{"name":"paint-blue","pbrMetallicRoughness":{"baseColorFactor":[0.05126945836711539,0.10946171076915331,0.22696587349938613,1],"roughnessFactor":0.58,"metallicFactor":0.05}},{"name":"paint-teal","pbrMetallicRoughness":{"baseColorFactor":[0.040915196900556984,0.20507873637973145,0.1878207722902346,1],"roughnessFactor":0.59,"metallicFactor":0.05}},{"name":"metal-galvanized","pbrMetallicRoughness":{"baseColorTexture":{"index":6},"metallicRoughnessTexture":{"index":8},"roughnessFactor":1,"metallicFactor":1},"normalTexture":{"index":7,"scale":0.15},"occlusionTexture":{"index":8,"strength":0.35}},{"name":"paint-yellow","pbrMetallicRoughness":{"baseColorFactor":[0.76052450467022,0.4793201830913402,0.07818742179702069,1],"roughnessFactor":0.66,"metallicFactor":0.03}},{"name":"rubber","pbrMetallicRoughness":{"baseColorTexture":{"index":9},"metallicRoughnessTexture":{"index":11},"roughnessFactor":1,"metallicFactor":1},"normalTexture":{"index":10,"scale":0.65},"occlusionTexture":{"index":11,"strength":0.35}},{"name":"paint-red","pbrMetallicRoughness":{"baseColorFactor":[0.46778379610254284,0.08021982030622662,0.05126945836711539,1],"roughnessFactor":0.62,"metallicFactor":0.05}},{"name":"appetite-dispatch signage","pbrMetallicRoughness":{"baseColorTexture":{"index":12},"roughnessFactor":1,"metallicFactor":0},"extensions":{"KHR_materials_unlit":{}}}],"textures":[{"source":0,"sampler":0},{"source":1,"sampler":0},{"source":2,"sampler":0},{"source":3,"sampler":0},{"source":4,"sampler":0},{"source":5,"sampler":0},{"source":6,"sampler":0},{"source":7,"sampler":0},{"source":8,"sampler":0},{"source":9,"sampler":0},{"source":10,"sampler":0},{"source":11,"sampler":0},{"source":12,"sampler":0}],"images":[{"uri":"../textures/concrete-albedo.png"},{"uri":"../textures/concrete-normal.png"},{"uri":"../textures/concrete-orm.png"},{"uri":"../textures/metal-dark-albedo.png"},{"uri":"../textures/metal-dark-normal.png"},{"uri":"../textures/metal-dark-orm.png"},{"uri":"../textures/metal-galvanized-albedo.png"},{"uri":"../textures/metal-galvanized-normal.png"},{"uri":"../textures/metal-galvanized-orm.png"},{"uri":"../textures/rubber-albedo.png"},{"uri":"../textures/rubber-normal.png"},{"uri":"../textures/rubber-orm.png"},{"uri":"../signs/appetite-dispatch.png"}],"samplers":[{"magFilter":9729,"minFilter":9987,"wrapS":10497,"wrapT":10497}],"buffers":[{"uri":"../shared/geometry.bin","byteLength":16435520}],"bufferViews":[{"buffer":0,"byteOffset":0,"byteLength":3888,"target":34962},{"buffer":0,"byteOffset":3888,"byteLength":3888,"target":34962},{"buffer":0,"byteOffset":524640,"byteLength":2592,"target":34962},{"buffer":0,"byteOffset":378372,"byteLength":3888,"target":34962},{"buffer":0,"byteOffset":527232,"byteLength":2592,"target":34962},{"buffer":0,"byteOffset":384852,"byteLength":912,"target":34962},{"buffer":0,"byteOffset":385764,"byteLength":912,"target":34962},{"buffer":0,"byteOffset":386676,"byteLength":608,"target":34962},{"buffer":0,"byteOffset":387284,"byteLength":288,"target":34963},{"buffer":0,"byteOffset":387572,"byteLength":3132,"target":34962},{"buffer":0,"byteOffset":390704,"byteLength":3132,"target":34962},{"buffer":0,"byteOffset":393836,"byteLength":2088,"target":34962},{"buffer":0,"byteOffset":395924,"byteLength":2688,"target":34963},{"buffer":0,"byteOffset":398612,"byteLength":3132,"target":34962},{"buffer":0,"byteOffset":401744,"byteLength":3132,"target":34962},{"buffer":0,"byteOffset":404876,"byteLength":3132,"target":34962},{"buffer":0,"byteOffset":408008,"byteLength":972,"target":34962},{"buffer":0,"byteOffset":408980,"byteLength":972,"target":34962},{"buffer":0,"byteOffset":409952,"byteLength":648,"target":34962},{"buffer":0,"byteOffset":410600,"byteLength":768,"target":34963},{"buffer":0,"byteOffset":411368,"byteLength":2592,"target":34962},{"buffer":0,"byteOffset":413960,"byteLength":3132,"target":34962},{"buffer":0,"byteOffset":417092,"byteLength":3132,"target":34962},{"buffer":0,"byteOffset":420224,"byteLength":2088,"target":34962},{"buffer":0,"byteOffset":45664,"byteLength":288,"target":34962},{"buffer":0,"byteOffset":45952,"byteLength":288,"target":34962},{"buffer":0,"byteOffset":46240,"byteLength":192,"target":34962},{"buffer":0,"byteOffset":46432,"byteLength":72,"target":34963},{"buffer":0,"byteOffset":46504,"byteLength":48,"target":34962},{"buffer":0,"byteOffset":46552,"byteLength":48,"target":34962},{"buffer":0,"byteOffset":222692,"byteLength":32,"target":34962},{"buffer":0,"byteOffset":46632,"byteLength":12,"target":34963},{"buffer":0,"byteOffset":580320,"byteLength":2592,"target":34962},{"buffer":0,"byteOffset":582912,"byteLength":2592,"target":34962},{"buffer":0,"byteOffset":46644,"byteLength":288,"target":34962},{"buffer":0,"byteOffset":529824,"byteLength":192,"target":34962},{"buffer":0,"byteOffset":530016,"byteLength":192,"target":34962},{"buffer":0,"byteOffset":425288,"byteLength":480,"target":34962},{"buffer":0,"byteOffset":425768,"byteLength":480,"target":34962},{"buffer":0,"byteOffset":426248,"byteLength":320,"target":34962},{"buffer":0,"byteOffset":48596,"byteLength":144,"target":34963},{"buffer":0,"byteOffset":426568,"byteLength":1428,"target":34962},{"buffer":0,"byteOffset":427996,"byteLength":1428,"target":34962},{"buffer":0,"byteOffset":429424,"byteLength":952,"target":34962},{"buffer":0,"byteOffset":430376,"byteLength":1152,"target":34963},{"buffer":0,"byteOffset":431528,"byteLength":1428,"target":34962},{"buffer":0,"byteOffset":432956,"byteLength":420,"target":34962},{"buffer":0,"byteOffset":433376,"byteLength":420,"target":34962},{"buffer":0,"byteOffset":433796,"byteLength":280,"target":34962},{"buffer":0,"byteOffset":434076,"byteLength":288,"target":34963},{"buffer":0,"byteOffset":434364,"byteLength":192,"target":34962},{"buffer":0,"byteOffset":434556,"byteLength":1428,"target":34962},{"buffer":0,"byteOffset":435984,"byteLength":952,"target":34962},{"buffer":0,"byteOffset":585504,"byteLength":192,"target":34962},{"buffer":0,"byteOffset":585696,"byteLength":192,"target":34962},{"buffer":0,"byteOffset":437128,"byteLength":660,"target":34962},{"buffer":0,"byteOffset":437788,"byteLength":660,"target":34962},{"buffer":0,"byteOffset":438448,"byteLength":440,"target":34962},{"buffer":0,"byteOffset":438888,"byteLength":480,"target":34963},{"buffer":0,"byteOffset":439368,"byteLength":300,"target":34962},{"buffer":0,"byteOffset":439668,"byteLength":300,"target":34962},{"buffer":0,"byteOffset":439968,"byteLength":200,"target":34962},{"buffer":0,"byteOffset":440168,"byteLength":192,"target":34963}],"accessors":[{"bufferView":0,"componentType":5126,"count":324,"type":"VEC3","min":[-0.5,-0.5,-0.5],"max":[0.5,0.5,0.5]},{"bufferView":1,"componentType":5126,"count":324,"type":"VEC3"},{"bufferView":2,"componentType":5126,"count":324,"type":"VEC2"},{"bufferView":3,"componentType":5126,"count":324,"type":"VEC3","min":[-0.5,-0.5,-0.5],"max":[0.5,0.5,0.5]},{"bufferView":4,"componentType":5126,"count":324,"type":"VEC2"},{"bufferView":5,"componentType":5126,"count":76,"type":"VEC3","min":[-1,-0.5,-1],"max":[1,0.5,1]},{"bufferView":6,"componentType":5126,"count":76,"type":"VEC3"},{"bufferView":7,"componentType":5126,"count":76,"type":"VEC2"},{"bufferView":8,"componentType":5123,"count":144,"type":"SCALAR"},{"bufferView":9,"componentType":5126,"count":261,"type":"VEC3","min":[-1.090000033378601,-1.090000033378601,-0.09000000357627869],"max":[1.090000033378601,1.090000033378601,0.09000000357627869]},{"bufferView":10,"componentType":5126,"count":261,"type":"VEC3"},{"bufferView":11,"componentType":5126,"count":261,"type":"VEC2"},{"bufferView":12,"componentType":5123,"count":1344,"type":"SCALAR"},{"bufferView":13,"componentType":5126,"count":261,"type":"VEC3","min":[-1.5099999904632568,-1.5099999904632568,-0.09000000357627869],"max":[1.5099999904632568,1.5099999904632568,0.09000000357627869]},{"bufferView":14,"componentType":5126,"count":261,"type":"VEC3","min":[-1.9299999475479126,-1.9299999475479126,-0.09000000357627869],"max":[1.9299999475479126,1.9299999475479126,0.09000000357627869]},{"bufferView":15,"componentType":5126,"count":261,"type":"VEC3","min":[-2.3499999046325684,-2.3499999046325684,-0.09000000357627869],"max":[2.3499999046325684,2.3499999046325684,0.09000000357627869]},{"bufferView":16,"componentType":5126,"count":81,"type":"VEC3","min":[-0.4896625280380249,9.53321361541748,-0.09000000357627869],"max":[0.08966252952814102,14.154786109924316,0.09000000357627869]},{"bufferView":17,"componentType":5126,"count":81,"type":"VEC3"},{"bufferView":18,"componentType":5126,"count":81,"type":"VEC2"},{"bufferView":19,"componentType":5123,"count":384,"type":"SCALAR"},{"bufferView":20,"componentType":5126,"count":324,"type":"VEC2"},{"bufferView":21,"componentType":5126,"count":261,"type":"VEC3","min":[-0.3499999940395355,-0.3499999940395355,-0.12999999523162842],"max":[0.3499999940395355,0.3499999940395355,0.12999999523162842]},{"bufferView":22,"componentType":5126,"count":261,"type":"VEC3"},{"bufferView":23,"componentType":5126,"count":261,"type":"VEC2"},{"bufferView":24,"componentType":5126,"count":24,"type":"VEC3","min":[-0.5,-0.5,-0.02500000037252903],"max":[0.5,0.5,0.02500000037252903]},{"bufferView":25,"componentType":5126,"count":24,"type":"VEC3"},{"bufferView":26,"componentType":5126,"count":24,"type":"VEC2"},{"bufferView":27,"componentType":5123,"count":36,"type":"SCALAR"},{"bufferView":28,"componentType":5126,"count":4,"type":"VEC3","min":[-0.5,-0.5,0],"max":[0.5,0.5,0]},{"bufferView":29,"componentType":5126,"count":4,"type":"VEC3"},{"bufferView":30,"componentType":5126,"count":4,"type":"VEC2"},{"bufferView":31,"componentType":5123,"count":6,"type":"SCALAR"},{"bufferView":32,"componentType":5126,"count":324,"type":"VEC2"},{"bufferView":33,"componentType":5126,"count":324,"type":"VEC2"},{"bufferView":34,"componentType":5126,"count":24,"type":"VEC3","min":[-0.5,-0.5,-0.5],"max":[0.5,0.5,0.5]},{"bufferView":35,"componentType":5126,"count":24,"type":"VEC2"},{"bufferView":36,"componentType":5126,"count":24,"type":"VEC2"},{"bufferView":37,"componentType":5126,"count":40,"type":"VEC3","min":[-0.8660253882408142,-0.5,-1],"max":[0.8660253882408142,0.5,1]},{"bufferView":38,"componentType":5126,"count":40,"type":"VEC3"},{"bufferView":39,"componentType":5126,"count":40,"type":"VEC2"},{"bufferView":40,"componentType":5123,"count":72,"type":"SCALAR"},{"bufferView":41,"componentType":5126,"count":119,"type":"VEC3","min":[-1.090000033378601,-1.090000033378601,-0.07794228941202164],"max":[1.090000033378601,1.090000033378601,0.07794228941202164]},{"bufferView":42,"componentType":5126,"count":119,"type":"VEC3"},{"bufferView":43,"componentType":5126,"count":119,"type":"VEC2"},{"bufferView":44,"componentType":5123,"count":576,"type":"SCALAR"},{"bufferView":45,"componentType":5126,"count":119,"type":"VEC3","min":[-1.5099999904632568,-1.5099999904632568,-0.07794228941202164],"max":[1.5099999904632568,1.5099999904632568,0.07794228941202164]},{"bufferView":46,"componentType":5126,"count":35,"type":"VEC3","min":[-0.4776500165462494,9.534256935119629,-0.09000000357627869],"max":[0.0776500254869461,14.153743743896484,0.09000000357627869]},{"bufferView":47,"componentType":5126,"count":35,"type":"VEC3"},{"bufferView":48,"componentType":5126,"count":35,"type":"VEC2"},{"bufferView":49,"componentType":5123,"count":144,"type":"SCALAR"},{"bufferView":50,"componentType":5126,"count":24,"type":"VEC2"},{"bufferView":51,"componentType":5126,"count":119,"type":"VEC3","min":[-0.3499999940395355,-0.3499999940395355,-0.11258330196142197],"max":[0.3499999940395355,0.3499999940395355,0.11258330196142197]},{"bufferView":52,"componentType":5126,"count":119,"type":"VEC2"},{"bufferView":53,"componentType":5126,"count":24,"type":"VEC2"},{"bufferView":54,"componentType":5126,"count":24,"type":"VEC2"},{"bufferView":55,"componentType":5126,"count":55,"type":"VEC3","min":[-1.090000033378601,-1.036651611328125,-0.09000000357627869],"max":[1.090000033378601,1.036651611328125,0.09000000357627869]},{"bufferView":56,"componentType":5126,"count":55,"type":"VEC3"},{"bufferView":57,"componentType":5126,"count":55,"type":"VEC2"},{"bufferView":58,"componentType":5123,"count":240,"type":"SCALAR"},{"bufferView":59,"componentType":5126,"count":25,"type":"VEC3","min":[-0.4896625280380249,9.53321361541748,-0.09000000357627869],"max":[0.08966252952814102,14.154786109924316,0.09000000357627869]},{"bufferView":60,"componentType":5126,"count":25,"type":"VEC3"},{"bufferView":61,"componentType":5126,"count":25,"type":"VEC2"},{"bufferView":62,"componentType":5123,"count":96,"type":"SCALAR"}],"extensionsUsed":["KHR_materials_unlit"],"extras":{"id":"vlt-appetite-dispatch-31","family":"appetite-dispatch","variant":30,"plan":"C1-2","units":"metres","up":"+Y","front":"+Z","lodScenes":[0,1,2]}}