{"asset":{"version":"2.0","generator":"SLOPMERICA Department of Unnecessary Development 1.0"},"scene":0,"scenes":[{"name":"LOD 0","nodes":[0,1,2,3,4,5,6,7,8,9,10,11,12,13,14,15,16,17,18,19,20,21,22],"extras":{"level":0}},{"name":"LOD 1","nodes":[23,24,25,26,27,28,29,30,31,32,33],"extras":{"level":1}},{"name":"LOD 2","nodes":[34,35,36,37,38,39,40,41,42],"extras":{"level":2}}],"nodes":[{"name":"foundation","mesh":0,"translation":[0,0.08,0],"scale":[18.04,0.16,14.32]},{"name":"kitchen-0","mesh":1,"translation":[-6.0192,1.7484,0],"scale":[2.49,3.4968,12.12]},{"name":"exhaust-0","mesh":2,"translation":[-6.0192,5.4144,-2.1816],"scale":[0.34,4.2864,0.34]},{"name":"steam-0","mesh":3,"translation":[-6.0192,7.7268,-2.1816],"scale":[0.32,0.22,0.32]},{"name":"kitchen-1","mesh":4,"translation":[-3.61152,1.7484,0],"scale":[2.49,3.4968,12.12]},{"name":"exhaust-1","mesh":2,"translation":[-3.61152,5.4144,-2.1816],"scale":[0.34,4.2864,0.34]},{"name":"steam-1","mesh":3,"translation":[-3.61152,7.7268,-2.1816],"scale":[0.32,0.22,0.32]},{"name":"kitchen-2","mesh":1,"translation":[-1.20384,1.7484,0],"scale":[2.49,3.4968,12.12]},{"name":"exhaust-2","mesh":2,"translation":[-1.20384,5.4144,-2.1816],"scale":[0.34,4.2864,0.34]},{"name":"steam-2","mesh":3,"translation":[-1.20384,7.7268,-2.1816],"scale":[0.32,0.22,0.32]},{"name":"kitchen-3","mesh":4,"translation":[1.20384,1.7484,0],"scale":[2.49,3.4968,12.12]},{"name":"exhaust-3","mesh":2,"translation":[1.20384,5.4144,-2.1816],"scale":[0.34,4.2864,0.34]},{"name":"steam-3","mesh":3,"translation":[1.20384,7.7268,-2.1816],"scale":[0.32,0.22,0.32]},{"name":"kitchen-4","mesh":1,"translation":[3.61152,1.7484,0],"scale":[2.49,3.4968,12.12]},{"name":"exhaust-4","mesh":2,"translation":[3.61152,5.4144,-2.1816],"scale":[0.34,4.2864,0.34]},{"name":"steam-4","mesh":3,"translation":[3.61152,7.7268,-2.1816],"scale":[0.32,0.22,0.32]},{"name":"kitchen-5","mesh":4,"translation":[6.0192,1.7484,0],"scale":[2.49,3.4968,12.12]},{"name":"exhaust-5","mesh":2,"translation":[6.0192,5.4144,-2.1816],"scale":[0.34,4.2864,0.34]},{"name":"steam-5","mesh":3,"translation":[6.0192,7.7268,-2.1816],"scale":[0.32,0.22,0.32]},{"name":"pickup-shelf","mesh":5,"translation":[0,1,7.0296],"scale":[11.4048,0.35,0.72]},{"name":"ghost-sign-back","mesh":6,"translation":[0,2.9328,6.2],"scale":[7.7032,1.1,1]},{"name":"ghost-sign","mesh":7,"translation":[0,2.9328,6.229],"scale":[7.6032,1,1]},{"name":"open-state-bollard","mesh":8,"translation":[-6.8112,0.425,6.7872],"scale":[0.22,0.85,0.22]},{"name":"foundation","mesh":9,"translation":[0,0.08,0],"scale":[18.04,0.16,14.32]},{"name":"kitchen-0","mesh":10,"translation":[-6.0192,1.7484,0],"scale":[5.13,3.4968,12.12]},{"name":"exhaust-0","mesh":11,"translation":[-6.0192,5.4144,-2.1816],"scale":[0.34,4.2864,0.34]},{"name":"kitchen-1","mesh":12,"translation":[0,1.7484,0],"scale":[5.13,3.4968,12.12]},{"name":"exhaust-1","mesh":11,"translation":[0,5.4144,-2.1816],"scale":[0.34,4.2864,0.34]},{"name":"kitchen-2","mesh":10,"translation":[6.0192,1.7484,0],"scale":[5.13,3.4968,12.12]},{"name":"exhaust-2","mesh":11,"translation":[6.0192,5.4144,-2.1816],"scale":[0.34,4.2864,0.34]},{"name":"pickup-shelf","mesh":13,"translation":[0,1,7.0296],"scale":[11.4048,0.35,0.72]},{"name":"ghost-sign-back","mesh":6,"translation":[0,2.9328,6.2],"scale":[7.7032,1.1,1]},{"name":"ghost-sign","mesh":7,"translation":[0,2.9328,6.229],"scale":[7.6032,1,1]},{"name":"open-state-bollard","mesh":14,"translation":[-6.8112,0.425,6.7872],"scale":[0.22,0.85,0.22]},{"name":"foundation","mesh":9,"translation":[0,0.08,0],"scale":[18.04,0.16,14.32]},{"name":"kitchen-0","mesh":15,"translation":[-6.0192,1.7484,0],"scale":[7.77,3.4968,12.12]},{"name":"exhaust-0","mesh":11,"translation":[-6.0192,5.4144,-2.1816],"scale":[0.34,4.2864,0.34]},{"name":"kitchen-1","mesh":16,"translation":[6.0192,1.7484,0],"scale":[7.77,3.4968,12.12]},{"name":"exhaust-1","mesh":11,"translation":[6.0192,5.4144,-2.1816],"scale":[0.34,4.2864,0.34]},{"name":"pickup-shelf","mesh":13,"translation":[0,1,7.0296],"scale":[11.4048,0.35,0.72]},{"name":"ghost-sign-back","mesh":6,"translation":[0,2.9328,6.2],"scale":[7.7032,1.1,1]},{"name":"ghost-sign","mesh":7,"translation":[0,2.9328,6.229],"scale":[7.6032,1,1]},{"name":"open-state-bollard","mesh":14,"translation":[-6.8112,0.425,6.7872],"scale":[0.22,0.85,0.22]}],"meshes":[{"primitives":[{"attributes":{"POSITION":0,"NORMAL":1,"TEXCOORD_0":2},"material":0,"mode":4}]},{"primitives":[{"attributes":{"POSITION":3,"NORMAL":1,"TEXCOORD_0":4},"material":1,"mode":4}]},{"primitives":[{"attributes":{"POSITION":5,"NORMAL":6,"TEXCOORD_0":7},"material":2,"mode":4,"indices":8}]},{"primitives":[{"attributes":{"POSITION":9,"NORMAL":9,"TEXCOORD_0":10},"material":1,"mode":4,"indices":11}]},{"primitives":[{"attributes":{"POSITION":3,"NORMAL":1,"TEXCOORD_0":12},"material":3,"mode":4}]},{"primitives":[{"attributes":{"POSITION":0,"NORMAL":1,"TEXCOORD_0":13},"material":4,"mode":4}]},{"primitives":[{"attributes":{"POSITION":14,"NORMAL":15,"TEXCOORD_0":16},"material":2,"mode":4,"indices":17}]},{"primitives":[{"attributes":{"POSITION":18,"NORMAL":19,"TEXCOORD_0":20},"material":5,"mode":4,"indices":21}]},{"primitives":[{"attributes":{"POSITION":0,"NORMAL":1,"TEXCOORD_0":22},"material":4,"mode":4}]},{"primitives":[{"attributes":{"POSITION":23,"NORMAL":15,"TEXCOORD_0":24},"material":0,"mode":4,"indices":17}]},{"primitives":[{"attributes":{"POSITION":23,"NORMAL":15,"TEXCOORD_0":25},"material":1,"mode":4,"indices":17}]},{"primitives":[{"attributes":{"POSITION":26,"NORMAL":27,"TEXCOORD_0":28},"material":2,"mode":4,"indices":29}]},{"primitives":[{"attributes":{"POSITION":23,"NORMAL":15,"TEXCOORD_0":30},"material":3,"mode":4,"indices":17}]},{"primitives":[{"attributes":{"POSITION":23,"NORMAL":15,"TEXCOORD_0":31},"material":4,"mode":4,"indices":17}]},{"primitives":[{"attributes":{"POSITION":23,"NORMAL":15,"TEXCOORD_0":32},"material":4,"mode":4,"indices":17}]},{"primitives":[{"attributes":{"POSITION":23,"NORMAL":15,"TEXCOORD_0":33},"material":1,"mode":4,"indices":17}]},{"primitives":[{"attributes":{"POSITION":23,"NORMAL":15,"TEXCOORD_0":34},"material":3,"mode":4,"indices":17}]}],"materials":[{"name":"concrete","pbrMetallicRoughness":{"baseColorTexture":{"index":0},"metallicRoughnessTexture":{"index":2},"roughnessFactor":1,"metallicFactor":1},"normalTexture":{"index":1,"scale":0.82},"occlusionTexture":{"index":2,"strength":0.35}},{"name":"paint-white","pbrMetallicRoughness":{"baseColorFactor":[0.7912979403281551,0.7681511472425809,0.6795424696265424,1],"roughnessFactor":0.68,"metallicFactor":0}},{"name":"metal-dark","pbrMetallicRoughness":{"baseColorTexture":{"index":3},"metallicRoughnessTexture":{"index":5},"roughnessFactor":1,"metallicFactor":1},"normalTexture":{"index":4,"scale":0.35},"occlusionTexture":{"index":5,"strength":0.35}},{"name":"metal-galvanized","pbrMetallicRoughness":{"baseColorTexture":{"index":6},"metallicRoughnessTexture":{"index":8},"roughnessFactor":1,"metallicFactor":1},"normalTexture":{"index":7,"scale":0.15},"occlusionTexture":{"index":8,"strength":0.35}},{"name":"paint-teal","pbrMetallicRoughness":{"baseColorFactor":[0.040915196900556984,0.20507873637973145,0.1878207722902346,1],"roughnessFactor":0.59,"metallicFactor":0.05}},{"name":"ghost-kitchen-carousel signage","pbrMetallicRoughness":{"baseColorTexture":{"index":9},"roughnessFactor":1,"metallicFactor":0},"extensions":{"KHR_materials_unlit":{}}}],"textures":[{"source":0,"sampler":0},{"source":1,"sampler":0},{"source":2,"sampler":0},{"source":3,"sampler":0},{"source":4,"sampler":0},{"source":5,"sampler":0},{"source":6,"sampler":0},{"source":7,"sampler":0},{"source":8,"sampler":0},{"source":9,"sampler":0}],"images":[{"uri":"../textures/concrete-albedo.png"},{"uri":"../textures/concrete-normal.png"},{"uri":"../textures/concrete-orm.png"},{"uri":"../textures/metal-dark-albedo.png"},{"uri":"../textures/metal-dark-normal.png"},{"uri":"../textures/metal-dark-orm.png"},{"uri":"../textures/metal-galvanized-albedo.png"},{"uri":"../textures/metal-galvanized-normal.png"},{"uri":"../textures/metal-galvanized-orm.png"},{"uri":"../signs/ghost-kitchen-carousel.png"}],"samplers":[{"magFilter":9729,"minFilter":9987,"wrapS":10497,"wrapT":10497}],"buffers":[{"uri":"../shared/geometry.bin","byteLength":16435520}],"bufferViews":[{"buffer":0,"byteOffset":0,"byteLength":3888,"target":34962},{"buffer":0,"byteOffset":3888,"byteLength":3888,"target":34962},{"buffer":0,"byteOffset":5833792,"byteLength":2592,"target":34962},{"buffer":0,"byteOffset":693144,"byteLength":3888,"target":34962},{"buffer":0,"byteOffset":6395872,"byteLength":2592,"target":34962},{"buffer":0,"byteOffset":6316184,"byteLength":768,"target":34962},{"buffer":0,"byteOffset":6316952,"byteLength":768,"target":34962},{"buffer":0,"byteOffset":6317720,"byteLength":512,"target":34962},{"buffer":0,"byteOffset":882248,"byteLength":240,"target":34963},{"buffer":0,"byteOffset":6080864,"byteLength":3276,"target":34962},{"buffer":0,"byteOffset":6318232,"byteLength":2184,"target":34962},{"buffer":0,"byteOffset":6086324,"byteLength":2640,"target":34963},{"buffer":0,"byteOffset":6398464,"byteLength":2592,"target":34962},{"buffer":0,"byteOffset":6323008,"byteLength":2592,"target":34962},{"buffer":0,"byteOffset":45664,"byteLength":288,"target":34962},{"buffer":0,"byteOffset":45952,"byteLength":288,"target":34962},{"buffer":0,"byteOffset":46240,"byteLength":192,"target":34962},{"buffer":0,"byteOffset":46432,"byteLength":72,"target":34963},{"buffer":0,"byteOffset":46504,"byteLength":48,"target":34962},{"buffer":0,"byteOffset":46552,"byteLength":48,"target":34962},{"buffer":0,"byteOffset":153412,"byteLength":32,"target":34962},{"buffer":0,"byteOffset":46632,"byteLength":12,"target":34963},{"buffer":0,"byteOffset":422312,"byteLength":2592,"target":34962},{"buffer":0,"byteOffset":46644,"byteLength":288,"target":34962},{"buffer":0,"byteOffset":5844672,"byteLength":192,"target":34962},{"buffer":0,"byteOffset":6401056,"byteLength":192,"target":34962},{"buffer":0,"byteOffset":6325792,"byteLength":480,"target":34962},{"buffer":0,"byteOffset":6326272,"byteLength":480,"target":34962},{"buffer":0,"byteOffset":6326752,"byteLength":320,"target":34962},{"buffer":0,"byteOffset":48596,"byteLength":144,"target":34963},{"buffer":0,"byteOffset":6401248,"byteLength":192,"target":34962},{"buffer":0,"byteOffset":6327264,"byteLength":192,"target":34962},{"buffer":0,"byteOffset":436936,"byteLength":192,"target":34962},{"buffer":0,"byteOffset":6401440,"byteLength":192,"target":34962},{"buffer":0,"byteOffset":6401632,"byteLength":192,"target":34962}],"accessors":[{"bufferView":0,"componentType":5126,"count":324,"type":"VEC3","min":[-0.5,-0.5,-0.5],"max":[0.5,0.5,0.5]},{"bufferView":1,"componentType":5126,"count":324,"type":"VEC3"},{"bufferView":2,"componentType":5126,"count":324,"type":"VEC2"},{"bufferView":3,"componentType":5126,"count":324,"type":"VEC3","min":[-0.5,-0.5,-0.5],"max":[0.5,0.5,0.5]},{"bufferView":4,"componentType":5126,"count":324,"type":"VEC2"},{"bufferView":5,"componentType":5126,"count":64,"type":"VEC3","min":[-0.9510565400123596,-0.5,-1],"max":[0.9510565400123596,0.5,1]},{"bufferView":6,"componentType":5126,"count":64,"type":"VEC3"},{"bufferView":7,"componentType":5126,"count":64,"type":"VEC2"},{"bufferView":8,"componentType":5123,"count":120,"type":"SCALAR"},{"bufferView":9,"componentType":5126,"count":273,"type":"VEC3","min":[-1,-1,-1],"max":[1,1,1]},{"bufferView":10,"componentType":5126,"count":273,"type":"VEC2"},{"bufferView":11,"componentType":5123,"count":1320,"type":"SCALAR"},{"bufferView":12,"componentType":5126,"count":324,"type":"VEC2"},{"bufferView":13,"componentType":5126,"count":324,"type":"VEC2"},{"bufferView":14,"componentType":5126,"count":24,"type":"VEC3","min":[-0.5,-0.5,-0.02500000037252903],"max":[0.5,0.5,0.02500000037252903]},{"bufferView":15,"componentType":5126,"count":24,"type":"VEC3"},{"bufferView":16,"componentType":5126,"count":24,"type":"VEC2"},{"bufferView":17,"componentType":5123,"count":36,"type":"SCALAR"},{"bufferView":18,"componentType":5126,"count":4,"type":"VEC3","min":[-0.5,-0.5,0],"max":[0.5,0.5,0]},{"bufferView":19,"componentType":5126,"count":4,"type":"VEC3"},{"bufferView":20,"componentType":5126,"count":4,"type":"VEC2"},{"bufferView":21,"componentType":5123,"count":6,"type":"SCALAR"},{"bufferView":22,"componentType":5126,"count":324,"type":"VEC2"},{"bufferView":23,"componentType":5126,"count":24,"type":"VEC3","min":[-0.5,-0.5,-0.5],"max":[0.5,0.5,0.5]},{"bufferView":24,"componentType":5126,"count":24,"type":"VEC2"},{"bufferView":25,"componentType":5126,"count":24,"type":"VEC2"},{"bufferView":26,"componentType":5126,"count":40,"type":"VEC3","min":[-0.8660253882408142,-0.5,-1],"max":[0.8660253882408142,0.5,1]},{"bufferView":27,"componentType":5126,"count":40,"type":"VEC3"},{"bufferView":28,"componentType":5126,"count":40,"type":"VEC2"},{"bufferView":29,"componentType":5123,"count":72,"type":"SCALAR"},{"bufferView":30,"componentType":5126,"count":24,"type":"VEC2"},{"bufferView":31,"componentType":5126,"count":24,"type":"VEC2"},{"bufferView":32,"componentType":5126,"count":24,"type":"VEC2"},{"bufferView":33,"componentType":5126,"count":24,"type":"VEC2"},{"bufferView":34,"componentType":5126,"count":24,"type":"VEC2"}],"extensionsUsed":["KHR_materials_unlit"],"extras":{"id":"vlt-ghost-kitchen-carousel-11","family":"ghost-kitchen-carousel","variant":10,"plan":"C1-1","units":"metres","up":"+Y","front":"+Z","lodScenes":[0,1,2]}}