{"asset":{"version":"2.0","generator":"SLOPMERICA Department of Unnecessary Development 1.0"},"scene":0,"scenes":[{"name":"LOD 0","nodes":[0,1,2,3,4,5,6,7,8,9,10,11,12,13],"extras":{"level":0}},{"name":"LOD 1","nodes":[14,15,16,17,18,19,20,21,22,23,24,25,26],"extras":{"level":1}},{"name":"LOD 2","nodes":[27,28,29,30,31,32],"extras":{"level":2}}],"nodes":[{"name":"foundation","mesh":0,"translation":[0,0.08,0],"scale":[25.24,0.16,17.64]},{"name":"parcel-shed","mesh":1,"translation":[0,3.3775,0],"scale":[23.04,6.755,15.44]},{"name":"dock-0","mesh":2,"translation":[-8.64,1.6212,7.83],"scale":[5.51,2.8371,0.18]},{"name":"dock-1","mesh":2,"translation":[-2.88,1.6212,7.83],"scale":[5.51,2.8371,0.18]},{"name":"dock-2","mesh":2,"translation":[2.88,1.6212,7.83],"scale":[5.51,2.8371,0.18]},{"name":"dock-3","mesh":2,"translation":[8.64,1.6212,7.83],"scale":[5.51,2.8371,0.18]},{"name":"conveyor","mesh":3,"translation":[0,1,10.4992],"rotation":[0,0.059964,0,0.998201],"scale":[17.28,0.45,1]},{"name":"parcel-0","mesh":4,"translation":[-6.4512,1.43,10.4992],"scale":[0.55,0.4,0.45]},{"name":"parcel-1","mesh":5,"translation":[-3.2256,1.43,10.4992],"rotation":[0,0.099833,0,0.995004],"scale":[0.6,0.4,0.45]},{"name":"parcel-2","mesh":6,"translation":[0,1.43,10.4992],"rotation":[0,0.198669,0,0.980067],"scale":[0.65,0.4,0.45]},{"name":"parcel-3","mesh":7,"translation":[3.2256,1.43,10.4992],"rotation":[0,0.29552,0,0.955336],"scale":[0.7,0.4,0.45]},{"name":"parcel-4","mesh":8,"translation":[6.4512,1.43,10.4992],"rotation":[0,0.389418,0,0.921061],"scale":[0.75,0.4,0.45]},{"name":"panic-chute","mesh":9,"translation":[0,0,0]},{"name":"open-state-bollard","mesh":10,"translation":[9.9072,0.425,8.6464],"scale":[0.22,0.85,0.22]},{"name":"foundation","mesh":11,"translation":[0,0.08,0],"scale":[25.24,0.16,17.64]},{"name":"parcel-shed","mesh":12,"translation":[0,3.3775,0],"scale":[23.04,6.755,15.44]},{"name":"dock-0","mesh":13,"translation":[-7.68,1.6212,7.83],"scale":[7.43,2.8371,0.18]},{"name":"dock-1","mesh":13,"translation":[0,1.6212,7.83],"scale":[7.43,2.8371,0.18]},{"name":"dock-2","mesh":13,"translation":[7.68,1.6212,7.83],"scale":[7.43,2.8371,0.18]},{"name":"conveyor","mesh":14,"translation":[0,1,10.4992],"rotation":[0,0.059964,0,0.998201],"scale":[17.28,0.45,1]},{"name":"parcel-0","mesh":15,"translation":[-6.4512,1.43,10.4992],"scale":[0.55,0.4,0.45]},{"name":"parcel-1","mesh":16,"translation":[-3.2256,1.43,10.4992],"rotation":[0,0.099833,0,0.995004],"scale":[0.6,0.4,0.45]},{"name":"parcel-2","mesh":17,"translation":[0,1.43,10.4992],"rotation":[0,0.198669,0,0.980067],"scale":[0.65,0.4,0.45]},{"name":"parcel-3","mesh":18,"translation":[3.2256,1.43,10.4992],"rotation":[0,0.29552,0,0.955336],"scale":[0.7,0.4,0.45]},{"name":"parcel-4","mesh":19,"translation":[6.4512,1.43,10.4992],"rotation":[0,0.389418,0,0.921061],"scale":[0.75,0.4,0.45]},{"name":"panic-chute","mesh":20,"translation":[0,0,0]},{"name":"open-state-bollard","mesh":21,"translation":[9.9072,0.425,8.6464],"scale":[0.22,0.85,0.22]},{"name":"foundation","mesh":11,"translation":[0,0.08,0],"scale":[25.24,0.16,17.64]},{"name":"parcel-shed","mesh":12,"translation":[0,3.3775,0],"scale":[23.04,6.755,15.44]},{"name":"dock-0","mesh":22,"translation":[0,1.6212,7.83],"scale":[22.79,2.8371,0.18]},{"name":"conveyor","mesh":14,"translation":[0,1,10.4992],"rotation":[0,0.059964,0,0.998201],"scale":[17.28,0.45,1]},{"name":"panic-chute","mesh":23,"translation":[0,0,0]},{"name":"open-state-bollard","mesh":21,"translation":[9.9072,0.425,8.6464],"scale":[0.22,0.85,0.22]}],"meshes":[{"primitives":[{"attributes":{"POSITION":0,"NORMAL":1,"TEXCOORD_0":2},"material":0,"mode":4}]},{"primitives":[{"attributes":{"POSITION":3,"NORMAL":1,"TEXCOORD_0":4},"material":1,"mode":4}]},{"primitives":[{"attributes":{"POSITION":0,"NORMAL":1,"TEXCOORD_0":5},"material":2,"mode":4}]},{"primitives":[{"attributes":{"POSITION":0,"NORMAL":1,"TEXCOORD_0":6},"material":3,"mode":4}]},{"primitives":[{"attributes":{"POSITION":0,"NORMAL":1,"TEXCOORD_0":7},"material":4,"mode":4}]},{"primitives":[{"attributes":{"POSITION":0,"NORMAL":1,"TEXCOORD_0":8},"material":5,"mode":4}]},{"primitives":[{"attributes":{"POSITION":0,"NORMAL":1,"TEXCOORD_0":9},"material":4,"mode":4}]},{"primitives":[{"attributes":{"POSITION":0,"NORMAL":1,"TEXCOORD_0":10},"material":5,"mode":4}]},{"primitives":[{"attributes":{"POSITION":0,"NORMAL":1,"TEXCOORD_0":11},"material":4,"mode":4}]},{"primitives":[{"attributes":{"POSITION":12,"NORMAL":13,"TEXCOORD_0":14},"material":3,"mode":4,"indices":15}]},{"primitives":[{"attributes":{"POSITION":0,"NORMAL":1,"TEXCOORD_0":16},"material":3,"mode":4}]},{"primitives":[{"attributes":{"POSITION":17,"NORMAL":18,"TEXCOORD_0":19},"material":0,"mode":4,"indices":20}]},{"primitives":[{"attributes":{"POSITION":17,"NORMAL":18,"TEXCOORD_0":21},"material":1,"mode":4,"indices":20}]},{"primitives":[{"attributes":{"POSITION":17,"NORMAL":18,"TEXCOORD_0":22},"material":2,"mode":4,"indices":20}]},{"primitives":[{"attributes":{"POSITION":17,"NORMAL":18,"TEXCOORD_0":23},"material":3,"mode":4,"indices":20}]},{"primitives":[{"attributes":{"POSITION":17,"NORMAL":18,"TEXCOORD_0":24},"material":4,"mode":4,"indices":20}]},{"primitives":[{"attributes":{"POSITION":17,"NORMAL":18,"TEXCOORD_0":25},"material":5,"mode":4,"indices":20}]},{"primitives":[{"attributes":{"POSITION":17,"NORMAL":18,"TEXCOORD_0":26},"material":4,"mode":4,"indices":20}]},{"primitives":[{"attributes":{"POSITION":17,"NORMAL":18,"TEXCOORD_0":27},"material":5,"mode":4,"indices":20}]},{"primitives":[{"attributes":{"POSITION":17,"NORMAL":18,"TEXCOORD_0":28},"material":4,"mode":4,"indices":20}]},{"primitives":[{"attributes":{"POSITION":29,"NORMAL":30,"TEXCOORD_0":31},"material":3,"mode":4,"indices":32}]},{"primitives":[{"attributes":{"POSITION":17,"NORMAL":18,"TEXCOORD_0":33},"material":3,"mode":4,"indices":20}]},{"primitives":[{"attributes":{"POSITION":17,"NORMAL":18,"TEXCOORD_0":34},"material":2,"mode":4,"indices":20}]},{"primitives":[{"attributes":{"POSITION":35,"NORMAL":36,"TEXCOORD_0":37},"material":3,"mode":4,"indices":38}]}],"materials":[{"name":"concrete","pbrMetallicRoughness":{"baseColorTexture":{"index":0},"metallicRoughnessTexture":{"index":2},"roughnessFactor":1,"metallicFactor":1},"normalTexture":{"index":1,"scale":0.82},"occlusionTexture":{"index":2,"strength":0.35}},{"name":"metal-galvanized","pbrMetallicRoughness":{"baseColorTexture":{"index":3},"metallicRoughnessTexture":{"index":5},"roughnessFactor":1,"metallicFactor":1},"normalTexture":{"index":4,"scale":0.15},"occlusionTexture":{"index":5,"strength":0.35}},{"name":"metal-dark","pbrMetallicRoughness":{"baseColorTexture":{"index":6},"metallicRoughnessTexture":{"index":8},"roughnessFactor":1,"metallicFactor":1},"normalTexture":{"index":7,"scale":0.35},"occlusionTexture":{"index":8,"strength":0.35}},{"name":"paint-orange","pbrMetallicRoughness":{"baseColorFactor":[0.6444796819634361,0.1878207722902346,0.040915196900556984,1],"roughnessFactor":0.68,"metallicFactor":0.03}},{"name":"paint-yellow","pbrMetallicRoughness":{"baseColorFactor":[0.76052450467022,0.4793201830913402,0.07818742179702069,1],"roughnessFactor":0.66,"metallicFactor":0.03}},{"name":"brick-cream","pbrMetallicRoughness":{"baseColorTexture":{"index":9},"metallicRoughnessTexture":{"index":11},"roughnessFactor":1,"metallicFactor":1},"normalTexture":{"index":10,"scale":1.05},"occlusionTexture":{"index":11,"strength":0.35}}],"textures":[{"source":0,"sampler":0},{"source":1,"sampler":0},{"source":2,"sampler":0},{"source":3,"sampler":0},{"source":4,"sampler":0},{"source":5,"sampler":0},{"source":6,"sampler":0},{"source":7,"sampler":0},{"source":8,"sampler":0},{"source":9,"sampler":0},{"source":10,"sampler":0},{"source":11,"sampler":0}],"images":[{"uri":"../textures/concrete-albedo.png"},{"uri":"../textures/concrete-normal.png"},{"uri":"../textures/concrete-orm.png"},{"uri":"../textures/metal-galvanized-albedo.png"},{"uri":"../textures/metal-galvanized-normal.png"},{"uri":"../textures/metal-galvanized-orm.png"},{"uri":"../textures/metal-dark-albedo.png"},{"uri":"../textures/metal-dark-normal.png"},{"uri":"../textures/metal-dark-orm.png"},{"uri":"../textures/brick-cream-albedo.png"},{"uri":"../textures/brick-cream-normal.png"},{"uri":"../textures/brick-cream-orm.png"}],"samplers":[{"magFilter":9729,"minFilter":9987,"wrapS":10497,"wrapT":10497}],"buffers":[{"uri":"../shared/geometry.bin","byteLength":16435520}],"bufferViews":[{"buffer":0,"byteOffset":0,"byteLength":3888,"target":34962},{"buffer":0,"byteOffset":3888,"byteLength":3888,"target":34962},{"buffer":0,"byteOffset":9685064,"byteLength":2592,"target":34962},{"buffer":0,"byteOffset":33392,"byteLength":3888,"target":34962},{"buffer":0,"byteOffset":9687656,"byteLength":2592,"target":34962},{"buffer":0,"byteOffset":9622016,"byteLength":2592,"target":34962},{"buffer":0,"byteOffset":9624608,"byteLength":2592,"target":34962},{"buffer":0,"byteOffset":9597368,"byteLength":2592,"target":34962},{"buffer":0,"byteOffset":9599960,"byteLength":2592,"target":34962},{"buffer":0,"byteOffset":9602552,"byteLength":2592,"target":34962},{"buffer":0,"byteOffset":9605144,"byteLength":2592,"target":34962},{"buffer":0,"byteOffset":9607736,"byteLength":2592,"target":34962},{"buffer":0,"byteOffset":9690248,"byteLength":1404,"target":34962},{"buffer":0,"byteOffset":9691652,"byteLength":1404,"target":34962},{"buffer":0,"byteOffset":2085772,"byteLength":936,"target":34962},{"buffer":0,"byteOffset":2086708,"byteLength":1152,"target":34963},{"buffer":0,"byteOffset":422312,"byteLength":2592,"target":34962},{"buffer":0,"byteOffset":46644,"byteLength":288,"target":34962},{"buffer":0,"byteOffset":45952,"byteLength":288,"target":34962},{"buffer":0,"byteOffset":9693056,"byteLength":192,"target":34962},{"buffer":0,"byteOffset":46432,"byteLength":72,"target":34963},{"buffer":0,"byteOffset":9693248,"byteLength":192,"target":34962},{"buffer":0,"byteOffset":9630392,"byteLength":192,"target":34962},{"buffer":0,"byteOffset":9630584,"byteLength":192,"target":34962},{"buffer":0,"byteOffset":9613904,"byteLength":192,"target":34962},{"buffer":0,"byteOffset":9614096,"byteLength":192,"target":34962},{"buffer":0,"byteOffset":9614288,"byteLength":192,"target":34962},{"buffer":0,"byteOffset":9614480,"byteLength":192,"target":34962},{"buffer":0,"byteOffset":9614672,"byteLength":192,"target":34962},{"buffer":0,"byteOffset":9693440,"byteLength":588,"target":34962},{"buffer":0,"byteOffset":9694028,"byteLength":588,"target":34962},{"buffer":0,"byteOffset":2096012,"byteLength":392,"target":34962},{"buffer":0,"byteOffset":2096404,"byteLength":432,"target":34963},{"buffer":0,"byteOffset":436936,"byteLength":192,"target":34962},{"buffer":0,"byteOffset":9631952,"byteLength":192,"target":34962},{"buffer":0,"byteOffset":9694616,"byteLength":300,"target":34962},{"buffer":0,"byteOffset":9694916,"byteLength":300,"target":34962},{"buffer":0,"byteOffset":2100356,"byteLength":200,"target":34962},{"buffer":0,"byteOffset":440168,"byteLength":192,"target":34963}],"accessors":[{"bufferView":0,"componentType":5126,"count":324,"type":"VEC3","min":[-0.5,-0.5,-0.5],"max":[0.5,0.5,0.5]},{"bufferView":1,"componentType":5126,"count":324,"type":"VEC3"},{"bufferView":2,"componentType":5126,"count":324,"type":"VEC2"},{"bufferView":3,"componentType":5126,"count":324,"type":"VEC3","min":[-0.5,-0.5,-0.5],"max":[0.5,0.5,0.5]},{"bufferView":4,"componentType":5126,"count":324,"type":"VEC2"},{"bufferView":5,"componentType":5126,"count":324,"type":"VEC2"},{"bufferView":6,"componentType":5126,"count":324,"type":"VEC2"},{"bufferView":7,"componentType":5126,"count":324,"type":"VEC2"},{"bufferView":8,"componentType":5126,"count":324,"type":"VEC2"},{"bufferView":9,"componentType":5126,"count":324,"type":"VEC2"},{"bufferView":10,"componentType":5126,"count":324,"type":"VEC2"},{"bufferView":11,"componentType":5126,"count":324,"type":"VEC2"},{"bufferView":12,"componentType":5126,"count":117,"type":"VEC3","min":[8.439706802368164,0.37070581316947937,-3.274580478668213],"max":[11.859395027160645,5.709049701690674,9.721491813659668]},{"bufferView":13,"componentType":5126,"count":117,"type":"VEC3"},{"bufferView":14,"componentType":5126,"count":117,"type":"VEC2"},{"bufferView":15,"componentType":5123,"count":576,"type":"SCALAR"},{"bufferView":16,"componentType":5126,"count":324,"type":"VEC2"},{"bufferView":17,"componentType":5126,"count":24,"type":"VEC3","min":[-0.5,-0.5,-0.5],"max":[0.5,0.5,0.5]},{"bufferView":18,"componentType":5126,"count":24,"type":"VEC3"},{"bufferView":19,"componentType":5126,"count":24,"type":"VEC2"},{"bufferView":20,"componentType":5123,"count":36,"type":"SCALAR"},{"bufferView":21,"componentType":5126,"count":24,"type":"VEC2"},{"bufferView":22,"componentType":5126,"count":24,"type":"VEC2"},{"bufferView":23,"componentType":5126,"count":24,"type":"VEC2"},{"bufferView":24,"componentType":5126,"count":24,"type":"VEC2"},{"bufferView":25,"componentType":5126,"count":24,"type":"VEC2"},{"bufferView":26,"componentType":5126,"count":24,"type":"VEC2"},{"bufferView":27,"componentType":5126,"count":24,"type":"VEC2"},{"bufferView":28,"componentType":5126,"count":24,"type":"VEC2"},{"bufferView":29,"componentType":5126,"count":49,"type":"VEC3","min":[8.439706802368164,0.398512601852417,-3.274890899658203],"max":[11.859395027160645,5.696166515350342,9.708924293518066]},{"bufferView":30,"componentType":5126,"count":49,"type":"VEC3"},{"bufferView":31,"componentType":5126,"count":49,"type":"VEC2"},{"bufferView":32,"componentType":5123,"count":216,"type":"SCALAR"},{"bufferView":33,"componentType":5126,"count":24,"type":"VEC2"},{"bufferView":34,"componentType":5126,"count":24,"type":"VEC2"},{"bufferView":35,"componentType":5126,"count":25,"type":"VEC3","min":[8.439706802368164,0.37070581316947937,-3.2381491661071777],"max":[11.859395027160645,5.709049701690674,9.698434829711914]},{"bufferView":36,"componentType":5126,"count":25,"type":"VEC3"},{"bufferView":37,"componentType":5126,"count":25,"type":"VEC2"},{"bufferView":38,"componentType":5123,"count":96,"type":"SCALAR"}],"extensionsUsed":["KHR_materials_unlit"],"extras":{"id":"vlt-parcel-panic-07","family":"parcel-panic","variant":6,"plan":"B2-1","units":"metres","up":"+Y","front":"+Z","lodScenes":[0,1,2]}}