{"asset":{"version":"2.0","generator":"SLOPMERICA Department of Unnecessary Development 1.0"},"scene":0,"scenes":[{"name":"LOD 0","nodes":[0,1,2,3,4,5,6,7,8,9,10,11,12,13,14,15,16,17,18,19],"extras":{"level":0}},{"name":"LOD 1","nodes":[20,21,22,23,24,25,26,27,28,29,30,31,32,33,34,35,36,37,38,39],"extras":{"level":1}},{"name":"LOD 2","nodes":[40,41,42,43,44,45,46,47,48,49,50,51,52,53],"extras":{"level":2}}],"nodes":[{"name":"site-pad","mesh":0,"translation":[0,0.06,0],"scale":[9.984,0.12,6.9888]},{"name":"variant-apron","mesh":1,"translation":[1.872,0.13,3.58],"scale":[2.352,0.08,1.34]},{"name":"bollard-0","mesh":2,"translation":[-3.648,0.43,3.7],"scale":[0.08,0.74,0.08]},{"name":"bollard-1","mesh":2,"translation":[3.648,0.43,3.7],"scale":[0.08,0.74,0.08]},{"name":"layout-cabinet","mesh":3,"translation":[5,0.525,1.512],"scale":[0.81,0.81,0.32]},{"name":"deferred-maintenance-skip","mesh":4,"translation":[-3.264,0.5,-2.9568],"scale":[1.27,0.75,0.65]},{"name":"skip-rubble","mesh":5,"translation":[-3.264,0.98,-2.9568],"rotation":[0,0.29552,0,0.955336],"scale":[0.72,0.2,0.5]},{"name":"civic-shell","mesh":6,"translation":[0,2.265,0],"scale":[9.6,4.29,6.72]},{"name":"flat-budget-roof","mesh":7,"translation":[0,4.54,0],"scale":[9.9,0.25,7.02]},{"name":"entrance-recess","mesh":8,"translation":[2.304,1.42,3.49],"scale":[2.12,2.6,0.24]},{"name":"glass-doors","mesh":9,"translation":[2.304,1.3,3.64],"scale":[1.5,2.15,0.12]},{"name":"window-0","mesh":10,"translation":[-3.648,2.4882,3.51],"scale":[0.85,1.15,0.1]},{"name":"window-1","mesh":10,"translation":[0,2.4882,3.51],"scale":[0.85,1.15,0.1]},{"name":"window-2","mesh":10,"translation":[3.648,2.4882,3.51],"scale":[0.85,1.15,0.1]},{"name":"civic-sign-back","mesh":11,"translation":[0,3.57,3.54],"scale":[6.052,1,1]},{"name":"civic-sign","mesh":12,"translation":[0,3.57,3.569],"scale":[5.952,0.9,1]},{"name":"sally-port","mesh":13,"translation":[6.5,1.62,-0.7],"scale":[3.8,3,4]},{"name":"sally-door","mesh":14,"translation":[6.5,1.35,1.36],"scale":[2.6,2.25,0.15]},{"name":"radio-mast","mesh":15,"translation":[-3.264,6.49,0],"scale":[0.11,7,0.11]},{"name":"mast-loop","mesh":16,"translation":[-3.264,11.09,0],"rotation":[0.707107,0,0,0.707107]},{"name":"site-pad","mesh":17,"translation":[0,0.06,0],"scale":[9.984,0.12,6.9888]},{"name":"variant-apron","mesh":18,"translation":[1.872,0.13,3.58],"scale":[2.352,0.08,1.34]},{"name":"bollard-0","mesh":19,"translation":[-3.648,0.43,3.7],"scale":[0.08,0.74,0.08]},{"name":"bollard-1","mesh":19,"translation":[3.648,0.43,3.7],"scale":[0.08,0.74,0.08]},{"name":"layout-cabinet","mesh":20,"translation":[5,0.525,1.512],"scale":[0.81,0.81,0.32]},{"name":"deferred-maintenance-skip","mesh":21,"translation":[-3.264,0.5,-2.9568],"scale":[1.27,0.75,0.65]},{"name":"skip-rubble","mesh":22,"translation":[-3.264,0.98,-2.9568],"rotation":[0,0.29552,0,0.955336],"scale":[0.72,0.2,0.5]},{"name":"civic-shell","mesh":23,"translation":[0,2.265,0],"scale":[9.6,4.29,6.72]},{"name":"flat-budget-roof","mesh":24,"translation":[0,4.54,0],"scale":[9.9,0.25,7.02]},{"name":"entrance-recess","mesh":25,"translation":[2.304,1.42,3.49],"scale":[2.12,2.6,0.24]},{"name":"glass-doors","mesh":26,"translation":[2.304,1.3,3.64],"scale":[1.5,2.15,0.12]},{"name":"window-0","mesh":27,"translation":[-3.648,2.4882,3.51],"scale":[0.85,1.15,0.1]},{"name":"window-1","mesh":27,"translation":[0,2.4882,3.51],"scale":[0.85,1.15,0.1]},{"name":"window-2","mesh":27,"translation":[3.648,2.4882,3.51],"scale":[0.85,1.15,0.1]},{"name":"civic-sign-back","mesh":11,"translation":[0,3.57,3.54],"scale":[6.052,1,1]},{"name":"civic-sign","mesh":12,"translation":[0,3.57,3.569],"scale":[5.952,0.9,1]},{"name":"sally-port","mesh":28,"translation":[6.5,1.62,-0.7],"scale":[3.8,3,4]},{"name":"sally-door","mesh":29,"translation":[6.5,1.35,1.36],"scale":[2.6,2.25,0.15]},{"name":"radio-mast","mesh":30,"translation":[-3.264,6.49,0],"scale":[0.11,7,0.11]},{"name":"mast-loop","mesh":31,"translation":[-3.264,11.09,0],"rotation":[0.707107,0,0,0.707107]},{"name":"site-pad","mesh":17,"translation":[0,0.06,0],"scale":[9.984,0.12,6.9888]},{"name":"variant-apron","mesh":18,"translation":[1.872,0.13,3.58],"scale":[2.352,0.08,1.34]},{"name":"bollard-0","mesh":19,"translation":[-3.648,0.43,3.7],"scale":[0.08,0.74,0.08]},{"name":"layout-cabinet","mesh":20,"translation":[5,0.525,1.512],"scale":[0.81,0.81,0.32]},{"name":"deferred-maintenance-skip","mesh":21,"translation":[-3.264,0.5,-2.9568],"scale":[1.27,0.75,0.65]},{"name":"civic-shell","mesh":23,"translation":[0,2.265,0],"scale":[9.6,4.29,6.72]},{"name":"flat-budget-roof","mesh":24,"translation":[0,4.54,0],"scale":[9.9,0.25,7.02]},{"name":"entrance-recess","mesh":25,"translation":[2.304,1.42,3.49],"scale":[2.12,2.6,0.24]},{"name":"glass-doors","mesh":26,"translation":[2.304,1.3,3.64],"scale":[1.5,2.15,0.12]},{"name":"civic-sign-back","mesh":11,"translation":[0,3.57,3.54],"scale":[6.052,1,1]},{"name":"civic-sign","mesh":12,"translation":[0,3.57,3.569],"scale":[5.952,0.9,1]},{"name":"sally-port","mesh":28,"translation":[6.5,1.62,-0.7],"scale":[3.8,3,4]},{"name":"sally-door","mesh":29,"translation":[6.5,1.35,1.36],"scale":[2.6,2.25,0.15]},{"name":"radio-mast","mesh":30,"translation":[-3.264,6.49,0],"scale":[0.11,7,0.11]}],"meshes":[{"primitives":[{"attributes":{"POSITION":0,"NORMAL":1,"TEXCOORD_0":2},"material":0,"mode":4}]},{"primitives":[{"attributes":{"POSITION":0,"NORMAL":1,"TEXCOORD_0":3},"material":1,"mode":4}]},{"primitives":[{"attributes":{"POSITION":4,"NORMAL":5,"TEXCOORD_0":6},"material":2,"mode":4,"indices":7}]},{"primitives":[{"attributes":{"POSITION":0,"NORMAL":1,"TEXCOORD_0":8},"material":3,"mode":4}]},{"primitives":[{"attributes":{"POSITION":0,"NORMAL":1,"TEXCOORD_0":9},"material":2,"mode":4}]},{"primitives":[{"attributes":{"POSITION":0,"NORMAL":1,"TEXCOORD_0":10},"material":0,"mode":4}]},{"primitives":[{"attributes":{"POSITION":11,"NORMAL":1,"TEXCOORD_0":12},"material":4,"mode":4}]},{"primitives":[{"attributes":{"POSITION":0,"NORMAL":1,"TEXCOORD_0":13},"material":5,"mode":4}]},{"primitives":[{"attributes":{"POSITION":0,"NORMAL":1,"TEXCOORD_0":14},"material":6,"mode":4}]},{"primitives":[{"attributes":{"POSITION":0,"NORMAL":1,"TEXCOORD_0":15},"material":7,"mode":4}]},{"primitives":[{"attributes":{"POSITION":0,"NORMAL":1,"TEXCOORD_0":16},"material":7,"mode":4}]},{"primitives":[{"attributes":{"POSITION":17,"NORMAL":18,"TEXCOORD_0":19},"material":6,"mode":4,"indices":20}]},{"primitives":[{"attributes":{"POSITION":21,"NORMAL":22,"TEXCOORD_0":23},"material":8,"mode":4,"indices":24}]},{"primitives":[{"attributes":{"POSITION":25,"NORMAL":1,"TEXCOORD_0":26},"material":0,"mode":4}]},{"primitives":[{"attributes":{"POSITION":0,"NORMAL":1,"TEXCOORD_0":27},"material":6,"mode":4}]},{"primitives":[{"attributes":{"POSITION":28,"NORMAL":29,"TEXCOORD_0":30},"material":6,"mode":4,"indices":7}]},{"primitives":[{"attributes":{"POSITION":31,"NORMAL":32,"TEXCOORD_0":33},"material":6,"mode":4,"indices":34}]},{"primitives":[{"attributes":{"POSITION":35,"NORMAL":18,"TEXCOORD_0":36},"material":0,"mode":4,"indices":20}]},{"primitives":[{"attributes":{"POSITION":35,"NORMAL":18,"TEXCOORD_0":37},"material":1,"mode":4,"indices":20}]},{"primitives":[{"attributes":{"POSITION":38,"NORMAL":39,"TEXCOORD_0":40},"material":2,"mode":4,"indices":41}]},{"primitives":[{"attributes":{"POSITION":35,"NORMAL":18,"TEXCOORD_0":42},"material":3,"mode":4,"indices":20}]},{"primitives":[{"attributes":{"POSITION":35,"NORMAL":18,"TEXCOORD_0":43},"material":2,"mode":4,"indices":20}]},{"primitives":[{"attributes":{"POSITION":35,"NORMAL":18,"TEXCOORD_0":44},"material":0,"mode":4,"indices":20}]},{"primitives":[{"attributes":{"POSITION":35,"NORMAL":18,"TEXCOORD_0":45},"material":4,"mode":4,"indices":20}]},{"primitives":[{"attributes":{"POSITION":35,"NORMAL":18,"TEXCOORD_0":46},"material":5,"mode":4,"indices":20}]},{"primitives":[{"attributes":{"POSITION":35,"NORMAL":18,"TEXCOORD_0":47},"material":6,"mode":4,"indices":20}]},{"primitives":[{"attributes":{"POSITION":35,"NORMAL":18,"TEXCOORD_0":48},"material":7,"mode":4,"indices":20}]},{"primitives":[{"attributes":{"POSITION":35,"NORMAL":18,"TEXCOORD_0":49},"material":7,"mode":4,"indices":20}]},{"primitives":[{"attributes":{"POSITION":35,"NORMAL":18,"TEXCOORD_0":50},"material":0,"mode":4,"indices":20}]},{"primitives":[{"attributes":{"POSITION":35,"NORMAL":18,"TEXCOORD_0":51},"material":6,"mode":4,"indices":20}]},{"primitives":[{"attributes":{"POSITION":52,"NORMAL":53,"TEXCOORD_0":54},"material":6,"mode":4,"indices":41}]},{"primitives":[{"attributes":{"POSITION":55,"NORMAL":56,"TEXCOORD_0":57},"material":6,"mode":4,"indices":58}]}],"materials":[{"name":"concrete","pbrMetallicRoughness":{"baseColorTexture":{"index":0},"metallicRoughnessTexture":{"index":2},"roughnessFactor":1,"metallicFactor":1},"normalTexture":{"index":1,"scale":0.82},"occlusionTexture":{"index":2,"strength":0.35}},{"name":"asphalt","pbrMetallicRoughness":{"baseColorTexture":{"index":3},"metallicRoughnessTexture":{"index":5},"roughnessFactor":1,"metallicFactor":1},"normalTexture":{"index":4,"scale":0.62},"occlusionTexture":{"index":5,"strength":0.35}},{"name":"paint-orange","pbrMetallicRoughness":{"baseColorFactor":[0.6444796819634361,0.1878207722902346,0.040915196900556984,1],"roughnessFactor":0.68,"metallicFactor":0.03}},{"name":"metal-galvanized","pbrMetallicRoughness":{"baseColorTexture":{"index":6},"metallicRoughnessTexture":{"index":8},"roughnessFactor":1,"metallicFactor":1},"normalTexture":{"index":7,"scale":0.15},"occlusionTexture":{"index":8,"strength":0.35}},{"name":"brick-cream","pbrMetallicRoughness":{"baseColorTexture":{"index":9},"metallicRoughnessTexture":{"index":11},"roughnessFactor":1,"metallicFactor":1},"normalTexture":{"index":10,"scale":1.05},"occlusionTexture":{"index":11,"strength":0.35}},{"name":"roof-metal","pbrMetallicRoughness":{"baseColorTexture":{"index":12},"metallicRoughnessTexture":{"index":14},"roughnessFactor":1,"metallicFactor":1},"normalTexture":{"index":13,"scale":0.68},"occlusionTexture":{"index":14,"strength":0.35}},{"name":"metal-dark","pbrMetallicRoughness":{"baseColorTexture":{"index":15},"metallicRoughnessTexture":{"index":17},"roughnessFactor":1,"metallicFactor":1},"normalTexture":{"index":16,"scale":0.35},"occlusionTexture":{"index":17,"strength":0.35}},{"name":"glass-blue","pbrMetallicRoughness":{"baseColorTexture":{"index":18},"metallicRoughnessTexture":{"index":20},"roughnessFactor":1,"metallicFactor":1},"normalTexture":{"index":19,"scale":0.12},"occlusionTexture":{"index":20,"strength":0.35}},{"name":"sheriff-substation signage","pbrMetallicRoughness":{"baseColorTexture":{"index":21},"roughnessFactor":1,"metallicFactor":0},"extensions":{"KHR_materials_unlit":{}}}],"textures":[{"source":0,"sampler":0},{"source":1,"sampler":0},{"source":2,"sampler":0},{"source":3,"sampler":0},{"source":4,"sampler":0},{"source":5,"sampler":0},{"source":6,"sampler":0},{"source":7,"sampler":0},{"source":8,"sampler":0},{"source":9,"sampler":0},{"source":10,"sampler":0},{"source":11,"sampler":0},{"source":12,"sampler":0},{"source":13,"sampler":0},{"source":14,"sampler":0},{"source":15,"sampler":0},{"source":16,"sampler":0},{"source":17,"sampler":0},{"source":18,"sampler":0},{"source":19,"sampler":0},{"source":20,"sampler":0},{"source":21,"sampler":0}],"images":[{"uri":"../textures/concrete-albedo.png"},{"uri":"../textures/concrete-normal.png"},{"uri":"../textures/concrete-orm.png"},{"uri":"../textures/asphalt-albedo.png"},{"uri":"../textures/asphalt-normal.png"},{"uri":"../textures/asphalt-orm.png"},{"uri":"../textures/metal-galvanized-albedo.png"},{"uri":"../textures/metal-galvanized-normal.png"},{"uri":"../textures/metal-galvanized-orm.png"},{"uri":"../textures/brick-cream-albedo.png"},{"uri":"../textures/brick-cream-normal.png"},{"uri":"../textures/brick-cream-orm.png"},{"uri":"../textures/roof-metal-albedo.png"},{"uri":"../textures/roof-metal-normal.png"},{"uri":"../textures/roof-metal-orm.png"},{"uri":"../textures/metal-dark-albedo.png"},{"uri":"../textures/metal-dark-normal.png"},{"uri":"../textures/metal-dark-orm.png"},{"uri":"../textures/glass-blue-albedo.png"},{"uri":"../textures/glass-blue-normal.png"},{"uri":"../textures/glass-blue-orm.png"},{"uri":"../signs/sheriff-substation.png"}],"samplers":[{"magFilter":9729,"minFilter":9987,"wrapS":10497,"wrapT":10497}],"buffers":[{"uri":"../shared/geometry.bin","byteLength":16435520}],"bufferViews":[{"buffer":0,"byteOffset":0,"byteLength":3888,"target":34962},{"buffer":0,"byteOffset":3888,"byteLength":3888,"target":34962},{"buffer":0,"byteOffset":10278060,"byteLength":2592,"target":34962},{"buffer":0,"byteOffset":10367148,"byteLength":2592,"target":34962},{"buffer":0,"byteOffset":12960,"byteLength":1200,"target":34962},{"buffer":0,"byteOffset":14160,"byteLength":1200,"target":34962},{"buffer":0,"byteOffset":179140,"byteLength":800,"target":34962},{"buffer":0,"byteOffset":16160,"byteLength":384,"target":34963},{"buffer":0,"byteOffset":185860,"byteLength":2592,"target":34962},{"buffer":0,"byteOffset":211268,"byteLength":2592,"target":34962},{"buffer":0,"byteOffset":208260,"byteLength":2592,"target":34962},{"buffer":0,"byteOffset":33392,"byteLength":3888,"target":34962},{"buffer":0,"byteOffset":13097720,"byteLength":2592,"target":34962},{"buffer":0,"byteOffset":10285836,"byteLength":2592,"target":34962},{"buffer":0,"byteOffset":3922236,"byteLength":2592,"target":34962},{"buffer":0,"byteOffset":3899772,"byteLength":2592,"target":34962},{"buffer":0,"byteOffset":3902364,"byteLength":2592,"target":34962},{"buffer":0,"byteOffset":45664,"byteLength":288,"target":34962},{"buffer":0,"byteOffset":45952,"byteLength":288,"target":34962},{"buffer":0,"byteOffset":46240,"byteLength":192,"target":34962},{"buffer":0,"byteOffset":46432,"byteLength":72,"target":34963},{"buffer":0,"byteOffset":46504,"byteLength":48,"target":34962},{"buffer":0,"byteOffset":46552,"byteLength":48,"target":34962},{"buffer":0,"byteOffset":222884,"byteLength":32,"target":34962},{"buffer":0,"byteOffset":46632,"byteLength":12,"target":34963},{"buffer":0,"byteOffset":868536,"byteLength":3888,"target":34962},{"buffer":0,"byteOffset":13100312,"byteLength":2592,"target":34962},{"buffer":0,"byteOffset":13085512,"byteLength":2592,"target":34962},{"buffer":0,"byteOffset":13088104,"byteLength":1200,"target":34962},{"buffer":0,"byteOffset":13089304,"byteLength":1200,"target":34962},{"buffer":0,"byteOffset":13122232,"byteLength":800,"target":34962},{"buffer":0,"byteOffset":13091304,"byteLength":3132,"target":34962},{"buffer":0,"byteOffset":390704,"byteLength":3132,"target":34962},{"buffer":0,"byteOffset":2835332,"byteLength":2088,"target":34962},{"buffer":0,"byteOffset":395924,"byteLength":2688,"target":34963},{"buffer":0,"byteOffset":46644,"byteLength":288,"target":34962},{"buffer":0,"byteOffset":10293612,"byteLength":192,"target":34962},{"buffer":0,"byteOffset":10369740,"byteLength":192,"target":34962},{"buffer":0,"byteOffset":47316,"byteLength":480,"target":34962},{"buffer":0,"byteOffset":47796,"byteLength":480,"target":34962},{"buffer":0,"byteOffset":182756,"byteLength":320,"target":34962},{"buffer":0,"byteOffset":48596,"byteLength":144,"target":34963},{"buffer":0,"byteOffset":188676,"byteLength":192,"target":34962},{"buffer":0,"byteOffset":213892,"byteLength":192,"target":34962},{"buffer":0,"byteOffset":211076,"byteLength":192,"target":34962},{"buffer":0,"byteOffset":13102904,"byteLength":192,"target":34962},{"buffer":0,"byteOffset":10294188,"byteLength":192,"target":34962},{"buffer":0,"byteOffset":3925596,"byteLength":192,"target":34962},{"buffer":0,"byteOffset":3911100,"byteLength":192,"target":34962},{"buffer":0,"byteOffset":3911292,"byteLength":192,"target":34962},{"buffer":0,"byteOffset":13103096,"byteLength":192,"target":34962},{"buffer":0,"byteOffset":13094820,"byteLength":192,"target":34962},{"buffer":0,"byteOffset":13095012,"byteLength":480,"target":34962},{"buffer":0,"byteOffset":13095492,"byteLength":480,"target":34962},{"buffer":0,"byteOffset":13123032,"byteLength":320,"target":34962},{"buffer":0,"byteOffset":13096292,"byteLength":1428,"target":34962},{"buffer":0,"byteOffset":427996,"byteLength":1428,"target":34962},{"buffer":0,"byteOffset":2864312,"byteLength":952,"target":34962},{"buffer":0,"byteOffset":430376,"byteLength":1152,"target":34963}],"accessors":[{"bufferView":0,"componentType":5126,"count":324,"type":"VEC3","min":[-0.5,-0.5,-0.5],"max":[0.5,0.5,0.5]},{"bufferView":1,"componentType":5126,"count":324,"type":"VEC3"},{"bufferView":2,"componentType":5126,"count":324,"type":"VEC2"},{"bufferView":3,"componentType":5126,"count":324,"type":"VEC2"},{"bufferView":4,"componentType":5126,"count":100,"type":"VEC3","min":[-1,-0.5,-1],"max":[1,0.5,1]},{"bufferView":5,"componentType":5126,"count":100,"type":"VEC3"},{"bufferView":6,"componentType":5126,"count":100,"type":"VEC2"},{"bufferView":7,"componentType":5123,"count":192,"type":"SCALAR"},{"bufferView":8,"componentType":5126,"count":324,"type":"VEC2"},{"bufferView":9,"componentType":5126,"count":324,"type":"VEC2"},{"bufferView":10,"componentType":5126,"count":324,"type":"VEC2"},{"bufferView":11,"componentType":5126,"count":324,"type":"VEC3","min":[-0.5,-0.5,-0.5],"max":[0.5,0.5,0.5]},{"bufferView":12,"componentType":5126,"count":324,"type":"VEC2"},{"bufferView":13,"componentType":5126,"count":324,"type":"VEC2"},{"bufferView":14,"componentType":5126,"count":324,"type":"VEC2"},{"bufferView":15,"componentType":5126,"count":324,"type":"VEC2"},{"bufferView":16,"componentType":5126,"count":324,"type":"VEC2"},{"bufferView":17,"componentType":5126,"count":24,"type":"VEC3","min":[-0.5,-0.5,-0.02500000037252903],"max":[0.5,0.5,0.02500000037252903]},{"bufferView":18,"componentType":5126,"count":24,"type":"VEC3"},{"bufferView":19,"componentType":5126,"count":24,"type":"VEC2"},{"bufferView":20,"componentType":5123,"count":36,"type":"SCALAR"},{"bufferView":21,"componentType":5126,"count":4,"type":"VEC3","min":[-0.5,-0.5,0],"max":[0.5,0.5,0]},{"bufferView":22,"componentType":5126,"count":4,"type":"VEC3"},{"bufferView":23,"componentType":5126,"count":4,"type":"VEC2"},{"bufferView":24,"componentType":5123,"count":6,"type":"SCALAR"},{"bufferView":25,"componentType":5126,"count":324,"type":"VEC3","min":[-0.5,-0.5,-0.5],"max":[0.5,0.5,0.5]},{"bufferView":26,"componentType":5126,"count":324,"type":"VEC2"},{"bufferView":27,"componentType":5126,"count":324,"type":"VEC2"},{"bufferView":28,"componentType":5126,"count":100,"type":"VEC3","min":[-1,-0.5,-1],"max":[1,0.5,1]},{"bufferView":29,"componentType":5126,"count":100,"type":"VEC3"},{"bufferView":30,"componentType":5126,"count":100,"type":"VEC2"},{"bufferView":31,"componentType":5126,"count":261,"type":"VEC3","min":[-0.6000000238418579,-0.6000000238418579,-0.05000000074505806],"max":[0.6000000238418579,0.6000000238418579,0.05000000074505806]},{"bufferView":32,"componentType":5126,"count":261,"type":"VEC3"},{"bufferView":33,"componentType":5126,"count":261,"type":"VEC2"},{"bufferView":34,"componentType":5123,"count":1344,"type":"SCALAR"},{"bufferView":35,"componentType":5126,"count":24,"type":"VEC3","min":[-0.5,-0.5,-0.5],"max":[0.5,0.5,0.5]},{"bufferView":36,"componentType":5126,"count":24,"type":"VEC2"},{"bufferView":37,"componentType":5126,"count":24,"type":"VEC2"},{"bufferView":38,"componentType":5126,"count":40,"type":"VEC3","min":[-0.8660253882408142,-0.5,-1],"max":[0.8660253882408142,0.5,1]},{"bufferView":39,"componentType":5126,"count":40,"type":"VEC3"},{"bufferView":40,"componentType":5126,"count":40,"type":"VEC2"},{"bufferView":41,"componentType":5123,"count":72,"type":"SCALAR"},{"bufferView":42,"componentType":5126,"count":24,"type":"VEC2"},{"bufferView":43,"componentType":5126,"count":24,"type":"VEC2"},{"bufferView":44,"componentType":5126,"count":24,"type":"VEC2"},{"bufferView":45,"componentType":5126,"count":24,"type":"VEC2"},{"bufferView":46,"componentType":5126,"count":24,"type":"VEC2"},{"bufferView":47,"componentType":5126,"count":24,"type":"VEC2"},{"bufferView":48,"componentType":5126,"count":24,"type":"VEC2"},{"bufferView":49,"componentType":5126,"count":24,"type":"VEC2"},{"bufferView":50,"componentType":5126,"count":24,"type":"VEC2"},{"bufferView":51,"componentType":5126,"count":24,"type":"VEC2"},{"bufferView":52,"componentType":5126,"count":40,"type":"VEC3","min":[-0.8660253882408142,-0.5,-1],"max":[0.8660253882408142,0.5,1]},{"bufferView":53,"componentType":5126,"count":40,"type":"VEC3"},{"bufferView":54,"componentType":5126,"count":40,"type":"VEC2"},{"bufferView":55,"componentType":5126,"count":119,"type":"VEC3","min":[-0.6000000238418579,-0.6000000238418579,-0.04330126941204071],"max":[0.6000000238418579,0.6000000238418579,0.04330126941204071]},{"bufferView":56,"componentType":5126,"count":119,"type":"VEC3"},{"bufferView":57,"componentType":5126,"count":119,"type":"VEC2"},{"bufferView":58,"componentType":5123,"count":576,"type":"SCALAR"}],"extensionsUsed":["KHR_materials_unlit"],"extras":{"id":"vlt-sheriff-substation-37","family":"sheriff-substation","variant":36,"plan":"D2-2","units":"metres","up":"+Y","front":"+Z","lodScenes":[0,1,2]}}