{"asset":{"version":"2.0","generator":"SLOPMERICA Department of Unnecessary Development 1.0"},"scene":0,"scenes":[{"name":"LOD 0","nodes":[0,1,2,3,4,5,6,7,8,9,10,11,12,13,14,15,16,17,18,19,20,21,22,23,24,25,26,27,28,29,30,31,32,33,34,35,36,37,38,39,40],"extras":{"level":0}},{"name":"LOD 1","nodes":[41,42,43,44,45,46,47,48,49,50,51,52,53,54,55,56,57,58,59,60,61,62,63,64,65,66,67,68,69,70,71,72,73,74,75,76,77,78,79,80,81],"extras":{"level":1}},{"name":"LOD 2","nodes":[82,83,84,85,86,87,88,89,90,91,92,93,94,95,96,97,98],"extras":{"level":2}}],"nodes":[{"name":"surveyed lot","mesh":0,"translation":[0,0.06,0],"scale":[17.92,0.12,14.56]},{"name":"anti-rest bench 0 seat","mesh":1,"translation":[3.301342,0.62,1.693927],"rotation":[0,0.466561,0,0.884489],"scale":[2.4,0.16,0.55]},{"name":"anti-rest bench 0 back","mesh":2,"translation":[3.301342,1.02,1.443927],"rotation":[0,0.466561,0,0.884489],"scale":[2.4,0.75,0.13]},{"name":"post 2.451342459638713 0","mesh":3,"translation":[2.451342,0.31,1.693927],"scale":[0.16,0.62,0.16]},{"name":"post 2.451342459638713 1","mesh":3,"translation":[4.151342,0.31,1.693927],"scale":[0.16,0.62,0.16]},{"name":"anti-rest bench 0 divider -1","mesh":4,"translation":[2.751342,0.84,1.693927],"rotation":[0.707107,0,0,0.707107]},{"name":"anti-rest bench 0 divider 1","mesh":4,"translation":[3.851342,0.84,1.693927],"rotation":[0.707107,0,0,0.707107]},{"name":"anti-rest bench 1 seat","mesh":1,"translation":[-0.305308,0.62,2.991249],"rotation":[0,-0.038191,0,0.99927],"scale":[2.4,0.16,0.55]},{"name":"anti-rest bench 1 back","mesh":2,"translation":[-0.305308,1.02,2.741249],"rotation":[0,-0.038191,0,0.99927],"scale":[2.4,0.75,0.13]},{"name":"post -1.1553076742437618 0","mesh":3,"translation":[-1.155308,0.31,2.991249],"scale":[0.16,0.62,0.16]},{"name":"post -1.1553076742437618 1","mesh":3,"translation":[0.544692,0.31,2.991249],"scale":[0.16,0.62,0.16]},{"name":"anti-rest bench 1 divider -1","mesh":4,"translation":[-0.855308,0.84,2.991249],"rotation":[0.707107,0,0,0.707107]},{"name":"anti-rest bench 1 divider 1","mesh":4,"translation":[0.244692,0.84,2.991249],"rotation":[0.707107,0,0,0.707107]},{"name":"anti-rest bench 2 seat","mesh":1,"translation":[-3.60665,0.62,1.297321],"rotation":[0,-0.53271,0,0.846298],"scale":[2.4,0.16,0.55]},{"name":"anti-rest bench 2 back","mesh":2,"translation":[-3.60665,1.02,1.047321],"rotation":[0,-0.53271,0,0.846298],"scale":[2.4,0.75,0.13]},{"name":"post -4.456650133882475 0","mesh":3,"translation":[-4.45665,0.31,1.297321],"scale":[0.16,0.62,0.16]},{"name":"post -4.456650133882475 1","mesh":3,"translation":[-2.75665,0.31,1.297321],"scale":[0.16,0.62,0.16]},{"name":"anti-rest bench 2 divider -1","mesh":4,"translation":[-4.15665,0.84,1.297321],"rotation":[0.707107,0,0,0.707107]},{"name":"anti-rest bench 2 divider 1","mesh":4,"translation":[-3.05665,0.84,1.297321],"rotation":[0.707107,0,0,0.707107]},{"name":"anti-rest bench 3 seat","mesh":1,"translation":[-3.301342,0.62,-1.693927],"rotation":[0,0.884489,0,-0.466561],"scale":[2.4,0.16,0.55]},{"name":"anti-rest bench 3 back","mesh":2,"translation":[-3.301342,1.02,-1.943927],"rotation":[0,0.884489,0,-0.466561],"scale":[2.4,0.75,0.13]},{"name":"post -4.151342459638713 0","mesh":3,"translation":[-4.151342,0.31,-1.693927],"scale":[0.16,0.62,0.16]},{"name":"post -4.151342459638713 1","mesh":3,"translation":[-2.451342,0.31,-1.693927],"scale":[0.16,0.62,0.16]},{"name":"anti-rest bench 3 divider -1","mesh":4,"translation":[-3.851342,0.84,-1.693927],"rotation":[0.707107,0,0,0.707107]},{"name":"anti-rest bench 3 divider 1","mesh":4,"translation":[-2.751342,0.84,-1.693927],"rotation":[0.707107,0,0,0.707107]},{"name":"anti-rest bench 4 seat","mesh":1,"translation":[0.305308,0.62,-2.991249],"rotation":[0,0.99927,0,0.038191],"scale":[2.4,0.16,0.55]},{"name":"anti-rest bench 4 back","mesh":2,"translation":[0.305308,1.02,-3.241249],"rotation":[0,0.99927,0,0.038191],"scale":[2.4,0.75,0.13]},{"name":"post -0.5446923257562377 0","mesh":3,"translation":[-0.544692,0.31,-2.991249],"scale":[0.16,0.62,0.16]},{"name":"post -0.5446923257562377 1","mesh":3,"translation":[1.155308,0.31,-2.991249],"scale":[0.16,0.62,0.16]},{"name":"anti-rest bench 4 divider -1","mesh":4,"translation":[-0.244692,0.84,-2.991249],"rotation":[0.707107,0,0,0.707107]},{"name":"anti-rest bench 4 divider 1","mesh":4,"translation":[0.855308,0.84,-2.991249],"rotation":[0.707107,0,0,0.707107]},{"name":"anti-rest bench 5 seat","mesh":1,"translation":[3.60665,0.62,-1.297321],"rotation":[0,0.846298,0,0.53271],"scale":[2.4,0.16,0.55]},{"name":"anti-rest bench 5 back","mesh":2,"translation":[3.60665,1.02,-1.547321],"rotation":[0,0.846298,0,0.53271],"scale":[2.4,0.75,0.13]},{"name":"post 2.7566501338824763 0","mesh":3,"translation":[2.75665,0.31,-1.297321],"scale":[0.16,0.62,0.16]},{"name":"post 2.7566501338824763 1","mesh":3,"translation":[4.45665,0.31,-1.297321],"scale":[0.16,0.62,0.16]},{"name":"anti-rest bench 5 divider -1","mesh":4,"translation":[3.05665,0.84,-1.297321],"rotation":[0.707107,0,0,0.707107]},{"name":"anti-rest bench 5 divider 1","mesh":4,"translation":[4.15665,0.84,-1.297321],"rotation":[0.707107,0,0,0.707107]},{"name":"privately owned planter","mesh":5,"translation":[0,0.45,0],"scale":[1.84,0.8,1.84]},{"name":"removed tree cap","mesh":6,"translation":[0,0.9,0],"scale":[0.45,0.15,0.45]},{"name":"no loitering rules-back","mesh":7,"translation":[5.2,1.55,-3.2],"rotation":[0,-0.124675,0,0.992198],"scale":[2.3,1.6,1]},{"name":"no loitering rules","mesh":8,"translation":[5.192825,1.55,-3.171902],"rotation":[0,-0.124675,0,0.992198],"scale":[2.2,1.5,1]},{"name":"surveyed lot","mesh":9,"translation":[0,0.06,0],"scale":[17.92,0.12,14.56]},{"name":"anti-rest bench 0 seat","mesh":10,"translation":[3.301342,0.62,1.693927],"rotation":[0,0.466561,0,0.884489],"scale":[2.4,0.16,0.55]},{"name":"anti-rest bench 0 back","mesh":11,"translation":[3.301342,1.02,1.443927],"rotation":[0,0.466561,0,0.884489],"scale":[2.4,0.75,0.13]},{"name":"post 2.451342459638713 0","mesh":12,"translation":[2.451342,0.31,1.693927],"scale":[0.16,0.62,0.16]},{"name":"post 2.451342459638713 1","mesh":12,"translation":[4.151342,0.31,1.693927],"scale":[0.16,0.62,0.16]},{"name":"anti-rest bench 0 divider -1","mesh":13,"translation":[2.751342,0.84,1.693927],"rotation":[0.707107,0,0,0.707107]},{"name":"anti-rest bench 0 divider 1","mesh":13,"translation":[3.851342,0.84,1.693927],"rotation":[0.707107,0,0,0.707107]},{"name":"anti-rest bench 1 seat","mesh":10,"translation":[-0.305308,0.62,2.991249],"rotation":[0,-0.038191,0,0.99927],"scale":[2.4,0.16,0.55]},{"name":"anti-rest bench 1 back","mesh":11,"translation":[-0.305308,1.02,2.741249],"rotation":[0,-0.038191,0,0.99927],"scale":[2.4,0.75,0.13]},{"name":"post -1.1553076742437618 0","mesh":12,"translation":[-1.155308,0.31,2.991249],"scale":[0.16,0.62,0.16]},{"name":"post -1.1553076742437618 1","mesh":12,"translation":[0.544692,0.31,2.991249],"scale":[0.16,0.62,0.16]},{"name":"anti-rest bench 1 divider -1","mesh":13,"translation":[-0.855308,0.84,2.991249],"rotation":[0.707107,0,0,0.707107]},{"name":"anti-rest bench 1 divider 1","mesh":13,"translation":[0.244692,0.84,2.991249],"rotation":[0.707107,0,0,0.707107]},{"name":"anti-rest bench 2 seat","mesh":10,"translation":[-3.60665,0.62,1.297321],"rotation":[0,-0.53271,0,0.846298],"scale":[2.4,0.16,0.55]},{"name":"anti-rest bench 2 back","mesh":11,"translation":[-3.60665,1.02,1.047321],"rotation":[0,-0.53271,0,0.846298],"scale":[2.4,0.75,0.13]},{"name":"post -4.456650133882475 0","mesh":12,"translation":[-4.45665,0.31,1.297321],"scale":[0.16,0.62,0.16]},{"name":"post -4.456650133882475 1","mesh":12,"translation":[-2.75665,0.31,1.297321],"scale":[0.16,0.62,0.16]},{"name":"anti-rest bench 2 divider -1","mesh":13,"translation":[-4.15665,0.84,1.297321],"rotation":[0.707107,0,0,0.707107]},{"name":"anti-rest bench 2 divider 1","mesh":13,"translation":[-3.05665,0.84,1.297321],"rotation":[0.707107,0,0,0.707107]},{"name":"anti-rest bench 3 seat","mesh":10,"translation":[-3.301342,0.62,-1.693927],"rotation":[0,0.884489,0,-0.466561],"scale":[2.4,0.16,0.55]},{"name":"anti-rest bench 3 back","mesh":11,"translation":[-3.301342,1.02,-1.943927],"rotation":[0,0.884489,0,-0.466561],"scale":[2.4,0.75,0.13]},{"name":"post -4.151342459638713 0","mesh":12,"translation":[-4.151342,0.31,-1.693927],"scale":[0.16,0.62,0.16]},{"name":"post -4.151342459638713 1","mesh":12,"translation":[-2.451342,0.31,-1.693927],"scale":[0.16,0.62,0.16]},{"name":"anti-rest bench 3 divider -1","mesh":13,"translation":[-3.851342,0.84,-1.693927],"rotation":[0.707107,0,0,0.707107]},{"name":"anti-rest bench 3 divider 1","mesh":13,"translation":[-2.751342,0.84,-1.693927],"rotation":[0.707107,0,0,0.707107]},{"name":"anti-rest bench 4 seat","mesh":10,"translation":[0.305308,0.62,-2.991249],"rotation":[0,0.99927,0,0.038191],"scale":[2.4,0.16,0.55]},{"name":"anti-rest bench 4 back","mesh":11,"translation":[0.305308,1.02,-3.241249],"rotation":[0,0.99927,0,0.038191],"scale":[2.4,0.75,0.13]},{"name":"post -0.5446923257562377 0","mesh":12,"translation":[-0.544692,0.31,-2.991249],"scale":[0.16,0.62,0.16]},{"name":"post -0.5446923257562377 1","mesh":12,"translation":[1.155308,0.31,-2.991249],"scale":[0.16,0.62,0.16]},{"name":"anti-rest bench 4 divider -1","mesh":13,"translation":[-0.244692,0.84,-2.991249],"rotation":[0.707107,0,0,0.707107]},{"name":"anti-rest bench 4 divider 1","mesh":13,"translation":[0.855308,0.84,-2.991249],"rotation":[0.707107,0,0,0.707107]},{"name":"anti-rest bench 5 seat","mesh":10,"translation":[3.60665,0.62,-1.297321],"rotation":[0,0.846298,0,0.53271],"scale":[2.4,0.16,0.55]},{"name":"anti-rest bench 5 back","mesh":11,"translation":[3.60665,1.02,-1.547321],"rotation":[0,0.846298,0,0.53271],"scale":[2.4,0.75,0.13]},{"name":"post 2.7566501338824763 0","mesh":12,"translation":[2.75665,0.31,-1.297321],"scale":[0.16,0.62,0.16]},{"name":"post 2.7566501338824763 1","mesh":12,"translation":[4.45665,0.31,-1.297321],"scale":[0.16,0.62,0.16]},{"name":"anti-rest bench 5 divider -1","mesh":13,"translation":[3.05665,0.84,-1.297321],"rotation":[0.707107,0,0,0.707107]},{"name":"anti-rest bench 5 divider 1","mesh":13,"translation":[4.15665,0.84,-1.297321],"rotation":[0.707107,0,0,0.707107]},{"name":"privately owned planter","mesh":14,"translation":[0,0.45,0],"scale":[1.84,0.8,1.84]},{"name":"removed tree cap","mesh":15,"translation":[0,0.9,0],"scale":[0.45,0.15,0.45]},{"name":"no loitering rules-back","mesh":7,"translation":[5.2,1.55,-3.2],"rotation":[0,-0.124675,0,0.992198],"scale":[2.3,1.6,1]},{"name":"no loitering rules","mesh":8,"translation":[5.192825,1.55,-3.171902],"rotation":[0,-0.124675,0,0.992198],"scale":[2.2,1.5,1]},{"name":"surveyed lot","mesh":9,"translation":[0,0.06,0],"scale":[17.92,0.12,14.56]},{"name":"anti-rest bench 0 seat","mesh":10,"translation":[3.301342,0.62,1.693927],"rotation":[0,0.466561,0,0.884489],"scale":[2.4,0.16,0.55]},{"name":"anti-rest bench 0 back","mesh":11,"translation":[3.301342,1.02,1.443927],"rotation":[0,0.466561,0,0.884489],"scale":[2.4,0.75,0.13]},{"name":"post 2.451342459638713 0","mesh":12,"translation":[2.451342,0.31,1.693927],"scale":[0.16,0.62,0.16]},{"name":"post 2.451342459638713 1","mesh":12,"translation":[4.151342,0.31,1.693927],"scale":[0.16,0.62,0.16]},{"name":"anti-rest bench 0 divider -1","mesh":16,"translation":[2.751342,0.84,1.693927],"rotation":[0.707107,0,0,0.707107]},{"name":"anti-rest bench 0 divider 1","mesh":16,"translation":[3.851342,0.84,1.693927],"rotation":[0.707107,0,0,0.707107]},{"name":"anti-rest bench 1 seat","mesh":10,"translation":[-3.301342,0.62,-1.693927],"rotation":[0,0.884489,0,-0.466561],"scale":[2.4,0.16,0.55]},{"name":"anti-rest bench 1 back","mesh":11,"translation":[-3.301342,1.02,-1.943927],"rotation":[0,0.884489,0,-0.466561],"scale":[2.4,0.75,0.13]},{"name":"post -4.151342459638713 0","mesh":12,"translation":[-4.151342,0.31,-1.693927],"scale":[0.16,0.62,0.16]},{"name":"post -4.151342459638713 1","mesh":12,"translation":[-2.451342,0.31,-1.693927],"scale":[0.16,0.62,0.16]},{"name":"anti-rest bench 1 divider -1","mesh":16,"translation":[-3.851342,0.84,-1.693927],"rotation":[0.707107,0,0,0.707107]},{"name":"anti-rest bench 1 divider 1","mesh":16,"translation":[-2.751342,0.84,-1.693927],"rotation":[0.707107,0,0,0.707107]},{"name":"privately owned planter","mesh":14,"translation":[0,0.45,0],"scale":[1.84,0.8,1.84]},{"name":"removed tree cap","mesh":15,"translation":[0,0.9,0],"scale":[0.45,0.15,0.45]},{"name":"no loitering rules-back","mesh":7,"translation":[5.2,1.55,-3.2],"rotation":[0,-0.124675,0,0.992198],"scale":[2.3,1.6,1]},{"name":"no loitering rules","mesh":8,"translation":[5.192825,1.55,-3.171902],"rotation":[0,-0.124675,0,0.992198],"scale":[2.2,1.5,1]}],"meshes":[{"primitives":[{"attributes":{"POSITION":0,"NORMAL":1,"TEXCOORD_0":2},"material":0,"mode":4}]},{"primitives":[{"attributes":{"POSITION":0,"NORMAL":1,"TEXCOORD_0":3},"material":1,"mode":4}]},{"primitives":[{"attributes":{"POSITION":0,"NORMAL":1,"TEXCOORD_0":4},"material":1,"mode":4}]},{"primitives":[{"attributes":{"POSITION":0,"NORMAL":1,"TEXCOORD_0":5},"material":2,"mode":4}]},{"primitives":[{"attributes":{"POSITION":6,"NORMAL":7,"TEXCOORD_0":8},"material":2,"mode":4,"indices":9}]},{"primitives":[{"attributes":{"POSITION":10,"NORMAL":11,"TEXCOORD_0":12},"material":0,"mode":4,"indices":13}]},{"primitives":[{"attributes":{"POSITION":14,"NORMAL":15,"TEXCOORD_0":16},"material":2,"mode":4,"indices":13}]},{"primitives":[{"attributes":{"POSITION":17,"NORMAL":18,"TEXCOORD_0":19},"material":2,"mode":4,"indices":20}]},{"primitives":[{"attributes":{"POSITION":21,"NORMAL":22,"TEXCOORD_0":23},"material":3,"mode":4,"indices":24}]},{"primitives":[{"attributes":{"POSITION":25,"NORMAL":18,"TEXCOORD_0":26},"material":0,"mode":4,"indices":20}]},{"primitives":[{"attributes":{"POSITION":25,"NORMAL":18,"TEXCOORD_0":27},"material":1,"mode":4,"indices":20}]},{"primitives":[{"attributes":{"POSITION":25,"NORMAL":18,"TEXCOORD_0":28},"material":1,"mode":4,"indices":20}]},{"primitives":[{"attributes":{"POSITION":25,"NORMAL":18,"TEXCOORD_0":29},"material":2,"mode":4,"indices":20}]},{"primitives":[{"attributes":{"POSITION":30,"NORMAL":31,"TEXCOORD_0":32},"material":2,"mode":4,"indices":33}]},{"primitives":[{"attributes":{"POSITION":34,"NORMAL":35,"TEXCOORD_0":36},"material":0,"mode":4,"indices":37}]},{"primitives":[{"attributes":{"POSITION":38,"NORMAL":39,"TEXCOORD_0":40},"material":2,"mode":4,"indices":37}]},{"primitives":[{"attributes":{"POSITION":41,"NORMAL":42,"TEXCOORD_0":43},"material":2,"mode":4,"indices":44}]}],"materials":[{"name":"concrete","pbrMetallicRoughness":{"baseColorTexture":{"index":0},"metallicRoughnessTexture":{"index":2},"roughnessFactor":1,"metallicFactor":1},"normalTexture":{"index":1,"scale":0.82},"occlusionTexture":{"index":2,"strength":0.35}},{"name":"wood-oak","pbrMetallicRoughness":{"baseColorTexture":{"index":3},"metallicRoughnessTexture":{"index":5},"roughnessFactor":1,"metallicFactor":1},"normalTexture":{"index":4,"scale":1},"occlusionTexture":{"index":5,"strength":0.35}},{"name":"metal-dark","pbrMetallicRoughness":{"baseColorTexture":{"index":6},"metallicRoughnessTexture":{"index":8},"roughnessFactor":1,"metallicFactor":1},"normalTexture":{"index":7,"scale":0.35},"occlusionTexture":{"index":8,"strength":0.35}},{"name":"hostile-bench-plaza signage","pbrMetallicRoughness":{"baseColorTexture":{"index":9},"roughnessFactor":1,"metallicFactor":0},"extensions":{"KHR_materials_unlit":{}}}],"textures":[{"source":0,"sampler":0},{"source":1,"sampler":0},{"source":2,"sampler":0},{"source":3,"sampler":0},{"source":4,"sampler":0},{"source":5,"sampler":0},{"source":6,"sampler":0},{"source":7,"sampler":0},{"source":8,"sampler":0},{"source":9,"sampler":0}],"images":[{"uri":"../textures/concrete-albedo.png"},{"uri":"../textures/concrete-normal.png"},{"uri":"../textures/concrete-orm.png"},{"uri":"../textures/wood-oak-albedo.png"},{"uri":"../textures/wood-oak-normal.png"},{"uri":"../textures/wood-oak-orm.png"},{"uri":"../textures/metal-dark-albedo.png"},{"uri":"../textures/metal-dark-normal.png"},{"uri":"../textures/metal-dark-orm.png"},{"uri":"../signs/hostile-bench-plaza.png"}],"samplers":[{"magFilter":9729,"minFilter":9987,"wrapS":10497,"wrapT":10497}],"buffers":[{"uri":"../shared/geometry.bin","byteLength":16435520}],"bufferViews":[{"buffer":0,"byteOffset":0,"byteLength":3888,"target":34962},{"buffer":0,"byteOffset":3888,"byteLength":3888,"target":34962},{"buffer":0,"byteOffset":6715128,"byteLength":2592,"target":34962},{"buffer":0,"byteOffset":6749352,"byteLength":2592,"target":34962},{"buffer":0,"byteOffset":6751944,"byteLength":2592,"target":34962},{"buffer":0,"byteOffset":6754536,"byteLength":2592,"target":34962},{"buffer":0,"byteOffset":6757128,"byteLength":3132,"target":34962},{"buffer":0,"byteOffset":6760260,"byteLength":3132,"target":34962},{"buffer":0,"byteOffset":2835332,"byteLength":2088,"target":34962},{"buffer":0,"byteOffset":395924,"byteLength":2688,"target":34963},{"buffer":0,"byteOffset":6800304,"byteLength":912,"target":34962},{"buffer":0,"byteOffset":6801216,"byteLength":912,"target":34962},{"buffer":0,"byteOffset":6802128,"byteLength":608,"target":34962},{"buffer":0,"byteOffset":387284,"byteLength":288,"target":34963},{"buffer":0,"byteOffset":5526272,"byteLength":912,"target":34962},{"buffer":0,"byteOffset":5527184,"byteLength":912,"target":34962},{"buffer":0,"byteOffset":6852464,"byteLength":608,"target":34962},{"buffer":0,"byteOffset":45664,"byteLength":288,"target":34962},{"buffer":0,"byteOffset":45952,"byteLength":288,"target":34962},{"buffer":0,"byteOffset":46240,"byteLength":192,"target":34962},{"buffer":0,"byteOffset":46432,"byteLength":72,"target":34963},{"buffer":0,"byteOffset":46504,"byteLength":48,"target":34962},{"buffer":0,"byteOffset":46552,"byteLength":48,"target":34962},{"buffer":0,"byteOffset":222948,"byteLength":32,"target":34962},{"buffer":0,"byteOffset":46632,"byteLength":12,"target":34963},{"buffer":0,"byteOffset":46644,"byteLength":288,"target":34962},{"buffer":0,"byteOffset":6728748,"byteLength":192,"target":34962},{"buffer":0,"byteOffset":6776392,"byteLength":192,"target":34962},{"buffer":0,"byteOffset":6776584,"byteLength":192,"target":34962},{"buffer":0,"byteOffset":6776776,"byteLength":192,"target":34962},{"buffer":0,"byteOffset":6776968,"byteLength":1428,"target":34962},{"buffer":0,"byteOffset":6778396,"byteLength":1428,"target":34962},{"buffer":0,"byteOffset":2864312,"byteLength":952,"target":34962},{"buffer":0,"byteOffset":430376,"byteLength":1152,"target":34963},{"buffer":0,"byteOffset":6802928,"byteLength":480,"target":34962},{"buffer":0,"byteOffset":6803408,"byteLength":480,"target":34962},{"buffer":0,"byteOffset":6803888,"byteLength":320,"target":34962},{"buffer":0,"byteOffset":48596,"byteLength":144,"target":34963},{"buffer":0,"byteOffset":1112312,"byteLength":480,"target":34962},{"buffer":0,"byteOffset":1112792,"byteLength":480,"target":34962},{"buffer":0,"byteOffset":6853072,"byteLength":320,"target":34962},{"buffer":0,"byteOffset":6785256,"byteLength":660,"target":34962},{"buffer":0,"byteOffset":6785916,"byteLength":660,"target":34962},{"buffer":0,"byteOffset":2874988,"byteLength":440,"target":34962},{"buffer":0,"byteOffset":438888,"byteLength":480,"target":34963}],"accessors":[{"bufferView":0,"componentType":5126,"count":324,"type":"VEC3","min":[-0.5,-0.5,-0.5],"max":[0.5,0.5,0.5]},{"bufferView":1,"componentType":5126,"count":324,"type":"VEC3"},{"bufferView":2,"componentType":5126,"count":324,"type":"VEC2"},{"bufferView":3,"componentType":5126,"count":324,"type":"VEC2"},{"bufferView":4,"componentType":5126,"count":324,"type":"VEC2"},{"bufferView":5,"componentType":5126,"count":324,"type":"VEC2"},{"bufferView":6,"componentType":5126,"count":261,"type":"VEC3","min":[-0.3149999976158142,0,-0.04500000178813934],"max":[0.3149999976158142,0.3149999976158142,0.04500000178813934]},{"bufferView":7,"componentType":5126,"count":261,"type":"VEC3"},{"bufferView":8,"componentType":5126,"count":261,"type":"VEC2"},{"bufferView":9,"componentType":5123,"count":1344,"type":"SCALAR"},{"bufferView":10,"componentType":5126,"count":76,"type":"VEC3","min":[-1,-0.5,-1],"max":[1,0.5,1]},{"bufferView":11,"componentType":5126,"count":76,"type":"VEC3"},{"bufferView":12,"componentType":5126,"count":76,"type":"VEC2"},{"bufferView":13,"componentType":5123,"count":144,"type":"SCALAR"},{"bufferView":14,"componentType":5126,"count":76,"type":"VEC3","min":[-1,-0.5,-1],"max":[1,0.5,1]},{"bufferView":15,"componentType":5126,"count":76,"type":"VEC3"},{"bufferView":16,"componentType":5126,"count":76,"type":"VEC2"},{"bufferView":17,"componentType":5126,"count":24,"type":"VEC3","min":[-0.5,-0.5,-0.02500000037252903],"max":[0.5,0.5,0.02500000037252903]},{"bufferView":18,"componentType":5126,"count":24,"type":"VEC3"},{"bufferView":19,"componentType":5126,"count":24,"type":"VEC2"},{"bufferView":20,"componentType":5123,"count":36,"type":"SCALAR"},{"bufferView":21,"componentType":5126,"count":4,"type":"VEC3","min":[-0.5,-0.5,0],"max":[0.5,0.5,0]},{"bufferView":22,"componentType":5126,"count":4,"type":"VEC3"},{"bufferView":23,"componentType":5126,"count":4,"type":"VEC2"},{"bufferView":24,"componentType":5123,"count":6,"type":"SCALAR"},{"bufferView":25,"componentType":5126,"count":24,"type":"VEC3","min":[-0.5,-0.5,-0.5],"max":[0.5,0.5,0.5]},{"bufferView":26,"componentType":5126,"count":24,"type":"VEC2"},{"bufferView":27,"componentType":5126,"count":24,"type":"VEC2"},{"bufferView":28,"componentType":5126,"count":24,"type":"VEC2"},{"bufferView":29,"componentType":5126,"count":24,"type":"VEC2"},{"bufferView":30,"componentType":5126,"count":119,"type":"VEC3","min":[-0.3149999976158142,0,-0.03897114470601082],"max":[0.3149999976158142,0.3149999976158142,0.03897114470601082]},{"bufferView":31,"componentType":5126,"count":119,"type":"VEC3"},{"bufferView":32,"componentType":5126,"count":119,"type":"VEC2"},{"bufferView":33,"componentType":5123,"count":576,"type":"SCALAR"},{"bufferView":34,"componentType":5126,"count":40,"type":"VEC3","min":[-0.8660253882408142,-0.5,-1],"max":[0.8660253882408142,0.5,1]},{"bufferView":35,"componentType":5126,"count":40,"type":"VEC3"},{"bufferView":36,"componentType":5126,"count":40,"type":"VEC2"},{"bufferView":37,"componentType":5123,"count":72,"type":"SCALAR"},{"bufferView":38,"componentType":5126,"count":40,"type":"VEC3","min":[-0.8660253882408142,-0.5,-1],"max":[0.8660253882408142,0.5,1]},{"bufferView":39,"componentType":5126,"count":40,"type":"VEC3"},{"bufferView":40,"componentType":5126,"count":40,"type":"VEC2"},{"bufferView":41,"componentType":5126,"count":55,"type":"VEC3","min":[-0.3149999976158142,0,-0.04500000178813934],"max":[0.3149999976158142,0.3149999976158142,0.04500000178813934]},{"bufferView":42,"componentType":5126,"count":55,"type":"VEC3"},{"bufferView":43,"componentType":5126,"count":55,"type":"VEC2"},{"bufferView":44,"componentType":5123,"count":240,"type":"SCALAR"}],"extensionsUsed":["KHR_materials_unlit"],"extras":{"id":"vlt-hostile-bench-plaza-39","family":"hostile-bench-plaza","variant":38,"plan":"D4-2","units":"metres","up":"+Y","front":"+Z","lodScenes":[0,1,2]}}