{"asset":{"version":"2.0","generator":"SLOPMERICA Department of Unnecessary Development 1.0"},"scene":0,"scenes":[{"name":"LOD 0","nodes":[0,1,2,3,4,5,6,7,8,9,10,11,12,13,14],"extras":{"level":0}},{"name":"LOD 1","nodes":[15,16,17,18,19,20,21,22,23,24,25,26,27,28,29],"extras":{"level":1}},{"name":"LOD 2","nodes":[30,31,32,33,34,35,36,37,38,39,40,41],"extras":{"level":2}}],"nodes":[{"name":"site-pad","mesh":0,"translation":[0,0.06,0],"scale":[16.4736,0.12,13.9776]},{"name":"variant-apron","mesh":1,"translation":[3.0888,0.13,6.94],"scale":[3.8808,0.08,1.34]},{"name":"bollard-0","mesh":2,"translation":[-6.0192,0.43,7.06],"scale":[0.08,0.74,0.08]},{"name":"bollard-1","mesh":2,"translation":[6.0192,0.43,7.06],"scale":[0.08,0.74,0.08]},{"name":"layout-cabinet","mesh":3,"translation":[8.12,0.525,3.024],"scale":[0.81,0.81,0.32]},{"name":"cement-silo-0","mesh":4,"translation":[-5.3856,4.295,-2.688],"scale":[1.2,8.35,1.2]},{"name":"silo-cone-0","mesh":5,"translation":[-5.3856,9.65,-2.688],"scale":[1.2,1.4,1.2]},{"name":"cement-silo-1","mesh":4,"translation":[0,4.295,-2.688],"scale":[1.2,8.35,1.2]},{"name":"silo-cone-1","mesh":5,"translation":[0,9.65,-2.688],"scale":[1.2,1.4,1.2]},{"name":"cement-silo-2","mesh":4,"translation":[5.3856,4.295,-2.688],"scale":[1.2,8.35,1.2]},{"name":"silo-cone-2","mesh":5,"translation":[5.3856,9.65,-2.688],"scale":[1.2,1.4,1.2]},{"name":"batch-tower","mesh":6,"translation":[4.752,3.795,3.36],"scale":[3.7,7.35,3.7]},{"name":"aggregate-conveyor","mesh":7,"translation":[0,3.7,4.3008],"rotation":[0,0,0.089879,0.995953],"scale":[10.296,0.6,0.9]},{"name":"batch-sign-back","mesh":8,"translation":[4.752,5.8,5.26],"scale":[4.3,1,1]},{"name":"batch-sign","mesh":9,"translation":[4.752,5.8,5.289],"scale":[4.2,0.9,1]},{"name":"site-pad","mesh":10,"translation":[0,0.06,0],"scale":[16.4736,0.12,13.9776]},{"name":"variant-apron","mesh":11,"translation":[3.0888,0.13,6.94],"scale":[3.8808,0.08,1.34]},{"name":"bollard-0","mesh":12,"translation":[-6.0192,0.43,7.06],"scale":[0.08,0.74,0.08]},{"name":"bollard-1","mesh":12,"translation":[6.0192,0.43,7.06],"scale":[0.08,0.74,0.08]},{"name":"layout-cabinet","mesh":13,"translation":[8.12,0.525,3.024],"scale":[0.81,0.81,0.32]},{"name":"cement-silo-0","mesh":14,"translation":[-5.3856,4.295,-2.688],"scale":[1.2,8.35,1.2]},{"name":"silo-cone-0","mesh":15,"translation":[-5.3856,9.65,-2.688],"scale":[1.2,1.4,1.2]},{"name":"cement-silo-1","mesh":14,"translation":[0,4.295,-2.688],"scale":[1.2,8.35,1.2]},{"name":"silo-cone-1","mesh":15,"translation":[0,9.65,-2.688],"scale":[1.2,1.4,1.2]},{"name":"cement-silo-2","mesh":14,"translation":[5.3856,4.295,-2.688],"scale":[1.2,8.35,1.2]},{"name":"silo-cone-2","mesh":15,"translation":[5.3856,9.65,-2.688],"scale":[1.2,1.4,1.2]},{"name":"batch-tower","mesh":16,"translation":[4.752,3.795,3.36],"scale":[3.7,7.35,3.7]},{"name":"aggregate-conveyor","mesh":17,"translation":[0,3.7,4.3008],"rotation":[0,0,0.089879,0.995953],"scale":[10.296,0.6,0.9]},{"name":"batch-sign-back","mesh":8,"translation":[4.752,5.8,5.26],"scale":[4.3,1,1]},{"name":"batch-sign","mesh":9,"translation":[4.752,5.8,5.289],"scale":[4.2,0.9,1]},{"name":"site-pad","mesh":10,"translation":[0,0.06,0],"scale":[16.4736,0.12,13.9776]},{"name":"variant-apron","mesh":11,"translation":[3.0888,0.13,6.94],"scale":[3.8808,0.08,1.34]},{"name":"bollard-0","mesh":12,"translation":[-6.0192,0.43,7.06],"scale":[0.08,0.74,0.08]},{"name":"layout-cabinet","mesh":13,"translation":[8.12,0.525,3.024],"scale":[0.81,0.81,0.32]},{"name":"cement-silo-0","mesh":14,"translation":[-5.3856,4.295,-2.688],"scale":[1.2,8.35,1.2]},{"name":"silo-cone-0","mesh":15,"translation":[-5.3856,9.65,-2.688],"scale":[1.2,1.4,1.2]},{"name":"cement-silo-1","mesh":14,"translation":[5.3856,4.295,-2.688],"scale":[1.2,8.35,1.2]},{"name":"silo-cone-1","mesh":15,"translation":[5.3856,9.65,-2.688],"scale":[1.2,1.4,1.2]},{"name":"batch-tower","mesh":16,"translation":[4.752,3.795,3.36],"scale":[3.7,7.35,3.7]},{"name":"aggregate-conveyor","mesh":17,"translation":[0,3.7,4.3008],"rotation":[0,0,0.089879,0.995953],"scale":[10.296,0.6,0.9]},{"name":"batch-sign-back","mesh":8,"translation":[4.752,5.8,5.26],"scale":[4.3,1,1]},{"name":"batch-sign","mesh":9,"translation":[4.752,5.8,5.289],"scale":[4.2,0.9,1]}],"meshes":[{"primitives":[{"attributes":{"POSITION":0,"NORMAL":1,"TEXCOORD_0":2},"material":0,"mode":4}]},{"primitives":[{"attributes":{"POSITION":0,"NORMAL":1,"TEXCOORD_0":3},"material":0,"mode":4}]},{"primitives":[{"attributes":{"POSITION":4,"NORMAL":5,"TEXCOORD_0":6},"material":1,"mode":4,"indices":7}]},{"primitives":[{"attributes":{"POSITION":0,"NORMAL":1,"TEXCOORD_0":8},"material":2,"mode":4}]},{"primitives":[{"attributes":{"POSITION":9,"NORMAL":10,"TEXCOORD_0":11},"material":2,"mode":4,"indices":7}]},{"primitives":[{"attributes":{"POSITION":12,"NORMAL":13,"TEXCOORD_0":14},"material":2,"mode":4,"indices":7}]},{"primitives":[{"attributes":{"POSITION":15,"NORMAL":1,"TEXCOORD_0":16},"material":3,"mode":4}]},{"primitives":[{"attributes":{"POSITION":0,"NORMAL":1,"TEXCOORD_0":17},"material":3,"mode":4}]},{"primitives":[{"attributes":{"POSITION":18,"NORMAL":19,"TEXCOORD_0":20},"material":3,"mode":4,"indices":21}]},{"primitives":[{"attributes":{"POSITION":22,"NORMAL":23,"TEXCOORD_0":24},"material":4,"mode":4,"indices":25}]},{"primitives":[{"attributes":{"POSITION":26,"NORMAL":19,"TEXCOORD_0":27},"material":0,"mode":4,"indices":21}]},{"primitives":[{"attributes":{"POSITION":26,"NORMAL":19,"TEXCOORD_0":28},"material":0,"mode":4,"indices":21}]},{"primitives":[{"attributes":{"POSITION":29,"NORMAL":30,"TEXCOORD_0":31},"material":1,"mode":4,"indices":32}]},{"primitives":[{"attributes":{"POSITION":26,"NORMAL":19,"TEXCOORD_0":33},"material":2,"mode":4,"indices":21}]},{"primitives":[{"attributes":{"POSITION":34,"NORMAL":35,"TEXCOORD_0":36},"material":2,"mode":4,"indices":32}]},{"primitives":[{"attributes":{"POSITION":37,"NORMAL":38,"TEXCOORD_0":39},"material":2,"mode":4,"indices":32}]},{"primitives":[{"attributes":{"POSITION":26,"NORMAL":19,"TEXCOORD_0":40},"material":3,"mode":4,"indices":21}]},{"primitives":[{"attributes":{"POSITION":26,"NORMAL":19,"TEXCOORD_0":41},"material":3,"mode":4,"indices":21}]}],"materials":[{"name":"asphalt","pbrMetallicRoughness":{"baseColorTexture":{"index":0},"metallicRoughnessTexture":{"index":2},"roughnessFactor":1,"metallicFactor":1},"normalTexture":{"index":1,"scale":0.62},"occlusionTexture":{"index":2,"strength":0.35}},{"name":"paint-yellow","pbrMetallicRoughness":{"baseColorFactor":[0.76052450467022,0.4793201830913402,0.07818742179702069,1],"roughnessFactor":0.66,"metallicFactor":0.03}},{"name":"metal-galvanized","pbrMetallicRoughness":{"baseColorTexture":{"index":3},"metallicRoughnessTexture":{"index":5},"roughnessFactor":1,"metallicFactor":1},"normalTexture":{"index":4,"scale":0.15},"occlusionTexture":{"index":5,"strength":0.35}},{"name":"metal-dark","pbrMetallicRoughness":{"baseColorTexture":{"index":6},"metallicRoughnessTexture":{"index":8},"roughnessFactor":1,"metallicFactor":1},"normalTexture":{"index":7,"scale":0.35},"occlusionTexture":{"index":8,"strength":0.35}},{"name":"concrete-batch-plant signage","pbrMetallicRoughness":{"baseColorTexture":{"index":9},"roughnessFactor":1,"metallicFactor":0},"extensions":{"KHR_materials_unlit":{}}}],"textures":[{"source":0,"sampler":0},{"source":1,"sampler":0},{"source":2,"sampler":0},{"source":3,"sampler":0},{"source":4,"sampler":0},{"source":5,"sampler":0},{"source":6,"sampler":0},{"source":7,"sampler":0},{"source":8,"sampler":0},{"source":9,"sampler":0}],"images":[{"uri":"../textures/asphalt-albedo.png"},{"uri":"../textures/asphalt-normal.png"},{"uri":"../textures/asphalt-orm.png"},{"uri":"../textures/metal-galvanized-albedo.png"},{"uri":"../textures/metal-galvanized-normal.png"},{"uri":"../textures/metal-galvanized-orm.png"},{"uri":"../textures/metal-dark-albedo.png"},{"uri":"../textures/metal-dark-normal.png"},{"uri":"../textures/metal-dark-orm.png"},{"uri":"../signs/concrete-batch-plant.png"}],"samplers":[{"magFilter":9729,"minFilter":9987,"wrapS":10497,"wrapT":10497}],"buffers":[{"uri":"../shared/geometry.bin","byteLength":16435520}],"bufferViews":[{"buffer":0,"byteOffset":0,"byteLength":3888,"target":34962},{"buffer":0,"byteOffset":3888,"byteLength":3888,"target":34962},{"buffer":0,"byteOffset":2325612,"byteLength":2592,"target":34962},{"buffer":0,"byteOffset":2328204,"byteLength":2592,"target":34962},{"buffer":0,"byteOffset":12960,"byteLength":1200,"target":34962},{"buffer":0,"byteOffset":14160,"byteLength":1200,"target":34962},{"buffer":0,"byteOffset":179140,"byteLength":800,"target":34962},{"buffer":0,"byteOffset":16160,"byteLength":384,"target":34963},{"buffer":0,"byteOffset":185860,"byteLength":2592,"target":34962},{"buffer":0,"byteOffset":1101304,"byteLength":1200,"target":34962},{"buffer":0,"byteOffset":1102504,"byteLength":1200,"target":34962},{"buffer":0,"byteOffset":2324108,"byteLength":800,"target":34962},{"buffer":0,"byteOffset":2216844,"byteLength":1200,"target":34962},{"buffer":0,"byteOffset":2218044,"byteLength":1200,"target":34962},{"buffer":0,"byteOffset":2219244,"byteLength":800,"target":34962},{"buffer":0,"byteOffset":33392,"byteLength":3888,"target":34962},{"buffer":0,"byteOffset":2232780,"byteLength":2592,"target":34962},{"buffer":0,"byteOffset":2235372,"byteLength":2592,"target":34962},{"buffer":0,"byteOffset":45664,"byteLength":288,"target":34962},{"buffer":0,"byteOffset":45952,"byteLength":288,"target":34962},{"buffer":0,"byteOffset":46240,"byteLength":192,"target":34962},{"buffer":0,"byteOffset":46432,"byteLength":72,"target":34963},{"buffer":0,"byteOffset":46504,"byteLength":48,"target":34962},{"buffer":0,"byteOffset":46552,"byteLength":48,"target":34962},{"buffer":0,"byteOffset":188452,"byteLength":32,"target":34962},{"buffer":0,"byteOffset":46632,"byteLength":12,"target":34963},{"buffer":0,"byteOffset":46644,"byteLength":288,"target":34962},{"buffer":0,"byteOffset":2330796,"byteLength":192,"target":34962},{"buffer":0,"byteOffset":2330988,"byteLength":192,"target":34962},{"buffer":0,"byteOffset":47316,"byteLength":480,"target":34962},{"buffer":0,"byteOffset":47796,"byteLength":480,"target":34962},{"buffer":0,"byteOffset":182756,"byteLength":320,"target":34962},{"buffer":0,"byteOffset":48596,"byteLength":144,"target":34963},{"buffer":0,"byteOffset":188676,"byteLength":192,"target":34962},{"buffer":0,"byteOffset":1112312,"byteLength":480,"target":34962},{"buffer":0,"byteOffset":1112792,"byteLength":480,"target":34962},{"buffer":0,"byteOffset":2325292,"byteLength":320,"target":34962},{"buffer":0,"byteOffset":2225932,"byteLength":480,"target":34962},{"buffer":0,"byteOffset":2226412,"byteLength":480,"target":34962},{"buffer":0,"byteOffset":2226892,"byteLength":320,"target":34962},{"buffer":0,"byteOffset":2238348,"byteLength":192,"target":34962},{"buffer":0,"byteOffset":2238540,"byteLength":192,"target":34962}],"accessors":[{"bufferView":0,"componentType":5126,"count":324,"type":"VEC3","min":[-0.5,-0.5,-0.5],"max":[0.5,0.5,0.5]},{"bufferView":1,"componentType":5126,"count":324,"type":"VEC3"},{"bufferView":2,"componentType":5126,"count":324,"type":"VEC2"},{"bufferView":3,"componentType":5126,"count":324,"type":"VEC2"},{"bufferView":4,"componentType":5126,"count":100,"type":"VEC3","min":[-1,-0.5,-1],"max":[1,0.5,1]},{"bufferView":5,"componentType":5126,"count":100,"type":"VEC3"},{"bufferView":6,"componentType":5126,"count":100,"type":"VEC2"},{"bufferView":7,"componentType":5123,"count":192,"type":"SCALAR"},{"bufferView":8,"componentType":5126,"count":324,"type":"VEC2"},{"bufferView":9,"componentType":5126,"count":100,"type":"VEC3","min":[-1,-0.5,-1],"max":[1,0.5,1]},{"bufferView":10,"componentType":5126,"count":100,"type":"VEC3"},{"bufferView":11,"componentType":5126,"count":100,"type":"VEC2"},{"bufferView":12,"componentType":5126,"count":100,"type":"VEC3","min":[-1,-0.5,-1],"max":[1,0.5,1]},{"bufferView":13,"componentType":5126,"count":100,"type":"VEC3"},{"bufferView":14,"componentType":5126,"count":100,"type":"VEC2"},{"bufferView":15,"componentType":5126,"count":324,"type":"VEC3","min":[-0.5,-0.5,-0.5],"max":[0.5,0.5,0.5]},{"bufferView":16,"componentType":5126,"count":324,"type":"VEC2"},{"bufferView":17,"componentType":5126,"count":324,"type":"VEC2"},{"bufferView":18,"componentType":5126,"count":24,"type":"VEC3","min":[-0.5,-0.5,-0.02500000037252903],"max":[0.5,0.5,0.02500000037252903]},{"bufferView":19,"componentType":5126,"count":24,"type":"VEC3"},{"bufferView":20,"componentType":5126,"count":24,"type":"VEC2"},{"bufferView":21,"componentType":5123,"count":36,"type":"SCALAR"},{"bufferView":22,"componentType":5126,"count":4,"type":"VEC3","min":[-0.5,-0.5,0],"max":[0.5,0.5,0]},{"bufferView":23,"componentType":5126,"count":4,"type":"VEC3"},{"bufferView":24,"componentType":5126,"count":4,"type":"VEC2"},{"bufferView":25,"componentType":5123,"count":6,"type":"SCALAR"},{"bufferView":26,"componentType":5126,"count":24,"type":"VEC3","min":[-0.5,-0.5,-0.5],"max":[0.5,0.5,0.5]},{"bufferView":27,"componentType":5126,"count":24,"type":"VEC2"},{"bufferView":28,"componentType":5126,"count":24,"type":"VEC2"},{"bufferView":29,"componentType":5126,"count":40,"type":"VEC3","min":[-0.8660253882408142,-0.5,-1],"max":[0.8660253882408142,0.5,1]},{"bufferView":30,"componentType":5126,"count":40,"type":"VEC3"},{"bufferView":31,"componentType":5126,"count":40,"type":"VEC2"},{"bufferView":32,"componentType":5123,"count":72,"type":"SCALAR"},{"bufferView":33,"componentType":5126,"count":24,"type":"VEC2"},{"bufferView":34,"componentType":5126,"count":40,"type":"VEC3","min":[-0.8660253882408142,-0.5,-1],"max":[0.8660253882408142,0.5,1]},{"bufferView":35,"componentType":5126,"count":40,"type":"VEC3"},{"bufferView":36,"componentType":5126,"count":40,"type":"VEC2"},{"bufferView":37,"componentType":5126,"count":40,"type":"VEC3","min":[-0.8660253882408142,-0.5,-1],"max":[0.8660253882408142,0.5,1]},{"bufferView":38,"componentType":5126,"count":40,"type":"VEC3"},{"bufferView":39,"componentType":5126,"count":40,"type":"VEC2"},{"bufferView":40,"componentType":5126,"count":24,"type":"VEC2"},{"bufferView":41,"componentType":5126,"count":24,"type":"VEC2"}],"extensionsUsed":["KHR_materials_unlit"],"extras":{"id":"vlt-concrete-batch-plant-17","family":"concrete-batch-plant","variant":16,"plan":"D2-1","units":"metres","up":"+Y","front":"+Z","lodScenes":[0,1,2]}}