{"asset":{"version":"2.0","generator":"SLOPMERICA Department of Unnecessary Development 1.0"},"scene":0,"scenes":[{"name":"LOD 0","nodes":[0,1,2,3,4,5,6,7,8,9,10,11,12],"extras":{"level":0}},{"name":"LOD 1","nodes":[13,14,15,16,17,18,19,20,21,22],"extras":{"level":1}},{"name":"LOD 2","nodes":[23,24,25,26,27,28,29],"extras":{"level":2}}],"nodes":[{"name":"foundation","mesh":0,"translation":[0,0.08,0],"scale":[20.2,0.16,8.64]},{"name":"diner-car","mesh":1,"translation":[0,1.456,0],"scale":[18,2.912,6.44]},{"name":"glass-band","mesh":2,"translation":[0,1.9136,0],"scale":[15.84,1.1648,6.54]},{"name":"diner-roof","mesh":3,"translation":[0,3.0784,0],"scale":[18.7,0.28,7.14]},{"name":"waffle-tile-0","mesh":4,"translation":[-3.01,3.952,3.42],"scale":[0.82,0.82,0.13]},{"name":"waffle-tile-1","mesh":5,"translation":[-2.15,4.032,3.42],"scale":[0.82,0.82,0.13]},{"name":"waffle-tile-2","mesh":4,"translation":[-1.29,3.952,3.42],"scale":[0.82,0.82,0.13]},{"name":"waffle-tile-3","mesh":5,"translation":[-0.43,4.032,3.42],"scale":[0.82,0.82,0.13]},{"name":"waffle-tile-4","mesh":4,"translation":[0.43,3.952,3.42],"scale":[0.82,0.82,0.13]},{"name":"waffle-tile-5","mesh":5,"translation":[1.29,4.032,3.42],"scale":[0.82,0.82,0.13]},{"name":"waffle-tile-6","mesh":4,"translation":[2.15,3.952,3.42],"scale":[0.82,0.82,0.13]},{"name":"waffle-tile-7","mesh":5,"translation":[3.01,4.032,3.42],"scale":[0.82,0.82,0.13]},{"name":"open-state-bollard","mesh":6,"translation":[-7.74,0.425,3.6064],"scale":[0.22,0.85,0.22]},{"name":"foundation","mesh":7,"translation":[0,0.08,0],"scale":[20.2,0.16,8.64]},{"name":"diner-car","mesh":8,"translation":[0,1.456,0],"scale":[18,2.912,6.44]},{"name":"glass-band","mesh":9,"translation":[0,1.9136,0],"scale":[15.84,1.1648,6.54]},{"name":"diner-roof","mesh":10,"translation":[0,3.0784,0],"scale":[18.7,0.28,7.14]},{"name":"waffle-tile-0","mesh":11,"translation":[-1.72,3.952,3.42],"scale":[0.82,0.82,0.13]},{"name":"waffle-tile-1","mesh":12,"translation":[-0.86,4.032,3.42],"scale":[0.82,0.82,0.13]},{"name":"waffle-tile-2","mesh":11,"translation":[0,3.952,3.42],"scale":[0.82,0.82,0.13]},{"name":"waffle-tile-3","mesh":12,"translation":[0.86,4.032,3.42],"scale":[0.82,0.82,0.13]},{"name":"waffle-tile-4","mesh":11,"translation":[1.72,3.952,3.42],"scale":[0.82,0.82,0.13]},{"name":"open-state-bollard","mesh":13,"translation":[-7.74,0.425,3.6064],"scale":[0.22,0.85,0.22]},{"name":"foundation","mesh":7,"translation":[0,0.08,0],"scale":[20.2,0.16,8.64]},{"name":"diner-car","mesh":8,"translation":[0,1.456,0],"scale":[18,2.912,6.44]},{"name":"glass-band","mesh":9,"translation":[0,1.9136,0],"scale":[15.84,1.1648,6.54]},{"name":"diner-roof","mesh":10,"translation":[0,3.0784,0],"scale":[18.7,0.28,7.14]},{"name":"waffle-tile-0","mesh":11,"translation":[-0.43,3.952,3.42],"scale":[0.82,0.82,0.13]},{"name":"waffle-tile-1","mesh":12,"translation":[0.43,4.032,3.42],"scale":[0.82,0.82,0.13]},{"name":"open-state-bollard","mesh":13,"translation":[-7.74,0.425,3.6064],"scale":[0.22,0.85,0.22]}],"meshes":[{"primitives":[{"attributes":{"POSITION":0,"NORMAL":1,"TEXCOORD_0":2},"material":0,"mode":4}]},{"primitives":[{"attributes":{"POSITION":3,"NORMAL":1,"TEXCOORD_0":4},"material":1,"mode":4}]},{"primitives":[{"attributes":{"POSITION":0,"NORMAL":1,"TEXCOORD_0":5},"material":2,"mode":4}]},{"primitives":[{"attributes":{"POSITION":0,"NORMAL":1,"TEXCOORD_0":6},"material":3,"mode":4}]},{"primitives":[{"attributes":{"POSITION":0,"NORMAL":1,"TEXCOORD_0":7},"material":4,"mode":4}]},{"primitives":[{"attributes":{"POSITION":0,"NORMAL":1,"TEXCOORD_0":8},"material":3,"mode":4}]},{"primitives":[{"attributes":{"POSITION":0,"NORMAL":1,"TEXCOORD_0":9},"material":3,"mode":4}]},{"primitives":[{"attributes":{"POSITION":10,"NORMAL":11,"TEXCOORD_0":12},"material":0,"mode":4,"indices":13}]},{"primitives":[{"attributes":{"POSITION":10,"NORMAL":11,"TEXCOORD_0":14},"material":1,"mode":4,"indices":13}]},{"primitives":[{"attributes":{"POSITION":10,"NORMAL":11,"TEXCOORD_0":15},"material":2,"mode":4,"indices":13}]},{"primitives":[{"attributes":{"POSITION":10,"NORMAL":11,"TEXCOORD_0":16},"material":3,"mode":4,"indices":13}]},{"primitives":[{"attributes":{"POSITION":10,"NORMAL":11,"TEXCOORD_0":17},"material":4,"mode":4,"indices":13}]},{"primitives":[{"attributes":{"POSITION":10,"NORMAL":11,"TEXCOORD_0":18},"material":3,"mode":4,"indices":13}]},{"primitives":[{"attributes":{"POSITION":10,"NORMAL":11,"TEXCOORD_0":19},"material":3,"mode":4,"indices":13}]}],"materials":[{"name":"concrete","pbrMetallicRoughness":{"baseColorTexture":{"index":0},"metallicRoughnessTexture":{"index":2},"roughnessFactor":1,"metallicFactor":1},"normalTexture":{"index":1,"scale":0.82},"occlusionTexture":{"index":2,"strength":0.35}},{"name":"metal-galvanized","pbrMetallicRoughness":{"baseColorTexture":{"index":3},"metallicRoughnessTexture":{"index":5},"roughnessFactor":1,"metallicFactor":1},"normalTexture":{"index":4,"scale":0.15},"occlusionTexture":{"index":5,"strength":0.35}},{"name":"glass-blue","pbrMetallicRoughness":{"baseColorTexture":{"index":6},"metallicRoughnessTexture":{"index":8},"roughnessFactor":1,"metallicFactor":1},"normalTexture":{"index":7,"scale":0.12},"occlusionTexture":{"index":8,"strength":0.35}},{"name":"paint-yellow","pbrMetallicRoughness":{"baseColorFactor":[0.76052450467022,0.4793201830913402,0.07818742179702069,1],"roughnessFactor":0.66,"metallicFactor":0.03}},{"name":"metal-dark","pbrMetallicRoughness":{"baseColorTexture":{"index":9},"metallicRoughnessTexture":{"index":11},"roughnessFactor":1,"metallicFactor":1},"normalTexture":{"index":10,"scale":0.35},"occlusionTexture":{"index":11,"strength":0.35}}],"textures":[{"source":0,"sampler":0},{"source":1,"sampler":0},{"source":2,"sampler":0},{"source":3,"sampler":0},{"source":4,"sampler":0},{"source":5,"sampler":0},{"source":6,"sampler":0},{"source":7,"sampler":0},{"source":8,"sampler":0},{"source":9,"sampler":0},{"source":10,"sampler":0},{"source":11,"sampler":0}],"images":[{"uri":"../textures/concrete-albedo.png"},{"uri":"../textures/concrete-normal.png"},{"uri":"../textures/concrete-orm.png"},{"uri":"../textures/metal-galvanized-albedo.png"},{"uri":"../textures/metal-galvanized-normal.png"},{"uri":"../textures/metal-galvanized-orm.png"},{"uri":"../textures/glass-blue-albedo.png"},{"uri":"../textures/glass-blue-normal.png"},{"uri":"../textures/glass-blue-orm.png"},{"uri":"../textures/metal-dark-albedo.png"},{"uri":"../textures/metal-dark-normal.png"},{"uri":"../textures/metal-dark-orm.png"}],"samplers":[{"magFilter":9729,"minFilter":9987,"wrapS":10497,"wrapT":10497}],"buffers":[{"uri":"../shared/geometry.bin","byteLength":16435520}],"bufferViews":[{"buffer":0,"byteOffset":0,"byteLength":3888,"target":34962},{"buffer":0,"byteOffset":3888,"byteLength":3888,"target":34962},{"buffer":0,"byteOffset":15432684,"byteLength":2592,"target":34962},{"buffer":0,"byteOffset":378372,"byteLength":3888,"target":34962},{"buffer":0,"byteOffset":15435276,"byteLength":2592,"target":34962},{"buffer":0,"byteOffset":15437868,"byteLength":2592,"target":34962},{"buffer":0,"byteOffset":15440460,"byteLength":2592,"target":34962},{"buffer":0,"byteOffset":15395724,"byteLength":2592,"target":34962},{"buffer":0,"byteOffset":15398316,"byteLength":2592,"target":34962},{"buffer":0,"byteOffset":422312,"byteLength":2592,"target":34962},{"buffer":0,"byteOffset":46644,"byteLength":288,"target":34962},{"buffer":0,"byteOffset":45952,"byteLength":288,"target":34962},{"buffer":0,"byteOffset":15443052,"byteLength":192,"target":34962},{"buffer":0,"byteOffset":46432,"byteLength":72,"target":34963},{"buffer":0,"byteOffset":15443244,"byteLength":192,"target":34962},{"buffer":0,"byteOffset":15443436,"byteLength":192,"target":34962},{"buffer":0,"byteOffset":15443628,"byteLength":192,"target":34962},{"buffer":0,"byteOffset":15401676,"byteLength":192,"target":34962},{"buffer":0,"byteOffset":15401868,"byteLength":192,"target":34962},{"buffer":0,"byteOffset":436936,"byteLength":192,"target":34962}],"accessors":[{"bufferView":0,"componentType":5126,"count":324,"type":"VEC3","min":[-0.5,-0.5,-0.5],"max":[0.5,0.5,0.5]},{"bufferView":1,"componentType":5126,"count":324,"type":"VEC3"},{"bufferView":2,"componentType":5126,"count":324,"type":"VEC2"},{"bufferView":3,"componentType":5126,"count":324,"type":"VEC3","min":[-0.5,-0.5,-0.5],"max":[0.5,0.5,0.5]},{"bufferView":4,"componentType":5126,"count":324,"type":"VEC2"},{"bufferView":5,"componentType":5126,"count":324,"type":"VEC2"},{"bufferView":6,"componentType":5126,"count":324,"type":"VEC2"},{"bufferView":7,"componentType":5126,"count":324,"type":"VEC2"},{"bufferView":8,"componentType":5126,"count":324,"type":"VEC2"},{"bufferView":9,"componentType":5126,"count":324,"type":"VEC2"},{"bufferView":10,"componentType":5126,"count":24,"type":"VEC3","min":[-0.5,-0.5,-0.5],"max":[0.5,0.5,0.5]},{"bufferView":11,"componentType":5126,"count":24,"type":"VEC3"},{"bufferView":12,"componentType":5126,"count":24,"type":"VEC2"},{"bufferView":13,"componentType":5123,"count":36,"type":"SCALAR"},{"bufferView":14,"componentType":5126,"count":24,"type":"VEC2"},{"bufferView":15,"componentType":5126,"count":24,"type":"VEC2"},{"bufferView":16,"componentType":5126,"count":24,"type":"VEC2"},{"bufferView":17,"componentType":5126,"count":24,"type":"VEC2"},{"bufferView":18,"componentType":5126,"count":24,"type":"VEC2"},{"bufferView":19,"componentType":5126,"count":24,"type":"VEC2"}],"extensionsUsed":["KHR_materials_unlit"],"extras":{"id":"vlt-waffle-index-05","family":"waffle-index","variant":4,"plan":"A5-1","units":"metres","up":"+Y","front":"+Z","lodScenes":[0,1,2]}}