{"asset":{"version":"2.0","generator":"SLOPMERICA Department of Unnecessary Development 1.0"},"scene":0,"scenes":[{"name":"LOD 0","nodes":[0,1,2,3,4,5,6,7,8,9,10,11,12],"extras":{"level":0}},{"name":"LOD 1","nodes":[13,14,15,16,17,18,19,20,21,22,23],"extras":{"level":1}},{"name":"LOD 2","nodes":[24,25,26,27,28,29,30,31,32],"extras":{"level":2}}],"nodes":[{"name":"foundation","mesh":0,"translation":[0,0.08,0],"scale":[16.6,0.16,16.92]},{"name":"nave","mesh":1,"translation":[0,3.12,0],"scale":[9.504,6.24,14.72]},{"name":"roof-left","mesh":2,"translation":[-2.3184,6.74,0],"rotation":[0,0,0.188859,0.982004],"scale":[5.544,0.22,15.27]},{"name":"roof-right","mesh":2,"translation":[2.3184,6.74,0],"rotation":[0,0,-0.188859,0.982004],"scale":[5.544,0.22,15.27]},{"name":"spire","mesh":3,"translation":[-3.456,7.488,-3.2384],"scale":[0.65,7.488,0.65]},{"name":"halo-brush","mesh":4,"translation":[0,2.8704,7.56]},{"name":"wash-door","mesh":5,"translation":[0,1.872,7.46],"scale":[5.76,3.4944,0.2]},{"name":"busy-state-queue-bar","mesh":6,"translation":[0,0.65,9.2736],"scale":[10.368,0.12,0.12]},{"name":"queue-car-0","mesh":7,"translation":[-4.32,0.34,10.304],"scale":[1.35,0.65,0.7]},{"name":"queue-car-1","mesh":8,"translation":[-2.16,0.34,11.4816],"scale":[1.35,0.65,0.7]},{"name":"queue-car-2","mesh":7,"translation":[0,0.34,10.304],"scale":[1.35,0.65,0.7]},{"name":"queue-car-3","mesh":8,"translation":[2.16,0.34,11.4816],"scale":[1.35,0.65,0.7]},{"name":"queue-car-4","mesh":7,"translation":[4.32,0.34,10.304],"scale":[1.35,0.65,0.7]},{"name":"foundation","mesh":9,"translation":[0,0.08,0],"scale":[16.6,0.16,16.92]},{"name":"nave","mesh":10,"translation":[0,3.12,0],"scale":[9.504,6.24,14.72]},{"name":"roof-left","mesh":11,"translation":[-2.3184,6.74,0],"rotation":[0,0,0.188859,0.982004],"scale":[5.544,0.22,15.27]},{"name":"roof-right","mesh":11,"translation":[2.3184,6.74,0],"rotation":[0,0,-0.188859,0.982004],"scale":[5.544,0.22,15.27]},{"name":"spire","mesh":12,"translation":[-3.456,7.488,-3.2384],"scale":[0.65,7.488,0.65]},{"name":"halo-brush","mesh":13,"translation":[0,2.8704,7.56]},{"name":"wash-door","mesh":14,"translation":[0,1.872,7.46],"scale":[5.76,3.4944,0.2]},{"name":"busy-state-queue-bar","mesh":15,"translation":[0,0.65,9.2736],"scale":[10.368,0.12,0.12]},{"name":"queue-car-0","mesh":16,"translation":[-4.32,0.34,10.304],"scale":[1.35,0.65,0.7]},{"name":"queue-car-1","mesh":17,"translation":[-2.16,0.34,11.4816],"scale":[1.35,0.65,0.7]},{"name":"queue-car-2","mesh":16,"translation":[0,0.34,10.304],"scale":[1.35,0.65,0.7]},{"name":"foundation","mesh":9,"translation":[0,0.08,0],"scale":[16.6,0.16,16.92]},{"name":"nave","mesh":10,"translation":[0,3.12,0],"scale":[9.504,6.24,14.72]},{"name":"roof-left","mesh":11,"translation":[-2.3184,6.74,0],"rotation":[0,0,0.188859,0.982004],"scale":[5.544,0.22,15.27]},{"name":"roof-right","mesh":11,"translation":[2.3184,6.74,0],"rotation":[0,0,-0.188859,0.982004],"scale":[5.544,0.22,15.27]},{"name":"spire","mesh":12,"translation":[-3.456,7.488,-3.2384],"scale":[0.65,7.488,0.65]},{"name":"halo-brush","mesh":18,"translation":[0,2.8704,7.56]},{"name":"wash-door","mesh":14,"translation":[0,1.872,7.46],"scale":[5.76,3.4944,0.2]},{"name":"busy-state-queue-bar","mesh":15,"translation":[0,0.65,9.2736],"scale":[10.368,0.12,0.12]},{"name":"queue-car-0","mesh":16,"translation":[-4.32,0.34,10.304],"scale":[1.35,0.65,0.7]}],"meshes":[{"primitives":[{"attributes":{"POSITION":0,"NORMAL":1,"TEXCOORD_0":2},"material":0,"mode":4}]},{"primitives":[{"attributes":{"POSITION":3,"NORMAL":1,"TEXCOORD_0":4},"material":1,"mode":4}]},{"primitives":[{"attributes":{"POSITION":0,"NORMAL":1,"TEXCOORD_0":5},"material":2,"mode":4}]},{"primitives":[{"attributes":{"POSITION":6,"NORMAL":7,"TEXCOORD_0":8},"material":3,"mode":4,"indices":9}]},{"primitives":[{"attributes":{"POSITION":10,"NORMAL":11,"TEXCOORD_0":12},"material":3,"mode":4,"indices":13}]},{"primitives":[{"attributes":{"POSITION":0,"NORMAL":1,"TEXCOORD_0":14},"material":4,"mode":4}]},{"primitives":[{"attributes":{"POSITION":0,"NORMAL":1,"TEXCOORD_0":15},"material":3,"mode":4}]},{"primitives":[{"attributes":{"POSITION":0,"NORMAL":1,"TEXCOORD_0":16},"material":5,"mode":4}]},{"primitives":[{"attributes":{"POSITION":0,"NORMAL":1,"TEXCOORD_0":16},"material":2,"mode":4}]},{"primitives":[{"attributes":{"POSITION":17,"NORMAL":18,"TEXCOORD_0":19},"material":0,"mode":4,"indices":20}]},{"primitives":[{"attributes":{"POSITION":17,"NORMAL":18,"TEXCOORD_0":21},"material":1,"mode":4,"indices":20}]},{"primitives":[{"attributes":{"POSITION":17,"NORMAL":18,"TEXCOORD_0":22},"material":2,"mode":4,"indices":20}]},{"primitives":[{"attributes":{"POSITION":23,"NORMAL":24,"TEXCOORD_0":25},"material":3,"mode":4,"indices":26}]},{"primitives":[{"attributes":{"POSITION":27,"NORMAL":28,"TEXCOORD_0":29},"material":3,"mode":4,"indices":30}]},{"primitives":[{"attributes":{"POSITION":17,"NORMAL":18,"TEXCOORD_0":31},"material":4,"mode":4,"indices":20}]},{"primitives":[{"attributes":{"POSITION":17,"NORMAL":18,"TEXCOORD_0":32},"material":3,"mode":4,"indices":20}]},{"primitives":[{"attributes":{"POSITION":17,"NORMAL":18,"TEXCOORD_0":33},"material":5,"mode":4,"indices":20}]},{"primitives":[{"attributes":{"POSITION":17,"NORMAL":18,"TEXCOORD_0":33},"material":2,"mode":4,"indices":20}]},{"primitives":[{"attributes":{"POSITION":34,"NORMAL":35,"TEXCOORD_0":36},"material":3,"mode":4,"indices":37}]}],"materials":[{"name":"concrete","pbrMetallicRoughness":{"baseColorTexture":{"index":0},"metallicRoughnessTexture":{"index":2},"roughnessFactor":1,"metallicFactor":1},"normalTexture":{"index":1,"scale":0.82},"occlusionTexture":{"index":2,"strength":0.35}},{"name":"brick-cream","pbrMetallicRoughness":{"baseColorTexture":{"index":3},"metallicRoughnessTexture":{"index":5},"roughnessFactor":1,"metallicFactor":1},"normalTexture":{"index":4,"scale":1.05},"occlusionTexture":{"index":5,"strength":0.35}},{"name":"paint-blue","pbrMetallicRoughness":{"baseColorFactor":[0.05126945836711539,0.10946171076915331,0.22696587349938613,1],"roughnessFactor":0.58,"metallicFactor":0.05}},{"name":"paint-teal","pbrMetallicRoughness":{"baseColorFactor":[0.040915196900556984,0.20507873637973145,0.1878207722902346,1],"roughnessFactor":0.59,"metallicFactor":0.05}},{"name":"metal-dark","pbrMetallicRoughness":{"baseColorTexture":{"index":6},"metallicRoughnessTexture":{"index":8},"roughnessFactor":1,"metallicFactor":1},"normalTexture":{"index":7,"scale":0.35},"occlusionTexture":{"index":8,"strength":0.35}},{"name":"paint-red","pbrMetallicRoughness":{"baseColorFactor":[0.46778379610254284,0.08021982030622662,0.05126945836711539,1],"roughnessFactor":0.62,"metallicFactor":0.05}}],"textures":[{"source":0,"sampler":0},{"source":1,"sampler":0},{"source":2,"sampler":0},{"source":3,"sampler":0},{"source":4,"sampler":0},{"source":5,"sampler":0},{"source":6,"sampler":0},{"source":7,"sampler":0},{"source":8,"sampler":0}],"images":[{"uri":"../textures/concrete-albedo.png"},{"uri":"../textures/concrete-normal.png"},{"uri":"../textures/concrete-orm.png"},{"uri":"../textures/brick-cream-albedo.png"},{"uri":"../textures/brick-cream-normal.png"},{"uri":"../textures/brick-cream-orm.png"},{"uri":"../textures/metal-dark-albedo.png"},{"uri":"../textures/metal-dark-normal.png"},{"uri":"../textures/metal-dark-orm.png"}],"samplers":[{"magFilter":9729,"minFilter":9987,"wrapS":10497,"wrapT":10497}],"buffers":[{"uri":"../shared/geometry.bin","byteLength":16435520}],"bufferViews":[{"buffer":0,"byteOffset":0,"byteLength":3888,"target":34962},{"buffer":0,"byteOffset":3888,"byteLength":3888,"target":34962},{"buffer":0,"byteOffset":1771612,"byteLength":2592,"target":34962},{"buffer":0,"byteOffset":33392,"byteLength":3888,"target":34962},{"buffer":0,"byteOffset":1774204,"byteLength":2592,"target":34962},{"buffer":0,"byteOffset":1776796,"byteLength":2592,"target":34962},{"buffer":0,"byteOffset":1724472,"byteLength":624,"target":34962},{"buffer":0,"byteOffset":1725096,"byteLength":624,"target":34962},{"buffer":0,"byteOffset":1779388,"byteLength":416,"target":34962},{"buffer":0,"byteOffset":1111736,"byteLength":192,"target":34963},{"buffer":0,"byteOffset":1726136,"byteLength":3132,"target":34962},{"buffer":0,"byteOffset":390704,"byteLength":3132,"target":34962},{"buffer":0,"byteOffset":393836,"byteLength":2088,"target":34962},{"buffer":0,"byteOffset":395924,"byteLength":2688,"target":34963},{"buffer":0,"byteOffset":1779804,"byteLength":2592,"target":34962},{"buffer":0,"byteOffset":1917116,"byteLength":2592,"target":34962},{"buffer":0,"byteOffset":582912,"byteLength":2592,"target":34962},{"buffer":0,"byteOffset":46644,"byteLength":288,"target":34962},{"buffer":0,"byteOffset":45952,"byteLength":288,"target":34962},{"buffer":0,"byteOffset":1782396,"byteLength":192,"target":34962},{"buffer":0,"byteOffset":46432,"byteLength":72,"target":34963},{"buffer":0,"byteOffset":1782588,"byteLength":192,"target":34962},{"buffer":0,"byteOffset":1782780,"byteLength":192,"target":34962},{"buffer":0,"byteOffset":1732436,"byteLength":480,"target":34962},{"buffer":0,"byteOffset":1732916,"byteLength":480,"target":34962},{"buffer":0,"byteOffset":1782972,"byteLength":320,"target":34962},{"buffer":0,"byteOffset":48596,"byteLength":144,"target":34963},{"buffer":0,"byteOffset":1733716,"byteLength":1428,"target":34962},{"buffer":0,"byteOffset":427996,"byteLength":1428,"target":34962},{"buffer":0,"byteOffset":429424,"byteLength":952,"target":34962},{"buffer":0,"byteOffset":430376,"byteLength":1152,"target":34963},{"buffer":0,"byteOffset":1783292,"byteLength":192,"target":34962},{"buffer":0,"byteOffset":1919708,"byteLength":192,"target":34962},{"buffer":0,"byteOffset":585696,"byteLength":192,"target":34962},{"buffer":0,"byteOffset":1735336,"byteLength":660,"target":34962},{"buffer":0,"byteOffset":437788,"byteLength":660,"target":34962},{"buffer":0,"byteOffset":438448,"byteLength":440,"target":34962},{"buffer":0,"byteOffset":438888,"byteLength":480,"target":34963}],"accessors":[{"bufferView":0,"componentType":5126,"count":324,"type":"VEC3","min":[-0.5,-0.5,-0.5],"max":[0.5,0.5,0.5]},{"bufferView":1,"componentType":5126,"count":324,"type":"VEC3"},{"bufferView":2,"componentType":5126,"count":324,"type":"VEC2"},{"bufferView":3,"componentType":5126,"count":324,"type":"VEC3","min":[-0.5,-0.5,-0.5],"max":[0.5,0.5,0.5]},{"bufferView":4,"componentType":5126,"count":324,"type":"VEC2"},{"bufferView":5,"componentType":5126,"count":324,"type":"VEC2"},{"bufferView":6,"componentType":5126,"count":52,"type":"VEC3","min":[-1,-0.5,-1],"max":[1,0.5,1]},{"bufferView":7,"componentType":5126,"count":52,"type":"VEC3"},{"bufferView":8,"componentType":5126,"count":52,"type":"VEC2"},{"bufferView":9,"componentType":5123,"count":96,"type":"SCALAR"},{"bufferView":10,"componentType":5126,"count":261,"type":"VEC3","min":[-1.4199999570846558,-1.4199999570846558,-0.2199999988079071],"max":[1.4199999570846558,1.4199999570846558,0.2199999988079071]},{"bufferView":11,"componentType":5126,"count":261,"type":"VEC3"},{"bufferView":12,"componentType":5126,"count":261,"type":"VEC2"},{"bufferView":13,"componentType":5123,"count":1344,"type":"SCALAR"},{"bufferView":14,"componentType":5126,"count":324,"type":"VEC2"},{"bufferView":15,"componentType":5126,"count":324,"type":"VEC2"},{"bufferView":16,"componentType":5126,"count":324,"type":"VEC2"},{"bufferView":17,"componentType":5126,"count":24,"type":"VEC3","min":[-0.5,-0.5,-0.5],"max":[0.5,0.5,0.5]},{"bufferView":18,"componentType":5126,"count":24,"type":"VEC3"},{"bufferView":19,"componentType":5126,"count":24,"type":"VEC2"},{"bufferView":20,"componentType":5123,"count":36,"type":"SCALAR"},{"bufferView":21,"componentType":5126,"count":24,"type":"VEC2"},{"bufferView":22,"componentType":5126,"count":24,"type":"VEC2"},{"bufferView":23,"componentType":5126,"count":40,"type":"VEC3","min":[-0.8660253882408142,-0.5,-1],"max":[0.8660253882408142,0.5,1]},{"bufferView":24,"componentType":5126,"count":40,"type":"VEC3"},{"bufferView":25,"componentType":5126,"count":40,"type":"VEC2"},{"bufferView":26,"componentType":5123,"count":72,"type":"SCALAR"},{"bufferView":27,"componentType":5126,"count":119,"type":"VEC3","min":[-1.4199999570846558,-1.4199999570846558,-0.1905255913734436],"max":[1.4199999570846558,1.4199999570846558,0.1905255913734436]},{"bufferView":28,"componentType":5126,"count":119,"type":"VEC3"},{"bufferView":29,"componentType":5126,"count":119,"type":"VEC2"},{"bufferView":30,"componentType":5123,"count":576,"type":"SCALAR"},{"bufferView":31,"componentType":5126,"count":24,"type":"VEC2"},{"bufferView":32,"componentType":5126,"count":24,"type":"VEC2"},{"bufferView":33,"componentType":5126,"count":24,"type":"VEC2"},{"bufferView":34,"componentType":5126,"count":55,"type":"VEC3","min":[-1.4199999570846558,-1.350500226020813,-0.2199999988079071],"max":[1.4199999570846558,1.350500226020813,0.2199999988079071]},{"bufferView":35,"componentType":5126,"count":55,"type":"VEC3"},{"bufferView":36,"componentType":5126,"count":55,"type":"VEC2"},{"bufferView":37,"componentType":5123,"count":240,"type":"SCALAR"}],"extensionsUsed":["KHR_materials_unlit"],"extras":{"id":"vlt-chrome-confessional-25","family":"chrome-confessional","variant":24,"plan":"A5-2","units":"metres","up":"+Y","front":"+Z","lodScenes":[0,1,2]}}