{"asset":{"version":"2.0","generator":"SLOPMERICA Department of Unnecessary Development 1.0"},"scene":0,"scenes":[{"name":"LOD 0","nodes":[0,1,2,3,4,5,6,7,8,9,10,11,12,13,14,15,16,17],"extras":{"level":0}},{"name":"LOD 1","nodes":[18,19,20,21,22,23,24,25,26,27,28,29,30,31,32,33,34,35],"extras":{"level":1}},{"name":"LOD 2","nodes":[36,37,38,39,40,41,42,43,44,45,46,47],"extras":{"level":2}}],"nodes":[{"name":"surveyed lot","mesh":0,"translation":[0,0.06,0],"scale":[16.8,0.12,15.68]},{"name":"white board and batten","mesh":1,"translation":[0,2.9,0],"scale":[10.9,5.6,8.5]},{"name":"black metal gable left","mesh":2,"translation":[-2.875,7.144415,0],"rotation":[0,0,0.227978,0.973666],"scale":[6.417035,0.16,9]},{"name":"black metal gable right","mesh":2,"translation":[2.875,7.144415,0],"rotation":[0,0,-0.227978,0.973666],"scale":[6.417035,0.16,9]},{"name":"black metal gable end infill","mesh":3,"translation":[0,5.72,0]},{"name":"wrap porch","mesh":4,"translation":[0,0.45,5.15],"scale":[13.1,0.2,2.4]},{"name":"post -5.45 0","mesh":5,"translation":[-5.45,1.575,5.25],"scale":[0.16,3.15,0.16]},{"name":"post -5.45 1","mesh":5,"translation":[-2.725,1.575,5.25],"scale":[0.16,3.15,0.16]},{"name":"post -5.45 2","mesh":5,"translation":[0,1.575,5.25],"scale":[0.16,3.15,0.16]},{"name":"post -5.45 3","mesh":5,"translation":[2.725,1.575,5.25],"scale":[0.16,3.15,0.16]},{"name":"post -5.45 4","mesh":5,"translation":[5.45,1.575,5.25],"scale":[0.16,3.15,0.16]},{"name":"window 3.7 0","mesh":6,"translation":[-2.55,3.7,4.33],"scale":[0.7,0.75,0.09]},{"name":"window 3.7 1","mesh":6,"translation":[-0.85,3.7,4.33],"scale":[0.7,0.75,0.09]},{"name":"window 3.7 2","mesh":6,"translation":[0.85,3.7,4.33],"scale":[0.7,0.75,0.09]},{"name":"window 3.7 3","mesh":6,"translation":[2.55,3.7,4.33],"scale":[0.7,0.75,0.09]},{"name":"gather sign-back","mesh":7,"translation":[0,2.1,4.37],"scale":[2.8,0.9,1]},{"name":"gather sign","mesh":8,"translation":[0,2.1,4.399],"scale":[2.7,0.8,1]},{"name":"package mountain","mesh":9,"translation":[2.4,0.95,5.75],"scale":[1.55,0.9,0.9]},{"name":"surveyed lot","mesh":10,"translation":[0,0.06,0],"scale":[16.8,0.12,15.68]},{"name":"white board and batten","mesh":11,"translation":[0,2.9,0],"scale":[10.9,5.6,8.5]},{"name":"black metal gable left","mesh":12,"translation":[-2.875,7.144415,0],"rotation":[0,0,0.227978,0.973666],"scale":[6.417035,0.16,9]},{"name":"black metal gable right","mesh":12,"translation":[2.875,7.144415,0],"rotation":[0,0,-0.227978,0.973666],"scale":[6.417035,0.16,9]},{"name":"black metal gable end infill","mesh":3,"translation":[0,5.72,0]},{"name":"wrap porch","mesh":13,"translation":[0,0.45,5.15],"scale":[13.1,0.2,2.4]},{"name":"post -5.45 0","mesh":14,"translation":[-5.45,1.575,5.25],"scale":[0.16,3.15,0.16]},{"name":"post -5.45 1","mesh":14,"translation":[-2.725,1.575,5.25],"scale":[0.16,3.15,0.16]},{"name":"post -5.45 2","mesh":14,"translation":[0,1.575,5.25],"scale":[0.16,3.15,0.16]},{"name":"post -5.45 3","mesh":14,"translation":[2.725,1.575,5.25],"scale":[0.16,3.15,0.16]},{"name":"post -5.45 4","mesh":14,"translation":[5.45,1.575,5.25],"scale":[0.16,3.15,0.16]},{"name":"window 3.7 0","mesh":15,"translation":[-2.55,3.7,4.33],"scale":[0.7,0.75,0.09]},{"name":"window 3.7 1","mesh":15,"translation":[-0.85,3.7,4.33],"scale":[0.7,0.75,0.09]},{"name":"window 3.7 2","mesh":15,"translation":[0.85,3.7,4.33],"scale":[0.7,0.75,0.09]},{"name":"window 3.7 3","mesh":15,"translation":[2.55,3.7,4.33],"scale":[0.7,0.75,0.09]},{"name":"gather sign-back","mesh":7,"translation":[0,2.1,4.37],"scale":[2.8,0.9,1]},{"name":"gather sign","mesh":8,"translation":[0,2.1,4.399],"scale":[2.7,0.8,1]},{"name":"package mountain","mesh":16,"translation":[2.4,0.95,5.75],"scale":[1.55,0.9,0.9]},{"name":"surveyed lot","mesh":10,"translation":[0,0.06,0],"scale":[16.8,0.12,15.68]},{"name":"white board and batten","mesh":11,"translation":[0,2.9,0],"scale":[10.9,5.6,8.5]},{"name":"black metal gable left","mesh":12,"translation":[-2.875,7.144415,0],"rotation":[0,0,0.227978,0.973666],"scale":[6.417035,0.16,9]},{"name":"black metal gable right","mesh":12,"translation":[2.875,7.144415,0],"rotation":[0,0,-0.227978,0.973666],"scale":[6.417035,0.16,9]},{"name":"black metal gable end infill","mesh":3,"translation":[0,5.72,0]},{"name":"wrap porch","mesh":13,"translation":[0,0.45,5.15],"scale":[13.1,0.2,2.4]},{"name":"post -5.45 0","mesh":14,"translation":[-5.45,1.575,5.25],"scale":[0.16,3.15,0.16]},{"name":"post -5.45 1","mesh":14,"translation":[-2.725,1.575,5.25],"scale":[0.16,3.15,0.16]},{"name":"post -5.45 2","mesh":14,"translation":[0,1.575,5.25],"scale":[0.16,3.15,0.16]},{"name":"post -5.45 3","mesh":14,"translation":[2.725,1.575,5.25],"scale":[0.16,3.15,0.16]},{"name":"post -5.45 4","mesh":14,"translation":[5.45,1.575,5.25],"scale":[0.16,3.15,0.16]},{"name":"package mountain","mesh":16,"translation":[2.4,0.95,5.75],"scale":[1.55,0.9,0.9]}],"meshes":[{"primitives":[{"attributes":{"POSITION":0,"NORMAL":1,"TEXCOORD_0":2},"material":0,"mode":4}]},{"primitives":[{"attributes":{"POSITION":3,"NORMAL":1,"TEXCOORD_0":4},"material":1,"mode":4}]},{"primitives":[{"attributes":{"POSITION":0,"NORMAL":1,"TEXCOORD_0":5},"material":2,"mode":4}]},{"primitives":[{"attributes":{"POSITION":6,"NORMAL":7,"TEXCOORD_0":8},"material":1,"mode":4}]},{"primitives":[{"attributes":{"POSITION":0,"NORMAL":1,"TEXCOORD_0":9},"material":3,"mode":4}]},{"primitives":[{"attributes":{"POSITION":0,"NORMAL":1,"TEXCOORD_0":10},"material":3,"mode":4}]},{"primitives":[{"attributes":{"POSITION":0,"NORMAL":1,"TEXCOORD_0":11},"material":2,"mode":4}]},{"primitives":[{"attributes":{"POSITION":12,"NORMAL":13,"TEXCOORD_0":14},"material":2,"mode":4,"indices":15}]},{"primitives":[{"attributes":{"POSITION":16,"NORMAL":17,"TEXCOORD_0":18},"material":4,"mode":4,"indices":19}]},{"primitives":[{"attributes":{"POSITION":20,"NORMAL":1,"TEXCOORD_0":21},"material":5,"mode":4}]},{"primitives":[{"attributes":{"POSITION":22,"NORMAL":13,"TEXCOORD_0":23},"material":0,"mode":4,"indices":15}]},{"primitives":[{"attributes":{"POSITION":22,"NORMAL":13,"TEXCOORD_0":24},"material":1,"mode":4,"indices":15}]},{"primitives":[{"attributes":{"POSITION":22,"NORMAL":13,"TEXCOORD_0":25},"material":2,"mode":4,"indices":15}]},{"primitives":[{"attributes":{"POSITION":22,"NORMAL":13,"TEXCOORD_0":26},"material":3,"mode":4,"indices":15}]},{"primitives":[{"attributes":{"POSITION":22,"NORMAL":13,"TEXCOORD_0":27},"material":3,"mode":4,"indices":15}]},{"primitives":[{"attributes":{"POSITION":22,"NORMAL":13,"TEXCOORD_0":28},"material":2,"mode":4,"indices":15}]},{"primitives":[{"attributes":{"POSITION":22,"NORMAL":13,"TEXCOORD_0":29},"material":5,"mode":4,"indices":15}]}],"materials":[{"name":"concrete","pbrMetallicRoughness":{"baseColorTexture":{"index":0},"metallicRoughnessTexture":{"index":2},"roughnessFactor":1,"metallicFactor":1},"normalTexture":{"index":1,"scale":0.82},"occlusionTexture":{"index":2,"strength":0.35}},{"name":"paint-white","pbrMetallicRoughness":{"baseColorFactor":[0.7912979403281551,0.7681511472425809,0.6795424696265424,1],"roughnessFactor":0.68,"metallicFactor":0}},{"name":"metal-dark","pbrMetallicRoughness":{"baseColorTexture":{"index":3},"metallicRoughnessTexture":{"index":5},"roughnessFactor":1,"metallicFactor":1},"normalTexture":{"index":4,"scale":0.35},"occlusionTexture":{"index":5,"strength":0.35}},{"name":"wood-painted","pbrMetallicRoughness":{"baseColorTexture":{"index":6},"metallicRoughnessTexture":{"index":8},"roughnessFactor":1,"metallicFactor":1},"normalTexture":{"index":7,"scale":0.55},"occlusionTexture":{"index":8,"strength":0.35}},{"name":"gather-farmhouse signage","pbrMetallicRoughness":{"baseColorTexture":{"index":9},"roughnessFactor":1,"metallicFactor":0},"extensions":{"KHR_materials_unlit":{}}},{"name":"brick-cream","pbrMetallicRoughness":{"baseColorTexture":{"index":10},"metallicRoughnessTexture":{"index":12},"roughnessFactor":1,"metallicFactor":1},"normalTexture":{"index":11,"scale":1.05},"occlusionTexture":{"index":12,"strength":0.35}}],"textures":[{"source":0,"sampler":0},{"source":1,"sampler":0},{"source":2,"sampler":0},{"source":3,"sampler":0},{"source":4,"sampler":0},{"source":5,"sampler":0},{"source":6,"sampler":0},{"source":7,"sampler":0},{"source":8,"sampler":0},{"source":9,"sampler":0},{"source":10,"sampler":0},{"source":11,"sampler":0},{"source":12,"sampler":0}],"images":[{"uri":"../textures/concrete-albedo.png"},{"uri":"../textures/concrete-normal.png"},{"uri":"../textures/concrete-orm.png"},{"uri":"../textures/metal-dark-albedo.png"},{"uri":"../textures/metal-dark-normal.png"},{"uri":"../textures/metal-dark-orm.png"},{"uri":"../textures/wood-painted-albedo.png"},{"uri":"../textures/wood-painted-normal.png"},{"uri":"../textures/wood-painted-orm.png"},{"uri":"../signs/gather-farmhouse.png"},{"uri":"../textures/brick-cream-albedo.png"},{"uri":"../textures/brick-cream-normal.png"},{"uri":"../textures/brick-cream-orm.png"}],"samplers":[{"magFilter":9729,"minFilter":9987,"wrapS":10497,"wrapT":10497}],"buffers":[{"uri":"../shared/geometry.bin","byteLength":16435520}],"bufferViews":[{"buffer":0,"byteOffset":0,"byteLength":3888,"target":34962},{"buffer":0,"byteOffset":3888,"byteLength":3888,"target":34962},{"buffer":0,"byteOffset":6192560,"byteLength":2592,"target":34962},{"buffer":0,"byteOffset":693144,"byteLength":3888,"target":34962},{"buffer":0,"byteOffset":6231992,"byteLength":2592,"target":34962},{"buffer":0,"byteOffset":6234584,"byteLength":2592,"target":34962},{"buffer":0,"byteOffset":6237176,"byteLength":72,"target":34962},{"buffer":0,"byteOffset":608760,"byteLength":72,"target":34962},{"buffer":0,"byteOffset":6200408,"byteLength":48,"target":34962},{"buffer":0,"byteOffset":6200456,"byteLength":2592,"target":34962},{"buffer":0,"byteOffset":6163712,"byteLength":2592,"target":34962},{"buffer":0,"byteOffset":6166304,"byteLength":2592,"target":34962},{"buffer":0,"byteOffset":45664,"byteLength":288,"target":34962},{"buffer":0,"byteOffset":45952,"byteLength":288,"target":34962},{"buffer":0,"byteOffset":46240,"byteLength":192,"target":34962},{"buffer":0,"byteOffset":46432,"byteLength":72,"target":34963},{"buffer":0,"byteOffset":46504,"byteLength":48,"target":34962},{"buffer":0,"byteOffset":46552,"byteLength":48,"target":34962},{"buffer":0,"byteOffset":222628,"byteLength":32,"target":34962},{"buffer":0,"byteOffset":46632,"byteLength":12,"target":34963},{"buffer":0,"byteOffset":4875864,"byteLength":3888,"target":34962},{"buffer":0,"byteOffset":6308024,"byteLength":2592,"target":34962},{"buffer":0,"byteOffset":46644,"byteLength":288,"target":34962},{"buffer":0,"byteOffset":6203048,"byteLength":192,"target":34962},{"buffer":0,"byteOffset":6237248,"byteLength":192,"target":34962},{"buffer":0,"byteOffset":6237440,"byteLength":192,"target":34962},{"buffer":0,"byteOffset":6203624,"byteLength":192,"target":34962},{"buffer":0,"byteOffset":6169664,"byteLength":192,"target":34962},{"buffer":0,"byteOffset":6169856,"byteLength":192,"target":34962},{"buffer":0,"byteOffset":6310616,"byteLength":192,"target":34962}],"accessors":[{"bufferView":0,"componentType":5126,"count":324,"type":"VEC3","min":[-0.5,-0.5,-0.5],"max":[0.5,0.5,0.5]},{"bufferView":1,"componentType":5126,"count":324,"type":"VEC3"},{"bufferView":2,"componentType":5126,"count":324,"type":"VEC2"},{"bufferView":3,"componentType":5126,"count":324,"type":"VEC3","min":[-0.5,-0.5,-0.5],"max":[0.5,0.5,0.5]},{"bufferView":4,"componentType":5126,"count":324,"type":"VEC2"},{"bufferView":5,"componentType":5126,"count":324,"type":"VEC2"},{"bufferView":6,"componentType":5126,"count":6,"type":"VEC3","min":[-5.75,0,-4.485000133514404],"max":[5.75,2.848830461502075,4.485000133514404]},{"bufferView":7,"componentType":5126,"count":6,"type":"VEC3"},{"bufferView":8,"componentType":5126,"count":6,"type":"VEC2"},{"bufferView":9,"componentType":5126,"count":324,"type":"VEC2"},{"bufferView":10,"componentType":5126,"count":324,"type":"VEC2"},{"bufferView":11,"componentType":5126,"count":324,"type":"VEC2"},{"bufferView":12,"componentType":5126,"count":24,"type":"VEC3","min":[-0.5,-0.5,-0.02500000037252903],"max":[0.5,0.5,0.02500000037252903]},{"bufferView":13,"componentType":5126,"count":24,"type":"VEC3"},{"bufferView":14,"componentType":5126,"count":24,"type":"VEC2"},{"bufferView":15,"componentType":5123,"count":36,"type":"SCALAR"},{"bufferView":16,"componentType":5126,"count":4,"type":"VEC3","min":[-0.5,-0.5,0],"max":[0.5,0.5,0]},{"bufferView":17,"componentType":5126,"count":4,"type":"VEC3"},{"bufferView":18,"componentType":5126,"count":4,"type":"VEC2"},{"bufferView":19,"componentType":5123,"count":6,"type":"SCALAR"},{"bufferView":20,"componentType":5126,"count":324,"type":"VEC3","min":[-0.5,-0.5,-0.5],"max":[0.5,0.5,0.5]},{"bufferView":21,"componentType":5126,"count":324,"type":"VEC2"},{"bufferView":22,"componentType":5126,"count":24,"type":"VEC3","min":[-0.5,-0.5,-0.5],"max":[0.5,0.5,0.5]},{"bufferView":23,"componentType":5126,"count":24,"type":"VEC2"},{"bufferView":24,"componentType":5126,"count":24,"type":"VEC2"},{"bufferView":25,"componentType":5126,"count":24,"type":"VEC2"},{"bufferView":26,"componentType":5126,"count":24,"type":"VEC2"},{"bufferView":27,"componentType":5126,"count":24,"type":"VEC2"},{"bufferView":28,"componentType":5126,"count":24,"type":"VEC2"},{"bufferView":29,"componentType":5126,"count":24,"type":"VEC2"}],"extensionsUsed":["KHR_materials_unlit"],"extras":{"id":"vlt-gather-farmhouse-29","family":"gather-farmhouse","variant":28,"plan":"B4-2","units":"metres","up":"+Y","front":"+Z","lodScenes":[0,1,2]}}