{"asset":{"version":"2.0","generator":"SLOPMERICA Department of Unnecessary Development 1.0"},"scene":0,"scenes":[{"name":"LOD 0","nodes":[0,1,2,3,4,5,6,7,8,9,10,11,12,13,14],"extras":{"level":0}},{"name":"LOD 1","nodes":[15,16,17,18,19,20,21,22,23,24,25,26,27,28,29],"extras":{"level":1}},{"name":"LOD 2","nodes":[30,31,32,33,34,35,36,37,38],"extras":{"level":2}}],"nodes":[{"name":"surveyed lot","mesh":0,"translation":[0,0.06,0],"scale":[7.848,0.12,19.032]},{"name":"vinyl trailer","mesh":1,"translation":[0,1.55,0],"scale":[5.04,2.75,14.16]},{"name":"shallow roof","mesh":2,"translation":[0,3.04,0],"rotation":[0,0,-0.017499,0.999847],"scale":[5.34,0.28,14.51]},{"name":"front door","mesh":3,"translation":[-1.26,1.25,7.15],"scale":[0.95,2.05,0.12]},{"name":"window 1.8 0","mesh":4,"translation":[-1.68,1.8,7.155],"scale":[0.7,0.75,0.09]},{"name":"window 1.8 1","mesh":4,"translation":[-0.84,1.8,7.155],"scale":[0.7,0.75,0.09]},{"name":"window 1.8 2","mesh":4,"translation":[0,1.8,7.155],"scale":[0.7,0.75,0.09]},{"name":"window 1.8 3","mesh":4,"translation":[0.84,1.8,7.155],"scale":[0.7,0.75,0.09]},{"name":"window 1.8 4","mesh":4,"translation":[1.68,1.8,7.155],"scale":[0.7,0.75,0.09]},{"name":"post -2.22 0","mesh":5,"translation":[-2.22,0.675,8.08],"scale":[0.16,1.35,0.16]},{"name":"post -2.22 1","mesh":5,"translation":[0.3,0.675,8.08],"scale":[0.16,1.35,0.16]},{"name":"post -2.22 2","mesh":5,"translation":[2.82,0.675,8.08],"scale":[0.16,1.35,0.16]},{"name":"front steps","mesh":6,"translation":[-1.26,0.28,7.78],"scale":[1.7,0.56,1.05]},{"name":"blue tarp","mesh":7,"translation":[0.9072,3.23,-1.6992],"rotation":[0,0,0.039989,0.9992],"scale":[2.3184,0.08,5.3808]},{"name":"satellite dish","mesh":8,"translation":[1.15,3.45,-2.4],"rotation":[0.5,0,0,0.866025],"scale":[0.62,0.16,0.62]},{"name":"surveyed lot","mesh":9,"translation":[0,0.06,0],"scale":[7.848,0.12,19.032]},{"name":"vinyl trailer","mesh":10,"translation":[0,1.55,0],"scale":[5.04,2.75,14.16]},{"name":"shallow roof","mesh":11,"translation":[0,3.04,0],"rotation":[0,0,-0.017499,0.999847],"scale":[5.34,0.28,14.51]},{"name":"front door","mesh":12,"translation":[-1.26,1.25,7.15],"scale":[0.95,2.05,0.12]},{"name":"window 1.8 0","mesh":13,"translation":[-1.68,1.8,7.155],"scale":[0.7,0.75,0.09]},{"name":"window 1.8 1","mesh":13,"translation":[-0.84,1.8,7.155],"scale":[0.7,0.75,0.09]},{"name":"window 1.8 2","mesh":13,"translation":[0,1.8,7.155],"scale":[0.7,0.75,0.09]},{"name":"window 1.8 3","mesh":13,"translation":[0.84,1.8,7.155],"scale":[0.7,0.75,0.09]},{"name":"window 1.8 4","mesh":13,"translation":[1.68,1.8,7.155],"scale":[0.7,0.75,0.09]},{"name":"post -2.22 0","mesh":14,"translation":[-2.22,0.675,8.08],"scale":[0.16,1.35,0.16]},{"name":"post -2.22 1","mesh":14,"translation":[0.3,0.675,8.08],"scale":[0.16,1.35,0.16]},{"name":"post -2.22 2","mesh":14,"translation":[2.82,0.675,8.08],"scale":[0.16,1.35,0.16]},{"name":"front steps","mesh":15,"translation":[-1.26,0.28,7.78],"scale":[1.7,0.56,1.05]},{"name":"blue tarp","mesh":16,"translation":[0.9072,3.23,-1.6992],"rotation":[0,0,0.039989,0.9992],"scale":[2.3184,0.08,5.3808]},{"name":"satellite dish","mesh":17,"translation":[1.15,3.45,-2.4],"rotation":[0.5,0,0,0.866025],"scale":[0.62,0.16,0.62]},{"name":"surveyed lot","mesh":9,"translation":[0,0.06,0],"scale":[7.848,0.12,19.032]},{"name":"vinyl trailer","mesh":10,"translation":[0,1.55,0],"scale":[5.04,2.75,14.16]},{"name":"shallow roof","mesh":11,"translation":[0,3.04,0],"rotation":[0,0,-0.017499,0.999847],"scale":[5.34,0.28,14.51]},{"name":"front door","mesh":12,"translation":[-1.26,1.25,7.15],"scale":[0.95,2.05,0.12]},{"name":"window 1.8 0","mesh":13,"translation":[-1.68,1.8,7.155],"scale":[0.7,0.75,0.09]},{"name":"window 1.8 1","mesh":13,"translation":[-0.84,1.8,7.155],"scale":[0.7,0.75,0.09]},{"name":"window 1.8 2","mesh":13,"translation":[0,1.8,7.155],"scale":[0.7,0.75,0.09]},{"name":"window 1.8 3","mesh":13,"translation":[0.84,1.8,7.155],"scale":[0.7,0.75,0.09]},{"name":"window 1.8 4","mesh":13,"translation":[1.68,1.8,7.155],"scale":[0.7,0.75,0.09]}],"meshes":[{"primitives":[{"attributes":{"POSITION":0,"NORMAL":1,"TEXCOORD_0":2},"material":0,"mode":4}]},{"primitives":[{"attributes":{"POSITION":0,"NORMAL":1,"TEXCOORD_0":3},"material":1,"mode":4}]},{"primitives":[{"attributes":{"POSITION":0,"NORMAL":1,"TEXCOORD_0":4},"material":2,"mode":4}]},{"primitives":[{"attributes":{"POSITION":0,"NORMAL":1,"TEXCOORD_0":5},"material":3,"mode":4}]},{"primitives":[{"attributes":{"POSITION":0,"NORMAL":1,"TEXCOORD_0":6},"material":4,"mode":4}]},{"primitives":[{"attributes":{"POSITION":0,"NORMAL":1,"TEXCOORD_0":7},"material":5,"mode":4}]},{"primitives":[{"attributes":{"POSITION":0,"NORMAL":1,"TEXCOORD_0":8},"material":6,"mode":4}]},{"primitives":[{"attributes":{"POSITION":0,"NORMAL":1,"TEXCOORD_0":9},"material":7,"mode":4}]},{"primitives":[{"attributes":{"POSITION":10,"NORMAL":11,"TEXCOORD_0":12},"material":8,"mode":4,"indices":13}]},{"primitives":[{"attributes":{"POSITION":14,"NORMAL":15,"TEXCOORD_0":16},"material":0,"mode":4,"indices":17}]},{"primitives":[{"attributes":{"POSITION":14,"NORMAL":15,"TEXCOORD_0":18},"material":1,"mode":4,"indices":17}]},{"primitives":[{"attributes":{"POSITION":14,"NORMAL":15,"TEXCOORD_0":19},"material":2,"mode":4,"indices":17}]},{"primitives":[{"attributes":{"POSITION":14,"NORMAL":15,"TEXCOORD_0":20},"material":3,"mode":4,"indices":17}]},{"primitives":[{"attributes":{"POSITION":14,"NORMAL":15,"TEXCOORD_0":21},"material":4,"mode":4,"indices":17}]},{"primitives":[{"attributes":{"POSITION":14,"NORMAL":15,"TEXCOORD_0":22},"material":5,"mode":4,"indices":17}]},{"primitives":[{"attributes":{"POSITION":14,"NORMAL":15,"TEXCOORD_0":23},"material":6,"mode":4,"indices":17}]},{"primitives":[{"attributes":{"POSITION":14,"NORMAL":15,"TEXCOORD_0":24},"material":7,"mode":4,"indices":17}]},{"primitives":[{"attributes":{"POSITION":25,"NORMAL":26,"TEXCOORD_0":27},"material":8,"mode":4,"indices":28}]}],"materials":[{"name":"concrete","pbrMetallicRoughness":{"baseColorTexture":{"index":0},"metallicRoughnessTexture":{"index":2},"roughnessFactor":1,"metallicFactor":1},"normalTexture":{"index":1,"scale":0.82},"occlusionTexture":{"index":2,"strength":0.35}},{"name":"paint-white","pbrMetallicRoughness":{"baseColorFactor":[0.7912979403281551,0.7681511472425809,0.6795424696265424,1],"roughnessFactor":0.68,"metallicFactor":0}},{"name":"roof-metal","pbrMetallicRoughness":{"baseColorTexture":{"index":3},"metallicRoughnessTexture":{"index":5},"roughnessFactor":1,"metallicFactor":1},"normalTexture":{"index":4,"scale":0.68},"occlusionTexture":{"index":5,"strength":0.35}},{"name":"paint-teal","pbrMetallicRoughness":{"baseColorFactor":[0.040915196900556984,0.20507873637973145,0.1878207722902346,1],"roughnessFactor":0.59,"metallicFactor":0.05}},{"name":"glass-blue","pbrMetallicRoughness":{"baseColorTexture":{"index":6},"metallicRoughnessTexture":{"index":8},"roughnessFactor":1,"metallicFactor":1},"normalTexture":{"index":7,"scale":0.12},"occlusionTexture":{"index":8,"strength":0.35}},{"name":"wood-painted","pbrMetallicRoughness":{"baseColorTexture":{"index":9},"metallicRoughnessTexture":{"index":11},"roughnessFactor":1,"metallicFactor":1},"normalTexture":{"index":10,"scale":0.55},"occlusionTexture":{"index":11,"strength":0.35}},{"name":"wood-oak","pbrMetallicRoughness":{"baseColorTexture":{"index":12},"metallicRoughnessTexture":{"index":14},"roughnessFactor":1,"metallicFactor":1},"normalTexture":{"index":13,"scale":1},"occlusionTexture":{"index":14,"strength":0.35}},{"name":"paint-blue","pbrMetallicRoughness":{"baseColorFactor":[0.05126945836711539,0.10946171076915331,0.22696587349938613,1],"roughnessFactor":0.58,"metallicFactor":0.05}},{"name":"metal-galvanized","pbrMetallicRoughness":{"baseColorTexture":{"index":15},"metallicRoughnessTexture":{"index":17},"roughnessFactor":1,"metallicFactor":1},"normalTexture":{"index":16,"scale":0.15},"occlusionTexture":{"index":17,"strength":0.35}}],"textures":[{"source":0,"sampler":0},{"source":1,"sampler":0},{"source":2,"sampler":0},{"source":3,"sampler":0},{"source":4,"sampler":0},{"source":5,"sampler":0},{"source":6,"sampler":0},{"source":7,"sampler":0},{"source":8,"sampler":0},{"source":9,"sampler":0},{"source":10,"sampler":0},{"source":11,"sampler":0},{"source":12,"sampler":0},{"source":13,"sampler":0},{"source":14,"sampler":0},{"source":15,"sampler":0},{"source":16,"sampler":0},{"source":17,"sampler":0}],"images":[{"uri":"../textures/concrete-albedo.png"},{"uri":"../textures/concrete-normal.png"},{"uri":"../textures/concrete-orm.png"},{"uri":"../textures/roof-metal-albedo.png"},{"uri":"../textures/roof-metal-normal.png"},{"uri":"../textures/roof-metal-orm.png"},{"uri":"../textures/glass-blue-albedo.png"},{"uri":"../textures/glass-blue-normal.png"},{"uri":"../textures/glass-blue-orm.png"},{"uri":"../textures/wood-painted-albedo.png"},{"uri":"../textures/wood-painted-normal.png"},{"uri":"../textures/wood-painted-orm.png"},{"uri":"../textures/wood-oak-albedo.png"},{"uri":"../textures/wood-oak-normal.png"},{"uri":"../textures/wood-oak-orm.png"},{"uri":"../textures/metal-galvanized-albedo.png"},{"uri":"../textures/metal-galvanized-normal.png"},{"uri":"../textures/metal-galvanized-orm.png"}],"samplers":[{"magFilter":9729,"minFilter":9987,"wrapS":10497,"wrapT":10497}],"buffers":[{"uri":"../shared/geometry.bin","byteLength":16435520}],"bufferViews":[{"buffer":0,"byteOffset":0,"byteLength":3888,"target":34962},{"buffer":0,"byteOffset":3888,"byteLength":3888,"target":34962},{"buffer":0,"byteOffset":13259592,"byteLength":2592,"target":34962},{"buffer":0,"byteOffset":13262184,"byteLength":2592,"target":34962},{"buffer":0,"byteOffset":13264776,"byteLength":2592,"target":34962},{"buffer":0,"byteOffset":4233264,"byteLength":2592,"target":34962},{"buffer":0,"byteOffset":4235856,"byteLength":2592,"target":34962},{"buffer":0,"byteOffset":4238448,"byteLength":2592,"target":34962},{"buffer":0,"byteOffset":4302864,"byteLength":2592,"target":34962},{"buffer":0,"byteOffset":13293000,"byteLength":2592,"target":34962},{"buffer":0,"byteOffset":13230248,"byteLength":912,"target":34962},{"buffer":0,"byteOffset":13231160,"byteLength":912,"target":34962},{"buffer":0,"byteOffset":13232072,"byteLength":608,"target":34962},{"buffer":0,"byteOffset":387284,"byteLength":288,"target":34963},{"buffer":0,"byteOffset":46644,"byteLength":288,"target":34962},{"buffer":0,"byteOffset":45952,"byteLength":288,"target":34962},{"buffer":0,"byteOffset":13267368,"byteLength":192,"target":34962},{"buffer":0,"byteOffset":46432,"byteLength":72,"target":34963},{"buffer":0,"byteOffset":13267560,"byteLength":192,"target":34962},{"buffer":0,"byteOffset":13267752,"byteLength":192,"target":34962},{"buffer":0,"byteOffset":4251984,"byteLength":192,"target":34962},{"buffer":0,"byteOffset":4252176,"byteLength":192,"target":34962},{"buffer":0,"byteOffset":4252368,"byteLength":192,"target":34962},{"buffer":0,"byteOffset":4308624,"byteLength":192,"target":34962},{"buffer":0,"byteOffset":13295592,"byteLength":192,"target":34962},{"buffer":0,"byteOffset":13233256,"byteLength":480,"target":34962},{"buffer":0,"byteOffset":13233736,"byteLength":480,"target":34962},{"buffer":0,"byteOffset":13234216,"byteLength":320,"target":34962},{"buffer":0,"byteOffset":48596,"byteLength":144,"target":34963}],"accessors":[{"bufferView":0,"componentType":5126,"count":324,"type":"VEC3","min":[-0.5,-0.5,-0.5],"max":[0.5,0.5,0.5]},{"bufferView":1,"componentType":5126,"count":324,"type":"VEC3"},{"bufferView":2,"componentType":5126,"count":324,"type":"VEC2"},{"bufferView":3,"componentType":5126,"count":324,"type":"VEC2"},{"bufferView":4,"componentType":5126,"count":324,"type":"VEC2"},{"bufferView":5,"componentType":5126,"count":324,"type":"VEC2"},{"bufferView":6,"componentType":5126,"count":324,"type":"VEC2"},{"bufferView":7,"componentType":5126,"count":324,"type":"VEC2"},{"bufferView":8,"componentType":5126,"count":324,"type":"VEC2"},{"bufferView":9,"componentType":5126,"count":324,"type":"VEC2"},{"bufferView":10,"componentType":5126,"count":76,"type":"VEC3","min":[-1,-0.5,-1],"max":[1,0.5,1]},{"bufferView":11,"componentType":5126,"count":76,"type":"VEC3"},{"bufferView":12,"componentType":5126,"count":76,"type":"VEC2"},{"bufferView":13,"componentType":5123,"count":144,"type":"SCALAR"},{"bufferView":14,"componentType":5126,"count":24,"type":"VEC3","min":[-0.5,-0.5,-0.5],"max":[0.5,0.5,0.5]},{"bufferView":15,"componentType":5126,"count":24,"type":"VEC3"},{"bufferView":16,"componentType":5126,"count":24,"type":"VEC2"},{"bufferView":17,"componentType":5123,"count":36,"type":"SCALAR"},{"bufferView":18,"componentType":5126,"count":24,"type":"VEC2"},{"bufferView":19,"componentType":5126,"count":24,"type":"VEC2"},{"bufferView":20,"componentType":5126,"count":24,"type":"VEC2"},{"bufferView":21,"componentType":5126,"count":24,"type":"VEC2"},{"bufferView":22,"componentType":5126,"count":24,"type":"VEC2"},{"bufferView":23,"componentType":5126,"count":24,"type":"VEC2"},{"bufferView":24,"componentType":5126,"count":24,"type":"VEC2"},{"bufferView":25,"componentType":5126,"count":40,"type":"VEC3","min":[-0.8660253882408142,-0.5,-1],"max":[0.8660253882408142,0.5,1]},{"bufferView":26,"componentType":5126,"count":40,"type":"VEC3"},{"bufferView":27,"componentType":5126,"count":40,"type":"VEC2"},{"bufferView":28,"componentType":5123,"count":72,"type":"SCALAR"}],"extensionsUsed":["KHR_materials_unlit"],"extras":{"id":"vlt-single-wide-25","family":"single-wide","variant":24,"plan":"A5-2","units":"metres","up":"+Y","front":"+Z","lodScenes":[0,1,2]}}