{"asset":{"version":"2.0","generator":"SLOPMERICA Department of Unnecessary Development 1.0"},"scene":0,"scenes":[{"name":"LOD 0","nodes":[0,1,2,3,4,5,6,7,8,9,10,11,12,13,14,15,16,17,18,19,20,21,22,23,24,25,26,27,28,29,30,31,32,33,34,35,36,37,38,39,40,41,42,43,44,45,46,47,48,49,50,51,52,53,54,55,56,57,58,59,60,61,62,63,64,65,66,67],"extras":{"level":0}},{"name":"LOD 1","nodes":[68,69,70,71,72,73,74,75,76,77,78,79,80,81,82,83,84,85,86,87,88,89,90,91,92,93,94,95,96,97,98,99,100,101,102,103,104,105],"extras":{"level":1}},{"name":"LOD 2","nodes":[106,107,108,109,110,111,112,113,114,115,116,117,118,119,120,121],"extras":{"level":2}}],"nodes":[{"name":"site-pad","mesh":0,"translation":[0,0.06,0],"scale":[30.2848,0.12,20.9664]},{"name":"variant-apron","mesh":1,"translation":[5.6784,0.13,10.3],"scale":[8.5904,0.08,1.34]},{"name":"bollard-0","mesh":2,"translation":[-11.0656,0.43,10.42],"scale":[0.08,0.74,0.08]},{"name":"bollard-1","mesh":2,"translation":[-3.688533,0.43,10.42],"scale":[0.08,0.74,0.08]},{"name":"bollard-2","mesh":2,"translation":[3.688533,0.43,10.42],"scale":[0.08,0.74,0.08]},{"name":"bollard-3","mesh":2,"translation":[11.0656,0.43,10.42],"scale":[0.08,0.74,0.08]},{"name":"layout-cabinet","mesh":3,"translation":[14.76,0.585,4.536],"scale":[0.81,0.93,0.32]},{"name":"deferred-maintenance-skip","mesh":4,"translation":[-9.9008,0.5,-8.8704],"scale":[1.51,0.75,0.65]},{"name":"skip-rubble","mesh":5,"translation":[-9.9008,0.98,-8.8704],"rotation":[0,0.29552,0,0.955336],"scale":[0.72,0.2,0.5]},{"name":"parking-field","mesh":6,"translation":[0,0.2,0],"scale":[29.12,0.12,20.16]},{"name":"stripe-0-0","mesh":7,"translation":[-11.648,0.275,-7.2576],"rotation":[0,0.049979,0,0.99875],"scale":[0.07,0.025,2.7]},{"name":"stripe-0-1","mesh":7,"translation":[-8.32,0.275,-7.2576],"rotation":[0,0.049979,0,0.99875],"scale":[0.07,0.025,2.7]},{"name":"stripe-0-2","mesh":7,"translation":[-4.992,0.275,-7.2576],"rotation":[0,0.049979,0,0.99875],"scale":[0.07,0.025,2.7]},{"name":"stripe-0-3","mesh":7,"translation":[-1.664,0.275,-7.2576],"rotation":[0,0.049979,0,0.99875],"scale":[0.07,0.025,2.7]},{"name":"stripe-0-4","mesh":7,"translation":[1.664,0.275,-7.2576],"rotation":[0,0.049979,0,0.99875],"scale":[0.07,0.025,2.7]},{"name":"stripe-0-5","mesh":7,"translation":[4.992,0.275,-7.2576],"rotation":[0,0.049979,0,0.99875],"scale":[0.07,0.025,2.7]},{"name":"stripe-0-6","mesh":7,"translation":[8.32,0.275,-7.2576],"rotation":[0,0.049979,0,0.99875],"scale":[0.07,0.025,2.7]},{"name":"stripe-0-7","mesh":7,"translation":[11.648,0.275,-7.2576],"rotation":[0,0.049979,0,0.99875],"scale":[0.07,0.025,2.7]},{"name":"stripe-1-0","mesh":7,"translation":[-11.648,0.275,-4.35456],"rotation":[0,0.049979,0,0.99875],"scale":[0.07,0.025,2.7]},{"name":"stripe-1-1","mesh":7,"translation":[-8.32,0.275,-4.35456],"rotation":[0,0.049979,0,0.99875],"scale":[0.07,0.025,2.7]},{"name":"stripe-1-2","mesh":7,"translation":[-4.992,0.275,-4.35456],"rotation":[0,0.049979,0,0.99875],"scale":[0.07,0.025,2.7]},{"name":"stripe-1-3","mesh":7,"translation":[-1.664,0.275,-4.35456],"rotation":[0,0.049979,0,0.99875],"scale":[0.07,0.025,2.7]},{"name":"stripe-1-4","mesh":7,"translation":[1.664,0.275,-4.35456],"rotation":[0,0.049979,0,0.99875],"scale":[0.07,0.025,2.7]},{"name":"stripe-1-5","mesh":7,"translation":[4.992,0.275,-4.35456],"rotation":[0,0.049979,0,0.99875],"scale":[0.07,0.025,2.7]},{"name":"stripe-1-6","mesh":7,"translation":[8.32,0.275,-4.35456],"rotation":[0,0.049979,0,0.99875],"scale":[0.07,0.025,2.7]},{"name":"stripe-1-7","mesh":7,"translation":[11.648,0.275,-4.35456],"rotation":[0,0.049979,0,0.99875],"scale":[0.07,0.025,2.7]},{"name":"stripe-2-0","mesh":7,"translation":[-11.648,0.275,-1.45152],"rotation":[0,0.049979,0,0.99875],"scale":[0.07,0.025,2.7]},{"name":"stripe-2-1","mesh":7,"translation":[-8.32,0.275,-1.45152],"rotation":[0,0.049979,0,0.99875],"scale":[0.07,0.025,2.7]},{"name":"stripe-2-2","mesh":7,"translation":[-4.992,0.275,-1.45152],"rotation":[0,0.049979,0,0.99875],"scale":[0.07,0.025,2.7]},{"name":"stripe-2-3","mesh":7,"translation":[-1.664,0.275,-1.45152],"rotation":[0,0.049979,0,0.99875],"scale":[0.07,0.025,2.7]},{"name":"stripe-2-4","mesh":7,"translation":[1.664,0.275,-1.45152],"rotation":[0,0.049979,0,0.99875],"scale":[0.07,0.025,2.7]},{"name":"stripe-2-5","mesh":7,"translation":[4.992,0.275,-1.45152],"rotation":[0,0.049979,0,0.99875],"scale":[0.07,0.025,2.7]},{"name":"stripe-2-6","mesh":7,"translation":[8.32,0.275,-1.45152],"rotation":[0,0.049979,0,0.99875],"scale":[0.07,0.025,2.7]},{"name":"stripe-2-7","mesh":7,"translation":[11.648,0.275,-1.45152],"rotation":[0,0.049979,0,0.99875],"scale":[0.07,0.025,2.7]},{"name":"stripe-3-0","mesh":7,"translation":[-11.648,0.275,1.45152],"rotation":[0,0.049979,0,0.99875],"scale":[0.07,0.025,2.7]},{"name":"stripe-3-1","mesh":7,"translation":[-8.32,0.275,1.45152],"rotation":[0,0.049979,0,0.99875],"scale":[0.07,0.025,2.7]},{"name":"stripe-3-2","mesh":7,"translation":[-4.992,0.275,1.45152],"rotation":[0,0.049979,0,0.99875],"scale":[0.07,0.025,2.7]},{"name":"stripe-3-3","mesh":7,"translation":[-1.664,0.275,1.45152],"rotation":[0,0.049979,0,0.99875],"scale":[0.07,0.025,2.7]},{"name":"stripe-3-4","mesh":7,"translation":[1.664,0.275,1.45152],"rotation":[0,0.049979,0,0.99875],"scale":[0.07,0.025,2.7]},{"name":"stripe-3-5","mesh":7,"translation":[4.992,0.275,1.45152],"rotation":[0,0.049979,0,0.99875],"scale":[0.07,0.025,2.7]},{"name":"stripe-3-6","mesh":7,"translation":[8.32,0.275,1.45152],"rotation":[0,0.049979,0,0.99875],"scale":[0.07,0.025,2.7]},{"name":"stripe-3-7","mesh":7,"translation":[11.648,0.275,1.45152],"rotation":[0,0.049979,0,0.99875],"scale":[0.07,0.025,2.7]},{"name":"stripe-4-0","mesh":7,"translation":[-11.648,0.275,4.35456],"rotation":[0,0.049979,0,0.99875],"scale":[0.07,0.025,2.7]},{"name":"stripe-4-1","mesh":7,"translation":[-8.32,0.275,4.35456],"rotation":[0,0.049979,0,0.99875],"scale":[0.07,0.025,2.7]},{"name":"stripe-4-2","mesh":7,"translation":[-4.992,0.275,4.35456],"rotation":[0,0.049979,0,0.99875],"scale":[0.07,0.025,2.7]},{"name":"stripe-4-3","mesh":7,"translation":[-1.664,0.275,4.35456],"rotation":[0,0.049979,0,0.99875],"scale":[0.07,0.025,2.7]},{"name":"stripe-4-4","mesh":7,"translation":[1.664,0.275,4.35456],"rotation":[0,0.049979,0,0.99875],"scale":[0.07,0.025,2.7]},{"name":"stripe-4-5","mesh":7,"translation":[4.992,0.275,4.35456],"rotation":[0,0.049979,0,0.99875],"scale":[0.07,0.025,2.7]},{"name":"stripe-4-6","mesh":7,"translation":[8.32,0.275,4.35456],"rotation":[0,0.049979,0,0.99875],"scale":[0.07,0.025,2.7]},{"name":"stripe-4-7","mesh":7,"translation":[11.648,0.275,4.35456],"rotation":[0,0.049979,0,0.99875],"scale":[0.07,0.025,2.7]},{"name":"stripe-5-0","mesh":7,"translation":[-11.648,0.275,7.2576],"rotation":[0,0.049979,0,0.99875],"scale":[0.07,0.025,2.7]},{"name":"stripe-5-1","mesh":7,"translation":[-8.32,0.275,7.2576],"rotation":[0,0.049979,0,0.99875],"scale":[0.07,0.025,2.7]},{"name":"stripe-5-2","mesh":7,"translation":[-4.992,0.275,7.2576],"rotation":[0,0.049979,0,0.99875],"scale":[0.07,0.025,2.7]},{"name":"stripe-5-3","mesh":7,"translation":[-1.664,0.275,7.2576],"rotation":[0,0.049979,0,0.99875],"scale":[0.07,0.025,2.7]},{"name":"stripe-5-4","mesh":7,"translation":[1.664,0.275,7.2576],"rotation":[0,0.049979,0,0.99875],"scale":[0.07,0.025,2.7]},{"name":"stripe-5-5","mesh":7,"translation":[4.992,0.275,7.2576],"rotation":[0,0.049979,0,0.99875],"scale":[0.07,0.025,2.7]},{"name":"stripe-5-6","mesh":7,"translation":[8.32,0.275,7.2576],"rotation":[0,0.049979,0,0.99875],"scale":[0.07,0.025,2.7]},{"name":"stripe-5-7","mesh":7,"translation":[11.648,0.275,7.2576],"rotation":[0,0.049979,0,0.99875],"scale":[0.07,0.025,2.7]},{"name":"light-pole-0","mesh":8,"translation":[-10.192,3.07,0],"scale":[0.12,5.9,0.12]},{"name":"light-head-0","mesh":9,"translation":[-10.192,6.25,0],"scale":[1,0.18,0.28]},{"name":"light-pole-1","mesh":8,"translation":[-3.397333,3.07,0],"scale":[0.12,5.9,0.12]},{"name":"light-head-1","mesh":9,"translation":[-3.397333,6.25,0],"scale":[1,0.18,0.28]},{"name":"light-pole-2","mesh":8,"translation":[3.397333,3.07,0],"scale":[0.12,5.9,0.12]},{"name":"light-head-2","mesh":9,"translation":[3.397333,6.25,0],"scale":[1,0.18,0.28]},{"name":"light-pole-3","mesh":8,"translation":[10.192,3.07,0],"scale":[0.12,5.9,0.12]},{"name":"light-head-3","mesh":9,"translation":[10.192,6.25,0],"scale":[1,0.18,0.28]},{"name":"minimum-sign-back","mesh":10,"translation":[8.1536,2,10.28],"scale":[3.9,1.1,1]},{"name":"minimum-sign","mesh":11,"translation":[8.1536,2,10.309],"scale":[3.8,1,1]},{"name":"site-pad","mesh":12,"translation":[0,0.06,0],"scale":[30.2848,0.12,20.9664]},{"name":"variant-apron","mesh":13,"translation":[5.6784,0.13,10.3],"scale":[8.5904,0.08,1.34]},{"name":"bollard-0","mesh":14,"translation":[-11.0656,0.43,10.42],"scale":[0.08,0.74,0.08]},{"name":"bollard-1","mesh":14,"translation":[-3.688533,0.43,10.42],"scale":[0.08,0.74,0.08]},{"name":"bollard-2","mesh":14,"translation":[3.688533,0.43,10.42],"scale":[0.08,0.74,0.08]},{"name":"bollard-3","mesh":14,"translation":[11.0656,0.43,10.42],"scale":[0.08,0.74,0.08]},{"name":"layout-cabinet","mesh":15,"translation":[14.76,0.585,4.536],"scale":[0.81,0.93,0.32]},{"name":"deferred-maintenance-skip","mesh":16,"translation":[-9.9008,0.5,-8.8704],"scale":[1.51,0.75,0.65]},{"name":"skip-rubble","mesh":17,"translation":[-9.9008,0.98,-8.8704],"rotation":[0,0.29552,0,0.955336],"scale":[0.72,0.2,0.5]},{"name":"parking-field","mesh":18,"translation":[0,0.2,0],"scale":[29.12,0.12,20.16]},{"name":"stripe-0-0","mesh":19,"translation":[-11.648,0.275,-7.2576],"rotation":[0,0.049979,0,0.99875],"scale":[0.07,0.025,2.7]},{"name":"stripe-0-1","mesh":19,"translation":[0,0.275,-7.2576],"rotation":[0,0.049979,0,0.99875],"scale":[0.07,0.025,2.7]},{"name":"stripe-0-2","mesh":19,"translation":[11.648,0.275,-7.2576],"rotation":[0,0.049979,0,0.99875],"scale":[0.07,0.025,2.7]},{"name":"stripe-1-0","mesh":19,"translation":[-11.648,0.275,-4.35456],"rotation":[0,0.049979,0,0.99875],"scale":[0.07,0.025,2.7]},{"name":"stripe-1-1","mesh":19,"translation":[0,0.275,-4.35456],"rotation":[0,0.049979,0,0.99875],"scale":[0.07,0.025,2.7]},{"name":"stripe-1-2","mesh":19,"translation":[11.648,0.275,-4.35456],"rotation":[0,0.049979,0,0.99875],"scale":[0.07,0.025,2.7]},{"name":"stripe-2-0","mesh":19,"translation":[-11.648,0.275,-1.45152],"rotation":[0,0.049979,0,0.99875],"scale":[0.07,0.025,2.7]},{"name":"stripe-2-1","mesh":19,"translation":[0,0.275,-1.45152],"rotation":[0,0.049979,0,0.99875],"scale":[0.07,0.025,2.7]},{"name":"stripe-2-2","mesh":19,"translation":[11.648,0.275,-1.45152],"rotation":[0,0.049979,0,0.99875],"scale":[0.07,0.025,2.7]},{"name":"stripe-3-0","mesh":19,"translation":[-11.648,0.275,1.45152],"rotation":[0,0.049979,0,0.99875],"scale":[0.07,0.025,2.7]},{"name":"stripe-3-1","mesh":19,"translation":[0,0.275,1.45152],"rotation":[0,0.049979,0,0.99875],"scale":[0.07,0.025,2.7]},{"name":"stripe-3-2","mesh":19,"translation":[11.648,0.275,1.45152],"rotation":[0,0.049979,0,0.99875],"scale":[0.07,0.025,2.7]},{"name":"stripe-4-0","mesh":19,"translation":[-11.648,0.275,4.35456],"rotation":[0,0.049979,0,0.99875],"scale":[0.07,0.025,2.7]},{"name":"stripe-4-1","mesh":19,"translation":[0,0.275,4.35456],"rotation":[0,0.049979,0,0.99875],"scale":[0.07,0.025,2.7]},{"name":"stripe-4-2","mesh":19,"translation":[11.648,0.275,4.35456],"rotation":[0,0.049979,0,0.99875],"scale":[0.07,0.025,2.7]},{"name":"stripe-5-0","mesh":19,"translation":[-11.648,0.275,7.2576],"rotation":[0,0.049979,0,0.99875],"scale":[0.07,0.025,2.7]},{"name":"stripe-5-1","mesh":19,"translation":[0,0.275,7.2576],"rotation":[0,0.049979,0,0.99875],"scale":[0.07,0.025,2.7]},{"name":"stripe-5-2","mesh":19,"translation":[11.648,0.275,7.2576],"rotation":[0,0.049979,0,0.99875],"scale":[0.07,0.025,2.7]},{"name":"light-pole-0","mesh":20,"translation":[-10.192,3.07,0],"scale":[0.12,5.9,0.12]},{"name":"light-head-0","mesh":21,"translation":[-10.192,6.25,0],"scale":[1,0.18,0.28]},{"name":"light-pole-1","mesh":20,"translation":[-3.397333,3.07,0],"scale":[0.12,5.9,0.12]},{"name":"light-head-1","mesh":21,"translation":[-3.397333,6.25,0],"scale":[1,0.18,0.28]},{"name":"light-pole-2","mesh":20,"translation":[3.397333,3.07,0],"scale":[0.12,5.9,0.12]},{"name":"light-head-2","mesh":21,"translation":[3.397333,6.25,0],"scale":[1,0.18,0.28]},{"name":"light-pole-3","mesh":20,"translation":[10.192,3.07,0],"scale":[0.12,5.9,0.12]},{"name":"light-head-3","mesh":21,"translation":[10.192,6.25,0],"scale":[1,0.18,0.28]},{"name":"minimum-sign-back","mesh":10,"translation":[8.1536,2,10.28],"scale":[3.9,1.1,1]},{"name":"minimum-sign","mesh":11,"translation":[8.1536,2,10.309],"scale":[3.8,1,1]},{"name":"site-pad","mesh":12,"translation":[0,0.06,0],"scale":[30.2848,0.12,20.9664]},{"name":"variant-apron","mesh":13,"translation":[5.6784,0.13,10.3],"scale":[8.5904,0.08,1.34]},{"name":"bollard-0","mesh":14,"translation":[-11.0656,0.43,10.42],"scale":[0.08,0.74,0.08]},{"name":"layout-cabinet","mesh":15,"translation":[14.76,0.585,4.536],"scale":[0.81,0.93,0.32]},{"name":"deferred-maintenance-skip","mesh":16,"translation":[-9.9008,0.5,-8.8704],"scale":[1.51,0.75,0.65]},{"name":"parking-field","mesh":18,"translation":[0,0.2,0],"scale":[29.12,0.12,20.16]},{"name":"stripe-0-0","mesh":19,"translation":[-11.648,0.275,-7.2576],"rotation":[0,0.049979,0,0.99875],"scale":[0.07,0.025,2.7]},{"name":"stripe-0-1","mesh":19,"translation":[0,0.275,-7.2576],"rotation":[0,0.049979,0,0.99875],"scale":[0.07,0.025,2.7]},{"name":"stripe-0-2","mesh":19,"translation":[11.648,0.275,-7.2576],"rotation":[0,0.049979,0,0.99875],"scale":[0.07,0.025,2.7]},{"name":"stripe-1-0","mesh":19,"translation":[-11.648,0.275,7.2576],"rotation":[0,0.049979,0,0.99875],"scale":[0.07,0.025,2.7]},{"name":"stripe-1-1","mesh":19,"translation":[0,0.275,7.2576],"rotation":[0,0.049979,0,0.99875],"scale":[0.07,0.025,2.7]},{"name":"stripe-1-2","mesh":19,"translation":[11.648,0.275,7.2576],"rotation":[0,0.049979,0,0.99875],"scale":[0.07,0.025,2.7]},{"name":"light-pole-0","mesh":20,"translation":[-10.192,3.07,0],"scale":[0.12,5.9,0.12]},{"name":"light-head-0","mesh":21,"translation":[-10.192,6.25,0],"scale":[1,0.18,0.28]},{"name":"minimum-sign-back","mesh":10,"translation":[8.1536,2,10.28],"scale":[3.9,1.1,1]},{"name":"minimum-sign","mesh":11,"translation":[8.1536,2,10.309],"scale":[3.8,1,1]}],"meshes":[{"primitives":[{"attributes":{"POSITION":0,"NORMAL":1,"TEXCOORD_0":2},"material":0,"mode":4}]},{"primitives":[{"attributes":{"POSITION":0,"NORMAL":1,"TEXCOORD_0":3},"material":0,"mode":4}]},{"primitives":[{"attributes":{"POSITION":4,"NORMAL":5,"TEXCOORD_0":6},"material":1,"mode":4,"indices":7}]},{"primitives":[{"attributes":{"POSITION":0,"NORMAL":1,"TEXCOORD_0":8},"material":2,"mode":4}]},{"primitives":[{"attributes":{"POSITION":0,"NORMAL":1,"TEXCOORD_0":9},"material":1,"mode":4}]},{"primitives":[{"attributes":{"POSITION":0,"NORMAL":1,"TEXCOORD_0":10},"material":3,"mode":4}]},{"primitives":[{"attributes":{"POSITION":0,"NORMAL":1,"TEXCOORD_0":11},"material":0,"mode":4}]},{"primitives":[{"attributes":{"POSITION":0,"NORMAL":1,"TEXCOORD_0":12},"material":4,"mode":4}]},{"primitives":[{"attributes":{"POSITION":13,"NORMAL":14,"TEXCOORD_0":15},"material":5,"mode":4,"indices":7}]},{"primitives":[{"attributes":{"POSITION":0,"NORMAL":1,"TEXCOORD_0":16},"material":4,"mode":4}]},{"primitives":[{"attributes":{"POSITION":17,"NORMAL":18,"TEXCOORD_0":19},"material":5,"mode":4,"indices":20}]},{"primitives":[{"attributes":{"POSITION":21,"NORMAL":22,"TEXCOORD_0":23},"material":6,"mode":4,"indices":24}]},{"primitives":[{"attributes":{"POSITION":25,"NORMAL":18,"TEXCOORD_0":26},"material":0,"mode":4,"indices":20}]},{"primitives":[{"attributes":{"POSITION":25,"NORMAL":18,"TEXCOORD_0":27},"material":0,"mode":4,"indices":20}]},{"primitives":[{"attributes":{"POSITION":28,"NORMAL":29,"TEXCOORD_0":30},"material":1,"mode":4,"indices":31}]},{"primitives":[{"attributes":{"POSITION":25,"NORMAL":18,"TEXCOORD_0":32},"material":2,"mode":4,"indices":20}]},{"primitives":[{"attributes":{"POSITION":25,"NORMAL":18,"TEXCOORD_0":33},"material":1,"mode":4,"indices":20}]},{"primitives":[{"attributes":{"POSITION":25,"NORMAL":18,"TEXCOORD_0":34},"material":3,"mode":4,"indices":20}]},{"primitives":[{"attributes":{"POSITION":25,"NORMAL":18,"TEXCOORD_0":35},"material":0,"mode":4,"indices":20}]},{"primitives":[{"attributes":{"POSITION":25,"NORMAL":18,"TEXCOORD_0":36},"material":4,"mode":4,"indices":20}]},{"primitives":[{"attributes":{"POSITION":37,"NORMAL":38,"TEXCOORD_0":39},"material":5,"mode":4,"indices":31}]},{"primitives":[{"attributes":{"POSITION":25,"NORMAL":18,"TEXCOORD_0":40},"material":4,"mode":4,"indices":20}]}],"materials":[{"name":"asphalt","pbrMetallicRoughness":{"baseColorTexture":{"index":0},"metallicRoughnessTexture":{"index":2},"roughnessFactor":1,"metallicFactor":1},"normalTexture":{"index":1,"scale":0.62},"occlusionTexture":{"index":2,"strength":0.35}},{"name":"paint-orange","pbrMetallicRoughness":{"baseColorFactor":[0.6444796819634361,0.1878207722902346,0.040915196900556984,1],"roughnessFactor":0.68,"metallicFactor":0.03}},{"name":"metal-galvanized","pbrMetallicRoughness":{"baseColorTexture":{"index":3},"metallicRoughnessTexture":{"index":5},"roughnessFactor":1,"metallicFactor":1},"normalTexture":{"index":4,"scale":0.15},"occlusionTexture":{"index":5,"strength":0.35}},{"name":"concrete","pbrMetallicRoughness":{"baseColorTexture":{"index":6},"metallicRoughnessTexture":{"index":8},"roughnessFactor":1,"metallicFactor":1},"normalTexture":{"index":7,"scale":0.82},"occlusionTexture":{"index":8,"strength":0.35}},{"name":"paint-white","pbrMetallicRoughness":{"baseColorFactor":[0.7912979403281551,0.7681511472425809,0.6795424696265424,1],"roughnessFactor":0.68,"metallicFactor":0}},{"name":"metal-dark","pbrMetallicRoughness":{"baseColorTexture":{"index":9},"metallicRoughnessTexture":{"index":11},"roughnessFactor":1,"metallicFactor":1},"normalTexture":{"index":10,"scale":0.35},"occlusionTexture":{"index":11,"strength":0.35}},{"name":"surface-parking-empire signage","pbrMetallicRoughness":{"baseColorTexture":{"index":12},"roughnessFactor":1,"metallicFactor":0},"extensions":{"KHR_materials_unlit":{}}}],"textures":[{"source":0,"sampler":0},{"source":1,"sampler":0},{"source":2,"sampler":0},{"source":3,"sampler":0},{"source":4,"sampler":0},{"source":5,"sampler":0},{"source":6,"sampler":0},{"source":7,"sampler":0},{"source":8,"sampler":0},{"source":9,"sampler":0},{"source":10,"sampler":0},{"source":11,"sampler":0},{"source":12,"sampler":0}],"images":[{"uri":"../textures/asphalt-albedo.png"},{"uri":"../textures/asphalt-normal.png"},{"uri":"../textures/asphalt-orm.png"},{"uri":"../textures/metal-galvanized-albedo.png"},{"uri":"../textures/metal-galvanized-normal.png"},{"uri":"../textures/metal-galvanized-orm.png"},{"uri":"../textures/concrete-albedo.png"},{"uri":"../textures/concrete-normal.png"},{"uri":"../textures/concrete-orm.png"},{"uri":"../textures/metal-dark-albedo.png"},{"uri":"../textures/metal-dark-normal.png"},{"uri":"../textures/metal-dark-orm.png"},{"uri":"../signs/surface-parking-empire.png"}],"samplers":[{"magFilter":9729,"minFilter":9987,"wrapS":10497,"wrapT":10497}],"buffers":[{"uri":"../shared/geometry.bin","byteLength":16435520}],"bufferViews":[{"buffer":0,"byteOffset":0,"byteLength":3888,"target":34962},{"buffer":0,"byteOffset":3888,"byteLength":3888,"target":34962},{"buffer":0,"byteOffset":14269732,"byteLength":2592,"target":34962},{"buffer":0,"byteOffset":14272324,"byteLength":2592,"target":34962},{"buffer":0,"byteOffset":12960,"byteLength":1200,"target":34962},{"buffer":0,"byteOffset":14160,"byteLength":1200,"target":34962},{"buffer":0,"byteOffset":179140,"byteLength":800,"target":34962},{"buffer":0,"byteOffset":16160,"byteLength":384,"target":34963},{"buffer":0,"byteOffset":197060,"byteLength":2592,"target":34962},{"buffer":0,"byteOffset":216900,"byteLength":2592,"target":34962},{"buffer":0,"byteOffset":208260,"byteLength":2592,"target":34962},{"buffer":0,"byteOffset":14274916,"byteLength":2592,"target":34962},{"buffer":0,"byteOffset":14122500,"byteLength":2592,"target":34962},{"buffer":0,"byteOffset":14125092,"byteLength":1200,"target":34962},{"buffer":0,"byteOffset":14126292,"byteLength":1200,"target":34962},{"buffer":0,"byteOffset":14251524,"byteLength":800,"target":34962},{"buffer":0,"byteOffset":14128292,"byteLength":2592,"target":34962},{"buffer":0,"byteOffset":45664,"byteLength":288,"target":34962},{"buffer":0,"byteOffset":45952,"byteLength":288,"target":34962},{"buffer":0,"byteOffset":46240,"byteLength":192,"target":34962},{"buffer":0,"byteOffset":46432,"byteLength":72,"target":34963},{"buffer":0,"byteOffset":46504,"byteLength":48,"target":34962},{"buffer":0,"byteOffset":46552,"byteLength":48,"target":34962},{"buffer":0,"byteOffset":222948,"byteLength":32,"target":34962},{"buffer":0,"byteOffset":46632,"byteLength":12,"target":34963},{"buffer":0,"byteOffset":46644,"byteLength":288,"target":34962},{"buffer":0,"byteOffset":14277508,"byteLength":192,"target":34962},{"buffer":0,"byteOffset":14277700,"byteLength":192,"target":34962},{"buffer":0,"byteOffset":47316,"byteLength":480,"target":34962},{"buffer":0,"byteOffset":47796,"byteLength":480,"target":34962},{"buffer":0,"byteOffset":182756,"byteLength":320,"target":34962},{"buffer":0,"byteOffset":48596,"byteLength":144,"target":34963},{"buffer":0,"byteOffset":199876,"byteLength":192,"target":34962},{"buffer":0,"byteOffset":219524,"byteLength":192,"target":34962},{"buffer":0,"byteOffset":211076,"byteLength":192,"target":34962},{"buffer":0,"byteOffset":14277892,"byteLength":192,"target":34962},{"buffer":0,"byteOffset":14131076,"byteLength":192,"target":34962},{"buffer":0,"byteOffset":14131268,"byteLength":480,"target":34962},{"buffer":0,"byteOffset":14131748,"byteLength":480,"target":34962},{"buffer":0,"byteOffset":14252708,"byteLength":320,"target":34962},{"buffer":0,"byteOffset":14132548,"byteLength":192,"target":34962}],"accessors":[{"bufferView":0,"componentType":5126,"count":324,"type":"VEC3","min":[-0.5,-0.5,-0.5],"max":[0.5,0.5,0.5]},{"bufferView":1,"componentType":5126,"count":324,"type":"VEC3"},{"bufferView":2,"componentType":5126,"count":324,"type":"VEC2"},{"bufferView":3,"componentType":5126,"count":324,"type":"VEC2"},{"bufferView":4,"componentType":5126,"count":100,"type":"VEC3","min":[-1,-0.5,-1],"max":[1,0.5,1]},{"bufferView":5,"componentType":5126,"count":100,"type":"VEC3"},{"bufferView":6,"componentType":5126,"count":100,"type":"VEC2"},{"bufferView":7,"componentType":5123,"count":192,"type":"SCALAR"},{"bufferView":8,"componentType":5126,"count":324,"type":"VEC2"},{"bufferView":9,"componentType":5126,"count":324,"type":"VEC2"},{"bufferView":10,"componentType":5126,"count":324,"type":"VEC2"},{"bufferView":11,"componentType":5126,"count":324,"type":"VEC2"},{"bufferView":12,"componentType":5126,"count":324,"type":"VEC2"},{"bufferView":13,"componentType":5126,"count":100,"type":"VEC3","min":[-1,-0.5,-1],"max":[1,0.5,1]},{"bufferView":14,"componentType":5126,"count":100,"type":"VEC3"},{"bufferView":15,"componentType":5126,"count":100,"type":"VEC2"},{"bufferView":16,"componentType":5126,"count":324,"type":"VEC2"},{"bufferView":17,"componentType":5126,"count":24,"type":"VEC3","min":[-0.5,-0.5,-0.02500000037252903],"max":[0.5,0.5,0.02500000037252903]},{"bufferView":18,"componentType":5126,"count":24,"type":"VEC3"},{"bufferView":19,"componentType":5126,"count":24,"type":"VEC2"},{"bufferView":20,"componentType":5123,"count":36,"type":"SCALAR"},{"bufferView":21,"componentType":5126,"count":4,"type":"VEC3","min":[-0.5,-0.5,0],"max":[0.5,0.5,0]},{"bufferView":22,"componentType":5126,"count":4,"type":"VEC3"},{"bufferView":23,"componentType":5126,"count":4,"type":"VEC2"},{"bufferView":24,"componentType":5123,"count":6,"type":"SCALAR"},{"bufferView":25,"componentType":5126,"count":24,"type":"VEC3","min":[-0.5,-0.5,-0.5],"max":[0.5,0.5,0.5]},{"bufferView":26,"componentType":5126,"count":24,"type":"VEC2"},{"bufferView":27,"componentType":5126,"count":24,"type":"VEC2"},{"bufferView":28,"componentType":5126,"count":40,"type":"VEC3","min":[-0.8660253882408142,-0.5,-1],"max":[0.8660253882408142,0.5,1]},{"bufferView":29,"componentType":5126,"count":40,"type":"VEC3"},{"bufferView":30,"componentType":5126,"count":40,"type":"VEC2"},{"bufferView":31,"componentType":5123,"count":72,"type":"SCALAR"},{"bufferView":32,"componentType":5126,"count":24,"type":"VEC2"},{"bufferView":33,"componentType":5126,"count":24,"type":"VEC2"},{"bufferView":34,"componentType":5126,"count":24,"type":"VEC2"},{"bufferView":35,"componentType":5126,"count":24,"type":"VEC2"},{"bufferView":36,"componentType":5126,"count":24,"type":"VEC2"},{"bufferView":37,"componentType":5126,"count":40,"type":"VEC3","min":[-0.8660253882408142,-0.5,-1],"max":[0.8660253882408142,0.5,1]},{"bufferView":38,"componentType":5126,"count":40,"type":"VEC3"},{"bufferView":39,"componentType":5126,"count":40,"type":"VEC2"},{"bufferView":40,"componentType":5126,"count":24,"type":"VEC2"}],"extensionsUsed":["KHR_materials_unlit"],"extras":{"id":"vlt-surface-parking-empire-39","family":"surface-parking-empire","variant":38,"plan":"D4-2","units":"metres","up":"+Y","front":"+Z","lodScenes":[0,1,2]}}