{"asset":{"version":"2.0","generator":"SLOPMERICA Department of Unnecessary Development 1.0"},"scene":0,"scenes":[{"name":"LOD 0","nodes":[0,1,2,3,4,5,6,7,8,9,10,11,12,13,14,15,16,17,18,19,20,21,22],"extras":{"level":0}},{"name":"LOD 1","nodes":[23,24,25,26,27,28,29,30,31,32,33,34,35,36,37,38,39,40,41,42,43,44,45],"extras":{"level":1}},{"name":"LOD 2","nodes":[46,47,48,49,50,51,52,53,54,55,56,57],"extras":{"level":2}}],"nodes":[{"name":"surveyed lot","mesh":0,"translation":[0,0.06,0],"scale":[13.52,0.12,9.36]},{"name":"steel tree trunk","mesh":1,"translation":[0,7,0],"scale":[0.58,14,0.58]},{"name":"fake branch left 0","mesh":2,"translation":[0,0,0]},{"name":"fake branch right 0","mesh":3,"translation":[0,0,0]},{"name":"fake branch left 1","mesh":4,"translation":[0,0,0]},{"name":"fake branch right 1","mesh":5,"translation":[0,0,0]},{"name":"fake branch left 2","mesh":6,"translation":[0,0,0]},{"name":"fake branch right 2","mesh":7,"translation":[0,0,0]},{"name":"fake branch left 3","mesh":8,"translation":[0,0,0]},{"name":"fake branch right 3","mesh":9,"translation":[0,0,0]},{"name":"fake branch left 4","mesh":10,"translation":[0,0,0]},{"name":"fake branch right 4","mesh":11,"translation":[0,0,0]},{"name":"fake branch left 5","mesh":12,"translation":[0,0,0]},{"name":"fake branch right 5","mesh":13,"translation":[0,0,0]},{"name":"fake branch left 6","mesh":14,"translation":[0,0,0]},{"name":"fake branch right 6","mesh":15,"translation":[0,0,0]},{"name":"fake branch left 7","mesh":16,"translation":[0,0,0]},{"name":"fake branch right 7","mesh":17,"translation":[0,0,0]},{"name":"cell panels","mesh":18,"translation":[0,10.92,0.65],"rotation":[0,0.099833,0,0.995004],"scale":[2.88,1.7,0.28]},{"name":"last tree plaque plinth","mesh":19,"translation":[0,0.6,3.2],"scale":[3.5,1,1.8]},{"name":"last tree plaque-back","mesh":20,"translation":[0,0.75,4.12],"scale":[3,0.8,1]},{"name":"last tree plaque","mesh":21,"translation":[0,0.75,4.149],"scale":[2.9,0.7,1]},{"name":"maintenance cabinet","mesh":22,"translation":[2.8,1.25,-1],"scale":[1.5,2.5,1.2]},{"name":"surveyed lot","mesh":23,"translation":[0,0.06,0],"scale":[13.52,0.12,9.36]},{"name":"steel tree trunk","mesh":24,"translation":[0,7,0],"scale":[0.58,14,0.58]},{"name":"fake branch left 0","mesh":25,"translation":[0,0,0]},{"name":"fake branch right 0","mesh":26,"translation":[0,0,0]},{"name":"fake branch left 1","mesh":27,"translation":[0,0,0]},{"name":"fake branch right 1","mesh":28,"translation":[0,0,0]},{"name":"fake branch left 2","mesh":29,"translation":[0,0,0]},{"name":"fake branch right 2","mesh":30,"translation":[0,0,0]},{"name":"fake branch left 3","mesh":31,"translation":[0,0,0]},{"name":"fake branch right 3","mesh":32,"translation":[0,0,0]},{"name":"fake branch left 4","mesh":33,"translation":[0,0,0]},{"name":"fake branch right 4","mesh":34,"translation":[0,0,0]},{"name":"fake branch left 5","mesh":35,"translation":[0,0,0]},{"name":"fake branch right 5","mesh":36,"translation":[0,0,0]},{"name":"fake branch left 6","mesh":37,"translation":[0,0,0]},{"name":"fake branch right 6","mesh":38,"translation":[0,0,0]},{"name":"fake branch left 7","mesh":39,"translation":[0,0,0]},{"name":"fake branch right 7","mesh":40,"translation":[0,0,0]},{"name":"cell panels","mesh":41,"translation":[0,10.92,0.65],"rotation":[0,0.099833,0,0.995004],"scale":[2.88,1.7,0.28]},{"name":"last tree plaque plinth","mesh":42,"translation":[0,0.6,3.2],"scale":[3.5,1,1.8]},{"name":"last tree plaque-back","mesh":20,"translation":[0,0.75,4.12],"scale":[3,0.8,1]},{"name":"last tree plaque","mesh":21,"translation":[0,0.75,4.149],"scale":[2.9,0.7,1]},{"name":"maintenance cabinet","mesh":43,"translation":[2.8,1.25,-1],"scale":[1.5,2.5,1.2]},{"name":"surveyed lot","mesh":23,"translation":[0,0.06,0],"scale":[13.52,0.12,9.36]},{"name":"steel tree trunk","mesh":24,"translation":[0,7,0],"scale":[0.58,14,0.58]},{"name":"fake branch left 0","mesh":44,"translation":[0,0,0]},{"name":"fake branch right 0","mesh":45,"translation":[0,0,0]},{"name":"fake branch left 1","mesh":46,"translation":[0,0,0]},{"name":"fake branch right 1","mesh":47,"translation":[0,0,0]},{"name":"fake branch left 2","mesh":48,"translation":[0,0,0]},{"name":"fake branch right 2","mesh":49,"translation":[0,0,0]},{"name":"cell panels","mesh":41,"translation":[0,10.92,0.65],"rotation":[0,0.099833,0,0.995004],"scale":[2.88,1.7,0.28]},{"name":"last tree plaque plinth","mesh":42,"translation":[0,0.6,3.2],"scale":[3.5,1,1.8]},{"name":"last tree plaque-back","mesh":20,"translation":[0,0.75,4.12],"scale":[3,0.8,1]},{"name":"last tree plaque","mesh":21,"translation":[0,0.75,4.149],"scale":[2.9,0.7,1]}],"meshes":[{"primitives":[{"attributes":{"POSITION":0,"NORMAL":1,"TEXCOORD_0":2},"material":0,"mode":4}]},{"primitives":[{"attributes":{"POSITION":3,"NORMAL":4,"TEXCOORD_0":5},"material":1,"mode":4,"indices":6}]},{"primitives":[{"attributes":{"POSITION":7,"NORMAL":8,"TEXCOORD_0":9},"material":2,"mode":4,"indices":10}]},{"primitives":[{"attributes":{"POSITION":11,"NORMAL":12,"TEXCOORD_0":9},"material":2,"mode":4,"indices":10}]},{"primitives":[{"attributes":{"POSITION":13,"NORMAL":14,"TEXCOORD_0":9},"material":2,"mode":4,"indices":10}]},{"primitives":[{"attributes":{"POSITION":15,"NORMAL":16,"TEXCOORD_0":9},"material":2,"mode":4,"indices":10}]},{"primitives":[{"attributes":{"POSITION":17,"NORMAL":18,"TEXCOORD_0":9},"material":2,"mode":4,"indices":10}]},{"primitives":[{"attributes":{"POSITION":19,"NORMAL":20,"TEXCOORD_0":9},"material":2,"mode":4,"indices":10}]},{"primitives":[{"attributes":{"POSITION":21,"NORMAL":22,"TEXCOORD_0":9},"material":2,"mode":4,"indices":10}]},{"primitives":[{"attributes":{"POSITION":23,"NORMAL":24,"TEXCOORD_0":9},"material":2,"mode":4,"indices":10}]},{"primitives":[{"attributes":{"POSITION":25,"NORMAL":26,"TEXCOORD_0":9},"material":2,"mode":4,"indices":10}]},{"primitives":[{"attributes":{"POSITION":27,"NORMAL":28,"TEXCOORD_0":9},"material":2,"mode":4,"indices":10}]},{"primitives":[{"attributes":{"POSITION":29,"NORMAL":30,"TEXCOORD_0":9},"material":2,"mode":4,"indices":10}]},{"primitives":[{"attributes":{"POSITION":31,"NORMAL":32,"TEXCOORD_0":9},"material":2,"mode":4,"indices":10}]},{"primitives":[{"attributes":{"POSITION":33,"NORMAL":34,"TEXCOORD_0":9},"material":2,"mode":4,"indices":10}]},{"primitives":[{"attributes":{"POSITION":35,"NORMAL":36,"TEXCOORD_0":9},"material":2,"mode":4,"indices":10}]},{"primitives":[{"attributes":{"POSITION":37,"NORMAL":38,"TEXCOORD_0":9},"material":2,"mode":4,"indices":10}]},{"primitives":[{"attributes":{"POSITION":39,"NORMAL":40,"TEXCOORD_0":9},"material":2,"mode":4,"indices":10}]},{"primitives":[{"attributes":{"POSITION":0,"NORMAL":1,"TEXCOORD_0":41},"material":3,"mode":4}]},{"primitives":[{"attributes":{"POSITION":0,"NORMAL":1,"TEXCOORD_0":42},"material":4,"mode":4}]},{"primitives":[{"attributes":{"POSITION":43,"NORMAL":44,"TEXCOORD_0":45},"material":5,"mode":4,"indices":46}]},{"primitives":[{"attributes":{"POSITION":47,"NORMAL":48,"TEXCOORD_0":49},"material":6,"mode":4,"indices":50}]},{"primitives":[{"attributes":{"POSITION":0,"NORMAL":1,"TEXCOORD_0":51},"material":3,"mode":4}]},{"primitives":[{"attributes":{"POSITION":52,"NORMAL":44,"TEXCOORD_0":53},"material":0,"mode":4,"indices":46}]},{"primitives":[{"attributes":{"POSITION":54,"NORMAL":55,"TEXCOORD_0":56},"material":1,"mode":4,"indices":57}]},{"primitives":[{"attributes":{"POSITION":58,"NORMAL":59,"TEXCOORD_0":60},"material":2,"mode":4,"indices":61}]},{"primitives":[{"attributes":{"POSITION":62,"NORMAL":63,"TEXCOORD_0":60},"material":2,"mode":4,"indices":61}]},{"primitives":[{"attributes":{"POSITION":64,"NORMAL":65,"TEXCOORD_0":60},"material":2,"mode":4,"indices":61}]},{"primitives":[{"attributes":{"POSITION":66,"NORMAL":67,"TEXCOORD_0":60},"material":2,"mode":4,"indices":61}]},{"primitives":[{"attributes":{"POSITION":68,"NORMAL":69,"TEXCOORD_0":60},"material":2,"mode":4,"indices":61}]},{"primitives":[{"attributes":{"POSITION":70,"NORMAL":71,"TEXCOORD_0":60},"material":2,"mode":4,"indices":61}]},{"primitives":[{"attributes":{"POSITION":72,"NORMAL":73,"TEXCOORD_0":60},"material":2,"mode":4,"indices":61}]},{"primitives":[{"attributes":{"POSITION":74,"NORMAL":75,"TEXCOORD_0":60},"material":2,"mode":4,"indices":61}]},{"primitives":[{"attributes":{"POSITION":76,"NORMAL":77,"TEXCOORD_0":60},"material":2,"mode":4,"indices":61}]},{"primitives":[{"attributes":{"POSITION":78,"NORMAL":79,"TEXCOORD_0":60},"material":2,"mode":4,"indices":61}]},{"primitives":[{"attributes":{"POSITION":80,"NORMAL":81,"TEXCOORD_0":60},"material":2,"mode":4,"indices":61}]},{"primitives":[{"attributes":{"POSITION":82,"NORMAL":83,"TEXCOORD_0":60},"material":2,"mode":4,"indices":61}]},{"primitives":[{"attributes":{"POSITION":84,"NORMAL":85,"TEXCOORD_0":60},"material":2,"mode":4,"indices":61}]},{"primitives":[{"attributes":{"POSITION":86,"NORMAL":87,"TEXCOORD_0":60},"material":2,"mode":4,"indices":61}]},{"primitives":[{"attributes":{"POSITION":88,"NORMAL":89,"TEXCOORD_0":60},"material":2,"mode":4,"indices":61}]},{"primitives":[{"attributes":{"POSITION":90,"NORMAL":91,"TEXCOORD_0":60},"material":2,"mode":4,"indices":61}]},{"primitives":[{"attributes":{"POSITION":52,"NORMAL":44,"TEXCOORD_0":92},"material":3,"mode":4,"indices":46}]},{"primitives":[{"attributes":{"POSITION":52,"NORMAL":44,"TEXCOORD_0":93},"material":4,"mode":4,"indices":46}]},{"primitives":[{"attributes":{"POSITION":52,"NORMAL":44,"TEXCOORD_0":94},"material":3,"mode":4,"indices":46}]},{"primitives":[{"attributes":{"POSITION":95,"NORMAL":96,"TEXCOORD_0":97},"material":2,"mode":4,"indices":98}]},{"primitives":[{"attributes":{"POSITION":99,"NORMAL":100,"TEXCOORD_0":97},"material":2,"mode":4,"indices":98}]},{"primitives":[{"attributes":{"POSITION":101,"NORMAL":102,"TEXCOORD_0":97},"material":2,"mode":4,"indices":98}]},{"primitives":[{"attributes":{"POSITION":103,"NORMAL":104,"TEXCOORD_0":97},"material":2,"mode":4,"indices":98}]},{"primitives":[{"attributes":{"POSITION":105,"NORMAL":106,"TEXCOORD_0":97},"material":2,"mode":4,"indices":98}]},{"primitives":[{"attributes":{"POSITION":107,"NORMAL":108,"TEXCOORD_0":97},"material":2,"mode":4,"indices":98}]}],"materials":[{"name":"concrete","pbrMetallicRoughness":{"baseColorTexture":{"index":0},"metallicRoughnessTexture":{"index":2},"roughnessFactor":1,"metallicFactor":1},"normalTexture":{"index":1,"scale":0.82},"occlusionTexture":{"index":2,"strength":0.35}},{"name":"bark","pbrMetallicRoughness":{"baseColorTexture":{"index":3},"metallicRoughnessTexture":{"index":5},"roughnessFactor":1,"metallicFactor":1},"normalTexture":{"index":4,"scale":1.35},"occlusionTexture":{"index":5,"strength":0.35}},{"name":"foliage","pbrMetallicRoughness":{"baseColorTexture":{"index":6},"metallicRoughnessTexture":{"index":8},"roughnessFactor":1,"metallicFactor":1},"normalTexture":{"index":7,"scale":0.88},"occlusionTexture":{"index":8,"strength":0.35}},{"name":"metal-galvanized","pbrMetallicRoughness":{"baseColorTexture":{"index":9},"metallicRoughnessTexture":{"index":11},"roughnessFactor":1,"metallicFactor":1},"normalTexture":{"index":10,"scale":0.15},"occlusionTexture":{"index":11,"strength":0.35}},{"name":"limestone","pbrMetallicRoughness":{"baseColorTexture":{"index":12},"metallicRoughnessTexture":{"index":14},"roughnessFactor":1,"metallicFactor":1},"normalTexture":{"index":13,"scale":0.9},"occlusionTexture":{"index":14,"strength":0.35}},{"name":"metal-dark","pbrMetallicRoughness":{"baseColorTexture":{"index":15},"metallicRoughnessTexture":{"index":17},"roughnessFactor":1,"metallicFactor":1},"normalTexture":{"index":16,"scale":0.35},"occlusionTexture":{"index":17,"strength":0.35}},{"name":"frankenpine-memorial signage","pbrMetallicRoughness":{"baseColorTexture":{"index":18},"roughnessFactor":1,"metallicFactor":0},"extensions":{"KHR_materials_unlit":{}}}],"textures":[{"source":0,"sampler":0},{"source":1,"sampler":0},{"source":2,"sampler":0},{"source":3,"sampler":0},{"source":4,"sampler":0},{"source":5,"sampler":0},{"source":6,"sampler":0},{"source":7,"sampler":0},{"source":8,"sampler":0},{"source":9,"sampler":0},{"source":10,"sampler":0},{"source":11,"sampler":0},{"source":12,"sampler":0},{"source":13,"sampler":0},{"source":14,"sampler":0},{"source":15,"sampler":0},{"source":16,"sampler":0},{"source":17,"sampler":0},{"source":18,"sampler":0}],"images":[{"uri":"../textures/concrete-albedo.png"},{"uri":"../textures/concrete-normal.png"},{"uri":"../textures/concrete-orm.png"},{"uri":"../textures/bark-albedo.png"},{"uri":"../textures/bark-normal.png"},{"uri":"../textures/bark-orm.png"},{"uri":"../textures/foliage-albedo.png"},{"uri":"../textures/foliage-normal.png"},{"uri":"../textures/foliage-orm.png"},{"uri":"../textures/metal-galvanized-albedo.png"},{"uri":"../textures/metal-galvanized-normal.png"},{"uri":"../textures/metal-galvanized-orm.png"},{"uri":"../textures/limestone-albedo.png"},{"uri":"../textures/limestone-normal.png"},{"uri":"../textures/limestone-orm.png"},{"uri":"../textures/metal-dark-albedo.png"},{"uri":"../textures/metal-dark-normal.png"},{"uri":"../textures/metal-dark-orm.png"},{"uri":"../signs/frankenpine-memorial.png"}],"samplers":[{"magFilter":9729,"minFilter":9987,"wrapS":10497,"wrapT":10497}],"buffers":[{"uri":"../shared/geometry.bin","byteLength":16435520}],"bufferViews":[{"buffer":0,"byteOffset":0,"byteLength":3888,"target":34962},{"buffer":0,"byteOffset":3888,"byteLength":3888,"target":34962},{"buffer":0,"byteOffset":5477376,"byteLength":2592,"target":34962},{"buffer":0,"byteOffset":5184520,"byteLength":696,"target":34962},{"buffer":0,"byteOffset":5185216,"byteLength":696,"target":34962},{"buffer":0,"byteOffset":5266368,"byteLength":464,"target":34962},{"buffer":0,"byteOffset":2089908,"byteLength":216,"target":34963},{"buffer":0,"byteOffset":5266832,"byteLength":972,"target":34962},{"buffer":0,"byteOffset":5267804,"byteLength":972,"target":34962},{"buffer":0,"byteOffset":5188320,"byteLength":648,"target":34962},{"buffer":0,"byteOffset":410600,"byteLength":768,"target":34963},{"buffer":0,"byteOffset":5268776,"byteLength":972,"target":34962},{"buffer":0,"byteOffset":5269748,"byteLength":972,"target":34962},{"buffer":0,"byteOffset":5270720,"byteLength":972,"target":34962},{"buffer":0,"byteOffset":5271692,"byteLength":972,"target":34962},{"buffer":0,"byteOffset":5272664,"byteLength":972,"target":34962},{"buffer":0,"byteOffset":5273636,"byteLength":972,"target":34962},{"buffer":0,"byteOffset":5274608,"byteLength":972,"target":34962},{"buffer":0,"byteOffset":5275580,"byteLength":972,"target":34962},{"buffer":0,"byteOffset":5276552,"byteLength":972,"target":34962},{"buffer":0,"byteOffset":5277524,"byteLength":972,"target":34962},{"buffer":0,"byteOffset":5278496,"byteLength":972,"target":34962},{"buffer":0,"byteOffset":5279468,"byteLength":972,"target":34962},{"buffer":0,"byteOffset":5280440,"byteLength":972,"target":34962},{"buffer":0,"byteOffset":5281412,"byteLength":972,"target":34962},{"buffer":0,"byteOffset":5282384,"byteLength":972,"target":34962},{"buffer":0,"byteOffset":5283356,"byteLength":972,"target":34962},{"buffer":0,"byteOffset":5284328,"byteLength":972,"target":34962},{"buffer":0,"byteOffset":5285300,"byteLength":972,"target":34962},{"buffer":0,"byteOffset":5396448,"byteLength":972,"target":34962},{"buffer":0,"byteOffset":5397420,"byteLength":972,"target":34962},{"buffer":0,"byteOffset":5398392,"byteLength":972,"target":34962},{"buffer":0,"byteOffset":5399364,"byteLength":972,"target":34962},{"buffer":0,"byteOffset":5438208,"byteLength":972,"target":34962},{"buffer":0,"byteOffset":5439180,"byteLength":972,"target":34962},{"buffer":0,"byteOffset":5440152,"byteLength":972,"target":34962},{"buffer":0,"byteOffset":5441124,"byteLength":972,"target":34962},{"buffer":0,"byteOffset":5479968,"byteLength":972,"target":34962},{"buffer":0,"byteOffset":5480940,"byteLength":972,"target":34962},{"buffer":0,"byteOffset":5481912,"byteLength":972,"target":34962},{"buffer":0,"byteOffset":5482884,"byteLength":972,"target":34962},{"buffer":0,"byteOffset":5286272,"byteLength":2592,"target":34962},{"buffer":0,"byteOffset":5209056,"byteLength":2592,"target":34962},{"buffer":0,"byteOffset":45664,"byteLength":288,"target":34962},{"buffer":0,"byteOffset":45952,"byteLength":288,"target":34962},{"buffer":0,"byteOffset":46240,"byteLength":192,"target":34962},{"buffer":0,"byteOffset":46432,"byteLength":72,"target":34963},{"buffer":0,"byteOffset":46504,"byteLength":48,"target":34962},{"buffer":0,"byteOffset":46552,"byteLength":48,"target":34962},{"buffer":0,"byteOffset":222916,"byteLength":32,"target":34962},{"buffer":0,"byteOffset":46632,"byteLength":12,"target":34963},{"buffer":0,"byteOffset":5510784,"byteLength":2592,"target":34962},{"buffer":0,"byteOffset":46644,"byteLength":288,"target":34962},{"buffer":0,"byteOffset":5483856,"byteLength":192,"target":34962},{"buffer":0,"byteOffset":5211840,"byteLength":480,"target":34962},{"buffer":0,"byteOffset":5212320,"byteLength":480,"target":34962},{"buffer":0,"byteOffset":5289056,"byteLength":320,"target":34962},{"buffer":0,"byteOffset":48596,"byteLength":144,"target":34963},{"buffer":0,"byteOffset":5289376,"byteLength":420,"target":34962},{"buffer":0,"byteOffset":5289796,"byteLength":420,"target":34962},{"buffer":0,"byteOffset":5213960,"byteLength":280,"target":34962},{"buffer":0,"byteOffset":434076,"byteLength":288,"target":34963},{"buffer":0,"byteOffset":5290216,"byteLength":420,"target":34962},{"buffer":0,"byteOffset":5290636,"byteLength":420,"target":34962},{"buffer":0,"byteOffset":5291056,"byteLength":420,"target":34962},{"buffer":0,"byteOffset":5291476,"byteLength":420,"target":34962},{"buffer":0,"byteOffset":5291896,"byteLength":420,"target":34962},{"buffer":0,"byteOffset":5292316,"byteLength":420,"target":34962},{"buffer":0,"byteOffset":5292736,"byteLength":420,"target":34962},{"buffer":0,"byteOffset":5293156,"byteLength":420,"target":34962},{"buffer":0,"byteOffset":5293576,"byteLength":420,"target":34962},{"buffer":0,"byteOffset":5293996,"byteLength":420,"target":34962},{"buffer":0,"byteOffset":5294416,"byteLength":420,"target":34962},{"buffer":0,"byteOffset":5294836,"byteLength":420,"target":34962},{"buffer":0,"byteOffset":5295256,"byteLength":420,"target":34962},{"buffer":0,"byteOffset":5295676,"byteLength":420,"target":34962},{"buffer":0,"byteOffset":5296096,"byteLength":420,"target":34962},{"buffer":0,"byteOffset":5296516,"byteLength":420,"target":34962},{"buffer":0,"byteOffset":5296936,"byteLength":420,"target":34962},{"buffer":0,"byteOffset":5297356,"byteLength":420,"target":34962},{"buffer":0,"byteOffset":5400528,"byteLength":420,"target":34962},{"buffer":0,"byteOffset":5400948,"byteLength":420,"target":34962},{"buffer":0,"byteOffset":5401368,"byteLength":420,"target":34962},{"buffer":0,"byteOffset":5401788,"byteLength":420,"target":34962},{"buffer":0,"byteOffset":5442288,"byteLength":420,"target":34962},{"buffer":0,"byteOffset":5442708,"byteLength":420,"target":34962},{"buffer":0,"byteOffset":5443128,"byteLength":420,"target":34962},{"buffer":0,"byteOffset":5443548,"byteLength":420,"target":34962},{"buffer":0,"byteOffset":5484048,"byteLength":420,"target":34962},{"buffer":0,"byteOffset":5484468,"byteLength":420,"target":34962},{"buffer":0,"byteOffset":5484888,"byteLength":420,"target":34962},{"buffer":0,"byteOffset":5485308,"byteLength":420,"target":34962},{"buffer":0,"byteOffset":5297776,"byteLength":192,"target":34962},{"buffer":0,"byteOffset":5221992,"byteLength":192,"target":34962},{"buffer":0,"byteOffset":5513376,"byteLength":192,"target":34962},{"buffer":0,"byteOffset":5297968,"byteLength":300,"target":34962},{"buffer":0,"byteOffset":5298268,"byteLength":300,"target":34962},{"buffer":0,"byteOffset":5222784,"byteLength":200,"target":34962},{"buffer":0,"byteOffset":440168,"byteLength":192,"target":34963},{"buffer":0,"byteOffset":5298568,"byteLength":300,"target":34962},{"buffer":0,"byteOffset":5298868,"byteLength":300,"target":34962},{"buffer":0,"byteOffset":5299168,"byteLength":300,"target":34962},{"buffer":0,"byteOffset":5299468,"byteLength":300,"target":34962},{"buffer":0,"byteOffset":5299768,"byteLength":300,"target":34962},{"buffer":0,"byteOffset":5300068,"byteLength":300,"target":34962},{"buffer":0,"byteOffset":5300368,"byteLength":300,"target":34962},{"buffer":0,"byteOffset":5300668,"byteLength":300,"target":34962},{"buffer":0,"byteOffset":5300968,"byteLength":300,"target":34962},{"buffer":0,"byteOffset":5301268,"byteLength":300,"target":34962}],"accessors":[{"bufferView":0,"componentType":5126,"count":324,"type":"VEC3","min":[-0.5,-0.5,-0.5],"max":[0.5,0.5,0.5]},{"bufferView":1,"componentType":5126,"count":324,"type":"VEC3"},{"bufferView":2,"componentType":5126,"count":324,"type":"VEC2"},{"bufferView":3,"componentType":5126,"count":58,"type":"VEC3","min":[-0.9848077297210693,-0.5,-0.9396926164627075],"max":[0.9848077297210693,0.5,1]},{"bufferView":4,"componentType":5126,"count":58,"type":"VEC3"},{"bufferView":5,"componentType":5126,"count":58,"type":"VEC2"},{"bufferView":6,"componentType":5123,"count":108,"type":"SCALAR"},{"bufferView":7,"componentType":5126,"count":81,"type":"VEC3","min":[-3.578321933746338,6.601407051086426,-0.11999999731779099],"max":[0.01832195557653904,7.3885931968688965,0.11999999731779099]},{"bufferView":8,"componentType":5126,"count":81,"type":"VEC3"},{"bufferView":9,"componentType":5126,"count":81,"type":"VEC2"},{"bufferView":10,"componentType":5123,"count":384,"type":"SCALAR"},{"bufferView":11,"componentType":5126,"count":81,"type":"VEC3","min":[-0.017344042658805847,6.781260013580322,-0.11999999731779099],"max":[3.5773439407348633,7.538740158081055,0.11999999731779099]},{"bufferView":12,"componentType":5126,"count":81,"type":"VEC3"},{"bufferView":13,"componentType":5126,"count":81,"type":"VEC3","min":[-3.2667839527130127,7.79169225692749,-0.11863478273153305],"max":[0.02678387612104416,8.578307151794434,0.6186347603797913]},{"bufferView":14,"componentType":5126,"count":81,"type":"VEC3"},{"bufferView":15,"componentType":5126,"count":81,"type":"VEC3","min":[-0.026066364720463753,7.971516132354736,-0.6186307668685913],"max":[3.266066312789917,8.728484153747559,0.1186307817697525]},{"bufferView":16,"componentType":5126,"count":81,"type":"VEC3"},{"bufferView":17,"componentType":5126,"count":81,"type":"VEC3","min":[-2.9422121047973633,8.982073783874512,-0.11999999731779099],"max":[0.022212151437997818,9.767926216125488,0.11999999731779099]},{"bufferView":18,"componentType":5126,"count":81,"type":"VEC3"},{"bufferView":19,"componentType":5126,"count":81,"type":"VEC3","min":[-0.021038861945271492,9.161858558654785,-0.11999999731779099],"max":[2.9410388469696045,9.91814136505127,0.11999999731779099]},{"bufferView":20,"componentType":5126,"count":81,"type":"VEC3"},{"bufferView":21,"componentType":5126,"count":81,"type":"VEC3","min":[-2.63291072845459,10.172597885131836,-0.11793088167905807],"max":[0.032910630106925964,10.957402229309082,0.6179308891296387]},{"bufferView":22,"componentType":5126,"count":81,"type":"VEC3"},{"bufferView":23,"componentType":5126,"count":81,"type":"VEC3","min":[-0.032059501856565475,10.352330207824707,-0.6179216504096985],"max":[2.6320595741271973,11.107669830322266,0.11792167276144028]},{"bufferView":24,"componentType":5126,"count":81,"type":"VEC3"},{"bufferView":25,"componentType":5126,"count":81,"type":"VEC3","min":[-2.308140277862549,11.363346099853516,-0.11999999731779099],"max":[0.028140192851424217,12.14665412902832,0.11999999731779099]},{"bufferView":26,"componentType":5126,"count":81,"type":"VEC3"},{"bufferView":27,"componentType":5126,"count":81,"type":"VEC3","min":[-0.02668324112892151,11.543004035949707,-0.11999999731779099],"max":[2.306683301925659,12.296996116638184,0.11999999731779099]},{"bufferView":28,"componentType":5126,"count":81,"type":"VEC3"},{"bufferView":29,"componentType":5126,"count":81,"type":"VEC3","min":[-2.0024120807647705,12.554462432861328,-0.11653634160757065],"max":[0.04241211339831352,13.33553695678711,0.6165363192558289]},{"bufferView":30,"componentType":5126,"count":81,"type":"VEC3"},{"bufferView":31,"componentType":5126,"count":81,"type":"VEC3","min":[-0.04139384627342224,12.734012603759766,-0.6165104508399963],"max":[2.0013937950134277,13.485987663269043,0.11651047319173813]},{"bufferView":32,"componentType":5126,"count":81,"type":"VEC3"},{"bufferView":33,"componentType":5126,"count":81,"type":"VEC3","min":[-1.6781554222106934,13.746227264404297,-0.11999999731779099],"max":[0.038155388087034225,14.523772239685059,0.11999999731779099]},{"bufferView":34,"componentType":5126,"count":81,"type":"VEC3"},{"bufferView":35,"componentType":5126,"count":81,"type":"VEC3","min":[-0.03626926243305206,13.925612449645996,-0.11999999731779099],"max":[1.676269292831421,14.67438793182373,0.11999999731779099]},{"bufferView":36,"componentType":5126,"count":81,"type":"VEC3"},{"bufferView":37,"componentType":5126,"count":81,"type":"VEC3","min":[-1.3784875869750977,14.939230918884277,-0.11327534914016724],"max":[0.05848758667707443,15.710769653320312,0.6132753491401672]},{"bufferView":38,"componentType":5126,"count":81,"type":"VEC3"},{"bufferView":39,"componentType":5126,"count":81,"type":"VEC3","min":[-0.05734202265739441,15.118350982666016,-0.6131770610809326],"max":[1.3773419857025146,15.861648559570312,0.11317707598209381]},{"bufferView":40,"componentType":5126,"count":81,"type":"VEC3"},{"bufferView":41,"componentType":5126,"count":324,"type":"VEC2"},{"bufferView":42,"componentType":5126,"count":324,"type":"VEC2"},{"bufferView":43,"componentType":5126,"count":24,"type":"VEC3","min":[-0.5,-0.5,-0.02500000037252903],"max":[0.5,0.5,0.02500000037252903]},{"bufferView":44,"componentType":5126,"count":24,"type":"VEC3"},{"bufferView":45,"componentType":5126,"count":24,"type":"VEC2"},{"bufferView":46,"componentType":5123,"count":36,"type":"SCALAR"},{"bufferView":47,"componentType":5126,"count":4,"type":"VEC3","min":[-0.5,-0.5,0],"max":[0.5,0.5,0]},{"bufferView":48,"componentType":5126,"count":4,"type":"VEC3"},{"bufferView":49,"componentType":5126,"count":4,"type":"VEC2"},{"bufferView":50,"componentType":5123,"count":6,"type":"SCALAR"},{"bufferView":51,"componentType":5126,"count":324,"type":"VEC2"},{"bufferView":52,"componentType":5126,"count":24,"type":"VEC3","min":[-0.5,-0.5,-0.5],"max":[0.5,0.5,0.5]},{"bufferView":53,"componentType":5126,"count":24,"type":"VEC2"},{"bufferView":54,"componentType":5126,"count":40,"type":"VEC3","min":[-0.8660253882408142,-0.5,-1],"max":[0.8660253882408142,0.5,1]},{"bufferView":55,"componentType":5126,"count":40,"type":"VEC3"},{"bufferView":56,"componentType":5126,"count":40,"type":"VEC2"},{"bufferView":57,"componentType":5123,"count":72,"type":"SCALAR"},{"bufferView":58,"componentType":5126,"count":35,"type":"VEC3","min":[-3.575867176055908,6.617295265197754,-0.11999999731779099],"max":[0.01586727984249592,7.37270450592041,0.11999999731779099]},{"bufferView":59,"componentType":5126,"count":35,"type":"VEC3"},{"bufferView":60,"componentType":5126,"count":35,"type":"VEC2"},{"bufferView":61,"componentType":5123,"count":144,"type":"SCALAR"},{"bufferView":62,"componentType":5126,"count":35,"type":"VEC3","min":[-0.015020381659269333,6.797168254852295,-0.11999999731779099],"max":[3.5750203132629395,7.522831916809082,0.11999999731779099]},{"bufferView":63,"componentType":5126,"count":35,"type":"VEC3"},{"bufferView":64,"componentType":5126,"count":35,"type":"VEC3","min":[-3.2662899494171143,7.806032180786133,-0.11863478273153305],"max":[0.02628997340798378,8.56396770477295,0.6186347603797913]},{"bufferView":65,"componentType":5126,"count":35,"type":"VEC3"},{"bufferView":66,"componentType":5126,"count":35,"type":"VEC3","min":[-0.02539200894534588,7.985958099365234,-0.6186307668685913],"max":[3.2653920650482178,8.714041709899902,0.1186307817697525]},{"bufferView":67,"componentType":5126,"count":35,"type":"VEC3"},{"bufferView":68,"componentType":5126,"count":35,"type":"VEC3","min":[-2.9392364025115967,8.997872352600098,-0.11999999731779099],"max":[0.019236287102103233,9.752127647399902,0.11999999731779099]},{"bufferView":69,"componentType":5126,"count":35,"type":"VEC3"},{"bufferView":70,"componentType":5126,"count":35,"type":"VEC3","min":[-0.018220188096165657,9.17768669128418,-0.11999999731779099],"max":[2.938220262527466,9.902313232421875,0.11999999731779099]},{"bufferView":71,"componentType":5126,"count":35,"type":"VEC3"},{"bufferView":72,"componentType":5126,"count":35,"type":"VEC3","min":[-2.632361650466919,10.186031341552734,-0.11793088167905807],"max":[0.032361581921577454,10.943968772888184,0.6179308891296387]},{"bufferView":73,"componentType":5126,"count":35,"type":"VEC3"},{"bufferView":74,"componentType":5126,"count":35,"type":"VEC3","min":[-0.031283508986234665,10.365914344787598,-0.6179216504096985],"max":[2.6312835216522217,11.094085693359375,0.11792167276144028]},{"bufferView":75,"componentType":5126,"count":35,"type":"VEC3"},{"bufferView":76,"componentType":5126,"count":35,"type":"VEC3","min":[-2.304370164871216,11.378974914550781,-0.11999999731779099],"max":[0.024370120838284492,12.131025314331055,0.11999999731779099]},{"bufferView":77,"componentType":5126,"count":35,"type":"VEC3"},{"bufferView":78,"componentType":5126,"count":35,"type":"VEC3","min":[-0.023108363151550293,11.55867862701416,-0.11999999731779099],"max":[2.3031084537506104,12.28132152557373,0.11999999731779099]},{"bufferView":79,"componentType":5126,"count":35,"type":"VEC3"},{"bufferView":80,"componentType":5126,"count":35,"type":"VEC3","min":[-2.001856803894043,12.566075325012207,-0.11653634160757065],"max":[0.04185687005519867,13.323925018310547,0.6165363192558289]},{"bufferView":81,"componentType":5126,"count":35,"type":"VEC3"},{"bufferView":82,"componentType":5126,"count":35,"type":"VEC3","min":[-0.040533263236284256,12.745868682861328,-0.6165104508399963],"max":[2.00053334236145,13.47413158416748,0.11651047319173813]},{"bufferView":83,"componentType":5126,"count":35,"type":"VEC3"},{"bufferView":84,"componentType":5126,"count":35,"type":"VEC3","min":[-1.6730434894561768,13.761469841003418,-0.11999999731779099],"max":[0.03304353728890419,14.508529663085938,0.11999999731779099]},{"bufferView":85,"componentType":5126,"count":35,"type":"VEC3"},{"bufferView":86,"componentType":5126,"count":35,"type":"VEC3","min":[-0.031410101801157,13.940937042236328,-0.11999999731779099],"max":[1.671410083770752,14.659062385559082,0.11999999731779099]},{"bufferView":87,"componentType":5126,"count":35,"type":"VEC3"},{"bufferView":88,"componentType":5126,"count":35,"type":"VEC3","min":[-1.3782504796981812,14.946454048156738,-0.11327534914016724],"max":[0.05825044959783554,15.703545570373535,0.6132753491401672]},{"bufferView":89,"componentType":5126,"count":35,"type":"VEC3"},{"bufferView":90,"componentType":5126,"count":35,"type":"VEC3","min":[-0.05664580687880516,15.125999450683594,-0.6131770610809326],"max":[1.376645803451538,15.85400104522705,0.11317707598209381]},{"bufferView":91,"componentType":5126,"count":35,"type":"VEC3"},{"bufferView":92,"componentType":5126,"count":24,"type":"VEC2"},{"bufferView":93,"componentType":5126,"count":24,"type":"VEC2"},{"bufferView":94,"componentType":5126,"count":24,"type":"VEC2"},{"bufferView":95,"componentType":5126,"count":25,"type":"VEC3","min":[-3.578321933746338,6.601407051086426,-0.11999999731779099],"max":[0.01832195557653904,7.3885931968688965,0.11999999731779099]},{"bufferView":96,"componentType":5126,"count":25,"type":"VEC3"},{"bufferView":97,"componentType":5126,"count":25,"type":"VEC2"},{"bufferView":98,"componentType":5123,"count":96,"type":"SCALAR"},{"bufferView":99,"componentType":5126,"count":25,"type":"VEC3","min":[-0.017344042658805847,6.781260013580322,-0.11999999731779099],"max":[3.5773439407348633,7.538740158081055,0.11999999731779099]},{"bufferView":100,"componentType":5126,"count":25,"type":"VEC3"},{"bufferView":101,"componentType":5126,"count":25,"type":"VEC3","min":[-3.260082960128784,7.79169225692749,-0.11863478273153305],"max":[0.020083067938685417,8.578307151794434,0.6186347603797913]},{"bufferView":102,"componentType":5126,"count":25,"type":"VEC3"},{"bufferView":103,"componentType":5126,"count":25,"type":"VEC3","min":[-0.019015908241271973,7.971516132354736,-0.6186307668685913],"max":[3.2590157985687256,8.728484153747559,0.1186307817697525]},{"bufferView":104,"componentType":5126,"count":25,"type":"VEC3"},{"bufferView":105,"componentType":5126,"count":25,"type":"VEC3","min":[-2.9422121047973633,8.982073783874512,-0.11999999731779099],"max":[0.022212151437997818,9.767926216125488,0.11999999731779099]},{"bufferView":106,"componentType":5126,"count":25,"type":"VEC3"},{"bufferView":107,"componentType":5126,"count":25,"type":"VEC3","min":[-0.021038861945271492,9.161858558654785,-0.11999999731779099],"max":[2.9410388469696045,9.91814136505127,0.11999999731779099]},{"bufferView":108,"componentType":5126,"count":25,"type":"VEC3"}],"extensionsUsed":["KHR_materials_unlit"],"extras":{"id":"vlt-frankenpine-memorial-38","family":"frankenpine-memorial","variant":37,"plan":"D3-2","units":"metres","up":"+Y","front":"+Z","lodScenes":[0,1,2]}}