{"asset":{"version":"2.0","generator":"SLOPMERICA Department of Unnecessary Development 1.0"},"scene":0,"scenes":[{"name":"LOD 0","nodes":[0,1,2,3,4,5,6,7,8,9,10,11,12,13,14,15],"extras":{"level":0}},{"name":"LOD 1","nodes":[16,17,18,19,20,21,22,23,24,25,26,27,28,29,30,31],"extras":{"level":1}},{"name":"LOD 2","nodes":[32,33,34,35,36,37,38,39,40,41,42],"extras":{"level":2}}],"nodes":[{"name":"site-pad","mesh":0,"translation":[0,0.06,0],"scale":[12.8128,0.12,6.552]},{"name":"variant-apron","mesh":1,"translation":[0.8008,0.13,3.37],"scale":[3.6344,0.08,1.16]},{"name":"bollard-0","mesh":2,"translation":[-4.6816,0.43,3.49],"scale":[0.08,0.7,0.08]},{"name":"bollard-1","mesh":2,"translation":[-1.560533,0.43,3.49],"scale":[0.08,0.7,0.08]},{"name":"bollard-2","mesh":2,"translation":[1.560533,0.43,3.49],"scale":[0.08,0.7,0.08]},{"name":"bollard-3","mesh":2,"translation":[4.6816,0.43,3.49],"scale":[0.08,0.7,0.08]},{"name":"layout-cabinet","mesh":3,"translation":[-6.36,0.585,0.4725],"scale":[0.69,0.93,0.32]},{"name":"road-slab","mesh":4,"translation":[0,2,0],"scale":[12.32,0.7,6.3]},{"name":"culvert-0","mesh":5,"translation":[-1.15,1,0],"rotation":[0.707107,0,0,0.707107],"scale":[0.9,6.8,0.9]},{"name":"culvert-rim-0","mesh":6,"translation":[-1.15,1,3.43],"rotation":[0.707107,0,0,0.707107]},{"name":"culvert-1","mesh":5,"translation":[1.15,1,0],"rotation":[0.707107,0,0,0.707107],"scale":[0.9,6.8,0.9]},{"name":"culvert-rim-1","mesh":6,"translation":[1.15,1,3.43],"rotation":[0.707107,0,0,0.707107]},{"name":"left-headwall","mesh":7,"translation":[-6.16,1.65,0],"scale":[0.6,3.2,6.8]},{"name":"right-headwall","mesh":7,"translation":[6.16,1.65,0],"scale":[0.6,3.2,6.8]},{"name":"culvert-sign-back","mesh":8,"translation":[0,2.55,3.53],"scale":[3,0.9,1]},{"name":"culvert-sign","mesh":9,"translation":[0,2.55,3.559],"scale":[2.9,0.8,1]},{"name":"site-pad","mesh":10,"translation":[0,0.06,0],"scale":[12.8128,0.12,6.552]},{"name":"variant-apron","mesh":11,"translation":[0.8008,0.13,3.37],"scale":[3.6344,0.08,1.16]},{"name":"bollard-0","mesh":12,"translation":[-4.6816,0.43,3.49],"scale":[0.08,0.7,0.08]},{"name":"bollard-1","mesh":12,"translation":[-1.560533,0.43,3.49],"scale":[0.08,0.7,0.08]},{"name":"bollard-2","mesh":12,"translation":[1.560533,0.43,3.49],"scale":[0.08,0.7,0.08]},{"name":"bollard-3","mesh":12,"translation":[4.6816,0.43,3.49],"scale":[0.08,0.7,0.08]},{"name":"layout-cabinet","mesh":13,"translation":[-6.36,0.585,0.4725],"scale":[0.69,0.93,0.32]},{"name":"road-slab","mesh":14,"translation":[0,2,0],"scale":[12.32,0.7,6.3]},{"name":"culvert-0","mesh":15,"translation":[-1.15,1,0],"rotation":[0.707107,0,0,0.707107],"scale":[0.9,6.8,0.9]},{"name":"culvert-rim-0","mesh":16,"translation":[-1.15,1,3.43],"rotation":[0.707107,0,0,0.707107]},{"name":"culvert-1","mesh":15,"translation":[1.15,1,0],"rotation":[0.707107,0,0,0.707107],"scale":[0.9,6.8,0.9]},{"name":"culvert-rim-1","mesh":16,"translation":[1.15,1,3.43],"rotation":[0.707107,0,0,0.707107]},{"name":"left-headwall","mesh":17,"translation":[-6.16,1.65,0],"scale":[0.6,3.2,6.8]},{"name":"right-headwall","mesh":17,"translation":[6.16,1.65,0],"scale":[0.6,3.2,6.8]},{"name":"culvert-sign-back","mesh":8,"translation":[0,2.55,3.53],"scale":[3,0.9,1]},{"name":"culvert-sign","mesh":9,"translation":[0,2.55,3.559],"scale":[2.9,0.8,1]},{"name":"site-pad","mesh":10,"translation":[0,0.06,0],"scale":[12.8128,0.12,6.552]},{"name":"variant-apron","mesh":11,"translation":[0.8008,0.13,3.37],"scale":[3.6344,0.08,1.16]},{"name":"bollard-0","mesh":12,"translation":[-4.6816,0.43,3.49],"scale":[0.08,0.7,0.08]},{"name":"layout-cabinet","mesh":13,"translation":[-6.36,0.585,0.4725],"scale":[0.69,0.93,0.32]},{"name":"road-slab","mesh":14,"translation":[0,2,0],"scale":[12.32,0.7,6.3]},{"name":"culvert-0","mesh":15,"translation":[0,1,0],"rotation":[0.707107,0,0,0.707107],"scale":[0.9,6.8,0.9]},{"name":"culvert-rim-0","mesh":18,"translation":[0,1,3.43],"rotation":[0.707107,0,0,0.707107]},{"name":"left-headwall","mesh":17,"translation":[-6.16,1.65,0],"scale":[0.6,3.2,6.8]},{"name":"right-headwall","mesh":17,"translation":[6.16,1.65,0],"scale":[0.6,3.2,6.8]},{"name":"culvert-sign-back","mesh":8,"translation":[0,2.55,3.53],"scale":[3,0.9,1]},{"name":"culvert-sign","mesh":9,"translation":[0,2.55,3.559],"scale":[2.9,0.8,1]}],"meshes":[{"primitives":[{"attributes":{"POSITION":0,"NORMAL":1,"TEXCOORD_0":2},"material":0,"mode":4}]},{"primitives":[{"attributes":{"POSITION":0,"NORMAL":1,"TEXCOORD_0":3},"material":0,"mode":4}]},{"primitives":[{"attributes":{"POSITION":4,"NORMAL":5,"TEXCOORD_0":6},"material":1,"mode":4,"indices":7}]},{"primitives":[{"attributes":{"POSITION":0,"NORMAL":1,"TEXCOORD_0":8},"material":2,"mode":4}]},{"primitives":[{"attributes":{"POSITION":0,"NORMAL":1,"TEXCOORD_0":9},"material":3,"mode":4}]},{"primitives":[{"attributes":{"POSITION":10,"NORMAL":11,"TEXCOORD_0":12},"material":2,"mode":4,"indices":7}]},{"primitives":[{"attributes":{"POSITION":13,"NORMAL":14,"TEXCOORD_0":15},"material":4,"mode":4,"indices":16}]},{"primitives":[{"attributes":{"POSITION":0,"NORMAL":1,"TEXCOORD_0":17},"material":3,"mode":4}]},{"primitives":[{"attributes":{"POSITION":18,"NORMAL":19,"TEXCOORD_0":20},"material":4,"mode":4,"indices":21}]},{"primitives":[{"attributes":{"POSITION":22,"NORMAL":23,"TEXCOORD_0":24},"material":5,"mode":4,"indices":25}]},{"primitives":[{"attributes":{"POSITION":26,"NORMAL":19,"TEXCOORD_0":27},"material":0,"mode":4,"indices":21}]},{"primitives":[{"attributes":{"POSITION":26,"NORMAL":19,"TEXCOORD_0":28},"material":0,"mode":4,"indices":21}]},{"primitives":[{"attributes":{"POSITION":29,"NORMAL":30,"TEXCOORD_0":31},"material":1,"mode":4,"indices":32}]},{"primitives":[{"attributes":{"POSITION":26,"NORMAL":19,"TEXCOORD_0":33},"material":2,"mode":4,"indices":21}]},{"primitives":[{"attributes":{"POSITION":26,"NORMAL":19,"TEXCOORD_0":34},"material":3,"mode":4,"indices":21}]},{"primitives":[{"attributes":{"POSITION":35,"NORMAL":36,"TEXCOORD_0":37},"material":2,"mode":4,"indices":32}]},{"primitives":[{"attributes":{"POSITION":38,"NORMAL":39,"TEXCOORD_0":40},"material":4,"mode":4,"indices":41}]},{"primitives":[{"attributes":{"POSITION":26,"NORMAL":19,"TEXCOORD_0":42},"material":3,"mode":4,"indices":21}]},{"primitives":[{"attributes":{"POSITION":43,"NORMAL":44,"TEXCOORD_0":45},"material":4,"mode":4,"indices":46}]}],"materials":[{"name":"asphalt","pbrMetallicRoughness":{"baseColorTexture":{"index":0},"metallicRoughnessTexture":{"index":2},"roughnessFactor":1,"metallicFactor":1},"normalTexture":{"index":1,"scale":0.62},"occlusionTexture":{"index":2,"strength":0.35}},{"name":"paint-yellow","pbrMetallicRoughness":{"baseColorFactor":[0.76052450467022,0.4793201830913402,0.07818742179702069,1],"roughnessFactor":0.66,"metallicFactor":0.03}},{"name":"metal-galvanized","pbrMetallicRoughness":{"baseColorTexture":{"index":3},"metallicRoughnessTexture":{"index":5},"roughnessFactor":1,"metallicFactor":1},"normalTexture":{"index":4,"scale":0.15},"occlusionTexture":{"index":5,"strength":0.35}},{"name":"concrete","pbrMetallicRoughness":{"baseColorTexture":{"index":6},"metallicRoughnessTexture":{"index":8},"roughnessFactor":1,"metallicFactor":1},"normalTexture":{"index":7,"scale":0.82},"occlusionTexture":{"index":8,"strength":0.35}},{"name":"metal-dark","pbrMetallicRoughness":{"baseColorTexture":{"index":9},"metallicRoughnessTexture":{"index":11},"roughnessFactor":1,"metallicFactor":1},"normalTexture":{"index":10,"scale":0.35},"occlusionTexture":{"index":11,"strength":0.35}},{"name":"culvert-gateway signage","pbrMetallicRoughness":{"baseColorTexture":{"index":12},"roughnessFactor":1,"metallicFactor":0},"extensions":{"KHR_materials_unlit":{}}}],"textures":[{"source":0,"sampler":0},{"source":1,"sampler":0},{"source":2,"sampler":0},{"source":3,"sampler":0},{"source":4,"sampler":0},{"source":5,"sampler":0},{"source":6,"sampler":0},{"source":7,"sampler":0},{"source":8,"sampler":0},{"source":9,"sampler":0},{"source":10,"sampler":0},{"source":11,"sampler":0},{"source":12,"sampler":0}],"images":[{"uri":"../textures/asphalt-albedo.png"},{"uri":"../textures/asphalt-normal.png"},{"uri":"../textures/asphalt-orm.png"},{"uri":"../textures/metal-galvanized-albedo.png"},{"uri":"../textures/metal-galvanized-normal.png"},{"uri":"../textures/metal-galvanized-orm.png"},{"uri":"../textures/concrete-albedo.png"},{"uri":"../textures/concrete-normal.png"},{"uri":"../textures/concrete-orm.png"},{"uri":"../textures/metal-dark-albedo.png"},{"uri":"../textures/metal-dark-normal.png"},{"uri":"../textures/metal-dark-orm.png"},{"uri":"../signs/culvert-gateway.png"}],"samplers":[{"magFilter":9729,"minFilter":9987,"wrapS":10497,"wrapT":10497}],"buffers":[{"uri":"../shared/geometry.bin","byteLength":16435520}],"bufferViews":[{"buffer":0,"byteOffset":0,"byteLength":3888,"target":34962},{"buffer":0,"byteOffset":3888,"byteLength":3888,"target":34962},{"buffer":0,"byteOffset":3423284,"byteLength":2592,"target":34962},{"buffer":0,"byteOffset":3425876,"byteLength":2592,"target":34962},{"buffer":0,"byteOffset":12960,"byteLength":1200,"target":34962},{"buffer":0,"byteOffset":14160,"byteLength":1200,"target":34962},{"buffer":0,"byteOffset":150020,"byteLength":800,"target":34962},{"buffer":0,"byteOffset":16160,"byteLength":384,"target":34963},{"buffer":0,"byteOffset":167940,"byteLength":2592,"target":34962},{"buffer":0,"byteOffset":3428468,"byteLength":2592,"target":34962},{"buffer":0,"byteOffset":1101304,"byteLength":1200,"target":34962},{"buffer":0,"byteOffset":1102504,"byteLength":1200,"target":34962},{"buffer":0,"byteOffset":3402100,"byteLength":800,"target":34962},{"buffer":0,"byteOffset":3306352,"byteLength":3132,"target":34962},{"buffer":0,"byteOffset":390704,"byteLength":3132,"target":34962},{"buffer":0,"byteOffset":2835332,"byteLength":2088,"target":34962},{"buffer":0,"byteOffset":395924,"byteLength":2688,"target":34963},{"buffer":0,"byteOffset":3402900,"byteLength":2592,"target":34962},{"buffer":0,"byteOffset":45664,"byteLength":288,"target":34962},{"buffer":0,"byteOffset":45952,"byteLength":288,"target":34962},{"buffer":0,"byteOffset":46240,"byteLength":192,"target":34962},{"buffer":0,"byteOffset":46432,"byteLength":72,"target":34963},{"buffer":0,"byteOffset":46504,"byteLength":48,"target":34962},{"buffer":0,"byteOffset":46552,"byteLength":48,"target":34962},{"buffer":0,"byteOffset":170532,"byteLength":32,"target":34962},{"buffer":0,"byteOffset":46632,"byteLength":12,"target":34963},{"buffer":0,"byteOffset":46644,"byteLength":288,"target":34962},{"buffer":0,"byteOffset":3431060,"byteLength":192,"target":34962},{"buffer":0,"byteOffset":3431252,"byteLength":192,"target":34962},{"buffer":0,"byteOffset":47316,"byteLength":480,"target":34962},{"buffer":0,"byteOffset":47796,"byteLength":480,"target":34962},{"buffer":0,"byteOffset":153636,"byteLength":320,"target":34962},{"buffer":0,"byteOffset":48596,"byteLength":144,"target":34963},{"buffer":0,"byteOffset":170756,"byteLength":192,"target":34962},{"buffer":0,"byteOffset":3431444,"byteLength":192,"target":34962},{"buffer":0,"byteOffset":1112312,"byteLength":480,"target":34962},{"buffer":0,"byteOffset":1112792,"byteLength":480,"target":34962},{"buffer":0,"byteOffset":3406068,"byteLength":320,"target":34962},{"buffer":0,"byteOffset":3312972,"byteLength":1428,"target":34962},{"buffer":0,"byteOffset":427996,"byteLength":1428,"target":34962},{"buffer":0,"byteOffset":2864312,"byteLength":952,"target":34962},{"buffer":0,"byteOffset":430376,"byteLength":1152,"target":34963},{"buffer":0,"byteOffset":3406388,"byteLength":192,"target":34962},{"buffer":0,"byteOffset":3314592,"byteLength":660,"target":34962},{"buffer":0,"byteOffset":437788,"byteLength":660,"target":34962},{"buffer":0,"byteOffset":2874988,"byteLength":440,"target":34962},{"buffer":0,"byteOffset":438888,"byteLength":480,"target":34963}],"accessors":[{"bufferView":0,"componentType":5126,"count":324,"type":"VEC3","min":[-0.5,-0.5,-0.5],"max":[0.5,0.5,0.5]},{"bufferView":1,"componentType":5126,"count":324,"type":"VEC3"},{"bufferView":2,"componentType":5126,"count":324,"type":"VEC2"},{"bufferView":3,"componentType":5126,"count":324,"type":"VEC2"},{"bufferView":4,"componentType":5126,"count":100,"type":"VEC3","min":[-1,-0.5,-1],"max":[1,0.5,1]},{"bufferView":5,"componentType":5126,"count":100,"type":"VEC3"},{"bufferView":6,"componentType":5126,"count":100,"type":"VEC2"},{"bufferView":7,"componentType":5123,"count":192,"type":"SCALAR"},{"bufferView":8,"componentType":5126,"count":324,"type":"VEC2"},{"bufferView":9,"componentType":5126,"count":324,"type":"VEC2"},{"bufferView":10,"componentType":5126,"count":100,"type":"VEC3","min":[-1,-0.5,-1],"max":[1,0.5,1]},{"bufferView":11,"componentType":5126,"count":100,"type":"VEC3"},{"bufferView":12,"componentType":5126,"count":100,"type":"VEC2"},{"bufferView":13,"componentType":5126,"count":261,"type":"VEC3","min":[-1,-1,-0.10000000149011612],"max":[1,1,0.10000000149011612]},{"bufferView":14,"componentType":5126,"count":261,"type":"VEC3"},{"bufferView":15,"componentType":5126,"count":261,"type":"VEC2"},{"bufferView":16,"componentType":5123,"count":1344,"type":"SCALAR"},{"bufferView":17,"componentType":5126,"count":324,"type":"VEC2"},{"bufferView":18,"componentType":5126,"count":24,"type":"VEC3","min":[-0.5,-0.5,-0.02500000037252903],"max":[0.5,0.5,0.02500000037252903]},{"bufferView":19,"componentType":5126,"count":24,"type":"VEC3"},{"bufferView":20,"componentType":5126,"count":24,"type":"VEC2"},{"bufferView":21,"componentType":5123,"count":36,"type":"SCALAR"},{"bufferView":22,"componentType":5126,"count":4,"type":"VEC3","min":[-0.5,-0.5,0],"max":[0.5,0.5,0]},{"bufferView":23,"componentType":5126,"count":4,"type":"VEC3"},{"bufferView":24,"componentType":5126,"count":4,"type":"VEC2"},{"bufferView":25,"componentType":5123,"count":6,"type":"SCALAR"},{"bufferView":26,"componentType":5126,"count":24,"type":"VEC3","min":[-0.5,-0.5,-0.5],"max":[0.5,0.5,0.5]},{"bufferView":27,"componentType":5126,"count":24,"type":"VEC2"},{"bufferView":28,"componentType":5126,"count":24,"type":"VEC2"},{"bufferView":29,"componentType":5126,"count":40,"type":"VEC3","min":[-0.8660253882408142,-0.5,-1],"max":[0.8660253882408142,0.5,1]},{"bufferView":30,"componentType":5126,"count":40,"type":"VEC3"},{"bufferView":31,"componentType":5126,"count":40,"type":"VEC2"},{"bufferView":32,"componentType":5123,"count":72,"type":"SCALAR"},{"bufferView":33,"componentType":5126,"count":24,"type":"VEC2"},{"bufferView":34,"componentType":5126,"count":24,"type":"VEC2"},{"bufferView":35,"componentType":5126,"count":40,"type":"VEC3","min":[-0.8660253882408142,-0.5,-1],"max":[0.8660253882408142,0.5,1]},{"bufferView":36,"componentType":5126,"count":40,"type":"VEC3"},{"bufferView":37,"componentType":5126,"count":40,"type":"VEC2"},{"bufferView":38,"componentType":5126,"count":119,"type":"VEC3","min":[-1,-1,-0.08660253882408142],"max":[1,1,0.08660253882408142]},{"bufferView":39,"componentType":5126,"count":119,"type":"VEC3"},{"bufferView":40,"componentType":5126,"count":119,"type":"VEC2"},{"bufferView":41,"componentType":5123,"count":576,"type":"SCALAR"},{"bufferView":42,"componentType":5126,"count":24,"type":"VEC2"},{"bufferView":43,"componentType":5126,"count":55,"type":"VEC3","min":[-1,-0.9510565400123596,-0.10000000149011612],"max":[1,0.9510565400123596,0.10000000149011612]},{"bufferView":44,"componentType":5126,"count":55,"type":"VEC3"},{"bufferView":45,"componentType":5126,"count":55,"type":"VEC2"},{"bufferView":46,"componentType":5123,"count":240,"type":"SCALAR"}],"extensionsUsed":["KHR_materials_unlit"],"extras":{"id":"vlt-culvert-gateway-14","family":"culvert-gateway","variant":13,"plan":"C4-1","units":"metres","up":"+Y","front":"+Z","lodScenes":[0,1,2]}}