{"asset":{"version":"2.0","generator":"SLOPMERICA Department of Unnecessary Development 1.0"},"scene":0,"scenes":[{"name":"LOD 0","nodes":[0,1,2,3,4,5,6,7,8,9,10,11,12,13],"extras":{"level":0}},{"name":"LOD 1","nodes":[14,15,16,17,18,19,20,21,22,23,24,25,26,27],"extras":{"level":1}},{"name":"LOD 2","nodes":[28,29,30,31,32,33,34,35,36],"extras":{"level":2}}],"nodes":[{"name":"surveyed lot","mesh":0,"translation":[0,0.06,0],"scale":[11.44,0.12,7.92]},{"name":"fork handle","mesh":1,"translation":[0,4.46,0],"rotation":[0,0,0.049979,0.99875],"scale":[1.15,7.92,0.5]},{"name":"fork tine 0","mesh":2,"translation":[-1.05,9.24,0],"rotation":[0,0,0.049979,0.99875],"scale":[0.32,3.75,0.42]},{"name":"fork tine 1","mesh":2,"translation":[-0.35,9.24,0],"rotation":[0,0,0.049979,0.99875],"scale":[0.32,3.75,0.42]},{"name":"fork tine 2","mesh":2,"translation":[0.35,9.24,0],"rotation":[0,0,0.049979,0.99875],"scale":[0.32,3.75,0.42]},{"name":"fork tine 3","mesh":2,"translation":[1.05,9.24,0],"rotation":[0,0,0.049979,0.99875],"scale":[0.32,3.75,0.42]},{"name":"fork shoulder","mesh":3,"translation":[0,7.7,0],"scale":[3.2,0.7,0.52]},{"name":"world largest fork sign-back","mesh":4,"translation":[0,1.55,3.4],"scale":[5.5,1.6,1]},{"name":"world largest fork sign","mesh":5,"translation":[0,1.55,3.429],"scale":[5.4,1.5,1]},{"name":"selfie bollard 0","mesh":6,"translation":[-2,0.5,2],"scale":[0.22,0.9,0.22]},{"name":"selfie bollard 1","mesh":6,"translation":[-0.6,0.5,2],"scale":[0.22,0.9,0.22]},{"name":"selfie bollard 2","mesh":6,"translation":[0.8,0.5,2],"scale":[0.22,0.9,0.22]},{"name":"selfie bollard 3","mesh":6,"translation":[2.2,0.5,2],"scale":[0.22,0.9,0.22]},{"name":"selfie bollard 4","mesh":6,"translation":[3.6,0.5,2],"scale":[0.22,0.9,0.22]},{"name":"surveyed lot","mesh":7,"translation":[0,0.06,0],"scale":[11.44,0.12,7.92]},{"name":"fork handle","mesh":8,"translation":[0,4.46,0],"rotation":[0,0,0.049979,0.99875],"scale":[1.15,7.92,0.5]},{"name":"fork tine 0","mesh":9,"translation":[-1.05,9.24,0],"rotation":[0,0,0.049979,0.99875],"scale":[0.32,3.75,0.42]},{"name":"fork tine 1","mesh":9,"translation":[-0.35,9.24,0],"rotation":[0,0,0.049979,0.99875],"scale":[0.32,3.75,0.42]},{"name":"fork tine 2","mesh":9,"translation":[0.35,9.24,0],"rotation":[0,0,0.049979,0.99875],"scale":[0.32,3.75,0.42]},{"name":"fork tine 3","mesh":9,"translation":[1.05,9.24,0],"rotation":[0,0,0.049979,0.99875],"scale":[0.32,3.75,0.42]},{"name":"fork shoulder","mesh":10,"translation":[0,7.7,0],"scale":[3.2,0.7,0.52]},{"name":"world largest fork sign-back","mesh":4,"translation":[0,1.55,3.4],"scale":[5.5,1.6,1]},{"name":"world largest fork sign","mesh":5,"translation":[0,1.55,3.429],"scale":[5.4,1.5,1]},{"name":"selfie bollard 0","mesh":11,"translation":[-2,0.5,2],"scale":[0.22,0.9,0.22]},{"name":"selfie bollard 1","mesh":11,"translation":[-0.6,0.5,2],"scale":[0.22,0.9,0.22]},{"name":"selfie bollard 2","mesh":11,"translation":[0.8,0.5,2],"scale":[0.22,0.9,0.22]},{"name":"selfie bollard 3","mesh":11,"translation":[2.2,0.5,2],"scale":[0.22,0.9,0.22]},{"name":"selfie bollard 4","mesh":11,"translation":[3.6,0.5,2],"scale":[0.22,0.9,0.22]},{"name":"surveyed lot","mesh":7,"translation":[0,0.06,0],"scale":[11.44,0.12,7.92]},{"name":"fork handle","mesh":8,"translation":[0,4.46,0],"rotation":[0,0,0.049979,0.99875],"scale":[1.15,7.92,0.5]},{"name":"fork tine 0","mesh":9,"translation":[-1.05,9.24,0],"rotation":[0,0,0.049979,0.99875],"scale":[0.32,3.75,0.42]},{"name":"fork tine 1","mesh":9,"translation":[-0.35,9.24,0],"rotation":[0,0,0.049979,0.99875],"scale":[0.32,3.75,0.42]},{"name":"fork tine 2","mesh":9,"translation":[0.35,9.24,0],"rotation":[0,0,0.049979,0.99875],"scale":[0.32,3.75,0.42]},{"name":"fork tine 3","mesh":9,"translation":[1.05,9.24,0],"rotation":[0,0,0.049979,0.99875],"scale":[0.32,3.75,0.42]},{"name":"fork shoulder","mesh":10,"translation":[0,7.7,0],"scale":[3.2,0.7,0.52]},{"name":"world largest fork sign-back","mesh":4,"translation":[0,1.55,3.4],"scale":[5.5,1.6,1]},{"name":"world largest fork sign","mesh":5,"translation":[0,1.55,3.429],"scale":[5.4,1.5,1]}],"meshes":[{"primitives":[{"attributes":{"POSITION":0,"NORMAL":1,"TEXCOORD_0":2},"material":0,"mode":4}]},{"primitives":[{"attributes":{"POSITION":0,"NORMAL":1,"TEXCOORD_0":3},"material":1,"mode":4}]},{"primitives":[{"attributes":{"POSITION":0,"NORMAL":1,"TEXCOORD_0":4},"material":1,"mode":4}]},{"primitives":[{"attributes":{"POSITION":0,"NORMAL":1,"TEXCOORD_0":5},"material":1,"mode":4}]},{"primitives":[{"attributes":{"POSITION":6,"NORMAL":7,"TEXCOORD_0":8},"material":2,"mode":4,"indices":9}]},{"primitives":[{"attributes":{"POSITION":10,"NORMAL":11,"TEXCOORD_0":12},"material":3,"mode":4,"indices":13}]},{"primitives":[{"attributes":{"POSITION":0,"NORMAL":1,"TEXCOORD_0":14},"material":4,"mode":4}]},{"primitives":[{"attributes":{"POSITION":15,"NORMAL":7,"TEXCOORD_0":16},"material":0,"mode":4,"indices":9}]},{"primitives":[{"attributes":{"POSITION":15,"NORMAL":7,"TEXCOORD_0":17},"material":1,"mode":4,"indices":9}]},{"primitives":[{"attributes":{"POSITION":15,"NORMAL":7,"TEXCOORD_0":18},"material":1,"mode":4,"indices":9}]},{"primitives":[{"attributes":{"POSITION":15,"NORMAL":7,"TEXCOORD_0":19},"material":1,"mode":4,"indices":9}]},{"primitives":[{"attributes":{"POSITION":15,"NORMAL":7,"TEXCOORD_0":20},"material":4,"mode":4,"indices":9}]}],"materials":[{"name":"concrete","pbrMetallicRoughness":{"baseColorTexture":{"index":0},"metallicRoughnessTexture":{"index":2},"roughnessFactor":1,"metallicFactor":1},"normalTexture":{"index":1,"scale":0.82},"occlusionTexture":{"index":2,"strength":0.35}},{"name":"metal-galvanized","pbrMetallicRoughness":{"baseColorTexture":{"index":3},"metallicRoughnessTexture":{"index":5},"roughnessFactor":1,"metallicFactor":1},"normalTexture":{"index":4,"scale":0.15},"occlusionTexture":{"index":5,"strength":0.35}},{"name":"metal-dark","pbrMetallicRoughness":{"baseColorTexture":{"index":6},"metallicRoughnessTexture":{"index":8},"roughnessFactor":1,"metallicFactor":1},"normalTexture":{"index":7,"scale":0.35},"occlusionTexture":{"index":8,"strength":0.35}},{"name":"worlds-largest-fork signage","pbrMetallicRoughness":{"baseColorTexture":{"index":9},"roughnessFactor":1,"metallicFactor":0},"extensions":{"KHR_materials_unlit":{}}},{"name":"paint-yellow","pbrMetallicRoughness":{"baseColorFactor":[0.76052450467022,0.4793201830913402,0.07818742179702069,1],"roughnessFactor":0.66,"metallicFactor":0.03}}],"textures":[{"source":0,"sampler":0},{"source":1,"sampler":0},{"source":2,"sampler":0},{"source":3,"sampler":0},{"source":4,"sampler":0},{"source":5,"sampler":0},{"source":6,"sampler":0},{"source":7,"sampler":0},{"source":8,"sampler":0},{"source":9,"sampler":0}],"images":[{"uri":"../textures/concrete-albedo.png"},{"uri":"../textures/concrete-normal.png"},{"uri":"../textures/concrete-orm.png"},{"uri":"../textures/metal-galvanized-albedo.png"},{"uri":"../textures/metal-galvanized-normal.png"},{"uri":"../textures/metal-galvanized-orm.png"},{"uri":"../textures/metal-dark-albedo.png"},{"uri":"../textures/metal-dark-normal.png"},{"uri":"../textures/metal-dark-orm.png"},{"uri":"../signs/worlds-largest-fork.png"}],"samplers":[{"magFilter":9729,"minFilter":9987,"wrapS":10497,"wrapT":10497}],"buffers":[{"uri":"../shared/geometry.bin","byteLength":16435520}],"bufferViews":[{"buffer":0,"byteOffset":0,"byteLength":3888,"target":34962},{"buffer":0,"byteOffset":3888,"byteLength":3888,"target":34962},{"buffer":0,"byteOffset":5460672,"byteLength":2592,"target":34962},{"buffer":0,"byteOffset":16329728,"byteLength":2592,"target":34962},{"buffer":0,"byteOffset":16390976,"byteLength":2592,"target":34962},{"buffer":0,"byteOffset":16334912,"byteLength":2592,"target":34962},{"buffer":0,"byteOffset":45664,"byteLength":288,"target":34962},{"buffer":0,"byteOffset":45952,"byteLength":288,"target":34962},{"buffer":0,"byteOffset":46240,"byteLength":192,"target":34962},{"buffer":0,"byteOffset":46432,"byteLength":72,"target":34963},{"buffer":0,"byteOffset":46504,"byteLength":48,"target":34962},{"buffer":0,"byteOffset":46552,"byteLength":48,"target":34962},{"buffer":0,"byteOffset":222852,"byteLength":32,"target":34962},{"buffer":0,"byteOffset":46632,"byteLength":12,"target":34963},{"buffer":0,"byteOffset":16337504,"byteLength":2592,"target":34962},{"buffer":0,"byteOffset":46644,"byteLength":288,"target":34962},{"buffer":0,"byteOffset":5467152,"byteLength":192,"target":34962},{"buffer":0,"byteOffset":16340096,"byteLength":192,"target":34962},{"buffer":0,"byteOffset":16393568,"byteLength":192,"target":34962},{"buffer":0,"byteOffset":16340480,"byteLength":192,"target":34962},{"buffer":0,"byteOffset":16340672,"byteLength":192,"target":34962}],"accessors":[{"bufferView":0,"componentType":5126,"count":324,"type":"VEC3","min":[-0.5,-0.5,-0.5],"max":[0.5,0.5,0.5]},{"bufferView":1,"componentType":5126,"count":324,"type":"VEC3"},{"bufferView":2,"componentType":5126,"count":324,"type":"VEC2"},{"bufferView":3,"componentType":5126,"count":324,"type":"VEC2"},{"bufferView":4,"componentType":5126,"count":324,"type":"VEC2"},{"bufferView":5,"componentType":5126,"count":324,"type":"VEC2"},{"bufferView":6,"componentType":5126,"count":24,"type":"VEC3","min":[-0.5,-0.5,-0.02500000037252903],"max":[0.5,0.5,0.02500000037252903]},{"bufferView":7,"componentType":5126,"count":24,"type":"VEC3"},{"bufferView":8,"componentType":5126,"count":24,"type":"VEC2"},{"bufferView":9,"componentType":5123,"count":36,"type":"SCALAR"},{"bufferView":10,"componentType":5126,"count":4,"type":"VEC3","min":[-0.5,-0.5,0],"max":[0.5,0.5,0]},{"bufferView":11,"componentType":5126,"count":4,"type":"VEC3"},{"bufferView":12,"componentType":5126,"count":4,"type":"VEC2"},{"bufferView":13,"componentType":5123,"count":6,"type":"SCALAR"},{"bufferView":14,"componentType":5126,"count":324,"type":"VEC2"},{"bufferView":15,"componentType":5126,"count":24,"type":"VEC3","min":[-0.5,-0.5,-0.5],"max":[0.5,0.5,0.5]},{"bufferView":16,"componentType":5126,"count":24,"type":"VEC2"},{"bufferView":17,"componentType":5126,"count":24,"type":"VEC2"},{"bufferView":18,"componentType":5126,"count":24,"type":"VEC2"},{"bufferView":19,"componentType":5126,"count":24,"type":"VEC2"},{"bufferView":20,"componentType":5126,"count":24,"type":"VEC2"}],"extensionsUsed":["KHR_materials_unlit"],"extras":{"id":"vlt-worlds-largest-fork-36","family":"worlds-largest-fork","variant":35,"plan":"D1-2","units":"metres","up":"+Y","front":"+Z","lodScenes":[0,1,2]}}