{"asset":{"version":"2.0","generator":"SLOPMERICA Department of Unnecessary Development 1.0"},"scene":0,"scenes":[{"name":"LOD 0","nodes":[0,1,2,3,4,5,6,7,8,9,10,11,12,13,14,15,16,17,18],"extras":{"level":0}},{"name":"LOD 1","nodes":[19,20,21,22,23,24,25,26,27,28,29,30,31,32,33,34,35,36,37],"extras":{"level":1}},{"name":"LOD 2","nodes":[38,39,40,41,42,43,44,45,46,47,48,49,50],"extras":{"level":2}}],"nodes":[{"name":"site-pad","mesh":0,"translation":[0,0.06,0],"scale":[8.2368,0.12,7.3216]},{"name":"variant-apron","mesh":1,"translation":[1.5444,0.13,3.74],"scale":[1.7424,0.08,1.34]},{"name":"bollard-0","mesh":2,"translation":[-3.0096,0.43,3.86],"scale":[0.08,0.74,0.08]},{"name":"layout-cabinet","mesh":3,"translation":[4.16,0.495,1.584],"scale":[0.81,0.75,0.32]},{"name":"deferred-maintenance-skip","mesh":4,"translation":[-2.6928,0.5,-3.0976],"scale":[1.15,0.75,0.65]},{"name":"skip-rubble","mesh":5,"translation":[-2.6928,0.98,-3.0976],"rotation":[0,0.29552,0,0.955336],"scale":[0.72,0.2,0.5]},{"name":"civic-shell","mesh":6,"translation":[0,1.812,0],"scale":[7.92,3.384,7.04]},{"name":"flat-budget-roof","mesh":7,"translation":[0,3.634,0],"scale":[8.22,0.25,7.34]},{"name":"entrance-recess","mesh":8,"translation":[1.9008,1.42,3.65],"scale":[2,2.6,0.24]},{"name":"glass-doors","mesh":9,"translation":[1.9008,1.3,3.8],"scale":[1.5,2.15,0.12]},{"name":"window-0","mesh":10,"translation":[-3.0096,1.96272,3.67],"scale":[0.85,1.15,0.1]},{"name":"civic-sign-back","mesh":11,"translation":[0,2.664,3.7],"scale":[5.0104,1,1]},{"name":"civic-sign","mesh":12,"translation":[0,2.664,3.729],"scale":[4.9104,0.9,1]},{"name":"records-vault","mesh":13,"translation":[1.98,1.37,-1.408],"scale":[3.0096,2.5,2.6752]},{"name":"window-slit-0","mesh":14,"translation":[-1.2,2.7,3.71],"scale":[0.65,0.25,0.12]},{"name":"window-slit-1","mesh":14,"translation":[-0.4,2.7,3.71],"scale":[0.65,0.25,0.12]},{"name":"window-slit-2","mesh":14,"translation":[0.4,2.7,3.71],"scale":[0.65,0.25,0.12]},{"name":"window-slit-3","mesh":14,"translation":[1.2,2.7,3.71],"scale":[0.65,0.25,0.12]},{"name":"window-slit-4","mesh":14,"translation":[2,2.7,3.71],"scale":[0.65,0.25,0.12]},{"name":"site-pad","mesh":15,"translation":[0,0.06,0],"scale":[8.2368,0.12,7.3216]},{"name":"variant-apron","mesh":16,"translation":[1.5444,0.13,3.74],"scale":[1.7424,0.08,1.34]},{"name":"bollard-0","mesh":17,"translation":[-3.0096,0.43,3.86],"scale":[0.08,0.74,0.08]},{"name":"layout-cabinet","mesh":18,"translation":[4.16,0.495,1.584],"scale":[0.81,0.75,0.32]},{"name":"deferred-maintenance-skip","mesh":19,"translation":[-2.6928,0.5,-3.0976],"scale":[1.15,0.75,0.65]},{"name":"skip-rubble","mesh":20,"translation":[-2.6928,0.98,-3.0976],"rotation":[0,0.29552,0,0.955336],"scale":[0.72,0.2,0.5]},{"name":"civic-shell","mesh":21,"translation":[0,1.812,0],"scale":[7.92,3.384,7.04]},{"name":"flat-budget-roof","mesh":22,"translation":[0,3.634,0],"scale":[8.22,0.25,7.34]},{"name":"entrance-recess","mesh":23,"translation":[1.9008,1.42,3.65],"scale":[2,2.6,0.24]},{"name":"glass-doors","mesh":24,"translation":[1.9008,1.3,3.8],"scale":[1.5,2.15,0.12]},{"name":"window-0","mesh":25,"translation":[-3.0096,1.96272,3.67],"scale":[0.85,1.15,0.1]},{"name":"civic-sign-back","mesh":11,"translation":[0,2.664,3.7],"scale":[5.0104,1,1]},{"name":"civic-sign","mesh":12,"translation":[0,2.664,3.729],"scale":[4.9104,0.9,1]},{"name":"records-vault","mesh":26,"translation":[1.98,1.37,-1.408],"scale":[3.0096,2.5,2.6752]},{"name":"window-slit-0","mesh":27,"translation":[-1.2,2.7,3.71],"scale":[0.65,0.25,0.12]},{"name":"window-slit-1","mesh":27,"translation":[-0.4,2.7,3.71],"scale":[0.65,0.25,0.12]},{"name":"window-slit-2","mesh":27,"translation":[0.4,2.7,3.71],"scale":[0.65,0.25,0.12]},{"name":"window-slit-3","mesh":27,"translation":[1.2,2.7,3.71],"scale":[0.65,0.25,0.12]},{"name":"window-slit-4","mesh":27,"translation":[2,2.7,3.71],"scale":[0.65,0.25,0.12]},{"name":"site-pad","mesh":15,"translation":[0,0.06,0],"scale":[8.2368,0.12,7.3216]},{"name":"variant-apron","mesh":16,"translation":[1.5444,0.13,3.74],"scale":[1.7424,0.08,1.34]},{"name":"bollard-0","mesh":17,"translation":[-3.0096,0.43,3.86],"scale":[0.08,0.74,0.08]},{"name":"layout-cabinet","mesh":18,"translation":[4.16,0.495,1.584],"scale":[0.81,0.75,0.32]},{"name":"deferred-maintenance-skip","mesh":19,"translation":[-2.6928,0.5,-3.0976],"scale":[1.15,0.75,0.65]},{"name":"civic-shell","mesh":21,"translation":[0,1.812,0],"scale":[7.92,3.384,7.04]},{"name":"flat-budget-roof","mesh":22,"translation":[0,3.634,0],"scale":[8.22,0.25,7.34]},{"name":"entrance-recess","mesh":23,"translation":[1.9008,1.42,3.65],"scale":[2,2.6,0.24]},{"name":"glass-doors","mesh":24,"translation":[1.9008,1.3,3.8],"scale":[1.5,2.15,0.12]},{"name":"civic-sign-back","mesh":11,"translation":[0,2.664,3.7],"scale":[5.0104,1,1]},{"name":"civic-sign","mesh":12,"translation":[0,2.664,3.729],"scale":[4.9104,0.9,1]},{"name":"records-vault","mesh":26,"translation":[1.98,1.37,-1.408],"scale":[3.0096,2.5,2.6752]},{"name":"window-slit-0","mesh":27,"translation":[-1.2,2.7,3.71],"scale":[0.65,0.25,0.12]}],"meshes":[{"primitives":[{"attributes":{"POSITION":0,"NORMAL":1,"TEXCOORD_0":2},"material":0,"mode":4}]},{"primitives":[{"attributes":{"POSITION":0,"NORMAL":1,"TEXCOORD_0":3},"material":1,"mode":4}]},{"primitives":[{"attributes":{"POSITION":4,"NORMAL":5,"TEXCOORD_0":6},"material":2,"mode":4,"indices":7}]},{"primitives":[{"attributes":{"POSITION":0,"NORMAL":1,"TEXCOORD_0":8},"material":3,"mode":4}]},{"primitives":[{"attributes":{"POSITION":0,"NORMAL":1,"TEXCOORD_0":9},"material":2,"mode":4}]},{"primitives":[{"attributes":{"POSITION":0,"NORMAL":1,"TEXCOORD_0":10},"material":0,"mode":4}]},{"primitives":[{"attributes":{"POSITION":11,"NORMAL":1,"TEXCOORD_0":12},"material":0,"mode":4}]},{"primitives":[{"attributes":{"POSITION":0,"NORMAL":1,"TEXCOORD_0":13},"material":0,"mode":4}]},{"primitives":[{"attributes":{"POSITION":0,"NORMAL":1,"TEXCOORD_0":14},"material":4,"mode":4}]},{"primitives":[{"attributes":{"POSITION":0,"NORMAL":1,"TEXCOORD_0":15},"material":5,"mode":4}]},{"primitives":[{"attributes":{"POSITION":0,"NORMAL":1,"TEXCOORD_0":16},"material":5,"mode":4}]},{"primitives":[{"attributes":{"POSITION":17,"NORMAL":18,"TEXCOORD_0":19},"material":4,"mode":4,"indices":20}]},{"primitives":[{"attributes":{"POSITION":21,"NORMAL":22,"TEXCOORD_0":23},"material":6,"mode":4,"indices":24}]},{"primitives":[{"attributes":{"POSITION":25,"NORMAL":1,"TEXCOORD_0":26},"material":4,"mode":4}]},{"primitives":[{"attributes":{"POSITION":0,"NORMAL":1,"TEXCOORD_0":27},"material":5,"mode":4}]},{"primitives":[{"attributes":{"POSITION":28,"NORMAL":18,"TEXCOORD_0":29},"material":0,"mode":4,"indices":20}]},{"primitives":[{"attributes":{"POSITION":28,"NORMAL":18,"TEXCOORD_0":30},"material":1,"mode":4,"indices":20}]},{"primitives":[{"attributes":{"POSITION":31,"NORMAL":32,"TEXCOORD_0":33},"material":2,"mode":4,"indices":34}]},{"primitives":[{"attributes":{"POSITION":28,"NORMAL":18,"TEXCOORD_0":35},"material":3,"mode":4,"indices":20}]},{"primitives":[{"attributes":{"POSITION":28,"NORMAL":18,"TEXCOORD_0":36},"material":2,"mode":4,"indices":20}]},{"primitives":[{"attributes":{"POSITION":28,"NORMAL":18,"TEXCOORD_0":37},"material":0,"mode":4,"indices":20}]},{"primitives":[{"attributes":{"POSITION":28,"NORMAL":18,"TEXCOORD_0":38},"material":0,"mode":4,"indices":20}]},{"primitives":[{"attributes":{"POSITION":28,"NORMAL":18,"TEXCOORD_0":39},"material":0,"mode":4,"indices":20}]},{"primitives":[{"attributes":{"POSITION":28,"NORMAL":18,"TEXCOORD_0":40},"material":4,"mode":4,"indices":20}]},{"primitives":[{"attributes":{"POSITION":28,"NORMAL":18,"TEXCOORD_0":41},"material":5,"mode":4,"indices":20}]},{"primitives":[{"attributes":{"POSITION":28,"NORMAL":18,"TEXCOORD_0":42},"material":5,"mode":4,"indices":20}]},{"primitives":[{"attributes":{"POSITION":28,"NORMAL":18,"TEXCOORD_0":43},"material":4,"mode":4,"indices":20}]},{"primitives":[{"attributes":{"POSITION":28,"NORMAL":18,"TEXCOORD_0":44},"material":5,"mode":4,"indices":20}]}],"materials":[{"name":"concrete","pbrMetallicRoughness":{"baseColorTexture":{"index":0},"metallicRoughnessTexture":{"index":2},"roughnessFactor":1,"metallicFactor":1},"normalTexture":{"index":1,"scale":0.82},"occlusionTexture":{"index":2,"strength":0.35}},{"name":"asphalt","pbrMetallicRoughness":{"baseColorTexture":{"index":3},"metallicRoughnessTexture":{"index":5},"roughnessFactor":1,"metallicFactor":1},"normalTexture":{"index":4,"scale":0.62},"occlusionTexture":{"index":5,"strength":0.35}},{"name":"paint-orange","pbrMetallicRoughness":{"baseColorFactor":[0.6444796819634361,0.1878207722902346,0.040915196900556984,1],"roughnessFactor":0.68,"metallicFactor":0.03}},{"name":"metal-galvanized","pbrMetallicRoughness":{"baseColorTexture":{"index":6},"metallicRoughnessTexture":{"index":8},"roughnessFactor":1,"metallicFactor":1},"normalTexture":{"index":7,"scale":0.15},"occlusionTexture":{"index":8,"strength":0.35}},{"name":"metal-dark","pbrMetallicRoughness":{"baseColorTexture":{"index":9},"metallicRoughnessTexture":{"index":11},"roughnessFactor":1,"metallicFactor":1},"normalTexture":{"index":10,"scale":0.35},"occlusionTexture":{"index":11,"strength":0.35}},{"name":"glass-blue","pbrMetallicRoughness":{"baseColorTexture":{"index":12},"metallicRoughnessTexture":{"index":14},"roughnessFactor":1,"metallicFactor":1},"normalTexture":{"index":13,"scale":0.12},"occlusionTexture":{"index":14,"strength":0.35}},{"name":"tax-assessor-bunker signage","pbrMetallicRoughness":{"baseColorTexture":{"index":15},"roughnessFactor":1,"metallicFactor":0},"extensions":{"KHR_materials_unlit":{}}}],"textures":[{"source":0,"sampler":0},{"source":1,"sampler":0},{"source":2,"sampler":0},{"source":3,"sampler":0},{"source":4,"sampler":0},{"source":5,"sampler":0},{"source":6,"sampler":0},{"source":7,"sampler":0},{"source":8,"sampler":0},{"source":9,"sampler":0},{"source":10,"sampler":0},{"source":11,"sampler":0},{"source":12,"sampler":0},{"source":13,"sampler":0},{"source":14,"sampler":0},{"source":15,"sampler":0}],"images":[{"uri":"../textures/concrete-albedo.png"},{"uri":"../textures/concrete-normal.png"},{"uri":"../textures/concrete-orm.png"},{"uri":"../textures/asphalt-albedo.png"},{"uri":"../textures/asphalt-normal.png"},{"uri":"../textures/asphalt-orm.png"},{"uri":"../textures/metal-galvanized-albedo.png"},{"uri":"../textures/metal-galvanized-normal.png"},{"uri":"../textures/metal-galvanized-orm.png"},{"uri":"../textures/metal-dark-albedo.png"},{"uri":"../textures/metal-dark-normal.png"},{"uri":"../textures/metal-dark-orm.png"},{"uri":"../textures/glass-blue-albedo.png"},{"uri":"../textures/glass-blue-normal.png"},{"uri":"../textures/glass-blue-orm.png"},{"uri":"../signs/tax-assessor-bunker.png"}],"samplers":[{"magFilter":9729,"minFilter":9987,"wrapS":10497,"wrapT":10497}],"buffers":[{"uri":"../shared/geometry.bin","byteLength":16435520}],"bufferViews":[{"buffer":0,"byteOffset":0,"byteLength":3888,"target":34962},{"buffer":0,"byteOffset":3888,"byteLength":3888,"target":34962},{"buffer":0,"byteOffset":14286436,"byteLength":2592,"target":34962},{"buffer":0,"byteOffset":14369956,"byteLength":2592,"target":34962},{"buffer":0,"byteOffset":12960,"byteLength":1200,"target":34962},{"buffer":0,"byteOffset":14160,"byteLength":1200,"target":34962},{"buffer":0,"byteOffset":179140,"byteLength":800,"target":34962},{"buffer":0,"byteOffset":16160,"byteLength":384,"target":34963},{"buffer":0,"byteOffset":179940,"byteLength":2592,"target":34962},{"buffer":0,"byteOffset":205668,"byteLength":2592,"target":34962},{"buffer":0,"byteOffset":208260,"byteLength":2592,"target":34962},{"buffer":0,"byteOffset":868536,"byteLength":3888,"target":34962},{"buffer":0,"byteOffset":14291620,"byteLength":2592,"target":34962},{"buffer":0,"byteOffset":14294212,"byteLength":2592,"target":34962},{"buffer":0,"byteOffset":3897180,"byteLength":2592,"target":34962},{"buffer":0,"byteOffset":3899772,"byteLength":2592,"target":34962},{"buffer":0,"byteOffset":3902364,"byteLength":2592,"target":34962},{"buffer":0,"byteOffset":45664,"byteLength":288,"target":34962},{"buffer":0,"byteOffset":45952,"byteLength":288,"target":34962},{"buffer":0,"byteOffset":46240,"byteLength":192,"target":34962},{"buffer":0,"byteOffset":46432,"byteLength":72,"target":34963},{"buffer":0,"byteOffset":46504,"byteLength":48,"target":34962},{"buffer":0,"byteOffset":46552,"byteLength":48,"target":34962},{"buffer":0,"byteOffset":222852,"byteLength":32,"target":34962},{"buffer":0,"byteOffset":46632,"byteLength":12,"target":34963},{"buffer":0,"byteOffset":822696,"byteLength":3888,"target":34962},{"buffer":0,"byteOffset":14296804,"byteLength":2592,"target":34962},{"buffer":0,"byteOffset":14299396,"byteLength":2592,"target":34962},{"buffer":0,"byteOffset":46644,"byteLength":288,"target":34962},{"buffer":0,"byteOffset":14301988,"byteLength":192,"target":34962},{"buffer":0,"byteOffset":14372548,"byteLength":192,"target":34962},{"buffer":0,"byteOffset":47316,"byteLength":480,"target":34962},{"buffer":0,"byteOffset":47796,"byteLength":480,"target":34962},{"buffer":0,"byteOffset":182756,"byteLength":320,"target":34962},{"buffer":0,"byteOffset":48596,"byteLength":144,"target":34963},{"buffer":0,"byteOffset":183076,"byteLength":192,"target":34962},{"buffer":0,"byteOffset":210884,"byteLength":192,"target":34962},{"buffer":0,"byteOffset":211076,"byteLength":192,"target":34962},{"buffer":0,"byteOffset":14302372,"byteLength":192,"target":34962},{"buffer":0,"byteOffset":14302564,"byteLength":192,"target":34962},{"buffer":0,"byteOffset":3910908,"byteLength":192,"target":34962},{"buffer":0,"byteOffset":3911100,"byteLength":192,"target":34962},{"buffer":0,"byteOffset":3911292,"byteLength":192,"target":34962},{"buffer":0,"byteOffset":14302756,"byteLength":192,"target":34962},{"buffer":0,"byteOffset":14302948,"byteLength":192,"target":34962}],"accessors":[{"bufferView":0,"componentType":5126,"count":324,"type":"VEC3","min":[-0.5,-0.5,-0.5],"max":[0.5,0.5,0.5]},{"bufferView":1,"componentType":5126,"count":324,"type":"VEC3"},{"bufferView":2,"componentType":5126,"count":324,"type":"VEC2"},{"bufferView":3,"componentType":5126,"count":324,"type":"VEC2"},{"bufferView":4,"componentType":5126,"count":100,"type":"VEC3","min":[-1,-0.5,-1],"max":[1,0.5,1]},{"bufferView":5,"componentType":5126,"count":100,"type":"VEC3"},{"bufferView":6,"componentType":5126,"count":100,"type":"VEC2"},{"bufferView":7,"componentType":5123,"count":192,"type":"SCALAR"},{"bufferView":8,"componentType":5126,"count":324,"type":"VEC2"},{"bufferView":9,"componentType":5126,"count":324,"type":"VEC2"},{"bufferView":10,"componentType":5126,"count":324,"type":"VEC2"},{"bufferView":11,"componentType":5126,"count":324,"type":"VEC3","min":[-0.5,-0.5,-0.5],"max":[0.5,0.5,0.5]},{"bufferView":12,"componentType":5126,"count":324,"type":"VEC2"},{"bufferView":13,"componentType":5126,"count":324,"type":"VEC2"},{"bufferView":14,"componentType":5126,"count":324,"type":"VEC2"},{"bufferView":15,"componentType":5126,"count":324,"type":"VEC2"},{"bufferView":16,"componentType":5126,"count":324,"type":"VEC2"},{"bufferView":17,"componentType":5126,"count":24,"type":"VEC3","min":[-0.5,-0.5,-0.02500000037252903],"max":[0.5,0.5,0.02500000037252903]},{"bufferView":18,"componentType":5126,"count":24,"type":"VEC3"},{"bufferView":19,"componentType":5126,"count":24,"type":"VEC2"},{"bufferView":20,"componentType":5123,"count":36,"type":"SCALAR"},{"bufferView":21,"componentType":5126,"count":4,"type":"VEC3","min":[-0.5,-0.5,0],"max":[0.5,0.5,0]},{"bufferView":22,"componentType":5126,"count":4,"type":"VEC3"},{"bufferView":23,"componentType":5126,"count":4,"type":"VEC2"},{"bufferView":24,"componentType":5123,"count":6,"type":"SCALAR"},{"bufferView":25,"componentType":5126,"count":324,"type":"VEC3","min":[-0.5,-0.5,-0.5],"max":[0.5,0.5,0.5]},{"bufferView":26,"componentType":5126,"count":324,"type":"VEC2"},{"bufferView":27,"componentType":5126,"count":324,"type":"VEC2"},{"bufferView":28,"componentType":5126,"count":24,"type":"VEC3","min":[-0.5,-0.5,-0.5],"max":[0.5,0.5,0.5]},{"bufferView":29,"componentType":5126,"count":24,"type":"VEC2"},{"bufferView":30,"componentType":5126,"count":24,"type":"VEC2"},{"bufferView":31,"componentType":5126,"count":40,"type":"VEC3","min":[-0.8660253882408142,-0.5,-1],"max":[0.8660253882408142,0.5,1]},{"bufferView":32,"componentType":5126,"count":40,"type":"VEC3"},{"bufferView":33,"componentType":5126,"count":40,"type":"VEC2"},{"bufferView":34,"componentType":5123,"count":72,"type":"SCALAR"},{"bufferView":35,"componentType":5126,"count":24,"type":"VEC2"},{"bufferView":36,"componentType":5126,"count":24,"type":"VEC2"},{"bufferView":37,"componentType":5126,"count":24,"type":"VEC2"},{"bufferView":38,"componentType":5126,"count":24,"type":"VEC2"},{"bufferView":39,"componentType":5126,"count":24,"type":"VEC2"},{"bufferView":40,"componentType":5126,"count":24,"type":"VEC2"},{"bufferView":41,"componentType":5126,"count":24,"type":"VEC2"},{"bufferView":42,"componentType":5126,"count":24,"type":"VEC2"},{"bufferView":43,"componentType":5126,"count":24,"type":"VEC2"},{"bufferView":44,"componentType":5126,"count":24,"type":"VEC2"}],"extensionsUsed":["KHR_materials_unlit"],"extras":{"id":"vlt-tax-assessor-bunker-36","family":"tax-assessor-bunker","variant":35,"plan":"D1-2","units":"metres","up":"+Y","front":"+Z","lodScenes":[0,1,2]}}