{"asset":{"version":"2.0","generator":"SLOPMERICA Department of Unnecessary Development 1.0"},"scene":0,"scenes":[{"name":"LOD 0","nodes":[0,1,2,3,4,5,6,7,8,9,10,11,12,13,14,15,16,17,18,19,20,21],"extras":{"level":0}},{"name":"LOD 1","nodes":[22,23,24,25,26,27,28,29,30,31,32,33,34,35,36,37,38,39,40,41,42,43],"extras":{"level":1}},{"name":"LOD 2","nodes":[44,45,46,47,48,49,50,51,52,53,54,55,56],"extras":{"level":2}}],"nodes":[{"name":"site-pad","mesh":0,"translation":[0,0.06,0],"scale":[25.9584,0.12,3.12]},{"name":"variant-apron","mesh":1,"translation":[-1.6224,0.13,1.72],"scale":[7.9872,0.08,0.98]},{"name":"bollard-0","mesh":2,"translation":[-9.4848,0.43,1.84],"scale":[0.08,0.66,0.08]},{"name":"bollard-1","mesh":2,"translation":[-4.7424,0.43,1.84],"scale":[0.08,0.66,0.08]},{"name":"bollard-2","mesh":2,"translation":[0,0.43,1.84],"scale":[0.08,0.66,0.08]},{"name":"bollard-3","mesh":2,"translation":[4.7424,0.43,1.84],"scale":[0.08,0.66,0.08]},{"name":"bollard-4","mesh":2,"translation":[9.4848,0.43,1.84],"scale":[0.08,0.66,0.08]},{"name":"layout-cabinet","mesh":3,"translation":[12.68,0.615,-0.225],"scale":[0.57,0.99,0.32]},{"name":"walkway","mesh":4,"translation":[0,5.85,0],"scale":[24.96,0.35,2]},{"name":"tower--12.48","mesh":5,"translation":[-12.48,2.925,0],"scale":[2,5.85,2]},{"name":"tower-12.48","mesh":5,"translation":[12.48,2.925,0],"scale":[2,5.85,2]},{"name":"cage-rib-0","mesh":6,"translation":[-9.4848,6.9,0],"scale":[0.08,1.9,2.15]},{"name":"cage-rib-1","mesh":6,"translation":[-6.3232,6.9,0],"scale":[0.08,1.9,2.15]},{"name":"cage-rib-2","mesh":6,"translation":[-3.1616,6.9,0],"scale":[0.08,1.9,2.15]},{"name":"cage-rib-3","mesh":6,"translation":[0,6.9,0],"scale":[0.08,1.9,2.15]},{"name":"cage-rib-4","mesh":6,"translation":[3.1616,6.9,0],"scale":[0.08,1.9,2.15]},{"name":"cage-rib-5","mesh":6,"translation":[6.3232,6.9,0],"scale":[0.08,1.9,2.15]},{"name":"cage-rib-6","mesh":6,"translation":[9.4848,6.9,0],"scale":[0.08,1.9,2.15]},{"name":"stair-a","mesh":7,"translation":[-10.4832,2.808,1.2],"rotation":[0,0,0.17903,0.983844],"scale":[5.4912,0.35,1.5]},{"name":"stair-b","mesh":7,"translation":[10.4832,2.808,-1.2],"rotation":[0,0,-0.17903,0.983844],"scale":[5.4912,0.35,1.5]},{"name":"crossing-sign-back","mesh":8,"translation":[0,7.4,1.15],"scale":[3.9,0.9,1]},{"name":"crossing-sign","mesh":9,"translation":[0,7.4,1.179],"scale":[3.8,0.8,1]},{"name":"site-pad","mesh":10,"translation":[0,0.06,0],"scale":[25.9584,0.12,3.12]},{"name":"variant-apron","mesh":11,"translation":[-1.6224,0.13,1.72],"scale":[7.9872,0.08,0.98]},{"name":"bollard-0","mesh":12,"translation":[-9.4848,0.43,1.84],"scale":[0.08,0.66,0.08]},{"name":"bollard-1","mesh":12,"translation":[-4.7424,0.43,1.84],"scale":[0.08,0.66,0.08]},{"name":"bollard-2","mesh":12,"translation":[0,0.43,1.84],"scale":[0.08,0.66,0.08]},{"name":"bollard-3","mesh":12,"translation":[4.7424,0.43,1.84],"scale":[0.08,0.66,0.08]},{"name":"bollard-4","mesh":12,"translation":[9.4848,0.43,1.84],"scale":[0.08,0.66,0.08]},{"name":"layout-cabinet","mesh":13,"translation":[12.68,0.615,-0.225],"scale":[0.57,0.99,0.32]},{"name":"walkway","mesh":14,"translation":[0,5.85,0],"scale":[24.96,0.35,2]},{"name":"tower--12.48","mesh":15,"translation":[-12.48,2.925,0],"scale":[2,5.85,2]},{"name":"tower-12.48","mesh":15,"translation":[12.48,2.925,0],"scale":[2,5.85,2]},{"name":"cage-rib-0","mesh":16,"translation":[-9.4848,6.9,0],"scale":[0.08,1.9,2.15]},{"name":"cage-rib-1","mesh":16,"translation":[-6.3232,6.9,0],"scale":[0.08,1.9,2.15]},{"name":"cage-rib-2","mesh":16,"translation":[-3.1616,6.9,0],"scale":[0.08,1.9,2.15]},{"name":"cage-rib-3","mesh":16,"translation":[0,6.9,0],"scale":[0.08,1.9,2.15]},{"name":"cage-rib-4","mesh":16,"translation":[3.1616,6.9,0],"scale":[0.08,1.9,2.15]},{"name":"cage-rib-5","mesh":16,"translation":[6.3232,6.9,0],"scale":[0.08,1.9,2.15]},{"name":"cage-rib-6","mesh":16,"translation":[9.4848,6.9,0],"scale":[0.08,1.9,2.15]},{"name":"stair-a","mesh":17,"translation":[-10.4832,2.808,1.2],"rotation":[0,0,0.17903,0.983844],"scale":[5.4912,0.35,1.5]},{"name":"stair-b","mesh":17,"translation":[10.4832,2.808,-1.2],"rotation":[0,0,-0.17903,0.983844],"scale":[5.4912,0.35,1.5]},{"name":"crossing-sign-back","mesh":8,"translation":[0,7.4,1.15],"scale":[3.9,0.9,1]},{"name":"crossing-sign","mesh":9,"translation":[0,7.4,1.179],"scale":[3.8,0.8,1]},{"name":"site-pad","mesh":10,"translation":[0,0.06,0],"scale":[25.9584,0.12,3.12]},{"name":"variant-apron","mesh":11,"translation":[-1.6224,0.13,1.72],"scale":[7.9872,0.08,0.98]},{"name":"bollard-0","mesh":12,"translation":[-9.4848,0.43,1.84],"scale":[0.08,0.66,0.08]},{"name":"layout-cabinet","mesh":13,"translation":[12.68,0.615,-0.225],"scale":[0.57,0.99,0.32]},{"name":"walkway","mesh":14,"translation":[0,5.85,0],"scale":[24.96,0.35,2]},{"name":"tower--12.48","mesh":15,"translation":[-12.48,2.925,0],"scale":[2,5.85,2]},{"name":"tower-12.48","mesh":15,"translation":[12.48,2.925,0],"scale":[2,5.85,2]},{"name":"cage-rib-0","mesh":16,"translation":[-9.4848,6.9,0],"scale":[0.08,1.9,2.15]},{"name":"cage-rib-1","mesh":16,"translation":[9.4848,6.9,0],"scale":[0.08,1.9,2.15]},{"name":"stair-a","mesh":17,"translation":[-10.4832,2.808,1.2],"rotation":[0,0,0.17903,0.983844],"scale":[5.4912,0.35,1.5]},{"name":"stair-b","mesh":17,"translation":[10.4832,2.808,-1.2],"rotation":[0,0,-0.17903,0.983844],"scale":[5.4912,0.35,1.5]},{"name":"crossing-sign-back","mesh":8,"translation":[0,7.4,1.15],"scale":[3.9,0.9,1]},{"name":"crossing-sign","mesh":9,"translation":[0,7.4,1.179],"scale":[3.8,0.8,1]}],"meshes":[{"primitives":[{"attributes":{"POSITION":0,"NORMAL":1,"TEXCOORD_0":2},"material":0,"mode":4}]},{"primitives":[{"attributes":{"POSITION":0,"NORMAL":1,"TEXCOORD_0":3},"material":0,"mode":4}]},{"primitives":[{"attributes":{"POSITION":4,"NORMAL":5,"TEXCOORD_0":6},"material":1,"mode":4,"indices":7}]},{"primitives":[{"attributes":{"POSITION":0,"NORMAL":1,"TEXCOORD_0":8},"material":2,"mode":4}]},{"primitives":[{"attributes":{"POSITION":0,"NORMAL":1,"TEXCOORD_0":9},"material":3,"mode":4}]},{"primitives":[{"attributes":{"POSITION":10,"NORMAL":1,"TEXCOORD_0":11},"material":2,"mode":4}]},{"primitives":[{"attributes":{"POSITION":0,"NORMAL":1,"TEXCOORD_0":12},"material":4,"mode":4}]},{"primitives":[{"attributes":{"POSITION":0,"NORMAL":1,"TEXCOORD_0":13},"material":3,"mode":4}]},{"primitives":[{"attributes":{"POSITION":14,"NORMAL":15,"TEXCOORD_0":16},"material":4,"mode":4,"indices":17}]},{"primitives":[{"attributes":{"POSITION":18,"NORMAL":19,"TEXCOORD_0":20},"material":5,"mode":4,"indices":21}]},{"primitives":[{"attributes":{"POSITION":22,"NORMAL":15,"TEXCOORD_0":23},"material":0,"mode":4,"indices":17}]},{"primitives":[{"attributes":{"POSITION":22,"NORMAL":15,"TEXCOORD_0":24},"material":0,"mode":4,"indices":17}]},{"primitives":[{"attributes":{"POSITION":25,"NORMAL":26,"TEXCOORD_0":27},"material":1,"mode":4,"indices":28}]},{"primitives":[{"attributes":{"POSITION":22,"NORMAL":15,"TEXCOORD_0":29},"material":2,"mode":4,"indices":17}]},{"primitives":[{"attributes":{"POSITION":22,"NORMAL":15,"TEXCOORD_0":30},"material":3,"mode":4,"indices":17}]},{"primitives":[{"attributes":{"POSITION":22,"NORMAL":15,"TEXCOORD_0":31},"material":2,"mode":4,"indices":17}]},{"primitives":[{"attributes":{"POSITION":22,"NORMAL":15,"TEXCOORD_0":32},"material":4,"mode":4,"indices":17}]},{"primitives":[{"attributes":{"POSITION":22,"NORMAL":15,"TEXCOORD_0":33},"material":3,"mode":4,"indices":17}]}],"materials":[{"name":"asphalt","pbrMetallicRoughness":{"baseColorTexture":{"index":0},"metallicRoughnessTexture":{"index":2},"roughnessFactor":1,"metallicFactor":1},"normalTexture":{"index":1,"scale":0.62},"occlusionTexture":{"index":2,"strength":0.35}},{"name":"paint-yellow","pbrMetallicRoughness":{"baseColorFactor":[0.76052450467022,0.4793201830913402,0.07818742179702069,1],"roughnessFactor":0.66,"metallicFactor":0.03}},{"name":"metal-galvanized","pbrMetallicRoughness":{"baseColorTexture":{"index":3},"metallicRoughnessTexture":{"index":5},"roughnessFactor":1,"metallicFactor":1},"normalTexture":{"index":4,"scale":0.15},"occlusionTexture":{"index":5,"strength":0.35}},{"name":"concrete","pbrMetallicRoughness":{"baseColorTexture":{"index":6},"metallicRoughnessTexture":{"index":8},"roughnessFactor":1,"metallicFactor":1},"normalTexture":{"index":7,"scale":0.82},"occlusionTexture":{"index":8,"strength":0.35}},{"name":"metal-dark","pbrMetallicRoughness":{"baseColorTexture":{"index":9},"metallicRoughnessTexture":{"index":11},"roughnessFactor":1,"metallicFactor":1},"normalTexture":{"index":10,"scale":0.35},"occlusionTexture":{"index":11,"strength":0.35}},{"name":"pedestrian-overpass signage","pbrMetallicRoughness":{"baseColorTexture":{"index":12},"roughnessFactor":1,"metallicFactor":0},"extensions":{"KHR_materials_unlit":{}}}],"textures":[{"source":0,"sampler":0},{"source":1,"sampler":0},{"source":2,"sampler":0},{"source":3,"sampler":0},{"source":4,"sampler":0},{"source":5,"sampler":0},{"source":6,"sampler":0},{"source":7,"sampler":0},{"source":8,"sampler":0},{"source":9,"sampler":0},{"source":10,"sampler":0},{"source":11,"sampler":0},{"source":12,"sampler":0}],"images":[{"uri":"../textures/asphalt-albedo.png"},{"uri":"../textures/asphalt-normal.png"},{"uri":"../textures/asphalt-orm.png"},{"uri":"../textures/metal-galvanized-albedo.png"},{"uri":"../textures/metal-galvanized-normal.png"},{"uri":"../textures/metal-galvanized-orm.png"},{"uri":"../textures/concrete-albedo.png"},{"uri":"../textures/concrete-normal.png"},{"uri":"../textures/concrete-orm.png"},{"uri":"../textures/metal-dark-albedo.png"},{"uri":"../textures/metal-dark-normal.png"},{"uri":"../textures/metal-dark-orm.png"},{"uri":"../signs/pedestrian-overpass.png"}],"samplers":[{"magFilter":9729,"minFilter":9987,"wrapS":10497,"wrapT":10497}],"buffers":[{"uri":"../shared/geometry.bin","byteLength":16435520}],"bufferViews":[{"buffer":0,"byteOffset":0,"byteLength":3888,"target":34962},{"buffer":0,"byteOffset":3888,"byteLength":3888,"target":34962},{"buffer":0,"byteOffset":10204940,"byteLength":2592,"target":34962},{"buffer":0,"byteOffset":10227212,"byteLength":2592,"target":34962},{"buffer":0,"byteOffset":12960,"byteLength":1200,"target":34962},{"buffer":0,"byteOffset":14160,"byteLength":1200,"target":34962},{"buffer":0,"byteOffset":120900,"byteLength":800,"target":34962},{"buffer":0,"byteOffset":16160,"byteLength":384,"target":34963},{"buffer":0,"byteOffset":144420,"byteLength":2592,"target":34962},{"buffer":0,"byteOffset":10210124,"byteLength":2592,"target":34962},{"buffer":0,"byteOffset":378372,"byteLength":3888,"target":34962},{"buffer":0,"byteOffset":10216076,"byteLength":2592,"target":34962},{"buffer":0,"byteOffset":10165388,"byteLength":2592,"target":34962},{"buffer":0,"byteOffset":10212716,"byteLength":2592,"target":34962},{"buffer":0,"byteOffset":45664,"byteLength":288,"target":34962},{"buffer":0,"byteOffset":45952,"byteLength":288,"target":34962},{"buffer":0,"byteOffset":46240,"byteLength":192,"target":34962},{"buffer":0,"byteOffset":46432,"byteLength":72,"target":34963},{"buffer":0,"byteOffset":46504,"byteLength":48,"target":34962},{"buffer":0,"byteOffset":46552,"byteLength":48,"target":34962},{"buffer":0,"byteOffset":147012,"byteLength":32,"target":34962},{"buffer":0,"byteOffset":46632,"byteLength":12,"target":34963},{"buffer":0,"byteOffset":46644,"byteLength":288,"target":34962},{"buffer":0,"byteOffset":10215308,"byteLength":192,"target":34962},{"buffer":0,"byteOffset":10229804,"byteLength":192,"target":34962},{"buffer":0,"byteOffset":47316,"byteLength":480,"target":34962},{"buffer":0,"byteOffset":47796,"byteLength":480,"target":34962},{"buffer":0,"byteOffset":124516,"byteLength":320,"target":34962},{"buffer":0,"byteOffset":48596,"byteLength":144,"target":34963},{"buffer":0,"byteOffset":147236,"byteLength":192,"target":34962},{"buffer":0,"byteOffset":10215692,"byteLength":192,"target":34962},{"buffer":0,"byteOffset":10218668,"byteLength":192,"target":34962},{"buffer":0,"byteOffset":10171148,"byteLength":192,"target":34962},{"buffer":0,"byteOffset":10215884,"byteLength":192,"target":34962}],"accessors":[{"bufferView":0,"componentType":5126,"count":324,"type":"VEC3","min":[-0.5,-0.5,-0.5],"max":[0.5,0.5,0.5]},{"bufferView":1,"componentType":5126,"count":324,"type":"VEC3"},{"bufferView":2,"componentType":5126,"count":324,"type":"VEC2"},{"bufferView":3,"componentType":5126,"count":324,"type":"VEC2"},{"bufferView":4,"componentType":5126,"count":100,"type":"VEC3","min":[-1,-0.5,-1],"max":[1,0.5,1]},{"bufferView":5,"componentType":5126,"count":100,"type":"VEC3"},{"bufferView":6,"componentType":5126,"count":100,"type":"VEC2"},{"bufferView":7,"componentType":5123,"count":192,"type":"SCALAR"},{"bufferView":8,"componentType":5126,"count":324,"type":"VEC2"},{"bufferView":9,"componentType":5126,"count":324,"type":"VEC2"},{"bufferView":10,"componentType":5126,"count":324,"type":"VEC3","min":[-0.5,-0.5,-0.5],"max":[0.5,0.5,0.5]},{"bufferView":11,"componentType":5126,"count":324,"type":"VEC2"},{"bufferView":12,"componentType":5126,"count":324,"type":"VEC2"},{"bufferView":13,"componentType":5126,"count":324,"type":"VEC2"},{"bufferView":14,"componentType":5126,"count":24,"type":"VEC3","min":[-0.5,-0.5,-0.02500000037252903],"max":[0.5,0.5,0.02500000037252903]},{"bufferView":15,"componentType":5126,"count":24,"type":"VEC3"},{"bufferView":16,"componentType":5126,"count":24,"type":"VEC2"},{"bufferView":17,"componentType":5123,"count":36,"type":"SCALAR"},{"bufferView":18,"componentType":5126,"count":4,"type":"VEC3","min":[-0.5,-0.5,0],"max":[0.5,0.5,0]},{"bufferView":19,"componentType":5126,"count":4,"type":"VEC3"},{"bufferView":20,"componentType":5126,"count":4,"type":"VEC2"},{"bufferView":21,"componentType":5123,"count":6,"type":"SCALAR"},{"bufferView":22,"componentType":5126,"count":24,"type":"VEC3","min":[-0.5,-0.5,-0.5],"max":[0.5,0.5,0.5]},{"bufferView":23,"componentType":5126,"count":24,"type":"VEC2"},{"bufferView":24,"componentType":5126,"count":24,"type":"VEC2"},{"bufferView":25,"componentType":5126,"count":40,"type":"VEC3","min":[-0.8660253882408142,-0.5,-1],"max":[0.8660253882408142,0.5,1]},{"bufferView":26,"componentType":5126,"count":40,"type":"VEC3"},{"bufferView":27,"componentType":5126,"count":40,"type":"VEC2"},{"bufferView":28,"componentType":5123,"count":72,"type":"SCALAR"},{"bufferView":29,"componentType":5126,"count":24,"type":"VEC2"},{"bufferView":30,"componentType":5126,"count":24,"type":"VEC2"},{"bufferView":31,"componentType":5126,"count":24,"type":"VEC2"},{"bufferView":32,"componentType":5126,"count":24,"type":"VEC2"},{"bufferView":33,"componentType":5126,"count":24,"type":"VEC2"}],"extensionsUsed":["KHR_materials_unlit"],"extras":{"id":"vlt-pedestrian-overpass-10","family":"pedestrian-overpass","variant":9,"plan":"B5-1","units":"metres","up":"+Y","front":"+Z","lodScenes":[0,1,2]}}