{"asset":{"version":"2.0","generator":"SLOPMERICA Department of Unnecessary Development 1.0"},"scene":0,"scenes":[{"name":"LOD 0","nodes":[0,1,2,3,4,5,6,7,8,9,10,11,12,13,14,15,16,17,18,19,20,21],"extras":{"level":0}},{"name":"LOD 1","nodes":[22,23,24,25,26,27,28,29,30,31,32,33,34,35],"extras":{"level":1}},{"name":"LOD 2","nodes":[36,37,38,39,40,41,42,43,44],"extras":{"level":2}}],"nodes":[{"name":"foundation","mesh":0,"translation":[0,0.08,0],"scale":[11.88,0.16,10.28]},{"name":"store-shell","mesh":1,"translation":[0,1.504,0],"scale":[7.26,3.008,6.6256]},{"name":"roof-cap","mesh":2,"translation":[0,3.118,0],"scale":[7.51,0.22,6.8756]},{"name":"window-0","mesh":3,"translation":[-2.6862,1.32352,3.3678],"scale":[1.56129,1.45,0.09]},{"name":"window-1","mesh":3,"translation":[0,1.32352,3.3678],"scale":[1.56129,1.45,0.09]},{"name":"window-2","mesh":3,"translation":[2.6862,1.32352,3.3678],"scale":[1.56129,1.45,0.09]},{"name":"door","mesh":4,"translation":[-2.541,1.025,3.3828],"scale":[0.92,2.05,0.12]},{"name":"awning","mesh":5,"translation":[0,1.98528,3.7928],"rotation":[-0.039989,0,0,0.9992],"scale":[5.9532,0.18,1.05]},{"name":"mullion-0","mesh":6,"translation":[-2.3232,1.32352,3.4328],"scale":[0.08,1.55,0.12]},{"name":"mullion-1","mesh":6,"translation":[2.3232,1.32352,3.4328],"scale":[0.08,1.55,0.12]},{"name":"primary-sign-back","mesh":7,"translation":[0,2.37632,3.4728],"scale":[4.6012,1.25,1]},{"name":"primary-sign","mesh":8,"translation":[0,2.37632,3.5018],"scale":[4.5012,1.15,1]},{"name":"giant-donut","mesh":9,"translation":[-2.8072,5.21,1.212]},{"name":"sprinkle-0","mesh":10,"translation":[-1.5572,5.21,1.712],"scale":[0.08,0.32,0.1]},{"name":"sprinkle-1","mesh":11,"translation":[-2.131822,6.261839,1.712],"rotation":[0,0,0.479426,0.877583],"scale":[0.08,0.32,0.1]},{"name":"sprinkle-2","mesh":10,"translation":[-3.327384,6.346622,1.712],"rotation":[0,0,0.841471,0.540302],"scale":[0.08,0.32,0.1]},{"name":"sprinkle-3","mesh":11,"translation":[-4.044691,5.3864,1.712],"rotation":[0,0,0.997495,0.070737],"scale":[0.08,0.32,0.1]},{"name":"sprinkle-4","mesh":10,"translation":[-3.624255,4.263997,1.712],"rotation":[0,0,0.909297,-0.416147],"scale":[0.08,0.32,0.1]},{"name":"sprinkle-5","mesh":11,"translation":[-2.452622,4.011345,1.712],"rotation":[0,0,-0.598472,0.801144],"scale":[0.08,0.32,0.1]},{"name":"sprinkle-6","mesh":10,"translation":[-1.606987,4.860731,1.712],"rotation":[0,0,-0.14112,0.989992],"scale":[0.08,0.32,0.1]},{"name":"sprinkle-7","mesh":11,"translation":[-1.864822,6.031233,1.712],"rotation":[0,0,0.350783,0.936457],"scale":[0.08,0.32,0.1]},{"name":"open-state-bollard","mesh":12,"translation":[-4.1624,0.425,4.5248],"scale":[0.22,0.85,0.22]},{"name":"foundation","mesh":13,"translation":[0,0.08,0],"scale":[11.88,0.16,10.28]},{"name":"store-shell","mesh":14,"translation":[0,1.504,0],"scale":[7.26,3.008,6.6256]},{"name":"roof-cap","mesh":15,"translation":[0,3.118,0],"scale":[7.51,0.22,6.8756]},{"name":"window-0","mesh":16,"translation":[-2.6862,1.32352,3.3678],"scale":[1.56129,1.45,0.09]},{"name":"window-1","mesh":16,"translation":[0,1.32352,3.3678],"scale":[1.56129,1.45,0.09]},{"name":"window-2","mesh":16,"translation":[2.6862,1.32352,3.3678],"scale":[1.56129,1.45,0.09]},{"name":"door","mesh":17,"translation":[-2.541,1.025,3.3828],"scale":[0.92,2.05,0.12]},{"name":"awning","mesh":18,"translation":[0,1.98528,3.7928],"rotation":[-0.039989,0,0,0.9992],"scale":[5.9532,0.18,1.05]},{"name":"mullion-0","mesh":19,"translation":[-2.3232,1.32352,3.4328],"scale":[0.08,1.55,0.12]},{"name":"mullion-1","mesh":19,"translation":[2.3232,1.32352,3.4328],"scale":[0.08,1.55,0.12]},{"name":"primary-sign-back","mesh":7,"translation":[0,2.37632,3.4728],"scale":[4.6012,1.25,1]},{"name":"primary-sign","mesh":8,"translation":[0,2.37632,3.5018],"scale":[4.5012,1.15,1]},{"name":"giant-donut","mesh":20,"translation":[-2.8072,5.21,1.212]},{"name":"open-state-bollard","mesh":21,"translation":[-4.1624,0.425,4.5248],"scale":[0.22,0.85,0.22]},{"name":"foundation","mesh":13,"translation":[0,0.08,0],"scale":[11.88,0.16,10.28]},{"name":"store-shell","mesh":14,"translation":[0,1.504,0],"scale":[7.26,3.008,6.6256]},{"name":"roof-cap","mesh":15,"translation":[0,3.118,0],"scale":[7.51,0.22,6.8756]},{"name":"window-0","mesh":22,"translation":[0,1.32352,3.3678],"scale":[4.683871,1.45,0.09]},{"name":"door","mesh":17,"translation":[-2.541,1.025,3.3828],"scale":[0.92,2.05,0.12]},{"name":"primary-sign-back","mesh":7,"translation":[0,2.37632,3.4728],"scale":[4.6012,1.25,1]},{"name":"primary-sign","mesh":8,"translation":[0,2.37632,3.5018],"scale":[4.5012,1.15,1]},{"name":"giant-donut","mesh":23,"translation":[-2.8072,5.21,1.212]},{"name":"open-state-bollard","mesh":21,"translation":[-4.1624,0.425,4.5248],"scale":[0.22,0.85,0.22]}],"meshes":[{"primitives":[{"attributes":{"POSITION":0,"NORMAL":1,"TEXCOORD_0":2},"material":0,"mode":4}]},{"primitives":[{"attributes":{"POSITION":3,"NORMAL":1,"TEXCOORD_0":4},"material":1,"mode":4}]},{"primitives":[{"attributes":{"POSITION":0,"NORMAL":1,"TEXCOORD_0":5},"material":2,"mode":4}]},{"primitives":[{"attributes":{"POSITION":0,"NORMAL":1,"TEXCOORD_0":6},"material":3,"mode":4}]},{"primitives":[{"attributes":{"POSITION":0,"NORMAL":1,"TEXCOORD_0":7},"material":2,"mode":4}]},{"primitives":[{"attributes":{"POSITION":0,"NORMAL":1,"TEXCOORD_0":8},"material":4,"mode":4}]},{"primitives":[{"attributes":{"POSITION":0,"NORMAL":1,"TEXCOORD_0":9},"material":4,"mode":4}]},{"primitives":[{"attributes":{"POSITION":10,"NORMAL":11,"TEXCOORD_0":12},"material":2,"mode":4,"indices":13}]},{"primitives":[{"attributes":{"POSITION":14,"NORMAL":15,"TEXCOORD_0":16},"material":5,"mode":4,"indices":17}]},{"primitives":[{"attributes":{"POSITION":18,"NORMAL":19,"TEXCOORD_0":20},"material":4,"mode":4,"indices":21}]},{"primitives":[{"attributes":{"POSITION":0,"NORMAL":1,"TEXCOORD_0":22},"material":6,"mode":4}]},{"primitives":[{"attributes":{"POSITION":0,"NORMAL":1,"TEXCOORD_0":22},"material":7,"mode":4}]},{"primitives":[{"attributes":{"POSITION":0,"NORMAL":1,"TEXCOORD_0":23},"material":4,"mode":4}]},{"primitives":[{"attributes":{"POSITION":24,"NORMAL":11,"TEXCOORD_0":25},"material":0,"mode":4,"indices":13}]},{"primitives":[{"attributes":{"POSITION":24,"NORMAL":11,"TEXCOORD_0":26},"material":1,"mode":4,"indices":13}]},{"primitives":[{"attributes":{"POSITION":24,"NORMAL":11,"TEXCOORD_0":27},"material":2,"mode":4,"indices":13}]},{"primitives":[{"attributes":{"POSITION":24,"NORMAL":11,"TEXCOORD_0":28},"material":3,"mode":4,"indices":13}]},{"primitives":[{"attributes":{"POSITION":24,"NORMAL":11,"TEXCOORD_0":29},"material":2,"mode":4,"indices":13}]},{"primitives":[{"attributes":{"POSITION":24,"NORMAL":11,"TEXCOORD_0":30},"material":4,"mode":4,"indices":13}]},{"primitives":[{"attributes":{"POSITION":24,"NORMAL":11,"TEXCOORD_0":31},"material":4,"mode":4,"indices":13}]},{"primitives":[{"attributes":{"POSITION":32,"NORMAL":33,"TEXCOORD_0":34},"material":4,"mode":4,"indices":35}]},{"primitives":[{"attributes":{"POSITION":24,"NORMAL":11,"TEXCOORD_0":36},"material":4,"mode":4,"indices":13}]},{"primitives":[{"attributes":{"POSITION":24,"NORMAL":11,"TEXCOORD_0":37},"material":3,"mode":4,"indices":13}]},{"primitives":[{"attributes":{"POSITION":38,"NORMAL":39,"TEXCOORD_0":40},"material":4,"mode":4,"indices":41}]}],"materials":[{"name":"concrete","pbrMetallicRoughness":{"baseColorTexture":{"index":0},"metallicRoughnessTexture":{"index":2},"roughnessFactor":1,"metallicFactor":1},"normalTexture":{"index":1,"scale":0.82},"occlusionTexture":{"index":2,"strength":0.35}},{"name":"stucco-ivory","pbrMetallicRoughness":{"baseColorTexture":{"index":3},"metallicRoughnessTexture":{"index":5},"roughnessFactor":1,"metallicFactor":1},"normalTexture":{"index":4,"scale":0.5},"occlusionTexture":{"index":5,"strength":0.35}},{"name":"metal-dark","pbrMetallicRoughness":{"baseColorTexture":{"index":6},"metallicRoughnessTexture":{"index":8},"roughnessFactor":1,"metallicFactor":1},"normalTexture":{"index":7,"scale":0.35},"occlusionTexture":{"index":8,"strength":0.35}},{"name":"glass-blue","pbrMetallicRoughness":{"baseColorTexture":{"index":9},"metallicRoughnessTexture":{"index":11},"roughnessFactor":1,"metallicFactor":1},"normalTexture":{"index":10,"scale":0.12},"occlusionTexture":{"index":11,"strength":0.35}},{"name":"paint-orange","pbrMetallicRoughness":{"baseColorFactor":[0.6444796819634361,0.1878207722902346,0.040915196900556984,1],"roughnessFactor":0.68,"metallicFactor":0.03}},{"name":"donut-deposition signage","pbrMetallicRoughness":{"baseColorTexture":{"index":12},"roughnessFactor":1,"metallicFactor":0},"extensions":{"KHR_materials_unlit":{}}},{"name":"paint-white","pbrMetallicRoughness":{"baseColorFactor":[0.7912979403281551,0.7681511472425809,0.6795424696265424,1],"roughnessFactor":0.68,"metallicFactor":0}},{"name":"paint-teal","pbrMetallicRoughness":{"baseColorFactor":[0.040915196900556984,0.20507873637973145,0.1878207722902346,1],"roughnessFactor":0.59,"metallicFactor":0.05}}],"textures":[{"source":0,"sampler":0},{"source":1,"sampler":0},{"source":2,"sampler":0},{"source":3,"sampler":0},{"source":4,"sampler":0},{"source":5,"sampler":0},{"source":6,"sampler":0},{"source":7,"sampler":0},{"source":8,"sampler":0},{"source":9,"sampler":0},{"source":10,"sampler":0},{"source":11,"sampler":0},{"source":12,"sampler":0}],"images":[{"uri":"../textures/concrete-albedo.png"},{"uri":"../textures/concrete-normal.png"},{"uri":"../textures/concrete-orm.png"},{"uri":"../textures/stucco-ivory-albedo.png"},{"uri":"../textures/stucco-ivory-normal.png"},{"uri":"../textures/stucco-ivory-orm.png"},{"uri":"../textures/metal-dark-albedo.png"},{"uri":"../textures/metal-dark-normal.png"},{"uri":"../textures/metal-dark-orm.png"},{"uri":"../textures/glass-blue-albedo.png"},{"uri":"../textures/glass-blue-normal.png"},{"uri":"../textures/glass-blue-orm.png"},{"uri":"../signs/donut-deposition.png"}],"samplers":[{"magFilter":9729,"minFilter":9987,"wrapS":10497,"wrapT":10497}],"buffers":[{"uri":"../shared/geometry.bin","byteLength":16435520}],"bufferViews":[{"buffer":0,"byteOffset":0,"byteLength":3888,"target":34962},{"buffer":0,"byteOffset":3888,"byteLength":3888,"target":34962},{"buffer":0,"byteOffset":4141968,"byteLength":2592,"target":34962},{"buffer":0,"byteOffset":378372,"byteLength":3888,"target":34962},{"buffer":0,"byteOffset":4144560,"byteLength":2592,"target":34962},{"buffer":0,"byteOffset":4147152,"byteLength":2592,"target":34962},{"buffer":0,"byteOffset":4014300,"byteLength":2592,"target":34962},{"buffer":0,"byteOffset":1428216,"byteLength":2592,"target":34962},{"buffer":0,"byteOffset":4016892,"byteLength":2592,"target":34962},{"buffer":0,"byteOffset":1433400,"byteLength":2592,"target":34962},{"buffer":0,"byteOffset":45664,"byteLength":288,"target":34962},{"buffer":0,"byteOffset":45952,"byteLength":288,"target":34962},{"buffer":0,"byteOffset":46240,"byteLength":192,"target":34962},{"buffer":0,"byteOffset":46432,"byteLength":72,"target":34963},{"buffer":0,"byteOffset":46504,"byteLength":48,"target":34962},{"buffer":0,"byteOffset":46552,"byteLength":48,"target":34962},{"buffer":0,"byteOffset":153412,"byteLength":32,"target":34962},{"buffer":0,"byteOffset":46632,"byteLength":12,"target":34963},{"buffer":0,"byteOffset":4019484,"byteLength":3132,"target":34962},{"buffer":0,"byteOffset":390704,"byteLength":3132,"target":34962},{"buffer":0,"byteOffset":393836,"byteLength":2088,"target":34962},{"buffer":0,"byteOffset":395924,"byteLength":2688,"target":34963},{"buffer":0,"byteOffset":4022616,"byteLength":2592,"target":34962},{"buffer":0,"byteOffset":422312,"byteLength":2592,"target":34962},{"buffer":0,"byteOffset":46644,"byteLength":288,"target":34962},{"buffer":0,"byteOffset":4149744,"byteLength":192,"target":34962},{"buffer":0,"byteOffset":4149936,"byteLength":192,"target":34962},{"buffer":0,"byteOffset":4150128,"byteLength":192,"target":34962},{"buffer":0,"byteOffset":4025784,"byteLength":192,"target":34962},{"buffer":0,"byteOffset":1447128,"byteLength":192,"target":34962},{"buffer":0,"byteOffset":4025976,"byteLength":192,"target":34962},{"buffer":0,"byteOffset":1447512,"byteLength":192,"target":34962},{"buffer":0,"byteOffset":4026168,"byteLength":1428,"target":34962},{"buffer":0,"byteOffset":427996,"byteLength":1428,"target":34962},{"buffer":0,"byteOffset":429424,"byteLength":952,"target":34962},{"buffer":0,"byteOffset":430376,"byteLength":1152,"target":34963},{"buffer":0,"byteOffset":436936,"byteLength":192,"target":34962},{"buffer":0,"byteOffset":4027596,"byteLength":192,"target":34962},{"buffer":0,"byteOffset":4027788,"byteLength":660,"target":34962},{"buffer":0,"byteOffset":437788,"byteLength":660,"target":34962},{"buffer":0,"byteOffset":438448,"byteLength":440,"target":34962},{"buffer":0,"byteOffset":438888,"byteLength":480,"target":34963}],"accessors":[{"bufferView":0,"componentType":5126,"count":324,"type":"VEC3","min":[-0.5,-0.5,-0.5],"max":[0.5,0.5,0.5]},{"bufferView":1,"componentType":5126,"count":324,"type":"VEC3"},{"bufferView":2,"componentType":5126,"count":324,"type":"VEC2"},{"bufferView":3,"componentType":5126,"count":324,"type":"VEC3","min":[-0.5,-0.5,-0.5],"max":[0.5,0.5,0.5]},{"bufferView":4,"componentType":5126,"count":324,"type":"VEC2"},{"bufferView":5,"componentType":5126,"count":324,"type":"VEC2"},{"bufferView":6,"componentType":5126,"count":324,"type":"VEC2"},{"bufferView":7,"componentType":5126,"count":324,"type":"VEC2"},{"bufferView":8,"componentType":5126,"count":324,"type":"VEC2"},{"bufferView":9,"componentType":5126,"count":324,"type":"VEC2"},{"bufferView":10,"componentType":5126,"count":24,"type":"VEC3","min":[-0.5,-0.5,-0.02500000037252903],"max":[0.5,0.5,0.02500000037252903]},{"bufferView":11,"componentType":5126,"count":24,"type":"VEC3"},{"bufferView":12,"componentType":5126,"count":24,"type":"VEC2"},{"bufferView":13,"componentType":5123,"count":36,"type":"SCALAR"},{"bufferView":14,"componentType":5126,"count":4,"type":"VEC3","min":[-0.5,-0.5,0],"max":[0.5,0.5,0]},{"bufferView":15,"componentType":5126,"count":4,"type":"VEC3"},{"bufferView":16,"componentType":5126,"count":4,"type":"VEC2"},{"bufferView":17,"componentType":5123,"count":6,"type":"SCALAR"},{"bufferView":18,"componentType":5126,"count":261,"type":"VEC3","min":[-2.119999885559082,-2.119999885559082,-0.5199999809265137],"max":[2.119999885559082,2.119999885559082,0.5199999809265137]},{"bufferView":19,"componentType":5126,"count":261,"type":"VEC3"},{"bufferView":20,"componentType":5126,"count":261,"type":"VEC2"},{"bufferView":21,"componentType":5123,"count":1344,"type":"SCALAR"},{"bufferView":22,"componentType":5126,"count":324,"type":"VEC2"},{"bufferView":23,"componentType":5126,"count":324,"type":"VEC2"},{"bufferView":24,"componentType":5126,"count":24,"type":"VEC3","min":[-0.5,-0.5,-0.5],"max":[0.5,0.5,0.5]},{"bufferView":25,"componentType":5126,"count":24,"type":"VEC2"},{"bufferView":26,"componentType":5126,"count":24,"type":"VEC2"},{"bufferView":27,"componentType":5126,"count":24,"type":"VEC2"},{"bufferView":28,"componentType":5126,"count":24,"type":"VEC2"},{"bufferView":29,"componentType":5126,"count":24,"type":"VEC2"},{"bufferView":30,"componentType":5126,"count":24,"type":"VEC2"},{"bufferView":31,"componentType":5126,"count":24,"type":"VEC2"},{"bufferView":32,"componentType":5126,"count":119,"type":"VEC3","min":[-2.119999885559082,-2.119999885559082,-0.45033320784568787],"max":[2.119999885559082,2.119999885559082,0.45033320784568787]},{"bufferView":33,"componentType":5126,"count":119,"type":"VEC3"},{"bufferView":34,"componentType":5126,"count":119,"type":"VEC2"},{"bufferView":35,"componentType":5123,"count":576,"type":"SCALAR"},{"bufferView":36,"componentType":5126,"count":24,"type":"VEC2"},{"bufferView":37,"componentType":5126,"count":24,"type":"VEC2"},{"bufferView":38,"componentType":5126,"count":55,"type":"VEC3","min":[-2.119999885559082,-2.016239881515503,-0.5199999809265137],"max":[2.119999885559082,2.016239881515503,0.5199999809265137]},{"bufferView":39,"componentType":5126,"count":55,"type":"VEC3"},{"bufferView":40,"componentType":5126,"count":55,"type":"VEC2"},{"bufferView":41,"componentType":5123,"count":240,"type":"SCALAR"}],"extensionsUsed":["KHR_materials_unlit"],"extras":{"id":"vlt-donut-deposition-11","family":"donut-deposition","variant":10,"plan":"C1-1","units":"metres","up":"+Y","front":"+Z","lodScenes":[0,1,2]}}