{"asset":{"version":"2.0","generator":"SLOPMERICA Department of Unnecessary Development 1.0"},"scene":0,"scenes":[{"name":"LOD 0","nodes":[0,1,2,3,4,5,6,7,8],"extras":{"level":0}},{"name":"LOD 1","nodes":[9,10,11,12,13,14,15,16,17],"extras":{"level":1}},{"name":"LOD 2","nodes":[18,19,20,21,22,23,24],"extras":{"level":2}}],"nodes":[{"name":"surveyed lot","mesh":0,"translation":[0,0.06,0],"scale":[16.72,0.12,13.552]},{"name":"detention basin","mesh":1,"translation":[0,0.32,0],"scale":[7,0.32,5.2]},{"name":"concrete lip","mesh":2,"translation":[0,0.3,0],"rotation":[0.707107,0,0,0.707107]},{"name":"lakefront billboard posts","mesh":3,"translation":[-2.2,1.45,7],"scale":[0.2,2.8,0.2]},{"name":"lakefront billboard posts 2","mesh":3,"translation":[2.2,1.45,7],"scale":[0.2,2.8,0.2]},{"name":"lake serenity advertisement-back","mesh":4,"translation":[0,2.85,7],"scale":[6.4,2.3,1]},{"name":"lake serenity advertisement","mesh":5,"translation":[0,2.85,7.029],"scale":[6.3,2.2,1]},{"name":"storm drain 0","mesh":6,"translation":[-6,0.45,0],"rotation":[0.707107,0,0,0.707107],"scale":[0.42,1.1,0.42]},{"name":"storm drain 1","mesh":6,"translation":[-4.9,0.45,0],"rotation":[0.707107,0,0,0.707107],"scale":[0.42,1.1,0.42]},{"name":"surveyed lot","mesh":7,"translation":[0,0.06,0],"scale":[16.72,0.12,13.552]},{"name":"detention basin","mesh":8,"translation":[0,0.32,0],"scale":[7,0.32,5.2]},{"name":"concrete lip","mesh":9,"translation":[0,0.3,0],"rotation":[0.707107,0,0,0.707107]},{"name":"lakefront billboard posts","mesh":10,"translation":[-2.2,1.45,7],"scale":[0.2,2.8,0.2]},{"name":"lakefront billboard posts 2","mesh":10,"translation":[2.2,1.45,7],"scale":[0.2,2.8,0.2]},{"name":"lake serenity advertisement-back","mesh":4,"translation":[0,2.85,7],"scale":[6.4,2.3,1]},{"name":"lake serenity advertisement","mesh":5,"translation":[0,2.85,7.029],"scale":[6.3,2.2,1]},{"name":"storm drain 0","mesh":11,"translation":[-6,0.45,0],"rotation":[0.707107,0,0,0.707107],"scale":[0.42,1.1,0.42]},{"name":"storm drain 1","mesh":11,"translation":[-4.9,0.45,0],"rotation":[0.707107,0,0,0.707107],"scale":[0.42,1.1,0.42]},{"name":"surveyed lot","mesh":7,"translation":[0,0.06,0],"scale":[16.72,0.12,13.552]},{"name":"detention basin","mesh":12,"translation":[0,0.32,0],"scale":[7,0.32,5.2]},{"name":"concrete lip","mesh":13,"translation":[0,0.3,0],"rotation":[0.707107,0,0,0.707107]},{"name":"lakefront billboard posts","mesh":10,"translation":[-2.2,1.45,7],"scale":[0.2,2.8,0.2]},{"name":"lakefront billboard posts 2","mesh":10,"translation":[2.2,1.45,7],"scale":[0.2,2.8,0.2]},{"name":"lake serenity advertisement-back","mesh":4,"translation":[0,2.85,7],"scale":[6.4,2.3,1]},{"name":"lake serenity advertisement","mesh":5,"translation":[0,2.85,7.029],"scale":[6.3,2.2,1]}],"meshes":[{"primitives":[{"attributes":{"POSITION":0,"NORMAL":1,"TEXCOORD_0":2},"material":0,"mode":4}]},{"primitives":[{"attributes":{"POSITION":3,"NORMAL":3,"TEXCOORD_0":4},"material":1,"mode":4,"indices":5}]},{"primitives":[{"attributes":{"POSITION":6,"NORMAL":7,"TEXCOORD_0":8},"material":0,"mode":4,"indices":9}]},{"primitives":[{"attributes":{"POSITION":0,"NORMAL":1,"TEXCOORD_0":10},"material":2,"mode":4}]},{"primitives":[{"attributes":{"POSITION":11,"NORMAL":12,"TEXCOORD_0":13},"material":3,"mode":4,"indices":14}]},{"primitives":[{"attributes":{"POSITION":15,"NORMAL":16,"TEXCOORD_0":17},"material":4,"mode":4,"indices":18}]},{"primitives":[{"attributes":{"POSITION":19,"NORMAL":20,"TEXCOORD_0":21},"material":0,"mode":4,"indices":22}]},{"primitives":[{"attributes":{"POSITION":23,"NORMAL":12,"TEXCOORD_0":24},"material":0,"mode":4,"indices":14}]},{"primitives":[{"attributes":{"POSITION":25,"NORMAL":25,"TEXCOORD_0":26},"material":1,"mode":4,"indices":27}]},{"primitives":[{"attributes":{"POSITION":28,"NORMAL":29,"TEXCOORD_0":30},"material":0,"mode":4,"indices":31}]},{"primitives":[{"attributes":{"POSITION":23,"NORMAL":12,"TEXCOORD_0":32},"material":2,"mode":4,"indices":14}]},{"primitives":[{"attributes":{"POSITION":33,"NORMAL":34,"TEXCOORD_0":35},"material":0,"mode":4,"indices":36}]},{"primitives":[{"attributes":{"POSITION":37,"NORMAL":37,"TEXCOORD_0":38},"material":1,"mode":4,"indices":39}]},{"primitives":[{"attributes":{"POSITION":40,"NORMAL":41,"TEXCOORD_0":42},"material":0,"mode":4,"indices":43}]}],"materials":[{"name":"concrete","pbrMetallicRoughness":{"baseColorTexture":{"index":0},"metallicRoughnessTexture":{"index":2},"roughnessFactor":1,"metallicFactor":1},"normalTexture":{"index":1,"scale":0.82},"occlusionTexture":{"index":2,"strength":0.35}},{"name":"glass-blue","pbrMetallicRoughness":{"baseColorTexture":{"index":3},"metallicRoughnessTexture":{"index":5},"roughnessFactor":1,"metallicFactor":1},"normalTexture":{"index":4,"scale":0.12},"occlusionTexture":{"index":5,"strength":0.35}},{"name":"wood-oak","pbrMetallicRoughness":{"baseColorTexture":{"index":6},"metallicRoughnessTexture":{"index":8},"roughnessFactor":1,"metallicFactor":1},"normalTexture":{"index":7,"scale":1},"occlusionTexture":{"index":8,"strength":0.35}},{"name":"metal-dark","pbrMetallicRoughness":{"baseColorTexture":{"index":9},"metallicRoughnessTexture":{"index":11},"roughnessFactor":1,"metallicFactor":1},"normalTexture":{"index":10,"scale":0.35},"occlusionTexture":{"index":11,"strength":0.35}},{"name":"lake-serenity-pond signage","pbrMetallicRoughness":{"baseColorTexture":{"index":12},"roughnessFactor":1,"metallicFactor":0},"extensions":{"KHR_materials_unlit":{}}}],"textures":[{"source":0,"sampler":0},{"source":1,"sampler":0},{"source":2,"sampler":0},{"source":3,"sampler":0},{"source":4,"sampler":0},{"source":5,"sampler":0},{"source":6,"sampler":0},{"source":7,"sampler":0},{"source":8,"sampler":0},{"source":9,"sampler":0},{"source":10,"sampler":0},{"source":11,"sampler":0},{"source":12,"sampler":0}],"images":[{"uri":"../textures/concrete-albedo.png"},{"uri":"../textures/concrete-normal.png"},{"uri":"../textures/concrete-orm.png"},{"uri":"../textures/glass-blue-albedo.png"},{"uri":"../textures/glass-blue-normal.png"},{"uri":"../textures/glass-blue-orm.png"},{"uri":"../textures/wood-oak-albedo.png"},{"uri":"../textures/wood-oak-normal.png"},{"uri":"../textures/wood-oak-orm.png"},{"uri":"../textures/metal-dark-albedo.png"},{"uri":"../textures/metal-dark-normal.png"},{"uri":"../textures/metal-dark-orm.png"},{"uri":"../signs/lake-serenity-pond.png"}],"samplers":[{"magFilter":9729,"minFilter":9987,"wrapS":10497,"wrapT":10497}],"buffers":[{"uri":"../shared/geometry.bin","byteLength":16435520}],"bufferViews":[{"buffer":0,"byteOffset":0,"byteLength":3888,"target":34962},{"buffer":0,"byteOffset":3888,"byteLength":3888,"target":34962},{"buffer":0,"byteOffset":6923556,"byteLength":2592,"target":34962},{"buffer":0,"byteOffset":6080864,"byteLength":3276,"target":34962},{"buffer":0,"byteOffset":6926148,"byteLength":2184,"target":34962},{"buffer":0,"byteOffset":6086324,"byteLength":2640,"target":34963},{"buffer":0,"byteOffset":6928332,"byteLength":3132,"target":34962},{"buffer":0,"byteOffset":390704,"byteLength":3132,"target":34962},{"buffer":0,"byteOffset":6862228,"byteLength":2088,"target":34962},{"buffer":0,"byteOffset":395924,"byteLength":2688,"target":34963},{"buffer":0,"byteOffset":6864316,"byteLength":2592,"target":34962},{"buffer":0,"byteOffset":45664,"byteLength":288,"target":34962},{"buffer":0,"byteOffset":45952,"byteLength":288,"target":34962},{"buffer":0,"byteOffset":46240,"byteLength":192,"target":34962},{"buffer":0,"byteOffset":46432,"byteLength":72,"target":34963},{"buffer":0,"byteOffset":46504,"byteLength":48,"target":34962},{"buffer":0,"byteOffset":46552,"byteLength":48,"target":34962},{"buffer":0,"byteOffset":124292,"byteLength":32,"target":34962},{"buffer":0,"byteOffset":46632,"byteLength":12,"target":34963},{"buffer":0,"byteOffset":6678356,"byteLength":768,"target":34962},{"buffer":0,"byteOffset":6679124,"byteLength":768,"target":34962},{"buffer":0,"byteOffset":6866908,"byteLength":512,"target":34962},{"buffer":0,"byteOffset":882248,"byteLength":240,"target":34963},{"buffer":0,"byteOffset":46644,"byteLength":288,"target":34962},{"buffer":0,"byteOffset":6931464,"byteLength":192,"target":34962},{"buffer":0,"byteOffset":6096692,"byteLength":1404,"target":34962},{"buffer":0,"byteOffset":6931656,"byteLength":936,"target":34962},{"buffer":0,"byteOffset":6099032,"byteLength":1008,"target":34963},{"buffer":0,"byteOffset":6932592,"byteLength":1428,"target":34962},{"buffer":0,"byteOffset":427996,"byteLength":1428,"target":34962},{"buffer":0,"byteOffset":6869976,"byteLength":952,"target":34962},{"buffer":0,"byteOffset":430376,"byteLength":1152,"target":34963},{"buffer":0,"byteOffset":6870928,"byteLength":192,"target":34962},{"buffer":0,"byteOffset":1112312,"byteLength":480,"target":34962},{"buffer":0,"byteOffset":1112792,"byteLength":480,"target":34962},{"buffer":0,"byteOffset":6871120,"byteLength":320,"target":34962},{"buffer":0,"byteOffset":48596,"byteLength":144,"target":34963},{"buffer":0,"byteOffset":6871440,"byteLength":648,"target":34962},{"buffer":0,"byteOffset":6934020,"byteLength":432,"target":34962},{"buffer":0,"byteOffset":6872520,"byteLength":384,"target":34963},{"buffer":0,"byteOffset":6934452,"byteLength":660,"target":34962},{"buffer":0,"byteOffset":437788,"byteLength":660,"target":34962},{"buffer":0,"byteOffset":6873564,"byteLength":440,"target":34962},{"buffer":0,"byteOffset":438888,"byteLength":480,"target":34963}],"accessors":[{"bufferView":0,"componentType":5126,"count":324,"type":"VEC3","min":[-0.5,-0.5,-0.5],"max":[0.5,0.5,0.5]},{"bufferView":1,"componentType":5126,"count":324,"type":"VEC3"},{"bufferView":2,"componentType":5126,"count":324,"type":"VEC2"},{"bufferView":3,"componentType":5126,"count":273,"type":"VEC3","min":[-1,-1,-1],"max":[1,1,1]},{"bufferView":4,"componentType":5126,"count":273,"type":"VEC2"},{"bufferView":5,"componentType":5123,"count":1320,"type":"SCALAR"},{"bufferView":6,"componentType":5126,"count":261,"type":"VEC3","min":[-6.349999904632568,-6.349999904632568,-0.25],"max":[6.349999904632568,6.349999904632568,0.25]},{"bufferView":7,"componentType":5126,"count":261,"type":"VEC3"},{"bufferView":8,"componentType":5126,"count":261,"type":"VEC2"},{"bufferView":9,"componentType":5123,"count":1344,"type":"SCALAR"},{"bufferView":10,"componentType":5126,"count":324,"type":"VEC2"},{"bufferView":11,"componentType":5126,"count":24,"type":"VEC3","min":[-0.5,-0.5,-0.02500000037252903],"max":[0.5,0.5,0.02500000037252903]},{"bufferView":12,"componentType":5126,"count":24,"type":"VEC3"},{"bufferView":13,"componentType":5126,"count":24,"type":"VEC2"},{"bufferView":14,"componentType":5123,"count":36,"type":"SCALAR"},{"bufferView":15,"componentType":5126,"count":4,"type":"VEC3","min":[-0.5,-0.5,0],"max":[0.5,0.5,0]},{"bufferView":16,"componentType":5126,"count":4,"type":"VEC3"},{"bufferView":17,"componentType":5126,"count":4,"type":"VEC2"},{"bufferView":18,"componentType":5123,"count":6,"type":"SCALAR"},{"bufferView":19,"componentType":5126,"count":64,"type":"VEC3","min":[-0.9510565400123596,-0.5,-1],"max":[0.9510565400123596,0.5,1]},{"bufferView":20,"componentType":5126,"count":64,"type":"VEC3"},{"bufferView":21,"componentType":5126,"count":64,"type":"VEC2"},{"bufferView":22,"componentType":5123,"count":120,"type":"SCALAR"},{"bufferView":23,"componentType":5126,"count":24,"type":"VEC3","min":[-0.5,-0.5,-0.5],"max":[0.5,0.5,0.5]},{"bufferView":24,"componentType":5126,"count":24,"type":"VEC2"},{"bufferView":25,"componentType":5126,"count":117,"type":"VEC3","min":[-1,-1,-1],"max":[1,1,1]},{"bufferView":26,"componentType":5126,"count":117,"type":"VEC2"},{"bufferView":27,"componentType":5123,"count":504,"type":"SCALAR"},{"bufferView":28,"componentType":5126,"count":119,"type":"VEC3","min":[-6.349999904632568,-6.349999904632568,-0.21650634706020355],"max":[6.349999904632568,6.349999904632568,0.21650634706020355]},{"bufferView":29,"componentType":5126,"count":119,"type":"VEC3"},{"bufferView":30,"componentType":5126,"count":119,"type":"VEC2"},{"bufferView":31,"componentType":5123,"count":576,"type":"SCALAR"},{"bufferView":32,"componentType":5126,"count":24,"type":"VEC2"},{"bufferView":33,"componentType":5126,"count":40,"type":"VEC3","min":[-0.8660253882408142,-0.5,-1],"max":[0.8660253882408142,0.5,1]},{"bufferView":34,"componentType":5126,"count":40,"type":"VEC3"},{"bufferView":35,"componentType":5126,"count":40,"type":"VEC2"},{"bufferView":36,"componentType":5123,"count":72,"type":"SCALAR"},{"bufferView":37,"componentType":5126,"count":54,"type":"VEC3","min":[-0.9510565400123596,-1,-0.9510565400123596],"max":[0.9510565400123596,1,0.9510565400123596]},{"bufferView":38,"componentType":5126,"count":54,"type":"VEC2"},{"bufferView":39,"componentType":5123,"count":192,"type":"SCALAR"},{"bufferView":40,"componentType":5126,"count":55,"type":"VEC3","min":[-6.349999904632568,-6.039208889007568,-0.25],"max":[6.349999904632568,6.039208889007568,0.25]},{"bufferView":41,"componentType":5126,"count":55,"type":"VEC3"},{"bufferView":42,"componentType":5126,"count":55,"type":"VEC2"},{"bufferView":43,"componentType":5123,"count":240,"type":"SCALAR"}],"extensionsUsed":["KHR_materials_unlit"],"extras":{"id":"vlt-lake-serenity-pond-06","family":"lake-serenity-pond","variant":5,"plan":"B1-1","units":"metres","up":"+Y","front":"+Z","lodScenes":[0,1,2]}}