{"asset":{"version":"2.0","generator":"SLOPMERICA Department of Unnecessary Development 1.0"},"scene":0,"scenes":[{"name":"LOD 0","nodes":[0,1,2,3,4,5,6,7,8,9,10,11,12,13,14,15,16,17,18,19,20,21,22,23,24,25],"extras":{"level":0}},{"name":"LOD 1","nodes":[26,27,28,29,30,31,32,33,34,35,36,37,38,39,40,41,42,43,44,45,46,47,48],"extras":{"level":1}},{"name":"LOD 2","nodes":[49,50,51,52,53,54,55,56,57,58,59,60],"extras":{"level":2}}],"nodes":[{"name":"foundation","mesh":0,"translation":[0,0.08,0],"scale":[20.12,0.16,14.86]},{"name":"store-shell","mesh":1,"translation":[0,1.7661,0],"scale":[11.1104,3.5322,7.8492]},{"name":"roof-cap","mesh":2,"translation":[0,3.6422,0],"scale":[11.3604,0.22,8.0992]},{"name":"window-0","mesh":3,"translation":[-4.110848,1.554168,3.9796],"scale":[1.194667,1.45,0.09]},{"name":"window-1","mesh":3,"translation":[-2.466509,1.554168,3.9796],"scale":[1.194667,1.45,0.09]},{"name":"window-2","mesh":3,"translation":[-0.82217,1.554168,3.9796],"scale":[1.194667,1.45,0.09]},{"name":"window-3","mesh":3,"translation":[0.82217,1.554168,3.9796],"scale":[1.194667,1.45,0.09]},{"name":"window-4","mesh":3,"translation":[2.466509,1.554168,3.9796],"scale":[1.194667,1.45,0.09]},{"name":"window-5","mesh":3,"translation":[4.110848,1.554168,3.9796],"scale":[1.194667,1.45,0.09]},{"name":"door","mesh":4,"translation":[3.88864,1.025,3.9946],"scale":[0.92,2.05,0.12]},{"name":"awning","mesh":5,"translation":[0,2.331252,4.4046],"rotation":[-0.039989,0,0,0.9992],"scale":[9.110528,0.18,1.05]},{"name":"mullion-0","mesh":6,"translation":[-3.555328,1.554168,4.0446],"scale":[0.08,1.55,0.12]},{"name":"mullion-1","mesh":6,"translation":[-1.185109,1.554168,4.0446],"scale":[0.08,1.55,0.12]},{"name":"mullion-2","mesh":6,"translation":[1.185109,1.554168,4.0446],"scale":[0.08,1.55,0.12]},{"name":"mullion-3","mesh":6,"translation":[3.555328,1.554168,4.0446],"scale":[0.08,1.55,0.12]},{"name":"primary-sign-back","mesh":7,"translation":[0,2.790438,4.0846],"scale":[6.988448,1.25,1]},{"name":"primary-sign","mesh":8,"translation":[0,2.790438,4.1136],"scale":[6.888448,1.15,1]},{"name":"return-funnel","mesh":9,"translation":[5.376,5.1765,-1.266],"rotation":[1,0,0,0],"scale":[6.0928,7.308,6.0928]},{"name":"return-chute","mesh":10,"translation":[0,0,0]},{"name":"returned-box-0","mesh":11,"translation":[-1.5,0.35,7.8492],"scale":[0.7,0.5,0.6]},{"name":"returned-box-1","mesh":12,"translation":[-0.5,0.8,7.8492],"rotation":[0,0.109778,0,0.993956],"scale":[0.7,0.5,0.6]},{"name":"returned-box-2","mesh":11,"translation":[0.5,0.35,7.8492],"rotation":[0,0.21823,0,0.975897],"scale":[0.7,0.5,0.6]},{"name":"returned-box-3","mesh":12,"translation":[1.5,0.8,7.8492],"rotation":[0,0.324043,0,0.946042],"scale":[0.7,0.5,0.6]},{"name":"return-sign-back","mesh":7,"translation":[0,2.6796,4.0512],"scale":[7.268,1.1,1]},{"name":"return-sign","mesh":8,"translation":[0,2.6796,4.0802],"scale":[7.168,1,1]},{"name":"open-state-bollard","mesh":13,"translation":[7.7056,0.425,7.0896],"scale":[0.22,0.85,0.22]},{"name":"foundation","mesh":14,"translation":[0,0.08,0],"scale":[20.12,0.16,14.86]},{"name":"store-shell","mesh":15,"translation":[0,1.7661,0],"scale":[11.1104,3.5322,7.8492]},{"name":"roof-cap","mesh":16,"translation":[0,3.6422,0],"scale":[11.3604,0.22,8.0992]},{"name":"window-0","mesh":17,"translation":[-4.110848,1.554168,3.9796],"scale":[2.389333,1.45,0.09]},{"name":"window-1","mesh":17,"translation":[0,1.554168,3.9796],"scale":[2.389333,1.45,0.09]},{"name":"window-2","mesh":17,"translation":[4.110848,1.554168,3.9796],"scale":[2.389333,1.45,0.09]},{"name":"door","mesh":18,"translation":[3.88864,1.025,3.9946],"scale":[0.92,2.05,0.12]},{"name":"awning","mesh":19,"translation":[0,2.331252,4.4046],"rotation":[-0.039989,0,0,0.9992],"scale":[9.110528,0.18,1.05]},{"name":"mullion-0","mesh":20,"translation":[-3.555328,1.554168,4.0446],"scale":[0.08,1.55,0.12]},{"name":"mullion-1","mesh":20,"translation":[-1.185109,1.554168,4.0446],"scale":[0.08,1.55,0.12]},{"name":"mullion-2","mesh":20,"translation":[1.185109,1.554168,4.0446],"scale":[0.08,1.55,0.12]},{"name":"mullion-3","mesh":20,"translation":[3.555328,1.554168,4.0446],"scale":[0.08,1.55,0.12]},{"name":"primary-sign-back","mesh":7,"translation":[0,2.790438,4.0846],"scale":[6.988448,1.25,1]},{"name":"primary-sign","mesh":8,"translation":[0,2.790438,4.1136],"scale":[6.888448,1.15,1]},{"name":"return-funnel","mesh":21,"translation":[5.376,5.1765,-1.266],"rotation":[1,0,0,0],"scale":[6.0928,7.308,6.0928]},{"name":"return-chute","mesh":22,"translation":[0,0,0]},{"name":"returned-box-0","mesh":23,"translation":[-1.5,0.35,7.8492],"scale":[0.7,0.5,0.6]},{"name":"returned-box-1","mesh":24,"translation":[-0.5,0.8,7.8492],"rotation":[0,0.109778,0,0.993956],"scale":[0.7,0.5,0.6]},{"name":"returned-box-2","mesh":23,"translation":[0.5,0.35,7.8492],"rotation":[0,0.21823,0,0.975897],"scale":[0.7,0.5,0.6]},{"name":"returned-box-3","mesh":24,"translation":[1.5,0.8,7.8492],"rotation":[0,0.324043,0,0.946042],"scale":[0.7,0.5,0.6]},{"name":"return-sign-back","mesh":7,"translation":[0,2.6796,4.0512],"scale":[7.268,1.1,1]},{"name":"return-sign","mesh":8,"translation":[0,2.6796,4.0802],"scale":[7.168,1,1]},{"name":"open-state-bollard","mesh":25,"translation":[7.7056,0.425,7.0896],"scale":[0.22,0.85,0.22]},{"name":"foundation","mesh":14,"translation":[0,0.08,0],"scale":[20.12,0.16,14.86]},{"name":"store-shell","mesh":15,"translation":[0,1.7661,0],"scale":[11.1104,3.5322,7.8492]},{"name":"roof-cap","mesh":16,"translation":[0,3.6422,0],"scale":[11.3604,0.22,8.0992]},{"name":"window-0","mesh":26,"translation":[0,1.554168,3.9796],"scale":[7.168,1.45,0.09]},{"name":"door","mesh":18,"translation":[3.88864,1.025,3.9946],"scale":[0.92,2.05,0.12]},{"name":"primary-sign-back","mesh":7,"translation":[0,2.790438,4.0846],"scale":[6.988448,1.25,1]},{"name":"primary-sign","mesh":8,"translation":[0,2.790438,4.1136],"scale":[6.888448,1.15,1]},{"name":"return-funnel","mesh":27,"translation":[5.376,5.1765,-1.266],"rotation":[1,0,0,0],"scale":[6.0928,7.308,6.0928]},{"name":"return-chute","mesh":28,"translation":[0,0,0]},{"name":"return-sign-back","mesh":7,"translation":[0,2.6796,4.0512],"scale":[7.268,1.1,1]},{"name":"return-sign","mesh":8,"translation":[0,2.6796,4.0802],"scale":[7.168,1,1]},{"name":"open-state-bollard","mesh":25,"translation":[7.7056,0.425,7.0896],"scale":[0.22,0.85,0.22]}],"meshes":[{"primitives":[{"attributes":{"POSITION":0,"NORMAL":1,"TEXCOORD_0":2},"material":0,"mode":4}]},{"primitives":[{"attributes":{"POSITION":3,"NORMAL":1,"TEXCOORD_0":4},"material":1,"mode":4}]},{"primitives":[{"attributes":{"POSITION":0,"NORMAL":1,"TEXCOORD_0":5},"material":2,"mode":4}]},{"primitives":[{"attributes":{"POSITION":0,"NORMAL":1,"TEXCOORD_0":6},"material":3,"mode":4}]},{"primitives":[{"attributes":{"POSITION":0,"NORMAL":1,"TEXCOORD_0":7},"material":2,"mode":4}]},{"primitives":[{"attributes":{"POSITION":0,"NORMAL":1,"TEXCOORD_0":8},"material":4,"mode":4}]},{"primitives":[{"attributes":{"POSITION":0,"NORMAL":1,"TEXCOORD_0":9},"material":4,"mode":4}]},{"primitives":[{"attributes":{"POSITION":10,"NORMAL":11,"TEXCOORD_0":12},"material":2,"mode":4,"indices":13}]},{"primitives":[{"attributes":{"POSITION":14,"NORMAL":15,"TEXCOORD_0":16},"material":5,"mode":4,"indices":17}]},{"primitives":[{"attributes":{"POSITION":18,"NORMAL":19,"TEXCOORD_0":20},"material":4,"mode":4,"indices":21}]},{"primitives":[{"attributes":{"POSITION":22,"NORMAL":23,"TEXCOORD_0":24},"material":2,"mode":4,"indices":25}]},{"primitives":[{"attributes":{"POSITION":0,"NORMAL":1,"TEXCOORD_0":26},"material":6,"mode":4}]},{"primitives":[{"attributes":{"POSITION":0,"NORMAL":1,"TEXCOORD_0":27},"material":7,"mode":4}]},{"primitives":[{"attributes":{"POSITION":0,"NORMAL":1,"TEXCOORD_0":28},"material":4,"mode":4}]},{"primitives":[{"attributes":{"POSITION":29,"NORMAL":11,"TEXCOORD_0":30},"material":0,"mode":4,"indices":13}]},{"primitives":[{"attributes":{"POSITION":29,"NORMAL":11,"TEXCOORD_0":31},"material":1,"mode":4,"indices":13}]},{"primitives":[{"attributes":{"POSITION":29,"NORMAL":11,"TEXCOORD_0":32},"material":2,"mode":4,"indices":13}]},{"primitives":[{"attributes":{"POSITION":29,"NORMAL":11,"TEXCOORD_0":33},"material":3,"mode":4,"indices":13}]},{"primitives":[{"attributes":{"POSITION":29,"NORMAL":11,"TEXCOORD_0":34},"material":2,"mode":4,"indices":13}]},{"primitives":[{"attributes":{"POSITION":29,"NORMAL":11,"TEXCOORD_0":35},"material":4,"mode":4,"indices":13}]},{"primitives":[{"attributes":{"POSITION":29,"NORMAL":11,"TEXCOORD_0":36},"material":4,"mode":4,"indices":13}]},{"primitives":[{"attributes":{"POSITION":37,"NORMAL":38,"TEXCOORD_0":39},"material":4,"mode":4,"indices":40}]},{"primitives":[{"attributes":{"POSITION":41,"NORMAL":42,"TEXCOORD_0":43},"material":2,"mode":4,"indices":44}]},{"primitives":[{"attributes":{"POSITION":29,"NORMAL":11,"TEXCOORD_0":45},"material":6,"mode":4,"indices":13}]},{"primitives":[{"attributes":{"POSITION":29,"NORMAL":11,"TEXCOORD_0":46},"material":7,"mode":4,"indices":13}]},{"primitives":[{"attributes":{"POSITION":29,"NORMAL":11,"TEXCOORD_0":47},"material":4,"mode":4,"indices":13}]},{"primitives":[{"attributes":{"POSITION":29,"NORMAL":11,"TEXCOORD_0":48},"material":3,"mode":4,"indices":13}]},{"primitives":[{"attributes":{"POSITION":49,"NORMAL":50,"TEXCOORD_0":51},"material":4,"mode":4,"indices":52}]},{"primitives":[{"attributes":{"POSITION":53,"NORMAL":54,"TEXCOORD_0":55},"material":2,"mode":4,"indices":56}]}],"materials":[{"name":"concrete","pbrMetallicRoughness":{"baseColorTexture":{"index":0},"metallicRoughnessTexture":{"index":2},"roughnessFactor":1,"metallicFactor":1},"normalTexture":{"index":1,"scale":0.82},"occlusionTexture":{"index":2,"strength":0.35}},{"name":"metal-galvanized","pbrMetallicRoughness":{"baseColorTexture":{"index":3},"metallicRoughnessTexture":{"index":5},"roughnessFactor":1,"metallicFactor":1},"normalTexture":{"index":4,"scale":0.15},"occlusionTexture":{"index":5,"strength":0.35}},{"name":"metal-dark","pbrMetallicRoughness":{"baseColorTexture":{"index":6},"metallicRoughnessTexture":{"index":8},"roughnessFactor":1,"metallicFactor":1},"normalTexture":{"index":7,"scale":0.35},"occlusionTexture":{"index":8,"strength":0.35}},{"name":"glass-blue","pbrMetallicRoughness":{"baseColorTexture":{"index":9},"metallicRoughnessTexture":{"index":11},"roughnessFactor":1,"metallicFactor":1},"normalTexture":{"index":10,"scale":0.12},"occlusionTexture":{"index":11,"strength":0.35}},{"name":"paint-orange","pbrMetallicRoughness":{"baseColorFactor":[0.6444796819634361,0.1878207722902346,0.040915196900556984,1],"roughnessFactor":0.68,"metallicFactor":0.03}},{"name":"return-to-sender-outlet signage","pbrMetallicRoughness":{"baseColorTexture":{"index":12},"roughnessFactor":1,"metallicFactor":0},"extensions":{"KHR_materials_unlit":{}}},{"name":"paint-yellow","pbrMetallicRoughness":{"baseColorFactor":[0.76052450467022,0.4793201830913402,0.07818742179702069,1],"roughnessFactor":0.66,"metallicFactor":0.03}},{"name":"brick-cream","pbrMetallicRoughness":{"baseColorTexture":{"index":13},"metallicRoughnessTexture":{"index":15},"roughnessFactor":1,"metallicFactor":1},"normalTexture":{"index":14,"scale":1.05},"occlusionTexture":{"index":15,"strength":0.35}}],"textures":[{"source":0,"sampler":0},{"source":1,"sampler":0},{"source":2,"sampler":0},{"source":3,"sampler":0},{"source":4,"sampler":0},{"source":5,"sampler":0},{"source":6,"sampler":0},{"source":7,"sampler":0},{"source":8,"sampler":0},{"source":9,"sampler":0},{"source":10,"sampler":0},{"source":11,"sampler":0},{"source":12,"sampler":0},{"source":13,"sampler":0},{"source":14,"sampler":0},{"source":15,"sampler":0}],"images":[{"uri":"../textures/concrete-albedo.png"},{"uri":"../textures/concrete-normal.png"},{"uri":"../textures/concrete-orm.png"},{"uri":"../textures/metal-galvanized-albedo.png"},{"uri":"../textures/metal-galvanized-normal.png"},{"uri":"../textures/metal-galvanized-orm.png"},{"uri":"../textures/metal-dark-albedo.png"},{"uri":"../textures/metal-dark-normal.png"},{"uri":"../textures/metal-dark-orm.png"},{"uri":"../textures/glass-blue-albedo.png"},{"uri":"../textures/glass-blue-normal.png"},{"uri":"../textures/glass-blue-orm.png"},{"uri":"../signs/return-to-sender-outlet.png"},{"uri":"../textures/brick-cream-albedo.png"},{"uri":"../textures/brick-cream-normal.png"},{"uri":"../textures/brick-cream-orm.png"}],"samplers":[{"magFilter":9729,"minFilter":9987,"wrapS":10497,"wrapT":10497}],"buffers":[{"uri":"../shared/geometry.bin","byteLength":16435520}],"bufferViews":[{"buffer":0,"byteOffset":0,"byteLength":3888,"target":34962},{"buffer":0,"byteOffset":3888,"byteLength":3888,"target":34962},{"buffer":0,"byteOffset":10656816,"byteLength":2592,"target":34962},{"buffer":0,"byteOffset":822696,"byteLength":3888,"target":34962},{"buffer":0,"byteOffset":12370028,"byteLength":2592,"target":34962},{"buffer":0,"byteOffset":12372620,"byteLength":2592,"target":34962},{"buffer":0,"byteOffset":12208628,"byteLength":2592,"target":34962},{"buffer":0,"byteOffset":1428216,"byteLength":2592,"target":34962},{"buffer":0,"byteOffset":12211220,"byteLength":2592,"target":34962},{"buffer":0,"byteOffset":1433400,"byteLength":2592,"target":34962},{"buffer":0,"byteOffset":45664,"byteLength":288,"target":34962},{"buffer":0,"byteOffset":45952,"byteLength":288,"target":34962},{"buffer":0,"byteOffset":46240,"byteLength":192,"target":34962},{"buffer":0,"byteOffset":46432,"byteLength":72,"target":34963},{"buffer":0,"byteOffset":46504,"byteLength":48,"target":34962},{"buffer":0,"byteOffset":46552,"byteLength":48,"target":34962},{"buffer":0,"byteOffset":199652,"byteLength":32,"target":34962},{"buffer":0,"byteOffset":46632,"byteLength":12,"target":34963},{"buffer":0,"byteOffset":12152156,"byteLength":1056,"target":34962},{"buffer":0,"byteOffset":12153212,"byteLength":1056,"target":34962},{"buffer":0,"byteOffset":12213812,"byteLength":704,"target":34962},{"buffer":0,"byteOffset":3762292,"byteLength":336,"target":34963},{"buffer":0,"byteOffset":12375212,"byteLength":1404,"target":34962},{"buffer":0,"byteOffset":12376616,"byteLength":1404,"target":34962},{"buffer":0,"byteOffset":10880064,"byteLength":936,"target":34962},{"buffer":0,"byteOffset":2086708,"byteLength":1152,"target":34963},{"buffer":0,"byteOffset":12157780,"byteLength":2592,"target":34962},{"buffer":0,"byteOffset":12160372,"byteLength":2592,"target":34962},{"buffer":0,"byteOffset":422312,"byteLength":2592,"target":34962},{"buffer":0,"byteOffset":46644,"byteLength":288,"target":34962},{"buffer":0,"byteOffset":10662000,"byteLength":192,"target":34962},{"buffer":0,"byteOffset":12378020,"byteLength":192,"target":34962},{"buffer":0,"byteOffset":12378212,"byteLength":192,"target":34962},{"buffer":0,"byteOffset":12217708,"byteLength":192,"target":34962},{"buffer":0,"byteOffset":1447128,"byteLength":192,"target":34962},{"buffer":0,"byteOffset":12217900,"byteLength":192,"target":34962},{"buffer":0,"byteOffset":1447512,"byteLength":192,"target":34962},{"buffer":0,"byteOffset":12163732,"byteLength":552,"target":34962},{"buffer":0,"byteOffset":12164284,"byteLength":552,"target":34962},{"buffer":0,"byteOffset":12218092,"byteLength":368,"target":34962},{"buffer":0,"byteOffset":3772292,"byteLength":168,"target":34963},{"buffer":0,"byteOffset":12378404,"byteLength":588,"target":34962},{"buffer":0,"byteOffset":12378992,"byteLength":588,"target":34962},{"buffer":0,"byteOffset":10883192,"byteLength":392,"target":34962},{"buffer":0,"byteOffset":2096404,"byteLength":432,"target":34963},{"buffer":0,"byteOffset":12166380,"byteLength":192,"target":34962},{"buffer":0,"byteOffset":12166572,"byteLength":192,"target":34962},{"buffer":0,"byteOffset":436936,"byteLength":192,"target":34962},{"buffer":0,"byteOffset":12219636,"byteLength":192,"target":34962},{"buffer":0,"byteOffset":12166956,"byteLength":480,"target":34962},{"buffer":0,"byteOffset":12167436,"byteLength":480,"target":34962},{"buffer":0,"byteOffset":12219828,"byteLength":320,"target":34962},{"buffer":0,"byteOffset":48596,"byteLength":144,"target":34963},{"buffer":0,"byteOffset":12379580,"byteLength":300,"target":34962},{"buffer":0,"byteOffset":12379880,"byteLength":300,"target":34962},{"buffer":0,"byteOffset":2878428,"byteLength":200,"target":34962},{"buffer":0,"byteOffset":440168,"byteLength":192,"target":34963}],"accessors":[{"bufferView":0,"componentType":5126,"count":324,"type":"VEC3","min":[-0.5,-0.5,-0.5],"max":[0.5,0.5,0.5]},{"bufferView":1,"componentType":5126,"count":324,"type":"VEC3"},{"bufferView":2,"componentType":5126,"count":324,"type":"VEC2"},{"bufferView":3,"componentType":5126,"count":324,"type":"VEC3","min":[-0.5,-0.5,-0.5],"max":[0.5,0.5,0.5]},{"bufferView":4,"componentType":5126,"count":324,"type":"VEC2"},{"bufferView":5,"componentType":5126,"count":324,"type":"VEC2"},{"bufferView":6,"componentType":5126,"count":324,"type":"VEC2"},{"bufferView":7,"componentType":5126,"count":324,"type":"VEC2"},{"bufferView":8,"componentType":5126,"count":324,"type":"VEC2"},{"bufferView":9,"componentType":5126,"count":324,"type":"VEC2"},{"bufferView":10,"componentType":5126,"count":24,"type":"VEC3","min":[-0.5,-0.5,-0.02500000037252903],"max":[0.5,0.5,0.02500000037252903]},{"bufferView":11,"componentType":5126,"count":24,"type":"VEC3"},{"bufferView":12,"componentType":5126,"count":24,"type":"VEC2"},{"bufferView":13,"componentType":5123,"count":36,"type":"SCALAR"},{"bufferView":14,"componentType":5126,"count":4,"type":"VEC3","min":[-0.5,-0.5,0],"max":[0.5,0.5,0]},{"bufferView":15,"componentType":5126,"count":4,"type":"VEC3"},{"bufferView":16,"componentType":5126,"count":4,"type":"VEC2"},{"bufferView":17,"componentType":5123,"count":6,"type":"SCALAR"},{"bufferView":18,"componentType":5126,"count":88,"type":"VEC3","min":[-0.9749279022216797,-0.5,-1],"max":[0.9749279022216797,0.5,1]},{"bufferView":19,"componentType":5126,"count":88,"type":"VEC3"},{"bufferView":20,"componentType":5126,"count":88,"type":"VEC2"},{"bufferView":21,"componentType":5123,"count":168,"type":"SCALAR"},{"bufferView":22,"componentType":5126,"count":117,"type":"VEC3","min":[-0.5647355318069458,0.17357107996940613,-1.506369948387146],"max":[5.670316696166992,2.326011896133423,8.650370597839355]},{"bufferView":23,"componentType":5126,"count":117,"type":"VEC3"},{"bufferView":24,"componentType":5126,"count":117,"type":"VEC2"},{"bufferView":25,"componentType":5123,"count":576,"type":"SCALAR"},{"bufferView":26,"componentType":5126,"count":324,"type":"VEC2"},{"bufferView":27,"componentType":5126,"count":324,"type":"VEC2"},{"bufferView":28,"componentType":5126,"count":324,"type":"VEC2"},{"bufferView":29,"componentType":5126,"count":24,"type":"VEC3","min":[-0.5,-0.5,-0.5],"max":[0.5,0.5,0.5]},{"bufferView":30,"componentType":5126,"count":24,"type":"VEC2"},{"bufferView":31,"componentType":5126,"count":24,"type":"VEC2"},{"bufferView":32,"componentType":5126,"count":24,"type":"VEC2"},{"bufferView":33,"componentType":5126,"count":24,"type":"VEC2"},{"bufferView":34,"componentType":5126,"count":24,"type":"VEC2"},{"bufferView":35,"componentType":5126,"count":24,"type":"VEC2"},{"bufferView":36,"componentType":5126,"count":24,"type":"VEC2"},{"bufferView":37,"componentType":5126,"count":46,"type":"VEC3","min":[-0.9749279022216797,-0.5,-0.9009688496589661],"max":[0.9749279022216797,0.5,1]},{"bufferView":38,"componentType":5126,"count":46,"type":"VEC3"},{"bufferView":39,"componentType":5126,"count":46,"type":"VEC2"},{"bufferView":40,"componentType":5123,"count":84,"type":"SCALAR"},{"bufferView":41,"componentType":5126,"count":49,"type":"VEC3","min":[-0.5296300649642944,0.17357107996940613,-1.4919599294662476],"max":[5.6454176902771,2.326011896133423,8.650370597839355]},{"bufferView":42,"componentType":5126,"count":49,"type":"VEC3"},{"bufferView":43,"componentType":5126,"count":49,"type":"VEC2"},{"bufferView":44,"componentType":5123,"count":216,"type":"SCALAR"},{"bufferView":45,"componentType":5126,"count":24,"type":"VEC2"},{"bufferView":46,"componentType":5126,"count":24,"type":"VEC2"},{"bufferView":47,"componentType":5126,"count":24,"type":"VEC2"},{"bufferView":48,"componentType":5126,"count":24,"type":"VEC2"},{"bufferView":49,"componentType":5126,"count":40,"type":"VEC3","min":[-0.8660253882408142,-0.5,-1],"max":[0.8660253882408142,0.5,1]},{"bufferView":50,"componentType":5126,"count":40,"type":"VEC3"},{"bufferView":51,"componentType":5126,"count":40,"type":"VEC2"},{"bufferView":52,"componentType":5123,"count":72,"type":"SCALAR"},{"bufferView":53,"componentType":5126,"count":25,"type":"VEC3","min":[-0.46910935640335083,0.17357107996940613,-1.506369948387146],"max":[5.670316696166992,2.326011896133423,8.650370597839355]},{"bufferView":54,"componentType":5126,"count":25,"type":"VEC3"},{"bufferView":55,"componentType":5126,"count":25,"type":"VEC2"},{"bufferView":56,"componentType":5123,"count":96,"type":"SCALAR"}],"extensionsUsed":["KHR_materials_unlit"],"extras":{"id":"vlt-return-to-sender-outlet-19","family":"return-to-sender-outlet","variant":18,"plan":"D4-1","units":"metres","up":"+Y","front":"+Z","lodScenes":[0,1,2]}}