{"asset":{"version":"2.0","generator":"SLOPMERICA Department of Unnecessary Development 1.0"},"scene":0,"scenes":[{"name":"LOD 0","nodes":[0,1,2,3,4,5,6,7,8,9,10,11,12,13,14,15,16,17,18,19],"extras":{"level":0}},{"name":"LOD 1","nodes":[20,21,22,23,24,25,26,27,28,29,30,31,32,33,34,35,36,37,38,39],"extras":{"level":1}},{"name":"LOD 2","nodes":[40,41,42,43,44,45,46,47,48,49,50,51,52,53,54],"extras":{"level":2}}],"nodes":[{"name":"site-pad","mesh":0,"translation":[0,0.06,0],"scale":[16.4736,0.12,11.8976]},{"name":"variant-apron","mesh":1,"translation":[1.0296,0.13,5.94],"scale":[3.4848,0.08,1.16]},{"name":"bollard-0","mesh":2,"translation":[-6.0192,0.43,6.06],"scale":[0.08,0.7,0.08]},{"name":"layout-cabinet","mesh":3,"translation":[-8.12,0.495,0.858],"scale":[0.69,0.75,0.32]},{"name":"deferred-maintenance-skip","mesh":4,"translation":[5.3856,0.5,-5.0336],"scale":[1.15,0.75,0.65]},{"name":"skip-rubble","mesh":5,"translation":[5.3856,0.98,-5.0336],"rotation":[0,0.198669,0,0.980067],"scale":[0.72,0.2,0.5]},{"name":"industrial-shell","mesh":6,"translation":[0,3.96,0],"scale":[15.84,7.68,11.44]},{"name":"industrial-roof","mesh":7,"translation":[0,7.95,0],"scale":[16.19,0.28,11.79]},{"name":"loading-bay-0","mesh":8,"translation":[-6.0192,1.38,5.84],"scale":[2.2,2.5,0.16]},{"name":"dock-0","mesh":9,"translation":[-6.0192,0.35,6.3],"scale":[1.8,0.45,1]},{"name":"loading-bay-1","mesh":8,"translation":[6.0192,1.38,5.84],"scale":[2.2,2.5,0.16]},{"name":"dock-1","mesh":9,"translation":[6.0192,0.35,6.3],"scale":[1.8,0.45,1]},{"name":"smokestack-0","mesh":10,"translation":[-1.7,13.48,-2.5168],"scale":[1.05,14.4,1.05]},{"name":"stack-band-0","mesh":11,"translation":[-1.7,19.08,-2.5168],"scale":[0.77,0.7,0.77]},{"name":"smokestack-1","mesh":10,"translation":[1.7,13.48,-2.5168],"scale":[1.05,14.4,1.05]},{"name":"stack-band-1","mesh":11,"translation":[1.7,19.08,-2.5168],"scale":[0.77,0.7,0.77]},{"name":"coal-conveyor","mesh":12,"translation":[-3.4848,5.4,-7.0928],"rotation":[0,0,-0.139543,0.990216],"scale":[11.88,0.65,1]},{"name":"coal-pile","mesh":13,"translation":[3.96,1.75,-8.008],"scale":[4,3.2,4]},{"name":"coal-sign-back","mesh":14,"translation":[0,6.68,5.92],"scale":[5.3,1.1,1]},{"name":"coal-sign","mesh":15,"translation":[0,6.68,5.949],"scale":[5.2,1,1]},{"name":"site-pad","mesh":16,"translation":[0,0.06,0],"scale":[16.4736,0.12,11.8976]},{"name":"variant-apron","mesh":17,"translation":[1.0296,0.13,5.94],"scale":[3.4848,0.08,1.16]},{"name":"bollard-0","mesh":18,"translation":[-6.0192,0.43,6.06],"scale":[0.08,0.7,0.08]},{"name":"layout-cabinet","mesh":19,"translation":[-8.12,0.495,0.858],"scale":[0.69,0.75,0.32]},{"name":"deferred-maintenance-skip","mesh":20,"translation":[5.3856,0.5,-5.0336],"scale":[1.15,0.75,0.65]},{"name":"skip-rubble","mesh":21,"translation":[5.3856,0.98,-5.0336],"rotation":[0,0.198669,0,0.980067],"scale":[0.72,0.2,0.5]},{"name":"industrial-shell","mesh":22,"translation":[0,3.96,0],"scale":[15.84,7.68,11.44]},{"name":"industrial-roof","mesh":23,"translation":[0,7.95,0],"scale":[16.19,0.28,11.79]},{"name":"loading-bay-0","mesh":24,"translation":[-6.0192,1.38,5.84],"scale":[2.2,2.5,0.16]},{"name":"dock-0","mesh":25,"translation":[-6.0192,0.35,6.3],"scale":[1.8,0.45,1]},{"name":"loading-bay-1","mesh":24,"translation":[6.0192,1.38,5.84],"scale":[2.2,2.5,0.16]},{"name":"dock-1","mesh":25,"translation":[6.0192,0.35,6.3],"scale":[1.8,0.45,1]},{"name":"smokestack-0","mesh":26,"translation":[-1.7,13.48,-2.5168],"scale":[1.05,14.4,1.05]},{"name":"stack-band-0","mesh":27,"translation":[-1.7,19.08,-2.5168],"scale":[0.77,0.7,0.77]},{"name":"smokestack-1","mesh":26,"translation":[1.7,13.48,-2.5168],"scale":[1.05,14.4,1.05]},{"name":"stack-band-1","mesh":27,"translation":[1.7,19.08,-2.5168],"scale":[0.77,0.7,0.77]},{"name":"coal-conveyor","mesh":28,"translation":[-3.4848,5.4,-7.0928],"rotation":[0,0,-0.139543,0.990216],"scale":[11.88,0.65,1]},{"name":"coal-pile","mesh":29,"translation":[3.96,1.75,-8.008],"scale":[4,3.2,4]},{"name":"coal-sign-back","mesh":14,"translation":[0,6.68,5.92],"scale":[5.3,1.1,1]},{"name":"coal-sign","mesh":15,"translation":[0,6.68,5.949],"scale":[5.2,1,1]},{"name":"site-pad","mesh":16,"translation":[0,0.06,0],"scale":[16.4736,0.12,11.8976]},{"name":"variant-apron","mesh":17,"translation":[1.0296,0.13,5.94],"scale":[3.4848,0.08,1.16]},{"name":"bollard-0","mesh":18,"translation":[-6.0192,0.43,6.06],"scale":[0.08,0.7,0.08]},{"name":"layout-cabinet","mesh":19,"translation":[-8.12,0.495,0.858],"scale":[0.69,0.75,0.32]},{"name":"deferred-maintenance-skip","mesh":20,"translation":[5.3856,0.5,-5.0336],"scale":[1.15,0.75,0.65]},{"name":"industrial-shell","mesh":22,"translation":[0,3.96,0],"scale":[15.84,7.68,11.44]},{"name":"industrial-roof","mesh":23,"translation":[0,7.95,0],"scale":[16.19,0.28,11.79]},{"name":"loading-bay-0","mesh":24,"translation":[-6.0192,1.38,5.84],"scale":[2.2,2.5,0.16]},{"name":"loading-bay-1","mesh":24,"translation":[6.0192,1.38,5.84],"scale":[2.2,2.5,0.16]},{"name":"smokestack-0","mesh":26,"translation":[0,13.48,-2.5168],"scale":[1.05,14.4,1.05]},{"name":"stack-band-0","mesh":27,"translation":[0,19.08,-2.5168],"scale":[0.77,0.7,0.77]},{"name":"coal-conveyor","mesh":28,"translation":[-3.4848,5.4,-7.0928],"rotation":[0,0,-0.139543,0.990216],"scale":[11.88,0.65,1]},{"name":"coal-pile","mesh":29,"translation":[3.96,1.75,-8.008],"scale":[4,3.2,4]},{"name":"coal-sign-back","mesh":14,"translation":[0,6.68,5.92],"scale":[5.3,1.1,1]},{"name":"coal-sign","mesh":15,"translation":[0,6.68,5.949],"scale":[5.2,1,1]}],"meshes":[{"primitives":[{"attributes":{"POSITION":0,"NORMAL":1,"TEXCOORD_0":2},"material":0,"mode":4}]},{"primitives":[{"attributes":{"POSITION":0,"NORMAL":1,"TEXCOORD_0":3},"material":0,"mode":4}]},{"primitives":[{"attributes":{"POSITION":4,"NORMAL":5,"TEXCOORD_0":6},"material":1,"mode":4,"indices":7}]},{"primitives":[{"attributes":{"POSITION":0,"NORMAL":1,"TEXCOORD_0":8},"material":2,"mode":4}]},{"primitives":[{"attributes":{"POSITION":0,"NORMAL":1,"TEXCOORD_0":9},"material":1,"mode":4}]},{"primitives":[{"attributes":{"POSITION":0,"NORMAL":1,"TEXCOORD_0":10},"material":3,"mode":4}]},{"primitives":[{"attributes":{"POSITION":11,"NORMAL":1,"TEXCOORD_0":12},"material":4,"mode":4}]},{"primitives":[{"attributes":{"POSITION":0,"NORMAL":1,"TEXCOORD_0":13},"material":5,"mode":4}]},{"primitives":[{"attributes":{"POSITION":0,"NORMAL":1,"TEXCOORD_0":14},"material":6,"mode":4}]},{"primitives":[{"attributes":{"POSITION":0,"NORMAL":1,"TEXCOORD_0":15},"material":3,"mode":4}]},{"primitives":[{"attributes":{"POSITION":16,"NORMAL":17,"TEXCOORD_0":18},"material":3,"mode":4,"indices":7}]},{"primitives":[{"attributes":{"POSITION":19,"NORMAL":20,"TEXCOORD_0":21},"material":7,"mode":4,"indices":7}]},{"primitives":[{"attributes":{"POSITION":0,"NORMAL":1,"TEXCOORD_0":22},"material":6,"mode":4}]},{"primitives":[{"attributes":{"POSITION":23,"NORMAL":24,"TEXCOORD_0":25},"material":8,"mode":4,"indices":7}]},{"primitives":[{"attributes":{"POSITION":26,"NORMAL":27,"TEXCOORD_0":28},"material":6,"mode":4,"indices":29}]},{"primitives":[{"attributes":{"POSITION":30,"NORMAL":31,"TEXCOORD_0":32},"material":9,"mode":4,"indices":33}]},{"primitives":[{"attributes":{"POSITION":34,"NORMAL":27,"TEXCOORD_0":35},"material":0,"mode":4,"indices":29}]},{"primitives":[{"attributes":{"POSITION":34,"NORMAL":27,"TEXCOORD_0":36},"material":0,"mode":4,"indices":29}]},{"primitives":[{"attributes":{"POSITION":37,"NORMAL":38,"TEXCOORD_0":39},"material":1,"mode":4,"indices":40}]},{"primitives":[{"attributes":{"POSITION":34,"NORMAL":27,"TEXCOORD_0":41},"material":2,"mode":4,"indices":29}]},{"primitives":[{"attributes":{"POSITION":34,"NORMAL":27,"TEXCOORD_0":42},"material":1,"mode":4,"indices":29}]},{"primitives":[{"attributes":{"POSITION":34,"NORMAL":27,"TEXCOORD_0":43},"material":3,"mode":4,"indices":29}]},{"primitives":[{"attributes":{"POSITION":34,"NORMAL":27,"TEXCOORD_0":44},"material":4,"mode":4,"indices":29}]},{"primitives":[{"attributes":{"POSITION":34,"NORMAL":27,"TEXCOORD_0":45},"material":5,"mode":4,"indices":29}]},{"primitives":[{"attributes":{"POSITION":34,"NORMAL":27,"TEXCOORD_0":46},"material":6,"mode":4,"indices":29}]},{"primitives":[{"attributes":{"POSITION":34,"NORMAL":27,"TEXCOORD_0":47},"material":3,"mode":4,"indices":29}]},{"primitives":[{"attributes":{"POSITION":48,"NORMAL":49,"TEXCOORD_0":50},"material":3,"mode":4,"indices":40}]},{"primitives":[{"attributes":{"POSITION":51,"NORMAL":52,"TEXCOORD_0":53},"material":7,"mode":4,"indices":40}]},{"primitives":[{"attributes":{"POSITION":34,"NORMAL":27,"TEXCOORD_0":54},"material":6,"mode":4,"indices":29}]},{"primitives":[{"attributes":{"POSITION":55,"NORMAL":56,"TEXCOORD_0":57},"material":8,"mode":4,"indices":40}]}],"materials":[{"name":"asphalt","pbrMetallicRoughness":{"baseColorTexture":{"index":0},"metallicRoughnessTexture":{"index":2},"roughnessFactor":1,"metallicFactor":1},"normalTexture":{"index":1,"scale":0.62},"occlusionTexture":{"index":2,"strength":0.35}},{"name":"paint-orange","pbrMetallicRoughness":{"baseColorFactor":[0.6444796819634361,0.1878207722902346,0.040915196900556984,1],"roughnessFactor":0.68,"metallicFactor":0.03}},{"name":"metal-galvanized","pbrMetallicRoughness":{"baseColorTexture":{"index":3},"metallicRoughnessTexture":{"index":5},"roughnessFactor":1,"metallicFactor":1},"normalTexture":{"index":4,"scale":0.15},"occlusionTexture":{"index":5,"strength":0.35}},{"name":"concrete","pbrMetallicRoughness":{"baseColorTexture":{"index":6},"metallicRoughnessTexture":{"index":8},"roughnessFactor":1,"metallicFactor":1},"normalTexture":{"index":7,"scale":0.82},"occlusionTexture":{"index":8,"strength":0.35}},{"name":"brick-red","pbrMetallicRoughness":{"baseColorTexture":{"index":9},"metallicRoughnessTexture":{"index":11},"roughnessFactor":1,"metallicFactor":1},"normalTexture":{"index":10,"scale":1.15},"occlusionTexture":{"index":11,"strength":0.35}},{"name":"roof-metal","pbrMetallicRoughness":{"baseColorTexture":{"index":12},"metallicRoughnessTexture":{"index":14},"roughnessFactor":1,"metallicFactor":1},"normalTexture":{"index":13,"scale":0.68},"occlusionTexture":{"index":14,"strength":0.35}},{"name":"metal-dark","pbrMetallicRoughness":{"baseColorTexture":{"index":15},"metallicRoughnessTexture":{"index":17},"roughnessFactor":1,"metallicFactor":1},"normalTexture":{"index":16,"scale":0.35},"occlusionTexture":{"index":17,"strength":0.35}},{"name":"paint-white","pbrMetallicRoughness":{"baseColorFactor":[0.7912979403281551,0.7681511472425809,0.6795424696265424,1],"roughnessFactor":0.68,"metallicFactor":0}},{"name":"soil","pbrMetallicRoughness":{"baseColorTexture":{"index":18},"metallicRoughnessTexture":{"index":20},"roughnessFactor":1,"metallicFactor":1},"normalTexture":{"index":19,"scale":0.8},"occlusionTexture":{"index":20,"strength":0.35}},{"name":"clean-coal-plant signage","pbrMetallicRoughness":{"baseColorTexture":{"index":21},"roughnessFactor":1,"metallicFactor":0},"extensions":{"KHR_materials_unlit":{}}}],"textures":[{"source":0,"sampler":0},{"source":1,"sampler":0},{"source":2,"sampler":0},{"source":3,"sampler":0},{"source":4,"sampler":0},{"source":5,"sampler":0},{"source":6,"sampler":0},{"source":7,"sampler":0},{"source":8,"sampler":0},{"source":9,"sampler":0},{"source":10,"sampler":0},{"source":11,"sampler":0},{"source":12,"sampler":0},{"source":13,"sampler":0},{"source":14,"sampler":0},{"source":15,"sampler":0},{"source":16,"sampler":0},{"source":17,"sampler":0},{"source":18,"sampler":0},{"source":19,"sampler":0},{"source":20,"sampler":0},{"source":21,"sampler":0}],"images":[{"uri":"../textures/asphalt-albedo.png"},{"uri":"../textures/asphalt-normal.png"},{"uri":"../textures/asphalt-orm.png"},{"uri":"../textures/metal-galvanized-albedo.png"},{"uri":"../textures/metal-galvanized-normal.png"},{"uri":"../textures/metal-galvanized-orm.png"},{"uri":"../textures/concrete-albedo.png"},{"uri":"../textures/concrete-normal.png"},{"uri":"../textures/concrete-orm.png"},{"uri":"../textures/brick-red-albedo.png"},{"uri":"../textures/brick-red-normal.png"},{"uri":"../textures/brick-red-orm.png"},{"uri":"../textures/roof-metal-albedo.png"},{"uri":"../textures/roof-metal-normal.png"},{"uri":"../textures/roof-metal-orm.png"},{"uri":"../textures/metal-dark-albedo.png"},{"uri":"../textures/metal-dark-normal.png"},{"uri":"../textures/metal-dark-orm.png"},{"uri":"../textures/soil-albedo.png"},{"uri":"../textures/soil-normal.png"},{"uri":"../textures/soil-orm.png"},{"uri":"../signs/clean-coal-plant.png"}],"samplers":[{"magFilter":9729,"minFilter":9987,"wrapS":10497,"wrapT":10497}],"buffers":[{"uri":"../shared/geometry.bin","byteLength":16435520}],"bufferViews":[{"buffer":0,"byteOffset":0,"byteLength":3888,"target":34962},{"buffer":0,"byteOffset":3888,"byteLength":3888,"target":34962},{"buffer":0,"byteOffset":1919900,"byteLength":2592,"target":34962},{"buffer":0,"byteOffset":2036428,"byteLength":2592,"target":34962},{"buffer":0,"byteOffset":12960,"byteLength":1200,"target":34962},{"buffer":0,"byteOffset":14160,"byteLength":1200,"target":34962},{"buffer":0,"byteOffset":150020,"byteLength":800,"target":34962},{"buffer":0,"byteOffset":16160,"byteLength":384,"target":34963},{"buffer":0,"byteOffset":150820,"byteLength":2592,"target":34962},{"buffer":0,"byteOffset":205668,"byteLength":2592,"target":34962},{"buffer":0,"byteOffset":208260,"byteLength":2592,"target":34962},{"buffer":0,"byteOffset":19136,"byteLength":3888,"target":34962},{"buffer":0,"byteOffset":1925084,"byteLength":2592,"target":34962},{"buffer":0,"byteOffset":1927676,"byteLength":2592,"target":34962},{"buffer":0,"byteOffset":28208,"byteLength":2592,"target":34962},{"buffer":0,"byteOffset":30800,"byteLength":2592,"target":34962},{"buffer":0,"byteOffset":1930268,"byteLength":1200,"target":34962},{"buffer":0,"byteOffset":1931468,"byteLength":1200,"target":34962},{"buffer":0,"byteOffset":2039020,"byteLength":800,"target":34962},{"buffer":0,"byteOffset":1101304,"byteLength":1200,"target":34962},{"buffer":0,"byteOffset":1102504,"byteLength":1200,"target":34962},{"buffer":0,"byteOffset":1933468,"byteLength":800,"target":34962},{"buffer":0,"byteOffset":1934268,"byteLength":2592,"target":34962},{"buffer":0,"byteOffset":1936860,"byteLength":1200,"target":34962},{"buffer":0,"byteOffset":1938060,"byteLength":1200,"target":34962},{"buffer":0,"byteOffset":1939260,"byteLength":800,"target":34962},{"buffer":0,"byteOffset":45664,"byteLength":288,"target":34962},{"buffer":0,"byteOffset":45952,"byteLength":288,"target":34962},{"buffer":0,"byteOffset":46240,"byteLength":192,"target":34962},{"buffer":0,"byteOffset":46432,"byteLength":72,"target":34963},{"buffer":0,"byteOffset":46504,"byteLength":48,"target":34962},{"buffer":0,"byteOffset":46552,"byteLength":48,"target":34962},{"buffer":0,"byteOffset":222692,"byteLength":32,"target":34962},{"buffer":0,"byteOffset":46632,"byteLength":12,"target":34963},{"buffer":0,"byteOffset":46644,"byteLength":288,"target":34962},{"buffer":0,"byteOffset":1940060,"byteLength":192,"target":34962},{"buffer":0,"byteOffset":2039820,"byteLength":192,"target":34962},{"buffer":0,"byteOffset":47316,"byteLength":480,"target":34962},{"buffer":0,"byteOffset":47796,"byteLength":480,"target":34962},{"buffer":0,"byteOffset":153636,"byteLength":320,"target":34962},{"buffer":0,"byteOffset":48596,"byteLength":144,"target":34963},{"buffer":0,"byteOffset":153956,"byteLength":192,"target":34962},{"buffer":0,"byteOffset":210884,"byteLength":192,"target":34962},{"buffer":0,"byteOffset":211076,"byteLength":192,"target":34962},{"buffer":0,"byteOffset":1940444,"byteLength":192,"target":34962},{"buffer":0,"byteOffset":1940636,"byteLength":192,"target":34962},{"buffer":0,"byteOffset":49316,"byteLength":192,"target":34962},{"buffer":0,"byteOffset":49508,"byteLength":192,"target":34962},{"buffer":0,"byteOffset":1940828,"byteLength":480,"target":34962},{"buffer":0,"byteOffset":1941308,"byteLength":480,"target":34962},{"buffer":0,"byteOffset":2040012,"byteLength":320,"target":34962},{"buffer":0,"byteOffset":1112312,"byteLength":480,"target":34962},{"buffer":0,"byteOffset":1112792,"byteLength":480,"target":34962},{"buffer":0,"byteOffset":1942108,"byteLength":320,"target":34962},{"buffer":0,"byteOffset":1942428,"byteLength":192,"target":34962},{"buffer":0,"byteOffset":1942620,"byteLength":480,"target":34962},{"buffer":0,"byteOffset":1943100,"byteLength":480,"target":34962},{"buffer":0,"byteOffset":1943580,"byteLength":320,"target":34962}],"accessors":[{"bufferView":0,"componentType":5126,"count":324,"type":"VEC3","min":[-0.5,-0.5,-0.5],"max":[0.5,0.5,0.5]},{"bufferView":1,"componentType":5126,"count":324,"type":"VEC3"},{"bufferView":2,"componentType":5126,"count":324,"type":"VEC2"},{"bufferView":3,"componentType":5126,"count":324,"type":"VEC2"},{"bufferView":4,"componentType":5126,"count":100,"type":"VEC3","min":[-1,-0.5,-1],"max":[1,0.5,1]},{"bufferView":5,"componentType":5126,"count":100,"type":"VEC3"},{"bufferView":6,"componentType":5126,"count":100,"type":"VEC2"},{"bufferView":7,"componentType":5123,"count":192,"type":"SCALAR"},{"bufferView":8,"componentType":5126,"count":324,"type":"VEC2"},{"bufferView":9,"componentType":5126,"count":324,"type":"VEC2"},{"bufferView":10,"componentType":5126,"count":324,"type":"VEC2"},{"bufferView":11,"componentType":5126,"count":324,"type":"VEC3","min":[-0.5,-0.5,-0.5],"max":[0.5,0.5,0.5]},{"bufferView":12,"componentType":5126,"count":324,"type":"VEC2"},{"bufferView":13,"componentType":5126,"count":324,"type":"VEC2"},{"bufferView":14,"componentType":5126,"count":324,"type":"VEC2"},{"bufferView":15,"componentType":5126,"count":324,"type":"VEC2"},{"bufferView":16,"componentType":5126,"count":100,"type":"VEC3","min":[-1,-0.5,-1],"max":[1,0.5,1]},{"bufferView":17,"componentType":5126,"count":100,"type":"VEC3"},{"bufferView":18,"componentType":5126,"count":100,"type":"VEC2"},{"bufferView":19,"componentType":5126,"count":100,"type":"VEC3","min":[-1,-0.5,-1],"max":[1,0.5,1]},{"bufferView":20,"componentType":5126,"count":100,"type":"VEC3"},{"bufferView":21,"componentType":5126,"count":100,"type":"VEC2"},{"bufferView":22,"componentType":5126,"count":324,"type":"VEC2"},{"bufferView":23,"componentType":5126,"count":100,"type":"VEC3","min":[-1,-0.5,-1],"max":[1,0.5,1]},{"bufferView":24,"componentType":5126,"count":100,"type":"VEC3"},{"bufferView":25,"componentType":5126,"count":100,"type":"VEC2"},{"bufferView":26,"componentType":5126,"count":24,"type":"VEC3","min":[-0.5,-0.5,-0.02500000037252903],"max":[0.5,0.5,0.02500000037252903]},{"bufferView":27,"componentType":5126,"count":24,"type":"VEC3"},{"bufferView":28,"componentType":5126,"count":24,"type":"VEC2"},{"bufferView":29,"componentType":5123,"count":36,"type":"SCALAR"},{"bufferView":30,"componentType":5126,"count":4,"type":"VEC3","min":[-0.5,-0.5,0],"max":[0.5,0.5,0]},{"bufferView":31,"componentType":5126,"count":4,"type":"VEC3"},{"bufferView":32,"componentType":5126,"count":4,"type":"VEC2"},{"bufferView":33,"componentType":5123,"count":6,"type":"SCALAR"},{"bufferView":34,"componentType":5126,"count":24,"type":"VEC3","min":[-0.5,-0.5,-0.5],"max":[0.5,0.5,0.5]},{"bufferView":35,"componentType":5126,"count":24,"type":"VEC2"},{"bufferView":36,"componentType":5126,"count":24,"type":"VEC2"},{"bufferView":37,"componentType":5126,"count":40,"type":"VEC3","min":[-0.8660253882408142,-0.5,-1],"max":[0.8660253882408142,0.5,1]},{"bufferView":38,"componentType":5126,"count":40,"type":"VEC3"},{"bufferView":39,"componentType":5126,"count":40,"type":"VEC2"},{"bufferView":40,"componentType":5123,"count":72,"type":"SCALAR"},{"bufferView":41,"componentType":5126,"count":24,"type":"VEC2"},{"bufferView":42,"componentType":5126,"count":24,"type":"VEC2"},{"bufferView":43,"componentType":5126,"count":24,"type":"VEC2"},{"bufferView":44,"componentType":5126,"count":24,"type":"VEC2"},{"bufferView":45,"componentType":5126,"count":24,"type":"VEC2"},{"bufferView":46,"componentType":5126,"count":24,"type":"VEC2"},{"bufferView":47,"componentType":5126,"count":24,"type":"VEC2"},{"bufferView":48,"componentType":5126,"count":40,"type":"VEC3","min":[-0.8660253882408142,-0.5,-1],"max":[0.8660253882408142,0.5,1]},{"bufferView":49,"componentType":5126,"count":40,"type":"VEC3"},{"bufferView":50,"componentType":5126,"count":40,"type":"VEC2"},{"bufferView":51,"componentType":5126,"count":40,"type":"VEC3","min":[-0.8660253882408142,-0.5,-1],"max":[0.8660253882408142,0.5,1]},{"bufferView":52,"componentType":5126,"count":40,"type":"VEC3"},{"bufferView":53,"componentType":5126,"count":40,"type":"VEC2"},{"bufferView":54,"componentType":5126,"count":24,"type":"VEC2"},{"bufferView":55,"componentType":5126,"count":40,"type":"VEC3","min":[-0.8660253882408142,-0.5,-1],"max":[0.8660253882408142,0.5,1]},{"bufferView":56,"componentType":5126,"count":40,"type":"VEC3"},{"bufferView":57,"componentType":5126,"count":40,"type":"VEC2"}],"extensionsUsed":["KHR_materials_unlit"],"extras":{"id":"vlt-clean-coal-plant-31","family":"clean-coal-plant","variant":30,"plan":"C1-2","units":"metres","up":"+Y","front":"+Z","lodScenes":[0,1,2]}}