{"asset":{"version":"2.0","generator":"SLOPMERICA Department of Unnecessary Development 1.0"},"scene":0,"scenes":[{"name":"LOD 0","nodes":[0,1,2,3,4,5,6,7,8,9,10,11,12,13,14,15],"extras":{"level":0}},{"name":"LOD 1","nodes":[16,17,18,19,20,21,22,23,24,25,26,27],"extras":{"level":1}},{"name":"LOD 2","nodes":[28,29,30,31,32,33,34,35,36,37],"extras":{"level":2}}],"nodes":[{"name":"foundation","mesh":0,"translation":[0,0.08,0],"scale":[15.64,0.16,12.3]},{"name":"barn","mesh":1,"translation":[0,2.4125,0],"scale":[13.44,4.825,10.1]},{"name":"roof-left","mesh":2,"translation":[-3.1832,5.375,0],"rotation":[0,0,0.188859,0.982004],"scale":[7.612,0.22,10.75]},{"name":"roof-right","mesh":2,"translation":[3.1832,5.375,0],"rotation":[0,0,-0.188859,0.982004],"scale":[7.612,0.22,10.75]},{"name":"layout-annex","mesh":3,"translation":[-7.1048,1.49575,-1.616],"scale":[3.1,2.9915,5.05]},{"name":"smoker-0","mesh":4,"translation":[-3.36,5.925,-2.222],"scale":[0.38,2.6,0.38]},{"name":"smoker-1","mesh":4,"translation":[-2.16,5.925,-2.222],"scale":[0.38,2.6,0.38]},{"name":"smoker-2","mesh":4,"translation":[-0.96,5.925,-2.222],"scale":[0.38,2.6,0.38]},{"name":"barn-sign-back","mesh":5,"translation":[0,3.23275,5.17],"scale":[7.0888,1.25,1]},{"name":"barn-sign","mesh":6,"translation":[0,3.23275,5.199],"scale":[6.9888,1.15,1]},{"name":"busy-state-queue-bar","mesh":7,"translation":[0,0.65,6.363],"scale":[9.6768,0.12,0.12]},{"name":"queue-car-0","mesh":8,"translation":[-4.032,0.34,7.07],"scale":[1.35,0.65,0.7]},{"name":"queue-car-1","mesh":9,"translation":[-2.016,0.34,7.878],"scale":[1.35,0.65,0.7]},{"name":"queue-car-2","mesh":8,"translation":[0,0.34,7.07],"scale":[1.35,0.65,0.7]},{"name":"queue-car-3","mesh":9,"translation":[2.016,0.34,7.878],"scale":[1.35,0.65,0.7]},{"name":"queue-car-4","mesh":8,"translation":[4.032,0.34,7.07],"scale":[1.35,0.65,0.7]},{"name":"foundation","mesh":10,"translation":[0,0.08,0],"scale":[15.64,0.16,12.3]},{"name":"barn","mesh":11,"translation":[0,2.4125,0],"scale":[13.44,4.825,10.1]},{"name":"roof-left","mesh":12,"translation":[-3.1832,5.375,0],"rotation":[0,0,0.188859,0.982004],"scale":[7.612,0.22,10.75]},{"name":"roof-right","mesh":12,"translation":[3.1832,5.375,0],"rotation":[0,0,-0.188859,0.982004],"scale":[7.612,0.22,10.75]},{"name":"layout-annex","mesh":13,"translation":[-7.1048,1.49575,-1.616],"scale":[3.1,2.9915,5.05]},{"name":"smoker-0","mesh":14,"translation":[-3.36,5.925,-2.222],"scale":[0.38,2.6,0.38]},{"name":"barn-sign-back","mesh":5,"translation":[0,3.23275,5.17],"scale":[7.0888,1.25,1]},{"name":"barn-sign","mesh":6,"translation":[0,3.23275,5.199],"scale":[6.9888,1.15,1]},{"name":"busy-state-queue-bar","mesh":15,"translation":[0,0.65,6.363],"scale":[9.6768,0.12,0.12]},{"name":"queue-car-0","mesh":16,"translation":[-4.032,0.34,7.07],"scale":[1.35,0.65,0.7]},{"name":"queue-car-1","mesh":17,"translation":[-2.016,0.34,7.878],"scale":[1.35,0.65,0.7]},{"name":"queue-car-2","mesh":16,"translation":[0,0.34,7.07],"scale":[1.35,0.65,0.7]},{"name":"foundation","mesh":10,"translation":[0,0.08,0],"scale":[15.64,0.16,12.3]},{"name":"barn","mesh":11,"translation":[0,2.4125,0],"scale":[13.44,4.825,10.1]},{"name":"roof-left","mesh":12,"translation":[-3.1832,5.375,0],"rotation":[0,0,0.188859,0.982004],"scale":[7.612,0.22,10.75]},{"name":"roof-right","mesh":12,"translation":[3.1832,5.375,0],"rotation":[0,0,-0.188859,0.982004],"scale":[7.612,0.22,10.75]},{"name":"layout-annex","mesh":13,"translation":[-7.1048,1.49575,-1.616],"scale":[3.1,2.9915,5.05]},{"name":"smoker-0","mesh":14,"translation":[-3.36,5.925,-2.222],"scale":[0.38,2.6,0.38]},{"name":"barn-sign-back","mesh":5,"translation":[0,3.23275,5.17],"scale":[7.0888,1.25,1]},{"name":"barn-sign","mesh":6,"translation":[0,3.23275,5.199],"scale":[6.9888,1.15,1]},{"name":"busy-state-queue-bar","mesh":15,"translation":[0,0.65,6.363],"scale":[9.6768,0.12,0.12]},{"name":"queue-car-0","mesh":16,"translation":[-4.032,0.34,7.07],"scale":[1.35,0.65,0.7]}],"meshes":[{"primitives":[{"attributes":{"POSITION":0,"NORMAL":1,"TEXCOORD_0":2},"material":0,"mode":4}]},{"primitives":[{"attributes":{"POSITION":3,"NORMAL":1,"TEXCOORD_0":4},"material":1,"mode":4}]},{"primitives":[{"attributes":{"POSITION":0,"NORMAL":1,"TEXCOORD_0":5},"material":2,"mode":4}]},{"primitives":[{"attributes":{"POSITION":6,"NORMAL":1,"TEXCOORD_0":7},"material":3,"mode":4}]},{"primitives":[{"attributes":{"POSITION":8,"NORMAL":9,"TEXCOORD_0":10},"material":4,"mode":4,"indices":11}]},{"primitives":[{"attributes":{"POSITION":12,"NORMAL":13,"TEXCOORD_0":14},"material":4,"mode":4,"indices":15}]},{"primitives":[{"attributes":{"POSITION":16,"NORMAL":17,"TEXCOORD_0":18},"material":5,"mode":4,"indices":19}]},{"primitives":[{"attributes":{"POSITION":0,"NORMAL":1,"TEXCOORD_0":20},"material":6,"mode":4}]},{"primitives":[{"attributes":{"POSITION":0,"NORMAL":1,"TEXCOORD_0":21},"material":6,"mode":4}]},{"primitives":[{"attributes":{"POSITION":0,"NORMAL":1,"TEXCOORD_0":21},"material":7,"mode":4}]},{"primitives":[{"attributes":{"POSITION":22,"NORMAL":13,"TEXCOORD_0":23},"material":0,"mode":4,"indices":15}]},{"primitives":[{"attributes":{"POSITION":22,"NORMAL":13,"TEXCOORD_0":24},"material":1,"mode":4,"indices":15}]},{"primitives":[{"attributes":{"POSITION":22,"NORMAL":13,"TEXCOORD_0":25},"material":2,"mode":4,"indices":15}]},{"primitives":[{"attributes":{"POSITION":22,"NORMAL":13,"TEXCOORD_0":26},"material":3,"mode":4,"indices":15}]},{"primitives":[{"attributes":{"POSITION":27,"NORMAL":28,"TEXCOORD_0":29},"material":4,"mode":4,"indices":30}]},{"primitives":[{"attributes":{"POSITION":22,"NORMAL":13,"TEXCOORD_0":31},"material":6,"mode":4,"indices":15}]},{"primitives":[{"attributes":{"POSITION":22,"NORMAL":13,"TEXCOORD_0":32},"material":6,"mode":4,"indices":15}]},{"primitives":[{"attributes":{"POSITION":22,"NORMAL":13,"TEXCOORD_0":32},"material":7,"mode":4,"indices":15}]}],"materials":[{"name":"concrete","pbrMetallicRoughness":{"baseColorTexture":{"index":0},"metallicRoughnessTexture":{"index":2},"roughnessFactor":1,"metallicFactor":1},"normalTexture":{"index":1,"scale":0.82},"occlusionTexture":{"index":2,"strength":0.35}},{"name":"brick-red","pbrMetallicRoughness":{"baseColorTexture":{"index":3},"metallicRoughnessTexture":{"index":5},"roughnessFactor":1,"metallicFactor":1},"normalTexture":{"index":4,"scale":1.15},"occlusionTexture":{"index":5,"strength":0.35}},{"name":"roof-shingle","pbrMetallicRoughness":{"baseColorTexture":{"index":6},"metallicRoughnessTexture":{"index":8},"roughnessFactor":1,"metallicFactor":1},"normalTexture":{"index":7,"scale":0.78},"occlusionTexture":{"index":8,"strength":0.35}},{"name":"wood-painted","pbrMetallicRoughness":{"baseColorTexture":{"index":9},"metallicRoughnessTexture":{"index":11},"roughnessFactor":1,"metallicFactor":1},"normalTexture":{"index":10,"scale":0.55},"occlusionTexture":{"index":11,"strength":0.35}},{"name":"metal-dark","pbrMetallicRoughness":{"baseColorTexture":{"index":12},"metallicRoughnessTexture":{"index":14},"roughnessFactor":1,"metallicFactor":1},"normalTexture":{"index":13,"scale":0.35},"occlusionTexture":{"index":14,"strength":0.35}},{"name":"brisket-bunker signage","pbrMetallicRoughness":{"baseColorTexture":{"index":15},"roughnessFactor":1,"metallicFactor":0},"extensions":{"KHR_materials_unlit":{}}},{"name":"paint-red","pbrMetallicRoughness":{"baseColorFactor":[0.46778379610254284,0.08021982030622662,0.05126945836711539,1],"roughnessFactor":0.62,"metallicFactor":0.05}},{"name":"paint-blue","pbrMetallicRoughness":{"baseColorFactor":[0.05126945836711539,0.10946171076915331,0.22696587349938613,1],"roughnessFactor":0.58,"metallicFactor":0.05}}],"textures":[{"source":0,"sampler":0},{"source":1,"sampler":0},{"source":2,"sampler":0},{"source":3,"sampler":0},{"source":4,"sampler":0},{"source":5,"sampler":0},{"source":6,"sampler":0},{"source":7,"sampler":0},{"source":8,"sampler":0},{"source":9,"sampler":0},{"source":10,"sampler":0},{"source":11,"sampler":0},{"source":12,"sampler":0},{"source":13,"sampler":0},{"source":14,"sampler":0},{"source":15,"sampler":0}],"images":[{"uri":"../textures/concrete-albedo.png"},{"uri":"../textures/concrete-normal.png"},{"uri":"../textures/concrete-orm.png"},{"uri":"../textures/brick-red-albedo.png"},{"uri":"../textures/brick-red-normal.png"},{"uri":"../textures/brick-red-orm.png"},{"uri":"../textures/roof-shingle-albedo.png"},{"uri":"../textures/roof-shingle-normal.png"},{"uri":"../textures/roof-shingle-orm.png"},{"uri":"../textures/wood-painted-albedo.png"},{"uri":"../textures/wood-painted-normal.png"},{"uri":"../textures/wood-painted-orm.png"},{"uri":"../textures/metal-dark-albedo.png"},{"uri":"../textures/metal-dark-normal.png"},{"uri":"../textures/metal-dark-orm.png"},{"uri":"../signs/brisket-bunker.png"}],"samplers":[{"magFilter":9729,"minFilter":9987,"wrapS":10497,"wrapT":10497}],"buffers":[{"uri":"../shared/geometry.bin","byteLength":16435520}],"bufferViews":[{"buffer":0,"byteOffset":0,"byteLength":3888,"target":34962},{"buffer":0,"byteOffset":3888,"byteLength":3888,"target":34962},{"buffer":0,"byteOffset":995896,"byteLength":2592,"target":34962},{"buffer":0,"byteOffset":868536,"byteLength":3888,"target":34962},{"buffer":0,"byteOffset":998488,"byteLength":2592,"target":34962},{"buffer":0,"byteOffset":1001080,"byteLength":2592,"target":34962},{"buffer":0,"byteOffset":378372,"byteLength":3888,"target":34962},{"buffer":0,"byteOffset":1003672,"byteLength":2592,"target":34962},{"buffer":0,"byteOffset":880200,"byteLength":768,"target":34962},{"buffer":0,"byteOffset":880968,"byteLength":768,"target":34962},{"buffer":0,"byteOffset":881736,"byteLength":512,"target":34962},{"buffer":0,"byteOffset":882248,"byteLength":240,"target":34963},{"buffer":0,"byteOffset":45664,"byteLength":288,"target":34962},{"buffer":0,"byteOffset":45952,"byteLength":288,"target":34962},{"buffer":0,"byteOffset":46240,"byteLength":192,"target":34962},{"buffer":0,"byteOffset":46432,"byteLength":72,"target":34963},{"buffer":0,"byteOffset":46504,"byteLength":48,"target":34962},{"buffer":0,"byteOffset":46552,"byteLength":48,"target":34962},{"buffer":0,"byteOffset":222724,"byteLength":32,"target":34962},{"buffer":0,"byteOffset":46632,"byteLength":12,"target":34963},{"buffer":0,"byteOffset":585888,"byteLength":2592,"target":34962},{"buffer":0,"byteOffset":582912,"byteLength":2592,"target":34962},{"buffer":0,"byteOffset":46644,"byteLength":288,"target":34962},{"buffer":0,"byteOffset":1006264,"byteLength":192,"target":34962},{"buffer":0,"byteOffset":1006456,"byteLength":192,"target":34962},{"buffer":0,"byteOffset":1006648,"byteLength":192,"target":34962},{"buffer":0,"byteOffset":1006840,"byteLength":192,"target":34962},{"buffer":0,"byteOffset":883256,"byteLength":480,"target":34962},{"buffer":0,"byteOffset":883736,"byteLength":480,"target":34962},{"buffer":0,"byteOffset":884216,"byteLength":320,"target":34962},{"buffer":0,"byteOffset":48596,"byteLength":144,"target":34963},{"buffer":0,"byteOffset":588480,"byteLength":192,"target":34962},{"buffer":0,"byteOffset":585696,"byteLength":192,"target":34962}],"accessors":[{"bufferView":0,"componentType":5126,"count":324,"type":"VEC3","min":[-0.5,-0.5,-0.5],"max":[0.5,0.5,0.5]},{"bufferView":1,"componentType":5126,"count":324,"type":"VEC3"},{"bufferView":2,"componentType":5126,"count":324,"type":"VEC2"},{"bufferView":3,"componentType":5126,"count":324,"type":"VEC3","min":[-0.5,-0.5,-0.5],"max":[0.5,0.5,0.5]},{"bufferView":4,"componentType":5126,"count":324,"type":"VEC2"},{"bufferView":5,"componentType":5126,"count":324,"type":"VEC2"},{"bufferView":6,"componentType":5126,"count":324,"type":"VEC3","min":[-0.5,-0.5,-0.5],"max":[0.5,0.5,0.5]},{"bufferView":7,"componentType":5126,"count":324,"type":"VEC2"},{"bufferView":8,"componentType":5126,"count":64,"type":"VEC3","min":[-0.9510565400123596,-0.5,-1],"max":[0.9510565400123596,0.5,1]},{"bufferView":9,"componentType":5126,"count":64,"type":"VEC3"},{"bufferView":10,"componentType":5126,"count":64,"type":"VEC2"},{"bufferView":11,"componentType":5123,"count":120,"type":"SCALAR"},{"bufferView":12,"componentType":5126,"count":24,"type":"VEC3","min":[-0.5,-0.5,-0.02500000037252903],"max":[0.5,0.5,0.02500000037252903]},{"bufferView":13,"componentType":5126,"count":24,"type":"VEC3"},{"bufferView":14,"componentType":5126,"count":24,"type":"VEC2"},{"bufferView":15,"componentType":5123,"count":36,"type":"SCALAR"},{"bufferView":16,"componentType":5126,"count":4,"type":"VEC3","min":[-0.5,-0.5,0],"max":[0.5,0.5,0]},{"bufferView":17,"componentType":5126,"count":4,"type":"VEC3"},{"bufferView":18,"componentType":5126,"count":4,"type":"VEC2"},{"bufferView":19,"componentType":5123,"count":6,"type":"SCALAR"},{"bufferView":20,"componentType":5126,"count":324,"type":"VEC2"},{"bufferView":21,"componentType":5126,"count":324,"type":"VEC2"},{"bufferView":22,"componentType":5126,"count":24,"type":"VEC3","min":[-0.5,-0.5,-0.5],"max":[0.5,0.5,0.5]},{"bufferView":23,"componentType":5126,"count":24,"type":"VEC2"},{"bufferView":24,"componentType":5126,"count":24,"type":"VEC2"},{"bufferView":25,"componentType":5126,"count":24,"type":"VEC2"},{"bufferView":26,"componentType":5126,"count":24,"type":"VEC2"},{"bufferView":27,"componentType":5126,"count":40,"type":"VEC3","min":[-0.8660253882408142,-0.5,-1],"max":[0.8660253882408142,0.5,1]},{"bufferView":28,"componentType":5126,"count":40,"type":"VEC3"},{"bufferView":29,"componentType":5126,"count":40,"type":"VEC2"},{"bufferView":30,"componentType":5123,"count":72,"type":"SCALAR"},{"bufferView":31,"componentType":5126,"count":24,"type":"VEC2"},{"bufferView":32,"componentType":5126,"count":24,"type":"VEC2"}],"extensionsUsed":["KHR_materials_unlit"],"extras":{"id":"vlt-brisket-bunker-32","family":"brisket-bunker","variant":31,"plan":"C2-2","units":"metres","up":"+Y","front":"+Z","lodScenes":[0,1,2]}}