{"asset":{"version":"2.0","generator":"SLOPMERICA Department of Unnecessary Development 1.0"},"scene":0,"scenes":[{"name":"LOD 0","nodes":[0,1,2,3,4,5,6,7,8,9,10,11,12,13],"extras":{"level":0}},{"name":"LOD 1","nodes":[14,15,16,17,18,19,20,21,22,23,24,25,26,27],"extras":{"level":1}},{"name":"LOD 2","nodes":[28,29,30,31,32,33,34],"extras":{"level":2}}],"nodes":[{"name":"surveyed lot","mesh":0,"translation":[0,0.06,0],"scale":[12.03136,0.12,10.98592]},{"name":"main house","mesh":1,"translation":[0,2.88,0],"scale":[8.272,5.4,5.984]},{"name":"two story roof right","mesh":2,"translation":[-2.193,6.686519,0],"rotation":[0,0,0.227978,0.973666],"scale":[4.894802,0.16,6.484]},{"name":"two story roof left","mesh":2,"translation":[2.193,6.686519,0],"rotation":[0,0,-0.227978,0.973666],"scale":[4.894802,0.16,6.484]},{"name":"two story roof end infill","mesh":3,"translation":[0,5.6,0]},{"name":"bay window","mesh":4,"translation":[-2.2,1.6,3.492],"scale":[2.4,2.6,1]},{"name":"window 4.2 0","mesh":5,"translation":[-2.55,4.2,3.072],"scale":[0.7,0.75,0.09]},{"name":"window 4.2 1","mesh":5,"translation":[-0.85,4.2,3.072],"scale":[0.7,0.75,0.09]},{"name":"window 4.2 2","mesh":5,"translation":[0.85,4.2,3.072],"scale":[0.7,0.75,0.09]},{"name":"window 4.2 3","mesh":5,"translation":[2.55,4.2,3.072],"scale":[0.7,0.75,0.09]},{"name":"garage door","mesh":6,"translation":[2.736,1.3,3.072],"scale":[2.7,2.05,0.12]},{"name":"window 1.8 0","mesh":5,"translation":[-0.675,1.8,3.072],"scale":[0.7,0.75,0.09]},{"name":"window 1.8 1","mesh":5,"translation":[0.675,1.8,3.072],"scale":[0.7,0.75,0.09]},{"name":"hoa violation grass","mesh":7,"translation":[0,0.23,6.392],"scale":[12.272,0.46,2.5]},{"name":"surveyed lot","mesh":8,"translation":[0,0.06,0],"scale":[12.03136,0.12,10.98592]},{"name":"main house","mesh":9,"translation":[0,2.88,0],"scale":[8.272,5.4,5.984]},{"name":"two story roof right","mesh":10,"translation":[-2.193,6.686519,0],"rotation":[0,0,0.227978,0.973666],"scale":[4.894802,0.16,6.484]},{"name":"two story roof left","mesh":10,"translation":[2.193,6.686519,0],"rotation":[0,0,-0.227978,0.973666],"scale":[4.894802,0.16,6.484]},{"name":"two story roof end infill","mesh":3,"translation":[0,5.6,0]},{"name":"bay window","mesh":11,"translation":[-2.2,1.6,3.492],"scale":[2.4,2.6,1]},{"name":"window 4.2 0","mesh":12,"translation":[-2.55,4.2,3.072],"scale":[0.7,0.75,0.09]},{"name":"window 4.2 1","mesh":12,"translation":[-0.85,4.2,3.072],"scale":[0.7,0.75,0.09]},{"name":"window 4.2 2","mesh":12,"translation":[0.85,4.2,3.072],"scale":[0.7,0.75,0.09]},{"name":"window 4.2 3","mesh":12,"translation":[2.55,4.2,3.072],"scale":[0.7,0.75,0.09]},{"name":"garage door","mesh":13,"translation":[2.736,1.3,3.072],"scale":[2.7,2.05,0.12]},{"name":"window 1.8 0","mesh":12,"translation":[-0.675,1.8,3.072],"scale":[0.7,0.75,0.09]},{"name":"window 1.8 1","mesh":12,"translation":[0.675,1.8,3.072],"scale":[0.7,0.75,0.09]},{"name":"hoa violation grass","mesh":14,"translation":[0,0.23,6.392],"scale":[12.272,0.46,2.5]},{"name":"surveyed lot","mesh":8,"translation":[0,0.06,0],"scale":[12.03136,0.12,10.98592]},{"name":"main house","mesh":9,"translation":[0,2.88,0],"scale":[8.272,5.4,5.984]},{"name":"two story roof right","mesh":10,"translation":[-2.193,6.686519,0],"rotation":[0,0,0.227978,0.973666],"scale":[4.894802,0.16,6.484]},{"name":"two story roof left","mesh":10,"translation":[2.193,6.686519,0],"rotation":[0,0,-0.227978,0.973666],"scale":[4.894802,0.16,6.484]},{"name":"two story roof end infill","mesh":3,"translation":[0,5.6,0]},{"name":"bay window","mesh":11,"translation":[-2.2,1.6,3.492],"scale":[2.4,2.6,1]},{"name":"garage door","mesh":13,"translation":[2.736,1.3,3.072],"scale":[2.7,2.05,0.12]}],"meshes":[{"primitives":[{"attributes":{"POSITION":0,"NORMAL":1,"TEXCOORD_0":2},"material":0,"mode":4}]},{"primitives":[{"attributes":{"POSITION":3,"NORMAL":1,"TEXCOORD_0":4},"material":1,"mode":4}]},{"primitives":[{"attributes":{"POSITION":0,"NORMAL":1,"TEXCOORD_0":5},"material":2,"mode":4}]},{"primitives":[{"attributes":{"POSITION":6,"NORMAL":7,"TEXCOORD_0":8},"material":1,"mode":4}]},{"primitives":[{"attributes":{"POSITION":0,"NORMAL":1,"TEXCOORD_0":9},"material":3,"mode":4}]},{"primitives":[{"attributes":{"POSITION":0,"NORMAL":1,"TEXCOORD_0":10},"material":4,"mode":4}]},{"primitives":[{"attributes":{"POSITION":0,"NORMAL":1,"TEXCOORD_0":11},"material":5,"mode":4}]},{"primitives":[{"attributes":{"POSITION":0,"NORMAL":1,"TEXCOORD_0":12},"material":6,"mode":4}]},{"primitives":[{"attributes":{"POSITION":13,"NORMAL":14,"TEXCOORD_0":15},"material":0,"mode":4,"indices":16}]},{"primitives":[{"attributes":{"POSITION":13,"NORMAL":14,"TEXCOORD_0":17},"material":1,"mode":4,"indices":16}]},{"primitives":[{"attributes":{"POSITION":13,"NORMAL":14,"TEXCOORD_0":18},"material":2,"mode":4,"indices":16}]},{"primitives":[{"attributes":{"POSITION":13,"NORMAL":14,"TEXCOORD_0":19},"material":3,"mode":4,"indices":16}]},{"primitives":[{"attributes":{"POSITION":13,"NORMAL":14,"TEXCOORD_0":20},"material":4,"mode":4,"indices":16}]},{"primitives":[{"attributes":{"POSITION":13,"NORMAL":14,"TEXCOORD_0":21},"material":5,"mode":4,"indices":16}]},{"primitives":[{"attributes":{"POSITION":13,"NORMAL":14,"TEXCOORD_0":22},"material":6,"mode":4,"indices":16}]}],"materials":[{"name":"concrete","pbrMetallicRoughness":{"baseColorTexture":{"index":0},"metallicRoughnessTexture":{"index":2},"roughnessFactor":1,"metallicFactor":1},"normalTexture":{"index":1,"scale":0.82},"occlusionTexture":{"index":2,"strength":0.35}},{"name":"brick-red","pbrMetallicRoughness":{"baseColorTexture":{"index":3},"metallicRoughnessTexture":{"index":5},"roughnessFactor":1,"metallicFactor":1},"normalTexture":{"index":4,"scale":1.15},"occlusionTexture":{"index":5,"strength":0.35}},{"name":"roof-shingle","pbrMetallicRoughness":{"baseColorTexture":{"index":6},"metallicRoughnessTexture":{"index":8},"roughnessFactor":1,"metallicFactor":1},"normalTexture":{"index":7,"scale":0.78},"occlusionTexture":{"index":8,"strength":0.35}},{"name":"stucco-ivory","pbrMetallicRoughness":{"baseColorTexture":{"index":9},"metallicRoughnessTexture":{"index":11},"roughnessFactor":1,"metallicFactor":1},"normalTexture":{"index":10,"scale":0.5},"occlusionTexture":{"index":11,"strength":0.35}},{"name":"glass-blue","pbrMetallicRoughness":{"baseColorTexture":{"index":12},"metallicRoughnessTexture":{"index":14},"roughnessFactor":1,"metallicFactor":1},"normalTexture":{"index":13,"scale":0.12},"occlusionTexture":{"index":14,"strength":0.35}},{"name":"wood-painted","pbrMetallicRoughness":{"baseColorTexture":{"index":15},"metallicRoughnessTexture":{"index":17},"roughnessFactor":1,"metallicFactor":1},"normalTexture":{"index":16,"scale":0.55},"occlusionTexture":{"index":17,"strength":0.35}},{"name":"foliage","pbrMetallicRoughness":{"baseColorTexture":{"index":18},"metallicRoughnessTexture":{"index":20},"roughnessFactor":1,"metallicFactor":1},"normalTexture":{"index":19,"scale":0.88},"occlusionTexture":{"index":20,"strength":0.35}}],"textures":[{"source":0,"sampler":0},{"source":1,"sampler":0},{"source":2,"sampler":0},{"source":3,"sampler":0},{"source":4,"sampler":0},{"source":5,"sampler":0},{"source":6,"sampler":0},{"source":7,"sampler":0},{"source":8,"sampler":0},{"source":9,"sampler":0},{"source":10,"sampler":0},{"source":11,"sampler":0},{"source":12,"sampler":0},{"source":13,"sampler":0},{"source":14,"sampler":0},{"source":15,"sampler":0},{"source":16,"sampler":0},{"source":17,"sampler":0},{"source":18,"sampler":0},{"source":19,"sampler":0},{"source":20,"sampler":0}],"images":[{"uri":"../textures/concrete-albedo.png"},{"uri":"../textures/concrete-normal.png"},{"uri":"../textures/concrete-orm.png"},{"uri":"../textures/brick-red-albedo.png"},{"uri":"../textures/brick-red-normal.png"},{"uri":"../textures/brick-red-orm.png"},{"uri":"../textures/roof-shingle-albedo.png"},{"uri":"../textures/roof-shingle-normal.png"},{"uri":"../textures/roof-shingle-orm.png"},{"uri":"../textures/stucco-ivory-albedo.png"},{"uri":"../textures/stucco-ivory-normal.png"},{"uri":"../textures/stucco-ivory-orm.png"},{"uri":"../textures/glass-blue-albedo.png"},{"uri":"../textures/glass-blue-normal.png"},{"uri":"../textures/glass-blue-orm.png"},{"uri":"../textures/wood-painted-albedo.png"},{"uri":"../textures/wood-painted-normal.png"},{"uri":"../textures/wood-painted-orm.png"},{"uri":"../textures/foliage-albedo.png"},{"uri":"../textures/foliage-normal.png"},{"uri":"../textures/foliage-orm.png"}],"samplers":[{"magFilter":9729,"minFilter":9987,"wrapS":10497,"wrapT":10497}],"buffers":[{"uri":"../shared/geometry.bin","byteLength":16435520}],"bufferViews":[{"buffer":0,"byteOffset":0,"byteLength":3888,"target":34962},{"buffer":0,"byteOffset":3888,"byteLength":3888,"target":34962},{"buffer":0,"byteOffset":14848796,"byteLength":2592,"target":34962},{"buffer":0,"byteOffset":5651632,"byteLength":3888,"target":34962},{"buffer":0,"byteOffset":14851388,"byteLength":2592,"target":34962},{"buffer":0,"byteOffset":14853980,"byteLength":2592,"target":34962},{"buffer":0,"byteOffset":14856572,"byteLength":72,"target":34962},{"buffer":0,"byteOffset":608760,"byteLength":72,"target":34962},{"buffer":0,"byteOffset":14856644,"byteLength":48,"target":34962},{"buffer":0,"byteOffset":14856692,"byteLength":2592,"target":34962},{"buffer":0,"byteOffset":4235856,"byteLength":2592,"target":34962},{"buffer":0,"byteOffset":14859284,"byteLength":2592,"target":34962},{"buffer":0,"byteOffset":14921780,"byteLength":2592,"target":34962},{"buffer":0,"byteOffset":46644,"byteLength":288,"target":34962},{"buffer":0,"byteOffset":45952,"byteLength":288,"target":34962},{"buffer":0,"byteOffset":14861876,"byteLength":192,"target":34962},{"buffer":0,"byteOffset":46432,"byteLength":72,"target":34963},{"buffer":0,"byteOffset":14862068,"byteLength":192,"target":34962},{"buffer":0,"byteOffset":14862260,"byteLength":192,"target":34962},{"buffer":0,"byteOffset":14862452,"byteLength":192,"target":34962},{"buffer":0,"byteOffset":4252176,"byteLength":192,"target":34962},{"buffer":0,"byteOffset":14862644,"byteLength":192,"target":34962},{"buffer":0,"byteOffset":14924372,"byteLength":192,"target":34962}],"accessors":[{"bufferView":0,"componentType":5126,"count":324,"type":"VEC3","min":[-0.5,-0.5,-0.5],"max":[0.5,0.5,0.5]},{"bufferView":1,"componentType":5126,"count":324,"type":"VEC3"},{"bufferView":2,"componentType":5126,"count":324,"type":"VEC2"},{"bufferView":3,"componentType":5126,"count":324,"type":"VEC3","min":[-0.5,-0.5,-0.5],"max":[0.5,0.5,0.5]},{"bufferView":4,"componentType":5126,"count":324,"type":"VEC2"},{"bufferView":5,"componentType":5126,"count":324,"type":"VEC2"},{"bufferView":6,"componentType":5126,"count":6,"type":"VEC3","min":[-4.386000156402588,0,-3.2269999980926514],"max":[4.386000156402588,2.1730382442474365,3.2269999980926514]},{"bufferView":7,"componentType":5126,"count":6,"type":"VEC3"},{"bufferView":8,"componentType":5126,"count":6,"type":"VEC2"},{"bufferView":9,"componentType":5126,"count":324,"type":"VEC2"},{"bufferView":10,"componentType":5126,"count":324,"type":"VEC2"},{"bufferView":11,"componentType":5126,"count":324,"type":"VEC2"},{"bufferView":12,"componentType":5126,"count":324,"type":"VEC2"},{"bufferView":13,"componentType":5126,"count":24,"type":"VEC3","min":[-0.5,-0.5,-0.5],"max":[0.5,0.5,0.5]},{"bufferView":14,"componentType":5126,"count":24,"type":"VEC3"},{"bufferView":15,"componentType":5126,"count":24,"type":"VEC2"},{"bufferView":16,"componentType":5123,"count":36,"type":"SCALAR"},{"bufferView":17,"componentType":5126,"count":24,"type":"VEC2"},{"bufferView":18,"componentType":5126,"count":24,"type":"VEC2"},{"bufferView":19,"componentType":5126,"count":24,"type":"VEC2"},{"bufferView":20,"componentType":5126,"count":24,"type":"VEC2"},{"bufferView":21,"componentType":5126,"count":24,"type":"VEC2"},{"bufferView":22,"componentType":5126,"count":24,"type":"VEC2"}],"extensionsUsed":["KHR_materials_unlit"],"extras":{"id":"vlt-tract-carrington-26","family":"tract-carrington","variant":25,"plan":"B1-2","units":"metres","up":"+Y","front":"+Z","lodScenes":[0,1,2]}}