{"asset":{"version":"2.0","generator":"SLOPMERICA Department of Unnecessary Development 1.0"},"scene":0,"scenes":[{"name":"LOD 0","nodes":[0,1,2,3,4,5,6,7,8,9,10,11,12,13,14,15,16,17,18,19,20,21,22,23,24,25,26,27,28,29,30,31,32,33,34,35,36,37,38,39,40,41,42,43,44,45,46,47,48,49,50,51,52,53,54,55,56,57,58,59,60,61,62,63,64,65],"extras":{"level":0}},{"name":"LOD 1","nodes":[66,67,68,69,70,71,72,73,74,75,76,77,78,79,80,81,82,83,84,85,86,87,88,89,90,91,92,93,94,95,96,97,98,99,100,101,102,103,104,105,106,107,108,109,110,111],"extras":{"level":1}},{"name":"LOD 2","nodes":[112,113,114,115,116,117,118,119,120,121,122,123,124,125,126,127,128,129],"extras":{"level":2}}],"nodes":[{"name":"site-pad","mesh":0,"translation":[0,0.06,0],"scale":[16.224,0.12,9.7344]},{"name":"variant-apron","mesh":1,"translation":[-3.042,0.13,4.9],"scale":[4.212,0.08,0.8]},{"name":"bollard-0","mesh":2,"translation":[-5.928,0.43,5.02],"scale":[0.08,0.62,0.08]},{"name":"bollard-1","mesh":2,"translation":[0,0.43,5.02],"scale":[0.08,0.62,0.08]},{"name":"bollard-2","mesh":2,"translation":[5.928,0.43,5.02],"scale":[0.08,0.62,0.08]},{"name":"layout-cabinet","mesh":3,"translation":[-8,0.555,-2.106],"scale":[0.45,0.87,0.32]},{"name":"deferred-maintenance-skip","mesh":4,"translation":[5.304,0.5,-4.1184],"scale":[1.39,0.75,0.65]},{"name":"skip-rubble","mesh":5,"translation":[5.304,0.98,-4.1184],"scale":[0.72,0.2,0.5]},{"name":"deck-0","mesh":6,"translation":[0,0.32,0],"scale":[15.6,0.28,9.36]},{"name":"post-0-0--3.7439999999999998","mesh":7,"translation":[-6.552,1.3,-3.744],"scale":[0.32,2.25,0.32]},{"name":"post-0-0-3.7439999999999998","mesh":7,"translation":[-6.552,1.3,3.744],"scale":[0.32,2.25,0.32]},{"name":"post-0-1--3.7439999999999998","mesh":7,"translation":[-3.276,1.3,-3.744],"scale":[0.32,2.25,0.32]},{"name":"post-0-1-3.7439999999999998","mesh":7,"translation":[-3.276,1.3,3.744],"scale":[0.32,2.25,0.32]},{"name":"post-0-2--3.7439999999999998","mesh":7,"translation":[0,1.3,-3.744],"scale":[0.32,2.25,0.32]},{"name":"post-0-2-3.7439999999999998","mesh":7,"translation":[0,1.3,3.744],"scale":[0.32,2.25,0.32]},{"name":"post-0-3--3.7439999999999998","mesh":7,"translation":[3.276,1.3,-3.744],"scale":[0.32,2.25,0.32]},{"name":"post-0-3-3.7439999999999998","mesh":7,"translation":[3.276,1.3,3.744],"scale":[0.32,2.25,0.32]},{"name":"post-0-4--3.7439999999999998","mesh":7,"translation":[6.552,1.3,-3.744],"scale":[0.32,2.25,0.32]},{"name":"post-0-4-3.7439999999999998","mesh":7,"translation":[6.552,1.3,3.744],"scale":[0.32,2.25,0.32]},{"name":"deck-1","mesh":6,"translation":[0,2.57,0],"scale":[15.6,0.28,9.36]},{"name":"post-1-0--3.7439999999999998","mesh":7,"translation":[-6.552,3.55,-3.744],"scale":[0.32,2.25,0.32]},{"name":"post-1-0-3.7439999999999998","mesh":7,"translation":[-6.552,3.55,3.744],"scale":[0.32,2.25,0.32]},{"name":"post-1-1--3.7439999999999998","mesh":7,"translation":[-3.276,3.55,-3.744],"scale":[0.32,2.25,0.32]},{"name":"post-1-1-3.7439999999999998","mesh":7,"translation":[-3.276,3.55,3.744],"scale":[0.32,2.25,0.32]},{"name":"post-1-2--3.7439999999999998","mesh":7,"translation":[0,3.55,-3.744],"scale":[0.32,2.25,0.32]},{"name":"post-1-2-3.7439999999999998","mesh":7,"translation":[0,3.55,3.744],"scale":[0.32,2.25,0.32]},{"name":"post-1-3--3.7439999999999998","mesh":7,"translation":[3.276,3.55,-3.744],"scale":[0.32,2.25,0.32]},{"name":"post-1-3-3.7439999999999998","mesh":7,"translation":[3.276,3.55,3.744],"scale":[0.32,2.25,0.32]},{"name":"post-1-4--3.7439999999999998","mesh":7,"translation":[6.552,3.55,-3.744],"scale":[0.32,2.25,0.32]},{"name":"post-1-4-3.7439999999999998","mesh":7,"translation":[6.552,3.55,3.744],"scale":[0.32,2.25,0.32]},{"name":"deck-2","mesh":6,"translation":[0,4.82,0],"scale":[15.6,0.28,9.36]},{"name":"post-2-0--3.7439999999999998","mesh":7,"translation":[-6.552,5.8,-3.744],"scale":[0.32,2.25,0.32]},{"name":"post-2-0-3.7439999999999998","mesh":7,"translation":[-6.552,5.8,3.744],"scale":[0.32,2.25,0.32]},{"name":"post-2-1--3.7439999999999998","mesh":7,"translation":[-3.276,5.8,-3.744],"scale":[0.32,2.25,0.32]},{"name":"post-2-1-3.7439999999999998","mesh":7,"translation":[-3.276,5.8,3.744],"scale":[0.32,2.25,0.32]},{"name":"post-2-2--3.7439999999999998","mesh":7,"translation":[0,5.8,-3.744],"scale":[0.32,2.25,0.32]},{"name":"post-2-2-3.7439999999999998","mesh":7,"translation":[0,5.8,3.744],"scale":[0.32,2.25,0.32]},{"name":"post-2-3--3.7439999999999998","mesh":7,"translation":[3.276,5.8,-3.744],"scale":[0.32,2.25,0.32]},{"name":"post-2-3-3.7439999999999998","mesh":7,"translation":[3.276,5.8,3.744],"scale":[0.32,2.25,0.32]},{"name":"post-2-4--3.7439999999999998","mesh":7,"translation":[6.552,5.8,-3.744],"scale":[0.32,2.25,0.32]},{"name":"post-2-4-3.7439999999999998","mesh":7,"translation":[6.552,5.8,3.744],"scale":[0.32,2.25,0.32]},{"name":"deck-3","mesh":6,"translation":[0,7.07,0],"scale":[15.6,0.28,9.36]},{"name":"post-3-0--3.7439999999999998","mesh":7,"translation":[-6.552,8.05,-3.744],"scale":[0.32,2.25,0.32]},{"name":"post-3-0-3.7439999999999998","mesh":7,"translation":[-6.552,8.05,3.744],"scale":[0.32,2.25,0.32]},{"name":"post-3-1--3.7439999999999998","mesh":7,"translation":[-3.276,8.05,-3.744],"scale":[0.32,2.25,0.32]},{"name":"post-3-1-3.7439999999999998","mesh":7,"translation":[-3.276,8.05,3.744],"scale":[0.32,2.25,0.32]},{"name":"post-3-2--3.7439999999999998","mesh":7,"translation":[0,8.05,-3.744],"scale":[0.32,2.25,0.32]},{"name":"post-3-2-3.7439999999999998","mesh":7,"translation":[0,8.05,3.744],"scale":[0.32,2.25,0.32]},{"name":"post-3-3--3.7439999999999998","mesh":7,"translation":[3.276,8.05,-3.744],"scale":[0.32,2.25,0.32]},{"name":"post-3-3-3.7439999999999998","mesh":7,"translation":[3.276,8.05,3.744],"scale":[0.32,2.25,0.32]},{"name":"post-3-4--3.7439999999999998","mesh":7,"translation":[6.552,8.05,-3.744],"scale":[0.32,2.25,0.32]},{"name":"post-3-4-3.7439999999999998","mesh":7,"translation":[6.552,8.05,3.744],"scale":[0.32,2.25,0.32]},{"name":"deck-4","mesh":6,"translation":[0,9.32,0],"scale":[15.6,0.28,9.36]},{"name":"post-4-0--3.7439999999999998","mesh":7,"translation":[-6.552,10.3,-3.744],"scale":[0.32,2.25,0.32]},{"name":"post-4-0-3.7439999999999998","mesh":7,"translation":[-6.552,10.3,3.744],"scale":[0.32,2.25,0.32]},{"name":"post-4-1--3.7439999999999998","mesh":7,"translation":[-3.276,10.3,-3.744],"scale":[0.32,2.25,0.32]},{"name":"post-4-1-3.7439999999999998","mesh":7,"translation":[-3.276,10.3,3.744],"scale":[0.32,2.25,0.32]},{"name":"post-4-2--3.7439999999999998","mesh":7,"translation":[0,10.3,-3.744],"scale":[0.32,2.25,0.32]},{"name":"post-4-2-3.7439999999999998","mesh":7,"translation":[0,10.3,3.744],"scale":[0.32,2.25,0.32]},{"name":"post-4-3--3.7439999999999998","mesh":7,"translation":[3.276,10.3,-3.744],"scale":[0.32,2.25,0.32]},{"name":"post-4-3-3.7439999999999998","mesh":7,"translation":[3.276,10.3,3.744],"scale":[0.32,2.25,0.32]},{"name":"post-4-4--3.7439999999999998","mesh":7,"translation":[6.552,10.3,-3.744],"scale":[0.32,2.25,0.32]},{"name":"post-4-4-3.7439999999999998","mesh":7,"translation":[6.552,10.3,3.744],"scale":[0.32,2.25,0.32]},{"name":"ramp","mesh":8,"translation":[-1.248,5.4,-2.34],"rotation":[0,0,-0.084898,0.99639],"scale":[9.36,0.24,2]},{"name":"parking-sign-back","mesh":9,"translation":[-5.616,10.45,4.88],"scale":[2.4,1.8,1]},{"name":"parking-sign","mesh":10,"translation":[-5.616,10.45,4.909],"scale":[2.3,1.7,1]},{"name":"site-pad","mesh":11,"translation":[0,0.06,0],"scale":[16.224,0.12,9.7344]},{"name":"variant-apron","mesh":12,"translation":[-3.042,0.13,4.9],"scale":[4.212,0.08,0.8]},{"name":"bollard-0","mesh":13,"translation":[-5.928,0.43,5.02],"scale":[0.08,0.62,0.08]},{"name":"bollard-1","mesh":13,"translation":[0,0.43,5.02],"scale":[0.08,0.62,0.08]},{"name":"bollard-2","mesh":13,"translation":[5.928,0.43,5.02],"scale":[0.08,0.62,0.08]},{"name":"layout-cabinet","mesh":14,"translation":[-8,0.555,-2.106],"scale":[0.45,0.87,0.32]},{"name":"deferred-maintenance-skip","mesh":15,"translation":[5.304,0.5,-4.1184],"scale":[1.39,0.75,0.65]},{"name":"skip-rubble","mesh":16,"translation":[5.304,0.98,-4.1184],"scale":[0.72,0.2,0.5]},{"name":"deck-0","mesh":17,"translation":[0,0.32,0],"scale":[15.6,0.28,9.36]},{"name":"post-0-0--3.7439999999999998","mesh":18,"translation":[-6.552,1.3,-3.744],"scale":[0.32,2.25,0.32]},{"name":"post-0-0-3.7439999999999998","mesh":18,"translation":[-6.552,1.3,3.744],"scale":[0.32,2.25,0.32]},{"name":"post-0-1--3.7439999999999998","mesh":18,"translation":[0,1.3,-3.744],"scale":[0.32,2.25,0.32]},{"name":"post-0-1-3.7439999999999998","mesh":18,"translation":[0,1.3,3.744],"scale":[0.32,2.25,0.32]},{"name":"post-0-2--3.7439999999999998","mesh":18,"translation":[6.552,1.3,-3.744],"scale":[0.32,2.25,0.32]},{"name":"post-0-2-3.7439999999999998","mesh":18,"translation":[6.552,1.3,3.744],"scale":[0.32,2.25,0.32]},{"name":"deck-1","mesh":17,"translation":[0,2.57,0],"scale":[15.6,0.28,9.36]},{"name":"post-1-0--3.7439999999999998","mesh":18,"translation":[-6.552,3.55,-3.744],"scale":[0.32,2.25,0.32]},{"name":"post-1-0-3.7439999999999998","mesh":18,"translation":[-6.552,3.55,3.744],"scale":[0.32,2.25,0.32]},{"name":"post-1-1--3.7439999999999998","mesh":18,"translation":[0,3.55,-3.744],"scale":[0.32,2.25,0.32]},{"name":"post-1-1-3.7439999999999998","mesh":18,"translation":[0,3.55,3.744],"scale":[0.32,2.25,0.32]},{"name":"post-1-2--3.7439999999999998","mesh":18,"translation":[6.552,3.55,-3.744],"scale":[0.32,2.25,0.32]},{"name":"post-1-2-3.7439999999999998","mesh":18,"translation":[6.552,3.55,3.744],"scale":[0.32,2.25,0.32]},{"name":"deck-2","mesh":17,"translation":[0,4.82,0],"scale":[15.6,0.28,9.36]},{"name":"post-2-0--3.7439999999999998","mesh":18,"translation":[-6.552,5.8,-3.744],"scale":[0.32,2.25,0.32]},{"name":"post-2-0-3.7439999999999998","mesh":18,"translation":[-6.552,5.8,3.744],"scale":[0.32,2.25,0.32]},{"name":"post-2-1--3.7439999999999998","mesh":18,"translation":[0,5.8,-3.744],"scale":[0.32,2.25,0.32]},{"name":"post-2-1-3.7439999999999998","mesh":18,"translation":[0,5.8,3.744],"scale":[0.32,2.25,0.32]},{"name":"post-2-2--3.7439999999999998","mesh":18,"translation":[6.552,5.8,-3.744],"scale":[0.32,2.25,0.32]},{"name":"post-2-2-3.7439999999999998","mesh":18,"translation":[6.552,5.8,3.744],"scale":[0.32,2.25,0.32]},{"name":"deck-3","mesh":17,"translation":[0,7.07,0],"scale":[15.6,0.28,9.36]},{"name":"post-3-0--3.7439999999999998","mesh":18,"translation":[-6.552,8.05,-3.744],"scale":[0.32,2.25,0.32]},{"name":"post-3-0-3.7439999999999998","mesh":18,"translation":[-6.552,8.05,3.744],"scale":[0.32,2.25,0.32]},{"name":"post-3-1--3.7439999999999998","mesh":18,"translation":[0,8.05,-3.744],"scale":[0.32,2.25,0.32]},{"name":"post-3-1-3.7439999999999998","mesh":18,"translation":[0,8.05,3.744],"scale":[0.32,2.25,0.32]},{"name":"post-3-2--3.7439999999999998","mesh":18,"translation":[6.552,8.05,-3.744],"scale":[0.32,2.25,0.32]},{"name":"post-3-2-3.7439999999999998","mesh":18,"translation":[6.552,8.05,3.744],"scale":[0.32,2.25,0.32]},{"name":"deck-4","mesh":17,"translation":[0,9.32,0],"scale":[15.6,0.28,9.36]},{"name":"post-4-0--3.7439999999999998","mesh":18,"translation":[-6.552,10.3,-3.744],"scale":[0.32,2.25,0.32]},{"name":"post-4-0-3.7439999999999998","mesh":18,"translation":[-6.552,10.3,3.744],"scale":[0.32,2.25,0.32]},{"name":"post-4-1--3.7439999999999998","mesh":18,"translation":[0,10.3,-3.744],"scale":[0.32,2.25,0.32]},{"name":"post-4-1-3.7439999999999998","mesh":18,"translation":[0,10.3,3.744],"scale":[0.32,2.25,0.32]},{"name":"post-4-2--3.7439999999999998","mesh":18,"translation":[6.552,10.3,-3.744],"scale":[0.32,2.25,0.32]},{"name":"post-4-2-3.7439999999999998","mesh":18,"translation":[6.552,10.3,3.744],"scale":[0.32,2.25,0.32]},{"name":"ramp","mesh":19,"translation":[-1.248,5.4,-2.34],"rotation":[0,0,-0.084898,0.99639],"scale":[9.36,0.24,2]},{"name":"parking-sign-back","mesh":9,"translation":[-5.616,10.45,4.88],"scale":[2.4,1.8,1]},{"name":"parking-sign","mesh":10,"translation":[-5.616,10.45,4.909],"scale":[2.3,1.7,1]},{"name":"site-pad","mesh":11,"translation":[0,0.06,0],"scale":[16.224,0.12,9.7344]},{"name":"variant-apron","mesh":12,"translation":[-3.042,0.13,4.9],"scale":[4.212,0.08,0.8]},{"name":"bollard-0","mesh":13,"translation":[-5.928,0.43,5.02],"scale":[0.08,0.62,0.08]},{"name":"layout-cabinet","mesh":14,"translation":[-8,0.555,-2.106],"scale":[0.45,0.87,0.32]},{"name":"deferred-maintenance-skip","mesh":15,"translation":[5.304,0.5,-4.1184],"scale":[1.39,0.75,0.65]},{"name":"deck-0","mesh":17,"translation":[0,0.32,0],"scale":[15.6,0.28,9.36]},{"name":"post-0-0--3.7439999999999998","mesh":18,"translation":[-6.552,1.3,-3.744],"scale":[0.32,2.25,0.32]},{"name":"post-0-0-3.7439999999999998","mesh":18,"translation":[-6.552,1.3,3.744],"scale":[0.32,2.25,0.32]},{"name":"post-0-1--3.7439999999999998","mesh":18,"translation":[6.552,1.3,-3.744],"scale":[0.32,2.25,0.32]},{"name":"post-0-1-3.7439999999999998","mesh":18,"translation":[6.552,1.3,3.744],"scale":[0.32,2.25,0.32]},{"name":"deck-1","mesh":17,"translation":[0,2.57,0],"scale":[15.6,0.28,9.36]},{"name":"post-1-0--3.7439999999999998","mesh":18,"translation":[-6.552,3.55,-3.744],"scale":[0.32,2.25,0.32]},{"name":"post-1-0-3.7439999999999998","mesh":18,"translation":[-6.552,3.55,3.744],"scale":[0.32,2.25,0.32]},{"name":"post-1-1--3.7439999999999998","mesh":18,"translation":[6.552,3.55,-3.744],"scale":[0.32,2.25,0.32]},{"name":"post-1-1-3.7439999999999998","mesh":18,"translation":[6.552,3.55,3.744],"scale":[0.32,2.25,0.32]},{"name":"ramp","mesh":19,"translation":[-1.248,2.16,-2.34],"rotation":[0,0,-0.084898,0.99639],"scale":[9.36,0.24,2]},{"name":"parking-sign-back","mesh":9,"translation":[-5.616,3.7,4.88],"scale":[2.4,1.8,1]},{"name":"parking-sign","mesh":10,"translation":[-5.616,3.7,4.909],"scale":[2.3,1.7,1]}],"meshes":[{"primitives":[{"attributes":{"POSITION":0,"NORMAL":1,"TEXCOORD_0":2},"material":0,"mode":4}]},{"primitives":[{"attributes":{"POSITION":0,"NORMAL":1,"TEXCOORD_0":3},"material":0,"mode":4}]},{"primitives":[{"attributes":{"POSITION":4,"NORMAL":5,"TEXCOORD_0":6},"material":1,"mode":4,"indices":7}]},{"primitives":[{"attributes":{"POSITION":0,"NORMAL":1,"TEXCOORD_0":8},"material":2,"mode":4}]},{"primitives":[{"attributes":{"POSITION":0,"NORMAL":1,"TEXCOORD_0":9},"material":1,"mode":4}]},{"primitives":[{"attributes":{"POSITION":0,"NORMAL":1,"TEXCOORD_0":10},"material":3,"mode":4}]},{"primitives":[{"attributes":{"POSITION":0,"NORMAL":1,"TEXCOORD_0":11},"material":3,"mode":4}]},{"primitives":[{"attributes":{"POSITION":0,"NORMAL":1,"TEXCOORD_0":12},"material":3,"mode":4}]},{"primitives":[{"attributes":{"POSITION":0,"NORMAL":1,"TEXCOORD_0":13},"material":3,"mode":4}]},{"primitives":[{"attributes":{"POSITION":14,"NORMAL":15,"TEXCOORD_0":16},"material":4,"mode":4,"indices":17}]},{"primitives":[{"attributes":{"POSITION":18,"NORMAL":19,"TEXCOORD_0":20},"material":5,"mode":4,"indices":21}]},{"primitives":[{"attributes":{"POSITION":22,"NORMAL":15,"TEXCOORD_0":23},"material":0,"mode":4,"indices":17}]},{"primitives":[{"attributes":{"POSITION":22,"NORMAL":15,"TEXCOORD_0":24},"material":0,"mode":4,"indices":17}]},{"primitives":[{"attributes":{"POSITION":25,"NORMAL":26,"TEXCOORD_0":27},"material":1,"mode":4,"indices":28}]},{"primitives":[{"attributes":{"POSITION":22,"NORMAL":15,"TEXCOORD_0":29},"material":2,"mode":4,"indices":17}]},{"primitives":[{"attributes":{"POSITION":22,"NORMAL":15,"TEXCOORD_0":30},"material":1,"mode":4,"indices":17}]},{"primitives":[{"attributes":{"POSITION":22,"NORMAL":15,"TEXCOORD_0":31},"material":3,"mode":4,"indices":17}]},{"primitives":[{"attributes":{"POSITION":22,"NORMAL":15,"TEXCOORD_0":32},"material":3,"mode":4,"indices":17}]},{"primitives":[{"attributes":{"POSITION":22,"NORMAL":15,"TEXCOORD_0":33},"material":3,"mode":4,"indices":17}]},{"primitives":[{"attributes":{"POSITION":22,"NORMAL":15,"TEXCOORD_0":34},"material":3,"mode":4,"indices":17}]}],"materials":[{"name":"asphalt","pbrMetallicRoughness":{"baseColorTexture":{"index":0},"metallicRoughnessTexture":{"index":2},"roughnessFactor":1,"metallicFactor":1},"normalTexture":{"index":1,"scale":0.62},"occlusionTexture":{"index":2,"strength":0.35}},{"name":"paint-orange","pbrMetallicRoughness":{"baseColorFactor":[0.6444796819634361,0.1878207722902346,0.040915196900556984,1],"roughnessFactor":0.68,"metallicFactor":0.03}},{"name":"metal-galvanized","pbrMetallicRoughness":{"baseColorTexture":{"index":3},"metallicRoughnessTexture":{"index":5},"roughnessFactor":1,"metallicFactor":1},"normalTexture":{"index":4,"scale":0.15},"occlusionTexture":{"index":5,"strength":0.35}},{"name":"concrete","pbrMetallicRoughness":{"baseColorTexture":{"index":6},"metallicRoughnessTexture":{"index":8},"roughnessFactor":1,"metallicFactor":1},"normalTexture":{"index":7,"scale":0.82},"occlusionTexture":{"index":8,"strength":0.35}},{"name":"metal-dark","pbrMetallicRoughness":{"baseColorTexture":{"index":9},"metallicRoughnessTexture":{"index":11},"roughnessFactor":1,"metallicFactor":1},"normalTexture":{"index":10,"scale":0.35},"occlusionTexture":{"index":11,"strength":0.35}},{"name":"parking-minimums-garage signage","pbrMetallicRoughness":{"baseColorTexture":{"index":12},"roughnessFactor":1,"metallicFactor":0},"extensions":{"KHR_materials_unlit":{}}}],"textures":[{"source":0,"sampler":0},{"source":1,"sampler":0},{"source":2,"sampler":0},{"source":3,"sampler":0},{"source":4,"sampler":0},{"source":5,"sampler":0},{"source":6,"sampler":0},{"source":7,"sampler":0},{"source":8,"sampler":0},{"source":9,"sampler":0},{"source":10,"sampler":0},{"source":11,"sampler":0},{"source":12,"sampler":0}],"images":[{"uri":"../textures/asphalt-albedo.png"},{"uri":"../textures/asphalt-normal.png"},{"uri":"../textures/asphalt-orm.png"},{"uri":"../textures/metal-galvanized-albedo.png"},{"uri":"../textures/metal-galvanized-normal.png"},{"uri":"../textures/metal-galvanized-orm.png"},{"uri":"../textures/concrete-albedo.png"},{"uri":"../textures/concrete-normal.png"},{"uri":"../textures/concrete-orm.png"},{"uri":"../textures/metal-dark-albedo.png"},{"uri":"../textures/metal-dark-normal.png"},{"uri":"../textures/metal-dark-orm.png"},{"uri":"../signs/parking-minimums-garage.png"}],"samplers":[{"magFilter":9729,"minFilter":9987,"wrapS":10497,"wrapT":10497}],"buffers":[{"uri":"../shared/geometry.bin","byteLength":16435520}],"bufferViews":[{"buffer":0,"byteOffset":0,"byteLength":3888,"target":34962},{"buffer":0,"byteOffset":3888,"byteLength":3888,"target":34962},{"buffer":0,"byteOffset":6551168,"byteLength":2592,"target":34962},{"buffer":0,"byteOffset":6553760,"byteLength":2592,"target":34962},{"buffer":0,"byteOffset":12960,"byteLength":1200,"target":34962},{"buffer":0,"byteOffset":14160,"byteLength":1200,"target":34962},{"buffer":0,"byteOffset":15360,"byteLength":800,"target":34962},{"buffer":0,"byteOffset":16160,"byteLength":384,"target":34963},{"buffer":0,"byteOffset":73284,"byteLength":2592,"target":34962},{"buffer":0,"byteOffset":214084,"byteLength":2592,"target":34962},{"buffer":0,"byteOffset":208260,"byteLength":2592,"target":34962},{"buffer":0,"byteOffset":9843896,"byteLength":2592,"target":34962},{"buffer":0,"byteOffset":9826808,"byteLength":2592,"target":34962},{"buffer":0,"byteOffset":9846488,"byteLength":2592,"target":34962},{"buffer":0,"byteOffset":45664,"byteLength":288,"target":34962},{"buffer":0,"byteOffset":45952,"byteLength":288,"target":34962},{"buffer":0,"byteOffset":46240,"byteLength":192,"target":34962},{"buffer":0,"byteOffset":46432,"byteLength":72,"target":34963},{"buffer":0,"byteOffset":46504,"byteLength":48,"target":34962},{"buffer":0,"byteOffset":46552,"byteLength":48,"target":34962},{"buffer":0,"byteOffset":216676,"byteLength":32,"target":34962},{"buffer":0,"byteOffset":46632,"byteLength":12,"target":34963},{"buffer":0,"byteOffset":46644,"byteLength":288,"target":34962},{"buffer":0,"byteOffset":6561536,"byteLength":192,"target":34962},{"buffer":0,"byteOffset":6561728,"byteLength":192,"target":34962},{"buffer":0,"byteOffset":47316,"byteLength":480,"target":34962},{"buffer":0,"byteOffset":47796,"byteLength":480,"target":34962},{"buffer":0,"byteOffset":48276,"byteLength":320,"target":34962},{"buffer":0,"byteOffset":48596,"byteLength":144,"target":34963},{"buffer":0,"byteOffset":84068,"byteLength":192,"target":34962},{"buffer":0,"byteOffset":216708,"byteLength":192,"target":34962},{"buffer":0,"byteOffset":211076,"byteLength":192,"target":34962},{"buffer":0,"byteOffset":9849080,"byteLength":192,"target":34962},{"buffer":0,"byteOffset":9832376,"byteLength":192,"target":34962},{"buffer":0,"byteOffset":9849272,"byteLength":192,"target":34962}],"accessors":[{"bufferView":0,"componentType":5126,"count":324,"type":"VEC3","min":[-0.5,-0.5,-0.5],"max":[0.5,0.5,0.5]},{"bufferView":1,"componentType":5126,"count":324,"type":"VEC3"},{"bufferView":2,"componentType":5126,"count":324,"type":"VEC2"},{"bufferView":3,"componentType":5126,"count":324,"type":"VEC2"},{"bufferView":4,"componentType":5126,"count":100,"type":"VEC3","min":[-1,-0.5,-1],"max":[1,0.5,1]},{"bufferView":5,"componentType":5126,"count":100,"type":"VEC3"},{"bufferView":6,"componentType":5126,"count":100,"type":"VEC2"},{"bufferView":7,"componentType":5123,"count":192,"type":"SCALAR"},{"bufferView":8,"componentType":5126,"count":324,"type":"VEC2"},{"bufferView":9,"componentType":5126,"count":324,"type":"VEC2"},{"bufferView":10,"componentType":5126,"count":324,"type":"VEC2"},{"bufferView":11,"componentType":5126,"count":324,"type":"VEC2"},{"bufferView":12,"componentType":5126,"count":324,"type":"VEC2"},{"bufferView":13,"componentType":5126,"count":324,"type":"VEC2"},{"bufferView":14,"componentType":5126,"count":24,"type":"VEC3","min":[-0.5,-0.5,-0.02500000037252903],"max":[0.5,0.5,0.02500000037252903]},{"bufferView":15,"componentType":5126,"count":24,"type":"VEC3"},{"bufferView":16,"componentType":5126,"count":24,"type":"VEC2"},{"bufferView":17,"componentType":5123,"count":36,"type":"SCALAR"},{"bufferView":18,"componentType":5126,"count":4,"type":"VEC3","min":[-0.5,-0.5,0],"max":[0.5,0.5,0]},{"bufferView":19,"componentType":5126,"count":4,"type":"VEC3"},{"bufferView":20,"componentType":5126,"count":4,"type":"VEC2"},{"bufferView":21,"componentType":5123,"count":6,"type":"SCALAR"},{"bufferView":22,"componentType":5126,"count":24,"type":"VEC3","min":[-0.5,-0.5,-0.5],"max":[0.5,0.5,0.5]},{"bufferView":23,"componentType":5126,"count":24,"type":"VEC2"},{"bufferView":24,"componentType":5126,"count":24,"type":"VEC2"},{"bufferView":25,"componentType":5126,"count":40,"type":"VEC3","min":[-0.8660253882408142,-0.5,-1],"max":[0.8660253882408142,0.5,1]},{"bufferView":26,"componentType":5126,"count":40,"type":"VEC3"},{"bufferView":27,"componentType":5126,"count":40,"type":"VEC2"},{"bufferView":28,"componentType":5123,"count":72,"type":"SCALAR"},{"bufferView":29,"componentType":5126,"count":24,"type":"VEC2"},{"bufferView":30,"componentType":5126,"count":24,"type":"VEC2"},{"bufferView":31,"componentType":5126,"count":24,"type":"VEC2"},{"bufferView":32,"componentType":5126,"count":24,"type":"VEC2"},{"bufferView":33,"componentType":5126,"count":24,"type":"VEC2"},{"bufferView":34,"componentType":5126,"count":24,"type":"VEC2"}],"extensionsUsed":["KHR_materials_unlit"],"extras":{"id":"vlt-parking-minimums-garage-23","family":"parking-minimums-garage","variant":22,"plan":"A3-2","units":"metres","up":"+Y","front":"+Z","lodScenes":[0,1,2]}}