{"asset":{"version":"2.0","generator":"SLOPMERICA Department of Unnecessary Development 1.0"},"scene":0,"scenes":[{"name":"LOD 0","nodes":[0,1,2,3,4,5,6,7,8,9,10,11,12,13,14,15,16,17,18,19,20,21,22,23,24,25,26,27,28,29,30,31,32,33,34,35,36,37,38,39,40,41],"extras":{"level":0}},{"name":"LOD 1","nodes":[42,43,44,45,46,47,48,49,50,51,52,53,54,55,56,57,58,59],"extras":{"level":1}},{"name":"LOD 2","nodes":[60,61,62,63,64,65,66,67,68,69,70,71],"extras":{"level":2}}],"nodes":[{"name":"foundation","mesh":0,"translation":[0,0.08,0],"scale":[17.8,0.16,8.64]},{"name":"locker-wall","mesh":1,"translation":[0,2.4336,0],"scale":[15.6,4.8672,2.3184]},{"name":"locker-0-0","mesh":2,"translation":[-7.02,0.8948,1.3236],"scale":[1.46,1.1896,0.18]},{"name":"locker-0-1","mesh":3,"translation":[-5.46,0.8948,1.3236],"scale":[1.46,1.1896,0.18]},{"name":"locker-0-2","mesh":4,"translation":[-3.9,0.8948,1.3236],"scale":[1.46,1.1896,0.18]},{"name":"locker-0-3","mesh":2,"translation":[-2.34,0.8948,1.3236],"scale":[1.46,1.1896,0.18]},{"name":"locker-0-4","mesh":3,"translation":[-0.78,0.8948,1.3236],"scale":[1.46,1.1896,0.18]},{"name":"locker-0-5","mesh":4,"translation":[0.78,0.8948,1.3236],"scale":[1.46,1.1896,0.18]},{"name":"locker-0-6","mesh":2,"translation":[2.34,0.8948,1.3236],"scale":[1.46,1.1896,0.18]},{"name":"locker-0-7","mesh":3,"translation":[3.9,0.8948,1.3236],"scale":[1.46,1.1896,0.18]},{"name":"locker-0-8","mesh":4,"translation":[5.46,0.8948,1.3236],"scale":[1.46,1.1896,0.18]},{"name":"locker-0-9","mesh":2,"translation":[7.02,0.8948,1.3236],"scale":[1.46,1.1896,0.18]},{"name":"locker-1-0","mesh":3,"translation":[-7.02,2.1844,1.3236],"scale":[1.46,1.1896,0.18]},{"name":"locker-1-1","mesh":4,"translation":[-5.46,2.1844,1.3236],"scale":[1.46,1.1896,0.18]},{"name":"locker-1-2","mesh":2,"translation":[-3.9,2.1844,1.3236],"scale":[1.46,1.1896,0.18]},{"name":"locker-1-3","mesh":3,"translation":[-2.34,2.1844,1.3236],"scale":[1.46,1.1896,0.18]},{"name":"locker-1-4","mesh":4,"translation":[-0.78,2.1844,1.3236],"scale":[1.46,1.1896,0.18]},{"name":"locker-1-5","mesh":2,"translation":[0.78,2.1844,1.3236],"scale":[1.46,1.1896,0.18]},{"name":"locker-1-6","mesh":3,"translation":[2.34,2.1844,1.3236],"scale":[1.46,1.1896,0.18]},{"name":"locker-1-7","mesh":4,"translation":[3.9,2.1844,1.3236],"scale":[1.46,1.1896,0.18]},{"name":"locker-1-8","mesh":2,"translation":[5.46,2.1844,1.3236],"scale":[1.46,1.1896,0.18]},{"name":"locker-1-9","mesh":3,"translation":[7.02,2.1844,1.3236],"scale":[1.46,1.1896,0.18]},{"name":"locker-2-0","mesh":4,"translation":[-7.02,3.474,1.3236],"scale":[1.46,1.1896,0.18]},{"name":"locker-2-1","mesh":2,"translation":[-5.46,3.474,1.3236],"scale":[1.46,1.1896,0.18]},{"name":"locker-2-2","mesh":3,"translation":[-3.9,3.474,1.3236],"scale":[1.46,1.1896,0.18]},{"name":"locker-2-3","mesh":4,"translation":[-2.34,3.474,1.3236],"scale":[1.46,1.1896,0.18]},{"name":"locker-2-4","mesh":2,"translation":[-0.78,3.474,1.3236],"scale":[1.46,1.1896,0.18]},{"name":"locker-2-5","mesh":3,"translation":[0.78,3.474,1.3236],"scale":[1.46,1.1896,0.18]},{"name":"locker-2-6","mesh":4,"translation":[2.34,3.474,1.3236],"scale":[1.46,1.1896,0.18]},{"name":"locker-2-7","mesh":2,"translation":[3.9,3.474,1.3236],"scale":[1.46,1.1896,0.18]},{"name":"locker-2-8","mesh":3,"translation":[5.46,3.474,1.3236],"scale":[1.46,1.1896,0.18]},{"name":"locker-2-9","mesh":4,"translation":[7.02,3.474,1.3236],"scale":[1.46,1.1896,0.18]},{"name":"parcel-eye","mesh":5,"translation":[-5.616,6.552,0],"rotation":[0.707107,0,0,0.707107],"scale":[0.9,0.7,0.9]},{"name":"parcel-eye-lens","mesh":6,"translation":[-5.616,6.552,1.932],"scale":[0.32,0.32,0.18]},{"name":"roof-left","mesh":7,"translation":[-3.6685,5.1168,0],"rotation":[0,0,0.188859,0.982004],"scale":[8.7725,0.22,3.8852]},{"name":"roof-right","mesh":7,"translation":[3.6685,5.1168,0],"rotation":[0,0,-0.188859,0.982004],"scale":[8.7725,0.22,3.8852]},{"name":"busy-state-queue-bar","mesh":8,"translation":[0,0.65,4.0572],"scale":[11.232,0.12,0.12]},{"name":"queue-car-0","mesh":9,"translation":[-4.68,0.34,4.508],"scale":[1.35,0.65,0.7]},{"name":"queue-car-1","mesh":10,"translation":[-2.34,0.34,5.0232],"scale":[1.35,0.65,0.7]},{"name":"queue-car-2","mesh":9,"translation":[0,0.34,4.508],"scale":[1.35,0.65,0.7]},{"name":"queue-car-3","mesh":10,"translation":[2.34,0.34,5.0232],"scale":[1.35,0.65,0.7]},{"name":"queue-car-4","mesh":9,"translation":[4.68,0.34,4.508],"scale":[1.35,0.65,0.7]},{"name":"foundation","mesh":11,"translation":[0,0.08,0],"scale":[17.8,0.16,8.64]},{"name":"locker-wall","mesh":12,"translation":[0,2.4336,0],"scale":[15.6,4.8672,2.3184]},{"name":"locker-0-0","mesh":13,"translation":[-5.85,1.2172,1.3236],"scale":[3.8,1.8344,0.18]},{"name":"locker-0-1","mesh":14,"translation":[-1.95,1.2172,1.3236],"scale":[3.8,1.8344,0.18]},{"name":"locker-0-2","mesh":15,"translation":[1.95,1.2172,1.3236],"scale":[3.8,1.8344,0.18]},{"name":"locker-0-3","mesh":13,"translation":[5.85,1.2172,1.3236],"scale":[3.8,1.8344,0.18]},{"name":"locker-1-0","mesh":14,"translation":[-5.85,3.1516,1.3236],"scale":[3.8,1.8344,0.18]},{"name":"locker-1-1","mesh":15,"translation":[-1.95,3.1516,1.3236],"scale":[3.8,1.8344,0.18]},{"name":"locker-1-2","mesh":13,"translation":[1.95,3.1516,1.3236],"scale":[3.8,1.8344,0.18]},{"name":"locker-1-3","mesh":14,"translation":[5.85,3.1516,1.3236],"scale":[3.8,1.8344,0.18]},{"name":"parcel-eye","mesh":16,"translation":[-5.616,6.552,0],"rotation":[0.707107,0,0,0.707107],"scale":[0.9,0.7,0.9]},{"name":"parcel-eye-lens","mesh":17,"translation":[-5.616,6.552,1.932],"scale":[0.32,0.32,0.18]},{"name":"roof-left","mesh":18,"translation":[-3.6685,5.1168,0],"rotation":[0,0,0.188859,0.982004],"scale":[8.7725,0.22,3.8852]},{"name":"roof-right","mesh":18,"translation":[3.6685,5.1168,0],"rotation":[0,0,-0.188859,0.982004],"scale":[8.7725,0.22,3.8852]},{"name":"busy-state-queue-bar","mesh":19,"translation":[0,0.65,4.0572],"scale":[11.232,0.12,0.12]},{"name":"queue-car-0","mesh":20,"translation":[-4.68,0.34,4.508],"scale":[1.35,0.65,0.7]},{"name":"queue-car-1","mesh":21,"translation":[-2.34,0.34,5.0232],"scale":[1.35,0.65,0.7]},{"name":"queue-car-2","mesh":20,"translation":[0,0.34,4.508],"scale":[1.35,0.65,0.7]},{"name":"foundation","mesh":11,"translation":[0,0.08,0],"scale":[17.8,0.16,8.64]},{"name":"locker-wall","mesh":12,"translation":[0,2.4336,0],"scale":[15.6,4.8672,2.3184]},{"name":"locker-0-0","mesh":22,"translation":[-3.9,1.2172,1.3236],"scale":[7.7,1.8344,0.18]},{"name":"locker-0-1","mesh":23,"translation":[3.9,1.2172,1.3236],"scale":[7.7,1.8344,0.18]},{"name":"locker-1-0","mesh":23,"translation":[-3.9,3.1516,1.3236],"scale":[7.7,1.8344,0.18]},{"name":"locker-1-1","mesh":24,"translation":[3.9,3.1516,1.3236],"scale":[7.7,1.8344,0.18]},{"name":"parcel-eye","mesh":16,"translation":[-5.616,6.552,0],"rotation":[0.707107,0,0,0.707107],"scale":[0.9,0.7,0.9]},{"name":"parcel-eye-lens","mesh":25,"translation":[-5.616,6.552,1.932],"scale":[0.32,0.32,0.18]},{"name":"roof-left","mesh":18,"translation":[-3.6685,5.1168,0],"rotation":[0,0,0.188859,0.982004],"scale":[8.7725,0.22,3.8852]},{"name":"roof-right","mesh":18,"translation":[3.6685,5.1168,0],"rotation":[0,0,-0.188859,0.982004],"scale":[8.7725,0.22,3.8852]},{"name":"busy-state-queue-bar","mesh":19,"translation":[0,0.65,4.0572],"scale":[11.232,0.12,0.12]},{"name":"queue-car-0","mesh":20,"translation":[-4.68,0.34,4.508],"scale":[1.35,0.65,0.7]}],"meshes":[{"primitives":[{"attributes":{"POSITION":0,"NORMAL":1,"TEXCOORD_0":2},"material":0,"mode":4}]},{"primitives":[{"attributes":{"POSITION":3,"NORMAL":1,"TEXCOORD_0":4},"material":1,"mode":4}]},{"primitives":[{"attributes":{"POSITION":0,"NORMAL":1,"TEXCOORD_0":5},"material":2,"mode":4}]},{"primitives":[{"attributes":{"POSITION":0,"NORMAL":1,"TEXCOORD_0":5},"material":3,"mode":4}]},{"primitives":[{"attributes":{"POSITION":0,"NORMAL":1,"TEXCOORD_0":5},"material":4,"mode":4}]},{"primitives":[{"attributes":{"POSITION":6,"NORMAL":7,"TEXCOORD_0":8},"material":2,"mode":4,"indices":9}]},{"primitives":[{"attributes":{"POSITION":10,"NORMAL":10,"TEXCOORD_0":11},"material":5,"mode":4,"indices":12}]},{"primitives":[{"attributes":{"POSITION":0,"NORMAL":1,"TEXCOORD_0":13},"material":6,"mode":4}]},{"primitives":[{"attributes":{"POSITION":0,"NORMAL":1,"TEXCOORD_0":14},"material":2,"mode":4}]},{"primitives":[{"attributes":{"POSITION":0,"NORMAL":1,"TEXCOORD_0":15},"material":7,"mode":4}]},{"primitives":[{"attributes":{"POSITION":0,"NORMAL":1,"TEXCOORD_0":15},"material":8,"mode":4}]},{"primitives":[{"attributes":{"POSITION":16,"NORMAL":17,"TEXCOORD_0":18},"material":0,"mode":4,"indices":19}]},{"primitives":[{"attributes":{"POSITION":16,"NORMAL":17,"TEXCOORD_0":20},"material":1,"mode":4,"indices":19}]},{"primitives":[{"attributes":{"POSITION":16,"NORMAL":17,"TEXCOORD_0":21},"material":2,"mode":4,"indices":19}]},{"primitives":[{"attributes":{"POSITION":16,"NORMAL":17,"TEXCOORD_0":21},"material":3,"mode":4,"indices":19}]},{"primitives":[{"attributes":{"POSITION":16,"NORMAL":17,"TEXCOORD_0":21},"material":4,"mode":4,"indices":19}]},{"primitives":[{"attributes":{"POSITION":22,"NORMAL":23,"TEXCOORD_0":24},"material":2,"mode":4,"indices":25}]},{"primitives":[{"attributes":{"POSITION":26,"NORMAL":26,"TEXCOORD_0":27},"material":5,"mode":4,"indices":28}]},{"primitives":[{"attributes":{"POSITION":16,"NORMAL":17,"TEXCOORD_0":29},"material":6,"mode":4,"indices":19}]},{"primitives":[{"attributes":{"POSITION":16,"NORMAL":17,"TEXCOORD_0":30},"material":2,"mode":4,"indices":19}]},{"primitives":[{"attributes":{"POSITION":16,"NORMAL":17,"TEXCOORD_0":31},"material":7,"mode":4,"indices":19}]},{"primitives":[{"attributes":{"POSITION":16,"NORMAL":17,"TEXCOORD_0":31},"material":8,"mode":4,"indices":19}]},{"primitives":[{"attributes":{"POSITION":16,"NORMAL":17,"TEXCOORD_0":32},"material":2,"mode":4,"indices":19}]},{"primitives":[{"attributes":{"POSITION":16,"NORMAL":17,"TEXCOORD_0":32},"material":3,"mode":4,"indices":19}]},{"primitives":[{"attributes":{"POSITION":16,"NORMAL":17,"TEXCOORD_0":32},"material":4,"mode":4,"indices":19}]},{"primitives":[{"attributes":{"POSITION":33,"NORMAL":33,"TEXCOORD_0":34},"material":5,"mode":4,"indices":35}]}],"materials":[{"name":"concrete","pbrMetallicRoughness":{"baseColorTexture":{"index":0},"metallicRoughnessTexture":{"index":2},"roughnessFactor":1,"metallicFactor":1},"normalTexture":{"index":1,"scale":0.82},"occlusionTexture":{"index":2,"strength":0.35}},{"name":"metal-dark","pbrMetallicRoughness":{"baseColorTexture":{"index":3},"metallicRoughnessTexture":{"index":5},"roughnessFactor":1,"metallicFactor":1},"normalTexture":{"index":4,"scale":0.35},"occlusionTexture":{"index":5,"strength":0.35}},{"name":"paint-yellow","pbrMetallicRoughness":{"baseColorFactor":[0.76052450467022,0.4793201830913402,0.07818742179702069,1],"roughnessFactor":0.66,"metallicFactor":0.03}},{"name":"paint-teal","pbrMetallicRoughness":{"baseColorFactor":[0.040915196900556984,0.20507873637973145,0.1878207722902346,1],"roughnessFactor":0.59,"metallicFactor":0.05}},{"name":"paint-orange","pbrMetallicRoughness":{"baseColorFactor":[0.6444796819634361,0.1878207722902346,0.040915196900556984,1],"roughnessFactor":0.68,"metallicFactor":0.03}},{"name":"glass-blue","pbrMetallicRoughness":{"baseColorTexture":{"index":6},"metallicRoughnessTexture":{"index":8},"roughnessFactor":1,"metallicFactor":1},"normalTexture":{"index":7,"scale":0.12},"occlusionTexture":{"index":8,"strength":0.35}},{"name":"roof-metal","pbrMetallicRoughness":{"baseColorTexture":{"index":9},"metallicRoughnessTexture":{"index":11},"roughnessFactor":1,"metallicFactor":1},"normalTexture":{"index":10,"scale":0.68},"occlusionTexture":{"index":11,"strength":0.35}},{"name":"paint-red","pbrMetallicRoughness":{"baseColorFactor":[0.46778379610254284,0.08021982030622662,0.05126945836711539,1],"roughnessFactor":0.62,"metallicFactor":0.05}},{"name":"paint-blue","pbrMetallicRoughness":{"baseColorFactor":[0.05126945836711539,0.10946171076915331,0.22696587349938613,1],"roughnessFactor":0.58,"metallicFactor":0.05}}],"textures":[{"source":0,"sampler":0},{"source":1,"sampler":0},{"source":2,"sampler":0},{"source":3,"sampler":0},{"source":4,"sampler":0},{"source":5,"sampler":0},{"source":6,"sampler":0},{"source":7,"sampler":0},{"source":8,"sampler":0},{"source":9,"sampler":0},{"source":10,"sampler":0},{"source":11,"sampler":0}],"images":[{"uri":"../textures/concrete-albedo.png"},{"uri":"../textures/concrete-normal.png"},{"uri":"../textures/concrete-orm.png"},{"uri":"../textures/metal-dark-albedo.png"},{"uri":"../textures/metal-dark-normal.png"},{"uri":"../textures/metal-dark-orm.png"},{"uri":"../textures/glass-blue-albedo.png"},{"uri":"../textures/glass-blue-normal.png"},{"uri":"../textures/glass-blue-orm.png"},{"uri":"../textures/roof-metal-albedo.png"},{"uri":"../textures/roof-metal-normal.png"},{"uri":"../textures/roof-metal-orm.png"}],"samplers":[{"magFilter":9729,"minFilter":9987,"wrapS":10497,"wrapT":10497}],"buffers":[{"uri":"../shared/geometry.bin","byteLength":16435520}],"bufferViews":[{"buffer":0,"byteOffset":0,"byteLength":3888,"target":34962},{"buffer":0,"byteOffset":3888,"byteLength":3888,"target":34962},{"buffer":0,"byteOffset":10731664,"byteLength":2592,"target":34962},{"buffer":0,"byteOffset":5079544,"byteLength":3888,"target":34962},{"buffer":0,"byteOffset":10734256,"byteLength":2592,"target":34962},{"buffer":0,"byteOffset":10736848,"byteLength":2592,"target":34962},{"buffer":0,"byteOffset":10686864,"byteLength":912,"target":34962},{"buffer":0,"byteOffset":10687776,"byteLength":912,"target":34962},{"buffer":0,"byteOffset":10688688,"byteLength":608,"target":34962},{"buffer":0,"byteOffset":387284,"byteLength":288,"target":34963},{"buffer":0,"byteOffset":6080864,"byteLength":3276,"target":34962},{"buffer":0,"byteOffset":10689296,"byteLength":2184,"target":34962},{"buffer":0,"byteOffset":6086324,"byteLength":2640,"target":34963},{"buffer":0,"byteOffset":10739440,"byteLength":2592,"target":34962},{"buffer":0,"byteOffset":2824040,"byteLength":2592,"target":34962},{"buffer":0,"byteOffset":582912,"byteLength":2592,"target":34962},{"buffer":0,"byteOffset":46644,"byteLength":288,"target":34962},{"buffer":0,"byteOffset":45952,"byteLength":288,"target":34962},{"buffer":0,"byteOffset":10742032,"byteLength":192,"target":34962},{"buffer":0,"byteOffset":46432,"byteLength":72,"target":34963},{"buffer":0,"byteOffset":10742224,"byteLength":192,"target":34962},{"buffer":0,"byteOffset":10742416,"byteLength":192,"target":34962},{"buffer":0,"byteOffset":10694648,"byteLength":480,"target":34962},{"buffer":0,"byteOffset":10695128,"byteLength":480,"target":34962},{"buffer":0,"byteOffset":10695608,"byteLength":320,"target":34962},{"buffer":0,"byteOffset":48596,"byteLength":144,"target":34963},{"buffer":0,"byteOffset":6096692,"byteLength":1404,"target":34962},{"buffer":0,"byteOffset":10695928,"byteLength":936,"target":34962},{"buffer":0,"byteOffset":6099032,"byteLength":1008,"target":34963},{"buffer":0,"byteOffset":10742608,"byteLength":192,"target":34962},{"buffer":0,"byteOffset":2826632,"byteLength":192,"target":34962},{"buffer":0,"byteOffset":585696,"byteLength":192,"target":34962},{"buffer":0,"byteOffset":10742800,"byteLength":192,"target":34962},{"buffer":0,"byteOffset":6871440,"byteLength":648,"target":34962},{"buffer":0,"byteOffset":10697248,"byteLength":432,"target":34962},{"buffer":0,"byteOffset":6872520,"byteLength":384,"target":34963}],"accessors":[{"bufferView":0,"componentType":5126,"count":324,"type":"VEC3","min":[-0.5,-0.5,-0.5],"max":[0.5,0.5,0.5]},{"bufferView":1,"componentType":5126,"count":324,"type":"VEC3"},{"bufferView":2,"componentType":5126,"count":324,"type":"VEC2"},{"bufferView":3,"componentType":5126,"count":324,"type":"VEC3","min":[-0.5,-0.5,-0.5],"max":[0.5,0.5,0.5]},{"bufferView":4,"componentType":5126,"count":324,"type":"VEC2"},{"bufferView":5,"componentType":5126,"count":324,"type":"VEC2"},{"bufferView":6,"componentType":5126,"count":76,"type":"VEC3","min":[-1,-0.5,-1],"max":[1,0.5,1]},{"bufferView":7,"componentType":5126,"count":76,"type":"VEC3"},{"bufferView":8,"componentType":5126,"count":76,"type":"VEC2"},{"bufferView":9,"componentType":5123,"count":144,"type":"SCALAR"},{"bufferView":10,"componentType":5126,"count":273,"type":"VEC3","min":[-1,-1,-1],"max":[1,1,1]},{"bufferView":11,"componentType":5126,"count":273,"type":"VEC2"},{"bufferView":12,"componentType":5123,"count":1320,"type":"SCALAR"},{"bufferView":13,"componentType":5126,"count":324,"type":"VEC2"},{"bufferView":14,"componentType":5126,"count":324,"type":"VEC2"},{"bufferView":15,"componentType":5126,"count":324,"type":"VEC2"},{"bufferView":16,"componentType":5126,"count":24,"type":"VEC3","min":[-0.5,-0.5,-0.5],"max":[0.5,0.5,0.5]},{"bufferView":17,"componentType":5126,"count":24,"type":"VEC3"},{"bufferView":18,"componentType":5126,"count":24,"type":"VEC2"},{"bufferView":19,"componentType":5123,"count":36,"type":"SCALAR"},{"bufferView":20,"componentType":5126,"count":24,"type":"VEC2"},{"bufferView":21,"componentType":5126,"count":24,"type":"VEC2"},{"bufferView":22,"componentType":5126,"count":40,"type":"VEC3","min":[-0.8660253882408142,-0.5,-1],"max":[0.8660253882408142,0.5,1]},{"bufferView":23,"componentType":5126,"count":40,"type":"VEC3"},{"bufferView":24,"componentType":5126,"count":40,"type":"VEC2"},{"bufferView":25,"componentType":5123,"count":72,"type":"SCALAR"},{"bufferView":26,"componentType":5126,"count":117,"type":"VEC3","min":[-1,-1,-1],"max":[1,1,1]},{"bufferView":27,"componentType":5126,"count":117,"type":"VEC2"},{"bufferView":28,"componentType":5123,"count":504,"type":"SCALAR"},{"bufferView":29,"componentType":5126,"count":24,"type":"VEC2"},{"bufferView":30,"componentType":5126,"count":24,"type":"VEC2"},{"bufferView":31,"componentType":5126,"count":24,"type":"VEC2"},{"bufferView":32,"componentType":5126,"count":24,"type":"VEC2"},{"bufferView":33,"componentType":5126,"count":54,"type":"VEC3","min":[-0.9510565400123596,-1,-0.9510565400123596],"max":[0.9510565400123596,1,0.9510565400123596]},{"bufferView":34,"componentType":5126,"count":54,"type":"VEC2"},{"bufferView":35,"componentType":5123,"count":192,"type":"SCALAR"}],"extensionsUsed":["KHR_materials_unlit"],"extras":{"id":"vlt-porch-pirate-proof-25","family":"porch-pirate-proof","variant":24,"plan":"A5-2","units":"metres","up":"+Y","front":"+Z","lodScenes":[0,1,2]}}