{"asset":{"version":"2.0","generator":"SLOPMERICA Department of Unnecessary Development 1.0"},"scene":0,"scenes":[{"name":"LOD 0","nodes":[0,1,2,3,4,5,6,7,8,9,10,11,12,13],"extras":{"level":0}},{"name":"LOD 1","nodes":[14,15,16,17,18,19,20,21,22,23,24,25,26,27],"extras":{"level":1}},{"name":"LOD 2","nodes":[28,29,30,31,32,33,34,35],"extras":{"level":2}}],"nodes":[{"name":"surveyed lot","mesh":0,"translation":[0,0.06,0],"scale":[20.8,0.12,8.32]},{"name":"left faux stone pier","mesh":1,"translation":[-6.5,2.25,0],"scale":[2.4,4.4,2.4]},{"name":"right faux stone pier","mesh":1,"translation":[6.5,2.25,0],"scale":[2.4,4.4,2.4]},{"name":"ornamental header","mesh":2,"translation":[0,5.64,0],"scale":[13,0.55,0.55]},{"name":"mandatory hoa sign-back","mesh":3,"translation":[0,4.55,0.33],"scale":[5.9,1.55,1]},{"name":"mandatory hoa sign","mesh":4,"translation":[0,4.55,0.359],"scale":[5.8,1.45,1]},{"name":"left gate","mesh":5,"translation":[-3.25,1.3,0],"rotation":[0,0.099833,0,0.995004],"scale":[6.2,2.15,0.16]},{"name":"right gate","mesh":5,"translation":[3.25,1.3,0],"rotation":[0,-0.099833,0,0.995004],"scale":[6.2,2.15,0.16]},{"name":"perfect hedge 0","mesh":6,"translation":[-7,0.78,2.2],"scale":[0.72,0.72,0.72]},{"name":"perfect hedge 1","mesh":6,"translation":[-4.8,0.78,2.2],"scale":[0.72,0.72,0.72]},{"name":"perfect hedge 2","mesh":6,"translation":[-2.6,0.78,2.2],"scale":[0.72,0.72,0.72]},{"name":"perfect hedge 3","mesh":6,"translation":[-0.4,0.78,2.2],"scale":[0.72,0.72,0.72]},{"name":"perfect hedge 4","mesh":6,"translation":[1.8,0.78,2.2],"scale":[0.72,0.72,0.72]},{"name":"perfect hedge 5","mesh":6,"translation":[4,0.78,2.2],"scale":[0.72,0.72,0.72]},{"name":"surveyed lot","mesh":7,"translation":[0,0.06,0],"scale":[20.8,0.12,8.32]},{"name":"left faux stone pier","mesh":8,"translation":[-6.5,2.25,0],"scale":[2.4,4.4,2.4]},{"name":"right faux stone pier","mesh":8,"translation":[6.5,2.25,0],"scale":[2.4,4.4,2.4]},{"name":"ornamental header","mesh":9,"translation":[0,5.64,0],"scale":[13,0.55,0.55]},{"name":"mandatory hoa sign-back","mesh":3,"translation":[0,4.55,0.33],"scale":[5.9,1.55,1]},{"name":"mandatory hoa sign","mesh":4,"translation":[0,4.55,0.359],"scale":[5.8,1.45,1]},{"name":"left gate","mesh":10,"translation":[-3.25,1.3,0],"rotation":[0,0.099833,0,0.995004],"scale":[6.2,2.15,0.16]},{"name":"right gate","mesh":10,"translation":[3.25,1.3,0],"rotation":[0,-0.099833,0,0.995004],"scale":[6.2,2.15,0.16]},{"name":"perfect hedge 0","mesh":11,"translation":[-7,0.78,2.2],"scale":[0.72,0.72,0.72]},{"name":"perfect hedge 1","mesh":11,"translation":[-4.8,0.78,2.2],"scale":[0.72,0.72,0.72]},{"name":"perfect hedge 2","mesh":11,"translation":[-2.6,0.78,2.2],"scale":[0.72,0.72,0.72]},{"name":"perfect hedge 3","mesh":11,"translation":[-0.4,0.78,2.2],"scale":[0.72,0.72,0.72]},{"name":"perfect hedge 4","mesh":11,"translation":[1.8,0.78,2.2],"scale":[0.72,0.72,0.72]},{"name":"perfect hedge 5","mesh":11,"translation":[4,0.78,2.2],"scale":[0.72,0.72,0.72]},{"name":"surveyed lot","mesh":7,"translation":[0,0.06,0],"scale":[20.8,0.12,8.32]},{"name":"left faux stone pier","mesh":8,"translation":[-6.5,2.25,0],"scale":[2.4,4.4,2.4]},{"name":"right faux stone pier","mesh":8,"translation":[6.5,2.25,0],"scale":[2.4,4.4,2.4]},{"name":"ornamental header","mesh":9,"translation":[0,5.64,0],"scale":[13,0.55,0.55]},{"name":"mandatory hoa sign-back","mesh":3,"translation":[0,4.55,0.33],"scale":[5.9,1.55,1]},{"name":"mandatory hoa sign","mesh":4,"translation":[0,4.55,0.359],"scale":[5.8,1.45,1]},{"name":"left gate","mesh":10,"translation":[-3.25,1.3,0],"rotation":[0,0.099833,0,0.995004],"scale":[6.2,2.15,0.16]},{"name":"right gate","mesh":10,"translation":[3.25,1.3,0],"rotation":[0,-0.099833,0,0.995004],"scale":[6.2,2.15,0.16]}],"meshes":[{"primitives":[{"attributes":{"POSITION":0,"NORMAL":1,"TEXCOORD_0":2},"material":0,"mode":4}]},{"primitives":[{"attributes":{"POSITION":0,"NORMAL":1,"TEXCOORD_0":3},"material":1,"mode":4}]},{"primitives":[{"attributes":{"POSITION":0,"NORMAL":1,"TEXCOORD_0":4},"material":2,"mode":4}]},{"primitives":[{"attributes":{"POSITION":5,"NORMAL":6,"TEXCOORD_0":7},"material":3,"mode":4,"indices":8}]},{"primitives":[{"attributes":{"POSITION":9,"NORMAL":10,"TEXCOORD_0":11},"material":4,"mode":4,"indices":12}]},{"primitives":[{"attributes":{"POSITION":0,"NORMAL":1,"TEXCOORD_0":13},"material":3,"mode":4}]},{"primitives":[{"attributes":{"POSITION":14,"NORMAL":14,"TEXCOORD_0":15},"material":5,"mode":4,"indices":16}]},{"primitives":[{"attributes":{"POSITION":17,"NORMAL":6,"TEXCOORD_0":18},"material":0,"mode":4,"indices":8}]},{"primitives":[{"attributes":{"POSITION":17,"NORMAL":6,"TEXCOORD_0":19},"material":1,"mode":4,"indices":8}]},{"primitives":[{"attributes":{"POSITION":17,"NORMAL":6,"TEXCOORD_0":20},"material":2,"mode":4,"indices":8}]},{"primitives":[{"attributes":{"POSITION":17,"NORMAL":6,"TEXCOORD_0":21},"material":3,"mode":4,"indices":8}]},{"primitives":[{"attributes":{"POSITION":22,"NORMAL":22,"TEXCOORD_0":23},"material":5,"mode":4,"indices":24}]}],"materials":[{"name":"concrete","pbrMetallicRoughness":{"baseColorTexture":{"index":0},"metallicRoughnessTexture":{"index":2},"roughnessFactor":1,"metallicFactor":1},"normalTexture":{"index":1,"scale":0.82},"occlusionTexture":{"index":2,"strength":0.35}},{"name":"limestone","pbrMetallicRoughness":{"baseColorTexture":{"index":3},"metallicRoughnessTexture":{"index":5},"roughnessFactor":1,"metallicFactor":1},"normalTexture":{"index":4,"scale":0.9},"occlusionTexture":{"index":5,"strength":0.35}},{"name":"wood-painted","pbrMetallicRoughness":{"baseColorTexture":{"index":6},"metallicRoughnessTexture":{"index":8},"roughnessFactor":1,"metallicFactor":1},"normalTexture":{"index":7,"scale":0.55},"occlusionTexture":{"index":8,"strength":0.35}},{"name":"metal-dark","pbrMetallicRoughness":{"baseColorTexture":{"index":9},"metallicRoughnessTexture":{"index":11},"roughnessFactor":1,"metallicFactor":1},"normalTexture":{"index":10,"scale":0.35},"occlusionTexture":{"index":11,"strength":0.35}},{"name":"mandatory-hoa-gate signage","pbrMetallicRoughness":{"baseColorTexture":{"index":12},"roughnessFactor":1,"metallicFactor":0},"extensions":{"KHR_materials_unlit":{}}},{"name":"foliage","pbrMetallicRoughness":{"baseColorTexture":{"index":13},"metallicRoughnessTexture":{"index":15},"roughnessFactor":1,"metallicFactor":1},"normalTexture":{"index":14,"scale":0.88},"occlusionTexture":{"index":15,"strength":0.35}}],"textures":[{"source":0,"sampler":0},{"source":1,"sampler":0},{"source":2,"sampler":0},{"source":3,"sampler":0},{"source":4,"sampler":0},{"source":5,"sampler":0},{"source":6,"sampler":0},{"source":7,"sampler":0},{"source":8,"sampler":0},{"source":9,"sampler":0},{"source":10,"sampler":0},{"source":11,"sampler":0},{"source":12,"sampler":0},{"source":13,"sampler":0},{"source":14,"sampler":0},{"source":15,"sampler":0}],"images":[{"uri":"../textures/concrete-albedo.png"},{"uri":"../textures/concrete-normal.png"},{"uri":"../textures/concrete-orm.png"},{"uri":"../textures/limestone-albedo.png"},{"uri":"../textures/limestone-normal.png"},{"uri":"../textures/limestone-orm.png"},{"uri":"../textures/wood-painted-albedo.png"},{"uri":"../textures/wood-painted-normal.png"},{"uri":"../textures/wood-painted-orm.png"},{"uri":"../textures/metal-dark-albedo.png"},{"uri":"../textures/metal-dark-normal.png"},{"uri":"../textures/metal-dark-orm.png"},{"uri":"../signs/mandatory-hoa-gate.png"},{"uri":"../textures/foliage-albedo.png"},{"uri":"../textures/foliage-normal.png"},{"uri":"../textures/foliage-orm.png"}],"samplers":[{"magFilter":9729,"minFilter":9987,"wrapS":10497,"wrapT":10497}],"buffers":[{"uri":"../shared/geometry.bin","byteLength":16435520}],"bufferViews":[{"buffer":0,"byteOffset":0,"byteLength":3888,"target":34962},{"buffer":0,"byteOffset":3888,"byteLength":3888,"target":34962},{"buffer":0,"byteOffset":8358412,"byteLength":2592,"target":34962},{"buffer":0,"byteOffset":8338396,"byteLength":2592,"target":34962},{"buffer":0,"byteOffset":8361004,"byteLength":2592,"target":34962},{"buffer":0,"byteOffset":45664,"byteLength":288,"target":34962},{"buffer":0,"byteOffset":45952,"byteLength":288,"target":34962},{"buffer":0,"byteOffset":46240,"byteLength":192,"target":34962},{"buffer":0,"byteOffset":46432,"byteLength":72,"target":34963},{"buffer":0,"byteOffset":46504,"byteLength":48,"target":34962},{"buffer":0,"byteOffset":46552,"byteLength":48,"target":34962},{"buffer":0,"byteOffset":216676,"byteLength":32,"target":34962},{"buffer":0,"byteOffset":46632,"byteLength":12,"target":34963},{"buffer":0,"byteOffset":8363596,"byteLength":2592,"target":34962},{"buffer":0,"byteOffset":6080864,"byteLength":3276,"target":34962},{"buffer":0,"byteOffset":8346172,"byteLength":2184,"target":34962},{"buffer":0,"byteOffset":6086324,"byteLength":2640,"target":34963},{"buffer":0,"byteOffset":46644,"byteLength":288,"target":34962},{"buffer":0,"byteOffset":8366188,"byteLength":192,"target":34962},{"buffer":0,"byteOffset":8348548,"byteLength":192,"target":34962},{"buffer":0,"byteOffset":8366380,"byteLength":192,"target":34962},{"buffer":0,"byteOffset":8366572,"byteLength":192,"target":34962},{"buffer":0,"byteOffset":6096692,"byteLength":1404,"target":34962},{"buffer":0,"byteOffset":8349124,"byteLength":936,"target":34962},{"buffer":0,"byteOffset":6099032,"byteLength":1008,"target":34963}],"accessors":[{"bufferView":0,"componentType":5126,"count":324,"type":"VEC3","min":[-0.5,-0.5,-0.5],"max":[0.5,0.5,0.5]},{"bufferView":1,"componentType":5126,"count":324,"type":"VEC3"},{"bufferView":2,"componentType":5126,"count":324,"type":"VEC2"},{"bufferView":3,"componentType":5126,"count":324,"type":"VEC2"},{"bufferView":4,"componentType":5126,"count":324,"type":"VEC2"},{"bufferView":5,"componentType":5126,"count":24,"type":"VEC3","min":[-0.5,-0.5,-0.02500000037252903],"max":[0.5,0.5,0.02500000037252903]},{"bufferView":6,"componentType":5126,"count":24,"type":"VEC3"},{"bufferView":7,"componentType":5126,"count":24,"type":"VEC2"},{"bufferView":8,"componentType":5123,"count":36,"type":"SCALAR"},{"bufferView":9,"componentType":5126,"count":4,"type":"VEC3","min":[-0.5,-0.5,0],"max":[0.5,0.5,0]},{"bufferView":10,"componentType":5126,"count":4,"type":"VEC3"},{"bufferView":11,"componentType":5126,"count":4,"type":"VEC2"},{"bufferView":12,"componentType":5123,"count":6,"type":"SCALAR"},{"bufferView":13,"componentType":5126,"count":324,"type":"VEC2"},{"bufferView":14,"componentType":5126,"count":273,"type":"VEC3","min":[-1,-1,-1],"max":[1,1,1]},{"bufferView":15,"componentType":5126,"count":273,"type":"VEC2"},{"bufferView":16,"componentType":5123,"count":1320,"type":"SCALAR"},{"bufferView":17,"componentType":5126,"count":24,"type":"VEC3","min":[-0.5,-0.5,-0.5],"max":[0.5,0.5,0.5]},{"bufferView":18,"componentType":5126,"count":24,"type":"VEC2"},{"bufferView":19,"componentType":5126,"count":24,"type":"VEC2"},{"bufferView":20,"componentType":5126,"count":24,"type":"VEC2"},{"bufferView":21,"componentType":5126,"count":24,"type":"VEC2"},{"bufferView":22,"componentType":5126,"count":117,"type":"VEC3","min":[-1,-1,-1],"max":[1,1,1]},{"bufferView":23,"componentType":5126,"count":117,"type":"VEC2"},{"bufferView":24,"componentType":5123,"count":504,"type":"SCALAR"}],"extensionsUsed":["KHR_materials_unlit"],"extras":{"id":"vlt-mandatory-hoa-gate-23","family":"mandatory-hoa-gate","variant":22,"plan":"A3-2","units":"metres","up":"+Y","front":"+Z","lodScenes":[0,1,2]}}