{"asset":{"version":"2.0","generator":"SLOPMERICA Department of Unnecessary Development 1.0"},"scene":0,"scenes":[{"name":"LOD 0","nodes":[0,1,2,3,4,5,6,7,8,9,10,11,12,13,14,15,16],"extras":{"level":0}},{"name":"LOD 1","nodes":[17,18,19,20,21,22,23,24,25,26,27,28,29,30,31,32,33],"extras":{"level":1}},{"name":"LOD 2","nodes":[34,35,36,37,38,39],"extras":{"level":2}}],"nodes":[{"name":"surveyed lot","mesh":0,"translation":[0,0.06,0],"scale":[20.16,0.12,22.4]},{"name":"capped landfill lower","mesh":1,"translation":[0,1.2,0],"scale":[7.95,2.2,7.95]},{"name":"capped landfill upper","mesh":2,"translation":[0,3.5,0],"scale":[5.724,3.55,5.724]},{"name":"scenic switchback","mesh":3,"translation":[0,0,0]},{"name":"mount trashmore sign-back","mesh":4,"translation":[0,1.55,8.95],"scale":[4.9,1.45,1]},{"name":"mount trashmore sign","mesh":5,"translation":[0,1.55,8.979],"scale":[4.8,1.35,1]},{"name":"methane vent 0","mesh":6,"translation":[0,0,0]},{"name":"methane vent 1","mesh":7,"translation":[0,0,0]},{"name":"methane vent 2","mesh":8,"translation":[0,0,0]},{"name":"methane vent 3","mesh":9,"translation":[0,0,0]},{"name":"methane vent 4","mesh":10,"translation":[0,0,0]},{"name":"exposed trash 0","mesh":11,"translation":[-2,2.1,2.1],"scale":[0.6,0.28,0.7]},{"name":"exposed trash 1","mesh":12,"translation":[-1,2.32,2.1],"scale":[0.7,0.28,0.7]},{"name":"exposed trash 2","mesh":13,"translation":[0,2.54,2.1],"scale":[0.8,0.28,0.7]},{"name":"exposed trash 3","mesh":14,"translation":[1,2.76,2.1],"scale":[0.9,0.28,0.7]},{"name":"exposed trash 4","mesh":15,"translation":[2,2.98,2.1],"scale":[1,0.28,0.7]},{"name":"exposed trash 5","mesh":16,"translation":[3,3.2,2.1],"scale":[1.1,0.28,0.7]},{"name":"surveyed lot","mesh":17,"translation":[0,0.06,0],"scale":[20.16,0.12,22.4]},{"name":"capped landfill lower","mesh":18,"translation":[0,1.2,0],"scale":[7.95,2.2,7.95]},{"name":"capped landfill upper","mesh":19,"translation":[0,3.5,0],"scale":[5.724,3.55,5.724]},{"name":"scenic switchback","mesh":20,"translation":[0,0,0]},{"name":"mount trashmore sign-back","mesh":4,"translation":[0,1.55,8.95],"scale":[4.9,1.45,1]},{"name":"mount trashmore sign","mesh":5,"translation":[0,1.55,8.979],"scale":[4.8,1.35,1]},{"name":"methane vent 0","mesh":21,"translation":[0,0,0]},{"name":"methane vent 1","mesh":22,"translation":[0,0,0]},{"name":"methane vent 2","mesh":23,"translation":[0,0,0]},{"name":"methane vent 3","mesh":24,"translation":[0,0,0]},{"name":"methane vent 4","mesh":25,"translation":[0,0,0]},{"name":"exposed trash 0","mesh":26,"translation":[-2,2.1,2.1],"scale":[0.6,0.28,0.7]},{"name":"exposed trash 1","mesh":27,"translation":[-1,2.32,2.1],"scale":[0.7,0.28,0.7]},{"name":"exposed trash 2","mesh":28,"translation":[0,2.54,2.1],"scale":[0.8,0.28,0.7]},{"name":"exposed trash 3","mesh":29,"translation":[1,2.76,2.1],"scale":[0.9,0.28,0.7]},{"name":"exposed trash 4","mesh":30,"translation":[2,2.98,2.1],"scale":[1,0.28,0.7]},{"name":"exposed trash 5","mesh":31,"translation":[3,3.2,2.1],"scale":[1.1,0.28,0.7]},{"name":"surveyed lot","mesh":17,"translation":[0,0.06,0],"scale":[20.16,0.12,22.4]},{"name":"capped landfill lower","mesh":32,"translation":[0,1.2,0],"scale":[7.95,2.2,7.95]},{"name":"capped landfill upper","mesh":33,"translation":[0,3.5,0],"scale":[5.724,3.55,5.724]},{"name":"scenic switchback","mesh":34,"translation":[0,0,0]},{"name":"mount trashmore sign-back","mesh":4,"translation":[0,1.55,8.95],"scale":[4.9,1.45,1]},{"name":"mount trashmore sign","mesh":5,"translation":[0,1.55,8.979],"scale":[4.8,1.35,1]}],"meshes":[{"primitives":[{"attributes":{"POSITION":0,"NORMAL":1,"TEXCOORD_0":2},"material":0,"mode":4}]},{"primitives":[{"attributes":{"POSITION":3,"NORMAL":4,"TEXCOORD_0":5},"material":1,"mode":4,"indices":6}]},{"primitives":[{"attributes":{"POSITION":7,"NORMAL":8,"TEXCOORD_0":9},"material":1,"mode":4,"indices":6}]},{"primitives":[{"attributes":{"POSITION":10,"NORMAL":11,"TEXCOORD_0":12},"material":2,"mode":4,"indices":13}]},{"primitives":[{"attributes":{"POSITION":14,"NORMAL":15,"TEXCOORD_0":16},"material":3,"mode":4,"indices":17}]},{"primitives":[{"attributes":{"POSITION":18,"NORMAL":19,"TEXCOORD_0":20},"material":4,"mode":4,"indices":21}]},{"primitives":[{"attributes":{"POSITION":22,"NORMAL":23,"TEXCOORD_0":24},"material":5,"mode":4,"indices":25}]},{"primitives":[{"attributes":{"POSITION":26,"NORMAL":23,"TEXCOORD_0":24},"material":5,"mode":4,"indices":25}]},{"primitives":[{"attributes":{"POSITION":27,"NORMAL":23,"TEXCOORD_0":24},"material":5,"mode":4,"indices":25}]},{"primitives":[{"attributes":{"POSITION":28,"NORMAL":23,"TEXCOORD_0":24},"material":5,"mode":4,"indices":25}]},{"primitives":[{"attributes":{"POSITION":29,"NORMAL":23,"TEXCOORD_0":24},"material":5,"mode":4,"indices":25}]},{"primitives":[{"attributes":{"POSITION":0,"NORMAL":1,"TEXCOORD_0":30},"material":6,"mode":4}]},{"primitives":[{"attributes":{"POSITION":0,"NORMAL":1,"TEXCOORD_0":31},"material":6,"mode":4}]},{"primitives":[{"attributes":{"POSITION":0,"NORMAL":1,"TEXCOORD_0":32},"material":6,"mode":4}]},{"primitives":[{"attributes":{"POSITION":0,"NORMAL":1,"TEXCOORD_0":33},"material":6,"mode":4}]},{"primitives":[{"attributes":{"POSITION":0,"NORMAL":1,"TEXCOORD_0":34},"material":6,"mode":4}]},{"primitives":[{"attributes":{"POSITION":0,"NORMAL":1,"TEXCOORD_0":35},"material":6,"mode":4}]},{"primitives":[{"attributes":{"POSITION":36,"NORMAL":15,"TEXCOORD_0":37},"material":0,"mode":4,"indices":17}]},{"primitives":[{"attributes":{"POSITION":38,"NORMAL":39,"TEXCOORD_0":40},"material":1,"mode":4,"indices":41}]},{"primitives":[{"attributes":{"POSITION":42,"NORMAL":43,"TEXCOORD_0":44},"material":1,"mode":4,"indices":41}]},{"primitives":[{"attributes":{"POSITION":45,"NORMAL":46,"TEXCOORD_0":47},"material":2,"mode":4,"indices":48}]},{"primitives":[{"attributes":{"POSITION":49,"NORMAL":50,"TEXCOORD_0":51},"material":5,"mode":4,"indices":52}]},{"primitives":[{"attributes":{"POSITION":53,"NORMAL":50,"TEXCOORD_0":51},"material":5,"mode":4,"indices":52}]},{"primitives":[{"attributes":{"POSITION":54,"NORMAL":50,"TEXCOORD_0":51},"material":5,"mode":4,"indices":52}]},{"primitives":[{"attributes":{"POSITION":55,"NORMAL":50,"TEXCOORD_0":51},"material":5,"mode":4,"indices":52}]},{"primitives":[{"attributes":{"POSITION":56,"NORMAL":50,"TEXCOORD_0":51},"material":5,"mode":4,"indices":52}]},{"primitives":[{"attributes":{"POSITION":36,"NORMAL":15,"TEXCOORD_0":57},"material":6,"mode":4,"indices":17}]},{"primitives":[{"attributes":{"POSITION":36,"NORMAL":15,"TEXCOORD_0":58},"material":6,"mode":4,"indices":17}]},{"primitives":[{"attributes":{"POSITION":36,"NORMAL":15,"TEXCOORD_0":59},"material":6,"mode":4,"indices":17}]},{"primitives":[{"attributes":{"POSITION":36,"NORMAL":15,"TEXCOORD_0":60},"material":6,"mode":4,"indices":17}]},{"primitives":[{"attributes":{"POSITION":36,"NORMAL":15,"TEXCOORD_0":61},"material":6,"mode":4,"indices":17}]},{"primitives":[{"attributes":{"POSITION":36,"NORMAL":15,"TEXCOORD_0":62},"material":6,"mode":4,"indices":17}]},{"primitives":[{"attributes":{"POSITION":63,"NORMAL":64,"TEXCOORD_0":65},"material":1,"mode":4,"indices":66}]},{"primitives":[{"attributes":{"POSITION":67,"NORMAL":68,"TEXCOORD_0":69},"material":1,"mode":4,"indices":66}]},{"primitives":[{"attributes":{"POSITION":70,"NORMAL":71,"TEXCOORD_0":72},"material":2,"mode":4,"indices":73}]}],"materials":[{"name":"concrete","pbrMetallicRoughness":{"baseColorTexture":{"index":0},"metallicRoughnessTexture":{"index":2},"roughnessFactor":1,"metallicFactor":1},"normalTexture":{"index":1,"scale":0.82},"occlusionTexture":{"index":2,"strength":0.35}},{"name":"foliage","pbrMetallicRoughness":{"baseColorTexture":{"index":3},"metallicRoughnessTexture":{"index":5},"roughnessFactor":1,"metallicFactor":1},"normalTexture":{"index":4,"scale":0.88},"occlusionTexture":{"index":5,"strength":0.35}},{"name":"soil","pbrMetallicRoughness":{"baseColorTexture":{"index":6},"metallicRoughnessTexture":{"index":8},"roughnessFactor":1,"metallicFactor":1},"normalTexture":{"index":7,"scale":0.8},"occlusionTexture":{"index":8,"strength":0.35}},{"name":"metal-dark","pbrMetallicRoughness":{"baseColorTexture":{"index":9},"metallicRoughnessTexture":{"index":11},"roughnessFactor":1,"metallicFactor":1},"normalTexture":{"index":10,"scale":0.35},"occlusionTexture":{"index":11,"strength":0.35}},{"name":"mount-trashmore signage","pbrMetallicRoughness":{"baseColorTexture":{"index":12},"roughnessFactor":1,"metallicFactor":0},"extensions":{"KHR_materials_unlit":{}}},{"name":"metal-galvanized","pbrMetallicRoughness":{"baseColorTexture":{"index":13},"metallicRoughnessTexture":{"index":15},"roughnessFactor":1,"metallicFactor":1},"normalTexture":{"index":14,"scale":0.15},"occlusionTexture":{"index":15,"strength":0.35}},{"name":"paint-orange","pbrMetallicRoughness":{"baseColorFactor":[0.6444796819634361,0.1878207722902346,0.040915196900556984,1],"roughnessFactor":0.68,"metallicFactor":0.03}}],"textures":[{"source":0,"sampler":0},{"source":1,"sampler":0},{"source":2,"sampler":0},{"source":3,"sampler":0},{"source":4,"sampler":0},{"source":5,"sampler":0},{"source":6,"sampler":0},{"source":7,"sampler":0},{"source":8,"sampler":0},{"source":9,"sampler":0},{"source":10,"sampler":0},{"source":11,"sampler":0},{"source":12,"sampler":0},{"source":13,"sampler":0},{"source":14,"sampler":0},{"source":15,"sampler":0}],"images":[{"uri":"../textures/concrete-albedo.png"},{"uri":"../textures/concrete-normal.png"},{"uri":"../textures/concrete-orm.png"},{"uri":"../textures/foliage-albedo.png"},{"uri":"../textures/foliage-normal.png"},{"uri":"../textures/foliage-orm.png"},{"uri":"../textures/soil-albedo.png"},{"uri":"../textures/soil-normal.png"},{"uri":"../textures/soil-orm.png"},{"uri":"../textures/metal-dark-albedo.png"},{"uri":"../textures/metal-dark-normal.png"},{"uri":"../textures/metal-dark-orm.png"},{"uri":"../signs/mount-trashmore.png"},{"uri":"../textures/metal-galvanized-albedo.png"},{"uri":"../textures/metal-galvanized-normal.png"},{"uri":"../textures/metal-galvanized-orm.png"}],"samplers":[{"magFilter":9729,"minFilter":9987,"wrapS":10497,"wrapT":10497}],"buffers":[{"uri":"../shared/geometry.bin","byteLength":16435520}],"bufferViews":[{"buffer":0,"byteOffset":0,"byteLength":3888,"target":34962},{"buffer":0,"byteOffset":3888,"byteLength":3888,"target":34962},{"buffer":0,"byteOffset":9182536,"byteLength":2592,"target":34962},{"buffer":0,"byteOffset":8986016,"byteLength":1344,"target":34962},{"buffer":0,"byteOffset":8987360,"byteLength":1344,"target":34962},{"buffer":0,"byteOffset":9036592,"byteLength":896,"target":34962},{"buffer":0,"byteOffset":2072684,"byteLength":432,"target":34963},{"buffer":0,"byteOffset":8989600,"byteLength":1344,"target":34962},{"buffer":0,"byteOffset":8990944,"byteLength":1344,"target":34962},{"buffer":0,"byteOffset":9185128,"byteLength":896,"target":34962},{"buffer":0,"byteOffset":9186024,"byteLength":1836,"target":34962},{"buffer":0,"byteOffset":9187860,"byteLength":1836,"target":34962},{"buffer":0,"byteOffset":8996856,"byteLength":1224,"target":34962},{"buffer":0,"byteOffset":7413104,"byteLength":1536,"target":34963},{"buffer":0,"byteOffset":45664,"byteLength":288,"target":34962},{"buffer":0,"byteOffset":45952,"byteLength":288,"target":34962},{"buffer":0,"byteOffset":46240,"byteLength":192,"target":34962},{"buffer":0,"byteOffset":46432,"byteLength":72,"target":34963},{"buffer":0,"byteOffset":46504,"byteLength":48,"target":34962},{"buffer":0,"byteOffset":46552,"byteLength":48,"target":34962},{"buffer":0,"byteOffset":222948,"byteLength":32,"target":34962},{"buffer":0,"byteOffset":46632,"byteLength":12,"target":34963},{"buffer":0,"byteOffset":8998080,"byteLength":972,"target":34962},{"buffer":0,"byteOffset":2950244,"byteLength":972,"target":34962},{"buffer":0,"byteOffset":409952,"byteLength":648,"target":34962},{"buffer":0,"byteOffset":410600,"byteLength":768,"target":34963},{"buffer":0,"byteOffset":8999052,"byteLength":972,"target":34962},{"buffer":0,"byteOffset":9018008,"byteLength":972,"target":34962},{"buffer":0,"byteOffset":9031328,"byteLength":972,"target":34962},{"buffer":0,"byteOffset":9042056,"byteLength":972,"target":34962},{"buffer":0,"byteOffset":9203032,"byteLength":2592,"target":34962},{"buffer":0,"byteOffset":9205624,"byteLength":2592,"target":34962},{"buffer":0,"byteOffset":9208216,"byteLength":2592,"target":34962},{"buffer":0,"byteOffset":9211384,"byteLength":2592,"target":34962},{"buffer":0,"byteOffset":9214168,"byteLength":2592,"target":34962},{"buffer":0,"byteOffset":9216952,"byteLength":2592,"target":34962},{"buffer":0,"byteOffset":46644,"byteLength":288,"target":34962},{"buffer":0,"byteOffset":9189696,"byteLength":192,"target":34962},{"buffer":0,"byteOffset":9000024,"byteLength":696,"target":34962},{"buffer":0,"byteOffset":9000720,"byteLength":696,"target":34962},{"buffer":0,"byteOffset":9043028,"byteLength":464,"target":34962},{"buffer":0,"byteOffset":2089908,"byteLength":216,"target":34963},{"buffer":0,"byteOffset":9001880,"byteLength":696,"target":34962},{"buffer":0,"byteOffset":9002576,"byteLength":696,"target":34962},{"buffer":0,"byteOffset":9189888,"byteLength":464,"target":34962},{"buffer":0,"byteOffset":9190352,"byteLength":756,"target":34962},{"buffer":0,"byteOffset":9191108,"byteLength":756,"target":34962},{"buffer":0,"byteOffset":9005248,"byteLength":504,"target":34962},{"buffer":0,"byteOffset":7420016,"byteLength":576,"target":34963},{"buffer":0,"byteOffset":9005752,"byteLength":420,"target":34962},{"buffer":0,"byteOffset":2963816,"byteLength":420,"target":34962},{"buffer":0,"byteOffset":433796,"byteLength":280,"target":34962},{"buffer":0,"byteOffset":434076,"byteLength":288,"target":34963},{"buffer":0,"byteOffset":9006172,"byteLength":420,"target":34962},{"buffer":0,"byteOffset":9021612,"byteLength":420,"target":34962},{"buffer":0,"byteOffset":9034932,"byteLength":420,"target":34962},{"buffer":0,"byteOffset":9045468,"byteLength":420,"target":34962},{"buffer":0,"byteOffset":9210808,"byteLength":192,"target":34962},{"buffer":0,"byteOffset":9211000,"byteLength":192,"target":34962},{"buffer":0,"byteOffset":9211192,"byteLength":192,"target":34962},{"buffer":0,"byteOffset":9213976,"byteLength":192,"target":34962},{"buffer":0,"byteOffset":9216760,"byteLength":192,"target":34962},{"buffer":0,"byteOffset":9219544,"byteLength":192,"target":34962},{"buffer":0,"byteOffset":9006592,"byteLength":480,"target":34962},{"buffer":0,"byteOffset":9007072,"byteLength":480,"target":34962},{"buffer":0,"byteOffset":9045888,"byteLength":320,"target":34962},{"buffer":0,"byteOffset":48596,"byteLength":144,"target":34963},{"buffer":0,"byteOffset":9007872,"byteLength":480,"target":34962},{"buffer":0,"byteOffset":9008352,"byteLength":480,"target":34962},{"buffer":0,"byteOffset":9191864,"byteLength":320,"target":34962},{"buffer":0,"byteOffset":9192184,"byteLength":300,"target":34962},{"buffer":0,"byteOffset":9192484,"byteLength":300,"target":34962},{"buffer":0,"byteOffset":9009752,"byteLength":200,"target":34962},{"buffer":0,"byteOffset":440168,"byteLength":192,"target":34963}],"accessors":[{"bufferView":0,"componentType":5126,"count":324,"type":"VEC3","min":[-0.5,-0.5,-0.5],"max":[0.5,0.5,0.5]},{"bufferView":1,"componentType":5126,"count":324,"type":"VEC3"},{"bufferView":2,"componentType":5126,"count":324,"type":"VEC2"},{"bufferView":3,"componentType":5126,"count":112,"type":"VEC3","min":[-0.9848077297210693,-0.5,-1],"max":[0.9848077297210693,0.5,1]},{"bufferView":4,"componentType":5126,"count":112,"type":"VEC3"},{"bufferView":5,"componentType":5126,"count":112,"type":"VEC2"},{"bufferView":6,"componentType":5123,"count":216,"type":"SCALAR"},{"bufferView":7,"componentType":5126,"count":112,"type":"VEC3","min":[-0.9848077297210693,-0.5,-1],"max":[0.9848077297210693,0.5,1]},{"bufferView":8,"componentType":5126,"count":112,"type":"VEC3"},{"bufferView":9,"componentType":5126,"count":112,"type":"VEC2"},{"bufferView":10,"componentType":5126,"count":153,"type":"VEC3","min":[-8.098981857299805,0.02102193795144558,-1.3296812772750854],"max":[3.651808500289917,6.083359241485596,2.3205485343933105]},{"bufferView":11,"componentType":5126,"count":153,"type":"VEC3"},{"bufferView":12,"componentType":5126,"count":153,"type":"VEC2"},{"bufferView":13,"componentType":5123,"count":768,"type":"SCALAR"},{"bufferView":14,"componentType":5126,"count":24,"type":"VEC3","min":[-0.5,-0.5,-0.02500000037252903],"max":[0.5,0.5,0.02500000037252903]},{"bufferView":15,"componentType":5126,"count":24,"type":"VEC3"},{"bufferView":16,"componentType":5126,"count":24,"type":"VEC2"},{"bufferView":17,"componentType":5123,"count":36,"type":"SCALAR"},{"bufferView":18,"componentType":5126,"count":4,"type":"VEC3","min":[-0.5,-0.5,0],"max":[0.5,0.5,0]},{"bufferView":19,"componentType":5126,"count":4,"type":"VEC3"},{"bufferView":20,"componentType":5126,"count":4,"type":"VEC2"},{"bufferView":21,"componentType":5123,"count":6,"type":"SCALAR"},{"bufferView":22,"componentType":5126,"count":81,"type":"VEC3","min":[-3.0999999046325684,2.200000047683716,-0.10000000149011612],"max":[-2.9000000953674316,3.5999999046325684,0.10000000149011612]},{"bufferView":23,"componentType":5126,"count":81,"type":"VEC3"},{"bufferView":24,"componentType":5126,"count":81,"type":"VEC2"},{"bufferView":25,"componentType":5123,"count":384,"type":"SCALAR"},{"bufferView":26,"componentType":5126,"count":81,"type":"VEC3","min":[-1.7999999523162842,2.450000047683716,-0.10000000149011612],"max":[-1.600000023841858,3.8499999046325684,0.10000000149011612]},{"bufferView":27,"componentType":5126,"count":81,"type":"VEC3","min":[-0.5,2.700000047683716,-0.10000000149011612],"max":[-0.30000001192092896,4.099999904632568,0.10000000149011612]},{"bufferView":28,"componentType":5126,"count":81,"type":"VEC3","min":[0.800000011920929,2.950000047683716,-0.10000000149011612],"max":[1,4.349999904632568,0.10000000149011612]},{"bufferView":29,"componentType":5126,"count":81,"type":"VEC3","min":[2.0999999046325684,3.200000047683716,-0.10000000149011612],"max":[2.299999952316284,4.599999904632568,0.10000000149011612]},{"bufferView":30,"componentType":5126,"count":324,"type":"VEC2"},{"bufferView":31,"componentType":5126,"count":324,"type":"VEC2"},{"bufferView":32,"componentType":5126,"count":324,"type":"VEC2"},{"bufferView":33,"componentType":5126,"count":324,"type":"VEC2"},{"bufferView":34,"componentType":5126,"count":324,"type":"VEC2"},{"bufferView":35,"componentType":5126,"count":324,"type":"VEC2"},{"bufferView":36,"componentType":5126,"count":24,"type":"VEC3","min":[-0.5,-0.5,-0.5],"max":[0.5,0.5,0.5]},{"bufferView":37,"componentType":5126,"count":24,"type":"VEC2"},{"bufferView":38,"componentType":5126,"count":58,"type":"VEC3","min":[-0.9848077297210693,-0.5,-0.9396926164627075],"max":[0.9848077297210693,0.5,1]},{"bufferView":39,"componentType":5126,"count":58,"type":"VEC3"},{"bufferView":40,"componentType":5126,"count":58,"type":"VEC2"},{"bufferView":41,"componentType":5123,"count":108,"type":"SCALAR"},{"bufferView":42,"componentType":5126,"count":58,"type":"VEC3","min":[-0.9848077297210693,-0.5,-0.9396926164627075],"max":[0.9848077297210693,0.5,1]},{"bufferView":43,"componentType":5126,"count":58,"type":"VEC3"},{"bufferView":44,"componentType":5126,"count":58,"type":"VEC2"},{"bufferView":45,"componentType":5126,"count":63,"type":"VEC3","min":[-8.10348129272461,0.02102193795144558,-1.3337570428848267],"max":[3.6380181312561035,6.082448482513428,2.209817409515381]},{"bufferView":46,"componentType":5126,"count":63,"type":"VEC3"},{"bufferView":47,"componentType":5126,"count":63,"type":"VEC2"},{"bufferView":48,"componentType":5123,"count":288,"type":"SCALAR"},{"bufferView":49,"componentType":5126,"count":35,"type":"VEC3","min":[-3.0866024494171143,2.200000047683716,-0.10000000149011612],"max":[-2.9133975505828857,3.5999999046325684,0.10000000149011612]},{"bufferView":50,"componentType":5126,"count":35,"type":"VEC3"},{"bufferView":51,"componentType":5126,"count":35,"type":"VEC2"},{"bufferView":52,"componentType":5123,"count":144,"type":"SCALAR"},{"bufferView":53,"componentType":5126,"count":35,"type":"VEC3","min":[-1.78660249710083,2.450000047683716,-0.10000000149011612],"max":[-1.613397479057312,3.8499999046325684,0.10000000149011612]},{"bufferView":54,"componentType":5126,"count":35,"type":"VEC3","min":[-0.4866025447845459,2.700000047683716,-0.10000000149011612],"max":[-0.31339746713638306,4.099999904632568,0.10000000149011612]},{"bufferView":55,"componentType":5126,"count":35,"type":"VEC3","min":[0.8133974671363831,2.950000047683716,-0.10000000149011612],"max":[0.9866025447845459,4.349999904632568,0.10000000149011612]},{"bufferView":56,"componentType":5126,"count":35,"type":"VEC3","min":[2.1133973598480225,3.200000047683716,-0.10000000149011612],"max":[2.28660249710083,4.599999904632568,0.10000000149011612]},{"bufferView":57,"componentType":5126,"count":24,"type":"VEC2"},{"bufferView":58,"componentType":5126,"count":24,"type":"VEC2"},{"bufferView":59,"componentType":5126,"count":24,"type":"VEC2"},{"bufferView":60,"componentType":5126,"count":24,"type":"VEC2"},{"bufferView":61,"componentType":5126,"count":24,"type":"VEC2"},{"bufferView":62,"componentType":5126,"count":24,"type":"VEC2"},{"bufferView":63,"componentType":5126,"count":40,"type":"VEC3","min":[-0.8660253882408142,-0.5,-1],"max":[0.8660253882408142,0.5,1]},{"bufferView":64,"componentType":5126,"count":40,"type":"VEC3"},{"bufferView":65,"componentType":5126,"count":40,"type":"VEC2"},{"bufferView":66,"componentType":5123,"count":72,"type":"SCALAR"},{"bufferView":67,"componentType":5126,"count":40,"type":"VEC3","min":[-0.8660253882408142,-0.5,-1],"max":[0.8660253882408142,0.5,1]},{"bufferView":68,"componentType":5126,"count":40,"type":"VEC3"},{"bufferView":69,"componentType":5126,"count":40,"type":"VEC2"},{"bufferView":70,"componentType":5126,"count":25,"type":"VEC3","min":[-8.081506729125977,0.02102193795144558,-1.2941746711730957],"max":[3.6049764156341553,6.092257499694824,2.2382736206054688]},{"bufferView":71,"componentType":5126,"count":25,"type":"VEC3"},{"bufferView":72,"componentType":5126,"count":25,"type":"VEC2"},{"bufferView":73,"componentType":5123,"count":96,"type":"SCALAR"}],"extensionsUsed":["KHR_materials_unlit"],"extras":{"id":"vlt-mount-trashmore-39","family":"mount-trashmore","variant":38,"plan":"D4-2","units":"metres","up":"+Y","front":"+Z","lodScenes":[0,1,2]}}