{"asset":{"version":"2.0","generator":"SLOPMERICA Department of Unnecessary Development 1.0"},"scene":0,"scenes":[{"name":"LOD 0","nodes":[0,1,2,3,4,5,6,7,8,9,10,11,12,13,14,15,16,17,18,19,20],"extras":{"level":0}},{"name":"LOD 1","nodes":[21,22,23,24,25,26,27,28,29,30,31,32,33,34,35,36,37,38,39,40,41],"extras":{"level":1}},{"name":"LOD 2","nodes":[42,43,44,45,46,47,48,49,50,51,52,53],"extras":{"level":2}}],"nodes":[{"name":"surveyed lot","mesh":0,"translation":[0,0.06,0],"scale":[10.56,0.12,7.92]},{"name":"steel tree trunk","mesh":1,"translation":[0,6,0],"scale":[0.58,12,0.58]},{"name":"fake branch left 0","mesh":2,"translation":[0,0,0]},{"name":"fake branch right 0","mesh":3,"translation":[0,0,0]},{"name":"fake branch left 1","mesh":4,"translation":[0,0,0]},{"name":"fake branch right 1","mesh":5,"translation":[0,0,0]},{"name":"fake branch left 2","mesh":6,"translation":[0,0,0]},{"name":"fake branch right 2","mesh":7,"translation":[0,0,0]},{"name":"fake branch left 3","mesh":8,"translation":[0,0,0]},{"name":"fake branch right 3","mesh":9,"translation":[0,0,0]},{"name":"fake branch left 4","mesh":10,"translation":[0,0,0]},{"name":"fake branch right 4","mesh":11,"translation":[0,0,0]},{"name":"fake branch left 5","mesh":12,"translation":[0,0,0]},{"name":"fake branch right 5","mesh":13,"translation":[0,0,0]},{"name":"fake branch left 6","mesh":14,"translation":[0,0,0]},{"name":"fake branch right 6","mesh":15,"translation":[0,0,0]},{"name":"cell panels","mesh":16,"translation":[0,9.36,0.65],"rotation":[0,-0.099833,0,0.995004],"scale":[2.8,1.7,0.28]},{"name":"last tree plaque plinth","mesh":17,"translation":[0,0.6,3.2],"scale":[3.5,1,1.8]},{"name":"last tree plaque-back","mesh":18,"translation":[0,0.75,4.12],"scale":[3,0.8,1]},{"name":"last tree plaque","mesh":19,"translation":[0,0.75,4.149],"scale":[2.9,0.7,1]},{"name":"maintenance cabinet","mesh":20,"translation":[-2.8,1.2,-1],"scale":[1.5,2.4,1.2]},{"name":"surveyed lot","mesh":21,"translation":[0,0.06,0],"scale":[10.56,0.12,7.92]},{"name":"steel tree trunk","mesh":22,"translation":[0,6,0],"scale":[0.58,12,0.58]},{"name":"fake branch left 0","mesh":23,"translation":[0,0,0]},{"name":"fake branch right 0","mesh":24,"translation":[0,0,0]},{"name":"fake branch left 1","mesh":25,"translation":[0,0,0]},{"name":"fake branch right 1","mesh":26,"translation":[0,0,0]},{"name":"fake branch left 2","mesh":27,"translation":[0,0,0]},{"name":"fake branch right 2","mesh":28,"translation":[0,0,0]},{"name":"fake branch left 3","mesh":29,"translation":[0,0,0]},{"name":"fake branch right 3","mesh":30,"translation":[0,0,0]},{"name":"fake branch left 4","mesh":31,"translation":[0,0,0]},{"name":"fake branch right 4","mesh":32,"translation":[0,0,0]},{"name":"fake branch left 5","mesh":33,"translation":[0,0,0]},{"name":"fake branch right 5","mesh":34,"translation":[0,0,0]},{"name":"fake branch left 6","mesh":35,"translation":[0,0,0]},{"name":"fake branch right 6","mesh":36,"translation":[0,0,0]},{"name":"cell panels","mesh":37,"translation":[0,9.36,0.65],"rotation":[0,-0.099833,0,0.995004],"scale":[2.8,1.7,0.28]},{"name":"last tree plaque plinth","mesh":38,"translation":[0,0.6,3.2],"scale":[3.5,1,1.8]},{"name":"last tree plaque-back","mesh":18,"translation":[0,0.75,4.12],"scale":[3,0.8,1]},{"name":"last tree plaque","mesh":19,"translation":[0,0.75,4.149],"scale":[2.9,0.7,1]},{"name":"maintenance cabinet","mesh":39,"translation":[-2.8,1.2,-1],"scale":[1.5,2.4,1.2]},{"name":"surveyed lot","mesh":21,"translation":[0,0.06,0],"scale":[10.56,0.12,7.92]},{"name":"steel tree trunk","mesh":22,"translation":[0,6,0],"scale":[0.58,12,0.58]},{"name":"fake branch left 0","mesh":40,"translation":[0,0,0]},{"name":"fake branch right 0","mesh":41,"translation":[0,0,0]},{"name":"fake branch left 1","mesh":42,"translation":[0,0,0]},{"name":"fake branch right 1","mesh":43,"translation":[0,0,0]},{"name":"fake branch left 2","mesh":44,"translation":[0,0,0]},{"name":"fake branch right 2","mesh":45,"translation":[0,0,0]},{"name":"cell panels","mesh":37,"translation":[0,9.36,0.65],"rotation":[0,-0.099833,0,0.995004],"scale":[2.8,1.7,0.28]},{"name":"last tree plaque plinth","mesh":38,"translation":[0,0.6,3.2],"scale":[3.5,1,1.8]},{"name":"last tree plaque-back","mesh":18,"translation":[0,0.75,4.12],"scale":[3,0.8,1]},{"name":"last tree plaque","mesh":19,"translation":[0,0.75,4.149],"scale":[2.9,0.7,1]}],"meshes":[{"primitives":[{"attributes":{"POSITION":0,"NORMAL":1,"TEXCOORD_0":2},"material":0,"mode":4}]},{"primitives":[{"attributes":{"POSITION":3,"NORMAL":4,"TEXCOORD_0":5},"material":1,"mode":4,"indices":6}]},{"primitives":[{"attributes":{"POSITION":7,"NORMAL":8,"TEXCOORD_0":9},"material":2,"mode":4,"indices":10}]},{"primitives":[{"attributes":{"POSITION":11,"NORMAL":12,"TEXCOORD_0":9},"material":2,"mode":4,"indices":10}]},{"primitives":[{"attributes":{"POSITION":13,"NORMAL":14,"TEXCOORD_0":9},"material":2,"mode":4,"indices":10}]},{"primitives":[{"attributes":{"POSITION":15,"NORMAL":16,"TEXCOORD_0":9},"material":2,"mode":4,"indices":10}]},{"primitives":[{"attributes":{"POSITION":17,"NORMAL":18,"TEXCOORD_0":9},"material":2,"mode":4,"indices":10}]},{"primitives":[{"attributes":{"POSITION":19,"NORMAL":20,"TEXCOORD_0":9},"material":2,"mode":4,"indices":10}]},{"primitives":[{"attributes":{"POSITION":21,"NORMAL":22,"TEXCOORD_0":9},"material":2,"mode":4,"indices":10}]},{"primitives":[{"attributes":{"POSITION":23,"NORMAL":24,"TEXCOORD_0":9},"material":2,"mode":4,"indices":10}]},{"primitives":[{"attributes":{"POSITION":25,"NORMAL":26,"TEXCOORD_0":9},"material":2,"mode":4,"indices":10}]},{"primitives":[{"attributes":{"POSITION":27,"NORMAL":28,"TEXCOORD_0":9},"material":2,"mode":4,"indices":10}]},{"primitives":[{"attributes":{"POSITION":29,"NORMAL":30,"TEXCOORD_0":9},"material":2,"mode":4,"indices":10}]},{"primitives":[{"attributes":{"POSITION":31,"NORMAL":32,"TEXCOORD_0":9},"material":2,"mode":4,"indices":10}]},{"primitives":[{"attributes":{"POSITION":33,"NORMAL":34,"TEXCOORD_0":9},"material":2,"mode":4,"indices":10}]},{"primitives":[{"attributes":{"POSITION":35,"NORMAL":36,"TEXCOORD_0":9},"material":2,"mode":4,"indices":10}]},{"primitives":[{"attributes":{"POSITION":0,"NORMAL":1,"TEXCOORD_0":37},"material":3,"mode":4}]},{"primitives":[{"attributes":{"POSITION":0,"NORMAL":1,"TEXCOORD_0":38},"material":4,"mode":4}]},{"primitives":[{"attributes":{"POSITION":39,"NORMAL":40,"TEXCOORD_0":41},"material":5,"mode":4,"indices":42}]},{"primitives":[{"attributes":{"POSITION":43,"NORMAL":44,"TEXCOORD_0":45},"material":6,"mode":4,"indices":46}]},{"primitives":[{"attributes":{"POSITION":0,"NORMAL":1,"TEXCOORD_0":47},"material":3,"mode":4}]},{"primitives":[{"attributes":{"POSITION":48,"NORMAL":40,"TEXCOORD_0":49},"material":0,"mode":4,"indices":42}]},{"primitives":[{"attributes":{"POSITION":50,"NORMAL":51,"TEXCOORD_0":52},"material":1,"mode":4,"indices":53}]},{"primitives":[{"attributes":{"POSITION":54,"NORMAL":55,"TEXCOORD_0":56},"material":2,"mode":4,"indices":57}]},{"primitives":[{"attributes":{"POSITION":58,"NORMAL":59,"TEXCOORD_0":56},"material":2,"mode":4,"indices":57}]},{"primitives":[{"attributes":{"POSITION":60,"NORMAL":61,"TEXCOORD_0":56},"material":2,"mode":4,"indices":57}]},{"primitives":[{"attributes":{"POSITION":62,"NORMAL":63,"TEXCOORD_0":56},"material":2,"mode":4,"indices":57}]},{"primitives":[{"attributes":{"POSITION":64,"NORMAL":65,"TEXCOORD_0":56},"material":2,"mode":4,"indices":57}]},{"primitives":[{"attributes":{"POSITION":66,"NORMAL":67,"TEXCOORD_0":56},"material":2,"mode":4,"indices":57}]},{"primitives":[{"attributes":{"POSITION":68,"NORMAL":69,"TEXCOORD_0":56},"material":2,"mode":4,"indices":57}]},{"primitives":[{"attributes":{"POSITION":70,"NORMAL":71,"TEXCOORD_0":56},"material":2,"mode":4,"indices":57}]},{"primitives":[{"attributes":{"POSITION":72,"NORMAL":73,"TEXCOORD_0":56},"material":2,"mode":4,"indices":57}]},{"primitives":[{"attributes":{"POSITION":74,"NORMAL":75,"TEXCOORD_0":56},"material":2,"mode":4,"indices":57}]},{"primitives":[{"attributes":{"POSITION":76,"NORMAL":77,"TEXCOORD_0":56},"material":2,"mode":4,"indices":57}]},{"primitives":[{"attributes":{"POSITION":78,"NORMAL":79,"TEXCOORD_0":56},"material":2,"mode":4,"indices":57}]},{"primitives":[{"attributes":{"POSITION":80,"NORMAL":81,"TEXCOORD_0":56},"material":2,"mode":4,"indices":57}]},{"primitives":[{"attributes":{"POSITION":82,"NORMAL":83,"TEXCOORD_0":56},"material":2,"mode":4,"indices":57}]},{"primitives":[{"attributes":{"POSITION":48,"NORMAL":40,"TEXCOORD_0":84},"material":3,"mode":4,"indices":42}]},{"primitives":[{"attributes":{"POSITION":48,"NORMAL":40,"TEXCOORD_0":85},"material":4,"mode":4,"indices":42}]},{"primitives":[{"attributes":{"POSITION":48,"NORMAL":40,"TEXCOORD_0":86},"material":3,"mode":4,"indices":42}]},{"primitives":[{"attributes":{"POSITION":87,"NORMAL":88,"TEXCOORD_0":89},"material":2,"mode":4,"indices":90}]},{"primitives":[{"attributes":{"POSITION":91,"NORMAL":92,"TEXCOORD_0":89},"material":2,"mode":4,"indices":90}]},{"primitives":[{"attributes":{"POSITION":93,"NORMAL":94,"TEXCOORD_0":89},"material":2,"mode":4,"indices":90}]},{"primitives":[{"attributes":{"POSITION":95,"NORMAL":96,"TEXCOORD_0":89},"material":2,"mode":4,"indices":90}]},{"primitives":[{"attributes":{"POSITION":97,"NORMAL":98,"TEXCOORD_0":89},"material":2,"mode":4,"indices":90}]},{"primitives":[{"attributes":{"POSITION":99,"NORMAL":100,"TEXCOORD_0":89},"material":2,"mode":4,"indices":90}]}],"materials":[{"name":"concrete","pbrMetallicRoughness":{"baseColorTexture":{"index":0},"metallicRoughnessTexture":{"index":2},"roughnessFactor":1,"metallicFactor":1},"normalTexture":{"index":1,"scale":0.82},"occlusionTexture":{"index":2,"strength":0.35}},{"name":"bark","pbrMetallicRoughness":{"baseColorTexture":{"index":3},"metallicRoughnessTexture":{"index":5},"roughnessFactor":1,"metallicFactor":1},"normalTexture":{"index":4,"scale":1.35},"occlusionTexture":{"index":5,"strength":0.35}},{"name":"foliage","pbrMetallicRoughness":{"baseColorTexture":{"index":6},"metallicRoughnessTexture":{"index":8},"roughnessFactor":1,"metallicFactor":1},"normalTexture":{"index":7,"scale":0.88},"occlusionTexture":{"index":8,"strength":0.35}},{"name":"metal-galvanized","pbrMetallicRoughness":{"baseColorTexture":{"index":9},"metallicRoughnessTexture":{"index":11},"roughnessFactor":1,"metallicFactor":1},"normalTexture":{"index":10,"scale":0.15},"occlusionTexture":{"index":11,"strength":0.35}},{"name":"limestone","pbrMetallicRoughness":{"baseColorTexture":{"index":12},"metallicRoughnessTexture":{"index":14},"roughnessFactor":1,"metallicFactor":1},"normalTexture":{"index":13,"scale":0.9},"occlusionTexture":{"index":14,"strength":0.35}},{"name":"metal-dark","pbrMetallicRoughness":{"baseColorTexture":{"index":15},"metallicRoughnessTexture":{"index":17},"roughnessFactor":1,"metallicFactor":1},"normalTexture":{"index":16,"scale":0.35},"occlusionTexture":{"index":17,"strength":0.35}},{"name":"frankenpine-memorial signage","pbrMetallicRoughness":{"baseColorTexture":{"index":18},"roughnessFactor":1,"metallicFactor":0},"extensions":{"KHR_materials_unlit":{}}}],"textures":[{"source":0,"sampler":0},{"source":1,"sampler":0},{"source":2,"sampler":0},{"source":3,"sampler":0},{"source":4,"sampler":0},{"source":5,"sampler":0},{"source":6,"sampler":0},{"source":7,"sampler":0},{"source":8,"sampler":0},{"source":9,"sampler":0},{"source":10,"sampler":0},{"source":11,"sampler":0},{"source":12,"sampler":0},{"source":13,"sampler":0},{"source":14,"sampler":0},{"source":15,"sampler":0},{"source":16,"sampler":0},{"source":17,"sampler":0},{"source":18,"sampler":0}],"images":[{"uri":"../textures/concrete-albedo.png"},{"uri":"../textures/concrete-normal.png"},{"uri":"../textures/concrete-orm.png"},{"uri":"../textures/bark-albedo.png"},{"uri":"../textures/bark-normal.png"},{"uri":"../textures/bark-orm.png"},{"uri":"../textures/foliage-albedo.png"},{"uri":"../textures/foliage-normal.png"},{"uri":"../textures/foliage-orm.png"},{"uri":"../textures/metal-galvanized-albedo.png"},{"uri":"../textures/metal-galvanized-normal.png"},{"uri":"../textures/metal-galvanized-orm.png"},{"uri":"../textures/limestone-albedo.png"},{"uri":"../textures/limestone-normal.png"},{"uri":"../textures/limestone-orm.png"},{"uri":"../textures/metal-dark-albedo.png"},{"uri":"../textures/metal-dark-normal.png"},{"uri":"../textures/metal-dark-orm.png"},{"uri":"../signs/frankenpine-memorial.png"}],"samplers":[{"magFilter":9729,"minFilter":9987,"wrapS":10497,"wrapT":10497}],"buffers":[{"uri":"../shared/geometry.bin","byteLength":16435520}],"bufferViews":[{"buffer":0,"byteOffset":0,"byteLength":3888,"target":34962},{"buffer":0,"byteOffset":3888,"byteLength":3888,"target":34962},{"buffer":0,"byteOffset":5418912,"byteLength":2592,"target":34962},{"buffer":0,"byteOffset":5184520,"byteLength":696,"target":34962},{"buffer":0,"byteOffset":5185216,"byteLength":696,"target":34962},{"buffer":0,"byteOffset":5185912,"byteLength":464,"target":34962},{"buffer":0,"byteOffset":2089908,"byteLength":216,"target":34963},{"buffer":0,"byteOffset":5186376,"byteLength":972,"target":34962},{"buffer":0,"byteOffset":5187348,"byteLength":972,"target":34962},{"buffer":0,"byteOffset":5188320,"byteLength":648,"target":34962},{"buffer":0,"byteOffset":410600,"byteLength":768,"target":34963},{"buffer":0,"byteOffset":5188968,"byteLength":972,"target":34962},{"buffer":0,"byteOffset":5189940,"byteLength":972,"target":34962},{"buffer":0,"byteOffset":5190912,"byteLength":972,"target":34962},{"buffer":0,"byteOffset":5191884,"byteLength":972,"target":34962},{"buffer":0,"byteOffset":5192856,"byteLength":972,"target":34962},{"buffer":0,"byteOffset":5193828,"byteLength":972,"target":34962},{"buffer":0,"byteOffset":5194800,"byteLength":972,"target":34962},{"buffer":0,"byteOffset":5195772,"byteLength":972,"target":34962},{"buffer":0,"byteOffset":5196744,"byteLength":972,"target":34962},{"buffer":0,"byteOffset":5197716,"byteLength":972,"target":34962},{"buffer":0,"byteOffset":5198688,"byteLength":972,"target":34962},{"buffer":0,"byteOffset":5199660,"byteLength":972,"target":34962},{"buffer":0,"byteOffset":5200632,"byteLength":972,"target":34962},{"buffer":0,"byteOffset":5201604,"byteLength":972,"target":34962},{"buffer":0,"byteOffset":5202576,"byteLength":972,"target":34962},{"buffer":0,"byteOffset":5203548,"byteLength":972,"target":34962},{"buffer":0,"byteOffset":5204520,"byteLength":972,"target":34962},{"buffer":0,"byteOffset":5205492,"byteLength":972,"target":34962},{"buffer":0,"byteOffset":5379744,"byteLength":972,"target":34962},{"buffer":0,"byteOffset":5380716,"byteLength":972,"target":34962},{"buffer":0,"byteOffset":5381688,"byteLength":972,"target":34962},{"buffer":0,"byteOffset":5382660,"byteLength":972,"target":34962},{"buffer":0,"byteOffset":5421504,"byteLength":972,"target":34962},{"buffer":0,"byteOffset":5422476,"byteLength":972,"target":34962},{"buffer":0,"byteOffset":5423448,"byteLength":972,"target":34962},{"buffer":0,"byteOffset":5424420,"byteLength":972,"target":34962},{"buffer":0,"byteOffset":5206464,"byteLength":2592,"target":34962},{"buffer":0,"byteOffset":5209056,"byteLength":2592,"target":34962},{"buffer":0,"byteOffset":45664,"byteLength":288,"target":34962},{"buffer":0,"byteOffset":45952,"byteLength":288,"target":34962},{"buffer":0,"byteOffset":46240,"byteLength":192,"target":34962},{"buffer":0,"byteOffset":46432,"byteLength":72,"target":34963},{"buffer":0,"byteOffset":46504,"byteLength":48,"target":34962},{"buffer":0,"byteOffset":46552,"byteLength":48,"target":34962},{"buffer":0,"byteOffset":222692,"byteLength":32,"target":34962},{"buffer":0,"byteOffset":46632,"byteLength":12,"target":34963},{"buffer":0,"byteOffset":5508000,"byteLength":2592,"target":34962},{"buffer":0,"byteOffset":46644,"byteLength":288,"target":34962},{"buffer":0,"byteOffset":5425392,"byteLength":192,"target":34962},{"buffer":0,"byteOffset":5211840,"byteLength":480,"target":34962},{"buffer":0,"byteOffset":5212320,"byteLength":480,"target":34962},{"buffer":0,"byteOffset":5212800,"byteLength":320,"target":34962},{"buffer":0,"byteOffset":48596,"byteLength":144,"target":34963},{"buffer":0,"byteOffset":5213120,"byteLength":420,"target":34962},{"buffer":0,"byteOffset":5213540,"byteLength":420,"target":34962},{"buffer":0,"byteOffset":5213960,"byteLength":280,"target":34962},{"buffer":0,"byteOffset":434076,"byteLength":288,"target":34963},{"buffer":0,"byteOffset":5214240,"byteLength":420,"target":34962},{"buffer":0,"byteOffset":5214660,"byteLength":420,"target":34962},{"buffer":0,"byteOffset":5215080,"byteLength":420,"target":34962},{"buffer":0,"byteOffset":5215500,"byteLength":420,"target":34962},{"buffer":0,"byteOffset":5215920,"byteLength":420,"target":34962},{"buffer":0,"byteOffset":5216340,"byteLength":420,"target":34962},{"buffer":0,"byteOffset":5216760,"byteLength":420,"target":34962},{"buffer":0,"byteOffset":5217180,"byteLength":420,"target":34962},{"buffer":0,"byteOffset":5217600,"byteLength":420,"target":34962},{"buffer":0,"byteOffset":5218020,"byteLength":420,"target":34962},{"buffer":0,"byteOffset":5218440,"byteLength":420,"target":34962},{"buffer":0,"byteOffset":5218860,"byteLength":420,"target":34962},{"buffer":0,"byteOffset":5219280,"byteLength":420,"target":34962},{"buffer":0,"byteOffset":5219700,"byteLength":420,"target":34962},{"buffer":0,"byteOffset":5220120,"byteLength":420,"target":34962},{"buffer":0,"byteOffset":5220540,"byteLength":420,"target":34962},{"buffer":0,"byteOffset":5220960,"byteLength":420,"target":34962},{"buffer":0,"byteOffset":5221380,"byteLength":420,"target":34962},{"buffer":0,"byteOffset":5383824,"byteLength":420,"target":34962},{"buffer":0,"byteOffset":5384244,"byteLength":420,"target":34962},{"buffer":0,"byteOffset":5384664,"byteLength":420,"target":34962},{"buffer":0,"byteOffset":5385084,"byteLength":420,"target":34962},{"buffer":0,"byteOffset":5425584,"byteLength":420,"target":34962},{"buffer":0,"byteOffset":5426004,"byteLength":420,"target":34962},{"buffer":0,"byteOffset":5426424,"byteLength":420,"target":34962},{"buffer":0,"byteOffset":5426844,"byteLength":420,"target":34962},{"buffer":0,"byteOffset":5221800,"byteLength":192,"target":34962},{"buffer":0,"byteOffset":5221992,"byteLength":192,"target":34962},{"buffer":0,"byteOffset":5510592,"byteLength":192,"target":34962},{"buffer":0,"byteOffset":5222184,"byteLength":300,"target":34962},{"buffer":0,"byteOffset":5222484,"byteLength":300,"target":34962},{"buffer":0,"byteOffset":5222784,"byteLength":200,"target":34962},{"buffer":0,"byteOffset":440168,"byteLength":192,"target":34963},{"buffer":0,"byteOffset":5222984,"byteLength":300,"target":34962},{"buffer":0,"byteOffset":5223284,"byteLength":300,"target":34962},{"buffer":0,"byteOffset":5223584,"byteLength":300,"target":34962},{"buffer":0,"byteOffset":5223884,"byteLength":300,"target":34962},{"buffer":0,"byteOffset":5224184,"byteLength":300,"target":34962},{"buffer":0,"byteOffset":5224484,"byteLength":300,"target":34962},{"buffer":0,"byteOffset":5224784,"byteLength":300,"target":34962},{"buffer":0,"byteOffset":5225084,"byteLength":300,"target":34962},{"buffer":0,"byteOffset":5225384,"byteLength":300,"target":34962},{"buffer":0,"byteOffset":5225684,"byteLength":300,"target":34962}],"accessors":[{"bufferView":0,"componentType":5126,"count":324,"type":"VEC3","min":[-0.5,-0.5,-0.5],"max":[0.5,0.5,0.5]},{"bufferView":1,"componentType":5126,"count":324,"type":"VEC3"},{"bufferView":2,"componentType":5126,"count":324,"type":"VEC2"},{"bufferView":3,"componentType":5126,"count":58,"type":"VEC3","min":[-0.9848077297210693,-0.5,-0.9396926164627075],"max":[0.9848077297210693,0.5,1]},{"bufferView":4,"componentType":5126,"count":58,"type":"VEC3"},{"bufferView":5,"componentType":5126,"count":58,"type":"VEC2"},{"bufferView":6,"componentType":5123,"count":108,"type":"SCALAR"},{"bufferView":7,"componentType":5126,"count":81,"type":"VEC3","min":[-3.4191627502441406,5.641540050506592,-0.11999999731779099],"max":[0.019162660464644432,6.428460121154785,0.11999999731779099]},{"bufferView":8,"componentType":5126,"count":81,"type":"VEC3"},{"bufferView":9,"componentType":5126,"count":81,"type":"VEC2"},{"bufferView":10,"componentType":5123,"count":384,"type":"SCALAR"},{"bufferView":11,"componentType":5126,"count":81,"type":"VEC3","min":[-0.018141988664865494,5.8213791847229,-0.11999999731779099],"max":[3.418142080307007,6.578620910644531,0.11999999731779099]},{"bufferView":12,"componentType":5126,"count":81,"type":"VEC3"},{"bufferView":13,"componentType":5126,"count":81,"type":"VEC3","min":[-3.108098268508911,6.661868572235107,-0.11849639564752579],"max":[0.028098197653889656,7.448131084442139,0.6184964179992676]},{"bufferView":14,"componentType":5126,"count":81,"type":"VEC3"},{"bufferView":15,"componentType":5126,"count":81,"type":"VEC3","min":[-0.027350587770342827,6.841674327850342,-0.618491530418396],"max":[3.1073505878448486,7.598325252532959,0.11849153786897659]},{"bufferView":16,"componentType":5126,"count":81,"type":"VEC3"},{"bufferView":17,"componentType":5126,"count":81,"type":"VEC3","min":[-2.783452033996582,7.682313919067383,-0.11999999731779099],"max":[0.023451929911971092,8.46768569946289,0.11999999731779099]},{"bufferView":18,"componentType":5126,"count":81,"type":"VEC3"},{"bufferView":19,"componentType":5126,"count":81,"type":"VEC3","min":[-0.022217804566025734,7.862074851989746,-0.11999999731779099],"max":[2.7822177410125732,8.617925643920898,0.11999999731779099]},{"bufferView":20,"componentType":5126,"count":81,"type":"VEC3"},{"bufferView":21,"componentType":5126,"count":81,"type":"VEC3","min":[-2.474884510040283,8.702937126159668,-0.11767188459634781],"max":[0.034884605556726456,9.487062454223633,0.6176719069480896]},{"bufferView":22,"componentType":5126,"count":81,"type":"VEC3"},{"bufferView":23,"componentType":5126,"count":81,"type":"VEC3","min":[-0.033994369208812714,8.882636070251465,-0.6176602244377136],"max":[2.473994255065918,9.637364387512207,0.11766023188829422]},{"bufferView":24,"componentType":5126,"count":81,"type":"VEC3"},{"bufferView":25,"componentType":5126,"count":81,"type":"VEC3","min":[-2.150134563446045,9.723845481872559,-0.11999999731779099],"max":[0.030134472995996475,10.506155014038086,0.11999999731779099]},{"bufferView":26,"componentType":5126,"count":81,"type":"VEC3"},{"bufferView":27,"componentType":5126,"count":81,"type":"VEC3","min":[-0.028586583212018013,9.903454780578613,-0.11999999731779099],"max":[2.1485865116119385,10.656545639038086,0.11999999731779099]},{"bufferView":28,"componentType":5126,"count":81,"type":"VEC3"},{"bufferView":29,"componentType":5126,"count":81,"type":"VEC3","min":[-1.845630407333374,10.745237350463867,-0.11597740650177002],"max":[0.04563044756650925,11.524762153625488,0.61597740650177]},{"bufferView":30,"componentType":5126,"count":81,"type":"VEC3"},{"bufferView":31,"componentType":5126,"count":81,"type":"VEC3","min":[-0.04456908628344536,10.924714088439941,-0.6159424781799316],"max":[1.8445690870285034,11.675285339355469,0.11594246327877045]},{"bufferView":32,"componentType":5126,"count":81,"type":"VEC3"},{"bufferView":33,"componentType":5126,"count":81,"type":"VEC3","min":[-1.521801471710205,11.767516136169434,-0.11999999731779099],"max":[0.041801463812589645,12.542484283447266,0.11999999731779099]},{"bufferView":34,"componentType":5126,"count":81,"type":"VEC3"},{"bufferView":35,"componentType":5126,"count":81,"type":"VEC3","min":[-0.039778318256139755,11.946784973144531,-0.11999999731779099],"max":[1.5197783708572388,12.693215370178223,0.11999999731779099]},{"bufferView":36,"componentType":5126,"count":81,"type":"VEC3"},{"bufferView":37,"componentType":5126,"count":324,"type":"VEC2"},{"bufferView":38,"componentType":5126,"count":324,"type":"VEC2"},{"bufferView":39,"componentType":5126,"count":24,"type":"VEC3","min":[-0.5,-0.5,-0.02500000037252903],"max":[0.5,0.5,0.02500000037252903]},{"bufferView":40,"componentType":5126,"count":24,"type":"VEC3"},{"bufferView":41,"componentType":5126,"count":24,"type":"VEC2"},{"bufferView":42,"componentType":5123,"count":36,"type":"SCALAR"},{"bufferView":43,"componentType":5126,"count":4,"type":"VEC3","min":[-0.5,-0.5,0],"max":[0.5,0.5,0]},{"bufferView":44,"componentType":5126,"count":4,"type":"VEC3"},{"bufferView":45,"componentType":5126,"count":4,"type":"VEC2"},{"bufferView":46,"componentType":5123,"count":6,"type":"SCALAR"},{"bufferView":47,"componentType":5126,"count":324,"type":"VEC2"},{"bufferView":48,"componentType":5126,"count":24,"type":"VEC3","min":[-0.5,-0.5,-0.5],"max":[0.5,0.5,0.5]},{"bufferView":49,"componentType":5126,"count":24,"type":"VEC2"},{"bufferView":50,"componentType":5126,"count":40,"type":"VEC3","min":[-0.8660253882408142,-0.5,-1],"max":[0.8660253882408142,0.5,1]},{"bufferView":51,"componentType":5126,"count":40,"type":"VEC3"},{"bufferView":52,"componentType":5126,"count":40,"type":"VEC2"},{"bufferView":53,"componentType":5123,"count":72,"type":"SCALAR"},{"bufferView":54,"componentType":5126,"count":35,"type":"VEC3","min":[-3.416595458984375,5.657410621643066,-0.11999999731779099],"max":[0.016595350578427315,6.4125895500183105,0.11999999731779099]},{"bufferView":55,"componentType":5126,"count":35,"type":"VEC3"},{"bufferView":56,"componentType":5126,"count":35,"type":"VEC2"},{"bufferView":57,"componentType":5123,"count":144,"type":"SCALAR"},{"bufferView":58,"componentType":5126,"count":35,"type":"VEC3","min":[-0.015711423009634018,5.837271690368652,-0.11999999731779099],"max":[3.4157114028930664,6.562728404998779,0.11999999731779099]},{"bufferView":59,"componentType":5126,"count":35,"type":"VEC3"},{"bufferView":60,"componentType":5126,"count":35,"type":"VEC3","min":[-3.1075897216796875,6.67603063583374,-0.11849639564752579],"max":[0.027589688077569008,7.433969020843506,0.6184964179992676]},{"bufferView":61,"componentType":5126,"count":35,"type":"VEC3"},{"bufferView":62,"componentType":5126,"count":35,"type":"VEC3","min":[-0.026651885360479355,6.855948448181152,-0.618491530418396],"max":[3.106651782989502,7.584051609039307,0.11849153786897659]},{"bufferView":63,"componentType":5126,"count":35,"type":"VEC3"},{"bufferView":64,"componentType":5126,"count":35,"type":"VEC3","min":[-2.7803099155426025,7.698081016540527,-0.11999999731779099],"max":[0.020309967920184135,8.451919555664062,0.11999999731779099]},{"bufferView":65,"componentType":5126,"count":35,"type":"VEC3"},{"bufferView":66,"componentType":5126,"count":35,"type":"VEC3","min":[-0.019241182133555412,7.87787389755249,-0.11999999731779099],"max":[2.7792410850524902,8.602126121520996,0.11999999731779099]},{"bufferView":67,"componentType":5126,"count":35,"type":"VEC3"},{"bufferView":68,"componentType":5126,"count":35,"type":"VEC3","min":[-2.47432541847229,8.716033935546875,-0.11767188459634781],"max":[0.0343254990875721,9.473965644836426,0.6176719069480896]},{"bufferView":69,"componentType":5126,"count":35,"type":"VEC3"},{"bufferView":70,"componentType":5126,"count":35,"type":"VEC3","min":[-0.0331927053630352,8.895901679992676,-0.6176602244377136],"max":[2.4731926918029785,9.62409782409668,0.11766023188829422]},{"bufferView":71,"componentType":5126,"count":35,"type":"VEC3"},{"bufferView":72,"componentType":5126,"count":35,"type":"VEC3","min":[-2.146097183227539,9.739407539367676,-0.11999999731779099],"max":[0.026097219437360764,10.490592956542969,0.11999999731779099]},{"bufferView":73,"componentType":5126,"count":35,"type":"VEC3"},{"bufferView":74,"componentType":5126,"count":35,"type":"VEC3","min":[-0.02475670725107193,9.919068336486816,-0.11999999731779099],"max":[2.14475679397583,10.640931129455566,0.11999999731779099]},{"bufferView":75,"componentType":5126,"count":35,"type":"VEC3"},{"bufferView":76,"componentType":5126,"count":35,"type":"VEC3","min":[-1.8451007604599,10.756111145019531,-0.11597740650177002],"max":[0.045100726187229156,11.513888359069824,0.61597740650177]},{"bufferView":77,"componentType":5126,"count":35,"type":"VEC3"},{"bufferView":78,"componentType":5126,"count":35,"type":"VEC3","min":[-0.043705493211746216,10.935866355895996,-0.6159424781799316],"max":[1.8437055349349976,11.66413402557373,0.11594246327877045]},{"bufferView":79,"componentType":5126,"count":35,"type":"VEC3"},{"bufferView":80,"componentType":5126,"count":35,"type":"VEC3","min":[-1.516201138496399,11.782586097717285,-0.11999999731779099],"max":[0.03620113059878349,12.527414321899414,0.11999999731779099]},{"bufferView":81,"componentType":5126,"count":35,"type":"VEC3"},{"bufferView":82,"componentType":5126,"count":35,"type":"VEC3","min":[-0.03444903343915939,11.961953163146973,-0.11999999731779099],"max":[1.5144490003585815,12.678047180175781,0.11999999731779099]},{"bufferView":83,"componentType":5126,"count":35,"type":"VEC3"},{"bufferView":84,"componentType":5126,"count":24,"type":"VEC2"},{"bufferView":85,"componentType":5126,"count":24,"type":"VEC2"},{"bufferView":86,"componentType":5126,"count":24,"type":"VEC2"},{"bufferView":87,"componentType":5126,"count":25,"type":"VEC3","min":[-3.4191627502441406,5.641540050506592,-0.11999999731779099],"max":[0.019162660464644432,6.428460121154785,0.11999999731779099]},{"bufferView":88,"componentType":5126,"count":25,"type":"VEC3"},{"bufferView":89,"componentType":5126,"count":25,"type":"VEC2"},{"bufferView":90,"componentType":5123,"count":96,"type":"SCALAR"},{"bufferView":91,"componentType":5126,"count":25,"type":"VEC3","min":[-0.018141988664865494,5.8213791847229,-0.11999999731779099],"max":[3.418142080307007,6.578620910644531,0.11999999731779099]},{"bufferView":92,"componentType":5126,"count":25,"type":"VEC3"},{"bufferView":93,"componentType":5126,"count":25,"type":"VEC3","min":[-3.101094961166382,6.661868572235107,-0.11849639564752579],"max":[0.021094877272844315,7.448131084442139,0.6184964179992676]},{"bufferView":94,"componentType":5126,"count":25,"type":"VEC3"},{"bufferView":95,"componentType":5126,"count":25,"type":"VEC3","min":[-0.0199770275503397,6.841674327850342,-0.618491530418396],"max":[3.0999770164489746,7.598325252532959,0.11849153786897659]},{"bufferView":96,"componentType":5126,"count":25,"type":"VEC3"},{"bufferView":97,"componentType":5126,"count":25,"type":"VEC3","min":[-2.783452033996582,7.682313919067383,-0.11999999731779099],"max":[0.023451929911971092,8.46768569946289,0.11999999731779099]},{"bufferView":98,"componentType":5126,"count":25,"type":"VEC3"},{"bufferView":99,"componentType":5126,"count":25,"type":"VEC3","min":[-0.022217804566025734,7.862074851989746,-0.11999999731779099],"max":[2.7822177410125732,8.617925643920898,0.11999999731779099]},{"bufferView":100,"componentType":5126,"count":25,"type":"VEC3"}],"extensionsUsed":["KHR_materials_unlit"],"extras":{"id":"vlt-frankenpine-memorial-31","family":"frankenpine-memorial","variant":30,"plan":"C1-2","units":"metres","up":"+Y","front":"+Z","lodScenes":[0,1,2]}}