{"asset":{"version":"2.0","generator":"SLOPMERICA Department of Unnecessary Development 1.0"},"scene":0,"scenes":[{"name":"LOD 0","nodes":[0,1,2,3,4,5,6,7,8,9,10,11,12,13,14,15,16,17,18,19,20,21,22,23,24,25,26],"extras":{"level":0}},{"name":"LOD 1","nodes":[27,28,29,30,31,32,33,34,35,36,37,38,39,40,41,42,43,44,45,46,47],"extras":{"level":1}},{"name":"LOD 2","nodes":[48,49,50,51,52,53,54,55,56,57,58],"extras":{"level":2}}],"nodes":[{"name":"surveyed lot","mesh":0,"translation":[0,0.06,0],"scale":[17.68,0.12,16.64]},{"name":"oversized core","mesh":1,"translation":[0,3.3,-0.5],"scale":[12,6.4,8.2]},{"name":"front-only stone veneer","mesh":2,"translation":[0,1.25,3.68],"scale":[12.12,2.3,0.16]},{"name":"three car garage snout","mesh":3,"translation":[-3.4,1.72,5.1],"scale":[6.3,3.2,7.1]},{"name":"garage doors","mesh":4,"translation":[-3.4,1.45,8.7],"scale":[5.8,2.35,0.12]},{"name":"one turret","mesh":5,"translation":[4.25,3.8,3],"scale":[1.75,7.4,1.75]},{"name":"turret hat","mesh":6,"translation":[4.25,8.55,3],"scale":[2.05,2.1,2.05]},{"name":"roofline 1 right","mesh":7,"translation":[-0.84,6.916177,-2.6],"rotation":[0,0,0.227978,0.973666],"scale":[1.87489,0.16,2.9]},{"name":"roofline 1 left","mesh":7,"translation":[0.84,6.916177,-2.6],"rotation":[0,0,-0.227978,0.973666],"scale":[1.87489,0.16,2.9]},{"name":"roofline 2 left","mesh":8,"translation":[-1.09,7.220039,-1.75],"rotation":[0,0,0.227978,0.973666],"scale":[2.432893,0.16,2.9]},{"name":"roofline 2 right","mesh":8,"translation":[1.09,7.220039,-1.75],"rotation":[0,0,-0.227978,0.973666],"scale":[2.432893,0.16,2.9]},{"name":"roofline 3 right","mesh":9,"translation":[-1.34,7.163901,-0.9],"rotation":[0,0,0.227978,0.973666],"scale":[2.990896,0.16,2.9]},{"name":"roofline 3 left","mesh":9,"translation":[1.34,7.163901,-0.9],"rotation":[0,0,-0.227978,0.973666],"scale":[2.990896,0.16,2.9]},{"name":"roofline 4 left","mesh":7,"translation":[-0.84,7.096177,-0.05],"rotation":[0,0,0.227978,0.973666],"scale":[1.87489,0.16,2.9]},{"name":"roofline 4 right","mesh":7,"translation":[0.84,7.096177,-0.05],"rotation":[0,0,-0.227978,0.973666],"scale":[1.87489,0.16,2.9]},{"name":"roofline 5 right","mesh":8,"translation":[-1.09,7.040039,0.8],"rotation":[0,0,0.227978,0.973666],"scale":[2.432893,0.16,2.9]},{"name":"roofline 5 left","mesh":8,"translation":[1.09,7.040039,0.8],"rotation":[0,0,-0.227978,0.973666],"scale":[2.432893,0.16,2.9]},{"name":"roofline 6 left","mesh":9,"translation":[-1.34,7.343901,1.65],"rotation":[0,0,0.227978,0.973666],"scale":[2.990896,0.16,2.9]},{"name":"roofline 6 right","mesh":9,"translation":[1.34,7.343901,1.65],"rotation":[0,0,-0.227978,0.973666],"scale":[2.990896,0.16,2.9]},{"name":"roofline 7 right","mesh":7,"translation":[-0.84,6.916177,2.5],"rotation":[0,0,0.227978,0.973666],"scale":[1.87489,0.16,2.9]},{"name":"roofline 7 left","mesh":7,"translation":[0.84,6.916177,2.5],"rotation":[0,0,-0.227978,0.973666],"scale":[1.87489,0.16,2.9]},{"name":"window 4.6 0","mesh":10,"translation":[-3.875,4.6,3.68],"scale":[0.7,0.75,0.09]},{"name":"window 4.6 1","mesh":10,"translation":[-2.325,4.6,3.68],"scale":[0.7,0.75,0.09]},{"name":"window 4.6 2","mesh":10,"translation":[-0.775,4.6,3.68],"scale":[0.7,0.75,0.09]},{"name":"window 4.6 3","mesh":10,"translation":[0.775,4.6,3.68],"scale":[0.7,0.75,0.09]},{"name":"window 4.6 4","mesh":10,"translation":[2.325,4.6,3.68],"scale":[0.7,0.75,0.09]},{"name":"window 4.6 5","mesh":10,"translation":[3.875,4.6,3.68],"scale":[0.7,0.75,0.09]},{"name":"surveyed lot","mesh":11,"translation":[0,0.06,0],"scale":[17.68,0.12,16.64]},{"name":"oversized core","mesh":12,"translation":[0,3.3,-0.5],"scale":[12,6.4,8.2]},{"name":"front-only stone veneer","mesh":13,"translation":[0,1.25,3.68],"scale":[12.12,2.3,0.16]},{"name":"three car garage snout","mesh":14,"translation":[-3.4,1.72,5.1],"scale":[6.3,3.2,7.1]},{"name":"garage doors","mesh":15,"translation":[-3.4,1.45,8.7],"scale":[5.8,2.35,0.12]},{"name":"one turret","mesh":16,"translation":[4.25,3.8,3],"scale":[1.75,7.4,1.75]},{"name":"turret hat","mesh":17,"translation":[4.25,8.55,3],"scale":[2.05,2.1,2.05]},{"name":"roofline 1 right","mesh":18,"translation":[-0.84,6.916177,-2.6],"rotation":[0,0,0.227978,0.973666],"scale":[1.87489,0.16,2.9]},{"name":"roofline 1 left","mesh":18,"translation":[0.84,6.916177,-2.6],"rotation":[0,0,-0.227978,0.973666],"scale":[1.87489,0.16,2.9]},{"name":"roofline 2 left","mesh":19,"translation":[-1.09,7.220039,-1.75],"rotation":[0,0,0.227978,0.973666],"scale":[2.432893,0.16,2.9]},{"name":"roofline 2 right","mesh":19,"translation":[1.09,7.220039,-1.75],"rotation":[0,0,-0.227978,0.973666],"scale":[2.432893,0.16,2.9]},{"name":"roofline 3 right","mesh":20,"translation":[-1.34,7.163901,-0.9],"rotation":[0,0,0.227978,0.973666],"scale":[2.990896,0.16,2.9]},{"name":"roofline 3 left","mesh":20,"translation":[1.34,7.163901,-0.9],"rotation":[0,0,-0.227978,0.973666],"scale":[2.990896,0.16,2.9]},{"name":"roofline 4 left","mesh":18,"translation":[-0.84,7.096177,-0.05],"rotation":[0,0,0.227978,0.973666],"scale":[1.87489,0.16,2.9]},{"name":"roofline 4 right","mesh":18,"translation":[0.84,7.096177,-0.05],"rotation":[0,0,-0.227978,0.973666],"scale":[1.87489,0.16,2.9]},{"name":"window 4.6 0","mesh":21,"translation":[-3.875,4.6,3.68],"scale":[0.7,0.75,0.09]},{"name":"window 4.6 1","mesh":21,"translation":[-2.325,4.6,3.68],"scale":[0.7,0.75,0.09]},{"name":"window 4.6 2","mesh":21,"translation":[-0.775,4.6,3.68],"scale":[0.7,0.75,0.09]},{"name":"window 4.6 3","mesh":21,"translation":[0.775,4.6,3.68],"scale":[0.7,0.75,0.09]},{"name":"window 4.6 4","mesh":21,"translation":[2.325,4.6,3.68],"scale":[0.7,0.75,0.09]},{"name":"window 4.6 5","mesh":21,"translation":[3.875,4.6,3.68],"scale":[0.7,0.75,0.09]},{"name":"surveyed lot","mesh":11,"translation":[0,0.06,0],"scale":[17.68,0.12,16.64]},{"name":"oversized core","mesh":12,"translation":[0,3.3,-0.5],"scale":[12,6.4,8.2]},{"name":"front-only stone veneer","mesh":13,"translation":[0,1.25,3.68],"scale":[12.12,2.3,0.16]},{"name":"three car garage snout","mesh":14,"translation":[-3.4,1.72,5.1],"scale":[6.3,3.2,7.1]},{"name":"garage doors","mesh":15,"translation":[-3.4,1.45,8.7],"scale":[5.8,2.35,0.12]},{"name":"one turret","mesh":22,"translation":[4.25,3.8,3],"scale":[1.75,7.4,1.75]},{"name":"turret hat","mesh":23,"translation":[4.25,8.55,3],"scale":[2.05,2.1,2.05]},{"name":"roofline 1 right","mesh":18,"translation":[-0.84,6.916177,-2.6],"rotation":[0,0,0.227978,0.973666],"scale":[1.87489,0.16,2.9]},{"name":"roofline 1 left","mesh":18,"translation":[0.84,6.916177,-2.6],"rotation":[0,0,-0.227978,0.973666],"scale":[1.87489,0.16,2.9]},{"name":"roofline 2 left","mesh":19,"translation":[-1.09,7.220039,-1.75],"rotation":[0,0,0.227978,0.973666],"scale":[2.432893,0.16,2.9]},{"name":"roofline 2 right","mesh":19,"translation":[1.09,7.220039,-1.75],"rotation":[0,0,-0.227978,0.973666],"scale":[2.432893,0.16,2.9]}],"meshes":[{"primitives":[{"attributes":{"POSITION":0,"NORMAL":1,"TEXCOORD_0":2},"material":0,"mode":4}]},{"primitives":[{"attributes":{"POSITION":3,"NORMAL":1,"TEXCOORD_0":4},"material":1,"mode":4}]},{"primitives":[{"attributes":{"POSITION":0,"NORMAL":1,"TEXCOORD_0":5},"material":2,"mode":4}]},{"primitives":[{"attributes":{"POSITION":0,"NORMAL":1,"TEXCOORD_0":6},"material":3,"mode":4}]},{"primitives":[{"attributes":{"POSITION":0,"NORMAL":1,"TEXCOORD_0":7},"material":4,"mode":4}]},{"primitives":[{"attributes":{"POSITION":8,"NORMAL":9,"TEXCOORD_0":10},"material":3,"mode":4,"indices":11}]},{"primitives":[{"attributes":{"POSITION":12,"NORMAL":13,"TEXCOORD_0":14},"material":5,"mode":4,"indices":11}]},{"primitives":[{"attributes":{"POSITION":0,"NORMAL":1,"TEXCOORD_0":15},"material":5,"mode":4}]},{"primitives":[{"attributes":{"POSITION":0,"NORMAL":1,"TEXCOORD_0":16},"material":5,"mode":4}]},{"primitives":[{"attributes":{"POSITION":0,"NORMAL":1,"TEXCOORD_0":17},"material":5,"mode":4}]},{"primitives":[{"attributes":{"POSITION":0,"NORMAL":1,"TEXCOORD_0":18},"material":6,"mode":4}]},{"primitives":[{"attributes":{"POSITION":19,"NORMAL":20,"TEXCOORD_0":21},"material":0,"mode":4,"indices":22}]},{"primitives":[{"attributes":{"POSITION":19,"NORMAL":20,"TEXCOORD_0":23},"material":1,"mode":4,"indices":22}]},{"primitives":[{"attributes":{"POSITION":19,"NORMAL":20,"TEXCOORD_0":24},"material":2,"mode":4,"indices":22}]},{"primitives":[{"attributes":{"POSITION":19,"NORMAL":20,"TEXCOORD_0":25},"material":3,"mode":4,"indices":22}]},{"primitives":[{"attributes":{"POSITION":19,"NORMAL":20,"TEXCOORD_0":26},"material":4,"mode":4,"indices":22}]},{"primitives":[{"attributes":{"POSITION":27,"NORMAL":28,"TEXCOORD_0":29},"material":3,"mode":4,"indices":30}]},{"primitives":[{"attributes":{"POSITION":31,"NORMAL":32,"TEXCOORD_0":33},"material":5,"mode":4,"indices":30}]},{"primitives":[{"attributes":{"POSITION":19,"NORMAL":20,"TEXCOORD_0":34},"material":5,"mode":4,"indices":22}]},{"primitives":[{"attributes":{"POSITION":19,"NORMAL":20,"TEXCOORD_0":35},"material":5,"mode":4,"indices":22}]},{"primitives":[{"attributes":{"POSITION":19,"NORMAL":20,"TEXCOORD_0":36},"material":5,"mode":4,"indices":22}]},{"primitives":[{"attributes":{"POSITION":19,"NORMAL":20,"TEXCOORD_0":37},"material":6,"mode":4,"indices":22}]},{"primitives":[{"attributes":{"POSITION":38,"NORMAL":39,"TEXCOORD_0":40},"material":3,"mode":4,"indices":41}]},{"primitives":[{"attributes":{"POSITION":42,"NORMAL":43,"TEXCOORD_0":44},"material":5,"mode":4,"indices":41}]}],"materials":[{"name":"concrete","pbrMetallicRoughness":{"baseColorTexture":{"index":0},"metallicRoughnessTexture":{"index":2},"roughnessFactor":1,"metallicFactor":1},"normalTexture":{"index":1,"scale":0.82},"occlusionTexture":{"index":2,"strength":0.35}},{"name":"brick-cream","pbrMetallicRoughness":{"baseColorTexture":{"index":3},"metallicRoughnessTexture":{"index":5},"roughnessFactor":1,"metallicFactor":1},"normalTexture":{"index":4,"scale":1.05},"occlusionTexture":{"index":5,"strength":0.35}},{"name":"limestone","pbrMetallicRoughness":{"baseColorTexture":{"index":6},"metallicRoughnessTexture":{"index":8},"roughnessFactor":1,"metallicFactor":1},"normalTexture":{"index":7,"scale":0.9},"occlusionTexture":{"index":8,"strength":0.35}},{"name":"stucco-ivory","pbrMetallicRoughness":{"baseColorTexture":{"index":9},"metallicRoughnessTexture":{"index":11},"roughnessFactor":1,"metallicFactor":1},"normalTexture":{"index":10,"scale":0.5},"occlusionTexture":{"index":11,"strength":0.35}},{"name":"wood-painted","pbrMetallicRoughness":{"baseColorTexture":{"index":12},"metallicRoughnessTexture":{"index":14},"roughnessFactor":1,"metallicFactor":1},"normalTexture":{"index":13,"scale":0.55},"occlusionTexture":{"index":14,"strength":0.35}},{"name":"roof-shingle","pbrMetallicRoughness":{"baseColorTexture":{"index":15},"metallicRoughnessTexture":{"index":17},"roughnessFactor":1,"metallicFactor":1},"normalTexture":{"index":16,"scale":0.78},"occlusionTexture":{"index":17,"strength":0.35}},{"name":"glass-blue","pbrMetallicRoughness":{"baseColorTexture":{"index":18},"metallicRoughnessTexture":{"index":20},"roughnessFactor":1,"metallicFactor":1},"normalTexture":{"index":19,"scale":0.12},"occlusionTexture":{"index":20,"strength":0.35}}],"textures":[{"source":0,"sampler":0},{"source":1,"sampler":0},{"source":2,"sampler":0},{"source":3,"sampler":0},{"source":4,"sampler":0},{"source":5,"sampler":0},{"source":6,"sampler":0},{"source":7,"sampler":0},{"source":8,"sampler":0},{"source":9,"sampler":0},{"source":10,"sampler":0},{"source":11,"sampler":0},{"source":12,"sampler":0},{"source":13,"sampler":0},{"source":14,"sampler":0},{"source":15,"sampler":0},{"source":16,"sampler":0},{"source":17,"sampler":0},{"source":18,"sampler":0},{"source":19,"sampler":0},{"source":20,"sampler":0}],"images":[{"uri":"../textures/concrete-albedo.png"},{"uri":"../textures/concrete-normal.png"},{"uri":"../textures/concrete-orm.png"},{"uri":"../textures/brick-cream-albedo.png"},{"uri":"../textures/brick-cream-normal.png"},{"uri":"../textures/brick-cream-orm.png"},{"uri":"../textures/limestone-albedo.png"},{"uri":"../textures/limestone-normal.png"},{"uri":"../textures/limestone-orm.png"},{"uri":"../textures/stucco-ivory-albedo.png"},{"uri":"../textures/stucco-ivory-normal.png"},{"uri":"../textures/stucco-ivory-orm.png"},{"uri":"../textures/wood-painted-albedo.png"},{"uri":"../textures/wood-painted-normal.png"},{"uri":"../textures/wood-painted-orm.png"},{"uri":"../textures/roof-shingle-albedo.png"},{"uri":"../textures/roof-shingle-normal.png"},{"uri":"../textures/roof-shingle-orm.png"},{"uri":"../textures/glass-blue-albedo.png"},{"uri":"../textures/glass-blue-normal.png"},{"uri":"../textures/glass-blue-orm.png"}],"samplers":[{"magFilter":9729,"minFilter":9987,"wrapS":10497,"wrapT":10497}],"buffers":[{"uri":"../shared/geometry.bin","byteLength":16435520}],"bufferViews":[{"buffer":0,"byteOffset":0,"byteLength":3888,"target":34962},{"buffer":0,"byteOffset":3888,"byteLength":3888,"target":34962},{"buffer":0,"byteOffset":7825168,"byteLength":2592,"target":34962},{"buffer":0,"byteOffset":5651632,"byteLength":3888,"target":34962},{"buffer":0,"byteOffset":12784572,"byteLength":2592,"target":34962},{"buffer":0,"byteOffset":12787164,"byteLength":2592,"target":34962},{"buffer":0,"byteOffset":12883404,"byteLength":2592,"target":34962},{"buffer":0,"byteOffset":12792348,"byteLength":2592,"target":34962},{"buffer":0,"byteOffset":12794940,"byteLength":1056,"target":34962},{"buffer":0,"byteOffset":12795996,"byteLength":1056,"target":34962},{"buffer":0,"byteOffset":12740748,"byteLength":704,"target":34962},{"buffer":0,"byteOffset":3762292,"byteLength":336,"target":34963},{"buffer":0,"byteOffset":12741452,"byteLength":1056,"target":34962},{"buffer":0,"byteOffset":12742508,"byteLength":1056,"target":34962},{"buffer":0,"byteOffset":12743564,"byteLength":704,"target":34962},{"buffer":0,"byteOffset":12797052,"byteLength":2592,"target":34962},{"buffer":0,"byteOffset":12799644,"byteLength":2592,"target":34962},{"buffer":0,"byteOffset":12802236,"byteLength":2592,"target":34962},{"buffer":0,"byteOffset":4235856,"byteLength":2592,"target":34962},{"buffer":0,"byteOffset":46644,"byteLength":288,"target":34962},{"buffer":0,"byteOffset":45952,"byteLength":288,"target":34962},{"buffer":0,"byteOffset":7838088,"byteLength":192,"target":34962},{"buffer":0,"byteOffset":46432,"byteLength":72,"target":34963},{"buffer":0,"byteOffset":12804828,"byteLength":192,"target":34962},{"buffer":0,"byteOffset":12805020,"byteLength":192,"target":34962},{"buffer":0,"byteOffset":12885996,"byteLength":192,"target":34962},{"buffer":0,"byteOffset":12805404,"byteLength":192,"target":34962},{"buffer":0,"byteOffset":12805596,"byteLength":552,"target":34962},{"buffer":0,"byteOffset":12806148,"byteLength":552,"target":34962},{"buffer":0,"byteOffset":12754108,"byteLength":368,"target":34962},{"buffer":0,"byteOffset":3772292,"byteLength":168,"target":34963},{"buffer":0,"byteOffset":12754476,"byteLength":552,"target":34962},{"buffer":0,"byteOffset":12755028,"byteLength":552,"target":34962},{"buffer":0,"byteOffset":12755580,"byteLength":368,"target":34962},{"buffer":0,"byteOffset":12806700,"byteLength":192,"target":34962},{"buffer":0,"byteOffset":12806892,"byteLength":192,"target":34962},{"buffer":0,"byteOffset":12807084,"byteLength":192,"target":34962},{"buffer":0,"byteOffset":4252176,"byteLength":192,"target":34962},{"buffer":0,"byteOffset":12807276,"byteLength":480,"target":34962},{"buffer":0,"byteOffset":12807756,"byteLength":480,"target":34962},{"buffer":0,"byteOffset":12756524,"byteLength":320,"target":34962},{"buffer":0,"byteOffset":48596,"byteLength":144,"target":34963},{"buffer":0,"byteOffset":12756844,"byteLength":480,"target":34962},{"buffer":0,"byteOffset":12757324,"byteLength":480,"target":34962},{"buffer":0,"byteOffset":12757804,"byteLength":320,"target":34962}],"accessors":[{"bufferView":0,"componentType":5126,"count":324,"type":"VEC3","min":[-0.5,-0.5,-0.5],"max":[0.5,0.5,0.5]},{"bufferView":1,"componentType":5126,"count":324,"type":"VEC3"},{"bufferView":2,"componentType":5126,"count":324,"type":"VEC2"},{"bufferView":3,"componentType":5126,"count":324,"type":"VEC3","min":[-0.5,-0.5,-0.5],"max":[0.5,0.5,0.5]},{"bufferView":4,"componentType":5126,"count":324,"type":"VEC2"},{"bufferView":5,"componentType":5126,"count":324,"type":"VEC2"},{"bufferView":6,"componentType":5126,"count":324,"type":"VEC2"},{"bufferView":7,"componentType":5126,"count":324,"type":"VEC2"},{"bufferView":8,"componentType":5126,"count":88,"type":"VEC3","min":[-0.9749279022216797,-0.5,-1],"max":[0.9749279022216797,0.5,1]},{"bufferView":9,"componentType":5126,"count":88,"type":"VEC3"},{"bufferView":10,"componentType":5126,"count":88,"type":"VEC2"},{"bufferView":11,"componentType":5123,"count":168,"type":"SCALAR"},{"bufferView":12,"componentType":5126,"count":88,"type":"VEC3","min":[-0.9749279022216797,-0.5,-1],"max":[0.9749279022216797,0.5,1]},{"bufferView":13,"componentType":5126,"count":88,"type":"VEC3"},{"bufferView":14,"componentType":5126,"count":88,"type":"VEC2"},{"bufferView":15,"componentType":5126,"count":324,"type":"VEC2"},{"bufferView":16,"componentType":5126,"count":324,"type":"VEC2"},{"bufferView":17,"componentType":5126,"count":324,"type":"VEC2"},{"bufferView":18,"componentType":5126,"count":324,"type":"VEC2"},{"bufferView":19,"componentType":5126,"count":24,"type":"VEC3","min":[-0.5,-0.5,-0.5],"max":[0.5,0.5,0.5]},{"bufferView":20,"componentType":5126,"count":24,"type":"VEC3"},{"bufferView":21,"componentType":5126,"count":24,"type":"VEC2"},{"bufferView":22,"componentType":5123,"count":36,"type":"SCALAR"},{"bufferView":23,"componentType":5126,"count":24,"type":"VEC2"},{"bufferView":24,"componentType":5126,"count":24,"type":"VEC2"},{"bufferView":25,"componentType":5126,"count":24,"type":"VEC2"},{"bufferView":26,"componentType":5126,"count":24,"type":"VEC2"},{"bufferView":27,"componentType":5126,"count":46,"type":"VEC3","min":[-0.9749279022216797,-0.5,-0.9009688496589661],"max":[0.9749279022216797,0.5,1]},{"bufferView":28,"componentType":5126,"count":46,"type":"VEC3"},{"bufferView":29,"componentType":5126,"count":46,"type":"VEC2"},{"bufferView":30,"componentType":5123,"count":84,"type":"SCALAR"},{"bufferView":31,"componentType":5126,"count":46,"type":"VEC3","min":[-0.9749279022216797,-0.5,-0.9009688496589661],"max":[0.9749279022216797,0.5,1]},{"bufferView":32,"componentType":5126,"count":46,"type":"VEC3"},{"bufferView":33,"componentType":5126,"count":46,"type":"VEC2"},{"bufferView":34,"componentType":5126,"count":24,"type":"VEC2"},{"bufferView":35,"componentType":5126,"count":24,"type":"VEC2"},{"bufferView":36,"componentType":5126,"count":24,"type":"VEC2"},{"bufferView":37,"componentType":5126,"count":24,"type":"VEC2"},{"bufferView":38,"componentType":5126,"count":40,"type":"VEC3","min":[-0.8660253882408142,-0.5,-1],"max":[0.8660253882408142,0.5,1]},{"bufferView":39,"componentType":5126,"count":40,"type":"VEC3"},{"bufferView":40,"componentType":5126,"count":40,"type":"VEC2"},{"bufferView":41,"componentType":5123,"count":72,"type":"SCALAR"},{"bufferView":42,"componentType":5126,"count":40,"type":"VEC3","min":[-0.8660253882408142,-0.5,-1],"max":[0.8660253882408142,0.5,1]},{"bufferView":43,"componentType":5126,"count":40,"type":"VEC3"},{"bufferView":44,"componentType":5126,"count":40,"type":"VEC2"}],"extensionsUsed":["KHR_materials_unlit"],"extras":{"id":"vlt-seven-gables-mcmansion-13","family":"seven-gables-mcmansion","variant":12,"plan":"C3-1","units":"metres","up":"+Y","front":"+Z","lodScenes":[0,1,2]}}