{"asset":{"version":"2.0","generator":"SLOPMERICA Department of Unnecessary Development 1.0"},"scene":0,"scenes":[{"name":"LOD 0","nodes":[0,1,2,3,4,5,6,7,8,9,10,11,12,13,14,15,16,17,18,19,20,21,22,23,24,25,26],"extras":{"level":0}},{"name":"LOD 1","nodes":[27,28,29,30,31,32,33,34,35,36,37,38,39,40,41,42,43,44,45,46,47,48,49,50,51,52,53],"extras":{"level":1}},{"name":"LOD 2","nodes":[54,55,56,57,58,59,60,61,62],"extras":{"level":2}}],"nodes":[{"name":"surveyed lot","mesh":0,"translation":[0,0.06,0],"scale":[20.8,0.12,18.72]},{"name":"ferris wheel rim","mesh":1,"translation":[0,5.9,-1],"rotation":[0,0.707107,0,0.707107]},{"name":"wheel spoke 0","mesh":2,"translation":[0,0,0]},{"name":"gondola 0","mesh":3,"translation":[0,5.9,4.1],"scale":[0.75,0.65,0.55]},{"name":"wheel spoke 1","mesh":4,"translation":[0,0,0]},{"name":"wheel spoke 2","mesh":5,"translation":[0,0,0]},{"name":"gondola 2","mesh":6,"translation":[0,10.31673,1.55],"scale":[0.75,0.65,0.55]},{"name":"wheel spoke 3","mesh":7,"translation":[0,0,0]},{"name":"wheel spoke 4","mesh":8,"translation":[0,0,0]},{"name":"gondola 4","mesh":3,"translation":[0,10.31673,-3.55],"scale":[0.75,0.65,0.55]},{"name":"wheel spoke 5","mesh":9,"translation":[0,0,0]},{"name":"wheel spoke 6","mesh":10,"translation":[0,0,0]},{"name":"gondola 6","mesh":6,"translation":[0,5.9,-6.1],"scale":[0.75,0.65,0.55]},{"name":"wheel spoke 7","mesh":11,"translation":[0,0,0]},{"name":"wheel spoke 8","mesh":12,"translation":[0,0,0]},{"name":"gondola 8","mesh":3,"translation":[0,1.48327,-3.55],"scale":[0.75,0.65,0.55]},{"name":"wheel spoke 9","mesh":13,"translation":[0,0,0]},{"name":"wheel spoke 10","mesh":14,"translation":[0,0,0]},{"name":"gondola 10","mesh":6,"translation":[0,1.48327,1.55],"scale":[0.75,0.65,0.55]},{"name":"wheel spoke 11","mesh":15,"translation":[0,0,0]},{"name":"left wheel leg","mesh":16,"translation":[0,0,0]},{"name":"right wheel leg","mesh":17,"translation":[0,0,0]},{"name":"midway booth 0","mesh":18,"translation":[-6,1,6],"scale":[2.1,1.8,2]},{"name":"midway booth 1","mesh":19,"translation":[-3.3,1,6],"scale":[2.1,1.8,2]},{"name":"midway booth 2","mesh":18,"translation":[-0.6,1,6],"scale":[2.1,1.8,2]},{"name":"midway booth 3","mesh":19,"translation":[2.1,1,6],"scale":[2.1,1.8,2]},{"name":"closed tarp","mesh":20,"translation":[-5.2,0.25,2.8],"scale":[4.7,0.12,3.2]},{"name":"surveyed lot","mesh":21,"translation":[0,0.06,0],"scale":[20.8,0.12,18.72]},{"name":"ferris wheel rim","mesh":22,"translation":[0,5.9,-1],"rotation":[0,0.707107,0,0.707107]},{"name":"wheel spoke 0","mesh":23,"translation":[0,0,0]},{"name":"gondola 0","mesh":24,"translation":[0,5.9,4.1],"scale":[0.75,0.65,0.55]},{"name":"wheel spoke 1","mesh":25,"translation":[0,0,0]},{"name":"wheel spoke 2","mesh":26,"translation":[0,0,0]},{"name":"gondola 2","mesh":27,"translation":[0,10.31673,1.55],"scale":[0.75,0.65,0.55]},{"name":"wheel spoke 3","mesh":28,"translation":[0,0,0]},{"name":"wheel spoke 4","mesh":29,"translation":[0,0,0]},{"name":"gondola 4","mesh":24,"translation":[0,10.31673,-3.55],"scale":[0.75,0.65,0.55]},{"name":"wheel spoke 5","mesh":30,"translation":[0,0,0]},{"name":"wheel spoke 6","mesh":31,"translation":[0,0,0]},{"name":"gondola 6","mesh":27,"translation":[0,5.9,-6.1],"scale":[0.75,0.65,0.55]},{"name":"wheel spoke 7","mesh":32,"translation":[0,0,0]},{"name":"wheel spoke 8","mesh":33,"translation":[0,0,0]},{"name":"gondola 8","mesh":24,"translation":[0,1.48327,-3.55],"scale":[0.75,0.65,0.55]},{"name":"wheel spoke 9","mesh":34,"translation":[0,0,0]},{"name":"wheel spoke 10","mesh":35,"translation":[0,0,0]},{"name":"gondola 10","mesh":27,"translation":[0,1.48327,1.55],"scale":[0.75,0.65,0.55]},{"name":"wheel spoke 11","mesh":36,"translation":[0,0,0]},{"name":"left wheel leg","mesh":37,"translation":[0,0,0]},{"name":"right wheel leg","mesh":38,"translation":[0,0,0]},{"name":"midway booth 0","mesh":39,"translation":[-6,1,6],"scale":[2.1,1.8,2]},{"name":"midway booth 1","mesh":40,"translation":[-3.3,1,6],"scale":[2.1,1.8,2]},{"name":"midway booth 2","mesh":39,"translation":[-0.6,1,6],"scale":[2.1,1.8,2]},{"name":"midway booth 3","mesh":40,"translation":[2.1,1,6],"scale":[2.1,1.8,2]},{"name":"closed tarp","mesh":41,"translation":[-5.2,0.25,2.8],"scale":[4.7,0.12,3.2]},{"name":"surveyed lot","mesh":21,"translation":[0,0.06,0],"scale":[20.8,0.12,18.72]},{"name":"ferris wheel rim","mesh":42,"translation":[0,5.9,-1],"rotation":[0,0.707107,0,0.707107]},{"name":"wheel spoke 0","mesh":43,"translation":[0,0,0]},{"name":"wheel spoke 1","mesh":44,"translation":[0,0,0]},{"name":"wheel spoke 2","mesh":45,"translation":[0,0,0]},{"name":"wheel spoke 3","mesh":46,"translation":[0,0,0]},{"name":"left wheel leg","mesh":47,"translation":[0,0,0]},{"name":"right wheel leg","mesh":48,"translation":[0,0,0]},{"name":"closed tarp","mesh":41,"translation":[-5.2,0.25,2.8],"scale":[4.7,0.12,3.2]}],"meshes":[{"primitives":[{"attributes":{"POSITION":0,"NORMAL":1,"TEXCOORD_0":2},"material":0,"mode":4}]},{"primitives":[{"attributes":{"POSITION":3,"NORMAL":4,"TEXCOORD_0":5},"material":1,"mode":4,"indices":6}]},{"primitives":[{"attributes":{"POSITION":7,"NORMAL":8,"TEXCOORD_0":9},"material":2,"mode":4,"indices":10}]},{"primitives":[{"attributes":{"POSITION":0,"NORMAL":1,"TEXCOORD_0":11},"material":3,"mode":4}]},{"primitives":[{"attributes":{"POSITION":12,"NORMAL":13,"TEXCOORD_0":9},"material":2,"mode":4,"indices":10}]},{"primitives":[{"attributes":{"POSITION":14,"NORMAL":15,"TEXCOORD_0":9},"material":2,"mode":4,"indices":10}]},{"primitives":[{"attributes":{"POSITION":0,"NORMAL":1,"TEXCOORD_0":11},"material":4,"mode":4}]},{"primitives":[{"attributes":{"POSITION":16,"NORMAL":17,"TEXCOORD_0":9},"material":2,"mode":4,"indices":10}]},{"primitives":[{"attributes":{"POSITION":18,"NORMAL":19,"TEXCOORD_0":9},"material":2,"mode":4,"indices":10}]},{"primitives":[{"attributes":{"POSITION":20,"NORMAL":21,"TEXCOORD_0":9},"material":2,"mode":4,"indices":10}]},{"primitives":[{"attributes":{"POSITION":22,"NORMAL":23,"TEXCOORD_0":9},"material":2,"mode":4,"indices":10}]},{"primitives":[{"attributes":{"POSITION":24,"NORMAL":25,"TEXCOORD_0":9},"material":2,"mode":4,"indices":10}]},{"primitives":[{"attributes":{"POSITION":26,"NORMAL":27,"TEXCOORD_0":9},"material":2,"mode":4,"indices":10}]},{"primitives":[{"attributes":{"POSITION":28,"NORMAL":29,"TEXCOORD_0":9},"material":2,"mode":4,"indices":10}]},{"primitives":[{"attributes":{"POSITION":30,"NORMAL":31,"TEXCOORD_0":9},"material":2,"mode":4,"indices":10}]},{"primitives":[{"attributes":{"POSITION":32,"NORMAL":33,"TEXCOORD_0":9},"material":2,"mode":4,"indices":10}]},{"primitives":[{"attributes":{"POSITION":34,"NORMAL":35,"TEXCOORD_0":36},"material":1,"mode":4,"indices":10}]},{"primitives":[{"attributes":{"POSITION":37,"NORMAL":38,"TEXCOORD_0":36},"material":1,"mode":4,"indices":10}]},{"primitives":[{"attributes":{"POSITION":0,"NORMAL":1,"TEXCOORD_0":39},"material":4,"mode":4}]},{"primitives":[{"attributes":{"POSITION":0,"NORMAL":1,"TEXCOORD_0":39},"material":3,"mode":4}]},{"primitives":[{"attributes":{"POSITION":0,"NORMAL":1,"TEXCOORD_0":40},"material":5,"mode":4}]},{"primitives":[{"attributes":{"POSITION":41,"NORMAL":42,"TEXCOORD_0":43},"material":0,"mode":4,"indices":44}]},{"primitives":[{"attributes":{"POSITION":45,"NORMAL":46,"TEXCOORD_0":47},"material":1,"mode":4,"indices":48}]},{"primitives":[{"attributes":{"POSITION":49,"NORMAL":50,"TEXCOORD_0":51},"material":2,"mode":4,"indices":52}]},{"primitives":[{"attributes":{"POSITION":41,"NORMAL":42,"TEXCOORD_0":53},"material":3,"mode":4,"indices":44}]},{"primitives":[{"attributes":{"POSITION":54,"NORMAL":55,"TEXCOORD_0":51},"material":2,"mode":4,"indices":52}]},{"primitives":[{"attributes":{"POSITION":56,"NORMAL":57,"TEXCOORD_0":51},"material":2,"mode":4,"indices":52}]},{"primitives":[{"attributes":{"POSITION":41,"NORMAL":42,"TEXCOORD_0":53},"material":4,"mode":4,"indices":44}]},{"primitives":[{"attributes":{"POSITION":58,"NORMAL":59,"TEXCOORD_0":51},"material":2,"mode":4,"indices":52}]},{"primitives":[{"attributes":{"POSITION":60,"NORMAL":61,"TEXCOORD_0":51},"material":2,"mode":4,"indices":52}]},{"primitives":[{"attributes":{"POSITION":62,"NORMAL":63,"TEXCOORD_0":51},"material":2,"mode":4,"indices":52}]},{"primitives":[{"attributes":{"POSITION":64,"NORMAL":65,"TEXCOORD_0":51},"material":2,"mode":4,"indices":52}]},{"primitives":[{"attributes":{"POSITION":66,"NORMAL":67,"TEXCOORD_0":51},"material":2,"mode":4,"indices":52}]},{"primitives":[{"attributes":{"POSITION":68,"NORMAL":69,"TEXCOORD_0":51},"material":2,"mode":4,"indices":52}]},{"primitives":[{"attributes":{"POSITION":70,"NORMAL":71,"TEXCOORD_0":51},"material":2,"mode":4,"indices":52}]},{"primitives":[{"attributes":{"POSITION":72,"NORMAL":73,"TEXCOORD_0":51},"material":2,"mode":4,"indices":52}]},{"primitives":[{"attributes":{"POSITION":74,"NORMAL":75,"TEXCOORD_0":51},"material":2,"mode":4,"indices":52}]},{"primitives":[{"attributes":{"POSITION":76,"NORMAL":77,"TEXCOORD_0":78},"material":1,"mode":4,"indices":52}]},{"primitives":[{"attributes":{"POSITION":79,"NORMAL":80,"TEXCOORD_0":78},"material":1,"mode":4,"indices":52}]},{"primitives":[{"attributes":{"POSITION":41,"NORMAL":42,"TEXCOORD_0":81},"material":4,"mode":4,"indices":44}]},{"primitives":[{"attributes":{"POSITION":41,"NORMAL":42,"TEXCOORD_0":81},"material":3,"mode":4,"indices":44}]},{"primitives":[{"attributes":{"POSITION":41,"NORMAL":42,"TEXCOORD_0":82},"material":5,"mode":4,"indices":44}]},{"primitives":[{"attributes":{"POSITION":83,"NORMAL":84,"TEXCOORD_0":85},"material":1,"mode":4,"indices":86}]},{"primitives":[{"attributes":{"POSITION":87,"NORMAL":88,"TEXCOORD_0":89},"material":2,"mode":4,"indices":90}]},{"primitives":[{"attributes":{"POSITION":91,"NORMAL":92,"TEXCOORD_0":89},"material":2,"mode":4,"indices":90}]},{"primitives":[{"attributes":{"POSITION":93,"NORMAL":94,"TEXCOORD_0":89},"material":2,"mode":4,"indices":90}]},{"primitives":[{"attributes":{"POSITION":95,"NORMAL":96,"TEXCOORD_0":89},"material":2,"mode":4,"indices":90}]},{"primitives":[{"attributes":{"POSITION":97,"NORMAL":98,"TEXCOORD_0":99},"material":1,"mode":4,"indices":90}]},{"primitives":[{"attributes":{"POSITION":100,"NORMAL":101,"TEXCOORD_0":99},"material":1,"mode":4,"indices":90}]}],"materials":[{"name":"concrete","pbrMetallicRoughness":{"baseColorTexture":{"index":0},"metallicRoughnessTexture":{"index":2},"roughnessFactor":1,"metallicFactor":1},"normalTexture":{"index":1,"scale":0.82},"occlusionTexture":{"index":2,"strength":0.35}},{"name":"metal-dark","pbrMetallicRoughness":{"baseColorTexture":{"index":3},"metallicRoughnessTexture":{"index":5},"roughnessFactor":1,"metallicFactor":1},"normalTexture":{"index":4,"scale":0.35},"occlusionTexture":{"index":5,"strength":0.35}},{"name":"metal-galvanized","pbrMetallicRoughness":{"baseColorTexture":{"index":6},"metallicRoughnessTexture":{"index":8},"roughnessFactor":1,"metallicFactor":1},"normalTexture":{"index":7,"scale":0.15},"occlusionTexture":{"index":8,"strength":0.35}},{"name":"paint-red","pbrMetallicRoughness":{"baseColorFactor":[0.46778379610254284,0.08021982030622662,0.05126945836711539,1],"roughnessFactor":0.62,"metallicFactor":0.05}},{"name":"paint-yellow","pbrMetallicRoughness":{"baseColorFactor":[0.76052450467022,0.4793201830913402,0.07818742179702069,1],"roughnessFactor":0.66,"metallicFactor":0.03}},{"name":"paint-blue","pbrMetallicRoughness":{"baseColorFactor":[0.05126945836711539,0.10946171076915331,0.22696587349938613,1],"roughnessFactor":0.58,"metallicFactor":0.05}}],"textures":[{"source":0,"sampler":0},{"source":1,"sampler":0},{"source":2,"sampler":0},{"source":3,"sampler":0},{"source":4,"sampler":0},{"source":5,"sampler":0},{"source":6,"sampler":0},{"source":7,"sampler":0},{"source":8,"sampler":0}],"images":[{"uri":"../textures/concrete-albedo.png"},{"uri":"../textures/concrete-normal.png"},{"uri":"../textures/concrete-orm.png"},{"uri":"../textures/metal-dark-albedo.png"},{"uri":"../textures/metal-dark-normal.png"},{"uri":"../textures/metal-dark-orm.png"},{"uri":"../textures/metal-galvanized-albedo.png"},{"uri":"../textures/metal-galvanized-normal.png"},{"uri":"../textures/metal-galvanized-orm.png"}],"samplers":[{"magFilter":9729,"minFilter":9987,"wrapS":10497,"wrapT":10497}],"buffers":[{"uri":"../shared/geometry.bin","byteLength":16435520}],"bufferViews":[{"buffer":0,"byteOffset":0,"byteLength":3888,"target":34962},{"buffer":0,"byteOffset":3888,"byteLength":3888,"target":34962},{"buffer":0,"byteOffset":3122804,"byteLength":2592,"target":34962},{"buffer":0,"byteOffset":2912732,"byteLength":3132,"target":34962},{"buffer":0,"byteOffset":390704,"byteLength":3132,"target":34962},{"buffer":0,"byteOffset":2835332,"byteLength":2088,"target":34962},{"buffer":0,"byteOffset":395924,"byteLength":2688,"target":34963},{"buffer":0,"byteOffset":2915864,"byteLength":972,"target":34962},{"buffer":0,"byteOffset":2838392,"byteLength":972,"target":34962},{"buffer":0,"byteOffset":409952,"byteLength":648,"target":34962},{"buffer":0,"byteOffset":410600,"byteLength":768,"target":34963},{"buffer":0,"byteOffset":2839364,"byteLength":2592,"target":34962},{"buffer":0,"byteOffset":3125396,"byteLength":972,"target":34962},{"buffer":0,"byteOffset":3085448,"byteLength":972,"target":34962},{"buffer":0,"byteOffset":3126368,"byteLength":972,"target":34962},{"buffer":0,"byteOffset":3087392,"byteLength":972,"target":34962},{"buffer":0,"byteOffset":2917808,"byteLength":972,"target":34962},{"buffer":0,"byteOffset":2918780,"byteLength":972,"target":34962},{"buffer":0,"byteOffset":3127340,"byteLength":972,"target":34962},{"buffer":0,"byteOffset":3089336,"byteLength":972,"target":34962},{"buffer":0,"byteOffset":3128312,"byteLength":972,"target":34962},{"buffer":0,"byteOffset":3091280,"byteLength":972,"target":34962},{"buffer":0,"byteOffset":2920724,"byteLength":972,"target":34962},{"buffer":0,"byteOffset":2921696,"byteLength":972,"target":34962},{"buffer":0,"byteOffset":3129284,"byteLength":972,"target":34962},{"buffer":0,"byteOffset":3093224,"byteLength":972,"target":34962},{"buffer":0,"byteOffset":3130256,"byteLength":972,"target":34962},{"buffer":0,"byteOffset":3095168,"byteLength":972,"target":34962},{"buffer":0,"byteOffset":2923640,"byteLength":972,"target":34962},{"buffer":0,"byteOffset":2924612,"byteLength":972,"target":34962},{"buffer":0,"byteOffset":3131228,"byteLength":972,"target":34962},{"buffer":0,"byteOffset":3097112,"byteLength":972,"target":34962},{"buffer":0,"byteOffset":3132200,"byteLength":972,"target":34962},{"buffer":0,"byteOffset":3099056,"byteLength":972,"target":34962},{"buffer":0,"byteOffset":2926556,"byteLength":972,"target":34962},{"buffer":0,"byteOffset":2927528,"byteLength":972,"target":34962},{"buffer":0,"byteOffset":2857508,"byteLength":648,"target":34962},{"buffer":0,"byteOffset":2928500,"byteLength":972,"target":34962},{"buffer":0,"byteOffset":2929472,"byteLength":972,"target":34962},{"buffer":0,"byteOffset":2860100,"byteLength":2592,"target":34962},{"buffer":0,"byteOffset":3289424,"byteLength":2592,"target":34962},{"buffer":0,"byteOffset":46644,"byteLength":288,"target":34962},{"buffer":0,"byteOffset":45952,"byteLength":288,"target":34962},{"buffer":0,"byteOffset":3133172,"byteLength":192,"target":34962},{"buffer":0,"byteOffset":46432,"byteLength":72,"target":34963},{"buffer":0,"byteOffset":2930636,"byteLength":1428,"target":34962},{"buffer":0,"byteOffset":427996,"byteLength":1428,"target":34962},{"buffer":0,"byteOffset":2864312,"byteLength":952,"target":34962},{"buffer":0,"byteOffset":430376,"byteLength":1152,"target":34963},{"buffer":0,"byteOffset":2932064,"byteLength":420,"target":34962},{"buffer":0,"byteOffset":2865684,"byteLength":420,"target":34962},{"buffer":0,"byteOffset":433796,"byteLength":280,"target":34962},{"buffer":0,"byteOffset":434076,"byteLength":288,"target":34963},{"buffer":0,"byteOffset":2866104,"byteLength":192,"target":34962},{"buffer":0,"byteOffset":3133364,"byteLength":420,"target":34962},{"buffer":0,"byteOffset":3100640,"byteLength":420,"target":34962},{"buffer":0,"byteOffset":3133784,"byteLength":420,"target":34962},{"buffer":0,"byteOffset":3101480,"byteLength":420,"target":34962},{"buffer":0,"byteOffset":2932904,"byteLength":420,"target":34962},{"buffer":0,"byteOffset":2933324,"byteLength":420,"target":34962},{"buffer":0,"byteOffset":3134204,"byteLength":420,"target":34962},{"buffer":0,"byteOffset":3102320,"byteLength":420,"target":34962},{"buffer":0,"byteOffset":3134624,"byteLength":420,"target":34962},{"buffer":0,"byteOffset":3103160,"byteLength":420,"target":34962},{"buffer":0,"byteOffset":2934164,"byteLength":420,"target":34962},{"buffer":0,"byteOffset":2934584,"byteLength":420,"target":34962},{"buffer":0,"byteOffset":3135044,"byteLength":420,"target":34962},{"buffer":0,"byteOffset":3104000,"byteLength":420,"target":34962},{"buffer":0,"byteOffset":3135464,"byteLength":420,"target":34962},{"buffer":0,"byteOffset":3104840,"byteLength":420,"target":34962},{"buffer":0,"byteOffset":2935424,"byteLength":420,"target":34962},{"buffer":0,"byteOffset":2870916,"byteLength":420,"target":34962},{"buffer":0,"byteOffset":3135884,"byteLength":420,"target":34962},{"buffer":0,"byteOffset":3105680,"byteLength":420,"target":34962},{"buffer":0,"byteOffset":3136304,"byteLength":420,"target":34962},{"buffer":0,"byteOffset":3106520,"byteLength":420,"target":34962},{"buffer":0,"byteOffset":2936264,"byteLength":420,"target":34962},{"buffer":0,"byteOffset":2936684,"byteLength":420,"target":34962},{"buffer":0,"byteOffset":2873016,"byteLength":280,"target":34962},{"buffer":0,"byteOffset":2937104,"byteLength":420,"target":34962},{"buffer":0,"byteOffset":2937524,"byteLength":420,"target":34962},{"buffer":0,"byteOffset":2874136,"byteLength":192,"target":34962},{"buffer":0,"byteOffset":3292016,"byteLength":192,"target":34962},{"buffer":0,"byteOffset":2937944,"byteLength":660,"target":34962},{"buffer":0,"byteOffset":437788,"byteLength":660,"target":34962},{"buffer":0,"byteOffset":2874988,"byteLength":440,"target":34962},{"buffer":0,"byteOffset":438888,"byteLength":480,"target":34963},{"buffer":0,"byteOffset":2938604,"byteLength":300,"target":34962},{"buffer":0,"byteOffset":2875728,"byteLength":300,"target":34962},{"buffer":0,"byteOffset":439968,"byteLength":200,"target":34962},{"buffer":0,"byteOffset":440168,"byteLength":192,"target":34963},{"buffer":0,"byteOffset":2938904,"byteLength":300,"target":34962},{"buffer":0,"byteOffset":2939204,"byteLength":300,"target":34962},{"buffer":0,"byteOffset":2939504,"byteLength":300,"target":34962},{"buffer":0,"byteOffset":2939804,"byteLength":300,"target":34962},{"buffer":0,"byteOffset":2940104,"byteLength":300,"target":34962},{"buffer":0,"byteOffset":2877528,"byteLength":300,"target":34962},{"buffer":0,"byteOffset":2940404,"byteLength":300,"target":34962},{"buffer":0,"byteOffset":2940704,"byteLength":300,"target":34962},{"buffer":0,"byteOffset":2878428,"byteLength":200,"target":34962},{"buffer":0,"byteOffset":2941004,"byteLength":300,"target":34962},{"buffer":0,"byteOffset":2941304,"byteLength":300,"target":34962}],"accessors":[{"bufferView":0,"componentType":5126,"count":324,"type":"VEC3","min":[-0.5,-0.5,-0.5],"max":[0.5,0.5,0.5]},{"bufferView":1,"componentType":5126,"count":324,"type":"VEC3"},{"bufferView":2,"componentType":5126,"count":324,"type":"VEC2"},{"bufferView":3,"componentType":5126,"count":261,"type":"VEC3","min":[-5.28000020980835,-5.28000020980835,-0.18000000715255737],"max":[5.28000020980835,5.28000020980835,0.18000000715255737]},{"bufferView":4,"componentType":5126,"count":261,"type":"VEC3"},{"bufferView":5,"componentType":5126,"count":261,"type":"VEC2"},{"bufferView":6,"componentType":5123,"count":1344,"type":"SCALAR"},{"bufferView":7,"componentType":5126,"count":81,"type":"VEC3","min":[-0.054999999701976776,5.84499979019165,-1],"max":[0.054999999701976776,5.954999923706055,4.099999904632568]},{"bufferView":8,"componentType":5126,"count":81,"type":"VEC3"},{"bufferView":9,"componentType":5126,"count":81,"type":"VEC2"},{"bufferView":10,"componentType":5123,"count":384,"type":"SCALAR"},{"bufferView":11,"componentType":5126,"count":324,"type":"VEC2"},{"bufferView":12,"componentType":5126,"count":81,"type":"VEC3","min":[-0.054999999701976776,5.8523688316345215,-1.027500033378601],"max":[0.054999999701976776,8.497631072998047,3.4442296028137207]},{"bufferView":13,"componentType":5126,"count":81,"type":"VEC3"},{"bufferView":14,"componentType":5126,"count":81,"type":"VEC3","min":[-0.054999999701976776,5.872499942779541,-1.0476313829421997],"max":[0.054999999701976776,10.344229698181152,1.5976314544677734]},{"bufferView":15,"componentType":5126,"count":81,"type":"VEC3"},{"bufferView":16,"componentType":5126,"count":81,"type":"VEC3","min":[-0.054999999701976776,5.900000095367432,-1.0549999475479126],"max":[0.054999999701976776,11,-0.9449999928474426]},{"bufferView":17,"componentType":5126,"count":81,"type":"VEC3"},{"bufferView":18,"componentType":5126,"count":81,"type":"VEC3","min":[-0.054999999701976776,5.872499942779541,-3.5976314544677734],"max":[0.054999999701976776,10.344229698181152,-0.9523686170578003]},{"bufferView":19,"componentType":5126,"count":81,"type":"VEC3"},{"bufferView":20,"componentType":5126,"count":81,"type":"VEC3","min":[-0.054999999701976776,5.8523688316345215,-5.444229602813721],"max":[0.054999999701976776,8.497631072998047,-0.9725000262260437]},{"bufferView":21,"componentType":5126,"count":81,"type":"VEC3"},{"bufferView":22,"componentType":5126,"count":81,"type":"VEC3","min":[-0.054999999701976776,5.84499979019165,-6.099999904632568],"max":[0.054999999701976776,5.954999923706055,-1]},{"bufferView":23,"componentType":5126,"count":81,"type":"VEC3"},{"bufferView":24,"componentType":5126,"count":81,"type":"VEC3","min":[-0.054999999701976776,3.302368640899658,-5.444229602813721],"max":[0.054999999701976776,5.947631359100342,-0.9725000262260437]},{"bufferView":25,"componentType":5126,"count":81,"type":"VEC3"},{"bufferView":26,"componentType":5126,"count":81,"type":"VEC3","min":[-0.054999999701976776,1.455770492553711,-3.5976314544677734],"max":[0.054999999701976776,5.927499771118164,-0.9523686170578003]},{"bufferView":27,"componentType":5126,"count":81,"type":"VEC3"},{"bufferView":28,"componentType":5126,"count":81,"type":"VEC3","min":[-0.054999999701976776,0.800000011920929,-1.0549999475479126],"max":[0.054999999701976776,5.900000095367432,-0.9449999928474426]},{"bufferView":29,"componentType":5126,"count":81,"type":"VEC3"},{"bufferView":30,"componentType":5126,"count":81,"type":"VEC3","min":[-0.054999999701976776,1.455770492553711,-1.0476313829421997],"max":[0.054999999701976776,5.927499771118164,1.5976314544677734]},{"bufferView":31,"componentType":5126,"count":81,"type":"VEC3"},{"bufferView":32,"componentType":5126,"count":81,"type":"VEC3","min":[-0.054999999701976776,3.302368640899658,-1.027500033378601],"max":[0.054999999701976776,5.947631359100342,3.4442296028137207]},{"bufferView":33,"componentType":5126,"count":81,"type":"VEC3"},{"bufferView":34,"componentType":5126,"count":81,"type":"VEC3","min":[-3.5717639923095703,0.0975443422794342,-1.2000000476837158],"max":[0.17176389694213867,6.002455711364746,-0.800000011920929]},{"bufferView":35,"componentType":5126,"count":81,"type":"VEC3"},{"bufferView":36,"componentType":5126,"count":81,"type":"VEC2"},{"bufferView":37,"componentType":5126,"count":81,"type":"VEC3","min":[-0.17176389694213867,0.0975443422794342,-1.2000000476837158],"max":[3.5717639923095703,6.002455711364746,-0.800000011920929]},{"bufferView":38,"componentType":5126,"count":81,"type":"VEC3"},{"bufferView":39,"componentType":5126,"count":324,"type":"VEC2"},{"bufferView":40,"componentType":5126,"count":324,"type":"VEC2"},{"bufferView":41,"componentType":5126,"count":24,"type":"VEC3","min":[-0.5,-0.5,-0.5],"max":[0.5,0.5,0.5]},{"bufferView":42,"componentType":5126,"count":24,"type":"VEC3"},{"bufferView":43,"componentType":5126,"count":24,"type":"VEC2"},{"bufferView":44,"componentType":5123,"count":36,"type":"SCALAR"},{"bufferView":45,"componentType":5126,"count":119,"type":"VEC3","min":[-5.28000020980835,-5.28000020980835,-0.15588457882404327],"max":[5.28000020980835,5.28000020980835,0.15588457882404327]},{"bufferView":46,"componentType":5126,"count":119,"type":"VEC3"},{"bufferView":47,"componentType":5126,"count":119,"type":"VEC2"},{"bufferView":48,"componentType":5123,"count":576,"type":"SCALAR"},{"bufferView":49,"componentType":5126,"count":35,"type":"VEC3","min":[-0.0476313978433609,5.84499979019165,-1],"max":[0.0476313978433609,5.954999923706055,4.099999904632568]},{"bufferView":50,"componentType":5126,"count":35,"type":"VEC3"},{"bufferView":51,"componentType":5126,"count":35,"type":"VEC2"},{"bufferView":52,"componentType":5123,"count":144,"type":"SCALAR"},{"bufferView":53,"componentType":5126,"count":24,"type":"VEC2"},{"bufferView":54,"componentType":5126,"count":35,"type":"VEC3","min":[-0.054999999701976776,5.858749866485596,-1.0238157510757446],"max":[0.054999999701976776,8.491250038146973,3.4405453205108643]},{"bufferView":55,"componentType":5126,"count":35,"type":"VEC3"},{"bufferView":56,"componentType":5126,"count":35,"type":"VEC3","min":[-0.054999999701976776,5.876184463500977,-1.0412499904632568],"max":[0.054999999701976776,10.340545654296875,1.591249942779541]},{"bufferView":57,"componentType":5126,"count":35,"type":"VEC3"},{"bufferView":58,"componentType":5126,"count":35,"type":"VEC3","min":[-0.0476313978433609,5.900000095367432,-1.0549999475479126],"max":[0.0476313978433609,11,-0.9449999928474426]},{"bufferView":59,"componentType":5126,"count":35,"type":"VEC3"},{"bufferView":60,"componentType":5126,"count":35,"type":"VEC3","min":[-0.054999999701976776,5.876184463500977,-3.591249942779541],"max":[0.054999999701976776,10.340545654296875,-0.9587500095367432]},{"bufferView":61,"componentType":5126,"count":35,"type":"VEC3"},{"bufferView":62,"componentType":5126,"count":35,"type":"VEC3","min":[-0.054999999701976776,5.858749866485596,-5.440545082092285],"max":[0.054999999701976776,8.491250038146973,-0.9761843085289001]},{"bufferView":63,"componentType":5126,"count":35,"type":"VEC3"},{"bufferView":64,"componentType":5126,"count":35,"type":"VEC3","min":[-0.0476313978433609,5.84499979019165,-6.099999904632568],"max":[0.0476313978433609,5.954999923706055,-1]},{"bufferView":65,"componentType":5126,"count":35,"type":"VEC3"},{"bufferView":66,"componentType":5126,"count":35,"type":"VEC3","min":[-0.054999999701976776,3.3087499141693115,-5.440545082092285],"max":[0.054999999701976776,5.941249847412109,-0.9761843085289001]},{"bufferView":67,"componentType":5126,"count":35,"type":"VEC3"},{"bufferView":68,"componentType":5126,"count":35,"type":"VEC3","min":[-0.054999999701976776,1.4594547748565674,-3.591249942779541],"max":[0.054999999701976776,5.923815727233887,-0.9587500095367432]},{"bufferView":69,"componentType":5126,"count":35,"type":"VEC3"},{"bufferView":70,"componentType":5126,"count":35,"type":"VEC3","min":[-0.0476313978433609,0.800000011920929,-1.0549999475479126],"max":[0.0476313978433609,5.900000095367432,-0.9449999928474426]},{"bufferView":71,"componentType":5126,"count":35,"type":"VEC3"},{"bufferView":72,"componentType":5126,"count":35,"type":"VEC3","min":[-0.054999999701976776,1.4594547748565674,-1.0412499904632568],"max":[0.054999999701976776,5.923815727233887,1.591249942779541]},{"bufferView":73,"componentType":5126,"count":35,"type":"VEC3"},{"bufferView":74,"componentType":5126,"count":35,"type":"VEC3","min":[-0.054999999701976776,3.3087499141693115,-1.0238157510757446],"max":[0.054999999701976776,5.941249847412109,3.4405453205108643]},{"bufferView":75,"componentType":5126,"count":35,"type":"VEC3"},{"bufferView":76,"componentType":5126,"count":35,"type":"VEC3","min":[-3.5487518310546875,0.11127079278230667,-1.2000000476837158],"max":[0.148751899600029,5.988729000091553,-0.800000011920929]},{"bufferView":77,"componentType":5126,"count":35,"type":"VEC3"},{"bufferView":78,"componentType":5126,"count":35,"type":"VEC2"},{"bufferView":79,"componentType":5126,"count":35,"type":"VEC3","min":[-0.148751899600029,0.11127079278230667,-1.2000000476837158],"max":[3.5487518310546875,5.988729000091553,-0.800000011920929]},{"bufferView":80,"componentType":5126,"count":35,"type":"VEC3"},{"bufferView":81,"componentType":5126,"count":24,"type":"VEC2"},{"bufferView":82,"componentType":5126,"count":24,"type":"VEC2"},{"bufferView":83,"componentType":5126,"count":55,"type":"VEC3","min":[-5.28000020980835,-5.021578311920166,-0.18000000715255737],"max":[5.28000020980835,5.021578311920166,0.18000000715255737]},{"bufferView":84,"componentType":5126,"count":55,"type":"VEC3"},{"bufferView":85,"componentType":5126,"count":55,"type":"VEC2"},{"bufferView":86,"componentType":5123,"count":240,"type":"SCALAR"},{"bufferView":87,"componentType":5126,"count":25,"type":"VEC3","min":[-0.054999999701976776,5.84499979019165,-1],"max":[0.054999999701976776,5.954999923706055,4.099999904632568]},{"bufferView":88,"componentType":5126,"count":25,"type":"VEC3"},{"bufferView":89,"componentType":5126,"count":25,"type":"VEC2"},{"bufferView":90,"componentType":5123,"count":96,"type":"SCALAR"},{"bufferView":91,"componentType":5126,"count":25,"type":"VEC3","min":[-0.054999999701976776,5.900000095367432,-1.0549999475479126],"max":[0.054999999701976776,11,-0.9449999928474426]},{"bufferView":92,"componentType":5126,"count":25,"type":"VEC3"},{"bufferView":93,"componentType":5126,"count":25,"type":"VEC3","min":[-0.054999999701976776,5.84499979019165,-6.099999904632568],"max":[0.054999999701976776,5.954999923706055,-1]},{"bufferView":94,"componentType":5126,"count":25,"type":"VEC3"},{"bufferView":95,"componentType":5126,"count":25,"type":"VEC3","min":[-0.054999999701976776,0.800000011920929,-1.0549999475479126],"max":[0.054999999701976776,5.900000095367432,-0.9449999928474426]},{"bufferView":96,"componentType":5126,"count":25,"type":"VEC3"},{"bufferView":97,"componentType":5126,"count":25,"type":"VEC3","min":[-3.5717639923095703,0.0975443422794342,-1.2000000476837158],"max":[0.17176389694213867,6.002455711364746,-0.800000011920929]},{"bufferView":98,"componentType":5126,"count":25,"type":"VEC3"},{"bufferView":99,"componentType":5126,"count":25,"type":"VEC2"},{"bufferView":100,"componentType":5126,"count":25,"type":"VEC3","min":[-0.17176389694213867,0.0975443422794342,-1.2000000476837158],"max":[3.5717639923095703,6.002455711364746,-0.800000011920929]},{"bufferView":101,"componentType":5126,"count":25,"type":"VEC3"}],"extensionsUsed":["KHR_materials_unlit"],"extras":{"id":"vlt-county-fair-midway-33","family":"county-fair-midway","variant":32,"plan":"C3-2","units":"metres","up":"+Y","front":"+Z","lodScenes":[0,1,2]}}