{"asset":{"version":"2.0","generator":"SLOPMERICA Department of Unnecessary Development 1.0"},"scene":0,"scenes":[{"name":"LOD 0","nodes":[0,1,2,3,4,5,6,7,8,9,10,11,12,13,14,15,16,17,18,19],"extras":{"level":0}},{"name":"LOD 1","nodes":[20,21,22,23,24,25,26,27,28,29,30,31,32,33,34,35],"extras":{"level":1}},{"name":"LOD 2","nodes":[36,37,38,39,40,41,42,43,44,45,46,47],"extras":{"level":2}}],"nodes":[{"name":"foundation","mesh":0,"translation":[0,0.08,0],"scale":[24.6,0.16,12.32]},{"name":"store-a","mesh":1,"translation":[-5.95,2.5375,0],"scale":[10.304,5.075,10.12]},{"name":"store-b","mesh":2,"translation":[5.95,2.18225,0],"scale":[10.304,4.3645,10.12]},{"name":"sign-a-back","mesh":3,"translation":[-5.95,3.654,5.18],"scale":[7.716,1.15,1]},{"name":"sign-a","mesh":4,"translation":[-5.95,3.654,5.209],"scale":[7.616,1.05,1]},{"name":"sign-b-back","mesh":3,"translation":[5.95,3.40025,5.18],"scale":[7.716,1.15,1]},{"name":"sign-b","mesh":4,"translation":[5.95,3.40025,5.209],"scale":[7.616,1.05,1]},{"name":"giant-mattress","mesh":5,"translation":[0,5.525,-1.2144],"rotation":[0.033099,-0.111877,0.055172,0.991637],"scale":[9.408,0.7,2.8336]},{"name":"busy-state-queue-bar","mesh":6,"translation":[0,0.65,6.3756],"scale":[16.128,0.12,0.12]},{"name":"queue-car-0","mesh":7,"translation":[-6.72,0.34,7.084],"scale":[1.35,0.65,0.7]},{"name":"queue-car-1","mesh":8,"translation":[-3.36,0.34,7.8936],"scale":[1.35,0.65,0.7]},{"name":"queue-car-2","mesh":7,"translation":[0,0.34,7.084],"scale":[1.35,0.65,0.7]},{"name":"queue-car-3","mesh":8,"translation":[3.36,0.34,7.8936],"scale":[1.35,0.65,0.7]},{"name":"queue-car-4","mesh":7,"translation":[6.72,0.34,7.084],"scale":[1.35,0.65,0.7]},{"name":"busy-state-queue-bar","mesh":6,"translation":[0,0.65,6.3756],"scale":[16.128,0.12,0.12]},{"name":"queue-car-0","mesh":7,"translation":[-6.72,0.34,7.084],"scale":[1.35,0.65,0.7]},{"name":"queue-car-1","mesh":8,"translation":[-3.36,0.34,7.8936],"scale":[1.35,0.65,0.7]},{"name":"queue-car-2","mesh":7,"translation":[0,0.34,7.084],"scale":[1.35,0.65,0.7]},{"name":"queue-car-3","mesh":8,"translation":[3.36,0.34,7.8936],"scale":[1.35,0.65,0.7]},{"name":"queue-car-4","mesh":7,"translation":[6.72,0.34,7.084],"scale":[1.35,0.65,0.7]},{"name":"foundation","mesh":9,"translation":[0,0.08,0],"scale":[24.6,0.16,12.32]},{"name":"store-a","mesh":10,"translation":[-5.95,2.5375,0],"scale":[10.304,5.075,10.12]},{"name":"store-b","mesh":11,"translation":[5.95,2.18225,0],"scale":[10.304,4.3645,10.12]},{"name":"sign-a-back","mesh":3,"translation":[-5.95,3.654,5.18],"scale":[7.716,1.15,1]},{"name":"sign-a","mesh":4,"translation":[-5.95,3.654,5.209],"scale":[7.616,1.05,1]},{"name":"sign-b-back","mesh":3,"translation":[5.95,3.40025,5.18],"scale":[7.716,1.15,1]},{"name":"sign-b","mesh":4,"translation":[5.95,3.40025,5.209],"scale":[7.616,1.05,1]},{"name":"giant-mattress","mesh":12,"translation":[0,5.525,-1.2144],"rotation":[0.033099,-0.111877,0.055172,0.991637],"scale":[9.408,0.7,2.8336]},{"name":"busy-state-queue-bar","mesh":13,"translation":[0,0.65,6.3756],"scale":[16.128,0.12,0.12]},{"name":"queue-car-0","mesh":14,"translation":[-6.72,0.34,7.084],"scale":[1.35,0.65,0.7]},{"name":"queue-car-1","mesh":15,"translation":[-3.36,0.34,7.8936],"scale":[1.35,0.65,0.7]},{"name":"queue-car-2","mesh":14,"translation":[0,0.34,7.084],"scale":[1.35,0.65,0.7]},{"name":"busy-state-queue-bar","mesh":13,"translation":[0,0.65,6.3756],"scale":[16.128,0.12,0.12]},{"name":"queue-car-0","mesh":14,"translation":[-6.72,0.34,7.084],"scale":[1.35,0.65,0.7]},{"name":"queue-car-1","mesh":15,"translation":[-3.36,0.34,7.8936],"scale":[1.35,0.65,0.7]},{"name":"queue-car-2","mesh":14,"translation":[0,0.34,7.084],"scale":[1.35,0.65,0.7]},{"name":"foundation","mesh":9,"translation":[0,0.08,0],"scale":[24.6,0.16,12.32]},{"name":"store-a","mesh":10,"translation":[-5.95,2.5375,0],"scale":[10.304,5.075,10.12]},{"name":"store-b","mesh":11,"translation":[5.95,2.18225,0],"scale":[10.304,4.3645,10.12]},{"name":"sign-a-back","mesh":3,"translation":[-5.95,3.654,5.18],"scale":[7.716,1.15,1]},{"name":"sign-a","mesh":4,"translation":[-5.95,3.654,5.209],"scale":[7.616,1.05,1]},{"name":"sign-b-back","mesh":3,"translation":[5.95,3.40025,5.18],"scale":[7.716,1.15,1]},{"name":"sign-b","mesh":4,"translation":[5.95,3.40025,5.209],"scale":[7.616,1.05,1]},{"name":"giant-mattress","mesh":12,"translation":[0,5.525,-1.2144],"rotation":[0.033099,-0.111877,0.055172,0.991637],"scale":[9.408,0.7,2.8336]},{"name":"busy-state-queue-bar","mesh":13,"translation":[0,0.65,6.3756],"scale":[16.128,0.12,0.12]},{"name":"queue-car-0","mesh":14,"translation":[-6.72,0.34,7.084],"scale":[1.35,0.65,0.7]},{"name":"busy-state-queue-bar","mesh":13,"translation":[0,0.65,6.3756],"scale":[16.128,0.12,0.12]},{"name":"queue-car-0","mesh":14,"translation":[-6.72,0.34,7.084],"scale":[1.35,0.65,0.7]}],"meshes":[{"primitives":[{"attributes":{"POSITION":0,"NORMAL":1,"TEXCOORD_0":2},"material":0,"mode":4}]},{"primitives":[{"attributes":{"POSITION":3,"NORMAL":1,"TEXCOORD_0":4},"material":1,"mode":4}]},{"primitives":[{"attributes":{"POSITION":5,"NORMAL":1,"TEXCOORD_0":6},"material":2,"mode":4}]},{"primitives":[{"attributes":{"POSITION":7,"NORMAL":8,"TEXCOORD_0":9},"material":3,"mode":4,"indices":10}]},{"primitives":[{"attributes":{"POSITION":11,"NORMAL":12,"TEXCOORD_0":13},"material":4,"mode":4,"indices":14}]},{"primitives":[{"attributes":{"POSITION":0,"NORMAL":1,"TEXCOORD_0":15},"material":1,"mode":4}]},{"primitives":[{"attributes":{"POSITION":0,"NORMAL":1,"TEXCOORD_0":16},"material":2,"mode":4}]},{"primitives":[{"attributes":{"POSITION":0,"NORMAL":1,"TEXCOORD_0":17},"material":5,"mode":4}]},{"primitives":[{"attributes":{"POSITION":0,"NORMAL":1,"TEXCOORD_0":17},"material":2,"mode":4}]},{"primitives":[{"attributes":{"POSITION":18,"NORMAL":8,"TEXCOORD_0":19},"material":0,"mode":4,"indices":10}]},{"primitives":[{"attributes":{"POSITION":18,"NORMAL":8,"TEXCOORD_0":20},"material":1,"mode":4,"indices":10}]},{"primitives":[{"attributes":{"POSITION":18,"NORMAL":8,"TEXCOORD_0":21},"material":2,"mode":4,"indices":10}]},{"primitives":[{"attributes":{"POSITION":18,"NORMAL":8,"TEXCOORD_0":22},"material":1,"mode":4,"indices":10}]},{"primitives":[{"attributes":{"POSITION":18,"NORMAL":8,"TEXCOORD_0":23},"material":2,"mode":4,"indices":10}]},{"primitives":[{"attributes":{"POSITION":18,"NORMAL":8,"TEXCOORD_0":24},"material":5,"mode":4,"indices":10}]},{"primitives":[{"attributes":{"POSITION":18,"NORMAL":8,"TEXCOORD_0":24},"material":2,"mode":4,"indices":10}]}],"materials":[{"name":"concrete","pbrMetallicRoughness":{"baseColorTexture":{"index":0},"metallicRoughnessTexture":{"index":2},"roughnessFactor":1,"metallicFactor":1},"normalTexture":{"index":1,"scale":0.82},"occlusionTexture":{"index":2,"strength":0.35}},{"name":"paint-white","pbrMetallicRoughness":{"baseColorFactor":[0.7912979403281551,0.7681511472425809,0.6795424696265424,1],"roughnessFactor":0.68,"metallicFactor":0}},{"name":"paint-blue","pbrMetallicRoughness":{"baseColorFactor":[0.05126945836711539,0.10946171076915331,0.22696587349938613,1],"roughnessFactor":0.58,"metallicFactor":0.05}},{"name":"metal-dark","pbrMetallicRoughness":{"baseColorTexture":{"index":3},"metallicRoughnessTexture":{"index":5},"roughnessFactor":1,"metallicFactor":1},"normalTexture":{"index":4,"scale":0.35},"occlusionTexture":{"index":5,"strength":0.35}},{"name":"mattress-mitosis signage","pbrMetallicRoughness":{"baseColorTexture":{"index":6},"roughnessFactor":1,"metallicFactor":0},"extensions":{"KHR_materials_unlit":{}}},{"name":"paint-red","pbrMetallicRoughness":{"baseColorFactor":[0.46778379610254284,0.08021982030622662,0.05126945836711539,1],"roughnessFactor":0.62,"metallicFactor":0.05}}],"textures":[{"source":0,"sampler":0},{"source":1,"sampler":0},{"source":2,"sampler":0},{"source":3,"sampler":0},{"source":4,"sampler":0},{"source":5,"sampler":0},{"source":6,"sampler":0}],"images":[{"uri":"../textures/concrete-albedo.png"},{"uri":"../textures/concrete-normal.png"},{"uri":"../textures/concrete-orm.png"},{"uri":"../textures/metal-dark-albedo.png"},{"uri":"../textures/metal-dark-normal.png"},{"uri":"../textures/metal-dark-orm.png"},{"uri":"../signs/mattress-mitosis.png"}],"samplers":[{"magFilter":9729,"minFilter":9987,"wrapS":10497,"wrapT":10497}],"buffers":[{"uri":"../shared/geometry.bin","byteLength":16435520}],"bufferViews":[{"buffer":0,"byteOffset":0,"byteLength":3888,"target":34962},{"buffer":0,"byteOffset":3888,"byteLength":3888,"target":34962},{"buffer":0,"byteOffset":8425228,"byteLength":2592,"target":34962},{"buffer":0,"byteOffset":33392,"byteLength":3888,"target":34962},{"buffer":0,"byteOffset":8427820,"byteLength":2592,"target":34962},{"buffer":0,"byteOffset":868536,"byteLength":3888,"target":34962},{"buffer":0,"byteOffset":8430412,"byteLength":2592,"target":34962},{"buffer":0,"byteOffset":45664,"byteLength":288,"target":34962},{"buffer":0,"byteOffset":45952,"byteLength":288,"target":34962},{"buffer":0,"byteOffset":46240,"byteLength":192,"target":34962},{"buffer":0,"byteOffset":46432,"byteLength":72,"target":34963},{"buffer":0,"byteOffset":46504,"byteLength":48,"target":34962},{"buffer":0,"byteOffset":46552,"byteLength":48,"target":34962},{"buffer":0,"byteOffset":219492,"byteLength":32,"target":34962},{"buffer":0,"byteOffset":46632,"byteLength":12,"target":34963},{"buffer":0,"byteOffset":8433004,"byteLength":2592,"target":34962},{"buffer":0,"byteOffset":7789664,"byteLength":2592,"target":34962},{"buffer":0,"byteOffset":582912,"byteLength":2592,"target":34962},{"buffer":0,"byteOffset":46644,"byteLength":288,"target":34962},{"buffer":0,"byteOffset":8435596,"byteLength":192,"target":34962},{"buffer":0,"byteOffset":8435788,"byteLength":192,"target":34962},{"buffer":0,"byteOffset":8435980,"byteLength":192,"target":34962},{"buffer":0,"byteOffset":8436172,"byteLength":192,"target":34962},{"buffer":0,"byteOffset":7792256,"byteLength":192,"target":34962},{"buffer":0,"byteOffset":585696,"byteLength":192,"target":34962}],"accessors":[{"bufferView":0,"componentType":5126,"count":324,"type":"VEC3","min":[-0.5,-0.5,-0.5],"max":[0.5,0.5,0.5]},{"bufferView":1,"componentType":5126,"count":324,"type":"VEC3"},{"bufferView":2,"componentType":5126,"count":324,"type":"VEC2"},{"bufferView":3,"componentType":5126,"count":324,"type":"VEC3","min":[-0.5,-0.5,-0.5],"max":[0.5,0.5,0.5]},{"bufferView":4,"componentType":5126,"count":324,"type":"VEC2"},{"bufferView":5,"componentType":5126,"count":324,"type":"VEC3","min":[-0.5,-0.5,-0.5],"max":[0.5,0.5,0.5]},{"bufferView":6,"componentType":5126,"count":324,"type":"VEC2"},{"bufferView":7,"componentType":5126,"count":24,"type":"VEC3","min":[-0.5,-0.5,-0.02500000037252903],"max":[0.5,0.5,0.02500000037252903]},{"bufferView":8,"componentType":5126,"count":24,"type":"VEC3"},{"bufferView":9,"componentType":5126,"count":24,"type":"VEC2"},{"bufferView":10,"componentType":5123,"count":36,"type":"SCALAR"},{"bufferView":11,"componentType":5126,"count":4,"type":"VEC3","min":[-0.5,-0.5,0],"max":[0.5,0.5,0]},{"bufferView":12,"componentType":5126,"count":4,"type":"VEC3"},{"bufferView":13,"componentType":5126,"count":4,"type":"VEC2"},{"bufferView":14,"componentType":5123,"count":6,"type":"SCALAR"},{"bufferView":15,"componentType":5126,"count":324,"type":"VEC2"},{"bufferView":16,"componentType":5126,"count":324,"type":"VEC2"},{"bufferView":17,"componentType":5126,"count":324,"type":"VEC2"},{"bufferView":18,"componentType":5126,"count":24,"type":"VEC3","min":[-0.5,-0.5,-0.5],"max":[0.5,0.5,0.5]},{"bufferView":19,"componentType":5126,"count":24,"type":"VEC2"},{"bufferView":20,"componentType":5126,"count":24,"type":"VEC2"},{"bufferView":21,"componentType":5126,"count":24,"type":"VEC2"},{"bufferView":22,"componentType":5126,"count":24,"type":"VEC2"},{"bufferView":23,"componentType":5126,"count":24,"type":"VEC2"},{"bufferView":24,"componentType":5126,"count":24,"type":"VEC2"}],"extensionsUsed":["KHR_materials_unlit"],"extras":{"id":"vlt-mattress-mitosis-24","family":"mattress-mitosis","variant":23,"plan":"A4-2","units":"metres","up":"+Y","front":"+Z","lodScenes":[0,1,2]}}