{"asset":{"version":"2.0","generator":"SLOPMERICA Department of Unnecessary Development 1.0"},"scene":0,"scenes":[{"name":"LOD 0","nodes":[0,1,2,3,4,5,6,7,8,9,10,11,12,13,14,15,16,17,18,19,20,21,22,23,24],"extras":{"level":0}},{"name":"LOD 1","nodes":[25,26,27,28,29,30,31,32,33,34,35,36,37,38,39,40,41,42,43,44,45,46,47,48,49],"extras":{"level":1}},{"name":"LOD 2","nodes":[50,51,52,53,54,55,56,57,58],"extras":{"level":2}}],"nodes":[{"name":"surveyed lot","mesh":0,"translation":[0,0.06,0],"scale":[15.84,0.12,15.84]},{"name":"ferris wheel rim","mesh":1,"translation":[0,5.2,-1],"rotation":[0,0.707107,0,0.707107]},{"name":"wheel spoke 0","mesh":2,"translation":[0,0,0]},{"name":"gondola 0","mesh":3,"translation":[0,5.2,3.4],"scale":[0.75,0.65,0.55]},{"name":"wheel spoke 1","mesh":4,"translation":[0,0,0]},{"name":"wheel spoke 2","mesh":5,"translation":[0,0,0]},{"name":"gondola 2","mesh":6,"translation":[0,9.010512,1.2],"scale":[0.75,0.65,0.55]},{"name":"wheel spoke 3","mesh":7,"translation":[0,0,0]},{"name":"wheel spoke 4","mesh":8,"translation":[0,0,0]},{"name":"gondola 4","mesh":3,"translation":[0,9.010512,-3.2],"scale":[0.75,0.65,0.55]},{"name":"wheel spoke 5","mesh":9,"translation":[0,0,0]},{"name":"wheel spoke 6","mesh":10,"translation":[0,0,0]},{"name":"gondola 6","mesh":6,"translation":[0,5.2,-5.4],"scale":[0.75,0.65,0.55]},{"name":"wheel spoke 7","mesh":11,"translation":[0,0,0]},{"name":"wheel spoke 8","mesh":12,"translation":[0,0,0]},{"name":"gondola 8","mesh":3,"translation":[0,1.389488,-3.2],"scale":[0.75,0.65,0.55]},{"name":"wheel spoke 9","mesh":13,"translation":[0,0,0]},{"name":"wheel spoke 10","mesh":14,"translation":[0,0,0]},{"name":"gondola 10","mesh":6,"translation":[0,1.389488,1.2],"scale":[0.75,0.65,0.55]},{"name":"wheel spoke 11","mesh":15,"translation":[0,0,0]},{"name":"left wheel leg","mesh":16,"translation":[0,0,0]},{"name":"right wheel leg","mesh":17,"translation":[0,0,0]},{"name":"midway booth 0","mesh":18,"translation":[-6,1,6],"scale":[2.1,1.8,2]},{"name":"midway booth 1","mesh":19,"translation":[-3.3,1,6],"scale":[2.1,1.8,2]},{"name":"closed tarp","mesh":20,"translation":[-5.2,0.25,2.8],"scale":[4.2,0.12,3.2]},{"name":"surveyed lot","mesh":21,"translation":[0,0.06,0],"scale":[15.84,0.12,15.84]},{"name":"ferris wheel rim","mesh":22,"translation":[0,5.2,-1],"rotation":[0,0.707107,0,0.707107]},{"name":"wheel spoke 0","mesh":23,"translation":[0,0,0]},{"name":"gondola 0","mesh":24,"translation":[0,5.2,3.4],"scale":[0.75,0.65,0.55]},{"name":"wheel spoke 1","mesh":25,"translation":[0,0,0]},{"name":"wheel spoke 2","mesh":26,"translation":[0,0,0]},{"name":"gondola 2","mesh":27,"translation":[0,9.010512,1.2],"scale":[0.75,0.65,0.55]},{"name":"wheel spoke 3","mesh":28,"translation":[0,0,0]},{"name":"wheel spoke 4","mesh":29,"translation":[0,0,0]},{"name":"gondola 4","mesh":24,"translation":[0,9.010512,-3.2],"scale":[0.75,0.65,0.55]},{"name":"wheel spoke 5","mesh":30,"translation":[0,0,0]},{"name":"wheel spoke 6","mesh":31,"translation":[0,0,0]},{"name":"gondola 6","mesh":27,"translation":[0,5.2,-5.4],"scale":[0.75,0.65,0.55]},{"name":"wheel spoke 7","mesh":32,"translation":[0,0,0]},{"name":"wheel spoke 8","mesh":33,"translation":[0,0,0]},{"name":"gondola 8","mesh":24,"translation":[0,1.389488,-3.2],"scale":[0.75,0.65,0.55]},{"name":"wheel spoke 9","mesh":34,"translation":[0,0,0]},{"name":"wheel spoke 10","mesh":35,"translation":[0,0,0]},{"name":"gondola 10","mesh":27,"translation":[0,1.389488,1.2],"scale":[0.75,0.65,0.55]},{"name":"wheel spoke 11","mesh":36,"translation":[0,0,0]},{"name":"left wheel leg","mesh":37,"translation":[0,0,0]},{"name":"right wheel leg","mesh":38,"translation":[0,0,0]},{"name":"midway booth 0","mesh":39,"translation":[-6,1,6],"scale":[2.1,1.8,2]},{"name":"midway booth 1","mesh":40,"translation":[-3.3,1,6],"scale":[2.1,1.8,2]},{"name":"closed tarp","mesh":41,"translation":[-5.2,0.25,2.8],"scale":[4.2,0.12,3.2]},{"name":"surveyed lot","mesh":21,"translation":[0,0.06,0],"scale":[15.84,0.12,15.84]},{"name":"ferris wheel rim","mesh":42,"translation":[0,5.2,-1],"rotation":[0,0.707107,0,0.707107]},{"name":"wheel spoke 0","mesh":43,"translation":[0,0,0]},{"name":"wheel spoke 1","mesh":44,"translation":[0,0,0]},{"name":"wheel spoke 2","mesh":45,"translation":[0,0,0]},{"name":"wheel spoke 3","mesh":46,"translation":[0,0,0]},{"name":"left wheel leg","mesh":47,"translation":[0,0,0]},{"name":"right wheel leg","mesh":48,"translation":[0,0,0]},{"name":"closed tarp","mesh":41,"translation":[-5.2,0.25,2.8],"scale":[4.2,0.12,3.2]}],"meshes":[{"primitives":[{"attributes":{"POSITION":0,"NORMAL":1,"TEXCOORD_0":2},"material":0,"mode":4}]},{"primitives":[{"attributes":{"POSITION":3,"NORMAL":4,"TEXCOORD_0":5},"material":1,"mode":4,"indices":6}]},{"primitives":[{"attributes":{"POSITION":7,"NORMAL":8,"TEXCOORD_0":9},"material":2,"mode":4,"indices":10}]},{"primitives":[{"attributes":{"POSITION":0,"NORMAL":1,"TEXCOORD_0":11},"material":3,"mode":4}]},{"primitives":[{"attributes":{"POSITION":12,"NORMAL":13,"TEXCOORD_0":9},"material":2,"mode":4,"indices":10}]},{"primitives":[{"attributes":{"POSITION":14,"NORMAL":15,"TEXCOORD_0":9},"material":2,"mode":4,"indices":10}]},{"primitives":[{"attributes":{"POSITION":0,"NORMAL":1,"TEXCOORD_0":11},"material":4,"mode":4}]},{"primitives":[{"attributes":{"POSITION":16,"NORMAL":17,"TEXCOORD_0":9},"material":2,"mode":4,"indices":10}]},{"primitives":[{"attributes":{"POSITION":18,"NORMAL":19,"TEXCOORD_0":9},"material":2,"mode":4,"indices":10}]},{"primitives":[{"attributes":{"POSITION":20,"NORMAL":21,"TEXCOORD_0":9},"material":2,"mode":4,"indices":10}]},{"primitives":[{"attributes":{"POSITION":22,"NORMAL":23,"TEXCOORD_0":9},"material":2,"mode":4,"indices":10}]},{"primitives":[{"attributes":{"POSITION":24,"NORMAL":25,"TEXCOORD_0":9},"material":2,"mode":4,"indices":10}]},{"primitives":[{"attributes":{"POSITION":26,"NORMAL":27,"TEXCOORD_0":9},"material":2,"mode":4,"indices":10}]},{"primitives":[{"attributes":{"POSITION":28,"NORMAL":29,"TEXCOORD_0":9},"material":2,"mode":4,"indices":10}]},{"primitives":[{"attributes":{"POSITION":30,"NORMAL":31,"TEXCOORD_0":9},"material":2,"mode":4,"indices":10}]},{"primitives":[{"attributes":{"POSITION":32,"NORMAL":33,"TEXCOORD_0":9},"material":2,"mode":4,"indices":10}]},{"primitives":[{"attributes":{"POSITION":34,"NORMAL":35,"TEXCOORD_0":36},"material":1,"mode":4,"indices":10}]},{"primitives":[{"attributes":{"POSITION":37,"NORMAL":38,"TEXCOORD_0":36},"material":1,"mode":4,"indices":10}]},{"primitives":[{"attributes":{"POSITION":0,"NORMAL":1,"TEXCOORD_0":39},"material":4,"mode":4}]},{"primitives":[{"attributes":{"POSITION":0,"NORMAL":1,"TEXCOORD_0":39},"material":3,"mode":4}]},{"primitives":[{"attributes":{"POSITION":0,"NORMAL":1,"TEXCOORD_0":40},"material":5,"mode":4}]},{"primitives":[{"attributes":{"POSITION":41,"NORMAL":42,"TEXCOORD_0":43},"material":0,"mode":4,"indices":44}]},{"primitives":[{"attributes":{"POSITION":45,"NORMAL":46,"TEXCOORD_0":47},"material":1,"mode":4,"indices":48}]},{"primitives":[{"attributes":{"POSITION":49,"NORMAL":50,"TEXCOORD_0":51},"material":2,"mode":4,"indices":52}]},{"primitives":[{"attributes":{"POSITION":41,"NORMAL":42,"TEXCOORD_0":53},"material":3,"mode":4,"indices":44}]},{"primitives":[{"attributes":{"POSITION":54,"NORMAL":55,"TEXCOORD_0":51},"material":2,"mode":4,"indices":52}]},{"primitives":[{"attributes":{"POSITION":56,"NORMAL":57,"TEXCOORD_0":51},"material":2,"mode":4,"indices":52}]},{"primitives":[{"attributes":{"POSITION":41,"NORMAL":42,"TEXCOORD_0":53},"material":4,"mode":4,"indices":44}]},{"primitives":[{"attributes":{"POSITION":58,"NORMAL":59,"TEXCOORD_0":51},"material":2,"mode":4,"indices":52}]},{"primitives":[{"attributes":{"POSITION":60,"NORMAL":61,"TEXCOORD_0":51},"material":2,"mode":4,"indices":52}]},{"primitives":[{"attributes":{"POSITION":62,"NORMAL":63,"TEXCOORD_0":51},"material":2,"mode":4,"indices":52}]},{"primitives":[{"attributes":{"POSITION":64,"NORMAL":65,"TEXCOORD_0":51},"material":2,"mode":4,"indices":52}]},{"primitives":[{"attributes":{"POSITION":66,"NORMAL":67,"TEXCOORD_0":51},"material":2,"mode":4,"indices":52}]},{"primitives":[{"attributes":{"POSITION":68,"NORMAL":69,"TEXCOORD_0":51},"material":2,"mode":4,"indices":52}]},{"primitives":[{"attributes":{"POSITION":70,"NORMAL":71,"TEXCOORD_0":51},"material":2,"mode":4,"indices":52}]},{"primitives":[{"attributes":{"POSITION":72,"NORMAL":73,"TEXCOORD_0":51},"material":2,"mode":4,"indices":52}]},{"primitives":[{"attributes":{"POSITION":74,"NORMAL":75,"TEXCOORD_0":51},"material":2,"mode":4,"indices":52}]},{"primitives":[{"attributes":{"POSITION":76,"NORMAL":77,"TEXCOORD_0":78},"material":1,"mode":4,"indices":52}]},{"primitives":[{"attributes":{"POSITION":79,"NORMAL":80,"TEXCOORD_0":78},"material":1,"mode":4,"indices":52}]},{"primitives":[{"attributes":{"POSITION":41,"NORMAL":42,"TEXCOORD_0":81},"material":4,"mode":4,"indices":44}]},{"primitives":[{"attributes":{"POSITION":41,"NORMAL":42,"TEXCOORD_0":81},"material":3,"mode":4,"indices":44}]},{"primitives":[{"attributes":{"POSITION":41,"NORMAL":42,"TEXCOORD_0":82},"material":5,"mode":4,"indices":44}]},{"primitives":[{"attributes":{"POSITION":83,"NORMAL":84,"TEXCOORD_0":85},"material":1,"mode":4,"indices":86}]},{"primitives":[{"attributes":{"POSITION":87,"NORMAL":88,"TEXCOORD_0":89},"material":2,"mode":4,"indices":90}]},{"primitives":[{"attributes":{"POSITION":91,"NORMAL":92,"TEXCOORD_0":89},"material":2,"mode":4,"indices":90}]},{"primitives":[{"attributes":{"POSITION":93,"NORMAL":94,"TEXCOORD_0":89},"material":2,"mode":4,"indices":90}]},{"primitives":[{"attributes":{"POSITION":95,"NORMAL":96,"TEXCOORD_0":89},"material":2,"mode":4,"indices":90}]},{"primitives":[{"attributes":{"POSITION":97,"NORMAL":98,"TEXCOORD_0":99},"material":1,"mode":4,"indices":90}]},{"primitives":[{"attributes":{"POSITION":100,"NORMAL":101,"TEXCOORD_0":99},"material":1,"mode":4,"indices":90}]}],"materials":[{"name":"concrete","pbrMetallicRoughness":{"baseColorTexture":{"index":0},"metallicRoughnessTexture":{"index":2},"roughnessFactor":1,"metallicFactor":1},"normalTexture":{"index":1,"scale":0.82},"occlusionTexture":{"index":2,"strength":0.35}},{"name":"metal-dark","pbrMetallicRoughness":{"baseColorTexture":{"index":3},"metallicRoughnessTexture":{"index":5},"roughnessFactor":1,"metallicFactor":1},"normalTexture":{"index":4,"scale":0.35},"occlusionTexture":{"index":5,"strength":0.35}},{"name":"metal-galvanized","pbrMetallicRoughness":{"baseColorTexture":{"index":6},"metallicRoughnessTexture":{"index":8},"roughnessFactor":1,"metallicFactor":1},"normalTexture":{"index":7,"scale":0.15},"occlusionTexture":{"index":8,"strength":0.35}},{"name":"paint-red","pbrMetallicRoughness":{"baseColorFactor":[0.46778379610254284,0.08021982030622662,0.05126945836711539,1],"roughnessFactor":0.62,"metallicFactor":0.05}},{"name":"paint-yellow","pbrMetallicRoughness":{"baseColorFactor":[0.76052450467022,0.4793201830913402,0.07818742179702069,1],"roughnessFactor":0.66,"metallicFactor":0.03}},{"name":"paint-blue","pbrMetallicRoughness":{"baseColorFactor":[0.05126945836711539,0.10946171076915331,0.22696587349938613,1],"roughnessFactor":0.58,"metallicFactor":0.05}}],"textures":[{"source":0,"sampler":0},{"source":1,"sampler":0},{"source":2,"sampler":0},{"source":3,"sampler":0},{"source":4,"sampler":0},{"source":5,"sampler":0},{"source":6,"sampler":0},{"source":7,"sampler":0},{"source":8,"sampler":0}],"images":[{"uri":"../textures/concrete-albedo.png"},{"uri":"../textures/concrete-normal.png"},{"uri":"../textures/concrete-orm.png"},{"uri":"../textures/metal-dark-albedo.png"},{"uri":"../textures/metal-dark-normal.png"},{"uri":"../textures/metal-dark-orm.png"},{"uri":"../textures/metal-galvanized-albedo.png"},{"uri":"../textures/metal-galvanized-normal.png"},{"uri":"../textures/metal-galvanized-orm.png"}],"samplers":[{"magFilter":9729,"minFilter":9987,"wrapS":10497,"wrapT":10497}],"buffers":[{"uri":"../shared/geometry.bin","byteLength":16435520}],"bufferViews":[{"buffer":0,"byteOffset":0,"byteLength":3888,"target":34962},{"buffer":0,"byteOffset":3888,"byteLength":3888,"target":34962},{"buffer":0,"byteOffset":3081884,"byteLength":2592,"target":34962},{"buffer":0,"byteOffset":2832200,"byteLength":3132,"target":34962},{"buffer":0,"byteOffset":390704,"byteLength":3132,"target":34962},{"buffer":0,"byteOffset":2835332,"byteLength":2088,"target":34962},{"buffer":0,"byteOffset":395924,"byteLength":2688,"target":34963},{"buffer":0,"byteOffset":2837420,"byteLength":972,"target":34962},{"buffer":0,"byteOffset":2838392,"byteLength":972,"target":34962},{"buffer":0,"byteOffset":409952,"byteLength":648,"target":34962},{"buffer":0,"byteOffset":410600,"byteLength":768,"target":34963},{"buffer":0,"byteOffset":2839364,"byteLength":2592,"target":34962},{"buffer":0,"byteOffset":3084476,"byteLength":972,"target":34962},{"buffer":0,"byteOffset":3085448,"byteLength":972,"target":34962},{"buffer":0,"byteOffset":3086420,"byteLength":972,"target":34962},{"buffer":0,"byteOffset":3087392,"byteLength":972,"target":34962},{"buffer":0,"byteOffset":2843900,"byteLength":972,"target":34962},{"buffer":0,"byteOffset":2844872,"byteLength":972,"target":34962},{"buffer":0,"byteOffset":3088364,"byteLength":972,"target":34962},{"buffer":0,"byteOffset":3089336,"byteLength":972,"target":34962},{"buffer":0,"byteOffset":3090308,"byteLength":972,"target":34962},{"buffer":0,"byteOffset":3091280,"byteLength":972,"target":34962},{"buffer":0,"byteOffset":2847788,"byteLength":972,"target":34962},{"buffer":0,"byteOffset":2848760,"byteLength":972,"target":34962},{"buffer":0,"byteOffset":3092252,"byteLength":972,"target":34962},{"buffer":0,"byteOffset":3093224,"byteLength":972,"target":34962},{"buffer":0,"byteOffset":3094196,"byteLength":972,"target":34962},{"buffer":0,"byteOffset":3095168,"byteLength":972,"target":34962},{"buffer":0,"byteOffset":2851676,"byteLength":972,"target":34962},{"buffer":0,"byteOffset":2852648,"byteLength":972,"target":34962},{"buffer":0,"byteOffset":3096140,"byteLength":972,"target":34962},{"buffer":0,"byteOffset":3097112,"byteLength":972,"target":34962},{"buffer":0,"byteOffset":3098084,"byteLength":972,"target":34962},{"buffer":0,"byteOffset":3099056,"byteLength":972,"target":34962},{"buffer":0,"byteOffset":2855564,"byteLength":972,"target":34962},{"buffer":0,"byteOffset":2856536,"byteLength":972,"target":34962},{"buffer":0,"byteOffset":2857508,"byteLength":648,"target":34962},{"buffer":0,"byteOffset":2858156,"byteLength":972,"target":34962},{"buffer":0,"byteOffset":2859128,"byteLength":972,"target":34962},{"buffer":0,"byteOffset":2860100,"byteLength":2592,"target":34962},{"buffer":0,"byteOffset":3283856,"byteLength":2592,"target":34962},{"buffer":0,"byteOffset":46644,"byteLength":288,"target":34962},{"buffer":0,"byteOffset":45952,"byteLength":288,"target":34962},{"buffer":0,"byteOffset":3100028,"byteLength":192,"target":34962},{"buffer":0,"byteOffset":46432,"byteLength":72,"target":34963},{"buffer":0,"byteOffset":2862884,"byteLength":1428,"target":34962},{"buffer":0,"byteOffset":427996,"byteLength":1428,"target":34962},{"buffer":0,"byteOffset":2864312,"byteLength":952,"target":34962},{"buffer":0,"byteOffset":430376,"byteLength":1152,"target":34963},{"buffer":0,"byteOffset":2865264,"byteLength":420,"target":34962},{"buffer":0,"byteOffset":2865684,"byteLength":420,"target":34962},{"buffer":0,"byteOffset":433796,"byteLength":280,"target":34962},{"buffer":0,"byteOffset":434076,"byteLength":288,"target":34963},{"buffer":0,"byteOffset":2866104,"byteLength":192,"target":34962},{"buffer":0,"byteOffset":3100220,"byteLength":420,"target":34962},{"buffer":0,"byteOffset":3100640,"byteLength":420,"target":34962},{"buffer":0,"byteOffset":3101060,"byteLength":420,"target":34962},{"buffer":0,"byteOffset":3101480,"byteLength":420,"target":34962},{"buffer":0,"byteOffset":2867136,"byteLength":420,"target":34962},{"buffer":0,"byteOffset":2867556,"byteLength":420,"target":34962},{"buffer":0,"byteOffset":3101900,"byteLength":420,"target":34962},{"buffer":0,"byteOffset":3102320,"byteLength":420,"target":34962},{"buffer":0,"byteOffset":3102740,"byteLength":420,"target":34962},{"buffer":0,"byteOffset":3103160,"byteLength":420,"target":34962},{"buffer":0,"byteOffset":2868816,"byteLength":420,"target":34962},{"buffer":0,"byteOffset":2869236,"byteLength":420,"target":34962},{"buffer":0,"byteOffset":3103580,"byteLength":420,"target":34962},{"buffer":0,"byteOffset":3104000,"byteLength":420,"target":34962},{"buffer":0,"byteOffset":3104420,"byteLength":420,"target":34962},{"buffer":0,"byteOffset":3104840,"byteLength":420,"target":34962},{"buffer":0,"byteOffset":2870496,"byteLength":420,"target":34962},{"buffer":0,"byteOffset":2870916,"byteLength":420,"target":34962},{"buffer":0,"byteOffset":3105260,"byteLength":420,"target":34962},{"buffer":0,"byteOffset":3105680,"byteLength":420,"target":34962},{"buffer":0,"byteOffset":3106100,"byteLength":420,"target":34962},{"buffer":0,"byteOffset":3106520,"byteLength":420,"target":34962},{"buffer":0,"byteOffset":2872176,"byteLength":420,"target":34962},{"buffer":0,"byteOffset":2872596,"byteLength":420,"target":34962},{"buffer":0,"byteOffset":2873016,"byteLength":280,"target":34962},{"buffer":0,"byteOffset":2873296,"byteLength":420,"target":34962},{"buffer":0,"byteOffset":2873716,"byteLength":420,"target":34962},{"buffer":0,"byteOffset":2874136,"byteLength":192,"target":34962},{"buffer":0,"byteOffset":3286448,"byteLength":192,"target":34962},{"buffer":0,"byteOffset":2874328,"byteLength":660,"target":34962},{"buffer":0,"byteOffset":437788,"byteLength":660,"target":34962},{"buffer":0,"byteOffset":2874988,"byteLength":440,"target":34962},{"buffer":0,"byteOffset":438888,"byteLength":480,"target":34963},{"buffer":0,"byteOffset":2875428,"byteLength":300,"target":34962},{"buffer":0,"byteOffset":2875728,"byteLength":300,"target":34962},{"buffer":0,"byteOffset":439968,"byteLength":200,"target":34962},{"buffer":0,"byteOffset":440168,"byteLength":192,"target":34963},{"buffer":0,"byteOffset":2876028,"byteLength":300,"target":34962},{"buffer":0,"byteOffset":2876328,"byteLength":300,"target":34962},{"buffer":0,"byteOffset":2876628,"byteLength":300,"target":34962},{"buffer":0,"byteOffset":2876928,"byteLength":300,"target":34962},{"buffer":0,"byteOffset":2877228,"byteLength":300,"target":34962},{"buffer":0,"byteOffset":2877528,"byteLength":300,"target":34962},{"buffer":0,"byteOffset":2877828,"byteLength":300,"target":34962},{"buffer":0,"byteOffset":2878128,"byteLength":300,"target":34962},{"buffer":0,"byteOffset":2878428,"byteLength":200,"target":34962},{"buffer":0,"byteOffset":2878628,"byteLength":300,"target":34962},{"buffer":0,"byteOffset":2878928,"byteLength":300,"target":34962}],"accessors":[{"bufferView":0,"componentType":5126,"count":324,"type":"VEC3","min":[-0.5,-0.5,-0.5],"max":[0.5,0.5,0.5]},{"bufferView":1,"componentType":5126,"count":324,"type":"VEC3"},{"bufferView":2,"componentType":5126,"count":324,"type":"VEC2"},{"bufferView":3,"componentType":5126,"count":261,"type":"VEC3","min":[-4.579999923706055,-4.579999923706055,-0.18000000715255737],"max":[4.579999923706055,4.579999923706055,0.18000000715255737]},{"bufferView":4,"componentType":5126,"count":261,"type":"VEC3"},{"bufferView":5,"componentType":5126,"count":261,"type":"VEC2"},{"bufferView":6,"componentType":5123,"count":1344,"type":"SCALAR"},{"bufferView":7,"componentType":5126,"count":81,"type":"VEC3","min":[-0.054999999701976776,5.144999980926514,-1],"max":[0.054999999701976776,5.255000114440918,3.4000000953674316]},{"bufferView":8,"componentType":5126,"count":81,"type":"VEC3"},{"bufferView":9,"componentType":5126,"count":81,"type":"VEC2"},{"bufferView":10,"componentType":5123,"count":384,"type":"SCALAR"},{"bufferView":11,"componentType":5126,"count":324,"type":"VEC2"},{"bufferView":12,"componentType":5126,"count":81,"type":"VEC3","min":[-0.054999999701976776,5.152368545532227,-1.027500033378601],"max":[0.054999999701976776,7.447631359100342,2.8380117416381836]},{"bufferView":13,"componentType":5126,"count":81,"type":"VEC3"},{"bufferView":14,"componentType":5126,"count":81,"type":"VEC3","min":[-0.054999999701976776,5.172500133514404,-1.0476313829421997],"max":[0.054999999701976776,9.03801155090332,1.2476314306259155]},{"bufferView":15,"componentType":5126,"count":81,"type":"VEC3"},{"bufferView":16,"componentType":5126,"count":81,"type":"VEC3","min":[-0.054999999701976776,5.199999809265137,-1.0549999475479126],"max":[0.054999999701976776,9.600000381469727,-0.9449999928474426]},{"bufferView":17,"componentType":5126,"count":81,"type":"VEC3"},{"bufferView":18,"componentType":5126,"count":81,"type":"VEC3","min":[-0.054999999701976776,5.172500133514404,-3.247631311416626],"max":[0.054999999701976776,9.03801155090332,-0.9523686170578003]},{"bufferView":19,"componentType":5126,"count":81,"type":"VEC3"},{"bufferView":20,"componentType":5126,"count":81,"type":"VEC3","min":[-0.054999999701976776,5.152368545532227,-4.838011741638184],"max":[0.054999999701976776,7.447631359100342,-0.9725000262260437]},{"bufferView":21,"componentType":5126,"count":81,"type":"VEC3"},{"bufferView":22,"componentType":5126,"count":81,"type":"VEC3","min":[-0.054999999701976776,5.144999980926514,-5.400000095367432],"max":[0.054999999701976776,5.255000114440918,-1]},{"bufferView":23,"componentType":5126,"count":81,"type":"VEC3"},{"bufferView":24,"componentType":5126,"count":81,"type":"VEC3","min":[-0.054999999701976776,2.9523684978485107,-4.838011741638184],"max":[0.054999999701976776,5.247631549835205,-0.9725000262260437]},{"bufferView":25,"componentType":5126,"count":81,"type":"VEC3"},{"bufferView":26,"componentType":5126,"count":81,"type":"VEC3","min":[-0.054999999701976776,1.3619881868362427,-3.247631311416626],"max":[0.054999999701976776,5.227499961853027,-0.9523686170578003]},{"bufferView":27,"componentType":5126,"count":81,"type":"VEC3"},{"bufferView":28,"componentType":5126,"count":81,"type":"VEC3","min":[-0.054999999701976776,0.800000011920929,-1.0549999475479126],"max":[0.054999999701976776,5.199999809265137,-0.9449999928474426]},{"bufferView":29,"componentType":5126,"count":81,"type":"VEC3"},{"bufferView":30,"componentType":5126,"count":81,"type":"VEC3","min":[-0.054999999701976776,1.3619881868362427,-1.0476313829421997],"max":[0.054999999701976776,5.227499961853027,1.2476314306259155]},{"bufferView":31,"componentType":5126,"count":81,"type":"VEC3"},{"bufferView":32,"componentType":5126,"count":81,"type":"VEC3","min":[-0.054999999701976776,2.9523684978485107,-1.027500033378601],"max":[0.054999999701976776,5.247631549835205,2.8380117416381836]},{"bufferView":33,"componentType":5126,"count":81,"type":"VEC3"},{"bufferView":34,"componentType":5126,"count":81,"type":"VEC3","min":[-3.565385341644287,0.08753799647092819,-1.2000000476837158],"max":[0.16538530588150024,5.312461853027344,-0.800000011920929]},{"bufferView":35,"componentType":5126,"count":81,"type":"VEC3"},{"bufferView":36,"componentType":5126,"count":81,"type":"VEC2"},{"bufferView":37,"componentType":5126,"count":81,"type":"VEC3","min":[-0.16538530588150024,0.08753799647092819,-1.2000000476837158],"max":[3.565385341644287,5.312461853027344,-0.800000011920929]},{"bufferView":38,"componentType":5126,"count":81,"type":"VEC3"},{"bufferView":39,"componentType":5126,"count":324,"type":"VEC2"},{"bufferView":40,"componentType":5126,"count":324,"type":"VEC2"},{"bufferView":41,"componentType":5126,"count":24,"type":"VEC3","min":[-0.5,-0.5,-0.5],"max":[0.5,0.5,0.5]},{"bufferView":42,"componentType":5126,"count":24,"type":"VEC3"},{"bufferView":43,"componentType":5126,"count":24,"type":"VEC2"},{"bufferView":44,"componentType":5123,"count":36,"type":"SCALAR"},{"bufferView":45,"componentType":5126,"count":119,"type":"VEC3","min":[-4.579999923706055,-4.579999923706055,-0.15588457882404327],"max":[4.579999923706055,4.579999923706055,0.15588457882404327]},{"bufferView":46,"componentType":5126,"count":119,"type":"VEC3"},{"bufferView":47,"componentType":5126,"count":119,"type":"VEC2"},{"bufferView":48,"componentType":5123,"count":576,"type":"SCALAR"},{"bufferView":49,"componentType":5126,"count":35,"type":"VEC3","min":[-0.0476313978433609,5.144999980926514,-1],"max":[0.0476313978433609,5.255000114440918,3.4000000953674316]},{"bufferView":50,"componentType":5126,"count":35,"type":"VEC3"},{"bufferView":51,"componentType":5126,"count":35,"type":"VEC2"},{"bufferView":52,"componentType":5123,"count":144,"type":"SCALAR"},{"bufferView":53,"componentType":5126,"count":24,"type":"VEC2"},{"bufferView":54,"componentType":5126,"count":35,"type":"VEC3","min":[-0.054999999701976776,5.158750057220459,-1.0238157510757446],"max":[0.054999999701976776,7.441249847412109,2.834327459335327]},{"bufferView":55,"componentType":5126,"count":35,"type":"VEC3"},{"bufferView":56,"componentType":5126,"count":35,"type":"VEC3","min":[-0.054999999701976776,5.176184177398682,-1.0412499904632568],"max":[0.054999999701976776,9.034327507019043,1.2412500381469727]},{"bufferView":57,"componentType":5126,"count":35,"type":"VEC3"},{"bufferView":58,"componentType":5126,"count":35,"type":"VEC3","min":[-0.0476313978433609,5.199999809265137,-1.0549999475479126],"max":[0.0476313978433609,9.600000381469727,-0.9449999928474426]},{"bufferView":59,"componentType":5126,"count":35,"type":"VEC3"},{"bufferView":60,"componentType":5126,"count":35,"type":"VEC3","min":[-0.054999999701976776,5.176184177398682,-3.2412500381469727],"max":[0.054999999701976776,9.034327507019043,-0.9587500095367432]},{"bufferView":61,"componentType":5126,"count":35,"type":"VEC3"},{"bufferView":62,"componentType":5126,"count":35,"type":"VEC3","min":[-0.054999999701976776,5.158750057220459,-4.834327697753906],"max":[0.054999999701976776,7.441249847412109,-0.9761843085289001]},{"bufferView":63,"componentType":5126,"count":35,"type":"VEC3"},{"bufferView":64,"componentType":5126,"count":35,"type":"VEC3","min":[-0.0476313978433609,5.144999980926514,-5.400000095367432],"max":[0.0476313978433609,5.255000114440918,-1]},{"bufferView":65,"componentType":5126,"count":35,"type":"VEC3"},{"bufferView":66,"componentType":5126,"count":35,"type":"VEC3","min":[-0.054999999701976776,2.958750009536743,-4.834327697753906],"max":[0.054999999701976776,5.241250038146973,-0.9761843085289001]},{"bufferView":67,"componentType":5126,"count":35,"type":"VEC3"},{"bufferView":68,"componentType":5126,"count":35,"type":"VEC3","min":[-0.054999999701976776,1.3656724691390991,-3.2412500381469727],"max":[0.054999999701976776,5.22381591796875,-0.9587500095367432]},{"bufferView":69,"componentType":5126,"count":35,"type":"VEC3"},{"bufferView":70,"componentType":5126,"count":35,"type":"VEC3","min":[-0.0476313978433609,0.800000011920929,-1.0549999475479126],"max":[0.0476313978433609,5.199999809265137,-0.9449999928474426]},{"bufferView":71,"componentType":5126,"count":35,"type":"VEC3"},{"bufferView":72,"componentType":5126,"count":35,"type":"VEC3","min":[-0.054999999701976776,1.3656724691390991,-1.0412499904632568],"max":[0.054999999701976776,5.22381591796875,1.2412500381469727]},{"bufferView":73,"componentType":5126,"count":35,"type":"VEC3"},{"bufferView":74,"componentType":5126,"count":35,"type":"VEC3","min":[-0.054999999701976776,2.958750009536743,-1.0238157510757446],"max":[0.054999999701976776,5.241250038146973,2.834327459335327]},{"bufferView":75,"componentType":5126,"count":35,"type":"VEC3"},{"bufferView":76,"componentType":5126,"count":35,"type":"VEC3","min":[-3.5432279109954834,0.10260504484176636,-1.2000000476837158],"max":[0.14322787523269653,5.297394752502441,-0.800000011920929]},{"bufferView":77,"componentType":5126,"count":35,"type":"VEC3"},{"bufferView":78,"componentType":5126,"count":35,"type":"VEC2"},{"bufferView":79,"componentType":5126,"count":35,"type":"VEC3","min":[-0.14322787523269653,0.10260504484176636,-1.2000000476837158],"max":[3.5432279109954834,5.297394752502441,-0.800000011920929]},{"bufferView":80,"componentType":5126,"count":35,"type":"VEC3"},{"bufferView":81,"componentType":5126,"count":24,"type":"VEC2"},{"bufferView":82,"componentType":5126,"count":24,"type":"VEC2"},{"bufferView":83,"componentType":5126,"count":55,"type":"VEC3","min":[-4.579999923706055,-4.355838775634766,-0.18000000715255737],"max":[4.579999923706055,4.355838775634766,0.18000000715255737]},{"bufferView":84,"componentType":5126,"count":55,"type":"VEC3"},{"bufferView":85,"componentType":5126,"count":55,"type":"VEC2"},{"bufferView":86,"componentType":5123,"count":240,"type":"SCALAR"},{"bufferView":87,"componentType":5126,"count":25,"type":"VEC3","min":[-0.054999999701976776,5.144999980926514,-1],"max":[0.054999999701976776,5.255000114440918,3.4000000953674316]},{"bufferView":88,"componentType":5126,"count":25,"type":"VEC3"},{"bufferView":89,"componentType":5126,"count":25,"type":"VEC2"},{"bufferView":90,"componentType":5123,"count":96,"type":"SCALAR"},{"bufferView":91,"componentType":5126,"count":25,"type":"VEC3","min":[-0.054999999701976776,5.199999809265137,-1.0549999475479126],"max":[0.054999999701976776,9.600000381469727,-0.9449999928474426]},{"bufferView":92,"componentType":5126,"count":25,"type":"VEC3"},{"bufferView":93,"componentType":5126,"count":25,"type":"VEC3","min":[-0.054999999701976776,5.144999980926514,-5.400000095367432],"max":[0.054999999701976776,5.255000114440918,-1]},{"bufferView":94,"componentType":5126,"count":25,"type":"VEC3"},{"bufferView":95,"componentType":5126,"count":25,"type":"VEC3","min":[-0.054999999701976776,0.800000011920929,-1.0549999475479126],"max":[0.054999999701976776,5.199999809265137,-0.9449999928474426]},{"bufferView":96,"componentType":5126,"count":25,"type":"VEC3"},{"bufferView":97,"componentType":5126,"count":25,"type":"VEC3","min":[-3.565385341644287,0.08753799647092819,-1.2000000476837158],"max":[0.16538530588150024,5.312461853027344,-0.800000011920929]},{"bufferView":98,"componentType":5126,"count":25,"type":"VEC3"},{"bufferView":99,"componentType":5126,"count":25,"type":"VEC2"},{"bufferView":100,"componentType":5126,"count":25,"type":"VEC3","min":[-0.16538530588150024,0.08753799647092819,-1.2000000476837158],"max":[3.565385341644287,5.312461853027344,-0.800000011920929]},{"bufferView":101,"componentType":5126,"count":25,"type":"VEC3"}],"extensionsUsed":["KHR_materials_unlit"],"extras":{"id":"vlt-county-fair-midway-31","family":"county-fair-midway","variant":30,"plan":"C1-2","units":"metres","up":"+Y","front":"+Z","lodScenes":[0,1,2]}}