{"asset":{"version":"2.0","generator":"SLOPMERICA Department of Unnecessary Development 1.0"},"scene":0,"scenes":[{"name":"LOD 0","nodes":[0,1,2,3,4,5,6,7,8,9,10,11,12,13,14],"extras":{"level":0}},{"name":"LOD 1","nodes":[15,16,17,18,19,20,21,22,23,24,25,26],"extras":{"level":1}},{"name":"LOD 2","nodes":[27,28,29,30,31,32,33,34],"extras":{"level":2}}],"nodes":[{"name":"foundation","mesh":0,"translation":[0,0.08,0],"scale":[14.68,0.16,19.57]},{"name":"wash-tunnel","mesh":1,"translation":[0,2.475,0],"scale":[12.48,4.95,17.37]},{"name":"wash-arch-0","mesh":2,"translation":[0,2.376,-6.6006],"rotation":[0.707107,0,0,0.707107]},{"name":"wash-arch-1","mesh":3,"translation":[0,2.376,-2.2581],"rotation":[0.707107,0,0,0.707107]},{"name":"wash-arch-2","mesh":2,"translation":[0,2.376,2.0844],"rotation":[0.707107,0,0,0.707107]},{"name":"wash-arch-3","mesh":3,"translation":[0,2.376,6.4269],"rotation":[0.707107,0,0,0.707107]},{"name":"tunnel-mouth","mesh":4,"translation":[0,1.683,8.775],"scale":[7.2384,3.2175,0.15]},{"name":"wash-sign-back","mesh":5,"translation":[0,4.059,8.805],"scale":[6.964,1.1,1]},{"name":"wash-sign","mesh":6,"translation":[0,4.059,8.834],"scale":[6.864,1,1]},{"name":"busy-state-queue-bar","mesh":7,"translation":[0,0.65,10.9431],"scale":[8.9856,0.12,0.12]},{"name":"queue-car-0","mesh":8,"translation":[-3.744,0.34,12.159],"scale":[1.35,0.65,0.7]},{"name":"queue-car-1","mesh":9,"translation":[-1.872,0.34,13.5486],"scale":[1.35,0.65,0.7]},{"name":"queue-car-2","mesh":8,"translation":[0,0.34,12.159],"scale":[1.35,0.65,0.7]},{"name":"queue-car-3","mesh":9,"translation":[1.872,0.34,13.5486],"scale":[1.35,0.65,0.7]},{"name":"queue-car-4","mesh":8,"translation":[3.744,0.34,12.159],"scale":[1.35,0.65,0.7]},{"name":"foundation","mesh":10,"translation":[0,0.08,0],"scale":[14.68,0.16,19.57]},{"name":"wash-tunnel","mesh":11,"translation":[0,2.475,0],"scale":[12.48,4.95,17.37]},{"name":"wash-arch-0","mesh":12,"translation":[0,2.376,-6.6006],"rotation":[0.707107,0,0,0.707107]},{"name":"wash-arch-1","mesh":13,"translation":[0,2.376,-2.2581],"rotation":[0.707107,0,0,0.707107]},{"name":"wash-arch-2","mesh":12,"translation":[0,2.376,2.0844],"rotation":[0.707107,0,0,0.707107]},{"name":"tunnel-mouth","mesh":14,"translation":[0,1.683,8.775],"scale":[7.2384,3.2175,0.15]},{"name":"wash-sign-back","mesh":5,"translation":[0,4.059,8.805],"scale":[6.964,1.1,1]},{"name":"wash-sign","mesh":6,"translation":[0,4.059,8.834],"scale":[6.864,1,1]},{"name":"busy-state-queue-bar","mesh":15,"translation":[0,0.65,10.9431],"scale":[8.9856,0.12,0.12]},{"name":"queue-car-0","mesh":16,"translation":[-3.744,0.34,12.159],"scale":[1.35,0.65,0.7]},{"name":"queue-car-1","mesh":17,"translation":[-1.872,0.34,13.5486],"scale":[1.35,0.65,0.7]},{"name":"queue-car-2","mesh":16,"translation":[0,0.34,12.159],"scale":[1.35,0.65,0.7]},{"name":"foundation","mesh":10,"translation":[0,0.08,0],"scale":[14.68,0.16,19.57]},{"name":"wash-tunnel","mesh":11,"translation":[0,2.475,0],"scale":[12.48,4.95,17.37]},{"name":"wash-arch-0","mesh":18,"translation":[0,2.376,-6.6006],"rotation":[0.707107,0,0,0.707107]},{"name":"tunnel-mouth","mesh":14,"translation":[0,1.683,8.775],"scale":[7.2384,3.2175,0.15]},{"name":"wash-sign-back","mesh":5,"translation":[0,4.059,8.805],"scale":[6.964,1.1,1]},{"name":"wash-sign","mesh":6,"translation":[0,4.059,8.834],"scale":[6.864,1,1]},{"name":"busy-state-queue-bar","mesh":15,"translation":[0,0.65,10.9431],"scale":[8.9856,0.12,0.12]},{"name":"queue-car-0","mesh":16,"translation":[-3.744,0.34,12.159],"scale":[1.35,0.65,0.7]}],"meshes":[{"primitives":[{"attributes":{"POSITION":0,"NORMAL":1,"TEXCOORD_0":2},"material":0,"mode":4}]},{"primitives":[{"attributes":{"POSITION":3,"NORMAL":1,"TEXCOORD_0":4},"material":1,"mode":4}]},{"primitives":[{"attributes":{"POSITION":5,"NORMAL":6,"TEXCOORD_0":7},"material":1,"mode":4,"indices":8}]},{"primitives":[{"attributes":{"POSITION":5,"NORMAL":6,"TEXCOORD_0":7},"material":2,"mode":4,"indices":8}]},{"primitives":[{"attributes":{"POSITION":0,"NORMAL":1,"TEXCOORD_0":9},"material":3,"mode":4}]},{"primitives":[{"attributes":{"POSITION":10,"NORMAL":11,"TEXCOORD_0":12},"material":3,"mode":4,"indices":13}]},{"primitives":[{"attributes":{"POSITION":14,"NORMAL":15,"TEXCOORD_0":16},"material":4,"mode":4,"indices":17}]},{"primitives":[{"attributes":{"POSITION":0,"NORMAL":1,"TEXCOORD_0":18},"material":1,"mode":4}]},{"primitives":[{"attributes":{"POSITION":0,"NORMAL":1,"TEXCOORD_0":19},"material":5,"mode":4}]},{"primitives":[{"attributes":{"POSITION":0,"NORMAL":1,"TEXCOORD_0":19},"material":1,"mode":4}]},{"primitives":[{"attributes":{"POSITION":20,"NORMAL":11,"TEXCOORD_0":21},"material":0,"mode":4,"indices":13}]},{"primitives":[{"attributes":{"POSITION":20,"NORMAL":11,"TEXCOORD_0":22},"material":1,"mode":4,"indices":13}]},{"primitives":[{"attributes":{"POSITION":23,"NORMAL":24,"TEXCOORD_0":25},"material":1,"mode":4,"indices":26}]},{"primitives":[{"attributes":{"POSITION":23,"NORMAL":24,"TEXCOORD_0":25},"material":2,"mode":4,"indices":26}]},{"primitives":[{"attributes":{"POSITION":20,"NORMAL":11,"TEXCOORD_0":27},"material":3,"mode":4,"indices":13}]},{"primitives":[{"attributes":{"POSITION":20,"NORMAL":11,"TEXCOORD_0":28},"material":1,"mode":4,"indices":13}]},{"primitives":[{"attributes":{"POSITION":20,"NORMAL":11,"TEXCOORD_0":29},"material":5,"mode":4,"indices":13}]},{"primitives":[{"attributes":{"POSITION":20,"NORMAL":11,"TEXCOORD_0":29},"material":1,"mode":4,"indices":13}]},{"primitives":[{"attributes":{"POSITION":30,"NORMAL":31,"TEXCOORD_0":32},"material":1,"mode":4,"indices":33}]}],"materials":[{"name":"concrete","pbrMetallicRoughness":{"baseColorTexture":{"index":0},"metallicRoughnessTexture":{"index":2},"roughnessFactor":1,"metallicFactor":1},"normalTexture":{"index":1,"scale":0.82},"occlusionTexture":{"index":2,"strength":0.35}},{"name":"paint-blue","pbrMetallicRoughness":{"baseColorFactor":[0.05126945836711539,0.10946171076915331,0.22696587349938613,1],"roughnessFactor":0.58,"metallicFactor":0.05}},{"name":"paint-yellow","pbrMetallicRoughness":{"baseColorFactor":[0.76052450467022,0.4793201830913402,0.07818742179702069,1],"roughnessFactor":0.66,"metallicFactor":0.03}},{"name":"metal-dark","pbrMetallicRoughness":{"baseColorTexture":{"index":3},"metallicRoughnessTexture":{"index":5},"roughnessFactor":1,"metallicFactor":1},"normalTexture":{"index":4,"scale":0.35},"occlusionTexture":{"index":5,"strength":0.35}},{"name":"wash-n-worship signage","pbrMetallicRoughness":{"baseColorTexture":{"index":6},"roughnessFactor":1,"metallicFactor":0},"extensions":{"KHR_materials_unlit":{}}},{"name":"paint-red","pbrMetallicRoughness":{"baseColorFactor":[0.46778379610254284,0.08021982030622662,0.05126945836711539,1],"roughnessFactor":0.62,"metallicFactor":0.05}}],"textures":[{"source":0,"sampler":0},{"source":1,"sampler":0},{"source":2,"sampler":0},{"source":3,"sampler":0},{"source":4,"sampler":0},{"source":5,"sampler":0},{"source":6,"sampler":0}],"images":[{"uri":"../textures/concrete-albedo.png"},{"uri":"../textures/concrete-normal.png"},{"uri":"../textures/concrete-orm.png"},{"uri":"../textures/metal-dark-albedo.png"},{"uri":"../textures/metal-dark-normal.png"},{"uri":"../textures/metal-dark-orm.png"},{"uri":"../signs/wash-n-worship.png"}],"samplers":[{"magFilter":9729,"minFilter":9987,"wrapS":10497,"wrapT":10497}],"buffers":[{"uri":"../shared/geometry.bin","byteLength":16435520}],"bufferViews":[{"buffer":0,"byteOffset":0,"byteLength":3888,"target":34962},{"buffer":0,"byteOffset":3888,"byteLength":3888,"target":34962},{"buffer":0,"byteOffset":15946304,"byteLength":2592,"target":34962},{"buffer":0,"byteOffset":868536,"byteLength":3888,"target":34962},{"buffer":0,"byteOffset":15948896,"byteLength":2592,"target":34962},{"buffer":0,"byteOffset":15899636,"byteLength":3132,"target":34962},{"buffer":0,"byteOffset":6760260,"byteLength":3132,"target":34962},{"buffer":0,"byteOffset":393836,"byteLength":2088,"target":34962},{"buffer":0,"byteOffset":395924,"byteLength":2688,"target":34963},{"buffer":0,"byteOffset":15902768,"byteLength":2592,"target":34962},{"buffer":0,"byteOffset":45664,"byteLength":288,"target":34962},{"buffer":0,"byteOffset":45952,"byteLength":288,"target":34962},{"buffer":0,"byteOffset":46240,"byteLength":192,"target":34962},{"buffer":0,"byteOffset":46432,"byteLength":72,"target":34963},{"buffer":0,"byteOffset":46504,"byteLength":48,"target":34962},{"buffer":0,"byteOffset":46552,"byteLength":48,"target":34962},{"buffer":0,"byteOffset":222596,"byteLength":32,"target":34962},{"buffer":0,"byteOffset":46632,"byteLength":12,"target":34963},{"buffer":0,"byteOffset":1914332,"byteLength":2592,"target":34962},{"buffer":0,"byteOffset":582912,"byteLength":2592,"target":34962},{"buffer":0,"byteOffset":46644,"byteLength":288,"target":34962},{"buffer":0,"byteOffset":15951488,"byteLength":192,"target":34962},{"buffer":0,"byteOffset":15951680,"byteLength":192,"target":34962},{"buffer":0,"byteOffset":15905744,"byteLength":1428,"target":34962},{"buffer":0,"byteOffset":6778396,"byteLength":1428,"target":34962},{"buffer":0,"byteOffset":429424,"byteLength":952,"target":34962},{"buffer":0,"byteOffset":430376,"byteLength":1152,"target":34963},{"buffer":0,"byteOffset":15907172,"byteLength":192,"target":34962},{"buffer":0,"byteOffset":1916924,"byteLength":192,"target":34962},{"buffer":0,"byteOffset":585696,"byteLength":192,"target":34962},{"buffer":0,"byteOffset":15907364,"byteLength":660,"target":34962},{"buffer":0,"byteOffset":6785916,"byteLength":660,"target":34962},{"buffer":0,"byteOffset":438448,"byteLength":440,"target":34962},{"buffer":0,"byteOffset":438888,"byteLength":480,"target":34963}],"accessors":[{"bufferView":0,"componentType":5126,"count":324,"type":"VEC3","min":[-0.5,-0.5,-0.5],"max":[0.5,0.5,0.5]},{"bufferView":1,"componentType":5126,"count":324,"type":"VEC3"},{"bufferView":2,"componentType":5126,"count":324,"type":"VEC2"},{"bufferView":3,"componentType":5126,"count":324,"type":"VEC3","min":[-0.5,-0.5,-0.5],"max":[0.5,0.5,0.5]},{"bufferView":4,"componentType":5126,"count":324,"type":"VEC2"},{"bufferView":5,"componentType":5126,"count":261,"type":"VEC3","min":[-1.6649999618530273,0,-0.18000000715255737],"max":[1.6649999618530273,1.6649999618530273,0.18000000715255737]},{"bufferView":6,"componentType":5126,"count":261,"type":"VEC3"},{"bufferView":7,"componentType":5126,"count":261,"type":"VEC2"},{"bufferView":8,"componentType":5123,"count":1344,"type":"SCALAR"},{"bufferView":9,"componentType":5126,"count":324,"type":"VEC2"},{"bufferView":10,"componentType":5126,"count":24,"type":"VEC3","min":[-0.5,-0.5,-0.02500000037252903],"max":[0.5,0.5,0.02500000037252903]},{"bufferView":11,"componentType":5126,"count":24,"type":"VEC3"},{"bufferView":12,"componentType":5126,"count":24,"type":"VEC2"},{"bufferView":13,"componentType":5123,"count":36,"type":"SCALAR"},{"bufferView":14,"componentType":5126,"count":4,"type":"VEC3","min":[-0.5,-0.5,0],"max":[0.5,0.5,0]},{"bufferView":15,"componentType":5126,"count":4,"type":"VEC3"},{"bufferView":16,"componentType":5126,"count":4,"type":"VEC2"},{"bufferView":17,"componentType":5123,"count":6,"type":"SCALAR"},{"bufferView":18,"componentType":5126,"count":324,"type":"VEC2"},{"bufferView":19,"componentType":5126,"count":324,"type":"VEC2"},{"bufferView":20,"componentType":5126,"count":24,"type":"VEC3","min":[-0.5,-0.5,-0.5],"max":[0.5,0.5,0.5]},{"bufferView":21,"componentType":5126,"count":24,"type":"VEC2"},{"bufferView":22,"componentType":5126,"count":24,"type":"VEC2"},{"bufferView":23,"componentType":5126,"count":119,"type":"VEC3","min":[-1.6649999618530273,0,-0.15588457882404327],"max":[1.6649999618530273,1.6649999618530273,0.15588457882404327]},{"bufferView":24,"componentType":5126,"count":119,"type":"VEC3"},{"bufferView":25,"componentType":5126,"count":119,"type":"VEC2"},{"bufferView":26,"componentType":5123,"count":576,"type":"SCALAR"},{"bufferView":27,"componentType":5126,"count":24,"type":"VEC2"},{"bufferView":28,"componentType":5126,"count":24,"type":"VEC2"},{"bufferView":29,"componentType":5126,"count":24,"type":"VEC2"},{"bufferView":30,"componentType":5126,"count":55,"type":"VEC3","min":[-1.6649999618530273,0,-0.18000000715255737],"max":[1.6649999618530273,1.6649999618530273,0.18000000715255737]},{"bufferView":31,"componentType":5126,"count":55,"type":"VEC3"},{"bufferView":32,"componentType":5126,"count":55,"type":"VEC2"},{"bufferView":33,"componentType":5123,"count":240,"type":"SCALAR"}],"extensionsUsed":["KHR_materials_unlit"],"extras":{"id":"vlt-wash-n-worship-28","family":"wash-n-worship","variant":27,"plan":"B3-2","units":"metres","up":"+Y","front":"+Z","lodScenes":[0,1,2]}}