{"asset":{"version":"2.0","generator":"SLOPMERICA Department of Unnecessary Development 1.0"},"scene":0,"scenes":[{"name":"LOD 0","nodes":[0,1,2,3,4,5,6,7,8,9,10,11,12,13,14,15,16,17],"extras":{"level":0}},{"name":"LOD 1","nodes":[18,19,20,21,22,23,24,25,26,27,28,29,30,31,32,33,34,35],"extras":{"level":1}},{"name":"LOD 2","nodes":[36,37,38,39,40,41,42,43,44,45,46],"extras":{"level":2}}],"nodes":[{"name":"site-pad","mesh":0,"translation":[0,0.06,0],"scale":[13.9776,0.12,8.9856]},{"name":"variant-apron","mesh":1,"translation":[2.6208,0.13,4.54],"scale":[3.2928,0.08,1.34]},{"name":"bollard-0","mesh":2,"translation":[-5.1072,0.43,4.66],"scale":[0.08,0.74,0.08]},{"name":"bollard-1","mesh":2,"translation":[5.1072,0.43,4.66],"scale":[0.08,0.74,0.08]},{"name":"layout-cabinet","mesh":3,"translation":[6.92,0.525,1.944],"scale":[0.81,0.81,0.32]},{"name":"industrial-shell","mesh":4,"translation":[0,2.5825,0],"scale":[13.44,4.925,8.64]},{"name":"industrial-roof","mesh":5,"translation":[0,5.195,0],"scale":[13.79,0.28,8.99]},{"name":"loading-bay-0","mesh":6,"translation":[-5.1072,1.38,4.44],"scale":[2.2,2.5,0.16]},{"name":"dock-0","mesh":7,"translation":[-5.1072,0.35,4.9],"scale":[1.8,0.45,1]},{"name":"loading-bay-1","mesh":6,"translation":[0,1.38,4.44],"scale":[2.2,2.5,0.16]},{"name":"dock-1","mesh":7,"translation":[0,0.35,4.9],"scale":[1.8,0.45,1]},{"name":"loading-bay-2","mesh":6,"translation":[5.1072,1.38,4.44],"scale":[2.2,2.5,0.16]},{"name":"dock-2","mesh":7,"translation":[5.1072,0.35,4.9],"scale":[1.8,0.45,1]},{"name":"material-bin-0","mesh":8,"translation":[-5.1072,0.85,-5.32],"scale":[1.6,1.46,1.7]},{"name":"material-bin-1","mesh":9,"translation":[-3.2072,0.85,-5.32],"scale":[1.6,1.46,1.7]},{"name":"material-bin-2","mesh":8,"translation":[-1.3072,0.85,-5.32],"scale":[1.6,1.46,1.7]},{"name":"material-bin-3","mesh":9,"translation":[0.5928,0.85,-5.32],"scale":[1.6,1.46,1.7]},{"name":"salt-silo","mesh":10,"translation":[4.5696,3.045,-1.9008],"scale":[1.43,5.85,1.43]},{"name":"site-pad","mesh":11,"translation":[0,0.06,0],"scale":[13.9776,0.12,8.9856]},{"name":"variant-apron","mesh":12,"translation":[2.6208,0.13,4.54],"scale":[3.2928,0.08,1.34]},{"name":"bollard-0","mesh":13,"translation":[-5.1072,0.43,4.66],"scale":[0.08,0.74,0.08]},{"name":"bollard-1","mesh":13,"translation":[5.1072,0.43,4.66],"scale":[0.08,0.74,0.08]},{"name":"layout-cabinet","mesh":14,"translation":[6.92,0.525,1.944],"scale":[0.81,0.81,0.32]},{"name":"industrial-shell","mesh":15,"translation":[0,2.5825,0],"scale":[13.44,4.925,8.64]},{"name":"industrial-roof","mesh":16,"translation":[0,5.195,0],"scale":[13.79,0.28,8.99]},{"name":"loading-bay-0","mesh":17,"translation":[-5.1072,1.38,4.44],"scale":[2.2,2.5,0.16]},{"name":"dock-0","mesh":18,"translation":[-5.1072,0.35,4.9],"scale":[1.8,0.45,1]},{"name":"loading-bay-1","mesh":17,"translation":[0,1.38,4.44],"scale":[2.2,2.5,0.16]},{"name":"dock-1","mesh":18,"translation":[0,0.35,4.9],"scale":[1.8,0.45,1]},{"name":"loading-bay-2","mesh":17,"translation":[5.1072,1.38,4.44],"scale":[2.2,2.5,0.16]},{"name":"dock-2","mesh":18,"translation":[5.1072,0.35,4.9],"scale":[1.8,0.45,1]},{"name":"material-bin-0","mesh":19,"translation":[-5.1072,0.85,-5.32],"scale":[1.6,1.46,1.7]},{"name":"material-bin-1","mesh":20,"translation":[-3.2072,0.85,-5.32],"scale":[1.6,1.46,1.7]},{"name":"material-bin-2","mesh":19,"translation":[-1.3072,0.85,-5.32],"scale":[1.6,1.46,1.7]},{"name":"material-bin-3","mesh":20,"translation":[0.5928,0.85,-5.32],"scale":[1.6,1.46,1.7]},{"name":"salt-silo","mesh":21,"translation":[4.5696,3.045,-1.9008],"scale":[1.43,5.85,1.43]},{"name":"site-pad","mesh":11,"translation":[0,0.06,0],"scale":[13.9776,0.12,8.9856]},{"name":"variant-apron","mesh":12,"translation":[2.6208,0.13,4.54],"scale":[3.2928,0.08,1.34]},{"name":"bollard-0","mesh":13,"translation":[-5.1072,0.43,4.66],"scale":[0.08,0.74,0.08]},{"name":"layout-cabinet","mesh":14,"translation":[6.92,0.525,1.944],"scale":[0.81,0.81,0.32]},{"name":"industrial-shell","mesh":15,"translation":[0,2.5825,0],"scale":[13.44,4.925,8.64]},{"name":"industrial-roof","mesh":16,"translation":[0,5.195,0],"scale":[13.79,0.28,8.99]},{"name":"loading-bay-0","mesh":17,"translation":[-5.1072,1.38,4.44],"scale":[2.2,2.5,0.16]},{"name":"loading-bay-1","mesh":17,"translation":[5.1072,1.38,4.44],"scale":[2.2,2.5,0.16]},{"name":"material-bin-0","mesh":19,"translation":[-5.1072,0.85,-5.32],"scale":[1.6,1.46,1.7]},{"name":"material-bin-1","mesh":20,"translation":[-3.2072,0.85,-5.32],"scale":[1.6,1.46,1.7]},{"name":"salt-silo","mesh":21,"translation":[4.5696,3.045,-1.9008],"scale":[1.43,5.85,1.43]}],"meshes":[{"primitives":[{"attributes":{"POSITION":0,"NORMAL":1,"TEXCOORD_0":2},"material":0,"mode":4}]},{"primitives":[{"attributes":{"POSITION":0,"NORMAL":1,"TEXCOORD_0":3},"material":0,"mode":4}]},{"primitives":[{"attributes":{"POSITION":4,"NORMAL":5,"TEXCOORD_0":6},"material":1,"mode":4,"indices":7}]},{"primitives":[{"attributes":{"POSITION":0,"NORMAL":1,"TEXCOORD_0":8},"material":2,"mode":4}]},{"primitives":[{"attributes":{"POSITION":9,"NORMAL":1,"TEXCOORD_0":10},"material":3,"mode":4}]},{"primitives":[{"attributes":{"POSITION":0,"NORMAL":1,"TEXCOORD_0":11},"material":4,"mode":4}]},{"primitives":[{"attributes":{"POSITION":0,"NORMAL":1,"TEXCOORD_0":12},"material":5,"mode":4}]},{"primitives":[{"attributes":{"POSITION":0,"NORMAL":1,"TEXCOORD_0":13},"material":6,"mode":4}]},{"primitives":[{"attributes":{"POSITION":14,"NORMAL":1,"TEXCOORD_0":15},"material":6,"mode":4}]},{"primitives":[{"attributes":{"POSITION":14,"NORMAL":1,"TEXCOORD_0":16},"material":7,"mode":4}]},{"primitives":[{"attributes":{"POSITION":17,"NORMAL":18,"TEXCOORD_0":19},"material":2,"mode":4,"indices":7}]},{"primitives":[{"attributes":{"POSITION":20,"NORMAL":21,"TEXCOORD_0":22},"material":0,"mode":4,"indices":23}]},{"primitives":[{"attributes":{"POSITION":20,"NORMAL":21,"TEXCOORD_0":24},"material":0,"mode":4,"indices":23}]},{"primitives":[{"attributes":{"POSITION":25,"NORMAL":26,"TEXCOORD_0":27},"material":1,"mode":4,"indices":28}]},{"primitives":[{"attributes":{"POSITION":20,"NORMAL":21,"TEXCOORD_0":29},"material":2,"mode":4,"indices":23}]},{"primitives":[{"attributes":{"POSITION":20,"NORMAL":21,"TEXCOORD_0":30},"material":3,"mode":4,"indices":23}]},{"primitives":[{"attributes":{"POSITION":20,"NORMAL":21,"TEXCOORD_0":31},"material":4,"mode":4,"indices":23}]},{"primitives":[{"attributes":{"POSITION":20,"NORMAL":21,"TEXCOORD_0":32},"material":5,"mode":4,"indices":23}]},{"primitives":[{"attributes":{"POSITION":20,"NORMAL":21,"TEXCOORD_0":33},"material":6,"mode":4,"indices":23}]},{"primitives":[{"attributes":{"POSITION":20,"NORMAL":21,"TEXCOORD_0":34},"material":6,"mode":4,"indices":23}]},{"primitives":[{"attributes":{"POSITION":20,"NORMAL":21,"TEXCOORD_0":35},"material":7,"mode":4,"indices":23}]},{"primitives":[{"attributes":{"POSITION":36,"NORMAL":37,"TEXCOORD_0":38},"material":2,"mode":4,"indices":28}]}],"materials":[{"name":"asphalt","pbrMetallicRoughness":{"baseColorTexture":{"index":0},"metallicRoughnessTexture":{"index":2},"roughnessFactor":1,"metallicFactor":1},"normalTexture":{"index":1,"scale":0.62},"occlusionTexture":{"index":2,"strength":0.35}},{"name":"paint-yellow","pbrMetallicRoughness":{"baseColorFactor":[0.76052450467022,0.4793201830913402,0.07818742179702069,1],"roughnessFactor":0.66,"metallicFactor":0.03}},{"name":"metal-galvanized","pbrMetallicRoughness":{"baseColorTexture":{"index":3},"metallicRoughnessTexture":{"index":5},"roughnessFactor":1,"metallicFactor":1},"normalTexture":{"index":4,"scale":0.15},"occlusionTexture":{"index":5,"strength":0.35}},{"name":"brick-cream","pbrMetallicRoughness":{"baseColorTexture":{"index":6},"metallicRoughnessTexture":{"index":8},"roughnessFactor":1,"metallicFactor":1},"normalTexture":{"index":7,"scale":1.05},"occlusionTexture":{"index":8,"strength":0.35}},{"name":"roof-metal","pbrMetallicRoughness":{"baseColorTexture":{"index":9},"metallicRoughnessTexture":{"index":11},"roughnessFactor":1,"metallicFactor":1},"normalTexture":{"index":10,"scale":0.68},"occlusionTexture":{"index":11,"strength":0.35}},{"name":"metal-dark","pbrMetallicRoughness":{"baseColorTexture":{"index":12},"metallicRoughnessTexture":{"index":14},"roughnessFactor":1,"metallicFactor":1},"normalTexture":{"index":13,"scale":0.35},"occlusionTexture":{"index":14,"strength":0.35}},{"name":"concrete","pbrMetallicRoughness":{"baseColorTexture":{"index":15},"metallicRoughnessTexture":{"index":17},"roughnessFactor":1,"metallicFactor":1},"normalTexture":{"index":16,"scale":0.82},"occlusionTexture":{"index":17,"strength":0.35}},{"name":"soil","pbrMetallicRoughness":{"baseColorTexture":{"index":18},"metallicRoughnessTexture":{"index":20},"roughnessFactor":1,"metallicFactor":1},"normalTexture":{"index":19,"scale":0.8},"occlusionTexture":{"index":20,"strength":0.35}}],"textures":[{"source":0,"sampler":0},{"source":1,"sampler":0},{"source":2,"sampler":0},{"source":3,"sampler":0},{"source":4,"sampler":0},{"source":5,"sampler":0},{"source":6,"sampler":0},{"source":7,"sampler":0},{"source":8,"sampler":0},{"source":9,"sampler":0},{"source":10,"sampler":0},{"source":11,"sampler":0},{"source":12,"sampler":0},{"source":13,"sampler":0},{"source":14,"sampler":0},{"source":15,"sampler":0},{"source":16,"sampler":0},{"source":17,"sampler":0},{"source":18,"sampler":0},{"source":19,"sampler":0},{"source":20,"sampler":0}],"images":[{"uri":"../textures/asphalt-albedo.png"},{"uri":"../textures/asphalt-normal.png"},{"uri":"../textures/asphalt-orm.png"},{"uri":"../textures/metal-galvanized-albedo.png"},{"uri":"../textures/metal-galvanized-normal.png"},{"uri":"../textures/metal-galvanized-orm.png"},{"uri":"../textures/brick-cream-albedo.png"},{"uri":"../textures/brick-cream-normal.png"},{"uri":"../textures/brick-cream-orm.png"},{"uri":"../textures/roof-metal-albedo.png"},{"uri":"../textures/roof-metal-normal.png"},{"uri":"../textures/roof-metal-orm.png"},{"uri":"../textures/metal-dark-albedo.png"},{"uri":"../textures/metal-dark-normal.png"},{"uri":"../textures/metal-dark-orm.png"},{"uri":"../textures/concrete-albedo.png"},{"uri":"../textures/concrete-normal.png"},{"uri":"../textures/concrete-orm.png"},{"uri":"../textures/soil-albedo.png"},{"uri":"../textures/soil-normal.png"},{"uri":"../textures/soil-orm.png"}],"samplers":[{"magFilter":9729,"minFilter":9987,"wrapS":10497,"wrapT":10497}],"buffers":[{"uri":"../shared/geometry.bin","byteLength":16435520}],"bufferViews":[{"buffer":0,"byteOffset":0,"byteLength":3888,"target":34962},{"buffer":0,"byteOffset":3888,"byteLength":3888,"target":34962},{"buffer":0,"byteOffset":11175424,"byteLength":2592,"target":34962},{"buffer":0,"byteOffset":11289184,"byteLength":2592,"target":34962},{"buffer":0,"byteOffset":12960,"byteLength":1200,"target":34962},{"buffer":0,"byteOffset":14160,"byteLength":1200,"target":34962},{"buffer":0,"byteOffset":179140,"byteLength":800,"target":34962},{"buffer":0,"byteOffset":16160,"byteLength":384,"target":34963},{"buffer":0,"byteOffset":185860,"byteLength":2592,"target":34962},{"buffer":0,"byteOffset":33392,"byteLength":3888,"target":34962},{"buffer":0,"byteOffset":11180608,"byteLength":2592,"target":34962},{"buffer":0,"byteOffset":11183200,"byteLength":2592,"target":34962},{"buffer":0,"byteOffset":28208,"byteLength":2592,"target":34962},{"buffer":0,"byteOffset":30800,"byteLength":2592,"target":34962},{"buffer":0,"byteOffset":5651632,"byteLength":3888,"target":34962},{"buffer":0,"byteOffset":11282496,"byteLength":2592,"target":34962},{"buffer":0,"byteOffset":11285088,"byteLength":2592,"target":34962},{"buffer":0,"byteOffset":11185792,"byteLength":1200,"target":34962},{"buffer":0,"byteOffset":11186992,"byteLength":1200,"target":34962},{"buffer":0,"byteOffset":11291776,"byteLength":800,"target":34962},{"buffer":0,"byteOffset":46644,"byteLength":288,"target":34962},{"buffer":0,"byteOffset":45952,"byteLength":288,"target":34962},{"buffer":0,"byteOffset":11188992,"byteLength":192,"target":34962},{"buffer":0,"byteOffset":46432,"byteLength":72,"target":34963},{"buffer":0,"byteOffset":11292576,"byteLength":192,"target":34962},{"buffer":0,"byteOffset":47316,"byteLength":480,"target":34962},{"buffer":0,"byteOffset":47796,"byteLength":480,"target":34962},{"buffer":0,"byteOffset":182756,"byteLength":320,"target":34962},{"buffer":0,"byteOffset":48596,"byteLength":144,"target":34963},{"buffer":0,"byteOffset":188676,"byteLength":192,"target":34962},{"buffer":0,"byteOffset":11189376,"byteLength":192,"target":34962},{"buffer":0,"byteOffset":11189568,"byteLength":192,"target":34962},{"buffer":0,"byteOffset":49316,"byteLength":192,"target":34962},{"buffer":0,"byteOffset":49508,"byteLength":192,"target":34962},{"buffer":0,"byteOffset":11288480,"byteLength":192,"target":34962},{"buffer":0,"byteOffset":11288672,"byteLength":192,"target":34962},{"buffer":0,"byteOffset":11189760,"byteLength":480,"target":34962},{"buffer":0,"byteOffset":11190240,"byteLength":480,"target":34962},{"buffer":0,"byteOffset":11292768,"byteLength":320,"target":34962}],"accessors":[{"bufferView":0,"componentType":5126,"count":324,"type":"VEC3","min":[-0.5,-0.5,-0.5],"max":[0.5,0.5,0.5]},{"bufferView":1,"componentType":5126,"count":324,"type":"VEC3"},{"bufferView":2,"componentType":5126,"count":324,"type":"VEC2"},{"bufferView":3,"componentType":5126,"count":324,"type":"VEC2"},{"bufferView":4,"componentType":5126,"count":100,"type":"VEC3","min":[-1,-0.5,-1],"max":[1,0.5,1]},{"bufferView":5,"componentType":5126,"count":100,"type":"VEC3"},{"bufferView":6,"componentType":5126,"count":100,"type":"VEC2"},{"bufferView":7,"componentType":5123,"count":192,"type":"SCALAR"},{"bufferView":8,"componentType":5126,"count":324,"type":"VEC2"},{"bufferView":9,"componentType":5126,"count":324,"type":"VEC3","min":[-0.5,-0.5,-0.5],"max":[0.5,0.5,0.5]},{"bufferView":10,"componentType":5126,"count":324,"type":"VEC2"},{"bufferView":11,"componentType":5126,"count":324,"type":"VEC2"},{"bufferView":12,"componentType":5126,"count":324,"type":"VEC2"},{"bufferView":13,"componentType":5126,"count":324,"type":"VEC2"},{"bufferView":14,"componentType":5126,"count":324,"type":"VEC3","min":[-0.5,-0.5,-0.5],"max":[0.5,0.5,0.5]},{"bufferView":15,"componentType":5126,"count":324,"type":"VEC2"},{"bufferView":16,"componentType":5126,"count":324,"type":"VEC2"},{"bufferView":17,"componentType":5126,"count":100,"type":"VEC3","min":[-1,-0.5,-1],"max":[1,0.5,1]},{"bufferView":18,"componentType":5126,"count":100,"type":"VEC3"},{"bufferView":19,"componentType":5126,"count":100,"type":"VEC2"},{"bufferView":20,"componentType":5126,"count":24,"type":"VEC3","min":[-0.5,-0.5,-0.5],"max":[0.5,0.5,0.5]},{"bufferView":21,"componentType":5126,"count":24,"type":"VEC3"},{"bufferView":22,"componentType":5126,"count":24,"type":"VEC2"},{"bufferView":23,"componentType":5123,"count":36,"type":"SCALAR"},{"bufferView":24,"componentType":5126,"count":24,"type":"VEC2"},{"bufferView":25,"componentType":5126,"count":40,"type":"VEC3","min":[-0.8660253882408142,-0.5,-1],"max":[0.8660253882408142,0.5,1]},{"bufferView":26,"componentType":5126,"count":40,"type":"VEC3"},{"bufferView":27,"componentType":5126,"count":40,"type":"VEC2"},{"bufferView":28,"componentType":5123,"count":72,"type":"SCALAR"},{"bufferView":29,"componentType":5126,"count":24,"type":"VEC2"},{"bufferView":30,"componentType":5126,"count":24,"type":"VEC2"},{"bufferView":31,"componentType":5126,"count":24,"type":"VEC2"},{"bufferView":32,"componentType":5126,"count":24,"type":"VEC2"},{"bufferView":33,"componentType":5126,"count":24,"type":"VEC2"},{"bufferView":34,"componentType":5126,"count":24,"type":"VEC2"},{"bufferView":35,"componentType":5126,"count":24,"type":"VEC2"},{"bufferView":36,"componentType":5126,"count":40,"type":"VEC3","min":[-0.8660253882408142,-0.5,-1],"max":[0.8660253882408142,0.5,1]},{"bufferView":37,"componentType":5126,"count":40,"type":"VEC3"},{"bufferView":38,"componentType":5126,"count":40,"type":"VEC2"}],"extensionsUsed":["KHR_materials_unlit"],"extras":{"id":"vlt-public-works-yard-17","family":"public-works-yard","variant":16,"plan":"D2-1","units":"metres","up":"+Y","front":"+Z","lodScenes":[0,1,2]}}