{"asset":{"version":"2.0","generator":"SLOPMERICA Department of Unnecessary Development 1.0"},"scene":0,"scenes":[{"name":"LOD 0","nodes":[0,1,2,3,4,5,6,7,8,9,10,11,12,13,14,15,16,17,18,19,20,21],"extras":{"level":0}},{"name":"LOD 1","nodes":[22,23,24,25,26,27,28,29,30,31,32,33,34,35,36,37,38,39,40,41,42,43],"extras":{"level":1}},{"name":"LOD 2","nodes":[44,45,46,47,48,49,50,51],"extras":{"level":2}}],"nodes":[{"name":"surveyed lot","mesh":0,"translation":[0,0.06,0],"scale":[18.24,0.12,16.32]},{"name":"ferris wheel rim","mesh":1,"translation":[0,5.55,-1],"rotation":[0,0.707107,0,0.707107]},{"name":"wheel spoke 0","mesh":2,"translation":[0,0,0]},{"name":"gondola 0","mesh":3,"translation":[0,5.55,3.75],"scale":[0.75,0.65,0.55]},{"name":"wheel spoke 1","mesh":4,"translation":[0,0,0]},{"name":"wheel spoke 2","mesh":5,"translation":[0,0,0]},{"name":"gondola 2","mesh":6,"translation":[0,10.067518,0.467831],"scale":[0.75,0.65,0.55]},{"name":"wheel spoke 3","mesh":7,"translation":[0,0,0]},{"name":"wheel spoke 4","mesh":8,"translation":[0,0,0]},{"name":"gondola 4","mesh":3,"translation":[0,8.34198,-4.842831],"scale":[0.75,0.65,0.55]},{"name":"wheel spoke 5","mesh":9,"translation":[0,0,0]},{"name":"wheel spoke 6","mesh":10,"translation":[0,0,0]},{"name":"gondola 6","mesh":6,"translation":[0,2.75802,-4.842831],"scale":[0.75,0.65,0.55]},{"name":"wheel spoke 7","mesh":11,"translation":[0,0,0]},{"name":"wheel spoke 8","mesh":12,"translation":[0,0,0]},{"name":"gondola 8","mesh":3,"translation":[0,1.032482,0.467831],"scale":[0.75,0.65,0.55]},{"name":"wheel spoke 9","mesh":13,"translation":[0,0,0]},{"name":"left wheel leg","mesh":14,"translation":[0,0,0]},{"name":"right wheel leg","mesh":15,"translation":[0,0,0]},{"name":"midway booth 0","mesh":16,"translation":[-6,1,6],"scale":[2.1,1.8,2]},{"name":"midway booth 1","mesh":17,"translation":[-3.3,1,6],"scale":[2.1,1.8,2]},{"name":"midway booth 2","mesh":16,"translation":[-0.6,1,6],"scale":[2.1,1.8,2]},{"name":"surveyed lot","mesh":18,"translation":[0,0.06,0],"scale":[18.24,0.12,16.32]},{"name":"ferris wheel rim","mesh":19,"translation":[0,5.55,-1],"rotation":[0,0.707107,0,0.707107]},{"name":"wheel spoke 0","mesh":20,"translation":[0,0,0]},{"name":"gondola 0","mesh":21,"translation":[0,5.55,3.75],"scale":[0.75,0.65,0.55]},{"name":"wheel spoke 1","mesh":22,"translation":[0,0,0]},{"name":"wheel spoke 2","mesh":23,"translation":[0,0,0]},{"name":"gondola 2","mesh":24,"translation":[0,10.067518,0.467831],"scale":[0.75,0.65,0.55]},{"name":"wheel spoke 3","mesh":25,"translation":[0,0,0]},{"name":"wheel spoke 4","mesh":26,"translation":[0,0,0]},{"name":"gondola 4","mesh":21,"translation":[0,8.34198,-4.842831],"scale":[0.75,0.65,0.55]},{"name":"wheel spoke 5","mesh":27,"translation":[0,0,0]},{"name":"wheel spoke 6","mesh":28,"translation":[0,0,0]},{"name":"gondola 6","mesh":24,"translation":[0,2.75802,-4.842831],"scale":[0.75,0.65,0.55]},{"name":"wheel spoke 7","mesh":29,"translation":[0,0,0]},{"name":"wheel spoke 8","mesh":30,"translation":[0,0,0]},{"name":"gondola 8","mesh":21,"translation":[0,1.032482,0.467831],"scale":[0.75,0.65,0.55]},{"name":"wheel spoke 9","mesh":31,"translation":[0,0,0]},{"name":"left wheel leg","mesh":32,"translation":[0,0,0]},{"name":"right wheel leg","mesh":33,"translation":[0,0,0]},{"name":"midway booth 0","mesh":34,"translation":[-6,1,6],"scale":[2.1,1.8,2]},{"name":"midway booth 1","mesh":35,"translation":[-3.3,1,6],"scale":[2.1,1.8,2]},{"name":"midway booth 2","mesh":34,"translation":[-0.6,1,6],"scale":[2.1,1.8,2]},{"name":"surveyed lot","mesh":18,"translation":[0,0.06,0],"scale":[18.24,0.12,16.32]},{"name":"ferris wheel rim","mesh":36,"translation":[0,5.55,-1],"rotation":[0,0.707107,0,0.707107]},{"name":"wheel spoke 0","mesh":37,"translation":[0,0,0]},{"name":"wheel spoke 1","mesh":38,"translation":[0,0,0]},{"name":"wheel spoke 2","mesh":39,"translation":[0,0,0]},{"name":"wheel spoke 3","mesh":40,"translation":[0,0,0]},{"name":"left wheel leg","mesh":41,"translation":[0,0,0]},{"name":"right wheel leg","mesh":42,"translation":[0,0,0]}],"meshes":[{"primitives":[{"attributes":{"POSITION":0,"NORMAL":1,"TEXCOORD_0":2},"material":0,"mode":4}]},{"primitives":[{"attributes":{"POSITION":3,"NORMAL":4,"TEXCOORD_0":5},"material":1,"mode":4,"indices":6}]},{"primitives":[{"attributes":{"POSITION":7,"NORMAL":8,"TEXCOORD_0":9},"material":2,"mode":4,"indices":10}]},{"primitives":[{"attributes":{"POSITION":0,"NORMAL":1,"TEXCOORD_0":11},"material":3,"mode":4}]},{"primitives":[{"attributes":{"POSITION":12,"NORMAL":13,"TEXCOORD_0":9},"material":2,"mode":4,"indices":10}]},{"primitives":[{"attributes":{"POSITION":14,"NORMAL":15,"TEXCOORD_0":9},"material":2,"mode":4,"indices":10}]},{"primitives":[{"attributes":{"POSITION":0,"NORMAL":1,"TEXCOORD_0":11},"material":4,"mode":4}]},{"primitives":[{"attributes":{"POSITION":16,"NORMAL":17,"TEXCOORD_0":9},"material":2,"mode":4,"indices":10}]},{"primitives":[{"attributes":{"POSITION":18,"NORMAL":19,"TEXCOORD_0":9},"material":2,"mode":4,"indices":10}]},{"primitives":[{"attributes":{"POSITION":20,"NORMAL":21,"TEXCOORD_0":9},"material":2,"mode":4,"indices":10}]},{"primitives":[{"attributes":{"POSITION":22,"NORMAL":23,"TEXCOORD_0":9},"material":2,"mode":4,"indices":10}]},{"primitives":[{"attributes":{"POSITION":24,"NORMAL":25,"TEXCOORD_0":9},"material":2,"mode":4,"indices":10}]},{"primitives":[{"attributes":{"POSITION":26,"NORMAL":27,"TEXCOORD_0":9},"material":2,"mode":4,"indices":10}]},{"primitives":[{"attributes":{"POSITION":28,"NORMAL":29,"TEXCOORD_0":9},"material":2,"mode":4,"indices":10}]},{"primitives":[{"attributes":{"POSITION":30,"NORMAL":31,"TEXCOORD_0":32},"material":1,"mode":4,"indices":10}]},{"primitives":[{"attributes":{"POSITION":33,"NORMAL":34,"TEXCOORD_0":32},"material":1,"mode":4,"indices":10}]},{"primitives":[{"attributes":{"POSITION":0,"NORMAL":1,"TEXCOORD_0":35},"material":4,"mode":4}]},{"primitives":[{"attributes":{"POSITION":0,"NORMAL":1,"TEXCOORD_0":35},"material":3,"mode":4}]},{"primitives":[{"attributes":{"POSITION":36,"NORMAL":37,"TEXCOORD_0":38},"material":0,"mode":4,"indices":39}]},{"primitives":[{"attributes":{"POSITION":40,"NORMAL":41,"TEXCOORD_0":42},"material":1,"mode":4,"indices":43}]},{"primitives":[{"attributes":{"POSITION":44,"NORMAL":45,"TEXCOORD_0":46},"material":2,"mode":4,"indices":47}]},{"primitives":[{"attributes":{"POSITION":36,"NORMAL":37,"TEXCOORD_0":48},"material":3,"mode":4,"indices":39}]},{"primitives":[{"attributes":{"POSITION":49,"NORMAL":50,"TEXCOORD_0":46},"material":2,"mode":4,"indices":47}]},{"primitives":[{"attributes":{"POSITION":51,"NORMAL":52,"TEXCOORD_0":46},"material":2,"mode":4,"indices":47}]},{"primitives":[{"attributes":{"POSITION":36,"NORMAL":37,"TEXCOORD_0":48},"material":4,"mode":4,"indices":39}]},{"primitives":[{"attributes":{"POSITION":53,"NORMAL":54,"TEXCOORD_0":46},"material":2,"mode":4,"indices":47}]},{"primitives":[{"attributes":{"POSITION":55,"NORMAL":56,"TEXCOORD_0":46},"material":2,"mode":4,"indices":47}]},{"primitives":[{"attributes":{"POSITION":57,"NORMAL":58,"TEXCOORD_0":46},"material":2,"mode":4,"indices":47}]},{"primitives":[{"attributes":{"POSITION":59,"NORMAL":60,"TEXCOORD_0":46},"material":2,"mode":4,"indices":47}]},{"primitives":[{"attributes":{"POSITION":61,"NORMAL":62,"TEXCOORD_0":46},"material":2,"mode":4,"indices":47}]},{"primitives":[{"attributes":{"POSITION":63,"NORMAL":64,"TEXCOORD_0":46},"material":2,"mode":4,"indices":47}]},{"primitives":[{"attributes":{"POSITION":65,"NORMAL":66,"TEXCOORD_0":46},"material":2,"mode":4,"indices":47}]},{"primitives":[{"attributes":{"POSITION":67,"NORMAL":68,"TEXCOORD_0":69},"material":1,"mode":4,"indices":47}]},{"primitives":[{"attributes":{"POSITION":70,"NORMAL":71,"TEXCOORD_0":69},"material":1,"mode":4,"indices":47}]},{"primitives":[{"attributes":{"POSITION":36,"NORMAL":37,"TEXCOORD_0":72},"material":4,"mode":4,"indices":39}]},{"primitives":[{"attributes":{"POSITION":36,"NORMAL":37,"TEXCOORD_0":72},"material":3,"mode":4,"indices":39}]},{"primitives":[{"attributes":{"POSITION":73,"NORMAL":74,"TEXCOORD_0":75},"material":1,"mode":4,"indices":76}]},{"primitives":[{"attributes":{"POSITION":77,"NORMAL":78,"TEXCOORD_0":79},"material":2,"mode":4,"indices":80}]},{"primitives":[{"attributes":{"POSITION":81,"NORMAL":82,"TEXCOORD_0":79},"material":2,"mode":4,"indices":80}]},{"primitives":[{"attributes":{"POSITION":83,"NORMAL":84,"TEXCOORD_0":79},"material":2,"mode":4,"indices":80}]},{"primitives":[{"attributes":{"POSITION":85,"NORMAL":86,"TEXCOORD_0":79},"material":2,"mode":4,"indices":80}]},{"primitives":[{"attributes":{"POSITION":87,"NORMAL":88,"TEXCOORD_0":89},"material":1,"mode":4,"indices":80}]},{"primitives":[{"attributes":{"POSITION":90,"NORMAL":91,"TEXCOORD_0":89},"material":1,"mode":4,"indices":80}]}],"materials":[{"name":"concrete","pbrMetallicRoughness":{"baseColorTexture":{"index":0},"metallicRoughnessTexture":{"index":2},"roughnessFactor":1,"metallicFactor":1},"normalTexture":{"index":1,"scale":0.82},"occlusionTexture":{"index":2,"strength":0.35}},{"name":"metal-dark","pbrMetallicRoughness":{"baseColorTexture":{"index":3},"metallicRoughnessTexture":{"index":5},"roughnessFactor":1,"metallicFactor":1},"normalTexture":{"index":4,"scale":0.35},"occlusionTexture":{"index":5,"strength":0.35}},{"name":"metal-galvanized","pbrMetallicRoughness":{"baseColorTexture":{"index":6},"metallicRoughnessTexture":{"index":8},"roughnessFactor":1,"metallicFactor":1},"normalTexture":{"index":7,"scale":0.15},"occlusionTexture":{"index":8,"strength":0.35}},{"name":"paint-red","pbrMetallicRoughness":{"baseColorFactor":[0.46778379610254284,0.08021982030622662,0.05126945836711539,1],"roughnessFactor":0.62,"metallicFactor":0.05}},{"name":"paint-yellow","pbrMetallicRoughness":{"baseColorFactor":[0.76052450467022,0.4793201830913402,0.07818742179702069,1],"roughnessFactor":0.66,"metallicFactor":0.03}}],"textures":[{"source":0,"sampler":0},{"source":1,"sampler":0},{"source":2,"sampler":0},{"source":3,"sampler":0},{"source":4,"sampler":0},{"source":5,"sampler":0},{"source":6,"sampler":0},{"source":7,"sampler":0},{"source":8,"sampler":0}],"images":[{"uri":"../textures/concrete-albedo.png"},{"uri":"../textures/concrete-normal.png"},{"uri":"../textures/concrete-orm.png"},{"uri":"../textures/metal-dark-albedo.png"},{"uri":"../textures/metal-dark-normal.png"},{"uri":"../textures/metal-dark-orm.png"},{"uri":"../textures/metal-galvanized-albedo.png"},{"uri":"../textures/metal-galvanized-normal.png"},{"uri":"../textures/metal-galvanized-orm.png"}],"samplers":[{"magFilter":9729,"minFilter":9987,"wrapS":10497,"wrapT":10497}],"buffers":[{"uri":"../shared/geometry.bin","byteLength":16435520}],"bufferViews":[{"buffer":0,"byteOffset":0,"byteLength":3888,"target":34962},{"buffer":0,"byteOffset":3888,"byteLength":3888,"target":34962},{"buffer":0,"byteOffset":3024260,"byteLength":2592,"target":34962},{"buffer":0,"byteOffset":2881820,"byteLength":3132,"target":34962},{"buffer":0,"byteOffset":390704,"byteLength":3132,"target":34962},{"buffer":0,"byteOffset":2835332,"byteLength":2088,"target":34962},{"buffer":0,"byteOffset":395924,"byteLength":2688,"target":34963},{"buffer":0,"byteOffset":2884952,"byteLength":972,"target":34962},{"buffer":0,"byteOffset":2838392,"byteLength":972,"target":34962},{"buffer":0,"byteOffset":409952,"byteLength":648,"target":34962},{"buffer":0,"byteOffset":410600,"byteLength":768,"target":34963},{"buffer":0,"byteOffset":2839364,"byteLength":2592,"target":34962},{"buffer":0,"byteOffset":3026852,"byteLength":972,"target":34962},{"buffer":0,"byteOffset":3002768,"byteLength":972,"target":34962},{"buffer":0,"byteOffset":3027824,"byteLength":972,"target":34962},{"buffer":0,"byteOffset":3004712,"byteLength":972,"target":34962},{"buffer":0,"byteOffset":3028796,"byteLength":972,"target":34962},{"buffer":0,"byteOffset":3006656,"byteLength":972,"target":34962},{"buffer":0,"byteOffset":3029768,"byteLength":972,"target":34962},{"buffer":0,"byteOffset":3008600,"byteLength":972,"target":34962},{"buffer":0,"byteOffset":2889812,"byteLength":972,"target":34962},{"buffer":0,"byteOffset":2848760,"byteLength":972,"target":34962},{"buffer":0,"byteOffset":3030740,"byteLength":972,"target":34962},{"buffer":0,"byteOffset":3010544,"byteLength":972,"target":34962},{"buffer":0,"byteOffset":3031712,"byteLength":972,"target":34962},{"buffer":0,"byteOffset":3012488,"byteLength":972,"target":34962},{"buffer":0,"byteOffset":3032684,"byteLength":972,"target":34962},{"buffer":0,"byteOffset":3033656,"byteLength":972,"target":34962},{"buffer":0,"byteOffset":3034628,"byteLength":972,"target":34962},{"buffer":0,"byteOffset":3035600,"byteLength":972,"target":34962},{"buffer":0,"byteOffset":2894672,"byteLength":972,"target":34962},{"buffer":0,"byteOffset":2895644,"byteLength":972,"target":34962},{"buffer":0,"byteOffset":2857508,"byteLength":648,"target":34962},{"buffer":0,"byteOffset":2896616,"byteLength":972,"target":34962},{"buffer":0,"byteOffset":2897588,"byteLength":972,"target":34962},{"buffer":0,"byteOffset":2860100,"byteLength":2592,"target":34962},{"buffer":0,"byteOffset":46644,"byteLength":288,"target":34962},{"buffer":0,"byteOffset":45952,"byteLength":288,"target":34962},{"buffer":0,"byteOffset":3036572,"byteLength":192,"target":34962},{"buffer":0,"byteOffset":46432,"byteLength":72,"target":34963},{"buffer":0,"byteOffset":2898752,"byteLength":1428,"target":34962},{"buffer":0,"byteOffset":427996,"byteLength":1428,"target":34962},{"buffer":0,"byteOffset":2864312,"byteLength":952,"target":34962},{"buffer":0,"byteOffset":430376,"byteLength":1152,"target":34963},{"buffer":0,"byteOffset":2900180,"byteLength":420,"target":34962},{"buffer":0,"byteOffset":2865684,"byteLength":420,"target":34962},{"buffer":0,"byteOffset":433796,"byteLength":280,"target":34962},{"buffer":0,"byteOffset":434076,"byteLength":288,"target":34963},{"buffer":0,"byteOffset":2866104,"byteLength":192,"target":34962},{"buffer":0,"byteOffset":3036764,"byteLength":420,"target":34962},{"buffer":0,"byteOffset":3017960,"byteLength":420,"target":34962},{"buffer":0,"byteOffset":3037184,"byteLength":420,"target":34962},{"buffer":0,"byteOffset":3018800,"byteLength":420,"target":34962},{"buffer":0,"byteOffset":3037604,"byteLength":420,"target":34962},{"buffer":0,"byteOffset":3019640,"byteLength":420,"target":34962},{"buffer":0,"byteOffset":3038024,"byteLength":420,"target":34962},{"buffer":0,"byteOffset":3020480,"byteLength":420,"target":34962},{"buffer":0,"byteOffset":2902280,"byteLength":420,"target":34962},{"buffer":0,"byteOffset":2902700,"byteLength":420,"target":34962},{"buffer":0,"byteOffset":3038444,"byteLength":420,"target":34962},{"buffer":0,"byteOffset":3021320,"byteLength":420,"target":34962},{"buffer":0,"byteOffset":3038864,"byteLength":420,"target":34962},{"buffer":0,"byteOffset":3022160,"byteLength":420,"target":34962},{"buffer":0,"byteOffset":3039284,"byteLength":420,"target":34962},{"buffer":0,"byteOffset":3023000,"byteLength":420,"target":34962},{"buffer":0,"byteOffset":3039704,"byteLength":420,"target":34962},{"buffer":0,"byteOffset":3023840,"byteLength":420,"target":34962},{"buffer":0,"byteOffset":2904800,"byteLength":420,"target":34962},{"buffer":0,"byteOffset":2905220,"byteLength":420,"target":34962},{"buffer":0,"byteOffset":2873016,"byteLength":280,"target":34962},{"buffer":0,"byteOffset":2905640,"byteLength":420,"target":34962},{"buffer":0,"byteOffset":2906060,"byteLength":420,"target":34962},{"buffer":0,"byteOffset":2874136,"byteLength":192,"target":34962},{"buffer":0,"byteOffset":2906480,"byteLength":660,"target":34962},{"buffer":0,"byteOffset":437788,"byteLength":660,"target":34962},{"buffer":0,"byteOffset":2874988,"byteLength":440,"target":34962},{"buffer":0,"byteOffset":438888,"byteLength":480,"target":34963},{"buffer":0,"byteOffset":2907140,"byteLength":300,"target":34962},{"buffer":0,"byteOffset":2875728,"byteLength":300,"target":34962},{"buffer":0,"byteOffset":439968,"byteLength":200,"target":34962},{"buffer":0,"byteOffset":440168,"byteLength":192,"target":34963},{"buffer":0,"byteOffset":2907440,"byteLength":300,"target":34962},{"buffer":0,"byteOffset":2907740,"byteLength":300,"target":34962},{"buffer":0,"byteOffset":2908040,"byteLength":300,"target":34962},{"buffer":0,"byteOffset":2908340,"byteLength":300,"target":34962},{"buffer":0,"byteOffset":2908640,"byteLength":300,"target":34962},{"buffer":0,"byteOffset":2877528,"byteLength":300,"target":34962},{"buffer":0,"byteOffset":2908940,"byteLength":300,"target":34962},{"buffer":0,"byteOffset":2909240,"byteLength":300,"target":34962},{"buffer":0,"byteOffset":2878428,"byteLength":200,"target":34962},{"buffer":0,"byteOffset":2909540,"byteLength":300,"target":34962},{"buffer":0,"byteOffset":2909840,"byteLength":300,"target":34962}],"accessors":[{"bufferView":0,"componentType":5126,"count":324,"type":"VEC3","min":[-0.5,-0.5,-0.5],"max":[0.5,0.5,0.5]},{"bufferView":1,"componentType":5126,"count":324,"type":"VEC3"},{"bufferView":2,"componentType":5126,"count":324,"type":"VEC2"},{"bufferView":3,"componentType":5126,"count":261,"type":"VEC3","min":[-4.929999828338623,-4.929999828338623,-0.18000000715255737],"max":[4.929999828338623,4.929999828338623,0.18000000715255737]},{"bufferView":4,"componentType":5126,"count":261,"type":"VEC3"},{"bufferView":5,"componentType":5126,"count":261,"type":"VEC2"},{"bufferView":6,"componentType":5123,"count":1344,"type":"SCALAR"},{"bufferView":7,"componentType":5126,"count":81,"type":"VEC3","min":[-0.054999999701976776,5.494999885559082,-1],"max":[0.054999999701976776,5.605000019073486,3.75]},{"bufferView":8,"componentType":5126,"count":81,"type":"VEC3"},{"bufferView":9,"componentType":5126,"count":81,"type":"VEC2"},{"bufferView":10,"componentType":5123,"count":384,"type":"SCALAR"},{"bufferView":11,"componentType":5126,"count":324,"type":"VEC2"},{"bufferView":12,"componentType":5126,"count":81,"type":"VEC3","min":[-0.054999999701976776,5.505504131317139,-1.0323282480239868],"max":[0.054999999701976776,8.386475563049316,2.8751590251922607]},{"bufferView":13,"componentType":5126,"count":81,"type":"VEC3"},{"bufferView":14,"componentType":5126,"count":81,"type":"VEC3","min":[-0.054999999701976776,5.533004283905029,-1.0523080825805664],"max":[0.054999999701976776,10.084514617919922,0.5201388597488403]},{"bufferView":15,"componentType":5126,"count":81,"type":"VEC3"},{"bufferView":16,"componentType":5126,"count":81,"type":"VEC3","min":[-0.054999999701976776,5.533004283905029,-2.520138740539551],"max":[0.054999999701976776,10.084514617919922,-0.9476919174194336]},{"bufferView":17,"componentType":5126,"count":81,"type":"VEC3"},{"bufferView":18,"componentType":5126,"count":81,"type":"VEC3","min":[-0.054999999701976776,5.505504131317139,-4.875158786773682],"max":[0.054999999701976776,8.386475563049316,-0.967671811580658]},{"bufferView":19,"componentType":5126,"count":81,"type":"VEC3"},{"bufferView":20,"componentType":5126,"count":81,"type":"VEC3","min":[-0.054999999701976776,5.494999885559082,-5.75],"max":[0.054999999701976776,5.605000019073486,-1]},{"bufferView":21,"componentType":5126,"count":81,"type":"VEC3"},{"bufferView":22,"componentType":5126,"count":81,"type":"VEC3","min":[-0.054999999701976776,2.713524103164673,-4.875158786773682],"max":[0.054999999701976776,5.59449577331543,-0.967671811580658]},{"bufferView":23,"componentType":5126,"count":81,"type":"VEC3"},{"bufferView":24,"componentType":5126,"count":81,"type":"VEC3","min":[-0.054999999701976776,1.0154856443405151,-2.520138740539551],"max":[0.054999999701976776,5.566996097564697,-0.9476919174194336]},{"bufferView":25,"componentType":5126,"count":81,"type":"VEC3"},{"bufferView":26,"componentType":5126,"count":81,"type":"VEC3","min":[-0.054999999701976776,1.0154856443405151,-1.0523080825805664],"max":[0.054999999701976776,5.566996097564697,0.5201388597488403]},{"bufferView":27,"componentType":5126,"count":81,"type":"VEC3"},{"bufferView":28,"componentType":5126,"count":81,"type":"VEC3","min":[-0.054999999701976776,2.713524103164673,-1.0323282480239868],"max":[0.054999999701976776,5.59449577331543,2.8751590251922607]},{"bufferView":29,"componentType":5126,"count":81,"type":"VEC3"},{"bufferView":30,"componentType":5126,"count":81,"type":"VEC3","min":[-3.5687971115112305,0.09272699803113937,-1.2000000476837158],"max":[0.16879722476005554,5.657272815704346,-0.800000011920929]},{"bufferView":31,"componentType":5126,"count":81,"type":"VEC3"},{"bufferView":32,"componentType":5126,"count":81,"type":"VEC2"},{"bufferView":33,"componentType":5126,"count":81,"type":"VEC3","min":[-0.16879722476005554,0.09272699803113937,-1.2000000476837158],"max":[3.5687971115112305,5.657272815704346,-0.800000011920929]},{"bufferView":34,"componentType":5126,"count":81,"type":"VEC3"},{"bufferView":35,"componentType":5126,"count":324,"type":"VEC2"},{"bufferView":36,"componentType":5126,"count":24,"type":"VEC3","min":[-0.5,-0.5,-0.5],"max":[0.5,0.5,0.5]},{"bufferView":37,"componentType":5126,"count":24,"type":"VEC3"},{"bufferView":38,"componentType":5126,"count":24,"type":"VEC2"},{"bufferView":39,"componentType":5123,"count":36,"type":"SCALAR"},{"bufferView":40,"componentType":5126,"count":119,"type":"VEC3","min":[-4.929999828338623,-4.929999828338623,-0.15588457882404327],"max":[4.929999828338623,4.929999828338623,0.15588457882404327]},{"bufferView":41,"componentType":5126,"count":119,"type":"VEC3"},{"bufferView":42,"componentType":5126,"count":119,"type":"VEC2"},{"bufferView":43,"componentType":5123,"count":576,"type":"SCALAR"},{"bufferView":44,"componentType":5126,"count":35,"type":"VEC3","min":[-0.0476313978433609,5.494999885559082,-1],"max":[0.0476313978433609,5.605000019073486,3.75]},{"bufferView":45,"componentType":5126,"count":35,"type":"VEC3"},{"bufferView":46,"componentType":5126,"count":35,"type":"VEC2"},{"bufferView":47,"componentType":5123,"count":144,"type":"SCALAR"},{"bufferView":48,"componentType":5126,"count":24,"type":"VEC2"},{"bufferView":49,"componentType":5126,"count":35,"type":"VEC3","min":[-0.054999999701976776,5.511465549468994,-1.0279970169067383],"max":[0.054999999701976776,8.380514144897461,2.8708276748657227]},{"bufferView":50,"componentType":5126,"count":35,"type":"VEC3"},{"bufferView":51,"componentType":5126,"count":35,"type":"VEC3","min":[-0.054999999701976776,5.535281181335449,-1.0453001260757446],"max":[0.054999999701976776,10.082237243652344,0.5131309032440186]},{"bufferView":52,"componentType":5126,"count":35,"type":"VEC3"},{"bufferView":53,"componentType":5126,"count":35,"type":"VEC3","min":[-0.054999999701976776,5.535281181335449,-2.5131309032440186],"max":[0.054999999701976776,10.082237243652344,-0.9546998739242554]},{"bufferView":54,"componentType":5126,"count":35,"type":"VEC3"},{"bufferView":55,"componentType":5126,"count":35,"type":"VEC3","min":[-0.054999999701976776,5.511465549468994,-4.870827674865723],"max":[0.054999999701976776,8.380514144897461,-0.9720029830932617]},{"bufferView":56,"componentType":5126,"count":35,"type":"VEC3"},{"bufferView":57,"componentType":5126,"count":35,"type":"VEC3","min":[-0.0476313978433609,5.494999885559082,-5.75],"max":[0.0476313978433609,5.605000019073486,-1]},{"bufferView":58,"componentType":5126,"count":35,"type":"VEC3"},{"bufferView":59,"componentType":5126,"count":35,"type":"VEC3","min":[-0.054999999701976776,2.7194855213165283,-4.870827674865723],"max":[0.054999999701976776,5.588534832000732,-0.9720029830932617]},{"bufferView":60,"componentType":5126,"count":35,"type":"VEC3"},{"bufferView":61,"componentType":5126,"count":35,"type":"VEC3","min":[-0.054999999701976776,1.0177626609802246,-2.5131309032440186],"max":[0.054999999701976776,5.564718723297119,-0.9546998739242554]},{"bufferView":62,"componentType":5126,"count":35,"type":"VEC3"},{"bufferView":63,"componentType":5126,"count":35,"type":"VEC3","min":[-0.054999999701976776,1.0177626609802246,-1.0453001260757446],"max":[0.054999999701976776,5.564718723297119,0.5131309032440186]},{"bufferView":64,"componentType":5126,"count":35,"type":"VEC3"},{"bufferView":65,"componentType":5126,"count":35,"type":"VEC3","min":[-0.054999999701976776,2.7194855213165283,-1.0279970169067383],"max":[0.054999999701976776,5.588534832000732,2.8708276748657227]},{"bufferView":66,"componentType":5126,"count":35,"type":"VEC3"},{"bufferView":67,"componentType":5126,"count":35,"type":"VEC3","min":[-3.546182632446289,0.10709885507822037,-1.2000000476837158],"max":[0.14618268609046936,5.6429009437561035,-0.800000011920929]},{"bufferView":68,"componentType":5126,"count":35,"type":"VEC3"},{"bufferView":69,"componentType":5126,"count":35,"type":"VEC2"},{"bufferView":70,"componentType":5126,"count":35,"type":"VEC3","min":[-0.14618268609046936,0.10709885507822037,-1.2000000476837158],"max":[3.546182632446289,5.6429009437561035,-0.800000011920929]},{"bufferView":71,"componentType":5126,"count":35,"type":"VEC3"},{"bufferView":72,"componentType":5126,"count":24,"type":"VEC2"},{"bufferView":73,"componentType":5126,"count":55,"type":"VEC3","min":[-4.929999828338623,-4.688708782196045,-0.18000000715255737],"max":[4.929999828338623,4.688708782196045,0.18000000715255737]},{"bufferView":74,"componentType":5126,"count":55,"type":"VEC3"},{"bufferView":75,"componentType":5126,"count":55,"type":"VEC2"},{"bufferView":76,"componentType":5123,"count":240,"type":"SCALAR"},{"bufferView":77,"componentType":5126,"count":25,"type":"VEC3","min":[-0.054999999701976776,5.494999885559082,-1],"max":[0.054999999701976776,5.605000019073486,3.75]},{"bufferView":78,"componentType":5126,"count":25,"type":"VEC3"},{"bufferView":79,"componentType":5126,"count":25,"type":"VEC2"},{"bufferView":80,"componentType":5123,"count":96,"type":"SCALAR"},{"bufferView":81,"componentType":5126,"count":25,"type":"VEC3","min":[-0.054999999701976776,5.550000190734863,-1.0549999475479126],"max":[0.054999999701976776,10.300000190734863,-0.9449999928474426]},{"bufferView":82,"componentType":5126,"count":25,"type":"VEC3"},{"bufferView":83,"componentType":5126,"count":25,"type":"VEC3","min":[-0.054999999701976776,5.494999885559082,-5.75],"max":[0.054999999701976776,5.605000019073486,-1]},{"bufferView":84,"componentType":5126,"count":25,"type":"VEC3"},{"bufferView":85,"componentType":5126,"count":25,"type":"VEC3","min":[-0.054999999701976776,0.800000011920929,-1.0549999475479126],"max":[0.054999999701976776,5.550000190734863,-0.9449999928474426]},{"bufferView":86,"componentType":5126,"count":25,"type":"VEC3"},{"bufferView":87,"componentType":5126,"count":25,"type":"VEC3","min":[-3.5687971115112305,0.09272699803113937,-1.2000000476837158],"max":[0.16879722476005554,5.657272815704346,-0.800000011920929]},{"bufferView":88,"componentType":5126,"count":25,"type":"VEC3"},{"bufferView":89,"componentType":5126,"count":25,"type":"VEC2"},{"bufferView":90,"componentType":5126,"count":25,"type":"VEC3","min":[-0.16879722476005554,0.09272699803113937,-1.2000000476837158],"max":[3.5687971115112305,5.657272815704346,-0.800000011920929]},{"bufferView":91,"componentType":5126,"count":25,"type":"VEC3"}],"extensionsUsed":["KHR_materials_unlit"],"extras":{"id":"vlt-county-fair-midway-07","family":"county-fair-midway","variant":6,"plan":"B2-1","units":"metres","up":"+Y","front":"+Z","lodScenes":[0,1,2]}}