{"asset":{"version":"2.0","generator":"SLOPMERICA Department of Unnecessary Development 1.0"},"scene":0,"scenes":[{"name":"LOD 0","nodes":[0,1,2,3,4,5,6,7,8,9,10,11,12,13,14,15,16,17,18,19,20,21,22,23,24,25,26,27,28,29,30,31,32,33,34,35,36,37,38],"extras":{"level":0}},{"name":"LOD 1","nodes":[39,40,41,42,43,44,45,46,47,48,49,50,51,52,53,54,55,56,57,58,59,60,61,62,63,64,65,66,67,68,69,70,71,72,73,74,75,76,77],"extras":{"level":1}},{"name":"LOD 2","nodes":[78,79,80,81,82,83,84,85,86,87,88,89,90,91,92,93],"extras":{"level":2}}],"nodes":[{"name":"surveyed lot","mesh":0,"translation":[0,0.06,0],"scale":[15.6,0.12,11.44]},{"name":"anti-rest bench 0 seat","mesh":1,"translation":[3.920266,0.62,0.596008],"rotation":[0,0.632981,0,0.774167],"scale":[2.4,0.16,0.55]},{"name":"anti-rest bench 0 back","mesh":2,"translation":[3.920266,1.02,0.346008],"rotation":[0,0.632981,0,0.774167],"scale":[2.4,0.75,0.13]},{"name":"post 3.0702663113649664 0","mesh":3,"translation":[3.070266,0.31,0.596008],"scale":[0.16,0.62,0.16]},{"name":"post 3.0702663113649664 1","mesh":3,"translation":[4.770266,0.31,0.596008],"scale":[0.16,0.62,0.16]},{"name":"anti-rest bench 0 divider -1","mesh":4,"translation":[3.370266,0.84,0.596008],"rotation":[0.707107,0,0,0.707107]},{"name":"anti-rest bench 0 divider 1","mesh":4,"translation":[4.470266,0.84,0.596008],"rotation":[0.707107,0,0,0.707107]},{"name":"anti-rest bench 1 seat","mesh":1,"translation":[0.455646,0.62,2.980473],"rotation":[0,0.057049,0,0.998371],"scale":[2.4,0.16,0.55]},{"name":"anti-rest bench 1 back","mesh":2,"translation":[0.455646,1.02,2.730473],"rotation":[0,0.057049,0,0.998371],"scale":[2.4,0.75,0.13]},{"name":"post -0.3943541338751974 0","mesh":3,"translation":[-0.394354,0.31,2.980473],"scale":[0.16,0.62,0.16]},{"name":"post -0.3943541338751974 1","mesh":3,"translation":[1.305646,0.31,2.980473],"scale":[0.16,0.62,0.16]},{"name":"anti-rest bench 1 divider -1","mesh":4,"translation":[-0.094354,0.84,2.980473],"rotation":[0.707107,0,0,0.707107]},{"name":"anti-rest bench 1 divider 1","mesh":4,"translation":[1.005646,0.84,2.980473],"rotation":[0.707107,0,0,0.707107]},{"name":"anti-rest bench 2 seat","mesh":1,"translation":[-3.638662,0.62,1.246025],"rotation":[0,-0.540675,0,0.841232],"scale":[2.4,0.16,0.55]},{"name":"anti-rest bench 2 back","mesh":2,"translation":[-3.638662,1.02,0.996025],"rotation":[0,-0.540675,0,0.841232],"scale":[2.4,0.75,0.13]},{"name":"post -4.488661679266454 0","mesh":3,"translation":[-4.488662,0.31,1.246025],"scale":[0.16,0.62,0.16]},{"name":"post -4.488661679266454 1","mesh":3,"translation":[-2.788662,0.31,1.246025],"scale":[0.16,0.62,0.16]},{"name":"anti-rest bench 2 divider -1","mesh":4,"translation":[-4.188662,0.84,1.246025],"rotation":[0.707107,0,0,0.707107]},{"name":"anti-rest bench 2 divider 1","mesh":4,"translation":[-3.088662,0.84,1.246025],"rotation":[0.707107,0,0,0.707107]},{"name":"anti-rest bench 3 seat","mesh":1,"translation":[-2.704462,0.62,-2.210387],"rotation":[0,0.931879,0,-0.36277],"scale":[2.4,0.16,0.55]},{"name":"anti-rest bench 3 back","mesh":2,"translation":[-2.704462,1.02,-2.460387],"rotation":[0,0.931879,0,-0.36277],"scale":[2.4,0.75,0.13]},{"name":"post -3.5544624574732393 0","mesh":3,"translation":[-3.554462,0.31,-2.210387],"scale":[0.16,0.62,0.16]},{"name":"post -3.5544624574732393 1","mesh":3,"translation":[-1.854462,0.31,-2.210387],"scale":[0.16,0.62,0.16]},{"name":"anti-rest bench 3 divider -1","mesh":4,"translation":[-3.254462,0.84,-2.210387],"rotation":[0.707107,0,0,0.707107]},{"name":"anti-rest bench 3 divider 1","mesh":4,"translation":[-2.154462,0.84,-2.210387],"rotation":[0.707107,0,0,0.707107]},{"name":"anti-rest bench 4 seat","mesh":1,"translation":[1.967212,0.62,-2.61212],"rotation":[0,0.967137,0,0.254257],"scale":[2.4,0.16,0.55]},{"name":"anti-rest bench 4 back","mesh":2,"translation":[1.967212,1.02,-2.86212],"rotation":[0,0.967137,0,0.254257],"scale":[2.4,0.75,0.13]},{"name":"post 1.1172119592499254 0","mesh":3,"translation":[1.117212,0.31,-2.61212],"scale":[0.16,0.62,0.16]},{"name":"post 1.1172119592499254 1","mesh":3,"translation":[2.817212,0.31,-2.61212],"scale":[0.16,0.62,0.16]},{"name":"anti-rest bench 4 divider -1","mesh":4,"translation":[1.417212,0.84,-2.61212],"rotation":[0.707107,0,0,0.707107]},{"name":"anti-rest bench 4 divider 1","mesh":4,"translation":[2.517212,0.84,-2.61212],"rotation":[0.707107,0,0,0.707107]},{"name":"privately owned planter","mesh":5,"translation":[0,0.45,0],"scale":[1.8,0.8,1.8]},{"name":"approved ornamental trunk","mesh":6,"translation":[0,0.84,0],"scale":[0.2,1.68,0.2]},{"name":"approved ornamental branch a","mesh":7,"translation":[0,0,0]},{"name":"approved ornamental branch b","mesh":8,"translation":[0,0,0]},{"name":"approved ornamental crown a","mesh":9,"translation":[-0.35,2.31,0],"scale":[0.98,1.05,0.84]},{"name":"approved ornamental crown b","mesh":10,"translation":[0.49,2.555,0.175],"scale":[0.84,0.875,0.77]},{"name":"no loitering rules-back","mesh":11,"translation":[5.2,1.55,-3.2],"rotation":[0,-0.124675,0,0.992198],"scale":[2.3,1.6,1]},{"name":"no loitering rules","mesh":12,"translation":[5.192825,1.55,-3.171902],"rotation":[0,-0.124675,0,0.992198],"scale":[2.2,1.5,1]},{"name":"surveyed lot","mesh":13,"translation":[0,0.06,0],"scale":[15.6,0.12,11.44]},{"name":"anti-rest bench 0 seat","mesh":14,"translation":[3.920266,0.62,0.596008],"rotation":[0,0.632981,0,0.774167],"scale":[2.4,0.16,0.55]},{"name":"anti-rest bench 0 back","mesh":15,"translation":[3.920266,1.02,0.346008],"rotation":[0,0.632981,0,0.774167],"scale":[2.4,0.75,0.13]},{"name":"post 3.0702663113649664 0","mesh":16,"translation":[3.070266,0.31,0.596008],"scale":[0.16,0.62,0.16]},{"name":"post 3.0702663113649664 1","mesh":16,"translation":[4.770266,0.31,0.596008],"scale":[0.16,0.62,0.16]},{"name":"anti-rest bench 0 divider -1","mesh":17,"translation":[3.370266,0.84,0.596008],"rotation":[0.707107,0,0,0.707107]},{"name":"anti-rest bench 0 divider 1","mesh":17,"translation":[4.470266,0.84,0.596008],"rotation":[0.707107,0,0,0.707107]},{"name":"anti-rest bench 1 seat","mesh":14,"translation":[0.455646,0.62,2.980473],"rotation":[0,0.057049,0,0.998371],"scale":[2.4,0.16,0.55]},{"name":"anti-rest bench 1 back","mesh":15,"translation":[0.455646,1.02,2.730473],"rotation":[0,0.057049,0,0.998371],"scale":[2.4,0.75,0.13]},{"name":"post -0.3943541338751974 0","mesh":16,"translation":[-0.394354,0.31,2.980473],"scale":[0.16,0.62,0.16]},{"name":"post -0.3943541338751974 1","mesh":16,"translation":[1.305646,0.31,2.980473],"scale":[0.16,0.62,0.16]},{"name":"anti-rest bench 1 divider -1","mesh":17,"translation":[-0.094354,0.84,2.980473],"rotation":[0.707107,0,0,0.707107]},{"name":"anti-rest bench 1 divider 1","mesh":17,"translation":[1.005646,0.84,2.980473],"rotation":[0.707107,0,0,0.707107]},{"name":"anti-rest bench 2 seat","mesh":14,"translation":[-3.638662,0.62,1.246025],"rotation":[0,-0.540675,0,0.841232],"scale":[2.4,0.16,0.55]},{"name":"anti-rest bench 2 back","mesh":15,"translation":[-3.638662,1.02,0.996025],"rotation":[0,-0.540675,0,0.841232],"scale":[2.4,0.75,0.13]},{"name":"post -4.488661679266454 0","mesh":16,"translation":[-4.488662,0.31,1.246025],"scale":[0.16,0.62,0.16]},{"name":"post -4.488661679266454 1","mesh":16,"translation":[-2.788662,0.31,1.246025],"scale":[0.16,0.62,0.16]},{"name":"anti-rest bench 2 divider -1","mesh":17,"translation":[-4.188662,0.84,1.246025],"rotation":[0.707107,0,0,0.707107]},{"name":"anti-rest bench 2 divider 1","mesh":17,"translation":[-3.088662,0.84,1.246025],"rotation":[0.707107,0,0,0.707107]},{"name":"anti-rest bench 3 seat","mesh":14,"translation":[-2.704462,0.62,-2.210387],"rotation":[0,0.931879,0,-0.36277],"scale":[2.4,0.16,0.55]},{"name":"anti-rest bench 3 back","mesh":15,"translation":[-2.704462,1.02,-2.460387],"rotation":[0,0.931879,0,-0.36277],"scale":[2.4,0.75,0.13]},{"name":"post -3.5544624574732393 0","mesh":16,"translation":[-3.554462,0.31,-2.210387],"scale":[0.16,0.62,0.16]},{"name":"post -3.5544624574732393 1","mesh":16,"translation":[-1.854462,0.31,-2.210387],"scale":[0.16,0.62,0.16]},{"name":"anti-rest bench 3 divider -1","mesh":17,"translation":[-3.254462,0.84,-2.210387],"rotation":[0.707107,0,0,0.707107]},{"name":"anti-rest bench 3 divider 1","mesh":17,"translation":[-2.154462,0.84,-2.210387],"rotation":[0.707107,0,0,0.707107]},{"name":"anti-rest bench 4 seat","mesh":14,"translation":[1.967212,0.62,-2.61212],"rotation":[0,0.967137,0,0.254257],"scale":[2.4,0.16,0.55]},{"name":"anti-rest bench 4 back","mesh":15,"translation":[1.967212,1.02,-2.86212],"rotation":[0,0.967137,0,0.254257],"scale":[2.4,0.75,0.13]},{"name":"post 1.1172119592499254 0","mesh":16,"translation":[1.117212,0.31,-2.61212],"scale":[0.16,0.62,0.16]},{"name":"post 1.1172119592499254 1","mesh":16,"translation":[2.817212,0.31,-2.61212],"scale":[0.16,0.62,0.16]},{"name":"anti-rest bench 4 divider -1","mesh":17,"translation":[1.417212,0.84,-2.61212],"rotation":[0.707107,0,0,0.707107]},{"name":"anti-rest bench 4 divider 1","mesh":17,"translation":[2.517212,0.84,-2.61212],"rotation":[0.707107,0,0,0.707107]},{"name":"privately owned planter","mesh":18,"translation":[0,0.45,0],"scale":[1.8,0.8,1.8]},{"name":"approved ornamental trunk","mesh":19,"translation":[0,0.84,0],"scale":[0.2,1.68,0.2]},{"name":"approved ornamental branch a","mesh":20,"translation":[0,0,0]},{"name":"approved ornamental branch b","mesh":21,"translation":[0,0,0]},{"name":"approved ornamental crown a","mesh":22,"translation":[-0.35,2.31,0],"scale":[0.98,1.05,0.84]},{"name":"approved ornamental crown b","mesh":23,"translation":[0.49,2.555,0.175],"scale":[0.84,0.875,0.77]},{"name":"no loitering rules-back","mesh":11,"translation":[5.2,1.55,-3.2],"rotation":[0,-0.124675,0,0.992198],"scale":[2.3,1.6,1]},{"name":"no loitering rules","mesh":12,"translation":[5.192825,1.55,-3.171902],"rotation":[0,-0.124675,0,0.992198],"scale":[2.2,1.5,1]},{"name":"surveyed lot","mesh":13,"translation":[0,0.06,0],"scale":[15.6,0.12,11.44]},{"name":"anti-rest bench 0 seat","mesh":14,"translation":[3.920266,0.62,0.596008],"rotation":[0,0.632981,0,0.774167],"scale":[2.4,0.16,0.55]},{"name":"anti-rest bench 0 back","mesh":15,"translation":[3.920266,1.02,0.346008],"rotation":[0,0.632981,0,0.774167],"scale":[2.4,0.75,0.13]},{"name":"post 3.0702663113649664 0","mesh":16,"translation":[3.070266,0.31,0.596008],"scale":[0.16,0.62,0.16]},{"name":"post 3.0702663113649664 1","mesh":16,"translation":[4.770266,0.31,0.596008],"scale":[0.16,0.62,0.16]},{"name":"anti-rest bench 0 divider -1","mesh":24,"translation":[3.370266,0.84,0.596008],"rotation":[0.707107,0,0,0.707107]},{"name":"anti-rest bench 0 divider 1","mesh":24,"translation":[4.470266,0.84,0.596008],"rotation":[0.707107,0,0,0.707107]},{"name":"anti-rest bench 1 seat","mesh":14,"translation":[-3.920266,0.62,-0.596008],"rotation":[0,-0.774167,0,0.632981],"scale":[2.4,0.16,0.55]},{"name":"anti-rest bench 1 back","mesh":15,"translation":[-3.920266,1.02,-0.846008],"rotation":[0,-0.774167,0,0.632981],"scale":[2.4,0.75,0.13]},{"name":"post -4.770266311364966 0","mesh":16,"translation":[-4.770266,0.31,-0.596008],"scale":[0.16,0.62,0.16]},{"name":"post -4.770266311364966 1","mesh":16,"translation":[-3.070266,0.31,-0.596008],"scale":[0.16,0.62,0.16]},{"name":"anti-rest bench 1 divider -1","mesh":24,"translation":[-4.470266,0.84,-0.596008],"rotation":[0.707107,0,0,0.707107]},{"name":"anti-rest bench 1 divider 1","mesh":24,"translation":[-3.370266,0.84,-0.596008],"rotation":[0.707107,0,0,0.707107]},{"name":"privately owned planter","mesh":18,"translation":[0,0.45,0],"scale":[1.8,0.8,1.8]},{"name":"no loitering rules-back","mesh":11,"translation":[5.2,1.55,-3.2],"rotation":[0,-0.124675,0,0.992198],"scale":[2.3,1.6,1]},{"name":"no loitering rules","mesh":12,"translation":[5.192825,1.55,-3.171902],"rotation":[0,-0.124675,0,0.992198],"scale":[2.2,1.5,1]}],"meshes":[{"primitives":[{"attributes":{"POSITION":0,"NORMAL":1,"TEXCOORD_0":2},"material":0,"mode":4}]},{"primitives":[{"attributes":{"POSITION":0,"NORMAL":1,"TEXCOORD_0":3},"material":1,"mode":4}]},{"primitives":[{"attributes":{"POSITION":0,"NORMAL":1,"TEXCOORD_0":4},"material":1,"mode":4}]},{"primitives":[{"attributes":{"POSITION":0,"NORMAL":1,"TEXCOORD_0":5},"material":2,"mode":4}]},{"primitives":[{"attributes":{"POSITION":6,"NORMAL":7,"TEXCOORD_0":8},"material":2,"mode":4,"indices":9}]},{"primitives":[{"attributes":{"POSITION":10,"NORMAL":11,"TEXCOORD_0":12},"material":0,"mode":4,"indices":13}]},{"primitives":[{"attributes":{"POSITION":14,"NORMAL":15,"TEXCOORD_0":16},"material":3,"mode":4,"indices":17}]},{"primitives":[{"attributes":{"POSITION":18,"NORMAL":19,"TEXCOORD_0":20},"material":3,"mode":4,"indices":21}]},{"primitives":[{"attributes":{"POSITION":22,"NORMAL":23,"TEXCOORD_0":20},"material":3,"mode":4,"indices":21}]},{"primitives":[{"attributes":{"POSITION":24,"NORMAL":24,"TEXCOORD_0":25},"material":4,"mode":4,"indices":26}]},{"primitives":[{"attributes":{"POSITION":24,"NORMAL":24,"TEXCOORD_0":27},"material":4,"mode":4,"indices":26}]},{"primitives":[{"attributes":{"POSITION":28,"NORMAL":29,"TEXCOORD_0":30},"material":2,"mode":4,"indices":31}]},{"primitives":[{"attributes":{"POSITION":32,"NORMAL":33,"TEXCOORD_0":34},"material":5,"mode":4,"indices":35}]},{"primitives":[{"attributes":{"POSITION":36,"NORMAL":29,"TEXCOORD_0":37},"material":0,"mode":4,"indices":31}]},{"primitives":[{"attributes":{"POSITION":36,"NORMAL":29,"TEXCOORD_0":38},"material":1,"mode":4,"indices":31}]},{"primitives":[{"attributes":{"POSITION":36,"NORMAL":29,"TEXCOORD_0":39},"material":1,"mode":4,"indices":31}]},{"primitives":[{"attributes":{"POSITION":36,"NORMAL":29,"TEXCOORD_0":40},"material":2,"mode":4,"indices":31}]},{"primitives":[{"attributes":{"POSITION":41,"NORMAL":42,"TEXCOORD_0":43},"material":2,"mode":4,"indices":44}]},{"primitives":[{"attributes":{"POSITION":45,"NORMAL":46,"TEXCOORD_0":47},"material":0,"mode":4,"indices":48}]},{"primitives":[{"attributes":{"POSITION":49,"NORMAL":50,"TEXCOORD_0":51},"material":3,"mode":4,"indices":48}]},{"primitives":[{"attributes":{"POSITION":52,"NORMAL":53,"TEXCOORD_0":54},"material":3,"mode":4,"indices":55}]},{"primitives":[{"attributes":{"POSITION":56,"NORMAL":57,"TEXCOORD_0":54},"material":3,"mode":4,"indices":55}]},{"primitives":[{"attributes":{"POSITION":58,"NORMAL":58,"TEXCOORD_0":59},"material":4,"mode":4,"indices":60}]},{"primitives":[{"attributes":{"POSITION":58,"NORMAL":58,"TEXCOORD_0":61},"material":4,"mode":4,"indices":60}]},{"primitives":[{"attributes":{"POSITION":62,"NORMAL":63,"TEXCOORD_0":64},"material":2,"mode":4,"indices":65}]}],"materials":[{"name":"concrete","pbrMetallicRoughness":{"baseColorTexture":{"index":0},"metallicRoughnessTexture":{"index":2},"roughnessFactor":1,"metallicFactor":1},"normalTexture":{"index":1,"scale":0.82},"occlusionTexture":{"index":2,"strength":0.35}},{"name":"wood-oak","pbrMetallicRoughness":{"baseColorTexture":{"index":3},"metallicRoughnessTexture":{"index":5},"roughnessFactor":1,"metallicFactor":1},"normalTexture":{"index":4,"scale":1},"occlusionTexture":{"index":5,"strength":0.35}},{"name":"metal-dark","pbrMetallicRoughness":{"baseColorTexture":{"index":6},"metallicRoughnessTexture":{"index":8},"roughnessFactor":1,"metallicFactor":1},"normalTexture":{"index":7,"scale":0.35},"occlusionTexture":{"index":8,"strength":0.35}},{"name":"bark","pbrMetallicRoughness":{"baseColorTexture":{"index":9},"metallicRoughnessTexture":{"index":11},"roughnessFactor":1,"metallicFactor":1},"normalTexture":{"index":10,"scale":1.35},"occlusionTexture":{"index":11,"strength":0.35}},{"name":"foliage","pbrMetallicRoughness":{"baseColorTexture":{"index":12},"metallicRoughnessTexture":{"index":14},"roughnessFactor":1,"metallicFactor":1},"normalTexture":{"index":13,"scale":0.88},"occlusionTexture":{"index":14,"strength":0.35}},{"name":"hostile-bench-plaza signage","pbrMetallicRoughness":{"baseColorTexture":{"index":15},"roughnessFactor":1,"metallicFactor":0},"extensions":{"KHR_materials_unlit":{}}}],"textures":[{"source":0,"sampler":0},{"source":1,"sampler":0},{"source":2,"sampler":0},{"source":3,"sampler":0},{"source":4,"sampler":0},{"source":5,"sampler":0},{"source":6,"sampler":0},{"source":7,"sampler":0},{"source":8,"sampler":0},{"source":9,"sampler":0},{"source":10,"sampler":0},{"source":11,"sampler":0},{"source":12,"sampler":0},{"source":13,"sampler":0},{"source":14,"sampler":0},{"source":15,"sampler":0}],"images":[{"uri":"../textures/concrete-albedo.png"},{"uri":"../textures/concrete-normal.png"},{"uri":"../textures/concrete-orm.png"},{"uri":"../textures/wood-oak-albedo.png"},{"uri":"../textures/wood-oak-normal.png"},{"uri":"../textures/wood-oak-orm.png"},{"uri":"../textures/metal-dark-albedo.png"},{"uri":"../textures/metal-dark-normal.png"},{"uri":"../textures/metal-dark-orm.png"},{"uri":"../textures/bark-albedo.png"},{"uri":"../textures/bark-normal.png"},{"uri":"../textures/bark-orm.png"},{"uri":"../textures/foliage-albedo.png"},{"uri":"../textures/foliage-normal.png"},{"uri":"../textures/foliage-orm.png"},{"uri":"../signs/hostile-bench-plaza.png"}],"samplers":[{"magFilter":9729,"minFilter":9987,"wrapS":10497,"wrapT":10497}],"buffers":[{"uri":"../shared/geometry.bin","byteLength":16435520}],"bufferViews":[{"buffer":0,"byteOffset":0,"byteLength":3888,"target":34962},{"buffer":0,"byteOffset":3888,"byteLength":3888,"target":34962},{"buffer":0,"byteOffset":6816272,"byteLength":2592,"target":34962},{"buffer":0,"byteOffset":6749352,"byteLength":2592,"target":34962},{"buffer":0,"byteOffset":6751944,"byteLength":2592,"target":34962},{"buffer":0,"byteOffset":6754536,"byteLength":2592,"target":34962},{"buffer":0,"byteOffset":6757128,"byteLength":3132,"target":34962},{"buffer":0,"byteOffset":6760260,"byteLength":3132,"target":34962},{"buffer":0,"byteOffset":2835332,"byteLength":2088,"target":34962},{"buffer":0,"byteOffset":395924,"byteLength":2688,"target":34963},{"buffer":0,"byteOffset":6794736,"byteLength":912,"target":34962},{"buffer":0,"byteOffset":6795648,"byteLength":912,"target":34962},{"buffer":0,"byteOffset":6765216,"byteLength":608,"target":34962},{"buffer":0,"byteOffset":387284,"byteLength":288,"target":34963},{"buffer":0,"byteOffset":6765824,"byteLength":552,"target":34962},{"buffer":0,"byteOffset":6766376,"byteLength":552,"target":34962},{"buffer":0,"byteOffset":6766928,"byteLength":368,"target":34962},{"buffer":0,"byteOffset":3772292,"byteLength":168,"target":34963},{"buffer":0,"byteOffset":6767296,"byteLength":972,"target":34962},{"buffer":0,"byteOffset":6768268,"byteLength":972,"target":34962},{"buffer":0,"byteOffset":6769240,"byteLength":648,"target":34962},{"buffer":0,"byteOffset":410600,"byteLength":768,"target":34963},{"buffer":0,"byteOffset":6769888,"byteLength":972,"target":34962},{"buffer":0,"byteOffset":6770860,"byteLength":972,"target":34962},{"buffer":0,"byteOffset":6080864,"byteLength":3276,"target":34962},{"buffer":0,"byteOffset":6771832,"byteLength":2184,"target":34962},{"buffer":0,"byteOffset":6086324,"byteLength":2640,"target":34963},{"buffer":0,"byteOffset":6774016,"byteLength":2184,"target":34962},{"buffer":0,"byteOffset":45664,"byteLength":288,"target":34962},{"buffer":0,"byteOffset":45952,"byteLength":288,"target":34962},{"buffer":0,"byteOffset":46240,"byteLength":192,"target":34962},{"buffer":0,"byteOffset":46432,"byteLength":72,"target":34963},{"buffer":0,"byteOffset":46504,"byteLength":48,"target":34962},{"buffer":0,"byteOffset":46552,"byteLength":48,"target":34962},{"buffer":0,"byteOffset":135812,"byteLength":32,"target":34962},{"buffer":0,"byteOffset":46632,"byteLength":12,"target":34963},{"buffer":0,"byteOffset":46644,"byteLength":288,"target":34962},{"buffer":0,"byteOffset":6818864,"byteLength":192,"target":34962},{"buffer":0,"byteOffset":6776392,"byteLength":192,"target":34962},{"buffer":0,"byteOffset":6776584,"byteLength":192,"target":34962},{"buffer":0,"byteOffset":6776776,"byteLength":192,"target":34962},{"buffer":0,"byteOffset":6776968,"byteLength":1428,"target":34962},{"buffer":0,"byteOffset":6778396,"byteLength":1428,"target":34962},{"buffer":0,"byteOffset":2864312,"byteLength":952,"target":34962},{"buffer":0,"byteOffset":430376,"byteLength":1152,"target":34963},{"buffer":0,"byteOffset":6796752,"byteLength":480,"target":34962},{"buffer":0,"byteOffset":6797232,"byteLength":480,"target":34962},{"buffer":0,"byteOffset":6780784,"byteLength":320,"target":34962},{"buffer":0,"byteOffset":48596,"byteLength":144,"target":34963},{"buffer":0,"byteOffset":1942620,"byteLength":480,"target":34962},{"buffer":0,"byteOffset":1943100,"byteLength":480,"target":34962},{"buffer":0,"byteOffset":6781104,"byteLength":320,"target":34962},{"buffer":0,"byteOffset":6781424,"byteLength":420,"target":34962},{"buffer":0,"byteOffset":6781844,"byteLength":420,"target":34962},{"buffer":0,"byteOffset":6782264,"byteLength":280,"target":34962},{"buffer":0,"byteOffset":434076,"byteLength":288,"target":34963},{"buffer":0,"byteOffset":6782544,"byteLength":420,"target":34962},{"buffer":0,"byteOffset":6782964,"byteLength":420,"target":34962},{"buffer":0,"byteOffset":6096692,"byteLength":1404,"target":34962},{"buffer":0,"byteOffset":6783384,"byteLength":936,"target":34962},{"buffer":0,"byteOffset":6099032,"byteLength":1008,"target":34963},{"buffer":0,"byteOffset":6784320,"byteLength":936,"target":34962},{"buffer":0,"byteOffset":6785256,"byteLength":660,"target":34962},{"buffer":0,"byteOffset":6785916,"byteLength":660,"target":34962},{"buffer":0,"byteOffset":2874988,"byteLength":440,"target":34962},{"buffer":0,"byteOffset":438888,"byteLength":480,"target":34963}],"accessors":[{"bufferView":0,"componentType":5126,"count":324,"type":"VEC3","min":[-0.5,-0.5,-0.5],"max":[0.5,0.5,0.5]},{"bufferView":1,"componentType":5126,"count":324,"type":"VEC3"},{"bufferView":2,"componentType":5126,"count":324,"type":"VEC2"},{"bufferView":3,"componentType":5126,"count":324,"type":"VEC2"},{"bufferView":4,"componentType":5126,"count":324,"type":"VEC2"},{"bufferView":5,"componentType":5126,"count":324,"type":"VEC2"},{"bufferView":6,"componentType":5126,"count":261,"type":"VEC3","min":[-0.3149999976158142,0,-0.04500000178813934],"max":[0.3149999976158142,0.3149999976158142,0.04500000178813934]},{"bufferView":7,"componentType":5126,"count":261,"type":"VEC3"},{"bufferView":8,"componentType":5126,"count":261,"type":"VEC2"},{"bufferView":9,"componentType":5123,"count":1344,"type":"SCALAR"},{"bufferView":10,"componentType":5126,"count":76,"type":"VEC3","min":[-1,-0.5,-1],"max":[1,0.5,1]},{"bufferView":11,"componentType":5126,"count":76,"type":"VEC3"},{"bufferView":12,"componentType":5126,"count":76,"type":"VEC2"},{"bufferView":13,"componentType":5123,"count":144,"type":"SCALAR"},{"bufferView":14,"componentType":5126,"count":46,"type":"VEC3","min":[-0.9749279022216797,-0.5,-0.9009688496589661],"max":[0.9749279022216797,0.5,1]},{"bufferView":15,"componentType":5126,"count":46,"type":"VEC3"},{"bufferView":16,"componentType":5126,"count":46,"type":"VEC2"},{"bufferView":17,"componentType":5123,"count":84,"type":"SCALAR"},{"bufferView":18,"componentType":5126,"count":81,"type":"VEC3","min":[-0.7461280822753906,1.0620466470718384,-0.054999999701976776],"max":[0.046128079295158386,2.199953317642212,0.054999999701976776]},{"bufferView":19,"componentType":5126,"count":81,"type":"VEC3"},{"bufferView":20,"componentType":5126,"count":81,"type":"VEC2"},{"bufferView":21,"componentType":5123,"count":384,"type":"SCALAR"},{"bufferView":22,"componentType":5126,"count":81,"type":"VEC3","min":[-0.04531169682741165,1.1884006261825562,-0.049038875848054886],"max":[0.6403117179870605,2.506199359893799,0.3290388882160187]},{"bufferView":23,"componentType":5126,"count":81,"type":"VEC3"},{"bufferView":24,"componentType":5126,"count":273,"type":"VEC3","min":[-1,-1,-1],"max":[1,1,1]},{"bufferView":25,"componentType":5126,"count":273,"type":"VEC2"},{"bufferView":26,"componentType":5123,"count":1320,"type":"SCALAR"},{"bufferView":27,"componentType":5126,"count":273,"type":"VEC2"},{"bufferView":28,"componentType":5126,"count":24,"type":"VEC3","min":[-0.5,-0.5,-0.02500000037252903],"max":[0.5,0.5,0.02500000037252903]},{"bufferView":29,"componentType":5126,"count":24,"type":"VEC3"},{"bufferView":30,"componentType":5126,"count":24,"type":"VEC2"},{"bufferView":31,"componentType":5123,"count":36,"type":"SCALAR"},{"bufferView":32,"componentType":5126,"count":4,"type":"VEC3","min":[-0.5,-0.5,0],"max":[0.5,0.5,0]},{"bufferView":33,"componentType":5126,"count":4,"type":"VEC3"},{"bufferView":34,"componentType":5126,"count":4,"type":"VEC2"},{"bufferView":35,"componentType":5123,"count":6,"type":"SCALAR"},{"bufferView":36,"componentType":5126,"count":24,"type":"VEC3","min":[-0.5,-0.5,-0.5],"max":[0.5,0.5,0.5]},{"bufferView":37,"componentType":5126,"count":24,"type":"VEC2"},{"bufferView":38,"componentType":5126,"count":24,"type":"VEC2"},{"bufferView":39,"componentType":5126,"count":24,"type":"VEC2"},{"bufferView":40,"componentType":5126,"count":24,"type":"VEC2"},{"bufferView":41,"componentType":5126,"count":119,"type":"VEC3","min":[-0.3149999976158142,0,-0.03897114470601082],"max":[0.3149999976158142,0.3149999976158142,0.03897114470601082]},{"bufferView":42,"componentType":5126,"count":119,"type":"VEC3"},{"bufferView":43,"componentType":5126,"count":119,"type":"VEC2"},{"bufferView":44,"componentType":5123,"count":576,"type":"SCALAR"},{"bufferView":45,"componentType":5126,"count":40,"type":"VEC3","min":[-0.8660253882408142,-0.5,-1],"max":[0.8660253882408142,0.5,1]},{"bufferView":46,"componentType":5126,"count":40,"type":"VEC3"},{"bufferView":47,"componentType":5126,"count":40,"type":"VEC2"},{"bufferView":48,"componentType":5123,"count":72,"type":"SCALAR"},{"bufferView":49,"componentType":5126,"count":40,"type":"VEC3","min":[-0.8660253882408142,-0.5,-1],"max":[0.8660253882408142,0.5,1]},{"bufferView":50,"componentType":5126,"count":40,"type":"VEC3"},{"bufferView":51,"componentType":5126,"count":40,"type":"VEC2"},{"bufferView":52,"componentType":5126,"count":35,"type":"VEC3","min":[-0.7399480938911438,1.0660597085952759,-0.054999999701976776],"max":[0.03994809091091156,2.1959402561187744,0.054999999701976776]},{"bufferView":53,"componentType":5126,"count":35,"type":"VEC3"},{"bufferView":54,"componentType":5126,"count":35,"type":"VEC2"},{"bufferView":55,"componentType":5123,"count":144,"type":"SCALAR"},{"bufferView":56,"componentType":5126,"count":35,"type":"VEC3","min":[-0.04130348190665245,1.1868723630905151,-0.049038875848054886],"max":[0.6363034844398499,2.50772762298584,0.3290388882160187]},{"bufferView":57,"componentType":5126,"count":35,"type":"VEC3"},{"bufferView":58,"componentType":5126,"count":117,"type":"VEC3","min":[-1,-1,-1],"max":[1,1,1]},{"bufferView":59,"componentType":5126,"count":117,"type":"VEC2"},{"bufferView":60,"componentType":5123,"count":504,"type":"SCALAR"},{"bufferView":61,"componentType":5126,"count":117,"type":"VEC2"},{"bufferView":62,"componentType":5126,"count":55,"type":"VEC3","min":[-0.3149999976158142,0,-0.04500000178813934],"max":[0.3149999976158142,0.3149999976158142,0.04500000178813934]},{"bufferView":63,"componentType":5126,"count":55,"type":"VEC3"},{"bufferView":64,"componentType":5126,"count":55,"type":"VEC2"},{"bufferView":65,"componentType":5123,"count":240,"type":"SCALAR"}],"extensionsUsed":["KHR_materials_unlit"],"extras":{"id":"vlt-hostile-bench-plaza-08","family":"hostile-bench-plaza","variant":7,"plan":"B3-1","units":"metres","up":"+Y","front":"+Z","lodScenes":[0,1,2]}}