{"asset":{"version":"2.0","generator":"SLOPMERICA Department of Unnecessary Development 1.0"},"scene":0,"scenes":[{"name":"LOD 0","nodes":[0,1,2,3,4,5,6,7,8,9,10,11,12,13,14,15,16,17,18,19,20,21,22,23,24,25,26,27,28,29,30,31,32,33,34,35,36,37,38,39],"extras":{"level":0}},{"name":"LOD 1","nodes":[40,41,42,43,44,45,46,47,48,49,50,51,52,53,54,55,56,57,58,59,60,61,62,63,64,65,66,67,68,69],"extras":{"level":1}},{"name":"LOD 2","nodes":[70,71,72,73,74,75,76,77,78,79,80,81,82,83,84,85,86,87,88,89,90],"extras":{"level":2}}],"nodes":[{"name":"site-pad","mesh":0,"translation":[0,0.06,0],"scale":[7.28,0.12,7.28]},{"name":"variant-apron","mesh":1,"translation":[0.455,0.13,3.72],"scale":[1.54,0.08,1.16]},{"name":"bollard-0","mesh":2,"translation":[-2.66,0.43,3.84],"scale":[0.08,0.7,0.08]},{"name":"layout-cabinet","mesh":3,"translation":[-3.7,0.495,0.525],"scale":[0.69,0.75,0.32]},{"name":"deferred-maintenance-skip","mesh":4,"translation":[2.38,0.5,-3.08],"scale":[1.15,0.75,0.65]},{"name":"skip-rubble","mesh":5,"translation":[2.38,0.98,-3.08],"rotation":[0,0.198669,0,0.980067],"scale":[0.72,0.2,0.5]},{"name":"cell-trunk","mesh":6,"translation":[0,7.8,0],"scale":[0.55,15.6,0.55]},{"name":"fake-branch-0-0","mesh":7,"translation":[0,7.488,1.1],"rotation":[0,0,-0.07493,0.997189],"scale":[0.14,0.14,3.32]},{"name":"fake-branch-0-1","mesh":7,"translation":[1.046162,7.488,0.339919],"rotation":[0.044043,0.586133,0.060619,0.806743],"scale":[0.14,0.14,3.32]},{"name":"fake-branch-0-2","mesh":7,"translation":[0.646564,7.488,-0.889919],"rotation":[-0.071262,0.948383,-0.023155,0.308148],"scale":[0.14,0.14,3.32]},{"name":"fake-branch-0-3","mesh":7,"translation":[-0.646564,7.488,-0.889919],"rotation":[0.071262,0.948383,-0.023155,-0.308148],"scale":[0.14,0.14,3.32]},{"name":"fake-branch-0-4","mesh":7,"translation":[-1.046162,7.488,0.339919],"rotation":[0.044043,-0.586133,-0.060619,0.806743],"scale":[0.14,0.14,3.32]},{"name":"fake-branch-1-0","mesh":7,"translation":[0.377188,9.282,1.03331],"rotation":[-0.013046,0.173619,-0.073785,0.981958],"scale":[0.14,0.14,3.32]},{"name":"fake-branch-1-1","mesh":7,"translation":[1.099294,9.282,-0.039416],"rotation":[0.053924,0.717641,0.052025,0.69237],"scale":[0.14,0.14,3.32]},{"name":"fake-branch-1-2","mesh":7,"translation":[0.302213,9.282,-1.057671],"rotation":[-0.074205,0.987549,-0.010394,0.138321],"scale":[0.14,0.14,3.32]},{"name":"fake-branch-1-3","mesh":7,"translation":[-0.912516,9.282,-0.61426],"rotation":[0.066143,0.880247,-0.035208,-0.468563],"scale":[0.14,0.14,3.32]},{"name":"fake-branch-1-4","mesh":7,"translation":[-0.866179,9.282,0.678037],"rotation":[0.032816,-0.43672,-0.067362,0.896471],"scale":[0.14,0.14,3.32]},{"name":"fake-branch-2-0","mesh":7,"translation":[0.708639,11.076,0.841326],"rotation":[-0.025693,0.341934,-0.070387,0.936732],"scale":[0.14,0.14,3.32]},{"name":"fake-branch-2-1","mesh":7,"translation":[1.019131,11.076,-0.413972],"rotation":[0.062159,0.827228,0.041842,0.556848],"scale":[0.14,0.14,3.32]},{"name":"fake-branch-2-2","mesh":7,"translation":[-0.078782,11.076,-1.097175],"rotation":[-0.074882,0.996548,0.002685,-0.035732],"scale":[0.14,0.14,3.32]},{"name":"fake-branch-2-3","mesh":7,"translation":[-1.067821,11.076,-0.26412],"rotation":[-0.059002,-0.785222,0.046186,0.614665],"scale":[0.14,0.14,3.32]},{"name":"fake-branch-2-4","mesh":7,"translation":[-0.581167,11.076,0.93394],"rotation":[0.020586,-0.273967,-0.072046,0.958816],"scale":[0.14,0.14,3.32]},{"name":"fake-branch-3-0","mesh":7,"translation":[0.954166,12.87,0.547328],"rotation":[-0.037556,0.499804,-0.064838,0.862891],"scale":[0.14,0.14,3.32]},{"name":"fake-branch-3-1","mesh":7,"translation":[0.815393,12.87,-0.738332],"rotation":[0.068494,0.911545,0.030381,0.404316],"scale":[0.14,0.14,3.32]},{"name":"fake-branch-3-2","mesh":7,"translation":[-0.450225,12.87,-1.003642],"rotation":[-0.07327,0.975106,0.015681,-0.208694],"scale":[0.14,0.14,3.32]},{"name":"fake-branch-3-3","mesh":7,"translation":[-1.093648,12.87,0.118047],"rotation":[-0.05006,-0.666211,0.055754,0.74199],"scale":[0.14,0.14,3.32]},{"name":"fake-branch-3-4","mesh":7,"translation":[-0.225687,12.87,1.076599],"rotation":[0.007728,-0.102845,-0.07453,0.991871],"scale":[0.14,0.14,3.32]},{"name":"fake-branch-4-0","mesh":7,"translation":[1.083995,14.664,0.186964],"rotation":[-0.048271,0.642407,-0.057309,0.762692],"scale":[0.14,0.14,3.32]},{"name":"fake-branch-4-1","mesh":7,"translation":[0.512786,14.664,-0.973165],"rotation":[0.072738,0.968017,0.017991,0.239434],"scale":[0.14,0.14,3.32]},{"name":"fake-branch-4-2","mesh":7,"translation":[-0.767076,14.664,-0.788413],"rotation":[-0.069421,0.923878,0.028199,-0.37528],"scale":[0.14,0.14,3.32]},{"name":"fake-branch-4-3","mesh":7,"translation":[-0.986865,14.664,0.485899],"rotation":[-0.039588,-0.526849,0.063618,0.84665],"scale":[0.14,0.14,3.32]},{"name":"fake-branch-4-4","mesh":7,"translation":[0.15716,14.664,1.088715],"rotation":[-0.005366,0.071419,-0.074737,0.994628],"scale":[0.14,0.14,3.32]},{"name":"antenna-0","mesh":8,"translation":[0,13.728,0.75],"scale":[0.28,1.35,0.16]},{"name":"antenna-1","mesh":8,"translation":[0.713292,13.728,0.231763],"rotation":[0,0.587785,0,0.809017],"scale":[0.28,1.35,0.16]},{"name":"antenna-2","mesh":8,"translation":[0.440839,13.728,-0.606763],"rotation":[0,0.951057,0,0.309017],"scale":[0.28,1.35,0.16]},{"name":"antenna-3","mesh":8,"translation":[-0.440839,13.728,-0.606763],"rotation":[0,0.951057,0,-0.309017],"scale":[0.28,1.35,0.16]},{"name":"antenna-4","mesh":8,"translation":[-0.713292,13.728,0.231763],"rotation":[0,-0.587785,0,0.809017],"scale":[0.28,1.35,0.16]},{"name":"cell-cabinet","mesh":9,"translation":[-2,1,0],"scale":[2.2,1.8,1.5]},{"name":"pine-plaque-back","mesh":10,"translation":[0,1.25,1.2],"scale":[2.6,0.8,1]},{"name":"pine-plaque","mesh":11,"translation":[0,1.25,1.229],"scale":[2.5,0.7,1]},{"name":"site-pad","mesh":12,"translation":[0,0.06,0],"scale":[7.28,0.12,7.28]},{"name":"variant-apron","mesh":13,"translation":[0.455,0.13,3.72],"scale":[1.54,0.08,1.16]},{"name":"bollard-0","mesh":14,"translation":[-2.66,0.43,3.84],"scale":[0.08,0.7,0.08]},{"name":"layout-cabinet","mesh":15,"translation":[-3.7,0.495,0.525],"scale":[0.69,0.75,0.32]},{"name":"deferred-maintenance-skip","mesh":16,"translation":[2.38,0.5,-3.08],"scale":[1.15,0.75,0.65]},{"name":"skip-rubble","mesh":17,"translation":[2.38,0.98,-3.08],"rotation":[0,0.198669,0,0.980067],"scale":[0.72,0.2,0.5]},{"name":"cell-trunk","mesh":18,"translation":[0,7.8,0],"scale":[0.55,15.6,0.55]},{"name":"fake-branch-0-0","mesh":19,"translation":[0,7.488,1.1],"rotation":[0,0,-0.07493,0.997189],"scale":[0.14,0.14,3.32]},{"name":"fake-branch-0-1","mesh":19,"translation":[0.952628,7.488,-0.55],"rotation":[0.064891,0.863591,0.037465,0.498594],"scale":[0.14,0.14,3.32]},{"name":"fake-branch-0-2","mesh":19,"translation":[-0.952628,7.488,-0.55],"rotation":[-0.064891,0.863591,0.037465,-0.498594],"scale":[0.14,0.14,3.32]},{"name":"fake-branch-1-0","mesh":19,"translation":[0.377188,9.282,1.03331],"rotation":[-0.013046,0.173619,-0.073785,0.981958],"scale":[0.14,0.14,3.32]},{"name":"fake-branch-1-1","mesh":19,"translation":[0.706279,9.282,-0.843309],"rotation":[0.070423,0.93721,0.025595,0.340621],"scale":[0.14,0.14,3.32]},{"name":"fake-branch-1-2","mesh":19,"translation":[-1.083466,9.282,-0.190001],"rotation":[0.057377,-0.763591,-0.048191,0.641337],"scale":[0.14,0.14,3.32]},{"name":"fake-branch-2-0","mesh":19,"translation":[0.708639,11.076,0.841326],"rotation":[-0.025693,0.341934,-0.070387,0.936732],"scale":[0.14,0.14,3.32]},{"name":"fake-branch-2-1","mesh":19,"translation":[0.37429,11.076,-1.034363],"rotation":[0.073803,0.982201,0.012942,0.172243],"scale":[0.14,0.14,3.32]},{"name":"fake-branch-2-2","mesh":19,"translation":[-1.08293,11.076,0.193037],"rotation":[0.04811,-0.640267,-0.057444,0.764489],"scale":[0.14,0.14,3.32]},{"name":"fake-branch-3-0","mesh":19,"translation":[0.954166,12.87,0.547328],"rotation":[-0.037556,0.499804,-0.064838,0.862891],"scale":[0.14,0.14,3.32]},{"name":"fake-branch-3-1","mesh":19,"translation":[-0.003083,12.87,-1.099996],"rotation":[0.07493,0.997188,-0.000105,-0.001397],"scale":[0.14,0.14,3.32]},{"name":"fake-branch-3-2","mesh":19,"translation":[-0.951083,12.87,0.552668],"rotation":[0.037374,-0.497384,-0.064943,0.864289],"scale":[0.14,0.14,3.32]},{"name":"fake-branch-4-0","mesh":19,"translation":[1.083995,14.664,0.186964],"rotation":[-0.048271,0.642407,-0.057309,0.762692],"scale":[0.14,0.14,3.32]},{"name":"fake-branch-4-1","mesh":19,"translation":[-0.380082,14.664,-1.032249],"rotation":[0.073767,0.981714,-0.013149,-0.174994],"scale":[0.14,0.14,3.32]},{"name":"fake-branch-4-2","mesh":19,"translation":[-0.703913,14.664,0.845285],"rotation":[0.025496,-0.339307,-0.070459,0.937687],"scale":[0.14,0.14,3.32]},{"name":"antenna-0","mesh":20,"translation":[0,13.728,0.75],"scale":[0.28,1.35,0.16]},{"name":"antenna-1","mesh":20,"translation":[0.713292,13.728,0.231763],"rotation":[0,0.587785,0,0.809017],"scale":[0.28,1.35,0.16]},{"name":"antenna-2","mesh":20,"translation":[0.440839,13.728,-0.606763],"rotation":[0,0.951057,0,0.309017],"scale":[0.28,1.35,0.16]},{"name":"antenna-3","mesh":20,"translation":[-0.440839,13.728,-0.606763],"rotation":[0,0.951057,0,-0.309017],"scale":[0.28,1.35,0.16]},{"name":"antenna-4","mesh":20,"translation":[-0.713292,13.728,0.231763],"rotation":[0,-0.587785,0,0.809017],"scale":[0.28,1.35,0.16]},{"name":"cell-cabinet","mesh":21,"translation":[-2,1,0],"scale":[2.2,1.8,1.5]},{"name":"pine-plaque-back","mesh":10,"translation":[0,1.25,1.2],"scale":[2.6,0.8,1]},{"name":"pine-plaque","mesh":11,"translation":[0,1.25,1.229],"scale":[2.5,0.7,1]},{"name":"site-pad","mesh":12,"translation":[0,0.06,0],"scale":[7.28,0.12,7.28]},{"name":"variant-apron","mesh":13,"translation":[0.455,0.13,3.72],"scale":[1.54,0.08,1.16]},{"name":"bollard-0","mesh":14,"translation":[-2.66,0.43,3.84],"scale":[0.08,0.7,0.08]},{"name":"layout-cabinet","mesh":15,"translation":[-3.7,0.495,0.525],"scale":[0.69,0.75,0.32]},{"name":"deferred-maintenance-skip","mesh":16,"translation":[2.38,0.5,-3.08],"scale":[1.15,0.75,0.65]},{"name":"cell-trunk","mesh":18,"translation":[0,7.8,0],"scale":[0.55,15.6,0.55]},{"name":"fake-branch-0-0","mesh":19,"translation":[0,7.488,1.1],"rotation":[0,0,-0.07493,0.997189],"scale":[0.14,0.14,3.32]},{"name":"fake-branch-0-1","mesh":19,"translation":[0.952628,7.488,-0.55],"rotation":[0.064891,0.863591,0.037465,0.498594],"scale":[0.14,0.14,3.32]},{"name":"fake-branch-0-2","mesh":19,"translation":[-0.952628,7.488,-0.55],"rotation":[-0.064891,0.863591,0.037465,-0.498594],"scale":[0.14,0.14,3.32]},{"name":"fake-branch-1-0","mesh":19,"translation":[0.377188,11.076,1.03331],"rotation":[-0.013046,0.173619,-0.073785,0.981958],"scale":[0.14,0.14,3.32]},{"name":"fake-branch-1-1","mesh":19,"translation":[0.706279,11.076,-0.843309],"rotation":[0.070423,0.93721,0.025595,0.340621],"scale":[0.14,0.14,3.32]},{"name":"fake-branch-1-2","mesh":19,"translation":[-1.083466,11.076,-0.190001],"rotation":[0.057377,-0.763591,-0.048191,0.641337],"scale":[0.14,0.14,3.32]},{"name":"fake-branch-2-0","mesh":19,"translation":[0.708639,14.664,0.841326],"rotation":[-0.025693,0.341934,-0.070387,0.936732],"scale":[0.14,0.14,3.32]},{"name":"fake-branch-2-1","mesh":19,"translation":[0.37429,14.664,-1.034363],"rotation":[0.073803,0.982201,0.012942,0.172243],"scale":[0.14,0.14,3.32]},{"name":"fake-branch-2-2","mesh":19,"translation":[-1.08293,14.664,0.193037],"rotation":[0.04811,-0.640267,-0.057444,0.764489],"scale":[0.14,0.14,3.32]},{"name":"antenna-0","mesh":20,"translation":[0,13.728,0.75],"scale":[0.28,1.35,0.16]},{"name":"antenna-1","mesh":20,"translation":[0.649519,13.728,-0.375],"rotation":[0,0.866025,0,0.5],"scale":[0.28,1.35,0.16]},{"name":"antenna-2","mesh":20,"translation":[-0.649519,13.728,-0.375],"rotation":[0,0.866025,0,-0.5],"scale":[0.28,1.35,0.16]},{"name":"cell-cabinet","mesh":21,"translation":[-2,1,0],"scale":[2.2,1.8,1.5]},{"name":"pine-plaque-back","mesh":10,"translation":[0,1.25,1.2],"scale":[2.6,0.8,1]},{"name":"pine-plaque","mesh":11,"translation":[0,1.25,1.229],"scale":[2.5,0.7,1]}],"meshes":[{"primitives":[{"attributes":{"POSITION":0,"NORMAL":1,"TEXCOORD_0":2},"material":0,"mode":4}]},{"primitives":[{"attributes":{"POSITION":0,"NORMAL":1,"TEXCOORD_0":3},"material":1,"mode":4}]},{"primitives":[{"attributes":{"POSITION":4,"NORMAL":5,"TEXCOORD_0":6},"material":2,"mode":4,"indices":7}]},{"primitives":[{"attributes":{"POSITION":0,"NORMAL":1,"TEXCOORD_0":8},"material":3,"mode":4}]},{"primitives":[{"attributes":{"POSITION":0,"NORMAL":1,"TEXCOORD_0":9},"material":2,"mode":4}]},{"primitives":[{"attributes":{"POSITION":0,"NORMAL":1,"TEXCOORD_0":10},"material":0,"mode":4}]},{"primitives":[{"attributes":{"POSITION":11,"NORMAL":12,"TEXCOORD_0":13},"material":4,"mode":4,"indices":7}]},{"primitives":[{"attributes":{"POSITION":0,"NORMAL":1,"TEXCOORD_0":14},"material":5,"mode":4}]},{"primitives":[{"attributes":{"POSITION":0,"NORMAL":1,"TEXCOORD_0":15},"material":6,"mode":4}]},{"primitives":[{"attributes":{"POSITION":16,"NORMAL":1,"TEXCOORD_0":17},"material":3,"mode":4}]},{"primitives":[{"attributes":{"POSITION":18,"NORMAL":19,"TEXCOORD_0":20},"material":7,"mode":4,"indices":21}]},{"primitives":[{"attributes":{"POSITION":22,"NORMAL":23,"TEXCOORD_0":24},"material":8,"mode":4,"indices":25}]},{"primitives":[{"attributes":{"POSITION":26,"NORMAL":19,"TEXCOORD_0":27},"material":0,"mode":4,"indices":21}]},{"primitives":[{"attributes":{"POSITION":26,"NORMAL":19,"TEXCOORD_0":28},"material":1,"mode":4,"indices":21}]},{"primitives":[{"attributes":{"POSITION":29,"NORMAL":30,"TEXCOORD_0":31},"material":2,"mode":4,"indices":32}]},{"primitives":[{"attributes":{"POSITION":26,"NORMAL":19,"TEXCOORD_0":33},"material":3,"mode":4,"indices":21}]},{"primitives":[{"attributes":{"POSITION":26,"NORMAL":19,"TEXCOORD_0":34},"material":2,"mode":4,"indices":21}]},{"primitives":[{"attributes":{"POSITION":26,"NORMAL":19,"TEXCOORD_0":35},"material":0,"mode":4,"indices":21}]},{"primitives":[{"attributes":{"POSITION":36,"NORMAL":37,"TEXCOORD_0":38},"material":4,"mode":4,"indices":32}]},{"primitives":[{"attributes":{"POSITION":26,"NORMAL":19,"TEXCOORD_0":39},"material":5,"mode":4,"indices":21}]},{"primitives":[{"attributes":{"POSITION":26,"NORMAL":19,"TEXCOORD_0":40},"material":6,"mode":4,"indices":21}]},{"primitives":[{"attributes":{"POSITION":26,"NORMAL":19,"TEXCOORD_0":41},"material":3,"mode":4,"indices":21}]}],"materials":[{"name":"concrete","pbrMetallicRoughness":{"baseColorTexture":{"index":0},"metallicRoughnessTexture":{"index":2},"roughnessFactor":1,"metallicFactor":1},"normalTexture":{"index":1,"scale":0.82},"occlusionTexture":{"index":2,"strength":0.35}},{"name":"asphalt","pbrMetallicRoughness":{"baseColorTexture":{"index":3},"metallicRoughnessTexture":{"index":5},"roughnessFactor":1,"metallicFactor":1},"normalTexture":{"index":4,"scale":0.62},"occlusionTexture":{"index":5,"strength":0.35}},{"name":"paint-orange","pbrMetallicRoughness":{"baseColorFactor":[0.6444796819634361,0.1878207722902346,0.040915196900556984,1],"roughnessFactor":0.68,"metallicFactor":0.03}},{"name":"metal-galvanized","pbrMetallicRoughness":{"baseColorTexture":{"index":6},"metallicRoughnessTexture":{"index":8},"roughnessFactor":1,"metallicFactor":1},"normalTexture":{"index":7,"scale":0.15},"occlusionTexture":{"index":8,"strength":0.35}},{"name":"bark","pbrMetallicRoughness":{"baseColorTexture":{"index":9},"metallicRoughnessTexture":{"index":11},"roughnessFactor":1,"metallicFactor":1},"normalTexture":{"index":10,"scale":1.35},"occlusionTexture":{"index":11,"strength":0.35}},{"name":"foliage","pbrMetallicRoughness":{"baseColorTexture":{"index":12},"metallicRoughnessTexture":{"index":14},"roughnessFactor":1,"metallicFactor":1},"normalTexture":{"index":13,"scale":0.88},"occlusionTexture":{"index":14,"strength":0.35}},{"name":"paint-white","pbrMetallicRoughness":{"baseColorFactor":[0.7912979403281551,0.7681511472425809,0.6795424696265424,1],"roughnessFactor":0.68,"metallicFactor":0}},{"name":"metal-dark","pbrMetallicRoughness":{"baseColorTexture":{"index":15},"metallicRoughnessTexture":{"index":17},"roughnessFactor":1,"metallicFactor":1},"normalTexture":{"index":16,"scale":0.35},"occlusionTexture":{"index":17,"strength":0.35}},{"name":"frankenpine-cell-tower signage","pbrMetallicRoughness":{"baseColorTexture":{"index":18},"roughnessFactor":1,"metallicFactor":0},"extensions":{"KHR_materials_unlit":{}}}],"textures":[{"source":0,"sampler":0},{"source":1,"sampler":0},{"source":2,"sampler":0},{"source":3,"sampler":0},{"source":4,"sampler":0},{"source":5,"sampler":0},{"source":6,"sampler":0},{"source":7,"sampler":0},{"source":8,"sampler":0},{"source":9,"sampler":0},{"source":10,"sampler":0},{"source":11,"sampler":0},{"source":12,"sampler":0},{"source":13,"sampler":0},{"source":14,"sampler":0},{"source":15,"sampler":0},{"source":16,"sampler":0},{"source":17,"sampler":0},{"source":18,"sampler":0}],"images":[{"uri":"../textures/concrete-albedo.png"},{"uri":"../textures/concrete-normal.png"},{"uri":"../textures/concrete-orm.png"},{"uri":"../textures/asphalt-albedo.png"},{"uri":"../textures/asphalt-normal.png"},{"uri":"../textures/asphalt-orm.png"},{"uri":"../textures/metal-galvanized-albedo.png"},{"uri":"../textures/metal-galvanized-normal.png"},{"uri":"../textures/metal-galvanized-orm.png"},{"uri":"../textures/bark-albedo.png"},{"uri":"../textures/bark-normal.png"},{"uri":"../textures/bark-orm.png"},{"uri":"../textures/foliage-albedo.png"},{"uri":"../textures/foliage-normal.png"},{"uri":"../textures/foliage-orm.png"},{"uri":"../textures/metal-dark-albedo.png"},{"uri":"../textures/metal-dark-normal.png"},{"uri":"../textures/metal-dark-orm.png"},{"uri":"../signs/frankenpine-cell-tower.png"}],"samplers":[{"magFilter":9729,"minFilter":9987,"wrapS":10497,"wrapT":10497}],"buffers":[{"uri":"../shared/geometry.bin","byteLength":16435520}],"bufferViews":[{"buffer":0,"byteOffset":0,"byteLength":3888,"target":34962},{"buffer":0,"byteOffset":3888,"byteLength":3888,"target":34962},{"buffer":0,"byteOffset":5065976,"byteLength":2592,"target":34962},{"buffer":0,"byteOffset":5137320,"byteLength":2592,"target":34962},{"buffer":0,"byteOffset":12960,"byteLength":1200,"target":34962},{"buffer":0,"byteOffset":14160,"byteLength":1200,"target":34962},{"buffer":0,"byteOffset":150020,"byteLength":800,"target":34962},{"buffer":0,"byteOffset":16160,"byteLength":384,"target":34963},{"buffer":0,"byteOffset":150820,"byteLength":2592,"target":34962},{"buffer":0,"byteOffset":205668,"byteLength":2592,"target":34962},{"buffer":0,"byteOffset":208260,"byteLength":2592,"target":34962},{"buffer":0,"byteOffset":5071160,"byteLength":1200,"target":34962},{"buffer":0,"byteOffset":5072360,"byteLength":1200,"target":34962},{"buffer":0,"byteOffset":5139912,"byteLength":800,"target":34962},{"buffer":0,"byteOffset":5140712,"byteLength":2592,"target":34962},{"buffer":0,"byteOffset":5076952,"byteLength":2592,"target":34962},{"buffer":0,"byteOffset":5079544,"byteLength":3888,"target":34962},{"buffer":0,"byteOffset":5083432,"byteLength":2592,"target":34962},{"buffer":0,"byteOffset":45664,"byteLength":288,"target":34962},{"buffer":0,"byteOffset":45952,"byteLength":288,"target":34962},{"buffer":0,"byteOffset":46240,"byteLength":192,"target":34962},{"buffer":0,"byteOffset":46432,"byteLength":72,"target":34963},{"buffer":0,"byteOffset":46504,"byteLength":48,"target":34962},{"buffer":0,"byteOffset":46552,"byteLength":48,"target":34962},{"buffer":0,"byteOffset":222692,"byteLength":32,"target":34962},{"buffer":0,"byteOffset":46632,"byteLength":12,"target":34963},{"buffer":0,"byteOffset":46644,"byteLength":288,"target":34962},{"buffer":0,"byteOffset":5086024,"byteLength":192,"target":34962},{"buffer":0,"byteOffset":5143304,"byteLength":192,"target":34962},{"buffer":0,"byteOffset":47316,"byteLength":480,"target":34962},{"buffer":0,"byteOffset":47796,"byteLength":480,"target":34962},{"buffer":0,"byteOffset":153636,"byteLength":320,"target":34962},{"buffer":0,"byteOffset":48596,"byteLength":144,"target":34963},{"buffer":0,"byteOffset":153956,"byteLength":192,"target":34962},{"buffer":0,"byteOffset":210884,"byteLength":192,"target":34962},{"buffer":0,"byteOffset":211076,"byteLength":192,"target":34962},{"buffer":0,"byteOffset":5086408,"byteLength":480,"target":34962},{"buffer":0,"byteOffset":5086888,"byteLength":480,"target":34962},{"buffer":0,"byteOffset":5143496,"byteLength":320,"target":34962},{"buffer":0,"byteOffset":5143816,"byteLength":192,"target":34962},{"buffer":0,"byteOffset":5087880,"byteLength":192,"target":34962},{"buffer":0,"byteOffset":5088072,"byteLength":192,"target":34962}],"accessors":[{"bufferView":0,"componentType":5126,"count":324,"type":"VEC3","min":[-0.5,-0.5,-0.5],"max":[0.5,0.5,0.5]},{"bufferView":1,"componentType":5126,"count":324,"type":"VEC3"},{"bufferView":2,"componentType":5126,"count":324,"type":"VEC2"},{"bufferView":3,"componentType":5126,"count":324,"type":"VEC2"},{"bufferView":4,"componentType":5126,"count":100,"type":"VEC3","min":[-1,-0.5,-1],"max":[1,0.5,1]},{"bufferView":5,"componentType":5126,"count":100,"type":"VEC3"},{"bufferView":6,"componentType":5126,"count":100,"type":"VEC2"},{"bufferView":7,"componentType":5123,"count":192,"type":"SCALAR"},{"bufferView":8,"componentType":5126,"count":324,"type":"VEC2"},{"bufferView":9,"componentType":5126,"count":324,"type":"VEC2"},{"bufferView":10,"componentType":5126,"count":324,"type":"VEC2"},{"bufferView":11,"componentType":5126,"count":100,"type":"VEC3","min":[-1,-0.5,-1],"max":[1,0.5,1]},{"bufferView":12,"componentType":5126,"count":100,"type":"VEC3"},{"bufferView":13,"componentType":5126,"count":100,"type":"VEC2"},{"bufferView":14,"componentType":5126,"count":324,"type":"VEC2"},{"bufferView":15,"componentType":5126,"count":324,"type":"VEC2"},{"bufferView":16,"componentType":5126,"count":324,"type":"VEC3","min":[-0.5,-0.5,-0.5],"max":[0.5,0.5,0.5]},{"bufferView":17,"componentType":5126,"count":324,"type":"VEC2"},{"bufferView":18,"componentType":5126,"count":24,"type":"VEC3","min":[-0.5,-0.5,-0.02500000037252903],"max":[0.5,0.5,0.02500000037252903]},{"bufferView":19,"componentType":5126,"count":24,"type":"VEC3"},{"bufferView":20,"componentType":5126,"count":24,"type":"VEC2"},{"bufferView":21,"componentType":5123,"count":36,"type":"SCALAR"},{"bufferView":22,"componentType":5126,"count":4,"type":"VEC3","min":[-0.5,-0.5,0],"max":[0.5,0.5,0]},{"bufferView":23,"componentType":5126,"count":4,"type":"VEC3"},{"bufferView":24,"componentType":5126,"count":4,"type":"VEC2"},{"bufferView":25,"componentType":5123,"count":6,"type":"SCALAR"},{"bufferView":26,"componentType":5126,"count":24,"type":"VEC3","min":[-0.5,-0.5,-0.5],"max":[0.5,0.5,0.5]},{"bufferView":27,"componentType":5126,"count":24,"type":"VEC2"},{"bufferView":28,"componentType":5126,"count":24,"type":"VEC2"},{"bufferView":29,"componentType":5126,"count":40,"type":"VEC3","min":[-0.8660253882408142,-0.5,-1],"max":[0.8660253882408142,0.5,1]},{"bufferView":30,"componentType":5126,"count":40,"type":"VEC3"},{"bufferView":31,"componentType":5126,"count":40,"type":"VEC2"},{"bufferView":32,"componentType":5123,"count":72,"type":"SCALAR"},{"bufferView":33,"componentType":5126,"count":24,"type":"VEC2"},{"bufferView":34,"componentType":5126,"count":24,"type":"VEC2"},{"bufferView":35,"componentType":5126,"count":24,"type":"VEC2"},{"bufferView":36,"componentType":5126,"count":40,"type":"VEC3","min":[-0.8660253882408142,-0.5,-1],"max":[0.8660253882408142,0.5,1]},{"bufferView":37,"componentType":5126,"count":40,"type":"VEC3"},{"bufferView":38,"componentType":5126,"count":40,"type":"VEC2"},{"bufferView":39,"componentType":5126,"count":24,"type":"VEC2"},{"bufferView":40,"componentType":5126,"count":24,"type":"VEC2"},{"bufferView":41,"componentType":5126,"count":24,"type":"VEC2"}],"extensionsUsed":["KHR_materials_unlit"],"extras":{"id":"vlt-frankenpine-cell-tower-31","family":"frankenpine-cell-tower","variant":30,"plan":"C1-2","units":"metres","up":"+Y","front":"+Z","lodScenes":[0,1,2]}}