{"asset":{"version":"2.0","generator":"SLOPMERICA Department of Unnecessary Development 1.0"},"scene":0,"scenes":[{"name":"LOD 0","nodes":[0,1,2,3,4,5,6,7,8,9,10,11,12,13,14,15],"extras":{"level":0}},{"name":"LOD 1","nodes":[16,17,18,19,20,21,22,23,24,25,26,27],"extras":{"level":1}},{"name":"LOD 2","nodes":[28,29,30,31,32,33,34,35,36,37],"extras":{"level":2}}],"nodes":[{"name":"foundation","mesh":0,"translation":[0,0.08,0],"scale":[15.4,0.16,12.32]},{"name":"lab","mesh":1,"translation":[0,1.9176,0],"scale":[13.2,3.8352,10.12]},{"name":"points-tube-0","mesh":2,"translation":[-4.488,3.4968,2.8336],"scale":[0.42,5.076,0.42]},{"name":"tube-cap-0","mesh":3,"translation":[-4.488,6.0912,2.8336],"scale":[0.44,0.25,0.44]},{"name":"points-tube-1","mesh":4,"translation":[-2.244,3.4968,2.8336],"scale":[0.42,5.076,0.42]},{"name":"tube-cap-1","mesh":3,"translation":[-2.244,6.0912,2.8336],"scale":[0.44,0.25,0.44]},{"name":"points-tube-2","mesh":5,"translation":[0,3.4968,2.8336],"scale":[0.42,5.076,0.42]},{"name":"tube-cap-2","mesh":3,"translation":[0,6.0912,2.8336],"scale":[0.44,0.25,0.44]},{"name":"points-tube-3","mesh":2,"translation":[2.244,3.4968,2.8336],"scale":[0.42,5.076,0.42]},{"name":"tube-cap-3","mesh":3,"translation":[2.244,6.0912,2.8336],"scale":[0.44,0.25,0.44]},{"name":"points-tube-4","mesh":4,"translation":[4.488,3.4968,2.8336],"scale":[0.42,5.076,0.42]},{"name":"tube-cap-4","mesh":3,"translation":[4.488,6.0912,2.8336],"scale":[0.44,0.25,0.44]},{"name":"loyalty-orbit","mesh":6,"translation":[0,7.05,0],"rotation":[0.707107,0,0,0.707107]},{"name":"lab-sign-back","mesh":7,"translation":[0,2.7072,5.19],"scale":[6.172,1.1,1]},{"name":"lab-sign","mesh":8,"translation":[0,2.7072,5.219],"scale":[6.072,1,1]},{"name":"open-state-bollard","mesh":9,"translation":[-5.676,0.425,5.6672],"scale":[0.22,0.85,0.22]},{"name":"foundation","mesh":10,"translation":[0,0.08,0],"scale":[15.4,0.16,12.32]},{"name":"lab","mesh":11,"translation":[0,1.9176,0],"scale":[13.2,3.8352,10.12]},{"name":"points-tube-0","mesh":12,"translation":[-4.488,3.4968,2.8336],"scale":[0.42,5.076,0.42]},{"name":"tube-cap-0","mesh":13,"translation":[-4.488,6.0912,2.8336],"scale":[0.44,0.25,0.44]},{"name":"points-tube-1","mesh":14,"translation":[0,3.4968,2.8336],"scale":[0.42,5.076,0.42]},{"name":"tube-cap-1","mesh":13,"translation":[0,6.0912,2.8336],"scale":[0.44,0.25,0.44]},{"name":"points-tube-2","mesh":15,"translation":[4.488,3.4968,2.8336],"scale":[0.42,5.076,0.42]},{"name":"tube-cap-2","mesh":13,"translation":[4.488,6.0912,2.8336],"scale":[0.44,0.25,0.44]},{"name":"loyalty-orbit","mesh":16,"translation":[0,7.05,0],"rotation":[0.707107,0,0,0.707107]},{"name":"lab-sign-back","mesh":7,"translation":[0,2.7072,5.19],"scale":[6.172,1.1,1]},{"name":"lab-sign","mesh":8,"translation":[0,2.7072,5.219],"scale":[6.072,1,1]},{"name":"open-state-bollard","mesh":17,"translation":[-5.676,0.425,5.6672],"scale":[0.22,0.85,0.22]},{"name":"foundation","mesh":10,"translation":[0,0.08,0],"scale":[15.4,0.16,12.32]},{"name":"lab","mesh":11,"translation":[0,1.9176,0],"scale":[13.2,3.8352,10.12]},{"name":"points-tube-0","mesh":12,"translation":[-4.488,3.4968,2.8336],"scale":[0.42,5.076,0.42]},{"name":"tube-cap-0","mesh":18,"translation":[-4.488,6.0912,2.8336],"scale":[0.44,0.25,0.44]},{"name":"points-tube-1","mesh":14,"translation":[4.488,3.4968,2.8336],"scale":[0.42,5.076,0.42]},{"name":"tube-cap-1","mesh":18,"translation":[4.488,6.0912,2.8336],"scale":[0.44,0.25,0.44]},{"name":"loyalty-orbit","mesh":19,"translation":[0,7.05,0],"rotation":[0.707107,0,0,0.707107]},{"name":"lab-sign-back","mesh":7,"translation":[0,2.7072,5.19],"scale":[6.172,1.1,1]},{"name":"lab-sign","mesh":8,"translation":[0,2.7072,5.219],"scale":[6.072,1,1]},{"name":"open-state-bollard","mesh":17,"translation":[-5.676,0.425,5.6672],"scale":[0.22,0.85,0.22]}],"meshes":[{"primitives":[{"attributes":{"POSITION":0,"NORMAL":1,"TEXCOORD_0":2},"material":0,"mode":4}]},{"primitives":[{"attributes":{"POSITION":3,"NORMAL":1,"TEXCOORD_0":4},"material":1,"mode":4}]},{"primitives":[{"attributes":{"POSITION":5,"NORMAL":6,"TEXCOORD_0":7},"material":2,"mode":4,"indices":8}]},{"primitives":[{"attributes":{"POSITION":9,"NORMAL":9,"TEXCOORD_0":10},"material":3,"mode":4,"indices":11}]},{"primitives":[{"attributes":{"POSITION":5,"NORMAL":6,"TEXCOORD_0":7},"material":4,"mode":4,"indices":8}]},{"primitives":[{"attributes":{"POSITION":5,"NORMAL":6,"TEXCOORD_0":7},"material":5,"mode":4,"indices":8}]},{"primitives":[{"attributes":{"POSITION":12,"NORMAL":13,"TEXCOORD_0":14},"material":2,"mode":4,"indices":15}]},{"primitives":[{"attributes":{"POSITION":16,"NORMAL":17,"TEXCOORD_0":18},"material":6,"mode":4,"indices":19}]},{"primitives":[{"attributes":{"POSITION":20,"NORMAL":21,"TEXCOORD_0":22},"material":7,"mode":4,"indices":23}]},{"primitives":[{"attributes":{"POSITION":0,"NORMAL":1,"TEXCOORD_0":24},"material":2,"mode":4}]},{"primitives":[{"attributes":{"POSITION":25,"NORMAL":17,"TEXCOORD_0":26},"material":0,"mode":4,"indices":19}]},{"primitives":[{"attributes":{"POSITION":25,"NORMAL":17,"TEXCOORD_0":27},"material":1,"mode":4,"indices":19}]},{"primitives":[{"attributes":{"POSITION":28,"NORMAL":29,"TEXCOORD_0":30},"material":2,"mode":4,"indices":31}]},{"primitives":[{"attributes":{"POSITION":32,"NORMAL":32,"TEXCOORD_0":33},"material":3,"mode":4,"indices":34}]},{"primitives":[{"attributes":{"POSITION":28,"NORMAL":29,"TEXCOORD_0":30},"material":4,"mode":4,"indices":31}]},{"primitives":[{"attributes":{"POSITION":28,"NORMAL":29,"TEXCOORD_0":30},"material":5,"mode":4,"indices":31}]},{"primitives":[{"attributes":{"POSITION":35,"NORMAL":36,"TEXCOORD_0":37},"material":2,"mode":4,"indices":38}]},{"primitives":[{"attributes":{"POSITION":25,"NORMAL":17,"TEXCOORD_0":39},"material":2,"mode":4,"indices":19}]},{"primitives":[{"attributes":{"POSITION":40,"NORMAL":40,"TEXCOORD_0":41},"material":3,"mode":4,"indices":42}]},{"primitives":[{"attributes":{"POSITION":43,"NORMAL":44,"TEXCOORD_0":45},"material":2,"mode":4,"indices":46}]}],"materials":[{"name":"concrete","pbrMetallicRoughness":{"baseColorTexture":{"index":0},"metallicRoughnessTexture":{"index":2},"roughnessFactor":1,"metallicFactor":1},"normalTexture":{"index":1,"scale":0.82},"occlusionTexture":{"index":2,"strength":0.35}},{"name":"paint-white","pbrMetallicRoughness":{"baseColorFactor":[0.7912979403281551,0.7681511472425809,0.6795424696265424,1],"roughnessFactor":0.68,"metallicFactor":0}},{"name":"paint-teal","pbrMetallicRoughness":{"baseColorFactor":[0.040915196900556984,0.20507873637973145,0.1878207722902346,1],"roughnessFactor":0.59,"metallicFactor":0.05}},{"name":"glass-blue","pbrMetallicRoughness":{"baseColorTexture":{"index":3},"metallicRoughnessTexture":{"index":5},"roughnessFactor":1,"metallicFactor":1},"normalTexture":{"index":4,"scale":0.12},"occlusionTexture":{"index":5,"strength":0.35}},{"name":"paint-orange","pbrMetallicRoughness":{"baseColorFactor":[0.6444796819634361,0.1878207722902346,0.040915196900556984,1],"roughnessFactor":0.68,"metallicFactor":0.03}},{"name":"paint-blue","pbrMetallicRoughness":{"baseColorFactor":[0.05126945836711539,0.10946171076915331,0.22696587349938613,1],"roughnessFactor":0.58,"metallicFactor":0.05}},{"name":"metal-dark","pbrMetallicRoughness":{"baseColorTexture":{"index":6},"metallicRoughnessTexture":{"index":8},"roughnessFactor":1,"metallicFactor":1},"normalTexture":{"index":7,"scale":0.35},"occlusionTexture":{"index":8,"strength":0.35}},{"name":"loyalty-lab signage","pbrMetallicRoughness":{"baseColorTexture":{"index":9},"roughnessFactor":1,"metallicFactor":0},"extensions":{"KHR_materials_unlit":{}}}],"textures":[{"source":0,"sampler":0},{"source":1,"sampler":0},{"source":2,"sampler":0},{"source":3,"sampler":0},{"source":4,"sampler":0},{"source":5,"sampler":0},{"source":6,"sampler":0},{"source":7,"sampler":0},{"source":8,"sampler":0},{"source":9,"sampler":0}],"images":[{"uri":"../textures/concrete-albedo.png"},{"uri":"../textures/concrete-normal.png"},{"uri":"../textures/concrete-orm.png"},{"uri":"../textures/glass-blue-albedo.png"},{"uri":"../textures/glass-blue-normal.png"},{"uri":"../textures/glass-blue-orm.png"},{"uri":"../textures/metal-dark-albedo.png"},{"uri":"../textures/metal-dark-normal.png"},{"uri":"../textures/metal-dark-orm.png"},{"uri":"../signs/loyalty-lab.png"}],"samplers":[{"magFilter":9729,"minFilter":9987,"wrapS":10497,"wrapT":10497}],"buffers":[{"uri":"../shared/geometry.bin","byteLength":16435520}],"bufferViews":[{"buffer":0,"byteOffset":0,"byteLength":3888,"target":34962},{"buffer":0,"byteOffset":3888,"byteLength":3888,"target":34962},{"buffer":0,"byteOffset":8190152,"byteLength":2592,"target":34962},{"buffer":0,"byteOffset":822696,"byteLength":3888,"target":34962},{"buffer":0,"byteOffset":8192744,"byteLength":2592,"target":34962},{"buffer":0,"byteOffset":5526272,"byteLength":912,"target":34962},{"buffer":0,"byteOffset":5527184,"byteLength":912,"target":34962},{"buffer":0,"byteOffset":8195336,"byteLength":608,"target":34962},{"buffer":0,"byteOffset":387284,"byteLength":288,"target":34963},{"buffer":0,"byteOffset":6080864,"byteLength":3276,"target":34962},{"buffer":0,"byteOffset":8195944,"byteLength":2184,"target":34962},{"buffer":0,"byteOffset":6086324,"byteLength":2640,"target":34963},{"buffer":0,"byteOffset":8198128,"byteLength":3132,"target":34962},{"buffer":0,"byteOffset":390704,"byteLength":3132,"target":34962},{"buffer":0,"byteOffset":393836,"byteLength":2088,"target":34962},{"buffer":0,"byteOffset":395924,"byteLength":2688,"target":34963},{"buffer":0,"byteOffset":45664,"byteLength":288,"target":34962},{"buffer":0,"byteOffset":45952,"byteLength":288,"target":34962},{"buffer":0,"byteOffset":46240,"byteLength":192,"target":34962},{"buffer":0,"byteOffset":46432,"byteLength":72,"target":34963},{"buffer":0,"byteOffset":46504,"byteLength":48,"target":34962},{"buffer":0,"byteOffset":46552,"byteLength":48,"target":34962},{"buffer":0,"byteOffset":46600,"byteLength":32,"target":34962},{"buffer":0,"byteOffset":46632,"byteLength":12,"target":34963},{"buffer":0,"byteOffset":422312,"byteLength":2592,"target":34962},{"buffer":0,"byteOffset":46644,"byteLength":288,"target":34962},{"buffer":0,"byteOffset":8201260,"byteLength":192,"target":34962},{"buffer":0,"byteOffset":8201452,"byteLength":192,"target":34962},{"buffer":0,"byteOffset":1112312,"byteLength":480,"target":34962},{"buffer":0,"byteOffset":1112792,"byteLength":480,"target":34962},{"buffer":0,"byteOffset":8201644,"byteLength":320,"target":34962},{"buffer":0,"byteOffset":48596,"byteLength":144,"target":34963},{"buffer":0,"byteOffset":6096692,"byteLength":1404,"target":34962},{"buffer":0,"byteOffset":8201964,"byteLength":936,"target":34962},{"buffer":0,"byteOffset":6099032,"byteLength":1008,"target":34963},{"buffer":0,"byteOffset":8202900,"byteLength":1428,"target":34962},{"buffer":0,"byteOffset":427996,"byteLength":1428,"target":34962},{"buffer":0,"byteOffset":429424,"byteLength":952,"target":34962},{"buffer":0,"byteOffset":430376,"byteLength":1152,"target":34963},{"buffer":0,"byteOffset":436936,"byteLength":192,"target":34962},{"buffer":0,"byteOffset":6871440,"byteLength":648,"target":34962},{"buffer":0,"byteOffset":8204328,"byteLength":432,"target":34962},{"buffer":0,"byteOffset":6872520,"byteLength":384,"target":34963},{"buffer":0,"byteOffset":8204760,"byteLength":660,"target":34962},{"buffer":0,"byteOffset":437788,"byteLength":660,"target":34962},{"buffer":0,"byteOffset":438448,"byteLength":440,"target":34962},{"buffer":0,"byteOffset":438888,"byteLength":480,"target":34963}],"accessors":[{"bufferView":0,"componentType":5126,"count":324,"type":"VEC3","min":[-0.5,-0.5,-0.5],"max":[0.5,0.5,0.5]},{"bufferView":1,"componentType":5126,"count":324,"type":"VEC3"},{"bufferView":2,"componentType":5126,"count":324,"type":"VEC2"},{"bufferView":3,"componentType":5126,"count":324,"type":"VEC3","min":[-0.5,-0.5,-0.5],"max":[0.5,0.5,0.5]},{"bufferView":4,"componentType":5126,"count":324,"type":"VEC2"},{"bufferView":5,"componentType":5126,"count":76,"type":"VEC3","min":[-1,-0.5,-1],"max":[1,0.5,1]},{"bufferView":6,"componentType":5126,"count":76,"type":"VEC3"},{"bufferView":7,"componentType":5126,"count":76,"type":"VEC2"},{"bufferView":8,"componentType":5123,"count":144,"type":"SCALAR"},{"bufferView":9,"componentType":5126,"count":273,"type":"VEC3","min":[-1,-1,-1],"max":[1,1,1]},{"bufferView":10,"componentType":5126,"count":273,"type":"VEC2"},{"bufferView":11,"componentType":5123,"count":1320,"type":"SCALAR"},{"bufferView":12,"componentType":5126,"count":261,"type":"VEC3","min":[-4.23199987411499,-4.23199987411499,-0.14000000059604645],"max":[4.23199987411499,4.23199987411499,0.14000000059604645]},{"bufferView":13,"componentType":5126,"count":261,"type":"VEC3"},{"bufferView":14,"componentType":5126,"count":261,"type":"VEC2"},{"bufferView":15,"componentType":5123,"count":1344,"type":"SCALAR"},{"bufferView":16,"componentType":5126,"count":24,"type":"VEC3","min":[-0.5,-0.5,-0.02500000037252903],"max":[0.5,0.5,0.02500000037252903]},{"bufferView":17,"componentType":5126,"count":24,"type":"VEC3"},{"bufferView":18,"componentType":5126,"count":24,"type":"VEC2"},{"bufferView":19,"componentType":5123,"count":36,"type":"SCALAR"},{"bufferView":20,"componentType":5126,"count":4,"type":"VEC3","min":[-0.5,-0.5,0],"max":[0.5,0.5,0]},{"bufferView":21,"componentType":5126,"count":4,"type":"VEC3"},{"bufferView":22,"componentType":5126,"count":4,"type":"VEC2"},{"bufferView":23,"componentType":5123,"count":6,"type":"SCALAR"},{"bufferView":24,"componentType":5126,"count":324,"type":"VEC2"},{"bufferView":25,"componentType":5126,"count":24,"type":"VEC3","min":[-0.5,-0.5,-0.5],"max":[0.5,0.5,0.5]},{"bufferView":26,"componentType":5126,"count":24,"type":"VEC2"},{"bufferView":27,"componentType":5126,"count":24,"type":"VEC2"},{"bufferView":28,"componentType":5126,"count":40,"type":"VEC3","min":[-0.8660253882408142,-0.5,-1],"max":[0.8660253882408142,0.5,1]},{"bufferView":29,"componentType":5126,"count":40,"type":"VEC3"},{"bufferView":30,"componentType":5126,"count":40,"type":"VEC2"},{"bufferView":31,"componentType":5123,"count":72,"type":"SCALAR"},{"bufferView":32,"componentType":5126,"count":117,"type":"VEC3","min":[-1,-1,-1],"max":[1,1,1]},{"bufferView":33,"componentType":5126,"count":117,"type":"VEC2"},{"bufferView":34,"componentType":5123,"count":504,"type":"SCALAR"},{"bufferView":35,"componentType":5126,"count":119,"type":"VEC3","min":[-4.23199987411499,-4.23199987411499,-0.12124355882406235],"max":[4.23199987411499,4.23199987411499,0.12124355882406235]},{"bufferView":36,"componentType":5126,"count":119,"type":"VEC3"},{"bufferView":37,"componentType":5126,"count":119,"type":"VEC2"},{"bufferView":38,"componentType":5123,"count":576,"type":"SCALAR"},{"bufferView":39,"componentType":5126,"count":24,"type":"VEC2"},{"bufferView":40,"componentType":5126,"count":54,"type":"VEC3","min":[-0.9510565400123596,-1,-0.9510565400123596],"max":[0.9510565400123596,1,0.9510565400123596]},{"bufferView":41,"componentType":5126,"count":54,"type":"VEC2"},{"bufferView":42,"componentType":5123,"count":192,"type":"SCALAR"},{"bufferView":43,"componentType":5126,"count":55,"type":"VEC3","min":[-4.23199987411499,-4.024871349334717,-0.14000000059604645],"max":[4.23199987411499,4.024871349334717,0.14000000059604645]},{"bufferView":44,"componentType":5126,"count":55,"type":"VEC3"},{"bufferView":45,"componentType":5126,"count":55,"type":"VEC2"},{"bufferView":46,"componentType":5123,"count":240,"type":"SCALAR"}],"extensionsUsed":["KHR_materials_unlit"],"extras":{"id":"vlt-loyalty-lab-01","family":"loyalty-lab","variant":0,"plan":"A1-1","units":"metres","up":"+Y","front":"+Z","lodScenes":[0,1,2]}}