{"asset":{"version":"2.0","generator":"SLOPMERICA Department of Unnecessary Development 1.0"},"scene":0,"scenes":[{"name":"LOD 0","nodes":[0,1,2,3,4,5,6,7,8,9,10,11,12,13,14,15,16,17,18,19,20,21,22,23,24,25,26,27,28],"extras":{"level":0}},{"name":"LOD 1","nodes":[29,30,31,32,33,34,35,36,37,38,39,40,41,42,43,44,45,46,47,48,49,50,51,52,53,54,55,56,57],"extras":{"level":1}},{"name":"LOD 2","nodes":[58,59,60,61,62,63,64,65,66,67,68,69,70,71],"extras":{"level":2}}],"nodes":[{"name":"site-pad","mesh":0,"translation":[0,0.06,0],"scale":[20.9664,0.12,15.1424]},{"name":"variant-apron","mesh":1,"translation":[3.9312,0.13,7.5],"scale":[5.9472,0.08,1.34]},{"name":"bollard-0","mesh":2,"translation":[-7.6608,0.43,7.62],"scale":[0.08,0.74,0.08]},{"name":"bollard-1","mesh":2,"translation":[-2.5536,0.43,7.62],"scale":[0.08,0.74,0.08]},{"name":"bollard-2","mesh":2,"translation":[2.5536,0.43,7.62],"scale":[0.08,0.74,0.08]},{"name":"bollard-3","mesh":2,"translation":[7.6608,0.43,7.62],"scale":[0.08,0.74,0.08]},{"name":"layout-cabinet","mesh":3,"translation":[10.28,0.585,3.276],"scale":[0.81,0.93,0.32]},{"name":"industrial-shell","mesh":4,"translation":[0,4.26,0],"scale":[20.16,8.28,14.56]},{"name":"industrial-roof","mesh":5,"translation":[0,8.55,0],"scale":[20.51,0.28,14.91]},{"name":"loading-bay-0","mesh":6,"translation":[-7.6608,1.38,7.4],"scale":[2.2,2.5,0.16]},{"name":"dock-0","mesh":7,"translation":[-7.6608,0.35,7.86],"scale":[1.8,0.45,1]},{"name":"loading-bay-1","mesh":6,"translation":[-3.8304,1.38,7.4],"scale":[2.2,2.5,0.16]},{"name":"dock-1","mesh":7,"translation":[-3.8304,0.35,7.86],"scale":[1.8,0.45,1]},{"name":"loading-bay-2","mesh":6,"translation":[0,1.38,7.4],"scale":[2.2,2.5,0.16]},{"name":"dock-2","mesh":7,"translation":[0,0.35,7.86],"scale":[1.8,0.45,1]},{"name":"loading-bay-3","mesh":6,"translation":[3.8304,1.38,7.4],"scale":[2.2,2.5,0.16]},{"name":"dock-3","mesh":7,"translation":[3.8304,0.35,7.86],"scale":[1.8,0.45,1]},{"name":"loading-bay-4","mesh":6,"translation":[7.6608,1.38,7.4],"scale":[2.2,2.5,0.16]},{"name":"dock-4","mesh":7,"translation":[7.6608,0.35,7.86],"scale":[1.8,0.45,1]},{"name":"smokestack-0","mesh":8,"translation":[-3.4,14.08,-3.2032],"scale":[1.05,15.6,1.05]},{"name":"stack-band-0","mesh":9,"translation":[-3.4,20.88,-3.2032],"scale":[0.77,0.7,0.77]},{"name":"smokestack-1","mesh":8,"translation":[0,14.08,-3.2032],"scale":[1.05,15.6,1.05]},{"name":"stack-band-1","mesh":9,"translation":[0,20.88,-3.2032],"scale":[0.77,0.7,0.77]},{"name":"smokestack-2","mesh":8,"translation":[3.4,14.08,-3.2032],"scale":[1.05,15.6,1.05]},{"name":"stack-band-2","mesh":9,"translation":[3.4,20.88,-3.2032],"scale":[0.77,0.7,0.77]},{"name":"coal-conveyor","mesh":10,"translation":[4.4352,5.6,-9.0272],"rotation":[0,0,0.139543,0.990216],"scale":[15.12,0.65,1]},{"name":"coal-pile","mesh":11,"translation":[-5.04,1.75,-10.192],"scale":[4.9,3.2,4.9]},{"name":"coal-sign-back","mesh":12,"translation":[0,7.28,7.48],"scale":[5.3,1.1,1]},{"name":"coal-sign","mesh":13,"translation":[0,7.28,7.509],"scale":[5.2,1,1]},{"name":"site-pad","mesh":14,"translation":[0,0.06,0],"scale":[20.9664,0.12,15.1424]},{"name":"variant-apron","mesh":15,"translation":[3.9312,0.13,7.5],"scale":[5.9472,0.08,1.34]},{"name":"bollard-0","mesh":16,"translation":[-7.6608,0.43,7.62],"scale":[0.08,0.74,0.08]},{"name":"bollard-1","mesh":16,"translation":[-2.5536,0.43,7.62],"scale":[0.08,0.74,0.08]},{"name":"bollard-2","mesh":16,"translation":[2.5536,0.43,7.62],"scale":[0.08,0.74,0.08]},{"name":"bollard-3","mesh":16,"translation":[7.6608,0.43,7.62],"scale":[0.08,0.74,0.08]},{"name":"layout-cabinet","mesh":17,"translation":[10.28,0.585,3.276],"scale":[0.81,0.93,0.32]},{"name":"industrial-shell","mesh":18,"translation":[0,4.26,0],"scale":[20.16,8.28,14.56]},{"name":"industrial-roof","mesh":19,"translation":[0,8.55,0],"scale":[20.51,0.28,14.91]},{"name":"loading-bay-0","mesh":20,"translation":[-7.6608,1.38,7.4],"scale":[2.2,2.5,0.16]},{"name":"dock-0","mesh":21,"translation":[-7.6608,0.35,7.86],"scale":[1.8,0.45,1]},{"name":"loading-bay-1","mesh":20,"translation":[-3.8304,1.38,7.4],"scale":[2.2,2.5,0.16]},{"name":"dock-1","mesh":21,"translation":[-3.8304,0.35,7.86],"scale":[1.8,0.45,1]},{"name":"loading-bay-2","mesh":20,"translation":[0,1.38,7.4],"scale":[2.2,2.5,0.16]},{"name":"dock-2","mesh":21,"translation":[0,0.35,7.86],"scale":[1.8,0.45,1]},{"name":"loading-bay-3","mesh":20,"translation":[3.8304,1.38,7.4],"scale":[2.2,2.5,0.16]},{"name":"dock-3","mesh":21,"translation":[3.8304,0.35,7.86],"scale":[1.8,0.45,1]},{"name":"loading-bay-4","mesh":20,"translation":[7.6608,1.38,7.4],"scale":[2.2,2.5,0.16]},{"name":"dock-4","mesh":21,"translation":[7.6608,0.35,7.86],"scale":[1.8,0.45,1]},{"name":"smokestack-0","mesh":22,"translation":[-3.4,14.08,-3.2032],"scale":[1.05,15.6,1.05]},{"name":"stack-band-0","mesh":23,"translation":[-3.4,20.88,-3.2032],"scale":[0.77,0.7,0.77]},{"name":"smokestack-1","mesh":22,"translation":[0,14.08,-3.2032],"scale":[1.05,15.6,1.05]},{"name":"stack-band-1","mesh":23,"translation":[0,20.88,-3.2032],"scale":[0.77,0.7,0.77]},{"name":"smokestack-2","mesh":22,"translation":[3.4,14.08,-3.2032],"scale":[1.05,15.6,1.05]},{"name":"stack-band-2","mesh":23,"translation":[3.4,20.88,-3.2032],"scale":[0.77,0.7,0.77]},{"name":"coal-conveyor","mesh":24,"translation":[4.4352,5.6,-9.0272],"rotation":[0,0,0.139543,0.990216],"scale":[15.12,0.65,1]},{"name":"coal-pile","mesh":25,"translation":[-5.04,1.75,-10.192],"scale":[4.9,3.2,4.9]},{"name":"coal-sign-back","mesh":12,"translation":[0,7.28,7.48],"scale":[5.3,1.1,1]},{"name":"coal-sign","mesh":13,"translation":[0,7.28,7.509],"scale":[5.2,1,1]},{"name":"site-pad","mesh":14,"translation":[0,0.06,0],"scale":[20.9664,0.12,15.1424]},{"name":"variant-apron","mesh":15,"translation":[3.9312,0.13,7.5],"scale":[5.9472,0.08,1.34]},{"name":"bollard-0","mesh":16,"translation":[-7.6608,0.43,7.62],"scale":[0.08,0.74,0.08]},{"name":"layout-cabinet","mesh":17,"translation":[10.28,0.585,3.276],"scale":[0.81,0.93,0.32]},{"name":"industrial-shell","mesh":18,"translation":[0,4.26,0],"scale":[20.16,8.28,14.56]},{"name":"industrial-roof","mesh":19,"translation":[0,8.55,0],"scale":[20.51,0.28,14.91]},{"name":"loading-bay-0","mesh":20,"translation":[-7.6608,1.38,7.4],"scale":[2.2,2.5,0.16]},{"name":"loading-bay-1","mesh":20,"translation":[7.6608,1.38,7.4],"scale":[2.2,2.5,0.16]},{"name":"smokestack-0","mesh":22,"translation":[0,14.08,-3.2032],"scale":[1.05,15.6,1.05]},{"name":"stack-band-0","mesh":23,"translation":[0,20.88,-3.2032],"scale":[0.77,0.7,0.77]},{"name":"coal-conveyor","mesh":24,"translation":[4.4352,5.6,-9.0272],"rotation":[0,0,0.139543,0.990216],"scale":[15.12,0.65,1]},{"name":"coal-pile","mesh":25,"translation":[-5.04,1.75,-10.192],"scale":[4.9,3.2,4.9]},{"name":"coal-sign-back","mesh":12,"translation":[0,7.28,7.48],"scale":[5.3,1.1,1]},{"name":"coal-sign","mesh":13,"translation":[0,7.28,7.509],"scale":[5.2,1,1]}],"meshes":[{"primitives":[{"attributes":{"POSITION":0,"NORMAL":1,"TEXCOORD_0":2},"material":0,"mode":4}]},{"primitives":[{"attributes":{"POSITION":0,"NORMAL":1,"TEXCOORD_0":3},"material":0,"mode":4}]},{"primitives":[{"attributes":{"POSITION":4,"NORMAL":5,"TEXCOORD_0":6},"material":1,"mode":4,"indices":7}]},{"primitives":[{"attributes":{"POSITION":0,"NORMAL":1,"TEXCOORD_0":8},"material":2,"mode":4}]},{"primitives":[{"attributes":{"POSITION":9,"NORMAL":1,"TEXCOORD_0":10},"material":3,"mode":4}]},{"primitives":[{"attributes":{"POSITION":0,"NORMAL":1,"TEXCOORD_0":11},"material":4,"mode":4}]},{"primitives":[{"attributes":{"POSITION":0,"NORMAL":1,"TEXCOORD_0":12},"material":5,"mode":4}]},{"primitives":[{"attributes":{"POSITION":0,"NORMAL":1,"TEXCOORD_0":13},"material":6,"mode":4}]},{"primitives":[{"attributes":{"POSITION":14,"NORMAL":15,"TEXCOORD_0":16},"material":6,"mode":4,"indices":7}]},{"primitives":[{"attributes":{"POSITION":17,"NORMAL":18,"TEXCOORD_0":19},"material":7,"mode":4,"indices":7}]},{"primitives":[{"attributes":{"POSITION":0,"NORMAL":1,"TEXCOORD_0":20},"material":5,"mode":4}]},{"primitives":[{"attributes":{"POSITION":21,"NORMAL":22,"TEXCOORD_0":23},"material":8,"mode":4,"indices":7}]},{"primitives":[{"attributes":{"POSITION":24,"NORMAL":25,"TEXCOORD_0":26},"material":5,"mode":4,"indices":27}]},{"primitives":[{"attributes":{"POSITION":28,"NORMAL":29,"TEXCOORD_0":30},"material":9,"mode":4,"indices":31}]},{"primitives":[{"attributes":{"POSITION":32,"NORMAL":25,"TEXCOORD_0":33},"material":0,"mode":4,"indices":27}]},{"primitives":[{"attributes":{"POSITION":32,"NORMAL":25,"TEXCOORD_0":34},"material":0,"mode":4,"indices":27}]},{"primitives":[{"attributes":{"POSITION":35,"NORMAL":36,"TEXCOORD_0":37},"material":1,"mode":4,"indices":38}]},{"primitives":[{"attributes":{"POSITION":32,"NORMAL":25,"TEXCOORD_0":39},"material":2,"mode":4,"indices":27}]},{"primitives":[{"attributes":{"POSITION":32,"NORMAL":25,"TEXCOORD_0":40},"material":3,"mode":4,"indices":27}]},{"primitives":[{"attributes":{"POSITION":32,"NORMAL":25,"TEXCOORD_0":41},"material":4,"mode":4,"indices":27}]},{"primitives":[{"attributes":{"POSITION":32,"NORMAL":25,"TEXCOORD_0":42},"material":5,"mode":4,"indices":27}]},{"primitives":[{"attributes":{"POSITION":32,"NORMAL":25,"TEXCOORD_0":43},"material":6,"mode":4,"indices":27}]},{"primitives":[{"attributes":{"POSITION":44,"NORMAL":45,"TEXCOORD_0":46},"material":6,"mode":4,"indices":38}]},{"primitives":[{"attributes":{"POSITION":47,"NORMAL":48,"TEXCOORD_0":49},"material":7,"mode":4,"indices":38}]},{"primitives":[{"attributes":{"POSITION":32,"NORMAL":25,"TEXCOORD_0":50},"material":5,"mode":4,"indices":27}]},{"primitives":[{"attributes":{"POSITION":51,"NORMAL":52,"TEXCOORD_0":53},"material":8,"mode":4,"indices":38}]}],"materials":[{"name":"asphalt","pbrMetallicRoughness":{"baseColorTexture":{"index":0},"metallicRoughnessTexture":{"index":2},"roughnessFactor":1,"metallicFactor":1},"normalTexture":{"index":1,"scale":0.62},"occlusionTexture":{"index":2,"strength":0.35}},{"name":"paint-yellow","pbrMetallicRoughness":{"baseColorFactor":[0.76052450467022,0.4793201830913402,0.07818742179702069,1],"roughnessFactor":0.66,"metallicFactor":0.03}},{"name":"metal-galvanized","pbrMetallicRoughness":{"baseColorTexture":{"index":3},"metallicRoughnessTexture":{"index":5},"roughnessFactor":1,"metallicFactor":1},"normalTexture":{"index":4,"scale":0.15},"occlusionTexture":{"index":5,"strength":0.35}},{"name":"brick-red","pbrMetallicRoughness":{"baseColorTexture":{"index":6},"metallicRoughnessTexture":{"index":8},"roughnessFactor":1,"metallicFactor":1},"normalTexture":{"index":7,"scale":1.15},"occlusionTexture":{"index":8,"strength":0.35}},{"name":"roof-metal","pbrMetallicRoughness":{"baseColorTexture":{"index":9},"metallicRoughnessTexture":{"index":11},"roughnessFactor":1,"metallicFactor":1},"normalTexture":{"index":10,"scale":0.68},"occlusionTexture":{"index":11,"strength":0.35}},{"name":"metal-dark","pbrMetallicRoughness":{"baseColorTexture":{"index":12},"metallicRoughnessTexture":{"index":14},"roughnessFactor":1,"metallicFactor":1},"normalTexture":{"index":13,"scale":0.35},"occlusionTexture":{"index":14,"strength":0.35}},{"name":"concrete","pbrMetallicRoughness":{"baseColorTexture":{"index":15},"metallicRoughnessTexture":{"index":17},"roughnessFactor":1,"metallicFactor":1},"normalTexture":{"index":16,"scale":0.82},"occlusionTexture":{"index":17,"strength":0.35}},{"name":"paint-white","pbrMetallicRoughness":{"baseColorFactor":[0.7912979403281551,0.7681511472425809,0.6795424696265424,1],"roughnessFactor":0.68,"metallicFactor":0}},{"name":"soil","pbrMetallicRoughness":{"baseColorTexture":{"index":18},"metallicRoughnessTexture":{"index":20},"roughnessFactor":1,"metallicFactor":1},"normalTexture":{"index":19,"scale":0.8},"occlusionTexture":{"index":20,"strength":0.35}},{"name":"clean-coal-plant signage","pbrMetallicRoughness":{"baseColorTexture":{"index":21},"roughnessFactor":1,"metallicFactor":0},"extensions":{"KHR_materials_unlit":{}}}],"textures":[{"source":0,"sampler":0},{"source":1,"sampler":0},{"source":2,"sampler":0},{"source":3,"sampler":0},{"source":4,"sampler":0},{"source":5,"sampler":0},{"source":6,"sampler":0},{"source":7,"sampler":0},{"source":8,"sampler":0},{"source":9,"sampler":0},{"source":10,"sampler":0},{"source":11,"sampler":0},{"source":12,"sampler":0},{"source":13,"sampler":0},{"source":14,"sampler":0},{"source":15,"sampler":0},{"source":16,"sampler":0},{"source":17,"sampler":0},{"source":18,"sampler":0},{"source":19,"sampler":0},{"source":20,"sampler":0},{"source":21,"sampler":0}],"images":[{"uri":"../textures/asphalt-albedo.png"},{"uri":"../textures/asphalt-normal.png"},{"uri":"../textures/asphalt-orm.png"},{"uri":"../textures/metal-galvanized-albedo.png"},{"uri":"../textures/metal-galvanized-normal.png"},{"uri":"../textures/metal-galvanized-orm.png"},{"uri":"../textures/brick-red-albedo.png"},{"uri":"../textures/brick-red-normal.png"},{"uri":"../textures/brick-red-orm.png"},{"uri":"../textures/roof-metal-albedo.png"},{"uri":"../textures/roof-metal-normal.png"},{"uri":"../textures/roof-metal-orm.png"},{"uri":"../textures/metal-dark-albedo.png"},{"uri":"../textures/metal-dark-normal.png"},{"uri":"../textures/metal-dark-orm.png"},{"uri":"../textures/concrete-albedo.png"},{"uri":"../textures/concrete-normal.png"},{"uri":"../textures/concrete-orm.png"},{"uri":"../textures/soil-albedo.png"},{"uri":"../textures/soil-normal.png"},{"uri":"../textures/soil-orm.png"},{"uri":"../signs/clean-coal-plant.png"}],"samplers":[{"magFilter":9729,"minFilter":9987,"wrapS":10497,"wrapT":10497}],"buffers":[{"uri":"../shared/geometry.bin","byteLength":16435520}],"bufferViews":[{"buffer":0,"byteOffset":0,"byteLength":3888,"target":34962},{"buffer":0,"byteOffset":3888,"byteLength":3888,"target":34962},{"buffer":0,"byteOffset":1980700,"byteLength":2592,"target":34962},{"buffer":0,"byteOffset":2060940,"byteLength":2592,"target":34962},{"buffer":0,"byteOffset":12960,"byteLength":1200,"target":34962},{"buffer":0,"byteOffset":14160,"byteLength":1200,"target":34962},{"buffer":0,"byteOffset":179140,"byteLength":800,"target":34962},{"buffer":0,"byteOffset":16160,"byteLength":384,"target":34963},{"buffer":0,"byteOffset":197060,"byteLength":2592,"target":34962},{"buffer":0,"byteOffset":19136,"byteLength":3888,"target":34962},{"buffer":0,"byteOffset":1985884,"byteLength":2592,"target":34962},{"buffer":0,"byteOffset":1988476,"byteLength":2592,"target":34962},{"buffer":0,"byteOffset":28208,"byteLength":2592,"target":34962},{"buffer":0,"byteOffset":30800,"byteLength":2592,"target":34962},{"buffer":0,"byteOffset":1930268,"byteLength":1200,"target":34962},{"buffer":0,"byteOffset":1931468,"byteLength":1200,"target":34962},{"buffer":0,"byteOffset":2054060,"byteLength":800,"target":34962},{"buffer":0,"byteOffset":1101304,"byteLength":1200,"target":34962},{"buffer":0,"byteOffset":1102504,"byteLength":1200,"target":34962},{"buffer":0,"byteOffset":1933468,"byteLength":800,"target":34962},{"buffer":0,"byteOffset":1991068,"byteLength":2592,"target":34962},{"buffer":0,"byteOffset":1993660,"byteLength":1200,"target":34962},{"buffer":0,"byteOffset":1994860,"byteLength":1200,"target":34962},{"buffer":0,"byteOffset":1996060,"byteLength":800,"target":34962},{"buffer":0,"byteOffset":45664,"byteLength":288,"target":34962},{"buffer":0,"byteOffset":45952,"byteLength":288,"target":34962},{"buffer":0,"byteOffset":46240,"byteLength":192,"target":34962},{"buffer":0,"byteOffset":46432,"byteLength":72,"target":34963},{"buffer":0,"byteOffset":46504,"byteLength":48,"target":34962},{"buffer":0,"byteOffset":46552,"byteLength":48,"target":34962},{"buffer":0,"byteOffset":199652,"byteLength":32,"target":34962},{"buffer":0,"byteOffset":46632,"byteLength":12,"target":34963},{"buffer":0,"byteOffset":46644,"byteLength":288,"target":34962},{"buffer":0,"byteOffset":1996860,"byteLength":192,"target":34962},{"buffer":0,"byteOffset":2063532,"byteLength":192,"target":34962},{"buffer":0,"byteOffset":47316,"byteLength":480,"target":34962},{"buffer":0,"byteOffset":47796,"byteLength":480,"target":34962},{"buffer":0,"byteOffset":182756,"byteLength":320,"target":34962},{"buffer":0,"byteOffset":48596,"byteLength":144,"target":34963},{"buffer":0,"byteOffset":199876,"byteLength":192,"target":34962},{"buffer":0,"byteOffset":1997244,"byteLength":192,"target":34962},{"buffer":0,"byteOffset":1997436,"byteLength":192,"target":34962},{"buffer":0,"byteOffset":49316,"byteLength":192,"target":34962},{"buffer":0,"byteOffset":49508,"byteLength":192,"target":34962},{"buffer":0,"byteOffset":1940828,"byteLength":480,"target":34962},{"buffer":0,"byteOffset":1941308,"byteLength":480,"target":34962},{"buffer":0,"byteOffset":2055052,"byteLength":320,"target":34962},{"buffer":0,"byteOffset":1112312,"byteLength":480,"target":34962},{"buffer":0,"byteOffset":1112792,"byteLength":480,"target":34962},{"buffer":0,"byteOffset":1942108,"byteLength":320,"target":34962},{"buffer":0,"byteOffset":1997628,"byteLength":192,"target":34962},{"buffer":0,"byteOffset":1997820,"byteLength":480,"target":34962},{"buffer":0,"byteOffset":1998300,"byteLength":480,"target":34962},{"buffer":0,"byteOffset":1998780,"byteLength":320,"target":34962}],"accessors":[{"bufferView":0,"componentType":5126,"count":324,"type":"VEC3","min":[-0.5,-0.5,-0.5],"max":[0.5,0.5,0.5]},{"bufferView":1,"componentType":5126,"count":324,"type":"VEC3"},{"bufferView":2,"componentType":5126,"count":324,"type":"VEC2"},{"bufferView":3,"componentType":5126,"count":324,"type":"VEC2"},{"bufferView":4,"componentType":5126,"count":100,"type":"VEC3","min":[-1,-0.5,-1],"max":[1,0.5,1]},{"bufferView":5,"componentType":5126,"count":100,"type":"VEC3"},{"bufferView":6,"componentType":5126,"count":100,"type":"VEC2"},{"bufferView":7,"componentType":5123,"count":192,"type":"SCALAR"},{"bufferView":8,"componentType":5126,"count":324,"type":"VEC2"},{"bufferView":9,"componentType":5126,"count":324,"type":"VEC3","min":[-0.5,-0.5,-0.5],"max":[0.5,0.5,0.5]},{"bufferView":10,"componentType":5126,"count":324,"type":"VEC2"},{"bufferView":11,"componentType":5126,"count":324,"type":"VEC2"},{"bufferView":12,"componentType":5126,"count":324,"type":"VEC2"},{"bufferView":13,"componentType":5126,"count":324,"type":"VEC2"},{"bufferView":14,"componentType":5126,"count":100,"type":"VEC3","min":[-1,-0.5,-1],"max":[1,0.5,1]},{"bufferView":15,"componentType":5126,"count":100,"type":"VEC3"},{"bufferView":16,"componentType":5126,"count":100,"type":"VEC2"},{"bufferView":17,"componentType":5126,"count":100,"type":"VEC3","min":[-1,-0.5,-1],"max":[1,0.5,1]},{"bufferView":18,"componentType":5126,"count":100,"type":"VEC3"},{"bufferView":19,"componentType":5126,"count":100,"type":"VEC2"},{"bufferView":20,"componentType":5126,"count":324,"type":"VEC2"},{"bufferView":21,"componentType":5126,"count":100,"type":"VEC3","min":[-1,-0.5,-1],"max":[1,0.5,1]},{"bufferView":22,"componentType":5126,"count":100,"type":"VEC3"},{"bufferView":23,"componentType":5126,"count":100,"type":"VEC2"},{"bufferView":24,"componentType":5126,"count":24,"type":"VEC3","min":[-0.5,-0.5,-0.02500000037252903],"max":[0.5,0.5,0.02500000037252903]},{"bufferView":25,"componentType":5126,"count":24,"type":"VEC3"},{"bufferView":26,"componentType":5126,"count":24,"type":"VEC2"},{"bufferView":27,"componentType":5123,"count":36,"type":"SCALAR"},{"bufferView":28,"componentType":5126,"count":4,"type":"VEC3","min":[-0.5,-0.5,0],"max":[0.5,0.5,0]},{"bufferView":29,"componentType":5126,"count":4,"type":"VEC3"},{"bufferView":30,"componentType":5126,"count":4,"type":"VEC2"},{"bufferView":31,"componentType":5123,"count":6,"type":"SCALAR"},{"bufferView":32,"componentType":5126,"count":24,"type":"VEC3","min":[-0.5,-0.5,-0.5],"max":[0.5,0.5,0.5]},{"bufferView":33,"componentType":5126,"count":24,"type":"VEC2"},{"bufferView":34,"componentType":5126,"count":24,"type":"VEC2"},{"bufferView":35,"componentType":5126,"count":40,"type":"VEC3","min":[-0.8660253882408142,-0.5,-1],"max":[0.8660253882408142,0.5,1]},{"bufferView":36,"componentType":5126,"count":40,"type":"VEC3"},{"bufferView":37,"componentType":5126,"count":40,"type":"VEC2"},{"bufferView":38,"componentType":5123,"count":72,"type":"SCALAR"},{"bufferView":39,"componentType":5126,"count":24,"type":"VEC2"},{"bufferView":40,"componentType":5126,"count":24,"type":"VEC2"},{"bufferView":41,"componentType":5126,"count":24,"type":"VEC2"},{"bufferView":42,"componentType":5126,"count":24,"type":"VEC2"},{"bufferView":43,"componentType":5126,"count":24,"type":"VEC2"},{"bufferView":44,"componentType":5126,"count":40,"type":"VEC3","min":[-0.8660253882408142,-0.5,-1],"max":[0.8660253882408142,0.5,1]},{"bufferView":45,"componentType":5126,"count":40,"type":"VEC3"},{"bufferView":46,"componentType":5126,"count":40,"type":"VEC2"},{"bufferView":47,"componentType":5126,"count":40,"type":"VEC3","min":[-0.8660253882408142,-0.5,-1],"max":[0.8660253882408142,0.5,1]},{"bufferView":48,"componentType":5126,"count":40,"type":"VEC3"},{"bufferView":49,"componentType":5126,"count":40,"type":"VEC2"},{"bufferView":50,"componentType":5126,"count":24,"type":"VEC2"},{"bufferView":51,"componentType":5126,"count":40,"type":"VEC3","min":[-0.8660253882408142,-0.5,-1],"max":[0.8660253882408142,0.5,1]},{"bufferView":52,"componentType":5126,"count":40,"type":"VEC3"},{"bufferView":53,"componentType":5126,"count":40,"type":"VEC2"}],"extensionsUsed":["KHR_materials_unlit"],"extras":{"id":"vlt-clean-coal-plant-19","family":"clean-coal-plant","variant":18,"plan":"D4-1","units":"metres","up":"+Y","front":"+Z","lodScenes":[0,1,2]}}