{"asset":{"version":"2.0","generator":"SLOPMERICA Department of Unnecessary Development 1.0"},"scene":0,"scenes":[{"name":"LOD 0","nodes":[0,1,2,3,4,5,6,7,8,9,10,11,12,13,14,15,16,17,18,19,20,21,22,23,24,25,26,27,28,29,30,31],"extras":{"level":0}},{"name":"LOD 1","nodes":[32,33,34,35,36,37,38,39,40,41,42,43,44,45,46,47,48,49,50,51,52,53,54,55,56,57,58,59,60,61,62,63],"extras":{"level":1}},{"name":"LOD 2","nodes":[64,65,66,67,68,69,70,71,72,73,74,75],"extras":{"level":2}}],"nodes":[{"name":"site-pad","mesh":0,"translation":[0,0.06,0],"scale":[17.472,0.12,11.232]},{"name":"variant-apron","mesh":1,"translation":[1.092,0.13,5.62],"scale":[5.376,0.08,1.16]},{"name":"bollard-0","mesh":2,"translation":[-6.384,0.43,5.74],"scale":[0.08,0.7,0.08]},{"name":"bollard-1","mesh":2,"translation":[-3.192,0.43,5.74],"scale":[0.08,0.7,0.08]},{"name":"bollard-2","mesh":2,"translation":[0,0.43,5.74],"scale":[0.08,0.7,0.08]},{"name":"bollard-3","mesh":2,"translation":[3.192,0.43,5.74],"scale":[0.08,0.7,0.08]},{"name":"bollard-4","mesh":2,"translation":[6.384,0.43,5.74],"scale":[0.08,0.7,0.08]},{"name":"layout-cabinet","mesh":3,"translation":[-8.6,0.615,0.81],"scale":[0.69,0.99,0.32]},{"name":"deferred-maintenance-skip","mesh":4,"translation":[5.712,0.5,-4.752],"scale":[1.63,0.75,0.65]},{"name":"skip-rubble","mesh":5,"translation":[5.712,0.98,-4.752],"rotation":[0,0.198669,0,0.980067],"scale":[0.72,0.2,0.5]},{"name":"industrial-shell","mesh":6,"translation":[0,2.77,0],"scale":[16.8,5.3,10.8]},{"name":"industrial-roof","mesh":7,"translation":[0,5.57,0],"scale":[17.15,0.28,11.15]},{"name":"loading-bay-0","mesh":8,"translation":[-6.384,1.38,5.52],"scale":[2.2,2.5,0.16]},{"name":"dock-0","mesh":9,"translation":[-6.384,0.35,5.98],"scale":[1.8,0.45,1]},{"name":"loading-bay-1","mesh":8,"translation":[-3.8304,1.38,5.52],"scale":[2.2,2.5,0.16]},{"name":"dock-1","mesh":9,"translation":[-3.8304,0.35,5.98],"scale":[1.8,0.45,1]},{"name":"loading-bay-2","mesh":8,"translation":[-1.2768,1.38,5.52],"scale":[2.2,2.5,0.16]},{"name":"dock-2","mesh":9,"translation":[-1.2768,0.35,5.98],"scale":[1.8,0.45,1]},{"name":"loading-bay-3","mesh":8,"translation":[1.2768,1.38,5.52],"scale":[2.2,2.5,0.16]},{"name":"dock-3","mesh":9,"translation":[1.2768,0.35,5.98],"scale":[1.8,0.45,1]},{"name":"loading-bay-4","mesh":8,"translation":[3.8304,1.38,5.52],"scale":[2.2,2.5,0.16]},{"name":"dock-4","mesh":9,"translation":[3.8304,0.35,5.98],"scale":[1.8,0.45,1]},{"name":"loading-bay-5","mesh":8,"translation":[6.384,1.38,5.52],"scale":[2.2,2.5,0.16]},{"name":"dock-5","mesh":9,"translation":[6.384,0.35,5.98],"scale":[1.8,0.45,1]},{"name":"material-bin-0","mesh":10,"translation":[-6.384,0.79,-6.4],"scale":[1.6,1.34,1.7]},{"name":"material-bin-1","mesh":11,"translation":[-4.484,0.79,-6.4],"scale":[1.6,1.34,1.7]},{"name":"material-bin-2","mesh":10,"translation":[-2.584,0.79,-6.4],"scale":[1.6,1.34,1.7]},{"name":"material-bin-3","mesh":11,"translation":[-0.684,0.79,-6.4],"scale":[1.6,1.34,1.7]},{"name":"material-bin-4","mesh":10,"translation":[1.216,0.79,-6.4],"scale":[1.6,1.34,1.7]},{"name":"material-bin-5","mesh":11,"translation":[3.116,0.79,-6.4],"scale":[1.6,1.34,1.7]},{"name":"material-bin-6","mesh":10,"translation":[5.016,0.79,-6.4],"scale":[1.6,1.34,1.7]},{"name":"salt-silo","mesh":12,"translation":[5.712,2.87,-2.376],"scale":[1.67,5.5,1.67]},{"name":"site-pad","mesh":13,"translation":[0,0.06,0],"scale":[17.472,0.12,11.232]},{"name":"variant-apron","mesh":14,"translation":[1.092,0.13,5.62],"scale":[5.376,0.08,1.16]},{"name":"bollard-0","mesh":15,"translation":[-6.384,0.43,5.74],"scale":[0.08,0.7,0.08]},{"name":"bollard-1","mesh":15,"translation":[-3.192,0.43,5.74],"scale":[0.08,0.7,0.08]},{"name":"bollard-2","mesh":15,"translation":[0,0.43,5.74],"scale":[0.08,0.7,0.08]},{"name":"bollard-3","mesh":15,"translation":[3.192,0.43,5.74],"scale":[0.08,0.7,0.08]},{"name":"bollard-4","mesh":15,"translation":[6.384,0.43,5.74],"scale":[0.08,0.7,0.08]},{"name":"layout-cabinet","mesh":16,"translation":[-8.6,0.615,0.81],"scale":[0.69,0.99,0.32]},{"name":"deferred-maintenance-skip","mesh":17,"translation":[5.712,0.5,-4.752],"scale":[1.63,0.75,0.65]},{"name":"skip-rubble","mesh":18,"translation":[5.712,0.98,-4.752],"rotation":[0,0.198669,0,0.980067],"scale":[0.72,0.2,0.5]},{"name":"industrial-shell","mesh":19,"translation":[0,2.77,0],"scale":[16.8,5.3,10.8]},{"name":"industrial-roof","mesh":20,"translation":[0,5.57,0],"scale":[17.15,0.28,11.15]},{"name":"loading-bay-0","mesh":21,"translation":[-6.384,1.38,5.52],"scale":[2.2,2.5,0.16]},{"name":"dock-0","mesh":22,"translation":[-6.384,0.35,5.98],"scale":[1.8,0.45,1]},{"name":"loading-bay-1","mesh":21,"translation":[-3.8304,1.38,5.52],"scale":[2.2,2.5,0.16]},{"name":"dock-1","mesh":22,"translation":[-3.8304,0.35,5.98],"scale":[1.8,0.45,1]},{"name":"loading-bay-2","mesh":21,"translation":[-1.2768,1.38,5.52],"scale":[2.2,2.5,0.16]},{"name":"dock-2","mesh":22,"translation":[-1.2768,0.35,5.98],"scale":[1.8,0.45,1]},{"name":"loading-bay-3","mesh":21,"translation":[1.2768,1.38,5.52],"scale":[2.2,2.5,0.16]},{"name":"dock-3","mesh":22,"translation":[1.2768,0.35,5.98],"scale":[1.8,0.45,1]},{"name":"loading-bay-4","mesh":21,"translation":[3.8304,1.38,5.52],"scale":[2.2,2.5,0.16]},{"name":"dock-4","mesh":22,"translation":[3.8304,0.35,5.98],"scale":[1.8,0.45,1]},{"name":"loading-bay-5","mesh":21,"translation":[6.384,1.38,5.52],"scale":[2.2,2.5,0.16]},{"name":"dock-5","mesh":22,"translation":[6.384,0.35,5.98],"scale":[1.8,0.45,1]},{"name":"material-bin-0","mesh":23,"translation":[-6.384,0.79,-6.4],"scale":[1.6,1.34,1.7]},{"name":"material-bin-1","mesh":24,"translation":[-4.484,0.79,-6.4],"scale":[1.6,1.34,1.7]},{"name":"material-bin-2","mesh":23,"translation":[-2.584,0.79,-6.4],"scale":[1.6,1.34,1.7]},{"name":"material-bin-3","mesh":24,"translation":[-0.684,0.79,-6.4],"scale":[1.6,1.34,1.7]},{"name":"material-bin-4","mesh":23,"translation":[1.216,0.79,-6.4],"scale":[1.6,1.34,1.7]},{"name":"material-bin-5","mesh":24,"translation":[3.116,0.79,-6.4],"scale":[1.6,1.34,1.7]},{"name":"material-bin-6","mesh":23,"translation":[5.016,0.79,-6.4],"scale":[1.6,1.34,1.7]},{"name":"salt-silo","mesh":25,"translation":[5.712,2.87,-2.376],"scale":[1.67,5.5,1.67]},{"name":"site-pad","mesh":13,"translation":[0,0.06,0],"scale":[17.472,0.12,11.232]},{"name":"variant-apron","mesh":14,"translation":[1.092,0.13,5.62],"scale":[5.376,0.08,1.16]},{"name":"bollard-0","mesh":15,"translation":[-6.384,0.43,5.74],"scale":[0.08,0.7,0.08]},{"name":"layout-cabinet","mesh":16,"translation":[-8.6,0.615,0.81],"scale":[0.69,0.99,0.32]},{"name":"deferred-maintenance-skip","mesh":17,"translation":[5.712,0.5,-4.752],"scale":[1.63,0.75,0.65]},{"name":"industrial-shell","mesh":19,"translation":[0,2.77,0],"scale":[16.8,5.3,10.8]},{"name":"industrial-roof","mesh":20,"translation":[0,5.57,0],"scale":[17.15,0.28,11.15]},{"name":"loading-bay-0","mesh":21,"translation":[-6.384,1.38,5.52],"scale":[2.2,2.5,0.16]},{"name":"loading-bay-1","mesh":21,"translation":[6.384,1.38,5.52],"scale":[2.2,2.5,0.16]},{"name":"material-bin-0","mesh":23,"translation":[-6.384,0.79,-6.4],"scale":[1.6,1.34,1.7]},{"name":"material-bin-1","mesh":24,"translation":[-4.484,0.79,-6.4],"scale":[1.6,1.34,1.7]},{"name":"salt-silo","mesh":25,"translation":[5.712,2.87,-2.376],"scale":[1.67,5.5,1.67]}],"meshes":[{"primitives":[{"attributes":{"POSITION":0,"NORMAL":1,"TEXCOORD_0":2},"material":0,"mode":4}]},{"primitives":[{"attributes":{"POSITION":0,"NORMAL":1,"TEXCOORD_0":3},"material":0,"mode":4}]},{"primitives":[{"attributes":{"POSITION":4,"NORMAL":5,"TEXCOORD_0":6},"material":1,"mode":4,"indices":7}]},{"primitives":[{"attributes":{"POSITION":0,"NORMAL":1,"TEXCOORD_0":8},"material":2,"mode":4}]},{"primitives":[{"attributes":{"POSITION":0,"NORMAL":1,"TEXCOORD_0":9},"material":1,"mode":4}]},{"primitives":[{"attributes":{"POSITION":0,"NORMAL":1,"TEXCOORD_0":10},"material":3,"mode":4}]},{"primitives":[{"attributes":{"POSITION":11,"NORMAL":1,"TEXCOORD_0":12},"material":4,"mode":4}]},{"primitives":[{"attributes":{"POSITION":0,"NORMAL":1,"TEXCOORD_0":13},"material":5,"mode":4}]},{"primitives":[{"attributes":{"POSITION":0,"NORMAL":1,"TEXCOORD_0":14},"material":6,"mode":4}]},{"primitives":[{"attributes":{"POSITION":0,"NORMAL":1,"TEXCOORD_0":15},"material":3,"mode":4}]},{"primitives":[{"attributes":{"POSITION":16,"NORMAL":1,"TEXCOORD_0":17},"material":3,"mode":4}]},{"primitives":[{"attributes":{"POSITION":16,"NORMAL":1,"TEXCOORD_0":18},"material":7,"mode":4}]},{"primitives":[{"attributes":{"POSITION":19,"NORMAL":20,"TEXCOORD_0":21},"material":2,"mode":4,"indices":7}]},{"primitives":[{"attributes":{"POSITION":22,"NORMAL":23,"TEXCOORD_0":24},"material":0,"mode":4,"indices":25}]},{"primitives":[{"attributes":{"POSITION":22,"NORMAL":23,"TEXCOORD_0":26},"material":0,"mode":4,"indices":25}]},{"primitives":[{"attributes":{"POSITION":27,"NORMAL":28,"TEXCOORD_0":29},"material":1,"mode":4,"indices":30}]},{"primitives":[{"attributes":{"POSITION":22,"NORMAL":23,"TEXCOORD_0":31},"material":2,"mode":4,"indices":25}]},{"primitives":[{"attributes":{"POSITION":22,"NORMAL":23,"TEXCOORD_0":32},"material":1,"mode":4,"indices":25}]},{"primitives":[{"attributes":{"POSITION":22,"NORMAL":23,"TEXCOORD_0":33},"material":3,"mode":4,"indices":25}]},{"primitives":[{"attributes":{"POSITION":22,"NORMAL":23,"TEXCOORD_0":34},"material":4,"mode":4,"indices":25}]},{"primitives":[{"attributes":{"POSITION":22,"NORMAL":23,"TEXCOORD_0":35},"material":5,"mode":4,"indices":25}]},{"primitives":[{"attributes":{"POSITION":22,"NORMAL":23,"TEXCOORD_0":36},"material":6,"mode":4,"indices":25}]},{"primitives":[{"attributes":{"POSITION":22,"NORMAL":23,"TEXCOORD_0":37},"material":3,"mode":4,"indices":25}]},{"primitives":[{"attributes":{"POSITION":22,"NORMAL":23,"TEXCOORD_0":38},"material":3,"mode":4,"indices":25}]},{"primitives":[{"attributes":{"POSITION":22,"NORMAL":23,"TEXCOORD_0":39},"material":7,"mode":4,"indices":25}]},{"primitives":[{"attributes":{"POSITION":40,"NORMAL":41,"TEXCOORD_0":42},"material":2,"mode":4,"indices":30}]}],"materials":[{"name":"asphalt","pbrMetallicRoughness":{"baseColorTexture":{"index":0},"metallicRoughnessTexture":{"index":2},"roughnessFactor":1,"metallicFactor":1},"normalTexture":{"index":1,"scale":0.62},"occlusionTexture":{"index":2,"strength":0.35}},{"name":"paint-orange","pbrMetallicRoughness":{"baseColorFactor":[0.6444796819634361,0.1878207722902346,0.040915196900556984,1],"roughnessFactor":0.68,"metallicFactor":0.03}},{"name":"metal-galvanized","pbrMetallicRoughness":{"baseColorTexture":{"index":3},"metallicRoughnessTexture":{"index":5},"roughnessFactor":1,"metallicFactor":1},"normalTexture":{"index":4,"scale":0.15},"occlusionTexture":{"index":5,"strength":0.35}},{"name":"concrete","pbrMetallicRoughness":{"baseColorTexture":{"index":6},"metallicRoughnessTexture":{"index":8},"roughnessFactor":1,"metallicFactor":1},"normalTexture":{"index":7,"scale":0.82},"occlusionTexture":{"index":8,"strength":0.35}},{"name":"brick-cream","pbrMetallicRoughness":{"baseColorTexture":{"index":9},"metallicRoughnessTexture":{"index":11},"roughnessFactor":1,"metallicFactor":1},"normalTexture":{"index":10,"scale":1.05},"occlusionTexture":{"index":11,"strength":0.35}},{"name":"roof-metal","pbrMetallicRoughness":{"baseColorTexture":{"index":12},"metallicRoughnessTexture":{"index":14},"roughnessFactor":1,"metallicFactor":1},"normalTexture":{"index":13,"scale":0.68},"occlusionTexture":{"index":14,"strength":0.35}},{"name":"metal-dark","pbrMetallicRoughness":{"baseColorTexture":{"index":15},"metallicRoughnessTexture":{"index":17},"roughnessFactor":1,"metallicFactor":1},"normalTexture":{"index":16,"scale":0.35},"occlusionTexture":{"index":17,"strength":0.35}},{"name":"soil","pbrMetallicRoughness":{"baseColorTexture":{"index":18},"metallicRoughnessTexture":{"index":20},"roughnessFactor":1,"metallicFactor":1},"normalTexture":{"index":19,"scale":0.8},"occlusionTexture":{"index":20,"strength":0.35}}],"textures":[{"source":0,"sampler":0},{"source":1,"sampler":0},{"source":2,"sampler":0},{"source":3,"sampler":0},{"source":4,"sampler":0},{"source":5,"sampler":0},{"source":6,"sampler":0},{"source":7,"sampler":0},{"source":8,"sampler":0},{"source":9,"sampler":0},{"source":10,"sampler":0},{"source":11,"sampler":0},{"source":12,"sampler":0},{"source":13,"sampler":0},{"source":14,"sampler":0},{"source":15,"sampler":0},{"source":16,"sampler":0},{"source":17,"sampler":0},{"source":18,"sampler":0},{"source":19,"sampler":0},{"source":20,"sampler":0}],"images":[{"uri":"../textures/asphalt-albedo.png"},{"uri":"../textures/asphalt-normal.png"},{"uri":"../textures/asphalt-orm.png"},{"uri":"../textures/metal-galvanized-albedo.png"},{"uri":"../textures/metal-galvanized-normal.png"},{"uri":"../textures/metal-galvanized-orm.png"},{"uri":"../textures/concrete-albedo.png"},{"uri":"../textures/concrete-normal.png"},{"uri":"../textures/concrete-orm.png"},{"uri":"../textures/brick-cream-albedo.png"},{"uri":"../textures/brick-cream-normal.png"},{"uri":"../textures/brick-cream-orm.png"},{"uri":"../textures/roof-metal-albedo.png"},{"uri":"../textures/roof-metal-normal.png"},{"uri":"../textures/roof-metal-orm.png"},{"uri":"../textures/metal-dark-albedo.png"},{"uri":"../textures/metal-dark-normal.png"},{"uri":"../textures/metal-dark-orm.png"},{"uri":"../textures/soil-albedo.png"},{"uri":"../textures/soil-normal.png"},{"uri":"../textures/soil-orm.png"}],"samplers":[{"magFilter":9729,"minFilter":9987,"wrapS":10497,"wrapT":10497}],"buffers":[{"uri":"../shared/geometry.bin","byteLength":16435520}],"bufferViews":[{"buffer":0,"byteOffset":0,"byteLength":3888,"target":34962},{"buffer":0,"byteOffset":3888,"byteLength":3888,"target":34962},{"buffer":0,"byteOffset":11222272,"byteLength":2592,"target":34962},{"buffer":0,"byteOffset":11278592,"byteLength":2592,"target":34962},{"buffer":0,"byteOffset":12960,"byteLength":1200,"target":34962},{"buffer":0,"byteOffset":14160,"byteLength":1200,"target":34962},{"buffer":0,"byteOffset":150020,"byteLength":800,"target":34962},{"buffer":0,"byteOffset":16160,"byteLength":384,"target":34963},{"buffer":0,"byteOffset":173540,"byteLength":2592,"target":34962},{"buffer":0,"byteOffset":219716,"byteLength":2592,"target":34962},{"buffer":0,"byteOffset":208260,"byteLength":2592,"target":34962},{"buffer":0,"byteOffset":19136,"byteLength":3888,"target":34962},{"buffer":0,"byteOffset":11227456,"byteLength":2592,"target":34962},{"buffer":0,"byteOffset":11230048,"byteLength":2592,"target":34962},{"buffer":0,"byteOffset":28208,"byteLength":2592,"target":34962},{"buffer":0,"byteOffset":30800,"byteLength":2592,"target":34962},{"buffer":0,"byteOffset":5651632,"byteLength":3888,"target":34962},{"buffer":0,"byteOffset":11260192,"byteLength":2592,"target":34962},{"buffer":0,"byteOffset":11262784,"byteLength":2592,"target":34962},{"buffer":0,"byteOffset":11232640,"byteLength":1200,"target":34962},{"buffer":0,"byteOffset":11233840,"byteLength":1200,"target":34962},{"buffer":0,"byteOffset":11281184,"byteLength":800,"target":34962},{"buffer":0,"byteOffset":46644,"byteLength":288,"target":34962},{"buffer":0,"byteOffset":45952,"byteLength":288,"target":34962},{"buffer":0,"byteOffset":11235840,"byteLength":192,"target":34962},{"buffer":0,"byteOffset":46432,"byteLength":72,"target":34963},{"buffer":0,"byteOffset":11281984,"byteLength":192,"target":34962},{"buffer":0,"byteOffset":47316,"byteLength":480,"target":34962},{"buffer":0,"byteOffset":47796,"byteLength":480,"target":34962},{"buffer":0,"byteOffset":153636,"byteLength":320,"target":34962},{"buffer":0,"byteOffset":48596,"byteLength":144,"target":34963},{"buffer":0,"byteOffset":176356,"byteLength":192,"target":34962},{"buffer":0,"byteOffset":222340,"byteLength":192,"target":34962},{"buffer":0,"byteOffset":211076,"byteLength":192,"target":34962},{"buffer":0,"byteOffset":11236224,"byteLength":192,"target":34962},{"buffer":0,"byteOffset":11236416,"byteLength":192,"target":34962},{"buffer":0,"byteOffset":49316,"byteLength":192,"target":34962},{"buffer":0,"byteOffset":49508,"byteLength":192,"target":34962},{"buffer":0,"byteOffset":11266176,"byteLength":192,"target":34962},{"buffer":0,"byteOffset":11266368,"byteLength":192,"target":34962},{"buffer":0,"byteOffset":11236608,"byteLength":480,"target":34962},{"buffer":0,"byteOffset":11237088,"byteLength":480,"target":34962},{"buffer":0,"byteOffset":11282176,"byteLength":320,"target":34962}],"accessors":[{"bufferView":0,"componentType":5126,"count":324,"type":"VEC3","min":[-0.5,-0.5,-0.5],"max":[0.5,0.5,0.5]},{"bufferView":1,"componentType":5126,"count":324,"type":"VEC3"},{"bufferView":2,"componentType":5126,"count":324,"type":"VEC2"},{"bufferView":3,"componentType":5126,"count":324,"type":"VEC2"},{"bufferView":4,"componentType":5126,"count":100,"type":"VEC3","min":[-1,-0.5,-1],"max":[1,0.5,1]},{"bufferView":5,"componentType":5126,"count":100,"type":"VEC3"},{"bufferView":6,"componentType":5126,"count":100,"type":"VEC2"},{"bufferView":7,"componentType":5123,"count":192,"type":"SCALAR"},{"bufferView":8,"componentType":5126,"count":324,"type":"VEC2"},{"bufferView":9,"componentType":5126,"count":324,"type":"VEC2"},{"bufferView":10,"componentType":5126,"count":324,"type":"VEC2"},{"bufferView":11,"componentType":5126,"count":324,"type":"VEC3","min":[-0.5,-0.5,-0.5],"max":[0.5,0.5,0.5]},{"bufferView":12,"componentType":5126,"count":324,"type":"VEC2"},{"bufferView":13,"componentType":5126,"count":324,"type":"VEC2"},{"bufferView":14,"componentType":5126,"count":324,"type":"VEC2"},{"bufferView":15,"componentType":5126,"count":324,"type":"VEC2"},{"bufferView":16,"componentType":5126,"count":324,"type":"VEC3","min":[-0.5,-0.5,-0.5],"max":[0.5,0.5,0.5]},{"bufferView":17,"componentType":5126,"count":324,"type":"VEC2"},{"bufferView":18,"componentType":5126,"count":324,"type":"VEC2"},{"bufferView":19,"componentType":5126,"count":100,"type":"VEC3","min":[-1,-0.5,-1],"max":[1,0.5,1]},{"bufferView":20,"componentType":5126,"count":100,"type":"VEC3"},{"bufferView":21,"componentType":5126,"count":100,"type":"VEC2"},{"bufferView":22,"componentType":5126,"count":24,"type":"VEC3","min":[-0.5,-0.5,-0.5],"max":[0.5,0.5,0.5]},{"bufferView":23,"componentType":5126,"count":24,"type":"VEC3"},{"bufferView":24,"componentType":5126,"count":24,"type":"VEC2"},{"bufferView":25,"componentType":5123,"count":36,"type":"SCALAR"},{"bufferView":26,"componentType":5126,"count":24,"type":"VEC2"},{"bufferView":27,"componentType":5126,"count":40,"type":"VEC3","min":[-0.8660253882408142,-0.5,-1],"max":[0.8660253882408142,0.5,1]},{"bufferView":28,"componentType":5126,"count":40,"type":"VEC3"},{"bufferView":29,"componentType":5126,"count":40,"type":"VEC2"},{"bufferView":30,"componentType":5123,"count":72,"type":"SCALAR"},{"bufferView":31,"componentType":5126,"count":24,"type":"VEC2"},{"bufferView":32,"componentType":5126,"count":24,"type":"VEC2"},{"bufferView":33,"componentType":5126,"count":24,"type":"VEC2"},{"bufferView":34,"componentType":5126,"count":24,"type":"VEC2"},{"bufferView":35,"componentType":5126,"count":24,"type":"VEC2"},{"bufferView":36,"componentType":5126,"count":24,"type":"VEC2"},{"bufferView":37,"componentType":5126,"count":24,"type":"VEC2"},{"bufferView":38,"componentType":5126,"count":24,"type":"VEC2"},{"bufferView":39,"componentType":5126,"count":24,"type":"VEC2"},{"bufferView":40,"componentType":5126,"count":40,"type":"VEC3","min":[-0.8660253882408142,-0.5,-1],"max":[0.8660253882408142,0.5,1]},{"bufferView":41,"componentType":5126,"count":40,"type":"VEC3"},{"bufferView":42,"componentType":5126,"count":40,"type":"VEC2"}],"extensionsUsed":["KHR_materials_unlit"],"extras":{"id":"vlt-public-works-yard-35","family":"public-works-yard","variant":34,"plan":"C5-2","units":"metres","up":"+Y","front":"+Z","lodScenes":[0,1,2]}}