{"asset":{"version":"2.0","generator":"SLOPMERICA Department of Unnecessary Development 1.0"},"scene":0,"scenes":[{"name":"LOD 0","nodes":[0,1,2,3,4,5,6,7,8,9,10,11,12,13,14],"extras":{"level":0}},{"name":"LOD 1","nodes":[15,16,17,18,19,20,21,22,23,24,25,26,27,28,29],"extras":{"level":1}},{"name":"LOD 2","nodes":[30,31,32,33,34,35,36,37],"extras":{"level":2}}],"nodes":[{"name":"surveyed lot","mesh":0,"translation":[0,0.06,0],"scale":[15.84,0.12,10.56]},{"name":"lonely sidewalk","mesh":1,"translation":[-3,0.18,0],"scale":[2.1,0.16,8]},{"name":"abrupt end curb","mesh":2,"translation":[-3,0.26,-4],"scale":[2.35,0.52,0.28]},{"name":"development fence","mesh":3,"translation":[0,0.85,-5],"scale":[12,1.6,0.12]},{"name":"post -6 0","mesh":4,"translation":[-6,0.85,-5],"scale":[0.16,1.7,0.16]},{"name":"post -6 1","mesh":4,"translation":[-3.6,0.85,-5],"scale":[0.16,1.7,0.16]},{"name":"post -6 2","mesh":4,"translation":[-1.2,0.85,-5],"scale":[0.16,1.7,0.16]},{"name":"post -6 3","mesh":4,"translation":[1.2,0.85,-5],"scale":[0.16,1.7,0.16]},{"name":"post -6 4","mesh":4,"translation":[3.6,0.85,-5],"scale":[0.16,1.7,0.16]},{"name":"post -6 5","mesh":4,"translation":[6,0.85,-5],"scale":[0.16,1.7,0.16]},{"name":"desire path weed 0","mesh":5,"translation":[-3,0.35,-6.4],"scale":[0.45,0.35,0.5]},{"name":"desire path weed 1","mesh":6,"translation":[-0.9,0.39,-6.4],"scale":[0.45,0.39,0.5]},{"name":"desire path weed 2","mesh":7,"translation":[1.2,0.43,-6.4],"scale":[0.45,0.43,0.5]},{"name":"desire path weed 3","mesh":8,"translation":[3.3,0.47,-6.4],"scale":[0.45,0.47,0.5]},{"name":"coming soon plywood","mesh":9,"translation":[3,1.4,-5.1],"scale":[4.6,2.4,0.12]},{"name":"surveyed lot","mesh":10,"translation":[0,0.06,0],"scale":[15.84,0.12,10.56]},{"name":"lonely sidewalk","mesh":11,"translation":[-3,0.18,0],"scale":[2.1,0.16,8]},{"name":"abrupt end curb","mesh":12,"translation":[-3,0.26,-4],"scale":[2.35,0.52,0.28]},{"name":"development fence","mesh":13,"translation":[0,0.85,-5],"scale":[12,1.6,0.12]},{"name":"post -6 0","mesh":14,"translation":[-6,0.85,-5],"scale":[0.16,1.7,0.16]},{"name":"post -6 1","mesh":14,"translation":[-3.6,0.85,-5],"scale":[0.16,1.7,0.16]},{"name":"post -6 2","mesh":14,"translation":[-1.2,0.85,-5],"scale":[0.16,1.7,0.16]},{"name":"post -6 3","mesh":14,"translation":[1.2,0.85,-5],"scale":[0.16,1.7,0.16]},{"name":"post -6 4","mesh":14,"translation":[3.6,0.85,-5],"scale":[0.16,1.7,0.16]},{"name":"post -6 5","mesh":14,"translation":[6,0.85,-5],"scale":[0.16,1.7,0.16]},{"name":"desire path weed 0","mesh":15,"translation":[-3,0.35,-6.4],"scale":[0.45,0.35,0.5]},{"name":"desire path weed 1","mesh":16,"translation":[-0.9,0.39,-6.4],"scale":[0.45,0.39,0.5]},{"name":"desire path weed 2","mesh":17,"translation":[1.2,0.43,-6.4],"scale":[0.45,0.43,0.5]},{"name":"desire path weed 3","mesh":18,"translation":[3.3,0.47,-6.4],"scale":[0.45,0.47,0.5]},{"name":"coming soon plywood","mesh":19,"translation":[3,1.4,-5.1],"scale":[4.6,2.4,0.12]},{"name":"surveyed lot","mesh":10,"translation":[0,0.06,0],"scale":[15.84,0.12,10.56]},{"name":"lonely sidewalk","mesh":11,"translation":[-3,0.18,0],"scale":[2.1,0.16,8]},{"name":"abrupt end curb","mesh":12,"translation":[-3,0.26,-4],"scale":[2.35,0.52,0.28]},{"name":"development fence","mesh":13,"translation":[0,0.85,-5],"scale":[12,1.6,0.12]},{"name":"post -6 0","mesh":14,"translation":[-6,0.85,-5],"scale":[0.16,1.7,0.16]},{"name":"post -6 1","mesh":14,"translation":[-3.6,0.85,-5],"scale":[0.16,1.7,0.16]},{"name":"post -6 2","mesh":14,"translation":[-1.2,0.85,-5],"scale":[0.16,1.7,0.16]},{"name":"post -6 3","mesh":14,"translation":[1.2,0.85,-5],"scale":[0.16,1.7,0.16]}],"meshes":[{"primitives":[{"attributes":{"POSITION":0,"NORMAL":1,"TEXCOORD_0":2},"material":0,"mode":4}]},{"primitives":[{"attributes":{"POSITION":0,"NORMAL":1,"TEXCOORD_0":3},"material":0,"mode":4}]},{"primitives":[{"attributes":{"POSITION":0,"NORMAL":1,"TEXCOORD_0":4},"material":0,"mode":4}]},{"primitives":[{"attributes":{"POSITION":0,"NORMAL":1,"TEXCOORD_0":5},"material":1,"mode":4}]},{"primitives":[{"attributes":{"POSITION":0,"NORMAL":1,"TEXCOORD_0":6},"material":1,"mode":4}]},{"primitives":[{"attributes":{"POSITION":7,"NORMAL":7,"TEXCOORD_0":8},"material":2,"mode":4,"indices":9}]},{"primitives":[{"attributes":{"POSITION":7,"NORMAL":7,"TEXCOORD_0":10},"material":2,"mode":4,"indices":9}]},{"primitives":[{"attributes":{"POSITION":7,"NORMAL":7,"TEXCOORD_0":11},"material":2,"mode":4,"indices":9}]},{"primitives":[{"attributes":{"POSITION":7,"NORMAL":7,"TEXCOORD_0":12},"material":2,"mode":4,"indices":9}]},{"primitives":[{"attributes":{"POSITION":0,"NORMAL":1,"TEXCOORD_0":13},"material":3,"mode":4}]},{"primitives":[{"attributes":{"POSITION":14,"NORMAL":15,"TEXCOORD_0":16},"material":0,"mode":4,"indices":17}]},{"primitives":[{"attributes":{"POSITION":14,"NORMAL":15,"TEXCOORD_0":18},"material":0,"mode":4,"indices":17}]},{"primitives":[{"attributes":{"POSITION":14,"NORMAL":15,"TEXCOORD_0":19},"material":0,"mode":4,"indices":17}]},{"primitives":[{"attributes":{"POSITION":14,"NORMAL":15,"TEXCOORD_0":20},"material":1,"mode":4,"indices":17}]},{"primitives":[{"attributes":{"POSITION":14,"NORMAL":15,"TEXCOORD_0":21},"material":1,"mode":4,"indices":17}]},{"primitives":[{"attributes":{"POSITION":22,"NORMAL":22,"TEXCOORD_0":23},"material":2,"mode":4,"indices":24}]},{"primitives":[{"attributes":{"POSITION":22,"NORMAL":22,"TEXCOORD_0":25},"material":2,"mode":4,"indices":24}]},{"primitives":[{"attributes":{"POSITION":22,"NORMAL":22,"TEXCOORD_0":26},"material":2,"mode":4,"indices":24}]},{"primitives":[{"attributes":{"POSITION":22,"NORMAL":22,"TEXCOORD_0":27},"material":2,"mode":4,"indices":24}]},{"primitives":[{"attributes":{"POSITION":14,"NORMAL":15,"TEXCOORD_0":28},"material":3,"mode":4,"indices":17}]}],"materials":[{"name":"concrete","pbrMetallicRoughness":{"baseColorTexture":{"index":0},"metallicRoughnessTexture":{"index":2},"roughnessFactor":1,"metallicFactor":1},"normalTexture":{"index":1,"scale":0.82},"occlusionTexture":{"index":2,"strength":0.35}},{"name":"metal-galvanized","pbrMetallicRoughness":{"baseColorTexture":{"index":3},"metallicRoughnessTexture":{"index":5},"roughnessFactor":1,"metallicFactor":1},"normalTexture":{"index":4,"scale":0.15},"occlusionTexture":{"index":5,"strength":0.35}},{"name":"foliage","pbrMetallicRoughness":{"baseColorTexture":{"index":6},"metallicRoughnessTexture":{"index":8},"roughnessFactor":1,"metallicFactor":1},"normalTexture":{"index":7,"scale":0.88},"occlusionTexture":{"index":8,"strength":0.35}},{"name":"wood-oak","pbrMetallicRoughness":{"baseColorTexture":{"index":9},"metallicRoughnessTexture":{"index":11},"roughnessFactor":1,"metallicFactor":1},"normalTexture":{"index":10,"scale":1},"occlusionTexture":{"index":11,"strength":0.35}}],"textures":[{"source":0,"sampler":0},{"source":1,"sampler":0},{"source":2,"sampler":0},{"source":3,"sampler":0},{"source":4,"sampler":0},{"source":5,"sampler":0},{"source":6,"sampler":0},{"source":7,"sampler":0},{"source":8,"sampler":0},{"source":9,"sampler":0},{"source":10,"sampler":0},{"source":11,"sampler":0}],"images":[{"uri":"../textures/concrete-albedo.png"},{"uri":"../textures/concrete-normal.png"},{"uri":"../textures/concrete-orm.png"},{"uri":"../textures/metal-galvanized-albedo.png"},{"uri":"../textures/metal-galvanized-normal.png"},{"uri":"../textures/metal-galvanized-orm.png"},{"uri":"../textures/foliage-albedo.png"},{"uri":"../textures/foliage-normal.png"},{"uri":"../textures/foliage-orm.png"},{"uri":"../textures/wood-oak-albedo.png"},{"uri":"../textures/wood-oak-normal.png"},{"uri":"../textures/wood-oak-orm.png"}],"samplers":[{"magFilter":9729,"minFilter":9987,"wrapS":10497,"wrapT":10497}],"buffers":[{"uri":"../shared/geometry.bin","byteLength":16435520}],"bufferViews":[{"buffer":0,"byteOffset":0,"byteLength":3888,"target":34962},{"buffer":0,"byteOffset":3888,"byteLength":3888,"target":34962},{"buffer":0,"byteOffset":13191176,"byteLength":2592,"target":34962},{"buffer":0,"byteOffset":13125944,"byteLength":2592,"target":34962},{"buffer":0,"byteOffset":13128536,"byteLength":2592,"target":34962},{"buffer":0,"byteOffset":13131128,"byteLength":2592,"target":34962},{"buffer":0,"byteOffset":13133720,"byteLength":2592,"target":34962},{"buffer":0,"byteOffset":6080864,"byteLength":3276,"target":34962},{"buffer":0,"byteOffset":13136312,"byteLength":2184,"target":34962},{"buffer":0,"byteOffset":6086324,"byteLength":2640,"target":34963},{"buffer":0,"byteOffset":13138496,"byteLength":2184,"target":34962},{"buffer":0,"byteOffset":13179512,"byteLength":2184,"target":34962},{"buffer":0,"byteOffset":13193768,"byteLength":2184,"target":34962},{"buffer":0,"byteOffset":13219688,"byteLength":2592,"target":34962},{"buffer":0,"byteOffset":46644,"byteLength":288,"target":34962},{"buffer":0,"byteOffset":45952,"byteLength":288,"target":34962},{"buffer":0,"byteOffset":13195952,"byteLength":192,"target":34962},{"buffer":0,"byteOffset":46432,"byteLength":72,"target":34963},{"buffer":0,"byteOffset":13140872,"byteLength":192,"target":34962},{"buffer":0,"byteOffset":13141064,"byteLength":192,"target":34962},{"buffer":0,"byteOffset":13141256,"byteLength":192,"target":34962},{"buffer":0,"byteOffset":13141448,"byteLength":192,"target":34962},{"buffer":0,"byteOffset":6096692,"byteLength":1404,"target":34962},{"buffer":0,"byteOffset":13141640,"byteLength":936,"target":34962},{"buffer":0,"byteOffset":6099032,"byteLength":1008,"target":34963},{"buffer":0,"byteOffset":13142576,"byteLength":936,"target":34962},{"buffer":0,"byteOffset":13181888,"byteLength":936,"target":34962},{"buffer":0,"byteOffset":13196144,"byteLength":936,"target":34962},{"buffer":0,"byteOffset":13222280,"byteLength":192,"target":34962}],"accessors":[{"bufferView":0,"componentType":5126,"count":324,"type":"VEC3","min":[-0.5,-0.5,-0.5],"max":[0.5,0.5,0.5]},{"bufferView":1,"componentType":5126,"count":324,"type":"VEC3"},{"bufferView":2,"componentType":5126,"count":324,"type":"VEC2"},{"bufferView":3,"componentType":5126,"count":324,"type":"VEC2"},{"bufferView":4,"componentType":5126,"count":324,"type":"VEC2"},{"bufferView":5,"componentType":5126,"count":324,"type":"VEC2"},{"bufferView":6,"componentType":5126,"count":324,"type":"VEC2"},{"bufferView":7,"componentType":5126,"count":273,"type":"VEC3","min":[-1,-1,-1],"max":[1,1,1]},{"bufferView":8,"componentType":5126,"count":273,"type":"VEC2"},{"bufferView":9,"componentType":5123,"count":1320,"type":"SCALAR"},{"bufferView":10,"componentType":5126,"count":273,"type":"VEC2"},{"bufferView":11,"componentType":5126,"count":273,"type":"VEC2"},{"bufferView":12,"componentType":5126,"count":273,"type":"VEC2"},{"bufferView":13,"componentType":5126,"count":324,"type":"VEC2"},{"bufferView":14,"componentType":5126,"count":24,"type":"VEC3","min":[-0.5,-0.5,-0.5],"max":[0.5,0.5,0.5]},{"bufferView":15,"componentType":5126,"count":24,"type":"VEC3"},{"bufferView":16,"componentType":5126,"count":24,"type":"VEC2"},{"bufferView":17,"componentType":5123,"count":36,"type":"SCALAR"},{"bufferView":18,"componentType":5126,"count":24,"type":"VEC2"},{"bufferView":19,"componentType":5126,"count":24,"type":"VEC2"},{"bufferView":20,"componentType":5126,"count":24,"type":"VEC2"},{"bufferView":21,"componentType":5126,"count":24,"type":"VEC2"},{"bufferView":22,"componentType":5126,"count":117,"type":"VEC3","min":[-1,-1,-1],"max":[1,1,1]},{"bufferView":23,"componentType":5126,"count":117,"type":"VEC2"},{"bufferView":24,"componentType":5123,"count":504,"type":"SCALAR"},{"bufferView":25,"componentType":5126,"count":117,"type":"VEC2"},{"bufferView":26,"componentType":5126,"count":117,"type":"VEC2"},{"bufferView":27,"componentType":5126,"count":117,"type":"VEC2"},{"bufferView":28,"componentType":5126,"count":24,"type":"VEC2"}],"extensionsUsed":["KHR_materials_unlit"],"extras":{"id":"vlt-sidewalk-to-nowhere-31","family":"sidewalk-to-nowhere","variant":30,"plan":"C1-2","units":"metres","up":"+Y","front":"+Z","lodScenes":[0,1,2]}}