{"asset":{"version":"2.0","generator":"SLOPMERICA Department of Unnecessary Development 1.0"},"scene":0,"scenes":[{"name":"LOD 0","nodes":[0,1,2,3,4,5,6,7,8,9,10,11,12,13,14,15,16,17,18],"extras":{"level":0}},{"name":"LOD 1","nodes":[19,20,21,22,23,24,25,26,27,28,29,30,31,32,33,34,35,36,37],"extras":{"level":1}},{"name":"LOD 2","nodes":[38,39,40,41,42,43,44,45,46,47,48,49,50],"extras":{"level":2}}],"nodes":[{"name":"surveyed lot","mesh":0,"translation":[0,0.06,0],"scale":[10.4,0.12,7.28]},{"name":"sole bench seat","mesh":1,"translation":[0,0.62,0.6],"rotation":[0,-0.039989,0,0.9992],"scale":[2.4,0.16,0.55]},{"name":"sole bench back","mesh":2,"translation":[0,1.02,0.35],"rotation":[0,-0.039989,0,0.9992],"scale":[2.4,0.75,0.13]},{"name":"post -0.85 0","mesh":3,"translation":[-0.85,0.31,0.6],"scale":[0.16,0.62,0.16]},{"name":"post -0.85 1","mesh":3,"translation":[0.85,0.31,0.6],"scale":[0.16,0.62,0.16]},{"name":"six lane view","mesh":4,"translation":[0,0.14,5],"scale":[11.5,0.1,2.8]},{"name":"lane stripe -2","mesh":5,"translation":[-3.1,0.21,5],"scale":[0.12,0.03,2.8]},{"name":"lane stripe -1","mesh":5,"translation":[-1.55,0.21,5],"scale":[0.12,0.03,2.8]},{"name":"lane stripe 0","mesh":5,"translation":[0,0.21,5],"scale":[0.12,0.03,2.8]},{"name":"lane stripe 1","mesh":5,"translation":[1.55,0.21,5],"scale":[0.12,0.03,2.8]},{"name":"lane stripe 2","mesh":5,"translation":[3.1,0.21,5],"scale":[0.12,0.03,2.8]},{"name":"tiny trash can","mesh":6,"translation":[-2.1,0.5,0.4],"scale":[0.65,0.9,0.65]},{"name":"municipal sapling trunk","mesh":7,"translation":[2.6,0.72,-0.8],"scale":[0.2,1.44,0.2]},{"name":"municipal sapling branch a","mesh":8,"translation":[0,0,0]},{"name":"municipal sapling branch b","mesh":9,"translation":[0,0,0]},{"name":"municipal sapling crown a","mesh":10,"translation":[2.3,1.98,-0.8],"scale":[0.84,0.9,0.72]},{"name":"municipal sapling crown b","mesh":11,"translation":[3.02,2.19,-0.65],"scale":[0.72,0.75,0.66]},{"name":"pocket park plaque-back","mesh":12,"translation":[0,0.95,-3.5],"scale":[2.8,0.9,1]},{"name":"pocket park plaque","mesh":13,"translation":[0,0.95,-3.471],"scale":[2.7,0.8,1]},{"name":"surveyed lot","mesh":14,"translation":[0,0.06,0],"scale":[10.4,0.12,7.28]},{"name":"sole bench seat","mesh":15,"translation":[0,0.62,0.6],"rotation":[0,-0.039989,0,0.9992],"scale":[2.4,0.16,0.55]},{"name":"sole bench back","mesh":16,"translation":[0,1.02,0.35],"rotation":[0,-0.039989,0,0.9992],"scale":[2.4,0.75,0.13]},{"name":"post -0.85 0","mesh":17,"translation":[-0.85,0.31,0.6],"scale":[0.16,0.62,0.16]},{"name":"post -0.85 1","mesh":17,"translation":[0.85,0.31,0.6],"scale":[0.16,0.62,0.16]},{"name":"six lane view","mesh":18,"translation":[0,0.14,5],"scale":[11.5,0.1,2.8]},{"name":"lane stripe -2","mesh":19,"translation":[-3.1,0.21,5],"scale":[0.12,0.03,2.8]},{"name":"lane stripe -1","mesh":19,"translation":[-1.55,0.21,5],"scale":[0.12,0.03,2.8]},{"name":"lane stripe 0","mesh":19,"translation":[0,0.21,5],"scale":[0.12,0.03,2.8]},{"name":"lane stripe 1","mesh":19,"translation":[1.55,0.21,5],"scale":[0.12,0.03,2.8]},{"name":"lane stripe 2","mesh":19,"translation":[3.1,0.21,5],"scale":[0.12,0.03,2.8]},{"name":"tiny trash can","mesh":20,"translation":[-2.1,0.5,0.4],"scale":[0.65,0.9,0.65]},{"name":"municipal sapling trunk","mesh":21,"translation":[2.6,0.72,-0.8],"scale":[0.2,1.44,0.2]},{"name":"municipal sapling branch a","mesh":22,"translation":[0,0,0]},{"name":"municipal sapling branch b","mesh":23,"translation":[0,0,0]},{"name":"municipal sapling crown a","mesh":24,"translation":[2.3,1.98,-0.8],"scale":[0.84,0.9,0.72]},{"name":"municipal sapling crown b","mesh":25,"translation":[3.02,2.19,-0.65],"scale":[0.72,0.75,0.66]},{"name":"pocket park plaque-back","mesh":12,"translation":[0,0.95,-3.5],"scale":[2.8,0.9,1]},{"name":"pocket park plaque","mesh":13,"translation":[0,0.95,-3.471],"scale":[2.7,0.8,1]},{"name":"surveyed lot","mesh":14,"translation":[0,0.06,0],"scale":[10.4,0.12,7.28]},{"name":"sole bench seat","mesh":15,"translation":[0,0.62,0.6],"rotation":[0,-0.039989,0,0.9992],"scale":[2.4,0.16,0.55]},{"name":"sole bench back","mesh":16,"translation":[0,1.02,0.35],"rotation":[0,-0.039989,0,0.9992],"scale":[2.4,0.75,0.13]},{"name":"post -0.85 0","mesh":17,"translation":[-0.85,0.31,0.6],"scale":[0.16,0.62,0.16]},{"name":"post -0.85 1","mesh":17,"translation":[0.85,0.31,0.6],"scale":[0.16,0.62,0.16]},{"name":"six lane view","mesh":18,"translation":[0,0.14,5],"scale":[11.5,0.1,2.8]},{"name":"lane stripe -2","mesh":19,"translation":[-3.1,0.21,5],"scale":[0.12,0.03,2.8]},{"name":"lane stripe -1","mesh":19,"translation":[-1.55,0.21,5],"scale":[0.12,0.03,2.8]},{"name":"lane stripe 0","mesh":19,"translation":[0,0.21,5],"scale":[0.12,0.03,2.8]},{"name":"lane stripe 1","mesh":19,"translation":[1.55,0.21,5],"scale":[0.12,0.03,2.8]},{"name":"lane stripe 2","mesh":19,"translation":[3.1,0.21,5],"scale":[0.12,0.03,2.8]},{"name":"pocket park plaque-back","mesh":12,"translation":[0,0.95,-3.5],"scale":[2.8,0.9,1]},{"name":"pocket park plaque","mesh":13,"translation":[0,0.95,-3.471],"scale":[2.7,0.8,1]}],"meshes":[{"primitives":[{"attributes":{"POSITION":0,"NORMAL":1,"TEXCOORD_0":2},"material":0,"mode":4}]},{"primitives":[{"attributes":{"POSITION":0,"NORMAL":1,"TEXCOORD_0":3},"material":1,"mode":4}]},{"primitives":[{"attributes":{"POSITION":0,"NORMAL":1,"TEXCOORD_0":4},"material":1,"mode":4}]},{"primitives":[{"attributes":{"POSITION":0,"NORMAL":1,"TEXCOORD_0":5},"material":2,"mode":4}]},{"primitives":[{"attributes":{"POSITION":0,"NORMAL":1,"TEXCOORD_0":6},"material":3,"mode":4}]},{"primitives":[{"attributes":{"POSITION":0,"NORMAL":1,"TEXCOORD_0":7},"material":4,"mode":4}]},{"primitives":[{"attributes":{"POSITION":0,"NORMAL":1,"TEXCOORD_0":8},"material":2,"mode":4}]},{"primitives":[{"attributes":{"POSITION":9,"NORMAL":10,"TEXCOORD_0":11},"material":5,"mode":4,"indices":12}]},{"primitives":[{"attributes":{"POSITION":13,"NORMAL":14,"TEXCOORD_0":15},"material":5,"mode":4,"indices":16}]},{"primitives":[{"attributes":{"POSITION":17,"NORMAL":18,"TEXCOORD_0":15},"material":5,"mode":4,"indices":16}]},{"primitives":[{"attributes":{"POSITION":19,"NORMAL":19,"TEXCOORD_0":20},"material":6,"mode":4,"indices":21}]},{"primitives":[{"attributes":{"POSITION":19,"NORMAL":19,"TEXCOORD_0":22},"material":6,"mode":4,"indices":21}]},{"primitives":[{"attributes":{"POSITION":23,"NORMAL":24,"TEXCOORD_0":25},"material":2,"mode":4,"indices":26}]},{"primitives":[{"attributes":{"POSITION":27,"NORMAL":28,"TEXCOORD_0":29},"material":7,"mode":4,"indices":30}]},{"primitives":[{"attributes":{"POSITION":31,"NORMAL":24,"TEXCOORD_0":32},"material":0,"mode":4,"indices":26}]},{"primitives":[{"attributes":{"POSITION":31,"NORMAL":24,"TEXCOORD_0":33},"material":1,"mode":4,"indices":26}]},{"primitives":[{"attributes":{"POSITION":31,"NORMAL":24,"TEXCOORD_0":34},"material":1,"mode":4,"indices":26}]},{"primitives":[{"attributes":{"POSITION":31,"NORMAL":24,"TEXCOORD_0":35},"material":2,"mode":4,"indices":26}]},{"primitives":[{"attributes":{"POSITION":31,"NORMAL":24,"TEXCOORD_0":36},"material":3,"mode":4,"indices":26}]},{"primitives":[{"attributes":{"POSITION":31,"NORMAL":24,"TEXCOORD_0":37},"material":4,"mode":4,"indices":26}]},{"primitives":[{"attributes":{"POSITION":31,"NORMAL":24,"TEXCOORD_0":38},"material":2,"mode":4,"indices":26}]},{"primitives":[{"attributes":{"POSITION":39,"NORMAL":40,"TEXCOORD_0":41},"material":5,"mode":4,"indices":42}]},{"primitives":[{"attributes":{"POSITION":43,"NORMAL":44,"TEXCOORD_0":45},"material":5,"mode":4,"indices":46}]},{"primitives":[{"attributes":{"POSITION":47,"NORMAL":48,"TEXCOORD_0":45},"material":5,"mode":4,"indices":46}]},{"primitives":[{"attributes":{"POSITION":49,"NORMAL":49,"TEXCOORD_0":50},"material":6,"mode":4,"indices":51}]},{"primitives":[{"attributes":{"POSITION":49,"NORMAL":49,"TEXCOORD_0":52},"material":6,"mode":4,"indices":51}]}],"materials":[{"name":"concrete","pbrMetallicRoughness":{"baseColorTexture":{"index":0},"metallicRoughnessTexture":{"index":2},"roughnessFactor":1,"metallicFactor":1},"normalTexture":{"index":1,"scale":0.82},"occlusionTexture":{"index":2,"strength":0.35}},{"name":"wood-oak","pbrMetallicRoughness":{"baseColorTexture":{"index":3},"metallicRoughnessTexture":{"index":5},"roughnessFactor":1,"metallicFactor":1},"normalTexture":{"index":4,"scale":1},"occlusionTexture":{"index":5,"strength":0.35}},{"name":"metal-dark","pbrMetallicRoughness":{"baseColorTexture":{"index":6},"metallicRoughnessTexture":{"index":8},"roughnessFactor":1,"metallicFactor":1},"normalTexture":{"index":7,"scale":0.35},"occlusionTexture":{"index":8,"strength":0.35}},{"name":"asphalt","pbrMetallicRoughness":{"baseColorTexture":{"index":9},"metallicRoughnessTexture":{"index":11},"roughnessFactor":1,"metallicFactor":1},"normalTexture":{"index":10,"scale":0.62},"occlusionTexture":{"index":11,"strength":0.35}},{"name":"paint-yellow","pbrMetallicRoughness":{"baseColorFactor":[0.76052450467022,0.4793201830913402,0.07818742179702069,1],"roughnessFactor":0.66,"metallicFactor":0.03}},{"name":"bark","pbrMetallicRoughness":{"baseColorTexture":{"index":12},"metallicRoughnessTexture":{"index":14},"roughnessFactor":1,"metallicFactor":1},"normalTexture":{"index":13,"scale":1.35},"occlusionTexture":{"index":14,"strength":0.35}},{"name":"foliage","pbrMetallicRoughness":{"baseColorTexture":{"index":15},"metallicRoughnessTexture":{"index":17},"roughnessFactor":1,"metallicFactor":1},"normalTexture":{"index":16,"scale":0.88},"occlusionTexture":{"index":17,"strength":0.35}},{"name":"pocket-park signage","pbrMetallicRoughness":{"baseColorTexture":{"index":18},"roughnessFactor":1,"metallicFactor":0},"extensions":{"KHR_materials_unlit":{}}}],"textures":[{"source":0,"sampler":0},{"source":1,"sampler":0},{"source":2,"sampler":0},{"source":3,"sampler":0},{"source":4,"sampler":0},{"source":5,"sampler":0},{"source":6,"sampler":0},{"source":7,"sampler":0},{"source":8,"sampler":0},{"source":9,"sampler":0},{"source":10,"sampler":0},{"source":11,"sampler":0},{"source":12,"sampler":0},{"source":13,"sampler":0},{"source":14,"sampler":0},{"source":15,"sampler":0},{"source":16,"sampler":0},{"source":17,"sampler":0},{"source":18,"sampler":0}],"images":[{"uri":"../textures/concrete-albedo.png"},{"uri":"../textures/concrete-normal.png"},{"uri":"../textures/concrete-orm.png"},{"uri":"../textures/wood-oak-albedo.png"},{"uri":"../textures/wood-oak-normal.png"},{"uri":"../textures/wood-oak-orm.png"},{"uri":"../textures/metal-dark-albedo.png"},{"uri":"../textures/metal-dark-normal.png"},{"uri":"../textures/metal-dark-orm.png"},{"uri":"../textures/asphalt-albedo.png"},{"uri":"../textures/asphalt-normal.png"},{"uri":"../textures/asphalt-orm.png"},{"uri":"../textures/bark-albedo.png"},{"uri":"../textures/bark-normal.png"},{"uri":"../textures/bark-orm.png"},{"uri":"../textures/foliage-albedo.png"},{"uri":"../textures/foliage-normal.png"},{"uri":"../textures/foliage-orm.png"},{"uri":"../signs/pocket-park.png"}],"samplers":[{"magFilter":9729,"minFilter":9987,"wrapS":10497,"wrapT":10497}],"buffers":[{"uri":"../shared/geometry.bin","byteLength":16435520}],"bufferViews":[{"buffer":0,"byteOffset":0,"byteLength":3888,"target":34962},{"buffer":0,"byteOffset":3888,"byteLength":3888,"target":34962},{"buffer":0,"byteOffset":10506032,"byteLength":2592,"target":34962},{"buffer":0,"byteOffset":6749352,"byteLength":2592,"target":34962},{"buffer":0,"byteOffset":6751944,"byteLength":2592,"target":34962},{"buffer":0,"byteOffset":6754536,"byteLength":2592,"target":34962},{"buffer":0,"byteOffset":10417976,"byteLength":2592,"target":34962},{"buffer":0,"byteOffset":10380684,"byteLength":2592,"target":34962},{"buffer":0,"byteOffset":10383276,"byteLength":2592,"target":34962},{"buffer":0,"byteOffset":6765824,"byteLength":552,"target":34962},{"buffer":0,"byteOffset":6766376,"byteLength":552,"target":34962},{"buffer":0,"byteOffset":10420568,"byteLength":368,"target":34962},{"buffer":0,"byteOffset":3772292,"byteLength":168,"target":34963},{"buffer":0,"byteOffset":10420936,"byteLength":972,"target":34962},{"buffer":0,"byteOffset":10421908,"byteLength":972,"target":34962},{"buffer":0,"byteOffset":6769240,"byteLength":648,"target":34962},{"buffer":0,"byteOffset":410600,"byteLength":768,"target":34963},{"buffer":0,"byteOffset":10422880,"byteLength":972,"target":34962},{"buffer":0,"byteOffset":10423852,"byteLength":972,"target":34962},{"buffer":0,"byteOffset":6080864,"byteLength":3276,"target":34962},{"buffer":0,"byteOffset":10424824,"byteLength":2184,"target":34962},{"buffer":0,"byteOffset":6086324,"byteLength":2640,"target":34963},{"buffer":0,"byteOffset":10427008,"byteLength":2184,"target":34962},{"buffer":0,"byteOffset":45664,"byteLength":288,"target":34962},{"buffer":0,"byteOffset":45952,"byteLength":288,"target":34962},{"buffer":0,"byteOffset":46240,"byteLength":192,"target":34962},{"buffer":0,"byteOffset":46432,"byteLength":72,"target":34963},{"buffer":0,"byteOffset":46504,"byteLength":48,"target":34962},{"buffer":0,"byteOffset":46552,"byteLength":48,"target":34962},{"buffer":0,"byteOffset":164932,"byteLength":32,"target":34962},{"buffer":0,"byteOffset":46632,"byteLength":12,"target":34963},{"buffer":0,"byteOffset":46644,"byteLength":288,"target":34962},{"buffer":0,"byteOffset":10508624,"byteLength":192,"target":34962},{"buffer":0,"byteOffset":6776392,"byteLength":192,"target":34962},{"buffer":0,"byteOffset":6776584,"byteLength":192,"target":34962},{"buffer":0,"byteOffset":6776776,"byteLength":192,"target":34962},{"buffer":0,"byteOffset":10429384,"byteLength":192,"target":34962},{"buffer":0,"byteOffset":10394876,"byteLength":192,"target":34962},{"buffer":0,"byteOffset":10395068,"byteLength":192,"target":34962},{"buffer":0,"byteOffset":1942620,"byteLength":480,"target":34962},{"buffer":0,"byteOffset":1943100,"byteLength":480,"target":34962},{"buffer":0,"byteOffset":10429576,"byteLength":320,"target":34962},{"buffer":0,"byteOffset":48596,"byteLength":144,"target":34963},{"buffer":0,"byteOffset":10429896,"byteLength":420,"target":34962},{"buffer":0,"byteOffset":10430316,"byteLength":420,"target":34962},{"buffer":0,"byteOffset":6782264,"byteLength":280,"target":34962},{"buffer":0,"byteOffset":434076,"byteLength":288,"target":34963},{"buffer":0,"byteOffset":10430736,"byteLength":420,"target":34962},{"buffer":0,"byteOffset":6782964,"byteLength":420,"target":34962},{"buffer":0,"byteOffset":6096692,"byteLength":1404,"target":34962},{"buffer":0,"byteOffset":10431156,"byteLength":936,"target":34962},{"buffer":0,"byteOffset":6099032,"byteLength":1008,"target":34963},{"buffer":0,"byteOffset":10432092,"byteLength":936,"target":34962}],"accessors":[{"bufferView":0,"componentType":5126,"count":324,"type":"VEC3","min":[-0.5,-0.5,-0.5],"max":[0.5,0.5,0.5]},{"bufferView":1,"componentType":5126,"count":324,"type":"VEC3"},{"bufferView":2,"componentType":5126,"count":324,"type":"VEC2"},{"bufferView":3,"componentType":5126,"count":324,"type":"VEC2"},{"bufferView":4,"componentType":5126,"count":324,"type":"VEC2"},{"bufferView":5,"componentType":5126,"count":324,"type":"VEC2"},{"bufferView":6,"componentType":5126,"count":324,"type":"VEC2"},{"bufferView":7,"componentType":5126,"count":324,"type":"VEC2"},{"bufferView":8,"componentType":5126,"count":324,"type":"VEC2"},{"bufferView":9,"componentType":5126,"count":46,"type":"VEC3","min":[-0.9749279022216797,-0.5,-0.9009688496589661],"max":[0.9749279022216797,0.5,1]},{"bufferView":10,"componentType":5126,"count":46,"type":"VEC3"},{"bufferView":11,"componentType":5126,"count":46,"type":"VEC2"},{"bufferView":12,"componentType":5123,"count":84,"type":"SCALAR"},{"bufferView":13,"componentType":5126,"count":81,"type":"VEC3","min":[1.9538719654083252,0.9060466885566711,-0.8550000190734863],"max":[2.6461281776428223,1.8899532556533813,-0.7450000047683716]},{"bufferView":14,"componentType":5126,"count":81,"type":"VEC3"},{"bufferView":15,"componentType":5126,"count":81,"type":"VEC2"},{"bufferView":16,"componentType":5123,"count":384,"type":"SCALAR"},{"bufferView":17,"componentType":5126,"count":81,"type":"VEC3","min":[2.5546882152557373,1.015600562095642,-0.8490388989448547],"max":[3.1553115844726562,2.1511993408203125,-0.51096111536026]},{"bufferView":18,"componentType":5126,"count":81,"type":"VEC3"},{"bufferView":19,"componentType":5126,"count":273,"type":"VEC3","min":[-1,-1,-1],"max":[1,1,1]},{"bufferView":20,"componentType":5126,"count":273,"type":"VEC2"},{"bufferView":21,"componentType":5123,"count":1320,"type":"SCALAR"},{"bufferView":22,"componentType":5126,"count":273,"type":"VEC2"},{"bufferView":23,"componentType":5126,"count":24,"type":"VEC3","min":[-0.5,-0.5,-0.02500000037252903],"max":[0.5,0.5,0.02500000037252903]},{"bufferView":24,"componentType":5126,"count":24,"type":"VEC3"},{"bufferView":25,"componentType":5126,"count":24,"type":"VEC2"},{"bufferView":26,"componentType":5123,"count":36,"type":"SCALAR"},{"bufferView":27,"componentType":5126,"count":4,"type":"VEC3","min":[-0.5,-0.5,0],"max":[0.5,0.5,0]},{"bufferView":28,"componentType":5126,"count":4,"type":"VEC3"},{"bufferView":29,"componentType":5126,"count":4,"type":"VEC2"},{"bufferView":30,"componentType":5123,"count":6,"type":"SCALAR"},{"bufferView":31,"componentType":5126,"count":24,"type":"VEC3","min":[-0.5,-0.5,-0.5],"max":[0.5,0.5,0.5]},{"bufferView":32,"componentType":5126,"count":24,"type":"VEC2"},{"bufferView":33,"componentType":5126,"count":24,"type":"VEC2"},{"bufferView":34,"componentType":5126,"count":24,"type":"VEC2"},{"bufferView":35,"componentType":5126,"count":24,"type":"VEC2"},{"bufferView":36,"componentType":5126,"count":24,"type":"VEC2"},{"bufferView":37,"componentType":5126,"count":24,"type":"VEC2"},{"bufferView":38,"componentType":5126,"count":24,"type":"VEC2"},{"bufferView":39,"componentType":5126,"count":40,"type":"VEC3","min":[-0.8660253882408142,-0.5,-1],"max":[0.8660253882408142,0.5,1]},{"bufferView":40,"componentType":5126,"count":40,"type":"VEC3"},{"bufferView":41,"componentType":5126,"count":40,"type":"VEC2"},{"bufferView":42,"componentType":5123,"count":72,"type":"SCALAR"},{"bufferView":43,"componentType":5126,"count":35,"type":"VEC3","min":[1.9600518941879272,0.9100596904754639,-0.8550000190734863],"max":[2.6399481296539307,1.8859403133392334,-0.7450000047683716]},{"bufferView":44,"componentType":5126,"count":35,"type":"VEC3"},{"bufferView":45,"componentType":5126,"count":35,"type":"VEC2"},{"bufferView":46,"componentType":5123,"count":144,"type":"SCALAR"},{"bufferView":47,"componentType":5126,"count":35,"type":"VEC3","min":[2.5586965084075928,1.0140724182128906,-0.8490388989448547],"max":[3.15130352973938,2.1527276039123535,-0.51096111536026]},{"bufferView":48,"componentType":5126,"count":35,"type":"VEC3"},{"bufferView":49,"componentType":5126,"count":117,"type":"VEC3","min":[-1,-1,-1],"max":[1,1,1]},{"bufferView":50,"componentType":5126,"count":117,"type":"VEC2"},{"bufferView":51,"componentType":5123,"count":504,"type":"SCALAR"},{"bufferView":52,"componentType":5126,"count":117,"type":"VEC2"}],"extensionsUsed":["KHR_materials_unlit"],"extras":{"id":"vlt-pocket-park-13","family":"pocket-park","variant":12,"plan":"C3-1","units":"metres","up":"+Y","front":"+Z","lodScenes":[0,1,2]}}