{"asset":{"version":"2.0","generator":"SLOPMERICA Department of Unnecessary Development 1.0"},"scene":0,"scenes":[{"name":"LOD 0","nodes":[0,1,2,3,4,5,6,7,8,9,10,11,12,13,14,15,16,17],"extras":{"level":0}},{"name":"LOD 1","nodes":[18,19,20,21,22,23,24,25,26,27,28,29,30],"extras":{"level":1}},{"name":"LOD 2","nodes":[31,32,33,34,35,36,37,38,39],"extras":{"level":2}}],"nodes":[{"name":"foundation","mesh":0,"translation":[0,0.08,0],"scale":[28.2,0.16,18.76]},{"name":"bulk-base","mesh":1,"translation":[0,2.6928,0],"scale":[26,5.3856,16.56]},{"name":"barrel-roof","mesh":2,"translation":[0,6.3428,0],"rotation":[0,0,0.707107,0.707107],"scale":[6.2928,26,6.2928]},{"name":"dock-mouth","mesh":3,"translation":[-8.58,1.9008,8.38],"scale":[4.68,3.3264,0.15]},{"name":"cart-0","mesh":4,"translation":[-7.8,0.4,10.4328],"scale":[0.9,0.55,0.55]},{"name":"cart-1","mesh":4,"translation":[-6.75,0.4,11.1328],"rotation":[0,0.099833,0,0.995004],"scale":[0.9,0.55,0.55]},{"name":"cart-2","mesh":4,"translation":[-5.7,0.4,10.4328],"rotation":[0,0.198669,0,0.980067],"scale":[0.9,0.55,0.55]},{"name":"cart-3","mesh":4,"translation":[-4.65,0.4,11.1328],"rotation":[0,0.29552,0,0.955336],"scale":[0.9,0.55,0.55]},{"name":"cart-4","mesh":4,"translation":[-3.6,0.4,10.4328],"rotation":[0,0.389418,0,0.921061],"scale":[0.9,0.55,0.55]},{"name":"cart-5","mesh":4,"translation":[-2.55,0.4,11.1328],"rotation":[0,0.479426,0,0.877583],"scale":[0.9,0.55,0.55]},{"name":"bulk-sign-back","mesh":5,"translation":[0,5.544,8.44],"scale":[11.02,1.4,1]},{"name":"bulk-sign","mesh":6,"translation":[0,5.544,8.469],"scale":[10.92,1.3,1]},{"name":"busy-state-queue-bar","mesh":7,"translation":[0,0.65,10.4328],"scale":[18.72,0.12,0.12]},{"name":"queue-car-0","mesh":8,"translation":[-7.8,0.34,11.592],"scale":[1.35,0.65,0.7]},{"name":"queue-car-1","mesh":9,"translation":[-3.9,0.34,12.9168],"scale":[1.35,0.65,0.7]},{"name":"queue-car-2","mesh":8,"translation":[0,0.34,11.592],"scale":[1.35,0.65,0.7]},{"name":"queue-car-3","mesh":9,"translation":[3.9,0.34,12.9168],"scale":[1.35,0.65,0.7]},{"name":"queue-car-4","mesh":8,"translation":[7.8,0.34,11.592],"scale":[1.35,0.65,0.7]},{"name":"foundation","mesh":10,"translation":[0,0.08,0],"scale":[28.2,0.16,18.76]},{"name":"bulk-base","mesh":11,"translation":[0,2.6928,0],"scale":[26,5.3856,16.56]},{"name":"barrel-roof","mesh":12,"translation":[0,6.3428,0],"rotation":[0,0,0.707107,0.707107],"scale":[6.2928,26,6.2928]},{"name":"dock-mouth","mesh":13,"translation":[-8.58,1.9008,8.38],"scale":[4.68,3.3264,0.15]},{"name":"cart-0","mesh":14,"translation":[-7.8,0.4,10.4328],"scale":[0.9,0.55,0.55]},{"name":"cart-1","mesh":14,"translation":[-6.75,0.4,11.1328],"rotation":[0,0.099833,0,0.995004],"scale":[0.9,0.55,0.55]},{"name":"cart-2","mesh":14,"translation":[-5.7,0.4,10.4328],"rotation":[0,0.198669,0,0.980067],"scale":[0.9,0.55,0.55]},{"name":"bulk-sign-back","mesh":5,"translation":[0,5.544,8.44],"scale":[11.02,1.4,1]},{"name":"bulk-sign","mesh":6,"translation":[0,5.544,8.469],"scale":[10.92,1.3,1]},{"name":"busy-state-queue-bar","mesh":15,"translation":[0,0.65,10.4328],"scale":[18.72,0.12,0.12]},{"name":"queue-car-0","mesh":16,"translation":[-7.8,0.34,11.592],"scale":[1.35,0.65,0.7]},{"name":"queue-car-1","mesh":17,"translation":[-3.9,0.34,12.9168],"scale":[1.35,0.65,0.7]},{"name":"queue-car-2","mesh":16,"translation":[0,0.34,11.592],"scale":[1.35,0.65,0.7]},{"name":"foundation","mesh":10,"translation":[0,0.08,0],"scale":[28.2,0.16,18.76]},{"name":"bulk-base","mesh":11,"translation":[0,2.6928,0],"scale":[26,5.3856,16.56]},{"name":"barrel-roof","mesh":18,"translation":[0,6.3428,0],"rotation":[0,0,0.707107,0.707107],"scale":[6.2928,26,6.2928]},{"name":"dock-mouth","mesh":13,"translation":[-8.58,1.9008,8.38],"scale":[4.68,3.3264,0.15]},{"name":"cart-0","mesh":14,"translation":[-7.8,0.4,10.4328],"scale":[0.9,0.55,0.55]},{"name":"bulk-sign-back","mesh":5,"translation":[0,5.544,8.44],"scale":[11.02,1.4,1]},{"name":"bulk-sign","mesh":6,"translation":[0,5.544,8.469],"scale":[10.92,1.3,1]},{"name":"busy-state-queue-bar","mesh":15,"translation":[0,0.65,10.4328],"scale":[18.72,0.12,0.12]},{"name":"queue-car-0","mesh":16,"translation":[-7.8,0.34,11.592],"scale":[1.35,0.65,0.7]}],"meshes":[{"primitives":[{"attributes":{"POSITION":0,"NORMAL":1,"TEXCOORD_0":2},"material":0,"mode":4}]},{"primitives":[{"attributes":{"POSITION":3,"NORMAL":1,"TEXCOORD_0":4},"material":1,"mode":4}]},{"primitives":[{"attributes":{"POSITION":5,"NORMAL":6,"TEXCOORD_0":7},"material":2,"mode":4,"indices":8}]},{"primitives":[{"attributes":{"POSITION":0,"NORMAL":1,"TEXCOORD_0":9},"material":3,"mode":4}]},{"primitives":[{"attributes":{"POSITION":0,"NORMAL":1,"TEXCOORD_0":10},"material":1,"mode":4}]},{"primitives":[{"attributes":{"POSITION":11,"NORMAL":12,"TEXCOORD_0":13},"material":3,"mode":4,"indices":14}]},{"primitives":[{"attributes":{"POSITION":15,"NORMAL":16,"TEXCOORD_0":17},"material":4,"mode":4,"indices":18}]},{"primitives":[{"attributes":{"POSITION":0,"NORMAL":1,"TEXCOORD_0":19},"material":5,"mode":4}]},{"primitives":[{"attributes":{"POSITION":0,"NORMAL":1,"TEXCOORD_0":20},"material":6,"mode":4}]},{"primitives":[{"attributes":{"POSITION":0,"NORMAL":1,"TEXCOORD_0":20},"material":5,"mode":4}]},{"primitives":[{"attributes":{"POSITION":21,"NORMAL":12,"TEXCOORD_0":22},"material":0,"mode":4,"indices":14}]},{"primitives":[{"attributes":{"POSITION":21,"NORMAL":12,"TEXCOORD_0":23},"material":1,"mode":4,"indices":14}]},{"primitives":[{"attributes":{"POSITION":24,"NORMAL":25,"TEXCOORD_0":26},"material":2,"mode":4,"indices":27}]},{"primitives":[{"attributes":{"POSITION":21,"NORMAL":12,"TEXCOORD_0":28},"material":3,"mode":4,"indices":14}]},{"primitives":[{"attributes":{"POSITION":21,"NORMAL":12,"TEXCOORD_0":29},"material":1,"mode":4,"indices":14}]},{"primitives":[{"attributes":{"POSITION":21,"NORMAL":12,"TEXCOORD_0":30},"material":5,"mode":4,"indices":14}]},{"primitives":[{"attributes":{"POSITION":21,"NORMAL":12,"TEXCOORD_0":31},"material":6,"mode":4,"indices":14}]},{"primitives":[{"attributes":{"POSITION":21,"NORMAL":12,"TEXCOORD_0":31},"material":5,"mode":4,"indices":14}]},{"primitives":[{"attributes":{"POSITION":32,"NORMAL":33,"TEXCOORD_0":34},"material":2,"mode":4,"indices":35}]}],"materials":[{"name":"concrete","pbrMetallicRoughness":{"baseColorTexture":{"index":0},"metallicRoughnessTexture":{"index":2},"roughnessFactor":1,"metallicFactor":1},"normalTexture":{"index":1,"scale":0.82},"occlusionTexture":{"index":2,"strength":0.35}},{"name":"metal-galvanized","pbrMetallicRoughness":{"baseColorTexture":{"index":3},"metallicRoughnessTexture":{"index":5},"roughnessFactor":1,"metallicFactor":1},"normalTexture":{"index":4,"scale":0.15},"occlusionTexture":{"index":5,"strength":0.35}},{"name":"roof-metal","pbrMetallicRoughness":{"baseColorTexture":{"index":6},"metallicRoughnessTexture":{"index":8},"roughnessFactor":1,"metallicFactor":1},"normalTexture":{"index":7,"scale":0.68},"occlusionTexture":{"index":8,"strength":0.35}},{"name":"metal-dark","pbrMetallicRoughness":{"baseColorTexture":{"index":9},"metallicRoughnessTexture":{"index":11},"roughnessFactor":1,"metallicFactor":1},"normalTexture":{"index":10,"scale":0.35},"occlusionTexture":{"index":11,"strength":0.35}},{"name":"bulkhead-club signage","pbrMetallicRoughness":{"baseColorTexture":{"index":12},"roughnessFactor":1,"metallicFactor":0},"extensions":{"KHR_materials_unlit":{}}},{"name":"paint-blue","pbrMetallicRoughness":{"baseColorFactor":[0.05126945836711539,0.10946171076915331,0.22696587349938613,1],"roughnessFactor":0.58,"metallicFactor":0.05}},{"name":"paint-red","pbrMetallicRoughness":{"baseColorFactor":[0.46778379610254284,0.08021982030622662,0.05126945836711539,1],"roughnessFactor":0.62,"metallicFactor":0.05}}],"textures":[{"source":0,"sampler":0},{"source":1,"sampler":0},{"source":2,"sampler":0},{"source":3,"sampler":0},{"source":4,"sampler":0},{"source":5,"sampler":0},{"source":6,"sampler":0},{"source":7,"sampler":0},{"source":8,"sampler":0},{"source":9,"sampler":0},{"source":10,"sampler":0},{"source":11,"sampler":0},{"source":12,"sampler":0}],"images":[{"uri":"../textures/concrete-albedo.png"},{"uri":"../textures/concrete-normal.png"},{"uri":"../textures/concrete-orm.png"},{"uri":"../textures/metal-galvanized-albedo.png"},{"uri":"../textures/metal-galvanized-normal.png"},{"uri":"../textures/metal-galvanized-orm.png"},{"uri":"../textures/roof-metal-albedo.png"},{"uri":"../textures/roof-metal-normal.png"},{"uri":"../textures/roof-metal-orm.png"},{"uri":"../textures/metal-dark-albedo.png"},{"uri":"../textures/metal-dark-normal.png"},{"uri":"../textures/metal-dark-orm.png"},{"uri":"../signs/bulkhead-club.png"}],"samplers":[{"magFilter":9729,"minFilter":9987,"wrapS":10497,"wrapT":10497}],"buffers":[{"uri":"../shared/geometry.bin","byteLength":16435520}],"bufferViews":[{"buffer":0,"byteOffset":0,"byteLength":3888,"target":34962},{"buffer":0,"byteOffset":3888,"byteLength":3888,"target":34962},{"buffer":0,"byteOffset":714504,"byteLength":2592,"target":34962},{"buffer":0,"byteOffset":33392,"byteLength":3888,"target":34962},{"buffer":0,"byteOffset":1123480,"byteLength":2592,"target":34962},{"buffer":0,"byteOffset":1101304,"byteLength":1200,"target":34962},{"buffer":0,"byteOffset":1102504,"byteLength":1200,"target":34962},{"buffer":0,"byteOffset":1126072,"byteLength":800,"target":34962},{"buffer":0,"byteOffset":16160,"byteLength":384,"target":34963},{"buffer":0,"byteOffset":1126872,"byteLength":2592,"target":34962},{"buffer":0,"byteOffset":1107096,"byteLength":2592,"target":34962},{"buffer":0,"byteOffset":45664,"byteLength":288,"target":34962},{"buffer":0,"byteOffset":45952,"byteLength":288,"target":34962},{"buffer":0,"byteOffset":46240,"byteLength":192,"target":34962},{"buffer":0,"byteOffset":46432,"byteLength":72,"target":34963},{"buffer":0,"byteOffset":46504,"byteLength":48,"target":34962},{"buffer":0,"byteOffset":46552,"byteLength":48,"target":34962},{"buffer":0,"byteOffset":216676,"byteLength":32,"target":34962},{"buffer":0,"byteOffset":46632,"byteLength":12,"target":34963},{"buffer":0,"byteOffset":863160,"byteLength":2592,"target":34962},{"buffer":0,"byteOffset":582912,"byteLength":2592,"target":34962},{"buffer":0,"byteOffset":46644,"byteLength":288,"target":34962},{"buffer":0,"byteOffset":727464,"byteLength":192,"target":34962},{"buffer":0,"byteOffset":1129464,"byteLength":192,"target":34962},{"buffer":0,"byteOffset":1110072,"byteLength":624,"target":34962},{"buffer":0,"byteOffset":1110696,"byteLength":624,"target":34962},{"buffer":0,"byteOffset":1129656,"byteLength":416,"target":34962},{"buffer":0,"byteOffset":1111736,"byteLength":192,"target":34963},{"buffer":0,"byteOffset":1130072,"byteLength":192,"target":34962},{"buffer":0,"byteOffset":1112120,"byteLength":192,"target":34962},{"buffer":0,"byteOffset":865752,"byteLength":192,"target":34962},{"buffer":0,"byteOffset":585696,"byteLength":192,"target":34962},{"buffer":0,"byteOffset":1112312,"byteLength":480,"target":34962},{"buffer":0,"byteOffset":1112792,"byteLength":480,"target":34962},{"buffer":0,"byteOffset":1130264,"byteLength":320,"target":34962},{"buffer":0,"byteOffset":48596,"byteLength":144,"target":34963}],"accessors":[{"bufferView":0,"componentType":5126,"count":324,"type":"VEC3","min":[-0.5,-0.5,-0.5],"max":[0.5,0.5,0.5]},{"bufferView":1,"componentType":5126,"count":324,"type":"VEC3"},{"bufferView":2,"componentType":5126,"count":324,"type":"VEC2"},{"bufferView":3,"componentType":5126,"count":324,"type":"VEC3","min":[-0.5,-0.5,-0.5],"max":[0.5,0.5,0.5]},{"bufferView":4,"componentType":5126,"count":324,"type":"VEC2"},{"bufferView":5,"componentType":5126,"count":100,"type":"VEC3","min":[-1,-0.5,-1],"max":[1,0.5,1]},{"bufferView":6,"componentType":5126,"count":100,"type":"VEC3"},{"bufferView":7,"componentType":5126,"count":100,"type":"VEC2"},{"bufferView":8,"componentType":5123,"count":192,"type":"SCALAR"},{"bufferView":9,"componentType":5126,"count":324,"type":"VEC2"},{"bufferView":10,"componentType":5126,"count":324,"type":"VEC2"},{"bufferView":11,"componentType":5126,"count":24,"type":"VEC3","min":[-0.5,-0.5,-0.02500000037252903],"max":[0.5,0.5,0.02500000037252903]},{"bufferView":12,"componentType":5126,"count":24,"type":"VEC3"},{"bufferView":13,"componentType":5126,"count":24,"type":"VEC2"},{"bufferView":14,"componentType":5123,"count":36,"type":"SCALAR"},{"bufferView":15,"componentType":5126,"count":4,"type":"VEC3","min":[-0.5,-0.5,0],"max":[0.5,0.5,0]},{"bufferView":16,"componentType":5126,"count":4,"type":"VEC3"},{"bufferView":17,"componentType":5126,"count":4,"type":"VEC2"},{"bufferView":18,"componentType":5123,"count":6,"type":"SCALAR"},{"bufferView":19,"componentType":5126,"count":324,"type":"VEC2"},{"bufferView":20,"componentType":5126,"count":324,"type":"VEC2"},{"bufferView":21,"componentType":5126,"count":24,"type":"VEC3","min":[-0.5,-0.5,-0.5],"max":[0.5,0.5,0.5]},{"bufferView":22,"componentType":5126,"count":24,"type":"VEC2"},{"bufferView":23,"componentType":5126,"count":24,"type":"VEC2"},{"bufferView":24,"componentType":5126,"count":52,"type":"VEC3","min":[-1,-0.5,-1],"max":[1,0.5,1]},{"bufferView":25,"componentType":5126,"count":52,"type":"VEC3"},{"bufferView":26,"componentType":5126,"count":52,"type":"VEC2"},{"bufferView":27,"componentType":5123,"count":96,"type":"SCALAR"},{"bufferView":28,"componentType":5126,"count":24,"type":"VEC2"},{"bufferView":29,"componentType":5126,"count":24,"type":"VEC2"},{"bufferView":30,"componentType":5126,"count":24,"type":"VEC2"},{"bufferView":31,"componentType":5126,"count":24,"type":"VEC2"},{"bufferView":32,"componentType":5126,"count":40,"type":"VEC3","min":[-0.8660253882408142,-0.5,-1],"max":[0.8660253882408142,0.5,1]},{"bufferView":33,"componentType":5126,"count":40,"type":"VEC3"},{"bufferView":34,"componentType":5126,"count":40,"type":"VEC2"},{"bufferView":35,"componentType":5123,"count":72,"type":"SCALAR"}],"extensionsUsed":["KHR_materials_unlit"],"extras":{"id":"vlt-bulkhead-club-23","family":"bulkhead-club","variant":22,"plan":"A3-2","units":"metres","up":"+Y","front":"+Z","lodScenes":[0,1,2]}}