{"asset":{"version":"2.0","generator":"SLOPMERICA Department of Unnecessary Development 1.0"},"scene":0,"scenes":[{"name":"LOD 0","nodes":[0,1,2,3,4,5,6,7,8],"extras":{"level":0}},{"name":"LOD 1","nodes":[9,10,11,12,13,14,15,16,17],"extras":{"level":1}},{"name":"LOD 2","nodes":[18,19,20,21,22,23],"extras":{"level":2}}],"nodes":[{"name":"surveyed lot","mesh":0,"translation":[0,0.06,0],"scale":[17.28,0.12,19.2]},{"name":"capped landfill lower","mesh":1,"translation":[0,1.2,0],"scale":[6.65,2.2,6.65]},{"name":"capped landfill upper","mesh":2,"translation":[0,3.5,0],"scale":[4.788,3.55,4.788]},{"name":"scenic switchback","mesh":3,"translation":[0,0,0]},{"name":"mount trashmore sign-back","mesh":4,"translation":[0,1.55,7.65],"scale":[4.9,1.45,1]},{"name":"mount trashmore sign","mesh":5,"translation":[0,1.55,7.679],"scale":[4.8,1.35,1]},{"name":"methane vent 0","mesh":6,"translation":[0,0,0]},{"name":"methane vent 1","mesh":7,"translation":[0,0,0]},{"name":"methane vent 2","mesh":8,"translation":[0,0,0]},{"name":"surveyed lot","mesh":9,"translation":[0,0.06,0],"scale":[17.28,0.12,19.2]},{"name":"capped landfill lower","mesh":10,"translation":[0,1.2,0],"scale":[6.65,2.2,6.65]},{"name":"capped landfill upper","mesh":11,"translation":[0,3.5,0],"scale":[4.788,3.55,4.788]},{"name":"scenic switchback","mesh":12,"translation":[0,0,0]},{"name":"mount trashmore sign-back","mesh":4,"translation":[0,1.55,7.65],"scale":[4.9,1.45,1]},{"name":"mount trashmore sign","mesh":5,"translation":[0,1.55,7.679],"scale":[4.8,1.35,1]},{"name":"methane vent 0","mesh":13,"translation":[0,0,0]},{"name":"methane vent 1","mesh":14,"translation":[0,0,0]},{"name":"methane vent 2","mesh":15,"translation":[0,0,0]},{"name":"surveyed lot","mesh":9,"translation":[0,0.06,0],"scale":[17.28,0.12,19.2]},{"name":"capped landfill lower","mesh":16,"translation":[0,1.2,0],"scale":[6.65,2.2,6.65]},{"name":"capped landfill upper","mesh":17,"translation":[0,3.5,0],"scale":[4.788,3.55,4.788]},{"name":"scenic switchback","mesh":18,"translation":[0,0,0]},{"name":"mount trashmore sign-back","mesh":4,"translation":[0,1.55,7.65],"scale":[4.9,1.45,1]},{"name":"mount trashmore sign","mesh":5,"translation":[0,1.55,7.679],"scale":[4.8,1.35,1]}],"meshes":[{"primitives":[{"attributes":{"POSITION":0,"NORMAL":1,"TEXCOORD_0":2},"material":0,"mode":4}]},{"primitives":[{"attributes":{"POSITION":3,"NORMAL":4,"TEXCOORD_0":5},"material":1,"mode":4,"indices":6}]},{"primitives":[{"attributes":{"POSITION":7,"NORMAL":8,"TEXCOORD_0":9},"material":1,"mode":4,"indices":6}]},{"primitives":[{"attributes":{"POSITION":10,"NORMAL":11,"TEXCOORD_0":12},"material":2,"mode":4,"indices":13}]},{"primitives":[{"attributes":{"POSITION":14,"NORMAL":15,"TEXCOORD_0":16},"material":3,"mode":4,"indices":17}]},{"primitives":[{"attributes":{"POSITION":18,"NORMAL":19,"TEXCOORD_0":20},"material":4,"mode":4,"indices":21}]},{"primitives":[{"attributes":{"POSITION":22,"NORMAL":23,"TEXCOORD_0":24},"material":5,"mode":4,"indices":25}]},{"primitives":[{"attributes":{"POSITION":26,"NORMAL":23,"TEXCOORD_0":24},"material":5,"mode":4,"indices":25}]},{"primitives":[{"attributes":{"POSITION":27,"NORMAL":23,"TEXCOORD_0":24},"material":5,"mode":4,"indices":25}]},{"primitives":[{"attributes":{"POSITION":28,"NORMAL":15,"TEXCOORD_0":29},"material":0,"mode":4,"indices":17}]},{"primitives":[{"attributes":{"POSITION":30,"NORMAL":31,"TEXCOORD_0":32},"material":1,"mode":4,"indices":33}]},{"primitives":[{"attributes":{"POSITION":34,"NORMAL":35,"TEXCOORD_0":36},"material":1,"mode":4,"indices":33}]},{"primitives":[{"attributes":{"POSITION":37,"NORMAL":38,"TEXCOORD_0":39},"material":2,"mode":4,"indices":40}]},{"primitives":[{"attributes":{"POSITION":41,"NORMAL":42,"TEXCOORD_0":43},"material":5,"mode":4,"indices":44}]},{"primitives":[{"attributes":{"POSITION":45,"NORMAL":42,"TEXCOORD_0":43},"material":5,"mode":4,"indices":44}]},{"primitives":[{"attributes":{"POSITION":46,"NORMAL":42,"TEXCOORD_0":43},"material":5,"mode":4,"indices":44}]},{"primitives":[{"attributes":{"POSITION":47,"NORMAL":48,"TEXCOORD_0":49},"material":1,"mode":4,"indices":50}]},{"primitives":[{"attributes":{"POSITION":51,"NORMAL":52,"TEXCOORD_0":53},"material":1,"mode":4,"indices":50}]},{"primitives":[{"attributes":{"POSITION":54,"NORMAL":55,"TEXCOORD_0":56},"material":2,"mode":4,"indices":57}]}],"materials":[{"name":"concrete","pbrMetallicRoughness":{"baseColorTexture":{"index":0},"metallicRoughnessTexture":{"index":2},"roughnessFactor":1,"metallicFactor":1},"normalTexture":{"index":1,"scale":0.82},"occlusionTexture":{"index":2,"strength":0.35}},{"name":"foliage","pbrMetallicRoughness":{"baseColorTexture":{"index":3},"metallicRoughnessTexture":{"index":5},"roughnessFactor":1,"metallicFactor":1},"normalTexture":{"index":4,"scale":0.88},"occlusionTexture":{"index":5,"strength":0.35}},{"name":"soil","pbrMetallicRoughness":{"baseColorTexture":{"index":6},"metallicRoughnessTexture":{"index":8},"roughnessFactor":1,"metallicFactor":1},"normalTexture":{"index":7,"scale":0.8},"occlusionTexture":{"index":8,"strength":0.35}},{"name":"metal-dark","pbrMetallicRoughness":{"baseColorTexture":{"index":9},"metallicRoughnessTexture":{"index":11},"roughnessFactor":1,"metallicFactor":1},"normalTexture":{"index":10,"scale":0.35},"occlusionTexture":{"index":11,"strength":0.35}},{"name":"mount-trashmore signage","pbrMetallicRoughness":{"baseColorTexture":{"index":12},"roughnessFactor":1,"metallicFactor":0},"extensions":{"KHR_materials_unlit":{}}},{"name":"metal-galvanized","pbrMetallicRoughness":{"baseColorTexture":{"index":13},"metallicRoughnessTexture":{"index":15},"roughnessFactor":1,"metallicFactor":1},"normalTexture":{"index":14,"scale":0.15},"occlusionTexture":{"index":15,"strength":0.35}}],"textures":[{"source":0,"sampler":0},{"source":1,"sampler":0},{"source":2,"sampler":0},{"source":3,"sampler":0},{"source":4,"sampler":0},{"source":5,"sampler":0},{"source":6,"sampler":0},{"source":7,"sampler":0},{"source":8,"sampler":0},{"source":9,"sampler":0},{"source":10,"sampler":0},{"source":11,"sampler":0},{"source":12,"sampler":0},{"source":13,"sampler":0},{"source":14,"sampler":0},{"source":15,"sampler":0}],"images":[{"uri":"../textures/concrete-albedo.png"},{"uri":"../textures/concrete-normal.png"},{"uri":"../textures/concrete-orm.png"},{"uri":"../textures/foliage-albedo.png"},{"uri":"../textures/foliage-normal.png"},{"uri":"../textures/foliage-orm.png"},{"uri":"../textures/soil-albedo.png"},{"uri":"../textures/soil-normal.png"},{"uri":"../textures/soil-orm.png"},{"uri":"../textures/metal-dark-albedo.png"},{"uri":"../textures/metal-dark-normal.png"},{"uri":"../textures/metal-dark-orm.png"},{"uri":"../signs/mount-trashmore.png"},{"uri":"../textures/metal-galvanized-albedo.png"},{"uri":"../textures/metal-galvanized-normal.png"},{"uri":"../textures/metal-galvanized-orm.png"}],"samplers":[{"magFilter":9729,"minFilter":9987,"wrapS":10497,"wrapT":10497}],"buffers":[{"uri":"../shared/geometry.bin","byteLength":16435520}],"bufferViews":[{"buffer":0,"byteOffset":0,"byteLength":3888,"target":34962},{"buffer":0,"byteOffset":3888,"byteLength":3888,"target":34962},{"buffer":0,"byteOffset":9162040,"byteLength":2592,"target":34962},{"buffer":0,"byteOffset":8986016,"byteLength":1344,"target":34962},{"buffer":0,"byteOffset":8987360,"byteLength":1344,"target":34962},{"buffer":0,"byteOffset":9012544,"byteLength":896,"target":34962},{"buffer":0,"byteOffset":2072684,"byteLength":432,"target":34963},{"buffer":0,"byteOffset":8989600,"byteLength":1344,"target":34962},{"buffer":0,"byteOffset":8990944,"byteLength":1344,"target":34962},{"buffer":0,"byteOffset":9164632,"byteLength":896,"target":34962},{"buffer":0,"byteOffset":9165528,"byteLength":1836,"target":34962},{"buffer":0,"byteOffset":9167364,"byteLength":1836,"target":34962},{"buffer":0,"byteOffset":8996856,"byteLength":1224,"target":34962},{"buffer":0,"byteOffset":7413104,"byteLength":1536,"target":34963},{"buffer":0,"byteOffset":45664,"byteLength":288,"target":34962},{"buffer":0,"byteOffset":45952,"byteLength":288,"target":34962},{"buffer":0,"byteOffset":46240,"byteLength":192,"target":34962},{"buffer":0,"byteOffset":46432,"byteLength":72,"target":34963},{"buffer":0,"byteOffset":46504,"byteLength":48,"target":34962},{"buffer":0,"byteOffset":46552,"byteLength":48,"target":34962},{"buffer":0,"byteOffset":188452,"byteLength":32,"target":34962},{"buffer":0,"byteOffset":46632,"byteLength":12,"target":34963},{"buffer":0,"byteOffset":8998080,"byteLength":972,"target":34962},{"buffer":0,"byteOffset":2950244,"byteLength":972,"target":34962},{"buffer":0,"byteOffset":409952,"byteLength":648,"target":34962},{"buffer":0,"byteOffset":410600,"byteLength":768,"target":34963},{"buffer":0,"byteOffset":8999052,"byteLength":972,"target":34962},{"buffer":0,"byteOffset":9018008,"byteLength":972,"target":34962},{"buffer":0,"byteOffset":46644,"byteLength":288,"target":34962},{"buffer":0,"byteOffset":9169200,"byteLength":192,"target":34962},{"buffer":0,"byteOffset":9000024,"byteLength":696,"target":34962},{"buffer":0,"byteOffset":9000720,"byteLength":696,"target":34962},{"buffer":0,"byteOffset":9019172,"byteLength":464,"target":34962},{"buffer":0,"byteOffset":2089908,"byteLength":216,"target":34963},{"buffer":0,"byteOffset":9001880,"byteLength":696,"target":34962},{"buffer":0,"byteOffset":9002576,"byteLength":696,"target":34962},{"buffer":0,"byteOffset":9169392,"byteLength":464,"target":34962},{"buffer":0,"byteOffset":9169856,"byteLength":756,"target":34962},{"buffer":0,"byteOffset":9170612,"byteLength":756,"target":34962},{"buffer":0,"byteOffset":9005248,"byteLength":504,"target":34962},{"buffer":0,"byteOffset":7420016,"byteLength":576,"target":34963},{"buffer":0,"byteOffset":9005752,"byteLength":420,"target":34962},{"buffer":0,"byteOffset":2963816,"byteLength":420,"target":34962},{"buffer":0,"byteOffset":433796,"byteLength":280,"target":34962},{"buffer":0,"byteOffset":434076,"byteLength":288,"target":34963},{"buffer":0,"byteOffset":9006172,"byteLength":420,"target":34962},{"buffer":0,"byteOffset":9021612,"byteLength":420,"target":34962},{"buffer":0,"byteOffset":9006592,"byteLength":480,"target":34962},{"buffer":0,"byteOffset":9007072,"byteLength":480,"target":34962},{"buffer":0,"byteOffset":9022032,"byteLength":320,"target":34962},{"buffer":0,"byteOffset":48596,"byteLength":144,"target":34963},{"buffer":0,"byteOffset":9007872,"byteLength":480,"target":34962},{"buffer":0,"byteOffset":9008352,"byteLength":480,"target":34962},{"buffer":0,"byteOffset":9171368,"byteLength":320,"target":34962},{"buffer":0,"byteOffset":9171688,"byteLength":300,"target":34962},{"buffer":0,"byteOffset":9171988,"byteLength":300,"target":34962},{"buffer":0,"byteOffset":9009752,"byteLength":200,"target":34962},{"buffer":0,"byteOffset":440168,"byteLength":192,"target":34963}],"accessors":[{"bufferView":0,"componentType":5126,"count":324,"type":"VEC3","min":[-0.5,-0.5,-0.5],"max":[0.5,0.5,0.5]},{"bufferView":1,"componentType":5126,"count":324,"type":"VEC3"},{"bufferView":2,"componentType":5126,"count":324,"type":"VEC2"},{"bufferView":3,"componentType":5126,"count":112,"type":"VEC3","min":[-0.9848077297210693,-0.5,-1],"max":[0.9848077297210693,0.5,1]},{"bufferView":4,"componentType":5126,"count":112,"type":"VEC3"},{"bufferView":5,"componentType":5126,"count":112,"type":"VEC2"},{"bufferView":6,"componentType":5123,"count":216,"type":"SCALAR"},{"bufferView":7,"componentType":5126,"count":112,"type":"VEC3","min":[-0.9848077297210693,-0.5,-1],"max":[0.9848077297210693,0.5,1]},{"bufferView":8,"componentType":5126,"count":112,"type":"VEC3"},{"bufferView":9,"componentType":5126,"count":112,"type":"VEC2"},{"bufferView":10,"componentType":5126,"count":153,"type":"VEC3","min":[-6.819985389709473,0.024562256410717964,-1.3141649961471558],"max":[3.076484203338623,6.070366859436035,2.306885004043579]},{"bufferView":11,"componentType":5126,"count":153,"type":"VEC3"},{"bufferView":12,"componentType":5126,"count":153,"type":"VEC2"},{"bufferView":13,"componentType":5123,"count":768,"type":"SCALAR"},{"bufferView":14,"componentType":5126,"count":24,"type":"VEC3","min":[-0.5,-0.5,-0.02500000037252903],"max":[0.5,0.5,0.02500000037252903]},{"bufferView":15,"componentType":5126,"count":24,"type":"VEC3"},{"bufferView":16,"componentType":5126,"count":24,"type":"VEC2"},{"bufferView":17,"componentType":5123,"count":36,"type":"SCALAR"},{"bufferView":18,"componentType":5126,"count":4,"type":"VEC3","min":[-0.5,-0.5,0],"max":[0.5,0.5,0]},{"bufferView":19,"componentType":5126,"count":4,"type":"VEC3"},{"bufferView":20,"componentType":5126,"count":4,"type":"VEC2"},{"bufferView":21,"componentType":5123,"count":6,"type":"SCALAR"},{"bufferView":22,"componentType":5126,"count":81,"type":"VEC3","min":[-3.0999999046325684,2.200000047683716,-0.10000000149011612],"max":[-2.9000000953674316,3.5999999046325684,0.10000000149011612]},{"bufferView":23,"componentType":5126,"count":81,"type":"VEC3"},{"bufferView":24,"componentType":5126,"count":81,"type":"VEC2"},{"bufferView":25,"componentType":5123,"count":384,"type":"SCALAR"},{"bufferView":26,"componentType":5126,"count":81,"type":"VEC3","min":[-1.7999999523162842,2.450000047683716,-0.10000000149011612],"max":[-1.600000023841858,3.8499999046325684,0.10000000149011612]},{"bufferView":27,"componentType":5126,"count":81,"type":"VEC3","min":[-0.5,2.700000047683716,-0.10000000149011612],"max":[-0.30000001192092896,4.099999904632568,0.10000000149011612]},{"bufferView":28,"componentType":5126,"count":24,"type":"VEC3","min":[-0.5,-0.5,-0.5],"max":[0.5,0.5,0.5]},{"bufferView":29,"componentType":5126,"count":24,"type":"VEC2"},{"bufferView":30,"componentType":5126,"count":58,"type":"VEC3","min":[-0.9848077297210693,-0.5,-0.9396926164627075],"max":[0.9848077297210693,0.5,1]},{"bufferView":31,"componentType":5126,"count":58,"type":"VEC3"},{"bufferView":32,"componentType":5126,"count":58,"type":"VEC2"},{"bufferView":33,"componentType":5123,"count":108,"type":"SCALAR"},{"bufferView":34,"componentType":5126,"count":58,"type":"VEC3","min":[-0.9848077297210693,-0.5,-0.9396926164627075],"max":[0.9848077297210693,0.5,1]},{"bufferView":35,"componentType":5126,"count":58,"type":"VEC3"},{"bufferView":36,"componentType":5126,"count":58,"type":"VEC2"},{"bufferView":37,"componentType":5126,"count":63,"type":"VEC3","min":[-6.825979709625244,0.024562256410717964,-1.3185065984725952],"max":[3.0364978313446045,6.067168235778809,2.2200310230255127]},{"bufferView":38,"componentType":5126,"count":63,"type":"VEC3"},{"bufferView":39,"componentType":5126,"count":63,"type":"VEC2"},{"bufferView":40,"componentType":5123,"count":288,"type":"SCALAR"},{"bufferView":41,"componentType":5126,"count":35,"type":"VEC3","min":[-3.0866024494171143,2.200000047683716,-0.10000000149011612],"max":[-2.9133975505828857,3.5999999046325684,0.10000000149011612]},{"bufferView":42,"componentType":5126,"count":35,"type":"VEC3"},{"bufferView":43,"componentType":5126,"count":35,"type":"VEC2"},{"bufferView":44,"componentType":5123,"count":144,"type":"SCALAR"},{"bufferView":45,"componentType":5126,"count":35,"type":"VEC3","min":[-1.78660249710083,2.450000047683716,-0.10000000149011612],"max":[-1.613397479057312,3.8499999046325684,0.10000000149011612]},{"bufferView":46,"componentType":5126,"count":35,"type":"VEC3","min":[-0.4866025447845459,2.700000047683716,-0.10000000149011612],"max":[-0.31339746713638306,4.099999904632568,0.10000000149011612]},{"bufferView":47,"componentType":5126,"count":40,"type":"VEC3","min":[-0.8660253882408142,-0.5,-1],"max":[0.8660253882408142,0.5,1]},{"bufferView":48,"componentType":5126,"count":40,"type":"VEC3"},{"bufferView":49,"componentType":5126,"count":40,"type":"VEC2"},{"bufferView":50,"componentType":5123,"count":72,"type":"SCALAR"},{"bufferView":51,"componentType":5126,"count":40,"type":"VEC3","min":[-0.8660253882408142,-0.5,-1],"max":[0.8660253882408142,0.5,1]},{"bufferView":52,"componentType":5126,"count":40,"type":"VEC3"},{"bufferView":53,"componentType":5126,"count":40,"type":"VEC2"},{"bufferView":54,"componentType":5126,"count":25,"type":"VEC3","min":[-6.802398681640625,0.024562256410717964,-1.2761836051940918],"max":[2.9934420585632324,6.075254440307617,2.2424466609954834]},{"bufferView":55,"componentType":5126,"count":25,"type":"VEC3"},{"bufferView":56,"componentType":5126,"count":25,"type":"VEC2"},{"bufferView":57,"componentType":5123,"count":96,"type":"SCALAR"}],"extensionsUsed":["KHR_materials_unlit"],"extras":{"id":"vlt-mount-trashmore-17","family":"mount-trashmore","variant":16,"plan":"D2-1","units":"metres","up":"+Y","front":"+Z","lodScenes":[0,1,2]}}