{"asset":{"version":"2.0","generator":"SLOPMERICA Department of Unnecessary Development 1.0"},"scene":0,"scenes":[{"name":"LOD 0","nodes":[0,1,2,3,4,5,6,7,8,9,10,11,12,13,14,15,16,17,18,19,20,21,22,23,24,25,26,27,28,29,30,31,32,33,34,35,36],"extras":{"level":0}},{"name":"LOD 1","nodes":[37,38,39,40,41,42,43,44,45,46,47,48,49,50,51,52,53,54,55,56,57,58,59,60,61,62,63,64,65,66,67,68,69,70,71,72,73],"extras":{"level":1}},{"name":"LOD 2","nodes":[74,75,76,77,78,79,80,81,82,83,84,85,86,87,88],"extras":{"level":2}}],"nodes":[{"name":"site-pad","mesh":0,"translation":[0,0.06,0],"scale":[13.4784,0.12,11.9808]},{"name":"variant-apron","mesh":1,"translation":[2.5272,0.13,5.98],"scale":[3.1752,0.08,1.34]},{"name":"bollard-0","mesh":2,"translation":[-4.9248,0.43,6.1],"scale":[0.08,0.74,0.08]},{"name":"bollard-1","mesh":2,"translation":[4.9248,0.43,6.1],"scale":[0.08,0.74,0.08]},{"name":"layout-cabinet","mesh":3,"translation":[6.68,0.525,2.592],"scale":[0.81,0.81,0.32]},{"name":"deferred-maintenance-skip","mesh":4,"translation":[-4.4064,0.5,-5.0688],"scale":[1.27,0.75,0.65]},{"name":"skip-rubble","mesh":5,"translation":[-4.4064,0.98,-5.0688],"rotation":[0,0.29552,0,0.955336],"scale":[0.72,0.2,0.5]},{"name":"transformer-0-0","mesh":6,"translation":[-4.4064,1.1,-2.5344],"scale":[1.15,1.96,0.9]},{"name":"insulator-0-0","mesh":7,"translation":[-4.4064,2.61,-2.5344],"scale":[0.12,1.1,0.12]},{"name":"transformer-0-1","mesh":6,"translation":[-1.4688,1.1,-2.5344],"scale":[1.15,1.96,0.9]},{"name":"insulator-0-1","mesh":7,"translation":[-1.4688,2.61,-2.5344],"scale":[0.12,1.1,0.12]},{"name":"transformer-0-2","mesh":6,"translation":[1.4688,1.1,-2.5344],"scale":[1.15,1.96,0.9]},{"name":"insulator-0-2","mesh":7,"translation":[1.4688,2.61,-2.5344],"scale":[0.12,1.1,0.12]},{"name":"transformer-0-3","mesh":6,"translation":[4.4064,1.1,-2.5344],"scale":[1.15,1.96,0.9]},{"name":"insulator-0-3","mesh":7,"translation":[4.4064,2.61,-2.5344],"scale":[0.12,1.1,0.12]},{"name":"transformer-1-0","mesh":6,"translation":[-4.4064,1.1,2.5344],"scale":[1.15,1.96,0.9]},{"name":"insulator-1-0","mesh":7,"translation":[-4.4064,2.61,2.5344],"scale":[0.12,1.1,0.12]},{"name":"transformer-1-1","mesh":6,"translation":[-1.4688,1.1,2.5344],"scale":[1.15,1.96,0.9]},{"name":"insulator-1-1","mesh":7,"translation":[-1.4688,2.61,2.5344],"scale":[0.12,1.1,0.12]},{"name":"transformer-1-2","mesh":6,"translation":[1.4688,1.1,2.5344],"scale":[1.15,1.96,0.9]},{"name":"insulator-1-2","mesh":7,"translation":[1.4688,2.61,2.5344],"scale":[0.12,1.1,0.12]},{"name":"transformer-1-3","mesh":6,"translation":[4.4064,1.1,2.5344],"scale":[1.15,1.96,0.9]},{"name":"insulator-1-3","mesh":7,"translation":[4.4064,2.61,2.5344],"scale":[0.12,1.1,0.12]},{"name":"transformer-2-0","mesh":6,"translation":[-4.4064,1.1,7.6032],"scale":[1.15,1.96,0.9]},{"name":"insulator-2-0","mesh":7,"translation":[-4.4064,2.61,7.6032],"scale":[0.12,1.1,0.12]},{"name":"transformer-2-1","mesh":6,"translation":[-1.4688,1.1,7.6032],"scale":[1.15,1.96,0.9]},{"name":"insulator-2-1","mesh":7,"translation":[-1.4688,2.61,7.6032],"scale":[0.12,1.1,0.12]},{"name":"transformer-2-2","mesh":6,"translation":[1.4688,1.1,7.6032],"scale":[1.15,1.96,0.9]},{"name":"insulator-2-2","mesh":7,"translation":[1.4688,2.61,7.6032],"scale":[0.12,1.1,0.12]},{"name":"transformer-2-3","mesh":6,"translation":[4.4064,1.1,7.6032],"scale":[1.15,1.96,0.9]},{"name":"insulator-2-3","mesh":7,"translation":[4.4064,2.61,7.6032],"scale":[0.12,1.1,0.12]},{"name":"bus-pole--5.7024","mesh":8,"translation":[-5.7024,2.445,0],"scale":[0.2,4.65,0.2]},{"name":"busbar--5.7024","mesh":9,"translation":[0,4.4,-2.6496],"scale":[11.016,0.12,0.12]},{"name":"bus-pole-5.7024","mesh":8,"translation":[5.7024,2.445,0],"scale":[0.2,4.65,0.2]},{"name":"busbar-5.7024","mesh":9,"translation":[0,4.4,2.6496],"scale":[11.016,0.12,0.12]},{"name":"grid-sign-back","mesh":10,"translation":[0,2,5.96],"scale":[3.1,0.9,1]},{"name":"grid-sign","mesh":11,"translation":[0,2,5.989],"scale":[3,0.8,1]},{"name":"site-pad","mesh":12,"translation":[0,0.06,0],"scale":[13.4784,0.12,11.9808]},{"name":"variant-apron","mesh":13,"translation":[2.5272,0.13,5.98],"scale":[3.1752,0.08,1.34]},{"name":"bollard-0","mesh":14,"translation":[-4.9248,0.43,6.1],"scale":[0.08,0.74,0.08]},{"name":"bollard-1","mesh":14,"translation":[4.9248,0.43,6.1],"scale":[0.08,0.74,0.08]},{"name":"layout-cabinet","mesh":15,"translation":[6.68,0.525,2.592],"scale":[0.81,0.81,0.32]},{"name":"deferred-maintenance-skip","mesh":16,"translation":[-4.4064,0.5,-5.0688],"scale":[1.27,0.75,0.65]},{"name":"skip-rubble","mesh":17,"translation":[-4.4064,0.98,-5.0688],"rotation":[0,0.29552,0,0.955336],"scale":[0.72,0.2,0.5]},{"name":"transformer-0-0","mesh":18,"translation":[-4.4064,1.1,-2.5344],"scale":[1.15,1.96,0.9]},{"name":"insulator-0-0","mesh":19,"translation":[-4.4064,2.61,-2.5344],"scale":[0.12,1.1,0.12]},{"name":"transformer-0-1","mesh":18,"translation":[-1.4688,1.1,-2.5344],"scale":[1.15,1.96,0.9]},{"name":"insulator-0-1","mesh":19,"translation":[-1.4688,2.61,-2.5344],"scale":[0.12,1.1,0.12]},{"name":"transformer-0-2","mesh":18,"translation":[1.4688,1.1,-2.5344],"scale":[1.15,1.96,0.9]},{"name":"insulator-0-2","mesh":19,"translation":[1.4688,2.61,-2.5344],"scale":[0.12,1.1,0.12]},{"name":"transformer-0-3","mesh":18,"translation":[4.4064,1.1,-2.5344],"scale":[1.15,1.96,0.9]},{"name":"insulator-0-3","mesh":19,"translation":[4.4064,2.61,-2.5344],"scale":[0.12,1.1,0.12]},{"name":"transformer-1-0","mesh":18,"translation":[-4.4064,1.1,2.5344],"scale":[1.15,1.96,0.9]},{"name":"insulator-1-0","mesh":19,"translation":[-4.4064,2.61,2.5344],"scale":[0.12,1.1,0.12]},{"name":"transformer-1-1","mesh":18,"translation":[-1.4688,1.1,2.5344],"scale":[1.15,1.96,0.9]},{"name":"insulator-1-1","mesh":19,"translation":[-1.4688,2.61,2.5344],"scale":[0.12,1.1,0.12]},{"name":"transformer-1-2","mesh":18,"translation":[1.4688,1.1,2.5344],"scale":[1.15,1.96,0.9]},{"name":"insulator-1-2","mesh":19,"translation":[1.4688,2.61,2.5344],"scale":[0.12,1.1,0.12]},{"name":"transformer-1-3","mesh":18,"translation":[4.4064,1.1,2.5344],"scale":[1.15,1.96,0.9]},{"name":"insulator-1-3","mesh":19,"translation":[4.4064,2.61,2.5344],"scale":[0.12,1.1,0.12]},{"name":"transformer-2-0","mesh":18,"translation":[-4.4064,1.1,7.6032],"scale":[1.15,1.96,0.9]},{"name":"insulator-2-0","mesh":19,"translation":[-4.4064,2.61,7.6032],"scale":[0.12,1.1,0.12]},{"name":"transformer-2-1","mesh":18,"translation":[-1.4688,1.1,7.6032],"scale":[1.15,1.96,0.9]},{"name":"insulator-2-1","mesh":19,"translation":[-1.4688,2.61,7.6032],"scale":[0.12,1.1,0.12]},{"name":"transformer-2-2","mesh":18,"translation":[1.4688,1.1,7.6032],"scale":[1.15,1.96,0.9]},{"name":"insulator-2-2","mesh":19,"translation":[1.4688,2.61,7.6032],"scale":[0.12,1.1,0.12]},{"name":"transformer-2-3","mesh":18,"translation":[4.4064,1.1,7.6032],"scale":[1.15,1.96,0.9]},{"name":"insulator-2-3","mesh":19,"translation":[4.4064,2.61,7.6032],"scale":[0.12,1.1,0.12]},{"name":"bus-pole--5.7024","mesh":20,"translation":[-5.7024,2.445,0],"scale":[0.2,4.65,0.2]},{"name":"busbar--5.7024","mesh":21,"translation":[0,4.4,-2.6496],"scale":[11.016,0.12,0.12]},{"name":"bus-pole-5.7024","mesh":20,"translation":[5.7024,2.445,0],"scale":[0.2,4.65,0.2]},{"name":"busbar-5.7024","mesh":21,"translation":[0,4.4,2.6496],"scale":[11.016,0.12,0.12]},{"name":"grid-sign-back","mesh":10,"translation":[0,2,5.96],"scale":[3.1,0.9,1]},{"name":"grid-sign","mesh":11,"translation":[0,2,5.989],"scale":[3,0.8,1]},{"name":"site-pad","mesh":12,"translation":[0,0.06,0],"scale":[13.4784,0.12,11.9808]},{"name":"variant-apron","mesh":13,"translation":[2.5272,0.13,5.98],"scale":[3.1752,0.08,1.34]},{"name":"bollard-0","mesh":14,"translation":[-4.9248,0.43,6.1],"scale":[0.08,0.74,0.08]},{"name":"layout-cabinet","mesh":15,"translation":[6.68,0.525,2.592],"scale":[0.81,0.81,0.32]},{"name":"deferred-maintenance-skip","mesh":16,"translation":[-4.4064,0.5,-5.0688],"scale":[1.27,0.75,0.65]},{"name":"transformer-0-0","mesh":18,"translation":[-4.4064,1.1,-2.5344],"scale":[1.15,1.96,0.9]},{"name":"insulator-0-0","mesh":19,"translation":[-4.4064,2.61,-2.5344],"scale":[0.12,1.1,0.12]},{"name":"transformer-0-1","mesh":18,"translation":[4.4064,1.1,-2.5344],"scale":[1.15,1.96,0.9]},{"name":"insulator-0-1","mesh":19,"translation":[4.4064,2.61,-2.5344],"scale":[0.12,1.1,0.12]},{"name":"bus-pole--5.7024","mesh":20,"translation":[-5.7024,2.445,0],"scale":[0.2,4.65,0.2]},{"name":"busbar--5.7024","mesh":21,"translation":[0,4.4,-2.6496],"scale":[11.016,0.12,0.12]},{"name":"bus-pole-5.7024","mesh":20,"translation":[5.7024,2.445,0],"scale":[0.2,4.65,0.2]},{"name":"busbar-5.7024","mesh":21,"translation":[0,4.4,2.6496],"scale":[11.016,0.12,0.12]},{"name":"grid-sign-back","mesh":10,"translation":[0,2,5.96],"scale":[3.1,0.9,1]},{"name":"grid-sign","mesh":11,"translation":[0,2,5.989],"scale":[3,0.8,1]}],"meshes":[{"primitives":[{"attributes":{"POSITION":0,"NORMAL":1,"TEXCOORD_0":2},"material":0,"mode":4}]},{"primitives":[{"attributes":{"POSITION":0,"NORMAL":1,"TEXCOORD_0":3},"material":0,"mode":4}]},{"primitives":[{"attributes":{"POSITION":4,"NORMAL":5,"TEXCOORD_0":6},"material":1,"mode":4,"indices":7}]},{"primitives":[{"attributes":{"POSITION":0,"NORMAL":1,"TEXCOORD_0":8},"material":2,"mode":4}]},{"primitives":[{"attributes":{"POSITION":0,"NORMAL":1,"TEXCOORD_0":9},"material":1,"mode":4}]},{"primitives":[{"attributes":{"POSITION":0,"NORMAL":1,"TEXCOORD_0":10},"material":3,"mode":4}]},{"primitives":[{"attributes":{"POSITION":11,"NORMAL":1,"TEXCOORD_0":12},"material":2,"mode":4}]},{"primitives":[{"attributes":{"POSITION":13,"NORMAL":14,"TEXCOORD_0":15},"material":4,"mode":4,"indices":7}]},{"primitives":[{"attributes":{"POSITION":0,"NORMAL":1,"TEXCOORD_0":16},"material":5,"mode":4}]},{"primitives":[{"attributes":{"POSITION":0,"NORMAL":1,"TEXCOORD_0":17},"material":4,"mode":4}]},{"primitives":[{"attributes":{"POSITION":18,"NORMAL":19,"TEXCOORD_0":20},"material":5,"mode":4,"indices":21}]},{"primitives":[{"attributes":{"POSITION":22,"NORMAL":23,"TEXCOORD_0":24},"material":6,"mode":4,"indices":25}]},{"primitives":[{"attributes":{"POSITION":26,"NORMAL":19,"TEXCOORD_0":27},"material":0,"mode":4,"indices":21}]},{"primitives":[{"attributes":{"POSITION":26,"NORMAL":19,"TEXCOORD_0":28},"material":0,"mode":4,"indices":21}]},{"primitives":[{"attributes":{"POSITION":29,"NORMAL":30,"TEXCOORD_0":31},"material":1,"mode":4,"indices":32}]},{"primitives":[{"attributes":{"POSITION":26,"NORMAL":19,"TEXCOORD_0":33},"material":2,"mode":4,"indices":21}]},{"primitives":[{"attributes":{"POSITION":26,"NORMAL":19,"TEXCOORD_0":34},"material":1,"mode":4,"indices":21}]},{"primitives":[{"attributes":{"POSITION":26,"NORMAL":19,"TEXCOORD_0":35},"material":3,"mode":4,"indices":21}]},{"primitives":[{"attributes":{"POSITION":26,"NORMAL":19,"TEXCOORD_0":36},"material":2,"mode":4,"indices":21}]},{"primitives":[{"attributes":{"POSITION":37,"NORMAL":38,"TEXCOORD_0":39},"material":4,"mode":4,"indices":32}]},{"primitives":[{"attributes":{"POSITION":26,"NORMAL":19,"TEXCOORD_0":40},"material":5,"mode":4,"indices":21}]},{"primitives":[{"attributes":{"POSITION":26,"NORMAL":19,"TEXCOORD_0":41},"material":4,"mode":4,"indices":21}]}],"materials":[{"name":"asphalt","pbrMetallicRoughness":{"baseColorTexture":{"index":0},"metallicRoughnessTexture":{"index":2},"roughnessFactor":1,"metallicFactor":1},"normalTexture":{"index":1,"scale":0.62},"occlusionTexture":{"index":2,"strength":0.35}},{"name":"paint-orange","pbrMetallicRoughness":{"baseColorFactor":[0.6444796819634361,0.1878207722902346,0.040915196900556984,1],"roughnessFactor":0.68,"metallicFactor":0.03}},{"name":"metal-galvanized","pbrMetallicRoughness":{"baseColorTexture":{"index":3},"metallicRoughnessTexture":{"index":5},"roughnessFactor":1,"metallicFactor":1},"normalTexture":{"index":4,"scale":0.15},"occlusionTexture":{"index":5,"strength":0.35}},{"name":"concrete","pbrMetallicRoughness":{"baseColorTexture":{"index":6},"metallicRoughnessTexture":{"index":8},"roughnessFactor":1,"metallicFactor":1},"normalTexture":{"index":7,"scale":0.82},"occlusionTexture":{"index":8,"strength":0.35}},{"name":"metal-copper","pbrMetallicRoughness":{"baseColorTexture":{"index":9},"metallicRoughnessTexture":{"index":11},"roughnessFactor":1,"metallicFactor":1},"normalTexture":{"index":10,"scale":0.7},"occlusionTexture":{"index":11,"strength":0.35}},{"name":"metal-dark","pbrMetallicRoughness":{"baseColorTexture":{"index":12},"metallicRoughnessTexture":{"index":14},"roughnessFactor":1,"metallicFactor":1},"normalTexture":{"index":13,"scale":0.35},"occlusionTexture":{"index":14,"strength":0.35}},{"name":"grid-substation signage","pbrMetallicRoughness":{"baseColorTexture":{"index":15},"roughnessFactor":1,"metallicFactor":0},"extensions":{"KHR_materials_unlit":{}}}],"textures":[{"source":0,"sampler":0},{"source":1,"sampler":0},{"source":2,"sampler":0},{"source":3,"sampler":0},{"source":4,"sampler":0},{"source":5,"sampler":0},{"source":6,"sampler":0},{"source":7,"sampler":0},{"source":8,"sampler":0},{"source":9,"sampler":0},{"source":10,"sampler":0},{"source":11,"sampler":0},{"source":12,"sampler":0},{"source":13,"sampler":0},{"source":14,"sampler":0},{"source":15,"sampler":0}],"images":[{"uri":"../textures/asphalt-albedo.png"},{"uri":"../textures/asphalt-normal.png"},{"uri":"../textures/asphalt-orm.png"},{"uri":"../textures/metal-galvanized-albedo.png"},{"uri":"../textures/metal-galvanized-normal.png"},{"uri":"../textures/metal-galvanized-orm.png"},{"uri":"../textures/concrete-albedo.png"},{"uri":"../textures/concrete-normal.png"},{"uri":"../textures/concrete-orm.png"},{"uri":"../textures/metal-copper-albedo.png"},{"uri":"../textures/metal-copper-normal.png"},{"uri":"../textures/metal-copper-orm.png"},{"uri":"../textures/metal-dark-albedo.png"},{"uri":"../textures/metal-dark-normal.png"},{"uri":"../textures/metal-dark-orm.png"},{"uri":"../signs/grid-substation.png"}],"samplers":[{"magFilter":9729,"minFilter":9987,"wrapS":10497,"wrapT":10497}],"buffers":[{"uri":"../shared/geometry.bin","byteLength":16435520}],"bufferViews":[{"buffer":0,"byteOffset":0,"byteLength":3888,"target":34962},{"buffer":0,"byteOffset":3888,"byteLength":3888,"target":34962},{"buffer":0,"byteOffset":6637472,"byteLength":2592,"target":34962},{"buffer":0,"byteOffset":6640064,"byteLength":2592,"target":34962},{"buffer":0,"byteOffset":12960,"byteLength":1200,"target":34962},{"buffer":0,"byteOffset":14160,"byteLength":1200,"target":34962},{"buffer":0,"byteOffset":179140,"byteLength":800,"target":34962},{"buffer":0,"byteOffset":16160,"byteLength":384,"target":34963},{"buffer":0,"byteOffset":185860,"byteLength":2592,"target":34962},{"buffer":0,"byteOffset":211268,"byteLength":2592,"target":34962},{"buffer":0,"byteOffset":208260,"byteLength":2592,"target":34962},{"buffer":0,"byteOffset":4709080,"byteLength":3888,"target":34962},{"buffer":0,"byteOffset":6634496,"byteLength":2592,"target":34962},{"buffer":0,"byteOffset":1101304,"byteLength":1200,"target":34962},{"buffer":0,"byteOffset":1102504,"byteLength":1200,"target":34962},{"buffer":0,"byteOffset":6532960,"byteLength":800,"target":34962},{"buffer":0,"byteOffset":6545216,"byteLength":2592,"target":34962},{"buffer":0,"byteOffset":6547808,"byteLength":2592,"target":34962},{"buffer":0,"byteOffset":45664,"byteLength":288,"target":34962},{"buffer":0,"byteOffset":45952,"byteLength":288,"target":34962},{"buffer":0,"byteOffset":46240,"byteLength":192,"target":34962},{"buffer":0,"byteOffset":46432,"byteLength":72,"target":34963},{"buffer":0,"byteOffset":46504,"byteLength":48,"target":34962},{"buffer":0,"byteOffset":46552,"byteLength":48,"target":34962},{"buffer":0,"byteOffset":222884,"byteLength":32,"target":34962},{"buffer":0,"byteOffset":46632,"byteLength":12,"target":34963},{"buffer":0,"byteOffset":46644,"byteLength":288,"target":34962},{"buffer":0,"byteOffset":6642656,"byteLength":192,"target":34962},{"buffer":0,"byteOffset":6642848,"byteLength":192,"target":34962},{"buffer":0,"byteOffset":47316,"byteLength":480,"target":34962},{"buffer":0,"byteOffset":47796,"byteLength":480,"target":34962},{"buffer":0,"byteOffset":182756,"byteLength":320,"target":34962},{"buffer":0,"byteOffset":48596,"byteLength":144,"target":34963},{"buffer":0,"byteOffset":188676,"byteLength":192,"target":34962},{"buffer":0,"byteOffset":213892,"byteLength":192,"target":34962},{"buffer":0,"byteOffset":211076,"byteLength":192,"target":34962},{"buffer":0,"byteOffset":6637280,"byteLength":192,"target":34962},{"buffer":0,"byteOffset":1112312,"byteLength":480,"target":34962},{"buffer":0,"byteOffset":1112792,"byteLength":480,"target":34962},{"buffer":0,"byteOffset":6539328,"byteLength":320,"target":34962},{"buffer":0,"byteOffset":6550784,"byteLength":192,"target":34962},{"buffer":0,"byteOffset":6550976,"byteLength":192,"target":34962}],"accessors":[{"bufferView":0,"componentType":5126,"count":324,"type":"VEC3","min":[-0.5,-0.5,-0.5],"max":[0.5,0.5,0.5]},{"bufferView":1,"componentType":5126,"count":324,"type":"VEC3"},{"bufferView":2,"componentType":5126,"count":324,"type":"VEC2"},{"bufferView":3,"componentType":5126,"count":324,"type":"VEC2"},{"bufferView":4,"componentType":5126,"count":100,"type":"VEC3","min":[-1,-0.5,-1],"max":[1,0.5,1]},{"bufferView":5,"componentType":5126,"count":100,"type":"VEC3"},{"bufferView":6,"componentType":5126,"count":100,"type":"VEC2"},{"bufferView":7,"componentType":5123,"count":192,"type":"SCALAR"},{"bufferView":8,"componentType":5126,"count":324,"type":"VEC2"},{"bufferView":9,"componentType":5126,"count":324,"type":"VEC2"},{"bufferView":10,"componentType":5126,"count":324,"type":"VEC2"},{"bufferView":11,"componentType":5126,"count":324,"type":"VEC3","min":[-0.5,-0.5,-0.5],"max":[0.5,0.5,0.5]},{"bufferView":12,"componentType":5126,"count":324,"type":"VEC2"},{"bufferView":13,"componentType":5126,"count":100,"type":"VEC3","min":[-1,-0.5,-1],"max":[1,0.5,1]},{"bufferView":14,"componentType":5126,"count":100,"type":"VEC3"},{"bufferView":15,"componentType":5126,"count":100,"type":"VEC2"},{"bufferView":16,"componentType":5126,"count":324,"type":"VEC2"},{"bufferView":17,"componentType":5126,"count":324,"type":"VEC2"},{"bufferView":18,"componentType":5126,"count":24,"type":"VEC3","min":[-0.5,-0.5,-0.02500000037252903],"max":[0.5,0.5,0.02500000037252903]},{"bufferView":19,"componentType":5126,"count":24,"type":"VEC3"},{"bufferView":20,"componentType":5126,"count":24,"type":"VEC2"},{"bufferView":21,"componentType":5123,"count":36,"type":"SCALAR"},{"bufferView":22,"componentType":5126,"count":4,"type":"VEC3","min":[-0.5,-0.5,0],"max":[0.5,0.5,0]},{"bufferView":23,"componentType":5126,"count":4,"type":"VEC3"},{"bufferView":24,"componentType":5126,"count":4,"type":"VEC2"},{"bufferView":25,"componentType":5123,"count":6,"type":"SCALAR"},{"bufferView":26,"componentType":5126,"count":24,"type":"VEC3","min":[-0.5,-0.5,-0.5],"max":[0.5,0.5,0.5]},{"bufferView":27,"componentType":5126,"count":24,"type":"VEC2"},{"bufferView":28,"componentType":5126,"count":24,"type":"VEC2"},{"bufferView":29,"componentType":5126,"count":40,"type":"VEC3","min":[-0.8660253882408142,-0.5,-1],"max":[0.8660253882408142,0.5,1]},{"bufferView":30,"componentType":5126,"count":40,"type":"VEC3"},{"bufferView":31,"componentType":5126,"count":40,"type":"VEC2"},{"bufferView":32,"componentType":5123,"count":72,"type":"SCALAR"},{"bufferView":33,"componentType":5126,"count":24,"type":"VEC2"},{"bufferView":34,"componentType":5126,"count":24,"type":"VEC2"},{"bufferView":35,"componentType":5126,"count":24,"type":"VEC2"},{"bufferView":36,"componentType":5126,"count":24,"type":"VEC2"},{"bufferView":37,"componentType":5126,"count":40,"type":"VEC3","min":[-0.8660253882408142,-0.5,-1],"max":[0.8660253882408142,0.5,1]},{"bufferView":38,"componentType":5126,"count":40,"type":"VEC3"},{"bufferView":39,"componentType":5126,"count":40,"type":"VEC2"},{"bufferView":40,"componentType":5126,"count":24,"type":"VEC2"},{"bufferView":41,"componentType":5126,"count":24,"type":"VEC2"}],"extensionsUsed":["KHR_materials_unlit"],"extras":{"id":"vlt-grid-substation-37","family":"grid-substation","variant":36,"plan":"D2-2","units":"metres","up":"+Y","front":"+Z","lodScenes":[0,1,2]}}