{"asset":{"version":"2.0","generator":"SLOPMERICA Department of Unnecessary Development 1.0"},"scene":0,"scenes":[{"name":"LOD 0","nodes":[0,1,2,3,4,5,6,7,8,9,10,11,12,13,14,15,16,17,18,19,20,21,22,23,24,25,26,27,28,29,30,31,32,33,34,35,36,37,38,39,40,41,42,43,44,45,46,47,48,49,50,51,52,53,54,55,56,57,58,59,60,61,62,63,64,65,66,67,68,69,70,71,72,73,74],"extras":{"level":0}},{"name":"LOD 1","nodes":[75,76,77,78,79,80,81,82,83,84,85,86,87,88,89,90,91,92,93,94,95,96,97,98,99,100,101,102,103,104,105,106,107,108,109,110,111,112,113,114,115,116,117,118,119,120,121,122,123,124,125,126,127,128,129,130,131,132,133,134,135,136,137,138,139,140,141,142,143,144,145,146,147,148,149],"extras":{"level":1}},{"name":"LOD 2","nodes":[150,151,152,153,154,155,156,157,158,159,160,161,162,163,164,165,166,167,168],"extras":{"level":2}}],"nodes":[{"name":"site-pad","mesh":0,"translation":[0,0.06,0],"scale":[21.632,0.12,12.48]},{"name":"variant-apron","mesh":1,"translation":[1.352,0.13,6.22],"scale":[6.656,0.08,1.16]},{"name":"bollard-0","mesh":2,"translation":[-7.904,0.43,6.34],"scale":[0.08,0.7,0.08]},{"name":"bollard-1","mesh":2,"translation":[-3.952,0.43,6.34],"scale":[0.08,0.7,0.08]},{"name":"bollard-2","mesh":2,"translation":[0,0.43,6.34],"scale":[0.08,0.7,0.08]},{"name":"bollard-3","mesh":2,"translation":[3.952,0.43,6.34],"scale":[0.08,0.7,0.08]},{"name":"bollard-4","mesh":2,"translation":[7.904,0.43,6.34],"scale":[0.08,0.7,0.08]},{"name":"layout-cabinet","mesh":3,"translation":[-10.6,0.615,0.9],"scale":[0.69,0.99,0.32]},{"name":"panel-0-0","mesh":4,"translation":[-9.1,1.12,-4.5],"rotation":[0.169047,-0.039413,-0.006765,0.984796],"scale":[2.2,0.12,1.6]},{"name":"panel-post-0-0","mesh":5,"translation":[-9.1,0.62,-4.5],"scale":[0.12,1,0.12]},{"name":"panel-0-1","mesh":4,"translation":[-6.5,1.12,-4.5],"rotation":[0.169047,-0.039413,-0.006765,0.984796],"scale":[2.2,0.12,1.6]},{"name":"panel-post-0-1","mesh":5,"translation":[-6.5,0.62,-4.5],"scale":[0.12,1,0.12]},{"name":"panel-0-2","mesh":4,"translation":[-3.9,1.12,-4.5],"rotation":[0.169047,-0.039413,-0.006765,0.984796],"scale":[2.2,0.12,1.6]},{"name":"panel-post-0-2","mesh":5,"translation":[-3.9,0.62,-4.5],"scale":[0.12,1,0.12]},{"name":"panel-0-3","mesh":4,"translation":[-1.3,1.12,-4.5],"rotation":[0.169047,-0.039413,-0.006765,0.984796],"scale":[2.2,0.12,1.6]},{"name":"panel-post-0-3","mesh":5,"translation":[-1.3,0.62,-4.5],"scale":[0.12,1,0.12]},{"name":"panel-0-4","mesh":4,"translation":[1.3,1.12,-4.5],"rotation":[0.169047,-0.039413,-0.006765,0.984796],"scale":[2.2,0.12,1.6]},{"name":"panel-post-0-4","mesh":5,"translation":[1.3,0.62,-4.5],"scale":[0.12,1,0.12]},{"name":"panel-0-5","mesh":4,"translation":[3.9,1.12,-4.5],"rotation":[0.169047,-0.039413,-0.006765,0.984796],"scale":[2.2,0.12,1.6]},{"name":"panel-post-0-5","mesh":5,"translation":[3.9,0.62,-4.5],"scale":[0.12,1,0.12]},{"name":"panel-0-6","mesh":4,"translation":[6.5,1.12,-4.5],"rotation":[0.169047,-0.039413,-0.006765,0.984796],"scale":[2.2,0.12,1.6]},{"name":"panel-post-0-6","mesh":5,"translation":[6.5,0.62,-4.5],"scale":[0.12,1,0.12]},{"name":"panel-0-7","mesh":4,"translation":[9.1,1.12,-4.5],"rotation":[0.169047,-0.039413,-0.006765,0.984796],"scale":[2.2,0.12,1.6]},{"name":"panel-post-0-7","mesh":5,"translation":[9.1,0.62,-4.5],"scale":[0.12,1,0.12]},{"name":"panel-1-0","mesh":4,"translation":[-9.1,1.2,-1.5],"rotation":[0.169047,-0.039413,-0.006765,0.984796],"scale":[2.2,0.12,1.6]},{"name":"panel-post-1-0","mesh":5,"translation":[-9.1,0.62,-1.5],"scale":[0.12,1,0.12]},{"name":"panel-1-1","mesh":4,"translation":[-6.5,1.2,-1.5],"rotation":[0.169047,-0.039413,-0.006765,0.984796],"scale":[2.2,0.12,1.6]},{"name":"panel-post-1-1","mesh":5,"translation":[-6.5,0.62,-1.5],"scale":[0.12,1,0.12]},{"name":"panel-1-2","mesh":4,"translation":[-3.9,1.2,-1.5],"rotation":[0.169047,-0.039413,-0.006765,0.984796],"scale":[2.2,0.12,1.6]},{"name":"panel-post-1-2","mesh":5,"translation":[-3.9,0.62,-1.5],"scale":[0.12,1,0.12]},{"name":"panel-1-3","mesh":4,"translation":[-1.3,1.2,-1.5],"rotation":[0.169047,-0.039413,-0.006765,0.984796],"scale":[2.2,0.12,1.6]},{"name":"panel-post-1-3","mesh":5,"translation":[-1.3,0.62,-1.5],"scale":[0.12,1,0.12]},{"name":"panel-1-4","mesh":4,"translation":[1.3,1.2,-1.5],"rotation":[0.169047,-0.039413,-0.006765,0.984796],"scale":[2.2,0.12,1.6]},{"name":"panel-post-1-4","mesh":5,"translation":[1.3,0.62,-1.5],"scale":[0.12,1,0.12]},{"name":"panel-1-5","mesh":4,"translation":[3.9,1.2,-1.5],"rotation":[0.169047,-0.039413,-0.006765,0.984796],"scale":[2.2,0.12,1.6]},{"name":"panel-post-1-5","mesh":5,"translation":[3.9,0.62,-1.5],"scale":[0.12,1,0.12]},{"name":"panel-1-6","mesh":4,"translation":[6.5,1.2,-1.5],"rotation":[0.169047,-0.039413,-0.006765,0.984796],"scale":[2.2,0.12,1.6]},{"name":"panel-post-1-6","mesh":5,"translation":[6.5,0.62,-1.5],"scale":[0.12,1,0.12]},{"name":"panel-1-7","mesh":4,"translation":[9.1,1.2,-1.5],"rotation":[0.169047,-0.039413,-0.006765,0.984796],"scale":[2.2,0.12,1.6]},{"name":"panel-post-1-7","mesh":5,"translation":[9.1,0.62,-1.5],"scale":[0.12,1,0.12]},{"name":"panel-2-0","mesh":4,"translation":[-9.1,1.28,1.5],"rotation":[0.169047,-0.039413,-0.006765,0.984796],"scale":[2.2,0.12,1.6]},{"name":"panel-post-2-0","mesh":5,"translation":[-9.1,0.62,1.5],"scale":[0.12,1,0.12]},{"name":"panel-2-1","mesh":4,"translation":[-6.5,1.28,1.5],"rotation":[0.169047,-0.039413,-0.006765,0.984796],"scale":[2.2,0.12,1.6]},{"name":"panel-post-2-1","mesh":5,"translation":[-6.5,0.62,1.5],"scale":[0.12,1,0.12]},{"name":"panel-2-2","mesh":4,"translation":[-3.9,1.28,1.5],"rotation":[0.169047,-0.039413,-0.006765,0.984796],"scale":[2.2,0.12,1.6]},{"name":"panel-post-2-2","mesh":5,"translation":[-3.9,0.62,1.5],"scale":[0.12,1,0.12]},{"name":"panel-2-3","mesh":4,"translation":[-1.3,1.28,1.5],"rotation":[0.169047,-0.039413,-0.006765,0.984796],"scale":[2.2,0.12,1.6]},{"name":"panel-post-2-3","mesh":5,"translation":[-1.3,0.62,1.5],"scale":[0.12,1,0.12]},{"name":"panel-2-4","mesh":4,"translation":[1.3,1.28,1.5],"rotation":[0.169047,-0.039413,-0.006765,0.984796],"scale":[2.2,0.12,1.6]},{"name":"panel-post-2-4","mesh":5,"translation":[1.3,0.62,1.5],"scale":[0.12,1,0.12]},{"name":"panel-2-5","mesh":4,"translation":[3.9,1.28,1.5],"rotation":[0.169047,-0.039413,-0.006765,0.984796],"scale":[2.2,0.12,1.6]},{"name":"panel-post-2-5","mesh":5,"translation":[3.9,0.62,1.5],"scale":[0.12,1,0.12]},{"name":"panel-2-6","mesh":4,"translation":[6.5,1.28,1.5],"rotation":[0.169047,-0.039413,-0.006765,0.984796],"scale":[2.2,0.12,1.6]},{"name":"panel-post-2-6","mesh":5,"translation":[6.5,0.62,1.5],"scale":[0.12,1,0.12]},{"name":"panel-2-7","mesh":4,"translation":[9.1,1.28,1.5],"rotation":[0.169047,-0.039413,-0.006765,0.984796],"scale":[2.2,0.12,1.6]},{"name":"panel-post-2-7","mesh":5,"translation":[9.1,0.62,1.5],"scale":[0.12,1,0.12]},{"name":"panel-3-0","mesh":4,"translation":[-9.1,1.36,4.5],"rotation":[0.169047,-0.039413,-0.006765,0.984796],"scale":[2.2,0.12,1.6]},{"name":"panel-post-3-0","mesh":5,"translation":[-9.1,0.62,4.5],"scale":[0.12,1,0.12]},{"name":"panel-3-1","mesh":4,"translation":[-6.5,1.36,4.5],"rotation":[0.169047,-0.039413,-0.006765,0.984796],"scale":[2.2,0.12,1.6]},{"name":"panel-post-3-1","mesh":5,"translation":[-6.5,0.62,4.5],"scale":[0.12,1,0.12]},{"name":"panel-3-2","mesh":4,"translation":[-3.9,1.36,4.5],"rotation":[0.169047,-0.039413,-0.006765,0.984796],"scale":[2.2,0.12,1.6]},{"name":"panel-post-3-2","mesh":5,"translation":[-3.9,0.62,4.5],"scale":[0.12,1,0.12]},{"name":"panel-3-3","mesh":4,"translation":[-1.3,1.36,4.5],"rotation":[0.169047,-0.039413,-0.006765,0.984796],"scale":[2.2,0.12,1.6]},{"name":"panel-post-3-3","mesh":5,"translation":[-1.3,0.62,4.5],"scale":[0.12,1,0.12]},{"name":"panel-3-4","mesh":4,"translation":[1.3,1.36,4.5],"rotation":[0.169047,-0.039413,-0.006765,0.984796],"scale":[2.2,0.12,1.6]},{"name":"panel-post-3-4","mesh":5,"translation":[1.3,0.62,4.5],"scale":[0.12,1,0.12]},{"name":"panel-3-5","mesh":4,"translation":[3.9,1.36,4.5],"rotation":[0.169047,-0.039413,-0.006765,0.984796],"scale":[2.2,0.12,1.6]},{"name":"panel-post-3-5","mesh":5,"translation":[3.9,0.62,4.5],"scale":[0.12,1,0.12]},{"name":"panel-3-6","mesh":4,"translation":[6.5,1.36,4.5],"rotation":[0.169047,-0.039413,-0.006765,0.984796],"scale":[2.2,0.12,1.6]},{"name":"panel-post-3-6","mesh":5,"translation":[6.5,0.62,4.5],"scale":[0.12,1,0.12]},{"name":"panel-3-7","mesh":4,"translation":[9.1,1.36,4.5],"rotation":[0.169047,-0.039413,-0.006765,0.984796],"scale":[2.2,0.12,1.6]},{"name":"panel-post-3-7","mesh":5,"translation":[9.1,0.62,4.5],"scale":[0.12,1,0.12]},{"name":"inverter","mesh":6,"translation":[-7.904,0.95,4.8],"scale":[2.28,1.6,1.1]},{"name":"solar-sign-back","mesh":7,"translation":[0,1.8,6.25],"scale":[3.6,0.9,1]},{"name":"solar-sign","mesh":8,"translation":[0,1.8,6.279],"scale":[3.5,0.8,1]},{"name":"site-pad","mesh":9,"translation":[0,0.06,0],"scale":[21.632,0.12,12.48]},{"name":"variant-apron","mesh":10,"translation":[1.352,0.13,6.22],"scale":[6.656,0.08,1.16]},{"name":"bollard-0","mesh":11,"translation":[-7.904,0.43,6.34],"scale":[0.08,0.7,0.08]},{"name":"bollard-1","mesh":11,"translation":[-3.952,0.43,6.34],"scale":[0.08,0.7,0.08]},{"name":"bollard-2","mesh":11,"translation":[0,0.43,6.34],"scale":[0.08,0.7,0.08]},{"name":"bollard-3","mesh":11,"translation":[3.952,0.43,6.34],"scale":[0.08,0.7,0.08]},{"name":"bollard-4","mesh":11,"translation":[7.904,0.43,6.34],"scale":[0.08,0.7,0.08]},{"name":"layout-cabinet","mesh":12,"translation":[-10.6,0.615,0.9],"scale":[0.69,0.99,0.32]},{"name":"panel-0-0","mesh":13,"translation":[-9.1,1.12,-4.5],"rotation":[0.169047,-0.039413,-0.006765,0.984796],"scale":[2.2,0.12,1.6]},{"name":"panel-post-0-0","mesh":14,"translation":[-9.1,0.62,-4.5],"scale":[0.12,1,0.12]},{"name":"panel-0-1","mesh":13,"translation":[-6.5,1.12,-4.5],"rotation":[0.169047,-0.039413,-0.006765,0.984796],"scale":[2.2,0.12,1.6]},{"name":"panel-post-0-1","mesh":14,"translation":[-6.5,0.62,-4.5],"scale":[0.12,1,0.12]},{"name":"panel-0-2","mesh":13,"translation":[-3.9,1.12,-4.5],"rotation":[0.169047,-0.039413,-0.006765,0.984796],"scale":[2.2,0.12,1.6]},{"name":"panel-post-0-2","mesh":14,"translation":[-3.9,0.62,-4.5],"scale":[0.12,1,0.12]},{"name":"panel-0-3","mesh":13,"translation":[-1.3,1.12,-4.5],"rotation":[0.169047,-0.039413,-0.006765,0.984796],"scale":[2.2,0.12,1.6]},{"name":"panel-post-0-3","mesh":14,"translation":[-1.3,0.62,-4.5],"scale":[0.12,1,0.12]},{"name":"panel-0-4","mesh":13,"translation":[1.3,1.12,-4.5],"rotation":[0.169047,-0.039413,-0.006765,0.984796],"scale":[2.2,0.12,1.6]},{"name":"panel-post-0-4","mesh":14,"translation":[1.3,0.62,-4.5],"scale":[0.12,1,0.12]},{"name":"panel-0-5","mesh":13,"translation":[3.9,1.12,-4.5],"rotation":[0.169047,-0.039413,-0.006765,0.984796],"scale":[2.2,0.12,1.6]},{"name":"panel-post-0-5","mesh":14,"translation":[3.9,0.62,-4.5],"scale":[0.12,1,0.12]},{"name":"panel-0-6","mesh":13,"translation":[6.5,1.12,-4.5],"rotation":[0.169047,-0.039413,-0.006765,0.984796],"scale":[2.2,0.12,1.6]},{"name":"panel-post-0-6","mesh":14,"translation":[6.5,0.62,-4.5],"scale":[0.12,1,0.12]},{"name":"panel-0-7","mesh":13,"translation":[9.1,1.12,-4.5],"rotation":[0.169047,-0.039413,-0.006765,0.984796],"scale":[2.2,0.12,1.6]},{"name":"panel-post-0-7","mesh":14,"translation":[9.1,0.62,-4.5],"scale":[0.12,1,0.12]},{"name":"panel-1-0","mesh":13,"translation":[-9.1,1.2,-1.5],"rotation":[0.169047,-0.039413,-0.006765,0.984796],"scale":[2.2,0.12,1.6]},{"name":"panel-post-1-0","mesh":14,"translation":[-9.1,0.62,-1.5],"scale":[0.12,1,0.12]},{"name":"panel-1-1","mesh":13,"translation":[-6.5,1.2,-1.5],"rotation":[0.169047,-0.039413,-0.006765,0.984796],"scale":[2.2,0.12,1.6]},{"name":"panel-post-1-1","mesh":14,"translation":[-6.5,0.62,-1.5],"scale":[0.12,1,0.12]},{"name":"panel-1-2","mesh":13,"translation":[-3.9,1.2,-1.5],"rotation":[0.169047,-0.039413,-0.006765,0.984796],"scale":[2.2,0.12,1.6]},{"name":"panel-post-1-2","mesh":14,"translation":[-3.9,0.62,-1.5],"scale":[0.12,1,0.12]},{"name":"panel-1-3","mesh":13,"translation":[-1.3,1.2,-1.5],"rotation":[0.169047,-0.039413,-0.006765,0.984796],"scale":[2.2,0.12,1.6]},{"name":"panel-post-1-3","mesh":14,"translation":[-1.3,0.62,-1.5],"scale":[0.12,1,0.12]},{"name":"panel-1-4","mesh":13,"translation":[1.3,1.2,-1.5],"rotation":[0.169047,-0.039413,-0.006765,0.984796],"scale":[2.2,0.12,1.6]},{"name":"panel-post-1-4","mesh":14,"translation":[1.3,0.62,-1.5],"scale":[0.12,1,0.12]},{"name":"panel-1-5","mesh":13,"translation":[3.9,1.2,-1.5],"rotation":[0.169047,-0.039413,-0.006765,0.984796],"scale":[2.2,0.12,1.6]},{"name":"panel-post-1-5","mesh":14,"translation":[3.9,0.62,-1.5],"scale":[0.12,1,0.12]},{"name":"panel-1-6","mesh":13,"translation":[6.5,1.2,-1.5],"rotation":[0.169047,-0.039413,-0.006765,0.984796],"scale":[2.2,0.12,1.6]},{"name":"panel-post-1-6","mesh":14,"translation":[6.5,0.62,-1.5],"scale":[0.12,1,0.12]},{"name":"panel-1-7","mesh":13,"translation":[9.1,1.2,-1.5],"rotation":[0.169047,-0.039413,-0.006765,0.984796],"scale":[2.2,0.12,1.6]},{"name":"panel-post-1-7","mesh":14,"translation":[9.1,0.62,-1.5],"scale":[0.12,1,0.12]},{"name":"panel-2-0","mesh":13,"translation":[-9.1,1.28,1.5],"rotation":[0.169047,-0.039413,-0.006765,0.984796],"scale":[2.2,0.12,1.6]},{"name":"panel-post-2-0","mesh":14,"translation":[-9.1,0.62,1.5],"scale":[0.12,1,0.12]},{"name":"panel-2-1","mesh":13,"translation":[-6.5,1.28,1.5],"rotation":[0.169047,-0.039413,-0.006765,0.984796],"scale":[2.2,0.12,1.6]},{"name":"panel-post-2-1","mesh":14,"translation":[-6.5,0.62,1.5],"scale":[0.12,1,0.12]},{"name":"panel-2-2","mesh":13,"translation":[-3.9,1.28,1.5],"rotation":[0.169047,-0.039413,-0.006765,0.984796],"scale":[2.2,0.12,1.6]},{"name":"panel-post-2-2","mesh":14,"translation":[-3.9,0.62,1.5],"scale":[0.12,1,0.12]},{"name":"panel-2-3","mesh":13,"translation":[-1.3,1.28,1.5],"rotation":[0.169047,-0.039413,-0.006765,0.984796],"scale":[2.2,0.12,1.6]},{"name":"panel-post-2-3","mesh":14,"translation":[-1.3,0.62,1.5],"scale":[0.12,1,0.12]},{"name":"panel-2-4","mesh":13,"translation":[1.3,1.28,1.5],"rotation":[0.169047,-0.039413,-0.006765,0.984796],"scale":[2.2,0.12,1.6]},{"name":"panel-post-2-4","mesh":14,"translation":[1.3,0.62,1.5],"scale":[0.12,1,0.12]},{"name":"panel-2-5","mesh":13,"translation":[3.9,1.28,1.5],"rotation":[0.169047,-0.039413,-0.006765,0.984796],"scale":[2.2,0.12,1.6]},{"name":"panel-post-2-5","mesh":14,"translation":[3.9,0.62,1.5],"scale":[0.12,1,0.12]},{"name":"panel-2-6","mesh":13,"translation":[6.5,1.28,1.5],"rotation":[0.169047,-0.039413,-0.006765,0.984796],"scale":[2.2,0.12,1.6]},{"name":"panel-post-2-6","mesh":14,"translation":[6.5,0.62,1.5],"scale":[0.12,1,0.12]},{"name":"panel-2-7","mesh":13,"translation":[9.1,1.28,1.5],"rotation":[0.169047,-0.039413,-0.006765,0.984796],"scale":[2.2,0.12,1.6]},{"name":"panel-post-2-7","mesh":14,"translation":[9.1,0.62,1.5],"scale":[0.12,1,0.12]},{"name":"panel-3-0","mesh":13,"translation":[-9.1,1.36,4.5],"rotation":[0.169047,-0.039413,-0.006765,0.984796],"scale":[2.2,0.12,1.6]},{"name":"panel-post-3-0","mesh":14,"translation":[-9.1,0.62,4.5],"scale":[0.12,1,0.12]},{"name":"panel-3-1","mesh":13,"translation":[-6.5,1.36,4.5],"rotation":[0.169047,-0.039413,-0.006765,0.984796],"scale":[2.2,0.12,1.6]},{"name":"panel-post-3-1","mesh":14,"translation":[-6.5,0.62,4.5],"scale":[0.12,1,0.12]},{"name":"panel-3-2","mesh":13,"translation":[-3.9,1.36,4.5],"rotation":[0.169047,-0.039413,-0.006765,0.984796],"scale":[2.2,0.12,1.6]},{"name":"panel-post-3-2","mesh":14,"translation":[-3.9,0.62,4.5],"scale":[0.12,1,0.12]},{"name":"panel-3-3","mesh":13,"translation":[-1.3,1.36,4.5],"rotation":[0.169047,-0.039413,-0.006765,0.984796],"scale":[2.2,0.12,1.6]},{"name":"panel-post-3-3","mesh":14,"translation":[-1.3,0.62,4.5],"scale":[0.12,1,0.12]},{"name":"panel-3-4","mesh":13,"translation":[1.3,1.36,4.5],"rotation":[0.169047,-0.039413,-0.006765,0.984796],"scale":[2.2,0.12,1.6]},{"name":"panel-post-3-4","mesh":14,"translation":[1.3,0.62,4.5],"scale":[0.12,1,0.12]},{"name":"panel-3-5","mesh":13,"translation":[3.9,1.36,4.5],"rotation":[0.169047,-0.039413,-0.006765,0.984796],"scale":[2.2,0.12,1.6]},{"name":"panel-post-3-5","mesh":14,"translation":[3.9,0.62,4.5],"scale":[0.12,1,0.12]},{"name":"panel-3-6","mesh":13,"translation":[6.5,1.36,4.5],"rotation":[0.169047,-0.039413,-0.006765,0.984796],"scale":[2.2,0.12,1.6]},{"name":"panel-post-3-6","mesh":14,"translation":[6.5,0.62,4.5],"scale":[0.12,1,0.12]},{"name":"panel-3-7","mesh":13,"translation":[9.1,1.36,4.5],"rotation":[0.169047,-0.039413,-0.006765,0.984796],"scale":[2.2,0.12,1.6]},{"name":"panel-post-3-7","mesh":14,"translation":[9.1,0.62,4.5],"scale":[0.12,1,0.12]},{"name":"inverter","mesh":15,"translation":[-7.904,0.95,4.8],"scale":[2.28,1.6,1.1]},{"name":"solar-sign-back","mesh":7,"translation":[0,1.8,6.25],"scale":[3.6,0.9,1]},{"name":"solar-sign","mesh":8,"translation":[0,1.8,6.279],"scale":[3.5,0.8,1]},{"name":"site-pad","mesh":16,"translation":[0,0.06,0],"scale":[8.112,0.12,6.24]},{"name":"variant-apron","mesh":17,"translation":[0.507,0.13,3.22],"scale":[2.496,0.08,1.16]},{"name":"bollard-0","mesh":11,"translation":[-2.964,0.43,3.34],"scale":[0.08,0.7,0.08]},{"name":"layout-cabinet","mesh":12,"translation":[-4.1,0.615,0.45],"scale":[0.69,0.99,0.32]},{"name":"panel-0-0","mesh":13,"translation":[-2.6,1.12,-1.5],"rotation":[0.169047,-0.039413,-0.006765,0.984796],"scale":[2.2,0.12,1.6]},{"name":"panel-post-0-0","mesh":14,"translation":[-2.6,0.62,-1.5],"scale":[0.12,1,0.12]},{"name":"panel-0-1","mesh":13,"translation":[0,1.12,-1.5],"rotation":[0.169047,-0.039413,-0.006765,0.984796],"scale":[2.2,0.12,1.6]},{"name":"panel-post-0-1","mesh":14,"translation":[0,0.62,-1.5],"scale":[0.12,1,0.12]},{"name":"panel-0-2","mesh":13,"translation":[2.6,1.12,-1.5],"rotation":[0.169047,-0.039413,-0.006765,0.984796],"scale":[2.2,0.12,1.6]},{"name":"panel-post-0-2","mesh":14,"translation":[2.6,0.62,-1.5],"scale":[0.12,1,0.12]},{"name":"panel-1-0","mesh":13,"translation":[-2.6,1.2,1.5],"rotation":[0.169047,-0.039413,-0.006765,0.984796],"scale":[2.2,0.12,1.6]},{"name":"panel-post-1-0","mesh":14,"translation":[-2.6,0.62,1.5],"scale":[0.12,1,0.12]},{"name":"panel-1-1","mesh":13,"translation":[0,1.2,1.5],"rotation":[0.169047,-0.039413,-0.006765,0.984796],"scale":[2.2,0.12,1.6]},{"name":"panel-post-1-1","mesh":14,"translation":[0,0.62,1.5],"scale":[0.12,1,0.12]},{"name":"panel-1-2","mesh":13,"translation":[2.6,1.2,1.5],"rotation":[0.169047,-0.039413,-0.006765,0.984796],"scale":[2.2,0.12,1.6]},{"name":"panel-post-1-2","mesh":14,"translation":[2.6,0.62,1.5],"scale":[0.12,1,0.12]},{"name":"inverter","mesh":15,"translation":[-2.964,0.95,2.4],"scale":[2.28,1.6,1.1]},{"name":"solar-sign-back","mesh":7,"translation":[0,1.8,3.25],"scale":[3.6,0.9,1]},{"name":"solar-sign","mesh":8,"translation":[0,1.8,3.279],"scale":[3.5,0.8,1]}],"meshes":[{"primitives":[{"attributes":{"POSITION":0,"NORMAL":1,"TEXCOORD_0":2},"material":0,"mode":4}]},{"primitives":[{"attributes":{"POSITION":0,"NORMAL":1,"TEXCOORD_0":3},"material":0,"mode":4}]},{"primitives":[{"attributes":{"POSITION":4,"NORMAL":5,"TEXCOORD_0":6},"material":1,"mode":4,"indices":7}]},{"primitives":[{"attributes":{"POSITION":0,"NORMAL":1,"TEXCOORD_0":8},"material":2,"mode":4}]},{"primitives":[{"attributes":{"POSITION":0,"NORMAL":1,"TEXCOORD_0":9},"material":3,"mode":4}]},{"primitives":[{"attributes":{"POSITION":0,"NORMAL":1,"TEXCOORD_0":10},"material":2,"mode":4}]},{"primitives":[{"attributes":{"POSITION":11,"NORMAL":1,"TEXCOORD_0":12},"material":4,"mode":4}]},{"primitives":[{"attributes":{"POSITION":13,"NORMAL":14,"TEXCOORD_0":15},"material":5,"mode":4,"indices":16}]},{"primitives":[{"attributes":{"POSITION":17,"NORMAL":18,"TEXCOORD_0":19},"material":6,"mode":4,"indices":20}]},{"primitives":[{"attributes":{"POSITION":21,"NORMAL":14,"TEXCOORD_0":22},"material":0,"mode":4,"indices":16}]},{"primitives":[{"attributes":{"POSITION":21,"NORMAL":14,"TEXCOORD_0":23},"material":0,"mode":4,"indices":16}]},{"primitives":[{"attributes":{"POSITION":24,"NORMAL":25,"TEXCOORD_0":26},"material":1,"mode":4,"indices":27}]},{"primitives":[{"attributes":{"POSITION":21,"NORMAL":14,"TEXCOORD_0":28},"material":2,"mode":4,"indices":16}]},{"primitives":[{"attributes":{"POSITION":21,"NORMAL":14,"TEXCOORD_0":29},"material":3,"mode":4,"indices":16}]},{"primitives":[{"attributes":{"POSITION":21,"NORMAL":14,"TEXCOORD_0":30},"material":2,"mode":4,"indices":16}]},{"primitives":[{"attributes":{"POSITION":21,"NORMAL":14,"TEXCOORD_0":31},"material":4,"mode":4,"indices":16}]},{"primitives":[{"attributes":{"POSITION":21,"NORMAL":14,"TEXCOORD_0":32},"material":0,"mode":4,"indices":16}]},{"primitives":[{"attributes":{"POSITION":21,"NORMAL":14,"TEXCOORD_0":33},"material":0,"mode":4,"indices":16}]}],"materials":[{"name":"asphalt","pbrMetallicRoughness":{"baseColorTexture":{"index":0},"metallicRoughnessTexture":{"index":2},"roughnessFactor":1,"metallicFactor":1},"normalTexture":{"index":1,"scale":0.62},"occlusionTexture":{"index":2,"strength":0.35}},{"name":"paint-yellow","pbrMetallicRoughness":{"baseColorFactor":[0.76052450467022,0.4793201830913402,0.07818742179702069,1],"roughnessFactor":0.66,"metallicFactor":0.03}},{"name":"metal-galvanized","pbrMetallicRoughness":{"baseColorTexture":{"index":3},"metallicRoughnessTexture":{"index":5},"roughnessFactor":1,"metallicFactor":1},"normalTexture":{"index":4,"scale":0.15},"occlusionTexture":{"index":5,"strength":0.35}},{"name":"glass-blue","pbrMetallicRoughness":{"baseColorTexture":{"index":6},"metallicRoughnessTexture":{"index":8},"roughnessFactor":1,"metallicFactor":1},"normalTexture":{"index":7,"scale":0.12},"occlusionTexture":{"index":8,"strength":0.35}},{"name":"paint-white","pbrMetallicRoughness":{"baseColorFactor":[0.7912979403281551,0.7681511472425809,0.6795424696265424,1],"roughnessFactor":0.68,"metallicFactor":0}},{"name":"metal-dark","pbrMetallicRoughness":{"baseColorTexture":{"index":9},"metallicRoughnessTexture":{"index":11},"roughnessFactor":1,"metallicFactor":1},"normalTexture":{"index":10,"scale":0.35},"occlusionTexture":{"index":11,"strength":0.35}},{"name":"solar-farm signage","pbrMetallicRoughness":{"baseColorTexture":{"index":12},"roughnessFactor":1,"metallicFactor":0},"extensions":{"KHR_materials_unlit":{}}}],"textures":[{"source":0,"sampler":0},{"source":1,"sampler":0},{"source":2,"sampler":0},{"source":3,"sampler":0},{"source":4,"sampler":0},{"source":5,"sampler":0},{"source":6,"sampler":0},{"source":7,"sampler":0},{"source":8,"sampler":0},{"source":9,"sampler":0},{"source":10,"sampler":0},{"source":11,"sampler":0},{"source":12,"sampler":0}],"images":[{"uri":"../textures/asphalt-albedo.png"},{"uri":"../textures/asphalt-normal.png"},{"uri":"../textures/asphalt-orm.png"},{"uri":"../textures/metal-galvanized-albedo.png"},{"uri":"../textures/metal-galvanized-normal.png"},{"uri":"../textures/metal-galvanized-orm.png"},{"uri":"../textures/glass-blue-albedo.png"},{"uri":"../textures/glass-blue-normal.png"},{"uri":"../textures/glass-blue-orm.png"},{"uri":"../textures/metal-dark-albedo.png"},{"uri":"../textures/metal-dark-normal.png"},{"uri":"../textures/metal-dark-orm.png"},{"uri":"../signs/solar-farm.png"}],"samplers":[{"magFilter":9729,"minFilter":9987,"wrapS":10497,"wrapT":10497}],"buffers":[{"uri":"../shared/geometry.bin","byteLength":16435520}],"bufferViews":[{"buffer":0,"byteOffset":0,"byteLength":3888,"target":34962},{"buffer":0,"byteOffset":3888,"byteLength":3888,"target":34962},{"buffer":0,"byteOffset":13567276,"byteLength":2592,"target":34962},{"buffer":0,"byteOffset":13569868,"byteLength":2592,"target":34962},{"buffer":0,"byteOffset":12960,"byteLength":1200,"target":34962},{"buffer":0,"byteOffset":14160,"byteLength":1200,"target":34962},{"buffer":0,"byteOffset":150020,"byteLength":800,"target":34962},{"buffer":0,"byteOffset":16160,"byteLength":384,"target":34963},{"buffer":0,"byteOffset":173540,"byteLength":2592,"target":34962},{"buffer":0,"byteOffset":13480492,"byteLength":2592,"target":34962},{"buffer":0,"byteOffset":13483084,"byteLength":2592,"target":34962},{"buffer":0,"byteOffset":4875864,"byteLength":3888,"target":34962},{"buffer":0,"byteOffset":13517644,"byteLength":2592,"target":34962},{"buffer":0,"byteOffset":45664,"byteLength":288,"target":34962},{"buffer":0,"byteOffset":45952,"byteLength":288,"target":34962},{"buffer":0,"byteOffset":46240,"byteLength":192,"target":34962},{"buffer":0,"byteOffset":46432,"byteLength":72,"target":34963},{"buffer":0,"byteOffset":46504,"byteLength":48,"target":34962},{"buffer":0,"byteOffset":46552,"byteLength":48,"target":34962},{"buffer":0,"byteOffset":176132,"byteLength":32,"target":34962},{"buffer":0,"byteOffset":46632,"byteLength":12,"target":34963},{"buffer":0,"byteOffset":46644,"byteLength":288,"target":34962},{"buffer":0,"byteOffset":13572460,"byteLength":192,"target":34962},{"buffer":0,"byteOffset":13572652,"byteLength":192,"target":34962},{"buffer":0,"byteOffset":47316,"byteLength":480,"target":34962},{"buffer":0,"byteOffset":47796,"byteLength":480,"target":34962},{"buffer":0,"byteOffset":153636,"byteLength":320,"target":34962},{"buffer":0,"byteOffset":48596,"byteLength":144,"target":34963},{"buffer":0,"byteOffset":176356,"byteLength":192,"target":34962},{"buffer":0,"byteOffset":13488652,"byteLength":192,"target":34962},{"buffer":0,"byteOffset":13488844,"byteLength":192,"target":34962},{"buffer":0,"byteOffset":13520620,"byteLength":192,"target":34962},{"buffer":0,"byteOffset":13489228,"byteLength":192,"target":34962},{"buffer":0,"byteOffset":13572844,"byteLength":192,"target":34962}],"accessors":[{"bufferView":0,"componentType":5126,"count":324,"type":"VEC3","min":[-0.5,-0.5,-0.5],"max":[0.5,0.5,0.5]},{"bufferView":1,"componentType":5126,"count":324,"type":"VEC3"},{"bufferView":2,"componentType":5126,"count":324,"type":"VEC2"},{"bufferView":3,"componentType":5126,"count":324,"type":"VEC2"},{"bufferView":4,"componentType":5126,"count":100,"type":"VEC3","min":[-1,-0.5,-1],"max":[1,0.5,1]},{"bufferView":5,"componentType":5126,"count":100,"type":"VEC3"},{"bufferView":6,"componentType":5126,"count":100,"type":"VEC2"},{"bufferView":7,"componentType":5123,"count":192,"type":"SCALAR"},{"bufferView":8,"componentType":5126,"count":324,"type":"VEC2"},{"bufferView":9,"componentType":5126,"count":324,"type":"VEC2"},{"bufferView":10,"componentType":5126,"count":324,"type":"VEC2"},{"bufferView":11,"componentType":5126,"count":324,"type":"VEC3","min":[-0.5,-0.5,-0.5],"max":[0.5,0.5,0.5]},{"bufferView":12,"componentType":5126,"count":324,"type":"VEC2"},{"bufferView":13,"componentType":5126,"count":24,"type":"VEC3","min":[-0.5,-0.5,-0.02500000037252903],"max":[0.5,0.5,0.02500000037252903]},{"bufferView":14,"componentType":5126,"count":24,"type":"VEC3"},{"bufferView":15,"componentType":5126,"count":24,"type":"VEC2"},{"bufferView":16,"componentType":5123,"count":36,"type":"SCALAR"},{"bufferView":17,"componentType":5126,"count":4,"type":"VEC3","min":[-0.5,-0.5,0],"max":[0.5,0.5,0]},{"bufferView":18,"componentType":5126,"count":4,"type":"VEC3"},{"bufferView":19,"componentType":5126,"count":4,"type":"VEC2"},{"bufferView":20,"componentType":5123,"count":6,"type":"SCALAR"},{"bufferView":21,"componentType":5126,"count":24,"type":"VEC3","min":[-0.5,-0.5,-0.5],"max":[0.5,0.5,0.5]},{"bufferView":22,"componentType":5126,"count":24,"type":"VEC2"},{"bufferView":23,"componentType":5126,"count":24,"type":"VEC2"},{"bufferView":24,"componentType":5126,"count":40,"type":"VEC3","min":[-0.8660253882408142,-0.5,-1],"max":[0.8660253882408142,0.5,1]},{"bufferView":25,"componentType":5126,"count":40,"type":"VEC3"},{"bufferView":26,"componentType":5126,"count":40,"type":"VEC2"},{"bufferView":27,"componentType":5123,"count":72,"type":"SCALAR"},{"bufferView":28,"componentType":5126,"count":24,"type":"VEC2"},{"bufferView":29,"componentType":5126,"count":24,"type":"VEC2"},{"bufferView":30,"componentType":5126,"count":24,"type":"VEC2"},{"bufferView":31,"componentType":5126,"count":24,"type":"VEC2"},{"bufferView":32,"componentType":5126,"count":24,"type":"VEC2"},{"bufferView":33,"componentType":5126,"count":24,"type":"VEC2"}],"extensionsUsed":["KHR_materials_unlit"],"extras":{"id":"vlt-solar-farm-15","family":"solar-farm","variant":14,"plan":"C5-1","units":"metres","up":"+Y","front":"+Z","lodScenes":[0,1,2]}}