{"asset":{"version":"2.0","generator":"SLOPMERICA Department of Unnecessary Development 1.0"},"scene":0,"scenes":[{"name":"LOD 0","nodes":[0,1,2,3,4,5,6,7,8,9,10,11,12,13,14,15,16,17,18,19,20,21,22,23,24,25,26,27,28,29,30,31,32],"extras":{"level":0}},{"name":"LOD 1","nodes":[33,34,35,36,37,38,39,40,41,42,43,44,45,46,47,48,49,50,51,52,53,54,55,56],"extras":{"level":1}},{"name":"LOD 2","nodes":[57,58,59,60,61,62,63,64,65,66,67,68,69,70,71],"extras":{"level":2}}],"nodes":[{"name":"foundation","mesh":0,"translation":[0,0.08,0],"scale":[26.2,0.16,14.745]},{"name":"store-shell","mesh":1,"translation":[0,2.4336,0],"scale":[24,4.8672,7.2761]},{"name":"roof-cap","mesh":2,"translation":[0,4.9772,0],"scale":[24.25,0.22,7.5261]},{"name":"window-0","mesh":3,"translation":[-8.88,1.65,3.69305],"scale":[2.580645,1.45,0.09]},{"name":"window-1","mesh":3,"translation":[-5.328,1.65,3.69305],"scale":[2.580645,1.45,0.09]},{"name":"window-2","mesh":3,"translation":[-1.776,1.65,3.69305],"scale":[2.580645,1.45,0.09]},{"name":"window-3","mesh":3,"translation":[1.776,1.65,3.69305],"scale":[2.580645,1.45,0.09]},{"name":"window-4","mesh":3,"translation":[5.328,1.65,3.69305],"scale":[2.580645,1.45,0.09]},{"name":"window-5","mesh":3,"translation":[8.88,1.65,3.69305],"scale":[2.580645,1.45,0.09]},{"name":"door","mesh":4,"translation":[8.4,1.025,3.70805],"scale":[0.92,2.05,0.12]},{"name":"awning","mesh":5,"translation":[0,3.212352,4.11805],"rotation":[-0.039989,0,0,0.9992],"scale":[19.68,0.18,1.05]},{"name":"mullion-0","mesh":6,"translation":[-7.68,1.65,3.75805],"scale":[0.08,1.55,0.12]},{"name":"mullion-1","mesh":6,"translation":[-2.56,1.65,3.75805],"scale":[0.08,1.55,0.12]},{"name":"mullion-2","mesh":6,"translation":[2.56,1.65,3.75805],"scale":[0.08,1.55,0.12]},{"name":"mullion-3","mesh":6,"translation":[7.68,1.65,3.75805],"scale":[0.08,1.55,0.12]},{"name":"primary-sign-back","mesh":7,"translation":[0,3.845088,3.79805],"scale":[7.6,1.25,1]},{"name":"primary-sign","mesh":8,"translation":[0,3.845088,3.82705],"scale":[7.5,1.15,1]},{"name":"showroom-wing","mesh":9,"translation":[8.4,1.8096,-5.2689],"rotation":[0,0.089879,0,0.995953],"scale":[10.08,3.6192,4.7671]},{"name":"display-car-body","mesh":10,"translation":[6.72,0.53,5.64525],"rotation":[0,-0.109778,0,0.993956],"scale":[1.65,0.45,0.85]},{"name":"display-car-cab","mesh":11,"translation":[6.72,0.93,5.59525],"rotation":[0,-0.109778,0,0.993956],"scale":[0.82,0.4,0.72]},{"name":"display-car-wheel-a","mesh":12,"translation":[6.2,0.56,6.06525],"rotation":[0,0.707107,0,0.707107]},{"name":"display-car-wheel-b","mesh":12,"translation":[7.24,0.56,6.06525],"rotation":[0,0.707107,0,0.707107]},{"name":"flagpole-0","mesh":13,"translation":[-10.08,4.056,-4.39075],"scale":[0.07,8.112,0.07]},{"name":"flag-0","mesh":14,"translation":[-9.77,7.1136,-4.39075],"scale":[0.65,0.38,0.04]},{"name":"flagpole-1","mesh":13,"translation":[-5.04,4.056,-4.39075],"scale":[0.07,8.112,0.07]},{"name":"flag-1","mesh":15,"translation":[-4.73,7.1136,-4.39075],"scale":[0.65,0.38,0.04]},{"name":"flagpole-2","mesh":13,"translation":[0,4.056,-4.39075],"scale":[0.07,8.112,0.07]},{"name":"flag-2","mesh":14,"translation":[0.31,7.1136,-4.39075],"scale":[0.65,0.38,0.04]},{"name":"flagpole-3","mesh":13,"translation":[5.04,4.056,-4.39075],"scale":[0.07,8.112,0.07]},{"name":"flag-3","mesh":15,"translation":[5.35,7.1136,-4.39075],"scale":[0.65,0.38,0.04]},{"name":"flagpole-4","mesh":13,"translation":[10.08,4.056,-4.39075],"scale":[0.07,8.112,0.07]},{"name":"flag-4","mesh":14,"translation":[10.39,7.1136,-4.39075],"scale":[0.65,0.38,0.04]},{"name":"open-state-bollard","mesh":16,"translation":[10.32,0.425,7.0252],"scale":[0.22,0.85,0.22]},{"name":"foundation","mesh":17,"translation":[0,0.08,0],"scale":[26.2,0.16,14.745]},{"name":"store-shell","mesh":18,"translation":[0,2.4336,0],"scale":[24,4.8672,7.2761]},{"name":"roof-cap","mesh":19,"translation":[0,4.9772,0],"scale":[24.25,0.22,7.5261]},{"name":"window-0","mesh":20,"translation":[-8.88,1.65,3.69305],"scale":[5.16129,1.45,0.09]},{"name":"window-1","mesh":20,"translation":[0,1.65,3.69305],"scale":[5.16129,1.45,0.09]},{"name":"window-2","mesh":20,"translation":[8.88,1.65,3.69305],"scale":[5.16129,1.45,0.09]},{"name":"door","mesh":21,"translation":[8.4,1.025,3.70805],"scale":[0.92,2.05,0.12]},{"name":"awning","mesh":22,"translation":[0,3.212352,4.11805],"rotation":[-0.039989,0,0,0.9992],"scale":[19.68,0.18,1.05]},{"name":"mullion-0","mesh":23,"translation":[-7.68,1.65,3.75805],"scale":[0.08,1.55,0.12]},{"name":"mullion-1","mesh":23,"translation":[-2.56,1.65,3.75805],"scale":[0.08,1.55,0.12]},{"name":"mullion-2","mesh":23,"translation":[2.56,1.65,3.75805],"scale":[0.08,1.55,0.12]},{"name":"mullion-3","mesh":23,"translation":[7.68,1.65,3.75805],"scale":[0.08,1.55,0.12]},{"name":"primary-sign-back","mesh":7,"translation":[0,3.845088,3.79805],"scale":[7.6,1.25,1]},{"name":"primary-sign","mesh":8,"translation":[0,3.845088,3.82705],"scale":[7.5,1.15,1]},{"name":"showroom-wing","mesh":24,"translation":[8.4,1.8096,-5.2689],"rotation":[0,0.089879,0,0.995953],"scale":[10.08,3.6192,4.7671]},{"name":"display-car-body","mesh":25,"translation":[6.72,0.53,5.64525],"rotation":[0,-0.109778,0,0.993956],"scale":[1.65,0.45,0.85]},{"name":"display-car-cab","mesh":26,"translation":[6.72,0.93,5.59525],"rotation":[0,-0.109778,0,0.993956],"scale":[0.82,0.4,0.72]},{"name":"display-car-wheel-a","mesh":27,"translation":[6.2,0.56,6.06525],"rotation":[0,0.707107,0,0.707107]},{"name":"display-car-wheel-b","mesh":27,"translation":[7.24,0.56,6.06525],"rotation":[0,0.707107,0,0.707107]},{"name":"flagpole-0","mesh":13,"translation":[-10.08,4.056,-4.39075],"scale":[0.07,8.112,0.07]},{"name":"flag-0","mesh":28,"translation":[-9.77,7.1136,-4.39075],"scale":[0.65,0.38,0.04]},{"name":"flagpole-1","mesh":13,"translation":[10.08,4.056,-4.39075],"scale":[0.07,8.112,0.07]},{"name":"flag-1","mesh":29,"translation":[10.39,7.1136,-4.39075],"scale":[0.65,0.38,0.04]},{"name":"open-state-bollard","mesh":30,"translation":[10.32,0.425,7.0252],"scale":[0.22,0.85,0.22]},{"name":"foundation","mesh":17,"translation":[0,0.08,0],"scale":[26.2,0.16,14.745]},{"name":"store-shell","mesh":18,"translation":[0,2.4336,0],"scale":[24,4.8672,7.2761]},{"name":"roof-cap","mesh":19,"translation":[0,4.9772,0],"scale":[24.25,0.22,7.5261]},{"name":"window-0","mesh":31,"translation":[0,1.65,3.69305],"scale":[15.483871,1.45,0.09]},{"name":"door","mesh":21,"translation":[8.4,1.025,3.70805],"scale":[0.92,2.05,0.12]},{"name":"primary-sign-back","mesh":7,"translation":[0,3.845088,3.79805],"scale":[7.6,1.25,1]},{"name":"primary-sign","mesh":8,"translation":[0,3.845088,3.82705],"scale":[7.5,1.15,1]},{"name":"showroom-wing","mesh":24,"translation":[8.4,1.8096,-5.2689],"rotation":[0,0.089879,0,0.995953],"scale":[10.08,3.6192,4.7671]},{"name":"display-car-body","mesh":25,"translation":[6.72,0.53,5.64525],"rotation":[0,-0.109778,0,0.993956],"scale":[1.65,0.45,0.85]},{"name":"display-car-cab","mesh":26,"translation":[6.72,0.93,5.59525],"rotation":[0,-0.109778,0,0.993956],"scale":[0.82,0.4,0.72]},{"name":"flagpole-0","mesh":13,"translation":[-10.08,4.056,-4.39075],"scale":[0.07,8.112,0.07]},{"name":"flag-0","mesh":28,"translation":[-9.77,7.1136,-4.39075],"scale":[0.65,0.38,0.04]},{"name":"flagpole-1","mesh":13,"translation":[10.08,4.056,-4.39075],"scale":[0.07,8.112,0.07]},{"name":"flag-1","mesh":29,"translation":[10.39,7.1136,-4.39075],"scale":[0.65,0.38,0.04]},{"name":"open-state-bollard","mesh":30,"translation":[10.32,0.425,7.0252],"scale":[0.22,0.85,0.22]}],"meshes":[{"primitives":[{"attributes":{"POSITION":0,"NORMAL":1,"TEXCOORD_0":2},"material":0,"mode":4}]},{"primitives":[{"attributes":{"POSITION":3,"NORMAL":1,"TEXCOORD_0":4},"material":1,"mode":4}]},{"primitives":[{"attributes":{"POSITION":0,"NORMAL":1,"TEXCOORD_0":5},"material":2,"mode":4}]},{"primitives":[{"attributes":{"POSITION":0,"NORMAL":1,"TEXCOORD_0":6},"material":1,"mode":4}]},{"primitives":[{"attributes":{"POSITION":0,"NORMAL":1,"TEXCOORD_0":7},"material":2,"mode":4}]},{"primitives":[{"attributes":{"POSITION":0,"NORMAL":1,"TEXCOORD_0":8},"material":3,"mode":4}]},{"primitives":[{"attributes":{"POSITION":0,"NORMAL":1,"TEXCOORD_0":9},"material":3,"mode":4}]},{"primitives":[{"attributes":{"POSITION":10,"NORMAL":11,"TEXCOORD_0":12},"material":2,"mode":4,"indices":13}]},{"primitives":[{"attributes":{"POSITION":14,"NORMAL":15,"TEXCOORD_0":16},"material":4,"mode":4,"indices":17}]},{"primitives":[{"attributes":{"POSITION":18,"NORMAL":1,"TEXCOORD_0":19},"material":5,"mode":4}]},{"primitives":[{"attributes":{"POSITION":0,"NORMAL":1,"TEXCOORD_0":20},"material":3,"mode":4}]},{"primitives":[{"attributes":{"POSITION":0,"NORMAL":1,"TEXCOORD_0":21},"material":1,"mode":4}]},{"primitives":[{"attributes":{"POSITION":22,"NORMAL":23,"TEXCOORD_0":24},"material":6,"mode":4,"indices":25}]},{"primitives":[{"attributes":{"POSITION":26,"NORMAL":27,"TEXCOORD_0":28},"material":7,"mode":4,"indices":29}]},{"primitives":[{"attributes":{"POSITION":0,"NORMAL":1,"TEXCOORD_0":30},"material":3,"mode":4}]},{"primitives":[{"attributes":{"POSITION":0,"NORMAL":1,"TEXCOORD_0":30},"material":8,"mode":4}]},{"primitives":[{"attributes":{"POSITION":0,"NORMAL":1,"TEXCOORD_0":31},"material":3,"mode":4}]},{"primitives":[{"attributes":{"POSITION":32,"NORMAL":11,"TEXCOORD_0":33},"material":0,"mode":4,"indices":13}]},{"primitives":[{"attributes":{"POSITION":32,"NORMAL":11,"TEXCOORD_0":34},"material":1,"mode":4,"indices":13}]},{"primitives":[{"attributes":{"POSITION":32,"NORMAL":11,"TEXCOORD_0":35},"material":2,"mode":4,"indices":13}]},{"primitives":[{"attributes":{"POSITION":32,"NORMAL":11,"TEXCOORD_0":36},"material":1,"mode":4,"indices":13}]},{"primitives":[{"attributes":{"POSITION":32,"NORMAL":11,"TEXCOORD_0":37},"material":2,"mode":4,"indices":13}]},{"primitives":[{"attributes":{"POSITION":32,"NORMAL":11,"TEXCOORD_0":38},"material":3,"mode":4,"indices":13}]},{"primitives":[{"attributes":{"POSITION":32,"NORMAL":11,"TEXCOORD_0":39},"material":3,"mode":4,"indices":13}]},{"primitives":[{"attributes":{"POSITION":32,"NORMAL":11,"TEXCOORD_0":40},"material":5,"mode":4,"indices":13}]},{"primitives":[{"attributes":{"POSITION":32,"NORMAL":11,"TEXCOORD_0":41},"material":3,"mode":4,"indices":13}]},{"primitives":[{"attributes":{"POSITION":32,"NORMAL":11,"TEXCOORD_0":42},"material":1,"mode":4,"indices":13}]},{"primitives":[{"attributes":{"POSITION":43,"NORMAL":44,"TEXCOORD_0":45},"material":6,"mode":4,"indices":46}]},{"primitives":[{"attributes":{"POSITION":32,"NORMAL":11,"TEXCOORD_0":47},"material":3,"mode":4,"indices":13}]},{"primitives":[{"attributes":{"POSITION":32,"NORMAL":11,"TEXCOORD_0":47},"material":8,"mode":4,"indices":13}]},{"primitives":[{"attributes":{"POSITION":32,"NORMAL":11,"TEXCOORD_0":48},"material":3,"mode":4,"indices":13}]},{"primitives":[{"attributes":{"POSITION":32,"NORMAL":11,"TEXCOORD_0":49},"material":1,"mode":4,"indices":13}]}],"materials":[{"name":"concrete","pbrMetallicRoughness":{"baseColorTexture":{"index":0},"metallicRoughnessTexture":{"index":2},"roughnessFactor":1,"metallicFactor":1},"normalTexture":{"index":1,"scale":0.82},"occlusionTexture":{"index":2,"strength":0.35}},{"name":"glass-blue","pbrMetallicRoughness":{"baseColorTexture":{"index":3},"metallicRoughnessTexture":{"index":5},"roughnessFactor":1,"metallicFactor":1},"normalTexture":{"index":4,"scale":0.12},"occlusionTexture":{"index":5,"strength":0.35}},{"name":"metal-dark","pbrMetallicRoughness":{"baseColorTexture":{"index":6},"metallicRoughnessTexture":{"index":8},"roughnessFactor":1,"metallicFactor":1},"normalTexture":{"index":7,"scale":0.35},"occlusionTexture":{"index":8,"strength":0.35}},{"name":"paint-blue","pbrMetallicRoughness":{"baseColorFactor":[0.05126945836711539,0.10946171076915331,0.22696587349938613,1],"roughnessFactor":0.58,"metallicFactor":0.05}},{"name":"lease-eagle-motors signage","pbrMetallicRoughness":{"baseColorTexture":{"index":9},"roughnessFactor":1,"metallicFactor":0},"extensions":{"KHR_materials_unlit":{}}},{"name":"paint-white","pbrMetallicRoughness":{"baseColorFactor":[0.7912979403281551,0.7681511472425809,0.6795424696265424,1],"roughnessFactor":0.68,"metallicFactor":0}},{"name":"rubber","pbrMetallicRoughness":{"baseColorTexture":{"index":10},"metallicRoughnessTexture":{"index":12},"roughnessFactor":1,"metallicFactor":1},"normalTexture":{"index":11,"scale":0.65},"occlusionTexture":{"index":12,"strength":0.35}},{"name":"metal-galvanized","pbrMetallicRoughness":{"baseColorTexture":{"index":13},"metallicRoughnessTexture":{"index":15},"roughnessFactor":1,"metallicFactor":1},"normalTexture":{"index":14,"scale":0.15},"occlusionTexture":{"index":15,"strength":0.35}},{"name":"paint-red","pbrMetallicRoughness":{"baseColorFactor":[0.46778379610254284,0.08021982030622662,0.05126945836711539,1],"roughnessFactor":0.62,"metallicFactor":0.05}}],"textures":[{"source":0,"sampler":0},{"source":1,"sampler":0},{"source":2,"sampler":0},{"source":3,"sampler":0},{"source":4,"sampler":0},{"source":5,"sampler":0},{"source":6,"sampler":0},{"source":7,"sampler":0},{"source":8,"sampler":0},{"source":9,"sampler":0},{"source":10,"sampler":0},{"source":11,"sampler":0},{"source":12,"sampler":0},{"source":13,"sampler":0},{"source":14,"sampler":0},{"source":15,"sampler":0}],"images":[{"uri":"../textures/concrete-albedo.png"},{"uri":"../textures/concrete-normal.png"},{"uri":"../textures/concrete-orm.png"},{"uri":"../textures/glass-blue-albedo.png"},{"uri":"../textures/glass-blue-normal.png"},{"uri":"../textures/glass-blue-orm.png"},{"uri":"../textures/metal-dark-albedo.png"},{"uri":"../textures/metal-dark-normal.png"},{"uri":"../textures/metal-dark-orm.png"},{"uri":"../signs/lease-eagle-motors.png"},{"uri":"../textures/rubber-albedo.png"},{"uri":"../textures/rubber-normal.png"},{"uri":"../textures/rubber-orm.png"},{"uri":"../textures/metal-galvanized-albedo.png"},{"uri":"../textures/metal-galvanized-normal.png"},{"uri":"../textures/metal-galvanized-orm.png"}],"samplers":[{"magFilter":9729,"minFilter":9987,"wrapS":10497,"wrapT":10497}],"buffers":[{"uri":"../shared/geometry.bin","byteLength":16435520}],"bufferViews":[{"buffer":0,"byteOffset":0,"byteLength":3888,"target":34962},{"buffer":0,"byteOffset":3888,"byteLength":3888,"target":34962},{"buffer":0,"byteOffset":7658816,"byteLength":2592,"target":34962},{"buffer":0,"byteOffset":868536,"byteLength":3888,"target":34962},{"buffer":0,"byteOffset":7661408,"byteLength":2592,"target":34962},{"buffer":0,"byteOffset":7664000,"byteLength":2592,"target":34962},{"buffer":0,"byteOffset":7604832,"byteLength":2592,"target":34962},{"buffer":0,"byteOffset":1428216,"byteLength":2592,"target":34962},{"buffer":0,"byteOffset":7607424,"byteLength":2592,"target":34962},{"buffer":0,"byteOffset":1433400,"byteLength":2592,"target":34962},{"buffer":0,"byteOffset":45664,"byteLength":288,"target":34962},{"buffer":0,"byteOffset":45952,"byteLength":288,"target":34962},{"buffer":0,"byteOffset":46240,"byteLength":192,"target":34962},{"buffer":0,"byteOffset":46432,"byteLength":72,"target":34963},{"buffer":0,"byteOffset":46504,"byteLength":48,"target":34962},{"buffer":0,"byteOffset":46552,"byteLength":48,"target":34962},{"buffer":0,"byteOffset":147012,"byteLength":32,"target":34962},{"buffer":0,"byteOffset":46632,"byteLength":12,"target":34963},{"buffer":0,"byteOffset":822696,"byteLength":3888,"target":34962},{"buffer":0,"byteOffset":7666592,"byteLength":2592,"target":34962},{"buffer":0,"byteOffset":7529872,"byteLength":2592,"target":34962},{"buffer":0,"byteOffset":7532464,"byteLength":2592,"target":34962},{"buffer":0,"byteOffset":7535056,"byteLength":3132,"target":34962},{"buffer":0,"byteOffset":390704,"byteLength":3132,"target":34962},{"buffer":0,"byteOffset":420224,"byteLength":2088,"target":34962},{"buffer":0,"byteOffset":395924,"byteLength":2688,"target":34963},{"buffer":0,"byteOffset":7538188,"byteLength":480,"target":34962},{"buffer":0,"byteOffset":7538668,"byteLength":480,"target":34962},{"buffer":0,"byteOffset":7612608,"byteLength":320,"target":34962},{"buffer":0,"byteOffset":48596,"byteLength":144,"target":34963},{"buffer":0,"byteOffset":7539468,"byteLength":2592,"target":34962},{"buffer":0,"byteOffset":422312,"byteLength":2592,"target":34962},{"buffer":0,"byteOffset":46644,"byteLength":288,"target":34962},{"buffer":0,"byteOffset":7669184,"byteLength":192,"target":34962},{"buffer":0,"byteOffset":7669376,"byteLength":192,"target":34962},{"buffer":0,"byteOffset":7669568,"byteLength":192,"target":34962},{"buffer":0,"byteOffset":7613504,"byteLength":192,"target":34962},{"buffer":0,"byteOffset":1447128,"byteLength":192,"target":34962},{"buffer":0,"byteOffset":7613696,"byteLength":192,"target":34962},{"buffer":0,"byteOffset":1447512,"byteLength":192,"target":34962},{"buffer":0,"byteOffset":7669760,"byteLength":192,"target":34962},{"buffer":0,"byteOffset":7543212,"byteLength":192,"target":34962},{"buffer":0,"byteOffset":7543404,"byteLength":192,"target":34962},{"buffer":0,"byteOffset":7543596,"byteLength":1428,"target":34962},{"buffer":0,"byteOffset":427996,"byteLength":1428,"target":34962},{"buffer":0,"byteOffset":435984,"byteLength":952,"target":34962},{"buffer":0,"byteOffset":430376,"byteLength":1152,"target":34963},{"buffer":0,"byteOffset":7545024,"byteLength":192,"target":34962},{"buffer":0,"byteOffset":436936,"byteLength":192,"target":34962},{"buffer":0,"byteOffset":7614080,"byteLength":192,"target":34962}],"accessors":[{"bufferView":0,"componentType":5126,"count":324,"type":"VEC3","min":[-0.5,-0.5,-0.5],"max":[0.5,0.5,0.5]},{"bufferView":1,"componentType":5126,"count":324,"type":"VEC3"},{"bufferView":2,"componentType":5126,"count":324,"type":"VEC2"},{"bufferView":3,"componentType":5126,"count":324,"type":"VEC3","min":[-0.5,-0.5,-0.5],"max":[0.5,0.5,0.5]},{"bufferView":4,"componentType":5126,"count":324,"type":"VEC2"},{"bufferView":5,"componentType":5126,"count":324,"type":"VEC2"},{"bufferView":6,"componentType":5126,"count":324,"type":"VEC2"},{"bufferView":7,"componentType":5126,"count":324,"type":"VEC2"},{"bufferView":8,"componentType":5126,"count":324,"type":"VEC2"},{"bufferView":9,"componentType":5126,"count":324,"type":"VEC2"},{"bufferView":10,"componentType":5126,"count":24,"type":"VEC3","min":[-0.5,-0.5,-0.02500000037252903],"max":[0.5,0.5,0.02500000037252903]},{"bufferView":11,"componentType":5126,"count":24,"type":"VEC3"},{"bufferView":12,"componentType":5126,"count":24,"type":"VEC2"},{"bufferView":13,"componentType":5123,"count":36,"type":"SCALAR"},{"bufferView":14,"componentType":5126,"count":4,"type":"VEC3","min":[-0.5,-0.5,0],"max":[0.5,0.5,0]},{"bufferView":15,"componentType":5126,"count":4,"type":"VEC3"},{"bufferView":16,"componentType":5126,"count":4,"type":"VEC2"},{"bufferView":17,"componentType":5123,"count":6,"type":"SCALAR"},{"bufferView":18,"componentType":5126,"count":324,"type":"VEC3","min":[-0.5,-0.5,-0.5],"max":[0.5,0.5,0.5]},{"bufferView":19,"componentType":5126,"count":324,"type":"VEC2"},{"bufferView":20,"componentType":5126,"count":324,"type":"VEC2"},{"bufferView":21,"componentType":5126,"count":324,"type":"VEC2"},{"bufferView":22,"componentType":5126,"count":261,"type":"VEC3","min":[-0.550000011920929,-0.550000011920929,-0.12999999523162842],"max":[0.550000011920929,0.550000011920929,0.12999999523162842]},{"bufferView":23,"componentType":5126,"count":261,"type":"VEC3"},{"bufferView":24,"componentType":5126,"count":261,"type":"VEC2"},{"bufferView":25,"componentType":5123,"count":1344,"type":"SCALAR"},{"bufferView":26,"componentType":5126,"count":40,"type":"VEC3","min":[-0.8660253882408142,-0.5,-1],"max":[0.8660253882408142,0.5,1]},{"bufferView":27,"componentType":5126,"count":40,"type":"VEC3"},{"bufferView":28,"componentType":5126,"count":40,"type":"VEC2"},{"bufferView":29,"componentType":5123,"count":72,"type":"SCALAR"},{"bufferView":30,"componentType":5126,"count":324,"type":"VEC2"},{"bufferView":31,"componentType":5126,"count":324,"type":"VEC2"},{"bufferView":32,"componentType":5126,"count":24,"type":"VEC3","min":[-0.5,-0.5,-0.5],"max":[0.5,0.5,0.5]},{"bufferView":33,"componentType":5126,"count":24,"type":"VEC2"},{"bufferView":34,"componentType":5126,"count":24,"type":"VEC2"},{"bufferView":35,"componentType":5126,"count":24,"type":"VEC2"},{"bufferView":36,"componentType":5126,"count":24,"type":"VEC2"},{"bufferView":37,"componentType":5126,"count":24,"type":"VEC2"},{"bufferView":38,"componentType":5126,"count":24,"type":"VEC2"},{"bufferView":39,"componentType":5126,"count":24,"type":"VEC2"},{"bufferView":40,"componentType":5126,"count":24,"type":"VEC2"},{"bufferView":41,"componentType":5126,"count":24,"type":"VEC2"},{"bufferView":42,"componentType":5126,"count":24,"type":"VEC2"},{"bufferView":43,"componentType":5126,"count":119,"type":"VEC3","min":[-0.550000011920929,-0.550000011920929,-0.11258330196142197],"max":[0.550000011920929,0.550000011920929,0.11258330196142197]},{"bufferView":44,"componentType":5126,"count":119,"type":"VEC3"},{"bufferView":45,"componentType":5126,"count":119,"type":"VEC2"},{"bufferView":46,"componentType":5123,"count":576,"type":"SCALAR"},{"bufferView":47,"componentType":5126,"count":24,"type":"VEC2"},{"bufferView":48,"componentType":5126,"count":24,"type":"VEC2"},{"bufferView":49,"componentType":5126,"count":24,"type":"VEC2"}],"extensionsUsed":["KHR_materials_unlit"],"extras":{"id":"vlt-lease-eagle-motors-10","family":"lease-eagle-motors","variant":9,"plan":"B5-1","units":"metres","up":"+Y","front":"+Z","lodScenes":[0,1,2]}}