{"asset":{"version":"2.0","generator":"SLOPMERICA Department of Unnecessary Development 1.0"},"scene":0,"scenes":[{"name":"LOD 0","nodes":[0,1,2,3,4,5,6,7,8,9,10,11,12,13,14,15,16,17],"extras":{"level":0}},{"name":"LOD 1","nodes":[18,19,20,21,22,23,24,25,26,27,28,29,30,31],"extras":{"level":1}},{"name":"LOD 2","nodes":[32,33,34,35,36,37,38,39],"extras":{"level":2}}],"nodes":[{"name":"foundation","mesh":0,"translation":[0,0.08,0],"scale":[17.56,0.16,13.24]},{"name":"seasonal-floor","mesh":1,"translation":[0,0.09,0],"scale":[15.36,0.18,11.04]},{"name":"tent-peak-0","mesh":2,"translation":[-5.8368,1.7949,0],"scale":[2,3.5898,2]},{"name":"tent-door-0","mesh":3,"translation":[-5.8368,0.72,3.4224],"scale":[0.7,1.4,0.08]},{"name":"tent-peak-1","mesh":4,"translation":[-1.9456,1.7949,0],"scale":[2,3.5898,2]},{"name":"tent-door-1","mesh":3,"translation":[-1.9456,0.72,3.4224],"scale":[0.7,1.4,0.08]},{"name":"tent-peak-2","mesh":2,"translation":[1.9456,1.7949,0],"scale":[2,3.5898,2]},{"name":"tent-door-2","mesh":3,"translation":[1.9456,0.72,3.4224],"scale":[0.7,1.4,0.08]},{"name":"tent-peak-3","mesh":4,"translation":[5.8368,1.7949,0],"scale":[2,3.5898,2]},{"name":"tent-door-3","mesh":3,"translation":[5.8368,0.72,3.4224],"scale":[0.7,1.4,0.08]},{"name":"inflatable-specter","mesh":5,"translation":[-6.6048,4.2267,-3.5328],"scale":[0.75,8.3955,0.75]},{"name":"specter-head","mesh":6,"translation":[-6.6048,8.4534,-3.5328],"scale":[0.72,0.72,0.72]},{"name":"busy-state-queue-bar","mesh":7,"translation":[0,0.65,6.9552],"scale":[11.0592,0.12,0.12]},{"name":"queue-car-0","mesh":8,"translation":[-4.608,0.34,7.728],"scale":[1.35,0.65,0.7]},{"name":"queue-car-1","mesh":9,"translation":[-2.304,0.34,8.6112],"scale":[1.35,0.65,0.7]},{"name":"queue-car-2","mesh":8,"translation":[0,0.34,7.728],"scale":[1.35,0.65,0.7]},{"name":"queue-car-3","mesh":9,"translation":[2.304,0.34,8.6112],"scale":[1.35,0.65,0.7]},{"name":"queue-car-4","mesh":8,"translation":[4.608,0.34,7.728],"scale":[1.35,0.65,0.7]},{"name":"foundation","mesh":10,"translation":[0,0.08,0],"scale":[17.56,0.16,13.24]},{"name":"seasonal-floor","mesh":11,"translation":[0,0.09,0],"scale":[15.36,0.18,11.04]},{"name":"tent-peak-0","mesh":2,"translation":[-5.8368,1.7949,0],"scale":[2,3.5898,2]},{"name":"tent-door-0","mesh":12,"translation":[-5.8368,0.72,3.4224],"scale":[0.7,1.4,0.08]},{"name":"tent-peak-1","mesh":4,"translation":[0,1.7949,0],"scale":[2,3.5898,2]},{"name":"tent-door-1","mesh":12,"translation":[0,0.72,3.4224],"scale":[0.7,1.4,0.08]},{"name":"tent-peak-2","mesh":2,"translation":[5.8368,1.7949,0],"scale":[2,3.5898,2]},{"name":"tent-door-2","mesh":12,"translation":[5.8368,0.72,3.4224],"scale":[0.7,1.4,0.08]},{"name":"inflatable-specter","mesh":13,"translation":[-6.6048,4.2267,-3.5328],"scale":[0.75,8.3955,0.75]},{"name":"specter-head","mesh":14,"translation":[-6.6048,8.4534,-3.5328],"scale":[0.72,0.72,0.72]},{"name":"busy-state-queue-bar","mesh":15,"translation":[0,0.65,6.9552],"scale":[11.0592,0.12,0.12]},{"name":"queue-car-0","mesh":16,"translation":[-4.608,0.34,7.728],"scale":[1.35,0.65,0.7]},{"name":"queue-car-1","mesh":17,"translation":[-2.304,0.34,8.6112],"scale":[1.35,0.65,0.7]},{"name":"queue-car-2","mesh":16,"translation":[0,0.34,7.728],"scale":[1.35,0.65,0.7]},{"name":"foundation","mesh":10,"translation":[0,0.08,0],"scale":[17.56,0.16,13.24]},{"name":"seasonal-floor","mesh":11,"translation":[0,0.09,0],"scale":[15.36,0.18,11.04]},{"name":"tent-peak-0","mesh":2,"translation":[-5.8368,1.7949,0],"scale":[2,3.5898,2]},{"name":"tent-door-0","mesh":12,"translation":[-5.8368,0.72,3.4224],"scale":[0.7,1.4,0.08]},{"name":"inflatable-specter","mesh":13,"translation":[-6.6048,4.2267,-3.5328],"scale":[0.75,8.3955,0.75]},{"name":"specter-head","mesh":18,"translation":[-6.6048,8.4534,-3.5328],"scale":[0.72,0.72,0.72]},{"name":"busy-state-queue-bar","mesh":15,"translation":[0,0.65,6.9552],"scale":[11.0592,0.12,0.12]},{"name":"queue-car-0","mesh":16,"translation":[-4.608,0.34,7.728],"scale":[1.35,0.65,0.7]}],"meshes":[{"primitives":[{"attributes":{"POSITION":0,"NORMAL":1,"TEXCOORD_0":2},"material":0,"mode":4}]},{"primitives":[{"attributes":{"POSITION":0,"NORMAL":1,"TEXCOORD_0":3},"material":0,"mode":4}]},{"primitives":[{"attributes":{"POSITION":4,"NORMAL":5,"TEXCOORD_0":6},"material":1,"mode":4,"indices":7}]},{"primitives":[{"attributes":{"POSITION":0,"NORMAL":1,"TEXCOORD_0":8},"material":2,"mode":4}]},{"primitives":[{"attributes":{"POSITION":4,"NORMAL":5,"TEXCOORD_0":9},"material":3,"mode":4,"indices":7}]},{"primitives":[{"attributes":{"POSITION":10,"NORMAL":11,"TEXCOORD_0":12},"material":4,"mode":4,"indices":13}]},{"primitives":[{"attributes":{"POSITION":14,"NORMAL":14,"TEXCOORD_0":15},"material":4,"mode":4,"indices":16}]},{"primitives":[{"attributes":{"POSITION":0,"NORMAL":1,"TEXCOORD_0":17},"material":3,"mode":4}]},{"primitives":[{"attributes":{"POSITION":0,"NORMAL":1,"TEXCOORD_0":18},"material":5,"mode":4}]},{"primitives":[{"attributes":{"POSITION":0,"NORMAL":1,"TEXCOORD_0":18},"material":6,"mode":4}]},{"primitives":[{"attributes":{"POSITION":19,"NORMAL":20,"TEXCOORD_0":21},"material":0,"mode":4,"indices":22}]},{"primitives":[{"attributes":{"POSITION":19,"NORMAL":20,"TEXCOORD_0":23},"material":0,"mode":4,"indices":22}]},{"primitives":[{"attributes":{"POSITION":19,"NORMAL":20,"TEXCOORD_0":24},"material":2,"mode":4,"indices":22}]},{"primitives":[{"attributes":{"POSITION":25,"NORMAL":26,"TEXCOORD_0":27},"material":4,"mode":4,"indices":7}]},{"primitives":[{"attributes":{"POSITION":28,"NORMAL":28,"TEXCOORD_0":29},"material":4,"mode":4,"indices":30}]},{"primitives":[{"attributes":{"POSITION":19,"NORMAL":20,"TEXCOORD_0":31},"material":3,"mode":4,"indices":22}]},{"primitives":[{"attributes":{"POSITION":19,"NORMAL":20,"TEXCOORD_0":32},"material":5,"mode":4,"indices":22}]},{"primitives":[{"attributes":{"POSITION":19,"NORMAL":20,"TEXCOORD_0":32},"material":6,"mode":4,"indices":22}]},{"primitives":[{"attributes":{"POSITION":33,"NORMAL":33,"TEXCOORD_0":34},"material":4,"mode":4,"indices":35}]}],"materials":[{"name":"concrete","pbrMetallicRoughness":{"baseColorTexture":{"index":0},"metallicRoughnessTexture":{"index":2},"roughnessFactor":1,"metallicFactor":1},"normalTexture":{"index":1,"scale":0.82},"occlusionTexture":{"index":2,"strength":0.35}},{"name":"metal-dark","pbrMetallicRoughness":{"baseColorTexture":{"index":3},"metallicRoughnessTexture":{"index":5},"roughnessFactor":1,"metallicFactor":1},"normalTexture":{"index":4,"scale":0.35},"occlusionTexture":{"index":5,"strength":0.35}},{"name":"glass-blue","pbrMetallicRoughness":{"baseColorTexture":{"index":6},"metallicRoughnessTexture":{"index":8},"roughnessFactor":1,"metallicFactor":1},"normalTexture":{"index":7,"scale":0.12},"occlusionTexture":{"index":8,"strength":0.35}},{"name":"paint-orange","pbrMetallicRoughness":{"baseColorFactor":[0.6444796819634361,0.1878207722902346,0.040915196900556984,1],"roughnessFactor":0.68,"metallicFactor":0.03}},{"name":"paint-white","pbrMetallicRoughness":{"baseColorFactor":[0.7912979403281551,0.7681511472425809,0.6795424696265424,1],"roughnessFactor":0.68,"metallicFactor":0}},{"name":"paint-red","pbrMetallicRoughness":{"baseColorFactor":[0.46778379610254284,0.08021982030622662,0.05126945836711539,1],"roughnessFactor":0.62,"metallicFactor":0.05}},{"name":"paint-blue","pbrMetallicRoughness":{"baseColorFactor":[0.05126945836711539,0.10946171076915331,0.22696587349938613,1],"roughnessFactor":0.58,"metallicFactor":0.05}}],"textures":[{"source":0,"sampler":0},{"source":1,"sampler":0},{"source":2,"sampler":0},{"source":3,"sampler":0},{"source":4,"sampler":0},{"source":5,"sampler":0},{"source":6,"sampler":0},{"source":7,"sampler":0},{"source":8,"sampler":0}],"images":[{"uri":"../textures/concrete-albedo.png"},{"uri":"../textures/concrete-normal.png"},{"uri":"../textures/concrete-orm.png"},{"uri":"../textures/metal-dark-albedo.png"},{"uri":"../textures/metal-dark-normal.png"},{"uri":"../textures/metal-dark-orm.png"},{"uri":"../textures/glass-blue-albedo.png"},{"uri":"../textures/glass-blue-normal.png"},{"uri":"../textures/glass-blue-orm.png"}],"samplers":[{"magFilter":9729,"minFilter":9987,"wrapS":10497,"wrapT":10497}],"buffers":[{"uri":"../shared/geometry.bin","byteLength":16435520}],"bufferViews":[{"buffer":0,"byteOffset":0,"byteLength":3888,"target":34962},{"buffer":0,"byteOffset":3888,"byteLength":3888,"target":34962},{"buffer":0,"byteOffset":10556272,"byteLength":2592,"target":34962},{"buffer":0,"byteOffset":10558864,"byteLength":2592,"target":34962},{"buffer":0,"byteOffset":10544624,"byteLength":480,"target":34962},{"buffer":0,"byteOffset":10545104,"byteLength":480,"target":34962},{"buffer":0,"byteOffset":10561456,"byteLength":320,"target":34962},{"buffer":0,"byteOffset":48596,"byteLength":144,"target":34963},{"buffer":0,"byteOffset":10545904,"byteLength":2592,"target":34962},{"buffer":0,"byteOffset":10561776,"byteLength":320,"target":34962},{"buffer":0,"byteOffset":10548816,"byteLength":768,"target":34962},{"buffer":0,"byteOffset":10549584,"byteLength":768,"target":34962},{"buffer":0,"byteOffset":10562096,"byteLength":512,"target":34962},{"buffer":0,"byteOffset":882248,"byteLength":240,"target":34963},{"buffer":0,"byteOffset":6080864,"byteLength":3276,"target":34962},{"buffer":0,"byteOffset":10550864,"byteLength":2184,"target":34962},{"buffer":0,"byteOffset":6086324,"byteLength":2640,"target":34963},{"buffer":0,"byteOffset":10670736,"byteLength":2592,"target":34962},{"buffer":0,"byteOffset":582912,"byteLength":2592,"target":34962},{"buffer":0,"byteOffset":46644,"byteLength":288,"target":34962},{"buffer":0,"byteOffset":45952,"byteLength":288,"target":34962},{"buffer":0,"byteOffset":10562608,"byteLength":192,"target":34962},{"buffer":0,"byteOffset":46432,"byteLength":72,"target":34963},{"buffer":0,"byteOffset":10562800,"byteLength":192,"target":34962},{"buffer":0,"byteOffset":10553432,"byteLength":192,"target":34962},{"buffer":0,"byteOffset":10553624,"byteLength":480,"target":34962},{"buffer":0,"byteOffset":10554104,"byteLength":480,"target":34962},{"buffer":0,"byteOffset":10562992,"byteLength":320,"target":34962},{"buffer":0,"byteOffset":6096692,"byteLength":1404,"target":34962},{"buffer":0,"byteOffset":10554904,"byteLength":936,"target":34962},{"buffer":0,"byteOffset":6099032,"byteLength":1008,"target":34963},{"buffer":0,"byteOffset":10673328,"byteLength":192,"target":34962},{"buffer":0,"byteOffset":585696,"byteLength":192,"target":34962},{"buffer":0,"byteOffset":6871440,"byteLength":648,"target":34962},{"buffer":0,"byteOffset":10555840,"byteLength":432,"target":34962},{"buffer":0,"byteOffset":6872520,"byteLength":384,"target":34963}],"accessors":[{"bufferView":0,"componentType":5126,"count":324,"type":"VEC3","min":[-0.5,-0.5,-0.5],"max":[0.5,0.5,0.5]},{"bufferView":1,"componentType":5126,"count":324,"type":"VEC3"},{"bufferView":2,"componentType":5126,"count":324,"type":"VEC2"},{"bufferView":3,"componentType":5126,"count":324,"type":"VEC2"},{"bufferView":4,"componentType":5126,"count":40,"type":"VEC3","min":[-0.8660253882408142,-0.5,-1],"max":[0.8660253882408142,0.5,1]},{"bufferView":5,"componentType":5126,"count":40,"type":"VEC3"},{"bufferView":6,"componentType":5126,"count":40,"type":"VEC2"},{"bufferView":7,"componentType":5123,"count":72,"type":"SCALAR"},{"bufferView":8,"componentType":5126,"count":324,"type":"VEC2"},{"bufferView":9,"componentType":5126,"count":40,"type":"VEC2"},{"bufferView":10,"componentType":5126,"count":64,"type":"VEC3","min":[-0.9510565400123596,-0.5,-1],"max":[0.9510565400123596,0.5,1]},{"bufferView":11,"componentType":5126,"count":64,"type":"VEC3"},{"bufferView":12,"componentType":5126,"count":64,"type":"VEC2"},{"bufferView":13,"componentType":5123,"count":120,"type":"SCALAR"},{"bufferView":14,"componentType":5126,"count":273,"type":"VEC3","min":[-1,-1,-1],"max":[1,1,1]},{"bufferView":15,"componentType":5126,"count":273,"type":"VEC2"},{"bufferView":16,"componentType":5123,"count":1320,"type":"SCALAR"},{"bufferView":17,"componentType":5126,"count":324,"type":"VEC2"},{"bufferView":18,"componentType":5126,"count":324,"type":"VEC2"},{"bufferView":19,"componentType":5126,"count":24,"type":"VEC3","min":[-0.5,-0.5,-0.5],"max":[0.5,0.5,0.5]},{"bufferView":20,"componentType":5126,"count":24,"type":"VEC3"},{"bufferView":21,"componentType":5126,"count":24,"type":"VEC2"},{"bufferView":22,"componentType":5123,"count":36,"type":"SCALAR"},{"bufferView":23,"componentType":5126,"count":24,"type":"VEC2"},{"bufferView":24,"componentType":5126,"count":24,"type":"VEC2"},{"bufferView":25,"componentType":5126,"count":40,"type":"VEC3","min":[-0.8660253882408142,-0.5,-1],"max":[0.8660253882408142,0.5,1]},{"bufferView":26,"componentType":5126,"count":40,"type":"VEC3"},{"bufferView":27,"componentType":5126,"count":40,"type":"VEC2"},{"bufferView":28,"componentType":5126,"count":117,"type":"VEC3","min":[-1,-1,-1],"max":[1,1,1]},{"bufferView":29,"componentType":5126,"count":117,"type":"VEC2"},{"bufferView":30,"componentType":5123,"count":504,"type":"SCALAR"},{"bufferView":31,"componentType":5126,"count":24,"type":"VEC2"},{"bufferView":32,"componentType":5126,"count":24,"type":"VEC2"},{"bufferView":33,"componentType":5126,"count":54,"type":"VEC3","min":[-0.9510565400123596,-1,-0.9510565400123596],"max":[0.9510565400123596,1,0.9510565400123596]},{"bufferView":34,"componentType":5126,"count":54,"type":"VEC2"},{"bufferView":35,"componentType":5123,"count":192,"type":"SCALAR"}],"extensionsUsed":["KHR_materials_unlit"],"extras":{"id":"vlt-popup-afterlife-22","family":"popup-afterlife","variant":21,"plan":"A2-2","units":"metres","up":"+Y","front":"+Z","lodScenes":[0,1,2]}}