{"asset":{"version":"2.0","generator":"SLOPMERICA Department of Unnecessary Development 1.0"},"scene":0,"scenes":[{"name":"LOD 0","nodes":[0,1,2,3,4,5,6,7,8,9,10,11,12,13,14,15,16,17,18,19,20,21,22,23,24,25,26],"extras":{"level":0}},{"name":"LOD 1","nodes":[27,28,29,30,31,32,33,34,35,36,37,38,39,40,41,42,43,44,45,46,47,48,49,50,51,52,53],"extras":{"level":1}},{"name":"LOD 2","nodes":[54,55,56,57,58,59,60,61,62,63,64,65,66,67,68],"extras":{"level":2}}],"nodes":[{"name":"site-pad","mesh":0,"translation":[0,0.06,0],"scale":[14.0608,0.12,9.7344]},{"name":"variant-apron","mesh":1,"translation":[-0.8788,0.13,4.9],"scale":[3.6504,0.08,0.98]},{"name":"bollard-0","mesh":2,"translation":[-5.1376,0.43,5.02],"scale":[0.08,0.66,0.08]},{"name":"bollard-1","mesh":2,"translation":[0,0.43,5.02],"scale":[0.08,0.66,0.08]},{"name":"bollard-2","mesh":2,"translation":[5.1376,0.43,5.02],"scale":[0.08,0.66,0.08]},{"name":"layout-cabinet","mesh":3,"translation":[6.96,0.555,-0.702],"scale":[0.57,0.87,0.32]},{"name":"industrial-shell","mesh":4,"translation":[0,2.645,0],"scale":[13.52,5.05,9.36]},{"name":"industrial-roof","mesh":5,"translation":[0,5.32,0],"scale":[13.87,0.28,9.71]},{"name":"loading-bay-0","mesh":6,"translation":[-5.1376,1.38,4.8],"scale":[2.2,2.5,0.16]},{"name":"dock-0","mesh":7,"translation":[-5.1376,0.35,5.26],"scale":[1.8,0.45,1]},{"name":"loading-bay-1","mesh":6,"translation":[-1.712533,1.38,4.8],"scale":[2.2,2.5,0.16]},{"name":"dock-1","mesh":7,"translation":[-1.712533,0.35,5.26],"scale":[1.8,0.45,1]},{"name":"loading-bay-2","mesh":6,"translation":[1.712533,1.38,4.8],"scale":[2.2,2.5,0.16]},{"name":"dock-2","mesh":7,"translation":[1.712533,0.35,5.26],"scale":[1.8,0.45,1]},{"name":"loading-bay-3","mesh":6,"translation":[5.1376,1.38,4.8],"scale":[2.2,2.5,0.16]},{"name":"dock-3","mesh":7,"translation":[5.1376,0.35,5.26],"scale":[1.8,0.45,1]},{"name":"stored-blade-0","mesh":8,"translation":[-4.732,0.55,-7.08],"scale":[0.32,0.55,8]},{"name":"stored-blade-1","mesh":8,"translation":[-1.577333,0.55,-7.08],"rotation":[0,0.039989,0,0.9992],"scale":[0.32,0.55,8]},{"name":"stored-blade-2","mesh":8,"translation":[1.577333,0.55,-7.08],"rotation":[0,0.079915,0,0.996802],"scale":[0.32,0.55,8]},{"name":"stored-blade-3","mesh":8,"translation":[4.732,0.55,-7.08],"rotation":[0,0.119712,0,0.992809],"scale":[0.32,0.55,8]},{"name":"demo-tower","mesh":9,"translation":[4.732,8.05,0],"scale":[0.55,9.1,0.55]},{"name":"demo-hub","mesh":10,"translation":[4.732,13.15,0.45],"scale":[0.42,0.42,0.55]},{"name":"demo-blade-0","mesh":11,"translation":[6.082,13.15,0.5],"scale":[0.16,3.2,0.25]},{"name":"demo-blade-1","mesh":11,"translation":[4.057,14.319134,0.5],"rotation":[0,0,-0.866025,0.5],"scale":[0.16,3.2,0.25]},{"name":"demo-blade-2","mesh":11,"translation":[4.057,11.980866,0.5],"rotation":[0,0,0.866025,0.5],"scale":[0.16,3.2,0.25]},{"name":"wind-sign-back","mesh":12,"translation":[0,4.25,4.86],"scale":[4.4,1,1]},{"name":"wind-sign","mesh":13,"translation":[0,4.25,4.889],"scale":[4.3,0.9,1]},{"name":"site-pad","mesh":14,"translation":[0,0.06,0],"scale":[14.0608,0.12,9.7344]},{"name":"variant-apron","mesh":15,"translation":[-0.8788,0.13,4.9],"scale":[3.6504,0.08,0.98]},{"name":"bollard-0","mesh":16,"translation":[-5.1376,0.43,5.02],"scale":[0.08,0.66,0.08]},{"name":"bollard-1","mesh":16,"translation":[0,0.43,5.02],"scale":[0.08,0.66,0.08]},{"name":"bollard-2","mesh":16,"translation":[5.1376,0.43,5.02],"scale":[0.08,0.66,0.08]},{"name":"layout-cabinet","mesh":17,"translation":[6.96,0.555,-0.702],"scale":[0.57,0.87,0.32]},{"name":"industrial-shell","mesh":18,"translation":[0,2.645,0],"scale":[13.52,5.05,9.36]},{"name":"industrial-roof","mesh":19,"translation":[0,5.32,0],"scale":[13.87,0.28,9.71]},{"name":"loading-bay-0","mesh":20,"translation":[-5.1376,1.38,4.8],"scale":[2.2,2.5,0.16]},{"name":"dock-0","mesh":21,"translation":[-5.1376,0.35,5.26],"scale":[1.8,0.45,1]},{"name":"loading-bay-1","mesh":20,"translation":[-1.712533,1.38,4.8],"scale":[2.2,2.5,0.16]},{"name":"dock-1","mesh":21,"translation":[-1.712533,0.35,5.26],"scale":[1.8,0.45,1]},{"name":"loading-bay-2","mesh":20,"translation":[1.712533,1.38,4.8],"scale":[2.2,2.5,0.16]},{"name":"dock-2","mesh":21,"translation":[1.712533,0.35,5.26],"scale":[1.8,0.45,1]},{"name":"loading-bay-3","mesh":20,"translation":[5.1376,1.38,4.8],"scale":[2.2,2.5,0.16]},{"name":"dock-3","mesh":21,"translation":[5.1376,0.35,5.26],"scale":[1.8,0.45,1]},{"name":"stored-blade-0","mesh":22,"translation":[-4.732,0.55,-7.08],"scale":[0.32,0.55,8]},{"name":"stored-blade-1","mesh":22,"translation":[-1.577333,0.55,-7.08],"rotation":[0,0.039989,0,0.9992],"scale":[0.32,0.55,8]},{"name":"stored-blade-2","mesh":22,"translation":[1.577333,0.55,-7.08],"rotation":[0,0.079915,0,0.996802],"scale":[0.32,0.55,8]},{"name":"stored-blade-3","mesh":22,"translation":[4.732,0.55,-7.08],"rotation":[0,0.119712,0,0.992809],"scale":[0.32,0.55,8]},{"name":"demo-tower","mesh":23,"translation":[4.732,8.05,0],"scale":[0.55,9.1,0.55]},{"name":"demo-hub","mesh":24,"translation":[4.732,13.15,0.45],"scale":[0.42,0.42,0.55]},{"name":"demo-blade-0","mesh":25,"translation":[6.082,13.15,0.5],"scale":[0.16,3.2,0.25]},{"name":"demo-blade-1","mesh":25,"translation":[4.057,14.319134,0.5],"rotation":[0,0,-0.866025,0.5],"scale":[0.16,3.2,0.25]},{"name":"demo-blade-2","mesh":25,"translation":[4.057,11.980866,0.5],"rotation":[0,0,0.866025,0.5],"scale":[0.16,3.2,0.25]},{"name":"wind-sign-back","mesh":12,"translation":[0,4.25,4.86],"scale":[4.4,1,1]},{"name":"wind-sign","mesh":13,"translation":[0,4.25,4.889],"scale":[4.3,0.9,1]},{"name":"site-pad","mesh":14,"translation":[0,0.06,0],"scale":[14.0608,0.12,9.7344]},{"name":"variant-apron","mesh":15,"translation":[-0.8788,0.13,4.9],"scale":[3.6504,0.08,0.98]},{"name":"bollard-0","mesh":16,"translation":[-5.1376,0.43,5.02],"scale":[0.08,0.66,0.08]},{"name":"layout-cabinet","mesh":17,"translation":[6.96,0.555,-0.702],"scale":[0.57,0.87,0.32]},{"name":"industrial-shell","mesh":18,"translation":[0,2.645,0],"scale":[13.52,5.05,9.36]},{"name":"industrial-roof","mesh":19,"translation":[0,5.32,0],"scale":[13.87,0.28,9.71]},{"name":"loading-bay-0","mesh":20,"translation":[-5.1376,1.38,4.8],"scale":[2.2,2.5,0.16]},{"name":"loading-bay-1","mesh":20,"translation":[5.1376,1.38,4.8],"scale":[2.2,2.5,0.16]},{"name":"stored-blade-0","mesh":22,"translation":[-4.732,0.55,-7.08],"scale":[0.32,0.55,8]},{"name":"demo-tower","mesh":23,"translation":[4.732,8.05,0],"scale":[0.55,9.1,0.55]},{"name":"demo-hub","mesh":26,"translation":[4.732,13.15,0.45],"scale":[0.42,0.42,0.55]},{"name":"demo-blade-0","mesh":25,"translation":[6.082,13.15,0.5],"scale":[0.16,3.2,0.25]},{"name":"demo-blade-1","mesh":25,"translation":[3.382,13.15,0.5],"rotation":[0,0,1,0],"scale":[0.16,3.2,0.25]},{"name":"wind-sign-back","mesh":12,"translation":[0,4.25,4.86],"scale":[4.4,1,1]},{"name":"wind-sign","mesh":13,"translation":[0,4.25,4.889],"scale":[4.3,0.9,1]}],"meshes":[{"primitives":[{"attributes":{"POSITION":0,"NORMAL":1,"TEXCOORD_0":2},"material":0,"mode":4}]},{"primitives":[{"attributes":{"POSITION":0,"NORMAL":1,"TEXCOORD_0":3},"material":0,"mode":4}]},{"primitives":[{"attributes":{"POSITION":4,"NORMAL":5,"TEXCOORD_0":6},"material":1,"mode":4,"indices":7}]},{"primitives":[{"attributes":{"POSITION":0,"NORMAL":1,"TEXCOORD_0":8},"material":2,"mode":4}]},{"primitives":[{"attributes":{"POSITION":9,"NORMAL":1,"TEXCOORD_0":10},"material":3,"mode":4}]},{"primitives":[{"attributes":{"POSITION":0,"NORMAL":1,"TEXCOORD_0":11},"material":4,"mode":4}]},{"primitives":[{"attributes":{"POSITION":0,"NORMAL":1,"TEXCOORD_0":12},"material":5,"mode":4}]},{"primitives":[{"attributes":{"POSITION":0,"NORMAL":1,"TEXCOORD_0":13},"material":6,"mode":4}]},{"primitives":[{"attributes":{"POSITION":0,"NORMAL":1,"TEXCOORD_0":14},"material":3,"mode":4}]},{"primitives":[{"attributes":{"POSITION":15,"NORMAL":16,"TEXCOORD_0":17},"material":3,"mode":4,"indices":7}]},{"primitives":[{"attributes":{"POSITION":18,"NORMAL":18,"TEXCOORD_0":19},"material":5,"mode":4,"indices":20}]},{"primitives":[{"attributes":{"POSITION":0,"NORMAL":1,"TEXCOORD_0":21},"material":3,"mode":4}]},{"primitives":[{"attributes":{"POSITION":22,"NORMAL":23,"TEXCOORD_0":24},"material":5,"mode":4,"indices":25}]},{"primitives":[{"attributes":{"POSITION":26,"NORMAL":27,"TEXCOORD_0":28},"material":7,"mode":4,"indices":29}]},{"primitives":[{"attributes":{"POSITION":30,"NORMAL":23,"TEXCOORD_0":31},"material":0,"mode":4,"indices":25}]},{"primitives":[{"attributes":{"POSITION":30,"NORMAL":23,"TEXCOORD_0":32},"material":0,"mode":4,"indices":25}]},{"primitives":[{"attributes":{"POSITION":33,"NORMAL":34,"TEXCOORD_0":35},"material":1,"mode":4,"indices":36}]},{"primitives":[{"attributes":{"POSITION":30,"NORMAL":23,"TEXCOORD_0":37},"material":2,"mode":4,"indices":25}]},{"primitives":[{"attributes":{"POSITION":30,"NORMAL":23,"TEXCOORD_0":38},"material":3,"mode":4,"indices":25}]},{"primitives":[{"attributes":{"POSITION":30,"NORMAL":23,"TEXCOORD_0":39},"material":4,"mode":4,"indices":25}]},{"primitives":[{"attributes":{"POSITION":30,"NORMAL":23,"TEXCOORD_0":40},"material":5,"mode":4,"indices":25}]},{"primitives":[{"attributes":{"POSITION":30,"NORMAL":23,"TEXCOORD_0":41},"material":6,"mode":4,"indices":25}]},{"primitives":[{"attributes":{"POSITION":30,"NORMAL":23,"TEXCOORD_0":42},"material":3,"mode":4,"indices":25}]},{"primitives":[{"attributes":{"POSITION":43,"NORMAL":44,"TEXCOORD_0":45},"material":3,"mode":4,"indices":36}]},{"primitives":[{"attributes":{"POSITION":46,"NORMAL":46,"TEXCOORD_0":47},"material":5,"mode":4,"indices":48}]},{"primitives":[{"attributes":{"POSITION":30,"NORMAL":23,"TEXCOORD_0":49},"material":3,"mode":4,"indices":25}]},{"primitives":[{"attributes":{"POSITION":50,"NORMAL":50,"TEXCOORD_0":51},"material":5,"mode":4,"indices":52}]}],"materials":[{"name":"asphalt","pbrMetallicRoughness":{"baseColorTexture":{"index":0},"metallicRoughnessTexture":{"index":2},"roughnessFactor":1,"metallicFactor":1},"normalTexture":{"index":1,"scale":0.62},"occlusionTexture":{"index":2,"strength":0.35}},{"name":"paint-yellow","pbrMetallicRoughness":{"baseColorFactor":[0.76052450467022,0.4793201830913402,0.07818742179702069,1],"roughnessFactor":0.66,"metallicFactor":0.03}},{"name":"metal-galvanized","pbrMetallicRoughness":{"baseColorTexture":{"index":3},"metallicRoughnessTexture":{"index":5},"roughnessFactor":1,"metallicFactor":1},"normalTexture":{"index":4,"scale":0.15},"occlusionTexture":{"index":5,"strength":0.35}},{"name":"paint-white","pbrMetallicRoughness":{"baseColorFactor":[0.7912979403281551,0.7681511472425809,0.6795424696265424,1],"roughnessFactor":0.68,"metallicFactor":0}},{"name":"roof-metal","pbrMetallicRoughness":{"baseColorTexture":{"index":6},"metallicRoughnessTexture":{"index":8},"roughnessFactor":1,"metallicFactor":1},"normalTexture":{"index":7,"scale":0.68},"occlusionTexture":{"index":8,"strength":0.35}},{"name":"metal-dark","pbrMetallicRoughness":{"baseColorTexture":{"index":9},"metallicRoughnessTexture":{"index":11},"roughnessFactor":1,"metallicFactor":1},"normalTexture":{"index":10,"scale":0.35},"occlusionTexture":{"index":11,"strength":0.35}},{"name":"concrete","pbrMetallicRoughness":{"baseColorTexture":{"index":12},"metallicRoughnessTexture":{"index":14},"roughnessFactor":1,"metallicFactor":1},"normalTexture":{"index":13,"scale":0.82},"occlusionTexture":{"index":14,"strength":0.35}},{"name":"wind-service-yard signage","pbrMetallicRoughness":{"baseColorTexture":{"index":15},"roughnessFactor":1,"metallicFactor":0},"extensions":{"KHR_materials_unlit":{}}}],"textures":[{"source":0,"sampler":0},{"source":1,"sampler":0},{"source":2,"sampler":0},{"source":3,"sampler":0},{"source":4,"sampler":0},{"source":5,"sampler":0},{"source":6,"sampler":0},{"source":7,"sampler":0},{"source":8,"sampler":0},{"source":9,"sampler":0},{"source":10,"sampler":0},{"source":11,"sampler":0},{"source":12,"sampler":0},{"source":13,"sampler":0},{"source":14,"sampler":0},{"source":15,"sampler":0}],"images":[{"uri":"../textures/asphalt-albedo.png"},{"uri":"../textures/asphalt-normal.png"},{"uri":"../textures/asphalt-orm.png"},{"uri":"../textures/metal-galvanized-albedo.png"},{"uri":"../textures/metal-galvanized-normal.png"},{"uri":"../textures/metal-galvanized-orm.png"},{"uri":"../textures/roof-metal-albedo.png"},{"uri":"../textures/roof-metal-normal.png"},{"uri":"../textures/roof-metal-orm.png"},{"uri":"../textures/metal-dark-albedo.png"},{"uri":"../textures/metal-dark-normal.png"},{"uri":"../textures/metal-dark-orm.png"},{"uri":"../textures/concrete-albedo.png"},{"uri":"../textures/concrete-normal.png"},{"uri":"../textures/concrete-orm.png"},{"uri":"../signs/wind-service-yard.png"}],"samplers":[{"magFilter":9729,"minFilter":9987,"wrapS":10497,"wrapT":10497}],"buffers":[{"uri":"../shared/geometry.bin","byteLength":16435520}],"bufferViews":[{"buffer":0,"byteOffset":0,"byteLength":3888,"target":34962},{"buffer":0,"byteOffset":3888,"byteLength":3888,"target":34962},{"buffer":0,"byteOffset":5988608,"byteLength":2592,"target":34962},{"buffer":0,"byteOffset":6029824,"byteLength":2592,"target":34962},{"buffer":0,"byteOffset":12960,"byteLength":1200,"target":34962},{"buffer":0,"byteOffset":14160,"byteLength":1200,"target":34962},{"buffer":0,"byteOffset":120900,"byteLength":800,"target":34962},{"buffer":0,"byteOffset":16160,"byteLength":384,"target":34963},{"buffer":0,"byteOffset":133220,"byteLength":2592,"target":34962},{"buffer":0,"byteOffset":19136,"byteLength":3888,"target":34962},{"buffer":0,"byteOffset":16301312,"byteLength":2592,"target":34962},{"buffer":0,"byteOffset":5996384,"byteLength":2592,"target":34962},{"buffer":0,"byteOffset":28208,"byteLength":2592,"target":34962},{"buffer":0,"byteOffset":30800,"byteLength":2592,"target":34962},{"buffer":0,"byteOffset":16313024,"byteLength":2592,"target":34962},{"buffer":0,"byteOffset":5071160,"byteLength":1200,"target":34962},{"buffer":0,"byteOffset":5072360,"byteLength":1200,"target":34962},{"buffer":0,"byteOffset":16303904,"byteLength":800,"target":34962},{"buffer":0,"byteOffset":6080864,"byteLength":3276,"target":34962},{"buffer":0,"byteOffset":16290368,"byteLength":2184,"target":34962},{"buffer":0,"byteOffset":6086324,"byteLength":2640,"target":34963},{"buffer":0,"byteOffset":16315616,"byteLength":2592,"target":34962},{"buffer":0,"byteOffset":45664,"byteLength":288,"target":34962},{"buffer":0,"byteOffset":45952,"byteLength":288,"target":34962},{"buffer":0,"byteOffset":46240,"byteLength":192,"target":34962},{"buffer":0,"byteOffset":46432,"byteLength":72,"target":34963},{"buffer":0,"byteOffset":46504,"byteLength":48,"target":34962},{"buffer":0,"byteOffset":46552,"byteLength":48,"target":34962},{"buffer":0,"byteOffset":135812,"byteLength":32,"target":34962},{"buffer":0,"byteOffset":46632,"byteLength":12,"target":34963},{"buffer":0,"byteOffset":46644,"byteLength":288,"target":34962},{"buffer":0,"byteOffset":5998976,"byteLength":192,"target":34962},{"buffer":0,"byteOffset":6032416,"byteLength":192,"target":34962},{"buffer":0,"byteOffset":47316,"byteLength":480,"target":34962},{"buffer":0,"byteOffset":47796,"byteLength":480,"target":34962},{"buffer":0,"byteOffset":124516,"byteLength":320,"target":34962},{"buffer":0,"byteOffset":48596,"byteLength":144,"target":34963},{"buffer":0,"byteOffset":136036,"byteLength":192,"target":34962},{"buffer":0,"byteOffset":16304704,"byteLength":192,"target":34962},{"buffer":0,"byteOffset":5999552,"byteLength":192,"target":34962},{"buffer":0,"byteOffset":49316,"byteLength":192,"target":34962},{"buffer":0,"byteOffset":49508,"byteLength":192,"target":34962},{"buffer":0,"byteOffset":16318208,"byteLength":192,"target":34962},{"buffer":0,"byteOffset":5086408,"byteLength":480,"target":34962},{"buffer":0,"byteOffset":5086888,"byteLength":480,"target":34962},{"buffer":0,"byteOffset":16304896,"byteLength":320,"target":34962},{"buffer":0,"byteOffset":6096692,"byteLength":1404,"target":34962},{"buffer":0,"byteOffset":16295848,"byteLength":936,"target":34962},{"buffer":0,"byteOffset":6099032,"byteLength":1008,"target":34963},{"buffer":0,"byteOffset":16318400,"byteLength":192,"target":34962},{"buffer":0,"byteOffset":6871440,"byteLength":648,"target":34962},{"buffer":0,"byteOffset":16296976,"byteLength":432,"target":34962},{"buffer":0,"byteOffset":6872520,"byteLength":384,"target":34963}],"accessors":[{"bufferView":0,"componentType":5126,"count":324,"type":"VEC3","min":[-0.5,-0.5,-0.5],"max":[0.5,0.5,0.5]},{"bufferView":1,"componentType":5126,"count":324,"type":"VEC3"},{"bufferView":2,"componentType":5126,"count":324,"type":"VEC2"},{"bufferView":3,"componentType":5126,"count":324,"type":"VEC2"},{"bufferView":4,"componentType":5126,"count":100,"type":"VEC3","min":[-1,-0.5,-1],"max":[1,0.5,1]},{"bufferView":5,"componentType":5126,"count":100,"type":"VEC3"},{"bufferView":6,"componentType":5126,"count":100,"type":"VEC2"},{"bufferView":7,"componentType":5123,"count":192,"type":"SCALAR"},{"bufferView":8,"componentType":5126,"count":324,"type":"VEC2"},{"bufferView":9,"componentType":5126,"count":324,"type":"VEC3","min":[-0.5,-0.5,-0.5],"max":[0.5,0.5,0.5]},{"bufferView":10,"componentType":5126,"count":324,"type":"VEC2"},{"bufferView":11,"componentType":5126,"count":324,"type":"VEC2"},{"bufferView":12,"componentType":5126,"count":324,"type":"VEC2"},{"bufferView":13,"componentType":5126,"count":324,"type":"VEC2"},{"bufferView":14,"componentType":5126,"count":324,"type":"VEC2"},{"bufferView":15,"componentType":5126,"count":100,"type":"VEC3","min":[-1,-0.5,-1],"max":[1,0.5,1]},{"bufferView":16,"componentType":5126,"count":100,"type":"VEC3"},{"bufferView":17,"componentType":5126,"count":100,"type":"VEC2"},{"bufferView":18,"componentType":5126,"count":273,"type":"VEC3","min":[-1,-1,-1],"max":[1,1,1]},{"bufferView":19,"componentType":5126,"count":273,"type":"VEC2"},{"bufferView":20,"componentType":5123,"count":1320,"type":"SCALAR"},{"bufferView":21,"componentType":5126,"count":324,"type":"VEC2"},{"bufferView":22,"componentType":5126,"count":24,"type":"VEC3","min":[-0.5,-0.5,-0.02500000037252903],"max":[0.5,0.5,0.02500000037252903]},{"bufferView":23,"componentType":5126,"count":24,"type":"VEC3"},{"bufferView":24,"componentType":5126,"count":24,"type":"VEC2"},{"bufferView":25,"componentType":5123,"count":36,"type":"SCALAR"},{"bufferView":26,"componentType":5126,"count":4,"type":"VEC3","min":[-0.5,-0.5,0],"max":[0.5,0.5,0]},{"bufferView":27,"componentType":5126,"count":4,"type":"VEC3"},{"bufferView":28,"componentType":5126,"count":4,"type":"VEC2"},{"bufferView":29,"componentType":5123,"count":6,"type":"SCALAR"},{"bufferView":30,"componentType":5126,"count":24,"type":"VEC3","min":[-0.5,-0.5,-0.5],"max":[0.5,0.5,0.5]},{"bufferView":31,"componentType":5126,"count":24,"type":"VEC2"},{"bufferView":32,"componentType":5126,"count":24,"type":"VEC2"},{"bufferView":33,"componentType":5126,"count":40,"type":"VEC3","min":[-0.8660253882408142,-0.5,-1],"max":[0.8660253882408142,0.5,1]},{"bufferView":34,"componentType":5126,"count":40,"type":"VEC3"},{"bufferView":35,"componentType":5126,"count":40,"type":"VEC2"},{"bufferView":36,"componentType":5123,"count":72,"type":"SCALAR"},{"bufferView":37,"componentType":5126,"count":24,"type":"VEC2"},{"bufferView":38,"componentType":5126,"count":24,"type":"VEC2"},{"bufferView":39,"componentType":5126,"count":24,"type":"VEC2"},{"bufferView":40,"componentType":5126,"count":24,"type":"VEC2"},{"bufferView":41,"componentType":5126,"count":24,"type":"VEC2"},{"bufferView":42,"componentType":5126,"count":24,"type":"VEC2"},{"bufferView":43,"componentType":5126,"count":40,"type":"VEC3","min":[-0.8660253882408142,-0.5,-1],"max":[0.8660253882408142,0.5,1]},{"bufferView":44,"componentType":5126,"count":40,"type":"VEC3"},{"bufferView":45,"componentType":5126,"count":40,"type":"VEC2"},{"bufferView":46,"componentType":5126,"count":117,"type":"VEC3","min":[-1,-1,-1],"max":[1,1,1]},{"bufferView":47,"componentType":5126,"count":117,"type":"VEC2"},{"bufferView":48,"componentType":5123,"count":504,"type":"SCALAR"},{"bufferView":49,"componentType":5126,"count":24,"type":"VEC2"},{"bufferView":50,"componentType":5126,"count":54,"type":"VEC3","min":[-0.9510565400123596,-1,-0.9510565400123596],"max":[0.9510565400123596,1,0.9510565400123596]},{"bufferView":51,"componentType":5126,"count":54,"type":"VEC2"},{"bufferView":52,"componentType":5123,"count":192,"type":"SCALAR"}],"extensionsUsed":["KHR_materials_unlit"],"extras":{"id":"vlt-wind-service-yard-08","family":"wind-service-yard","variant":7,"plan":"B3-1","units":"metres","up":"+Y","front":"+Z","lodScenes":[0,1,2]}}