{"asset":{"version":"2.0","generator":"SLOPMERICA Department of Unnecessary Development 1.0"},"scene":0,"scenes":[{"name":"LOD 0","nodes":[0,1,2,3,4,5,6,7,8,9,10,11,12,13,14],"extras":{"level":0}},{"name":"LOD 1","nodes":[15,16,17,18,19,20,21,22,23,24,25,26,27,28,29],"extras":{"level":1}},{"name":"LOD 2","nodes":[30,31,32,33,34,35,36,37,38,39,40,41],"extras":{"level":2}}],"nodes":[{"name":"site-pad","mesh":0,"translation":[0,0.06,0],"scale":[7.3216,0.12,7.228]},{"name":"variant-apron","mesh":1,"translation":[1.3728,0.13,3.695],"scale":[1.5488,0.08,1.34]},{"name":"bollard-0","mesh":2,"translation":[-2.6752,0.43,3.815],"scale":[0.08,0.74,0.08]},{"name":"layout-cabinet","mesh":3,"translation":[3.72,0.495,1.56375],"scale":[0.81,0.75,0.32]},{"name":"deferred-maintenance-skip","mesh":4,"translation":[-2.3936,0.5,-3.058],"scale":[1.15,0.75,0.65]},{"name":"skip-rubble","mesh":5,"translation":[-2.3936,0.98,-3.058],"rotation":[0,0.29552,0,0.955336],"scale":[0.72,0.2,0.5]},{"name":"road-slab","mesh":6,"translation":[0,2,0],"scale":[7.04,0.7,6.95]},{"name":"culvert-0","mesh":7,"translation":[-1.15,1,0],"rotation":[0.707107,0,0,0.707107],"scale":[0.9,7.45,0.9]},{"name":"culvert-rim-0","mesh":8,"translation":[-1.15,1,3.755],"rotation":[0.707107,0,0,0.707107]},{"name":"culvert-1","mesh":7,"translation":[1.15,1,0],"rotation":[0.707107,0,0,0.707107],"scale":[0.9,7.45,0.9]},{"name":"culvert-rim-1","mesh":8,"translation":[1.15,1,3.755],"rotation":[0.707107,0,0,0.707107]},{"name":"left-headwall","mesh":9,"translation":[-3.52,1.65,0],"scale":[0.6,3.2,7.45]},{"name":"right-headwall","mesh":9,"translation":[3.52,1.65,0],"scale":[0.6,3.2,7.45]},{"name":"culvert-sign-back","mesh":10,"translation":[0,2.55,3.855],"scale":[3,0.9,1]},{"name":"culvert-sign","mesh":11,"translation":[0,2.55,3.884],"scale":[2.9,0.8,1]},{"name":"site-pad","mesh":12,"translation":[0,0.06,0],"scale":[7.3216,0.12,7.228]},{"name":"variant-apron","mesh":13,"translation":[1.3728,0.13,3.695],"scale":[1.5488,0.08,1.34]},{"name":"bollard-0","mesh":14,"translation":[-2.6752,0.43,3.815],"scale":[0.08,0.74,0.08]},{"name":"layout-cabinet","mesh":15,"translation":[3.72,0.495,1.56375],"scale":[0.81,0.75,0.32]},{"name":"deferred-maintenance-skip","mesh":16,"translation":[-2.3936,0.5,-3.058],"scale":[1.15,0.75,0.65]},{"name":"skip-rubble","mesh":17,"translation":[-2.3936,0.98,-3.058],"rotation":[0,0.29552,0,0.955336],"scale":[0.72,0.2,0.5]},{"name":"road-slab","mesh":18,"translation":[0,2,0],"scale":[7.04,0.7,6.95]},{"name":"culvert-0","mesh":19,"translation":[-1.15,1,0],"rotation":[0.707107,0,0,0.707107],"scale":[0.9,7.45,0.9]},{"name":"culvert-rim-0","mesh":20,"translation":[-1.15,1,3.755],"rotation":[0.707107,0,0,0.707107]},{"name":"culvert-1","mesh":19,"translation":[1.15,1,0],"rotation":[0.707107,0,0,0.707107],"scale":[0.9,7.45,0.9]},{"name":"culvert-rim-1","mesh":20,"translation":[1.15,1,3.755],"rotation":[0.707107,0,0,0.707107]},{"name":"left-headwall","mesh":21,"translation":[-3.52,1.65,0],"scale":[0.6,3.2,7.45]},{"name":"right-headwall","mesh":21,"translation":[3.52,1.65,0],"scale":[0.6,3.2,7.45]},{"name":"culvert-sign-back","mesh":10,"translation":[0,2.55,3.855],"scale":[3,0.9,1]},{"name":"culvert-sign","mesh":11,"translation":[0,2.55,3.884],"scale":[2.9,0.8,1]},{"name":"site-pad","mesh":12,"translation":[0,0.06,0],"scale":[7.3216,0.12,7.228]},{"name":"variant-apron","mesh":13,"translation":[1.3728,0.13,3.695],"scale":[1.5488,0.08,1.34]},{"name":"bollard-0","mesh":14,"translation":[-2.6752,0.43,3.815],"scale":[0.08,0.74,0.08]},{"name":"layout-cabinet","mesh":15,"translation":[3.72,0.495,1.56375],"scale":[0.81,0.75,0.32]},{"name":"deferred-maintenance-skip","mesh":16,"translation":[-2.3936,0.5,-3.058],"scale":[1.15,0.75,0.65]},{"name":"road-slab","mesh":18,"translation":[0,2,0],"scale":[7.04,0.7,6.95]},{"name":"culvert-0","mesh":19,"translation":[0,1,0],"rotation":[0.707107,0,0,0.707107],"scale":[0.9,7.45,0.9]},{"name":"culvert-rim-0","mesh":22,"translation":[0,1,3.755],"rotation":[0.707107,0,0,0.707107]},{"name":"left-headwall","mesh":21,"translation":[-3.52,1.65,0],"scale":[0.6,3.2,7.45]},{"name":"right-headwall","mesh":21,"translation":[3.52,1.65,0],"scale":[0.6,3.2,7.45]},{"name":"culvert-sign-back","mesh":10,"translation":[0,2.55,3.855],"scale":[3,0.9,1]},{"name":"culvert-sign","mesh":11,"translation":[0,2.55,3.884],"scale":[2.9,0.8,1]}],"meshes":[{"primitives":[{"attributes":{"POSITION":0,"NORMAL":1,"TEXCOORD_0":2},"material":0,"mode":4}]},{"primitives":[{"attributes":{"POSITION":0,"NORMAL":1,"TEXCOORD_0":3},"material":0,"mode":4}]},{"primitives":[{"attributes":{"POSITION":4,"NORMAL":5,"TEXCOORD_0":6},"material":1,"mode":4,"indices":7}]},{"primitives":[{"attributes":{"POSITION":0,"NORMAL":1,"TEXCOORD_0":8},"material":2,"mode":4}]},{"primitives":[{"attributes":{"POSITION":0,"NORMAL":1,"TEXCOORD_0":9},"material":1,"mode":4}]},{"primitives":[{"attributes":{"POSITION":0,"NORMAL":1,"TEXCOORD_0":10},"material":3,"mode":4}]},{"primitives":[{"attributes":{"POSITION":0,"NORMAL":1,"TEXCOORD_0":11},"material":3,"mode":4}]},{"primitives":[{"attributes":{"POSITION":12,"NORMAL":13,"TEXCOORD_0":14},"material":2,"mode":4,"indices":7}]},{"primitives":[{"attributes":{"POSITION":15,"NORMAL":16,"TEXCOORD_0":17},"material":4,"mode":4,"indices":18}]},{"primitives":[{"attributes":{"POSITION":0,"NORMAL":1,"TEXCOORD_0":19},"material":3,"mode":4}]},{"primitives":[{"attributes":{"POSITION":20,"NORMAL":21,"TEXCOORD_0":22},"material":4,"mode":4,"indices":23}]},{"primitives":[{"attributes":{"POSITION":24,"NORMAL":25,"TEXCOORD_0":26},"material":5,"mode":4,"indices":27}]},{"primitives":[{"attributes":{"POSITION":28,"NORMAL":21,"TEXCOORD_0":29},"material":0,"mode":4,"indices":23}]},{"primitives":[{"attributes":{"POSITION":28,"NORMAL":21,"TEXCOORD_0":30},"material":0,"mode":4,"indices":23}]},{"primitives":[{"attributes":{"POSITION":31,"NORMAL":32,"TEXCOORD_0":33},"material":1,"mode":4,"indices":34}]},{"primitives":[{"attributes":{"POSITION":28,"NORMAL":21,"TEXCOORD_0":35},"material":2,"mode":4,"indices":23}]},{"primitives":[{"attributes":{"POSITION":28,"NORMAL":21,"TEXCOORD_0":36},"material":1,"mode":4,"indices":23}]},{"primitives":[{"attributes":{"POSITION":28,"NORMAL":21,"TEXCOORD_0":37},"material":3,"mode":4,"indices":23}]},{"primitives":[{"attributes":{"POSITION":28,"NORMAL":21,"TEXCOORD_0":38},"material":3,"mode":4,"indices":23}]},{"primitives":[{"attributes":{"POSITION":39,"NORMAL":40,"TEXCOORD_0":41},"material":2,"mode":4,"indices":34}]},{"primitives":[{"attributes":{"POSITION":42,"NORMAL":43,"TEXCOORD_0":44},"material":4,"mode":4,"indices":45}]},{"primitives":[{"attributes":{"POSITION":28,"NORMAL":21,"TEXCOORD_0":46},"material":3,"mode":4,"indices":23}]},{"primitives":[{"attributes":{"POSITION":47,"NORMAL":48,"TEXCOORD_0":49},"material":4,"mode":4,"indices":50}]}],"materials":[{"name":"asphalt","pbrMetallicRoughness":{"baseColorTexture":{"index":0},"metallicRoughnessTexture":{"index":2},"roughnessFactor":1,"metallicFactor":1},"normalTexture":{"index":1,"scale":0.62},"occlusionTexture":{"index":2,"strength":0.35}},{"name":"paint-orange","pbrMetallicRoughness":{"baseColorFactor":[0.6444796819634361,0.1878207722902346,0.040915196900556984,1],"roughnessFactor":0.68,"metallicFactor":0.03}},{"name":"metal-galvanized","pbrMetallicRoughness":{"baseColorTexture":{"index":3},"metallicRoughnessTexture":{"index":5},"roughnessFactor":1,"metallicFactor":1},"normalTexture":{"index":4,"scale":0.15},"occlusionTexture":{"index":5,"strength":0.35}},{"name":"concrete","pbrMetallicRoughness":{"baseColorTexture":{"index":6},"metallicRoughnessTexture":{"index":8},"roughnessFactor":1,"metallicFactor":1},"normalTexture":{"index":7,"scale":0.82},"occlusionTexture":{"index":8,"strength":0.35}},{"name":"metal-dark","pbrMetallicRoughness":{"baseColorTexture":{"index":9},"metallicRoughnessTexture":{"index":11},"roughnessFactor":1,"metallicFactor":1},"normalTexture":{"index":10,"scale":0.35},"occlusionTexture":{"index":11,"strength":0.35}},{"name":"culvert-gateway signage","pbrMetallicRoughness":{"baseColorTexture":{"index":12},"roughnessFactor":1,"metallicFactor":0},"extensions":{"KHR_materials_unlit":{}}}],"textures":[{"source":0,"sampler":0},{"source":1,"sampler":0},{"source":2,"sampler":0},{"source":3,"sampler":0},{"source":4,"sampler":0},{"source":5,"sampler":0},{"source":6,"sampler":0},{"source":7,"sampler":0},{"source":8,"sampler":0},{"source":9,"sampler":0},{"source":10,"sampler":0},{"source":11,"sampler":0},{"source":12,"sampler":0}],"images":[{"uri":"../textures/asphalt-albedo.png"},{"uri":"../textures/asphalt-normal.png"},{"uri":"../textures/asphalt-orm.png"},{"uri":"../textures/metal-galvanized-albedo.png"},{"uri":"../textures/metal-galvanized-normal.png"},{"uri":"../textures/metal-galvanized-orm.png"},{"uri":"../textures/concrete-albedo.png"},{"uri":"../textures/concrete-normal.png"},{"uri":"../textures/concrete-orm.png"},{"uri":"../textures/metal-dark-albedo.png"},{"uri":"../textures/metal-dark-normal.png"},{"uri":"../textures/metal-dark-orm.png"},{"uri":"../signs/culvert-gateway.png"}],"samplers":[{"magFilter":9729,"minFilter":9987,"wrapS":10497,"wrapT":10497}],"buffers":[{"uri":"../shared/geometry.bin","byteLength":16435520}],"bufferViews":[{"buffer":0,"byteOffset":0,"byteLength":3888,"target":34962},{"buffer":0,"byteOffset":3888,"byteLength":3888,"target":34962},{"buffer":0,"byteOffset":3439988,"byteLength":2592,"target":34962},{"buffer":0,"byteOffset":3442580,"byteLength":2592,"target":34962},{"buffer":0,"byteOffset":12960,"byteLength":1200,"target":34962},{"buffer":0,"byteOffset":14160,"byteLength":1200,"target":34962},{"buffer":0,"byteOffset":179140,"byteLength":800,"target":34962},{"buffer":0,"byteOffset":16160,"byteLength":384,"target":34963},{"buffer":0,"byteOffset":179940,"byteLength":2592,"target":34962},{"buffer":0,"byteOffset":205668,"byteLength":2592,"target":34962},{"buffer":0,"byteOffset":208260,"byteLength":2592,"target":34962},{"buffer":0,"byteOffset":3445172,"byteLength":2592,"target":34962},{"buffer":0,"byteOffset":1101304,"byteLength":1200,"target":34962},{"buffer":0,"byteOffset":1102504,"byteLength":1200,"target":34962},{"buffer":0,"byteOffset":3447764,"byteLength":800,"target":34962},{"buffer":0,"byteOffset":3306352,"byteLength":3132,"target":34962},{"buffer":0,"byteOffset":390704,"byteLength":3132,"target":34962},{"buffer":0,"byteOffset":2835332,"byteLength":2088,"target":34962},{"buffer":0,"byteOffset":395924,"byteLength":2688,"target":34963},{"buffer":0,"byteOffset":3448564,"byteLength":2592,"target":34962},{"buffer":0,"byteOffset":45664,"byteLength":288,"target":34962},{"buffer":0,"byteOffset":45952,"byteLength":288,"target":34962},{"buffer":0,"byteOffset":46240,"byteLength":192,"target":34962},{"buffer":0,"byteOffset":46432,"byteLength":72,"target":34963},{"buffer":0,"byteOffset":46504,"byteLength":48,"target":34962},{"buffer":0,"byteOffset":46552,"byteLength":48,"target":34962},{"buffer":0,"byteOffset":222852,"byteLength":32,"target":34962},{"buffer":0,"byteOffset":46632,"byteLength":12,"target":34963},{"buffer":0,"byteOffset":46644,"byteLength":288,"target":34962},{"buffer":0,"byteOffset":3451156,"byteLength":192,"target":34962},{"buffer":0,"byteOffset":3451348,"byteLength":192,"target":34962},{"buffer":0,"byteOffset":47316,"byteLength":480,"target":34962},{"buffer":0,"byteOffset":47796,"byteLength":480,"target":34962},{"buffer":0,"byteOffset":182756,"byteLength":320,"target":34962},{"buffer":0,"byteOffset":48596,"byteLength":144,"target":34963},{"buffer":0,"byteOffset":183076,"byteLength":192,"target":34962},{"buffer":0,"byteOffset":210884,"byteLength":192,"target":34962},{"buffer":0,"byteOffset":211076,"byteLength":192,"target":34962},{"buffer":0,"byteOffset":3451540,"byteLength":192,"target":34962},{"buffer":0,"byteOffset":1112312,"byteLength":480,"target":34962},{"buffer":0,"byteOffset":1112792,"byteLength":480,"target":34962},{"buffer":0,"byteOffset":3451732,"byteLength":320,"target":34962},{"buffer":0,"byteOffset":3312972,"byteLength":1428,"target":34962},{"buffer":0,"byteOffset":427996,"byteLength":1428,"target":34962},{"buffer":0,"byteOffset":2864312,"byteLength":952,"target":34962},{"buffer":0,"byteOffset":430376,"byteLength":1152,"target":34963},{"buffer":0,"byteOffset":3452052,"byteLength":192,"target":34962},{"buffer":0,"byteOffset":3314592,"byteLength":660,"target":34962},{"buffer":0,"byteOffset":437788,"byteLength":660,"target":34962},{"buffer":0,"byteOffset":2874988,"byteLength":440,"target":34962},{"buffer":0,"byteOffset":438888,"byteLength":480,"target":34963}],"accessors":[{"bufferView":0,"componentType":5126,"count":324,"type":"VEC3","min":[-0.5,-0.5,-0.5],"max":[0.5,0.5,0.5]},{"bufferView":1,"componentType":5126,"count":324,"type":"VEC3"},{"bufferView":2,"componentType":5126,"count":324,"type":"VEC2"},{"bufferView":3,"componentType":5126,"count":324,"type":"VEC2"},{"bufferView":4,"componentType":5126,"count":100,"type":"VEC3","min":[-1,-0.5,-1],"max":[1,0.5,1]},{"bufferView":5,"componentType":5126,"count":100,"type":"VEC3"},{"bufferView":6,"componentType":5126,"count":100,"type":"VEC2"},{"bufferView":7,"componentType":5123,"count":192,"type":"SCALAR"},{"bufferView":8,"componentType":5126,"count":324,"type":"VEC2"},{"bufferView":9,"componentType":5126,"count":324,"type":"VEC2"},{"bufferView":10,"componentType":5126,"count":324,"type":"VEC2"},{"bufferView":11,"componentType":5126,"count":324,"type":"VEC2"},{"bufferView":12,"componentType":5126,"count":100,"type":"VEC3","min":[-1,-0.5,-1],"max":[1,0.5,1]},{"bufferView":13,"componentType":5126,"count":100,"type":"VEC3"},{"bufferView":14,"componentType":5126,"count":100,"type":"VEC2"},{"bufferView":15,"componentType":5126,"count":261,"type":"VEC3","min":[-1,-1,-0.10000000149011612],"max":[1,1,0.10000000149011612]},{"bufferView":16,"componentType":5126,"count":261,"type":"VEC3"},{"bufferView":17,"componentType":5126,"count":261,"type":"VEC2"},{"bufferView":18,"componentType":5123,"count":1344,"type":"SCALAR"},{"bufferView":19,"componentType":5126,"count":324,"type":"VEC2"},{"bufferView":20,"componentType":5126,"count":24,"type":"VEC3","min":[-0.5,-0.5,-0.02500000037252903],"max":[0.5,0.5,0.02500000037252903]},{"bufferView":21,"componentType":5126,"count":24,"type":"VEC3"},{"bufferView":22,"componentType":5126,"count":24,"type":"VEC2"},{"bufferView":23,"componentType":5123,"count":36,"type":"SCALAR"},{"bufferView":24,"componentType":5126,"count":4,"type":"VEC3","min":[-0.5,-0.5,0],"max":[0.5,0.5,0]},{"bufferView":25,"componentType":5126,"count":4,"type":"VEC3"},{"bufferView":26,"componentType":5126,"count":4,"type":"VEC2"},{"bufferView":27,"componentType":5123,"count":6,"type":"SCALAR"},{"bufferView":28,"componentType":5126,"count":24,"type":"VEC3","min":[-0.5,-0.5,-0.5],"max":[0.5,0.5,0.5]},{"bufferView":29,"componentType":5126,"count":24,"type":"VEC2"},{"bufferView":30,"componentType":5126,"count":24,"type":"VEC2"},{"bufferView":31,"componentType":5126,"count":40,"type":"VEC3","min":[-0.8660253882408142,-0.5,-1],"max":[0.8660253882408142,0.5,1]},{"bufferView":32,"componentType":5126,"count":40,"type":"VEC3"},{"bufferView":33,"componentType":5126,"count":40,"type":"VEC2"},{"bufferView":34,"componentType":5123,"count":72,"type":"SCALAR"},{"bufferView":35,"componentType":5126,"count":24,"type":"VEC2"},{"bufferView":36,"componentType":5126,"count":24,"type":"VEC2"},{"bufferView":37,"componentType":5126,"count":24,"type":"VEC2"},{"bufferView":38,"componentType":5126,"count":24,"type":"VEC2"},{"bufferView":39,"componentType":5126,"count":40,"type":"VEC3","min":[-0.8660253882408142,-0.5,-1],"max":[0.8660253882408142,0.5,1]},{"bufferView":40,"componentType":5126,"count":40,"type":"VEC3"},{"bufferView":41,"componentType":5126,"count":40,"type":"VEC2"},{"bufferView":42,"componentType":5126,"count":119,"type":"VEC3","min":[-1,-1,-0.08660253882408142],"max":[1,1,0.08660253882408142]},{"bufferView":43,"componentType":5126,"count":119,"type":"VEC3"},{"bufferView":44,"componentType":5126,"count":119,"type":"VEC2"},{"bufferView":45,"componentType":5123,"count":576,"type":"SCALAR"},{"bufferView":46,"componentType":5126,"count":24,"type":"VEC2"},{"bufferView":47,"componentType":5126,"count":55,"type":"VEC3","min":[-1,-0.9510565400123596,-0.10000000149011612],"max":[1,0.9510565400123596,0.10000000149011612]},{"bufferView":48,"componentType":5126,"count":55,"type":"VEC3"},{"bufferView":49,"componentType":5126,"count":55,"type":"VEC2"},{"bufferView":50,"componentType":5123,"count":240,"type":"SCALAR"}],"extensionsUsed":["KHR_materials_unlit"],"extras":{"id":"vlt-culvert-gateway-36","family":"culvert-gateway","variant":35,"plan":"D1-2","units":"metres","up":"+Y","front":"+Z","lodScenes":[0,1,2]}}