{"asset":{"version":"2.0","generator":"SLOPMERICA Department of Unnecessary Development 1.0"},"scene":0,"scenes":[{"name":"LOD 0","nodes":[0,1,2,3,4,5,6,7,8,9,10,11,12,13,14,15,16,17,18,19,20,21,22,23,24],"extras":{"level":0}},{"name":"LOD 1","nodes":[25,26,27,28,29,30,31,32,33,34,35,36,37,38,39,40,41,42,43,44,45,46,47,48,49],"extras":{"level":1}},{"name":"LOD 2","nodes":[50,51,52,53,54,55,56,57,58],"extras":{"level":2}}],"nodes":[{"name":"surveyed lot","mesh":0,"translation":[0,0.06,0],"scale":[19.2,0.12,16.32]},{"name":"villa 0","mesh":1,"translation":[7,1.25,-1],"scale":[3.4,2.3,4]},{"name":"pastel roof 0","mesh":2,"translation":[7,2.55,-1],"scale":[3.7,0.35,4.3]},{"name":"villa 1","mesh":1,"translation":[5.663119,1.25,1.938926],"rotation":[0,-0.309017,0,0.951057],"scale":[3.4,2.3,4]},{"name":"pastel roof 1","mesh":3,"translation":[5.663119,2.55,1.938926],"rotation":[0,-0.309017,0,0.951057],"scale":[3.7,0.35,4.3]},{"name":"villa 2","mesh":1,"translation":[2.163119,1.25,3.755283],"rotation":[0,-0.587785,0,0.809017],"scale":[3.4,2.3,4]},{"name":"pastel roof 2","mesh":2,"translation":[2.163119,2.55,3.755283],"rotation":[0,-0.587785,0,0.809017],"scale":[3.7,0.35,4.3]},{"name":"villa 3","mesh":1,"translation":[-2.163119,1.25,3.755283],"rotation":[0,-0.809017,0,0.587785],"scale":[3.4,2.3,4]},{"name":"pastel roof 3","mesh":3,"translation":[-2.163119,2.55,3.755283],"rotation":[0,-0.809017,0,0.587785],"scale":[3.7,0.35,4.3]},{"name":"villa 4","mesh":1,"translation":[-5.663119,1.25,1.938926],"rotation":[0,0.951057,0,-0.309017],"scale":[3.4,2.3,4]},{"name":"pastel roof 4","mesh":2,"translation":[-5.663119,2.55,1.938926],"rotation":[0,0.951057,0,-0.309017],"scale":[3.7,0.35,4.3]},{"name":"golf cart 0","mesh":4,"translation":[-3,0.45,5.4],"scale":[1.3,0.6,2]},{"name":"post -3.48 0","mesh":5,"translation":[-3.48,0.625,5.4],"scale":[0.16,1.25,0.16]},{"name":"post -3.48 1","mesh":5,"translation":[-2.52,0.625,5.4],"scale":[0.16,1.25,0.16]},{"name":"cart roof 0","mesh":6,"translation":[-3,1.35,5.4],"scale":[1.45,0.12,2.1]},{"name":"golf cart 1","mesh":4,"translation":[0,0.45,5.4],"scale":[1.3,0.6,2]},{"name":"post -0.48 0","mesh":5,"translation":[-0.48,0.625,5.4],"scale":[0.16,1.25,0.16]},{"name":"post -0.48 1","mesh":5,"translation":[0.48,0.625,5.4],"scale":[0.16,1.25,0.16]},{"name":"cart roof 1","mesh":6,"translation":[0,1.35,5.4],"scale":[1.45,0.12,2.1]},{"name":"golf cart 2","mesh":4,"translation":[3,0.45,5.4],"scale":[1.3,0.6,2]},{"name":"post 2.52 0","mesh":5,"translation":[2.52,0.625,5.4],"scale":[0.16,1.25,0.16]},{"name":"post 2.52 1","mesh":5,"translation":[3.48,0.625,5.4],"scale":[0.16,1.25,0.16]},{"name":"cart roof 2","mesh":6,"translation":[3,1.35,5.4],"scale":[1.45,0.12,2.1]},{"name":"active adult sign-back","mesh":7,"translation":[0,1.7,7.4],"scale":[4.9,1.3,1]},{"name":"active adult sign","mesh":8,"translation":[0,1.7,7.429],"scale":[4.8,1.2,1]},{"name":"surveyed lot","mesh":9,"translation":[0,0.06,0],"scale":[19.2,0.12,16.32]},{"name":"villa 0","mesh":10,"translation":[7,1.25,-1],"scale":[3.4,2.3,4]},{"name":"pastel roof 0","mesh":11,"translation":[7,2.55,-1],"scale":[3.7,0.35,4.3]},{"name":"villa 1","mesh":10,"translation":[5.663119,1.25,1.938926],"rotation":[0,-0.309017,0,0.951057],"scale":[3.4,2.3,4]},{"name":"pastel roof 1","mesh":12,"translation":[5.663119,2.55,1.938926],"rotation":[0,-0.309017,0,0.951057],"scale":[3.7,0.35,4.3]},{"name":"villa 2","mesh":10,"translation":[2.163119,1.25,3.755283],"rotation":[0,-0.587785,0,0.809017],"scale":[3.4,2.3,4]},{"name":"pastel roof 2","mesh":11,"translation":[2.163119,2.55,3.755283],"rotation":[0,-0.587785,0,0.809017],"scale":[3.7,0.35,4.3]},{"name":"villa 3","mesh":10,"translation":[-2.163119,1.25,3.755283],"rotation":[0,-0.809017,0,0.587785],"scale":[3.4,2.3,4]},{"name":"pastel roof 3","mesh":12,"translation":[-2.163119,2.55,3.755283],"rotation":[0,-0.809017,0,0.587785],"scale":[3.7,0.35,4.3]},{"name":"villa 4","mesh":10,"translation":[-5.663119,1.25,1.938926],"rotation":[0,0.951057,0,-0.309017],"scale":[3.4,2.3,4]},{"name":"pastel roof 4","mesh":11,"translation":[-5.663119,2.55,1.938926],"rotation":[0,0.951057,0,-0.309017],"scale":[3.7,0.35,4.3]},{"name":"golf cart 0","mesh":13,"translation":[-3,0.45,5.4],"scale":[1.3,0.6,2]},{"name":"post -3.48 0","mesh":14,"translation":[-3.48,0.625,5.4],"scale":[0.16,1.25,0.16]},{"name":"post -3.48 1","mesh":14,"translation":[-2.52,0.625,5.4],"scale":[0.16,1.25,0.16]},{"name":"cart roof 0","mesh":15,"translation":[-3,1.35,5.4],"scale":[1.45,0.12,2.1]},{"name":"golf cart 1","mesh":13,"translation":[0,0.45,5.4],"scale":[1.3,0.6,2]},{"name":"post -0.48 0","mesh":14,"translation":[-0.48,0.625,5.4],"scale":[0.16,1.25,0.16]},{"name":"post -0.48 1","mesh":14,"translation":[0.48,0.625,5.4],"scale":[0.16,1.25,0.16]},{"name":"cart roof 1","mesh":15,"translation":[0,1.35,5.4],"scale":[1.45,0.12,2.1]},{"name":"golf cart 2","mesh":13,"translation":[3,0.45,5.4],"scale":[1.3,0.6,2]},{"name":"post 2.52 0","mesh":14,"translation":[2.52,0.625,5.4],"scale":[0.16,1.25,0.16]},{"name":"post 2.52 1","mesh":14,"translation":[3.48,0.625,5.4],"scale":[0.16,1.25,0.16]},{"name":"cart roof 2","mesh":15,"translation":[3,1.35,5.4],"scale":[1.45,0.12,2.1]},{"name":"active adult sign-back","mesh":7,"translation":[0,1.7,7.4],"scale":[4.9,1.3,1]},{"name":"active adult sign","mesh":8,"translation":[0,1.7,7.429],"scale":[4.8,1.2,1]},{"name":"surveyed lot","mesh":9,"translation":[0,0.06,0],"scale":[19.2,0.12,16.32]},{"name":"villa 0","mesh":10,"translation":[7,1.25,-1],"scale":[3.4,2.3,4]},{"name":"pastel roof 0","mesh":11,"translation":[7,2.55,-1],"scale":[3.7,0.35,4.3]},{"name":"villa 1","mesh":10,"translation":[3.5,1.25,3.330127],"rotation":[0,-0.5,0,0.866025],"scale":[3.4,2.3,4]},{"name":"pastel roof 1","mesh":12,"translation":[3.5,2.55,3.330127],"rotation":[0,-0.5,0,0.866025],"scale":[3.7,0.35,4.3]},{"name":"villa 2","mesh":10,"translation":[-3.5,1.25,3.330127],"rotation":[0,-0.866025,0,0.5],"scale":[3.4,2.3,4]},{"name":"pastel roof 2","mesh":11,"translation":[-3.5,2.55,3.330127],"rotation":[0,-0.866025,0,0.5],"scale":[3.7,0.35,4.3]},{"name":"active adult sign-back","mesh":7,"translation":[0,1.7,7.4],"scale":[4.9,1.3,1]},{"name":"active adult sign","mesh":8,"translation":[0,1.7,7.429],"scale":[4.8,1.2,1]}],"meshes":[{"primitives":[{"attributes":{"POSITION":0,"NORMAL":1,"TEXCOORD_0":2},"material":0,"mode":4}]},{"primitives":[{"attributes":{"POSITION":0,"NORMAL":1,"TEXCOORD_0":3},"material":1,"mode":4}]},{"primitives":[{"attributes":{"POSITION":0,"NORMAL":1,"TEXCOORD_0":4},"material":2,"mode":4}]},{"primitives":[{"attributes":{"POSITION":0,"NORMAL":1,"TEXCOORD_0":5},"material":3,"mode":4}]},{"primitives":[{"attributes":{"POSITION":0,"NORMAL":1,"TEXCOORD_0":6},"material":4,"mode":4}]},{"primitives":[{"attributes":{"POSITION":0,"NORMAL":1,"TEXCOORD_0":7},"material":5,"mode":4}]},{"primitives":[{"attributes":{"POSITION":0,"NORMAL":1,"TEXCOORD_0":8},"material":3,"mode":4}]},{"primitives":[{"attributes":{"POSITION":9,"NORMAL":10,"TEXCOORD_0":11},"material":5,"mode":4,"indices":12}]},{"primitives":[{"attributes":{"POSITION":13,"NORMAL":14,"TEXCOORD_0":15},"material":6,"mode":4,"indices":16}]},{"primitives":[{"attributes":{"POSITION":17,"NORMAL":10,"TEXCOORD_0":18},"material":0,"mode":4,"indices":12}]},{"primitives":[{"attributes":{"POSITION":17,"NORMAL":10,"TEXCOORD_0":19},"material":1,"mode":4,"indices":12}]},{"primitives":[{"attributes":{"POSITION":17,"NORMAL":10,"TEXCOORD_0":20},"material":2,"mode":4,"indices":12}]},{"primitives":[{"attributes":{"POSITION":17,"NORMAL":10,"TEXCOORD_0":21},"material":3,"mode":4,"indices":12}]},{"primitives":[{"attributes":{"POSITION":17,"NORMAL":10,"TEXCOORD_0":22},"material":4,"mode":4,"indices":12}]},{"primitives":[{"attributes":{"POSITION":17,"NORMAL":10,"TEXCOORD_0":23},"material":5,"mode":4,"indices":12}]},{"primitives":[{"attributes":{"POSITION":17,"NORMAL":10,"TEXCOORD_0":24},"material":3,"mode":4,"indices":12}]}],"materials":[{"name":"concrete","pbrMetallicRoughness":{"baseColorTexture":{"index":0},"metallicRoughnessTexture":{"index":2},"roughnessFactor":1,"metallicFactor":1},"normalTexture":{"index":1,"scale":0.82},"occlusionTexture":{"index":2,"strength":0.35}},{"name":"stucco-ivory","pbrMetallicRoughness":{"baseColorTexture":{"index":3},"metallicRoughnessTexture":{"index":5},"roughnessFactor":1,"metallicFactor":1},"normalTexture":{"index":4,"scale":0.5},"occlusionTexture":{"index":5,"strength":0.35}},{"name":"roof-shingle","pbrMetallicRoughness":{"baseColorTexture":{"index":6},"metallicRoughnessTexture":{"index":8},"roughnessFactor":1,"metallicFactor":1},"normalTexture":{"index":7,"scale":0.78},"occlusionTexture":{"index":8,"strength":0.35}},{"name":"paint-teal","pbrMetallicRoughness":{"baseColorFactor":[0.040915196900556984,0.20507873637973145,0.1878207722902346,1],"roughnessFactor":0.59,"metallicFactor":0.05}},{"name":"paint-white","pbrMetallicRoughness":{"baseColorFactor":[0.7912979403281551,0.7681511472425809,0.6795424696265424,1],"roughnessFactor":0.68,"metallicFactor":0}},{"name":"metal-dark","pbrMetallicRoughness":{"baseColorTexture":{"index":9},"metallicRoughnessTexture":{"index":11},"roughnessFactor":1,"metallicFactor":1},"normalTexture":{"index":10,"scale":0.35},"occlusionTexture":{"index":11,"strength":0.35}},{"name":"golf-cart-village signage","pbrMetallicRoughness":{"baseColorTexture":{"index":12},"roughnessFactor":1,"metallicFactor":0},"extensions":{"KHR_materials_unlit":{}}}],"textures":[{"source":0,"sampler":0},{"source":1,"sampler":0},{"source":2,"sampler":0},{"source":3,"sampler":0},{"source":4,"sampler":0},{"source":5,"sampler":0},{"source":6,"sampler":0},{"source":7,"sampler":0},{"source":8,"sampler":0},{"source":9,"sampler":0},{"source":10,"sampler":0},{"source":11,"sampler":0},{"source":12,"sampler":0}],"images":[{"uri":"../textures/concrete-albedo.png"},{"uri":"../textures/concrete-normal.png"},{"uri":"../textures/concrete-orm.png"},{"uri":"../textures/stucco-ivory-albedo.png"},{"uri":"../textures/stucco-ivory-normal.png"},{"uri":"../textures/stucco-ivory-orm.png"},{"uri":"../textures/roof-shingle-albedo.png"},{"uri":"../textures/roof-shingle-normal.png"},{"uri":"../textures/roof-shingle-orm.png"},{"uri":"../textures/metal-dark-albedo.png"},{"uri":"../textures/metal-dark-normal.png"},{"uri":"../textures/metal-dark-orm.png"},{"uri":"../signs/golf-cart-village.png"}],"samplers":[{"magFilter":9729,"minFilter":9987,"wrapS":10497,"wrapT":10497}],"buffers":[{"uri":"../shared/geometry.bin","byteLength":16435520}],"bufferViews":[{"buffer":0,"byteOffset":0,"byteLength":3888,"target":34962},{"buffer":0,"byteOffset":3888,"byteLength":3888,"target":34962},{"buffer":0,"byteOffset":6486016,"byteLength":2592,"target":34962},{"buffer":0,"byteOffset":6457984,"byteLength":2592,"target":34962},{"buffer":0,"byteOffset":6460576,"byteLength":2592,"target":34962},{"buffer":0,"byteOffset":6463168,"byteLength":2592,"target":34962},{"buffer":0,"byteOffset":6465760,"byteLength":2592,"target":34962},{"buffer":0,"byteOffset":6468352,"byteLength":2592,"target":34962},{"buffer":0,"byteOffset":6470944,"byteLength":2592,"target":34962},{"buffer":0,"byteOffset":45664,"byteLength":288,"target":34962},{"buffer":0,"byteOffset":45952,"byteLength":288,"target":34962},{"buffer":0,"byteOffset":46240,"byteLength":192,"target":34962},{"buffer":0,"byteOffset":46432,"byteLength":72,"target":34963},{"buffer":0,"byteOffset":46504,"byteLength":48,"target":34962},{"buffer":0,"byteOffset":46552,"byteLength":48,"target":34962},{"buffer":0,"byteOffset":130212,"byteLength":32,"target":34962},{"buffer":0,"byteOffset":46632,"byteLength":12,"target":34963},{"buffer":0,"byteOffset":46644,"byteLength":288,"target":34962},{"buffer":0,"byteOffset":6488608,"byteLength":192,"target":34962},{"buffer":0,"byteOffset":6473728,"byteLength":192,"target":34962},{"buffer":0,"byteOffset":6473920,"byteLength":192,"target":34962},{"buffer":0,"byteOffset":6474112,"byteLength":192,"target":34962},{"buffer":0,"byteOffset":6474304,"byteLength":192,"target":34962},{"buffer":0,"byteOffset":6474496,"byteLength":192,"target":34962},{"buffer":0,"byteOffset":6474688,"byteLength":192,"target":34962}],"accessors":[{"bufferView":0,"componentType":5126,"count":324,"type":"VEC3","min":[-0.5,-0.5,-0.5],"max":[0.5,0.5,0.5]},{"bufferView":1,"componentType":5126,"count":324,"type":"VEC3"},{"bufferView":2,"componentType":5126,"count":324,"type":"VEC2"},{"bufferView":3,"componentType":5126,"count":324,"type":"VEC2"},{"bufferView":4,"componentType":5126,"count":324,"type":"VEC2"},{"bufferView":5,"componentType":5126,"count":324,"type":"VEC2"},{"bufferView":6,"componentType":5126,"count":324,"type":"VEC2"},{"bufferView":7,"componentType":5126,"count":324,"type":"VEC2"},{"bufferView":8,"componentType":5126,"count":324,"type":"VEC2"},{"bufferView":9,"componentType":5126,"count":24,"type":"VEC3","min":[-0.5,-0.5,-0.02500000037252903],"max":[0.5,0.5,0.02500000037252903]},{"bufferView":10,"componentType":5126,"count":24,"type":"VEC3"},{"bufferView":11,"componentType":5126,"count":24,"type":"VEC2"},{"bufferView":12,"componentType":5123,"count":36,"type":"SCALAR"},{"bufferView":13,"componentType":5126,"count":4,"type":"VEC3","min":[-0.5,-0.5,0],"max":[0.5,0.5,0]},{"bufferView":14,"componentType":5126,"count":4,"type":"VEC3"},{"bufferView":15,"componentType":5126,"count":4,"type":"VEC2"},{"bufferView":16,"componentType":5123,"count":6,"type":"SCALAR"},{"bufferView":17,"componentType":5126,"count":24,"type":"VEC3","min":[-0.5,-0.5,-0.5],"max":[0.5,0.5,0.5]},{"bufferView":18,"componentType":5126,"count":24,"type":"VEC2"},{"bufferView":19,"componentType":5126,"count":24,"type":"VEC2"},{"bufferView":20,"componentType":5126,"count":24,"type":"VEC2"},{"bufferView":21,"componentType":5126,"count":24,"type":"VEC2"},{"bufferView":22,"componentType":5126,"count":24,"type":"VEC2"},{"bufferView":23,"componentType":5126,"count":24,"type":"VEC2"},{"bufferView":24,"componentType":5126,"count":24,"type":"VEC2"}],"extensionsUsed":["KHR_materials_unlit"],"extras":{"id":"vlt-golf-cart-village-07","family":"golf-cart-village","variant":6,"plan":"B2-1","units":"metres","up":"+Y","front":"+Z","lodScenes":[0,1,2]}}