{"asset":{"version":"2.0","generator":"SLOPMERICA Department of Unnecessary Development 1.0"},"scene":0,"scenes":[{"name":"LOD 0","nodes":[0,1,2,3,4,5,6,7,8,9,10,11,12,13,14,15,16,17,18,19,20,21,22,23,24,25],"extras":{"level":0}},{"name":"LOD 1","nodes":[26,27,28,29,30,31,32,33,34,35,36,37,38,39,40,41,42,43,44,45,46,47,48,49,50,51],"extras":{"level":1}},{"name":"LOD 2","nodes":[52,53,54,55,56,57,58,59,60,61,62,63],"extras":{"level":2}}],"nodes":[{"name":"surveyed lot","mesh":0,"translation":[0,0.06,0],"scale":[22.4,0.12,23.52]},{"name":"reinforced cabin","mesh":1,"translation":[0,1.85,0],"scale":[7.2,3.4,6.8]},{"name":"blast roof","mesh":2,"translation":[0,3.75,0],"scale":[8,0.55,7.6]},{"name":"palisade 0","mesh":3,"translation":[8.65,1.55,0],"scale":[0.22,3.1,0.22]},{"name":"palisade 1","mesh":4,"translation":[7.991558,1.625,3.310212],"rotation":[0,-0.19509,0,0.980785],"scale":[0.22,3.25,0.22]},{"name":"palisade 2","mesh":5,"translation":[6.116474,1.7,6.116474],"rotation":[0,-0.382683,0,0.92388],"scale":[0.22,3.4,0.22]},{"name":"palisade 3","mesh":3,"translation":[3.310212,1.55,7.991558],"rotation":[0,-0.55557,0,0.83147],"scale":[0.22,3.1,0.22]},{"name":"palisade 4","mesh":4,"translation":[0,1.625,8.65],"rotation":[0,-0.707107,0,0.707107],"scale":[0.22,3.25,0.22]},{"name":"palisade 5","mesh":5,"translation":[-3.310212,1.7,7.991558],"rotation":[0,-0.83147,0,0.55557],"scale":[0.22,3.4,0.22]},{"name":"palisade 6","mesh":3,"translation":[-6.116474,1.55,6.116474],"rotation":[0,0.92388,0,-0.382683],"scale":[0.22,3.1,0.22]},{"name":"palisade 7","mesh":4,"translation":[-7.991558,1.625,3.310212],"rotation":[0,0.980785,0,-0.19509],"scale":[0.22,3.25,0.22]},{"name":"palisade 8","mesh":5,"translation":[-8.65,1.7,0],"rotation":[0,1,0,0],"scale":[0.22,3.4,0.22]},{"name":"palisade 9","mesh":3,"translation":[-7.991558,1.55,-3.310212],"rotation":[0,0.980785,0,0.19509],"scale":[0.22,3.1,0.22]},{"name":"palisade 10","mesh":4,"translation":[-6.116474,1.625,-6.116474],"rotation":[0,0.92388,0,0.382683],"scale":[0.22,3.25,0.22]},{"name":"palisade 11","mesh":5,"translation":[-3.310212,1.7,-7.991558],"rotation":[0,0.83147,0,0.55557],"scale":[0.22,3.4,0.22]},{"name":"palisade 12","mesh":3,"translation":[0,1.55,-8.65],"rotation":[0,0.707107,0,0.707107],"scale":[0.22,3.1,0.22]},{"name":"palisade 13","mesh":4,"translation":[3.310212,1.625,-7.991558],"rotation":[0,0.55557,0,0.83147],"scale":[0.22,3.25,0.22]},{"name":"palisade 14","mesh":5,"translation":[6.116474,1.7,-6.116474],"rotation":[0,0.382683,0,0.92388],"scale":[0.22,3.4,0.22]},{"name":"palisade 15","mesh":3,"translation":[7.991558,1.55,-3.310212],"rotation":[0,0.19509,0,0.980785],"scale":[0.22,3.1,0.22]},{"name":"buried bunker hatch","mesh":6,"translation":[-4.3,0.25,-3.5],"scale":[1.05,0.35,1.05]},{"name":"water tote 0","mesh":7,"translation":[-3,0.7,3.9],"scale":[1.2,1.2,1.2]},{"name":"water tote 1","mesh":7,"translation":[-1.6,0.7,3.9],"scale":[1.2,1.2,1.2]},{"name":"water tote 2","mesh":7,"translation":[-0.2,0.7,3.9],"scale":[1.2,1.2,1.2]},{"name":"water tote 3","mesh":7,"translation":[1.2,0.7,3.9],"scale":[1.2,1.2,1.2]},{"name":"water tote 4","mesh":7,"translation":[2.6,0.7,3.9],"scale":[1.2,1.2,1.2]},{"name":"very busy antenna","mesh":8,"translation":[0,0,0]},{"name":"surveyed lot","mesh":9,"translation":[0,0.06,0],"scale":[22.4,0.12,23.52]},{"name":"reinforced cabin","mesh":10,"translation":[0,1.85,0],"scale":[7.2,3.4,6.8]},{"name":"blast roof","mesh":11,"translation":[0,3.75,0],"scale":[8,0.55,7.6]},{"name":"palisade 0","mesh":12,"translation":[8.65,1.55,0],"scale":[0.22,3.1,0.22]},{"name":"palisade 1","mesh":13,"translation":[7.991558,1.625,3.310212],"rotation":[0,-0.19509,0,0.980785],"scale":[0.22,3.25,0.22]},{"name":"palisade 2","mesh":14,"translation":[6.116474,1.7,6.116474],"rotation":[0,-0.382683,0,0.92388],"scale":[0.22,3.4,0.22]},{"name":"palisade 3","mesh":12,"translation":[3.310212,1.55,7.991558],"rotation":[0,-0.55557,0,0.83147],"scale":[0.22,3.1,0.22]},{"name":"palisade 4","mesh":13,"translation":[0,1.625,8.65],"rotation":[0,-0.707107,0,0.707107],"scale":[0.22,3.25,0.22]},{"name":"palisade 5","mesh":14,"translation":[-3.310212,1.7,7.991558],"rotation":[0,-0.83147,0,0.55557],"scale":[0.22,3.4,0.22]},{"name":"palisade 6","mesh":12,"translation":[-6.116474,1.55,6.116474],"rotation":[0,0.92388,0,-0.382683],"scale":[0.22,3.1,0.22]},{"name":"palisade 7","mesh":13,"translation":[-7.991558,1.625,3.310212],"rotation":[0,0.980785,0,-0.19509],"scale":[0.22,3.25,0.22]},{"name":"palisade 8","mesh":14,"translation":[-8.65,1.7,0],"rotation":[0,1,0,0],"scale":[0.22,3.4,0.22]},{"name":"palisade 9","mesh":12,"translation":[-7.991558,1.55,-3.310212],"rotation":[0,0.980785,0,0.19509],"scale":[0.22,3.1,0.22]},{"name":"palisade 10","mesh":13,"translation":[-6.116474,1.625,-6.116474],"rotation":[0,0.92388,0,0.382683],"scale":[0.22,3.25,0.22]},{"name":"palisade 11","mesh":14,"translation":[-3.310212,1.7,-7.991558],"rotation":[0,0.83147,0,0.55557],"scale":[0.22,3.4,0.22]},{"name":"palisade 12","mesh":12,"translation":[0,1.55,-8.65],"rotation":[0,0.707107,0,0.707107],"scale":[0.22,3.1,0.22]},{"name":"palisade 13","mesh":13,"translation":[3.310212,1.625,-7.991558],"rotation":[0,0.55557,0,0.83147],"scale":[0.22,3.25,0.22]},{"name":"palisade 14","mesh":14,"translation":[6.116474,1.7,-6.116474],"rotation":[0,0.382683,0,0.92388],"scale":[0.22,3.4,0.22]},{"name":"palisade 15","mesh":12,"translation":[7.991558,1.55,-3.310212],"rotation":[0,0.19509,0,0.980785],"scale":[0.22,3.1,0.22]},{"name":"buried bunker hatch","mesh":15,"translation":[-4.3,0.25,-3.5],"scale":[1.05,0.35,1.05]},{"name":"water tote 0","mesh":16,"translation":[-3,0.7,3.9],"scale":[1.2,1.2,1.2]},{"name":"water tote 1","mesh":16,"translation":[-1.6,0.7,3.9],"scale":[1.2,1.2,1.2]},{"name":"water tote 2","mesh":16,"translation":[-0.2,0.7,3.9],"scale":[1.2,1.2,1.2]},{"name":"water tote 3","mesh":16,"translation":[1.2,0.7,3.9],"scale":[1.2,1.2,1.2]},{"name":"water tote 4","mesh":16,"translation":[2.6,0.7,3.9],"scale":[1.2,1.2,1.2]},{"name":"very busy antenna","mesh":17,"translation":[0,0,0]},{"name":"surveyed lot","mesh":9,"translation":[0,0.06,0],"scale":[22.4,0.12,23.52]},{"name":"reinforced cabin","mesh":10,"translation":[0,1.85,0],"scale":[7.2,3.4,6.8]},{"name":"blast roof","mesh":11,"translation":[0,3.75,0],"scale":[8,0.55,7.6]},{"name":"palisade 0","mesh":12,"translation":[8.65,1.55,0],"scale":[0.22,3.1,0.22]},{"name":"palisade 1","mesh":13,"translation":[6.116474,1.625,6.116474],"rotation":[0,-0.382683,0,0.92388],"scale":[0.22,3.25,0.22]},{"name":"palisade 2","mesh":14,"translation":[0,1.7,8.65],"rotation":[0,-0.707107,0,0.707107],"scale":[0.22,3.4,0.22]},{"name":"palisade 3","mesh":12,"translation":[-6.116474,1.55,6.116474],"rotation":[0,0.92388,0,-0.382683],"scale":[0.22,3.1,0.22]},{"name":"palisade 4","mesh":13,"translation":[-8.65,1.625,0],"rotation":[0,1,0,0],"scale":[0.22,3.25,0.22]},{"name":"palisade 5","mesh":14,"translation":[-6.116474,1.7,-6.116474],"rotation":[0,0.92388,0,0.382683],"scale":[0.22,3.4,0.22]},{"name":"palisade 6","mesh":12,"translation":[0,1.55,-8.65],"rotation":[0,0.707107,0,0.707107],"scale":[0.22,3.1,0.22]},{"name":"palisade 7","mesh":13,"translation":[6.116474,1.625,-6.116474],"rotation":[0,0.382683,0,0.92388],"scale":[0.22,3.25,0.22]},{"name":"very busy antenna","mesh":18,"translation":[0,0,0]}],"meshes":[{"primitives":[{"attributes":{"POSITION":0,"NORMAL":1,"TEXCOORD_0":2},"material":0,"mode":4}]},{"primitives":[{"attributes":{"POSITION":3,"NORMAL":1,"TEXCOORD_0":4},"material":0,"mode":4}]},{"primitives":[{"attributes":{"POSITION":0,"NORMAL":1,"TEXCOORD_0":5},"material":1,"mode":4}]},{"primitives":[{"attributes":{"POSITION":0,"NORMAL":1,"TEXCOORD_0":6},"material":2,"mode":4}]},{"primitives":[{"attributes":{"POSITION":0,"NORMAL":1,"TEXCOORD_0":7},"material":2,"mode":4}]},{"primitives":[{"attributes":{"POSITION":0,"NORMAL":1,"TEXCOORD_0":8},"material":2,"mode":4}]},{"primitives":[{"attributes":{"POSITION":9,"NORMAL":10,"TEXCOORD_0":11},"material":1,"mode":4,"indices":12}]},{"primitives":[{"attributes":{"POSITION":0,"NORMAL":1,"TEXCOORD_0":13},"material":3,"mode":4}]},{"primitives":[{"attributes":{"POSITION":14,"NORMAL":15,"TEXCOORD_0":16},"material":1,"mode":4,"indices":17}]},{"primitives":[{"attributes":{"POSITION":18,"NORMAL":19,"TEXCOORD_0":20},"material":0,"mode":4,"indices":21}]},{"primitives":[{"attributes":{"POSITION":18,"NORMAL":19,"TEXCOORD_0":22},"material":0,"mode":4,"indices":21}]},{"primitives":[{"attributes":{"POSITION":18,"NORMAL":19,"TEXCOORD_0":23},"material":1,"mode":4,"indices":21}]},{"primitives":[{"attributes":{"POSITION":18,"NORMAL":19,"TEXCOORD_0":24},"material":2,"mode":4,"indices":21}]},{"primitives":[{"attributes":{"POSITION":18,"NORMAL":19,"TEXCOORD_0":25},"material":2,"mode":4,"indices":21}]},{"primitives":[{"attributes":{"POSITION":18,"NORMAL":19,"TEXCOORD_0":26},"material":2,"mode":4,"indices":21}]},{"primitives":[{"attributes":{"POSITION":27,"NORMAL":28,"TEXCOORD_0":29},"material":1,"mode":4,"indices":30}]},{"primitives":[{"attributes":{"POSITION":18,"NORMAL":19,"TEXCOORD_0":31},"material":3,"mode":4,"indices":21}]},{"primitives":[{"attributes":{"POSITION":32,"NORMAL":33,"TEXCOORD_0":34},"material":1,"mode":4,"indices":35}]},{"primitives":[{"attributes":{"POSITION":36,"NORMAL":37,"TEXCOORD_0":38},"material":1,"mode":4,"indices":39}]}],"materials":[{"name":"concrete","pbrMetallicRoughness":{"baseColorTexture":{"index":0},"metallicRoughnessTexture":{"index":2},"roughnessFactor":1,"metallicFactor":1},"normalTexture":{"index":1,"scale":0.82},"occlusionTexture":{"index":2,"strength":0.35}},{"name":"metal-dark","pbrMetallicRoughness":{"baseColorTexture":{"index":3},"metallicRoughnessTexture":{"index":5},"roughnessFactor":1,"metallicFactor":1},"normalTexture":{"index":4,"scale":0.35},"occlusionTexture":{"index":5,"strength":0.35}},{"name":"metal-galvanized","pbrMetallicRoughness":{"baseColorTexture":{"index":6},"metallicRoughnessTexture":{"index":8},"roughnessFactor":1,"metallicFactor":1},"normalTexture":{"index":7,"scale":0.15},"occlusionTexture":{"index":8,"strength":0.35}},{"name":"glass-blue","pbrMetallicRoughness":{"baseColorTexture":{"index":9},"metallicRoughnessTexture":{"index":11},"roughnessFactor":1,"metallicFactor":1},"normalTexture":{"index":10,"scale":0.12},"occlusionTexture":{"index":11,"strength":0.35}}],"textures":[{"source":0,"sampler":0},{"source":1,"sampler":0},{"source":2,"sampler":0},{"source":3,"sampler":0},{"source":4,"sampler":0},{"source":5,"sampler":0},{"source":6,"sampler":0},{"source":7,"sampler":0},{"source":8,"sampler":0},{"source":9,"sampler":0},{"source":10,"sampler":0},{"source":11,"sampler":0}],"images":[{"uri":"../textures/concrete-albedo.png"},{"uri":"../textures/concrete-normal.png"},{"uri":"../textures/concrete-orm.png"},{"uri":"../textures/metal-dark-albedo.png"},{"uri":"../textures/metal-dark-normal.png"},{"uri":"../textures/metal-dark-orm.png"},{"uri":"../textures/metal-galvanized-albedo.png"},{"uri":"../textures/metal-galvanized-normal.png"},{"uri":"../textures/metal-galvanized-orm.png"},{"uri":"../textures/glass-blue-albedo.png"},{"uri":"../textures/glass-blue-normal.png"},{"uri":"../textures/glass-blue-orm.png"}],"samplers":[{"magFilter":9729,"minFilter":9987,"wrapS":10497,"wrapT":10497}],"buffers":[{"uri":"../shared/geometry.bin","byteLength":16435520}],"bufferViews":[{"buffer":0,"byteOffset":0,"byteLength":3888,"target":34962},{"buffer":0,"byteOffset":3888,"byteLength":3888,"target":34962},{"buffer":0,"byteOffset":11121984,"byteLength":2592,"target":34962},{"buffer":0,"byteOffset":599616,"byteLength":3888,"target":34962},{"buffer":0,"byteOffset":11084864,"byteLength":2592,"target":34962},{"buffer":0,"byteOffset":11087456,"byteLength":2592,"target":34962},{"buffer":0,"byteOffset":11090048,"byteLength":2592,"target":34962},{"buffer":0,"byteOffset":11092640,"byteLength":2592,"target":34962},{"buffer":0,"byteOffset":11095232,"byteLength":2592,"target":34962},{"buffer":0,"byteOffset":5526272,"byteLength":912,"target":34962},{"buffer":0,"byteOffset":5527184,"byteLength":912,"target":34962},{"buffer":0,"byteOffset":11097824,"byteLength":608,"target":34962},{"buffer":0,"byteOffset":387284,"byteLength":288,"target":34963},{"buffer":0,"byteOffset":11098432,"byteLength":2592,"target":34962},{"buffer":0,"byteOffset":11147856,"byteLength":1404,"target":34962},{"buffer":0,"byteOffset":11149260,"byteLength":1404,"target":34962},{"buffer":0,"byteOffset":10880064,"byteLength":936,"target":34962},{"buffer":0,"byteOffset":2086708,"byteLength":1152,"target":34963},{"buffer":0,"byteOffset":46644,"byteLength":288,"target":34962},{"buffer":0,"byteOffset":45952,"byteLength":288,"target":34962},{"buffer":0,"byteOffset":11124576,"byteLength":192,"target":34962},{"buffer":0,"byteOffset":46432,"byteLength":72,"target":34963},{"buffer":0,"byteOffset":11101024,"byteLength":192,"target":34962},{"buffer":0,"byteOffset":11101216,"byteLength":192,"target":34962},{"buffer":0,"byteOffset":11101408,"byteLength":192,"target":34962},{"buffer":0,"byteOffset":11101600,"byteLength":192,"target":34962},{"buffer":0,"byteOffset":11101792,"byteLength":192,"target":34962},{"buffer":0,"byteOffset":1112312,"byteLength":480,"target":34962},{"buffer":0,"byteOffset":1112792,"byteLength":480,"target":34962},{"buffer":0,"byteOffset":11101984,"byteLength":320,"target":34962},{"buffer":0,"byteOffset":48596,"byteLength":144,"target":34963},{"buffer":0,"byteOffset":11102304,"byteLength":192,"target":34962},{"buffer":0,"byteOffset":11150664,"byteLength":588,"target":34962},{"buffer":0,"byteOffset":11151252,"byteLength":588,"target":34962},{"buffer":0,"byteOffset":10883192,"byteLength":392,"target":34962},{"buffer":0,"byteOffset":2096404,"byteLength":432,"target":34963},{"buffer":0,"byteOffset":11151840,"byteLength":300,"target":34962},{"buffer":0,"byteOffset":11152140,"byteLength":300,"target":34962},{"buffer":0,"byteOffset":2878428,"byteLength":200,"target":34962},{"buffer":0,"byteOffset":440168,"byteLength":192,"target":34963}],"accessors":[{"bufferView":0,"componentType":5126,"count":324,"type":"VEC3","min":[-0.5,-0.5,-0.5],"max":[0.5,0.5,0.5]},{"bufferView":1,"componentType":5126,"count":324,"type":"VEC3"},{"bufferView":2,"componentType":5126,"count":324,"type":"VEC2"},{"bufferView":3,"componentType":5126,"count":324,"type":"VEC3","min":[-0.5,-0.5,-0.5],"max":[0.5,0.5,0.5]},{"bufferView":4,"componentType":5126,"count":324,"type":"VEC2"},{"bufferView":5,"componentType":5126,"count":324,"type":"VEC2"},{"bufferView":6,"componentType":5126,"count":324,"type":"VEC2"},{"bufferView":7,"componentType":5126,"count":324,"type":"VEC2"},{"bufferView":8,"componentType":5126,"count":324,"type":"VEC2"},{"bufferView":9,"componentType":5126,"count":76,"type":"VEC3","min":[-1,-0.5,-1],"max":[1,0.5,1]},{"bufferView":10,"componentType":5126,"count":76,"type":"VEC3"},{"bufferView":11,"componentType":5126,"count":76,"type":"VEC2"},{"bufferView":12,"componentType":5123,"count":144,"type":"SCALAR"},{"bufferView":13,"componentType":5126,"count":324,"type":"VEC2"},{"bufferView":14,"componentType":5126,"count":117,"type":"VEC3","min":[-2.227278470993042,3.999993324279785,-0.09000000357627869],"max":[0.39444559812545776,10.2857666015625,0.09000000357627869]},{"bufferView":15,"componentType":5126,"count":117,"type":"VEC3"},{"bufferView":16,"componentType":5126,"count":117,"type":"VEC2"},{"bufferView":17,"componentType":5123,"count":576,"type":"SCALAR"},{"bufferView":18,"componentType":5126,"count":24,"type":"VEC3","min":[-0.5,-0.5,-0.5],"max":[0.5,0.5,0.5]},{"bufferView":19,"componentType":5126,"count":24,"type":"VEC3"},{"bufferView":20,"componentType":5126,"count":24,"type":"VEC2"},{"bufferView":21,"componentType":5123,"count":36,"type":"SCALAR"},{"bufferView":22,"componentType":5126,"count":24,"type":"VEC2"},{"bufferView":23,"componentType":5126,"count":24,"type":"VEC2"},{"bufferView":24,"componentType":5126,"count":24,"type":"VEC2"},{"bufferView":25,"componentType":5126,"count":24,"type":"VEC2"},{"bufferView":26,"componentType":5126,"count":24,"type":"VEC2"},{"bufferView":27,"componentType":5126,"count":40,"type":"VEC3","min":[-0.8660253882408142,-0.5,-1],"max":[0.8660253882408142,0.5,1]},{"bufferView":28,"componentType":5126,"count":40,"type":"VEC3"},{"bufferView":29,"componentType":5126,"count":40,"type":"VEC2"},{"bufferView":30,"componentType":5123,"count":72,"type":"SCALAR"},{"bufferView":31,"componentType":5126,"count":24,"type":"VEC2"},{"bufferView":32,"componentType":5126,"count":49,"type":"VEC3","min":[-2.223623752593994,3.9999942779541016,-0.09000000357627869],"max":[0.3823891282081604,10.274275779724121,0.09000000357627869]},{"bufferView":33,"componentType":5126,"count":49,"type":"VEC3"},{"bufferView":34,"componentType":5126,"count":49,"type":"VEC2"},{"bufferView":35,"componentType":5123,"count":216,"type":"SCALAR"},{"bufferView":36,"componentType":5126,"count":25,"type":"VEC3","min":[-2.227278470993042,3.999993324279785,-0.09000000357627869],"max":[0.39444559812545776,10.2857666015625,0.09000000357627869]},{"bufferView":37,"componentType":5126,"count":25,"type":"VEC3"},{"bufferView":38,"componentType":5126,"count":25,"type":"VEC2"},{"bufferView":39,"componentType":5123,"count":96,"type":"SCALAR"}],"extensionsUsed":["KHR_materials_unlit"],"extras":{"id":"vlt-prepper-compound-34","family":"prepper-compound","variant":33,"plan":"C4-2","units":"metres","up":"+Y","front":"+Z","lodScenes":[0,1,2]}}