{"asset":{"version":"2.0","generator":"SLOPMERICA Department of Unnecessary Development 1.0"},"scene":0,"scenes":[{"name":"LOD 0","nodes":[0,1,2,3,4,5,6,7,8,9,10,11,12,13,14,15,16,17,18,19,20,21,22,23,24,25,26,27,28,29,30,31,32,33],"extras":{"level":0}},{"name":"LOD 1","nodes":[34,35,36,37,38,39,40,41,42,43,44,45,46,47,48,49,50,51,52,53,54,55,56,57,58,59,60,61,62,63,64,65,66,67],"extras":{"level":1}},{"name":"LOD 2","nodes":[68,69,70,71,72,73,74,75,76,77,78,79,80],"extras":{"level":2}}],"nodes":[{"name":"site-pad","mesh":0,"translation":[0,0.06,0],"scale":[34.944,0.12,22.464]},{"name":"variant-apron","mesh":1,"translation":[-2.184,0.13,11.02],"scale":[10.752,0.08,0.98]},{"name":"bollard-0","mesh":2,"translation":[-12.768,0.43,11.14],"scale":[0.08,0.66,0.08]},{"name":"bollard-1","mesh":2,"translation":[-6.384,0.43,11.14],"scale":[0.08,0.66,0.08]},{"name":"bollard-2","mesh":2,"translation":[0,0.43,11.14],"scale":[0.08,0.66,0.08]},{"name":"bollard-3","mesh":2,"translation":[6.384,0.43,11.14],"scale":[0.08,0.66,0.08]},{"name":"bollard-4","mesh":2,"translation":[12.768,0.43,11.14],"scale":[0.08,0.66,0.08]},{"name":"layout-cabinet","mesh":3,"translation":[17,0.615,-1.62],"scale":[0.57,0.99,0.32]},{"name":"industrial-shell","mesh":4,"translation":[0,4.36,0],"scale":[33.6,8.48,21.6]},{"name":"industrial-roof","mesh":5,"translation":[0,8.75,0],"scale":[33.95,0.28,21.95]},{"name":"loading-bay-0","mesh":6,"translation":[-12.768,1.38,10.92],"scale":[2.2,2.5,0.16]},{"name":"dock-0","mesh":7,"translation":[-12.768,0.35,11.38],"scale":[1.8,0.45,1]},{"name":"loading-bay-1","mesh":6,"translation":[-7.6608,1.38,10.92],"scale":[2.2,2.5,0.16]},{"name":"dock-1","mesh":7,"translation":[-7.6608,0.35,11.38],"scale":[1.8,0.45,1]},{"name":"loading-bay-2","mesh":6,"translation":[-2.5536,1.38,10.92],"scale":[2.2,2.5,0.16]},{"name":"dock-2","mesh":7,"translation":[-2.5536,0.35,11.38],"scale":[1.8,0.45,1]},{"name":"loading-bay-3","mesh":6,"translation":[2.5536,1.38,10.92],"scale":[2.2,2.5,0.16]},{"name":"dock-3","mesh":7,"translation":[2.5536,0.35,11.38],"scale":[1.8,0.45,1]},{"name":"loading-bay-4","mesh":6,"translation":[7.6608,1.38,10.92],"scale":[2.2,2.5,0.16]},{"name":"dock-4","mesh":7,"translation":[7.6608,0.35,11.38],"scale":[1.8,0.45,1]},{"name":"loading-bay-5","mesh":6,"translation":[12.768,1.38,10.92],"scale":[2.2,2.5,0.16]},{"name":"dock-5","mesh":7,"translation":[12.768,0.35,11.38],"scale":[1.8,0.45,1]},{"name":"conveyor-0","mesh":8,"translation":[12.096,3,-5.4],"rotation":[0.00439,0.10969,0.039748,0.993161],"scale":[11.424,0.55,1.1]},{"name":"conveyor-1","mesh":8,"translation":[12.096,4,-3.6],"rotation":[0.00439,0.10969,0.039748,0.993161],"scale":[11.424,0.55,1.1]},{"name":"conveyor-2","mesh":8,"translation":[12.096,5,-1.8],"rotation":[0.00439,0.10969,0.039748,0.993161],"scale":[11.424,0.55,1.1]},{"name":"roof-hvac-0","mesh":9,"translation":[-12.096,9.35,0],"scale":[2,1.28,1.7]},{"name":"roof-hvac-1","mesh":9,"translation":[-8.064,9.35,0],"scale":[2,1.28,1.7]},{"name":"roof-hvac-2","mesh":9,"translation":[-4.032,9.35,0],"scale":[2,1.28,1.7]},{"name":"roof-hvac-3","mesh":9,"translation":[0,9.35,0],"scale":[2,1.28,1.7]},{"name":"roof-hvac-4","mesh":9,"translation":[4.032,9.35,0],"scale":[2,1.28,1.7]},{"name":"roof-hvac-5","mesh":9,"translation":[8.064,9.35,0],"scale":[2,1.28,1.7]},{"name":"roof-hvac-6","mesh":9,"translation":[12.096,9.35,0],"scale":[2,1.28,1.7]},{"name":"fulfillment-sign-back","mesh":10,"translation":[0,7.28,11],"scale":[7.3,1.45,1]},{"name":"fulfillment-sign","mesh":11,"translation":[0,7.28,11.029],"scale":[7.2,1.35,1]},{"name":"site-pad","mesh":12,"translation":[0,0.06,0],"scale":[34.944,0.12,22.464]},{"name":"variant-apron","mesh":13,"translation":[-2.184,0.13,11.02],"scale":[10.752,0.08,0.98]},{"name":"bollard-0","mesh":14,"translation":[-12.768,0.43,11.14],"scale":[0.08,0.66,0.08]},{"name":"bollard-1","mesh":14,"translation":[-6.384,0.43,11.14],"scale":[0.08,0.66,0.08]},{"name":"bollard-2","mesh":14,"translation":[0,0.43,11.14],"scale":[0.08,0.66,0.08]},{"name":"bollard-3","mesh":14,"translation":[6.384,0.43,11.14],"scale":[0.08,0.66,0.08]},{"name":"bollard-4","mesh":14,"translation":[12.768,0.43,11.14],"scale":[0.08,0.66,0.08]},{"name":"layout-cabinet","mesh":15,"translation":[17,0.615,-1.62],"scale":[0.57,0.99,0.32]},{"name":"industrial-shell","mesh":16,"translation":[0,4.36,0],"scale":[33.6,8.48,21.6]},{"name":"industrial-roof","mesh":17,"translation":[0,8.75,0],"scale":[33.95,0.28,21.95]},{"name":"loading-bay-0","mesh":18,"translation":[-12.768,1.38,10.92],"scale":[2.2,2.5,0.16]},{"name":"dock-0","mesh":19,"translation":[-12.768,0.35,11.38],"scale":[1.8,0.45,1]},{"name":"loading-bay-1","mesh":18,"translation":[-7.6608,1.38,10.92],"scale":[2.2,2.5,0.16]},{"name":"dock-1","mesh":19,"translation":[-7.6608,0.35,11.38],"scale":[1.8,0.45,1]},{"name":"loading-bay-2","mesh":18,"translation":[-2.5536,1.38,10.92],"scale":[2.2,2.5,0.16]},{"name":"dock-2","mesh":19,"translation":[-2.5536,0.35,11.38],"scale":[1.8,0.45,1]},{"name":"loading-bay-3","mesh":18,"translation":[2.5536,1.38,10.92],"scale":[2.2,2.5,0.16]},{"name":"dock-3","mesh":19,"translation":[2.5536,0.35,11.38],"scale":[1.8,0.45,1]},{"name":"loading-bay-4","mesh":18,"translation":[7.6608,1.38,10.92],"scale":[2.2,2.5,0.16]},{"name":"dock-4","mesh":19,"translation":[7.6608,0.35,11.38],"scale":[1.8,0.45,1]},{"name":"loading-bay-5","mesh":18,"translation":[12.768,1.38,10.92],"scale":[2.2,2.5,0.16]},{"name":"dock-5","mesh":19,"translation":[12.768,0.35,11.38],"scale":[1.8,0.45,1]},{"name":"conveyor-0","mesh":20,"translation":[12.096,3,-5.4],"rotation":[0.00439,0.10969,0.039748,0.993161],"scale":[11.424,0.55,1.1]},{"name":"conveyor-1","mesh":20,"translation":[12.096,4,-3.6],"rotation":[0.00439,0.10969,0.039748,0.993161],"scale":[11.424,0.55,1.1]},{"name":"conveyor-2","mesh":20,"translation":[12.096,5,-1.8],"rotation":[0.00439,0.10969,0.039748,0.993161],"scale":[11.424,0.55,1.1]},{"name":"roof-hvac-0","mesh":21,"translation":[-12.096,9.35,0],"scale":[2,1.28,1.7]},{"name":"roof-hvac-1","mesh":21,"translation":[-8.064,9.35,0],"scale":[2,1.28,1.7]},{"name":"roof-hvac-2","mesh":21,"translation":[-4.032,9.35,0],"scale":[2,1.28,1.7]},{"name":"roof-hvac-3","mesh":21,"translation":[0,9.35,0],"scale":[2,1.28,1.7]},{"name":"roof-hvac-4","mesh":21,"translation":[4.032,9.35,0],"scale":[2,1.28,1.7]},{"name":"roof-hvac-5","mesh":21,"translation":[8.064,9.35,0],"scale":[2,1.28,1.7]},{"name":"roof-hvac-6","mesh":21,"translation":[12.096,9.35,0],"scale":[2,1.28,1.7]},{"name":"fulfillment-sign-back","mesh":10,"translation":[0,7.28,11],"scale":[7.3,1.45,1]},{"name":"fulfillment-sign","mesh":11,"translation":[0,7.28,11.029],"scale":[7.2,1.35,1]},{"name":"site-pad","mesh":12,"translation":[0,0.06,0],"scale":[34.944,0.12,22.464]},{"name":"variant-apron","mesh":13,"translation":[-2.184,0.13,11.02],"scale":[10.752,0.08,0.98]},{"name":"bollard-0","mesh":14,"translation":[-12.768,0.43,11.14],"scale":[0.08,0.66,0.08]},{"name":"layout-cabinet","mesh":15,"translation":[17,0.615,-1.62],"scale":[0.57,0.99,0.32]},{"name":"industrial-shell","mesh":16,"translation":[0,4.36,0],"scale":[33.6,8.48,21.6]},{"name":"industrial-roof","mesh":17,"translation":[0,8.75,0],"scale":[33.95,0.28,21.95]},{"name":"loading-bay-0","mesh":18,"translation":[-12.768,1.38,10.92],"scale":[2.2,2.5,0.16]},{"name":"loading-bay-1","mesh":18,"translation":[12.768,1.38,10.92],"scale":[2.2,2.5,0.16]},{"name":"conveyor-0","mesh":20,"translation":[12.096,3,-5.4],"rotation":[0.00439,0.10969,0.039748,0.993161],"scale":[11.424,0.55,1.1]},{"name":"roof-hvac-0","mesh":21,"translation":[-12.096,9.35,0],"scale":[2,1.28,1.7]},{"name":"roof-hvac-1","mesh":21,"translation":[12.096,9.35,0],"scale":[2,1.28,1.7]},{"name":"fulfillment-sign-back","mesh":10,"translation":[0,7.28,11],"scale":[7.3,1.45,1]},{"name":"fulfillment-sign","mesh":11,"translation":[0,7.28,11.029],"scale":[7.2,1.35,1]}],"meshes":[{"primitives":[{"attributes":{"POSITION":0,"NORMAL":1,"TEXCOORD_0":2},"material":0,"mode":4}]},{"primitives":[{"attributes":{"POSITION":0,"NORMAL":1,"TEXCOORD_0":3},"material":0,"mode":4}]},{"primitives":[{"attributes":{"POSITION":4,"NORMAL":5,"TEXCOORD_0":6},"material":1,"mode":4,"indices":7}]},{"primitives":[{"attributes":{"POSITION":0,"NORMAL":1,"TEXCOORD_0":8},"material":2,"mode":4}]},{"primitives":[{"attributes":{"POSITION":9,"NORMAL":1,"TEXCOORD_0":10},"material":3,"mode":4}]},{"primitives":[{"attributes":{"POSITION":0,"NORMAL":1,"TEXCOORD_0":11},"material":4,"mode":4}]},{"primitives":[{"attributes":{"POSITION":0,"NORMAL":1,"TEXCOORD_0":12},"material":5,"mode":4}]},{"primitives":[{"attributes":{"POSITION":0,"NORMAL":1,"TEXCOORD_0":13},"material":6,"mode":4}]},{"primitives":[{"attributes":{"POSITION":0,"NORMAL":1,"TEXCOORD_0":14},"material":5,"mode":4}]},{"primitives":[{"attributes":{"POSITION":15,"NORMAL":1,"TEXCOORD_0":16},"material":2,"mode":4}]},{"primitives":[{"attributes":{"POSITION":17,"NORMAL":18,"TEXCOORD_0":19},"material":5,"mode":4,"indices":20}]},{"primitives":[{"attributes":{"POSITION":21,"NORMAL":22,"TEXCOORD_0":23},"material":7,"mode":4,"indices":24}]},{"primitives":[{"attributes":{"POSITION":25,"NORMAL":18,"TEXCOORD_0":26},"material":0,"mode":4,"indices":20}]},{"primitives":[{"attributes":{"POSITION":25,"NORMAL":18,"TEXCOORD_0":27},"material":0,"mode":4,"indices":20}]},{"primitives":[{"attributes":{"POSITION":28,"NORMAL":29,"TEXCOORD_0":30},"material":1,"mode":4,"indices":31}]},{"primitives":[{"attributes":{"POSITION":25,"NORMAL":18,"TEXCOORD_0":32},"material":2,"mode":4,"indices":20}]},{"primitives":[{"attributes":{"POSITION":25,"NORMAL":18,"TEXCOORD_0":33},"material":3,"mode":4,"indices":20}]},{"primitives":[{"attributes":{"POSITION":25,"NORMAL":18,"TEXCOORD_0":34},"material":4,"mode":4,"indices":20}]},{"primitives":[{"attributes":{"POSITION":25,"NORMAL":18,"TEXCOORD_0":35},"material":5,"mode":4,"indices":20}]},{"primitives":[{"attributes":{"POSITION":25,"NORMAL":18,"TEXCOORD_0":36},"material":6,"mode":4,"indices":20}]},{"primitives":[{"attributes":{"POSITION":25,"NORMAL":18,"TEXCOORD_0":37},"material":5,"mode":4,"indices":20}]},{"primitives":[{"attributes":{"POSITION":25,"NORMAL":18,"TEXCOORD_0":38},"material":2,"mode":4,"indices":20}]}],"materials":[{"name":"asphalt","pbrMetallicRoughness":{"baseColorTexture":{"index":0},"metallicRoughnessTexture":{"index":2},"roughnessFactor":1,"metallicFactor":1},"normalTexture":{"index":1,"scale":0.62},"occlusionTexture":{"index":2,"strength":0.35}},{"name":"paint-yellow","pbrMetallicRoughness":{"baseColorFactor":[0.76052450467022,0.4793201830913402,0.07818742179702069,1],"roughnessFactor":0.66,"metallicFactor":0.03}},{"name":"metal-galvanized","pbrMetallicRoughness":{"baseColorTexture":{"index":3},"metallicRoughnessTexture":{"index":5},"roughnessFactor":1,"metallicFactor":1},"normalTexture":{"index":4,"scale":0.15},"occlusionTexture":{"index":5,"strength":0.35}},{"name":"paint-blue","pbrMetallicRoughness":{"baseColorFactor":[0.05126945836711539,0.10946171076915331,0.22696587349938613,1],"roughnessFactor":0.58,"metallicFactor":0.05}},{"name":"roof-metal","pbrMetallicRoughness":{"baseColorTexture":{"index":6},"metallicRoughnessTexture":{"index":8},"roughnessFactor":1,"metallicFactor":1},"normalTexture":{"index":7,"scale":0.68},"occlusionTexture":{"index":8,"strength":0.35}},{"name":"metal-dark","pbrMetallicRoughness":{"baseColorTexture":{"index":9},"metallicRoughnessTexture":{"index":11},"roughnessFactor":1,"metallicFactor":1},"normalTexture":{"index":10,"scale":0.35},"occlusionTexture":{"index":11,"strength":0.35}},{"name":"concrete","pbrMetallicRoughness":{"baseColorTexture":{"index":12},"metallicRoughnessTexture":{"index":14},"roughnessFactor":1,"metallicFactor":1},"normalTexture":{"index":13,"scale":0.82},"occlusionTexture":{"index":14,"strength":0.35}},{"name":"fulfillment-center signage","pbrMetallicRoughness":{"baseColorTexture":{"index":15},"roughnessFactor":1,"metallicFactor":0},"extensions":{"KHR_materials_unlit":{}}}],"textures":[{"source":0,"sampler":0},{"source":1,"sampler":0},{"source":2,"sampler":0},{"source":3,"sampler":0},{"source":4,"sampler":0},{"source":5,"sampler":0},{"source":6,"sampler":0},{"source":7,"sampler":0},{"source":8,"sampler":0},{"source":9,"sampler":0},{"source":10,"sampler":0},{"source":11,"sampler":0},{"source":12,"sampler":0},{"source":13,"sampler":0},{"source":14,"sampler":0},{"source":15,"sampler":0}],"images":[{"uri":"../textures/asphalt-albedo.png"},{"uri":"../textures/asphalt-normal.png"},{"uri":"../textures/asphalt-orm.png"},{"uri":"../textures/metal-galvanized-albedo.png"},{"uri":"../textures/metal-galvanized-normal.png"},{"uri":"../textures/metal-galvanized-orm.png"},{"uri":"../textures/roof-metal-albedo.png"},{"uri":"../textures/roof-metal-normal.png"},{"uri":"../textures/roof-metal-orm.png"},{"uri":"../textures/metal-dark-albedo.png"},{"uri":"../textures/metal-dark-normal.png"},{"uri":"../textures/metal-dark-orm.png"},{"uri":"../textures/concrete-albedo.png"},{"uri":"../textures/concrete-normal.png"},{"uri":"../textures/concrete-orm.png"},{"uri":"../signs/fulfillment-center.png"}],"samplers":[{"magFilter":9729,"minFilter":9987,"wrapS":10497,"wrapT":10497}],"buffers":[{"uri":"../shared/geometry.bin","byteLength":16435520}],"bufferViews":[{"buffer":0,"byteOffset":0,"byteLength":3888,"target":34962},{"buffer":0,"byteOffset":3888,"byteLength":3888,"target":34962},{"buffer":0,"byteOffset":5618416,"byteLength":2592,"target":34962},{"buffer":0,"byteOffset":5646256,"byteLength":2592,"target":34962},{"buffer":0,"byteOffset":12960,"byteLength":1200,"target":34962},{"buffer":0,"byteOffset":14160,"byteLength":1200,"target":34962},{"buffer":0,"byteOffset":120900,"byteLength":800,"target":34962},{"buffer":0,"byteOffset":16160,"byteLength":384,"target":34963},{"buffer":0,"byteOffset":144420,"byteLength":2592,"target":34962},{"buffer":0,"byteOffset":2004284,"byteLength":3888,"target":34962},{"buffer":0,"byteOffset":5623600,"byteLength":2592,"target":34962},{"buffer":0,"byteOffset":5626192,"byteLength":2592,"target":34962},{"buffer":0,"byteOffset":28208,"byteLength":2592,"target":34962},{"buffer":0,"byteOffset":30800,"byteLength":2592,"target":34962},{"buffer":0,"byteOffset":5628784,"byteLength":2592,"target":34962},{"buffer":0,"byteOffset":4885320,"byteLength":3888,"target":34962},{"buffer":0,"byteOffset":5634928,"byteLength":2592,"target":34962},{"buffer":0,"byteOffset":45664,"byteLength":288,"target":34962},{"buffer":0,"byteOffset":45952,"byteLength":288,"target":34962},{"buffer":0,"byteOffset":46240,"byteLength":192,"target":34962},{"buffer":0,"byteOffset":46432,"byteLength":72,"target":34963},{"buffer":0,"byteOffset":46504,"byteLength":48,"target":34962},{"buffer":0,"byteOffset":46552,"byteLength":48,"target":34962},{"buffer":0,"byteOffset":147012,"byteLength":32,"target":34962},{"buffer":0,"byteOffset":46632,"byteLength":12,"target":34963},{"buffer":0,"byteOffset":46644,"byteLength":288,"target":34962},{"buffer":0,"byteOffset":5631376,"byteLength":192,"target":34962},{"buffer":0,"byteOffset":5648848,"byteLength":192,"target":34962},{"buffer":0,"byteOffset":47316,"byteLength":480,"target":34962},{"buffer":0,"byteOffset":47796,"byteLength":480,"target":34962},{"buffer":0,"byteOffset":124516,"byteLength":320,"target":34962},{"buffer":0,"byteOffset":48596,"byteLength":144,"target":34963},{"buffer":0,"byteOffset":147236,"byteLength":192,"target":34962},{"buffer":0,"byteOffset":5631760,"byteLength":192,"target":34962},{"buffer":0,"byteOffset":5631952,"byteLength":192,"target":34962},{"buffer":0,"byteOffset":49316,"byteLength":192,"target":34962},{"buffer":0,"byteOffset":49508,"byteLength":192,"target":34962},{"buffer":0,"byteOffset":5632144,"byteLength":192,"target":34962},{"buffer":0,"byteOffset":5637712,"byteLength":192,"target":34962}],"accessors":[{"bufferView":0,"componentType":5126,"count":324,"type":"VEC3","min":[-0.5,-0.5,-0.5],"max":[0.5,0.5,0.5]},{"bufferView":1,"componentType":5126,"count":324,"type":"VEC3"},{"bufferView":2,"componentType":5126,"count":324,"type":"VEC2"},{"bufferView":3,"componentType":5126,"count":324,"type":"VEC2"},{"bufferView":4,"componentType":5126,"count":100,"type":"VEC3","min":[-1,-0.5,-1],"max":[1,0.5,1]},{"bufferView":5,"componentType":5126,"count":100,"type":"VEC3"},{"bufferView":6,"componentType":5126,"count":100,"type":"VEC2"},{"bufferView":7,"componentType":5123,"count":192,"type":"SCALAR"},{"bufferView":8,"componentType":5126,"count":324,"type":"VEC2"},{"bufferView":9,"componentType":5126,"count":324,"type":"VEC3","min":[-0.5,-0.5,-0.5],"max":[0.5,0.5,0.5]},{"bufferView":10,"componentType":5126,"count":324,"type":"VEC2"},{"bufferView":11,"componentType":5126,"count":324,"type":"VEC2"},{"bufferView":12,"componentType":5126,"count":324,"type":"VEC2"},{"bufferView":13,"componentType":5126,"count":324,"type":"VEC2"},{"bufferView":14,"componentType":5126,"count":324,"type":"VEC2"},{"bufferView":15,"componentType":5126,"count":324,"type":"VEC3","min":[-0.5,-0.5,-0.5],"max":[0.5,0.5,0.5]},{"bufferView":16,"componentType":5126,"count":324,"type":"VEC2"},{"bufferView":17,"componentType":5126,"count":24,"type":"VEC3","min":[-0.5,-0.5,-0.02500000037252903],"max":[0.5,0.5,0.02500000037252903]},{"bufferView":18,"componentType":5126,"count":24,"type":"VEC3"},{"bufferView":19,"componentType":5126,"count":24,"type":"VEC2"},{"bufferView":20,"componentType":5123,"count":36,"type":"SCALAR"},{"bufferView":21,"componentType":5126,"count":4,"type":"VEC3","min":[-0.5,-0.5,0],"max":[0.5,0.5,0]},{"bufferView":22,"componentType":5126,"count":4,"type":"VEC3"},{"bufferView":23,"componentType":5126,"count":4,"type":"VEC2"},{"bufferView":24,"componentType":5123,"count":6,"type":"SCALAR"},{"bufferView":25,"componentType":5126,"count":24,"type":"VEC3","min":[-0.5,-0.5,-0.5],"max":[0.5,0.5,0.5]},{"bufferView":26,"componentType":5126,"count":24,"type":"VEC2"},{"bufferView":27,"componentType":5126,"count":24,"type":"VEC2"},{"bufferView":28,"componentType":5126,"count":40,"type":"VEC3","min":[-0.8660253882408142,-0.5,-1],"max":[0.8660253882408142,0.5,1]},{"bufferView":29,"componentType":5126,"count":40,"type":"VEC3"},{"bufferView":30,"componentType":5126,"count":40,"type":"VEC2"},{"bufferView":31,"componentType":5123,"count":72,"type":"SCALAR"},{"bufferView":32,"componentType":5126,"count":24,"type":"VEC2"},{"bufferView":33,"componentType":5126,"count":24,"type":"VEC2"},{"bufferView":34,"componentType":5126,"count":24,"type":"VEC2"},{"bufferView":35,"componentType":5126,"count":24,"type":"VEC2"},{"bufferView":36,"componentType":5126,"count":24,"type":"VEC2"},{"bufferView":37,"componentType":5126,"count":24,"type":"VEC2"},{"bufferView":38,"componentType":5126,"count":24,"type":"VEC2"}],"extensionsUsed":["KHR_materials_unlit"],"extras":{"id":"vlt-fulfillment-center-10","family":"fulfillment-center","variant":9,"plan":"B5-1","units":"metres","up":"+Y","front":"+Z","lodScenes":[0,1,2]}}