{"asset":{"version":"2.0","generator":"SLOPMERICA Department of Unnecessary Development 1.0"},"scene":0,"scenes":[{"name":"LOD 0","nodes":[0,1,2,3,4,5,6,7,8,9,10,11,12,13,14,15,16,17,18,19,20,21,22,23],"extras":{"level":0}},{"name":"LOD 1","nodes":[24,25,26,27,28,29,30,31,32,33,34,35,36,37,38,39,40,41,42,43],"extras":{"level":1}},{"name":"LOD 2","nodes":[44,45,46,47,48,49,50,51,52,53,54,55],"extras":{"level":2}}],"nodes":[{"name":"foundation","mesh":0,"translation":[0,0.08,0],"scale":[17.8,0.16,11.4]},{"name":"store-shell","mesh":1,"translation":[0,2.184,0],"scale":[11.232,4.368,6.624]},{"name":"roof-cap","mesh":2,"translation":[0,4.478,0],"scale":[11.482,0.22,6.874]},{"name":"window-0","mesh":3,"translation":[-4.15584,1.65,3.367],"scale":[1.207742,1.45,0.09]},{"name":"window-1","mesh":3,"translation":[-2.493504,1.65,3.367],"scale":[1.207742,1.45,0.09]},{"name":"window-2","mesh":3,"translation":[-0.831168,1.65,3.367],"scale":[1.207742,1.45,0.09]},{"name":"window-3","mesh":3,"translation":[0.831168,1.65,3.367],"scale":[1.207742,1.45,0.09]},{"name":"window-4","mesh":3,"translation":[2.493504,1.65,3.367],"scale":[1.207742,1.45,0.09]},{"name":"window-5","mesh":3,"translation":[4.15584,1.65,3.367],"scale":[1.207742,1.45,0.09]},{"name":"door","mesh":4,"translation":[-3.9312,1.025,3.382],"scale":[0.92,2.05,0.12]},{"name":"awning","mesh":5,"translation":[0,2.88288,3.792],"rotation":[-0.039989,0,0,0.9992],"scale":[9.21024,0.18,1.05]},{"name":"mullion-0","mesh":6,"translation":[-3.59424,1.65,3.432],"scale":[0.08,1.55,0.12]},{"name":"mullion-1","mesh":6,"translation":[-1.19808,1.65,3.432],"scale":[0.08,1.55,0.12]},{"name":"mullion-2","mesh":6,"translation":[1.19808,1.65,3.432],"scale":[0.08,1.55,0.12]},{"name":"mullion-3","mesh":6,"translation":[3.59424,1.65,3.432],"scale":[0.08,1.55,0.12]},{"name":"primary-sign-back","mesh":7,"translation":[0,3.45072,3.472],"scale":[7.06384,1.25,1]},{"name":"primary-sign","mesh":8,"translation":[0,3.45072,3.501],"scale":[6.96384,1.15,1]},{"name":"tooth-crown","mesh":9,"translation":[-4.68,6.864,0],"scale":[2,1.55,0.65]},{"name":"tooth-root-0","mesh":10,"translation":[-5.505,1.56,0],"rotation":[0,0,-0.097346,0.995251],"scale":[0.38,1.5,0.38]},{"name":"tooth-root-1","mesh":10,"translation":[-4.955,1.56,0],"rotation":[0,0,-0.032494,0.999472],"scale":[0.38,1.5,0.38]},{"name":"tooth-root-2","mesh":10,"translation":[-4.405,1.56,0],"rotation":[0,0,0.032494,0.999472],"scale":[0.38,1.5,0.38]},{"name":"tooth-root-3","mesh":10,"translation":[-3.855,1.56,0],"rotation":[0,0,0.097346,0.995251],"scale":[0.38,1.5,0.38]},{"name":"finance-brace","mesh":11,"translation":[-4.68,6.9888,0.68]},{"name":"open-state-bollard","mesh":12,"translation":[-6.708,0.425,5.152],"scale":[0.22,0.85,0.22]},{"name":"foundation","mesh":13,"translation":[0,0.08,0],"scale":[17.8,0.16,11.4]},{"name":"store-shell","mesh":14,"translation":[0,2.184,0],"scale":[11.232,4.368,6.624]},{"name":"roof-cap","mesh":15,"translation":[0,4.478,0],"scale":[11.482,0.22,6.874]},{"name":"window-0","mesh":16,"translation":[-4.15584,1.65,3.367],"scale":[2.415484,1.45,0.09]},{"name":"window-1","mesh":16,"translation":[0,1.65,3.367],"scale":[2.415484,1.45,0.09]},{"name":"window-2","mesh":16,"translation":[4.15584,1.65,3.367],"scale":[2.415484,1.45,0.09]},{"name":"door","mesh":17,"translation":[-3.9312,1.025,3.382],"scale":[0.92,2.05,0.12]},{"name":"awning","mesh":18,"translation":[0,2.88288,3.792],"rotation":[-0.039989,0,0,0.9992],"scale":[9.21024,0.18,1.05]},{"name":"mullion-0","mesh":19,"translation":[-3.59424,1.65,3.432],"scale":[0.08,1.55,0.12]},{"name":"mullion-1","mesh":19,"translation":[-1.19808,1.65,3.432],"scale":[0.08,1.55,0.12]},{"name":"mullion-2","mesh":19,"translation":[1.19808,1.65,3.432],"scale":[0.08,1.55,0.12]},{"name":"mullion-3","mesh":19,"translation":[3.59424,1.65,3.432],"scale":[0.08,1.55,0.12]},{"name":"primary-sign-back","mesh":7,"translation":[0,3.45072,3.472],"scale":[7.06384,1.25,1]},{"name":"primary-sign","mesh":8,"translation":[0,3.45072,3.501],"scale":[6.96384,1.15,1]},{"name":"tooth-crown","mesh":20,"translation":[-4.68,6.864,0],"scale":[2,1.55,0.65]},{"name":"tooth-root-0","mesh":21,"translation":[-5.23,1.56,0],"rotation":[0,0,-0.064954,0.997888],"scale":[0.38,1.5,0.38]},{"name":"tooth-root-1","mesh":21,"translation":[-4.68,1.56,0],"scale":[0.38,1.5,0.38]},{"name":"tooth-root-2","mesh":21,"translation":[-4.13,1.56,0],"rotation":[0,0,0.064954,0.997888],"scale":[0.38,1.5,0.38]},{"name":"finance-brace","mesh":22,"translation":[-4.68,6.9888,0.68]},{"name":"open-state-bollard","mesh":23,"translation":[-6.708,0.425,5.152],"scale":[0.22,0.85,0.22]},{"name":"foundation","mesh":13,"translation":[0,0.08,0],"scale":[17.8,0.16,11.4]},{"name":"store-shell","mesh":14,"translation":[0,2.184,0],"scale":[11.232,4.368,6.624]},{"name":"roof-cap","mesh":15,"translation":[0,4.478,0],"scale":[11.482,0.22,6.874]},{"name":"window-0","mesh":24,"translation":[0,1.65,3.367],"scale":[7.246452,1.45,0.09]},{"name":"door","mesh":17,"translation":[-3.9312,1.025,3.382],"scale":[0.92,2.05,0.12]},{"name":"primary-sign-back","mesh":7,"translation":[0,3.45072,3.472],"scale":[7.06384,1.25,1]},{"name":"primary-sign","mesh":8,"translation":[0,3.45072,3.501],"scale":[6.96384,1.15,1]},{"name":"tooth-crown","mesh":25,"translation":[-4.68,6.864,0],"scale":[2,1.55,0.65]},{"name":"tooth-root-0","mesh":21,"translation":[-4.955,1.56,0],"rotation":[0,0,-0.032494,0.999472],"scale":[0.38,1.5,0.38]},{"name":"tooth-root-1","mesh":21,"translation":[-4.405,1.56,0],"rotation":[0,0,0.032494,0.999472],"scale":[0.38,1.5,0.38]},{"name":"finance-brace","mesh":26,"translation":[-4.68,6.9888,0.68]},{"name":"open-state-bollard","mesh":23,"translation":[-6.708,0.425,5.152],"scale":[0.22,0.85,0.22]}],"meshes":[{"primitives":[{"attributes":{"POSITION":0,"NORMAL":1,"TEXCOORD_0":2},"material":0,"mode":4}]},{"primitives":[{"attributes":{"POSITION":3,"NORMAL":1,"TEXCOORD_0":4},"material":1,"mode":4}]},{"primitives":[{"attributes":{"POSITION":0,"NORMAL":1,"TEXCOORD_0":5},"material":2,"mode":4}]},{"primitives":[{"attributes":{"POSITION":0,"NORMAL":1,"TEXCOORD_0":6},"material":3,"mode":4}]},{"primitives":[{"attributes":{"POSITION":0,"NORMAL":1,"TEXCOORD_0":7},"material":2,"mode":4}]},{"primitives":[{"attributes":{"POSITION":0,"NORMAL":1,"TEXCOORD_0":8},"material":1,"mode":4}]},{"primitives":[{"attributes":{"POSITION":0,"NORMAL":1,"TEXCOORD_0":9},"material":1,"mode":4}]},{"primitives":[{"attributes":{"POSITION":10,"NORMAL":11,"TEXCOORD_0":12},"material":2,"mode":4,"indices":13}]},{"primitives":[{"attributes":{"POSITION":14,"NORMAL":15,"TEXCOORD_0":16},"material":4,"mode":4,"indices":17}]},{"primitives":[{"attributes":{"POSITION":18,"NORMAL":18,"TEXCOORD_0":19},"material":5,"mode":4,"indices":20}]},{"primitives":[{"attributes":{"POSITION":21,"NORMAL":22,"TEXCOORD_0":23},"material":5,"mode":4,"indices":24}]},{"primitives":[{"attributes":{"POSITION":25,"NORMAL":26,"TEXCOORD_0":27},"material":6,"mode":4,"indices":28}]},{"primitives":[{"attributes":{"POSITION":0,"NORMAL":1,"TEXCOORD_0":29},"material":1,"mode":4}]},{"primitives":[{"attributes":{"POSITION":30,"NORMAL":11,"TEXCOORD_0":31},"material":0,"mode":4,"indices":13}]},{"primitives":[{"attributes":{"POSITION":30,"NORMAL":11,"TEXCOORD_0":32},"material":1,"mode":4,"indices":13}]},{"primitives":[{"attributes":{"POSITION":30,"NORMAL":11,"TEXCOORD_0":33},"material":2,"mode":4,"indices":13}]},{"primitives":[{"attributes":{"POSITION":30,"NORMAL":11,"TEXCOORD_0":34},"material":3,"mode":4,"indices":13}]},{"primitives":[{"attributes":{"POSITION":30,"NORMAL":11,"TEXCOORD_0":35},"material":2,"mode":4,"indices":13}]},{"primitives":[{"attributes":{"POSITION":30,"NORMAL":11,"TEXCOORD_0":36},"material":1,"mode":4,"indices":13}]},{"primitives":[{"attributes":{"POSITION":30,"NORMAL":11,"TEXCOORD_0":37},"material":1,"mode":4,"indices":13}]},{"primitives":[{"attributes":{"POSITION":38,"NORMAL":38,"TEXCOORD_0":39},"material":5,"mode":4,"indices":40}]},{"primitives":[{"attributes":{"POSITION":41,"NORMAL":42,"TEXCOORD_0":43},"material":5,"mode":4,"indices":44}]},{"primitives":[{"attributes":{"POSITION":45,"NORMAL":46,"TEXCOORD_0":47},"material":6,"mode":4,"indices":48}]},{"primitives":[{"attributes":{"POSITION":30,"NORMAL":11,"TEXCOORD_0":49},"material":1,"mode":4,"indices":13}]},{"primitives":[{"attributes":{"POSITION":30,"NORMAL":11,"TEXCOORD_0":50},"material":3,"mode":4,"indices":13}]},{"primitives":[{"attributes":{"POSITION":51,"NORMAL":51,"TEXCOORD_0":52},"material":5,"mode":4,"indices":53}]},{"primitives":[{"attributes":{"POSITION":54,"NORMAL":55,"TEXCOORD_0":56},"material":6,"mode":4,"indices":57}]}],"materials":[{"name":"concrete","pbrMetallicRoughness":{"baseColorTexture":{"index":0},"metallicRoughnessTexture":{"index":2},"roughnessFactor":1,"metallicFactor":1},"normalTexture":{"index":1,"scale":0.82},"occlusionTexture":{"index":2,"strength":0.35}},{"name":"paint-teal","pbrMetallicRoughness":{"baseColorFactor":[0.040915196900556984,0.20507873637973145,0.1878207722902346,1],"roughnessFactor":0.59,"metallicFactor":0.05}},{"name":"metal-dark","pbrMetallicRoughness":{"baseColorTexture":{"index":3},"metallicRoughnessTexture":{"index":5},"roughnessFactor":1,"metallicFactor":1},"normalTexture":{"index":4,"scale":0.35},"occlusionTexture":{"index":5,"strength":0.35}},{"name":"glass-blue","pbrMetallicRoughness":{"baseColorTexture":{"index":6},"metallicRoughnessTexture":{"index":8},"roughnessFactor":1,"metallicFactor":1},"normalTexture":{"index":7,"scale":0.12},"occlusionTexture":{"index":8,"strength":0.35}},{"name":"smile-finance signage","pbrMetallicRoughness":{"baseColorTexture":{"index":9},"roughnessFactor":1,"metallicFactor":0},"extensions":{"KHR_materials_unlit":{}}},{"name":"paint-white","pbrMetallicRoughness":{"baseColorFactor":[0.7912979403281551,0.7681511472425809,0.6795424696265424,1],"roughnessFactor":0.68,"metallicFactor":0}},{"name":"metal-galvanized","pbrMetallicRoughness":{"baseColorTexture":{"index":10},"metallicRoughnessTexture":{"index":12},"roughnessFactor":1,"metallicFactor":1},"normalTexture":{"index":11,"scale":0.15},"occlusionTexture":{"index":12,"strength":0.35}}],"textures":[{"source":0,"sampler":0},{"source":1,"sampler":0},{"source":2,"sampler":0},{"source":3,"sampler":0},{"source":4,"sampler":0},{"source":5,"sampler":0},{"source":6,"sampler":0},{"source":7,"sampler":0},{"source":8,"sampler":0},{"source":9,"sampler":0},{"source":10,"sampler":0},{"source":11,"sampler":0},{"source":12,"sampler":0}],"images":[{"uri":"../textures/concrete-albedo.png"},{"uri":"../textures/concrete-normal.png"},{"uri":"../textures/concrete-orm.png"},{"uri":"../textures/metal-dark-albedo.png"},{"uri":"../textures/metal-dark-normal.png"},{"uri":"../textures/metal-dark-orm.png"},{"uri":"../textures/glass-blue-albedo.png"},{"uri":"../textures/glass-blue-normal.png"},{"uri":"../textures/glass-blue-orm.png"},{"uri":"../signs/smile-finance.png"},{"uri":"../textures/metal-galvanized-albedo.png"},{"uri":"../textures/metal-galvanized-normal.png"},{"uri":"../textures/metal-galvanized-orm.png"}],"samplers":[{"magFilter":9729,"minFilter":9987,"wrapS":10497,"wrapT":10497}],"buffers":[{"uri":"../shared/geometry.bin","byteLength":16435520}],"bufferViews":[{"buffer":0,"byteOffset":0,"byteLength":3888,"target":34962},{"buffer":0,"byteOffset":3888,"byteLength":3888,"target":34962},{"buffer":0,"byteOffset":2654216,"byteLength":2592,"target":34962},{"buffer":0,"byteOffset":868536,"byteLength":3888,"target":34962},{"buffer":0,"byteOffset":13357996,"byteLength":2592,"target":34962},{"buffer":0,"byteOffset":13360588,"byteLength":2592,"target":34962},{"buffer":0,"byteOffset":10907360,"byteLength":2592,"target":34962},{"buffer":0,"byteOffset":1428216,"byteLength":2592,"target":34962},{"buffer":0,"byteOffset":13363180,"byteLength":2592,"target":34962},{"buffer":0,"byteOffset":1433400,"byteLength":2592,"target":34962},{"buffer":0,"byteOffset":45664,"byteLength":288,"target":34962},{"buffer":0,"byteOffset":45952,"byteLength":288,"target":34962},{"buffer":0,"byteOffset":46240,"byteLength":192,"target":34962},{"buffer":0,"byteOffset":46432,"byteLength":72,"target":34963},{"buffer":0,"byteOffset":46504,"byteLength":48,"target":34962},{"buffer":0,"byteOffset":46552,"byteLength":48,"target":34962},{"buffer":0,"byteOffset":117124,"byteLength":32,"target":34962},{"buffer":0,"byteOffset":46632,"byteLength":12,"target":34963},{"buffer":0,"byteOffset":6080864,"byteLength":3276,"target":34962},{"buffer":0,"byteOffset":13308744,"byteLength":2184,"target":34962},{"buffer":0,"byteOffset":6086324,"byteLength":2640,"target":34963},{"buffer":0,"byteOffset":13310928,"byteLength":624,"target":34962},{"buffer":0,"byteOffset":13311552,"byteLength":624,"target":34962},{"buffer":0,"byteOffset":13312176,"byteLength":416,"target":34962},{"buffer":0,"byteOffset":1111736,"byteLength":192,"target":34963},{"buffer":0,"byteOffset":13312592,"byteLength":3132,"target":34962},{"buffer":0,"byteOffset":390704,"byteLength":3132,"target":34962},{"buffer":0,"byteOffset":12917576,"byteLength":2088,"target":34962},{"buffer":0,"byteOffset":395924,"byteLength":2688,"target":34963},{"buffer":0,"byteOffset":422312,"byteLength":2592,"target":34962},{"buffer":0,"byteOffset":46644,"byteLength":288,"target":34962},{"buffer":0,"byteOffset":2670184,"byteLength":192,"target":34962},{"buffer":0,"byteOffset":13365772,"byteLength":192,"target":34962},{"buffer":0,"byteOffset":13365964,"byteLength":192,"target":34962},{"buffer":0,"byteOffset":13366156,"byteLength":192,"target":34962},{"buffer":0,"byteOffset":1447128,"byteLength":192,"target":34962},{"buffer":0,"byteOffset":13366348,"byteLength":192,"target":34962},{"buffer":0,"byteOffset":1447512,"byteLength":192,"target":34962},{"buffer":0,"byteOffset":6096692,"byteLength":1404,"target":34962},{"buffer":0,"byteOffset":13316684,"byteLength":936,"target":34962},{"buffer":0,"byteOffset":6099032,"byteLength":1008,"target":34963},{"buffer":0,"byteOffset":13317620,"byteLength":480,"target":34962},{"buffer":0,"byteOffset":13318100,"byteLength":480,"target":34962},{"buffer":0,"byteOffset":13318580,"byteLength":320,"target":34962},{"buffer":0,"byteOffset":48596,"byteLength":144,"target":34963},{"buffer":0,"byteOffset":13318900,"byteLength":1428,"target":34962},{"buffer":0,"byteOffset":427996,"byteLength":1428,"target":34962},{"buffer":0,"byteOffset":12924388,"byteLength":952,"target":34962},{"buffer":0,"byteOffset":430376,"byteLength":1152,"target":34963},{"buffer":0,"byteOffset":436936,"byteLength":192,"target":34962},{"buffer":0,"byteOffset":13366540,"byteLength":192,"target":34962},{"buffer":0,"byteOffset":6871440,"byteLength":648,"target":34962},{"buffer":0,"byteOffset":13320520,"byteLength":432,"target":34962},{"buffer":0,"byteOffset":6872520,"byteLength":384,"target":34963},{"buffer":0,"byteOffset":13320952,"byteLength":660,"target":34962},{"buffer":0,"byteOffset":437788,"byteLength":660,"target":34962},{"buffer":0,"byteOffset":12926192,"byteLength":440,"target":34962},{"buffer":0,"byteOffset":438888,"byteLength":480,"target":34963}],"accessors":[{"bufferView":0,"componentType":5126,"count":324,"type":"VEC3","min":[-0.5,-0.5,-0.5],"max":[0.5,0.5,0.5]},{"bufferView":1,"componentType":5126,"count":324,"type":"VEC3"},{"bufferView":2,"componentType":5126,"count":324,"type":"VEC2"},{"bufferView":3,"componentType":5126,"count":324,"type":"VEC3","min":[-0.5,-0.5,-0.5],"max":[0.5,0.5,0.5]},{"bufferView":4,"componentType":5126,"count":324,"type":"VEC2"},{"bufferView":5,"componentType":5126,"count":324,"type":"VEC2"},{"bufferView":6,"componentType":5126,"count":324,"type":"VEC2"},{"bufferView":7,"componentType":5126,"count":324,"type":"VEC2"},{"bufferView":8,"componentType":5126,"count":324,"type":"VEC2"},{"bufferView":9,"componentType":5126,"count":324,"type":"VEC2"},{"bufferView":10,"componentType":5126,"count":24,"type":"VEC3","min":[-0.5,-0.5,-0.02500000037252903],"max":[0.5,0.5,0.02500000037252903]},{"bufferView":11,"componentType":5126,"count":24,"type":"VEC3"},{"bufferView":12,"componentType":5126,"count":24,"type":"VEC2"},{"bufferView":13,"componentType":5123,"count":36,"type":"SCALAR"},{"bufferView":14,"componentType":5126,"count":4,"type":"VEC3","min":[-0.5,-0.5,0],"max":[0.5,0.5,0]},{"bufferView":15,"componentType":5126,"count":4,"type":"VEC3"},{"bufferView":16,"componentType":5126,"count":4,"type":"VEC2"},{"bufferView":17,"componentType":5123,"count":6,"type":"SCALAR"},{"bufferView":18,"componentType":5126,"count":273,"type":"VEC3","min":[-1,-1,-1],"max":[1,1,1]},{"bufferView":19,"componentType":5126,"count":273,"type":"VEC2"},{"bufferView":20,"componentType":5123,"count":1320,"type":"SCALAR"},{"bufferView":21,"componentType":5126,"count":52,"type":"VEC3","min":[-1,-0.5,-1],"max":[1,0.5,1]},{"bufferView":22,"componentType":5126,"count":52,"type":"VEC3"},{"bufferView":23,"componentType":5126,"count":52,"type":"VEC2"},{"bufferView":24,"componentType":5123,"count":96,"type":"SCALAR"},{"bufferView":25,"componentType":5126,"count":261,"type":"VEC3","min":[-1.4500000476837158,-1.4500000476837158,-0.10000000149011612],"max":[1.4500000476837158,1.4500000476837158,0.10000000149011612]},{"bufferView":26,"componentType":5126,"count":261,"type":"VEC3"},{"bufferView":27,"componentType":5126,"count":261,"type":"VEC2"},{"bufferView":28,"componentType":5123,"count":1344,"type":"SCALAR"},{"bufferView":29,"componentType":5126,"count":324,"type":"VEC2"},{"bufferView":30,"componentType":5126,"count":24,"type":"VEC3","min":[-0.5,-0.5,-0.5],"max":[0.5,0.5,0.5]},{"bufferView":31,"componentType":5126,"count":24,"type":"VEC2"},{"bufferView":32,"componentType":5126,"count":24,"type":"VEC2"},{"bufferView":33,"componentType":5126,"count":24,"type":"VEC2"},{"bufferView":34,"componentType":5126,"count":24,"type":"VEC2"},{"bufferView":35,"componentType":5126,"count":24,"type":"VEC2"},{"bufferView":36,"componentType":5126,"count":24,"type":"VEC2"},{"bufferView":37,"componentType":5126,"count":24,"type":"VEC2"},{"bufferView":38,"componentType":5126,"count":117,"type":"VEC3","min":[-1,-1,-1],"max":[1,1,1]},{"bufferView":39,"componentType":5126,"count":117,"type":"VEC2"},{"bufferView":40,"componentType":5123,"count":504,"type":"SCALAR"},{"bufferView":41,"componentType":5126,"count":40,"type":"VEC3","min":[-0.8660253882408142,-0.5,-1],"max":[0.8660253882408142,0.5,1]},{"bufferView":42,"componentType":5126,"count":40,"type":"VEC3"},{"bufferView":43,"componentType":5126,"count":40,"type":"VEC2"},{"bufferView":44,"componentType":5123,"count":72,"type":"SCALAR"},{"bufferView":45,"componentType":5126,"count":119,"type":"VEC3","min":[-1.4500000476837158,-1.4500000476837158,-0.08660253882408142],"max":[1.4500000476837158,1.4500000476837158,0.08660253882408142]},{"bufferView":46,"componentType":5126,"count":119,"type":"VEC3"},{"bufferView":47,"componentType":5126,"count":119,"type":"VEC2"},{"bufferView":48,"componentType":5123,"count":576,"type":"SCALAR"},{"bufferView":49,"componentType":5126,"count":24,"type":"VEC2"},{"bufferView":50,"componentType":5126,"count":24,"type":"VEC2"},{"bufferView":51,"componentType":5126,"count":54,"type":"VEC3","min":[-0.9510565400123596,-1,-0.9510565400123596],"max":[0.9510565400123596,1,0.9510565400123596]},{"bufferView":52,"componentType":5126,"count":54,"type":"VEC2"},{"bufferView":53,"componentType":5123,"count":192,"type":"SCALAR"},{"bufferView":54,"componentType":5126,"count":55,"type":"VEC3","min":[-1.4500000476837158,-1.3790318965911865,-0.10000000149011612],"max":[1.4500000476837158,1.3790318965911865,0.10000000149011612]},{"bufferView":55,"componentType":5126,"count":55,"type":"VEC3"},{"bufferView":56,"componentType":5126,"count":55,"type":"VEC2"},{"bufferView":57,"componentType":5123,"count":240,"type":"SCALAR"}],"extensionsUsed":["KHR_materials_unlit"],"extras":{"id":"vlt-smile-finance-05","family":"smile-finance","variant":4,"plan":"A5-1","units":"metres","up":"+Y","front":"+Z","lodScenes":[0,1,2]}}