{"asset":{"version":"2.0","generator":"SLOPMERICA Department of Unnecessary Development 1.0"},"scene":0,"scenes":[{"name":"LOD 0","nodes":[0,1,2,3,4,5,6,7],"extras":{"level":0}},{"name":"LOD 1","nodes":[8,9,10,11,12,13,14,15],"extras":{"level":1}},{"name":"LOD 2","nodes":[16,17,18,19,20,21,22,23],"extras":{"level":2}}],"nodes":[{"name":"foundation","mesh":0,"translation":[0,0.08,0],"scale":[10.12,0.16,10.64]},{"name":"cup-base","mesh":1,"translation":[0,1.833,0],"scale":[2.8512,3.666,2.8512]},{"name":"frozen-top","mesh":2,"translation":[0,4.23,0],"scale":[3.0888,1.175,3.0888]},{"name":"giant-straw","mesh":3,"translation":[0,0,0]},{"name":"drive-window","mesh":4,"translation":[0,2.115,3.2916],"scale":[2.1,1.4,0.12]},{"name":"cup-sign-back","mesh":5,"translation":[0,3.384,3.376],"scale":[4.2184,1.2,1]},{"name":"cup-sign","mesh":6,"translation":[0,3.384,3.405],"scale":[4.1184,1.1,1]},{"name":"open-state-bollard","mesh":7,"translation":[3.4056,0.425,4.7264],"scale":[0.22,0.85,0.22]},{"name":"foundation","mesh":8,"translation":[0,0.08,0],"scale":[10.12,0.16,10.64]},{"name":"cup-base","mesh":9,"translation":[0,1.833,0],"scale":[2.8512,3.666,2.8512]},{"name":"frozen-top","mesh":10,"translation":[0,4.23,0],"scale":[3.0888,1.175,3.0888]},{"name":"giant-straw","mesh":11,"translation":[0,0,0]},{"name":"drive-window","mesh":12,"translation":[0,2.115,3.2916],"scale":[2.1,1.4,0.12]},{"name":"cup-sign-back","mesh":5,"translation":[0,3.384,3.376],"scale":[4.2184,1.2,1]},{"name":"cup-sign","mesh":6,"translation":[0,3.384,3.405],"scale":[4.1184,1.1,1]},{"name":"open-state-bollard","mesh":13,"translation":[3.4056,0.425,4.7264],"scale":[0.22,0.85,0.22]},{"name":"foundation","mesh":8,"translation":[0,0.08,0],"scale":[10.12,0.16,10.64]},{"name":"cup-base","mesh":14,"translation":[0,1.833,0],"scale":[2.8512,3.666,2.8512]},{"name":"frozen-top","mesh":15,"translation":[0,4.23,0],"scale":[3.0888,1.175,3.0888]},{"name":"giant-straw","mesh":16,"translation":[0,0,0]},{"name":"drive-window","mesh":12,"translation":[0,2.115,3.2916],"scale":[2.1,1.4,0.12]},{"name":"cup-sign-back","mesh":5,"translation":[0,3.384,3.376],"scale":[4.2184,1.2,1]},{"name":"cup-sign","mesh":6,"translation":[0,3.384,3.405],"scale":[4.1184,1.1,1]},{"name":"open-state-bollard","mesh":13,"translation":[3.4056,0.425,4.7264],"scale":[0.22,0.85,0.22]}],"meshes":[{"primitives":[{"attributes":{"POSITION":0,"NORMAL":1,"TEXCOORD_0":2},"material":0,"mode":4}]},{"primitives":[{"attributes":{"POSITION":3,"NORMAL":4,"TEXCOORD_0":5},"material":1,"mode":4,"indices":6}]},{"primitives":[{"attributes":{"POSITION":7,"NORMAL":8,"TEXCOORD_0":9},"material":2,"mode":4,"indices":6}]},{"primitives":[{"attributes":{"POSITION":10,"NORMAL":11,"TEXCOORD_0":12},"material":3,"mode":4,"indices":13}]},{"primitives":[{"attributes":{"POSITION":0,"NORMAL":1,"TEXCOORD_0":14},"material":4,"mode":4}]},{"primitives":[{"attributes":{"POSITION":15,"NORMAL":16,"TEXCOORD_0":17},"material":5,"mode":4,"indices":18}]},{"primitives":[{"attributes":{"POSITION":19,"NORMAL":20,"TEXCOORD_0":21},"material":6,"mode":4,"indices":22}]},{"primitives":[{"attributes":{"POSITION":0,"NORMAL":1,"TEXCOORD_0":23},"material":2,"mode":4}]},{"primitives":[{"attributes":{"POSITION":24,"NORMAL":16,"TEXCOORD_0":25},"material":0,"mode":4,"indices":18}]},{"primitives":[{"attributes":{"POSITION":26,"NORMAL":27,"TEXCOORD_0":28},"material":1,"mode":4,"indices":29}]},{"primitives":[{"attributes":{"POSITION":30,"NORMAL":31,"TEXCOORD_0":32},"material":2,"mode":4,"indices":29}]},{"primitives":[{"attributes":{"POSITION":33,"NORMAL":34,"TEXCOORD_0":35},"material":3,"mode":4,"indices":36}]},{"primitives":[{"attributes":{"POSITION":24,"NORMAL":16,"TEXCOORD_0":37},"material":4,"mode":4,"indices":18}]},{"primitives":[{"attributes":{"POSITION":24,"NORMAL":16,"TEXCOORD_0":38},"material":2,"mode":4,"indices":18}]},{"primitives":[{"attributes":{"POSITION":39,"NORMAL":40,"TEXCOORD_0":41},"material":1,"mode":4,"indices":42}]},{"primitives":[{"attributes":{"POSITION":43,"NORMAL":44,"TEXCOORD_0":45},"material":2,"mode":4,"indices":42}]},{"primitives":[{"attributes":{"POSITION":46,"NORMAL":47,"TEXCOORD_0":48},"material":3,"mode":4,"indices":49}]}],"materials":[{"name":"concrete","pbrMetallicRoughness":{"baseColorTexture":{"index":0},"metallicRoughnessTexture":{"index":2},"roughnessFactor":1,"metallicFactor":1},"normalTexture":{"index":1,"scale":0.82},"occlusionTexture":{"index":2,"strength":0.35}},{"name":"paint-teal","pbrMetallicRoughness":{"baseColorFactor":[0.040915196900556984,0.20507873637973145,0.1878207722902346,1],"roughnessFactor":0.59,"metallicFactor":0.05}},{"name":"paint-orange","pbrMetallicRoughness":{"baseColorFactor":[0.6444796819634361,0.1878207722902346,0.040915196900556984,1],"roughnessFactor":0.68,"metallicFactor":0.03}},{"name":"paint-red","pbrMetallicRoughness":{"baseColorFactor":[0.46778379610254284,0.08021982030622662,0.05126945836711539,1],"roughnessFactor":0.62,"metallicFactor":0.05}},{"name":"glass-blue","pbrMetallicRoughness":{"baseColorTexture":{"index":3},"metallicRoughnessTexture":{"index":5},"roughnessFactor":1,"metallicFactor":1},"normalTexture":{"index":4,"scale":0.12},"occlusionTexture":{"index":5,"strength":0.35}},{"name":"metal-dark","pbrMetallicRoughness":{"baseColorTexture":{"index":6},"metallicRoughnessTexture":{"index":8},"roughnessFactor":1,"metallicFactor":1},"normalTexture":{"index":7,"scale":0.35},"occlusionTexture":{"index":8,"strength":0.35}},{"name":"daiquiri-dash signage","pbrMetallicRoughness":{"baseColorTexture":{"index":9},"roughnessFactor":1,"metallicFactor":0},"extensions":{"KHR_materials_unlit":{}}}],"textures":[{"source":0,"sampler":0},{"source":1,"sampler":0},{"source":2,"sampler":0},{"source":3,"sampler":0},{"source":4,"sampler":0},{"source":5,"sampler":0},{"source":6,"sampler":0},{"source":7,"sampler":0},{"source":8,"sampler":0},{"source":9,"sampler":0}],"images":[{"uri":"../textures/concrete-albedo.png"},{"uri":"../textures/concrete-normal.png"},{"uri":"../textures/concrete-orm.png"},{"uri":"../textures/glass-blue-albedo.png"},{"uri":"../textures/glass-blue-normal.png"},{"uri":"../textures/glass-blue-orm.png"},{"uri":"../textures/metal-dark-albedo.png"},{"uri":"../textures/metal-dark-normal.png"},{"uri":"../textures/metal-dark-orm.png"},{"uri":"../signs/daiquiri-dash.png"}],"samplers":[{"magFilter":9729,"minFilter":9987,"wrapS":10497,"wrapT":10497}],"buffers":[{"uri":"../shared/geometry.bin","byteLength":16435520}],"bufferViews":[{"buffer":0,"byteOffset":0,"byteLength":3888,"target":34962},{"buffer":0,"byteOffset":3888,"byteLength":3888,"target":34962},{"buffer":0,"byteOffset":3858972,"byteLength":2592,"target":34962},{"buffer":0,"byteOffset":3759476,"byteLength":1056,"target":34962},{"buffer":0,"byteOffset":3760532,"byteLength":1056,"target":34962},{"buffer":0,"byteOffset":3761588,"byteLength":704,"target":34962},{"buffer":0,"byteOffset":3762292,"byteLength":336,"target":34963},{"buffer":0,"byteOffset":3762628,"byteLength":1056,"target":34962},{"buffer":0,"byteOffset":3763684,"byteLength":1056,"target":34962},{"buffer":0,"byteOffset":3764740,"byteLength":704,"target":34962},{"buffer":0,"byteOffset":3816804,"byteLength":972,"target":34962},{"buffer":0,"byteOffset":3817776,"byteLength":972,"target":34962},{"buffer":0,"byteOffset":3767388,"byteLength":648,"target":34962},{"buffer":0,"byteOffset":410600,"byteLength":768,"target":34963},{"buffer":0,"byteOffset":3768036,"byteLength":2592,"target":34962},{"buffer":0,"byteOffset":45664,"byteLength":288,"target":34962},{"buffer":0,"byteOffset":45952,"byteLength":288,"target":34962},{"buffer":0,"byteOffset":46240,"byteLength":192,"target":34962},{"buffer":0,"byteOffset":46432,"byteLength":72,"target":34963},{"buffer":0,"byteOffset":46504,"byteLength":48,"target":34962},{"buffer":0,"byteOffset":46552,"byteLength":48,"target":34962},{"buffer":0,"byteOffset":182532,"byteLength":32,"target":34962},{"buffer":0,"byteOffset":46632,"byteLength":12,"target":34963},{"buffer":0,"byteOffset":422312,"byteLength":2592,"target":34962},{"buffer":0,"byteOffset":46644,"byteLength":288,"target":34962},{"buffer":0,"byteOffset":3861564,"byteLength":192,"target":34962},{"buffer":0,"byteOffset":3770820,"byteLength":552,"target":34962},{"buffer":0,"byteOffset":3771372,"byteLength":552,"target":34962},{"buffer":0,"byteOffset":3771924,"byteLength":368,"target":34962},{"buffer":0,"byteOffset":3772292,"byteLength":168,"target":34963},{"buffer":0,"byteOffset":3772460,"byteLength":552,"target":34962},{"buffer":0,"byteOffset":3773012,"byteLength":552,"target":34962},{"buffer":0,"byteOffset":3773564,"byteLength":368,"target":34962},{"buffer":0,"byteOffset":3818940,"byteLength":420,"target":34962},{"buffer":0,"byteOffset":3819360,"byteLength":420,"target":34962},{"buffer":0,"byteOffset":3774772,"byteLength":280,"target":34962},{"buffer":0,"byteOffset":434076,"byteLength":288,"target":34963},{"buffer":0,"byteOffset":3775052,"byteLength":192,"target":34962},{"buffer":0,"byteOffset":436936,"byteLength":192,"target":34962},{"buffer":0,"byteOffset":3775244,"byteLength":480,"target":34962},{"buffer":0,"byteOffset":3775724,"byteLength":480,"target":34962},{"buffer":0,"byteOffset":3776204,"byteLength":320,"target":34962},{"buffer":0,"byteOffset":48596,"byteLength":144,"target":34963},{"buffer":0,"byteOffset":3776524,"byteLength":480,"target":34962},{"buffer":0,"byteOffset":3777004,"byteLength":480,"target":34962},{"buffer":0,"byteOffset":3777484,"byteLength":320,"target":34962},{"buffer":0,"byteOffset":3819780,"byteLength":300,"target":34962},{"buffer":0,"byteOffset":3820080,"byteLength":300,"target":34962},{"buffer":0,"byteOffset":2100356,"byteLength":200,"target":34962},{"buffer":0,"byteOffset":440168,"byteLength":192,"target":34963}],"accessors":[{"bufferView":0,"componentType":5126,"count":324,"type":"VEC3","min":[-0.5,-0.5,-0.5],"max":[0.5,0.5,0.5]},{"bufferView":1,"componentType":5126,"count":324,"type":"VEC3"},{"bufferView":2,"componentType":5126,"count":324,"type":"VEC2"},{"bufferView":3,"componentType":5126,"count":88,"type":"VEC3","min":[-0.9749279022216797,-0.5,-1],"max":[0.9749279022216797,0.5,1]},{"bufferView":4,"componentType":5126,"count":88,"type":"VEC3"},{"bufferView":5,"componentType":5126,"count":88,"type":"VEC2"},{"bufferView":6,"componentType":5123,"count":168,"type":"SCALAR"},{"bufferView":7,"componentType":5126,"count":88,"type":"VEC3","min":[-0.9749279022216797,-0.5,-1],"max":[0.9749279022216797,0.5,1]},{"bufferView":8,"componentType":5126,"count":88,"type":"VEC3"},{"bufferView":9,"componentType":5126,"count":88,"type":"VEC2"},{"bufferView":10,"componentType":5126,"count":81,"type":"VEC3","min":[0.45148658752441406,4.678934097290039,-0.15000000596046448],"max":[1.2485134601593018,8.246066093444824,0.15000000596046448]},{"bufferView":11,"componentType":5126,"count":81,"type":"VEC3"},{"bufferView":12,"componentType":5126,"count":81,"type":"VEC2"},{"bufferView":13,"componentType":5123,"count":384,"type":"SCALAR"},{"bufferView":14,"componentType":5126,"count":324,"type":"VEC2"},{"bufferView":15,"componentType":5126,"count":24,"type":"VEC3","min":[-0.5,-0.5,-0.02500000037252903],"max":[0.5,0.5,0.02500000037252903]},{"bufferView":16,"componentType":5126,"count":24,"type":"VEC3"},{"bufferView":17,"componentType":5126,"count":24,"type":"VEC2"},{"bufferView":18,"componentType":5123,"count":36,"type":"SCALAR"},{"bufferView":19,"componentType":5126,"count":4,"type":"VEC3","min":[-0.5,-0.5,0],"max":[0.5,0.5,0]},{"bufferView":20,"componentType":5126,"count":4,"type":"VEC3"},{"bufferView":21,"componentType":5126,"count":4,"type":"VEC2"},{"bufferView":22,"componentType":5123,"count":6,"type":"SCALAR"},{"bufferView":23,"componentType":5126,"count":324,"type":"VEC2"},{"bufferView":24,"componentType":5126,"count":24,"type":"VEC3","min":[-0.5,-0.5,-0.5],"max":[0.5,0.5,0.5]},{"bufferView":25,"componentType":5126,"count":24,"type":"VEC2"},{"bufferView":26,"componentType":5126,"count":46,"type":"VEC3","min":[-0.9749279022216797,-0.5,-0.9009688496589661],"max":[0.9749279022216797,0.5,1]},{"bufferView":27,"componentType":5126,"count":46,"type":"VEC3"},{"bufferView":28,"componentType":5126,"count":46,"type":"VEC2"},{"bufferView":29,"componentType":5123,"count":84,"type":"SCALAR"},{"bufferView":30,"componentType":5126,"count":46,"type":"VEC3","min":[-0.9749279022216797,-0.5,-0.9009688496589661],"max":[0.9749279022216797,0.5,1]},{"bufferView":31,"componentType":5126,"count":46,"type":"VEC3"},{"bufferView":32,"componentType":5126,"count":46,"type":"VEC2"},{"bufferView":33,"componentType":5126,"count":35,"type":"VEC3","min":[0.47138360142707825,4.681756496429443,-0.15000000596046448],"max":[1.2286163568496704,8.243243217468262,0.15000000596046448]},{"bufferView":34,"componentType":5126,"count":35,"type":"VEC3"},{"bufferView":35,"componentType":5126,"count":35,"type":"VEC2"},{"bufferView":36,"componentType":5123,"count":144,"type":"SCALAR"},{"bufferView":37,"componentType":5126,"count":24,"type":"VEC2"},{"bufferView":38,"componentType":5126,"count":24,"type":"VEC2"},{"bufferView":39,"componentType":5126,"count":40,"type":"VEC3","min":[-0.8660253882408142,-0.5,-1],"max":[0.8660253882408142,0.5,1]},{"bufferView":40,"componentType":5126,"count":40,"type":"VEC3"},{"bufferView":41,"componentType":5126,"count":40,"type":"VEC2"},{"bufferView":42,"componentType":5123,"count":72,"type":"SCALAR"},{"bufferView":43,"componentType":5126,"count":40,"type":"VEC3","min":[-0.8660253882408142,-0.5,-1],"max":[0.8660253882408142,0.5,1]},{"bufferView":44,"componentType":5126,"count":40,"type":"VEC3"},{"bufferView":45,"componentType":5126,"count":40,"type":"VEC2"},{"bufferView":46,"componentType":5126,"count":25,"type":"VEC3","min":[0.45148658752441406,4.678934097290039,-0.15000000596046448],"max":[1.2485134601593018,8.246066093444824,0.15000000596046448]},{"bufferView":47,"componentType":5126,"count":25,"type":"VEC3"},{"bufferView":48,"componentType":5126,"count":25,"type":"VEC2"},{"bufferView":49,"componentType":5123,"count":96,"type":"SCALAR"}],"extensionsUsed":["KHR_materials_unlit"],"extras":{"id":"vlt-daiquiri-dash-16","family":"daiquiri-dash","variant":15,"plan":"D1-1","units":"metres","up":"+Y","front":"+Z","lodScenes":[0,1,2]}}