{"asset":{"version":"2.0","generator":"SLOPMERICA Department of Unnecessary Development 1.0"},"scene":0,"scenes":[{"name":"LOD 0","nodes":[0,1,2,3,4,5,6,7,8,9,10,11,12,13,14],"extras":{"level":0}},{"name":"LOD 1","nodes":[15,16,17,18,19,20,21,22,23,24,25,26,27,28,29],"extras":{"level":1}},{"name":"LOD 2","nodes":[30,31,32,33,34,35,36,37],"extras":{"level":2}}],"nodes":[{"name":"surveyed lot","mesh":0,"translation":[0,0.06,0],"scale":[19.36,0.12,7.92]},{"name":"left stone monument","mesh":1,"translation":[-4.5,2.25,0],"scale":[7.5,4.4,2.4]},{"name":"right stone monument","mesh":1,"translation":[4.5,2.25,0],"scale":[7.5,4.4,2.4]},{"name":"estate arch","mesh":2,"translation":[0,6.1,0],"scale":[9,0.8,1.2]},{"name":"left wrought gate","mesh":3,"translation":[-2.25,1.45,0],"scale":[4.1,2.5,0.18]},{"name":"right wrought gate","mesh":3,"translation":[2.25,1.45,0],"scale":[4.1,2.5,0.18]},{"name":"golf estate crest-back","mesh":4,"translation":[0,6.08,0.65],"scale":[6.1,1.6,1]},{"name":"golf estate crest","mesh":5,"translation":[0,6.08,0.679],"scale":[6,1.5,1]},{"name":"topiary 0","mesh":6,"translation":[-8,0.85,2.5],"scale":[0.65,0.85,0.65]},{"name":"topiary 1","mesh":7,"translation":[-4.8,0.89,2.5],"scale":[0.65,0.89,0.65]},{"name":"topiary 2","mesh":8,"translation":[-1.6,0.93,2.5],"scale":[0.65,0.93,0.65]},{"name":"topiary 3","mesh":9,"translation":[1.6,0.97,2.5],"scale":[0.65,0.97,0.65]},{"name":"topiary 4","mesh":10,"translation":[4.8,1.01,2.5],"scale":[0.65,1.01,0.65]},{"name":"topiary 5","mesh":11,"translation":[8,1.05,2.5],"scale":[0.65,1.05,0.65]},{"name":"guard hut","mesh":12,"translation":[1.8,1.48,-2.3],"scale":[2.5,2.8,2.4]},{"name":"surveyed lot","mesh":13,"translation":[0,0.06,0],"scale":[19.36,0.12,7.92]},{"name":"left stone monument","mesh":14,"translation":[-4.5,2.25,0],"scale":[7.5,4.4,2.4]},{"name":"right stone monument","mesh":14,"translation":[4.5,2.25,0],"scale":[7.5,4.4,2.4]},{"name":"estate arch","mesh":15,"translation":[0,6.1,0],"scale":[9,0.8,1.2]},{"name":"left wrought gate","mesh":16,"translation":[-2.25,1.45,0],"scale":[4.1,2.5,0.18]},{"name":"right wrought gate","mesh":16,"translation":[2.25,1.45,0],"scale":[4.1,2.5,0.18]},{"name":"golf estate crest-back","mesh":4,"translation":[0,6.08,0.65],"scale":[6.1,1.6,1]},{"name":"golf estate crest","mesh":5,"translation":[0,6.08,0.679],"scale":[6,1.5,1]},{"name":"topiary 0","mesh":17,"translation":[-8,0.85,2.5],"scale":[0.65,0.85,0.65]},{"name":"topiary 1","mesh":18,"translation":[-4.8,0.89,2.5],"scale":[0.65,0.89,0.65]},{"name":"topiary 2","mesh":19,"translation":[-1.6,0.93,2.5],"scale":[0.65,0.93,0.65]},{"name":"topiary 3","mesh":20,"translation":[1.6,0.97,2.5],"scale":[0.65,0.97,0.65]},{"name":"topiary 4","mesh":21,"translation":[4.8,1.01,2.5],"scale":[0.65,1.01,0.65]},{"name":"topiary 5","mesh":22,"translation":[8,1.05,2.5],"scale":[0.65,1.05,0.65]},{"name":"guard hut","mesh":23,"translation":[1.8,1.48,-2.3],"scale":[2.5,2.8,2.4]},{"name":"surveyed lot","mesh":13,"translation":[0,0.06,0],"scale":[19.36,0.12,7.92]},{"name":"left stone monument","mesh":14,"translation":[-4.5,2.25,0],"scale":[7.5,4.4,2.4]},{"name":"right stone monument","mesh":14,"translation":[4.5,2.25,0],"scale":[7.5,4.4,2.4]},{"name":"estate arch","mesh":15,"translation":[0,6.1,0],"scale":[9,0.8,1.2]},{"name":"left wrought gate","mesh":16,"translation":[-2.25,1.45,0],"scale":[4.1,2.5,0.18]},{"name":"right wrought gate","mesh":16,"translation":[2.25,1.45,0],"scale":[4.1,2.5,0.18]},{"name":"golf estate crest-back","mesh":4,"translation":[0,6.08,0.65],"scale":[6.1,1.6,1]},{"name":"golf estate crest","mesh":5,"translation":[0,6.08,0.679],"scale":[6,1.5,1]}],"meshes":[{"primitives":[{"attributes":{"POSITION":0,"NORMAL":1,"TEXCOORD_0":2},"material":0,"mode":4}]},{"primitives":[{"attributes":{"POSITION":0,"NORMAL":1,"TEXCOORD_0":3},"material":1,"mode":4}]},{"primitives":[{"attributes":{"POSITION":0,"NORMAL":1,"TEXCOORD_0":4},"material":1,"mode":4}]},{"primitives":[{"attributes":{"POSITION":0,"NORMAL":1,"TEXCOORD_0":5},"material":2,"mode":4}]},{"primitives":[{"attributes":{"POSITION":6,"NORMAL":7,"TEXCOORD_0":8},"material":2,"mode":4,"indices":9}]},{"primitives":[{"attributes":{"POSITION":10,"NORMAL":11,"TEXCOORD_0":12},"material":3,"mode":4,"indices":13}]},{"primitives":[{"attributes":{"POSITION":14,"NORMAL":14,"TEXCOORD_0":15},"material":4,"mode":4,"indices":16}]},{"primitives":[{"attributes":{"POSITION":14,"NORMAL":14,"TEXCOORD_0":17},"material":4,"mode":4,"indices":16}]},{"primitives":[{"attributes":{"POSITION":14,"NORMAL":14,"TEXCOORD_0":18},"material":4,"mode":4,"indices":16}]},{"primitives":[{"attributes":{"POSITION":14,"NORMAL":14,"TEXCOORD_0":19},"material":4,"mode":4,"indices":16}]},{"primitives":[{"attributes":{"POSITION":14,"NORMAL":14,"TEXCOORD_0":20},"material":4,"mode":4,"indices":16}]},{"primitives":[{"attributes":{"POSITION":14,"NORMAL":14,"TEXCOORD_0":21},"material":4,"mode":4,"indices":16}]},{"primitives":[{"attributes":{"POSITION":0,"NORMAL":1,"TEXCOORD_0":22},"material":5,"mode":4}]},{"primitives":[{"attributes":{"POSITION":23,"NORMAL":7,"TEXCOORD_0":24},"material":0,"mode":4,"indices":9}]},{"primitives":[{"attributes":{"POSITION":23,"NORMAL":7,"TEXCOORD_0":25},"material":1,"mode":4,"indices":9}]},{"primitives":[{"attributes":{"POSITION":23,"NORMAL":7,"TEXCOORD_0":26},"material":1,"mode":4,"indices":9}]},{"primitives":[{"attributes":{"POSITION":23,"NORMAL":7,"TEXCOORD_0":27},"material":2,"mode":4,"indices":9}]},{"primitives":[{"attributes":{"POSITION":28,"NORMAL":28,"TEXCOORD_0":29},"material":4,"mode":4,"indices":30}]},{"primitives":[{"attributes":{"POSITION":28,"NORMAL":28,"TEXCOORD_0":31},"material":4,"mode":4,"indices":30}]},{"primitives":[{"attributes":{"POSITION":28,"NORMAL":28,"TEXCOORD_0":32},"material":4,"mode":4,"indices":30}]},{"primitives":[{"attributes":{"POSITION":28,"NORMAL":28,"TEXCOORD_0":33},"material":4,"mode":4,"indices":30}]},{"primitives":[{"attributes":{"POSITION":28,"NORMAL":28,"TEXCOORD_0":34},"material":4,"mode":4,"indices":30}]},{"primitives":[{"attributes":{"POSITION":28,"NORMAL":28,"TEXCOORD_0":35},"material":4,"mode":4,"indices":30}]},{"primitives":[{"attributes":{"POSITION":23,"NORMAL":7,"TEXCOORD_0":36},"material":5,"mode":4,"indices":9}]}],"materials":[{"name":"concrete","pbrMetallicRoughness":{"baseColorTexture":{"index":0},"metallicRoughnessTexture":{"index":2},"roughnessFactor":1,"metallicFactor":1},"normalTexture":{"index":1,"scale":0.82},"occlusionTexture":{"index":2,"strength":0.35}},{"name":"limestone","pbrMetallicRoughness":{"baseColorTexture":{"index":3},"metallicRoughnessTexture":{"index":5},"roughnessFactor":1,"metallicFactor":1},"normalTexture":{"index":4,"scale":0.9},"occlusionTexture":{"index":5,"strength":0.35}},{"name":"metal-dark","pbrMetallicRoughness":{"baseColorTexture":{"index":6},"metallicRoughnessTexture":{"index":8},"roughnessFactor":1,"metallicFactor":1},"normalTexture":{"index":7,"scale":0.35},"occlusionTexture":{"index":8,"strength":0.35}},{"name":"gated-golf-estate signage","pbrMetallicRoughness":{"baseColorTexture":{"index":9},"roughnessFactor":1,"metallicFactor":0},"extensions":{"KHR_materials_unlit":{}}},{"name":"foliage","pbrMetallicRoughness":{"baseColorTexture":{"index":10},"metallicRoughnessTexture":{"index":12},"roughnessFactor":1,"metallicFactor":1},"normalTexture":{"index":11,"scale":0.88},"occlusionTexture":{"index":12,"strength":0.35}},{"name":"stucco-ivory","pbrMetallicRoughness":{"baseColorTexture":{"index":13},"metallicRoughnessTexture":{"index":15},"roughnessFactor":1,"metallicFactor":1},"normalTexture":{"index":14,"scale":0.5},"occlusionTexture":{"index":15,"strength":0.35}}],"textures":[{"source":0,"sampler":0},{"source":1,"sampler":0},{"source":2,"sampler":0},{"source":3,"sampler":0},{"source":4,"sampler":0},{"source":5,"sampler":0},{"source":6,"sampler":0},{"source":7,"sampler":0},{"source":8,"sampler":0},{"source":9,"sampler":0},{"source":10,"sampler":0},{"source":11,"sampler":0},{"source":12,"sampler":0},{"source":13,"sampler":0},{"source":14,"sampler":0},{"source":15,"sampler":0}],"images":[{"uri":"../textures/concrete-albedo.png"},{"uri":"../textures/concrete-normal.png"},{"uri":"../textures/concrete-orm.png"},{"uri":"../textures/limestone-albedo.png"},{"uri":"../textures/limestone-normal.png"},{"uri":"../textures/limestone-orm.png"},{"uri":"../textures/metal-dark-albedo.png"},{"uri":"../textures/metal-dark-normal.png"},{"uri":"../textures/metal-dark-orm.png"},{"uri":"../signs/gated-golf-estate.png"},{"uri":"../textures/foliage-albedo.png"},{"uri":"../textures/foliage-normal.png"},{"uri":"../textures/foliage-orm.png"},{"uri":"../textures/stucco-ivory-albedo.png"},{"uri":"../textures/stucco-ivory-normal.png"},{"uri":"../textures/stucco-ivory-orm.png"}],"samplers":[{"magFilter":9729,"minFilter":9987,"wrapS":10497,"wrapT":10497}],"buffers":[{"uri":"../shared/geometry.bin","byteLength":16435520}],"bufferViews":[{"buffer":0,"byteOffset":0,"byteLength":3888,"target":34962},{"buffer":0,"byteOffset":3888,"byteLength":3888,"target":34962},{"buffer":0,"byteOffset":6070496,"byteLength":2592,"target":34962},{"buffer":0,"byteOffset":6147320,"byteLength":2592,"target":34962},{"buffer":0,"byteOffset":6075680,"byteLength":2592,"target":34962},{"buffer":0,"byteOffset":6078272,"byteLength":2592,"target":34962},{"buffer":0,"byteOffset":45664,"byteLength":288,"target":34962},{"buffer":0,"byteOffset":45952,"byteLength":288,"target":34962},{"buffer":0,"byteOffset":46240,"byteLength":192,"target":34962},{"buffer":0,"byteOffset":46432,"byteLength":72,"target":34963},{"buffer":0,"byteOffset":46504,"byteLength":48,"target":34962},{"buffer":0,"byteOffset":46552,"byteLength":48,"target":34962},{"buffer":0,"byteOffset":182532,"byteLength":32,"target":34962},{"buffer":0,"byteOffset":46632,"byteLength":12,"target":34963},{"buffer":0,"byteOffset":6080864,"byteLength":3276,"target":34962},{"buffer":0,"byteOffset":6084140,"byteLength":2184,"target":34962},{"buffer":0,"byteOffset":6086324,"byteLength":2640,"target":34963},{"buffer":0,"byteOffset":6088964,"byteLength":2184,"target":34962},{"buffer":0,"byteOffset":6091148,"byteLength":2184,"target":34962},{"buffer":0,"byteOffset":6138104,"byteLength":2184,"target":34962},{"buffer":0,"byteOffset":6144008,"byteLength":2184,"target":34962},{"buffer":0,"byteOffset":6149912,"byteLength":2184,"target":34962},{"buffer":0,"byteOffset":6093332,"byteLength":2592,"target":34962},{"buffer":0,"byteOffset":46644,"byteLength":288,"target":34962},{"buffer":0,"byteOffset":6095924,"byteLength":192,"target":34962},{"buffer":0,"byteOffset":6152096,"byteLength":192,"target":34962},{"buffer":0,"byteOffset":6096308,"byteLength":192,"target":34962},{"buffer":0,"byteOffset":6096500,"byteLength":192,"target":34962},{"buffer":0,"byteOffset":6096692,"byteLength":1404,"target":34962},{"buffer":0,"byteOffset":6098096,"byteLength":936,"target":34962},{"buffer":0,"byteOffset":6099032,"byteLength":1008,"target":34963},{"buffer":0,"byteOffset":6100040,"byteLength":936,"target":34962},{"buffer":0,"byteOffset":6100976,"byteLength":936,"target":34962},{"buffer":0,"byteOffset":6140480,"byteLength":936,"target":34962},{"buffer":0,"byteOffset":6146384,"byteLength":936,"target":34962},{"buffer":0,"byteOffset":6152288,"byteLength":936,"target":34962},{"buffer":0,"byteOffset":6101912,"byteLength":192,"target":34962}],"accessors":[{"bufferView":0,"componentType":5126,"count":324,"type":"VEC3","min":[-0.5,-0.5,-0.5],"max":[0.5,0.5,0.5]},{"bufferView":1,"componentType":5126,"count":324,"type":"VEC3"},{"bufferView":2,"componentType":5126,"count":324,"type":"VEC2"},{"bufferView":3,"componentType":5126,"count":324,"type":"VEC2"},{"bufferView":4,"componentType":5126,"count":324,"type":"VEC2"},{"bufferView":5,"componentType":5126,"count":324,"type":"VEC2"},{"bufferView":6,"componentType":5126,"count":24,"type":"VEC3","min":[-0.5,-0.5,-0.02500000037252903],"max":[0.5,0.5,0.02500000037252903]},{"bufferView":7,"componentType":5126,"count":24,"type":"VEC3"},{"bufferView":8,"componentType":5126,"count":24,"type":"VEC2"},{"bufferView":9,"componentType":5123,"count":36,"type":"SCALAR"},{"bufferView":10,"componentType":5126,"count":4,"type":"VEC3","min":[-0.5,-0.5,0],"max":[0.5,0.5,0]},{"bufferView":11,"componentType":5126,"count":4,"type":"VEC3"},{"bufferView":12,"componentType":5126,"count":4,"type":"VEC2"},{"bufferView":13,"componentType":5123,"count":6,"type":"SCALAR"},{"bufferView":14,"componentType":5126,"count":273,"type":"VEC3","min":[-1,-1,-1],"max":[1,1,1]},{"bufferView":15,"componentType":5126,"count":273,"type":"VEC2"},{"bufferView":16,"componentType":5123,"count":1320,"type":"SCALAR"},{"bufferView":17,"componentType":5126,"count":273,"type":"VEC2"},{"bufferView":18,"componentType":5126,"count":273,"type":"VEC2"},{"bufferView":19,"componentType":5126,"count":273,"type":"VEC2"},{"bufferView":20,"componentType":5126,"count":273,"type":"VEC2"},{"bufferView":21,"componentType":5126,"count":273,"type":"VEC2"},{"bufferView":22,"componentType":5126,"count":324,"type":"VEC2"},{"bufferView":23,"componentType":5126,"count":24,"type":"VEC3","min":[-0.5,-0.5,-0.5],"max":[0.5,0.5,0.5]},{"bufferView":24,"componentType":5126,"count":24,"type":"VEC2"},{"bufferView":25,"componentType":5126,"count":24,"type":"VEC2"},{"bufferView":26,"componentType":5126,"count":24,"type":"VEC2"},{"bufferView":27,"componentType":5126,"count":24,"type":"VEC2"},{"bufferView":28,"componentType":5126,"count":117,"type":"VEC3","min":[-1,-1,-1],"max":[1,1,1]},{"bufferView":29,"componentType":5126,"count":117,"type":"VEC2"},{"bufferView":30,"componentType":5123,"count":504,"type":"SCALAR"},{"bufferView":31,"componentType":5126,"count":117,"type":"VEC2"},{"bufferView":32,"componentType":5126,"count":117,"type":"VEC2"},{"bufferView":33,"componentType":5126,"count":117,"type":"VEC2"},{"bufferView":34,"componentType":5126,"count":117,"type":"VEC2"},{"bufferView":35,"componentType":5126,"count":117,"type":"VEC2"},{"bufferView":36,"componentType":5126,"count":24,"type":"VEC2"}],"extensionsUsed":["KHR_materials_unlit"],"extras":{"id":"vlt-gated-golf-estate-16","family":"gated-golf-estate","variant":15,"plan":"D1-1","units":"metres","up":"+Y","front":"+Z","lodScenes":[0,1,2]}}